<?xml version="1.0" encoding="UTF-8" standalone="no"?>
<svg
   xmlns:dc="http://purl.org/dc/elements/1.1/"
   xmlns:cc="http://creativecommons.org/ns#"
   xmlns:rdf="http://www.w3.org/1999/02/22-rdf-syntax-ns#"
   xmlns:svg="http://www.w3.org/2000/svg"
   xmlns="http://www.w3.org/2000/svg"
   viewBox="0 0 370.17468 235.76134"
   height="235.76134"
   width="370.17468"
   xml:space="preserve"
   id="svg2"
   version="1.1"><metadata
     id="metadata8"><rdf:RDF><cc:Work
         rdf:about=""><dc:format>image/svg+xml</dc:format><dc:type
           rdf:resource="http://purl.org/dc/dcmitype/StillImage" /><dc:title></dc:title></cc:Work></rdf:RDF></metadata><defs
     id="defs6" /><g
     transform="matrix(1.3333333,0,0,-1.3333333,-48.361333,418.728)"
     id="g10"><text
       id="text14"
       style="font-variant:normal;font-weight:normal;font-size:27.76799965px;font-family:Arial;-inkscape-font-specification:Arial;writing-mode:lr-tb;fill:#1c4f9d;fill-opacity:1;fill-rule:nonzero;stroke:none"
       transform="matrix(1,0,0,-1,192.3647,157.3569)"><tspan
         id="tspan12"
         y="0"
         x="0 22.627449 37.567883 52.508316 58.17403 71.554939">munich</tspan></text>
<path
       id="path16"
       style="fill:#1c4f9d;fill-opacity:1;fill-rule:evenodd;stroke:none"
       d="m 128.903,249.8539 c 0.8076,7.7029 7.2184,13.3415 14.3189,12.5935 7.0991,-0.747 12.1995,-7.598 11.3919,-15.3009 -0.8079,-7.7026 -7.219,-13.3401 -14.3192,-12.5932 -7.0994,0.7481 -12.1995,7.598 -11.3916,15.3006" /><path
       id="path18"
       style="fill:#1c4f9d;fill-opacity:1;fill-rule:evenodd;stroke:none"
       d="m 92.666,238.9496 c 0.7668,7.3 7.143,12.6133 14.2424,11.8664 7.0993,-0.7481 12.234,-7.2732 11.4681,-14.5738 -0.7656,-7.3003 -7.1422,-12.6133 -14.2424,-11.8653 -7.0991,0.747 -12.234,7.272 -11.4681,14.5727" /><path
       id="path20"
       style="fill:#1c4f9d;fill-opacity:1;fill-rule:evenodd;stroke:none"
       d="m 108.4442,265.3724 c 0.5615,5.3604 5.3612,9.2461 10.7212,8.6826 5.3589,-0.5639 9.2472,-5.3663 8.6845,-10.7255 -0.5627,-5.3589 -5.3623,-9.2449 -10.7212,-8.6814 -5.3592,0.565 -9.2469,5.3663 -8.6845,10.7243" /><path
       id="path22"
       style="fill:#1c4f9d;fill-opacity:1;fill-rule:evenodd;stroke:none"
       d="m 119.4537,222.9982 c 0.5624,5.3603 5.362,9.246 10.7212,8.6822 5.3589,-0.5635 9.2469,-5.3654 8.6853,-10.724 -0.5624,-5.3601 -5.362,-9.2461 -10.7212,-8.6825 -5.3589,0.5638 -9.2469,5.3662 -8.6853,10.7243" /><path
       id="path24"
       style="fill:#2958af;fill-opacity:1;fill-rule:evenodd;stroke:none"
       d="m 151.0753,264.5898 c -1.1982,2.9619 1.2019,6.7252 5.3611,8.4059 4.1585,1.6795 8.5023,0.6392 9.6996,-2.323 1.1988,-2.9628 -1.2016,-6.725 -5.36,-8.4056 -4.1593,-1.6781 -8.502,-0.6389 -9.7007,2.3227" /><path
       id="path26"
       style="fill:#2958af;fill-opacity:1;fill-rule:evenodd;stroke:none"
       d="m 82.4474,212.4343 c -1.7737,4.3846 -0.2053,9.1536 3.5056,10.6529 3.71,1.4975 8.1558,-0.8422 9.9292,-5.2271 1.7739,-4.3844 0.2044,-9.1536 -3.5056,-10.652 -3.71,-1.4979 -8.1553,0.8416 -9.9292,5.2262" /><path
       id="path28"
       style="fill:#2958af;fill-opacity:1;fill-rule:evenodd;stroke:none"
       d="m 129.7922,281.2978 c 1.6965,3.1909 5.688,4.3854 8.9164,2.6671 3.2278,-1.7181 4.4694,-5.6982 2.7731,-8.8898 -1.6963,-3.1909 -5.6883,-4.3854 -8.9161,-2.6662 -3.2281,1.7183 -4.4694,5.6973 -2.7734,8.8889" /><path
       id="path30"
       style="fill:#2958af;fill-opacity:1;fill-rule:evenodd;stroke:none"
       d="m 101.1189,207.2659 c 0.4209,4.0198 4.5102,6.8856 9.1349,6.3972 4.6222,-0.4861 8.0286,-4.1405 7.6074,-8.1604 -0.4224,-4.0201 -4.5117,-6.8845 -9.1361,-6.3983 -4.6225,0.487 -8.0286,4.1405 -7.6062,8.1615" /><path
       id="path32"
       style="fill:#5888c2;fill-opacity:1;fill-rule:evenodd;stroke:none"
       d="m 170.0915,274.5998 c 0.2798,2.6713 3.2581,4.5468 6.6526,4.1896 3.3934,-0.3572 5.9176,-2.812 5.6367,-5.4848 -0.2795,-2.6705 -3.2584,-4.5467 -6.6518,-4.1896 -3.3944,0.3583 -5.9184,2.8131 -5.6375,5.4848" /><path
       id="path34"
       style="fill:#bbdaf3;fill-opacity:1;fill-rule:evenodd;stroke:none"
       d="m 188.0059,278.1337 c 0.2231,2.1226 3.0186,3.5683 6.2433,3.2287 3.2258,-0.3402 5.6597,-2.3363 5.4368,-4.4589 -0.2222,-2.1226 -3.0174,-3.5683 -6.2424,-3.2289 -3.2258,0.3395 -5.6597,2.3354 -5.4377,4.4591" /><path
       id="path36"
       style="fill:#5888c2;fill-opacity:1;fill-rule:evenodd;stroke:none"
       d="m 134.6275,295.1609 c 0.243,2.3247 3.0552,3.9331 6.281,3.5926 3.2259,-0.3384 5.6418,-2.4979 5.3978,-4.8217 -0.243,-2.3247 -3.0552,-3.9331 -6.281,-3.5935 -3.225,0.3396 -5.6418,2.4999 -5.3978,4.8226" /><path
       id="path38"
       style="fill:#63a2d9;fill-opacity:1;fill-rule:evenodd;stroke:none"
       d="m 112.7137,173.73 c -0.3478,1.973 1.6753,3.9762 4.5199,4.4768 2.8434,0.5009 5.4323,-0.6925 5.7801,-2.6634 0.3478,-1.9715 -1.675,-3.9748 -4.5196,-4.4754 -2.8445,-0.5011 -5.4326,0.6914 -5.7804,2.662" /><path
       id="path40"
       style="fill:#5888c2;fill-opacity:1;fill-rule:evenodd;stroke:none"
       d="m 67.1332,214.6626 c 1.7257,2.0577 5.3685,1.8397 8.1366,-0.485 2.768,-2.3247 3.6136,-5.8765 1.8881,-7.9353 -1.7268,-2.0565 -5.3688,-1.8388 -8.1377,0.485 -2.768,2.3261 -3.6125,5.8776 -1.887,7.9353" /><path
       id="path42"
       style="fill:#63a2d9;fill-opacity:1;fill-rule:evenodd;stroke:none"
       d="m 50.9423,209.069 c 1.1041,1.7685 4.5856,1.5843 7.7748,-0.4107 3.1901,-1.9948 4.8802,-5.0446 3.7758,-6.8131 -1.1041,-1.7666 -4.5845,-1.5832 -7.774,0.4116 -3.1901,1.995 -4.8813,5.0445 -3.7766,6.8122" /><path
       id="path44"
       style="fill:#bbdaf3;fill-opacity:1;fill-rule:evenodd;stroke:none"
       d="m 37.1282,203.7353 c 0.8569,1.3703 3.9121,1.0055 6.8267,-0.8161 2.9137,-1.8221 4.5805,-4.4109 3.7247,-5.7823 -0.8572,-1.3715 -3.9132,-1.0049 -6.827,0.8169 -2.9137,1.8221 -4.5816,4.411 -3.7244,5.7815" /><path
       id="path46"
       style="fill:#bbdaf3;fill-opacity:1;fill-rule:evenodd;stroke:none"
       d="m 133.0948,310.6522 c 0.2084,1.9908 2.3803,3.3934 4.8507,3.1337 2.4715,-0.2599 4.3038,-2.0851 4.0955,-4.0768 -0.2087,-1.9905 -2.3803,-3.3936 -4.8518,-3.1337 -2.4704,0.26 -4.3041,2.0852 -4.0944,4.0768" /><path
       id="path48"
       style="fill:#bbdaf3;fill-opacity:1;fill-rule:evenodd;stroke:none"
       d="m 116.3923,161.1765 c -0.3272,1.8545 1.4428,3.7148 3.9529,4.1573 2.5092,0.4422 4.8101,-0.7018 5.1378,-2.5565 0.3271,-1.8545 -1.4423,-3.7151 -3.9518,-4.1573 -2.5104,-0.4411 -4.811,0.703 -5.1389,2.5565" /><path
       id="path50"
       style="fill:#2958af;fill-opacity:1;fill-rule:evenodd;stroke:none"
       d="m 85.9975,265.5286 c 0.3801,3.6179 4.0606,6.196 8.221,5.7583 4.1616,-0.4379 7.2272,-3.7255 6.848,-7.3454 -0.3805,-3.6178 -4.061,-6.1951 -8.2225,-5.7583 -4.1604,0.4391 -7.2261,3.7279 -6.8465,7.3454" /><path
       id="path52"
       style="fill:#5888c2;fill-opacity:1;fill-rule:evenodd;stroke:none"
       d="m 77.3748,281.7848 c 0.2585,2.4715 3.058,4.2012 6.2506,3.865 3.1921,-0.3362 5.5704,-2.6121 5.3116,-5.0814 -0.2588,-2.4704 -3.058,-4.2004 -6.2504,-3.865 -3.1924,0.3364 -5.5706,2.6118 -5.3118,5.0814" /><path
       id="path54"
       style="fill:#bbdaf3;fill-opacity:1;fill-rule:evenodd;stroke:none"
       d="m 64.2929,293.2404 c 0.1876,1.7895 2.5064,3.0132 5.1777,2.7315 2.6717,-0.2809 4.6843,-1.9605 4.4969,-3.7511 -0.1876,-1.7892 -2.5049,-3.0118 -5.178,-2.7312 -2.6717,0.2818 -4.684,1.9604 -4.4966,3.7508" /><path
       id="path56"
       style="fill:#5888c2;fill-opacity:1;fill-rule:evenodd;stroke:none"
       d="m 108.6758,184.2038 c -1.6175,2.1447 -0.5896,5.646 2.2966,7.8213 2.8865,2.1739 6.5378,2.198 8.1553,0.0533 1.6177,-2.1447 0.589,-5.646 -2.2966,-7.821 -2.8863,-2.1739 -6.5376,-2.198 -8.1553,-0.0536" /><path
       id="path58"
       style="fill:#1c4f9d;fill-opacity:1;fill-rule:evenodd;stroke:none"
       d="m 247.8986,195.7348 c -1.793,8.3172 -8.3668,10.2365 -14.3431,10.2365 -8.9643,0 -14.9405,-4.4784 -14.9405,-13.4354 0,-9.5969 5.3787,-13.4356 14.3427,-13.4356 7.7692,0 13.1479,1.9193 14.9409,10.8762 h -7.7692 c -0.5976,-3.1986 -2.9883,-5.1182 -6.5739,-5.1182 -4.7809,0 -7.1713,2.5591 -7.1713,7.6776 0,4.4785 2.3904,7.6774 7.1713,7.6774 2.9883,0 5.3785,-1.2796 6.5739,-4.4785" /><path
       id="path60"
       style="fill:#1c4f9d;fill-opacity:1;fill-rule:evenodd;stroke:none"
       d="m 216.9278,195.7348 c -1.7929,8.3172 -8.3668,10.2365 -14.343,10.2365 -8.9643,0 -14.9406,-4.4784 -14.9406,-13.4354 0,-9.5969 5.3784,-13.4356 14.3427,-13.4356 7.7692,0 13.148,1.9193 14.9409,10.8762 h -7.7692 c -0.5976,-3.1986 -2.9883,-5.1182 -6.5738,-5.1182 -4.781,0 -7.1714,2.5591 -7.1714,7.6776 0,4.4785 2.3904,7.6774 7.1714,7.6774 2.9882,0 5.3784,-1.2796 6.5738,-4.4785" /><path
       id="path62"
       style="fill:#1c4f9d;fill-opacity:1;fill-rule:evenodd;stroke:none"
       d="m 268.7097,179.1003 h 7.7689 v 17.0351 c 0,8.1768 -5.976,9.5394 -10.1594,9.5394 -4.1834,0 -7.7689,-2.0441 -8.9643,-4.7699 h -0.5975 v 4.0887 h -7.1717 v -25.8933 h 7.7692 v 12.2652 c 0,5.4513 2.9883,7.4954 6.5739,7.4954 2.988,0 4.7809,-1.3626 4.7809,-5.4513" /><path
       id="path64"
       style="fill:#1c4f9d;fill-opacity:1;fill-rule:evenodd;stroke:none"
       d="m 178.1878,192.5359 c 0,4.4785 -2.988,7.0376 -7.1714,7.0376 -3.5855,0 -7.1713,-2.5591 -7.1713,-7.0376 0,-5.1185 3.5858,-7.6776 7.1713,-7.6776 4.1834,0 7.1714,2.5591 7.1714,7.6776 z m -14.3427,-12.1561 h -7.1714 v 33.2689 h 7.7692 v -12.1558 0 c 1.1951,2.5591 4.7809,3.8386 8.9643,3.8386 7.1714,0 12.5498,-5.1182 12.5498,-13.4356 0,-8.3172 -5.3784,-12.7956 -12.5498,-12.7956 -3.5858,0 -6.5741,0.64 -8.9643,3.8387 h -0.5978" /></g></svg>