<?xml version="1.0" encoding="UTF-8" standalone="no"?>
<svg
   xmlns:dc="http://purl.org/dc/elements/1.1/"
   xmlns:cc="http://creativecommons.org/ns#"
   xmlns:rdf="http://www.w3.org/1999/02/22-rdf-syntax-ns#"
   xmlns:svg="http://www.w3.org/2000/svg"
   xmlns="http://www.w3.org/2000/svg"
   xmlns:sodipodi="http://sodipodi.sourceforge.net/DTD/sodipodi-0.dtd"
   xmlns:inkscape="http://www.inkscape.org/namespaces/inkscape"
   viewBox="0 0 71.709992 70.868323"
   height="70.166656"
   width="70.999992"
   xml:space="preserve"
   id="svg2"
   version="1.1"
   sodipodi:docname="effects.svg"
   inkscape:version="0.92.5 (2060ec1f9f, 2020-04-08)"><sodipodi:namedview
     pagecolor="#ffffff"
     bordercolor="#666666"
     borderopacity="1"
     objecttolerance="10"
     gridtolerance="10"
     guidetolerance="10"
     inkscape:pageopacity="0"
     inkscape:pageshadow="2"
     inkscape:window-width="1920"
     inkscape:window-height="1018"
     id="namedview40"
     showgrid="false"
     inkscape:object-nodes="false"
     fit-margin-top="10"
     scale-x="1.01"
     inkscape:zoom="5.6568543"
     inkscape:cx="60.315588"
     inkscape:cy="32.382109"
     inkscape:window-x="1920"
     inkscape:window-y="34"
     inkscape:window-maximized="1"
     inkscape:current-layer="svg2" /><metadata
     id="metadata8"><rdf:RDF><cc:Work
         rdf:about=""><dc:format>image/svg+xml</dc:format><dc:type
           rdf:resource="http://purl.org/dc/dcmitype/StillImage" /><dc:title></dc:title></cc:Work></rdf:RDF></metadata><defs
     id="defs6"><marker
       inkscape:stockid="Arrow2Lstart"
       orient="auto"
       refY="0"
       refX="0"
       id="Arrow2Lstart"
       style="overflow:visible"
       inkscape:isstock="true"><path
         id="path1083"
         style="fill:#000000;fill-opacity:1;fill-rule:evenodd;stroke:#000000;stroke-width:0.625;stroke-linejoin:round;stroke-opacity:1"
         d="M 8.7185878,4.0337352 -2.2072895,0.01601326 8.7185884,-4.0017078 c -1.7454984,2.3720609 -1.7354408,5.6174519 -6e-7,8.035443 z"
         transform="matrix(1.1,0,0,1.1,1.1,0)"
         inkscape:connector-curvature="0" /></marker><marker
       inkscape:stockid="Arrow2Lend"
       orient="auto"
       refY="0"
       refX="0"
       id="Arrow2Lend"
       style="overflow:visible"
       inkscape:isstock="true"><path
         id="path1086"
         style="fill:#000000;fill-opacity:1;fill-rule:evenodd;stroke:#000000;stroke-width:0.625;stroke-linejoin:round;stroke-opacity:1"
         d="M 8.7185878,4.0337352 -2.2072895,0.01601326 8.7185884,-4.0017078 c -1.7454984,2.3720609 -1.7354408,5.6174519 -6e-7,8.035443 z"
         transform="matrix(-1.1,0,0,-1.1,-1.1,0)"
         inkscape:connector-curvature="0" /></marker><clipPath
       id="clipPath704"
       clipPathUnits="userSpaceOnUse"><path
         id="path702"
         d="M 0,0 H 324 V 86 H 0 Z"
         inkscape:connector-curvature="0" /></clipPath><clipPath
       id="g13fc30d2bb5_0_123.9"><path
         style="clip-rule:evenodd"
         id="path189"
         d="M 0,0 H 861 V 824 H 0 Z"
         inkscape:connector-curvature="0" /></clipPath></defs><path
     inkscape:connector-curvature="0"
     id="path102"
     style="fill:#1a82ec;fill-opacity:1;fill-rule:nonzero;stroke:none;stroke-width:1.33333325"
     d="m 25.119996,39.302721 -0.04133,-5.36 0.04133,-0.02133 c 2.145333,-0.812 4.150667,-1.910667 6.224,-2.833334 2.12,-0.942666 4.292,-1.776 6.468,-2.582666 1.234666,-0.453333 2.469333,-0.901333 3.709333,-1.354667 1.452,-0.541333 2.942667,-0.957333 4.432,-1.405333 l 0.202667,0.208 0.256,-0.256 -0.068,-0.072 c 0.416,-0.125333 0.838666,-0.256 1.254666,-0.390667 2.094667,-0.682666 4.109334,-1.521333 6.213333,-2.104 1.146667,-0.324 2.313334,-0.6 3.474667,-0.854666 1.24,-0.26 2.426667,-0.656 3.650667,-0.849334 1.005333,-0.161333 2.12,-0.176 3.104,-0.677333 l 0.052,7.141333 -0.02533,-0.04133 c -0.937333,0.505333 -2.125333,0.536 -3.265333,0.702667 -1.256,0.182666 -2.442667,0.521333 -3.652,0.750666 -1.166667,0.224 -2.338667,0.473333 -3.489333,0.754667 -2.114667,0.516 -4.125333,1.234666 -6.192,1.817333 -2.016,0.568 -4.057333,1.026667 -6.068,1.661333 -1.229333,0.385334 -2.458667,0.770667 -3.688,1.161334 -0.208,0.068 -0.416,0.136 -0.625333,0.204 l 0.130667,-0.125334 -0.254667,-0.26 -0.250667,0.254667 0.188,0.188 C 35,35.573394 33.114667,36.20806 31.26,36.917394 c -2.066667,0.78 -4.041333,1.697333 -6.14,2.385333 m 12.609333,-5.542667 -0.250666,0.250667 0.250666,0.26 0.254667,-0.254667 -0.254667,-0.256 m 0.770667,-0.76 -0.254667,0.254667 0.249334,0.256 0.254666,-0.250667 -0.249333,-0.26 m 0.765333,-0.749333 -0.254667,0.249333 0.249334,0.254667 0.256,-0.249333 -0.250667,-0.254667 m 0.765333,-0.761333 -0.254666,0.256 0.250666,0.254666 0.254667,-0.250666 -0.250667,-0.26 m 0.766667,-0.754667 -0.256,0.254667 0.250667,0.256 0.254666,-0.256 -0.249333,-0.254667 m 0.765333,-0.756 -0.256,0.256 0.250667,0.249333 0.254667,-0.249333 -0.249334,-0.256 M 42.328,29.22406 l -0.249334,0.254667 0.249334,0.256 0.250666,-0.256 L 42.328,29.22406 M 43.098666,28.469394 42.844,28.718727 43.093333,28.973394 43.344,28.724061 43.098666,28.469394 m 0.765334,-0.756 -0.254667,0.250667 0.250667,0.254666 0.254666,-0.249333 -0.250666,-0.256 m 0.766666,-0.754667 -0.256,0.249334 0.250667,0.256 L 44.88,27.213394 44.630666,26.958727 m 0.765334,-0.761333 -0.256,0.256 0.250666,0.254667 0.254667,-0.249334 L 45.396,26.197394" /><path
     inkscape:connector-curvature="0"
     id="path104"
     style="fill:#1a82ec;fill-opacity:1;fill-rule:nonzero;stroke:none;stroke-width:1.33333325"
     d="M 25.182663,39.661388 H 24.76533 l -0.05733,-6.781334 0.422667,0.650667 c 2.062666,-0.790667 4.025333,-1.864 6.066666,-2.770667 2.130667,-0.948 4.313334,-1.786666 6.490667,-2.593333 1.233333,-0.453333 2.473333,-0.901333 3.708,-1.354666 1.797333,-0.661334 3.625333,-1.145334 5.437333,-1.713334 l 0.09333,0.09867 0.182667,-0.181333 c 0.125333,-0.04267 0.254667,-0.084 0.38,-0.12 2.073333,-0.677334 4.094667,-1.521334 6.229333,-2.114667 1.150667,-0.322667 2.328,-0.604 3.494667,-0.854667 1.208,-0.26 2.412,-0.656 3.666666,-0.853333 1.104,-0.172 2.245334,-0.198667 3.161334,-0.724 v -0.09867 h 0.822666 l -0.462666,0.296 0.04667,7.458667 h -0.292 l 0.084,0.161333 c -1.046666,0.552 -2.276,0.573334 -3.385333,0.74 -1.224,0.176 -2.406667,0.514667 -3.636,0.749333 -1.161333,0.224 -2.333333,0.469334 -3.469333,0.750667 -2.098667,0.510667 -4.098667,1.229333 -6.181333,1.812 -2.032,0.573333 -4.068,1.032 -6.057334,1.656 -1.229333,0.396 -2.458666,0.776 -3.687999,1.166667 -0.468,0.146666 -0.937334,0.302666 -1.406667,0.453333 l -0.218667,-0.224 -0.254666,0.250667 0.09333,0.09867 c -1.562667,0.510667 -3.118667,1.046667 -4.645333,1.625334 -2.062667,0.785333 -4.052,1.708 -6.188,2.410666 l -0.02,0.0053 m -0.104,-5.718667 0.04133,5.36 c 2.093333,-0.688 4.073333,-1.605333 6.14,-2.385333 1.854667,-0.709334 3.74,-1.344 5.641333,-1.958667 l 0.06267,0.068 0.118667,-0.125333 c 0.214666,-0.068 0.422666,-0.136 0.630666,-0.204 1.229333,-0.390667 2.458667,-0.776 3.688,-1.161334 2.010667,-0.634666 4.052,-1.093333 6.068,-1.661333 2.066667,-0.582667 4.077333,-1.301333 6.192,-1.817333 1.150666,-0.281334 2.322666,-0.530667 3.489333,-0.754667 1.209333,-0.229333 2.396,-0.568 3.652,-0.750666 1.14,-0.166667 2.328,-0.197334 3.265333,-0.702667 l 0.02,0.04133 -0.04667,-7.141333 c -0.984,0.501333 -2.098667,0.516 -3.104,0.677333 -1.224,0.193334 -2.410667,0.589334 -3.650667,0.849334 -1.161333,0.254666 -2.328,0.530666 -3.474667,0.854666 -2.103999,0.582667 -4.118666,1.421334 -6.213333,2.104 -0.416,0.134667 -0.838666,0.265334 -1.254666,0.390667 l -0.182667,-0.182667 -0.254667,0.250667 0.04667,0.052 c -1.489333,0.448 -2.98,0.864 -4.432,1.405333 -1.24,0.453334 -2.474667,0.901334 -3.709333,1.354667 -2.176,0.806666 -4.348,1.64 -6.468,2.582666 -2.073333,0.922667 -4.078667,2.021334 -6.224,2.833334 l -0.04133,0.02133" /><path
     inkscape:connector-curvature="0"
     id="path106"
     style="fill:#111111;fill-opacity:1;fill-rule:nonzero;stroke:none;stroke-width:1.33333325"
     d="m 25.270663,37.125388 c 2.125333,-0.74 4.104,-1.698667 6.145333,-2.516 2.089333,-0.838667 4.234667,-1.588 6.390667,-2.317334 1.219999,-0.412 2.443999,-0.818666 3.666666,-1.229333 1.969333,-0.661333 4,-1.150667 6.026667,-1.76 2.073333,-0.625333 4.062666,-1.376 6.145333,-1.922666 1.130666,-0.297334 2.292,-0.562667 3.442666,-0.806667 1.234667,-0.256 2.412,-0.614667 3.625334,-0.813333 1.098666,-0.181334 2.338666,-0.224 3.401333,-0.812 l -0.265333,-0.469334 c -0.896,0.510667 -2.078667,0.562667 -3.224,0.750667 -1.261334,0.202667 -2.442667,0.568 -3.646667,0.817333 -1.161333,0.245334 -2.328,0.510667 -3.473333,0.813334 -2.114667,0.556 -4.109333,1.312 -6.161333,1.926666 -2.005334,0.604 -4.041334,1.098667 -6.041334,1.765333 -1.224,0.412 -2.442666,0.817334 -3.671999,1.229334 -2.157334,0.734666 -4.308,1.484 -6.417334,2.328 -2.062666,0.828 -4.030666,1.781333 -6.119999,2.505333 l 0.177333,0.510667" /><path
     inkscape:connector-curvature="0"
     id="path108"
     style="fill:#454545;fill-opacity:1;fill-rule:nonzero;stroke:none;stroke-width:1.33333325"
     d="M 4.1399967,67.401387 4.26533,67.276054 4.0159967,67.021387 3.88533,67.15072" /><path
     inkscape:connector-curvature="0"
     id="path110"
     style="fill:#454545;fill-opacity:1;fill-rule:nonzero;stroke:none;stroke-width:1.33333325"
     d="m 4.7759967,66.77072 0.2546666,-0.244 -0.2493333,-0.261333 -0.26,0.256 0.2546667,0.249333 m 0.7653333,-0.749333 0.256,-0.256 -0.2506667,-0.254667 -0.26,0.249334 0.2546667,0.261333 M 6.3119966,65.260054 6.5626633,65.01072 6.3119966,64.75472 6.05733,65.005387 6.3119966,65.260054 m 0.7666667,-0.754667 0.2493333,-0.254667 -0.2493333,-0.250666 -0.256,0.250666 0.256,0.254667 m 0.7653333,-0.756 0.2546667,-0.249333 -0.2493334,-0.254667 -0.2613333,0.249333 0.256,0.254667 m 0.7653333,-0.754667 0.2546667,-0.249333 -0.2493333,-0.261333 -0.26,0.256 0.2546666,0.254666 m 0.7653333,-0.754666 0.256,-0.256 -0.2506666,-0.249334 -0.26,0.244 0.2546666,0.261334 m 0.7653338,-0.761334 0.256,-0.244 -0.250667,-0.261333 -0.2600001,0.256 0.2546671,0.249333 m 0.766666,-0.749333 0.254667,-0.256 -0.249333,-0.254667 -0.256,0.250667 0.250666,0.26 m 0.765334,-0.76 0.254666,-0.250667 -0.249333,-0.26 -0.256,0.254667 0.250667,0.256 m 0.770666,-0.750667 0.250667,-0.254666 -0.250667,-0.256 -0.254667,0.250666 0.254667,0.26 m 0.765333,-0.76 0.256,-0.250666 -0.256,-0.26 -0.254666,0.254666 0.254666,0.256 m 0.765334,-0.756 0.256,-0.254666 -0.256,-0.250667 -0.254667,0.250667 0.254667,0.254666 m 0.766666,-0.76 0.254667,-0.245333 -0.254667,-0.26 -0.256,0.256 0.256,0.249333 m 0.765334,-0.749333 0.254666,-0.256 -0.254666,-0.254667 -0.254667,0.254667 0.254667,0.256 m 0.770666,-0.761333 0.250667,-0.249333 -0.250667,-0.256 -0.26,0.250666 0.26,0.254667 m 0.765334,-0.754667 0.250666,-0.250666 -0.250666,-0.254667 -0.254667,0.254667 0.254667,0.250666 m 0.765333,-0.756 0.256,-0.249333 -0.256,-0.256 -0.254667,0.250667 0.254667,0.254666 m 0.766667,-0.754666 0.254666,-0.249334 -0.254666,-0.261333 -0.256,0.256 0.256,0.254667 m 0.765333,-0.754667 0.254667,-0.250667 -0.254667,-0.254666 -0.256,0.244 0.256,0.261333 m 0.765333,-0.756 0.256,-0.249333 -0.256,-0.261334 -0.254666,0.256 0.254666,0.254667 m 0.765334,-0.754667 0.256,-0.256 -0.256,-0.254666 -0.249334,0.249333 0.249334,0.261333 m 0.766666,-0.761333 0.254667,-0.249333 -0.254667,-0.254667 -0.250666,0.249333 0.250666,0.254667 m 0.765334,-0.749333 0.254666,-0.254667 -0.249333,-0.256 -0.256,0.250667 0.250667,0.26 m 0.765333,-0.76 0.254667,-0.250667 -0.249334,-0.254667 -0.254666,0.249334 0.249333,0.256 m 0.765333,-0.756 0.261334,-0.254667 -0.256,-0.250667 -0.254667,0.250667 0.249333,0.254667 m 0.765334,-0.76 0.261333,-0.245334 -0.256,-0.254666 -0.254667,0.249333 0.249334,0.250667 m 0.766666,-0.750667 0.26,-0.254667 -0.254667,-0.254666 -0.255999,0.254666 0.250666,0.254667 m 0.765333,-0.76 0.26,-0.249333 -0.254666,-0.256 -0.256,0.250666 0.250666,0.254667 m 0.770667,-0.754667 0.254667,-0.250666 -0.254667,-0.254667 -0.250667,0.254667 0.250667,0.250666 m 0.765333,-0.750666 0.261334,-0.254667 -0.261334,-0.256 -0.249333,0.250667 0.249333,0.26 m 0.765334,-0.76 0.261333,-0.250667 -0.256,-0.26 -0.254667,0.254667 0.249334,0.256 m 0.766666,-0.754667 0.26,-0.250666 -0.254666,-0.254667 -0.256,0.244 0.250666,0.261333 m 0.765334,-0.756 0.26,-0.249333 -0.254667,-0.261333 -0.256,0.256 0.250667,0.254666 m 0.765333,-0.754666 0.26,-0.256 -0.254667,-0.254667 -0.254666,0.249333 0.249333,0.261334 m 0.765333,-0.761334 0.261334,-0.249333 -0.256,-0.256 -0.249334,0.256 0.244,0.249333 m 0.770667,-0.749333 0.256,-0.256 -0.250667,-0.254667 -0.254666,0.250667 0.249333,0.26 m 0.766667,-0.76 0.254666,-0.250667 -0.249333,-0.254666 -0.256,0.249333 0.250667,0.256 m 0.765333,-0.756 0.254667,-0.254667 -0.249334,-0.250666 -0.256,0.250666 0.250667,0.254667 m 0.765333,-0.754667 0.256,-0.250666 -0.250666,-0.254667 -0.254667,0.249333 0.249333,0.256 m 0.765334,-0.756 0.261333,-0.249333 -0.256,-0.26 -0.254667,0.254667 0.249334,0.254666 m 0.766666,-0.754666 0.26,-0.254667 -0.256,-0.256 -0.254666,0.250667 0.250666,0.26 m 0.770667,-0.754667 0.254667,-0.250667 -0.254667,-0.26 -0.250667,0.254667 0.250667,0.256 m 0.765333,-0.756 0.254667,-0.254667 -0.254667,-0.256 -0.250666,0.250667 0.250666,0.26 m 0.765334,-0.76 0.254666,-0.250667 -0.249333,-0.26 -0.254667,0.254667 0.249334,0.256 m 0.765333,-0.756 0.256,-0.249333 -0.250667,-0.254667 -0.254667,0.249333 0.249334,0.254667 m 0.766666,-0.754667 0.254667,-0.250666 -0.250667,-0.26 -0.254666,0.256 0.250666,0.254666 m 0.765334,-0.754666 0.254666,-0.256 -0.249333,-0.254667 -0.256,0.254667 0.250667,0.256 m 0.765333,-0.761334 0.254667,-0.249333 -0.249334,-0.256 -0.256,0.256 0.250667,0.249333 m 0.770667,-0.749333 0.250666,-0.256 -0.250666,-0.254667 -0.254667,0.254667 0.254667,0.256 m 0.765333,-0.761333 0.250667,-0.249333 -0.245334,-0.254667 -0.254666,0.249333 0.249333,0.254667 m 0.766667,-0.754667 0.254666,-0.249333 -0.250666,-0.256 -0.254667,0.250667 0.250667,0.254666 m 0.765333,-0.754666 0.254667,-0.250667 -0.249334,-0.254667 -0.256,0.249334 0.250667,0.256 m 0.765333,-0.756 0.254667,-0.249334 -0.249333,-0.261333 -0.256,0.256 0.250666,0.254667 m 0.765334,-0.754667 0.256,-0.256 -0.250667,-0.254667 -0.254667,0.250667 0.249334,0.26 m 0.770666,-0.756 0.250667,-0.249333 -0.250667,-0.26 -0.254666,0.254666 0.254666,0.254667 m 0.766667,-0.754667 0.249333,-0.254666 -0.249333,-0.256 -0.256,0.250666 0.256,0.26 m 0.765333,-0.76 0.254667,-0.250666 -0.249333,-0.254667 -0.261334,0.249333 0.256,0.256 m 0.765334,-0.756 0.254666,-0.249333 -0.249333,-0.256 -0.26,0.250667 0.254667,0.254666 m 0.765333,-0.754666 0.256,-0.250667 -0.250667,-0.254667 -0.26,0.250667 0.254667,0.254667 m 0.765333,-0.756 0.256,-0.254667 -0.250666,-0.254667 -0.26,0.254667 0.254666,0.254667 m 0.766667,-0.76 0.254667,-0.249334 -0.249334,-0.250666 -0.261333,0.250666 0.256,0.249334 m 0.770666,-0.749334 0.249334,-0.256 -0.249334,-0.254666 -0.256,0.254666 0.256,0.256 m 0.765334,-0.761333 0.249333,-0.249333 -0.244,-0.256 -0.26,0.250666 0.254667,0.254667 m 0.765333,-0.754667 0.250667,-0.250666 -0.245334,-0.254667 -0.26,0.250667 0.254667,0.254666 m 0.765333,-0.750666 0.256,-0.254667 -0.250666,-0.254667 -0.26,0.249334 0.254666,0.26 m 0.766667,-0.76 0.254667,-0.249334 -0.249334,-0.261333 -0.261333,0.256 0.256,0.254667 m 0.765333,-0.754667 0.254667,-0.256 -0.249333,-0.249333 -0.261334,0.249333 0.256,0.256 m 0.765334,-0.756 0.254666,-0.249333 -0.249333,-0.26 -0.26,0.254667 0.254667,0.254666 m 0.770666,-0.754666 0.250667,-0.254667 -0.250667,-0.256 -0.254666,0.250667 0.254666,0.26 m 0.765334,-0.760002 0.250666,-0.250667 -0.250666,-0.254666 -0.254667,0.249333 0.254667,0.256 m 0.766666,-0.756 0.254667,-0.249334 -0.254667,-0.256 -0.256,0.250667 0.256,0.254667 m 0.765334,-0.754667 0.254666,-0.250667 -0.254666,-0.254667 -0.256,0.249334 0.256,0.256 m 0.765333,-0.756001 0.254667,-0.254666 -0.254667,-0.254667 -0.254667,0.254667 0.254667,0.254666 m 0.765333,-0.754667 0.256,-0.249333 -0.256,-0.256 -0.254666,0.250667 0.254666,0.254666 m 0.770667,-0.754666 0.250667,-0.2506695 -0.250667,-0.26 -0.254667,0.254667 0.254667,0.2560025 m 0.766667,-0.7560025 0.249333,-0.254667 -0.249333,-0.2560015 -0.256,0.2506685 0.256,0.26 m 0.765333,-0.7600015 0.249333,-0.250667 -0.249333,-0.254667 -0.256,0.249334 0.256,0.256 m 0.765333,-0.7506676 0.254667,-0.2546666 -0.254667,-0.2546667 -0.254666,0.2493333 0.254666,0.26 m 0.765334,-0.76 0.255999,-0.2493333 -0.255999,-0.2613333 -0.254667,0.256 0.254667,0.2546666 m 0.765333,-0.7546666 0.256,-0.256 -0.256,-0.2493333 -0.254667,0.2493333 0.254667,0.256 m 0.766666,-0.756 0.254667,-0.2493333 -0.254667,-0.2613333 -0.256,0.256 0.256,0.2546666 m 0.765334,-0.7546666 0.254666,-0.256 -0.254666,-0.2546667 -0.254667,0.2546667 0.254667,0.256 m 0.765333,-0.76 0.256,-0.2506667 -0.256,-0.2546666 -0.249333,0.2493333 0.249333,0.256 m 0.765333,-0.7506666 0.261334,-0.2546667 -0.256,-0.256 -0.254667,0.256 0.249333,0.2546667 m 0.766667,-0.76 0.26,-0.2506667 -0.254667,-0.2546667 -0.256,0.2493334 0.250667,0.256 m 0.765333,-0.756 0.26,-0.2493333 -0.254666,-0.26 -0.256,0.2546666 0.250666,0.2546667 m 0.765334,-0.7546667 0.26,-0.25066659 -0.254667,-0.2546667 -0.254667,0.2493333 0.249334,0.25599999 m 0.770666,-0.75466659 0.256,-0.250666704141 -0.256,-0.259999965859 -0.249333,0.2546667 0.249333,0.25599997 m 0.765334,-0.75599997 0.256,-0.2546667 -0.256,-0.25066654 -0.249334,0.24533324 0.249334,0.26 m 0.766666,-0.75999994 0.254667,-0.2506666 -0.250667,-0.2546667 -0.254666,0.2546667 0.250666,0.2506666 m 0.765334,-0.7506667 0.254666,-0.2546667 -0.249333,-0.256 -0.256,0.2506667 0.250667,0.26 m 0.765333,-0.76 0.26,-0.2506667 -0.254667,-0.2546666 -0.254666,0.2506666 0.249333,0.2546667 m 0.765333,-0.7546667 0.261334,-0.2559999 -0.256,-0.2493334 -0.254667,0.2493334 0.249333,0.2559999 m 0.765334,-0.7559999 0.261333,-0.2493334 -0.256,-0.256 -0.254667,0.2506667 0.249334,0.2546667 m 0.766666,-0.7546667 0.26,-0.256 -0.254666,-0.2546666 -0.256,0.2546666 0.250666,0.256 m 0.770667,-0.7613333 0.254667,-0.2493336 -0.254667,-0.250666 -0.250667,0.245333 0.250667,0.2546666 m 0.765333,-0.7493336 0.254667,-0.254666 -0.254667,-0.2559985 -0.249333,0.2559985 0.249333,0.254666 m 0.765333,-0.7599985 0.256,-0.250666 -0.250666,-0.254667 -0.254667,0.249333 0.249333,0.256 m 0.765334,-0.7559995 0.261333,-0.249333 -0.256,-0.256 -0.254667,0.256 0.249334,0.249333 m 0.766666,-0.749333 0.26,-0.2559995 -0.254666,-0.254667 -0.256,0.249334 0.250666,0.2613325 m 0.765334,-0.7613325 0.26,-0.249334 -0.254667,-0.259999 -0.256,0.254666 0.250667,0.254667 m 0.770666,-0.754666 0.254667,-0.254667 -0.254667,-0.250666 -0.249333,0.245333 0.249333,0.26 m 0.765334,-0.759998 0.256,-0.250666 -0.256,-0.254667 -0.249334,0.254667 0.249334,0.250666" /><path
     inkscape:connector-curvature="0"
     id="path112"
     style="fill:#454545;fill-opacity:1;fill-rule:nonzero;stroke:none;stroke-width:1.33333325"
     d="m 84.473328,-11.843946 0.125333,-0.129334 -0.249333,-0.255998 -0.125333,0.125334" /><path
     inkscape:connector-curvature="0"
     id="path114"
     style="fill:#ed465b;fill-opacity:1;fill-rule:nonzero;stroke:none;stroke-width:1.33333325"
     d="M 6.5626633,62.849387 V 61.30672 C 11.12533,57.20272 15.806663,53.609387 20.802663,50.464054 l -0.182667,0.176 0.249334,0.261333 0.256,-0.256 -0.234667,-0.238666 c 0.202667,-0.130667 0.416,-0.261334 0.62,-0.385334 l 0.125333,0.118667 0.254667,-0.249333 -0.06267,-0.06267 c 2.521334,-1.541333 5.114667,-2.973333 7.817333,-4.286667 4.381334,-2.145333 9.104,-4.895999 13.922667,-5.119999 v 4.275999 l -0.12,-0.03067 -0.032,-0.01067 h -0.02533 c -4.942666,0.188 -9.671999,2.604 -14.015999,4.453333 -5.124,2.188 -9.864,4.702667 -14.385333,7.584 l -0.249334,-0.256 -0.256,0.256 0.198667,0.197333 c -0.204,0.130667 -0.412,0.265334 -0.614667,0.401334 l -0.09467,-0.09467 -0.254667,0.250667 0.04133,0.04133 c -2.431999,1.604 -4.8066661,3.317333 -7.1399994,5.146667 l 0.1093334,0.14 -0.1666667,0.07333 m 8.9479997,-7.166667 -0.26,0.254667 0.254667,0.256 0.254666,-0.256 -0.249333,-0.254667 m 0.765333,-0.755999 -0.26,0.250666 0.26,0.254667 0.250667,-0.249333 -0.250667,-0.256 m 0.765334,-0.754667 -0.254667,0.254667 0.254667,0.250666 0.250666,-0.250666 -0.250666,-0.254667 m 0.765333,-0.756 -0.254667,0.250667 0.254667,0.254666 0.256,-0.249333 -0.256,-0.256 m 0.766667,-0.76 -0.256,0.256 0.256,0.254667 0.254666,-0.249334 -0.254666,-0.261333 m 0.765333,-0.749333 -0.256,0.244 0.256,0.261333 0.254667,-0.250667 -0.254667,-0.254666 m 0.765333,-0.761334 -0.254666,0.256 0.254666,0.254667 0.256,-0.249333 -0.256,-0.261334" /><path
     inkscape:connector-curvature="0"
     id="path116"
     style="fill:#26354a;fill-opacity:1;fill-rule:nonzero;stroke:none;stroke-width:1.33333325"
     d="m 13.759996,57.489387 -0.04133,-0.04133 0.254667,-0.250667 0.09467,0.09467 c -0.09867,0.06267 -0.204,0.129333 -0.308,0.197333 m 0.922667,-0.598667 -0.198667,-0.197333 0.256,-0.256 0.249334,0.256 c -0.09867,0.06667 -0.202667,0.129333 -0.306667,0.197333 m 0.822667,-0.697333 -0.254667,-0.256 0.254667,-0.254667 0.254666,0.254667 -0.254666,0.256 m 0.765333,-0.761333 -0.254667,-0.254667 0.254667,-0.250666 0.256,0.256 -0.256,0.249333 m 0.765333,-0.754667 -0.249333,-0.250666 0.249333,-0.254667 0.256,0.254667 -0.256,0.250666 m 0.770667,-0.756 -0.254667,-0.254666 0.254667,-0.250667 0.256,0.256 -0.256,0.249333 m 0.766667,-0.754666 -0.256,-0.254667 0.256,-0.256 0.254666,0.261333 -0.254666,0.249334 m 0.765333,-0.754667 -0.256,-0.261333 0.256,-0.244 0.254667,0.254666 -0.254667,0.250667 m 0.765333,-0.756 -0.254666,-0.254667 0.254666,-0.256 0.256,0.261334 -0.256,0.249333 m 0.765334,-0.754667 -0.249334,-0.261333 0.182667,-0.176 c 0.02533,-0.02133 0.05733,-0.03733 0.088,-0.05733 l 0.234667,0.238666 -0.256,0.256 m 0.766666,-0.761333 -0.125333,-0.118667 c 0.104,-0.068 0.213333,-0.130666 0.317333,-0.193333 l 0.06267,0.06267 -0.254667,0.249333" /><path
     inkscape:connector-curvature="0"
     id="path118"
     style="fill:#ed465b;fill-opacity:1;fill-rule:nonzero;stroke:none;stroke-width:1.33333325"
     d="m 6.5626633,62.92672 h -0.36 v -1.781333 l 0.057333,-0.052 c 5.0733337,-4.566667 10.3026667,-8.52 15.9373337,-11.916 l 0.204,0.213334 0.254666,-0.254667 -0.14,-0.146667 c 0.213334,-0.125333 0.421334,-0.254666 0.634667,-0.374666 l 0.016,0.016 0.068,-0.068 c 2.025333,-1.182667 4.109333,-2.297334 6.254666,-3.349334 4.422667,-2.150666 9.24,-4.989333 14.256,-5.155999 l 0.186667,-0.01067 v 5.12 l -0.557334,-0.150667 c -4.822666,0.186667 -9.505333,2.568 -13.858666,4.421333 -5.781333,2.469334 -11.078666,5.354667 -16.109333,8.713333 l -0.198667,-0.202666 -0.254666,0.254666 0.150666,0.157334 c -0.202666,0.134666 -0.401333,0.270666 -0.598666,0.405333 l -0.06267,-0.05733 -0.254667,0.250666 0.01467,0.01467 c -1.817333,1.250667 -3.5986667,2.562667 -5.364,3.944 L 6.6199966,62.636054 C 8.9533299,60.80672 11.327997,59.093387 13.759996,57.489387 l 0.213334,0.213333 0.256,-0.254666 -0.161334,-0.156 c 0.202667,-0.136 0.410667,-0.270667 0.614667,-0.401334 l 0.05733,0.052 0.254667,-0.245333 -0.0053,-0.004 c 4.521333,-2.881333 9.261333,-5.396 14.385333,-7.584 4.344,-1.849333 9.073333,-4.265333 14.015999,-4.453333 h 0.02533 l 0.032,0.01067 0.12,0.03067 v -4.275999 c -4.818667,0.224 -9.541333,2.974666 -13.922667,5.119999 -2.702666,1.313334 -5.295999,2.745334 -7.817333,4.286667 l -0.192,-0.192 -0.250666,0.249333 0.125333,0.136 c -0.204,0.124 -0.417333,0.254667 -0.62,0.385334 l -0.02133,-0.016 -0.06667,0.07333 c -4.996,3.145333 -9.677333,6.738666 -14.2399997,10.842666 v 1.62" /><path
     inkscape:connector-curvature="0"
     id="path120"
     style="fill:#26354a;fill-opacity:1;fill-rule:nonzero;stroke:none;stroke-width:1.33333325"
     d="m 12.202663,58.973387 -0.01467,-0.01467 0.254667,-0.250666 0.06267,0.05733 c -0.104,0.068 -0.202667,0.141333 -0.302667,0.208 m 0.901333,-0.613333 -0.150666,-0.157334 0.254666,-0.254666 0.198667,0.202666 c -0.1,0.07333 -0.198667,0.136 -0.302667,0.209334 m 0.869334,-0.657334 -0.213334,-0.213333 c 0.104,-0.068 0.209334,-0.134667 0.308,-0.197333 l 0.161334,0.156 -0.256,0.254666 m 0.766666,-0.76 -0.05733,-0.052 c 0.104,-0.068 0.208,-0.130666 0.306667,-0.197333 l 0.0053,0.004 -0.254667,0.245333 m 6.062667,-6.478666 0.06667,-0.07333 0.02133,0.016 c -0.03067,0.02 -0.06267,0.036 -0.088,0.05733 m 0.708,-0.442667 -0.125333,-0.136 0.250666,-0.249333 0.192,0.192 c -0.104,0.06267 -0.213333,0.125333 -0.317333,0.193333 m 0.890667,-0.630666 -0.204,-0.213334 c 0.105333,-0.06267 0.209333,-0.125333 0.318666,-0.188 l 0.14,0.146667 -0.254666,0.254667 m 0.765333,-0.76 -0.016,-0.016 c 0.032,-0.016 0.05733,-0.03067 0.084,-0.052 l -0.068,0.068" /><path
     inkscape:connector-curvature="0"
     id="path122"
     style="fill:#111111;fill-opacity:1;fill-rule:nonzero;stroke:none;stroke-width:1.33333325"
     d="M 6.5359966,62.177387 C 13.707996,56.312054 21.202663,51.552054 29.775996,47.708054 c 4.478667,-2.005333 9.292,-4.572 14.245333,-4.796 l -0.02667,-0.542667 c -5.12,0.245334 -9.983999,2.86 -14.437333,4.849334 -8.619999,3.86 -16.161333,8.650666 -23.363999,14.541333 l 0.3426666,0.417333" /><path
     inkscape:connector-curvature="0"
     id="path126"
     style="fill:#7e7e7e;fill-opacity:1;fill-rule:nonzero;stroke:none;stroke-width:1.33333325"
     d="m 63.630662,7.9213808 h 0.354667 V 21.618721 h -0.354667 z" /><path
     inkscape:connector-curvature="0"
     id="path128"
     style="fill:#7e7e7e;fill-opacity:1;fill-rule:nonzero;stroke:none;stroke-width:1.33333325"
     d="m 63.806662,24.161388 -1.457333,-3.577333 1.457333,0.848 1.464,-0.848 -1.464,3.577333" /><path
     inkscape:connector-curvature="0"
     id="path130"
     style="fill:#7e7e7e;fill-opacity:1;fill-rule:nonzero;stroke:none;stroke-width:1.33333325"
     d="m 55.994662,15.473388 h 0.36 v 7.984 h -0.36 z" /><path
     inkscape:connector-curvature="0"
     id="path132"
     style="fill:#7e7e7e;fill-opacity:1;fill-rule:nonzero;stroke:none;stroke-width:1.33333325"
     d="m 56.171995,26.000055 -1.458666,-3.573334 1.458666,0.844 1.464,-0.844 -1.464,3.573334" /><path
     inkscape:connector-curvature="0"
     id="path134"
     style="fill:#7e7e7e;fill-opacity:1;fill-rule:nonzero;stroke:none;stroke-width:1.33333325"
     d="m 48.811996,22.562721 h 0.36 v 3.245334 h -0.36 z" /><path
     inkscape:connector-curvature="0"
     id="path136"
     style="fill:#7e7e7e;fill-opacity:1;fill-rule:nonzero;stroke:none;stroke-width:1.33333325"
     d="m 48.989329,28.338721 -1.458667,-3.568 1.458667,0.849334 1.464,-0.849334 -1.464,3.568" /><path
     inkscape:connector-curvature="0"
     id="path150"
     style="fill:#7e7e7e;fill-opacity:1;fill-rule:nonzero;stroke:none;stroke-width:1.33333325"
     d="m 43.297329,28.306721 h 0.36 v 11.797333 h -0.36 z" /><path
     inkscape:connector-curvature="0"
     id="path152"
     style="fill:#7e7e7e;fill-opacity:1;fill-rule:nonzero;stroke:none;stroke-width:1.33333325"
     d="m 43.473329,42.640054 -1.457333,-3.572 1.457333,0.849334 1.464,-0.849334 -1.464,3.572" /><path
     inkscape:connector-curvature="0"
     id="path154"
     style="fill:#7e7e7e;fill-opacity:1;fill-rule:nonzero;stroke:none;stroke-width:1.33333325"
     d="m 35.859996,35.260054 h 0.364 v 6.573334 h -0.364 z" /><path
     inkscape:connector-curvature="0"
     id="path156"
     style="fill:#7e7e7e;fill-opacity:1;fill-rule:nonzero;stroke:none;stroke-width:1.33333325"
     d="m 36.041329,44.369387 -1.457333,-3.577333 1.457333,0.853334 1.458667,-0.853334 -1.458667,3.577333" /><path
     inkscape:connector-curvature="0"
     id="path158"
     style="fill:#7e7e7e;fill-opacity:1;fill-rule:nonzero;stroke:none;stroke-width:1.33333325"
     d="m 28.655996,42.505387 h 0.36 v 2.578667 h -0.36 z" /><path
     inkscape:connector-curvature="0"
     id="path160"
     style="fill:#7e7e7e;fill-opacity:1;fill-rule:nonzero;stroke:none;stroke-width:1.33333325"
     d="m 28.833329,47.620054 -1.458666,-3.573333 1.458666,0.849333 1.464,-0.849333 -1.464,3.573333" /><g
     id="g694"
     transform="matrix(1.3333333,0,0,1.3333333,-128,-30.999944)"><g
       id="g696"><g
         id="g698"><g
           id="g700"
           clip-path="url(#clipPath704)"><g
             id="g706"><path
               inkscape:connector-curvature="0"
               d="m 370.613,241.887 v -0.203 H -47.602 V -122.672 H 370.41 v 364.559 h 0.203 v -0.203 0.203 h 0.203 V -123.074 H -48.004 V 242.09 h 418.82 v -0.203 h -0.203"
               style="fill:#000000;fill-opacity:1;fill-rule:nonzero;stroke:none"
               id="path708" /></g></g></g></g></g><path
     style="fill:none;stroke:#595959;stroke-width:0.80000001;stroke-linecap:butt;stroke-linejoin:miter;stroke-miterlimit:4;stroke-dasharray:none;stroke-opacity:1"
     d="m 2.8746187,68.184224 64.1832963,0.04956"
     id="path877"
     inkscape:connector-curvature="0" /><path
     style="fill:none;stroke:#595959;stroke-width:0.80000001;stroke-linecap:butt;stroke-linejoin:miter;stroke-miterlimit:4;stroke-dasharray:none;stroke-opacity:1"
     d="M 3.0928378,68.685334 3.1423978,4.5020278"
     id="path877-3"
     inkscape:connector-curvature="0" /><path
     style="fill:#595959;fill-opacity:1;stroke:none;stroke-width:1px;stroke-linecap:butt;stroke-linejoin:miter;stroke-opacity:1"
     d="m 65.753651,66.294243 -0.0442,3.933282 5.3475,-1.988738 z"
     id="path1409"
     inkscape:connector-curvature="0" /><path
     style="fill:#595959;fill-opacity:1;stroke:none;stroke-width:1px;stroke-linecap:butt;stroke-linejoin:miter;stroke-opacity:1"
     d="m 1.2386978,6.1759569 3.933282,0.0442 -1.988738,-5.34749999 z"
     id="path1409-0"
     inkscape:connector-curvature="0" /></svg>