<?xml version="1.0" encoding="UTF-8" standalone="no"?>
<svg
   xmlns:dc="http://purl.org/dc/elements/1.1/"
   xmlns:cc="http://creativecommons.org/ns#"
   xmlns:rdf="http://www.w3.org/1999/02/22-rdf-syntax-ns#"
   xmlns:svg="http://www.w3.org/2000/svg"
   xmlns="http://www.w3.org/2000/svg"
   version="1.1"
   id="svg2"
   xml:space="preserve"
   width="70.999992"
   height="70.166656"
   viewBox="0 0 71.709992 70.868323"><metadata
     id="metadata8"><rdf:RDF><cc:Work
         rdf:about=""><dc:format>image/svg+xml</dc:format><dc:type
           rdf:resource="http://purl.org/dc/dcmitype/StillImage" /><dc:title></dc:title></cc:Work></rdf:RDF></metadata><defs
     id="defs6"><marker
       style="overflow:visible"
       id="Arrow2Lstart"
       refX="0"
       refY="0"
       orient="auto"><path
         transform="matrix(1.1,0,0,1.1,1.1,0)"
         d="M 8.7185878,4.0337352 -2.2072895,0.01601326 8.7185884,-4.0017078 c -1.7454984,2.3720609 -1.7354408,5.6174519 -6e-7,8.035443 z"
         style="fill:#000000;fill-opacity:1;fill-rule:evenodd;stroke:#000000;stroke-width:0.625;stroke-linejoin:round;stroke-opacity:1"
         id="path1083" /></marker><marker
       style="overflow:visible"
       id="Arrow2Lend"
       refX="0"
       refY="0"
       orient="auto"><path
         transform="matrix(-1.1,0,0,-1.1,-1.1,0)"
         d="M 8.7185878,4.0337352 -2.2072895,0.01601326 8.7185884,-4.0017078 c -1.7454984,2.3720609 -1.7354408,5.6174519 -6e-7,8.035443 z"
         style="fill:#000000;fill-opacity:1;fill-rule:evenodd;stroke:#000000;stroke-width:0.625;stroke-linejoin:round;stroke-opacity:1"
         id="path1086" /></marker><clipPath
       clipPathUnits="userSpaceOnUse"
       id="clipPath704"><path
         d="M 0,0 H 324 V 86 H 0 Z"
         id="path702" /></clipPath><clipPath
       id="g13fc30d2bb5_0_123.9"><path
         d="M 0,0 H 861 V 824 H 0 Z"
         id="path189"
         style="clip-rule:evenodd" /></clipPath><clipPath
       clipPathUnits="userSpaceOnUse"
       id="clipPath18"><path
         d="M 0,0 H 1429.1665 V 1113.9092 H 0 Z"
         id="path16"
         style="clip-rule:evenodd" /></clipPath><clipPath
       clipPathUnits="userSpaceOnUse"
       id="clipPath32"><path
         d="M 0,0 H 1429.1665 V 1113.9092 H 0 Z"
         id="path30"
         style="clip-rule:evenodd" /></clipPath><clipPath
       clipPathUnits="userSpaceOnUse"
       id="clipPath96"><path
         d="m 678.55383,603.49261 h 33.02698 v 39.03186 h -33.02698 z"
         id="path94"
         style="clip-rule:evenodd" /></clipPath><clipPath
       clipPathUnits="userSpaceOnUse"
       id="clipPath116"><path
         d="M 0,0 H 1429.1665 V 1113.9092 H 0 Z"
         id="path114-5"
         style="clip-rule:evenodd" /></clipPath><clipPath
       clipPathUnits="userSpaceOnUse"
       id="clipPath280"><path
         d="m 1324.0808,612.49994 h 33.027 v 39.03186 h -33.027 z"
         id="path278"
         style="clip-rule:evenodd" /></clipPath><clipPath
       clipPathUnits="userSpaceOnUse"
       id="clipPath300"><path
         d="M 0,0 H 1429.1665 V 1113.9092 H 0 Z"
         id="path298"
         style="clip-rule:evenodd" /></clipPath><clipPath
       clipPathUnits="userSpaceOnUse"
       id="clipPath548"><path
         d="m 840.68622,72.058815 h 18.01471 v 57.046565 h -18.01471 z"
         id="path546"
         style="clip-rule:evenodd" /></clipPath><clipPath
       clipPathUnits="userSpaceOnUse"
       id="clipPath562"><path
         d="M 0,0 H 1429.1665 V 1113.9092 H 0 Z"
         id="path560"
         style="clip-rule:evenodd" /></clipPath><clipPath
       clipPathUnits="userSpaceOnUse"
       id="clipPath608"><path
         d="m 1038.8479,186.15195 h 27.0221 v 36.0294 h -27.0221 z"
         id="path606"
         style="clip-rule:evenodd" /></clipPath><clipPath
       clipPathUnits="userSpaceOnUse"
       id="clipPath628"><path
         d="M 0,0 H 1429.1665 V 1113.9092 H 0 Z"
         id="path626"
         style="clip-rule:evenodd" /></clipPath><clipPath
       id="clipPath18-5"
       clipPathUnits="userSpaceOnUse"><path
         style="clip-rule:evenodd"
         id="path16-3"
         d="M 0,0 H 1429.1665 V 1113.9092 H 0 Z" /></clipPath><clipPath
       id="clipPath32-5"
       clipPathUnits="userSpaceOnUse"><path
         style="clip-rule:evenodd"
         id="path30-6"
         d="M 0,0 H 1429.1665 V 1113.9092 H 0 Z" /></clipPath><clipPath
       id="clipPath96-2"
       clipPathUnits="userSpaceOnUse"><path
         style="clip-rule:evenodd"
         id="path94-9"
         d="m 678.55383,603.49261 h 33.02698 v 39.03186 h -33.02698 z" /></clipPath><clipPath
       id="clipPath116-1"
       clipPathUnits="userSpaceOnUse"><path
         style="clip-rule:evenodd"
         id="path114-2"
         d="M 0,0 H 1429.1665 V 1113.9092 H 0 Z" /></clipPath><clipPath
       id="clipPath280-7"
       clipPathUnits="userSpaceOnUse"><path
         style="clip-rule:evenodd"
         id="path278-0"
         d="m 1324.0808,612.49994 h 33.027 v 39.03186 h -33.027 z" /></clipPath><clipPath
       id="clipPath300-9"
       clipPathUnits="userSpaceOnUse"><path
         style="clip-rule:evenodd"
         id="path298-3"
         d="M 0,0 H 1429.1665 V 1113.9092 H 0 Z" /></clipPath><clipPath
       id="clipPath548-6"
       clipPathUnits="userSpaceOnUse"><path
         style="clip-rule:evenodd"
         id="path546-0"
         d="m 840.68622,72.058815 h 18.01471 v 57.046565 h -18.01471 z" /></clipPath><clipPath
       id="clipPath562-6"
       clipPathUnits="userSpaceOnUse"><path
         style="clip-rule:evenodd"
         id="path560-2"
         d="M 0,0 H 1429.1665 V 1113.9092 H 0 Z" /></clipPath><clipPath
       id="clipPath608-6"
       clipPathUnits="userSpaceOnUse"><path
         style="clip-rule:evenodd"
         id="path606-1"
         d="m 1038.8479,186.15195 h 27.0221 v 36.0294 h -27.0221 z" /></clipPath><clipPath
       id="clipPath628-8"
       clipPathUnits="userSpaceOnUse"><path
         style="clip-rule:evenodd"
         id="path626-7"
         d="M 0,0 H 1429.1665 V 1113.9092 H 0 Z" /></clipPath><marker
       style="overflow:visible"
       id="Arrow2Lstart-3"
       refX="0"
       refY="0"
       orient="auto"><path
         transform="matrix(1.1,0,0,1.1,1.1,0)"
         d="M 8.7185878,4.0337352 -2.2072895,0.01601326 8.7185884,-4.0017078 c -1.7454984,2.3720609 -1.7354408,5.6174519 -6e-7,8.035443 z"
         style="fill:#000000;fill-opacity:1;fill-rule:evenodd;stroke:#000000;stroke-width:0.625;stroke-linejoin:round;stroke-opacity:1"
         id="path1083-5" /></marker><marker
       style="overflow:visible"
       id="Arrow2Lend-6"
       refX="0"
       refY="0"
       orient="auto"><path
         transform="matrix(-1.1,0,0,-1.1,-1.1,0)"
         d="M 8.7185878,4.0337352 -2.2072895,0.01601326 8.7185884,-4.0017078 c -1.7454984,2.3720609 -1.7354408,5.6174519 -6e-7,8.035443 z"
         style="fill:#000000;fill-opacity:1;fill-rule:evenodd;stroke:#000000;stroke-width:0.625;stroke-linejoin:round;stroke-opacity:1"
         id="path1086-2" /></marker><clipPath
       clipPathUnits="userSpaceOnUse"
       id="clipPath704-9"><path
         d="M 0,0 H 324 V 86 H 0 Z"
         id="path702-5" /></clipPath><clipPath
       id="g13fc30d2bb5_0_123.9-1"><path
         d="M 0,0 H 861 V 824 H 0 Z"
         id="path189-2"
         style="clip-rule:evenodd" /></clipPath><clipPath
       id="g13fc30d2bb5_0_167.6"><path
         style="clip-rule:evenodd"
         id="path74"
         d="M 271.31683,162.66347 H 895.46417 V 372.52472 H 271.31683 Z" /></clipPath><style
       type="text/css"
       id="style1981">*{stroke-linejoin: round; stroke-linecap: butt}</style><path
       id="m700accb55c"
       d="M 0 0  L 0 3.5  "
       style="stroke: #262626; stroke-width: 0.8" /><path
       id="CMUSerif-Roman-35"
       d="M 320 1030  Q 320 1222 422 1296  Q 525 1370 634 1370  Q 781 1370 867 1277  Q 954 1184 954 1056  Q 954 928 867 835  Q 781 742 634 742  Q 563 742 525 755  Q 608 461 867 249  Q 1126 38 1466 38  Q 1894 38 2150 454  Q 2304 723 2304 1331  Q 2304 1869 2189 2138  Q 2010 2547 1645 2547  Q 1126 2547 819 2099  Q 781 2042 736 2042  Q 672 2042 659 2077  Q 646 2112 646 2208  L 646 4102  Q 646 4256 710 4256  Q 736 4256 787 4237  Q 1190 4058 1638 4058  Q 2099 4058 2509 4243  Q 2541 4262 2560 4262  Q 2624 4262 2624 4192  Q 2624 4166 2573 4092  Q 2522 4019 2413 3923  Q 2304 3827 2163 3737  Q 2022 3648 1817 3587  Q 1613 3526 1389 3526  Q 1120 3526 845 3610  L 845 2362  Q 1178 2688 1658 2688  Q 2170 2688 2522 2275  Q 2874 1862 2874 1286  Q 2874 685 2458 272  Q 2042 -141 1478 -141  Q 966 -141 643 224  Q 320 589 320 1030  z "
       transform="scale(0.015625)" /><path
       id="CMUSerif-Roman-30"
       d="M 250 2048  Q 250 2989 486 3501  Q 819 4262 1600 4262  Q 1766 4262 1939 4217  Q 2112 4173 2333 4000  Q 2554 3827 2688 3546  Q 2944 3002 2944 2048  Q 2944 1114 2707 602  Q 2362 -141 1594 -141  Q 1306 -141 1014 6  Q 723 154 538 506  Q 250 1037 250 2048  z M 781 2125  Q 781 1158 851 774  Q 928 358 1142 179  Q 1357 0 1594 0  Q 1850 0 2064 192  Q 2278 384 2342 800  Q 2413 1210 2413 2125  Q 2413 3014 2349 3373  Q 2266 3789 2042 3955  Q 1818 4122 1594 4122  Q 1510 4122 1420 4096  Q 1331 4070 1203 4000  Q 1075 3930 976 3750  Q 877 3571 832 3302  Q 781 2957 781 2125  z "
       transform="scale(0.015625)" /><path
       id="CMUSerif-Roman-31"
       d="M 570 3654  L 570 3853  Q 1338 3853 1734 4262  Q 1843 4262 1862 4236  Q 1882 4211 1882 4096  L 1882 506  Q 1882 314 1974 256  Q 2067 198 2477 198  L 2682 198  L 2682 0  Q 2458 19 1645 19  Q 832 19 608 0  L 608 198  L 813 198  Q 1216 198 1312 256  Q 1408 314 1408 506  L 1408 3821  Q 1075 3654 570 3654  z "
       transform="scale(0.015625)" /><path
       id="CMUSerif-Roman-73"
       d="M 211 83  L 211 928  Q 211 998 214 1024  Q 218 1050 237 1069  Q 256 1088 294 1088  Q 339 1088 355 1069  Q 371 1050 384 979  Q 480 538 688 304  Q 896 70 1274 70  Q 1632 70 1814 230  Q 1997 390 1997 653  Q 1997 1120 1331 1242  Q 947 1318 787 1369  Q 627 1421 486 1536  Q 211 1760 211 2080  Q 211 2400 454 2633  Q 698 2867 1235 2867  Q 1594 2867 1837 2688  Q 1907 2746 1946 2790  Q 2029 2867 2074 2867  Q 2125 2867 2134 2835  Q 2144 2803 2144 2714  L 2144 2067  Q 2144 1997 2141 1971  Q 2138 1946 2118 1930  Q 2099 1914 2061 1914  Q 1990 1914 1984 1971  Q 1933 2746 1235 2746  Q 858 2746 688 2602  Q 518 2458 518 2259  Q 518 2150 569 2067  Q 621 1984 688 1936  Q 755 1888 880 1843  Q 1005 1798 1081 1782  Q 1158 1766 1306 1734  Q 1818 1638 2035 1427  Q 2304 1158 2304 819  Q 2304 442 2048 186  Q 1792 -70 1274 -70  Q 858 -70 570 205  Q 531 166 502 134  Q 474 102 464 89  Q 454 77 451 70  Q 448 64 442 58  Q 314 -70 282 -70  Q 230 -70 220 -38  Q 211 -6 211 83  z "
       transform="scale(0.015625)" /><path
       id="CMUSerif-Roman-74"
       d="M 122 2560  L 122 2701  Q 416 2714 611 2922  Q 806 3130 873 3386  Q 941 3642 947 3936  L 1107 3936  L 1107 2758  L 2022 2758  L 2022 2560  L 1107 2560  L 1107 781  Q 1107 90 1536 90  Q 1722 90 1843 278  Q 1965 467 1965 806  L 1965 1158  L 2125 1158  L 2125 794  Q 2125 448 1965 189  Q 1805 -70 1491 -70  Q 1376 -70 1261 -41  Q 1146 -13 998 64  Q 851 141 758 329  Q 666 518 666 794  L 666 2560  L 122 2560  z "
       transform="scale(0.015625)" /><path
       id="CMUSerif-Roman-69"
       d="M 211 0  L 211 198  Q 550 198 630 240  Q 710 282 710 486  L 710 2208  Q 710 2445 630 2502  Q 550 2560 237 2560  L 237 2758  L 1133 2829  L 1133 480  Q 1133 288 1200 243  Q 1267 198 1581 198  L 1581 0  Q 928 19 915 19  Q 826 19 211 0  z M 480 3942  Q 480 4070 579 4176  Q 678 4282 819 4282  Q 960 4282 1059 4186  Q 1158 4090 1158 3942  Q 1158 3795 1059 3699  Q 960 3603 819 3603  Q 672 3603 576 3705  Q 480 3808 480 3942  z "
       transform="scale(0.015625)" /><path
       id="CMUSerif-Roman-6d"
       d="M 205 0  L 205 198  Q 544 198 624 240  Q 704 282 704 486  L 704 2202  Q 704 2438 621 2499  Q 538 2560 205 2560  L 205 2758  L 1107 2829  L 1107 2157  Q 1408 2829 2054 2829  Q 2803 2829 2906 2202  Q 3014 2445 3244 2637  Q 3475 2829 3834 2829  Q 4314 2829 4506 2592  Q 4646 2432 4675 2253  Q 4704 2074 4704 1613  L 4704 390  Q 4710 256 4812 227  Q 4915 198 5203 198  L 5203 0  Q 4550 19 4486 19  Q 4435 19 3763 0  L 3763 198  Q 4102 198 4182 240  Q 4262 282 4262 486  L 4262 1978  Q 4262 2304 4163 2496  Q 4064 2688 3789 2688  Q 3456 2688 3190 2409  Q 2925 2131 2925 1664  L 2925 486  Q 2925 282 3005 240  Q 3085 198 3424 198  L 3424 0  Q 2771 19 2707 19  Q 2656 19 1984 0  L 1984 198  Q 2323 198 2403 240  Q 2483 282 2483 486  L 2483 1978  Q 2483 2304 2384 2496  Q 2285 2688 2010 2688  Q 1677 2688 1411 2409  Q 1146 2131 1146 1664  L 1146 486  Q 1146 282 1226 240  Q 1306 198 1645 198  L 1645 0  Q 992 19 928 19  Q 877 19 205 0  z "
       transform="scale(0.015625)" /><path
       id="CMUSerif-Roman-75"
       d="M 205 2560  L 205 2758  L 1146 2829  L 1146 704  Q 1146 550 1158 460  Q 1171 371 1222 268  Q 1274 166 1395 118  Q 1517 70 1709 70  Q 2054 70 2268 355  Q 2483 640 2483 1062  L 2483 2202  Q 2483 2438 2400 2499  Q 2317 2560 1984 2560  L 1984 2758  L 2925 2829  L 2925 557  Q 2925 320 3008 259  Q 3091 198 3424 198  L 3424 0  L 2502 -70  L 2502 506  Q 2234 -70 1677 -70  Q 1395 -70 1203 0  Q 1011 70 915 160  Q 819 250 768 422  Q 717 595 710 700  Q 704 806 704 1011  L 704 1971  Q 704 2406 640 2483  Q 576 2560 205 2560  z "
       transform="scale(0.015625)" /><path
       id="CMUSerif-Roman-6c"
       d="M 211 0  L 211 198  Q 550 198 630 240  Q 710 282 710 486  L 710 3814  Q 710 4051 627 4112  Q 544 4173 211 4173  L 211 4371  L 1133 4442  L 1133 486  Q 1133 282 1213 240  Q 1293 198 1632 198  L 1632 0  Q 1555 0 1392 6  Q 1229 13 1110 16  Q 992 19 922 19  Q 845 19 211 0  z "
       transform="scale(0.015625)" /><path
       id="CMUSerif-Roman-20"
       transform="scale(0.015625)" /><path
       id="CMUSerif-Roman-5b"
       d="M 666 -1600  L 666 4800  L 1632 4800  L 1632 4653  L 1094 4653  L 1094 -1453  L 1632 -1453  L 1632 -1600  L 666 -1600  z "
       transform="scale(0.015625)" /><path
       id="CMUSerif-Roman-5d"
       d="M 134 -1453  L 672 -1453  L 672 4653  L 134 4653  L 134 4800  L 1101 4800  L 1101 -1600  L 134 -1600  L 134 -1453  z "
       transform="scale(0.015625)" /><path
       id="mf88c49c48f"
       d="M 0 0  L -3.5 0  "
       style="stroke: #262626; stroke-width: 0.8" /><path
       id="CMUSerif-Roman-70"
       d="M 179 -1043  Q 518 -1043 598 -1001  Q 678 -960 678 -755  L 678 2240  Q 678 2451 598 2505  Q 518 2560 179 2560  L 179 2758  L 1101 2829  L 1101 2406  Q 1485 2829 1997 2829  Q 2541 2829 2937 2406  Q 3334 1984 3334 1382  Q 3334 774 2912 352  Q 2490 -70 1907 -70  Q 1587 -70 1372 93  Q 1158 256 1120 378  L 1120 320  L 1120 -755  Q 1120 -960 1200 -1001  Q 1280 -1043 1619 -1043  L 1619 -1242  Q 947 -1222 896 -1222  Q 832 -1222 179 -1242  L 179 -1043  z M 1120 730  Q 1120 634 1133 598  Q 1146 563 1210 461  Q 1466 70 1882 70  Q 2246 70 2524 444  Q 2803 819 2803 1382  Q 2803 1920 2550 2294  Q 2298 2669 1946 2669  Q 1696 2669 1478 2534  Q 1261 2400 1120 2157  L 1120 730  z "
       transform="scale(0.015625)" /><path
       id="CMUSerif-Roman-72"
       d="M 179 0  L 179 198  Q 518 198 598 240  Q 678 282 678 486  L 678 2202  Q 678 2438 595 2499  Q 512 2560 179 2560  L 179 2758  L 1069 2829  L 1069 2125  Q 1158 2400 1350 2614  Q 1542 2829 1856 2829  Q 2061 2829 2195 2713  Q 2330 2598 2330 2438  Q 2330 2298 2243 2227  Q 2157 2157 2054 2157  Q 1939 2157 1859 2230  Q 1779 2304 1779 2432  Q 1779 2509 1814 2569  Q 1850 2630 1878 2652  Q 1907 2675 1926 2682  Q 1914 2688 1856 2688  Q 1504 2688 1302 2336  Q 1101 1984 1101 1485  L 1101 499  Q 1101 314 1177 256  Q 1254 198 1587 198  L 1722 198  L 1722 0  Q 1466 19 909 19  Q 832 19 710 16  Q 589 13 429 6  Q 269 0 179 0  z "
       transform="scale(0.015625)" /><path
       id="CMUSerif-Roman-6f"
       d="M 601 346  Q 179 762 179 1370  Q 179 1978 592 2422  Q 1005 2867 1600 2867  Q 2182 2867 2598 2425  Q 3014 1984 3014 1370  Q 3014 768 2595 349  Q 2176 -70 1594 -70  Q 1024 -70 601 346  z M 710 1421  Q 710 800 870 518  Q 1120 90 1600 90  Q 1837 90 2035 218  Q 2234 346 2342 563  Q 2483 845 2483 1421  Q 2483 2035 2317 2310  Q 2067 2726 1594 2726  Q 1389 2726 1187 2617  Q 986 2509 864 2298  Q 710 2016 710 1421  z "
       transform="scale(0.015625)" /><path
       id="CMUSerif-Roman-64"
       d="M 218 1376  Q 218 1984 643 2406  Q 1069 2829 1645 2829  Q 2131 2829 2451 2432  L 2451 3814  Q 2451 4051 2368 4112  Q 2285 4173 1952 4173  L 1952 4371  L 2874 4442  L 2874 557  Q 2874 320 2957 259  Q 3040 198 3373 198  L 3373 0  L 2432 -70  L 2432 352  Q 2099 -70 1574 -70  Q 1024 -70 621 352  Q 218 774 218 1376  z M 749 1370  Q 749 774 934 480  Q 1190 70 1606 70  Q 2080 70 2362 518  Q 2432 627 2432 755  L 2432 2067  Q 2432 2195 2362 2304  Q 2099 2688 1670 2688  Q 1222 2688 947 2278  Q 749 1971 749 1370  z "
       transform="scale(0.015625)" /><path
       id="CMUSerif-Roman-63"
       d="M 624 352  Q 218 774 218 1382  Q 218 1990 618 2428  Q 1018 2867 1606 2867  Q 1997 2867 2291 2681  Q 2586 2496 2586 2182  Q 2586 2042 2502 1962  Q 2419 1882 2291 1882  Q 2157 1882 2077 1965  Q 1997 2048 1997 2176  Q 1997 2234 2016 2288  Q 2035 2342 2105 2403  Q 2176 2464 2298 2470  Q 2067 2707 1613 2707  Q 1286 2707 1017 2400  Q 749 2093 749 1395  Q 749 1030 838 761  Q 928 493 1075 355  Q 1222 218 1366 154  Q 1510 90 1651 90  Q 2278 90 2490 762  Q 2509 826 2573 826  Q 2656 826 2656 762  Q 2656 730 2630 650  Q 2605 570 2528 442  Q 2451 314 2339 202  Q 2227 90 2032 10  Q 1837 -70 1594 -70  Q 1030 -70 624 352  z "
       transform="scale(0.015625)" /><path
       id="CMUSerif-Roman-6e"
       d="M 205 0  L 205 198  Q 544 198 624 240  Q 704 282 704 486  L 704 2202  Q 704 2438 621 2499  Q 538 2560 205 2560  L 205 2758  L 1107 2829  L 1107 2157  Q 1408 2829 2054 2829  Q 2534 2829 2726 2592  Q 2867 2432 2896 2253  Q 2925 2074 2925 1613  L 2925 390  Q 2931 256 3033 227  Q 3136 198 3424 198  L 3424 0  Q 2771 19 2707 19  Q 2656 19 1984 0  L 1984 198  Q 2323 198 2403 240  Q 2483 282 2483 486  L 2483 1978  Q 2483 2304 2384 2496  Q 2285 2688 2010 2688  Q 1677 2688 1411 2409  Q 1146 2131 1146 1664  L 1146 486  Q 1146 282 1226 240  Q 1306 198 1645 198  L 1645 0  Q 992 19 928 19  Q 877 19 205 0  z "
       transform="scale(0.015625)" /><path
       id="m20a8e0285a"
       d="M 1 0  L -1 -0  "
       style="stroke: #000000" /><path
       id="m4e7ed8f4fd"
       d="M 1 0  L -1 -0  "
       style="stroke: #808080" /><path
       id="mbe2954ce40"
       d="M 0 2  C 0.530406 2 1.03916 1.789267 1.414214 1.414214  C 1.789267 1.03916 2 0.530406 2 0  C 2 -0.530406 1.789267 -1.03916 1.414214 -1.414214  C 1.03916 -1.789267 0.530406 -2 0 -2  C -0.530406 -2 -1.03916 -1.789267 -1.414214 -1.414214  C -1.789267 -1.03916 -2 -0.530406 -2 0  C -2 0.530406 -1.789267 1.03916 -1.414214 1.414214  C -1.03916 1.789267 -0.530406 2 0 2  z "
       style="stroke: #000000" /><path
       id="m7da692e5c7"
       d="M 0 2  C 0.530406 2 1.03916 1.789267 1.414214 1.414214  C 1.789267 1.03916 2 0.530406 2 0  C 2 -0.530406 1.789267 -1.03916 1.414214 -1.414214  C 1.03916 -1.789267 0.530406 -2 0 -2  C -0.530406 -2 -1.03916 -1.789267 -1.414214 -1.414214  C -1.789267 -1.03916 -2 -0.530406 -2 0  C -2 0.530406 -1.789267 1.03916 -1.414214 1.414214  C -1.03916 1.789267 -0.530406 2 0 2  z "
       style="stroke: #808080" /><path
       id="CMUSerif-Roman-65"
       d="M 179 1408  Q 179 2010 566 2438  Q 954 2867 1510 2867  Q 2074 2867 2365 2502  Q 2656 2138 2656 1613  Q 2656 1517 2630 1497  Q 2605 1478 2496 1478  L 710 1478  Q 710 826 902 518  Q 1171 90 1626 90  Q 1690 90 1763 102  Q 1837 115 1990 169  Q 2144 224 2278 371  Q 2413 518 2490 749  Q 2509 838 2573 838  Q 2656 838 2656 762  Q 2656 704 2595 579  Q 2534 454 2419 304  Q 2304 154 2080 42  Q 1856 -70 1587 -70  Q 1024 -70 601 355  Q 179 781 179 1408  z M 717 1613  L 2234 1613  Q 2234 1747 2211 1897  Q 2189 2048 2121 2256  Q 2054 2464 1897 2595  Q 1741 2726 1510 2726  Q 1408 2726 1296 2681  Q 1184 2637 1049 2531  Q 915 2426 822 2186  Q 730 1946 717 1613  z "
       transform="scale(0.015625)" /><path
       id="CMUSerif-Roman-3d"
       d="M 365 973  Q 371 1050 493 1050  L 4416 1050  Q 4602 1050 4602 979  Q 4602 902 4429 902  L 538 902  Q 365 902 365 973  z M 365 2221  Q 365 2298 499 2298  L 4410 2298  Q 4602 2298 4602 2221  Q 4602 2150 4442 2150  L 493 2150  Q 365 2150 365 2221  z "
       transform="scale(0.015625)" /><path
       id="CMUSerif-Roman-2e"
       d="M 640 102  Q 544 205 544 339  Q 544 474 640 573  Q 736 672 883 672  Q 1024 672 1120 579  Q 1216 486 1216 339  Q 1216 192 1113 96  Q 1011 0 883 0  Q 736 0 640 102  z "
       transform="scale(0.015625)" /><path
       id="CMUSerif-Roman-39"
       d="M 269 2822  Q 269 3162 368 3395  Q 467 3629 678 3859  Q 1062 4262 1619 4262  Q 1856 4262 2067 4163  Q 2278 4064 2480 3837  Q 2682 3610 2803 3165  Q 2925 2720 2925 2106  Q 2925 1114 2445 486  Q 1965 -141 1318 -141  Q 909 -141 669 44  Q 429 230 429 550  Q 429 717 521 787  Q 614 858 723 858  Q 838 858 928 781  Q 1018 704 1018 563  Q 1018 448 944 358  Q 870 269 685 269  Q 870 38 1312 38  Q 1472 38 1632 112  Q 1792 186 1965 365  Q 2138 544 2243 921  Q 2349 1299 2349 1830  L 2349 2035  Q 2093 1395 1549 1395  Q 1011 1395 640 1808  Q 269 2221 269 2822  z M 845 2816  Q 845 2182 960 1946  Q 1158 1542 1555 1542  Q 1946 1542 2141 1891  Q 2336 2240 2336 2694  Q 2336 3322 2234 3597  Q 2042 4102 1619 4102  Q 1197 4102 979 3699  Q 845 3462 845 2816  z "
       transform="scale(0.015625)" /><path
       id="CMUSerif-Roman-32"
       d="M 320 0  Q 320 115 329 150  Q 339 186 390 237  L 1619 1606  Q 2291 2362 2291 3021  Q 2291 3450 2067 3757  Q 1843 4064 1434 4064  Q 1152 4064 915 3891  Q 678 3718 570 3411  Q 589 3418 653 3418  Q 813 3418 902 3318  Q 992 3219 992 3085  Q 992 2912 880 2829  Q 768 2746 659 2746  Q 614 2746 556 2755  Q 499 2765 409 2854  Q 320 2944 320 3104  Q 320 3552 659 3907  Q 998 4262 1517 4262  Q 2106 4262 2490 3913  Q 2874 3565 2874 3021  Q 2874 2829 2816 2656  Q 2758 2483 2681 2348  Q 2605 2214 2400 2000  Q 2195 1786 2028 1632  Q 1862 1478 1491 1152  L 813 493  L 1965 493  Q 2528 493 2573 544  Q 2637 634 2714 1114  L 2874 1114  L 2694 0  L 320 0  z "
       transform="scale(0.015625)" /><path
       id="CMUSerif-Roman-38"
       d="M 269 966  Q 269 1683 1190 2144  Q 794 2413 723 2490  Q 442 2803 442 3194  Q 442 3642 781 3952  Q 1120 4262 1600 4262  Q 2061 4262 2406 3996  Q 2752 3731 2752 3309  Q 2752 2714 1978 2317  Q 2490 1997 2611 1862  Q 2925 1517 2925 1075  Q 2925 563 2531 211  Q 2138 -141 1594 -141  Q 1062 -141 665 169  Q 269 480 269 966  z M 589 966  Q 589 570 886 304  Q 1184 38 1600 38  Q 2003 38 2304 268  Q 2605 499 2605 845  Q 2605 979 2560 1094  Q 2515 1210 2425 1302  Q 2336 1395 2281 1436  Q 2227 1478 2125 1549  L 1338 2048  Q 589 1632 589 966  z M 723 3443  Q 723 3136 1043 2925  L 1837 2413  Q 2470 2784 2470 3309  Q 2470 3648 2211 3875  Q 1952 4102 1594 4102  Q 1242 4102 982 3916  Q 723 3731 723 3443  z "
       transform="scale(0.015625)" /><clipPath
       id="pc36102ea31"><rect
         x="48.2"
         y="7.2"
         width="116.15"
         height="90.18125"
         id="rect2369" /></clipPath></defs><path
     d="m 25.119996,39.302721 -0.04133,-5.36 0.04133,-0.02133 c 2.145333,-0.812 4.150667,-1.910667 6.224,-2.833334 2.12,-0.942666 4.292,-1.776 6.468,-2.582666 1.234666,-0.453333 2.469333,-0.901333 3.709333,-1.354667 1.452,-0.541333 2.942667,-0.957333 4.432,-1.405333 l 0.202667,0.208 0.256,-0.256 -0.068,-0.072 c 0.416,-0.125333 0.838666,-0.256 1.254666,-0.390667 2.094667,-0.682666 4.109334,-1.521333 6.213333,-2.104 1.146667,-0.324 2.313334,-0.6 3.474667,-0.854666 1.24,-0.26 2.426667,-0.656 3.650667,-0.849334 1.005333,-0.161333 2.12,-0.176 3.104,-0.677333 l 0.052,7.141333 -0.02533,-0.04133 c -0.937333,0.505333 -2.125333,0.536 -3.265333,0.702667 -1.256,0.182666 -2.442667,0.521333 -3.652,0.750666 -1.166667,0.224 -2.338667,0.473333 -3.489333,0.754667 -2.114667,0.516 -4.125333,1.234666 -6.192,1.817333 -2.016,0.568 -4.057333,1.026667 -6.068,1.661333 -1.229333,0.385334 -2.458667,0.770667 -3.688,1.161334 -0.208,0.068 -0.416,0.136 -0.625333,0.204 l 0.130667,-0.125334 -0.254667,-0.26 -0.250667,0.254667 0.188,0.188 C 35,35.573394 33.114667,36.20806 31.26,36.917394 c -2.066667,0.78 -4.041333,1.697333 -6.14,2.385333 m 12.609333,-5.542667 -0.250666,0.250667 0.250666,0.26 0.254667,-0.254667 -0.254667,-0.256 m 0.770667,-0.76 -0.254667,0.254667 0.249334,0.256 0.254666,-0.250667 -0.249333,-0.26 m 0.765333,-0.749333 -0.254667,0.249333 0.249334,0.254667 0.256,-0.249333 -0.250667,-0.254667 m 0.765333,-0.761333 -0.254666,0.256 0.250666,0.254666 0.254667,-0.250666 -0.250667,-0.26 m 0.766667,-0.754667 -0.256,0.254667 0.250667,0.256 0.254666,-0.256 -0.249333,-0.254667 m 0.765333,-0.756 -0.256,0.256 0.250667,0.249333 0.254667,-0.249333 -0.249334,-0.256 M 42.328,29.22406 l -0.249334,0.254667 0.249334,0.256 0.250666,-0.256 L 42.328,29.22406 M 43.098666,28.469394 42.844,28.718727 43.093333,28.973394 43.344,28.724061 43.098666,28.469394 m 0.765334,-0.756 -0.254667,0.250667 0.250667,0.254666 0.254666,-0.249333 -0.250666,-0.256 m 0.766666,-0.754667 -0.256,0.249334 0.250667,0.256 L 44.88,27.213394 44.630666,26.958727 m 0.765334,-0.761333 -0.256,0.256 0.250666,0.254667 0.254667,-0.249334 L 45.396,26.197394"
     style="fill:#808080;fill-opacity:1;fill-rule:nonzero;stroke:none;stroke-width:1.33333325;opacity:0.46"
     id="path102" /><path
     d="M 25.182663,39.661388 H 24.76533 l -0.05733,-6.781334 0.422667,0.650667 c 2.062666,-0.790667 4.025333,-1.864 6.066666,-2.770667 2.130667,-0.948 4.313334,-1.786666 6.490667,-2.593333 1.233333,-0.453333 2.473333,-0.901333 3.708,-1.354666 1.797333,-0.661334 3.625333,-1.145334 5.437333,-1.713334 l 0.09333,0.09867 0.182667,-0.181333 c 0.125333,-0.04267 0.254667,-0.084 0.38,-0.12 2.073333,-0.677334 4.094667,-1.521334 6.229333,-2.114667 1.150667,-0.322667 2.328,-0.604 3.494667,-0.854667 1.208,-0.26 2.412,-0.656 3.666666,-0.853333 1.104,-0.172 2.245334,-0.198667 3.161334,-0.724 v -0.09867 h 0.822666 l -0.462666,0.296 0.04667,7.458667 h -0.292 l 0.084,0.161333 c -1.046666,0.552 -2.276,0.573334 -3.385333,0.74 -1.224,0.176 -2.406667,0.514667 -3.636,0.749333 -1.161333,0.224 -2.333333,0.469334 -3.469333,0.750667 -2.098667,0.510667 -4.098667,1.229333 -6.181333,1.812 -2.032,0.573333 -4.068,1.032 -6.057334,1.656 -1.229333,0.396 -2.458666,0.776 -3.687999,1.166667 -0.468,0.146666 -0.937334,0.302666 -1.406667,0.453333 l -0.218667,-0.224 -0.254666,0.250667 0.09333,0.09867 c -1.562667,0.510667 -3.118667,1.046667 -4.645333,1.625334 -2.062667,0.785333 -4.052,1.708 -6.188,2.410666 l -0.02,0.0053 m -0.104,-5.718667 0.04133,5.36 c 2.093333,-0.688 4.073333,-1.605333 6.14,-2.385333 1.854667,-0.709334 3.74,-1.344 5.641333,-1.958667 l 0.06267,0.068 0.118667,-0.125333 c 0.214666,-0.068 0.422666,-0.136 0.630666,-0.204 1.229333,-0.390667 2.458667,-0.776 3.688,-1.161334 2.010667,-0.634666 4.052,-1.093333 6.068,-1.661333 2.066667,-0.582667 4.077333,-1.301333 6.192,-1.817333 1.150666,-0.281334 2.322666,-0.530667 3.489333,-0.754667 1.209333,-0.229333 2.396,-0.568 3.652,-0.750666 1.14,-0.166667 2.328,-0.197334 3.265333,-0.702667 l 0.02,0.04133 -0.04667,-7.141333 c -0.984,0.501333 -2.098667,0.516 -3.104,0.677333 -1.224,0.193334 -2.410667,0.589334 -3.650667,0.849334 -1.161333,0.254666 -2.328,0.530666 -3.474667,0.854666 -2.103999,0.582667 -4.118666,1.421334 -6.213333,2.104 -0.416,0.134667 -0.838666,0.265334 -1.254666,0.390667 l -0.182667,-0.182667 -0.254667,0.250667 0.04667,0.052 c -1.489333,0.448 -2.98,0.864 -4.432,1.405333 -1.24,0.453334 -2.474667,0.901334 -3.709333,1.354667 -2.176,0.806666 -4.348,1.64 -6.468,2.582666 -2.073333,0.922667 -4.078667,2.021334 -6.224,2.833334 l -0.04133,0.02133"
     style="fill:#808080;fill-opacity:1;fill-rule:nonzero;stroke:none;stroke-width:1.33333325;opacity:0.46"
     id="path104" /><path
     d="m 25.270663,37.125388 c 2.125333,-0.74 4.104,-1.698667 6.145333,-2.516 2.089333,-0.838667 4.234667,-1.588 6.390667,-2.317334 1.219999,-0.412 2.443999,-0.818666 3.666666,-1.229333 1.969333,-0.661333 4,-1.150667 6.026667,-1.76 2.073333,-0.625333 4.062666,-1.376 6.145333,-1.922666 1.130666,-0.297334 2.292,-0.562667 3.442666,-0.806667 1.234667,-0.256 2.412,-0.614667 3.625334,-0.813333 1.098666,-0.181334 2.338666,-0.224 3.401333,-0.812 l -0.265333,-0.469334 c -0.896,0.510667 -2.078667,0.562667 -3.224,0.750667 -1.261334,0.202667 -2.442667,0.568 -3.646667,0.817333 -1.161333,0.245334 -2.328,0.510667 -3.473333,0.813334 -2.114667,0.556 -4.109333,1.312 -6.161333,1.926666 -2.005334,0.604 -4.041334,1.098667 -6.041334,1.765333 -1.224,0.412 -2.442666,0.817334 -3.671999,1.229334 -2.157334,0.734666 -4.308,1.484 -6.417334,2.328 -2.062666,0.828 -4.030666,1.781333 -6.119999,2.505333 l 0.177333,0.510667"
     style="fill:#808080;fill-opacity:1;fill-rule:nonzero;stroke:none;stroke-width:1.33333325"
     id="path106" /><path
     d="M 4.1399967,67.401387 4.26533,67.276054 4.0159967,67.021387 3.88533,67.15072"
     style="fill:#454545;fill-opacity:1;fill-rule:nonzero;stroke:none;stroke-width:1.33333325"
     id="path108" /><path
     d="m 4.7759967,66.77072 0.2546666,-0.244 -0.2493333,-0.261333 -0.26,0.256 0.2546667,0.249333 m 0.7653333,-0.749333 0.256,-0.256 -0.2506667,-0.254667 -0.26,0.249334 0.2546667,0.261333 M 6.3119966,65.260054 6.5626633,65.01072 6.3119966,64.75472 6.05733,65.005387 6.3119966,65.260054 m 0.7666667,-0.754667 0.2493333,-0.254667 -0.2493333,-0.250666 -0.256,0.250666 0.256,0.254667 m 0.7653333,-0.756 0.2546667,-0.249333 -0.2493334,-0.254667 -0.2613333,0.249333 0.256,0.254667 m 0.7653333,-0.754667 0.2546667,-0.249333 -0.2493333,-0.261333 -0.26,0.256 0.2546666,0.254666 m 0.7653333,-0.754666 0.256,-0.256 -0.2506666,-0.249334 -0.26,0.244 0.2546666,0.261334 m 0.7653338,-0.761334 0.256,-0.244 -0.250667,-0.261333 -0.2600001,0.256 0.2546671,0.249333 m 0.766666,-0.749333 0.254667,-0.256 -0.249333,-0.254667 -0.256,0.250667 0.250666,0.26 m 0.765334,-0.76 0.254666,-0.250667 -0.249333,-0.26 -0.256,0.254667 0.250667,0.256 m 0.770666,-0.750667 0.250667,-0.254666 -0.250667,-0.256 -0.254667,0.250666 0.254667,0.26 m 0.765333,-0.76 0.256,-0.250666 -0.256,-0.26 -0.254666,0.254666 0.254666,0.256 m 0.765334,-0.756 0.256,-0.254666 -0.256,-0.250667 -0.254667,0.250667 0.254667,0.254666 m 0.766666,-0.76 0.254667,-0.245333 -0.254667,-0.26 -0.256,0.256 0.256,0.249333 m 0.765334,-0.749333 0.254666,-0.256 -0.254666,-0.254667 -0.254667,0.254667 0.254667,0.256 m 0.770666,-0.761333 0.250667,-0.249333 -0.250667,-0.256 -0.26,0.250666 0.26,0.254667 m 0.765334,-0.754667 0.250666,-0.250666 -0.250666,-0.254667 -0.254667,0.254667 0.254667,0.250666 m 0.765333,-0.756 0.256,-0.249333 -0.256,-0.256 -0.254667,0.250667 0.254667,0.254666 m 0.766667,-0.754666 0.254666,-0.249334 -0.254666,-0.261333 -0.256,0.256 0.256,0.254667 m 0.765333,-0.754667 0.254667,-0.250667 -0.254667,-0.254666 -0.256,0.244 0.256,0.261333 m 0.765333,-0.756 0.256,-0.249333 -0.256,-0.261334 -0.254666,0.256 0.254666,0.254667 m 0.765334,-0.754667 0.256,-0.256 -0.256,-0.254666 -0.249334,0.249333 0.249334,0.261333 m 0.766666,-0.761333 0.254667,-0.249333 -0.254667,-0.254667 -0.250666,0.249333 0.250666,0.254667 m 0.765334,-0.749333 0.254666,-0.254667 -0.249333,-0.256 -0.256,0.250667 0.250667,0.26 m 0.765333,-0.76 0.254667,-0.250667 -0.249334,-0.254667 -0.254666,0.249334 0.249333,0.256 m 0.765333,-0.756 0.261334,-0.254667 -0.256,-0.250667 -0.254667,0.250667 0.249333,0.254667 m 0.765334,-0.76 0.261333,-0.245334 -0.256,-0.254666 -0.254667,0.249333 0.249334,0.250667 m 0.766666,-0.750667 0.26,-0.254667 -0.254667,-0.254666 -0.255999,0.254666 0.250666,0.254667 m 0.765333,-0.76 0.26,-0.249333 -0.254666,-0.256 -0.256,0.250666 0.250666,0.254667 m 0.770667,-0.754667 0.254667,-0.250666 -0.254667,-0.254667 -0.250667,0.254667 0.250667,0.250666 m 0.765333,-0.750666 0.261334,-0.254667 -0.261334,-0.256 -0.249333,0.250667 0.249333,0.26 m 0.765334,-0.76 0.261333,-0.250667 -0.256,-0.26 -0.254667,0.254667 0.249334,0.256 m 0.766666,-0.754667 0.26,-0.250666 -0.254666,-0.254667 -0.256,0.244 0.250666,0.261333 m 0.765334,-0.756 0.26,-0.249333 -0.254667,-0.261333 -0.256,0.256 0.250667,0.254666 m 0.765333,-0.754666 0.26,-0.256 -0.254667,-0.254667 -0.254666,0.249333 0.249333,0.261334 m 0.765333,-0.761334 0.261334,-0.249333 -0.256,-0.256 -0.249334,0.256 0.244,0.249333 m 0.770667,-0.749333 0.256,-0.256 -0.250667,-0.254667 -0.254666,0.250667 0.249333,0.26 m 0.766667,-0.76 0.254666,-0.250667 -0.249333,-0.254666 -0.256,0.249333 0.250667,0.256 m 0.765333,-0.756 0.254667,-0.254667 -0.249334,-0.250666 -0.256,0.250666 0.250667,0.254667 m 0.765333,-0.754667 0.256,-0.250666 -0.250666,-0.254667 -0.254667,0.249333 0.249333,0.256 m 0.765334,-0.756 0.261333,-0.249333 -0.256,-0.26 -0.254667,0.254667 0.249334,0.254666 m 0.766666,-0.754666 0.26,-0.254667 -0.256,-0.256 -0.254666,0.250667 0.250666,0.26 m 0.770667,-0.754667 0.254667,-0.250667 -0.254667,-0.26 -0.250667,0.254667 0.250667,0.256 m 0.765333,-0.756 0.254667,-0.254667 -0.254667,-0.256 -0.250666,0.250667 0.250666,0.26 m 0.765334,-0.76 0.254666,-0.250667 -0.249333,-0.26 -0.254667,0.254667 0.249334,0.256 m 0.765333,-0.756 0.256,-0.249333 -0.250667,-0.254667 -0.254667,0.249333 0.249334,0.254667 m 0.766666,-0.754667 0.254667,-0.250666 -0.250667,-0.26 -0.254666,0.256 0.250666,0.254666 m 0.765334,-0.754666 0.254666,-0.256 -0.249333,-0.254667 -0.256,0.254667 0.250667,0.256 m 0.765333,-0.761334 0.254667,-0.249333 -0.249334,-0.256 -0.256,0.256 0.250667,0.249333 m 0.770667,-0.749333 0.250666,-0.256 -0.250666,-0.254667 -0.254667,0.254667 0.254667,0.256 m 0.765333,-0.761333 0.250667,-0.249333 -0.245334,-0.254667 -0.254666,0.249333 0.249333,0.254667 m 0.766667,-0.754667 0.254666,-0.249333 -0.250666,-0.256 -0.254667,0.250667 0.250667,0.254666 m 0.765333,-0.754666 0.254667,-0.250667 -0.249334,-0.254667 -0.256,0.249334 0.250667,0.256 m 0.765333,-0.756 0.254667,-0.249334 -0.249333,-0.261333 -0.256,0.256 0.250666,0.254667 m 0.765334,-0.754667 0.256,-0.256 -0.250667,-0.254667 -0.254667,0.250667 0.249334,0.26 m 0.770666,-0.756 0.250667,-0.249333 -0.250667,-0.26 -0.254666,0.254666 0.254666,0.254667 m 0.766667,-0.754667 0.249333,-0.254666 -0.249333,-0.256 -0.256,0.250666 0.256,0.26 m 0.765333,-0.76 0.254667,-0.250666 -0.249333,-0.254667 -0.261334,0.249333 0.256,0.256 m 0.765334,-0.756 0.254666,-0.249333 -0.249333,-0.256 -0.26,0.250667 0.254667,0.254666 m 0.765333,-0.754666 0.256,-0.250667 -0.250667,-0.254667 -0.26,0.250667 0.254667,0.254667 m 0.765333,-0.756 0.256,-0.254667 -0.250666,-0.254667 -0.26,0.254667 0.254666,0.254667 m 0.766667,-0.76 0.254667,-0.249334 -0.249334,-0.250666 -0.261333,0.250666 0.256,0.249334 m 0.770666,-0.749334 0.249334,-0.256 -0.249334,-0.254666 -0.256,0.254666 0.256,0.256 m 0.765334,-0.761333 0.249333,-0.249333 -0.244,-0.256 -0.26,0.250666 0.254667,0.254667 m 0.765333,-0.754667 0.250667,-0.250666 -0.245334,-0.254667 -0.26,0.250667 0.254667,0.254666 m 0.765333,-0.750666 0.256,-0.254667 -0.250666,-0.254667 -0.26,0.249334 0.254666,0.26 m 0.766667,-0.76 0.254667,-0.249334 -0.249334,-0.261333 -0.261333,0.256 0.256,0.254667 m 0.765333,-0.754667 0.254667,-0.256 -0.249333,-0.249333 -0.261334,0.249333 0.256,0.256 m 0.765334,-0.756 0.254666,-0.249333 -0.249333,-0.26 -0.26,0.254667 0.254667,0.254666 m 0.770666,-0.754666 0.250667,-0.254667 -0.250667,-0.256 -0.254666,0.250667 0.254666,0.26 m 0.765334,-0.760002 0.250666,-0.250667 -0.250666,-0.254666 -0.254667,0.249333 0.254667,0.256 m 0.766666,-0.756 0.254667,-0.249334 -0.254667,-0.256 -0.256,0.250667 0.256,0.254667 m 0.765334,-0.754667 0.254666,-0.250667 -0.254666,-0.254667 -0.256,0.249334 0.256,0.256 m 0.765333,-0.756001 0.254667,-0.254666 -0.254667,-0.254667 -0.254667,0.254667 0.254667,0.254666 m 0.765333,-0.754667 0.256,-0.249333 -0.256,-0.256 -0.254666,0.250667 0.254666,0.254666 m 0.770667,-0.754666 0.250667,-0.2506695 -0.250667,-0.26 -0.254667,0.254667 0.254667,0.2560025 m 0.766667,-0.7560025 0.249333,-0.254667 -0.249333,-0.2560015 -0.256,0.2506685 0.256,0.26 m 0.765333,-0.7600015 0.249333,-0.250667 -0.249333,-0.254667 -0.256,0.249334 0.256,0.256 m 0.765333,-0.7506676 0.254667,-0.2546666 -0.254667,-0.2546667 -0.254666,0.2493333 0.254666,0.26 m 0.765334,-0.76 0.255999,-0.2493333 -0.255999,-0.2613333 -0.254667,0.256 0.254667,0.2546666 m 0.765333,-0.7546666 0.256,-0.256 -0.256,-0.2493333 -0.254667,0.2493333 0.254667,0.256 m 0.766666,-0.756 0.254667,-0.2493333 -0.254667,-0.2613333 -0.256,0.256 0.256,0.2546666 m 0.765334,-0.7546666 0.254666,-0.256 -0.254666,-0.2546667 -0.254667,0.2546667 0.254667,0.256 m 0.765333,-0.76 0.256,-0.2506667 -0.256,-0.2546666 -0.249333,0.2493333 0.249333,0.256 m 0.765333,-0.7506666 0.261334,-0.2546667 -0.256,-0.256 -0.254667,0.256 0.249333,0.2546667 m 0.766667,-0.76 0.26,-0.2506667 -0.254667,-0.2546667 -0.256,0.2493334 0.250667,0.256 m 0.765333,-0.756 0.26,-0.2493333 -0.254666,-0.26 -0.256,0.2546666 0.250666,0.2546667 m 0.765334,-0.7546667 0.26,-0.25066659 -0.254667,-0.2546667 -0.254667,0.2493333 0.249334,0.25599999 m 0.770666,-0.75466659 0.256,-0.250666704141 -0.256,-0.259999965859 -0.249333,0.2546667 0.249333,0.25599997 m 0.765334,-0.75599997 0.256,-0.2546667 -0.256,-0.25066654 -0.249334,0.24533324 0.249334,0.26 m 0.766666,-0.75999994 0.254667,-0.2506666 -0.250667,-0.2546667 -0.254666,0.2546667 0.250666,0.2506666 m 0.765334,-0.7506667 0.254666,-0.2546667 -0.249333,-0.256 -0.256,0.2506667 0.250667,0.26 m 0.765333,-0.76 0.26,-0.2506667 -0.254667,-0.2546666 -0.254666,0.2506666 0.249333,0.2546667 m 0.765333,-0.7546667 0.261334,-0.2559999 -0.256,-0.2493334 -0.254667,0.2493334 0.249333,0.2559999 m 0.765334,-0.7559999 0.261333,-0.2493334 -0.256,-0.256 -0.254667,0.2506667 0.249334,0.2546667 m 0.766666,-0.7546667 0.26,-0.256 -0.254666,-0.2546666 -0.256,0.2546666 0.250666,0.256 m 0.770667,-0.7613333 0.254667,-0.2493336 -0.254667,-0.250666 -0.250667,0.245333 0.250667,0.2546666 m 0.765333,-0.7493336 0.254667,-0.254666 -0.254667,-0.2559985 -0.249333,0.2559985 0.249333,0.254666 m 0.765333,-0.7599985 0.256,-0.250666 -0.250666,-0.254667 -0.254667,0.249333 0.249333,0.256 m 0.765334,-0.7559995 0.261333,-0.249333 -0.256,-0.256 -0.254667,0.256 0.249334,0.249333 m 0.766666,-0.749333 0.26,-0.2559995 -0.254666,-0.254667 -0.256,0.249334 0.250666,0.2613325 m 0.765334,-0.7613325 0.26,-0.249334 -0.254667,-0.259999 -0.256,0.254666 0.250667,0.254667 m 0.770666,-0.754666 0.254667,-0.254667 -0.254667,-0.250666 -0.249333,0.245333 0.249333,0.26 m 0.765334,-0.759998 0.256,-0.250666 -0.256,-0.254667 -0.249334,0.254667 0.249334,0.250666"
     style="fill:#454545;fill-opacity:1;fill-rule:nonzero;stroke:none;stroke-width:1.33333325"
     id="path110" /><path
     d="m 84.473328,-11.843946 0.125333,-0.129334 -0.249333,-0.255998 -0.125333,0.125334"
     style="fill:#454545;fill-opacity:1;fill-rule:nonzero;stroke:none;stroke-width:1.33333325"
     id="path112" /><path
     d="M 6.5626633,62.849387 V 61.30672 C 11.12533,57.20272 15.806663,53.609387 20.802663,50.464054 l -0.182667,0.176 0.249334,0.261333 0.256,-0.256 -0.234667,-0.238666 c 0.202667,-0.130667 0.416,-0.261334 0.62,-0.385334 l 0.125333,0.118667 0.254667,-0.249333 -0.06267,-0.06267 c 2.521334,-1.541333 5.114667,-2.973333 7.817333,-4.286667 4.381334,-2.145333 9.104,-4.895999 13.922667,-5.119999 v 4.275999 l -0.12,-0.03067 -0.032,-0.01067 h -0.02533 c -4.942666,0.188 -9.671999,2.604 -14.015999,4.453333 -5.124,2.188 -9.864,4.702667 -14.385333,7.584 l -0.249334,-0.256 -0.256,0.256 0.198667,0.197333 c -0.204,0.130667 -0.412,0.265334 -0.614667,0.401334 l -0.09467,-0.09467 -0.254667,0.250667 0.04133,0.04133 c -2.431999,1.604 -4.8066661,3.317333 -7.1399994,5.146667 l 0.1093334,0.14 -0.1666667,0.07333 m 8.9479997,-7.166667 -0.26,0.254667 0.254667,0.256 0.254666,-0.256 -0.249333,-0.254667 m 0.765333,-0.755999 -0.26,0.250666 0.26,0.254667 0.250667,-0.249333 -0.250667,-0.256 m 0.765334,-0.754667 -0.254667,0.254667 0.254667,0.250666 0.250666,-0.250666 -0.250666,-0.254667 m 0.765333,-0.756 -0.254667,0.250667 0.254667,0.254666 0.256,-0.249333 -0.256,-0.256 m 0.766667,-0.76 -0.256,0.256 0.256,0.254667 0.254666,-0.249334 -0.254666,-0.261333 m 0.765333,-0.749333 -0.256,0.244 0.256,0.261333 0.254667,-0.250667 -0.254667,-0.254666 m 0.765333,-0.761334 -0.254666,0.256 0.254666,0.254667 0.256,-0.249333 -0.256,-0.261334"
     style="fill:#000000;fill-opacity:1;fill-rule:nonzero;stroke:none;stroke-width:1.33333325;opacity:0.57"
     id="path114" /><path
     d="m 13.759996,57.489387 -0.04133,-0.04133 0.254667,-0.250667 0.09467,0.09467 c -0.09867,0.06267 -0.204,0.129333 -0.308,0.197333 m 0.922667,-0.598667 -0.198667,-0.197333 0.256,-0.256 0.249334,0.256 c -0.09867,0.06667 -0.202667,0.129333 -0.306667,0.197333 m 0.822667,-0.697333 -0.254667,-0.256 0.254667,-0.254667 0.254666,0.254667 -0.254666,0.256 m 0.765333,-0.761333 -0.254667,-0.254667 0.254667,-0.250666 0.256,0.256 -0.256,0.249333 m 0.765333,-0.754667 -0.249333,-0.250666 0.249333,-0.254667 0.256,0.254667 -0.256,0.250666 m 0.770667,-0.756 -0.254667,-0.254666 0.254667,-0.250667 0.256,0.256 -0.256,0.249333 m 0.766667,-0.754666 -0.256,-0.254667 0.256,-0.256 0.254666,0.261333 -0.254666,0.249334 m 0.765333,-0.754667 -0.256,-0.261333 0.256,-0.244 0.254667,0.254666 -0.254667,0.250667 m 0.765333,-0.756 -0.254666,-0.254667 0.254666,-0.256 0.256,0.261334 -0.256,0.249333 m 0.765334,-0.754667 -0.249334,-0.261333 0.182667,-0.176 c 0.02533,-0.02133 0.05733,-0.03733 0.088,-0.05733 l 0.234667,0.238666 -0.256,0.256 m 0.766666,-0.761333 -0.125333,-0.118667 c 0.104,-0.068 0.213333,-0.130666 0.317333,-0.193333 l 0.06267,0.06267 -0.254667,0.249333"
     style="fill:#26354a;fill-opacity:1;fill-rule:nonzero;stroke:none;stroke-width:1.33333325"
     id="path116" /><path
     d="m 6.5626633,62.92672 h -0.36 v -1.781333 l 0.057333,-0.052 c 5.0733337,-4.566667 10.3026667,-8.52 15.9373337,-11.916 l 0.204,0.213334 0.254666,-0.254667 -0.14,-0.146667 c 0.213334,-0.125333 0.421334,-0.254666 0.634667,-0.374666 l 0.016,0.016 0.068,-0.068 c 2.025333,-1.182667 4.109333,-2.297334 6.254666,-3.349334 4.422667,-2.150666 9.24,-4.989333 14.256,-5.155999 l 0.186667,-0.01067 v 5.12 l -0.557334,-0.150667 c -4.822666,0.186667 -9.505333,2.568 -13.858666,4.421333 -5.781333,2.469334 -11.078666,5.354667 -16.109333,8.713333 l -0.198667,-0.202666 -0.254666,0.254666 0.150666,0.157334 c -0.202666,0.134666 -0.401333,0.270666 -0.598666,0.405333 l -0.06267,-0.05733 -0.254667,0.250666 0.01467,0.01467 c -1.817333,1.250667 -3.5986667,2.562667 -5.364,3.944 L 6.6199966,62.636054 C 8.9533299,60.80672 11.327997,59.093387 13.759996,57.489387 l 0.213334,0.213333 0.256,-0.254666 -0.161334,-0.156 c 0.202667,-0.136 0.410667,-0.270667 0.614667,-0.401334 l 0.05733,0.052 0.254667,-0.245333 -0.0053,-0.004 c 4.521333,-2.881333 9.261333,-5.396 14.385333,-7.584 4.344,-1.849333 9.073333,-4.265333 14.015999,-4.453333 h 0.02533 l 0.032,0.01067 0.12,0.03067 v -4.275999 c -4.818667,0.224 -9.541333,2.974666 -13.922667,5.119999 -2.702666,1.313334 -5.295999,2.745334 -7.817333,4.286667 l -0.192,-0.192 -0.250666,0.249333 0.125333,0.136 c -0.204,0.124 -0.417333,0.254667 -0.62,0.385334 l -0.02133,-0.016 -0.06667,0.07333 c -4.996,3.145333 -9.677333,6.738666 -14.2399997,10.842666 v 1.62"
     style="fill:#000000;fill-opacity:1;fill-rule:nonzero;stroke:none;stroke-width:1.33333325;opacity:0.57"
     id="path118" /><path
     d="m 12.202663,58.973387 -0.01467,-0.01467 0.254667,-0.250666 0.06267,0.05733 c -0.104,0.068 -0.202667,0.141333 -0.302667,0.208 m 0.901333,-0.613333 -0.150666,-0.157334 0.254666,-0.254666 0.198667,0.202666 c -0.1,0.07333 -0.198667,0.136 -0.302667,0.209334 m 0.869334,-0.657334 -0.213334,-0.213333 c 0.104,-0.068 0.209334,-0.134667 0.308,-0.197333 l 0.161334,0.156 -0.256,0.254666 m 0.766666,-0.76 -0.05733,-0.052 c 0.104,-0.068 0.208,-0.130666 0.306667,-0.197333 l 0.0053,0.004 -0.254667,0.245333 m 6.062667,-6.478666 0.06667,-0.07333 0.02133,0.016 c -0.03067,0.02 -0.06267,0.036 -0.088,0.05733 m 0.708,-0.442667 -0.125333,-0.136 0.250666,-0.249333 0.192,0.192 c -0.104,0.06267 -0.213333,0.125333 -0.317333,0.193333 m 0.890667,-0.630666 -0.204,-0.213334 c 0.105333,-0.06267 0.209333,-0.125333 0.318666,-0.188 l 0.14,0.146667 -0.254666,0.254667 m 0.765333,-0.76 -0.016,-0.016 c 0.032,-0.016 0.05733,-0.03067 0.084,-0.052 l -0.068,0.068"
     style="fill:#26354a;fill-opacity:1;fill-rule:nonzero;stroke:none;stroke-width:1.33333325"
     id="path120" /><path
     d="M 6.5359966,62.177387 C 13.707996,56.312054 21.202663,51.552054 29.775996,47.708054 c 4.478667,-2.005333 9.292,-4.572 14.245333,-4.796 l -0.02667,-0.542667 c -5.12,0.245334 -9.983999,2.86 -14.437333,4.849334 -8.619999,3.86 -16.161333,8.650666 -23.363999,14.541333 l 0.3426666,0.417333"
     style="fill:#111111;fill-opacity:1;fill-rule:nonzero;stroke:none;stroke-width:1.33333325"
     id="path122" /><path
     d="m 63.630662,7.9213808 h 0.354667 V 21.618721 h -0.354667 z"
     style="fill:#cd5b5b;fill-opacity:1;fill-rule:nonzero;stroke:none;stroke-width:1.33333325"
     id="path126" /><path
     d="m 63.806662,24.161388 -1.457333,-3.577333 1.457333,0.848 1.464,-0.848 -1.464,3.577333"
     style="fill:#cd5b5b;fill-opacity:1;fill-rule:nonzero;stroke:none;stroke-width:1.33333325"
     id="path128" /><path
     d="m 55.994662,15.473388 h 0.36 v 7.984 h -0.36 z"
     style="fill:#cd5b5b;fill-opacity:1;fill-rule:nonzero;stroke:none;stroke-width:1.33333325"
     id="path130" /><path
     d="m 56.171995,26.000055 -1.458666,-3.573334 1.458666,0.844 1.464,-0.844 -1.464,3.573334"
     style="fill:#cd5b5b;fill-opacity:1;fill-rule:nonzero;stroke:none;stroke-width:1.33333325"
     id="path132" /><path
     d="m 48.811996,22.562721 h 0.36 v 3.245334 h -0.36 z"
     style="fill:#cd5b5b;fill-opacity:1;fill-rule:nonzero;stroke:none;stroke-width:1.33333325"
     id="path134" /><path
     d="m 48.989329,28.338721 -1.458667,-3.568 1.458667,0.849334 1.464,-0.849334 -1.464,3.568"
     style="fill:#cd5b5b;fill-opacity:1;fill-rule:nonzero;stroke:none;stroke-width:1.33333325"
     id="path136" /><path
     d="m 43.297329,28.306721 h 0.36 v 11.797333 h -0.36 z"
     style="fill:#cd5b5b;fill-opacity:1;fill-rule:nonzero;stroke:none;stroke-width:1.33333325"
     id="path150" /><path
     d="m 43.473329,42.640054 -1.457333,-3.572 1.457333,0.849334 1.464,-0.849334 -1.464,3.572"
     style="fill:#cd5b5b;fill-opacity:1;fill-rule:nonzero;stroke:none;stroke-width:1.33333325"
     id="path152" /><path
     d="m 35.859996,35.260054 h 0.364 v 6.573334 h -0.364 z"
     style="fill:#cd5b5b;fill-opacity:1;fill-rule:nonzero;stroke:none;stroke-width:1.33333325"
     id="path154" /><path
     d="m 36.041329,44.369387 -1.457333,-3.577333 1.457333,0.853334 1.458667,-0.853334 -1.458667,3.577333"
     style="fill:#cd5b5b;fill-opacity:1;fill-rule:nonzero;stroke:none;stroke-width:1.33333325"
     id="path156" /><path
     d="m 28.655996,42.505387 h 0.36 v 2.578667 h -0.36 z"
     style="fill:#cd5b5b;fill-opacity:1;fill-rule:nonzero;stroke:none;stroke-width:1.33333325"
     id="path158" /><path
     d="m 28.833329,47.620054 -1.458666,-3.573333 1.458666,0.849333 1.464,-0.849333 -1.464,3.573333"
     style="fill:#cd5b5b;fill-opacity:1;fill-rule:nonzero;stroke:none;stroke-width:1.33333325"
     id="path160" /><g
     transform="matrix(1.3333333,0,0,1.3333333,-128,-30.999944)"
     id="g694"><g
       id="g696"><g
         id="g698"><g
           clip-path="url(#clipPath704)"
           id="g700"><g
             id="g706"><path
               id="path708"
               style="fill:#000000;fill-opacity:1;fill-rule:nonzero;stroke:none"
               d="m 370.613,241.887 v -0.203 H -47.602 V -122.672 H 370.41 v 364.559 h 0.203 v -0.203 0.203 h 0.203 V -123.074 H -48.004 V 242.09 h 418.82 v -0.203 h -0.203" /></g></g></g></g></g><path
     id="path877"
     d="m 2.8746187,68.184224 64.1832963,0.04956"
     style="fill:none;stroke:#595959;stroke-width:0.80000001;stroke-linecap:butt;stroke-linejoin:miter;stroke-miterlimit:4;stroke-dasharray:none;stroke-opacity:1" /><path
     id="path877-3"
     d="M 3.0928378,68.685334 3.1423978,4.5020278"
     style="fill:none;stroke:#595959;stroke-width:0.80000001;stroke-linecap:butt;stroke-linejoin:miter;stroke-miterlimit:4;stroke-dasharray:none;stroke-opacity:1" /><path
     id="path1409"
     d="m 65.753651,66.294243 -0.0442,3.933282 5.3475,-1.988738 z"
     style="fill:#595959;fill-opacity:1;stroke:none;stroke-width:1px;stroke-linecap:butt;stroke-linejoin:miter;stroke-opacity:1" /><path
     id="path1409-0"
     d="m 1.2386978,6.1759569 3.933282,0.0442 -1.988738,-5.34749999 z"
     style="fill:#595959;fill-opacity:1;stroke:none;stroke-width:1px;stroke-linecap:butt;stroke-linejoin:miter;stroke-opacity:1" /></svg>