<?xml version="1.0" encoding="UTF-8" standalone="no"?>
<svg
   xmlns:dc="http://purl.org/dc/elements/1.1/"
   xmlns:cc="http://creativecommons.org/ns#"
   xmlns:rdf="http://www.w3.org/1999/02/22-rdf-syntax-ns#"
   xmlns:svg="http://www.w3.org/2000/svg"
   xmlns="http://www.w3.org/2000/svg"
   xmlns:xlink="http://www.w3.org/1999/xlink"
   width="218.69922pt"
   height="146.34084pt"
   viewBox="0 0 218.69921 146.34083"
   version="1.1"
   id="svg305">
  <metadata
     id="metadata2">
    <rdf:RDF>
      <cc:Work>
        <dc:type
           rdf:resource="http://purl.org/dc/dcmitype/StillImage" />
        <dc:date>2022-08-16T18:04:17.789569</dc:date>
        <dc:format>image/svg+xml</dc:format>
        <dc:creator>
          <cc:Agent>
            <dc:title>Matplotlib v3.5.1, https://matplotlib.org/</dc:title>
          </cc:Agent>
        </dc:creator>
        <dc:title></dc:title>
      </cc:Work>
    </rdf:RDF>
  </metadata>
  <defs
     id="defs6"
     style="stroke-linecap:butt;stroke-linejoin:round">
    <style
       type="text/css"
       id="style4">*{stroke-linejoin: round; stroke-linecap: butt}</style>
    <defs
       id="defs258">
      <path
         style="stroke-linecap:butt;stroke-linejoin:round"
         transform="scale(0.015625)"
         d="m 992,3909 c 0,140 -115,261 -262,261 -141,0 -263,-114 -263,-261 0,-140 115,-261 263,-261 140,0 262,115 262,261 z M 243,2706 v -165 c 359,0 410,-39 410,-344 V 427 C 653,184 627,153 218,153 V -13 C 371,0 646,0 806,0 c 154,0 416,0 564,-13 v 166 c -378,0 -391,38 -391,267 v 2356 z"
         id="CMR17-69" />
      <path
         style="stroke-linecap:butt;stroke-linejoin:round"
         transform="scale(0.015625)"
         d="m 966,2560 h 896 v 165 H 966 V 3904 H 851 C 838,3245 614,2668 70,2668 V 2560 H 627 V 771 c 0,-121 0,-835 743,-835 377,0 595,370 595,841 v 363 H 1850 V 783 C 1850,344 1677,51 1408,51 1222,51 966,178 966,758 Z"
         id="CMR17-74" />
      <path
         style="stroke-linecap:butt;stroke-linejoin:round"
         transform="scale(0.015625)"
         d="m 2234,2240 c -122,0 -301,0 -301,-223 0,-179 147,-230 230,-230 45,0 231,20 231,237 0,443 -436,779 -928,779 C 787,2803 211,2178 211,1363 211,516 813,-64 1466,-64 c 793,0 992,741 992,812 0,26 -7,45 -52,45 -44,0 -51,-6 -76,-90 C 2163,180 1798,51 1523,51 1114,51 621,427 621,1369 c 0,969 473,1319 851,1319 250,0 621,-115 762,-448 z"
         id="CMR17-63" />
      <path
         style="stroke-linecap:butt;stroke-linejoin:round"
         transform="scale(0.015625)"
         d="m 2758,1356 c 0,820 -595,1460 -1292,1460 C 768,2816 173,2176 173,1356 173,551 768,-64 1466,-64 c 697,0 1292,615 1292,1420 z M 1466,51 c -301,0 -557,179 -704,429 -160,287 -180,646 -180,928 0,269 13,602 180,890 128,211 377,416 704,416 288,0 531,-160 684,-384 199,-301 199,-723 199,-922 0,-250 -13,-633 -186,-941 C 1984,173 1709,51 1466,51 Z"
         id="CMR17-6f" />
    </defs>
  </defs>
  <g
     transform="translate(-4.9999998,-4.9999998)"
     style="stroke-linecap:butt;stroke-linejoin:round"
     id="patch_1">
    <path
       id="path8"
       style="fill:none;stroke-linecap:butt;stroke-linejoin:round"
       d="M 0,156.34083 H 263.6992 V 0 H 0 Z" />
  </g>
  <g
     transform="translate(-4.9999998,-4.9999998)"
     id="patch_2"
     style="stroke-linecap:butt;stroke-linejoin:round">
    <path
       d="M 41.944318,118.65835 H 142.38432 V 20.810347 H 41.944318 Z"
       style="fill:#ffffff;stroke-linecap:butt;stroke-linejoin:round"
       id="path11" />
  </g>
  <g
     transform="translate(-4.9999998,-4.9999998)"
     id="matplotlib.axis_1"
     style="stroke-linecap:butt;stroke-linejoin:round">
    <g
       id="xtick_1"
       style="stroke-linecap:butt;stroke-linejoin:round">
      <g
         id="line2d_1"
         style="stroke-linecap:butt;stroke-linejoin:round">
        <defs
           id="defs15">
          <path
             id="mb51dfd7c17"
             d="M 0,0 V 3.5"
             style="stroke:#000000;stroke-width:0.80000001;stroke-linecap:butt;stroke-linejoin:round" />
        </defs>
        <g
           id="g19"
           style="stroke-linecap:butt;stroke-linejoin:round">
          <use
             xlink:href="#mb51dfd7c17"
             x="41.944317"
             y="118.65835"
             style="stroke:#000000;stroke-width:0.80000001;stroke-linecap:butt;stroke-linejoin:round"
             id="use17"
             width="100%"
             height="100%" />
        </g>
      </g>
      <g
         id="text_1"
         style="stroke-linecap:butt;stroke-linejoin:round">
        <!-- $\mathdefault{0.0}$ -->
        <g
           transform="matrix(0.11,0,0,-0.11,34.942779,133.26869)"
           id="g32"
           style="stroke-linecap:butt;stroke-linejoin:round">
          <defs
             id="defs24">
            <path
               id="CMR17-30"
               d="m 2688,2025 c 0,391 -6,1055 -275,1566 -237,448 -615,607 -947,607 -308,0 -698,-140 -941,-601 C 269,3118 243,2524 243,2025 c 0,-364 7,-919 205,-1406 275,-658 768,-747 1018,-747 294,0 742,121 1004,728 192,442 218,959 218,1425 z M 1466,-26 c -410,0 -653,351 -743,838 -70,376 -70,926 -70,1284 0,492 0,901 83,1291 122,542 480,709 730,709 262,0 601,-173 723,-696 83,-364 89,-793 89,-1304 0,-416 0,-927 -76,-1304 C 2067,95 1690,-26 1466,-26 Z"
               transform="scale(0.015625)"
               style="stroke-linecap:butt;stroke-linejoin:round" />
            <path
               id="CMMI12-3a"
               d="M 1178,307 C 1178,492 1024,619 870,619 685,619 557,466 557,313 557,128 710,0 864,0 c 186,0 314,153 314,307 z"
               transform="scale(0.015625)"
               style="stroke-linecap:butt;stroke-linejoin:round" />
          </defs>
          <use
             xlink:href="#CMR17-30"
             transform="scale(0.996264)"
             id="use26"
             style="stroke-linecap:butt;stroke-linejoin:round"
             x="0"
             y="0"
             width="100%"
             height="100%" />
          <use
             xlink:href="#CMMI12-3a"
             transform="matrix(0.996264,0,0,0.996264,45.690477,0)"
             id="use28"
             style="stroke-linecap:butt;stroke-linejoin:round"
             x="0"
             y="0"
             width="100%"
             height="100%" />
          <use
             xlink:href="#CMR17-30"
             transform="matrix(0.996264,0,0,0.996264,72.787654,0)"
             id="use30"
             style="stroke-linecap:butt;stroke-linejoin:round"
             x="0"
             y="0"
             width="100%"
             height="100%" />
        </g>
      </g>
    </g>
    <g
       id="xtick_2"
       style="stroke-linecap:butt;stroke-linejoin:round">
      <g
         id="line2d_2"
         style="stroke-linecap:butt;stroke-linejoin:round">
        <g
           id="g38"
           style="stroke-linecap:butt;stroke-linejoin:round">
          <use
             xlink:href="#mb51dfd7c17"
             x="83.794319"
             y="118.65835"
             style="stroke:#000000;stroke-width:0.80000001;stroke-linecap:butt;stroke-linejoin:round"
             id="use36"
             width="100%"
             height="100%" />
        </g>
      </g>
      <g
         id="text_2"
         style="stroke-linecap:butt;stroke-linejoin:round">
        <!-- $\mathdefault{0.5}$ -->
        <g
           transform="matrix(0.11,0,0,-0.11,76.792779,133.26869)"
           id="g50"
           style="stroke-linecap:butt;stroke-linejoin:round">
          <defs
             id="defs42">
            <path
               id="CMR17-35"
               d="m 730,3692 c 64,-26 326,-108 595,-108 595,0 921,327 1107,516 0,57 0,92 -38,92 -7,0 -20,0 -71,-29 -224,-105 -486,-190 -806,-190 -192,0 -480,26 -794,166 -70,32 -83,32 -89,32 -32,0 -39,-7 -39,-134 V 2203 c 0,-114 0,-146 64,-146 32,0 45,13 77,57 205,287 486,408 806,408 224,0 704,-140 704,-1233 0,-204 0,-574 -192,-868 C 1894,159 1645,25 1370,25 947,25 518,320 403,814 c 26,-7 77,-19 103,-19 83,0 243,45 243,243 0,172 -122,242 -243,242 -148,0 -244,-90 -244,-269 0,-557 442,-1139 1120,-1139 660,0 1287,568 1287,1392 0,766 -499,1360 -1120,1360 -327,0 -602,-121 -819,-350 z"
               transform="scale(0.015625)"
               style="stroke-linecap:butt;stroke-linejoin:round" />
          </defs>
          <use
             xlink:href="#CMR17-30"
             transform="scale(0.996264)"
             id="use44"
             style="stroke-linecap:butt;stroke-linejoin:round"
             x="0"
             y="0"
             width="100%"
             height="100%" />
          <use
             xlink:href="#CMMI12-3a"
             transform="matrix(0.996264,0,0,0.996264,45.690477,0)"
             id="use46"
             style="stroke-linecap:butt;stroke-linejoin:round"
             x="0"
             y="0"
             width="100%"
             height="100%" />
          <use
             xlink:href="#CMR17-35"
             transform="matrix(0.996264,0,0,0.996264,72.787654,0)"
             id="use48"
             style="stroke-linecap:butt;stroke-linejoin:round"
             x="0"
             y="0"
             width="100%"
             height="100%" />
        </g>
      </g>
    </g>
    <g
       id="xtick_3"
       style="stroke-linecap:butt;stroke-linejoin:round">
      <g
         id="line2d_3"
         style="stroke-linecap:butt;stroke-linejoin:round">
        <g
           id="g56"
           style="stroke-linecap:butt;stroke-linejoin:round">
          <use
             xlink:href="#mb51dfd7c17"
             x="125.64432"
             y="118.65835"
             style="stroke:#000000;stroke-width:0.80000001;stroke-linecap:butt;stroke-linejoin:round"
             id="use54"
             width="100%"
             height="100%" />
        </g>
      </g>
      <g
         id="text_3"
         style="stroke-linecap:butt;stroke-linejoin:round">
        <!-- $\mathdefault{1.0}$ -->
        <g
           transform="matrix(0.11,0,0,-0.11,118.64278,133.26869)"
           id="g68"
           style="stroke-linecap:butt;stroke-linejoin:round">
          <defs
             id="defs60">
            <path
               id="CMR17-31"
               d="m 1702,4058 c 0,134 -6,134 -96,134 -249,-276 -627,-365 -985,-365 -19,0 -51,0 -58,-19 -6,-13 -6,-26 -6,-160 198,0 531,38 787,191 V 461 C 1344,236 1331,160 781,160 H 589 V 0 c 307,0 627,0 934,0 307,0 627,0 935,0 v 160 h -192 c -551,0 -564,70 -564,298 z"
               transform="scale(0.015625)"
               style="stroke-linecap:butt;stroke-linejoin:round" />
          </defs>
          <use
             xlink:href="#CMR17-31"
             transform="scale(0.996264)"
             id="use62"
             style="stroke-linecap:butt;stroke-linejoin:round"
             x="0"
             y="0"
             width="100%"
             height="100%" />
          <use
             xlink:href="#CMMI12-3a"
             transform="matrix(0.996264,0,0,0.996264,45.690477,0)"
             id="use64"
             style="stroke-linecap:butt;stroke-linejoin:round"
             x="0"
             y="0"
             width="100%"
             height="100%" />
          <use
             xlink:href="#CMR17-30"
             transform="matrix(0.996264,0,0,0.996264,72.787654,0)"
             id="use66"
             style="stroke-linecap:butt;stroke-linejoin:round"
             x="0"
             y="0"
             width="100%"
             height="100%" />
        </g>
      </g>
    </g>
    <g
       id="text_4"
       style="stroke-linecap:butt;stroke-linejoin:round">
      <!-- $u$ -->
      <g
         transform="matrix(0.11,0,0,-0.11,89.027567,147.00994)"
         id="g77"
         style="stroke-linecap:butt;stroke-linejoin:round">
        <defs
           id="defs73">
          <path
             id="CMMI12-75"
             d="m 2182,370 c 84,-357 391,-434 544,-434 205,0 359,134 461,351 109,230 192,607 192,626 0,32 -25,58 -64,58 -57,0 -64,-32 -89,-128 C 3110,402 2995,64 2739,64 c -192,0 -192,211 -192,294 0,147 19,210 83,479 45,172 90,344 128,523 l 263,1041 c 45,160 45,173 45,192 0,96 -77,160 -173,160 -186,0 -231,-160 -269,-320 -64,-249 -410,-1622 -454,-1845 -7,0 -256,-524 -724,-524 -332,0 -396,287 -396,524 0,364 179,874 345,1302 77,205 109,288 109,415 0,275 -198,511 -506,511 -588,0 -825,-926 -825,-977 0,-25 25,-57 70,-57 58,0 64,25 90,114 153,545 403,786 646,786 64,0 167,0 167,-204 0,-166 -71,-351 -167,-594 C 698,1124 666,881 666,690 c 0,-652 492,-754 755,-754 409,0 633,281 761,434 z"
             transform="scale(0.015625)"
             style="stroke-linecap:butt;stroke-linejoin:round" />
        </defs>
        <use
           xlink:href="#CMMI12-75"
           transform="scale(0.996264)"
           id="use75"
           style="stroke-linecap:butt;stroke-linejoin:round"
           x="0"
           y="0"
           width="100%"
           height="100%" />
      </g>
    </g>
  </g>
  <g
     transform="translate(-4.9999998,-4.9999998)"
     id="matplotlib.axis_2"
     style="stroke-linecap:butt;stroke-linejoin:round">
    <g
       id="ytick_1"
       style="stroke-linecap:butt;stroke-linejoin:round">
      <g
         id="line2d_4"
         style="stroke-linecap:butt;stroke-linejoin:round">
        <defs
           id="defs82">
          <path
             id="m59ca5cba9a"
             d="M 0,0 H -3.5"
             style="stroke:#000000;stroke-width:0.80000001;stroke-linecap:butt;stroke-linejoin:round" />
        </defs>
        <g
           id="g86"
           style="stroke-linecap:butt;stroke-linejoin:round">
          <use
             xlink:href="#m59ca5cba9a"
             x="41.944317"
             y="114.21071"
             style="stroke:#000000;stroke-width:0.80000001;stroke-linecap:butt;stroke-linejoin:round"
             id="use84"
             width="100%"
             height="100%" />
        </g>
      </g>
      <g
         id="text_5"
         style="stroke-linecap:butt;stroke-linejoin:round">
        <!-- $\mathdefault{0.0}$ -->
        <g
           transform="matrix(0.11,0,0,-0.11,20.941241,118.01588)"
           id="g95"
           style="stroke-linecap:butt;stroke-linejoin:round">
          <use
             xlink:href="#CMR17-30"
             transform="scale(0.996264)"
             id="use89"
             style="stroke-linecap:butt;stroke-linejoin:round"
             x="0"
             y="0"
             width="100%"
             height="100%" />
          <use
             xlink:href="#CMMI12-3a"
             transform="matrix(0.996264,0,0,0.996264,45.690477,0)"
             id="use91"
             style="stroke-linecap:butt;stroke-linejoin:round"
             x="0"
             y="0"
             width="100%"
             height="100%" />
          <use
             xlink:href="#CMR17-30"
             transform="matrix(0.996264,0,0,0.996264,72.787654,0)"
             id="use93"
             style="stroke-linecap:butt;stroke-linejoin:round"
             x="0"
             y="0"
             width="100%"
             height="100%" />
        </g>
      </g>
    </g>
    <g
       id="ytick_2"
       style="stroke-linecap:butt;stroke-linejoin:round">
      <g
         id="line2d_5"
         style="stroke-linecap:butt;stroke-linejoin:round">
        <g
           id="g101"
           style="stroke-linecap:butt;stroke-linejoin:round">
          <use
             xlink:href="#m59ca5cba9a"
             x="41.944317"
             y="82.441879"
             style="stroke:#000000;stroke-width:0.80000001;stroke-linecap:butt;stroke-linejoin:round"
             id="use99"
             width="100%"
             height="100%" />
        </g>
      </g>
      <g
         id="text_6"
         style="stroke-linecap:butt;stroke-linejoin:round">
        <!-- $\mathdefault{0.5}$ -->
        <g
           transform="matrix(0.11,0,0,-0.11,20.941241,86.247053)"
           id="g110"
           style="stroke-linecap:butt;stroke-linejoin:round">
          <use
             xlink:href="#CMR17-30"
             transform="scale(0.996264)"
             id="use104"
             style="stroke-linecap:butt;stroke-linejoin:round"
             x="0"
             y="0"
             width="100%"
             height="100%" />
          <use
             xlink:href="#CMMI12-3a"
             transform="matrix(0.996264,0,0,0.996264,45.690477,0)"
             id="use106"
             style="stroke-linecap:butt;stroke-linejoin:round"
             x="0"
             y="0"
             width="100%"
             height="100%" />
          <use
             xlink:href="#CMR17-35"
             transform="matrix(0.996264,0,0,0.996264,72.787654,0)"
             id="use108"
             style="stroke-linecap:butt;stroke-linejoin:round"
             x="0"
             y="0"
             width="100%"
             height="100%" />
        </g>
      </g>
    </g>
    <g
       id="ytick_3"
       style="stroke-linecap:butt;stroke-linejoin:round">
      <g
         id="line2d_6"
         style="stroke-linecap:butt;stroke-linejoin:round">
        <g
           id="g116"
           style="stroke-linecap:butt;stroke-linejoin:round">
          <use
             xlink:href="#m59ca5cba9a"
             x="41.944317"
             y="50.673046"
             style="stroke:#000000;stroke-width:0.80000001;stroke-linecap:butt;stroke-linejoin:round"
             id="use114"
             width="100%"
             height="100%" />
        </g>
      </g>
      <g
         id="text_7"
         style="stroke-linecap:butt;stroke-linejoin:round">
        <!-- $\mathdefault{1.0}$ -->
        <g
           transform="matrix(0.11,0,0,-0.11,20.941241,54.478221)"
           id="g125"
           style="stroke-linecap:butt;stroke-linejoin:round">
          <use
             xlink:href="#CMR17-31"
             transform="scale(0.996264)"
             id="use119"
             style="stroke-linecap:butt;stroke-linejoin:round"
             x="0"
             y="0"
             width="100%"
             height="100%" />
          <use
             xlink:href="#CMMI12-3a"
             transform="matrix(0.996264,0,0,0.996264,45.690477,0)"
             id="use121"
             style="stroke-linecap:butt;stroke-linejoin:round"
             x="0"
             y="0"
             width="100%"
             height="100%" />
          <use
             xlink:href="#CMR17-30"
             transform="matrix(0.996264,0,0,0.996264,72.787654,0)"
             id="use123"
             style="stroke-linecap:butt;stroke-linejoin:round"
             x="0"
             y="0"
             width="100%"
             height="100%" />
        </g>
      </g>
    </g>
    <g
       id="text_8"
       style="stroke-linecap:butt;stroke-linejoin:round">
      <!-- $v$ -->
      <g
         transform="matrix(0,-0.11,-0.11,0,14.810347,72.390364)"
         id="g134"
         style="stroke-linecap:butt;stroke-linejoin:round">
        <defs
           id="defs130">
          <path
             id="CMMI12-76"
             d="m 2925,2389 c 0,402 -205,427 -256,427 -154,0 -295,-153 -295,-281 0,-76 45,-121 71,-146 64,-58 230,-230 230,-562 0,-269 -384,-1763 -1152,-1763 -390,0 -467,326 -467,562 0,319 147,766 320,1226 102,262 128,326 128,453 0,269 -192,511 -506,511 -588,0 -825,-926 -825,-977 0,-25 25,-57 70,-57 58,0 64,25 90,115 153,549 403,792 646,792 58,0 167,0 167,-211 0,-166 -71,-351 -167,-594 C 672,1067 672,869 672,715 c 0,-140 19,-402 218,-581 230,-198 550,-198 608,-198 1062,0 1427,2088 1427,2453 z"
             transform="scale(0.015625)"
             style="stroke-linecap:butt;stroke-linejoin:round" />
        </defs>
        <use
           xlink:href="#CMMI12-76"
           transform="scale(0.996264)"
           id="use132"
           style="stroke-linecap:butt;stroke-linejoin:round"
           x="0"
           y="0"
           width="100%"
           height="100%" />
      </g>
    </g>
  </g>
  <g
     transform="translate(-4.9999998,-4.9999998)"
     id="line2d_7"
     style="stroke-linecap:butt;stroke-linejoin:round">
    <path
       d="m 41.944318,51.557851 8.37,0.709164 8.37,1.251739 8.37,2.155365 8.37,3.557646 8.37,5.481448 8.37,7.609633 8.370002,9.166254 8.37,9.327832 8.37,7.997309 8.37,5.909479 8.37,3.90432 8.37,2.39236 8.37,1.39885 8.37,0.79562"
       clip-path="url(#p3a665a57f9)"
       style="fill:none;stroke:#000000;stroke-width:1.5;stroke-linecap:square;stroke-linejoin:round"
       id="path138" />
  </g>
  <g
     transform="translate(-4.9999998,-4.9999998)"
     id="line2d_8"
     style="stroke-linecap:butt;stroke-linejoin:round">
    <path
       d="m 124.47874,114.21071 -0.9342,-6.35377 -1.64895,-6.35376 -2.83933,-6.353768 -4.68659,-6.353767 L 107.1488,82.441879 97.124412,76.088113 85.049441,69.734347 72.761618,63.38058 62.226532,57.026814 54.44181,50.673048 49.298527,44.319282 46.147001,37.965516 44.304263,31.611749 43.256172,25.257983"
       clip-path="url(#p3a665a57f9)"
       style="fill:none;stroke:#000000;stroke-width:1.5;stroke-linecap:butt;stroke-linejoin:round;stroke-dasharray:2.25, 1.5;stroke-dashoffset:0"
       id="path141" />
  </g>
  <g
     transform="translate(-4.9999998,-4.9999998)"
     id="line2d_9"
     style="stroke-linecap:butt;stroke-linejoin:round">
    <path
       d="m 41.944318,51.223471 8.37,0.445421 8.37,0.795619 8.37,1.398844 8.37,2.392361 8.37,3.904327 8.37,5.909474 8.370002,7.997309 8.37,9.327832 8.37,9.166254 8.37,7.609638 8.37,5.48144 8.37,3.55765 8.37,2.15536 8.37,1.25174"
       clip-path="url(#p3a665a57f9)"
       style="fill:none;stroke:#cccccc;stroke-width:1.5;stroke-linecap:square;stroke-linejoin:round"
       id="path144" />
  </g>
  <g
     transform="translate(-4.9999998,-4.9999998)"
     id="line2d_10"
     style="stroke-linecap:butt;stroke-linejoin:round">
    <path
       d="m 124.91923,114.21071 -0.58677,-6.35377 -1.04809,-6.35376 -1.84274,-6.353768 -3.15152,-6.353767 -5.14328,-6.353766 L 105.3621,76.088113 94.827017,69.734347 82.539194,63.38058 70.464223,57.026814 60.439832,50.673048 53.218963,44.319282 48.532373,37.965516 45.693048,31.611749 44.044096,25.257983"
       clip-path="url(#p3a665a57f9)"
       style="fill:none;stroke:#cccccc;stroke-width:1.5;stroke-linecap:butt;stroke-linejoin:round;stroke-dasharray:2.25, 1.5;stroke-dashoffset:0"
       id="path147" />
  </g>
  <g
     transform="translate(-4.9999998,-4.9999998)"
     id="line2d_11"
     style="stroke-linecap:butt;stroke-linejoin:round">
    <defs
       id="defs151">
      <path
         id="maab3761acb"
         d="m -3,3 6,-6 m -6,0 6,6"
         style="stroke:#ff0000;stroke-linecap:butt;stroke-linejoin:round" />
    </defs>
    <g
       clip-path="url(#p3a665a57f9)"
       id="g155"
       style="stroke-linecap:butt;stroke-linejoin:round">
      <use
         xlink:href="#maab3761acb"
         x="100.53432"
         y="101.50318"
         style="fill:#ff0000;stroke:#ff0000;stroke-linecap:butt;stroke-linejoin:round"
         id="use153"
         width="100%"
         height="100%" />
    </g>
  </g>
  <g
     transform="translate(-4.9999998,-4.9999998)"
     id="patch_3"
     style="stroke-linecap:butt;stroke-linejoin:round">
    <path
       d="M 41.944318,118.65835 V 20.810347"
       style="fill:none;stroke:#000000;stroke-width:0.80000001;stroke-linecap:square;stroke-linejoin:miter"
       id="path158" />
  </g>
  <g
     transform="translate(-4.9999998,-4.9999998)"
     id="patch_4"
     style="stroke-linecap:butt;stroke-linejoin:round">
    <path
       d="M 41.944318,118.65835 H 142.38432"
       style="fill:none;stroke:#000000;stroke-width:0.80000001;stroke-linecap:square;stroke-linejoin:miter"
       id="path161" />
  </g>
  <g
     transform="translate(-4.9999998,-4.9999998)"
     id="text_9"
     style="stroke-linecap:butt;stroke-linejoin:round">
    <!-- phase plane -->
    <g
       transform="matrix(0.11,0,0,-0.11,64.127716,14.810347)"
       id="g193"
       style="stroke-linecap:butt;stroke-linejoin:round">
      <defs
         id="defs171">
        <path
           id="CMR17-70"
           d="m 1408,-1063 c -410,0 -435,26 -435,274 V 402 c 185,-268 454,-440 793,-440 640,0 1287,561 1287,1426 0,803 -557,1414 -1216,1414 -384,0 -698,-210 -877,-464 v 464 l -762,-70 v -165 c 378,0 436,-39 436,-344 V -789 c 0,-242 -26,-274 -436,-274 v -165 c 154,12 436,12 602,12 166,0 454,0 608,-12 z M 973,2012 c 0,90 0,223 249,459 32,26 250,217 570,217 467,0 851,-580 851,-1306 C 2643,656 2234,64 1728,64 1498,64 1248,172 1056,472 973,612 973,650 973,752 Z"
           transform="scale(0.015625)"
           style="stroke-linecap:butt;stroke-linejoin:round" />
        <path
           id="CMR17-68"
           d="m 2656,1933 c 0,326 -64,857 -819,857 -525,0 -781,-422 -858,-633 h -6 v 2239 l -762,-70 v -166 c 378,0 435,-38 435,-343 V 426 C 646,184 621,153 211,153 V -13 C 365,0 646,0 813,0 c 166,0 454,0 608,-13 v 166 c -410,0 -435,25 -435,275 v 1230 c 0,589 358,1030 806,1030 474,0 525,-422 525,-730 V 428 c 0,-244 -26,-275 -435,-275 V -13 c 153,13 435,13 601,13 167,0 455,0 608,-13 v 166 c -409,0 -435,25 -435,275 z"
           transform="scale(0.015625)"
           style="stroke-linecap:butt;stroke-linejoin:round" />
        <path
           id="CMR17-61"
           d="m 2304,1653 c 0,419 0,641 -269,890 -237,209 -512,273 -729,273 -506,0 -871,-409 -871,-845 0,-243 192,-243 231,-243 83,0 230,50 230,226 0,158 -122,227 -230,227 -26,0 -58,-7 -77,-13 134,424 480,546 704,546 320,0 672,-285 672,-829 V 1600 C 1587,1600 1133,1549 774,1357 371,1133 256,813 256,570 256,77 832,-64 1171,-64 c 352,0 679,203 819,575 13,-278 192,-529 474,-529 134,0 474,88 474,585 V 920 H 2822 V 562 c 0,-384 -172,-434 -256,-434 -262,0 -262,330 -262,610 z M 1965,870 C 1965,317 1568,38 1216,38 896,38 646,275 646,570 c 0,191 84,530 455,735 307,173 659,199 864,199 z"
           transform="scale(0.015625)"
           style="stroke-linecap:butt;stroke-linejoin:round" />
        <path
           id="CMR17-73"
           d="m 1978,2697 c 0,116 -7,122 -45,122 -26,0 -32,-6 -109,-102 -19,-26 -77,-91 -96,-116 -205,218 -493,218 -602,218 -710,0 -966,-372 -966,-743 0,-578 653,-711 838,-751 404,-82 544,-108 679,-224 83,-76 224,-217 224,-447 0,-270 -154,-616 -743,-616 -556,0 -755,422 -870,983 -19,89 -19,96 -70,96 -52,0 -58,-7 -58,-134 V 63 c 0,-114 6,-121 45,-121 32,0 38,7 70,58 39,57 135,211 173,276 128,-173 352,-340 710,-340 634,0 973,347 973,848 0,328 -173,501 -256,578 -192,199 -416,244 -685,295 -352,78 -800,168 -800,560 0,166 90,520 736,520 685,0 724,-643 736,-849 7,-32 39,-39 58,-39 58,0 58,20 58,129 z"
           transform="scale(0.015625)"
           style="stroke-linecap:butt;stroke-linejoin:round" />
        <path
           id="CMR17-65"
           d="m 2438,1472 c 26,26 26,39 26,104 0,662 -346,1240 -1075,1240 C 710,2816 173,2169 173,1383 173,551 781,-64 1459,-64 c 717,0 999,671 999,804 0,44 -39,44 -52,44 -44,0 -51,-13 -76,-88 C 2189,265 1837,51 1504,51 1229,51 954,203 781,480 582,803 582,1176 582,1472 Z m -1849,96 c 45,937 537,1146 793,1146 436,0 730,-417 736,-1146 z"
           transform="scale(0.015625)"
           style="stroke-linecap:butt;stroke-linejoin:round" />
        <path
           id="CMR17-6c"
           d="m 979,4396 -761,-70 v -166 c 377,0 435,-38 435,-343 V 426 C 653,184 627,153 218,153 V -13 C 371,0 653,0 813,0 c 166,0 448,0 601,-13 v 166 c -409,0 -435,25 -435,273 z"
           transform="scale(0.015625)"
           style="stroke-linecap:butt;stroke-linejoin:round" />
        <path
           id="CMR17-6e"
           d="m 2656,1933 c 0,326 -64,857 -819,857 -506,0 -768,-390 -864,-646 h -7 v 646 l -755,-70 v -166 c 378,0 435,-39 435,-346 V 428 C 646,184 621,153 211,153 V -13 C 365,0 646,0 813,0 c 166,0 454,0 608,-13 v 166 c -410,0 -435,25 -435,275 v 1230 c 0,589 358,1030 806,1030 474,0 525,-422 525,-730 V 428 c 0,-244 -26,-275 -435,-275 V -13 c 153,13 435,13 601,13 167,0 455,0 608,-13 v 166 c -409,0 -435,25 -435,275 z"
           transform="scale(0.015625)"
           style="stroke-linecap:butt;stroke-linejoin:round" />
      </defs>
      <use
         xlink:href="#CMR17-70"
         transform="scale(0.996264)"
         id="use173"
         style="stroke-linecap:butt;stroke-linejoin:round"
         x="0"
         y="0"
         width="100%"
         height="100%" />
      <use
         xlink:href="#CMR17-68"
         transform="matrix(0.996264,0,0,0.996264,50.89537,0)"
         id="use175"
         style="stroke-linecap:butt;stroke-linejoin:round"
         x="0"
         y="0"
         width="100%"
         height="100%" />
      <use
         xlink:href="#CMR17-61"
         transform="matrix(0.996264,0,0,0.996264,101.79074,0)"
         id="use177"
         style="stroke-linecap:butt;stroke-linejoin:round"
         x="0"
         y="0"
         width="100%"
         height="100%" />
      <use
         xlink:href="#CMR17-73"
         transform="matrix(0.996264,0,0,0.996264,147.48122,0)"
         id="use179"
         style="stroke-linecap:butt;stroke-linejoin:round"
         x="0"
         y="0"
         width="100%"
         height="100%" />
      <use
         xlink:href="#CMR17-65"
         transform="matrix(0.996264,0,0,0.996264,183.28255,0)"
         id="use181"
         style="stroke-linecap:butt;stroke-linejoin:round"
         x="0"
         y="0"
         width="100%"
         height="100%" />
      <use
         xlink:href="#CMR17-70"
         transform="matrix(0.996264,0,0,0.996264,253.84418,0)"
         id="use183"
         style="stroke-linecap:butt;stroke-linejoin:round"
         x="0"
         y="0"
         width="100%"
         height="100%" />
      <use
         xlink:href="#CMR17-6c"
         transform="matrix(0.996264,0,0,0.996264,304.73955,0)"
         id="use185"
         style="stroke-linecap:butt;stroke-linejoin:round"
         x="0"
         y="0"
         width="100%"
         height="100%" />
      <use
         xlink:href="#CMR17-61"
         transform="matrix(0.996264,0,0,0.996264,329.61061,0)"
         id="use187"
         style="stroke-linecap:butt;stroke-linejoin:round"
         x="0"
         y="0"
         width="100%"
         height="100%" />
      <use
         xlink:href="#CMR17-6e"
         transform="matrix(0.996264,0,0,0.996264,375.30109,0)"
         id="use189"
         style="stroke-linecap:butt;stroke-linejoin:round"
         x="0"
         y="0"
         width="100%"
         height="100%" />
      <use
         xlink:href="#CMR17-65"
         transform="matrix(0.996264,0,0,0.996264,426.19646,0)"
         id="use191"
         style="stroke-linecap:butt;stroke-linejoin:round"
         x="0"
         y="0"
         width="100%"
         height="100%" />
    </g>
  </g>
  <g
     transform="translate(-4.9999998,-4.9999998)"
     id="legend_1"
     style="stroke-linecap:butt;stroke-linejoin:round">
    <g
       id="line2d_12"
       style="stroke-linecap:butt;stroke-linejoin:round">
      <path
         d="m 151.38432,33.782327 h 4 4"
         style="fill:none;stroke:#000000;stroke-width:1.5;stroke-linecap:square;stroke-linejoin:round"
         id="path196" />
    </g>
    <g
       id="line2d_13"
       style="stroke-linecap:butt;stroke-linejoin:round">
      <path
         d="m 163.38432,33.782327 h 4 4"
         style="fill:none;stroke:#cccccc;stroke-width:1.5;stroke-linecap:square;stroke-linejoin:round"
         id="path199" />
    </g>
    <g
       id="text_10"
       style="stroke-linecap:butt;stroke-linejoin:round">
      <!-- $\mathrm{d} v / \mathrm{d}t = 0 $ -->
      <g
         transform="matrix(0.1,0,0,-0.1,179.38432,37.282327)"
         id="g222"
         style="stroke-linecap:butt;stroke-linejoin:round">
        <defs
           id="defs206">
          <path
             id="CMR17-64"
             d="m 1869,4326 v -166 c 377,0 435,-38 435,-340 V 2345 c -26,32 -288,445 -806,445 C 845,2790 211,2208 211,1364 211,525 806,-64 1434,-64 c 544,0 825,401 857,444 V -63 h 775 v 191 c -378,0 -436,38 -436,345 V 4396 Z M 2291,755 C 2291,563 2176,390 2029,262 1811,70 1594,38 1472,38 c -186,0 -851,96 -851,1318 0,1256 742,1332 909,1332 294,0 531,-166 678,-397 83,-134 83,-153 83,-268 z"
             transform="scale(0.015625)"
             style="stroke-linecap:butt;stroke-linejoin:round" />
          <path
             id="CMMI12-3d"
             d="m 2746,4562 c 0,7 38,104 38,116 0,77 -64,122 -115,122 -32,0 -90,0 -141,-141 L 384,-1363 c 0,-7 -38,-102 -38,-115 0,-77 64,-122 115,-122 38,0 96,7 141,141 z"
             transform="scale(0.015625)"
             style="stroke-linecap:butt;stroke-linejoin:round" />
          <path
             id="CMMI12-74"
             d="m 1286,2566 h 589 c 122,0 186,0 186,115 0,71 -39,71 -167,71 h -563 l 237,940 c 26,89 26,102 26,148 0,103 -84,160 -167,160 -51,0 -198,-19 -249,-225 L 928,2752 H 326 c -128,0 -185,0 -185,-122 0,-64 45,-64 166,-64 H 877 L 454,881 C 403,658 384,594 384,511 384,211 595,-64 954,-64 c 646,0 992,932 992,976 0,39 -26,58 -64,58 -13,0 -39,0 -52,-26 -6,-6 -12,-13 -57,-115 C 1638,511 1344,64 973,64 781,64 768,224 768,364 c 0,6 0,128 19,204 z"
             transform="scale(0.015625)"
             style="stroke-linecap:butt;stroke-linejoin:round" />
          <path
             id="CMR17-3d"
             d="m 4115,2017 c 96,0 192,0 192,108 0,115 -109,115 -217,115 H 512 c -109,0 -218,0 -218,-115 0,-108 96,-108 192,-108 z M 4090,896 c 108,0 217,0 217,115 0,108 -96,108 -192,108 H 486 c -96,0 -192,0 -192,-108 0,-115 109,-115 218,-115 z"
             transform="scale(0.015625)"
             style="stroke-linecap:butt;stroke-linejoin:round" />
        </defs>
        <use
           xlink:href="#CMR17-64"
           transform="scale(0.996264)"
           id="use208"
           style="stroke-linecap:butt;stroke-linejoin:round"
           x="0"
           y="0"
           width="100%"
           height="100%" />
        <use
           xlink:href="#CMMI12-76"
           transform="matrix(0.996264,0,0,0.996264,50.89537,0)"
           id="use210"
           style="stroke-linecap:butt;stroke-linejoin:round"
           x="0"
           y="0"
           width="100%"
           height="100%" />
        <use
           xlink:href="#CMMI12-3d"
           transform="matrix(0.996264,0,0,0.996264,101.63054,0)"
           id="use212"
           style="stroke-linecap:butt;stroke-linejoin:round"
           x="0"
           y="0"
           width="100%"
           height="100%" />
        <use
           xlink:href="#CMR17-64"
           transform="matrix(0.996264,0,0,0.996264,150.40546,0)"
           id="use214"
           style="stroke-linecap:butt;stroke-linejoin:round"
           x="0"
           y="0"
           width="100%"
           height="100%" />
        <use
           xlink:href="#CMMI12-74"
           transform="matrix(0.996264,0,0,0.996264,201.30083,0)"
           id="use216"
           style="stroke-linecap:butt;stroke-linejoin:round"
           x="0"
           y="0"
           width="100%"
           height="100%" />
        <use
           xlink:href="#CMR17-3d"
           transform="matrix(0.996264,0,0,0.996264,264.20117,0)"
           id="use218"
           style="stroke-linecap:butt;stroke-linejoin:round"
           x="0"
           y="0"
           width="100%"
           height="100%" />
        <use
           xlink:href="#CMR17-30"
           transform="matrix(0.996264,0,0,0.996264,363.58997,0)"
           id="use220"
           style="stroke-linecap:butt;stroke-linejoin:round"
           x="0"
           y="0"
           width="100%"
           height="100%" />
      </g>
    </g>
    <g
       id="line2d_14"
       style="stroke-linecap:butt;stroke-linejoin:round">
      <path
         d="m 151.38432,48.744967 h 4 4"
         style="fill:none;stroke:#000000;stroke-width:1.5;stroke-linecap:butt;stroke-linejoin:round;stroke-dasharray:2.25, 1.5;stroke-dashoffset:0"
         id="path225" />
    </g>
    <g
       id="line2d_15"
       style="stroke-linecap:butt;stroke-linejoin:round">
      <path
         d="m 163.38432,48.744967 h 4 4"
         style="fill:none;stroke:#cccccc;stroke-width:1.5;stroke-linecap:butt;stroke-linejoin:round;stroke-dasharray:2.25, 1.5;stroke-dashoffset:0"
         id="path228" />
    </g>
    <g
       id="text_11"
       style="stroke-linecap:butt;stroke-linejoin:round">
      <!-- $\mathrm{d} u / \mathrm{d}t = 0$ -->
      <g
         transform="matrix(0.1,0,0,-0.1,179.38432,52.244967)"
         id="g245"
         style="stroke-linecap:butt;stroke-linejoin:round">
        <use
           xlink:href="#CMR17-64"
           transform="scale(0.996264)"
           id="use231"
           style="stroke-linecap:butt;stroke-linejoin:round"
           x="0"
           y="0"
           width="100%"
           height="100%" />
        <use
           xlink:href="#CMMI12-75"
           transform="matrix(0.996264,0,0,0.996264,50.89537,0)"
           id="use233"
           style="stroke-linecap:butt;stroke-linejoin:round"
           x="0"
           y="0"
           width="100%"
           height="100%" />
        <use
           xlink:href="#CMMI12-3d"
           transform="matrix(0.996264,0,0,0.996264,106.4157,0)"
           id="use235"
           style="stroke-linecap:butt;stroke-linejoin:round"
           x="0"
           y="0"
           width="100%"
           height="100%" />
        <use
           xlink:href="#CMR17-64"
           transform="matrix(0.996264,0,0,0.996264,155.19062,0)"
           id="use237"
           style="stroke-linecap:butt;stroke-linejoin:round"
           x="0"
           y="0"
           width="100%"
           height="100%" />
        <use
           xlink:href="#CMMI12-74"
           transform="matrix(0.996264,0,0,0.996264,206.08599,0)"
           id="use239"
           style="stroke-linecap:butt;stroke-linejoin:round"
           x="0"
           y="0"
           width="100%"
           height="100%" />
        <use
           xlink:href="#CMR17-3d"
           transform="matrix(0.996264,0,0,0.996264,268.98633,0)"
           id="use241"
           style="stroke-linecap:butt;stroke-linejoin:round"
           x="0"
           y="0"
           width="100%"
           height="100%" />
        <use
           xlink:href="#CMR17-30"
           transform="matrix(0.996264,0,0,0.996264,368.37512,0)"
           id="use243"
           style="stroke-linecap:butt;stroke-linejoin:round"
           x="0"
           y="0"
           width="100%"
           height="100%" />
      </g>
    </g>
  </g>
  <g
     style="stroke-linecap:butt;stroke-linejoin:round"
     id="line2d_16"
     transform="translate(-4.9999998,0.99999985)">
    <g
       style="stroke-linecap:butt;stroke-linejoin:round"
       id="g251">
      <use
         height="100%"
         width="100%"
         id="use249"
         style="fill:#ff0000;stroke:#ff0000;stroke-linecap:butt;stroke-linejoin:round"
         y="67.557144"
         x="161.38432"
         xlink:href="#maab3761acb" />
    </g>
  </g>
  <use
     height="100%"
     width="100%"
     y="0"
     x="0"
     style="stroke-linecap:butt;stroke-linejoin:round"
     id="use260"
     transform="matrix(0.0996264,0,0,-0.0996264,174.38432,66.057147)"
     xlink:href="#CMR17-69" />
  <use
     height="100%"
     width="100%"
     y="0"
     x="0"
     style="stroke-linecap:butt;stroke-linejoin:round"
     id="use262"
     transform="matrix(0.0996264,0,0,-0.0996264,176.87143,66.057147)"
     xlink:href="#CMR17-6e" />
  <use
     height="100%"
     width="100%"
     y="0"
     x="0"
     style="stroke-linecap:butt;stroke-linejoin:round"
     id="use264"
     transform="matrix(0.0996264,0,0,-0.0996264,181.96096,66.057147)"
     xlink:href="#CMR17-69" />
  <use
     height="100%"
     width="100%"
     y="0"
     x="0"
     style="stroke-linecap:butt;stroke-linejoin:round"
     id="use266"
     transform="matrix(0.0996264,0,0,-0.0996264,184.44807,66.057147)"
     xlink:href="#CMR17-74" />
  <use
     height="100%"
     width="100%"
     y="0"
     x="0"
     style="stroke-linecap:butt;stroke-linejoin:round"
     id="use268"
     transform="matrix(0.0996264,0,0,-0.0996264,187.97614,66.057147)"
     xlink:href="#CMR17-69" />
  <use
     height="100%"
     width="100%"
     y="0"
     x="0"
     style="stroke-linecap:butt;stroke-linejoin:round"
     id="use270"
     transform="matrix(0.0996264,0,0,-0.0996264,190.46325,66.057147)"
     xlink:href="#CMR17-61" />
  <use
     height="100%"
     width="100%"
     y="0"
     x="0"
     style="stroke-linecap:butt;stroke-linejoin:round"
     id="use272"
     transform="matrix(0.0996264,0,0,-0.0996264,195.0323,66.057147)"
     xlink:href="#CMR17-6c" />
  <g
     id="g1551"
     transform="translate(-30.854581,7.4602182)"
     style="stroke-linecap:butt;stroke-linejoin:round">
    <use
       xlink:href="#CMR17-63"
       transform="matrix(0.0996264,0,0,-0.0996264,205.527,71.057147)"
       id="use274"
       style="stroke-linecap:butt;stroke-linejoin:round"
       x="0"
       y="0"
       width="100%"
       height="100%" />
    <use
       xlink:href="#CMR17-6f"
       transform="matrix(0.0996264,0,0,-0.0996264,209.57557,71.057147)"
       id="use276"
       style="stroke-linecap:butt;stroke-linejoin:round"
       x="0"
       y="0"
       width="100%"
       height="100%" />
    <use
       xlink:href="#CMR17-6e"
       transform="matrix(0.0996264,0,0,-0.0996264,214.14462,71.057147)"
       id="use278"
       style="stroke-linecap:butt;stroke-linejoin:round"
       x="0"
       y="0"
       width="100%"
       height="100%" />
    <use
       xlink:href="#CMR17-64"
       transform="matrix(0.0996264,0,0,-0.0996264,219.23415,71.057147)"
       id="use280"
       style="stroke-linecap:butt;stroke-linejoin:round"
       x="0"
       y="0"
       width="100%"
       height="100%" />
    <use
       xlink:href="#CMR17-69"
       transform="matrix(0.0996264,0,0,-0.0996264,224.32369,71.057147)"
       id="use282"
       style="stroke-linecap:butt;stroke-linejoin:round"
       x="0"
       y="0"
       width="100%"
       height="100%" />
    <use
       xlink:href="#CMR17-74"
       transform="matrix(0.0996264,0,0,-0.0996264,226.8108,71.057147)"
       id="use284"
       style="stroke-linecap:butt;stroke-linejoin:round"
       x="0"
       y="0"
       width="100%"
       height="100%" />
    <use
       xlink:href="#CMR17-69"
       transform="matrix(0.0996264,0,0,-0.0996264,230.33887,71.057147)"
       id="use286"
       style="stroke-linecap:butt;stroke-linejoin:round"
       x="0"
       y="0"
       width="100%"
       height="100%" />
    <use
       xlink:href="#CMR17-6f"
       transform="matrix(0.0996264,0,0,-0.0996264,232.82598,71.057147)"
       id="use288"
       style="stroke-linecap:butt;stroke-linejoin:round"
       x="0"
       y="0"
       width="100%"
       height="100%" />
    <use
       xlink:href="#CMR17-6e"
       transform="matrix(0.0996264,0,0,-0.0996264,237.39502,71.057147)"
       id="use290"
       style="stroke-linecap:butt;stroke-linejoin:round"
       x="0"
       y="0"
       width="100%"
       height="100%" />
    <use
       xlink:href="#CMR17-73"
       transform="matrix(0.0996264,0,0,-0.0996264,242.48456,71.057147)"
       id="use292"
       style="stroke-linecap:butt;stroke-linejoin:round"
       x="0"
       y="0"
       width="100%"
       height="100%" />
  </g>
  <defs
     id="defs303">
    <clipPath
       id="p3a665a57f9"
       style="stroke-linecap:butt;stroke-linejoin:round">
      <rect
         x="41.944317"
         y="20.810347"
         width="100.44"
         height="97.848"
         id="rect300"
         style="stroke-linecap:butt;stroke-linejoin:round" />
    </clipPath>
  </defs>
</svg>
