<?xml version="1.0" encoding="utf-8" standalone="no"?>
<!DOCTYPE svg PUBLIC "-//W3C//DTD SVG 1.1//EN"
  "http://www.w3.org/Graphics/SVG/1.1/DTD/svg11.dtd">
<svg xmlns:xlink="http://www.w3.org/1999/xlink" width="276.260199pt" height="123.147937pt" viewBox="0 0 276.260199 123.147937" xmlns="http://www.w3.org/2000/svg" version="1.1">
 <metadata>
  <rdf:RDF xmlns:dc="http://purl.org/dc/elements/1.1/" xmlns:cc="http://creativecommons.org/ns#" xmlns:rdf="http://www.w3.org/1999/02/22-rdf-syntax-ns#">
   <cc:Work>
    <dc:type rdf:resource="http://purl.org/dc/dcmitype/StillImage"/>
    <dc:date>2022-08-03T11:54:34.128968</dc:date>
    <dc:format>image/svg+xml</dc:format>
    <dc:creator>
     <cc:Agent>
      <dc:title>Matplotlib v3.5.1, https://matplotlib.org/</dc:title>
     </cc:Agent>
    </dc:creator>
   </cc:Work>
  </rdf:RDF>
 </metadata>
 <defs>
  <style type="text/css">*{stroke-linejoin: round; stroke-linecap: butt}</style>
 </defs>
 <g id="figure_1">
  <g id="patch_1">
   <path d="M 0 123.147937 
L 276.260199 123.147937 
L 276.260199 0 
L 0 0 
z
" style="fill: #ffffff"/>
  </g>
  <g id="axes_1">
   <g id="patch_2">
    <path d="M 39.860937 86.066688 
L 128.633665 86.066688 
L 128.633665 20.834688 
L 39.860937 20.834688 
z
" style="fill: #ffffff"/>
   </g>
   <g id="matplotlib.axis_1">
    <g id="xtick_1">
     <g id="line2d_1">
      <defs>
       <path id="mac0d2578c2" d="M 0 0 
L 0 3.5 
" style="stroke: #262626; stroke-width: 0.8"/>
      </defs>
      <g>
       <use xlink:href="#mac0d2578c2" x="43.896061" y="86.066688" style="fill: #262626; stroke: #262626; stroke-width: 0.8"/>
      </g>
     </g>
     <g id="text_1">
      <!-- 400 -->
      <g style="fill: #262626" transform="translate(36.396061 100.007312)scale(0.1 -0.1)">
       <defs>
        <path id="CMUSerif-Roman-34" d="M 179 1056 
L 179 1254 
L 2144 4256 
Q 2195 4333 2272 4333 
Q 2342 4333 2358 4304 
Q 2374 4275 2374 4166 
L 2374 1254 
L 3014 1254 
L 3014 1056 
L 2374 1056 
L 2374 499 
Q 2374 314 2451 256 
Q 2528 198 2861 198 
L 2995 198 
L 2995 0 
Q 2733 19 2125 19 
Q 1523 19 1261 0 
L 1261 198 
L 1395 198 
Q 1728 198 1805 256 
Q 1882 314 1882 499 
L 1882 1056 
L 179 1056 
z
M 358 1254 
L 1920 1254 
L 1920 3642 
L 358 1254 
z
" transform="scale(0.015625)"/>
        <path id="CMUSerif-Roman-30" d="M 250 2048 
Q 250 2989 486 3501 
Q 819 4262 1600 4262 
Q 1766 4262 1939 4217 
Q 2112 4173 2333 4000 
Q 2554 3827 2688 3546 
Q 2944 3002 2944 2048 
Q 2944 1114 2707 602 
Q 2362 -141 1594 -141 
Q 1306 -141 1014 6 
Q 723 154 538 506 
Q 250 1037 250 2048 
z
M 781 2125 
Q 781 1158 851 774 
Q 928 358 1142 179 
Q 1357 0 1594 0 
Q 1850 0 2064 192 
Q 2278 384 2342 800 
Q 2413 1210 2413 2125 
Q 2413 3014 2349 3373 
Q 2266 3789 2042 3955 
Q 1818 4122 1594 4122 
Q 1510 4122 1420 4096 
Q 1331 4070 1203 4000 
Q 1075 3930 976 3750 
Q 877 3571 832 3302 
Q 781 2957 781 2125 
z
" transform="scale(0.015625)"/>
       </defs>
       <use xlink:href="#CMUSerif-Roman-34"/>
       <use xlink:href="#CMUSerif-Roman-30" x="49.999985"/>
       <use xlink:href="#CMUSerif-Roman-30" x="99.999969"/>
      </g>
     </g>
    </g>
    <g id="xtick_2">
     <g id="line2d_2">
      <g>
       <use xlink:href="#mac0d2578c2" x="97.697714" y="86.066688" style="fill: #262626; stroke: #262626; stroke-width: 0.8"/>
      </g>
     </g>
     <g id="text_2">
      <!-- 600 -->
      <g style="fill: #262626" transform="translate(90.197714 100.007312)scale(0.1 -0.1)">
       <defs>
        <path id="CMUSerif-Roman-36" d="M 269 2022 
Q 269 3027 781 3644 
Q 1293 4262 1952 4262 
Q 2336 4262 2550 4067 
Q 2765 3872 2765 3571 
Q 2765 3405 2669 3334 
Q 2573 3264 2470 3264 
Q 2355 3264 2265 3341 
Q 2176 3418 2176 3558 
Q 2176 3846 2528 3846 
Q 2362 4102 1965 4102 
Q 1843 4102 1718 4067 
Q 1594 4032 1430 3913 
Q 1267 3795 1142 3606 
Q 1018 3418 931 3066 
Q 845 2714 845 2253 
L 845 2099 
Q 1107 2733 1644 2733 
Q 2182 2733 2553 2323 
Q 2925 1914 2925 1306 
Q 2925 685 2537 272 
Q 2150 -141 1606 -141 
Q 1363 -141 1142 -38 
Q 922 64 717 294 
Q 512 525 390 969 
Q 269 1414 269 2022 
z
M 858 1446 
Q 858 819 973 518 
Q 992 467 1033 400 
Q 1075 333 1148 243 
Q 1222 154 1344 96 
Q 1466 38 1606 38 
Q 2035 38 2240 454 
Q 2349 685 2349 1312 
Q 2349 1952 2234 2189 
Q 2035 2586 1638 2586 
Q 1370 2586 1184 2400 
Q 998 2214 928 1968 
Q 858 1722 858 1446 
z
" transform="scale(0.015625)"/>
       </defs>
       <use xlink:href="#CMUSerif-Roman-36"/>
       <use xlink:href="#CMUSerif-Roman-30" x="49.999985"/>
       <use xlink:href="#CMUSerif-Roman-30" x="99.999969"/>
      </g>
     </g>
    </g>
    <g id="text_3">
     <!-- stimulus [ms] -->
     <g style="fill: #262626" transform="translate(55.301989 113.447937)scale(0.1 -0.1)">
      <defs>
       <path id="CMUSerif-Roman-73" d="M 211 83 
L 211 928 
Q 211 998 214 1024 
Q 218 1050 237 1069 
Q 256 1088 294 1088 
Q 339 1088 355 1069 
Q 371 1050 384 979 
Q 480 538 688 304 
Q 896 70 1274 70 
Q 1632 70 1814 230 
Q 1997 390 1997 653 
Q 1997 1120 1331 1242 
Q 947 1318 787 1369 
Q 627 1421 486 1536 
Q 211 1760 211 2080 
Q 211 2400 454 2633 
Q 698 2867 1235 2867 
Q 1594 2867 1837 2688 
Q 1907 2746 1946 2790 
Q 2029 2867 2074 2867 
Q 2125 2867 2134 2835 
Q 2144 2803 2144 2714 
L 2144 2067 
Q 2144 1997 2141 1971 
Q 2138 1946 2118 1930 
Q 2099 1914 2061 1914 
Q 1990 1914 1984 1971 
Q 1933 2746 1235 2746 
Q 858 2746 688 2602 
Q 518 2458 518 2259 
Q 518 2150 569 2067 
Q 621 1984 688 1936 
Q 755 1888 880 1843 
Q 1005 1798 1081 1782 
Q 1158 1766 1306 1734 
Q 1818 1638 2035 1427 
Q 2304 1158 2304 819 
Q 2304 442 2048 186 
Q 1792 -70 1274 -70 
Q 858 -70 570 205 
Q 531 166 502 134 
Q 474 102 464 89 
Q 454 77 451 70 
Q 448 64 442 58 
Q 314 -70 282 -70 
Q 230 -70 220 -38 
Q 211 -6 211 83 
z
" transform="scale(0.015625)"/>
       <path id="CMUSerif-Roman-74" d="M 122 2560 
L 122 2701 
Q 416 2714 611 2922 
Q 806 3130 873 3386 
Q 941 3642 947 3936 
L 1107 3936 
L 1107 2758 
L 2022 2758 
L 2022 2560 
L 1107 2560 
L 1107 781 
Q 1107 90 1536 90 
Q 1722 90 1843 278 
Q 1965 467 1965 806 
L 1965 1158 
L 2125 1158 
L 2125 794 
Q 2125 448 1965 189 
Q 1805 -70 1491 -70 
Q 1376 -70 1261 -41 
Q 1146 -13 998 64 
Q 851 141 758 329 
Q 666 518 666 794 
L 666 2560 
L 122 2560 
z
" transform="scale(0.015625)"/>
       <path id="CMUSerif-Roman-69" d="M 211 0 
L 211 198 
Q 550 198 630 240 
Q 710 282 710 486 
L 710 2208 
Q 710 2445 630 2502 
Q 550 2560 237 2560 
L 237 2758 
L 1133 2829 
L 1133 480 
Q 1133 288 1200 243 
Q 1267 198 1581 198 
L 1581 0 
Q 928 19 915 19 
Q 826 19 211 0 
z
M 480 3942 
Q 480 4070 579 4176 
Q 678 4282 819 4282 
Q 960 4282 1059 4186 
Q 1158 4090 1158 3942 
Q 1158 3795 1059 3699 
Q 960 3603 819 3603 
Q 672 3603 576 3705 
Q 480 3808 480 3942 
z
" transform="scale(0.015625)"/>
       <path id="CMUSerif-Roman-6d" d="M 205 0 
L 205 198 
Q 544 198 624 240 
Q 704 282 704 486 
L 704 2202 
Q 704 2438 621 2499 
Q 538 2560 205 2560 
L 205 2758 
L 1107 2829 
L 1107 2157 
Q 1408 2829 2054 2829 
Q 2803 2829 2906 2202 
Q 3014 2445 3244 2637 
Q 3475 2829 3834 2829 
Q 4314 2829 4506 2592 
Q 4646 2432 4675 2253 
Q 4704 2074 4704 1613 
L 4704 390 
Q 4710 256 4812 227 
Q 4915 198 5203 198 
L 5203 0 
Q 4550 19 4486 19 
Q 4435 19 3763 0 
L 3763 198 
Q 4102 198 4182 240 
Q 4262 282 4262 486 
L 4262 1978 
Q 4262 2304 4163 2496 
Q 4064 2688 3789 2688 
Q 3456 2688 3190 2409 
Q 2925 2131 2925 1664 
L 2925 486 
Q 2925 282 3005 240 
Q 3085 198 3424 198 
L 3424 0 
Q 2771 19 2707 19 
Q 2656 19 1984 0 
L 1984 198 
Q 2323 198 2403 240 
Q 2483 282 2483 486 
L 2483 1978 
Q 2483 2304 2384 2496 
Q 2285 2688 2010 2688 
Q 1677 2688 1411 2409 
Q 1146 2131 1146 1664 
L 1146 486 
Q 1146 282 1226 240 
Q 1306 198 1645 198 
L 1645 0 
Q 992 19 928 19 
Q 877 19 205 0 
z
" transform="scale(0.015625)"/>
       <path id="CMUSerif-Roman-75" d="M 205 2560 
L 205 2758 
L 1146 2829 
L 1146 704 
Q 1146 550 1158 460 
Q 1171 371 1222 268 
Q 1274 166 1395 118 
Q 1517 70 1709 70 
Q 2054 70 2268 355 
Q 2483 640 2483 1062 
L 2483 2202 
Q 2483 2438 2400 2499 
Q 2317 2560 1984 2560 
L 1984 2758 
L 2925 2829 
L 2925 557 
Q 2925 320 3008 259 
Q 3091 198 3424 198 
L 3424 0 
L 2502 -70 
L 2502 506 
Q 2234 -70 1677 -70 
Q 1395 -70 1203 0 
Q 1011 70 915 160 
Q 819 250 768 422 
Q 717 595 710 700 
Q 704 806 704 1011 
L 704 1971 
Q 704 2406 640 2483 
Q 576 2560 205 2560 
z
" transform="scale(0.015625)"/>
       <path id="CMUSerif-Roman-6c" d="M 211 0 
L 211 198 
Q 550 198 630 240 
Q 710 282 710 486 
L 710 3814 
Q 710 4051 627 4112 
Q 544 4173 211 4173 
L 211 4371 
L 1133 4442 
L 1133 486 
Q 1133 282 1213 240 
Q 1293 198 1632 198 
L 1632 0 
Q 1555 0 1392 6 
Q 1229 13 1110 16 
Q 992 19 922 19 
Q 845 19 211 0 
z
" transform="scale(0.015625)"/>
       <path id="CMUSerif-Roman-20" transform="scale(0.015625)"/>
       <path id="CMUSerif-Roman-5b" d="M 666 -1600 
L 666 4800 
L 1632 4800 
L 1632 4653 
L 1094 4653 
L 1094 -1453 
L 1632 -1453 
L 1632 -1600 
L 666 -1600 
z
" transform="scale(0.015625)"/>
       <path id="CMUSerif-Roman-5d" d="M 134 -1453 
L 672 -1453 
L 672 4653 
L 134 4653 
L 134 4800 
L 1101 4800 
L 1101 -1600 
L 134 -1600 
L 134 -1453 
z
" transform="scale(0.015625)"/>
      </defs>
      <use xlink:href="#CMUSerif-Roman-73"/>
      <use xlink:href="#CMUSerif-Roman-74" x="39.399994"/>
      <use xlink:href="#CMUSerif-Roman-69" x="78.199982"/>
      <use xlink:href="#CMUSerif-Roman-6d" x="105.899979"/>
      <use xlink:href="#CMUSerif-Roman-75" x="189.199966"/>
      <use xlink:href="#CMUSerif-Roman-6c" x="244.699951"/>
      <use xlink:href="#CMUSerif-Roman-75" x="272.399948"/>
      <use xlink:href="#CMUSerif-Roman-73" x="327.899933"/>
      <use xlink:href="#CMUSerif-Roman-20" x="367.299927"/>
      <use xlink:href="#CMUSerif-Roman-5b" x="400.599915"/>
      <use xlink:href="#CMUSerif-Roman-6d" x="428.399902"/>
      <use xlink:href="#CMUSerif-Roman-73" x="511.69989"/>
      <use xlink:href="#CMUSerif-Roman-5d" x="551.099884"/>
     </g>
    </g>
   </g>
   <g id="matplotlib.axis_2">
    <g id="ytick_1">
     <g id="line2d_3">
      <defs>
       <path id="m0235ed6f73" d="M 0 0 
L -3.5 0 
" style="stroke: #262626; stroke-width: 0.8"/>
      </defs>
      <g>
       <use xlink:href="#m0235ed6f73" x="39.860937" y="84.197906" style="fill: #262626; stroke: #262626; stroke-width: 0.8"/>
      </g>
     </g>
     <g id="text_4">
      <!-- 0.0 -->
      <g style="fill: #262626" transform="translate(20.08125 87.668218)scale(0.1 -0.1)">
       <defs>
        <path id="CMUSerif-Roman-2e" d="M 640 102 
Q 544 205 544 339 
Q 544 474 640 573 
Q 736 672 883 672 
Q 1024 672 1120 579 
Q 1216 486 1216 339 
Q 1216 192 1113 96 
Q 1011 0 883 0 
Q 736 0 640 102 
z
" transform="scale(0.015625)"/>
       </defs>
       <use xlink:href="#CMUSerif-Roman-30"/>
       <use xlink:href="#CMUSerif-Roman-2e" x="49.999985"/>
       <use xlink:href="#CMUSerif-Roman-30" x="77.799973"/>
      </g>
     </g>
    </g>
    <g id="ytick_2">
     <g id="line2d_4">
      <g>
       <use xlink:href="#m0235ed6f73" x="39.860937" y="51.767786" style="fill: #262626; stroke: #262626; stroke-width: 0.8"/>
      </g>
     </g>
     <g id="text_5">
      <!-- 0.2 -->
      <g style="fill: #262626" transform="translate(20.08125 55.238099)scale(0.1 -0.1)">
       <defs>
        <path id="CMUSerif-Roman-32" d="M 320 0 
Q 320 115 329 150 
Q 339 186 390 237 
L 1619 1606 
Q 2291 2362 2291 3021 
Q 2291 3450 2067 3757 
Q 1843 4064 1434 4064 
Q 1152 4064 915 3891 
Q 678 3718 570 3411 
Q 589 3418 653 3418 
Q 813 3418 902 3318 
Q 992 3219 992 3085 
Q 992 2912 880 2829 
Q 768 2746 659 2746 
Q 614 2746 556 2755 
Q 499 2765 409 2854 
Q 320 2944 320 3104 
Q 320 3552 659 3907 
Q 998 4262 1517 4262 
Q 2106 4262 2490 3913 
Q 2874 3565 2874 3021 
Q 2874 2829 2816 2656 
Q 2758 2483 2681 2348 
Q 2605 2214 2400 2000 
Q 2195 1786 2028 1632 
Q 1862 1478 1491 1152 
L 813 493 
L 1965 493 
Q 2528 493 2573 544 
Q 2637 634 2714 1114 
L 2874 1114 
L 2694 0 
L 320 0 
z
" transform="scale(0.015625)"/>
       </defs>
       <use xlink:href="#CMUSerif-Roman-30"/>
       <use xlink:href="#CMUSerif-Roman-2e" x="49.999985"/>
       <use xlink:href="#CMUSerif-Roman-32" x="77.799973"/>
      </g>
     </g>
    </g>
    <g id="text_6">
     <!-- CV -->
     <g style="fill: #262626" transform="translate(14.140625 60.810844)rotate(-90)scale(0.1 -0.1)">
      <defs>
       <path id="CMUSerif-Roman-43" d="M 358 2189 
Q 358 3155 1017 3833 
Q 1677 4512 2586 4512 
Q 2867 4512 3116 4409 
Q 3366 4307 3481 4217 
Q 3597 4128 3763 3962 
L 4083 4435 
Q 4134 4512 4185 4512 
Q 4237 4512 4246 4483 
Q 4256 4454 4256 4358 
L 4256 2842 
Q 4256 2739 4243 2713 
Q 4230 2688 4154 2688 
Q 4090 2688 4077 2707 
Q 4064 2726 4051 2797 
Q 3955 3488 3571 3901 
Q 3187 4314 2656 4314 
Q 2502 4314 2332 4278 
Q 2163 4243 1916 4112 
Q 1670 3981 1481 3763 
Q 1293 3546 1155 3136 
Q 1018 2726 1018 2182 
Q 1018 1645 1155 1232 
Q 1293 819 1481 604 
Q 1670 390 1916 259 
Q 2163 128 2336 93 
Q 2509 58 2662 58 
Q 3213 58 3635 448 
Q 4058 838 4096 1498 
Q 4102 1530 4102 1542 
Q 4102 1555 4108 1571 
Q 4115 1587 4131 1593 
Q 4147 1600 4173 1600 
Q 4256 1600 4256 1491 
Q 4256 883 3789 371 
Q 3322 -141 2586 -141 
Q 1677 -141 1017 534 
Q 358 1210 358 2189 
z
" transform="scale(0.015625)"/>
       <path id="CMUSerif-Roman-56" d="M 122 4173 
L 122 4371 
Q 813 4352 934 4352 
Q 1619 4352 1850 4371 
L 1850 4173 
Q 1325 4173 1325 3987 
Q 1325 3962 1363 3872 
L 2586 640 
L 3757 3725 
Q 3789 3821 3789 3853 
Q 3789 3981 3670 4073 
Q 3552 4166 3322 4173 
L 3322 4371 
Q 3821 4352 4051 4352 
Q 4378 4352 4672 4371 
L 4672 4173 
Q 4134 4166 3974 3744 
L 2547 -19 
Q 2522 -96 2496 -118 
Q 2470 -141 2394 -141 
Q 2330 -141 2298 -115 
Q 2266 -90 2234 0 
L 749 3930 
Q 685 4102 573 4137 
Q 461 4173 122 4173 
z
" transform="scale(0.015625)"/>
      </defs>
      <use xlink:href="#CMUSerif-Roman-43"/>
      <use xlink:href="#CMUSerif-Roman-56" x="72.199982"/>
     </g>
    </g>
   </g>
   <g id="line2d_5">
    <path d="M 43.896061 80.924124 
L 57.346475 80.81101 
L 70.796888 79.116265 
L 84.247301 78.83993 
L 97.697714 78.804535 
L 111.148128 78.122788 
L 124.598541 76.084505 
" clip-path="url(#p9ac7ae781e)" style="fill: none; stroke: #c9ddf0; stroke-width: 1.5; stroke-linecap: round"/>
   </g>
   <g id="line2d_6">
    <path d="M 43.896061 74.904116 
L 57.346475 74.461016 
L 70.796888 73.477017 
L 84.247301 73.351211 
L 97.697714 72.613883 
L 111.148128 70.884758 
L 124.598541 68.376439 
" clip-path="url(#p9ac7ae781e)" style="fill: none; stroke: #bad6eb; stroke-width: 1.5; stroke-linecap: round"/>
   </g>
   <g id="line2d_7">
    <path d="M 43.896061 71.385878 
L 57.346475 71.025632 
L 70.796888 68.990868 
L 84.247301 67.703077 
L 97.697714 67.942814 
L 111.148128 65.255407 
L 124.598541 63.00812 
" clip-path="url(#p9ac7ae781e)" style="fill: none; stroke: #abd0e6; stroke-width: 1.5; stroke-linecap: round"/>
   </g>
   <g id="line2d_8">
    <path d="M 43.896061 66.755228 
L 57.346475 65.889086 
L 70.796888 64.855297 
L 84.247301 64.188886 
L 97.697714 62.19105 
L 111.148128 58.810284 
L 124.598541 56.546244 
" clip-path="url(#p9ac7ae781e)" style="fill: none; stroke: #9cc9e1; stroke-width: 1.5; stroke-linecap: round"/>
   </g>
   <g id="line2d_9">
    <path d="M 43.896061 63.545773 
L 57.346475 62.738305 
L 70.796888 60.014266 
L 84.247301 59.634506 
L 97.697714 58.871094 
L 111.148128 56.010085 
L 124.598541 50.798434 
" clip-path="url(#p9ac7ae781e)" style="fill: none; stroke: #89bedc; stroke-width: 1.5; stroke-linecap: round"/>
   </g>
   <g id="line2d_10">
    <path d="M 43.896061 58.57789 
L 57.346475 58.914527 
L 70.796888 56.893799 
L 84.247301 55.9748 
L 97.697714 54.096003 
L 111.148128 50.077453 
L 124.598541 45.718822 
" clip-path="url(#p9ac7ae781e)" style="fill: none; stroke: #75b4d8; stroke-width: 1.5; stroke-linecap: round"/>
   </g>
   <g id="line2d_11">
    <path d="M 43.896061 56.055307 
L 57.346475 54.901378 
L 70.796888 53.595552 
L 84.247301 51.552466 
L 97.697714 49.940272 
L 111.148128 45.746877 
L 124.598541 42.074788 
" clip-path="url(#p9ac7ae781e)" style="fill: none; stroke: #63a8d3; stroke-width: 1.5; stroke-linecap: round"/>
   </g>
   <g id="line2d_12">
    <path d="M 43.896061 52.893902 
L 57.346475 51.060293 
L 70.796888 47.595964 
L 84.247301 48.395325 
L 97.697714 47.233285 
L 111.148128 40.61215 
L 124.598541 40.769698 
" clip-path="url(#p9ac7ae781e)" style="fill: none; stroke: #539ecd; stroke-width: 1.5; stroke-linecap: round"/>
   </g>
   <g id="line2d_13">
    <path d="M 43.896061 46.376361 
L 57.346475 47.655952 
L 70.796888 47.506932 
L 84.247301 41.674883 
L 97.697714 41.793113 
L 111.148128 41.439521 
L 124.598541 38.284765 
" clip-path="url(#p9ac7ae781e)" style="fill: none; stroke: #4493c7; stroke-width: 1.5; stroke-linecap: round"/>
   </g>
   <g id="line2d_14">
    <path d="M 43.896061 39.894107 
L 57.346475 41.480007 
L 70.796888 38.943432 
L 84.247301 38.701902 
L 97.697714 35.916751 
L 111.148128 28.777266 
L 124.598541 32.289708 
" clip-path="url(#p9ac7ae781e)" style="fill: none; stroke: #3787c0; stroke-width: 1.5; stroke-linecap: round"/>
   </g>
   <g id="line2d_15">
    <path d="M 43.896061 37.380651 
L 57.346475 37.197206 
L 70.796888 36.067324 
L 84.247301 34.244829 
L 97.697714 33.115735 
L 111.148128 32.008415 
L 124.598541 28.688333 
" clip-path="url(#p9ac7ae781e)" style="fill: none; stroke: #2b7bba; stroke-width: 1.5; stroke-linecap: round"/>
   </g>
   <g id="line2d_16">
    <path d="M 43.896061 31.070623 
L 57.346475 32.984326 
L 70.796888 34.933734 
L 84.247301 32.104158 
L 97.697714 31.647521 
L 111.148128 33.659647 
L 124.598541 30.258994 
" clip-path="url(#p9ac7ae781e)" style="fill: none; stroke: #1e6db2; stroke-width: 1.5; stroke-linecap: round"/>
   </g>
   <g id="line2d_17">
    <path d="M 43.896061 29.028242 
L 57.346475 32.93586 
L 70.796888 31.442735 
L 84.247301 29.801699 
L 97.697714 31.981947 
L 111.148128 28.356833 
L 124.598541 30.356577 
" clip-path="url(#p9ac7ae781e)" style="fill: none; stroke: #1561a9; stroke-width: 1.5; stroke-linecap: round"/>
   </g>
   <g id="line2d_18">
    <path d="M 43.896061 23.799778 
L 57.346475 29.327915 
L 70.796888 33.082116 
L 84.247301 32.526202 
L 97.697714 27.615343 
L 111.148128 28.311767 
L 124.598541 29.822381 
" clip-path="url(#p9ac7ae781e)" style="fill: none; stroke: #0b559f; stroke-width: 1.5; stroke-linecap: round"/>
   </g>
   <g id="line2d_19">
    <path d="M 43.896061 32.912705 
L 57.346475 30.979839 
L 70.796888 29.451596 
L 84.247301 37.588121 
L 97.697714 34.246543 
L 111.148128 38.354155 
L 124.598541 38.824786 
" clip-path="url(#p9ac7ae781e)" style="fill: none; stroke: #084990; stroke-width: 1.5; stroke-linecap: round"/>
   </g>
   <g id="line2d_20">
    <path d="M 43.896061 26.938791 
L 57.346475 34.965975 
L 70.796888 36.481536 
L 84.247301 39.552591 
L 97.697714 40.266409 
L 111.148128 39.941236 
L 124.598541 37.103982 
" clip-path="url(#p9ac7ae781e)" style="fill: none; stroke: #083c7d; stroke-width: 1.5; stroke-linecap: round"/>
   </g>
   <g id="line2d_21">
    <path d="M 43.896061 29.915666 
L 57.346475 34.547801 
L 70.796888 37.747758 
L 84.247301 38.236183 
L 97.697714 39.918164 
L 111.148128 41.719043 
L 124.598541 44.120727 
" clip-path="url(#p9ac7ae781e)" style="fill: none; stroke: #08306b; stroke-width: 1.5; stroke-linecap: round"/>
   </g>
   <g id="patch_3">
    <path d="M 39.860937 86.066687 
L 39.860937 20.834687 
" style="fill: none; stroke: #262626; stroke-width: 0.8; stroke-linejoin: miter; stroke-linecap: square"/>
   </g>
   <g id="patch_4">
    <path d="M 39.860937 86.066688 
L 128.633665 86.066688 
" style="fill: none; stroke: #262626; stroke-width: 0.8; stroke-linejoin: miter; stroke-linecap: square"/>
   </g>
   <g id="text_7">
    <!-- short range -->
    <g style="fill: #262626" transform="translate(57.017145 14.834687)scale(0.11 -0.11)">
     <defs>
      <path id="CMUSerif-Roman-68" d="M 205 0 
L 205 198 
Q 544 198 624 240 
Q 704 282 704 486 
L 704 3814 
Q 704 4051 621 4112 
Q 538 4173 205 4173 
L 205 4371 
L 1126 4442 
L 1126 2214 
L 1133 2214 
Q 1235 2445 1465 2637 
Q 1696 2829 2054 2829 
Q 2534 2829 2726 2592 
Q 2867 2432 2896 2253 
Q 2925 2074 2925 1613 
L 2925 390 
Q 2931 256 3033 227 
Q 3136 198 3424 198 
L 3424 0 
Q 2771 19 2707 19 
Q 2656 19 1984 0 
L 1984 198 
Q 2323 198 2403 240 
Q 2483 282 2483 486 
L 2483 1978 
Q 2483 2304 2384 2496 
Q 2285 2688 2010 2688 
Q 1677 2688 1411 2409 
Q 1146 2131 1146 1664 
L 1146 486 
Q 1146 282 1226 240 
Q 1306 198 1645 198 
L 1645 0 
Q 992 19 928 19 
Q 877 19 205 0 
z
" transform="scale(0.015625)"/>
      <path id="CMUSerif-Roman-6f" d="M 601 346 
Q 179 762 179 1370 
Q 179 1978 592 2422 
Q 1005 2867 1600 2867 
Q 2182 2867 2598 2425 
Q 3014 1984 3014 1370 
Q 3014 768 2595 349 
Q 2176 -70 1594 -70 
Q 1024 -70 601 346 
z
M 710 1421 
Q 710 800 870 518 
Q 1120 90 1600 90 
Q 1837 90 2035 218 
Q 2234 346 2342 563 
Q 2483 845 2483 1421 
Q 2483 2035 2317 2310 
Q 2067 2726 1594 2726 
Q 1389 2726 1187 2617 
Q 986 2509 864 2298 
Q 710 2016 710 1421 
z
" transform="scale(0.015625)"/>
      <path id="CMUSerif-Roman-72" d="M 179 0 
L 179 198 
Q 518 198 598 240 
Q 678 282 678 486 
L 678 2202 
Q 678 2438 595 2499 
Q 512 2560 179 2560 
L 179 2758 
L 1069 2829 
L 1069 2125 
Q 1158 2400 1350 2614 
Q 1542 2829 1856 2829 
Q 2061 2829 2195 2713 
Q 2330 2598 2330 2438 
Q 2330 2298 2243 2227 
Q 2157 2157 2054 2157 
Q 1939 2157 1859 2230 
Q 1779 2304 1779 2432 
Q 1779 2509 1814 2569 
Q 1850 2630 1878 2652 
Q 1907 2675 1926 2682 
Q 1914 2688 1856 2688 
Q 1504 2688 1302 2336 
Q 1101 1984 1101 1485 
L 1101 499 
Q 1101 314 1177 256 
Q 1254 198 1587 198 
L 1722 198 
L 1722 0 
Q 1466 19 909 19 
Q 832 19 710 16 
Q 589 13 429 6 
Q 269 0 179 0 
z
" transform="scale(0.015625)"/>
      <path id="CMUSerif-Roman-61" d="M 269 608 
Q 269 1152 909 1440 
Q 1293 1626 2086 1670 
L 2086 1907 
Q 2086 2304 1878 2515 
Q 1670 2726 1408 2726 
Q 941 2726 717 2432 
Q 909 2426 976 2330 
Q 1043 2234 1043 2138 
Q 1043 2010 963 1926 
Q 883 1843 749 1843 
Q 621 1843 537 1923 
Q 454 2003 454 2144 
Q 454 2458 736 2662 
Q 1018 2867 1421 2867 
Q 1946 2867 2298 2515 
Q 2406 2406 2460 2265 
Q 2515 2125 2521 2032 
Q 2528 1939 2528 1760 
L 2528 480 
Q 2528 442 2541 381 
Q 2554 320 2611 240 
Q 2669 160 2765 160 
Q 2995 160 2995 570 
L 2995 928 
L 3155 928 
L 3155 570 
Q 3155 230 2976 96 
Q 2797 -38 2630 -38 
Q 2419 -38 2284 118 
Q 2150 275 2131 486 
Q 2035 243 1814 86 
Q 1594 -70 1293 -70 
Q 1062 -70 844 -12 
Q 627 45 448 205 
Q 269 365 269 608 
z
M 762 614 
Q 762 378 931 224 
Q 1101 70 1338 70 
Q 1606 70 1846 278 
Q 2086 486 2086 896 
L 2086 1536 
Q 1376 1510 1069 1228 
Q 762 947 762 614 
z
" transform="scale(0.015625)"/>
      <path id="CMUSerif-Roman-6e" d="M 205 0 
L 205 198 
Q 544 198 624 240 
Q 704 282 704 486 
L 704 2202 
Q 704 2438 621 2499 
Q 538 2560 205 2560 
L 205 2758 
L 1107 2829 
L 1107 2157 
Q 1408 2829 2054 2829 
Q 2534 2829 2726 2592 
Q 2867 2432 2896 2253 
Q 2925 2074 2925 1613 
L 2925 390 
Q 2931 256 3033 227 
Q 3136 198 3424 198 
L 3424 0 
Q 2771 19 2707 19 
Q 2656 19 1984 0 
L 1984 198 
Q 2323 198 2403 240 
Q 2483 282 2483 486 
L 2483 1978 
Q 2483 2304 2384 2496 
Q 2285 2688 2010 2688 
Q 1677 2688 1411 2409 
Q 1146 2131 1146 1664 
L 1146 486 
Q 1146 282 1226 240 
Q 1306 198 1645 198 
L 1645 0 
Q 992 19 928 19 
Q 877 19 205 0 
z
" transform="scale(0.015625)"/>
      <path id="CMUSerif-Roman-67" d="M 179 -506 
Q 179 -301 336 -121 
Q 493 58 768 134 
Q 486 314 486 704 
Q 486 1005 685 1235 
Q 384 1485 384 1894 
Q 384 2272 685 2550 
Q 986 2829 1421 2829 
Q 1805 2829 2099 2598 
Q 2406 2899 2778 2899 
Q 2944 2899 3024 2796 
Q 3104 2694 3104 2586 
Q 3104 2490 3043 2442 
Q 2982 2394 2918 2394 
Q 2842 2394 2787 2445 
Q 2733 2496 2733 2579 
Q 2733 2714 2835 2752 
Q 2816 2758 2771 2758 
Q 2458 2758 2195 2509 
Q 2458 2266 2458 1888 
Q 2458 1510 2157 1232 
Q 1856 954 1421 954 
Q 1062 954 787 1152 
Q 678 1024 678 851 
Q 678 691 774 566 
Q 870 442 1018 422 
Q 1062 416 1498 416 
Q 1754 416 1894 409 
Q 2035 403 2236 361 
Q 2438 320 2598 237 
Q 3014 6 3014 -493 
Q 3014 -858 2595 -1088 
Q 2176 -1318 1594 -1318 
Q 1005 -1318 592 -1084 
Q 179 -851 179 -506 
z
M 512 -506 
Q 512 -768 822 -969 
Q 1133 -1171 1600 -1171 
Q 2061 -1171 2371 -972 
Q 2682 -774 2682 -506 
Q 2682 -314 2573 -192 
Q 2464 -70 2240 -22 
Q 2016 26 1859 35 
Q 1702 45 1414 45 
L 1037 45 
Q 819 32 665 -128 
Q 512 -288 512 -506 
z
M 864 1888 
Q 864 1101 1421 1101 
Q 1702 1101 1875 1357 
Q 1978 1530 1978 1894 
Q 1978 2682 1421 2682 
Q 1139 2682 966 2426 
Q 864 2253 864 1888 
z
" transform="scale(0.015625)"/>
      <path id="CMUSerif-Roman-65" d="M 179 1408 
Q 179 2010 566 2438 
Q 954 2867 1510 2867 
Q 2074 2867 2365 2502 
Q 2656 2138 2656 1613 
Q 2656 1517 2630 1497 
Q 2605 1478 2496 1478 
L 710 1478 
Q 710 826 902 518 
Q 1171 90 1626 90 
Q 1690 90 1763 102 
Q 1837 115 1990 169 
Q 2144 224 2278 371 
Q 2413 518 2490 749 
Q 2509 838 2573 838 
Q 2656 838 2656 762 
Q 2656 704 2595 579 
Q 2534 454 2419 304 
Q 2304 154 2080 42 
Q 1856 -70 1587 -70 
Q 1024 -70 601 355 
Q 179 781 179 1408 
z
M 717 1613 
L 2234 1613 
Q 2234 1747 2211 1897 
Q 2189 2048 2121 2256 
Q 2054 2464 1897 2595 
Q 1741 2726 1510 2726 
Q 1408 2726 1296 2681 
Q 1184 2637 1049 2531 
Q 915 2426 822 2186 
Q 730 1946 717 1613 
z
" transform="scale(0.015625)"/>
     </defs>
     <use xlink:href="#CMUSerif-Roman-73"/>
     <use xlink:href="#CMUSerif-Roman-68" x="39.399994"/>
     <use xlink:href="#CMUSerif-Roman-6f" x="94.899979"/>
     <use xlink:href="#CMUSerif-Roman-72" x="144.899963"/>
     <use xlink:href="#CMUSerif-Roman-74" x="183.999954"/>
     <use xlink:href="#CMUSerif-Roman-20" x="222.799942"/>
     <use xlink:href="#CMUSerif-Roman-72" x="256.09993"/>
     <use xlink:href="#CMUSerif-Roman-61" x="295.199921"/>
     <use xlink:href="#CMUSerif-Roman-6e" x="345.199905"/>
     <use xlink:href="#CMUSerif-Roman-67" x="400.69989"/>
     <use xlink:href="#CMUSerif-Roman-65" x="450.699875"/>
    </g>
   </g>
  </g>
  <g id="axes_2">
   <g id="patch_5">
    <path d="M 146.38821 86.066688 
L 235.160937 86.066688 
L 235.160937 20.834688 
L 146.38821 20.834688 
z
" style="fill: #ffffff"/>
   </g>
   <g id="matplotlib.axis_3">
    <g id="xtick_3">
     <g id="line2d_22">
      <g>
       <use xlink:href="#mac0d2578c2" x="177.324161" y="86.066688" style="fill: #262626; stroke: #262626; stroke-width: 0.8"/>
      </g>
     </g>
     <g id="text_8">
      <!-- 800 -->
      <g style="fill: #262626" transform="translate(169.824161 100.007312)scale(0.1 -0.1)">
       <defs>
        <path id="CMUSerif-Roman-38" d="M 269 966 
Q 269 1683 1190 2144 
Q 794 2413 723 2490 
Q 442 2803 442 3194 
Q 442 3642 781 3952 
Q 1120 4262 1600 4262 
Q 2061 4262 2406 3996 
Q 2752 3731 2752 3309 
Q 2752 2714 1978 2317 
Q 2490 1997 2611 1862 
Q 2925 1517 2925 1075 
Q 2925 563 2531 211 
Q 2138 -141 1594 -141 
Q 1062 -141 665 169 
Q 269 480 269 966 
z
M 589 966 
Q 589 570 886 304 
Q 1184 38 1600 38 
Q 2003 38 2304 268 
Q 2605 499 2605 845 
Q 2605 979 2560 1094 
Q 2515 1210 2425 1302 
Q 2336 1395 2281 1436 
Q 2227 1478 2125 1549 
L 1338 2048 
Q 589 1632 589 966 
z
M 723 3443 
Q 723 3136 1043 2925 
L 1837 2413 
Q 2470 2784 2470 3309 
Q 2470 3648 2211 3875 
Q 1952 4102 1594 4102 
Q 1242 4102 982 3916 
Q 723 3731 723 3443 
z
" transform="scale(0.015625)"/>
       </defs>
       <use xlink:href="#CMUSerif-Roman-38"/>
       <use xlink:href="#CMUSerif-Roman-30" x="49.999985"/>
       <use xlink:href="#CMUSerif-Roman-30" x="99.999969"/>
      </g>
     </g>
    </g>
    <g id="xtick_4">
     <g id="line2d_23">
      <g>
       <use xlink:href="#mac0d2578c2" x="231.125814" y="86.066688" style="fill: #262626; stroke: #262626; stroke-width: 0.8"/>
      </g>
     </g>
     <g id="text_9">
      <!-- 1000 -->
      <g style="fill: #262626" transform="translate(221.125814 100.007312)scale(0.1 -0.1)">
       <defs>
        <path id="CMUSerif-Roman-31" d="M 570 3654 
L 570 3853 
Q 1338 3853 1734 4262 
Q 1843 4262 1862 4236 
Q 1882 4211 1882 4096 
L 1882 506 
Q 1882 314 1974 256 
Q 2067 198 2477 198 
L 2682 198 
L 2682 0 
Q 2458 19 1645 19 
Q 832 19 608 0 
L 608 198 
L 813 198 
Q 1216 198 1312 256 
Q 1408 314 1408 506 
L 1408 3821 
Q 1075 3654 570 3654 
z
" transform="scale(0.015625)"/>
       </defs>
       <use xlink:href="#CMUSerif-Roman-31"/>
       <use xlink:href="#CMUSerif-Roman-30" x="49.999985"/>
       <use xlink:href="#CMUSerif-Roman-30" x="99.999969"/>
       <use xlink:href="#CMUSerif-Roman-30" x="149.999954"/>
      </g>
     </g>
    </g>
    <g id="text_10">
     <!-- stimulus [ms] -->
     <g style="fill: #262626" transform="translate(161.829261 113.447937)scale(0.1 -0.1)">
      <use xlink:href="#CMUSerif-Roman-73"/>
      <use xlink:href="#CMUSerif-Roman-74" x="39.399994"/>
      <use xlink:href="#CMUSerif-Roman-69" x="78.199982"/>
      <use xlink:href="#CMUSerif-Roman-6d" x="105.899979"/>
      <use xlink:href="#CMUSerif-Roman-75" x="189.199966"/>
      <use xlink:href="#CMUSerif-Roman-6c" x="244.699951"/>
      <use xlink:href="#CMUSerif-Roman-75" x="272.399948"/>
      <use xlink:href="#CMUSerif-Roman-73" x="327.899933"/>
      <use xlink:href="#CMUSerif-Roman-20" x="367.299927"/>
      <use xlink:href="#CMUSerif-Roman-5b" x="400.599915"/>
      <use xlink:href="#CMUSerif-Roman-6d" x="428.399902"/>
      <use xlink:href="#CMUSerif-Roman-73" x="511.69989"/>
      <use xlink:href="#CMUSerif-Roman-5d" x="551.099884"/>
     </g>
    </g>
   </g>
   <g id="matplotlib.axis_4">
    <g id="ytick_3">
     <g id="line2d_24">
      <g>
       <use xlink:href="#m0235ed6f73" x="146.38821" y="84.197906" style="fill: #262626; stroke: #262626; stroke-width: 0.8"/>
      </g>
     </g>
    </g>
    <g id="ytick_4">
     <g id="line2d_25">
      <g>
       <use xlink:href="#m0235ed6f73" x="146.38821" y="51.767786" style="fill: #262626; stroke: #262626; stroke-width: 0.8"/>
      </g>
     </g>
    </g>
   </g>
   <g id="line2d_26">
    <path d="M 150.423334 82.118421 
L 163.873747 82.710247 
L 177.324161 82.959265 
L 190.774574 83.101597 
L 204.224987 82.012695 
L 217.6754 83.01311 
L 231.125814 82.554579 
" clip-path="url(#p9040188734)" style="fill: none; stroke: #c9ddf0; stroke-width: 1.5; stroke-linecap: round"/>
   </g>
   <g id="line2d_27">
    <path d="M 150.423334 75.416701 
L 163.873747 75.369805 
L 177.324161 74.030435 
L 190.774574 73.928696 
L 204.224987 73.41548 
L 217.6754 73.239331 
L 231.125814 72.160978 
" clip-path="url(#p9040188734)" style="fill: none; stroke: #bad6eb; stroke-width: 1.5; stroke-linecap: round"/>
   </g>
   <g id="line2d_28">
    <path d="M 150.423334 71.46672 
L 163.873747 70.684711 
L 177.324161 70.344413 
L 190.774574 69.519068 
L 204.224987 69.401322 
L 217.6754 68.01625 
L 231.125814 66.971188 
" clip-path="url(#p9040188734)" style="fill: none; stroke: #abd0e6; stroke-width: 1.5; stroke-linecap: round"/>
   </g>
   <g id="line2d_29">
    <path d="M 150.423334 67.24238 
L 163.873747 66.765308 
L 177.324161 65.870191 
L 190.774574 65.887042 
L 204.224987 64.294124 
L 217.6754 61.693522 
L 231.125814 61.68456 
" clip-path="url(#p9040188734)" style="fill: none; stroke: #9cc9e1; stroke-width: 1.5; stroke-linecap: round"/>
   </g>
   <g id="line2d_30">
    <path d="M 150.423334 62.68984 
L 163.873747 63.23459 
L 177.324161 62.836299 
L 190.774574 62.061395 
L 204.224987 60.265445 
L 217.6754 58.874479 
L 231.125814 56.360394 
" clip-path="url(#p9040188734)" style="fill: none; stroke: #89bedc; stroke-width: 1.5; stroke-linecap: round"/>
   </g>
   <g id="line2d_31">
    <path d="M 150.423334 60.557421 
L 163.873747 60.251196 
L 177.324161 59.481892 
L 190.774574 56.808576 
L 204.224987 57.498814 
L 217.6754 55.816614 
L 231.125814 50.699303 
" clip-path="url(#p9040188734)" style="fill: none; stroke: #75b4d8; stroke-width: 1.5; stroke-linecap: round"/>
   </g>
   <g id="line2d_32">
    <path d="M 150.423334 57.312973 
L 163.873747 54.850711 
L 177.324161 55.855015 
L 190.774574 52.710847 
L 204.224987 53.233206 
L 217.6754 49.91143 
L 231.125814 46.431963 
" clip-path="url(#p9040188734)" style="fill: none; stroke: #63a8d3; stroke-width: 1.5; stroke-linecap: round"/>
   </g>
   <g id="line2d_33">
    <path d="M 150.423334 54.265178 
L 163.873747 52.556533 
L 177.324161 53.949421 
L 190.774574 50.990829 
L 204.224987 49.054799 
L 217.6754 47.303822 
L 231.125814 44.729949 
" clip-path="url(#p9040188734)" style="fill: none; stroke: #539ecd; stroke-width: 1.5; stroke-linecap: round"/>
   </g>
   <g id="line2d_34">
    <path d="M 150.423334 49.343725 
L 163.873747 49.453313 
L 177.324161 48.026924 
L 190.774574 44.938995 
L 204.224987 47.514269 
L 217.6754 40.934133 
L 231.125814 39.352713 
" clip-path="url(#p9040188734)" style="fill: none; stroke: #4493c7; stroke-width: 1.5; stroke-linecap: round"/>
   </g>
   <g id="line2d_35">
    <path d="M 150.423334 44.047052 
L 163.873747 43.997779 
L 177.324161 43.903147 
L 190.774574 41.421264 
L 204.224987 40.733007 
L 217.6754 40.894434 
L 231.125814 38.765458 
" clip-path="url(#p9040188734)" style="fill: none; stroke: #3787c0; stroke-width: 1.5; stroke-linecap: round"/>
   </g>
   <g id="line2d_36">
    <path d="M 150.423334 42.201216 
L 163.873747 40.555745 
L 177.324161 41.051281 
L 190.774574 36.934314 
L 204.224987 37.575615 
L 217.6754 35.518596 
L 231.125814 30.492762 
" clip-path="url(#p9040188734)" style="fill: none; stroke: #2b7bba; stroke-width: 1.5; stroke-linecap: round"/>
   </g>
   <g id="line2d_37">
    <path d="M 150.423334 37.901826 
L 163.873747 40.404705 
L 177.324161 35.626207 
L 190.774574 33.317414 
L 204.224987 36.646887 
L 217.6754 34.24971 
L 231.125814 36.404034 
" clip-path="url(#p9040188734)" style="fill: none; stroke: #1e6db2; stroke-width: 1.5; stroke-linecap: round"/>
   </g>
   <g id="line2d_38">
    <path d="M 150.423334 36.98626 
L 163.873747 36.235448 
L 177.324161 33.746597 
L 190.774574 34.979879 
L 204.224987 32.520011 
L 217.6754 34.6263 
L 231.125814 34.348773 
" clip-path="url(#p9040188734)" style="fill: none; stroke: #1561a9; stroke-width: 1.5; stroke-linecap: round"/>
   </g>
   <g id="line2d_39">
    <path d="M 150.423334 32.618931 
L 163.873747 35.255308 
L 177.324161 36.282949 
L 190.774574 34.710168 
L 204.224987 30.448562 
L 217.6754 34.556004 
L 231.125814 34.684473 
" clip-path="url(#p9040188734)" style="fill: none; stroke: #0b559f; stroke-width: 1.5; stroke-linecap: round"/>
   </g>
   <g id="line2d_40">
    <path d="M 150.423334 31.417467 
L 163.873747 31.234162 
L 177.324161 36.981241 
L 190.774574 35.902121 
L 204.224987 38.066201 
L 217.6754 41.268044 
L 231.125814 41.592539 
" clip-path="url(#p9040188734)" style="fill: none; stroke: #084990; stroke-width: 1.5; stroke-linecap: round"/>
   </g>
   <g id="line2d_41">
    <path d="M 150.423334 34.62886 
L 163.873747 41.038232 
L 177.324161 35.826773 
L 190.774574 43.008996 
L 204.224987 43.34656 
L 217.6754 44.538781 
L 231.125814 47.392269 
" clip-path="url(#p9040188734)" style="fill: none; stroke: #083c7d; stroke-width: 1.5; stroke-linecap: round"/>
   </g>
   <g id="line2d_42">
    <path d="M 150.423334 38.118687 
L 163.873747 42.096158 
L 177.324161 39.367402 
L 190.774574 46.467058 
L 204.224987 47.921063 
L 217.6754 48.586573 
L 231.125814 43.216404 
" clip-path="url(#p9040188734)" style="fill: none; stroke: #08306b; stroke-width: 1.5; stroke-linecap: round"/>
   </g>
   <g id="patch_6">
    <path d="M 146.38821 86.066687 
L 146.38821 20.834687 
" style="fill: none; stroke: #262626; stroke-width: 0.8; stroke-linejoin: miter; stroke-linecap: square"/>
   </g>
   <g id="patch_7">
    <path d="M 146.38821 86.066688 
L 235.160937 86.066688 
" style="fill: none; stroke: #262626; stroke-width: 0.8; stroke-linejoin: miter; stroke-linecap: square"/>
   </g>
   <g id="text_11">
    <!-- long range -->
    <g style="fill: #262626" transform="translate(165.722074 14.834687)scale(0.11 -0.11)">
     <use xlink:href="#CMUSerif-Roman-6c"/>
     <use xlink:href="#CMUSerif-Roman-6f" x="27.699997"/>
     <use xlink:href="#CMUSerif-Roman-6e" x="77.699982"/>
     <use xlink:href="#CMUSerif-Roman-67" x="133.199966"/>
     <use xlink:href="#CMUSerif-Roman-20" x="183.199951"/>
     <use xlink:href="#CMUSerif-Roman-72" x="216.499939"/>
     <use xlink:href="#CMUSerif-Roman-61" x="255.59993"/>
     <use xlink:href="#CMUSerif-Roman-6e" x="305.599915"/>
     <use xlink:href="#CMUSerif-Roman-67" x="361.099899"/>
     <use xlink:href="#CMUSerif-Roman-65" x="411.099884"/>
    </g>
   </g>
   <g id="legend_1">
    <g id="text_12">
     <!-- sigma -->
     <g style="fill: #262626" transform="translate(242.659574 17.788913)scale(0.1 -0.1)">
      <use xlink:href="#CMUSerif-Roman-73"/>
      <use xlink:href="#CMUSerif-Roman-69" x="39.399994"/>
      <use xlink:href="#CMUSerif-Roman-67" x="67.099991"/>
      <use xlink:href="#CMUSerif-Roman-6d" x="117.099976"/>
      <use xlink:href="#CMUSerif-Roman-61" x="200.399963"/>
     </g>
    </g>
    <g id="line2d_43">
     <path d="M 246.547339 22.738288 
L 249.947339 22.738288 
L 253.347339 22.738288 
" style="fill: none; stroke: #c9ddf0; stroke-width: 1.5; stroke-linecap: round"/>
    </g>
    <g id="text_13">
     <!-- 0 -->
     <g style="fill: #262626" transform="translate(256.067339 23.928288)scale(0.034 -0.034)">
      <use xlink:href="#CMUSerif-Roman-30"/>
     </g>
    </g>
    <g id="line2d_44">
     <path d="M 246.547339 27.4781 
L 249.947339 27.4781 
L 253.347339 27.4781 
" style="fill: none; stroke: #bad6eb; stroke-width: 1.5; stroke-linecap: round"/>
    </g>
    <g id="text_14">
     <!-- 0.01 -->
     <g style="fill: #262626" transform="translate(256.067339 28.6681)scale(0.034 -0.034)">
      <use xlink:href="#CMUSerif-Roman-30"/>
      <use xlink:href="#CMUSerif-Roman-2e" x="49.999985"/>
      <use xlink:href="#CMUSerif-Roman-30" x="77.799973"/>
      <use xlink:href="#CMUSerif-Roman-31" x="127.799957"/>
     </g>
    </g>
    <g id="line2d_45">
     <path d="M 246.547339 32.217913 
L 249.947339 32.217913 
L 253.347339 32.217913 
" style="fill: none; stroke: #abd0e6; stroke-width: 1.5; stroke-linecap: round"/>
    </g>
    <g id="text_15">
     <!-- 0.015 -->
     <g style="fill: #262626" transform="translate(256.067339 33.407913)scale(0.034 -0.034)">
      <defs>
       <path id="CMUSerif-Roman-35" d="M 320 1030 
Q 320 1222 422 1296 
Q 525 1370 634 1370 
Q 781 1370 867 1277 
Q 954 1184 954 1056 
Q 954 928 867 835 
Q 781 742 634 742 
Q 563 742 525 755 
Q 608 461 867 249 
Q 1126 38 1466 38 
Q 1894 38 2150 454 
Q 2304 723 2304 1331 
Q 2304 1869 2189 2138 
Q 2010 2547 1645 2547 
Q 1126 2547 819 2099 
Q 781 2042 736 2042 
Q 672 2042 659 2077 
Q 646 2112 646 2208 
L 646 4102 
Q 646 4256 710 4256 
Q 736 4256 787 4237 
Q 1190 4058 1638 4058 
Q 2099 4058 2509 4243 
Q 2541 4262 2560 4262 
Q 2624 4262 2624 4192 
Q 2624 4166 2573 4092 
Q 2522 4019 2413 3923 
Q 2304 3827 2163 3737 
Q 2022 3648 1817 3587 
Q 1613 3526 1389 3526 
Q 1120 3526 845 3610 
L 845 2362 
Q 1178 2688 1658 2688 
Q 2170 2688 2522 2275 
Q 2874 1862 2874 1286 
Q 2874 685 2458 272 
Q 2042 -141 1478 -141 
Q 966 -141 643 224 
Q 320 589 320 1030 
z
" transform="scale(0.015625)"/>
      </defs>
      <use xlink:href="#CMUSerif-Roman-30"/>
      <use xlink:href="#CMUSerif-Roman-2e" x="49.999985"/>
      <use xlink:href="#CMUSerif-Roman-30" x="77.799973"/>
      <use xlink:href="#CMUSerif-Roman-31" x="127.799957"/>
      <use xlink:href="#CMUSerif-Roman-35" x="177.799942"/>
     </g>
    </g>
    <g id="line2d_46">
     <path d="M 246.547339 36.957725 
L 249.947339 36.957725 
L 253.347339 36.957725 
" style="fill: none; stroke: #9cc9e1; stroke-width: 1.5; stroke-linecap: round"/>
    </g>
    <g id="text_16">
     <!-- 0.02 -->
     <g style="fill: #262626" transform="translate(256.067339 38.147725)scale(0.034 -0.034)">
      <use xlink:href="#CMUSerif-Roman-30"/>
      <use xlink:href="#CMUSerif-Roman-2e" x="49.999985"/>
      <use xlink:href="#CMUSerif-Roman-30" x="77.799973"/>
      <use xlink:href="#CMUSerif-Roman-32" x="127.799957"/>
     </g>
    </g>
    <g id="line2d_47">
     <path d="M 246.547339 41.697538 
L 249.947339 41.697538 
L 253.347339 41.697538 
" style="fill: none; stroke: #89bedc; stroke-width: 1.5; stroke-linecap: round"/>
    </g>
    <g id="text_17">
     <!-- 0.025 -->
     <g style="fill: #262626" transform="translate(256.067339 42.887538)scale(0.034 -0.034)">
      <use xlink:href="#CMUSerif-Roman-30"/>
      <use xlink:href="#CMUSerif-Roman-2e" x="49.999985"/>
      <use xlink:href="#CMUSerif-Roman-30" x="77.799973"/>
      <use xlink:href="#CMUSerif-Roman-32" x="127.799957"/>
      <use xlink:href="#CMUSerif-Roman-35" x="177.799942"/>
     </g>
    </g>
    <g id="line2d_48">
     <path d="M 246.547339 46.43735 
L 249.947339 46.43735 
L 253.347339 46.43735 
" style="fill: none; stroke: #75b4d8; stroke-width: 1.5; stroke-linecap: round"/>
    </g>
    <g id="text_18">
     <!-- 0.03 -->
     <g style="fill: #262626" transform="translate(256.067339 47.62735)scale(0.034 -0.034)">
      <defs>
       <path id="CMUSerif-Roman-33" d="M 269 864 
Q 269 1056 377 1145 
Q 486 1235 627 1235 
Q 774 1235 880 1139 
Q 986 1043 986 877 
Q 986 698 861 598 
Q 736 499 563 525 
Q 717 269 998 153 
Q 1280 38 1542 38 
Q 1818 38 2042 275 
Q 2266 512 2266 1094 
Q 2266 1587 2074 1872 
Q 1882 2157 1504 2157 
L 1222 2157 
Q 1126 2157 1097 2166 
Q 1069 2176 1069 2227 
Q 1069 2291 1165 2304 
Q 1261 2304 1414 2323 
Q 1786 2336 1984 2656 
Q 2163 2957 2163 3386 
Q 2163 3776 1977 3939 
Q 1792 4102 1549 4102 
Q 1325 4102 1078 4009 
Q 832 3917 698 3706 
Q 1094 3706 1094 3386 
Q 1094 3245 1004 3152 
Q 915 3059 768 3059 
Q 627 3059 534 3148 
Q 442 3238 442 3392 
Q 442 3757 768 4009 
Q 1094 4262 1574 4262 
Q 2048 4262 2400 4012 
Q 2752 3763 2752 3379 
Q 2752 3002 2502 2691 
Q 2253 2381 1856 2253 
Q 2342 2157 2633 1827 
Q 2925 1498 2925 1094 
Q 2925 595 2531 227 
Q 2138 -141 1562 -141 
Q 1030 -141 649 147 
Q 269 435 269 864 
z
" transform="scale(0.015625)"/>
      </defs>
      <use xlink:href="#CMUSerif-Roman-30"/>
      <use xlink:href="#CMUSerif-Roman-2e" x="49.999985"/>
      <use xlink:href="#CMUSerif-Roman-30" x="77.799973"/>
      <use xlink:href="#CMUSerif-Roman-33" x="127.799957"/>
     </g>
    </g>
    <g id="line2d_49">
     <path d="M 246.547339 51.177163 
L 249.947339 51.177163 
L 253.347339 51.177163 
" style="fill: none; stroke: #63a8d3; stroke-width: 1.5; stroke-linecap: round"/>
    </g>
    <g id="text_19">
     <!-- 0.035 -->
     <g style="fill: #262626" transform="translate(256.067339 52.367163)scale(0.034 -0.034)">
      <use xlink:href="#CMUSerif-Roman-30"/>
      <use xlink:href="#CMUSerif-Roman-2e" x="49.999985"/>
      <use xlink:href="#CMUSerif-Roman-30" x="77.799973"/>
      <use xlink:href="#CMUSerif-Roman-33" x="127.799957"/>
      <use xlink:href="#CMUSerif-Roman-35" x="177.799942"/>
     </g>
    </g>
    <g id="line2d_50">
     <path d="M 246.547339 55.916975 
L 249.947339 55.916975 
L 253.347339 55.916975 
" style="fill: none; stroke: #539ecd; stroke-width: 1.5; stroke-linecap: round"/>
    </g>
    <g id="text_20">
     <!-- 0.04 -->
     <g style="fill: #262626" transform="translate(256.067339 57.106975)scale(0.034 -0.034)">
      <use xlink:href="#CMUSerif-Roman-30"/>
      <use xlink:href="#CMUSerif-Roman-2e" x="49.999985"/>
      <use xlink:href="#CMUSerif-Roman-30" x="77.799973"/>
      <use xlink:href="#CMUSerif-Roman-34" x="127.799957"/>
     </g>
    </g>
    <g id="line2d_51">
     <path d="M 246.547339 60.656788 
L 249.947339 60.656788 
L 253.347339 60.656788 
" style="fill: none; stroke: #4493c7; stroke-width: 1.5; stroke-linecap: round"/>
    </g>
    <g id="text_21">
     <!-- 0.05 -->
     <g style="fill: #262626" transform="translate(256.067339 61.846788)scale(0.034 -0.034)">
      <use xlink:href="#CMUSerif-Roman-30"/>
      <use xlink:href="#CMUSerif-Roman-2e" x="49.999985"/>
      <use xlink:href="#CMUSerif-Roman-30" x="77.799973"/>
      <use xlink:href="#CMUSerif-Roman-35" x="127.799957"/>
     </g>
    </g>
    <g id="line2d_52">
     <path d="M 246.547339 65.3966 
L 249.947339 65.3966 
L 253.347339 65.3966 
" style="fill: none; stroke: #3787c0; stroke-width: 1.5; stroke-linecap: round"/>
    </g>
    <g id="text_22">
     <!-- 0.06 -->
     <g style="fill: #262626" transform="translate(256.067339 66.5866)scale(0.034 -0.034)">
      <use xlink:href="#CMUSerif-Roman-30"/>
      <use xlink:href="#CMUSerif-Roman-2e" x="49.999985"/>
      <use xlink:href="#CMUSerif-Roman-30" x="77.799973"/>
      <use xlink:href="#CMUSerif-Roman-36" x="127.799957"/>
     </g>
    </g>
    <g id="line2d_53">
     <path d="M 246.547339 70.136413 
L 249.947339 70.136413 
L 253.347339 70.136413 
" style="fill: none; stroke: #2b7bba; stroke-width: 1.5; stroke-linecap: round"/>
    </g>
    <g id="text_23">
     <!-- 0.07 -->
     <g style="fill: #262626" transform="translate(256.067339 71.326413)scale(0.034 -0.034)">
      <defs>
       <path id="CMUSerif-Roman-37" d="M 358 3008 
L 570 4326 
L 730 4326 
Q 749 4250 781 4214 
Q 813 4179 995 4150 
Q 1178 4122 1549 4122 
L 3104 4122 
Q 3104 3974 3046 3898 
L 2182 2682 
Q 1907 2298 1786 1587 
Q 1715 1114 1715 538 
L 1715 211 
Q 1715 -141 1420 -141 
Q 1126 -141 1126 211 
Q 1126 1434 1914 2618 
Q 1997 2739 2307 3174 
Q 2618 3610 2630 3629 
L 1306 3629 
Q 723 3629 678 3590 
Q 614 3533 518 3008 
L 358 3008 
z
" transform="scale(0.015625)"/>
      </defs>
      <use xlink:href="#CMUSerif-Roman-30"/>
      <use xlink:href="#CMUSerif-Roman-2e" x="49.999985"/>
      <use xlink:href="#CMUSerif-Roman-30" x="77.799973"/>
      <use xlink:href="#CMUSerif-Roman-37" x="127.799957"/>
     </g>
    </g>
    <g id="line2d_54">
     <path d="M 246.547339 74.876225 
L 249.947339 74.876225 
L 253.347339 74.876225 
" style="fill: none; stroke: #1e6db2; stroke-width: 1.5; stroke-linecap: round"/>
    </g>
    <g id="text_24">
     <!-- 0.08 -->
     <g style="fill: #262626" transform="translate(256.067339 76.066225)scale(0.034 -0.034)">
      <use xlink:href="#CMUSerif-Roman-30"/>
      <use xlink:href="#CMUSerif-Roman-2e" x="49.999985"/>
      <use xlink:href="#CMUSerif-Roman-30" x="77.799973"/>
      <use xlink:href="#CMUSerif-Roman-38" x="127.799957"/>
     </g>
    </g>
    <g id="line2d_55">
     <path d="M 246.547339 79.616038 
L 249.947339 79.616038 
L 253.347339 79.616038 
" style="fill: none; stroke: #1561a9; stroke-width: 1.5; stroke-linecap: round"/>
    </g>
    <g id="text_25">
     <!-- 0.09 -->
     <g style="fill: #262626" transform="translate(256.067339 80.806038)scale(0.034 -0.034)">
      <defs>
       <path id="CMUSerif-Roman-39" d="M 269 2822 
Q 269 3162 368 3395 
Q 467 3629 678 3859 
Q 1062 4262 1619 4262 
Q 1856 4262 2067 4163 
Q 2278 4064 2480 3837 
Q 2682 3610 2803 3165 
Q 2925 2720 2925 2106 
Q 2925 1114 2445 486 
Q 1965 -141 1318 -141 
Q 909 -141 669 44 
Q 429 230 429 550 
Q 429 717 521 787 
Q 614 858 723 858 
Q 838 858 928 781 
Q 1018 704 1018 563 
Q 1018 448 944 358 
Q 870 269 685 269 
Q 870 38 1312 38 
Q 1472 38 1632 112 
Q 1792 186 1965 365 
Q 2138 544 2243 921 
Q 2349 1299 2349 1830 
L 2349 2035 
Q 2093 1395 1549 1395 
Q 1011 1395 640 1808 
Q 269 2221 269 2822 
z
M 845 2816 
Q 845 2182 960 1946 
Q 1158 1542 1555 1542 
Q 1946 1542 2141 1891 
Q 2336 2240 2336 2694 
Q 2336 3322 2234 3597 
Q 2042 4102 1619 4102 
Q 1197 4102 979 3699 
Q 845 3462 845 2816 
z
" transform="scale(0.015625)"/>
      </defs>
      <use xlink:href="#CMUSerif-Roman-30"/>
      <use xlink:href="#CMUSerif-Roman-2e" x="49.999985"/>
      <use xlink:href="#CMUSerif-Roman-30" x="77.799973"/>
      <use xlink:href="#CMUSerif-Roman-39" x="127.799957"/>
     </g>
    </g>
    <g id="line2d_56">
     <path d="M 246.547339 84.35585 
L 249.947339 84.35585 
L 253.347339 84.35585 
" style="fill: none; stroke: #0b559f; stroke-width: 1.5; stroke-linecap: round"/>
    </g>
    <g id="text_26">
     <!-- 0.1 -->
     <g style="fill: #262626" transform="translate(256.067339 85.54585)scale(0.034 -0.034)">
      <use xlink:href="#CMUSerif-Roman-30"/>
      <use xlink:href="#CMUSerif-Roman-2e" x="49.999985"/>
      <use xlink:href="#CMUSerif-Roman-31" x="77.799973"/>
     </g>
    </g>
    <g id="line2d_57">
     <path d="M 246.547339 89.095663 
L 249.947339 89.095663 
L 253.347339 89.095663 
" style="fill: none; stroke: #084990; stroke-width: 1.5; stroke-linecap: round"/>
    </g>
    <g id="text_27">
     <!-- 0.15 -->
     <g style="fill: #262626" transform="translate(256.067339 90.285663)scale(0.034 -0.034)">
      <use xlink:href="#CMUSerif-Roman-30"/>
      <use xlink:href="#CMUSerif-Roman-2e" x="49.999985"/>
      <use xlink:href="#CMUSerif-Roman-31" x="77.799973"/>
      <use xlink:href="#CMUSerif-Roman-35" x="127.799957"/>
     </g>
    </g>
    <g id="line2d_58">
     <path d="M 246.547339 93.835475 
L 249.947339 93.835475 
L 253.347339 93.835475 
" style="fill: none; stroke: #083c7d; stroke-width: 1.5; stroke-linecap: round"/>
    </g>
    <g id="text_28">
     <!-- 0.2 -->
     <g style="fill: #262626" transform="translate(256.067339 95.025475)scale(0.034 -0.034)">
      <use xlink:href="#CMUSerif-Roman-30"/>
      <use xlink:href="#CMUSerif-Roman-2e" x="49.999985"/>
      <use xlink:href="#CMUSerif-Roman-32" x="77.799973"/>
     </g>
    </g>
    <g id="line2d_59">
     <path d="M 246.547339 98.575288 
L 249.947339 98.575288 
L 253.347339 98.575288 
" style="fill: none; stroke: #08306b; stroke-width: 1.5; stroke-linecap: round"/>
    </g>
    <g id="text_29">
     <!-- 0.25 -->
     <g style="fill: #262626" transform="translate(256.067339 99.765288)scale(0.034 -0.034)">
      <use xlink:href="#CMUSerif-Roman-30"/>
      <use xlink:href="#CMUSerif-Roman-2e" x="49.999985"/>
      <use xlink:href="#CMUSerif-Roman-32" x="77.799973"/>
      <use xlink:href="#CMUSerif-Roman-35" x="127.799957"/>
     </g>
    </g>
   </g>
  </g>
 </g>
 <defs>
  <clipPath id="p9ac7ae781e">
   <rect x="39.860937" y="20.834687" width="88.772727" height="65.232"/>
  </clipPath>
  <clipPath id="p9040188734">
   <rect x="146.38821" y="20.834687" width="88.772727" height="65.232"/>
  </clipPath>
 </defs>
</svg>
