<?xml version="1.0" encoding="utf-8" standalone="no"?>
<!DOCTYPE svg PUBLIC "-//W3C//DTD SVG 1.1//EN"
  "http://www.w3.org/Graphics/SVG/1.1/DTD/svg11.dtd">
<svg xmlns:xlink="http://www.w3.org/1999/xlink" width="474.893656pt" height="114.757031pt" viewBox="0 0 474.893656 114.757031" xmlns="http://www.w3.org/2000/svg" version="1.1">
 <metadata>
  <rdf:RDF xmlns:dc="http://purl.org/dc/elements/1.1/" xmlns:cc="http://creativecommons.org/ns#" xmlns:rdf="http://www.w3.org/1999/02/22-rdf-syntax-ns#">
   <cc:Work>
    <dc:type rdf:resource="http://purl.org/dc/dcmitype/StillImage"/>
    <dc:date>2022-08-03T17:40:49.921786</dc:date>
    <dc:format>image/svg+xml</dc:format>
    <dc:creator>
     <cc:Agent>
      <dc:title>Matplotlib v3.5.1, https://matplotlib.org/</dc:title>
     </cc:Agent>
    </dc:creator>
   </cc:Work>
  </rdf:RDF>
 </metadata>
 <defs>
  <style type="text/css">*{stroke-linejoin: round; stroke-linecap: butt}</style>
 </defs>
 <g id="figure_1">
  <g id="patch_1">
   <path d="M 0 114.757031 
L 474.893656 114.757031 
L 474.893656 0 
L 0 0 
L 0 114.757031 
z
" style="fill: none"/>
  </g>
  <g id="axes_1">
   <g id="patch_2">
    <path d="M 28.257656 75.787656 
L 85.651942 75.787656 
L 85.651942 21.427656 
L 28.257656 21.427656 
z
" style="fill: #ffffff"/>
   </g>
   <g id="matplotlib.axis_1">
    <g id="xtick_1">
     <g id="line2d_1">
      <defs>
       <path id="m90bc4fafd6" d="M 0 0 
L 0 3.5 
" style="stroke: #000000; stroke-width: 0.8"/>
      </defs>
      <g>
       <use xlink:href="#m90bc4fafd6" x="30.866487" y="75.787656" style="stroke: #000000; stroke-width: 0.8"/>
      </g>
     </g>
     <g id="text_1">
      <!-- 0 -->
      <g transform="translate(28.116487 90.422344)scale(0.11 -0.11)">
       <defs>
        <path id="CMUSerif-Roman-30" d="M 250 2048 
Q 250 2989 486 3501 
Q 819 4262 1600 4262 
Q 1766 4262 1939 4217 
Q 2112 4173 2333 4000 
Q 2554 3827 2688 3546 
Q 2944 3002 2944 2048 
Q 2944 1114 2707 602 
Q 2362 -141 1594 -141 
Q 1306 -141 1014 6 
Q 723 154 538 506 
Q 250 1037 250 2048 
z
M 781 2125 
Q 781 1158 851 774 
Q 928 358 1142 179 
Q 1357 0 1594 0 
Q 1850 0 2064 192 
Q 2278 384 2342 800 
Q 2413 1210 2413 2125 
Q 2413 3014 2349 3373 
Q 2266 3789 2042 3955 
Q 1818 4122 1594 4122 
Q 1510 4122 1420 4096 
Q 1331 4070 1203 4000 
Q 1075 3930 976 3750 
Q 877 3571 832 3302 
Q 781 2957 781 2125 
z
" transform="scale(0.015625)"/>
       </defs>
       <use xlink:href="#CMUSerif-Roman-30"/>
      </g>
     </g>
    </g>
    <g id="xtick_2">
     <g id="line2d_2">
      <g>
       <use xlink:href="#m90bc4fafd6" x="65.674108" y="75.787656" style="stroke: #000000; stroke-width: 0.8"/>
      </g>
     </g>
     <g id="text_2">
      <!-- 1000 -->
      <g transform="translate(54.674108 90.422344)scale(0.11 -0.11)">
       <defs>
        <path id="CMUSerif-Roman-31" d="M 570 3654 
L 570 3853 
Q 1338 3853 1734 4262 
Q 1843 4262 1862 4236 
Q 1882 4211 1882 4096 
L 1882 506 
Q 1882 314 1974 256 
Q 2067 198 2477 198 
L 2682 198 
L 2682 0 
Q 2458 19 1645 19 
Q 832 19 608 0 
L 608 198 
L 813 198 
Q 1216 198 1312 256 
Q 1408 314 1408 506 
L 1408 3821 
Q 1075 3654 570 3654 
z
" transform="scale(0.015625)"/>
       </defs>
       <use xlink:href="#CMUSerif-Roman-31"/>
       <use xlink:href="#CMUSerif-Roman-30" x="49.999985"/>
       <use xlink:href="#CMUSerif-Roman-30" x="99.999969"/>
       <use xlink:href="#CMUSerif-Roman-30" x="149.999954"/>
      </g>
     </g>
    </g>
    <g id="text_3">
     <!-- time [ms] -->
     <g transform="translate(34.635971 104.807031)scale(0.11 -0.11)">
      <defs>
       <path id="CMUSerif-Roman-74" d="M 122 2560 
L 122 2701 
Q 416 2714 611 2922 
Q 806 3130 873 3386 
Q 941 3642 947 3936 
L 1107 3936 
L 1107 2758 
L 2022 2758 
L 2022 2560 
L 1107 2560 
L 1107 781 
Q 1107 90 1536 90 
Q 1722 90 1843 278 
Q 1965 467 1965 806 
L 1965 1158 
L 2125 1158 
L 2125 794 
Q 2125 448 1965 189 
Q 1805 -70 1491 -70 
Q 1376 -70 1261 -41 
Q 1146 -13 998 64 
Q 851 141 758 329 
Q 666 518 666 794 
L 666 2560 
L 122 2560 
z
" transform="scale(0.015625)"/>
       <path id="CMUSerif-Roman-69" d="M 211 0 
L 211 198 
Q 550 198 630 240 
Q 710 282 710 486 
L 710 2208 
Q 710 2445 630 2502 
Q 550 2560 237 2560 
L 237 2758 
L 1133 2829 
L 1133 480 
Q 1133 288 1200 243 
Q 1267 198 1581 198 
L 1581 0 
Q 928 19 915 19 
Q 826 19 211 0 
z
M 480 3942 
Q 480 4070 579 4176 
Q 678 4282 819 4282 
Q 960 4282 1059 4186 
Q 1158 4090 1158 3942 
Q 1158 3795 1059 3699 
Q 960 3603 819 3603 
Q 672 3603 576 3705 
Q 480 3808 480 3942 
z
" transform="scale(0.015625)"/>
       <path id="CMUSerif-Roman-6d" d="M 205 0 
L 205 198 
Q 544 198 624 240 
Q 704 282 704 486 
L 704 2202 
Q 704 2438 621 2499 
Q 538 2560 205 2560 
L 205 2758 
L 1107 2829 
L 1107 2157 
Q 1408 2829 2054 2829 
Q 2803 2829 2906 2202 
Q 3014 2445 3244 2637 
Q 3475 2829 3834 2829 
Q 4314 2829 4506 2592 
Q 4646 2432 4675 2253 
Q 4704 2074 4704 1613 
L 4704 390 
Q 4710 256 4812 227 
Q 4915 198 5203 198 
L 5203 0 
Q 4550 19 4486 19 
Q 4435 19 3763 0 
L 3763 198 
Q 4102 198 4182 240 
Q 4262 282 4262 486 
L 4262 1978 
Q 4262 2304 4163 2496 
Q 4064 2688 3789 2688 
Q 3456 2688 3190 2409 
Q 2925 2131 2925 1664 
L 2925 486 
Q 2925 282 3005 240 
Q 3085 198 3424 198 
L 3424 0 
Q 2771 19 2707 19 
Q 2656 19 1984 0 
L 1984 198 
Q 2323 198 2403 240 
Q 2483 282 2483 486 
L 2483 1978 
Q 2483 2304 2384 2496 
Q 2285 2688 2010 2688 
Q 1677 2688 1411 2409 
Q 1146 2131 1146 1664 
L 1146 486 
Q 1146 282 1226 240 
Q 1306 198 1645 198 
L 1645 0 
Q 992 19 928 19 
Q 877 19 205 0 
z
" transform="scale(0.015625)"/>
       <path id="CMUSerif-Roman-65" d="M 179 1408 
Q 179 2010 566 2438 
Q 954 2867 1510 2867 
Q 2074 2867 2365 2502 
Q 2656 2138 2656 1613 
Q 2656 1517 2630 1497 
Q 2605 1478 2496 1478 
L 710 1478 
Q 710 826 902 518 
Q 1171 90 1626 90 
Q 1690 90 1763 102 
Q 1837 115 1990 169 
Q 2144 224 2278 371 
Q 2413 518 2490 749 
Q 2509 838 2573 838 
Q 2656 838 2656 762 
Q 2656 704 2595 579 
Q 2534 454 2419 304 
Q 2304 154 2080 42 
Q 1856 -70 1587 -70 
Q 1024 -70 601 355 
Q 179 781 179 1408 
z
M 717 1613 
L 2234 1613 
Q 2234 1747 2211 1897 
Q 2189 2048 2121 2256 
Q 2054 2464 1897 2595 
Q 1741 2726 1510 2726 
Q 1408 2726 1296 2681 
Q 1184 2637 1049 2531 
Q 915 2426 822 2186 
Q 730 1946 717 1613 
z
" transform="scale(0.015625)"/>
       <path id="CMUSerif-Roman-20" transform="scale(0.015625)"/>
       <path id="CMUSerif-Roman-5b" d="M 666 -1600 
L 666 4800 
L 1632 4800 
L 1632 4653 
L 1094 4653 
L 1094 -1453 
L 1632 -1453 
L 1632 -1600 
L 666 -1600 
z
" transform="scale(0.015625)"/>
       <path id="CMUSerif-Roman-73" d="M 211 83 
L 211 928 
Q 211 998 214 1024 
Q 218 1050 237 1069 
Q 256 1088 294 1088 
Q 339 1088 355 1069 
Q 371 1050 384 979 
Q 480 538 688 304 
Q 896 70 1274 70 
Q 1632 70 1814 230 
Q 1997 390 1997 653 
Q 1997 1120 1331 1242 
Q 947 1318 787 1369 
Q 627 1421 486 1536 
Q 211 1760 211 2080 
Q 211 2400 454 2633 
Q 698 2867 1235 2867 
Q 1594 2867 1837 2688 
Q 1907 2746 1946 2790 
Q 2029 2867 2074 2867 
Q 2125 2867 2134 2835 
Q 2144 2803 2144 2714 
L 2144 2067 
Q 2144 1997 2141 1971 
Q 2138 1946 2118 1930 
Q 2099 1914 2061 1914 
Q 1990 1914 1984 1971 
Q 1933 2746 1235 2746 
Q 858 2746 688 2602 
Q 518 2458 518 2259 
Q 518 2150 569 2067 
Q 621 1984 688 1936 
Q 755 1888 880 1843 
Q 1005 1798 1081 1782 
Q 1158 1766 1306 1734 
Q 1818 1638 2035 1427 
Q 2304 1158 2304 819 
Q 2304 442 2048 186 
Q 1792 -70 1274 -70 
Q 858 -70 570 205 
Q 531 166 502 134 
Q 474 102 464 89 
Q 454 77 451 70 
Q 448 64 442 58 
Q 314 -70 282 -70 
Q 230 -70 220 -38 
Q 211 -6 211 83 
z
" transform="scale(0.015625)"/>
       <path id="CMUSerif-Roman-5d" d="M 134 -1453 
L 672 -1453 
L 672 4653 
L 134 4653 
L 134 4800 
L 1101 4800 
L 1101 -1600 
L 134 -1600 
L 134 -1453 
z
" transform="scale(0.015625)"/>
      </defs>
      <use xlink:href="#CMUSerif-Roman-74"/>
      <use xlink:href="#CMUSerif-Roman-69" x="38.799988"/>
      <use xlink:href="#CMUSerif-Roman-6d" x="66.499985"/>
      <use xlink:href="#CMUSerif-Roman-65" x="149.799973"/>
      <use xlink:href="#CMUSerif-Roman-20" x="194.199966"/>
      <use xlink:href="#CMUSerif-Roman-5b" x="227.499954"/>
      <use xlink:href="#CMUSerif-Roman-6d" x="255.299942"/>
      <use xlink:href="#CMUSerif-Roman-73" x="338.59993"/>
      <use xlink:href="#CMUSerif-Roman-5d" x="377.999924"/>
     </g>
    </g>
   </g>
   <g id="matplotlib.axis_2">
    <g id="ytick_1">
     <g id="line2d_3">
      <defs>
       <path id="m0498154b9f" d="M 0 0 
L -3.5 0 
" style="stroke: #000000; stroke-width: 0.8"/>
      </defs>
      <g>
       <use xlink:href="#m0498154b9f" x="28.257656" y="73.316747" style="stroke: #000000; stroke-width: 0.8"/>
      </g>
     </g>
     <g id="text_4">
      <!-- 0.7 -->
      <g transform="translate(7.2 77.134091)scale(0.11 -0.11)">
       <defs>
        <path id="CMUSerif-Roman-2e" d="M 640 102 
Q 544 205 544 339 
Q 544 474 640 573 
Q 736 672 883 672 
Q 1024 672 1120 579 
Q 1216 486 1216 339 
Q 1216 192 1113 96 
Q 1011 0 883 0 
Q 736 0 640 102 
z
" transform="scale(0.015625)"/>
        <path id="CMUSerif-Roman-37" d="M 358 3008 
L 570 4326 
L 730 4326 
Q 749 4250 781 4214 
Q 813 4179 995 4150 
Q 1178 4122 1549 4122 
L 3104 4122 
Q 3104 3974 3046 3898 
L 2182 2682 
Q 1907 2298 1786 1587 
Q 1715 1114 1715 538 
L 1715 211 
Q 1715 -141 1420 -141 
Q 1126 -141 1126 211 
Q 1126 1434 1914 2618 
Q 1997 2739 2307 3174 
Q 2618 3610 2630 3629 
L 1306 3629 
Q 723 3629 678 3590 
Q 614 3533 518 3008 
L 358 3008 
z
" transform="scale(0.015625)"/>
       </defs>
       <use xlink:href="#CMUSerif-Roman-30"/>
       <use xlink:href="#CMUSerif-Roman-2e" x="49.999985"/>
       <use xlink:href="#CMUSerif-Roman-37" x="77.799973"/>
      </g>
     </g>
    </g>
    <g id="ytick_2">
     <g id="line2d_4">
      <g>
       <use xlink:href="#m0498154b9f" x="28.257656" y="54.675569" style="stroke: #000000; stroke-width: 0.8"/>
      </g>
     </g>
     <g id="text_5">
      <!-- 0.8 -->
      <g transform="translate(7.2 58.492912)scale(0.11 -0.11)">
       <defs>
        <path id="CMUSerif-Roman-38" d="M 269 966 
Q 269 1683 1190 2144 
Q 794 2413 723 2490 
Q 442 2803 442 3194 
Q 442 3642 781 3952 
Q 1120 4262 1600 4262 
Q 2061 4262 2406 3996 
Q 2752 3731 2752 3309 
Q 2752 2714 1978 2317 
Q 2490 1997 2611 1862 
Q 2925 1517 2925 1075 
Q 2925 563 2531 211 
Q 2138 -141 1594 -141 
Q 1062 -141 665 169 
Q 269 480 269 966 
z
M 589 966 
Q 589 570 886 304 
Q 1184 38 1600 38 
Q 2003 38 2304 268 
Q 2605 499 2605 845 
Q 2605 979 2560 1094 
Q 2515 1210 2425 1302 
Q 2336 1395 2281 1436 
Q 2227 1478 2125 1549 
L 1338 2048 
Q 589 1632 589 966 
z
M 723 3443 
Q 723 3136 1043 2925 
L 1837 2413 
Q 2470 2784 2470 3309 
Q 2470 3648 2211 3875 
Q 1952 4102 1594 4102 
Q 1242 4102 982 3916 
Q 723 3731 723 3443 
z
" transform="scale(0.015625)"/>
       </defs>
       <use xlink:href="#CMUSerif-Roman-30"/>
       <use xlink:href="#CMUSerif-Roman-2e" x="49.999985"/>
       <use xlink:href="#CMUSerif-Roman-38" x="77.799973"/>
      </g>
     </g>
    </g>
    <g id="ytick_3">
     <g id="line2d_5">
      <g>
       <use xlink:href="#m0498154b9f" x="28.257656" y="36.03439" style="stroke: #000000; stroke-width: 0.8"/>
      </g>
     </g>
     <g id="text_6">
      <!-- 0.9 -->
      <g transform="translate(7.2 39.851734)scale(0.11 -0.11)">
       <defs>
        <path id="CMUSerif-Roman-39" d="M 269 2822 
Q 269 3162 368 3395 
Q 467 3629 678 3859 
Q 1062 4262 1619 4262 
Q 1856 4262 2067 4163 
Q 2278 4064 2480 3837 
Q 2682 3610 2803 3165 
Q 2925 2720 2925 2106 
Q 2925 1114 2445 486 
Q 1965 -141 1318 -141 
Q 909 -141 669 44 
Q 429 230 429 550 
Q 429 717 521 787 
Q 614 858 723 858 
Q 838 858 928 781 
Q 1018 704 1018 563 
Q 1018 448 944 358 
Q 870 269 685 269 
Q 870 38 1312 38 
Q 1472 38 1632 112 
Q 1792 186 1965 365 
Q 2138 544 2243 921 
Q 2349 1299 2349 1830 
L 2349 2035 
Q 2093 1395 1549 1395 
Q 1011 1395 640 1808 
Q 269 2221 269 2822 
z
M 845 2816 
Q 845 2182 960 1946 
Q 1158 1542 1555 1542 
Q 1946 1542 2141 1891 
Q 2336 2240 2336 2694 
Q 2336 3322 2234 3597 
Q 2042 4102 1619 4102 
Q 1197 4102 979 3699 
Q 845 3462 845 2816 
z
" transform="scale(0.015625)"/>
       </defs>
       <use xlink:href="#CMUSerif-Roman-30"/>
       <use xlink:href="#CMUSerif-Roman-2e" x="49.999985"/>
       <use xlink:href="#CMUSerif-Roman-39" x="77.799973"/>
      </g>
     </g>
    </g>
   </g>
   <g id="line2d_6">
    <path d="M 30.866487 73.316747 
L 31.736678 61.463529 
L 32.572061 53.035229 
L 33.337828 47.399861 
L 34.068789 43.516785 
L 34.799749 40.770285 
L 35.495901 38.954242 
L 36.192053 37.714924 
L 36.888206 36.895205 
L 37.653973 36.33683 
L 38.489356 36.008057 
L 39.498777 35.860843 
L 40.821467 35.906059 
L 42.909924 36.226489 
L 60.244119 39.389959 
L 68.632756 40.516472 
L 78.448505 41.604543 
L 83.043111 42.048255 
L 83.043111 42.048255 
" clip-path="url(#p15f1d8be99)" style="fill: none; stroke: #ffde00; stroke-opacity: 0.8; stroke-width: 1.5; stroke-linecap: square"/>
   </g>
   <g id="line2d_7">
    <path d="M 30.866487 73.316747 
L 31.736678 61.363782 
L 32.572061 52.800295 
L 33.372636 46.807433 
L 34.138404 42.714329 
L 34.869364 39.980297 
L 35.565516 38.191575 
L 36.261669 36.999101 
L 36.957821 36.245787 
L 37.653973 35.810065 
L 38.419741 35.589261 
L 39.324739 35.562803 
L 40.508198 35.761188 
L 42.318195 36.315083 
L 55.197014 40.704399 
L 60.661811 42.154816 
L 66.753144 43.537022 
L 73.54063 44.84464 
L 81.093884 46.069293 
L 83.043111 46.351923 
L 83.043111 46.351923 
" clip-path="url(#p15f1d8be99)" style="fill: none; stroke: #ffc400; stroke-opacity: 0.8; stroke-width: 1.5; stroke-linecap: square"/>
   </g>
   <g id="line2d_8">
    <path d="M 30.866487 73.316747 
L 31.736678 61.263884 
L 32.572061 52.552143 
L 33.372636 46.38596 
L 34.138404 42.127041 
L 34.869364 39.258596 
L 35.565516 37.376611 
L 36.226861 36.179093 
L 36.888206 35.417467 
L 37.549551 34.981527 
L 38.245703 34.779858 
L 39.081086 34.781641 
L 40.125315 35.024714 
L 41.622042 35.624897 
L 44.998381 37.295683 
L 49.036065 39.183815 
L 52.690866 40.640641 
L 56.554511 41.938273 
L 60.731426 43.104783 
L 65.326032 44.154542 
L 70.442752 45.090866 
L 76.18601 45.910617 
L 82.729842 46.61526 
L 83.043111 46.643949 
L 83.043111 46.643949 
" clip-path="url(#p15f1d8be99)" style="fill: none; stroke: #ffa700; stroke-opacity: 0.8; stroke-width: 1.5; stroke-linecap: square"/>
   </g>
   <g id="line2d_9">
    <path d="M 30.866487 73.316747 
L 31.771486 60.767139 
L 32.641676 51.722268 
L 33.442251 45.559595 
L 34.208019 41.257774 
L 34.938979 38.329092 
L 35.635131 36.389163 
L 36.296476 35.145806 
L 36.957821 34.351993 
L 37.619166 33.898757 
L 38.315318 33.69392 
L 39.115894 33.703739 
L 40.090507 33.949315 
L 41.482812 34.549053 
L 44.615498 36.220489 
L 48.026644 37.92041 
L 51.054907 39.175061 
L 54.222401 40.243608 
L 57.668355 41.169007 
L 61.532001 41.972135 
L 65.952569 42.65766 
L 71.138905 43.228945 
L 77.404276 43.68707 
L 83.043111 43.954585 
L 83.043111 43.954585 
" clip-path="url(#p15f1d8be99)" style="fill: none; stroke: #ff8600; stroke-opacity: 0.8; stroke-width: 1.5; stroke-linecap: square"/>
   </g>
   <g id="line2d_10">
    <path d="M 30.866487 73.316747 
L 31.771486 60.704517 
L 32.641676 51.549729 
L 33.477059 45.007218 
L 34.277634 40.431981 
L 35.043402 37.312999 
L 35.774362 35.24767 
L 36.470514 33.92786 
L 37.131859 33.125308 
L 37.793204 32.657791 
L 38.489356 32.436095 
L 39.289932 32.426927 
L 40.264545 32.651111 
L 41.65685 33.221539 
L 49.836641 36.965806 
L 52.690866 37.845653 
L 55.858359 38.585625 
L 59.513159 39.203598 
L 63.864112 39.70437 
L 69.259293 40.091919 
L 76.46447 40.37324 
L 83.043111 40.502957 
L 83.043111 40.502957 
" clip-path="url(#p15f1d8be99)" style="fill: none; stroke: #ff6800; stroke-opacity: 0.8; stroke-width: 1.5; stroke-linecap: square"/>
   </g>
   <g id="line2d_11">
    <path d="M 30.866487 73.316747 
L 31.771486 60.656773 
L 32.641676 51.41339 
L 33.477059 44.739555 
L 34.277634 40.002471 
L 35.043402 36.709588 
L 35.774362 34.474685 
L 36.470514 33.000071 
L 37.166667 32.023217 
L 37.862819 31.42793 
L 38.558972 31.118923 
L 39.324739 31.019259 
L 40.264545 31.131272 
L 41.552427 31.531713 
L 44.023768 32.590997 
L 47.3653 33.951018 
L 50.080294 34.807284 
L 52.969327 35.482262 
L 56.310858 36.027179 
L 60.348542 36.451263 
L 65.569685 36.764875 
L 73.053324 36.974017 
L 83.043111 37.071256 
L 83.043111 37.071256 
" clip-path="url(#p15f1d8be99)" style="fill: none; stroke: #ff4700; stroke-opacity: 0.8; stroke-width: 1.5; stroke-linecap: square"/>
   </g>
   <g id="line2d_12">
    <path d="M 30.866487 73.316747 
L 31.771486 60.620607 
L 32.641676 51.307159 
L 33.511867 44.281425 
L 34.347249 39.28605 
L 35.147825 35.799415 
L 35.913592 33.417767 
L 36.644552 31.831437 
L 37.340705 30.807835 
L 38.036857 30.150506 
L 38.767817 29.757906 
L 39.568393 29.582485 
L 40.543006 29.612723 
L 41.830888 29.89514 
L 44.232614 30.700569 
L 47.817799 31.846838 
L 50.672024 32.513186 
L 53.839517 33.018187 
L 57.703163 33.398265 
L 62.819883 33.664491 
L 70.651598 33.827149 
L 83.043111 33.889794 
L 83.043111 33.889794 
" clip-path="url(#p15f1d8be99)" style="fill: none; stroke: #ff2900; stroke-opacity: 0.8; stroke-width: 1.5; stroke-linecap: square"/>
   </g>
   <g id="line2d_13">
    <path d="M 30.866487 73.316747 
L 31.771486 60.593354 
L 32.676484 50.900613 
L 33.546674 43.862432 
L 34.382057 38.802497 
L 35.182632 35.213547 
L 35.983208 32.612251 
L 36.748975 30.8544 
L 37.479935 29.695458 
L 38.210895 28.926362 
L 38.976663 28.435694 
L 39.812046 28.16766 
L 40.786659 28.095568 
L 42.074541 28.239639 
L 44.267421 28.750054 
L 48.687989 29.780823 
L 51.925098 30.278535 
L 55.753936 30.630089 
L 60.905464 30.863073 
L 69.294101 30.9918 
L 83.043111 31.028716 
L 83.043111 31.028716 
" clip-path="url(#p15f1d8be99)" style="fill: none; stroke: #f10800; stroke-opacity: 0.8; stroke-width: 1.5; stroke-linecap: square"/>
   </g>
   <g id="line2d_14">
    <path d="M 30.866487 73.316747 
L 31.771486 60.572901 
L 32.676484 50.835879 
L 33.546674 43.722762 
L 34.416865 38.372699 
L 35.252248 34.565519 
L 36.052823 31.889939 
L 36.853398 29.965168 
L 37.619166 28.671483 
L 38.384933 27.788359 
L 39.185509 27.195344 
L 40.055699 26.829136 
L 41.06512 26.653316 
L 42.353002 26.667198 
L 44.371844 26.939588 
L 50.637216 27.884826 
L 54.709708 28.205996 
L 60.278927 28.402429 
L 70.268714 28.495068 
L 83.043111 28.510115 
L 83.043111 28.510115 
" clip-path="url(#p15f1d8be99)" style="fill: none; stroke: #cd0000; stroke-opacity: 0.8; stroke-width: 1.5; stroke-linecap: square"/>
   </g>
   <g id="line2d_15">
    <path d="M 30.866487 73.316747 
L 31.771486 60.557601 
L 32.676484 50.786801 
L 33.581482 43.366967 
L 34.451672 37.989978 
L 35.287055 34.118056 
L 36.122438 31.249227 
L 36.923013 29.241852 
L 37.723589 27.799649 
L 38.524164 26.791548 
L 39.359547 26.087514 
L 40.264545 25.616813 
L 41.308774 25.334029 
L 42.596656 25.226286 
L 44.476267 25.312493 
L 55.614706 26.168068 
L 62.959114 26.29803 
L 81.859652 26.335956 
L 83.043111 26.336124 
L 83.043111 26.336124 
" clip-path="url(#p15f1d8be99)" style="fill: none; stroke: #a40000; stroke-opacity: 0.8; stroke-width: 1.5; stroke-linecap: square"/>
   </g>
   <g id="line2d_16">
    <path d="M 30.866487 73.316747 
L 31.771486 60.546182 
L 32.676484 50.749803 
L 33.581482 43.2826 
L 34.451672 37.835112 
L 35.321863 33.730445 
L 36.157246 30.788538 
L 36.992629 28.613978 
L 37.828012 27.035426 
L 38.663394 25.912959 
L 39.533585 25.10771 
L 40.473391 24.542269 
L 41.552427 24.163551 
L 42.875117 23.950958 
L 44.685113 23.903023 
L 48.305105 24.082253 
L 55.022976 24.37038 
L 63.724881 24.475722 
L 83.043111 24.495757 
L 83.043111 24.495757 
" clip-path="url(#p15f1d8be99)" style="fill: none; stroke: #800000; stroke-opacity: 0.8; stroke-width: 1.5; stroke-linecap: square"/>
   </g>
   <g id="patch_3">
    <path d="M 28.257656 75.787656 
L 28.257656 21.427656 
" style="fill: none; stroke: #000000; stroke-width: 0.8; stroke-linejoin: miter; stroke-linecap: square"/>
   </g>
   <g id="patch_4">
    <path d="M 28.257656 75.787656 
L 85.651942 75.787656 
" style="fill: none; stroke: #000000; stroke-width: 0.8; stroke-linejoin: miter; stroke-linecap: square"/>
   </g>
   <g id="text_7">
    <!-- du/dt -->
    <g transform="translate(42.913471 15.427656)scale(0.11 -0.11)">
     <defs>
      <path id="CMUSerif-Roman-64" d="M 218 1376 
Q 218 1984 643 2406 
Q 1069 2829 1645 2829 
Q 2131 2829 2451 2432 
L 2451 3814 
Q 2451 4051 2368 4112 
Q 2285 4173 1952 4173 
L 1952 4371 
L 2874 4442 
L 2874 557 
Q 2874 320 2957 259 
Q 3040 198 3373 198 
L 3373 0 
L 2432 -70 
L 2432 352 
Q 2099 -70 1574 -70 
Q 1024 -70 621 352 
Q 218 774 218 1376 
z
M 749 1370 
Q 749 774 934 480 
Q 1190 70 1606 70 
Q 2080 70 2362 518 
Q 2432 627 2432 755 
L 2432 2067 
Q 2432 2195 2362 2304 
Q 2099 2688 1670 2688 
Q 1222 2688 947 2278 
Q 749 1971 749 1370 
z
" transform="scale(0.015625)"/>
      <path id="CMUSerif-Roman-75" d="M 205 2560 
L 205 2758 
L 1146 2829 
L 1146 704 
Q 1146 550 1158 460 
Q 1171 371 1222 268 
Q 1274 166 1395 118 
Q 1517 70 1709 70 
Q 2054 70 2268 355 
Q 2483 640 2483 1062 
L 2483 2202 
Q 2483 2438 2400 2499 
Q 2317 2560 1984 2560 
L 1984 2758 
L 2925 2829 
L 2925 557 
Q 2925 320 3008 259 
Q 3091 198 3424 198 
L 3424 0 
L 2502 -70 
L 2502 506 
Q 2234 -70 1677 -70 
Q 1395 -70 1203 0 
Q 1011 70 915 160 
Q 819 250 768 422 
Q 717 595 710 700 
Q 704 806 704 1011 
L 704 1971 
Q 704 2406 640 2483 
Q 576 2560 205 2560 
z
" transform="scale(0.015625)"/>
      <path id="CMUSerif-Roman-2f" d="M 365 -1510 
Q 365 -1478 390 -1408 
L 2650 4627 
Q 2650 4634 2666 4669 
Q 2682 4704 2691 4726 
Q 2701 4749 2720 4768 
Q 2739 4787 2765 4787 
Q 2829 4787 2829 4710 
Q 2829 4704 2810 4627 
L 544 -1414 
Q 506 -1523 483 -1555 
Q 461 -1587 422 -1587 
Q 365 -1587 365 -1510 
z
" transform="scale(0.015625)"/>
     </defs>
     <use xlink:href="#CMUSerif-Roman-64"/>
     <use xlink:href="#CMUSerif-Roman-75" x="55.499985"/>
     <use xlink:href="#CMUSerif-Roman-2f" x="110.999969"/>
     <use xlink:href="#CMUSerif-Roman-64" x="160.999954"/>
     <use xlink:href="#CMUSerif-Roman-74" x="216.499939"/>
    </g>
   </g>
  </g>
  <g id="axes_2">
   <g id="patch_5">
    <path d="M 143.046228 75.787656 
L 200.440513 75.787656 
L 200.440513 21.427656 
L 143.046228 21.427656 
z
" style="fill: #ffffff"/>
   </g>
   <g id="matplotlib.axis_3">
    <g id="xtick_3">
     <g id="line2d_17">
      <g>
       <use xlink:href="#m90bc4fafd6" x="145.655059" y="75.787656" style="stroke: #000000; stroke-width: 0.8"/>
      </g>
     </g>
     <g id="text_8">
      <!-- 0 -->
      <g transform="translate(142.905059 90.422344)scale(0.11 -0.11)">
       <use xlink:href="#CMUSerif-Roman-30"/>
      </g>
     </g>
    </g>
    <g id="xtick_4">
     <g id="line2d_18">
      <g>
       <use xlink:href="#m90bc4fafd6" x="180.46268" y="75.787656" style="stroke: #000000; stroke-width: 0.8"/>
      </g>
     </g>
     <g id="text_9">
      <!-- 1000 -->
      <g transform="translate(169.46268 90.422344)scale(0.11 -0.11)">
       <use xlink:href="#CMUSerif-Roman-31"/>
       <use xlink:href="#CMUSerif-Roman-30" x="49.999985"/>
       <use xlink:href="#CMUSerif-Roman-30" x="99.999969"/>
       <use xlink:href="#CMUSerif-Roman-30" x="149.999954"/>
      </g>
     </g>
    </g>
    <g id="text_10">
     <!-- time [ms] -->
     <g transform="translate(149.424542 104.807031)scale(0.11 -0.11)">
      <use xlink:href="#CMUSerif-Roman-74"/>
      <use xlink:href="#CMUSerif-Roman-69" x="38.799988"/>
      <use xlink:href="#CMUSerif-Roman-6d" x="66.499985"/>
      <use xlink:href="#CMUSerif-Roman-65" x="149.799973"/>
      <use xlink:href="#CMUSerif-Roman-20" x="194.199966"/>
      <use xlink:href="#CMUSerif-Roman-5b" x="227.499954"/>
      <use xlink:href="#CMUSerif-Roman-6d" x="255.299942"/>
      <use xlink:href="#CMUSerif-Roman-73" x="338.59993"/>
      <use xlink:href="#CMUSerif-Roman-5d" x="377.999924"/>
     </g>
    </g>
   </g>
   <g id="matplotlib.axis_4">
    <g id="ytick_4">
     <g id="line2d_19">
      <g>
       <use xlink:href="#m0498154b9f" x="143.046228" y="70.07364" style="stroke: #000000; stroke-width: 0.8"/>
      </g>
     </g>
     <g id="text_11">
      <!-- 0.25 -->
      <g transform="translate(116.488571 73.890984)scale(0.11 -0.11)">
       <defs>
        <path id="CMUSerif-Roman-32" d="M 320 0 
Q 320 115 329 150 
Q 339 186 390 237 
L 1619 1606 
Q 2291 2362 2291 3021 
Q 2291 3450 2067 3757 
Q 1843 4064 1434 4064 
Q 1152 4064 915 3891 
Q 678 3718 570 3411 
Q 589 3418 653 3418 
Q 813 3418 902 3318 
Q 992 3219 992 3085 
Q 992 2912 880 2829 
Q 768 2746 659 2746 
Q 614 2746 556 2755 
Q 499 2765 409 2854 
Q 320 2944 320 3104 
Q 320 3552 659 3907 
Q 998 4262 1517 4262 
Q 2106 4262 2490 3913 
Q 2874 3565 2874 3021 
Q 2874 2829 2816 2656 
Q 2758 2483 2681 2348 
Q 2605 2214 2400 2000 
Q 2195 1786 2028 1632 
Q 1862 1478 1491 1152 
L 813 493 
L 1965 493 
Q 2528 493 2573 544 
Q 2637 634 2714 1114 
L 2874 1114 
L 2694 0 
L 320 0 
z
" transform="scale(0.015625)"/>
        <path id="CMUSerif-Roman-35" d="M 320 1030 
Q 320 1222 422 1296 
Q 525 1370 634 1370 
Q 781 1370 867 1277 
Q 954 1184 954 1056 
Q 954 928 867 835 
Q 781 742 634 742 
Q 563 742 525 755 
Q 608 461 867 249 
Q 1126 38 1466 38 
Q 1894 38 2150 454 
Q 2304 723 2304 1331 
Q 2304 1869 2189 2138 
Q 2010 2547 1645 2547 
Q 1126 2547 819 2099 
Q 781 2042 736 2042 
Q 672 2042 659 2077 
Q 646 2112 646 2208 
L 646 4102 
Q 646 4256 710 4256 
Q 736 4256 787 4237 
Q 1190 4058 1638 4058 
Q 2099 4058 2509 4243 
Q 2541 4262 2560 4262 
Q 2624 4262 2624 4192 
Q 2624 4166 2573 4092 
Q 2522 4019 2413 3923 
Q 2304 3827 2163 3737 
Q 2022 3648 1817 3587 
Q 1613 3526 1389 3526 
Q 1120 3526 845 3610 
L 845 2362 
Q 1178 2688 1658 2688 
Q 2170 2688 2522 2275 
Q 2874 1862 2874 1286 
Q 2874 685 2458 272 
Q 2042 -141 1478 -141 
Q 966 -141 643 224 
Q 320 589 320 1030 
z
" transform="scale(0.015625)"/>
       </defs>
       <use xlink:href="#CMUSerif-Roman-30"/>
       <use xlink:href="#CMUSerif-Roman-2e" x="49.999985"/>
       <use xlink:href="#CMUSerif-Roman-32" x="77.799973"/>
       <use xlink:href="#CMUSerif-Roman-35" x="127.799957"/>
      </g>
     </g>
    </g>
    <g id="ytick_5">
     <g id="line2d_20">
      <g>
       <use xlink:href="#m0498154b9f" x="143.046228" y="53.858104" style="stroke: #000000; stroke-width: 0.8"/>
      </g>
     </g>
     <g id="text_12">
      <!-- 0.50 -->
      <g transform="translate(116.488571 57.675447)scale(0.11 -0.11)">
       <use xlink:href="#CMUSerif-Roman-30"/>
       <use xlink:href="#CMUSerif-Roman-2e" x="49.999985"/>
       <use xlink:href="#CMUSerif-Roman-35" x="77.799973"/>
       <use xlink:href="#CMUSerif-Roman-30" x="127.799957"/>
      </g>
     </g>
    </g>
    <g id="ytick_6">
     <g id="line2d_21">
      <g>
       <use xlink:href="#m0498154b9f" x="143.046228" y="37.642567" style="stroke: #000000; stroke-width: 0.8"/>
      </g>
     </g>
     <g id="text_13">
      <!-- 0.75 -->
      <g transform="translate(116.488571 41.459911)scale(0.11 -0.11)">
       <use xlink:href="#CMUSerif-Roman-30"/>
       <use xlink:href="#CMUSerif-Roman-2e" x="49.999985"/>
       <use xlink:href="#CMUSerif-Roman-37" x="77.799973"/>
       <use xlink:href="#CMUSerif-Roman-35" x="127.799957"/>
      </g>
     </g>
    </g>
   </g>
   <g id="line2d_22">
    <path d="M 145.655059 73.316747 
L 146.455634 64.776538 
L 147.221402 58.824775 
L 147.987169 54.540136 
L 148.718129 51.616376 
L 149.483897 49.443561 
L 150.249665 47.919663 
L 151.05024 46.807141 
L 151.920431 45.973134 
L 152.929852 45.320357 
L 154.182926 44.790014 
L 155.888499 44.329467 
L 158.568686 43.862861 
L 163.511368 43.259267 
L 171.551929 42.510228 
L 181.9246 41.774586 
L 195.047073 41.076345 
L 197.831682 40.951801 
L 197.831682 40.951801 
" clip-path="url(#pd09c3e1175)" style="fill: none; stroke: #ffde00; stroke-opacity: 0.8; stroke-width: 1.5; stroke-linecap: square"/>
   </g>
   <g id="line2d_23">
    <path d="M 145.655059 73.316747 
L 146.455634 64.385213 
L 147.256209 57.812112 
L 148.021977 53.235882 
L 148.787745 49.921966 
L 149.553512 47.538056 
L 150.354088 45.75816 
L 151.189471 44.441624 
L 152.094469 43.434816 
L 153.10389 42.644568 
L 154.322156 41.97519 
L 155.958115 41.345994 
L 158.325033 40.695453 
L 162.049448 39.924589 
L 167.409822 39.05163 
L 174.127693 38.188383 
L 182.237868 37.377252 
L 192.01881 36.629502 
L 197.831682 36.27201 
L 197.831682 36.27201 
" clip-path="url(#pd09c3e1175)" style="fill: none; stroke: #ffc400; stroke-opacity: 0.8; stroke-width: 1.5; stroke-linecap: square"/>
   </g>
   <g id="line2d_24">
    <path d="M 145.655059 73.316747 
L 146.490442 63.634857 
L 147.291017 56.734682 
L 148.091592 51.64592 
L 148.892168 47.934265 
L 149.692743 45.241876 
L 150.493318 43.286563 
L 151.328701 41.801845 
L 152.233699 40.634116 
L 153.24312 39.690316 
L 154.426579 38.887734 
L 155.923307 38.149171 
L 157.942149 37.415827 
L 160.761566 36.643131 
L 164.590404 35.83533 
L 169.359049 35.064215 
L 175.067498 34.374033 
L 181.9246 33.777396 
L 190.313236 33.279818 
L 197.831682 32.978867 
L 197.831682 32.978867 
" clip-path="url(#pd09c3e1175)" style="fill: none; stroke: #ffa700; stroke-opacity: 0.8; stroke-width: 1.5; stroke-linecap: square"/>
   </g>
   <g id="line2d_25">
    <path d="M 145.655059 73.316747 
L 146.525249 62.9448 
L 147.360632 55.526943 
L 148.196015 50.038434 
L 148.99659 46.160625 
L 149.797166 43.295422 
L 150.632549 41.097668 
L 151.502739 39.423554 
L 152.407737 38.146628 
L 153.417158 37.100359 
L 154.600617 36.204047 
L 156.02773 35.415529 
L 157.837726 34.682167 
L 160.204644 33.972901 
L 163.33733 33.277481 
L 167.270591 32.64102 
L 172.108851 32.091876 
L 178.130569 31.64226 
L 185.927476 31.295432 
L 196.787454 31.051351 
L 197.831682 31.036638 
L 197.831682 31.036638 
" clip-path="url(#pd09c3e1175)" style="fill: none; stroke: #ff8600; stroke-opacity: 0.8; stroke-width: 1.5; stroke-linecap: square"/>
   </g>
   <g id="line2d_26">
    <path d="M 145.655059 73.316747 
L 146.525249 62.675765 
L 147.39544 54.699446 
L 148.230823 48.990735 
L 149.066206 44.743628 
L 149.901589 41.598109 
L 150.736971 39.267791 
L 151.607162 37.46986 
L 152.51216 36.085574 
L 153.521581 34.946759 
L 154.635425 34.02432 
L 155.958115 33.223698 
L 157.559265 32.520382 
L 159.612915 31.871207 
L 162.258294 31.277867 
L 165.669441 30.749335 
L 170.055201 30.305009 
L 175.798458 29.959274 
L 183.804211 29.716037 
L 196.683031 29.572563 
L 197.831682 29.566609 
L 197.831682 29.566609 
" clip-path="url(#pd09c3e1175)" style="fill: none; stroke: #ff6800; stroke-opacity: 0.8; stroke-width: 1.5; stroke-linecap: square"/>
   </g>
   <g id="line2d_27">
    <path d="M 145.655059 73.316747 
L 146.525249 62.468889 
L 147.39544 54.261264 
L 148.26563 48.106352 
L 149.101013 43.683 
L 149.936396 40.365301 
L 150.806587 37.789742 
L 151.676777 35.875679 
L 152.581775 34.392766 
L 153.556389 33.207689 
L 154.635425 32.241688 
L 155.888499 31.426518 
L 157.350419 30.745129 
L 159.195223 30.141597 
L 161.562141 29.61528 
L 164.66002 29.166931 
L 168.802127 28.804509 
L 174.580192 28.537396 
L 183.490943 28.369858 
L 197.831682 28.301583 
L 197.831682 28.301583 
" clip-path="url(#pd09c3e1175)" style="fill: none; stroke: #ff4700; stroke-opacity: 0.8; stroke-width: 1.5; stroke-linecap: square"/>
   </g>
   <g id="line2d_28">
    <path d="M 145.655059 73.316747 
L 146.560057 61.929774 
L 147.430248 53.634959 
L 148.300438 47.359451 
L 149.170629 42.64009 
L 150.040819 39.105268 
L 150.91101 36.461055 
L 151.816008 34.411315 
L 152.755813 32.834214 
L 153.730427 31.624786 
L 154.809463 30.642079 
L 156.02773 29.841463 
L 157.454842 29.179288 
L 159.195223 28.626473 
L 161.422911 28.163341 
L 164.416366 27.783079 
L 168.593281 27.492451 
L 174.928268 27.295185 
L 186.44959 27.193552 
L 197.831682 27.175313 
L 197.831682 27.175313 
" clip-path="url(#pd09c3e1175)" style="fill: none; stroke: #ff2900; stroke-opacity: 0.8; stroke-width: 1.5; stroke-linecap: square"/>
   </g>
   <g id="line2d_29">
    <path d="M 145.655059 73.316747 
L 146.560057 61.805337 
L 147.465055 53.080525 
L 148.335246 46.725547 
L 149.205436 41.90759 
L 150.075627 38.267651 
L 150.945817 35.52219 
L 151.850815 33.378905 
L 152.790621 31.721825 
L 153.765234 30.449272 
L 154.809463 29.447072 
L 155.958115 28.648106 
L 157.315612 27.982663 
L 158.95157 27.441254 
L 161.00522 27.007035 
L 163.755022 26.665192 
L 167.72309 26.412484 
L 174.127693 26.251282 
L 187.598242 26.180708 
L 197.831682 26.174251 
L 197.831682 26.174251 
" clip-path="url(#pd09c3e1175)" style="fill: none; stroke: #f10800; stroke-opacity: 0.8; stroke-width: 1.5; stroke-linecap: square"/>
   </g>
   <g id="line2d_30">
    <path d="M 145.655059 73.316747 
L 146.560057 61.711665 
L 147.465055 52.877657 
L 148.370053 46.182841 
L 149.275051 41.129884 
L 150.18005 37.328104 
L 151.085048 34.47269 
L 151.990046 32.328292 
L 152.929852 30.661949 
L 153.904465 29.378514 
L 154.948694 28.367876 
L 156.097345 27.565729 
L 157.420035 26.91873 
L 158.986378 26.404932 
L 160.970412 25.996383 
L 163.650599 25.684827 
L 167.618667 25.46647 
L 174.510576 25.339466 
L 192.610539 25.297036 
L 197.831682 25.296176 
L 197.831682 25.296176 
" clip-path="url(#pd09c3e1175)" style="fill: none; stroke: #cd0000; stroke-opacity: 0.8; stroke-width: 1.5; stroke-linecap: square"/>
   </g>
   <g id="line2d_31">
    <path d="M 145.655059 73.316747 
L 146.560057 61.641436 
L 147.465055 52.724939 
L 148.370053 45.938302 
L 149.275051 40.789202 
L 150.18005 36.892656 
L 151.085048 33.948961 
L 151.990046 31.726459 
L 152.929852 29.991924 
L 153.904465 28.652212 
L 154.948694 27.596621 
L 156.062537 26.782224 
L 157.350419 26.120617 
L 158.881955 25.595252 
L 160.796374 25.187648 
L 163.33733 24.887502 
L 167.131361 24.682991 
L 173.953654 24.570909 
L 194.698996 24.539339 
L 197.831682 24.539145 
L 197.831682 24.539145 
" clip-path="url(#pd09c3e1175)" style="fill: none; stroke: #a40000; stroke-opacity: 0.8; stroke-width: 1.5; stroke-linecap: square"/>
   </g>
   <g id="line2d_32">
    <path d="M 145.655059 73.316747 
L 146.560057 61.588945 
L 147.465055 52.610435 
L 148.370053 45.75421 
L 149.275051 40.531452 
L 150.18005 36.561293 
L 151.085048 33.547858 
L 151.990046 31.262413 
L 152.929852 29.471598 
L 153.904465 28.084057 
L 154.913886 27.019996 
L 156.02773 26.166149 
L 157.280804 25.48992 
L 158.742724 24.959126 
L 160.55272 24.547303 
L 162.954446 24.242515 
L 166.504824 24.037678 
L 172.874618 23.928081 
L 192.923808 23.898766 
L 197.831682 23.898565 
L 197.831682 23.898565 
" clip-path="url(#pd09c3e1175)" style="fill: none; stroke: #800000; stroke-opacity: 0.8; stroke-width: 1.5; stroke-linecap: square"/>
   </g>
   <g id="patch_6">
    <path d="M 143.046228 75.787656 
L 143.046228 21.427656 
" style="fill: none; stroke: #000000; stroke-width: 0.8; stroke-linejoin: miter; stroke-linecap: square"/>
   </g>
   <g id="patch_7">
    <path d="M 143.046228 75.787656 
L 200.440513 75.787656 
" style="fill: none; stroke: #000000; stroke-width: 0.8; stroke-linejoin: miter; stroke-linecap: square"/>
   </g>
   <g id="text_14">
    <!-- dv/dt -->
    <g transform="translate(157.855871 15.427656)scale(0.11 -0.11)">
     <defs>
      <path id="CMUSerif-Roman-76" d="M 122 2560 
L 122 2758 
Q 410 2739 742 2739 
Q 864 2739 1440 2758 
L 1440 2560 
Q 1075 2560 1075 2394 
Q 1075 2368 1114 2285 
L 1830 499 
L 2483 2131 
Q 2522 2240 2522 2285 
Q 2522 2394 2448 2474 
Q 2374 2554 2214 2560 
L 2214 2758 
Q 2541 2739 2771 2739 
Q 3034 2739 3251 2758 
L 3251 2560 
Q 3059 2560 2924 2473 
Q 2790 2387 2748 2313 
Q 2707 2240 2662 2131 
L 1824 51 
Q 1773 -70 1690 -70 
Q 1632 -70 1609 -48 
Q 1587 -26 1555 51 
L 634 2323 
Q 570 2483 490 2521 
Q 410 2560 122 2560 
z
" transform="scale(0.015625)"/>
     </defs>
     <use xlink:href="#CMUSerif-Roman-64"/>
     <use xlink:href="#CMUSerif-Roman-76" x="55.499985"/>
     <use xlink:href="#CMUSerif-Roman-2f" x="108.199982"/>
     <use xlink:href="#CMUSerif-Roman-64" x="158.199966"/>
     <use xlink:href="#CMUSerif-Roman-74" x="213.699951"/>
    </g>
   </g>
  </g>
  <g id="axes_3">
   <g id="patch_8">
    <path d="M 257.834799 75.787656 
L 315.229085 75.787656 
L 315.229085 21.427656 
L 257.834799 21.427656 
z
" style="fill: #ffffff"/>
   </g>
   <g id="matplotlib.axis_5">
    <g id="xtick_5">
     <g id="line2d_33">
      <g>
       <use xlink:href="#m90bc4fafd6" x="260.44363" y="75.787656" style="stroke: #000000; stroke-width: 0.8"/>
      </g>
     </g>
     <g id="text_15">
      <!-- 0 -->
      <g transform="translate(257.69363 90.422344)scale(0.11 -0.11)">
       <use xlink:href="#CMUSerif-Roman-30"/>
      </g>
     </g>
    </g>
    <g id="xtick_6">
     <g id="line2d_34">
      <g>
       <use xlink:href="#m90bc4fafd6" x="295.251251" y="75.787656" style="stroke: #000000; stroke-width: 0.8"/>
      </g>
     </g>
     <g id="text_16">
      <!-- 1000 -->
      <g transform="translate(284.251251 90.422344)scale(0.11 -0.11)">
       <use xlink:href="#CMUSerif-Roman-31"/>
       <use xlink:href="#CMUSerif-Roman-30" x="49.999985"/>
       <use xlink:href="#CMUSerif-Roman-30" x="99.999969"/>
       <use xlink:href="#CMUSerif-Roman-30" x="149.999954"/>
      </g>
     </g>
    </g>
    <g id="text_17">
     <!-- time [ms] -->
     <g transform="translate(264.213114 104.807031)scale(0.11 -0.11)">
      <use xlink:href="#CMUSerif-Roman-74"/>
      <use xlink:href="#CMUSerif-Roman-69" x="38.799988"/>
      <use xlink:href="#CMUSerif-Roman-6d" x="66.499985"/>
      <use xlink:href="#CMUSerif-Roman-65" x="149.799973"/>
      <use xlink:href="#CMUSerif-Roman-20" x="194.199966"/>
      <use xlink:href="#CMUSerif-Roman-5b" x="227.499954"/>
      <use xlink:href="#CMUSerif-Roman-6d" x="255.299942"/>
      <use xlink:href="#CMUSerif-Roman-73" x="338.59993"/>
      <use xlink:href="#CMUSerif-Roman-5d" x="377.999924"/>
     </g>
    </g>
   </g>
   <g id="matplotlib.axis_6">
    <g id="ytick_7">
     <g id="line2d_35">
      <g>
       <use xlink:href="#m0498154b9f" x="257.834799" y="73.318086" style="stroke: #000000; stroke-width: 0.8"/>
      </g>
     </g>
     <g id="text_18">
      <!-- 0.0 -->
      <g transform="translate(236.777143 77.135429)scale(0.11 -0.11)">
       <use xlink:href="#CMUSerif-Roman-30"/>
       <use xlink:href="#CMUSerif-Roman-2e" x="49.999985"/>
       <use xlink:href="#CMUSerif-Roman-30" x="77.799973"/>
      </g>
     </g>
    </g>
    <g id="ytick_8">
     <g id="line2d_36">
      <g>
       <use xlink:href="#m0498154b9f" x="257.834799" y="23.898565" style="stroke: #000000; stroke-width: 0.8"/>
      </g>
     </g>
     <g id="text_19">
      <!-- 0.5 -->
      <g transform="translate(236.777143 27.715909)scale(0.11 -0.11)">
       <use xlink:href="#CMUSerif-Roman-30"/>
       <use xlink:href="#CMUSerif-Roman-2e" x="49.999985"/>
       <use xlink:href="#CMUSerif-Roman-35" x="77.799973"/>
      </g>
     </g>
    </g>
   </g>
   <g id="line2d_37">
    <path d="M 260.44363 23.898565 
L 260.722091 24.009029 
L 261.070167 24.413703 
L 261.592282 25.430169 
L 262.392857 27.561251 
L 265.804004 37.205001 
L 267.057078 39.843154 
L 268.275345 41.90281 
L 269.528419 43.592386 
L 270.851109 45.007367 
L 272.313029 46.242761 
L 273.948987 47.333085 
L 275.898214 48.358894 
L 278.29994 49.36152 
L 281.36301 50.389271 
L 285.400694 51.497767 
L 290.58703 52.682034 
L 296.956824 53.901632 
L 304.47527 55.108311 
L 312.620254 56.206818 
L 312.620254 56.206818 
" clip-path="url(#p48a0f265c9)" style="fill: none; stroke: #ffde00; stroke-opacity: 0.8; stroke-width: 1.5; stroke-linecap: square"/>
   </g>
   <g id="line2d_38">
    <path d="M 260.44363 23.898565 
L 260.722091 24.016439 
L 261.070167 24.450097 
L 261.557474 25.460504 
L 262.323242 27.649298 
L 266.569772 40.766844 
L 267.857653 43.628455 
L 269.145535 45.967856 
L 270.503033 47.980328 
L 271.964953 49.749464 
L 273.566103 51.338078 
L 275.3761 52.820802 
L 277.499364 54.267655 
L 280.005513 55.701656 
L 283.033776 57.170769 
L 286.618961 58.657067 
L 290.795875 60.144012 
L 295.56452 61.602284 
L 300.959701 63.014789 
L 306.981419 64.356948 
L 312.620254 65.433541 
L 312.620254 65.433541 
" clip-path="url(#p48a0f265c9)" style="fill: none; stroke: #ffc400; stroke-opacity: 0.8; stroke-width: 1.5; stroke-linecap: square"/>
   </g>
   <g id="line2d_39">
    <path d="M 260.44363 23.898565 
L 260.722091 24.023989 
L 261.070167 24.487321 
L 261.557474 25.573592 
L 262.288434 27.830182 
L 263.819969 33.500569 
L 265.664773 40.008657 
L 267.057078 44.113838 
L 268.379768 47.351267 
L 269.737265 50.09971 
L 271.164377 52.486112 
L 272.661105 54.560799 
L 274.297063 56.45029 
L 276.10706 58.19911 
L 278.125902 59.838481 
L 280.388397 61.389082 
L 282.964161 62.880975 
L 285.853193 64.293047 
L 289.090302 65.622616 
L 292.675487 66.850709 
L 296.643556 67.972272 
L 301.064124 68.987858 
L 306.041613 69.898532 
L 311.680448 70.698852 
L 312.620254 70.81255 
L 312.620254 70.81255 
" clip-path="url(#p48a0f265c9)" style="fill: none; stroke: #ffa700; stroke-opacity: 0.8; stroke-width: 1.5; stroke-linecap: square"/>
   </g>
   <g id="line2d_40">
    <path d="M 260.44363 23.898565 
L 260.687284 23.999862 
L 261.000552 24.394057 
L 261.453051 25.379444 
L 262.114396 27.437034 
L 263.263048 31.889148 
L 265.804004 41.810205 
L 267.231116 46.412999 
L 268.588614 50.059137 
L 269.946111 53.085557 
L 271.338416 55.662499 
L 272.800336 57.911564 
L 274.366679 59.915591 
L 276.037444 61.695196 
L 277.847441 63.301561 
L 279.831475 64.765989 
L 282.024355 66.105672 
L 284.460889 67.327839 
L 287.141075 68.420355 
L 290.134531 69.398088 
L 293.51087 70.263677 
L 297.374516 71.019554 
L 301.864699 71.664933 
L 307.190265 72.199203 
L 312.620254 72.566376 
L 312.620254 72.566376 
" clip-path="url(#p48a0f265c9)" style="fill: none; stroke: #ff8600; stroke-opacity: 0.8; stroke-width: 1.5; stroke-linecap: square"/>
   </g>
   <g id="line2d_41">
    <path d="M 260.44363 23.898565 
L 260.687284 24.00337 
L 261.000552 24.412051 
L 261.453051 25.436929 
L 262.114396 27.587546 
L 263.22824 32.128963 
L 265.978042 43.54385 
L 267.405154 48.4202 
L 268.762652 52.286791 
L 270.120149 55.491162 
L 271.477646 58.143691 
L 272.904758 60.449516 
L 274.401486 62.44279 
L 275.967829 64.159617 
L 277.638595 65.662777 
L 279.448591 66.990937 
L 281.432626 68.166492 
L 283.625506 69.201293 
L 286.062039 70.10107 
L 288.846649 70.885997 
L 292.04895 71.551861 
L 295.84298 72.107374 
L 300.507202 72.556225 
L 306.494112 72.897373 
L 312.620254 73.088873 
L 312.620254 73.088873 
" clip-path="url(#p48a0f265c9)" style="fill: none; stroke: #ff6800; stroke-opacity: 0.8; stroke-width: 1.5; stroke-linecap: square"/>
   </g>
   <g id="line2d_42">
    <path d="M 260.44363 23.898565 
L 260.687284 24.006052 
L 261.000552 24.425838 
L 261.453051 25.481097 
L 262.114396 27.703697 
L 263.193432 32.269016 
L 266.186888 45.239319 
L 267.614 50.271646 
L 268.93669 54.155463 
L 270.259379 57.372476 
L 271.582069 60.025777 
L 272.939566 62.26572 
L 274.366679 64.192073 
L 275.828599 65.799343 
L 277.394942 67.193863 
L 279.065707 68.386062 
L 280.910511 69.426001 
L 282.964161 70.321449 
L 285.261464 71.076864 
L 287.941651 71.718044 
L 291.143952 72.246485 
L 295.11202 72.664955 
L 300.298356 72.975662 
L 307.781994 73.183054 
L 312.620254 73.244076 
L 312.620254 73.244076 
" clip-path="url(#p48a0f265c9)" style="fill: none; stroke: #ff4700; stroke-opacity: 0.8; stroke-width: 1.5; stroke-linecap: square"/>
   </g>
   <g id="line2d_43">
    <path d="M 260.44363 23.898565 
L 260.687284 24.008087 
L 261.000552 24.436312 
L 261.453051 25.514728 
L 262.079588 27.657024 
L 263.089009 32.00876 
L 266.430541 46.918948 
L 267.822846 51.891418 
L 269.145535 55.812087 
L 270.433417 58.959361 
L 271.721299 61.543769 
L 273.043989 63.711196 
L 274.401486 65.516077 
L 275.828599 67.043572 
L 277.325326 68.320479 
L 278.926477 69.396214 
L 280.701666 70.317198 
L 282.6857 71.090606 
L 284.983003 71.738857 
L 287.697997 72.265056 
L 291.039529 72.677816 
L 295.460097 72.986123 
L 301.864699 73.189732 
L 312.620254 73.292022 
L 312.620254 73.292022 
" clip-path="url(#p48a0f265c9)" style="fill: none; stroke: #ff2900; stroke-opacity: 0.8; stroke-width: 1.5; stroke-linecap: square"/>
   </g>
   <g id="line2d_44">
    <path d="M 260.44363 23.898565 
L 260.687284 24.009622 
L 261.000552 24.444219 
L 261.453051 25.54016 
L 262.079588 27.721666 
L 263.089009 32.167151 
L 266.534964 47.914363 
L 267.892461 52.853365 
L 269.180343 56.744652 
L 270.468225 59.9413 
L 271.721299 62.480068 
L 273.009181 64.598955 
L 274.331871 66.350217 
L 275.689368 67.785249 
L 277.116481 68.977774 
L 278.682824 69.993672 
L 280.388397 70.831776 
L 282.337624 71.534335 
L 284.600119 72.104944 
L 287.349921 72.55878 
L 290.865491 72.900978 
L 295.738558 73.136274 
L 303.709503 73.27134 
L 312.620254 73.307845 
L 312.620254 73.307845 
" clip-path="url(#p48a0f265c9)" style="fill: none; stroke: #f10800; stroke-opacity: 0.8; stroke-width: 1.5; stroke-linecap: square"/>
   </g>
   <g id="line2d_45">
    <path d="M 260.44363 23.898565 
L 260.687284 24.010774 
L 261.000552 24.45016 
L 261.453051 25.559292 
L 262.079588 27.770389 
L 263.089009 32.286916 
L 266.604579 48.644315 
L 267.962076 53.644921 
L 269.249958 57.568302 
L 270.503033 60.69415 
L 271.756107 63.233721 
L 273.009181 65.282411 
L 274.297063 66.967646 
L 275.619753 68.339303 
L 277.012058 69.46974 
L 278.543593 70.422984 
L 280.214359 71.198452 
L 282.128778 71.837142 
L 284.391273 72.350085 
L 287.175883 72.745456 
L 290.865491 73.033074 
L 296.365095 73.217645 
L 306.737766 73.304112 
L 312.620254 73.313527 
L 312.620254 73.313527 
" clip-path="url(#p48a0f265c9)" style="fill: none; stroke: #cd0000; stroke-opacity: 0.8; stroke-width: 1.5; stroke-linecap: square"/>
   </g>
   <g id="line2d_46">
    <path d="M 260.44363 23.898565 
L 260.687284 24.011636 
L 261.000552 24.454608 
L 261.453051 25.573629 
L 262.079588 27.806954 
L 263.089009 32.377012 
L 266.639387 49.129698 
L 267.996884 54.185725 
L 269.284766 58.139456 
L 270.53784 61.274325 
L 271.756107 63.742081 
L 272.974374 65.729875 
L 274.227448 67.361806 
L 275.51533 68.685529 
L 276.907635 69.795967 
L 278.404363 70.700625 
L 280.075128 71.443261 
L 281.989547 72.042168 
L 284.252043 72.510722 
L 287.106268 72.866421 
L 291.039529 73.116211 
L 297.235285 73.261758 
L 311.401987 73.315102 
L 312.620254 73.31577 
L 312.620254 73.31577 
" clip-path="url(#p48a0f265c9)" style="fill: none; stroke: #a40000; stroke-opacity: 0.8; stroke-width: 1.5; stroke-linecap: square"/>
   </g>
   <g id="line2d_47">
    <path d="M 260.44363 23.898565 
L 260.687284 24.012279 
L 261.000552 24.457928 
L 261.453051 25.584341 
L 262.079588 27.834304 
L 263.054202 32.273886 
L 266.74381 49.816689 
L 268.066499 54.740525 
L 269.319574 58.591194 
L 270.53784 61.646909 
L 271.756107 64.116589 
L 272.974374 66.094087 
L 274.227448 67.705989 
L 275.51533 69.00253 
L 276.872827 70.056045 
L 278.334747 70.911907 
L 279.970705 71.611584 
L 281.885125 72.180514 
L 284.182428 72.621727 
L 287.141075 72.949972 
L 291.283182 73.168482 
L 298.314322 73.28612 
L 312.620254 73.316747 
L 312.620254 73.316747 
" clip-path="url(#p48a0f265c9)" style="fill: none; stroke: #800000; stroke-opacity: 0.8; stroke-width: 1.5; stroke-linecap: square"/>
   </g>
   <g id="patch_9">
    <path d="M 257.834799 75.787656 
L 257.834799 21.427656 
" style="fill: none; stroke: #000000; stroke-width: 0.8; stroke-linejoin: miter; stroke-linecap: square"/>
   </g>
   <g id="patch_10">
    <path d="M 257.834799 75.787656 
L 315.229085 75.787656 
" style="fill: none; stroke: #000000; stroke-width: 0.8; stroke-linejoin: miter; stroke-linecap: square"/>
   </g>
   <g id="text_20">
    <!-- dy/dt -->
    <g transform="translate(272.644442 15.427656)scale(0.11 -0.11)">
     <defs>
      <path id="CMUSerif-Roman-79" d="M 122 -794 
Q 122 -659 202 -588 
Q 282 -518 390 -518 
Q 506 -518 582 -592 
Q 659 -666 659 -787 
Q 659 -1024 410 -1056 
Q 531 -1171 710 -1171 
Q 902 -1171 1056 -1030 
Q 1210 -890 1277 -755 
Q 1344 -621 1440 -378 
Q 1530 -186 1600 0 
L 640 2336 
Q 576 2490 480 2525 
Q 384 2560 122 2560 
L 122 2758 
Q 410 2739 742 2739 
Q 941 2739 1440 2758 
L 1440 2560 
Q 1082 2560 1082 2394 
Q 1082 2374 1120 2278 
L 1830 557 
L 2477 2131 
Q 2515 2221 2515 2285 
Q 2515 2547 2214 2560 
L 2214 2758 
Q 2637 2739 2771 2739 
Q 3034 2739 3251 2758 
L 3251 2560 
Q 2822 2560 2656 2150 
L 1530 -582 
Q 1222 -1312 710 -1312 
Q 467 -1312 294 -1161 
Q 122 -1011 122 -794 
z
" transform="scale(0.015625)"/>
     </defs>
     <use xlink:href="#CMUSerif-Roman-64"/>
     <use xlink:href="#CMUSerif-Roman-79" x="55.499985"/>
     <use xlink:href="#CMUSerif-Roman-2f" x="108.199982"/>
     <use xlink:href="#CMUSerif-Roman-64" x="158.199966"/>
     <use xlink:href="#CMUSerif-Roman-74" x="213.699951"/>
    </g>
   </g>
  </g>
  <g id="axes_4">
   <g id="patch_11">
    <path d="M 372.623371 75.787656 
L 430.017656 75.787656 
L 430.017656 21.427656 
L 372.623371 21.427656 
z
" style="fill: #ffffff"/>
   </g>
   <g id="matplotlib.axis_7">
    <g id="xtick_7">
     <g id="line2d_48">
      <g>
       <use xlink:href="#m90bc4fafd6" x="375.232202" y="75.787656" style="stroke: #000000; stroke-width: 0.8"/>
      </g>
     </g>
     <g id="text_21">
      <!-- 0 -->
      <g transform="translate(372.482202 90.422344)scale(0.11 -0.11)">
       <use xlink:href="#CMUSerif-Roman-30"/>
      </g>
     </g>
    </g>
    <g id="xtick_8">
     <g id="line2d_49">
      <g>
       <use xlink:href="#m90bc4fafd6" x="410.039822" y="75.787656" style="stroke: #000000; stroke-width: 0.8"/>
      </g>
     </g>
     <g id="text_22">
      <!-- 1000 -->
      <g transform="translate(399.039822 90.422344)scale(0.11 -0.11)">
       <use xlink:href="#CMUSerif-Roman-31"/>
       <use xlink:href="#CMUSerif-Roman-30" x="49.999985"/>
       <use xlink:href="#CMUSerif-Roman-30" x="99.999969"/>
       <use xlink:href="#CMUSerif-Roman-30" x="149.999954"/>
      </g>
     </g>
    </g>
    <g id="text_23">
     <!-- time [ms] -->
     <g transform="translate(379.001685 104.807031)scale(0.11 -0.11)">
      <use xlink:href="#CMUSerif-Roman-74"/>
      <use xlink:href="#CMUSerif-Roman-69" x="38.799988"/>
      <use xlink:href="#CMUSerif-Roman-6d" x="66.499985"/>
      <use xlink:href="#CMUSerif-Roman-65" x="149.799973"/>
      <use xlink:href="#CMUSerif-Roman-20" x="194.199966"/>
      <use xlink:href="#CMUSerif-Roman-5b" x="227.499954"/>
      <use xlink:href="#CMUSerif-Roman-6d" x="255.299942"/>
      <use xlink:href="#CMUSerif-Roman-73" x="338.59993"/>
      <use xlink:href="#CMUSerif-Roman-5d" x="377.999924"/>
     </g>
    </g>
   </g>
   <g id="matplotlib.axis_8">
    <g id="ytick_9">
     <g id="line2d_50">
      <g>
       <use xlink:href="#m0498154b9f" x="372.623371" y="51.605494" style="stroke: #000000; stroke-width: 0.8"/>
      </g>
     </g>
     <g id="text_24">
      <!-- 0.001 -->
      <g transform="translate(332.008058 55.422838)scale(0.11 -0.11)">
       <defs>
        <path id="CMUSerif-Roman-2212" d="M 365 1594 
Q 365 1670 493 1670 
L 4416 1670 
Q 4422 1670 4451 1670 
Q 4480 1670 4489 1670 
Q 4499 1670 4521 1670 
Q 4544 1670 4553 1664 
Q 4563 1658 4576 1651 
Q 4589 1645 4595 1632 
Q 4602 1619 4602 1600 
Q 4602 1523 4435 1523 
L 4422 1523 
Q 4403 1523 4368 1526 
Q 4333 1530 4314 1530 
L 710 1530 
Q 685 1530 637 1526 
Q 589 1523 563 1523 
L 531 1523 
Q 365 1523 365 1594 
z
" transform="scale(0.015625)"/>
       </defs>
       <use xlink:href="#CMUSerif-Roman-2212"/>
       <use xlink:href="#CMUSerif-Roman-30" x="77.799988"/>
       <use xlink:href="#CMUSerif-Roman-2e" x="127.799973"/>
       <use xlink:href="#CMUSerif-Roman-30" x="155.59996"/>
       <use xlink:href="#CMUSerif-Roman-30" x="205.599945"/>
       <use xlink:href="#CMUSerif-Roman-31" x="255.59993"/>
      </g>
     </g>
    </g>
    <g id="ytick_10">
     <g id="line2d_51">
      <g>
       <use xlink:href="#m0498154b9f" x="372.623371" y="23.895646" style="stroke: #000000; stroke-width: 0.8"/>
      </g>
     </g>
     <g id="text_25">
      <!-- 0.000 -->
      <g transform="translate(340.565714 27.71299)scale(0.11 -0.11)">
       <use xlink:href="#CMUSerif-Roman-30"/>
       <use xlink:href="#CMUSerif-Roman-2e" x="49.999985"/>
       <use xlink:href="#CMUSerif-Roman-30" x="77.799973"/>
       <use xlink:href="#CMUSerif-Roman-30" x="127.799957"/>
       <use xlink:href="#CMUSerif-Roman-30" x="177.799942"/>
      </g>
     </g>
    </g>
   </g>
   <g id="line2d_52">
    <path d="M 375.232202 24.407968 
L 375.371432 27.826373 
L 375.963162 40.587949 
L 376.485276 47.543517 
L 376.972583 51.342603 
L 377.390274 53.060187 
L 377.73835 53.674641 
L 377.982004 53.759644 
L 378.225657 53.616011 
L 378.573733 53.095604 
L 379.095848 51.815238 
L 379.93123 49.071016 
L 382.646225 39.797119 
L 383.829684 36.69235 
L 384.943528 34.369717 
L 386.057372 32.548961 
L 387.171216 31.137457 
L 388.354675 29.989445 
L 389.642557 29.052035 
L 391.069669 28.289736 
L 392.740435 27.653253 
L 394.794085 27.116167 
L 397.509079 26.649959 
L 401.372725 26.230618 
L 407.429251 25.819047 
L 417.175385 25.398554 
L 427.408825 25.105387 
L 427.408825 25.105387 
" clip-path="url(#pb05ac1206e)" style="fill: none; stroke: #ffde00; stroke-width: 1.5; stroke-linecap: square"/>
   </g>
   <g id="line2d_53">
    <path d="M 375.232202 24.441099 
L 375.371432 28.087467 
L 375.963162 41.854901 
L 376.520084 49.944665 
L 377.00739 54.144352 
L 377.425082 56.146052 
L 377.773158 56.955423 
L 378.051619 57.162524 
L 378.295272 57.085153 
L 378.608541 56.701085 
L 379.06104 55.720906 
L 379.757192 53.593324 
L 383.725261 40.427025 
L 384.873913 37.778642 
L 386.022564 35.674543 
L 387.171216 34.019498 
L 388.389482 32.651604 
L 389.677364 31.536775 
L 391.104477 30.594661 
L 392.740435 29.783654 
L 394.689662 29.070261 
L 397.126195 28.422888 
L 400.328496 27.812995 
L 404.714256 27.216387 
L 410.840398 26.620049 
L 419.194227 26.041727 
L 427.408825 25.628256 
L 427.408825 25.628256 
" clip-path="url(#pb05ac1206e)" style="fill: none; stroke: #ffc400; stroke-width: 1.5; stroke-linecap: square"/>
   </g>
   <g id="line2d_54">
    <path d="M 375.232202 24.474772 
L 375.371432 28.353336 
L 375.963162 43.157641 
L 376.520084 52.07607 
L 377.042198 57.131975 
L 377.494697 59.579459 
L 377.877581 60.590979 
L 378.156042 60.851139 
L 378.399695 60.814068 
L 378.678156 60.524389 
L 379.095848 59.705015 
L 379.722385 57.887979 
L 380.871036 53.716255 
L 382.889878 46.486908 
L 384.17776 42.724542 
L 385.396027 39.843987 
L 386.579486 37.597651 
L 387.797753 35.749606 
L 389.085635 34.198475 
L 390.47794 32.875379 
L 392.009475 31.732947 
L 393.749856 30.718877 
L 395.768698 29.804019 
L 398.205231 28.948924 
L 401.233494 28.130577 
L 405.027525 27.346303 
L 409.726554 26.610543 
L 415.504619 25.938601 
L 422.535758 25.351824 
L 427.408825 25.051001 
L 427.408825 25.051001 
" clip-path="url(#pb05ac1206e)" style="fill: none; stroke: #ffa700; stroke-width: 1.5; stroke-linecap: square"/>
   </g>
   <g id="line2d_55">
    <path d="M 375.232202 24.501094 
L 375.371432 28.56152 
L 375.997969 44.916867 
L 376.554891 54.239332 
L 377.077006 59.635434 
L 377.529505 62.334477 
L 377.912388 63.522417 
L 378.225657 63.909341 
L 378.46931 63.916365 
L 378.747771 63.666651 
L 379.130655 62.966485 
L 379.687577 61.420428 
L 380.627383 58.032308 
L 383.481608 47.404633 
L 384.76949 43.600352 
L 386.022564 40.573438 
L 387.275638 38.118703 
L 388.56352 36.080051 
L 389.921018 34.348508 
L 391.34813 32.8825 
L 392.914473 31.588054 
L 394.689662 30.414892 
L 396.708504 29.355536 
L 399.040614 28.3912 
L 401.755609 27.515724 
L 404.95791 26.723195 
L 408.75194 26.019856 
L 413.276931 25.413396 
L 418.776535 24.907702 
L 425.703252 24.504393 
L 427.408825 24.433543 
L 427.408825 24.433543 
" clip-path="url(#pb05ac1206e)" style="fill: none; stroke: #ff8600; stroke-width: 1.5; stroke-linecap: square"/>
   </g>
   <g id="line2d_56">
    <path d="M 375.232202 24.521401 
L 375.371432 28.722352 
L 375.997969 45.752858 
L 376.589699 56.081755 
L 377.111813 61.709386 
L 377.59912 64.743312 
L 377.982004 65.976585 
L 378.295272 66.395288 
L 378.538926 66.422002 
L 378.817387 66.188211 
L 379.20027 65.497187 
L 379.757192 63.936589 
L 380.627383 60.731418 
L 384.073337 47.405587 
L 385.396027 43.44438 
L 386.683909 40.276254 
L 387.971791 37.688008 
L 389.29448 35.522201 
L 390.686785 33.67092 
L 392.148705 32.096774 
L 393.715048 30.734596 
L 395.420622 29.543192 
L 397.335041 28.480056 
L 399.493113 27.541515 
L 401.964454 26.716062 
L 404.818679 26.002904 
L 408.195018 25.394681 
L 412.302318 24.889664 
L 417.453846 24.490974 
L 424.310947 24.197081 
L 427.408825 24.117738 
L 427.408825 24.117738 
" clip-path="url(#pb05ac1206e)" style="fill: none; stroke: #ff6800; stroke-width: 1.5; stroke-linecap: square"/>
   </g>
   <g id="line2d_57">
    <path d="M 375.232202 24.536909 
L 375.371432 28.845321 
L 375.997969 46.39576 
L 376.589699 57.159157 
L 377.111813 63.116001 
L 377.59912 66.405174 
L 378.016811 67.885025 
L 378.33008 68.357643 
L 378.573733 68.417826 
L 378.817387 68.252583 
L 379.165463 67.694263 
L 379.65277 66.424185 
L 380.38373 63.822675 
L 381.915265 57.322856 
L 383.760069 49.836693 
L 385.152374 45.09765 
L 386.475063 41.372215 
L 387.762945 38.391607 
L 389.050827 35.947819 
L 390.373517 33.895734 
L 391.765822 32.139239 
L 393.227742 30.649147 
L 394.794085 29.369139 
L 396.499658 28.264744 
L 398.379269 27.31551 
L 400.502534 26.49751 
L 402.939068 25.803062 
L 405.8281 25.219721 
L 409.34367 24.747311 
L 413.799045 24.383781 
L 419.890379 24.12424 
L 427.408825 23.985591 
L 427.408825 23.985591 
" clip-path="url(#pb05ac1206e)" style="fill: none; stroke: #ff4700; stroke-width: 1.5; stroke-linecap: square"/>
   </g>
   <g id="line2d_58">
    <path d="M 375.232202 24.548663 
L 375.371432 28.938601 
L 375.997969 46.885622 
L 376.589699 57.984036 
L 377.146621 64.513727 
L 377.633928 67.866637 
L 378.051619 69.395041 
L 378.399695 69.923638 
L 378.643349 69.96606 
L 378.887002 69.78302 
L 379.235078 69.197358 
L 379.722385 67.882064 
L 380.453345 65.19207 
L 381.915265 58.740794 
L 383.899299 50.261331 
L 385.291604 45.256879 
L 386.614294 41.305126 
L 387.902176 38.137867 
L 389.190058 35.544387 
L 390.512747 33.376652 
L 391.870244 31.577877 
L 393.262549 30.093939 
L 394.759277 28.823088 
L 396.360427 27.755818 
L 398.135616 26.844734 
L 400.11965 26.081683 
L 402.416953 25.443626 
L 405.131948 24.926787 
L 408.508287 24.518842 
L 412.963663 24.216882 
L 419.472688 24.01789 
L 427.408825 23.933434 
L 427.408825 23.933434 
" clip-path="url(#pb05ac1206e)" style="fill: none; stroke: #ff2900; stroke-width: 1.5; stroke-linecap: square"/>
   </g>
   <g id="line2d_59">
    <path d="M 375.232202 24.557522 
L 375.371432 29.008939 
L 375.997969 47.256257 
L 376.589699 58.610463 
L 377.146621 65.350036 
L 377.633928 68.857084 
L 378.051619 70.492994 
L 378.399695 71.092803 
L 378.643349 71.174954 
L 378.887002 71.023331 
L 379.20027 70.539656 
L 379.65277 69.385788 
L 380.314114 67.020956 
L 381.462766 61.930439 
L 384.108145 50.06191 
L 385.50045 44.897578 
L 386.823139 40.822299 
L 388.111021 37.563764 
L 389.364096 34.972627 
L 390.651978 32.808463 
L 391.974667 31.018994 
L 393.332164 29.552264 
L 394.759277 28.333201 
L 396.290812 27.314808 
L 397.996386 26.452844 
L 399.910805 25.741172 
L 402.138492 25.158266 
L 404.818679 24.695349 
L 408.229826 24.342829 
L 412.928855 24.096434 
L 420.412493 23.95174 
L 427.408825 23.912725 
L 427.408825 23.912725 
" clip-path="url(#pb05ac1206e)" style="fill: none; stroke: #f10800; stroke-width: 1.5; stroke-linecap: square"/>
   </g>
   <g id="line2d_60">
    <path d="M 375.232202 24.564168 
L 375.371432 29.06174 
L 375.997969 47.535196 
L 376.589699 59.083243 
L 377.146621 65.982989 
L 377.633928 69.608467 
L 378.051619 71.327436 
L 378.399695 71.982471 
L 378.678156 72.091169 
L 378.921809 71.932526 
L 379.235078 71.437104 
L 379.687577 70.259517 
L 380.348922 67.8437 
L 381.462766 62.787778 
L 384.282183 49.753923 
L 385.674488 44.469582 
L 386.96237 40.409172 
L 388.215444 37.159307 
L 389.468519 34.509722 
L 390.721593 32.366198 
L 392.009475 30.598719 
L 393.332164 29.157127 
L 394.724469 27.966874 
L 396.221197 26.98139 
L 397.857155 26.171745 
L 399.701959 25.508269 
L 401.894839 24.964603 
L 404.575026 24.541173 
L 408.055788 24.230211 
L 413.068085 24.025107 
L 421.909221 23.919779 
L 427.408825 23.904148 
L 427.408825 23.904148 
" clip-path="url(#pb05ac1206e)" style="fill: none; stroke: #cd0000; stroke-width: 1.5; stroke-linecap: square"/>
   </g>
   <g id="line2d_61">
    <path d="M 375.232202 24.56914 
L 375.371432 29.101242 
L 375.997969 47.744283 
L 376.589699 59.438392 
L 377.146621 66.45948 
L 377.633928 70.175146 
L 378.051619 71.957647 
L 378.399695 72.655057 
L 378.678156 72.79046 
L 378.921809 72.649867 
L 379.235078 72.170389 
L 379.687577 71.001797 
L 380.348922 68.571441 
L 381.427958 63.600895 
L 384.456221 49.282428 
L 385.848526 43.934013 
L 387.136408 39.840078 
L 388.389482 36.578768 
L 389.607749 34.001653 
L 390.826016 31.919048 
L 392.07909 30.204404 
L 393.366972 28.810033 
L 394.724469 27.663285 
L 396.186389 26.719013 
L 397.78754 25.949196 
L 399.632344 25.314991 
L 401.790416 24.814349 
L 404.470603 24.42903 
L 408.055788 24.15218 
L 413.450969 23.980286 
L 424.171716 23.904852 
L 427.408825 23.900363 
L 427.408825 23.900363 
" clip-path="url(#pb05ac1206e)" style="fill: none; stroke: #a40000; stroke-width: 1.5; stroke-linecap: square"/>
   </g>
   <g id="line2d_62">
    <path d="M 375.232202 24.572849 
L 375.371432 29.130721 
L 375.997969 47.900543 
L 376.589699 59.704237 
L 377.146621 66.816735 
L 377.633928 70.600617 
L 378.086427 72.534191 
L 378.434503 73.199753 
L 378.712964 73.312721 
L 378.956617 73.153906 
L 379.269886 72.652041 
L 379.722385 71.45154 
L 380.38373 68.972158 
L 381.462766 63.910197 
L 384.560644 48.999906 
L 385.918141 43.708144 
L 387.206023 39.553851 
L 388.42429 36.338727 
L 389.642557 33.729313 
L 390.860823 31.632407 
L 392.07909 29.960108 
L 393.366972 28.567705 
L 394.689662 27.458692 
L 396.116774 26.547448 
L 397.717925 25.793395 
L 399.527921 25.191308 
L 401.685993 24.714355 
L 404.400988 24.352849 
L 408.090596 24.101303 
L 413.903468 23.953343 
L 426.991134 23.898841 
L 427.408825 23.898565 
L 427.408825 23.898565 
" clip-path="url(#pb05ac1206e)" style="fill: none; stroke: #800000; stroke-width: 1.5; stroke-linecap: square"/>
   </g>
   <g id="patch_12">
    <path d="M 372.623371 75.787656 
L 372.623371 21.427656 
" style="fill: none; stroke: #000000; stroke-width: 0.8; stroke-linejoin: miter; stroke-linecap: square"/>
   </g>
   <g id="patch_13">
    <path d="M 372.623371 75.787656 
L 430.017656 75.787656 
" style="fill: none; stroke: #000000; stroke-width: 0.8; stroke-linejoin: miter; stroke-linecap: square"/>
   </g>
   <g id="text_26">
    <!-- gradient -->
    <g transform="translate(381.465513 15.427656)scale(0.11 -0.11)">
     <defs>
      <path id="CMUSerif-Roman-67" d="M 179 -506 
Q 179 -301 336 -121 
Q 493 58 768 134 
Q 486 314 486 704 
Q 486 1005 685 1235 
Q 384 1485 384 1894 
Q 384 2272 685 2550 
Q 986 2829 1421 2829 
Q 1805 2829 2099 2598 
Q 2406 2899 2778 2899 
Q 2944 2899 3024 2796 
Q 3104 2694 3104 2586 
Q 3104 2490 3043 2442 
Q 2982 2394 2918 2394 
Q 2842 2394 2787 2445 
Q 2733 2496 2733 2579 
Q 2733 2714 2835 2752 
Q 2816 2758 2771 2758 
Q 2458 2758 2195 2509 
Q 2458 2266 2458 1888 
Q 2458 1510 2157 1232 
Q 1856 954 1421 954 
Q 1062 954 787 1152 
Q 678 1024 678 851 
Q 678 691 774 566 
Q 870 442 1018 422 
Q 1062 416 1498 416 
Q 1754 416 1894 409 
Q 2035 403 2236 361 
Q 2438 320 2598 237 
Q 3014 6 3014 -493 
Q 3014 -858 2595 -1088 
Q 2176 -1318 1594 -1318 
Q 1005 -1318 592 -1084 
Q 179 -851 179 -506 
z
M 512 -506 
Q 512 -768 822 -969 
Q 1133 -1171 1600 -1171 
Q 2061 -1171 2371 -972 
Q 2682 -774 2682 -506 
Q 2682 -314 2573 -192 
Q 2464 -70 2240 -22 
Q 2016 26 1859 35 
Q 1702 45 1414 45 
L 1037 45 
Q 819 32 665 -128 
Q 512 -288 512 -506 
z
M 864 1888 
Q 864 1101 1421 1101 
Q 1702 1101 1875 1357 
Q 1978 1530 1978 1894 
Q 1978 2682 1421 2682 
Q 1139 2682 966 2426 
Q 864 2253 864 1888 
z
" transform="scale(0.015625)"/>
      <path id="CMUSerif-Roman-72" d="M 179 0 
L 179 198 
Q 518 198 598 240 
Q 678 282 678 486 
L 678 2202 
Q 678 2438 595 2499 
Q 512 2560 179 2560 
L 179 2758 
L 1069 2829 
L 1069 2125 
Q 1158 2400 1350 2614 
Q 1542 2829 1856 2829 
Q 2061 2829 2195 2713 
Q 2330 2598 2330 2438 
Q 2330 2298 2243 2227 
Q 2157 2157 2054 2157 
Q 1939 2157 1859 2230 
Q 1779 2304 1779 2432 
Q 1779 2509 1814 2569 
Q 1850 2630 1878 2652 
Q 1907 2675 1926 2682 
Q 1914 2688 1856 2688 
Q 1504 2688 1302 2336 
Q 1101 1984 1101 1485 
L 1101 499 
Q 1101 314 1177 256 
Q 1254 198 1587 198 
L 1722 198 
L 1722 0 
Q 1466 19 909 19 
Q 832 19 710 16 
Q 589 13 429 6 
Q 269 0 179 0 
z
" transform="scale(0.015625)"/>
      <path id="CMUSerif-Roman-61" d="M 269 608 
Q 269 1152 909 1440 
Q 1293 1626 2086 1670 
L 2086 1907 
Q 2086 2304 1878 2515 
Q 1670 2726 1408 2726 
Q 941 2726 717 2432 
Q 909 2426 976 2330 
Q 1043 2234 1043 2138 
Q 1043 2010 963 1926 
Q 883 1843 749 1843 
Q 621 1843 537 1923 
Q 454 2003 454 2144 
Q 454 2458 736 2662 
Q 1018 2867 1421 2867 
Q 1946 2867 2298 2515 
Q 2406 2406 2460 2265 
Q 2515 2125 2521 2032 
Q 2528 1939 2528 1760 
L 2528 480 
Q 2528 442 2541 381 
Q 2554 320 2611 240 
Q 2669 160 2765 160 
Q 2995 160 2995 570 
L 2995 928 
L 3155 928 
L 3155 570 
Q 3155 230 2976 96 
Q 2797 -38 2630 -38 
Q 2419 -38 2284 118 
Q 2150 275 2131 486 
Q 2035 243 1814 86 
Q 1594 -70 1293 -70 
Q 1062 -70 844 -12 
Q 627 45 448 205 
Q 269 365 269 608 
z
M 762 614 
Q 762 378 931 224 
Q 1101 70 1338 70 
Q 1606 70 1846 278 
Q 2086 486 2086 896 
L 2086 1536 
Q 1376 1510 1069 1228 
Q 762 947 762 614 
z
" transform="scale(0.015625)"/>
      <path id="CMUSerif-Roman-6e" d="M 205 0 
L 205 198 
Q 544 198 624 240 
Q 704 282 704 486 
L 704 2202 
Q 704 2438 621 2499 
Q 538 2560 205 2560 
L 205 2758 
L 1107 2829 
L 1107 2157 
Q 1408 2829 2054 2829 
Q 2534 2829 2726 2592 
Q 2867 2432 2896 2253 
Q 2925 2074 2925 1613 
L 2925 390 
Q 2931 256 3033 227 
Q 3136 198 3424 198 
L 3424 0 
Q 2771 19 2707 19 
Q 2656 19 1984 0 
L 1984 198 
Q 2323 198 2403 240 
Q 2483 282 2483 486 
L 2483 1978 
Q 2483 2304 2384 2496 
Q 2285 2688 2010 2688 
Q 1677 2688 1411 2409 
Q 1146 2131 1146 1664 
L 1146 486 
Q 1146 282 1226 240 
Q 1306 198 1645 198 
L 1645 0 
Q 992 19 928 19 
Q 877 19 205 0 
z
" transform="scale(0.015625)"/>
     </defs>
     <use xlink:href="#CMUSerif-Roman-67"/>
     <use xlink:href="#CMUSerif-Roman-72" x="49.999985"/>
     <use xlink:href="#CMUSerif-Roman-61" x="89.099976"/>
     <use xlink:href="#CMUSerif-Roman-64" x="139.09996"/>
     <use xlink:href="#CMUSerif-Roman-69" x="194.599945"/>
     <use xlink:href="#CMUSerif-Roman-65" x="222.299942"/>
     <use xlink:href="#CMUSerif-Roman-6e" x="266.699936"/>
     <use xlink:href="#CMUSerif-Roman-74" x="322.199921"/>
    </g>
   </g>
   <g id="legend_1">
    <g id="text_27">
     <!-- Input I -->
     <g transform="translate(431.507719 19.972344)scale(0.11 -0.11)">
      <defs>
       <path id="CMUSerif-Roman-49" d="M 179 0 
L 179 198 
L 346 198 
Q 704 198 787 256 
Q 870 314 870 499 
L 870 3872 
Q 870 4058 787 4115 
Q 704 4173 346 4173 
L 179 4173 
L 179 4371 
Q 403 4352 1158 4352 
Q 1907 4352 2131 4371 
L 2131 4173 
L 1965 4173 
Q 1606 4173 1523 4115 
Q 1440 4058 1440 3872 
L 1440 499 
Q 1440 314 1523 256 
Q 1606 198 1965 198 
L 2131 198 
L 2131 0 
Q 1907 19 1152 19 
Q 403 19 179 0 
z
" transform="scale(0.015625)"/>
       <path id="CMUSerif-Roman-70" d="M 179 -1043 
Q 518 -1043 598 -1001 
Q 678 -960 678 -755 
L 678 2240 
Q 678 2451 598 2505 
Q 518 2560 179 2560 
L 179 2758 
L 1101 2829 
L 1101 2406 
Q 1485 2829 1997 2829 
Q 2541 2829 2937 2406 
Q 3334 1984 3334 1382 
Q 3334 774 2912 352 
Q 2490 -70 1907 -70 
Q 1587 -70 1372 93 
Q 1158 256 1120 378 
L 1120 320 
L 1120 -755 
Q 1120 -960 1200 -1001 
Q 1280 -1043 1619 -1043 
L 1619 -1242 
Q 947 -1222 896 -1222 
Q 832 -1222 179 -1242 
L 179 -1043 
z
M 1120 730 
Q 1120 634 1133 598 
Q 1146 563 1210 461 
Q 1466 70 1882 70 
Q 2246 70 2524 444 
Q 2803 819 2803 1382 
Q 2803 1920 2550 2294 
Q 2298 2669 1946 2669 
Q 1696 2669 1478 2534 
Q 1261 2400 1120 2157 
L 1120 730 
z
" transform="scale(0.015625)"/>
      </defs>
      <use xlink:href="#CMUSerif-Roman-49"/>
      <use xlink:href="#CMUSerif-Roman-6e" x="36.099991"/>
      <use xlink:href="#CMUSerif-Roman-70" x="91.599976"/>
      <use xlink:href="#CMUSerif-Roman-75" x="147.09996"/>
      <use xlink:href="#CMUSerif-Roman-74" x="202.599945"/>
      <use xlink:href="#CMUSerif-Roman-20" x="241.399933"/>
      <use xlink:href="#CMUSerif-Roman-49" x="274.699921"/>
     </g>
    </g>
    <g id="line2d_63">
     <path d="M 437.155766 26.357031 
L 442.155766 26.357031 
L 447.155766 26.357031 
" style="fill: none; stroke: #ffde00; stroke-width: 1.5; stroke-linecap: square"/>
    </g>
    <g id="text_28">
     <!-- 1.01 -->
     <g transform="translate(451.155766 28.107031)scale(0.05 -0.05)">
      <use xlink:href="#CMUSerif-Roman-31"/>
      <use xlink:href="#CMUSerif-Roman-2e" x="49.999985"/>
      <use xlink:href="#CMUSerif-Roman-30" x="77.799973"/>
      <use xlink:href="#CMUSerif-Roman-31" x="127.799957"/>
     </g>
    </g>
    <g id="line2d_64">
     <path d="M 437.155766 33.327344 
L 442.155766 33.327344 
L 447.155766 33.327344 
" style="fill: none; stroke: #ffc400; stroke-width: 1.5; stroke-linecap: square"/>
    </g>
    <g id="text_29">
     <!-- 1.05 -->
     <g transform="translate(451.155766 35.077344)scale(0.05 -0.05)">
      <use xlink:href="#CMUSerif-Roman-31"/>
      <use xlink:href="#CMUSerif-Roman-2e" x="49.999985"/>
      <use xlink:href="#CMUSerif-Roman-30" x="77.799973"/>
      <use xlink:href="#CMUSerif-Roman-35" x="127.799957"/>
     </g>
    </g>
    <g id="line2d_65">
     <path d="M 437.155766 40.297656 
L 442.155766 40.297656 
L 447.155766 40.297656 
" style="fill: none; stroke: #ffa700; stroke-width: 1.5; stroke-linecap: square"/>
    </g>
    <g id="text_30">
     <!-- 1.1 -->
     <g transform="translate(451.155766 42.047656)scale(0.05 -0.05)">
      <use xlink:href="#CMUSerif-Roman-31"/>
      <use xlink:href="#CMUSerif-Roman-2e" x="49.999985"/>
      <use xlink:href="#CMUSerif-Roman-31" x="77.799973"/>
     </g>
    </g>
    <g id="line2d_66">
     <path d="M 437.155766 47.267969 
L 442.155766 47.267969 
L 447.155766 47.267969 
" style="fill: none; stroke: #ff8600; stroke-width: 1.5; stroke-linecap: square"/>
    </g>
    <g id="text_31">
     <!-- 1.15 -->
     <g transform="translate(451.155766 49.017969)scale(0.05 -0.05)">
      <use xlink:href="#CMUSerif-Roman-31"/>
      <use xlink:href="#CMUSerif-Roman-2e" x="49.999985"/>
      <use xlink:href="#CMUSerif-Roman-31" x="77.799973"/>
      <use xlink:href="#CMUSerif-Roman-35" x="127.799957"/>
     </g>
    </g>
    <g id="line2d_67">
     <path d="M 437.155766 54.238281 
L 442.155766 54.238281 
L 447.155766 54.238281 
" style="fill: none; stroke: #ff6800; stroke-width: 1.5; stroke-linecap: square"/>
    </g>
    <g id="text_32">
     <!-- 1.2 -->
     <g transform="translate(451.155766 55.988281)scale(0.05 -0.05)">
      <use xlink:href="#CMUSerif-Roman-31"/>
      <use xlink:href="#CMUSerif-Roman-2e" x="49.999985"/>
      <use xlink:href="#CMUSerif-Roman-32" x="77.799973"/>
     </g>
    </g>
    <g id="line2d_68">
     <path d="M 437.155766 61.208594 
L 442.155766 61.208594 
L 447.155766 61.208594 
" style="fill: none; stroke: #ff4700; stroke-width: 1.5; stroke-linecap: square"/>
    </g>
    <g id="text_33">
     <!-- 1.25 -->
     <g transform="translate(451.155766 62.958594)scale(0.05 -0.05)">
      <use xlink:href="#CMUSerif-Roman-31"/>
      <use xlink:href="#CMUSerif-Roman-2e" x="49.999985"/>
      <use xlink:href="#CMUSerif-Roman-32" x="77.799973"/>
      <use xlink:href="#CMUSerif-Roman-35" x="127.799957"/>
     </g>
    </g>
    <g id="line2d_69">
     <path d="M 437.155766 68.178906 
L 442.155766 68.178906 
L 447.155766 68.178906 
" style="fill: none; stroke: #ff2900; stroke-width: 1.5; stroke-linecap: square"/>
    </g>
    <g id="text_34">
     <!-- 1.3 -->
     <g transform="translate(451.155766 69.928906)scale(0.05 -0.05)">
      <defs>
       <path id="CMUSerif-Roman-33" d="M 269 864 
Q 269 1056 377 1145 
Q 486 1235 627 1235 
Q 774 1235 880 1139 
Q 986 1043 986 877 
Q 986 698 861 598 
Q 736 499 563 525 
Q 717 269 998 153 
Q 1280 38 1542 38 
Q 1818 38 2042 275 
Q 2266 512 2266 1094 
Q 2266 1587 2074 1872 
Q 1882 2157 1504 2157 
L 1222 2157 
Q 1126 2157 1097 2166 
Q 1069 2176 1069 2227 
Q 1069 2291 1165 2304 
Q 1261 2304 1414 2323 
Q 1786 2336 1984 2656 
Q 2163 2957 2163 3386 
Q 2163 3776 1977 3939 
Q 1792 4102 1549 4102 
Q 1325 4102 1078 4009 
Q 832 3917 698 3706 
Q 1094 3706 1094 3386 
Q 1094 3245 1004 3152 
Q 915 3059 768 3059 
Q 627 3059 534 3148 
Q 442 3238 442 3392 
Q 442 3757 768 4009 
Q 1094 4262 1574 4262 
Q 2048 4262 2400 4012 
Q 2752 3763 2752 3379 
Q 2752 3002 2502 2691 
Q 2253 2381 1856 2253 
Q 2342 2157 2633 1827 
Q 2925 1498 2925 1094 
Q 2925 595 2531 227 
Q 2138 -141 1562 -141 
Q 1030 -141 649 147 
Q 269 435 269 864 
z
" transform="scale(0.015625)"/>
      </defs>
      <use xlink:href="#CMUSerif-Roman-31"/>
      <use xlink:href="#CMUSerif-Roman-2e" x="49.999985"/>
      <use xlink:href="#CMUSerif-Roman-33" x="77.799973"/>
     </g>
    </g>
    <g id="line2d_70">
     <path d="M 437.155766 75.149219 
L 442.155766 75.149219 
L 447.155766 75.149219 
" style="fill: none; stroke: #f10800; stroke-width: 1.5; stroke-linecap: square"/>
    </g>
    <g id="text_35">
     <!-- 1.35 -->
     <g transform="translate(451.155766 76.899219)scale(0.05 -0.05)">
      <use xlink:href="#CMUSerif-Roman-31"/>
      <use xlink:href="#CMUSerif-Roman-2e" x="49.999985"/>
      <use xlink:href="#CMUSerif-Roman-33" x="77.799973"/>
      <use xlink:href="#CMUSerif-Roman-35" x="127.799957"/>
     </g>
    </g>
    <g id="line2d_71">
     <path d="M 437.155766 82.119531 
L 442.155766 82.119531 
L 447.155766 82.119531 
" style="fill: none; stroke: #cd0000; stroke-width: 1.5; stroke-linecap: square"/>
    </g>
    <g id="text_36">
     <!-- 1.4 -->
     <g transform="translate(451.155766 83.869531)scale(0.05 -0.05)">
      <defs>
       <path id="CMUSerif-Roman-34" d="M 179 1056 
L 179 1254 
L 2144 4256 
Q 2195 4333 2272 4333 
Q 2342 4333 2358 4304 
Q 2374 4275 2374 4166 
L 2374 1254 
L 3014 1254 
L 3014 1056 
L 2374 1056 
L 2374 499 
Q 2374 314 2451 256 
Q 2528 198 2861 198 
L 2995 198 
L 2995 0 
Q 2733 19 2125 19 
Q 1523 19 1261 0 
L 1261 198 
L 1395 198 
Q 1728 198 1805 256 
Q 1882 314 1882 499 
L 1882 1056 
L 179 1056 
z
M 358 1254 
L 1920 1254 
L 1920 3642 
L 358 1254 
z
" transform="scale(0.015625)"/>
      </defs>
      <use xlink:href="#CMUSerif-Roman-31"/>
      <use xlink:href="#CMUSerif-Roman-2e" x="49.999985"/>
      <use xlink:href="#CMUSerif-Roman-34" x="77.799973"/>
     </g>
    </g>
    <g id="line2d_72">
     <path d="M 437.155766 89.089844 
L 442.155766 89.089844 
L 447.155766 89.089844 
" style="fill: none; stroke: #a40000; stroke-width: 1.5; stroke-linecap: square"/>
    </g>
    <g id="text_37">
     <!-- 1.45 -->
     <g transform="translate(451.155766 90.839844)scale(0.05 -0.05)">
      <use xlink:href="#CMUSerif-Roman-31"/>
      <use xlink:href="#CMUSerif-Roman-2e" x="49.999985"/>
      <use xlink:href="#CMUSerif-Roman-34" x="77.799973"/>
      <use xlink:href="#CMUSerif-Roman-35" x="127.799957"/>
     </g>
    </g>
    <g id="line2d_73">
     <path d="M 437.155766 96.060156 
L 442.155766 96.060156 
L 447.155766 96.060156 
" style="fill: none; stroke: #800000; stroke-width: 1.5; stroke-linecap: square"/>
    </g>
    <g id="text_38">
     <!-- 1.5 -->
     <g transform="translate(451.155766 97.810156)scale(0.05 -0.05)">
      <use xlink:href="#CMUSerif-Roman-31"/>
      <use xlink:href="#CMUSerif-Roman-2e" x="49.999985"/>
      <use xlink:href="#CMUSerif-Roman-35" x="77.799973"/>
     </g>
    </g>
   </g>
  </g>
 </g>
 <defs>
  <clipPath id="p15f1d8be99">
   <rect x="28.257656" y="21.427656" width="57.394286" height="54.36"/>
  </clipPath>
  <clipPath id="pd09c3e1175">
   <rect x="143.046228" y="21.427656" width="57.394286" height="54.36"/>
  </clipPath>
  <clipPath id="p48a0f265c9">
   <rect x="257.834799" y="21.427656" width="57.394286" height="54.36"/>
  </clipPath>
  <clipPath id="pb05ac1206e">
   <rect x="372.623371" y="21.427656" width="57.394286" height="54.36"/>
  </clipPath>
 </defs>
</svg>
