<?xml version="1.0" encoding="utf-8" standalone="no"?>
<!DOCTYPE svg PUBLIC "-//W3C//DTD SVG 1.1//EN"
  "http://www.w3.org/Graphics/SVG/1.1/DTD/svg11.dtd">
<svg xmlns:xlink="http://www.w3.org/1999/xlink" width="480.578505pt" height="115.898945pt" viewBox="0 0 480.578505 115.898945" xmlns="http://www.w3.org/2000/svg" version="1.1">
 <metadata>
  <rdf:RDF xmlns:dc="http://purl.org/dc/elements/1.1/" xmlns:cc="http://creativecommons.org/ns#" xmlns:rdf="http://www.w3.org/1999/02/22-rdf-syntax-ns#">
   <cc:Work>
    <dc:type rdf:resource="http://purl.org/dc/dcmitype/StillImage"/>
    <dc:date>2022-10-26T14:09:39.488745</dc:date>
    <dc:format>image/svg+xml</dc:format>
    <dc:creator>
     <cc:Agent>
      <dc:title>Matplotlib v3.5.1, https://matplotlib.org/</dc:title>
     </cc:Agent>
    </dc:creator>
   </cc:Work>
  </rdf:RDF>
 </metadata>
 <defs>
  <style type="text/css">*{stroke-linejoin: round; stroke-linecap: butt}</style>
 </defs>
 <g id="figure_1">
  <g id="patch_1">
   <path d="M 0 115.898945 
L 480.578505 115.898945 
L 480.578505 0 
L 0 0 
L 0 115.898945 
z
" style="fill: none"/>
  </g>
  <g id="axes_1">
   <g id="patch_2">
    <path d="M 28.203076 76.9988 
L 85.597362 76.9988 
L 85.597362 22.6388 
L 28.203076 22.6388 
z
" style="fill: #ffffff"/>
   </g>
   <g id="matplotlib.axis_1">
    <g id="xtick_1">
     <g id="line2d_1">
      <defs>
       <path id="m8792437865" d="M 0 0 
L 0 3.5 
" style="stroke: #000000; stroke-width: 0.8"/>
      </defs>
      <g>
       <use xlink:href="#m8792437865" x="30.811907" y="76.9988" style="stroke: #000000; stroke-width: 0.8"/>
      </g>
     </g>
     <g id="text_1">
      <!-- $\mathdefault{0}$ -->
      <g transform="translate(28.072174 91.609147)scale(0.11 -0.11)">
       <defs>
        <path id="CMR17-30" d="M 2688 2025 
C 2688 2416 2682 3080 2413 3591 
C 2176 4039 1798 4198 1466 4198 
C 1158 4198 768 4058 525 3597 
C 269 3118 243 2524 243 2025 
C 243 1661 250 1106 448 619 
C 723 -39 1216 -128 1466 -128 
C 1760 -128 2208 -7 2470 600 
C 2662 1042 2688 1559 2688 2025 
z
M 1466 -26 
C 1056 -26 813 325 723 812 
C 653 1188 653 1738 653 2096 
C 653 2588 653 2997 736 3387 
C 858 3929 1216 4096 1466 4096 
C 1728 4096 2067 3923 2189 3400 
C 2272 3036 2278 2607 2278 2096 
C 2278 1680 2278 1169 2202 792 
C 2067 95 1690 -26 1466 -26 
z
" transform="scale(0.015625)"/>
       </defs>
       <use xlink:href="#CMR17-30" transform="scale(0.996264)"/>
      </g>
     </g>
    </g>
    <g id="xtick_2">
     <g id="line2d_2">
      <g>
       <use xlink:href="#m8792437865" x="65.619528" y="76.9988" style="stroke: #000000; stroke-width: 0.8"/>
      </g>
     </g>
     <g id="text_2">
      <!-- $\mathdefault{1000}$ -->
      <g transform="translate(54.660594 91.609147)scale(0.11 -0.11)">
       <defs>
        <path id="CMR17-31" d="M 1702 4058 
C 1702 4192 1696 4192 1606 4192 
C 1357 3916 979 3827 621 3827 
C 602 3827 570 3827 563 3808 
C 557 3795 557 3782 557 3648 
C 755 3648 1088 3686 1344 3839 
L 1344 461 
C 1344 236 1331 160 781 160 
L 589 160 
L 589 0 
C 896 0 1216 0 1523 0 
C 1830 0 2150 0 2458 0 
L 2458 160 
L 2266 160 
C 1715 160 1702 230 1702 458 
L 1702 4058 
z
" transform="scale(0.015625)"/>
       </defs>
       <use xlink:href="#CMR17-31" transform="scale(0.996264)"/>
       <use xlink:href="#CMR17-30" transform="translate(45.690477 0)scale(0.996264)"/>
       <use xlink:href="#CMR17-30" transform="translate(91.380954 0)scale(0.996264)"/>
       <use xlink:href="#CMR17-30" transform="translate(137.071431 0)scale(0.996264)"/>
      </g>
     </g>
    </g>
    <g id="text_3">
     <!-- time [ms] -->
     <g transform="translate(34.647516 105.959219)scale(0.11 -0.11)">
      <defs>
       <path id="CMR17-74" d="M 966 2560 
L 1862 2560 
L 1862 2725 
L 966 2725 
L 966 3904 
L 851 3904 
C 838 3245 614 2668 70 2668 
L 70 2560 
L 627 2560 
L 627 771 
C 627 650 627 -64 1370 -64 
C 1747 -64 1965 306 1965 777 
L 1965 1140 
L 1850 1140 
L 1850 783 
C 1850 344 1677 51 1408 51 
C 1222 51 966 178 966 758 
L 966 2560 
z
" transform="scale(0.015625)"/>
       <path id="CMR17-69" d="M 992 3909 
C 992 4049 877 4170 730 4170 
C 589 4170 467 4056 467 3909 
C 467 3769 582 3648 730 3648 
C 870 3648 992 3763 992 3909 
z
M 243 2706 
L 243 2541 
C 602 2541 653 2502 653 2197 
L 653 427 
C 653 184 627 153 218 153 
L 218 -13 
C 371 0 646 0 806 0 
C 960 0 1222 0 1370 -13 
L 1370 153 
C 992 153 979 191 979 420 
L 979 2776 
L 243 2706 
z
" transform="scale(0.015625)"/>
       <path id="CMR17-6d" d="M 4326 1933 
C 4326 2252 4269 2790 3507 2790 
C 3072 2790 2771 2496 2656 2151 
L 2650 2151 
C 2573 2676 2195 2790 1837 2790 
C 1331 2790 1069 2400 973 2144 
L 966 2144 
L 966 2790 
L 211 2720 
L 211 2554 
C 589 2554 646 2515 646 2208 
L 646 428 
C 646 184 621 153 211 153 
L 211 -13 
C 365 0 646 0 813 0 
C 979 0 1267 0 1421 -13 
L 1421 153 
C 1011 153 986 178 986 428 
L 986 1658 
C 986 2247 1344 2688 1792 2688 
C 2266 2688 2317 2266 2317 1958 
L 2317 428 
C 2317 184 2291 153 1882 153 
L 1882 -13 
C 2035 0 2317 0 2483 0 
C 2650 0 2938 0 3091 -13 
L 3091 153 
C 2682 153 2656 178 2656 428 
L 2656 1658 
C 2656 2247 3014 2688 3462 2688 
C 3936 2688 3987 2266 3987 1958 
L 3987 428 
C 3987 184 3962 153 3552 153 
L 3552 -13 
C 3706 0 3987 0 4154 0 
C 4320 0 4608 0 4762 -13 
L 4762 153 
C 4352 153 4326 178 4326 428 
L 4326 1933 
z
" transform="scale(0.015625)"/>
       <path id="CMR17-65" d="M 2438 1472 
C 2464 1498 2464 1511 2464 1576 
C 2464 2238 2118 2816 1389 2816 
C 710 2816 173 2169 173 1383 
C 173 551 781 -64 1459 -64 
C 2176 -64 2458 607 2458 740 
C 2458 784 2419 784 2406 784 
C 2362 784 2355 771 2330 696 
C 2189 265 1837 51 1504 51 
C 1229 51 954 203 781 480 
C 582 803 582 1176 582 1472 
L 2438 1472 
z
M 589 1568 
C 634 2505 1126 2714 1382 2714 
C 1818 2714 2112 2297 2118 1568 
L 589 1568 
z
" transform="scale(0.015625)"/>
       <path id="CMR17-5b" d="M 1504 -1600 
L 1504 -1377 
L 902 -1377 
L 902 4544 
L 1504 4544 
L 1504 4767 
L 678 4767 
L 678 -1600 
L 1504 -1600 
z
" transform="scale(0.015625)"/>
       <path id="CMR17-73" d="M 1978 2697 
C 1978 2813 1971 2819 1933 2819 
C 1907 2819 1901 2813 1824 2717 
C 1805 2691 1747 2626 1728 2601 
C 1523 2819 1235 2819 1126 2819 
C 416 2819 160 2447 160 2076 
C 160 1498 813 1365 998 1325 
C 1402 1243 1542 1217 1677 1101 
C 1760 1025 1901 884 1901 654 
C 1901 384 1747 38 1158 38 
C 602 38 403 460 288 1021 
C 269 1110 269 1117 218 1117 
C 166 1117 160 1110 160 983 
L 160 63 
C 160 -51 166 -58 205 -58 
C 237 -58 243 -51 275 0 
C 314 57 410 211 448 276 
C 576 103 800 -64 1158 -64 
C 1792 -64 2131 283 2131 784 
C 2131 1112 1958 1285 1875 1362 
C 1683 1561 1459 1606 1190 1657 
C 838 1735 390 1825 390 2217 
C 390 2383 480 2737 1126 2737 
C 1811 2737 1850 2094 1862 1888 
C 1869 1856 1901 1849 1920 1849 
C 1978 1849 1978 1869 1978 1978 
L 1978 2697 
z
" transform="scale(0.015625)"/>
       <path id="CMR17-5d" d="M 915 4767 
L 90 4767 
L 90 4544 
L 691 4544 
L 691 -1377 
L 90 -1377 
L 90 -1600 
L 915 -1600 
L 915 4767 
z
" transform="scale(0.015625)"/>
      </defs>
      <use xlink:href="#CMR17-74" transform="scale(0.996264)"/>
      <use xlink:href="#CMR17-69" transform="translate(35.280768 0)scale(0.996264)"/>
      <use xlink:href="#CMR17-6d" transform="translate(60.151826 0)scale(0.996264)"/>
      <use xlink:href="#CMR17-65" transform="translate(137.071416 0)scale(0.996264)"/>
      <use xlink:href="#CMR17-5b" transform="translate(207.633043 0)scale(0.996264)"/>
      <use xlink:href="#CMR17-6d" transform="translate(232.504101 0)scale(0.996264)"/>
      <use xlink:href="#CMR17-73" transform="translate(309.423691 0)scale(0.996264)"/>
      <use xlink:href="#CMR17-5d" transform="translate(345.225029 0)scale(0.996264)"/>
     </g>
    </g>
   </g>
   <g id="matplotlib.axis_2">
    <g id="ytick_1">
     <g id="line2d_3">
      <defs>
       <path id="mf05417427a" d="M 0 0 
L -3.5 0 
" style="stroke: #000000; stroke-width: 0.8"/>
      </defs>
      <g>
       <use xlink:href="#mf05417427a" x="28.203076" y="74.527891" style="stroke: #000000; stroke-width: 0.8"/>
      </g>
     </g>
     <g id="text_4">
      <!-- $\mathdefault{0.7}$ -->
      <g transform="translate(7.2 78.333064)scale(0.11 -0.11)">
       <defs>
        <path id="CMMI12-3a" d="M 1178 307 
C 1178 492 1024 619 870 619 
C 685 619 557 466 557 313 
C 557 128 710 0 864 0 
C 1050 0 1178 153 1178 307 
z
" transform="scale(0.015625)"/>
        <path id="CMR17-37" d="M 2886 3941 
L 2886 4081 
L 1382 4081 
C 634 4081 621 4165 595 4288 
L 480 4288 
L 294 3094 
L 410 3094 
C 429 3215 474 3540 550 3661 
C 589 3712 1062 3712 1171 3712 
L 2579 3712 
L 1869 2661 
C 1395 1954 1069 999 1069 165 
C 1069 89 1069 -128 1299 -128 
C 1530 -128 1530 89 1530 171 
L 1530 465 
C 1530 1508 1709 2196 2003 2636 
L 2886 3941 
z
" transform="scale(0.015625)"/>
       </defs>
       <use xlink:href="#CMR17-30" transform="scale(0.996264)"/>
       <use xlink:href="#CMMI12-3a" transform="translate(45.690477 0)scale(0.996264)"/>
       <use xlink:href="#CMR17-37" transform="translate(72.787654 0)scale(0.996264)"/>
      </g>
     </g>
    </g>
    <g id="ytick_2">
     <g id="line2d_4">
      <g>
       <use xlink:href="#mf05417427a" x="28.203076" y="55.886712" style="stroke: #000000; stroke-width: 0.8"/>
      </g>
     </g>
     <g id="text_5">
      <!-- $\mathdefault{0.8}$ -->
      <g transform="translate(7.2 59.691886)scale(0.11 -0.11)">
       <defs>
        <path id="CMR17-38" d="M 1741 2264 
C 2144 2467 2554 2773 2554 3263 
C 2554 3841 1990 4179 1472 4179 
C 890 4179 378 3759 378 3180 
C 378 3021 416 2747 666 2505 
C 730 2442 998 2251 1171 2130 
C 883 1983 211 1634 211 934 
C 211 279 838 -128 1459 -128 
C 2144 -128 2720 362 2720 1010 
C 2720 1590 2330 1857 2074 2029 
L 1741 2264 
z
M 902 2822 
C 851 2854 595 3051 595 3351 
C 595 3739 998 4032 1459 4032 
C 1965 4032 2336 3676 2336 3262 
C 2336 2669 1670 2331 1638 2331 
C 1632 2331 1626 2331 1574 2370 
L 902 2822 
z
M 2080 1519 
C 2176 1449 2483 1240 2483 851 
C 2483 381 2010 25 1472 25 
C 890 25 448 438 448 940 
C 448 1443 838 1862 1280 2060 
L 2080 1519 
z
" transform="scale(0.015625)"/>
       </defs>
       <use xlink:href="#CMR17-30" transform="scale(0.996264)"/>
       <use xlink:href="#CMMI12-3a" transform="translate(45.690477 0)scale(0.996264)"/>
       <use xlink:href="#CMR17-38" transform="translate(72.787654 0)scale(0.996264)"/>
      </g>
     </g>
    </g>
    <g id="ytick_3">
     <g id="line2d_5">
      <g>
       <use xlink:href="#mf05417427a" x="28.203076" y="37.245534" style="stroke: #000000; stroke-width: 0.8"/>
      </g>
     </g>
     <g id="text_6">
      <!-- $\mathdefault{0.9}$ -->
      <g transform="translate(7.2 41.050707)scale(0.11 -0.11)">
       <defs>
        <path id="CMR17-39" d="M 2253 1864 
C 2253 464 1670 31 1190 31 
C 1043 31 685 31 538 294 
C 704 268 826 357 826 518 
C 826 692 685 749 595 749 
C 538 749 365 723 365 506 
C 365 71 742 -128 1203 -128 
C 1939 -128 2688 674 2688 2073 
C 2688 3817 1971 4179 1485 4179 
C 851 4179 243 3628 243 2778 
C 243 1991 762 1408 1414 1408 
C 1952 1408 2189 1903 2253 2112 
L 2253 1864 
z
M 1427 1510 
C 1254 1510 1011 1542 813 1922 
C 678 2169 678 2461 678 2771 
C 678 3146 678 3405 858 3684 
C 947 3817 1114 4032 1485 4032 
C 2240 4032 2240 2885 2240 2632 
C 2240 2182 2035 1510 1427 1510 
z
" transform="scale(0.015625)"/>
       </defs>
       <use xlink:href="#CMR17-30" transform="scale(0.996264)"/>
       <use xlink:href="#CMMI12-3a" transform="translate(45.690477 0)scale(0.996264)"/>
       <use xlink:href="#CMR17-39" transform="translate(72.787654 0)scale(0.996264)"/>
      </g>
     </g>
    </g>
   </g>
   <g id="line2d_6">
    <path d="M 30.811907 74.527891 
L 31.682098 62.674673 
L 32.517481 54.246373 
L 33.283248 48.611005 
L 34.014209 44.727929 
L 34.745169 41.981429 
L 35.441321 40.165386 
L 36.137473 38.926068 
L 36.833626 38.106349 
L 37.599393 37.547974 
L 38.434776 37.219201 
L 39.444197 37.071987 
L 40.766887 37.117202 
L 42.855344 37.437632 
L 60.189539 40.601103 
L 68.578176 41.727616 
L 78.393925 42.815687 
L 82.988531 43.259398 
L 82.988531 43.259398 
" clip-path="url(#p183e748430)" style="fill: none; stroke: #ffde00; stroke-opacity: 0.8; stroke-width: 1.5; stroke-linecap: square"/>
   </g>
   <g id="line2d_7">
    <path d="M 30.811907 74.527891 
L 31.682098 62.574926 
L 32.517481 54.011439 
L 33.318056 48.018577 
L 34.083824 43.925472 
L 34.814784 41.191441 
L 35.510936 39.402719 
L 36.207089 38.210245 
L 36.903241 37.456931 
L 37.599393 37.021208 
L 38.365161 36.800405 
L 39.270159 36.773947 
L 40.453618 36.972332 
L 42.263615 37.526226 
L 55.142434 41.915543 
L 60.607231 43.36596 
L 66.698564 44.748166 
L 73.48605 46.055784 
L 81.039304 47.280436 
L 82.988531 47.563067 
L 82.988531 47.563067 
" clip-path="url(#p183e748430)" style="fill: none; stroke: #ffc400; stroke-opacity: 0.8; stroke-width: 1.5; stroke-linecap: square"/>
   </g>
   <g id="line2d_8">
    <path d="M 30.811907 74.527891 
L 31.682098 62.475027 
L 32.517481 53.763286 
L 33.318056 47.597104 
L 34.083824 43.338185 
L 34.814784 40.46974 
L 35.510936 38.587755 
L 36.172281 37.390237 
L 36.833626 36.62861 
L 37.494971 36.192671 
L 38.191123 35.991001 
L 39.026506 35.992785 
L 40.070734 36.235858 
L 41.567462 36.836041 
L 44.943801 38.506827 
L 48.981485 40.394959 
L 52.636286 41.851785 
L 56.499931 43.149417 
L 60.676846 44.315927 
L 65.271452 45.365685 
L 70.388172 46.30201 
L 76.13143 47.121761 
L 82.675262 47.826404 
L 82.988531 47.855093 
L 82.988531 47.855093 
" clip-path="url(#p183e748430)" style="fill: none; stroke: #ffa700; stroke-opacity: 0.8; stroke-width: 1.5; stroke-linecap: square"/>
   </g>
   <g id="line2d_9">
    <path d="M 30.811907 74.527891 
L 31.716906 61.978283 
L 32.587096 52.933412 
L 33.387671 46.770739 
L 34.153439 42.468918 
L 34.884399 39.540236 
L 35.580551 37.600306 
L 36.241896 36.356949 
L 36.903241 35.563137 
L 37.564586 35.109901 
L 38.260738 34.905064 
L 39.061313 34.914883 
L 40.035927 35.160459 
L 41.428232 35.760197 
L 44.560918 37.431633 
L 47.972064 39.131554 
L 51.000327 40.386205 
L 54.167821 41.454752 
L 57.613775 42.380151 
L 61.477421 43.183278 
L 65.897989 43.868804 
L 71.084325 44.440088 
L 77.349696 44.898214 
L 82.988531 45.165729 
L 82.988531 45.165729 
" clip-path="url(#p183e748430)" style="fill: none; stroke: #ff8600; stroke-opacity: 0.8; stroke-width: 1.5; stroke-linecap: square"/>
   </g>
   <g id="line2d_10">
    <path d="M 30.811907 74.527891 
L 31.716906 61.915661 
L 32.587096 52.760873 
L 33.422479 46.218362 
L 34.223054 41.643125 
L 34.988822 38.524143 
L 35.719782 36.458813 
L 36.415934 35.139003 
L 37.077279 34.336452 
L 37.738624 33.868935 
L 38.434776 33.647239 
L 39.235352 33.638071 
L 40.209965 33.862254 
L 41.60227 34.432682 
L 49.782061 38.17695 
L 52.636286 39.056797 
L 55.803779 39.796769 
L 59.458579 40.414742 
L 63.809532 40.915514 
L 69.204713 41.303063 
L 76.40989 41.584384 
L 82.988531 41.714101 
L 82.988531 41.714101 
" clip-path="url(#p183e748430)" style="fill: none; stroke: #ff6800; stroke-opacity: 0.8; stroke-width: 1.5; stroke-linecap: square"/>
   </g>
   <g id="line2d_11">
    <path d="M 30.811907 74.527891 
L 31.716906 61.867917 
L 32.587096 52.624534 
L 33.422479 45.950699 
L 34.223054 41.213615 
L 34.988822 37.920732 
L 35.719782 35.685829 
L 36.415934 34.211215 
L 37.112087 33.234361 
L 37.808239 32.639074 
L 38.504392 32.330067 
L 39.270159 32.230403 
L 40.209965 32.342416 
L 41.497847 32.742857 
L 43.969188 33.80214 
L 47.31072 35.162161 
L 50.025714 36.018428 
L 52.914747 36.693406 
L 56.256278 37.238323 
L 60.293962 37.662407 
L 65.515105 37.976018 
L 72.998744 38.18516 
L 82.988531 38.282399 
L 82.988531 38.282399 
" clip-path="url(#p183e748430)" style="fill: none; stroke: #ff4700; stroke-opacity: 0.8; stroke-width: 1.5; stroke-linecap: square"/>
   </g>
   <g id="line2d_12">
    <path d="M 30.811907 74.527891 
L 31.716906 61.831751 
L 32.587096 52.518303 
L 33.457287 45.492569 
L 34.292669 40.497193 
L 35.093245 37.010559 
L 35.859012 34.628911 
L 36.589972 33.042581 
L 37.286125 32.018979 
L 37.982277 31.36165 
L 38.713237 30.96905 
L 39.513813 30.793629 
L 40.488426 30.823866 
L 41.776308 31.106284 
L 44.178034 31.911713 
L 47.763219 33.057982 
L 50.617444 33.724329 
L 53.784937 34.229331 
L 57.648583 34.609408 
L 62.765303 34.875634 
L 70.597018 35.038293 
L 82.988531 35.100937 
L 82.988531 35.100937 
" clip-path="url(#p183e748430)" style="fill: none; stroke: #ff2900; stroke-opacity: 0.8; stroke-width: 1.5; stroke-linecap: square"/>
   </g>
   <g id="line2d_13">
    <path d="M 30.811907 74.527891 
L 31.716906 61.804498 
L 32.621904 52.111757 
L 33.492094 45.073576 
L 34.327477 40.01364 
L 35.128052 36.424691 
L 35.928628 33.823395 
L 36.694395 32.065544 
L 37.425355 30.906601 
L 38.156315 30.137505 
L 38.922083 29.646837 
L 39.757466 29.378804 
L 40.732079 29.306712 
L 42.019961 29.450782 
L 44.212841 29.961197 
L 48.633409 30.991967 
L 51.870518 31.489679 
L 55.699356 31.841233 
L 60.850884 32.074216 
L 69.239521 32.202944 
L 82.988531 32.23986 
L 82.988531 32.23986 
" clip-path="url(#p183e748430)" style="fill: none; stroke: #f10800; stroke-opacity: 0.8; stroke-width: 1.5; stroke-linecap: square"/>
   </g>
   <g id="line2d_14">
    <path d="M 30.811907 74.527891 
L 31.716906 61.784045 
L 32.621904 52.047023 
L 33.492094 44.933906 
L 34.362285 39.583843 
L 35.197668 35.776663 
L 35.998243 33.101083 
L 36.798818 31.176312 
L 37.564586 29.882627 
L 38.330353 28.999503 
L 39.130929 28.406488 
L 40.001119 28.04028 
L 41.01054 27.86446 
L 42.298422 27.878342 
L 44.317264 28.150732 
L 50.582636 29.09597 
L 54.655128 29.417139 
L 60.224347 29.613572 
L 70.214134 29.706212 
L 82.988531 29.721259 
L 82.988531 29.721259 
" clip-path="url(#p183e748430)" style="fill: none; stroke: #cd0000; stroke-opacity: 0.8; stroke-width: 1.5; stroke-linecap: square"/>
   </g>
   <g id="line2d_15">
    <path d="M 30.811907 74.527891 
L 31.716906 61.768745 
L 32.621904 51.997945 
L 33.526902 44.57811 
L 34.397092 39.201122 
L 35.232475 35.3292 
L 36.067858 32.460371 
L 36.868433 30.452995 
L 37.669009 29.010793 
L 38.469584 28.002692 
L 39.304967 27.298658 
L 40.209965 26.827957 
L 41.254194 26.545173 
L 42.542076 26.43743 
L 44.421687 26.523636 
L 55.560126 27.379211 
L 62.904534 27.509173 
L 81.805072 27.5471 
L 82.988531 27.547268 
L 82.988531 27.547268 
" clip-path="url(#p183e748430)" style="fill: none; stroke: #a40000; stroke-opacity: 0.8; stroke-width: 1.5; stroke-linecap: square"/>
   </g>
   <g id="line2d_16">
    <path d="M 30.811907 74.527891 
L 31.716906 61.757326 
L 32.621904 51.960947 
L 33.526902 44.493743 
L 34.397092 39.046256 
L 35.267283 34.941589 
L 36.102666 31.999682 
L 36.938049 29.825122 
L 37.773432 28.246569 
L 38.608814 27.124103 
L 39.479005 26.318854 
L 40.418811 25.753412 
L 41.497847 25.374695 
L 42.820537 25.162102 
L 44.630533 25.114167 
L 48.250525 25.293397 
L 54.968396 25.581524 
L 63.670301 25.686865 
L 82.988531 25.706901 
L 82.988531 25.706901 
" clip-path="url(#p183e748430)" style="fill: none; stroke: #800000; stroke-opacity: 0.8; stroke-width: 1.5; stroke-linecap: square"/>
   </g>
   <g id="patch_3">
    <path d="M 28.203076 76.9988 
L 28.203076 22.6388 
" style="fill: none; stroke: #000000; stroke-width: 0.8; stroke-linejoin: miter; stroke-linecap: square"/>
   </g>
   <g id="patch_4">
    <path d="M 28.203076 76.9988 
L 85.597362 76.9988 
" style="fill: none; stroke: #000000; stroke-width: 0.8; stroke-linejoin: miter; stroke-linecap: square"/>
   </g>
   <g id="text_7">
    <!-- $\mathrm{d} u / \mathrm{d}t$ -->
    <g transform="translate(42.956741 16.6388)scale(0.11 -0.11)">
     <defs>
      <path id="CMR17-64" d="M 1869 4326 
L 1869 4160 
C 2246 4160 2304 4122 2304 3820 
L 2304 2345 
C 2278 2377 2016 2790 1498 2790 
C 845 2790 211 2208 211 1364 
C 211 525 806 -64 1434 -64 
C 1978 -64 2259 337 2291 380 
L 2291 -63 
L 3066 -63 
L 3066 128 
C 2688 128 2630 166 2630 473 
L 2630 4396 
L 1869 4326 
z
M 2291 755 
C 2291 563 2176 390 2029 262 
C 1811 70 1594 38 1472 38 
C 1286 38 621 134 621 1356 
C 621 2612 1363 2688 1530 2688 
C 1824 2688 2061 2522 2208 2291 
C 2291 2157 2291 2138 2291 2023 
L 2291 755 
z
" transform="scale(0.015625)"/>
      <path id="CMMI12-75" d="M 2182 370 
C 2266 13 2573 -64 2726 -64 
C 2931 -64 3085 70 3187 287 
C 3296 517 3379 894 3379 913 
C 3379 945 3354 971 3315 971 
C 3258 971 3251 939 3226 843 
C 3110 402 2995 64 2739 64 
C 2547 64 2547 275 2547 358 
C 2547 505 2566 568 2630 837 
C 2675 1009 2720 1181 2758 1360 
L 3021 2401 
C 3066 2561 3066 2574 3066 2593 
C 3066 2689 2989 2753 2893 2753 
C 2707 2753 2662 2593 2624 2433 
C 2560 2184 2214 811 2170 588 
C 2163 588 1914 64 1446 64 
C 1114 64 1050 351 1050 588 
C 1050 952 1229 1462 1395 1890 
C 1472 2095 1504 2178 1504 2305 
C 1504 2580 1306 2816 998 2816 
C 410 2816 173 1890 173 1839 
C 173 1814 198 1782 243 1782 
C 301 1782 307 1807 333 1896 
C 486 2441 736 2682 979 2682 
C 1043 2682 1146 2682 1146 2478 
C 1146 2312 1075 2127 979 1884 
C 698 1124 666 881 666 690 
C 666 38 1158 -64 1421 -64 
C 1830 -64 2054 217 2182 370 
z
" transform="scale(0.015625)"/>
      <path id="CMMI12-3d" d="M 2746 4562 
C 2746 4569 2784 4666 2784 4678 
C 2784 4755 2720 4800 2669 4800 
C 2637 4800 2579 4800 2528 4659 
L 384 -1363 
C 384 -1370 346 -1465 346 -1478 
C 346 -1555 410 -1600 461 -1600 
C 499 -1600 557 -1593 602 -1459 
L 2746 4562 
z
" transform="scale(0.015625)"/>
      <path id="CMMI12-74" d="M 1286 2566 
L 1875 2566 
C 1997 2566 2061 2566 2061 2681 
C 2061 2752 2022 2752 1894 2752 
L 1331 2752 
L 1568 3692 
C 1594 3781 1594 3794 1594 3840 
C 1594 3943 1510 4000 1427 4000 
C 1376 4000 1229 3981 1178 3775 
L 928 2752 
L 326 2752 
C 198 2752 141 2752 141 2630 
C 141 2566 186 2566 307 2566 
L 877 2566 
L 454 881 
C 403 658 384 594 384 511 
C 384 211 595 -64 954 -64 
C 1600 -64 1946 868 1946 912 
C 1946 951 1920 970 1882 970 
C 1869 970 1843 970 1830 944 
C 1824 938 1818 931 1773 829 
C 1638 511 1344 64 973 64 
C 781 64 768 224 768 364 
C 768 370 768 492 787 568 
L 1286 2566 
z
" transform="scale(0.015625)"/>
     </defs>
     <use xlink:href="#CMR17-64" transform="scale(0.996264)"/>
     <use xlink:href="#CMMI12-75" transform="translate(50.89537 0)scale(0.996264)"/>
     <use xlink:href="#CMMI12-3d" transform="translate(106.415699 0)scale(0.996264)"/>
     <use xlink:href="#CMR17-64" transform="translate(155.190618 0)scale(0.996264)"/>
     <use xlink:href="#CMMI12-74" transform="translate(206.085988 0)scale(0.996264)"/>
    </g>
   </g>
  </g>
  <g id="axes_2">
   <g id="patch_5">
    <path d="M 142.991648 76.9988 
L 200.385933 76.9988 
L 200.385933 22.6388 
L 142.991648 22.6388 
z
" style="fill: #ffffff"/>
   </g>
   <g id="matplotlib.axis_3">
    <g id="xtick_3">
     <g id="line2d_17">
      <g>
       <use xlink:href="#m8792437865" x="145.600479" y="76.9988" style="stroke: #000000; stroke-width: 0.8"/>
      </g>
     </g>
     <g id="text_8">
      <!-- $\mathdefault{0}$ -->
      <g transform="translate(142.860745 91.609147)scale(0.11 -0.11)">
       <use xlink:href="#CMR17-30" transform="scale(0.996264)"/>
      </g>
     </g>
    </g>
    <g id="xtick_4">
     <g id="line2d_18">
      <g>
       <use xlink:href="#m8792437865" x="180.408099" y="76.9988" style="stroke: #000000; stroke-width: 0.8"/>
      </g>
     </g>
     <g id="text_9">
      <!-- $\mathdefault{1000}$ -->
      <g transform="translate(169.449165 91.609147)scale(0.11 -0.11)">
       <use xlink:href="#CMR17-31" transform="scale(0.996264)"/>
       <use xlink:href="#CMR17-30" transform="translate(45.690477 0)scale(0.996264)"/>
       <use xlink:href="#CMR17-30" transform="translate(91.380954 0)scale(0.996264)"/>
       <use xlink:href="#CMR17-30" transform="translate(137.071431 0)scale(0.996264)"/>
      </g>
     </g>
    </g>
    <g id="text_10">
     <!-- time [ms] -->
     <g transform="translate(149.436087 105.959219)scale(0.11 -0.11)">
      <use xlink:href="#CMR17-74" transform="scale(0.996264)"/>
      <use xlink:href="#CMR17-69" transform="translate(35.280768 0)scale(0.996264)"/>
      <use xlink:href="#CMR17-6d" transform="translate(60.151826 0)scale(0.996264)"/>
      <use xlink:href="#CMR17-65" transform="translate(137.071416 0)scale(0.996264)"/>
      <use xlink:href="#CMR17-5b" transform="translate(207.633043 0)scale(0.996264)"/>
      <use xlink:href="#CMR17-6d" transform="translate(232.504101 0)scale(0.996264)"/>
      <use xlink:href="#CMR17-73" transform="translate(309.423691 0)scale(0.996264)"/>
      <use xlink:href="#CMR17-5d" transform="translate(345.225029 0)scale(0.996264)"/>
     </g>
    </g>
   </g>
   <g id="matplotlib.axis_4">
    <g id="ytick_4">
     <g id="line2d_19">
      <g>
       <use xlink:href="#mf05417427a" x="142.991648" y="71.284784" style="stroke: #000000; stroke-width: 0.8"/>
      </g>
     </g>
     <g id="text_11">
      <!-- $\mathdefault{0.25}$ -->
      <g transform="translate(116.509104 75.089957)scale(0.11 -0.11)">
       <defs>
        <path id="CMR17-32" d="M 2669 989 
L 2554 989 
C 2490 536 2438 459 2413 420 
C 2381 369 1920 369 1830 369 
L 602 369 
C 832 619 1280 1072 1824 1597 
C 2214 1967 2669 2402 2669 3035 
C 2669 3790 2067 4224 1395 4224 
C 691 4224 262 3604 262 3030 
C 262 2780 448 2748 525 2748 
C 589 2748 781 2787 781 3010 
C 781 3207 614 3264 525 3264 
C 486 3264 448 3258 422 3245 
C 544 3790 915 4058 1306 4058 
C 1862 4058 2227 3617 2227 3035 
C 2227 2479 1901 2000 1536 1584 
L 262 146 
L 262 0 
L 2515 0 
L 2669 989 
z
" transform="scale(0.015625)"/>
        <path id="CMR17-35" d="M 730 3692 
C 794 3666 1056 3584 1325 3584 
C 1920 3584 2246 3911 2432 4100 
C 2432 4157 2432 4192 2394 4192 
C 2387 4192 2374 4192 2323 4163 
C 2099 4058 1837 3973 1517 3973 
C 1325 3973 1037 3999 723 4139 
C 653 4171 640 4171 634 4171 
C 602 4171 595 4164 595 4037 
L 595 2203 
C 595 2089 595 2057 659 2057 
C 691 2057 704 2070 736 2114 
C 941 2401 1222 2522 1542 2522 
C 1766 2522 2246 2382 2246 1289 
C 2246 1085 2246 715 2054 421 
C 1894 159 1645 25 1370 25 
C 947 25 518 320 403 814 
C 429 807 480 795 506 795 
C 589 795 749 840 749 1038 
C 749 1210 627 1280 506 1280 
C 358 1280 262 1190 262 1011 
C 262 454 704 -128 1382 -128 
C 2042 -128 2669 440 2669 1264 
C 2669 2030 2170 2624 1549 2624 
C 1222 2624 947 2503 730 2274 
L 730 3692 
z
" transform="scale(0.015625)"/>
       </defs>
       <use xlink:href="#CMR17-30" transform="scale(0.996264)"/>
       <use xlink:href="#CMMI12-3a" transform="translate(45.690477 0)scale(0.996264)"/>
       <use xlink:href="#CMR17-32" transform="translate(72.787654 0)scale(0.996264)"/>
       <use xlink:href="#CMR17-35" transform="translate(118.478131 0)scale(0.996264)"/>
      </g>
     </g>
    </g>
    <g id="ytick_5">
     <g id="line2d_20">
      <g>
       <use xlink:href="#mf05417427a" x="142.991648" y="55.069247" style="stroke: #000000; stroke-width: 0.8"/>
      </g>
     </g>
     <g id="text_12">
      <!-- $\mathdefault{0.50}$ -->
      <g transform="translate(116.509104 58.874421)scale(0.11 -0.11)">
       <use xlink:href="#CMR17-30" transform="scale(0.996264)"/>
       <use xlink:href="#CMMI12-3a" transform="translate(45.690477 0)scale(0.996264)"/>
       <use xlink:href="#CMR17-35" transform="translate(72.787654 0)scale(0.996264)"/>
       <use xlink:href="#CMR17-30" transform="translate(118.478131 0)scale(0.996264)"/>
      </g>
     </g>
    </g>
    <g id="ytick_6">
     <g id="line2d_21">
      <g>
       <use xlink:href="#mf05417427a" x="142.991648" y="38.853711" style="stroke: #000000; stroke-width: 0.8"/>
      </g>
     </g>
     <g id="text_13">
      <!-- $\mathdefault{0.75}$ -->
      <g transform="translate(116.509104 42.658884)scale(0.11 -0.11)">
       <use xlink:href="#CMR17-30" transform="scale(0.996264)"/>
       <use xlink:href="#CMMI12-3a" transform="translate(45.690477 0)scale(0.996264)"/>
       <use xlink:href="#CMR17-37" transform="translate(72.787654 0)scale(0.996264)"/>
       <use xlink:href="#CMR17-35" transform="translate(118.478131 0)scale(0.996264)"/>
      </g>
     </g>
    </g>
   </g>
   <g id="line2d_22">
    <path d="M 145.600479 74.527891 
L 146.401054 65.987682 
L 147.166822 60.035918 
L 147.932589 55.75128 
L 148.663549 52.82752 
L 149.429317 50.654705 
L 150.195085 49.130807 
L 150.99566 48.018285 
L 151.865851 47.184277 
L 152.875272 46.531501 
L 154.128346 46.001157 
L 155.833919 45.54061 
L 158.514106 45.074004 
L 163.456788 44.470411 
L 171.497349 43.721372 
L 181.87002 42.985729 
L 194.992493 42.287488 
L 197.777102 42.162945 
L 197.777102 42.162945 
" clip-path="url(#p55d68dd996)" style="fill: none; stroke: #ffde00; stroke-opacity: 0.8; stroke-width: 1.5; stroke-linecap: square"/>
   </g>
   <g id="line2d_23">
    <path d="M 145.600479 74.527891 
L 146.401054 65.596357 
L 147.201629 59.023255 
L 147.967397 54.447025 
L 148.733165 51.13311 
L 149.498932 48.7492 
L 150.299508 46.969304 
L 151.134891 45.652768 
L 152.039889 44.64596 
L 153.04931 43.855711 
L 154.267576 43.186334 
L 155.903535 42.557138 
L 158.270453 41.906597 
L 161.994868 41.135733 
L 167.355242 40.262774 
L 174.073113 39.399527 
L 182.183288 38.588396 
L 191.96423 37.840646 
L 197.777102 37.483154 
L 197.777102 37.483154 
" clip-path="url(#p55d68dd996)" style="fill: none; stroke: #ffc400; stroke-opacity: 0.8; stroke-width: 1.5; stroke-linecap: square"/>
   </g>
   <g id="line2d_24">
    <path d="M 145.600479 74.527891 
L 146.435862 64.846001 
L 147.236437 57.945826 
L 148.037012 52.857063 
L 148.837588 49.145409 
L 149.638163 46.45302 
L 150.438738 44.497707 
L 151.274121 43.012988 
L 152.179119 41.845259 
L 153.18854 40.90146 
L 154.371999 40.098877 
L 155.868727 39.360315 
L 157.887569 38.626971 
L 160.706986 37.854275 
L 164.535824 37.046474 
L 169.304469 36.275359 
L 175.012918 35.585176 
L 181.87002 34.98854 
L 190.258656 34.490962 
L 197.777102 34.190011 
L 197.777102 34.190011 
" clip-path="url(#p55d68dd996)" style="fill: none; stroke: #ffa700; stroke-opacity: 0.8; stroke-width: 1.5; stroke-linecap: square"/>
   </g>
   <g id="line2d_25">
    <path d="M 145.600479 74.527891 
L 146.470669 64.155943 
L 147.306052 56.738087 
L 148.141435 51.249578 
L 148.94201 47.371768 
L 149.742586 44.506566 
L 150.577969 42.308812 
L 151.448159 40.634698 
L 152.353157 39.357772 
L 153.362578 38.311503 
L 154.546037 37.415191 
L 155.97315 36.626673 
L 157.783146 35.893311 
L 160.150064 35.184045 
L 163.28275 34.488625 
L 167.216011 33.852164 
L 172.054271 33.30302 
L 178.075989 32.853404 
L 185.872896 32.506576 
L 196.732874 32.262495 
L 197.777102 32.247782 
L 197.777102 32.247782 
" clip-path="url(#p55d68dd996)" style="fill: none; stroke: #ff8600; stroke-opacity: 0.8; stroke-width: 1.5; stroke-linecap: square"/>
   </g>
   <g id="line2d_26">
    <path d="M 145.600479 74.527891 
L 146.470669 63.886909 
L 147.34086 55.91059 
L 148.176243 50.201879 
L 149.011626 45.954772 
L 149.847009 42.809253 
L 150.682391 40.478935 
L 151.552582 38.681004 
L 152.45758 37.296718 
L 153.467001 36.157902 
L 154.580845 35.235464 
L 155.903535 34.434841 
L 157.504685 33.731526 
L 159.558335 33.082351 
L 162.203714 32.489011 
L 165.614861 31.960479 
L 170.000621 31.516152 
L 175.743878 31.170418 
L 183.749631 30.927181 
L 196.628451 30.783706 
L 197.777102 30.777753 
L 197.777102 30.777753 
" clip-path="url(#p55d68dd996)" style="fill: none; stroke: #ff6800; stroke-opacity: 0.8; stroke-width: 1.5; stroke-linecap: square"/>
   </g>
   <g id="line2d_27">
    <path d="M 145.600479 74.527891 
L 146.470669 63.680033 
L 147.34086 55.472407 
L 148.21105 49.317495 
L 149.046433 44.894144 
L 149.881816 41.576445 
L 150.752007 39.000885 
L 151.622197 37.086822 
L 152.527195 35.603909 
L 153.501809 34.418832 
L 154.580845 33.452831 
L 155.833919 32.637661 
L 157.295839 31.956273 
L 159.140643 31.35274 
L 161.507561 30.826424 
L 164.60544 30.378074 
L 168.747547 30.015653 
L 174.525612 29.74854 
L 183.436362 29.581002 
L 197.777102 29.512727 
L 197.777102 29.512727 
" clip-path="url(#p55d68dd996)" style="fill: none; stroke: #ff4700; stroke-opacity: 0.8; stroke-width: 1.5; stroke-linecap: square"/>
   </g>
   <g id="line2d_28">
    <path d="M 145.600479 74.527891 
L 146.505477 63.140918 
L 147.375667 54.846103 
L 148.245858 48.570594 
L 149.116049 43.851234 
L 149.986239 40.316412 
L 150.85643 37.672199 
L 151.761428 35.622459 
L 152.701233 34.045358 
L 153.675847 32.835929 
L 154.754883 31.853223 
L 155.97315 31.052607 
L 157.400262 30.390432 
L 159.140643 29.837617 
L 161.368331 29.374484 
L 164.361786 28.994223 
L 168.538701 28.703594 
L 174.873688 28.506329 
L 186.39501 28.404696 
L 197.777102 28.386457 
L 197.777102 28.386457 
" clip-path="url(#p55d68dd996)" style="fill: none; stroke: #ff2900; stroke-opacity: 0.8; stroke-width: 1.5; stroke-linecap: square"/>
   </g>
   <g id="line2d_29">
    <path d="M 145.600479 74.527891 
L 146.505477 63.016481 
L 147.410475 54.291669 
L 148.280666 47.936691 
L 149.150856 43.118734 
L 150.021047 39.478794 
L 150.891237 36.733334 
L 151.796235 34.590049 
L 152.736041 32.932969 
L 153.710654 31.660416 
L 154.754883 30.658216 
L 155.903535 29.85925 
L 157.261032 29.193807 
L 158.89699 28.652397 
L 160.95064 28.218179 
L 163.700442 27.876335 
L 167.66851 27.623628 
L 174.073113 27.462426 
L 187.543662 27.391852 
L 197.777102 27.385395 
L 197.777102 27.385395 
" clip-path="url(#p55d68dd996)" style="fill: none; stroke: #f10800; stroke-opacity: 0.8; stroke-width: 1.5; stroke-linecap: square"/>
   </g>
   <g id="line2d_30">
    <path d="M 145.600479 74.527891 
L 146.505477 62.922808 
L 147.410475 54.088801 
L 148.315473 47.393985 
L 149.220471 42.341028 
L 150.12547 38.539247 
L 151.030468 35.683833 
L 151.935466 33.539435 
L 152.875272 31.873093 
L 153.849885 30.589658 
L 154.894114 29.57902 
L 156.042765 28.776873 
L 157.365455 28.129874 
L 158.931798 27.616076 
L 160.915832 27.207527 
L 163.596019 26.895971 
L 167.564087 26.677613 
L 174.455996 26.55061 
L 192.555959 26.50818 
L 197.777102 26.507319 
L 197.777102 26.507319 
" clip-path="url(#p55d68dd996)" style="fill: none; stroke: #cd0000; stroke-opacity: 0.8; stroke-width: 1.5; stroke-linecap: square"/>
   </g>
   <g id="line2d_31">
    <path d="M 145.600479 74.527891 
L 146.505477 62.85258 
L 147.410475 53.936083 
L 148.315473 47.149446 
L 149.220471 42.000346 
L 150.12547 38.1038 
L 151.030468 35.160105 
L 151.935466 32.937603 
L 152.875272 31.203068 
L 153.849885 29.863356 
L 154.894114 28.807765 
L 156.007957 27.993368 
L 157.295839 27.331761 
L 158.827375 26.806395 
L 160.741794 26.398792 
L 163.28275 26.098646 
L 167.076781 25.894134 
L 173.899074 25.782052 
L 194.644416 25.750482 
L 197.777102 25.750288 
L 197.777102 25.750288 
" clip-path="url(#p55d68dd996)" style="fill: none; stroke: #a40000; stroke-opacity: 0.8; stroke-width: 1.5; stroke-linecap: square"/>
   </g>
   <g id="line2d_32">
    <path d="M 145.600479 74.527891 
L 146.505477 62.800089 
L 147.410475 53.821579 
L 148.315473 46.965354 
L 149.220471 41.742596 
L 150.12547 37.772437 
L 151.030468 34.759001 
L 151.935466 32.473557 
L 152.875272 30.682741 
L 153.849885 29.295201 
L 154.859306 28.23114 
L 155.97315 27.377293 
L 157.226224 26.701064 
L 158.688144 26.17027 
L 160.49814 25.758447 
L 162.899866 25.453658 
L 166.450244 25.248822 
L 172.820038 25.139224 
L 192.869228 25.109909 
L 197.777102 25.109709 
L 197.777102 25.109709 
" clip-path="url(#p55d68dd996)" style="fill: none; stroke: #800000; stroke-opacity: 0.8; stroke-width: 1.5; stroke-linecap: square"/>
   </g>
   <g id="patch_6">
    <path d="M 142.991648 76.9988 
L 142.991648 22.6388 
" style="fill: none; stroke: #000000; stroke-width: 0.8; stroke-linejoin: miter; stroke-linecap: square"/>
   </g>
   <g id="patch_7">
    <path d="M 142.991648 76.9988 
L 200.385933 76.9988 
" style="fill: none; stroke: #000000; stroke-width: 0.8; stroke-linejoin: miter; stroke-linecap: square"/>
   </g>
   <g id="text_14">
    <!-- $\mathrm{d} v / \mathrm{d}t$ -->
    <g transform="translate(158.029449 16.6388)scale(0.11 -0.11)">
     <defs>
      <path id="CMMI12-76" d="M 2925 2389 
C 2925 2791 2720 2816 2669 2816 
C 2515 2816 2374 2663 2374 2535 
C 2374 2459 2419 2414 2445 2389 
C 2509 2331 2675 2159 2675 1827 
C 2675 1558 2291 64 1523 64 
C 1133 64 1056 390 1056 626 
C 1056 945 1203 1392 1376 1852 
C 1478 2114 1504 2178 1504 2305 
C 1504 2574 1312 2816 998 2816 
C 410 2816 173 1890 173 1839 
C 173 1814 198 1782 243 1782 
C 301 1782 307 1807 333 1897 
C 486 2446 736 2689 979 2689 
C 1037 2689 1146 2689 1146 2478 
C 1146 2312 1075 2127 979 1884 
C 672 1067 672 869 672 715 
C 672 575 691 313 890 134 
C 1120 -64 1440 -64 1498 -64 
C 2560 -64 2925 2024 2925 2389 
z
" transform="scale(0.015625)"/>
     </defs>
     <use xlink:href="#CMR17-64" transform="scale(0.996264)"/>
     <use xlink:href="#CMMI12-76" transform="translate(50.89537 0)scale(0.996264)"/>
     <use xlink:href="#CMMI12-3d" transform="translate(101.630543 0)scale(0.996264)"/>
     <use xlink:href="#CMR17-64" transform="translate(150.405462 0)scale(0.996264)"/>
     <use xlink:href="#CMMI12-74" transform="translate(201.300832 0)scale(0.996264)"/>
    </g>
   </g>
  </g>
  <g id="axes_3">
   <g id="patch_8">
    <path d="M 257.780219 76.9988 
L 315.174505 76.9988 
L 315.174505 22.6388 
L 257.780219 22.6388 
z
" style="fill: #ffffff"/>
   </g>
   <g id="matplotlib.axis_5">
    <g id="xtick_5">
     <g id="line2d_33">
      <g>
       <use xlink:href="#m8792437865" x="260.38905" y="76.9988" style="stroke: #000000; stroke-width: 0.8"/>
      </g>
     </g>
     <g id="text_15">
      <!-- $\mathdefault{0}$ -->
      <g transform="translate(257.649317 91.609147)scale(0.11 -0.11)">
       <use xlink:href="#CMR17-30" transform="scale(0.996264)"/>
      </g>
     </g>
    </g>
    <g id="xtick_6">
     <g id="line2d_34">
      <g>
       <use xlink:href="#m8792437865" x="295.196671" y="76.9988" style="stroke: #000000; stroke-width: 0.8"/>
      </g>
     </g>
     <g id="text_16">
      <!-- $\mathdefault{1000}$ -->
      <g transform="translate(284.237736 91.609147)scale(0.11 -0.11)">
       <use xlink:href="#CMR17-31" transform="scale(0.996264)"/>
       <use xlink:href="#CMR17-30" transform="translate(45.690477 0)scale(0.996264)"/>
       <use xlink:href="#CMR17-30" transform="translate(91.380954 0)scale(0.996264)"/>
       <use xlink:href="#CMR17-30" transform="translate(137.071431 0)scale(0.996264)"/>
      </g>
     </g>
    </g>
    <g id="text_17">
     <!-- time [ms] -->
     <g transform="translate(264.224658 105.959219)scale(0.11 -0.11)">
      <use xlink:href="#CMR17-74" transform="scale(0.996264)"/>
      <use xlink:href="#CMR17-69" transform="translate(35.280768 0)scale(0.996264)"/>
      <use xlink:href="#CMR17-6d" transform="translate(60.151826 0)scale(0.996264)"/>
      <use xlink:href="#CMR17-65" transform="translate(137.071416 0)scale(0.996264)"/>
      <use xlink:href="#CMR17-5b" transform="translate(207.633043 0)scale(0.996264)"/>
      <use xlink:href="#CMR17-6d" transform="translate(232.504101 0)scale(0.996264)"/>
      <use xlink:href="#CMR17-73" transform="translate(309.423691 0)scale(0.996264)"/>
      <use xlink:href="#CMR17-5d" transform="translate(345.225029 0)scale(0.996264)"/>
     </g>
    </g>
   </g>
   <g id="matplotlib.axis_6">
    <g id="ytick_7">
     <g id="line2d_35">
      <g>
       <use xlink:href="#mf05417427a" x="257.780219" y="74.529229" style="stroke: #000000; stroke-width: 0.8"/>
      </g>
     </g>
     <g id="text_18">
      <!-- $\mathdefault{0.0}$ -->
      <g transform="translate(236.777143 78.334403)scale(0.11 -0.11)">
       <use xlink:href="#CMR17-30" transform="scale(0.996264)"/>
       <use xlink:href="#CMMI12-3a" transform="translate(45.690477 0)scale(0.996264)"/>
       <use xlink:href="#CMR17-30" transform="translate(72.787654 0)scale(0.996264)"/>
      </g>
     </g>
    </g>
    <g id="ytick_8">
     <g id="line2d_36">
      <g>
       <use xlink:href="#mf05417427a" x="257.780219" y="25.109709" style="stroke: #000000; stroke-width: 0.8"/>
      </g>
     </g>
     <g id="text_19">
      <!-- $\mathdefault{0.5}$ -->
      <g transform="translate(236.777143 28.914882)scale(0.11 -0.11)">
       <use xlink:href="#CMR17-30" transform="scale(0.996264)"/>
       <use xlink:href="#CMMI12-3a" transform="translate(45.690477 0)scale(0.996264)"/>
       <use xlink:href="#CMR17-35" transform="translate(72.787654 0)scale(0.996264)"/>
      </g>
     </g>
    </g>
   </g>
   <g id="line2d_37">
    <path d="M 260.38905 25.109709 
L 260.667511 25.220173 
L 261.015587 25.624846 
L 261.537702 26.641312 
L 262.338277 28.772395 
L 265.749424 38.416145 
L 267.002498 41.054298 
L 268.220765 43.113953 
L 269.473839 44.803529 
L 270.796529 46.218511 
L 272.258449 47.453904 
L 273.894407 48.544229 
L 275.843634 49.570038 
L 278.24536 50.572664 
L 281.30843 51.600415 
L 285.346114 52.708911 
L 290.53245 53.893178 
L 296.902244 55.112775 
L 304.42069 56.319454 
L 312.565674 57.417962 
L 312.565674 57.417962 
" clip-path="url(#pb4e0660e2f)" style="fill: none; stroke: #ffde00; stroke-opacity: 0.8; stroke-width: 1.5; stroke-linecap: square"/>
   </g>
   <g id="line2d_38">
    <path d="M 260.38905 25.109709 
L 260.667511 25.227583 
L 261.015587 25.661241 
L 261.502894 26.671648 
L 262.268662 28.860442 
L 266.515191 41.977988 
L 267.803073 44.839599 
L 269.090955 47.178999 
L 270.448453 49.191472 
L 271.910373 50.960608 
L 273.511523 52.549222 
L 275.32152 54.031946 
L 277.444784 55.478799 
L 279.950933 56.9128 
L 282.979196 58.381913 
L 286.564381 59.86821 
L 290.741295 61.355155 
L 295.50994 62.813428 
L 300.905121 64.225933 
L 306.926839 65.568092 
L 312.565674 66.644685 
L 312.565674 66.644685 
" clip-path="url(#pb4e0660e2f)" style="fill: none; stroke: #ffc400; stroke-opacity: 0.8; stroke-width: 1.5; stroke-linecap: square"/>
   </g>
   <g id="line2d_39">
    <path d="M 260.38905 25.109709 
L 260.667511 25.235133 
L 261.015587 25.698465 
L 261.502894 26.784735 
L 262.233854 29.041325 
L 263.765389 34.711713 
L 265.610193 41.2198 
L 267.002498 45.324982 
L 268.325188 48.562411 
L 269.682685 51.310854 
L 271.109797 53.697256 
L 272.606525 55.771943 
L 274.242483 57.661434 
L 276.05248 59.410253 
L 278.071322 61.049624 
L 280.333817 62.600225 
L 282.909581 64.092119 
L 285.798613 65.50419 
L 289.035722 66.833759 
L 292.620907 68.061852 
L 296.588976 69.183416 
L 301.009544 70.199002 
L 305.987033 71.109676 
L 311.625868 71.909996 
L 312.565674 72.023694 
L 312.565674 72.023694 
" clip-path="url(#pb4e0660e2f)" style="fill: none; stroke: #ffa700; stroke-opacity: 0.8; stroke-width: 1.5; stroke-linecap: square"/>
   </g>
   <g id="line2d_40">
    <path d="M 260.38905 25.109709 
L 260.632704 25.211006 
L 260.945972 25.6052 
L 261.398471 26.590588 
L 262.059816 28.648178 
L 263.208468 33.100292 
L 265.749424 43.021349 
L 267.176536 47.624143 
L 268.534033 51.27028 
L 269.891531 54.296701 
L 271.283836 56.873643 
L 272.745756 59.122708 
L 274.312099 61.126735 
L 275.982864 62.90634 
L 277.792861 64.512704 
L 279.776895 65.977133 
L 281.969775 67.316815 
L 284.406309 68.538983 
L 287.086495 69.631499 
L 290.079951 70.609232 
L 293.45629 71.474821 
L 297.319936 72.230698 
L 301.810119 72.876077 
L 307.135685 73.410346 
L 312.565674 73.777519 
L 312.565674 73.777519 
" clip-path="url(#pb4e0660e2f)" style="fill: none; stroke: #ff8600; stroke-opacity: 0.8; stroke-width: 1.5; stroke-linecap: square"/>
   </g>
   <g id="line2d_41">
    <path d="M 260.38905 25.109709 
L 260.632704 25.214514 
L 260.945972 25.623195 
L 261.398471 26.648073 
L 262.059816 28.798689 
L 263.17366 33.340107 
L 265.923462 44.754993 
L 267.350574 49.631343 
L 268.708072 53.497935 
L 270.065569 56.702306 
L 271.423066 59.354835 
L 272.850178 61.66066 
L 274.346906 63.653934 
L 275.913249 65.370761 
L 277.584015 66.87392 
L 279.394011 68.202081 
L 281.378046 69.377636 
L 283.570926 70.412436 
L 286.007459 71.312213 
L 288.792069 72.097141 
L 291.99437 72.763005 
L 295.7884 73.318518 
L 300.452622 73.767369 
L 306.439532 74.108517 
L 312.565674 74.300017 
L 312.565674 74.300017 
" clip-path="url(#pb4e0660e2f)" style="fill: none; stroke: #ff6800; stroke-opacity: 0.8; stroke-width: 1.5; stroke-linecap: square"/>
   </g>
   <g id="line2d_42">
    <path d="M 260.38905 25.109709 
L 260.632704 25.217196 
L 260.945972 25.636981 
L 261.398471 26.692241 
L 262.059816 28.914841 
L 263.138852 33.480159 
L 266.132308 46.450463 
L 267.55942 51.48279 
L 268.88211 55.366607 
L 270.204799 58.58362 
L 271.527489 61.236921 
L 272.884986 63.476864 
L 274.312099 65.403216 
L 275.774019 67.010487 
L 277.340362 68.405007 
L 279.011127 69.597206 
L 280.855931 70.637145 
L 282.909581 71.532592 
L 285.206884 72.288008 
L 287.887071 72.929188 
L 291.089372 73.457629 
L 295.05744 73.876098 
L 300.243776 74.186805 
L 307.727414 74.394198 
L 312.565674 74.455219 
L 312.565674 74.455219 
" clip-path="url(#pb4e0660e2f)" style="fill: none; stroke: #ff4700; stroke-opacity: 0.8; stroke-width: 1.5; stroke-linecap: square"/>
   </g>
   <g id="line2d_43">
    <path d="M 260.38905 25.109709 
L 260.632704 25.219231 
L 260.945972 25.647455 
L 261.398471 26.725872 
L 262.025008 28.868168 
L 263.034429 33.219904 
L 266.375961 48.130092 
L 267.768266 53.102562 
L 269.090955 57.023231 
L 270.378837 60.170505 
L 271.666719 62.754913 
L 272.989409 64.92234 
L 274.346906 66.727221 
L 275.774019 68.254716 
L 277.270746 69.531623 
L 278.871897 70.607358 
L 280.647085 71.528341 
L 282.63112 72.30175 
L 284.928423 72.950001 
L 287.643417 73.4762 
L 290.984949 73.88896 
L 295.405517 74.197266 
L 301.810119 74.400876 
L 312.565674 74.503166 
L 312.565674 74.503166 
" clip-path="url(#pb4e0660e2f)" style="fill: none; stroke: #ff2900; stroke-opacity: 0.8; stroke-width: 1.5; stroke-linecap: square"/>
   </g>
   <g id="line2d_44">
    <path d="M 260.38905 25.109709 
L 260.632704 25.220766 
L 260.945972 25.655363 
L 261.398471 26.751304 
L 262.025008 28.93281 
L 263.034429 33.378295 
L 266.480384 49.125507 
L 267.837881 54.064509 
L 269.125763 57.955796 
L 270.413645 61.152444 
L 271.666719 63.691212 
L 272.954601 65.810099 
L 274.277291 67.561361 
L 275.634788 68.996392 
L 277.061901 70.188918 
L 278.628243 71.204816 
L 280.333817 72.042919 
L 282.283044 72.745479 
L 284.545539 73.316087 
L 287.295341 73.769923 
L 290.810911 74.112121 
L 295.683978 74.347418 
L 303.654923 74.482484 
L 312.565674 74.518989 
L 312.565674 74.518989 
" clip-path="url(#pb4e0660e2f)" style="fill: none; stroke: #f10800; stroke-opacity: 0.8; stroke-width: 1.5; stroke-linecap: square"/>
   </g>
   <g id="line2d_45">
    <path d="M 260.38905 25.109709 
L 260.632704 25.221918 
L 260.945972 25.661304 
L 261.398471 26.770436 
L 262.025008 28.981533 
L 263.034429 33.49806 
L 266.549999 49.855459 
L 267.907496 54.856065 
L 269.195378 58.779445 
L 270.448453 61.905293 
L 271.701527 64.444865 
L 272.954601 66.493554 
L 274.242483 68.17879 
L 275.565173 69.550446 
L 276.957478 70.680884 
L 278.489013 71.634128 
L 280.159779 72.409595 
L 282.074198 73.048285 
L 284.336693 73.561229 
L 287.121303 73.956599 
L 290.810911 74.244217 
L 296.310515 74.428789 
L 306.683186 74.515256 
L 312.565674 74.524671 
L 312.565674 74.524671 
" clip-path="url(#pb4e0660e2f)" style="fill: none; stroke: #cd0000; stroke-opacity: 0.8; stroke-width: 1.5; stroke-linecap: square"/>
   </g>
   <g id="line2d_46">
    <path d="M 260.38905 25.109709 
L 260.632704 25.22278 
L 260.945972 25.665751 
L 261.398471 26.784773 
L 262.025008 29.018098 
L 263.034429 33.588155 
L 266.584807 50.340842 
L 267.942304 55.396869 
L 269.230186 59.3506 
L 270.48326 62.485469 
L 271.701527 64.953225 
L 272.919794 66.941018 
L 274.172868 68.572949 
L 275.46075 69.896672 
L 276.853055 71.007111 
L 278.349783 71.911769 
L 280.020548 72.654405 
L 281.934967 73.253312 
L 284.197463 73.721866 
L 287.051688 74.077565 
L 290.984949 74.327355 
L 297.180705 74.472902 
L 311.347407 74.526246 
L 312.565674 74.526914 
L 312.565674 74.526914 
" clip-path="url(#pb4e0660e2f)" style="fill: none; stroke: #a40000; stroke-opacity: 0.8; stroke-width: 1.5; stroke-linecap: square"/>
   </g>
   <g id="line2d_47">
    <path d="M 260.38905 25.109709 
L 260.632704 25.223423 
L 260.945972 25.669072 
L 261.398471 26.795485 
L 262.025008 29.045448 
L 262.999622 33.485029 
L 266.68923 51.027833 
L 268.011919 55.951669 
L 269.264994 59.802338 
L 270.48326 62.858053 
L 271.701527 65.327733 
L 272.919794 67.30523 
L 274.172868 68.917133 
L 275.46075 70.213673 
L 276.818247 71.267189 
L 278.280167 72.123051 
L 279.916125 72.822728 
L 281.830545 73.391658 
L 284.127848 73.832871 
L 287.086495 74.161116 
L 291.228602 74.379625 
L 298.259742 74.497264 
L 312.565674 74.527891 
L 312.565674 74.527891 
" clip-path="url(#pb4e0660e2f)" style="fill: none; stroke: #800000; stroke-opacity: 0.8; stroke-width: 1.5; stroke-linecap: square"/>
   </g>
   <g id="patch_9">
    <path d="M 257.780219 76.9988 
L 257.780219 22.6388 
" style="fill: none; stroke: #000000; stroke-width: 0.8; stroke-linejoin: miter; stroke-linecap: square"/>
   </g>
   <g id="patch_10">
    <path d="M 257.780219 76.9988 
L 315.174505 76.9988 
" style="fill: none; stroke: #000000; stroke-width: 0.8; stroke-linejoin: miter; stroke-linecap: square"/>
   </g>
   <g id="text_20">
    <!-- $\mathrm{d} y / \mathrm{d}t$ -->
    <g transform="translate(272.787564 16.6388)scale(0.11 -0.11)">
     <defs>
      <path id="CMMI12-79" d="M 1683 -700 
C 1510 -939 1261 -1152 947 -1152 
C 870 -1152 563 -1152 467 -889 
C 486 -895 518 -895 531 -895 
C 723 -895 851 -729 851 -582 
C 851 -435 730 -384 634 -384 
C 531 -384 307 -458 307 -759 
C 307 -1071 582 -1286 947 -1286 
C 1587 -1286 2234 -700 2413 6 
L 3040 2485 
C 3046 2517 3059 2556 3059 2594 
C 3059 2689 2982 2753 2886 2753 
C 2829 2753 2694 2727 2643 2535 
L 2170 658 
C 2138 543 2138 530 2086 460 
C 1958 281 1747 64 1440 64 
C 1082 64 1050 415 1050 588 
C 1050 952 1222 1443 1395 1903 
C 1466 2088 1504 2178 1504 2305 
C 1504 2574 1312 2816 998 2816 
C 410 2816 173 1890 173 1839 
C 173 1814 198 1782 243 1782 
C 301 1782 307 1807 333 1897 
C 486 2433 730 2689 979 2689 
C 1037 2689 1146 2689 1146 2478 
C 1146 2312 1075 2127 979 1884 
C 666 1047 666 837 666 683 
C 666 77 1101 -64 1421 -64 
C 1606 -64 1837 -6 2061 230 
L 2067 224 
C 1971 -147 1907 -392 1683 -700 
z
" transform="scale(0.015625)"/>
     </defs>
     <use xlink:href="#CMR17-64" transform="scale(0.996264)"/>
     <use xlink:href="#CMMI12-79" transform="translate(50.89537 0)scale(0.996264)"/>
     <use xlink:href="#CMMI12-3d" transform="translate(102.034151 0)scale(0.996264)"/>
     <use xlink:href="#CMR17-64" transform="translate(150.809069 0)scale(0.996264)"/>
     <use xlink:href="#CMMI12-74" transform="translate(201.704439 0)scale(0.996264)"/>
    </g>
   </g>
   <g id="legend_1">
    <g id="text_21">
     <!-- Input $I$ -->
     <g transform="translate(436.424104 16.810347)scale(0.11 -0.11)">
      <defs>
       <path id="CMR17-49" d="M 1261 3905 
C 1261 4192 1338 4192 1798 4192 
L 1798 4352 
C 1594 4352 1267 4352 1050 4352 
C 832 4352 506 4352 301 4352 
L 301 4192 
C 762 4192 838 4192 838 3905 
L 838 447 
C 838 160 762 160 301 160 
L 301 0 
C 506 0 832 0 1050 0 
C 1267 0 1594 0 1798 0 
L 1798 160 
C 1338 160 1261 160 1261 447 
L 1261 3905 
z
" transform="scale(0.015625)"/>
       <path id="CMR17-6e" d="M 2656 1933 
C 2656 2259 2592 2790 1837 2790 
C 1331 2790 1069 2400 973 2144 
L 966 2144 
L 966 2790 
L 211 2720 
L 211 2554 
C 589 2554 646 2515 646 2208 
L 646 428 
C 646 184 621 153 211 153 
L 211 -13 
C 365 0 646 0 813 0 
C 979 0 1267 0 1421 -13 
L 1421 153 
C 1011 153 986 178 986 428 
L 986 1658 
C 986 2247 1344 2688 1792 2688 
C 2266 2688 2317 2266 2317 1958 
L 2317 428 
C 2317 184 2291 153 1882 153 
L 1882 -13 
C 2035 0 2317 0 2483 0 
C 2650 0 2938 0 3091 -13 
L 3091 153 
C 2682 153 2656 178 2656 428 
L 2656 1933 
z
" transform="scale(0.015625)"/>
       <path id="CMR17-70" d="M 1408 -1063 
C 998 -1063 973 -1037 973 -789 
L 973 402 
C 1158 134 1427 -38 1766 -38 
C 2406 -38 3053 523 3053 1388 
C 3053 2191 2496 2802 1837 2802 
C 1453 2802 1139 2592 960 2338 
L 960 2802 
L 198 2732 
L 198 2567 
C 576 2567 634 2528 634 2223 
L 634 -789 
C 634 -1031 608 -1063 198 -1063 
L 198 -1228 
C 352 -1216 634 -1216 800 -1216 
C 966 -1216 1254 -1216 1408 -1228 
L 1408 -1063 
z
M 973 2012 
C 973 2102 973 2235 1222 2471 
C 1254 2497 1472 2688 1792 2688 
C 2259 2688 2643 2108 2643 1382 
C 2643 656 2234 64 1728 64 
C 1498 64 1248 172 1056 472 
C 973 612 973 650 973 752 
L 973 2012 
z
" transform="scale(0.015625)"/>
       <path id="CMR17-75" d="M 1882 2693 
L 1882 2528 
C 2259 2528 2317 2489 2317 2186 
L 2317 1032 
C 2317 500 2029 38 1555 38 
C 1030 38 986 348 986 678 
L 986 2763 
L 211 2693 
L 211 2528 
C 467 2528 640 2528 646 2274 
L 646 1058 
C 646 633 646 361 813 183 
C 896 101 1056 -64 1517 -64 
C 2061 -64 2272 377 2323 506 
L 2330 506 
L 2330 -63 
L 3091 -63 
L 3091 128 
C 2714 128 2656 166 2656 473 
L 2656 2763 
L 1882 2693 
z
" transform="scale(0.015625)"/>
       <path id="CMMI12-49" d="M 2355 3880 
C 2413 4103 2426 4167 2893 4167 
C 3034 4167 3085 4167 3085 4288 
C 3085 4352 3014 4352 2995 4352 
C 2880 4352 2739 4352 2624 4352 
L 1837 4352 
C 1709 4352 1562 4352 1434 4352 
C 1382 4352 1312 4352 1312 4231 
C 1312 4167 1363 4167 1491 4167 
C 1888 4167 1888 4116 1888 4046 
C 1888 4002 1875 3963 1862 3906 
L 998 472 
C 941 249 928 185 461 185 
C 320 185 262 185 262 64 
C 262 0 326 0 358 0 
C 474 0 614 0 730 0 
L 1517 0 
C 1645 0 1786 0 1914 0 
C 1965 0 2042 0 2042 115 
C 2042 185 2003 185 1862 185 
C 1466 185 1466 236 1466 312 
C 1466 325 1466 357 1491 459 
L 2355 3880 
z
" transform="scale(0.015625)"/>
      </defs>
      <use xlink:href="#CMR17-49" transform="scale(0.996264)"/>
      <use xlink:href="#CMR17-6e" transform="translate(32.638409 0)scale(0.996264)"/>
      <use xlink:href="#CMR17-70" transform="translate(83.533779 0)scale(0.996264)"/>
      <use xlink:href="#CMR17-75" transform="translate(134.429149 0)scale(0.996264)"/>
      <use xlink:href="#CMR17-74" transform="translate(185.324519 0)scale(0.996264)"/>
      <use xlink:href="#CMMI12-49" transform="translate(250.681253 0)scale(0.996264)"/>
     </g>
    </g>
    <g id="line2d_48">
     <path d="M 440.81293 23.191241 
L 445.81293 23.191241 
L 450.81293 23.191241 
" style="fill: none; stroke: #ffde00; stroke-opacity: 0.8; stroke-width: 1.5; stroke-linecap: square"/>
    </g>
    <g id="text_22">
     <!-- 1.01 -->
     <g transform="translate(454.81293 24.941241)scale(0.05 -0.05)">
      <defs>
       <path id="CMR17-2e" d="M 1062 261 
C 1062 420 934 522 800 522 
C 672 522 538 420 538 261 
C 538 102 666 0 800 0 
C 928 0 1062 102 1062 261 
z
" transform="scale(0.015625)"/>
      </defs>
      <use xlink:href="#CMR17-31" transform="scale(0.996264)"/>
      <use xlink:href="#CMR17-2e" transform="translate(45.690477 0)scale(0.996264)"/>
      <use xlink:href="#CMR17-30" transform="translate(70.561536 0)scale(0.996264)"/>
      <use xlink:href="#CMR17-31" transform="translate(116.252013 0)scale(0.996264)"/>
     </g>
    </g>
    <g id="line2d_49">
     <path d="M 440.81293 30.159823 
L 445.81293 30.159823 
L 450.81293 30.159823 
" style="fill: none; stroke: #ffc400; stroke-opacity: 0.8; stroke-width: 1.5; stroke-linecap: square"/>
    </g>
    <g id="text_23">
     <!-- 1.05 -->
     <g transform="translate(454.81293 31.909823)scale(0.05 -0.05)">
      <use xlink:href="#CMR17-31" transform="scale(0.996264)"/>
      <use xlink:href="#CMR17-2e" transform="translate(45.690477 0)scale(0.996264)"/>
      <use xlink:href="#CMR17-30" transform="translate(70.561536 0)scale(0.996264)"/>
      <use xlink:href="#CMR17-35" transform="translate(116.252013 0)scale(0.996264)"/>
     </g>
    </g>
    <g id="line2d_50">
     <path d="M 440.81293 37.128404 
L 445.81293 37.128404 
L 450.81293 37.128404 
" style="fill: none; stroke: #ffa700; stroke-opacity: 0.8; stroke-width: 1.5; stroke-linecap: square"/>
    </g>
    <g id="text_24">
     <!-- 1.1 -->
     <g transform="translate(454.81293 38.878404)scale(0.05 -0.05)">
      <use xlink:href="#CMR17-31" transform="scale(0.996264)"/>
      <use xlink:href="#CMR17-2e" transform="translate(45.690477 0)scale(0.996264)"/>
      <use xlink:href="#CMR17-31" transform="translate(70.561536 0)scale(0.996264)"/>
     </g>
    </g>
    <g id="line2d_51">
     <path d="M 440.81293 44.096986 
L 445.81293 44.096986 
L 450.81293 44.096986 
" style="fill: none; stroke: #ff8600; stroke-opacity: 0.8; stroke-width: 1.5; stroke-linecap: square"/>
    </g>
    <g id="text_25">
     <!-- 1.15 -->
     <g transform="translate(454.81293 45.846986)scale(0.05 -0.05)">
      <use xlink:href="#CMR17-31" transform="scale(0.996264)"/>
      <use xlink:href="#CMR17-2e" transform="translate(45.690477 0)scale(0.996264)"/>
      <use xlink:href="#CMR17-31" transform="translate(70.561536 0)scale(0.996264)"/>
      <use xlink:href="#CMR17-35" transform="translate(116.252013 0)scale(0.996264)"/>
     </g>
    </g>
    <g id="line2d_52">
     <path d="M 440.81293 51.065568 
L 445.81293 51.065568 
L 450.81293 51.065568 
" style="fill: none; stroke: #ff6800; stroke-opacity: 0.8; stroke-width: 1.5; stroke-linecap: square"/>
    </g>
    <g id="text_26">
     <!-- 1.2 -->
     <g transform="translate(454.81293 52.815568)scale(0.05 -0.05)">
      <use xlink:href="#CMR17-31" transform="scale(0.996264)"/>
      <use xlink:href="#CMR17-2e" transform="translate(45.690477 0)scale(0.996264)"/>
      <use xlink:href="#CMR17-32" transform="translate(70.561536 0)scale(0.996264)"/>
     </g>
    </g>
    <g id="line2d_53">
     <path d="M 440.81293 58.034149 
L 445.81293 58.034149 
L 450.81293 58.034149 
" style="fill: none; stroke: #ff4700; stroke-opacity: 0.8; stroke-width: 1.5; stroke-linecap: square"/>
    </g>
    <g id="text_27">
     <!-- 1.25 -->
     <g transform="translate(454.81293 59.784149)scale(0.05 -0.05)">
      <use xlink:href="#CMR17-31" transform="scale(0.996264)"/>
      <use xlink:href="#CMR17-2e" transform="translate(45.690477 0)scale(0.996264)"/>
      <use xlink:href="#CMR17-32" transform="translate(70.561536 0)scale(0.996264)"/>
      <use xlink:href="#CMR17-35" transform="translate(116.252013 0)scale(0.996264)"/>
     </g>
    </g>
    <g id="line2d_54">
     <path d="M 440.81293 65.002731 
L 445.81293 65.002731 
L 450.81293 65.002731 
" style="fill: none; stroke: #ff2900; stroke-opacity: 0.8; stroke-width: 1.5; stroke-linecap: square"/>
    </g>
    <g id="text_28">
     <!-- 1.3 -->
     <g transform="translate(454.81293 66.752731)scale(0.05 -0.05)">
      <defs>
       <path id="CMR17-33" d="M 1414 2157 
C 1984 2157 2234 1662 2234 1090 
C 2234 320 1824 25 1453 25 
C 1114 25 563 194 390 693 
C 422 680 454 680 486 680 
C 640 680 755 782 755 948 
C 755 1133 614 1216 486 1216 
C 378 1216 211 1165 211 926 
C 211 335 787 -128 1466 -128 
C 2176 -128 2720 430 2720 1085 
C 2720 1707 2208 2157 1600 2227 
C 2086 2328 2554 2756 2554 3329 
C 2554 3820 2048 4179 1472 4179 
C 890 4179 378 3829 378 3329 
C 378 3110 544 3072 627 3072 
C 762 3072 877 3155 877 3321 
C 877 3486 762 3569 627 3569 
C 602 3569 570 3569 544 3557 
C 730 3959 1235 4032 1459 4032 
C 1683 4032 2106 3925 2106 3320 
C 2106 3143 2080 2828 1862 2550 
C 1670 2304 1453 2304 1242 2284 
C 1210 2284 1062 2269 1037 2269 
C 992 2263 966 2257 966 2208 
C 966 2163 973 2157 1101 2157 
L 1414 2157 
z
" transform="scale(0.015625)"/>
      </defs>
      <use xlink:href="#CMR17-31" transform="scale(0.996264)"/>
      <use xlink:href="#CMR17-2e" transform="translate(45.690477 0)scale(0.996264)"/>
      <use xlink:href="#CMR17-33" transform="translate(70.561536 0)scale(0.996264)"/>
     </g>
    </g>
    <g id="line2d_55">
     <path d="M 440.81293 71.971312 
L 445.81293 71.971312 
L 450.81293 71.971312 
" style="fill: none; stroke: #f10800; stroke-opacity: 0.8; stroke-width: 1.5; stroke-linecap: square"/>
    </g>
    <g id="text_29">
     <!-- 1.35 -->
     <g transform="translate(454.81293 73.721312)scale(0.05 -0.05)">
      <use xlink:href="#CMR17-31" transform="scale(0.996264)"/>
      <use xlink:href="#CMR17-2e" transform="translate(45.690477 0)scale(0.996264)"/>
      <use xlink:href="#CMR17-33" transform="translate(70.561536 0)scale(0.996264)"/>
      <use xlink:href="#CMR17-35" transform="translate(116.252013 0)scale(0.996264)"/>
     </g>
    </g>
    <g id="line2d_56">
     <path d="M 440.81293 78.939894 
L 445.81293 78.939894 
L 450.81293 78.939894 
" style="fill: none; stroke: #cd0000; stroke-opacity: 0.8; stroke-width: 1.5; stroke-linecap: square"/>
    </g>
    <g id="text_30">
     <!-- 1.4 -->
     <g transform="translate(454.81293 80.689894)scale(0.05 -0.05)">
      <defs>
       <path id="CMR17-34" d="M 2150 4122 
C 2150 4256 2144 4256 2029 4256 
L 128 1254 
L 128 1088 
L 1779 1088 
L 1779 457 
C 1779 224 1766 160 1318 160 
L 1197 160 
L 1197 0 
C 1402 0 1747 0 1965 0 
C 2182 0 2528 0 2733 0 
L 2733 160 
L 2611 160 
C 2163 160 2150 224 2150 457 
L 2150 1088 
L 2803 1088 
L 2803 1254 
L 2150 1254 
L 2150 4122 
z
M 1798 3703 
L 1798 1254 
L 256 1254 
L 1798 3703 
z
" transform="scale(0.015625)"/>
      </defs>
      <use xlink:href="#CMR17-31" transform="scale(0.996264)"/>
      <use xlink:href="#CMR17-2e" transform="translate(45.690477 0)scale(0.996264)"/>
      <use xlink:href="#CMR17-34" transform="translate(70.561536 0)scale(0.996264)"/>
     </g>
    </g>
    <g id="line2d_57">
     <path d="M 440.81293 85.908475 
L 445.81293 85.908475 
L 450.81293 85.908475 
" style="fill: none; stroke: #a40000; stroke-opacity: 0.8; stroke-width: 1.5; stroke-linecap: square"/>
    </g>
    <g id="text_31">
     <!-- 1.45 -->
     <g transform="translate(454.81293 87.658475)scale(0.05 -0.05)">
      <use xlink:href="#CMR17-31" transform="scale(0.996264)"/>
      <use xlink:href="#CMR17-2e" transform="translate(45.690477 0)scale(0.996264)"/>
      <use xlink:href="#CMR17-34" transform="translate(70.561536 0)scale(0.996264)"/>
      <use xlink:href="#CMR17-35" transform="translate(116.252013 0)scale(0.996264)"/>
     </g>
    </g>
    <g id="line2d_58">
     <path d="M 440.81293 92.877057 
L 445.81293 92.877057 
L 450.81293 92.877057 
" style="fill: none; stroke: #800000; stroke-opacity: 0.8; stroke-width: 1.5; stroke-linecap: square"/>
    </g>
    <g id="text_32">
     <!-- 1.5 -->
     <g transform="translate(454.81293 94.627057)scale(0.05 -0.05)">
      <use xlink:href="#CMR17-31" transform="scale(0.996264)"/>
      <use xlink:href="#CMR17-2e" transform="translate(45.690477 0)scale(0.996264)"/>
      <use xlink:href="#CMR17-35" transform="translate(70.561536 0)scale(0.996264)"/>
     </g>
    </g>
   </g>
  </g>
  <g id="axes_4">
   <g id="patch_11">
    <path d="M 372.568791 76.9988 
L 429.963076 76.9988 
L 429.963076 22.6388 
L 372.568791 22.6388 
z
" style="fill: #ffffff"/>
   </g>
   <g id="matplotlib.axis_7">
    <g id="xtick_7">
     <g id="line2d_59">
      <g>
       <use xlink:href="#m8792437865" x="392.569829" y="76.9988" style="stroke: #000000; stroke-width: 0.8"/>
      </g>
     </g>
     <g id="text_33">
      <!-- $\mathdefault{0.5}$ -->
      <g transform="translate(385.568291 91.609147)scale(0.11 -0.11)">
       <use xlink:href="#CMR17-30" transform="scale(0.996264)"/>
       <use xlink:href="#CMMI12-3a" transform="translate(45.690477 0)scale(0.996264)"/>
       <use xlink:href="#CMR17-35" transform="translate(72.787654 0)scale(0.996264)"/>
      </g>
     </g>
    </g>
    <g id="xtick_8">
     <g id="line2d_60">
      <g>
       <use xlink:href="#m8792437865" x="414.310089" y="76.9988" style="stroke: #000000; stroke-width: 0.8"/>
      </g>
     </g>
     <g id="text_34">
      <!-- $\mathdefault{1.0}$ -->
      <g transform="translate(407.308551 91.609147)scale(0.11 -0.11)">
       <use xlink:href="#CMR17-31" transform="scale(0.996264)"/>
       <use xlink:href="#CMMI12-3a" transform="translate(45.690477 0)scale(0.996264)"/>
       <use xlink:href="#CMR17-30" transform="translate(72.787654 0)scale(0.996264)"/>
      </g>
     </g>
    </g>
    <g id="text_35">
     <!-- $u$ -->
     <g transform="translate(398.129182 105.350388)scale(0.11 -0.11)">
      <use xlink:href="#CMMI12-75" transform="scale(0.996264)"/>
     </g>
    </g>
   </g>
   <g id="matplotlib.axis_8">
    <g id="ytick_9">
     <g id="line2d_61">
      <g>
       <use xlink:href="#mf05417427a" x="372.568791" y="58.055164" style="stroke: #000000; stroke-width: 0.8"/>
      </g>
     </g>
     <g id="text_36">
      <!-- $\mathdefault{0.5}$ -->
      <g transform="translate(351.565714 61.860337)scale(0.11 -0.11)">
       <use xlink:href="#CMR17-30" transform="scale(0.996264)"/>
       <use xlink:href="#CMMI12-3a" transform="translate(45.690477 0)scale(0.996264)"/>
       <use xlink:href="#CMR17-35" transform="translate(72.787654 0)scale(0.996264)"/>
      </g>
     </g>
    </g>
    <g id="ytick_10">
     <g id="line2d_62">
      <g>
       <use xlink:href="#mf05417427a" x="372.568791" y="37.464255" style="stroke: #000000; stroke-width: 0.8"/>
      </g>
     </g>
     <g id="text_37">
      <!-- $\mathdefault{1.0}$ -->
      <g transform="translate(351.565714 41.269428)scale(0.11 -0.11)">
       <use xlink:href="#CMR17-31" transform="scale(0.996264)"/>
       <use xlink:href="#CMMI12-3a" transform="translate(45.690477 0)scale(0.996264)"/>
       <use xlink:href="#CMR17-30" transform="translate(72.787654 0)scale(0.996264)"/>
      </g>
     </g>
    </g>
    <g id="text_38">
     <!-- $v$ -->
     <g transform="translate(345.43482 52.474817)rotate(-90)scale(0.11 -0.11)">
      <use xlink:href="#CMMI12-76" transform="scale(0.996264)"/>
     </g>
    </g>
   </g>
   <g id="line2d_63">
    <path d="M 375.177622 37.520201 
L 379.525674 37.566082 
L 383.873726 37.649419 
L 388.221778 37.800404 
L 392.569829 38.072676 
L 396.917881 38.559567 
L 401.265933 39.417338 
L 405.613985 40.889457 
L 409.962037 43.305939 
L 414.310089 46.996825 
L 418.658141 52.056772 
L 423.006193 58.055164 
L 427.354245 64.053555 
" clip-path="url(#pd011a841f0)" style="fill: none; stroke: #ff6800; stroke-width: 1.5; stroke-linecap: square"/>
   </g>
   <g id="line2d_64">
    <path d="M 414.25102 74.527891 
L 414.202578 70.409709 
L 414.114589 66.291527 
L 413.955176 62.173345 
L 413.667707 58.055164 
L 413.153638 53.936982 
L 412.247988 49.8188 
L 410.693697 45.700618 
L 408.142331 41.582436 
L 404.245427 37.464255 
L 398.903041 33.346073 
L 392.569829 29.227891 
L 386.236618 25.109709 
" clip-path="url(#pd011a841f0)" style="fill: none; stroke-dasharray: 2.25,1.5; stroke-dashoffset: 0; stroke: #ff6800; stroke-width: 1.5"/>
   </g>
   <g id="line2d_65">
    <defs>
     <path id="m05eb3051d2" d="M -3 3 
L 3 -3 
M -3 -3 
L 3 3 
" style="stroke: #000000"/>
    </defs>
    <g clip-path="url(#pd011a841f0)">
     <use xlink:href="#m05eb3051d2" x="401.265933" y="70.409709" style="stroke: #000000"/>
    </g>
   </g>
   <g id="patch_12">
    <path d="M 372.568791 76.9988 
L 372.568791 22.6388 
" style="fill: none; stroke: #000000; stroke-width: 0.8; stroke-linejoin: miter; stroke-linecap: square"/>
   </g>
   <g id="patch_13">
    <path d="M 372.568791 76.9988 
L 429.963076 76.9988 
" style="fill: none; stroke: #000000; stroke-width: 0.8; stroke-linejoin: miter; stroke-linecap: square"/>
   </g>
   <g id="text_39">
    <!-- phase plane -->
    <g transform="translate(373.229332 16.6388)scale(0.11 -0.11)">
     <defs>
      <path id="CMR17-68" d="M 2656 1933 
C 2656 2259 2592 2790 1837 2790 
C 1312 2790 1056 2368 979 2157 
L 973 2157 
L 973 4396 
L 211 4326 
L 211 4160 
C 589 4160 646 4122 646 3817 
L 646 426 
C 646 184 621 153 211 153 
L 211 -13 
C 365 0 646 0 813 0 
C 979 0 1267 0 1421 -13 
L 1421 153 
C 1011 153 986 178 986 428 
L 986 1658 
C 986 2247 1344 2688 1792 2688 
C 2266 2688 2317 2266 2317 1958 
L 2317 428 
C 2317 184 2291 153 1882 153 
L 1882 -13 
C 2035 0 2317 0 2483 0 
C 2650 0 2938 0 3091 -13 
L 3091 153 
C 2682 153 2656 178 2656 428 
L 2656 1933 
z
" transform="scale(0.015625)"/>
      <path id="CMR17-61" d="M 2304 1653 
C 2304 2072 2304 2294 2035 2543 
C 1798 2752 1523 2816 1306 2816 
C 800 2816 435 2407 435 1971 
C 435 1728 627 1728 666 1728 
C 749 1728 896 1778 896 1954 
C 896 2112 774 2181 666 2181 
C 640 2181 608 2174 589 2168 
C 723 2592 1069 2714 1293 2714 
C 1613 2714 1965 2429 1965 1885 
L 1965 1600 
C 1587 1600 1133 1549 774 1357 
C 371 1133 256 813 256 570 
C 256 77 832 -64 1171 -64 
C 1523 -64 1850 139 1990 511 
C 2003 233 2182 -18 2464 -18 
C 2598 -18 2938 70 2938 567 
L 2938 920 
L 2822 920 
L 2822 562 
C 2822 178 2650 128 2566 128 
C 2304 128 2304 458 2304 738 
L 2304 1653 
z
M 1965 870 
C 1965 317 1568 38 1216 38 
C 896 38 646 275 646 570 
C 646 761 730 1100 1101 1305 
C 1408 1478 1760 1504 1965 1504 
L 1965 870 
z
" transform="scale(0.015625)"/>
      <path id="CMR17-6c" d="M 979 4396 
L 218 4326 
L 218 4160 
C 595 4160 653 4122 653 3817 
L 653 426 
C 653 184 627 153 218 153 
L 218 -13 
C 371 0 653 0 813 0 
C 979 0 1261 0 1414 -13 
L 1414 153 
C 1005 153 979 178 979 426 
L 979 4396 
z
" transform="scale(0.015625)"/>
     </defs>
     <use xlink:href="#CMR17-70" transform="scale(0.996264)"/>
     <use xlink:href="#CMR17-68" transform="translate(50.89537 0)scale(0.996264)"/>
     <use xlink:href="#CMR17-61" transform="translate(101.79074 0)scale(0.996264)"/>
     <use xlink:href="#CMR17-73" transform="translate(147.481217 0)scale(0.996264)"/>
     <use xlink:href="#CMR17-65" transform="translate(183.282554 0)scale(0.996264)"/>
     <use xlink:href="#CMR17-70" transform="translate(253.844181 0)scale(0.996264)"/>
     <use xlink:href="#CMR17-6c" transform="translate(304.739551 0)scale(0.996264)"/>
     <use xlink:href="#CMR17-61" transform="translate(329.610609 0)scale(0.996264)"/>
     <use xlink:href="#CMR17-6e" transform="translate(375.301087 0)scale(0.996264)"/>
     <use xlink:href="#CMR17-65" transform="translate(426.196456 0)scale(0.996264)"/>
    </g>
   </g>
  </g>
 </g>
 <defs>
  <clipPath id="p183e748430">
   <rect x="28.203076" y="22.6388" width="57.394286" height="54.36"/>
  </clipPath>
  <clipPath id="p55d68dd996">
   <rect x="142.991648" y="22.6388" width="57.394286" height="54.36"/>
  </clipPath>
  <clipPath id="pb4e0660e2f">
   <rect x="257.780219" y="22.6388" width="57.394286" height="54.36"/>
  </clipPath>
  <clipPath id="pd011a841f0">
   <rect x="372.568791" y="22.6388" width="57.394286" height="54.36"/>
  </clipPath>
 </defs>
</svg>
