<?xml version="1.0" encoding="utf-8" standalone="no"?>
<!DOCTYPE svg PUBLIC "-//W3C//DTD SVG 1.1//EN"
  "http://www.w3.org/Graphics/SVG/1.1/DTD/svg11.dtd">
<svg xmlns:xlink="http://www.w3.org/1999/xlink" width="314.862515pt" height="101.535578pt" viewBox="0 0 314.862515 101.535578" xmlns="http://www.w3.org/2000/svg" version="1.1">
 <metadata>
  <rdf:RDF xmlns:dc="http://purl.org/dc/elements/1.1/" xmlns:cc="http://creativecommons.org/ns#" xmlns:rdf="http://www.w3.org/1999/02/22-rdf-syntax-ns#">
   <cc:Work>
    <dc:type rdf:resource="http://purl.org/dc/dcmitype/StillImage"/>
    <dc:date>2022-08-09T11:37:52.982555</dc:date>
    <dc:format>image/svg+xml</dc:format>
    <dc:creator>
     <cc:Agent>
      <dc:title>Matplotlib v3.5.1, https://matplotlib.org/</dc:title>
     </cc:Agent>
    </dc:creator>
   </cc:Work>
  </rdf:RDF>
 </metadata>
 <defs>
  <style type="text/css">*{stroke-linejoin: round; stroke-linecap: butt}</style>
 </defs>
 <g id="figure_1">
  <g id="patch_1">
   <path d="M 0 101.535578 
L 314.862515 101.535578 
L 314.862515 0 
L 0 0 
L 0 101.535578 
z
" style="fill: none"/>
  </g>
  <g id="axes_1">
   <g id="patch_2">
    <path d="M 28.203076 62.635433 
L 80.648222 62.635433 
L 80.648222 21.419178 
L 28.203076 21.419178 
z
" style="fill: #ffffff"/>
   </g>
   <g id="matplotlib.axis_1">
    <g id="xtick_1">
     <g id="line2d_1">
      <defs>
       <path id="m693b2172ab" d="M 0 0 
L 0 3.5 
" style="stroke: #000000; stroke-width: 0.8"/>
      </defs>
      <g>
       <use xlink:href="#m693b2172ab" x="30.586946" y="62.635433" style="stroke: #000000; stroke-width: 0.8"/>
      </g>
     </g>
     <g id="text_1">
      <!-- $\mathdefault{0}$ -->
      <g transform="translate(27.847213 77.245779)scale(0.11 -0.11)">
       <defs>
        <path id="CMR17-30" d="M 2688 2025 
C 2688 2416 2682 3080 2413 3591 
C 2176 4039 1798 4198 1466 4198 
C 1158 4198 768 4058 525 3597 
C 269 3118 243 2524 243 2025 
C 243 1661 250 1106 448 619 
C 723 -39 1216 -128 1466 -128 
C 1760 -128 2208 -7 2470 600 
C 2662 1042 2688 1559 2688 2025 
z
M 1466 -26 
C 1056 -26 813 325 723 812 
C 653 1188 653 1738 653 2096 
C 653 2588 653 2997 736 3387 
C 858 3929 1216 4096 1466 4096 
C 1728 4096 2067 3923 2189 3400 
C 2272 3036 2278 2607 2278 2096 
C 2278 1680 2278 1169 2202 792 
C 2067 95 1690 -26 1466 -26 
z
" transform="scale(0.015625)"/>
       </defs>
       <use xlink:href="#CMR17-30" transform="scale(0.996264)"/>
      </g>
     </g>
    </g>
    <g id="xtick_2">
     <g id="line2d_2">
      <g>
       <use xlink:href="#m693b2172ab" x="62.393087" y="62.635433" style="stroke: #000000; stroke-width: 0.8"/>
      </g>
     </g>
     <g id="text_2">
      <!-- $\mathdefault{1000}$ -->
      <g transform="translate(51.434153 77.245779)scale(0.11 -0.11)">
       <defs>
        <path id="CMR17-31" d="M 1702 4058 
C 1702 4192 1696 4192 1606 4192 
C 1357 3916 979 3827 621 3827 
C 602 3827 570 3827 563 3808 
C 557 3795 557 3782 557 3648 
C 755 3648 1088 3686 1344 3839 
L 1344 461 
C 1344 236 1331 160 781 160 
L 589 160 
L 589 0 
C 896 0 1216 0 1523 0 
C 1830 0 2150 0 2458 0 
L 2458 160 
L 2266 160 
C 1715 160 1702 230 1702 458 
L 1702 4058 
z
" transform="scale(0.015625)"/>
       </defs>
       <use xlink:href="#CMR17-31" transform="scale(0.996264)"/>
       <use xlink:href="#CMR17-30" transform="translate(45.690477 0)scale(0.996264)"/>
       <use xlink:href="#CMR17-30" transform="translate(91.380954 0)scale(0.996264)"/>
       <use xlink:href="#CMR17-30" transform="translate(137.071431 0)scale(0.996264)"/>
      </g>
     </g>
    </g>
    <g id="text_3">
     <!-- time [ms] -->
     <g transform="translate(32.172945 91.595852)scale(0.11 -0.11)">
      <defs>
       <path id="CMR17-74" d="M 966 2560 
L 1862 2560 
L 1862 2725 
L 966 2725 
L 966 3904 
L 851 3904 
C 838 3245 614 2668 70 2668 
L 70 2560 
L 627 2560 
L 627 771 
C 627 650 627 -64 1370 -64 
C 1747 -64 1965 306 1965 777 
L 1965 1140 
L 1850 1140 
L 1850 783 
C 1850 344 1677 51 1408 51 
C 1222 51 966 178 966 758 
L 966 2560 
z
" transform="scale(0.015625)"/>
       <path id="CMR17-69" d="M 992 3909 
C 992 4049 877 4170 730 4170 
C 589 4170 467 4056 467 3909 
C 467 3769 582 3648 730 3648 
C 870 3648 992 3763 992 3909 
z
M 243 2706 
L 243 2541 
C 602 2541 653 2502 653 2197 
L 653 427 
C 653 184 627 153 218 153 
L 218 -13 
C 371 0 646 0 806 0 
C 960 0 1222 0 1370 -13 
L 1370 153 
C 992 153 979 191 979 420 
L 979 2776 
L 243 2706 
z
" transform="scale(0.015625)"/>
       <path id="CMR17-6d" d="M 4326 1933 
C 4326 2252 4269 2790 3507 2790 
C 3072 2790 2771 2496 2656 2151 
L 2650 2151 
C 2573 2676 2195 2790 1837 2790 
C 1331 2790 1069 2400 973 2144 
L 966 2144 
L 966 2790 
L 211 2720 
L 211 2554 
C 589 2554 646 2515 646 2208 
L 646 428 
C 646 184 621 153 211 153 
L 211 -13 
C 365 0 646 0 813 0 
C 979 0 1267 0 1421 -13 
L 1421 153 
C 1011 153 986 178 986 428 
L 986 1658 
C 986 2247 1344 2688 1792 2688 
C 2266 2688 2317 2266 2317 1958 
L 2317 428 
C 2317 184 2291 153 1882 153 
L 1882 -13 
C 2035 0 2317 0 2483 0 
C 2650 0 2938 0 3091 -13 
L 3091 153 
C 2682 153 2656 178 2656 428 
L 2656 1658 
C 2656 2247 3014 2688 3462 2688 
C 3936 2688 3987 2266 3987 1958 
L 3987 428 
C 3987 184 3962 153 3552 153 
L 3552 -13 
C 3706 0 3987 0 4154 0 
C 4320 0 4608 0 4762 -13 
L 4762 153 
C 4352 153 4326 178 4326 428 
L 4326 1933 
z
" transform="scale(0.015625)"/>
       <path id="CMR17-65" d="M 2438 1472 
C 2464 1498 2464 1511 2464 1576 
C 2464 2238 2118 2816 1389 2816 
C 710 2816 173 2169 173 1383 
C 173 551 781 -64 1459 -64 
C 2176 -64 2458 607 2458 740 
C 2458 784 2419 784 2406 784 
C 2362 784 2355 771 2330 696 
C 2189 265 1837 51 1504 51 
C 1229 51 954 203 781 480 
C 582 803 582 1176 582 1472 
L 2438 1472 
z
M 589 1568 
C 634 2505 1126 2714 1382 2714 
C 1818 2714 2112 2297 2118 1568 
L 589 1568 
z
" transform="scale(0.015625)"/>
       <path id="CMR17-5b" d="M 1504 -1600 
L 1504 -1377 
L 902 -1377 
L 902 4544 
L 1504 4544 
L 1504 4767 
L 678 4767 
L 678 -1600 
L 1504 -1600 
z
" transform="scale(0.015625)"/>
       <path id="CMR17-73" d="M 1978 2697 
C 1978 2813 1971 2819 1933 2819 
C 1907 2819 1901 2813 1824 2717 
C 1805 2691 1747 2626 1728 2601 
C 1523 2819 1235 2819 1126 2819 
C 416 2819 160 2447 160 2076 
C 160 1498 813 1365 998 1325 
C 1402 1243 1542 1217 1677 1101 
C 1760 1025 1901 884 1901 654 
C 1901 384 1747 38 1158 38 
C 602 38 403 460 288 1021 
C 269 1110 269 1117 218 1117 
C 166 1117 160 1110 160 983 
L 160 63 
C 160 -51 166 -58 205 -58 
C 237 -58 243 -51 275 0 
C 314 57 410 211 448 276 
C 576 103 800 -64 1158 -64 
C 1792 -64 2131 283 2131 784 
C 2131 1112 1958 1285 1875 1362 
C 1683 1561 1459 1606 1190 1657 
C 838 1735 390 1825 390 2217 
C 390 2383 480 2737 1126 2737 
C 1811 2737 1850 2094 1862 1888 
C 1869 1856 1901 1849 1920 1849 
C 1978 1849 1978 1869 1978 1978 
L 1978 2697 
z
" transform="scale(0.015625)"/>
       <path id="CMR17-5d" d="M 915 4767 
L 90 4767 
L 90 4544 
L 691 4544 
L 691 -1377 
L 90 -1377 
L 90 -1600 
L 915 -1600 
L 915 4767 
z
" transform="scale(0.015625)"/>
      </defs>
      <use xlink:href="#CMR17-74" transform="scale(0.996264)"/>
      <use xlink:href="#CMR17-69" transform="translate(35.280768 0)scale(0.996264)"/>
      <use xlink:href="#CMR17-6d" transform="translate(60.151826 0)scale(0.996264)"/>
      <use xlink:href="#CMR17-65" transform="translate(137.071416 0)scale(0.996264)"/>
      <use xlink:href="#CMR17-5b" transform="translate(207.633043 0)scale(0.996264)"/>
      <use xlink:href="#CMR17-6d" transform="translate(232.504101 0)scale(0.996264)"/>
      <use xlink:href="#CMR17-73" transform="translate(309.423691 0)scale(0.996264)"/>
      <use xlink:href="#CMR17-5d" transform="translate(345.225029 0)scale(0.996264)"/>
     </g>
    </g>
   </g>
   <g id="matplotlib.axis_2">
    <g id="ytick_1">
     <g id="line2d_3">
      <defs>
       <path id="m51adcefddf" d="M 0 0 
L -3.5 0 
" style="stroke: #000000; stroke-width: 0.8"/>
      </defs>
      <g>
       <use xlink:href="#m51adcefddf" x="28.203076" y="60.761967" style="stroke: #000000; stroke-width: 0.8"/>
      </g>
     </g>
     <g id="text_4">
      <!-- $\mathdefault{0.7}$ -->
      <g transform="translate(7.2 64.56714)scale(0.11 -0.11)">
       <defs>
        <path id="CMMI12-3a" d="M 1178 307 
C 1178 492 1024 619 870 619 
C 685 619 557 466 557 313 
C 557 128 710 0 864 0 
C 1050 0 1178 153 1178 307 
z
" transform="scale(0.015625)"/>
        <path id="CMR17-37" d="M 2886 3941 
L 2886 4081 
L 1382 4081 
C 634 4081 621 4165 595 4288 
L 480 4288 
L 294 3094 
L 410 3094 
C 429 3215 474 3540 550 3661 
C 589 3712 1062 3712 1171 3712 
L 2579 3712 
L 1869 2661 
C 1395 1954 1069 999 1069 165 
C 1069 89 1069 -128 1299 -128 
C 1530 -128 1530 89 1530 171 
L 1530 465 
C 1530 1508 1709 2196 2003 2636 
L 2886 3941 
z
" transform="scale(0.015625)"/>
       </defs>
       <use xlink:href="#CMR17-30" transform="scale(0.996264)"/>
       <use xlink:href="#CMMI12-3a" transform="translate(45.690477 0)scale(0.996264)"/>
       <use xlink:href="#CMR17-37" transform="translate(72.787654 0)scale(0.996264)"/>
      </g>
     </g>
    </g>
    <g id="ytick_2">
     <g id="line2d_4">
      <g>
       <use xlink:href="#m51adcefddf" x="28.203076" y="46.628053" style="stroke: #000000; stroke-width: 0.8"/>
      </g>
     </g>
     <g id="text_5">
      <!-- $\mathdefault{0.8}$ -->
      <g transform="translate(7.2 50.433226)scale(0.11 -0.11)">
       <defs>
        <path id="CMR17-38" d="M 1741 2264 
C 2144 2467 2554 2773 2554 3263 
C 2554 3841 1990 4179 1472 4179 
C 890 4179 378 3759 378 3180 
C 378 3021 416 2747 666 2505 
C 730 2442 998 2251 1171 2130 
C 883 1983 211 1634 211 934 
C 211 279 838 -128 1459 -128 
C 2144 -128 2720 362 2720 1010 
C 2720 1590 2330 1857 2074 2029 
L 1741 2264 
z
M 902 2822 
C 851 2854 595 3051 595 3351 
C 595 3739 998 4032 1459 4032 
C 1965 4032 2336 3676 2336 3262 
C 2336 2669 1670 2331 1638 2331 
C 1632 2331 1626 2331 1574 2370 
L 902 2822 
z
M 2080 1519 
C 2176 1449 2483 1240 2483 851 
C 2483 381 2010 25 1472 25 
C 890 25 448 438 448 940 
C 448 1443 838 1862 1280 2060 
L 2080 1519 
z
" transform="scale(0.015625)"/>
       </defs>
       <use xlink:href="#CMR17-30" transform="scale(0.996264)"/>
       <use xlink:href="#CMMI12-3a" transform="translate(45.690477 0)scale(0.996264)"/>
       <use xlink:href="#CMR17-38" transform="translate(72.787654 0)scale(0.996264)"/>
      </g>
     </g>
    </g>
    <g id="ytick_3">
     <g id="line2d_5">
      <g>
       <use xlink:href="#m51adcefddf" x="28.203076" y="32.494139" style="stroke: #000000; stroke-width: 0.8"/>
      </g>
     </g>
     <g id="text_6">
      <!-- $\mathdefault{0.9}$ -->
      <g transform="translate(7.2 36.299312)scale(0.11 -0.11)">
       <defs>
        <path id="CMR17-39" d="M 2253 1864 
C 2253 464 1670 31 1190 31 
C 1043 31 685 31 538 294 
C 704 268 826 357 826 518 
C 826 692 685 749 595 749 
C 538 749 365 723 365 506 
C 365 71 742 -128 1203 -128 
C 1939 -128 2688 674 2688 2073 
C 2688 3817 1971 4179 1485 4179 
C 851 4179 243 3628 243 2778 
C 243 1991 762 1408 1414 1408 
C 1952 1408 2189 1903 2253 2112 
L 2253 1864 
z
M 1427 1510 
C 1254 1510 1011 1542 813 1922 
C 678 2169 678 2461 678 2771 
C 678 3146 678 3405 858 3684 
C 947 3817 1114 4032 1485 4032 
C 2240 4032 2240 2885 2240 2632 
C 2240 2182 2035 1510 1427 1510 
z
" transform="scale(0.015625)"/>
       </defs>
       <use xlink:href="#CMR17-30" transform="scale(0.996264)"/>
       <use xlink:href="#CMMI12-3a" transform="translate(45.690477 0)scale(0.996264)"/>
       <use xlink:href="#CMR17-39" transform="translate(72.787654 0)scale(0.996264)"/>
      </g>
     </g>
    </g>
   </g>
   <g id="line2d_6">
    <path d="M 30.586946 60.761967 
L 31.413906 51.467605 
L 32.20906 44.938107 
L 32.940601 40.62924 
L 33.640336 37.711258 
L 34.340071 35.691997 
L 35.039806 34.336131 
L 35.739541 33.4553 
L 36.471083 32.887966 
L 37.298042 32.53779 
L 38.284033 32.373057 
L 39.61989 32.391733 
L 41.814514 32.675056 
L 56.60437 34.935888 
L 65.287446 35.911806 
L 75.71986 36.853345 
L 78.264351 37.053906 
L 78.264351 37.053906 
" clip-path="url(#pe3b5bf2681)" style="fill: none; stroke: #ffde00; stroke-opacity: 0.8; stroke-width: 1.5; stroke-linecap: square"/>
   </g>
   <g id="line2d_7">
    <path d="M 30.586946 60.761967 
L 31.413906 51.388208 
L 32.20906 44.750634 
L 32.972407 40.173882 
L 33.703948 37.103996 
L 34.403683 35.09692 
L 35.071612 33.816998 
L 35.739541 32.993058 
L 36.439276 32.48058 
L 37.202624 32.20481 
L 38.093196 32.127369 
L 39.270023 32.262174 
L 41.114779 32.725452 
L 52.946663 36.065174 
L 58.703575 37.313936 
L 65.223834 38.495231 
L 72.602858 39.601028 
L 78.264351 40.316988 
L 78.264351 40.316988 
" clip-path="url(#pe3b5bf2681)" style="fill: none; stroke: #ffc400; stroke-opacity: 0.8; stroke-width: 1.5; stroke-linecap: square"/>
   </g>
   <g id="line2d_8">
    <path d="M 30.586946 60.761967 
L 31.445712 50.997319 
L 32.240866 44.322994 
L 33.004213 39.672858 
L 33.735754 36.523291 
L 34.435489 34.452001 
L 35.103418 33.132749 
L 35.771347 32.294685 
L 36.439276 31.809504 
L 37.139011 31.571468 
L 37.965971 31.533108 
L 39.015574 31.720146 
L 40.605881 32.256979 
L 50.402172 35.947825 
L 54.409746 37.058838 
L 58.830799 38.050854 
L 63.792557 38.931223 
L 69.390438 39.693955 
L 75.878891 40.347147 
L 78.264351 40.538405 
L 78.264351 40.538405 
" clip-path="url(#pe3b5bf2681)" style="fill: none; stroke: #ffa700; stroke-opacity: 0.8; stroke-width: 1.5; stroke-linecap: square"/>
   </g>
   <g id="line2d_9">
    <path d="M 30.586946 60.761967 
L 31.445712 50.932295 
L 32.272672 43.924668 
L 33.036019 39.207266 
L 33.767561 35.970314 
L 34.467296 33.813305 
L 35.135225 32.422884 
L 35.803154 31.530604 
L 36.471083 31.010034 
L 37.170818 30.753805 
L 37.965971 30.71192 
L 38.951961 30.895237 
L 40.415044 31.420421 
L 48.875477 34.825672 
L 52.15151 35.740938 
L 55.809216 36.527417 
L 59.97582 37.190781 
L 64.873966 37.739562 
L 70.853521 38.177868 
L 78.264351 38.499304 
L 78.264351 38.499304 
" clip-path="url(#pe3b5bf2681)" style="fill: none; stroke: #ff8600; stroke-opacity: 0.8; stroke-width: 1.5; stroke-linecap: square"/>
   </g>
   <g id="line2d_10">
    <path d="M 30.586946 60.761967 
L 31.445712 50.882248 
L 32.272672 43.785441 
L 33.067825 38.779124 
L 33.831173 35.335197 
L 34.530908 33.118225 
L 35.230643 31.607348 
L 35.898572 30.672929 
L 36.566501 30.112202 
L 37.266236 29.819423 
L 38.029583 29.742949 
L 38.983768 29.880192 
L 40.351432 30.324352 
L 48.557416 33.37913 
L 51.610805 34.096832 
L 55.109481 34.685508 
L 59.307892 35.158136 
L 64.587711 35.518733 
L 71.807705 35.773747 
L 78.264351 35.882247 
L 78.264351 35.882247 
" clip-path="url(#pe3b5bf2681)" style="fill: none; stroke: #ff6800; stroke-opacity: 0.8; stroke-width: 1.5; stroke-linecap: square"/>
   </g>
   <g id="line2d_11">
    <path d="M 30.586946 60.761967 
L 31.445712 50.844044 
L 32.272672 43.675076 
L 33.067825 38.561484 
L 33.831173 34.986269 
L 34.562714 32.547321 
L 35.262449 30.930611 
L 35.962184 29.857236 
L 36.630113 29.218597 
L 37.329848 28.849764 
L 38.093196 28.698675 
L 39.015574 28.749605 
L 40.287819 29.060275 
L 42.895923 29.988119 
L 46.140149 31.053232 
L 49.002702 31.748755 
L 52.183316 32.285225 
L 56.031859 32.69855 
L 61.025423 32.998677 
L 68.309029 33.194245 
L 78.264351 33.2803 
L 78.264351 33.2803 
" clip-path="url(#pe3b5bf2681)" style="fill: none; stroke: #ff4700; stroke-opacity: 0.8; stroke-width: 1.5; stroke-linecap: square"/>
   </g>
   <g id="line2d_12">
    <path d="M 30.586946 60.761967 
L 31.445712 50.815075 
L 32.304478 43.350342 
L 33.131438 38.033006 
L 33.926591 34.310032 
L 34.689939 31.760227 
L 35.42148 30.058798 
L 36.121215 28.958784 
L 36.82095 28.251918 
L 37.552491 27.825553 
L 38.347645 27.62113 
L 39.301829 27.612554 
L 40.605881 27.839303 
L 43.309403 28.597914 
L 46.649048 29.444812 
L 49.702437 29.977794 
L 53.264725 30.364494 
L 57.940227 30.634939 
L 65.032997 30.800125 
L 78.264351 30.868086 
L 78.264351 30.868086 
" clip-path="url(#pe3b5bf2681)" style="fill: none; stroke: #ff2900; stroke-opacity: 0.8; stroke-width: 1.5; stroke-linecap: square"/>
   </g>
   <g id="line2d_13">
    <path d="M 30.586946 60.761967 
L 31.445712 50.793229 
L 32.304478 43.281491 
L 33.131438 37.886482 
L 33.926591 34.058212 
L 34.689939 31.385155 
L 35.453286 29.487818 
L 36.184827 28.235816 
L 36.916368 27.406323 
L 37.679716 26.875992 
L 38.506676 26.577996 
L 39.492666 26.473634 
L 40.796718 26.579375 
L 43.150372 27.03952 
L 47.253364 27.81095 
L 50.688427 28.210666 
L 55.014063 28.477444 
L 61.534321 28.634552 
L 75.433605 28.696719 
L 78.264351 28.69879 
L 78.264351 28.69879 
" clip-path="url(#pe3b5bf2681)" style="fill: none; stroke: #f10800; stroke-opacity: 0.8; stroke-width: 1.5; stroke-linecap: square"/>
   </g>
   <g id="line2d_14">
    <path d="M 30.586946 60.761967 
L 31.445712 50.776824 
L 32.304478 43.228823 
L 33.163244 37.592267 
L 33.990204 33.591681 
L 34.785357 30.788352 
L 35.548704 28.853651 
L 36.312052 27.49421 
L 37.075399 26.573513 
L 37.870553 25.961021 
L 38.729318 25.583885 
L 39.747115 25.39324 
L 41.051167 25.389791 
L 43.213984 25.638878 
L 48.811865 26.328937 
L 53.169306 26.592519 
L 59.657759 26.73758 
L 74.543033 26.787876 
L 78.264351 26.789164 
L 78.264351 26.789164 
" clip-path="url(#pe3b5bf2681)" style="fill: none; stroke: #cd0000; stroke-opacity: 0.8; stroke-width: 1.5; stroke-linecap: square"/>
   </g>
   <g id="line2d_15">
    <path d="M 30.586946 60.761967 
L 31.477518 50.444531 
L 32.336284 42.94737 
L 33.19505 37.321512 
L 34.02201 33.293495 
L 34.848969 30.335969 
L 35.644123 28.280944 
L 36.439276 26.822182 
L 37.23443 25.816146 
L 38.06139 25.125801 
L 38.951961 24.673035 
L 40.001564 24.400251 
L 41.337422 24.299025 
L 43.404821 24.393583 
L 52.215122 24.983754 
L 59.339698 25.107938 
L 78.264351 25.140824 
L 78.264351 25.140824 
" clip-path="url(#pe3b5bf2681)" style="fill: none; stroke: #a40000; stroke-opacity: 0.8; stroke-width: 1.5; stroke-linecap: square"/>
   </g>
   <g id="line2d_16">
    <path d="M 30.586946 60.761967 
L 31.477518 50.434842 
L 32.336284 42.916113 
L 33.19505 37.250278 
L 34.053816 33.028539 
L 34.880775 30.027891 
L 35.707735 27.837749 
L 36.502889 26.320894 
L 37.329848 25.208066 
L 38.188614 24.424992 
L 39.110992 23.88724 
L 40.160595 23.53581 
L 41.496453 23.337166 
L 43.404821 23.299486 
L 48.302967 23.514666 
L 55.014063 23.689127 
L 67.959162 23.743015 
L 78.264351 23.745441 
L 78.264351 23.745441 
" clip-path="url(#pe3b5bf2681)" style="fill: none; stroke: #800000; stroke-opacity: 0.8; stroke-width: 1.5; stroke-linecap: square"/>
   </g>
   <g id="patch_3">
    <path d="M 28.203076 62.635433 
L 28.203076 21.419178 
" style="fill: none; stroke: #000000; stroke-width: 0.8; stroke-linejoin: miter; stroke-linecap: square"/>
   </g>
   <g id="patch_4">
    <path d="M 28.203076 62.635433 
L 80.648222 62.635433 
" style="fill: none; stroke: #000000; stroke-width: 0.8; stroke-linejoin: miter; stroke-linecap: square"/>
   </g>
   <g id="text_7">
    <!-- $\mathrm{d} u / \mathrm{d}t$ -->
    <g transform="translate(40.482171 15.419178)scale(0.11 -0.11)">
     <defs>
      <path id="CMR17-64" d="M 1869 4326 
L 1869 4160 
C 2246 4160 2304 4122 2304 3820 
L 2304 2345 
C 2278 2377 2016 2790 1498 2790 
C 845 2790 211 2208 211 1364 
C 211 525 806 -64 1434 -64 
C 1978 -64 2259 337 2291 380 
L 2291 -63 
L 3066 -63 
L 3066 128 
C 2688 128 2630 166 2630 473 
L 2630 4396 
L 1869 4326 
z
M 2291 755 
C 2291 563 2176 390 2029 262 
C 1811 70 1594 38 1472 38 
C 1286 38 621 134 621 1356 
C 621 2612 1363 2688 1530 2688 
C 1824 2688 2061 2522 2208 2291 
C 2291 2157 2291 2138 2291 2023 
L 2291 755 
z
" transform="scale(0.015625)"/>
      <path id="CMMI12-75" d="M 2182 370 
C 2266 13 2573 -64 2726 -64 
C 2931 -64 3085 70 3187 287 
C 3296 517 3379 894 3379 913 
C 3379 945 3354 971 3315 971 
C 3258 971 3251 939 3226 843 
C 3110 402 2995 64 2739 64 
C 2547 64 2547 275 2547 358 
C 2547 505 2566 568 2630 837 
C 2675 1009 2720 1181 2758 1360 
L 3021 2401 
C 3066 2561 3066 2574 3066 2593 
C 3066 2689 2989 2753 2893 2753 
C 2707 2753 2662 2593 2624 2433 
C 2560 2184 2214 811 2170 588 
C 2163 588 1914 64 1446 64 
C 1114 64 1050 351 1050 588 
C 1050 952 1229 1462 1395 1890 
C 1472 2095 1504 2178 1504 2305 
C 1504 2580 1306 2816 998 2816 
C 410 2816 173 1890 173 1839 
C 173 1814 198 1782 243 1782 
C 301 1782 307 1807 333 1896 
C 486 2441 736 2682 979 2682 
C 1043 2682 1146 2682 1146 2478 
C 1146 2312 1075 2127 979 1884 
C 698 1124 666 881 666 690 
C 666 38 1158 -64 1421 -64 
C 1830 -64 2054 217 2182 370 
z
" transform="scale(0.015625)"/>
      <path id="CMMI12-3d" d="M 2746 4562 
C 2746 4569 2784 4666 2784 4678 
C 2784 4755 2720 4800 2669 4800 
C 2637 4800 2579 4800 2528 4659 
L 384 -1363 
C 384 -1370 346 -1465 346 -1478 
C 346 -1555 410 -1600 461 -1600 
C 499 -1600 557 -1593 602 -1459 
L 2746 4562 
z
" transform="scale(0.015625)"/>
      <path id="CMMI12-74" d="M 1286 2566 
L 1875 2566 
C 1997 2566 2061 2566 2061 2681 
C 2061 2752 2022 2752 1894 2752 
L 1331 2752 
L 1568 3692 
C 1594 3781 1594 3794 1594 3840 
C 1594 3943 1510 4000 1427 4000 
C 1376 4000 1229 3981 1178 3775 
L 928 2752 
L 326 2752 
C 198 2752 141 2752 141 2630 
C 141 2566 186 2566 307 2566 
L 877 2566 
L 454 881 
C 403 658 384 594 384 511 
C 384 211 595 -64 954 -64 
C 1600 -64 1946 868 1946 912 
C 1946 951 1920 970 1882 970 
C 1869 970 1843 970 1830 944 
C 1824 938 1818 931 1773 829 
C 1638 511 1344 64 973 64 
C 781 64 768 224 768 364 
C 768 370 768 492 787 568 
L 1286 2566 
z
" transform="scale(0.015625)"/>
     </defs>
     <use xlink:href="#CMR17-64" transform="scale(0.996264)"/>
     <use xlink:href="#CMMI12-75" transform="translate(50.89537 0)scale(0.996264)"/>
     <use xlink:href="#CMMI12-3d" transform="translate(106.415699 0)scale(0.996264)"/>
     <use xlink:href="#CMR17-64" transform="translate(155.190618 0)scale(0.996264)"/>
     <use xlink:href="#CMMI12-74" transform="translate(206.085988 0)scale(0.996264)"/>
    </g>
   </g>
  </g>
  <g id="axes_2">
   <g id="patch_5">
    <path d="M 119.010765 62.635433 
L 171.45591 62.635433 
L 171.45591 21.419178 
L 119.010765 21.419178 
z
" style="fill: #ffffff"/>
   </g>
   <g id="matplotlib.axis_3">
    <g id="xtick_3">
     <g id="line2d_17">
      <g>
       <use xlink:href="#m693b2172ab" x="121.394635" y="62.635433" style="stroke: #000000; stroke-width: 0.8"/>
      </g>
     </g>
     <g id="text_8">
      <!-- $\mathdefault{0}$ -->
      <g transform="translate(118.654902 77.245779)scale(0.11 -0.11)">
       <use xlink:href="#CMR17-30" transform="scale(0.996264)"/>
      </g>
     </g>
    </g>
    <g id="xtick_4">
     <g id="line2d_18">
      <g>
       <use xlink:href="#m693b2172ab" x="153.200776" y="62.635433" style="stroke: #000000; stroke-width: 0.8"/>
      </g>
     </g>
     <g id="text_9">
      <!-- $\mathdefault{1000}$ -->
      <g transform="translate(142.241841 77.245779)scale(0.11 -0.11)">
       <use xlink:href="#CMR17-31" transform="scale(0.996264)"/>
       <use xlink:href="#CMR17-30" transform="translate(45.690477 0)scale(0.996264)"/>
       <use xlink:href="#CMR17-30" transform="translate(91.380954 0)scale(0.996264)"/>
       <use xlink:href="#CMR17-30" transform="translate(137.071431 0)scale(0.996264)"/>
      </g>
     </g>
    </g>
    <g id="text_10">
     <!-- time [ms] -->
     <g transform="translate(122.980634 91.595852)scale(0.11 -0.11)">
      <use xlink:href="#CMR17-74" transform="scale(0.996264)"/>
      <use xlink:href="#CMR17-69" transform="translate(35.280768 0)scale(0.996264)"/>
      <use xlink:href="#CMR17-6d" transform="translate(60.151826 0)scale(0.996264)"/>
      <use xlink:href="#CMR17-65" transform="translate(137.071416 0)scale(0.996264)"/>
      <use xlink:href="#CMR17-5b" transform="translate(207.633043 0)scale(0.996264)"/>
      <use xlink:href="#CMR17-6d" transform="translate(232.504101 0)scale(0.996264)"/>
      <use xlink:href="#CMR17-73" transform="translate(309.423691 0)scale(0.996264)"/>
      <use xlink:href="#CMR17-5d" transform="translate(345.225029 0)scale(0.996264)"/>
     </g>
    </g>
   </g>
   <g id="matplotlib.axis_4">
    <g id="ytick_4">
     <g id="line2d_19">
      <g>
       <use xlink:href="#m51adcefddf" x="119.010765" y="58.303013" style="stroke: #000000; stroke-width: 0.8"/>
      </g>
     </g>
     <g id="text_11">
      <!-- $\mathdefault{0.25}$ -->
      <g transform="translate(92.528222 62.108186)scale(0.11 -0.11)">
       <defs>
        <path id="CMR17-32" d="M 2669 989 
L 2554 989 
C 2490 536 2438 459 2413 420 
C 2381 369 1920 369 1830 369 
L 602 369 
C 832 619 1280 1072 1824 1597 
C 2214 1967 2669 2402 2669 3035 
C 2669 3790 2067 4224 1395 4224 
C 691 4224 262 3604 262 3030 
C 262 2780 448 2748 525 2748 
C 589 2748 781 2787 781 3010 
C 781 3207 614 3264 525 3264 
C 486 3264 448 3258 422 3245 
C 544 3790 915 4058 1306 4058 
C 1862 4058 2227 3617 2227 3035 
C 2227 2479 1901 2000 1536 1584 
L 262 146 
L 262 0 
L 2515 0 
L 2669 989 
z
" transform="scale(0.015625)"/>
        <path id="CMR17-35" d="M 730 3692 
C 794 3666 1056 3584 1325 3584 
C 1920 3584 2246 3911 2432 4100 
C 2432 4157 2432 4192 2394 4192 
C 2387 4192 2374 4192 2323 4163 
C 2099 4058 1837 3973 1517 3973 
C 1325 3973 1037 3999 723 4139 
C 653 4171 640 4171 634 4171 
C 602 4171 595 4164 595 4037 
L 595 2203 
C 595 2089 595 2057 659 2057 
C 691 2057 704 2070 736 2114 
C 941 2401 1222 2522 1542 2522 
C 1766 2522 2246 2382 2246 1289 
C 2246 1085 2246 715 2054 421 
C 1894 159 1645 25 1370 25 
C 947 25 518 320 403 814 
C 429 807 480 795 506 795 
C 589 795 749 840 749 1038 
C 749 1210 627 1280 506 1280 
C 358 1280 262 1190 262 1011 
C 262 454 704 -128 1382 -128 
C 2042 -128 2669 440 2669 1264 
C 2669 2030 2170 2624 1549 2624 
C 1222 2624 947 2503 730 2274 
L 730 3692 
z
" transform="scale(0.015625)"/>
       </defs>
       <use xlink:href="#CMR17-30" transform="scale(0.996264)"/>
       <use xlink:href="#CMMI12-3a" transform="translate(45.690477 0)scale(0.996264)"/>
       <use xlink:href="#CMR17-32" transform="translate(72.787654 0)scale(0.996264)"/>
       <use xlink:href="#CMR17-35" transform="translate(118.478131 0)scale(0.996264)"/>
      </g>
     </g>
    </g>
    <g id="ytick_5">
     <g id="line2d_20">
      <g>
       <use xlink:href="#m51adcefddf" x="119.010765" y="46.008243" style="stroke: #000000; stroke-width: 0.8"/>
      </g>
     </g>
     <g id="text_12">
      <!-- $\mathdefault{0.50}$ -->
      <g transform="translate(92.528222 49.813416)scale(0.11 -0.11)">
       <use xlink:href="#CMR17-30" transform="scale(0.996264)"/>
       <use xlink:href="#CMMI12-3a" transform="translate(45.690477 0)scale(0.996264)"/>
       <use xlink:href="#CMR17-35" transform="translate(72.787654 0)scale(0.996264)"/>
       <use xlink:href="#CMR17-30" transform="translate(118.478131 0)scale(0.996264)"/>
      </g>
     </g>
    </g>
    <g id="ytick_6">
     <g id="line2d_21">
      <g>
       <use xlink:href="#m51adcefddf" x="119.010765" y="33.713473" style="stroke: #000000; stroke-width: 0.8"/>
      </g>
     </g>
     <g id="text_13">
      <!-- $\mathdefault{0.75}$ -->
      <g transform="translate(92.528222 37.518647)scale(0.11 -0.11)">
       <use xlink:href="#CMR17-30" transform="scale(0.996264)"/>
       <use xlink:href="#CMMI12-3a" transform="translate(45.690477 0)scale(0.996264)"/>
       <use xlink:href="#CMR17-37" transform="translate(72.787654 0)scale(0.996264)"/>
       <use xlink:href="#CMR17-35" transform="translate(118.478131 0)scale(0.996264)"/>
      </g>
     </g>
    </g>
   </g>
   <g id="line2d_22">
    <path d="M 121.394635 60.761967 
L 122.157983 54.049049 
L 122.889524 49.431683 
L 123.621065 46.161919 
L 124.352606 43.881345 
L 125.084148 42.304351 
L 125.847495 41.17687 
L 126.674455 40.354194 
L 127.596833 39.748787 
L 128.741854 39.26876 
L 130.332161 38.86187 
L 132.876652 38.4687 
L 137.870216 37.958034 
L 146.48968 37.309369 
L 157.908085 36.681286 
L 169.07204 36.222565 
L 169.07204 36.222565 
" clip-path="url(#p518655981b)" style="fill: none; stroke: #ffde00; stroke-opacity: 0.8; stroke-width: 1.5; stroke-linecap: square"/>
   </g>
   <g id="line2d_23">
    <path d="M 121.394635 60.761967 
L 122.189789 53.491859 
L 122.953136 48.466042 
L 123.684677 45.016559 
L 124.416219 42.559053 
L 125.179566 40.755645 
L 125.942913 39.495028 
L 126.769873 38.542879 
L 127.724057 37.789734 
L 128.869078 37.180434 
L 130.395773 36.637551 
L 132.654009 36.09211 
L 136.407134 35.438876 
L 142.132239 34.680238 
L 149.447651 33.942091 
L 158.512401 33.258872 
L 169.07204 32.674304 
L 169.07204 32.674304 
" clip-path="url(#p518655981b)" style="fill: none; stroke: #ffc400; stroke-opacity: 0.8; stroke-width: 1.5; stroke-linecap: square"/>
   </g>
   <g id="line2d_24">
    <path d="M 121.394635 60.761967 
L 122.189789 53.160012 
L 122.984942 47.615745 
L 123.74829 43.774892 
L 124.511637 41.015458 
L 125.274984 39.042129 
L 126.070138 37.577044 
L 126.928904 36.457476 
L 127.883088 35.583006 
L 128.996303 34.867871 
L 130.427579 34.224988 
L 132.39956 33.600709 
L 135.293919 32.936684 
L 139.365105 32.242632 
L 144.549506 31.591704 
L 150.910734 31.025027 
L 158.830463 30.552363 
L 169.008428 30.179166 
L 169.07204 30.177413 
L 169.07204 30.177413 
" clip-path="url(#p518655981b)" style="fill: none; stroke: #ffa700; stroke-opacity: 0.8; stroke-width: 1.5; stroke-linecap: square"/>
   </g>
   <g id="line2d_25">
    <path d="M 121.394635 60.761967 
L 122.221595 52.629114 
L 123.016748 46.876173 
L 123.811902 42.676661 
L 124.607056 39.642111 
L 125.402209 37.458633 
L 126.229169 35.829723 
L 127.087934 34.61781 
L 128.042119 33.654774 
L 129.155334 32.857805 
L 130.522998 32.167763 
L 132.304142 31.534518 
L 134.721408 30.924274 
L 138.029247 30.330059 
L 142.323076 29.794387 
L 147.761926 29.349844 
L 154.854695 29.005362 
L 164.778211 28.762522 
L 169.07204 28.704797 
L 169.07204 28.704797 
" clip-path="url(#p518655981b)" style="fill: none; stroke: #ff8600; stroke-opacity: 0.8; stroke-width: 1.5; stroke-linecap: square"/>
   </g>
   <g id="line2d_26">
    <path d="M 121.394635 60.761967 
L 122.221595 52.416489 
L 123.048555 46.235408 
L 123.843708 41.860793 
L 124.638862 38.648595 
L 125.434015 36.299787 
L 126.260975 34.521595 
L 127.119741 33.183129 
L 128.042119 32.142937 
L 129.091721 31.292932 
L 130.332161 30.58004 
L 131.890662 29.953037 
L 133.926255 29.387924 
L 136.661583 28.872907 
L 140.319289 28.422417 
L 145.185629 28.05911 
L 151.92853 27.794403 
L 162.360945 27.63034 
L 169.07204 27.590207 
L 169.07204 27.590207 
" clip-path="url(#p518655981b)" style="fill: none; stroke: #ff6800; stroke-opacity: 0.8; stroke-width: 1.5; stroke-linecap: square"/>
   </g>
   <g id="line2d_27">
    <path d="M 121.394635 60.761967 
L 122.253401 51.971987 
L 123.080361 45.679606 
L 123.90732 41.019656 
L 124.73428 37.594896 
L 125.56124 35.088293 
L 126.388199 33.252875 
L 127.246965 31.857373 
L 128.169343 30.766382 
L 129.18714 29.898276 
L 130.363967 29.184508 
L 131.795243 28.580421 
L 133.639999 28.055232 
L 136.089072 27.603503 
L 139.428717 27.226816 
L 144.136026 26.934949 
L 151.196989 26.739905 
L 164.078476 26.64122 
L 169.07204 26.631053 
L 169.07204 26.631053 
" clip-path="url(#p518655981b)" style="fill: none; stroke: #ff4700; stroke-opacity: 0.8; stroke-width: 1.5; stroke-linecap: square"/>
   </g>
   <g id="line2d_28">
    <path d="M 121.394635 60.761967 
L 122.253401 51.842146 
L 123.112167 45.194867 
L 123.939127 40.437184 
L 124.766086 36.902685 
L 125.593046 34.287036 
L 126.451812 32.289231 
L 127.342384 30.778033 
L 128.264762 29.640663 
L 129.282558 28.736758 
L 130.427579 28.017373 
L 131.795243 27.425333 
L 133.512775 26.933898 
L 135.771011 26.53061 
L 138.919819 26.208461 
L 143.595322 25.9723 
L 151.35602 25.829664 
L 169.07204 25.777104 
L 169.07204 25.777104 
" clip-path="url(#p518655981b)" style="fill: none; stroke: #ff2900; stroke-opacity: 0.8; stroke-width: 1.5; stroke-linecap: square"/>
   </g>
   <g id="line2d_29">
    <path d="M 121.394635 60.761967 
L 122.253401 51.743856 
L 123.112167 44.98277 
L 123.970933 39.945307 
L 124.829699 36.21241 
L 125.688464 33.456396 
L 126.54723 31.424116 
L 127.437802 29.875842 
L 128.36018 28.705491 
L 129.377977 27.775318 
L 130.522998 27.039729 
L 131.858856 26.455313 
L 133.512775 25.985831 
L 135.675592 25.615711 
L 138.728982 25.334775 
L 143.499903 25.142006 
L 152.405622 25.040326 
L 169.07204 25.01809 
L 169.07204 25.01809 
" clip-path="url(#p518655981b)" style="fill: none; stroke: #f10800; stroke-opacity: 0.8; stroke-width: 1.5; stroke-linecap: square"/>
   </g>
   <g id="line2d_30">
    <path d="M 121.394635 60.761967 
L 122.253401 51.669853 
L 123.112167 44.822177 
L 123.970933 39.689471 
L 124.829699 35.858844 
L 125.688464 33.009146 
L 126.54723 30.892556 
L 127.437802 29.270281 
L 128.36018 28.039116 
L 129.34617 27.085678 
L 130.459385 26.324296 
L 131.731631 25.73014 
L 133.290132 25.258286 
L 135.293919 24.895923 
L 138.124665 24.627946 
L 142.577525 24.453281 
L 151.483244 24.367069 
L 169.07204 24.352325 
L 169.07204 24.352325 
" clip-path="url(#p518655981b)" style="fill: none; stroke: #cd0000; stroke-opacity: 0.8; stroke-width: 1.5; stroke-linecap: square"/>
   </g>
   <g id="line2d_31">
    <path d="M 121.394635 60.761967 
L 122.253401 51.614364 
L 123.112167 44.701239 
L 123.970933 39.495733 
L 124.829699 35.589308 
L 125.688464 32.665628 
L 126.54723 30.481034 
L 127.437802 28.797566 
L 128.36018 27.514592 
L 129.34617 26.518819 
L 130.427579 25.743122 
L 131.668019 25.132661 
L 133.162907 24.655079 
L 135.071276 24.29195 
L 137.711185 24.0317 
L 141.909596 23.865799 
L 150.624479 23.789185 
L 169.07204 23.778337 
L 169.07204 23.778337 
" clip-path="url(#p518655981b)" style="fill: none; stroke: #a40000; stroke-opacity: 0.8; stroke-width: 1.5; stroke-linecap: square"/>
   </g>
   <g id="line2d_32">
    <path d="M 121.394635 60.761967 
L 122.253401 51.572885 
L 123.112167 44.610538 
L 123.970933 39.349809 
L 124.829699 35.385212 
L 125.688464 32.403908 
L 126.579036 30.094185 
L 127.469608 28.379455 
L 128.391986 27.06734 
L 129.377977 26.045925 
L 130.459385 25.249252 
L 131.668019 24.636281 
L 133.131101 24.152563 
L 134.975857 23.78914 
L 137.520349 23.530892 
L 141.559729 23.370559 
L 150.179193 23.300798 
L 169.07204 23.292644 
L 169.07204 23.292644 
" clip-path="url(#p518655981b)" style="fill: none; stroke: #800000; stroke-opacity: 0.8; stroke-width: 1.5; stroke-linecap: square"/>
   </g>
   <g id="patch_6">
    <path d="M 119.010765 62.635433 
L 119.010765 21.419178 
" style="fill: none; stroke: #000000; stroke-width: 0.8; stroke-linejoin: miter; stroke-linecap: square"/>
   </g>
   <g id="patch_7">
    <path d="M 119.010765 62.635433 
L 171.45591 62.635433 
" style="fill: none; stroke: #000000; stroke-width: 0.8; stroke-linejoin: miter; stroke-linecap: square"/>
   </g>
   <g id="text_14">
    <!-- $\mathrm{d} v / \mathrm{d}t$ -->
    <g transform="translate(131.573997 15.419178)scale(0.11 -0.11)">
     <defs>
      <path id="CMMI12-76" d="M 2925 2389 
C 2925 2791 2720 2816 2669 2816 
C 2515 2816 2374 2663 2374 2535 
C 2374 2459 2419 2414 2445 2389 
C 2509 2331 2675 2159 2675 1827 
C 2675 1558 2291 64 1523 64 
C 1133 64 1056 390 1056 626 
C 1056 945 1203 1392 1376 1852 
C 1478 2114 1504 2178 1504 2305 
C 1504 2574 1312 2816 998 2816 
C 410 2816 173 1890 173 1839 
C 173 1814 198 1782 243 1782 
C 301 1782 307 1807 333 1897 
C 486 2446 736 2689 979 2689 
C 1037 2689 1146 2689 1146 2478 
C 1146 2312 1075 2127 979 1884 
C 672 1067 672 869 672 715 
C 672 575 691 313 890 134 
C 1120 -64 1440 -64 1498 -64 
C 2560 -64 2925 2024 2925 2389 
z
" transform="scale(0.015625)"/>
     </defs>
     <use xlink:href="#CMR17-64" transform="scale(0.996264)"/>
     <use xlink:href="#CMMI12-76" transform="translate(50.89537 0)scale(0.996264)"/>
     <use xlink:href="#CMMI12-3d" transform="translate(101.630543 0)scale(0.996264)"/>
     <use xlink:href="#CMR17-64" transform="translate(150.405462 0)scale(0.996264)"/>
     <use xlink:href="#CMMI12-74" transform="translate(201.300832 0)scale(0.996264)"/>
    </g>
   </g>
  </g>
  <g id="axes_3">
   <g id="patch_8">
    <path d="M 209.818454 62.635433 
L 262.263599 62.635433 
L 262.263599 21.419178 
L 209.818454 21.419178 
z
" style="fill: #ffffff"/>
   </g>
   <g id="matplotlib.axis_5">
    <g id="xtick_5">
     <g id="line2d_33">
      <g>
       <use xlink:href="#m693b2172ab" x="212.202324" y="62.635433" style="stroke: #000000; stroke-width: 0.8"/>
      </g>
     </g>
     <g id="text_15">
      <!-- $\mathdefault{0}$ -->
      <g transform="translate(209.462591 77.245779)scale(0.11 -0.11)">
       <use xlink:href="#CMR17-30" transform="scale(0.996264)"/>
      </g>
     </g>
    </g>
    <g id="xtick_6">
     <g id="line2d_34">
      <g>
       <use xlink:href="#m693b2172ab" x="244.008465" y="62.635433" style="stroke: #000000; stroke-width: 0.8"/>
      </g>
     </g>
     <g id="text_16">
      <!-- $\mathdefault{1000}$ -->
      <g transform="translate(233.04953 77.245779)scale(0.11 -0.11)">
       <use xlink:href="#CMR17-31" transform="scale(0.996264)"/>
       <use xlink:href="#CMR17-30" transform="translate(45.690477 0)scale(0.996264)"/>
       <use xlink:href="#CMR17-30" transform="translate(91.380954 0)scale(0.996264)"/>
       <use xlink:href="#CMR17-30" transform="translate(137.071431 0)scale(0.996264)"/>
      </g>
     </g>
    </g>
    <g id="text_17">
     <!-- time [ms] -->
     <g transform="translate(213.788323 91.595852)scale(0.11 -0.11)">
      <use xlink:href="#CMR17-74" transform="scale(0.996264)"/>
      <use xlink:href="#CMR17-69" transform="translate(35.280768 0)scale(0.996264)"/>
      <use xlink:href="#CMR17-6d" transform="translate(60.151826 0)scale(0.996264)"/>
      <use xlink:href="#CMR17-65" transform="translate(137.071416 0)scale(0.996264)"/>
      <use xlink:href="#CMR17-5b" transform="translate(207.633043 0)scale(0.996264)"/>
      <use xlink:href="#CMR17-6d" transform="translate(232.504101 0)scale(0.996264)"/>
      <use xlink:href="#CMR17-73" transform="translate(309.423691 0)scale(0.996264)"/>
      <use xlink:href="#CMR17-5d" transform="translate(345.225029 0)scale(0.996264)"/>
     </g>
    </g>
   </g>
   <g id="matplotlib.axis_6">
    <g id="ytick_7">
     <g id="line2d_35">
      <g>
       <use xlink:href="#m51adcefddf" x="209.818454" y="60.762981" style="stroke: #000000; stroke-width: 0.8"/>
      </g>
     </g>
     <g id="text_18">
      <!-- $\mathdefault{0.0}$ -->
      <g transform="translate(188.815378 64.568155)scale(0.11 -0.11)">
       <use xlink:href="#CMR17-30" transform="scale(0.996264)"/>
       <use xlink:href="#CMMI12-3a" transform="translate(45.690477 0)scale(0.996264)"/>
       <use xlink:href="#CMR17-30" transform="translate(72.787654 0)scale(0.996264)"/>
      </g>
     </g>
    </g>
    <g id="ytick_8">
     <g id="line2d_36">
      <g>
       <use xlink:href="#m51adcefddf" x="209.818454" y="23.292644" style="stroke: #000000; stroke-width: 0.8"/>
      </g>
     </g>
     <g id="text_19">
      <!-- $\mathdefault{0.5}$ -->
      <g transform="translate(188.815378 27.097818)scale(0.11 -0.11)">
       <use xlink:href="#CMR17-30" transform="scale(0.996264)"/>
       <use xlink:href="#CMMI12-3a" transform="translate(45.690477 0)scale(0.996264)"/>
       <use xlink:href="#CMR17-35" transform="translate(72.787654 0)scale(0.996264)"/>
      </g>
     </g>
    </g>
   </g>
   <g id="line2d_37">
    <path d="M 212.202324 23.292644 
L 212.488579 23.397778 
L 212.870253 23.811357 
L 213.410958 24.771119 
L 214.365142 27.014846 
L 216.655184 32.485628 
L 217.895623 34.815932 
L 219.104257 36.6167 
L 220.344696 38.063777 
L 221.648748 39.247022 
L 223.11183 40.2736 
L 224.829362 41.198863 
L 226.928567 42.0658 
L 229.632089 42.928662 
L 233.257989 43.840063 
L 238.187941 44.838477 
L 244.517363 45.886064 
L 252.214449 46.928946 
L 259.879729 47.78906 
L 259.879729 47.78906 
" clip-path="url(#p2380335b1c)" style="fill: none; stroke: #ffde00; stroke-opacity: 0.8; stroke-width: 1.5; stroke-linecap: square"/>
   </g>
   <g id="line2d_38">
    <path d="M 212.202324 23.292644 
L 212.488579 23.404868 
L 212.870253 23.848566 
L 213.410958 24.886347 
L 214.301529 27.169106 
L 217.036858 34.432388 
L 218.309103 37.07389 
L 219.581349 39.207482 
L 220.885401 40.962908 
L 222.284871 42.475389 
L 223.843372 43.830223 
L 225.624516 45.082141 
L 227.755527 46.302279 
L 230.36363 47.530045 
L 233.576051 48.787114 
L 237.488206 50.070764 
L 242.100096 51.344228 
L 247.443528 52.583307 
L 253.518501 53.759049 
L 259.879729 54.784847 
L 259.879729 54.784847 
" clip-path="url(#p2380335b1c)" style="fill: none; stroke: #ffc400; stroke-opacity: 0.8; stroke-width: 1.5; stroke-linecap: square"/>
   </g>
   <g id="line2d_39">
    <path d="M 212.202324 23.292644 
L 212.488579 23.412094 
L 212.838447 23.835513 
L 213.347345 24.85269 
L 214.142499 27.016566 
L 217.768399 37.51918 
L 219.072451 40.348655 
L 220.376502 42.661495 
L 221.744166 44.641295 
L 223.207249 46.372454 
L 224.829362 47.945748 
L 226.642312 49.392511 
L 228.709711 50.75592 
L 231.095172 52.059125 
L 233.8305 53.297266 
L 236.979308 54.473495 
L 240.541595 55.562149 
L 244.580975 56.558487 
L 249.129253 57.447002 
L 254.345461 58.233548 
L 259.879729 58.863261 
L 259.879729 58.863261 
" clip-path="url(#p2380335b1c)" style="fill: none; stroke: #ffa700; stroke-opacity: 0.8; stroke-width: 1.5; stroke-linecap: square"/>
   </g>
   <g id="line2d_40">
    <path d="M 212.202324 23.292644 
L 212.488579 23.417758 
L 212.838447 23.862776 
L 213.347345 24.937545 
L 214.110693 27.142084 
L 218.245491 39.970817 
L 219.549543 42.932929 
L 220.885401 45.422491 
L 222.253065 47.508942 
L 223.716147 49.336913 
L 225.274648 50.932525 
L 226.99218 52.373421 
L 228.900548 53.680906 
L 231.031559 54.867024 
L 233.41702 55.937022 
L 236.120542 56.901604 
L 239.205738 57.75997 
L 242.736219 58.50576 
L 246.871017 59.144766 
L 251.800969 59.6737 
L 257.907748 60.095435 
L 259.879729 60.193028 
L 259.879729 60.193028 
" clip-path="url(#p2380335b1c)" style="fill: none; stroke: #ff8600; stroke-opacity: 0.8; stroke-width: 1.5; stroke-linecap: square"/>
   </g>
   <g id="line2d_41">
    <path d="M 212.202324 23.292644 
L 212.456773 23.395694 
L 212.806641 23.830071 
L 213.283733 24.840422 
L 214.015274 26.998456 
L 215.573775 32.515253 
L 217.354919 38.480489 
L 218.722583 42.291832 
L 220.026635 45.28751 
L 221.330687 47.744692 
L 222.666544 49.804612 
L 224.066015 51.566841 
L 225.560903 53.098009 
L 227.183016 54.440893 
L 228.96416 55.62174 
L 230.936141 56.655849 
L 233.130765 57.551877 
L 235.64345 58.332353 
L 238.569615 59.000615 
L 242.036484 59.556151 
L 246.298507 60.004019 
L 251.769163 60.343997 
L 259.402637 60.579959 
L 259.879729 60.58919 
L 259.879729 60.58919 
" clip-path="url(#p2380335b1c)" style="fill: none; stroke: #ff6800; stroke-opacity: 0.8; stroke-width: 1.5; stroke-linecap: square"/>
   </g>
   <g id="line2d_42">
    <path d="M 212.202324 23.292644 
L 212.456773 23.398345 
L 212.774835 23.791609 
L 213.251927 24.804023 
L 213.951662 26.904668 
L 215.28752 31.798623 
L 217.291307 38.961484 
L 218.658971 43.032846 
L 219.963022 46.233704 
L 221.235268 48.788725 
L 222.53932 50.921561 
L 223.875178 52.691938 
L 225.274648 54.187388 
L 226.769537 55.464636 
L 228.39165 56.559322 
L 230.172794 57.493416 
L 232.17658 58.291841 
L 234.498429 58.97174 
L 237.233757 59.533818 
L 240.573402 59.985062 
L 244.867231 60.330068 
L 250.846785 60.571232 
L 259.879729 60.706866 
L 259.879729 60.706866 
" clip-path="url(#p2380335b1c)" style="fill: none; stroke: #ff4700; stroke-opacity: 0.8; stroke-width: 1.5; stroke-linecap: square"/>
   </g>
   <g id="line2d_43">
    <path d="M 212.202324 23.292644 
L 212.456773 23.400357 
L 212.774835 23.801626 
L 213.220121 24.754527 
L 213.88805 26.773677 
L 215.096683 31.29297 
L 217.354919 39.698523 
L 218.722583 43.90616 
L 219.994829 47.130471 
L 221.267074 49.758657 
L 222.53932 51.883311 
L 223.843372 53.633022 
L 225.211036 55.094062 
L 226.642312 56.298723 
L 228.200813 57.317045 
L 229.918345 58.169014 
L 231.858519 58.878304 
L 234.116755 59.461607 
L 236.852083 59.930719 
L 240.318953 60.289928 
L 245.089874 60.545189 
L 252.564317 60.698247 
L 259.879729 60.74322 
L 259.879729 60.74322 
" clip-path="url(#p2380335b1c)" style="fill: none; stroke: #ff2900; stroke-opacity: 0.8; stroke-width: 1.5; stroke-linecap: square"/>
   </g>
   <g id="line2d_44">
    <path d="M 212.202324 23.292644 
L 212.456773 23.401875 
L 212.774835 23.80919 
L 213.220121 24.777885 
L 213.88805 26.835252 
L 215.064877 31.330725 
L 217.418531 40.324592 
L 218.786195 44.623551 
L 220.058441 47.904565 
L 221.29888 50.501788 
L 222.53932 52.593557 
L 223.811566 54.306055 
L 225.115617 55.693938 
L 226.483281 56.832347 
L 227.97817 57.787414 
L 229.632089 58.576644 
L 231.508652 59.222045 
L 233.735081 59.745587 
L 236.470409 60.152088 
L 240.09631 60.452304 
L 245.376129 60.646914 
L 254.981583 60.743626 
L 259.879729 60.755217 
L 259.879729 60.755217 
" clip-path="url(#p2380335b1c)" style="fill: none; stroke: #f10800; stroke-opacity: 0.8; stroke-width: 1.5; stroke-linecap: square"/>
   </g>
   <g id="line2d_45">
    <path d="M 212.202324 23.292644 
L 212.456773 23.403014 
L 212.774835 23.814874 
L 213.220121 24.795463 
L 213.88805 26.881693 
L 215.033071 31.323653 
L 217.482144 40.861121 
L 218.818001 45.125154 
L 220.058441 48.377953 
L 221.267074 50.951367 
L 222.475708 53.020359 
L 223.716147 54.708748 
L 224.988393 56.069457 
L 226.324251 57.177166 
L 227.787333 58.097399 
L 229.409446 58.847498 
L 231.254202 59.449734 
L 233.448826 59.926325 
L 236.21596 60.290092 
L 239.969085 60.545454 
L 245.853221 60.698852 
L 258.702902 60.758564 
L 259.879729 60.759525 
L 259.879729 60.759525 
" clip-path="url(#p2380335b1c)" style="fill: none; stroke: #cd0000; stroke-opacity: 0.8; stroke-width: 1.5; stroke-linecap: square"/>
   </g>
   <g id="line2d_46">
    <path d="M 212.202324 23.292644 
L 212.456773 23.403867 
L 212.774835 23.81913 
L 213.220121 24.808638 
L 213.88805 26.916563 
L 215.033071 31.414343 
L 217.51395 41.214269 
L 218.849808 45.528025 
L 220.090247 48.808408 
L 221.29888 51.391211 
L 222.507514 53.454276 
L 223.716147 55.086013 
L 224.956587 56.397095 
L 226.260638 57.459923 
L 227.691915 58.337929 
L 229.282222 59.047497 
L 231.126978 59.618328 
L 233.353408 60.063014 
L 236.184154 60.390065 
L 240.191728 60.611008 
L 246.93463 60.729781 
L 259.879729 60.761226 
L 259.879729 60.761226 
" clip-path="url(#p2380335b1c)" style="fill: none; stroke: #a40000; stroke-opacity: 0.8; stroke-width: 1.5; stroke-linecap: square"/>
   </g>
   <g id="line2d_47">
    <path d="M 212.202324 23.292644 
L 212.456773 23.404503 
L 212.774835 23.822308 
L 213.220121 24.818484 
L 213.88805 26.942656 
L 215.033071 31.482357 
L 217.51395 41.396403 
L 218.849808 45.761334 
L 220.090247 49.073953 
L 221.267074 51.611695 
L 222.443901 53.641427 
L 223.652535 55.285678 
L 224.892974 56.59704 
L 226.197026 57.650539 
L 227.596496 58.494981 
L 229.154997 59.174617 
L 230.967947 59.717746 
L 233.162571 60.136223 
L 236.025124 60.443393 
L 240.159922 60.643355 
L 247.538946 60.742669 
L 259.879729 60.761967 
L 259.879729 60.761967 
" clip-path="url(#p2380335b1c)" style="fill: none; stroke: #800000; stroke-opacity: 0.8; stroke-width: 1.5; stroke-linecap: square"/>
   </g>
   <g id="patch_9">
    <path d="M 209.818454 62.635433 
L 209.818454 21.419178 
" style="fill: none; stroke: #000000; stroke-width: 0.8; stroke-linejoin: miter; stroke-linecap: square"/>
   </g>
   <g id="patch_10">
    <path d="M 209.818454 62.635433 
L 262.263599 62.635433 
" style="fill: none; stroke: #000000; stroke-width: 0.8; stroke-linejoin: miter; stroke-linecap: square"/>
   </g>
   <g id="text_20">
    <!-- $\mathrm{d} y / \mathrm{d}t$ -->
    <g transform="translate(222.351229 15.419178)scale(0.11 -0.11)">
     <defs>
      <path id="CMMI12-79" d="M 1683 -700 
C 1510 -939 1261 -1152 947 -1152 
C 870 -1152 563 -1152 467 -889 
C 486 -895 518 -895 531 -895 
C 723 -895 851 -729 851 -582 
C 851 -435 730 -384 634 -384 
C 531 -384 307 -458 307 -759 
C 307 -1071 582 -1286 947 -1286 
C 1587 -1286 2234 -700 2413 6 
L 3040 2485 
C 3046 2517 3059 2556 3059 2594 
C 3059 2689 2982 2753 2886 2753 
C 2829 2753 2694 2727 2643 2535 
L 2170 658 
C 2138 543 2138 530 2086 460 
C 1958 281 1747 64 1440 64 
C 1082 64 1050 415 1050 588 
C 1050 952 1222 1443 1395 1903 
C 1466 2088 1504 2178 1504 2305 
C 1504 2574 1312 2816 998 2816 
C 410 2816 173 1890 173 1839 
C 173 1814 198 1782 243 1782 
C 301 1782 307 1807 333 1897 
C 486 2433 730 2689 979 2689 
C 1037 2689 1146 2689 1146 2478 
C 1146 2312 1075 2127 979 1884 
C 666 1047 666 837 666 683 
C 666 77 1101 -64 1421 -64 
C 1606 -64 1837 -6 2061 230 
L 2067 224 
C 1971 -147 1907 -392 1683 -700 
z
" transform="scale(0.015625)"/>
     </defs>
     <use xlink:href="#CMR17-64" transform="scale(0.996264)"/>
     <use xlink:href="#CMMI12-79" transform="translate(50.89537 0)scale(0.996264)"/>
     <use xlink:href="#CMMI12-3d" transform="translate(102.034151 0)scale(0.996264)"/>
     <use xlink:href="#CMR17-64" transform="translate(150.809069 0)scale(0.996264)"/>
     <use xlink:href="#CMMI12-74" transform="translate(201.704439 0)scale(0.996264)"/>
    </g>
   </g>
   <g id="legend_1">
    <g id="text_21">
     <!-- Input $I$ -->
     <g transform="translate(271.108114 20.264648)scale(0.11 -0.11)">
      <defs>
       <path id="CMR17-49" d="M 1261 3905 
C 1261 4192 1338 4192 1798 4192 
L 1798 4352 
C 1594 4352 1267 4352 1050 4352 
C 832 4352 506 4352 301 4352 
L 301 4192 
C 762 4192 838 4192 838 3905 
L 838 447 
C 838 160 762 160 301 160 
L 301 0 
C 506 0 832 0 1050 0 
C 1267 0 1594 0 1798 0 
L 1798 160 
C 1338 160 1261 160 1261 447 
L 1261 3905 
z
" transform="scale(0.015625)"/>
       <path id="CMR17-6e" d="M 2656 1933 
C 2656 2259 2592 2790 1837 2790 
C 1331 2790 1069 2400 973 2144 
L 966 2144 
L 966 2790 
L 211 2720 
L 211 2554 
C 589 2554 646 2515 646 2208 
L 646 428 
C 646 184 621 153 211 153 
L 211 -13 
C 365 0 646 0 813 0 
C 979 0 1267 0 1421 -13 
L 1421 153 
C 1011 153 986 178 986 428 
L 986 1658 
C 986 2247 1344 2688 1792 2688 
C 2266 2688 2317 2266 2317 1958 
L 2317 428 
C 2317 184 2291 153 1882 153 
L 1882 -13 
C 2035 0 2317 0 2483 0 
C 2650 0 2938 0 3091 -13 
L 3091 153 
C 2682 153 2656 178 2656 428 
L 2656 1933 
z
" transform="scale(0.015625)"/>
       <path id="CMR17-70" d="M 1408 -1063 
C 998 -1063 973 -1037 973 -789 
L 973 402 
C 1158 134 1427 -38 1766 -38 
C 2406 -38 3053 523 3053 1388 
C 3053 2191 2496 2802 1837 2802 
C 1453 2802 1139 2592 960 2338 
L 960 2802 
L 198 2732 
L 198 2567 
C 576 2567 634 2528 634 2223 
L 634 -789 
C 634 -1031 608 -1063 198 -1063 
L 198 -1228 
C 352 -1216 634 -1216 800 -1216 
C 966 -1216 1254 -1216 1408 -1228 
L 1408 -1063 
z
M 973 2012 
C 973 2102 973 2235 1222 2471 
C 1254 2497 1472 2688 1792 2688 
C 2259 2688 2643 2108 2643 1382 
C 2643 656 2234 64 1728 64 
C 1498 64 1248 172 1056 472 
C 973 612 973 650 973 752 
L 973 2012 
z
" transform="scale(0.015625)"/>
       <path id="CMR17-75" d="M 1882 2693 
L 1882 2528 
C 2259 2528 2317 2489 2317 2186 
L 2317 1032 
C 2317 500 2029 38 1555 38 
C 1030 38 986 348 986 678 
L 986 2763 
L 211 2693 
L 211 2528 
C 467 2528 640 2528 646 2274 
L 646 1058 
C 646 633 646 361 813 183 
C 896 101 1056 -64 1517 -64 
C 2061 -64 2272 377 2323 506 
L 2330 506 
L 2330 -63 
L 3091 -63 
L 3091 128 
C 2714 128 2656 166 2656 473 
L 2656 2763 
L 1882 2693 
z
" transform="scale(0.015625)"/>
       <path id="CMMI12-49" d="M 2355 3880 
C 2413 4103 2426 4167 2893 4167 
C 3034 4167 3085 4167 3085 4288 
C 3085 4352 3014 4352 2995 4352 
C 2880 4352 2739 4352 2624 4352 
L 1837 4352 
C 1709 4352 1562 4352 1434 4352 
C 1382 4352 1312 4352 1312 4231 
C 1312 4167 1363 4167 1491 4167 
C 1888 4167 1888 4116 1888 4046 
C 1888 4002 1875 3963 1862 3906 
L 998 472 
C 941 249 928 185 461 185 
C 320 185 262 185 262 64 
C 262 0 326 0 358 0 
C 474 0 614 0 730 0 
L 1517 0 
C 1645 0 1786 0 1914 0 
C 1965 0 2042 0 2042 115 
C 2042 185 2003 185 1862 185 
C 1466 185 1466 236 1466 312 
C 1466 325 1466 357 1491 459 
L 2355 3880 
z
" transform="scale(0.015625)"/>
      </defs>
      <use xlink:href="#CMR17-49" transform="scale(0.996264)"/>
      <use xlink:href="#CMR17-6e" transform="translate(32.638409 0)scale(0.996264)"/>
      <use xlink:href="#CMR17-70" transform="translate(83.533779 0)scale(0.996264)"/>
      <use xlink:href="#CMR17-75" transform="translate(134.429149 0)scale(0.996264)"/>
      <use xlink:href="#CMR17-74" transform="translate(185.324519 0)scale(0.996264)"/>
      <use xlink:href="#CMMI12-49" transform="translate(250.681253 0)scale(0.996264)"/>
     </g>
    </g>
    <g id="line2d_48">
     <path d="M 278.114625 25.795543 
L 282.114625 25.795543 
L 286.114625 25.795543 
" style="fill: none; stroke: #ffde00; stroke-opacity: 0.8; stroke-width: 1.5; stroke-linecap: square"/>
    </g>
    <g id="text_22">
     <!-- 1.01 -->
     <g transform="translate(289.314625 27.195543)scale(0.04 -0.04)">
      <defs>
       <path id="CMR17-2e" d="M 1062 261 
C 1062 420 934 522 800 522 
C 672 522 538 420 538 261 
C 538 102 666 0 800 0 
C 928 0 1062 102 1062 261 
z
" transform="scale(0.015625)"/>
      </defs>
      <use xlink:href="#CMR17-31" transform="scale(0.996264)"/>
      <use xlink:href="#CMR17-2e" transform="translate(45.690477 0)scale(0.996264)"/>
      <use xlink:href="#CMR17-30" transform="translate(70.561536 0)scale(0.996264)"/>
      <use xlink:href="#CMR17-31" transform="translate(116.252013 0)scale(0.996264)"/>
     </g>
    </g>
    <g id="line2d_49">
     <path d="M 278.114625 31.370408 
L 282.114625 31.370408 
L 286.114625 31.370408 
" style="fill: none; stroke: #ffc400; stroke-opacity: 0.8; stroke-width: 1.5; stroke-linecap: square"/>
    </g>
    <g id="text_23">
     <!-- 1.05 -->
     <g transform="translate(289.314625 32.770408)scale(0.04 -0.04)">
      <use xlink:href="#CMR17-31" transform="scale(0.996264)"/>
      <use xlink:href="#CMR17-2e" transform="translate(45.690477 0)scale(0.996264)"/>
      <use xlink:href="#CMR17-30" transform="translate(70.561536 0)scale(0.996264)"/>
      <use xlink:href="#CMR17-35" transform="translate(116.252013 0)scale(0.996264)"/>
     </g>
    </g>
    <g id="line2d_50">
     <path d="M 278.114625 36.945274 
L 282.114625 36.945274 
L 286.114625 36.945274 
" style="fill: none; stroke: #ffa700; stroke-opacity: 0.8; stroke-width: 1.5; stroke-linecap: square"/>
    </g>
    <g id="text_24">
     <!-- 1.1 -->
     <g transform="translate(289.314625 38.345274)scale(0.04 -0.04)">
      <use xlink:href="#CMR17-31" transform="scale(0.996264)"/>
      <use xlink:href="#CMR17-2e" transform="translate(45.690477 0)scale(0.996264)"/>
      <use xlink:href="#CMR17-31" transform="translate(70.561536 0)scale(0.996264)"/>
     </g>
    </g>
    <g id="line2d_51">
     <path d="M 278.114625 42.520139 
L 282.114625 42.520139 
L 286.114625 42.520139 
" style="fill: none; stroke: #ff8600; stroke-opacity: 0.8; stroke-width: 1.5; stroke-linecap: square"/>
    </g>
    <g id="text_25">
     <!-- 1.15 -->
     <g transform="translate(289.314625 43.920139)scale(0.04 -0.04)">
      <use xlink:href="#CMR17-31" transform="scale(0.996264)"/>
      <use xlink:href="#CMR17-2e" transform="translate(45.690477 0)scale(0.996264)"/>
      <use xlink:href="#CMR17-31" transform="translate(70.561536 0)scale(0.996264)"/>
      <use xlink:href="#CMR17-35" transform="translate(116.252013 0)scale(0.996264)"/>
     </g>
    </g>
    <g id="line2d_52">
     <path d="M 278.114625 48.095004 
L 282.114625 48.095004 
L 286.114625 48.095004 
" style="fill: none; stroke: #ff6800; stroke-opacity: 0.8; stroke-width: 1.5; stroke-linecap: square"/>
    </g>
    <g id="text_26">
     <!-- 1.2 -->
     <g transform="translate(289.314625 49.495004)scale(0.04 -0.04)">
      <use xlink:href="#CMR17-31" transform="scale(0.996264)"/>
      <use xlink:href="#CMR17-2e" transform="translate(45.690477 0)scale(0.996264)"/>
      <use xlink:href="#CMR17-32" transform="translate(70.561536 0)scale(0.996264)"/>
     </g>
    </g>
    <g id="line2d_53">
     <path d="M 278.114625 53.669869 
L 282.114625 53.669869 
L 286.114625 53.669869 
" style="fill: none; stroke: #ff4700; stroke-opacity: 0.8; stroke-width: 1.5; stroke-linecap: square"/>
    </g>
    <g id="text_27">
     <!-- 1.25 -->
     <g transform="translate(289.314625 55.069869)scale(0.04 -0.04)">
      <use xlink:href="#CMR17-31" transform="scale(0.996264)"/>
      <use xlink:href="#CMR17-2e" transform="translate(45.690477 0)scale(0.996264)"/>
      <use xlink:href="#CMR17-32" transform="translate(70.561536 0)scale(0.996264)"/>
      <use xlink:href="#CMR17-35" transform="translate(116.252013 0)scale(0.996264)"/>
     </g>
    </g>
    <g id="line2d_54">
     <path d="M 278.114625 59.244735 
L 282.114625 59.244735 
L 286.114625 59.244735 
" style="fill: none; stroke: #ff2900; stroke-opacity: 0.8; stroke-width: 1.5; stroke-linecap: square"/>
    </g>
    <g id="text_28">
     <!-- 1.3 -->
     <g transform="translate(289.314625 60.644735)scale(0.04 -0.04)">
      <defs>
       <path id="CMR17-33" d="M 1414 2157 
C 1984 2157 2234 1662 2234 1090 
C 2234 320 1824 25 1453 25 
C 1114 25 563 194 390 693 
C 422 680 454 680 486 680 
C 640 680 755 782 755 948 
C 755 1133 614 1216 486 1216 
C 378 1216 211 1165 211 926 
C 211 335 787 -128 1466 -128 
C 2176 -128 2720 430 2720 1085 
C 2720 1707 2208 2157 1600 2227 
C 2086 2328 2554 2756 2554 3329 
C 2554 3820 2048 4179 1472 4179 
C 890 4179 378 3829 378 3329 
C 378 3110 544 3072 627 3072 
C 762 3072 877 3155 877 3321 
C 877 3486 762 3569 627 3569 
C 602 3569 570 3569 544 3557 
C 730 3959 1235 4032 1459 4032 
C 1683 4032 2106 3925 2106 3320 
C 2106 3143 2080 2828 1862 2550 
C 1670 2304 1453 2304 1242 2284 
C 1210 2284 1062 2269 1037 2269 
C 992 2263 966 2257 966 2208 
C 966 2163 973 2157 1101 2157 
L 1414 2157 
z
" transform="scale(0.015625)"/>
      </defs>
      <use xlink:href="#CMR17-31" transform="scale(0.996264)"/>
      <use xlink:href="#CMR17-2e" transform="translate(45.690477 0)scale(0.996264)"/>
      <use xlink:href="#CMR17-33" transform="translate(70.561536 0)scale(0.996264)"/>
     </g>
    </g>
    <g id="line2d_55">
     <path d="M 278.114625 64.8196 
L 282.114625 64.8196 
L 286.114625 64.8196 
" style="fill: none; stroke: #f10800; stroke-opacity: 0.8; stroke-width: 1.5; stroke-linecap: square"/>
    </g>
    <g id="text_29">
     <!-- 1.35 -->
     <g transform="translate(289.314625 66.2196)scale(0.04 -0.04)">
      <use xlink:href="#CMR17-31" transform="scale(0.996264)"/>
      <use xlink:href="#CMR17-2e" transform="translate(45.690477 0)scale(0.996264)"/>
      <use xlink:href="#CMR17-33" transform="translate(70.561536 0)scale(0.996264)"/>
      <use xlink:href="#CMR17-35" transform="translate(116.252013 0)scale(0.996264)"/>
     </g>
    </g>
    <g id="line2d_56">
     <path d="M 278.114625 70.394465 
L 282.114625 70.394465 
L 286.114625 70.394465 
" style="fill: none; stroke: #cd0000; stroke-opacity: 0.8; stroke-width: 1.5; stroke-linecap: square"/>
    </g>
    <g id="text_30">
     <!-- 1.4 -->
     <g transform="translate(289.314625 71.794465)scale(0.04 -0.04)">
      <defs>
       <path id="CMR17-34" d="M 2150 4122 
C 2150 4256 2144 4256 2029 4256 
L 128 1254 
L 128 1088 
L 1779 1088 
L 1779 457 
C 1779 224 1766 160 1318 160 
L 1197 160 
L 1197 0 
C 1402 0 1747 0 1965 0 
C 2182 0 2528 0 2733 0 
L 2733 160 
L 2611 160 
C 2163 160 2150 224 2150 457 
L 2150 1088 
L 2803 1088 
L 2803 1254 
L 2150 1254 
L 2150 4122 
z
M 1798 3703 
L 1798 1254 
L 256 1254 
L 1798 3703 
z
" transform="scale(0.015625)"/>
      </defs>
      <use xlink:href="#CMR17-31" transform="scale(0.996264)"/>
      <use xlink:href="#CMR17-2e" transform="translate(45.690477 0)scale(0.996264)"/>
      <use xlink:href="#CMR17-34" transform="translate(70.561536 0)scale(0.996264)"/>
     </g>
    </g>
    <g id="line2d_57">
     <path d="M 278.114625 75.96933 
L 282.114625 75.96933 
L 286.114625 75.96933 
" style="fill: none; stroke: #a40000; stroke-opacity: 0.8; stroke-width: 1.5; stroke-linecap: square"/>
    </g>
    <g id="text_31">
     <!-- 1.45 -->
     <g transform="translate(289.314625 77.36933)scale(0.04 -0.04)">
      <use xlink:href="#CMR17-31" transform="scale(0.996264)"/>
      <use xlink:href="#CMR17-2e" transform="translate(45.690477 0)scale(0.996264)"/>
      <use xlink:href="#CMR17-34" transform="translate(70.561536 0)scale(0.996264)"/>
      <use xlink:href="#CMR17-35" transform="translate(116.252013 0)scale(0.996264)"/>
     </g>
    </g>
    <g id="line2d_58">
     <path d="M 278.114625 81.544196 
L 282.114625 81.544196 
L 286.114625 81.544196 
" style="fill: none; stroke: #800000; stroke-opacity: 0.8; stroke-width: 1.5; stroke-linecap: square"/>
    </g>
    <g id="text_32">
     <!-- 1.5 -->
     <g transform="translate(289.314625 82.944196)scale(0.04 -0.04)">
      <use xlink:href="#CMR17-31" transform="scale(0.996264)"/>
      <use xlink:href="#CMR17-2e" transform="translate(45.690477 0)scale(0.996264)"/>
      <use xlink:href="#CMR17-35" transform="translate(70.561536 0)scale(0.996264)"/>
     </g>
    </g>
   </g>
  </g>
 </g>
 <defs>
  <clipPath id="pe3b5bf2681">
   <rect x="28.203076" y="21.419178" width="52.445145" height="41.216255"/>
  </clipPath>
  <clipPath id="p518655981b">
   <rect x="119.010765" y="21.419178" width="52.445145" height="41.216255"/>
  </clipPath>
  <clipPath id="p2380335b1c">
   <rect x="209.818454" y="21.419178" width="52.445145" height="41.216255"/>
  </clipPath>
 </defs>
</svg>
