<?xml version="1.0" encoding="utf-8" standalone="no"?>
<!DOCTYPE svg PUBLIC "-//W3C//DTD SVG 1.1//EN"
  "http://www.w3.org/Graphics/SVG/1.1/DTD/svg11.dtd">
<svg xmlns:xlink="http://www.w3.org/1999/xlink" width="480.578505pt" height="114.679324pt" viewBox="0 0 480.578505 114.679324" xmlns="http://www.w3.org/2000/svg" version="1.1">
 <metadata>
  <rdf:RDF xmlns:dc="http://purl.org/dc/elements/1.1/" xmlns:cc="http://creativecommons.org/ns#" xmlns:rdf="http://www.w3.org/1999/02/22-rdf-syntax-ns#">
   <cc:Work>
    <dc:type rdf:resource="http://purl.org/dc/dcmitype/StillImage"/>
    <dc:date>2022-08-09T11:38:14.873077</dc:date>
    <dc:format>image/svg+xml</dc:format>
    <dc:creator>
     <cc:Agent>
      <dc:title>Matplotlib v3.5.1, https://matplotlib.org/</dc:title>
     </cc:Agent>
    </dc:creator>
   </cc:Work>
  </rdf:RDF>
 </metadata>
 <defs>
  <style type="text/css">*{stroke-linejoin: round; stroke-linecap: butt}</style>
 </defs>
 <g id="figure_1">
  <g id="patch_1">
   <path d="M 0 114.679324 
L 480.578505 114.679324 
L 480.578505 0 
L 0 0 
L 0 114.679324 
z
" style="fill: none"/>
  </g>
  <g id="axes_1">
   <g id="patch_2">
    <path d="M 28.203076 75.779178 
L 85.597362 75.779178 
L 85.597362 21.419178 
L 28.203076 21.419178 
z
" style="fill: #ffffff"/>
   </g>
   <g id="matplotlib.axis_1">
    <g id="xtick_1">
     <g id="line2d_1">
      <defs>
       <path id="m8962e334fe" d="M 0 0 
L 0 3.5 
" style="stroke: #000000; stroke-width: 0.8"/>
      </defs>
      <g>
       <use xlink:href="#m8962e334fe" x="30.811907" y="75.779178" style="stroke: #000000; stroke-width: 0.8"/>
      </g>
     </g>
     <g id="text_1">
      <!-- $\mathdefault{0}$ -->
      <g transform="translate(28.072174 90.389525)scale(0.11 -0.11)">
       <defs>
        <path id="CMR17-30" d="M 2688 2025 
C 2688 2416 2682 3080 2413 3591 
C 2176 4039 1798 4198 1466 4198 
C 1158 4198 768 4058 525 3597 
C 269 3118 243 2524 243 2025 
C 243 1661 250 1106 448 619 
C 723 -39 1216 -128 1466 -128 
C 1760 -128 2208 -7 2470 600 
C 2662 1042 2688 1559 2688 2025 
z
M 1466 -26 
C 1056 -26 813 325 723 812 
C 653 1188 653 1738 653 2096 
C 653 2588 653 2997 736 3387 
C 858 3929 1216 4096 1466 4096 
C 1728 4096 2067 3923 2189 3400 
C 2272 3036 2278 2607 2278 2096 
C 2278 1680 2278 1169 2202 792 
C 2067 95 1690 -26 1466 -26 
z
" transform="scale(0.015625)"/>
       </defs>
       <use xlink:href="#CMR17-30" transform="scale(0.996264)"/>
      </g>
     </g>
    </g>
    <g id="xtick_2">
     <g id="line2d_2">
      <g>
       <use xlink:href="#m8962e334fe" x="65.619528" y="75.779178" style="stroke: #000000; stroke-width: 0.8"/>
      </g>
     </g>
     <g id="text_2">
      <!-- $\mathdefault{1000}$ -->
      <g transform="translate(54.660594 90.389525)scale(0.11 -0.11)">
       <defs>
        <path id="CMR17-31" d="M 1702 4058 
C 1702 4192 1696 4192 1606 4192 
C 1357 3916 979 3827 621 3827 
C 602 3827 570 3827 563 3808 
C 557 3795 557 3782 557 3648 
C 755 3648 1088 3686 1344 3839 
L 1344 461 
C 1344 236 1331 160 781 160 
L 589 160 
L 589 0 
C 896 0 1216 0 1523 0 
C 1830 0 2150 0 2458 0 
L 2458 160 
L 2266 160 
C 1715 160 1702 230 1702 458 
L 1702 4058 
z
" transform="scale(0.015625)"/>
       </defs>
       <use xlink:href="#CMR17-31" transform="scale(0.996264)"/>
       <use xlink:href="#CMR17-30" transform="translate(45.690477 0)scale(0.996264)"/>
       <use xlink:href="#CMR17-30" transform="translate(91.380954 0)scale(0.996264)"/>
       <use xlink:href="#CMR17-30" transform="translate(137.071431 0)scale(0.996264)"/>
      </g>
     </g>
    </g>
    <g id="text_3">
     <!-- time [ms] -->
     <g transform="translate(34.647516 104.739598)scale(0.11 -0.11)">
      <defs>
       <path id="CMR17-74" d="M 966 2560 
L 1862 2560 
L 1862 2725 
L 966 2725 
L 966 3904 
L 851 3904 
C 838 3245 614 2668 70 2668 
L 70 2560 
L 627 2560 
L 627 771 
C 627 650 627 -64 1370 -64 
C 1747 -64 1965 306 1965 777 
L 1965 1140 
L 1850 1140 
L 1850 783 
C 1850 344 1677 51 1408 51 
C 1222 51 966 178 966 758 
L 966 2560 
z
" transform="scale(0.015625)"/>
       <path id="CMR17-69" d="M 992 3909 
C 992 4049 877 4170 730 4170 
C 589 4170 467 4056 467 3909 
C 467 3769 582 3648 730 3648 
C 870 3648 992 3763 992 3909 
z
M 243 2706 
L 243 2541 
C 602 2541 653 2502 653 2197 
L 653 427 
C 653 184 627 153 218 153 
L 218 -13 
C 371 0 646 0 806 0 
C 960 0 1222 0 1370 -13 
L 1370 153 
C 992 153 979 191 979 420 
L 979 2776 
L 243 2706 
z
" transform="scale(0.015625)"/>
       <path id="CMR17-6d" d="M 4326 1933 
C 4326 2252 4269 2790 3507 2790 
C 3072 2790 2771 2496 2656 2151 
L 2650 2151 
C 2573 2676 2195 2790 1837 2790 
C 1331 2790 1069 2400 973 2144 
L 966 2144 
L 966 2790 
L 211 2720 
L 211 2554 
C 589 2554 646 2515 646 2208 
L 646 428 
C 646 184 621 153 211 153 
L 211 -13 
C 365 0 646 0 813 0 
C 979 0 1267 0 1421 -13 
L 1421 153 
C 1011 153 986 178 986 428 
L 986 1658 
C 986 2247 1344 2688 1792 2688 
C 2266 2688 2317 2266 2317 1958 
L 2317 428 
C 2317 184 2291 153 1882 153 
L 1882 -13 
C 2035 0 2317 0 2483 0 
C 2650 0 2938 0 3091 -13 
L 3091 153 
C 2682 153 2656 178 2656 428 
L 2656 1658 
C 2656 2247 3014 2688 3462 2688 
C 3936 2688 3987 2266 3987 1958 
L 3987 428 
C 3987 184 3962 153 3552 153 
L 3552 -13 
C 3706 0 3987 0 4154 0 
C 4320 0 4608 0 4762 -13 
L 4762 153 
C 4352 153 4326 178 4326 428 
L 4326 1933 
z
" transform="scale(0.015625)"/>
       <path id="CMR17-65" d="M 2438 1472 
C 2464 1498 2464 1511 2464 1576 
C 2464 2238 2118 2816 1389 2816 
C 710 2816 173 2169 173 1383 
C 173 551 781 -64 1459 -64 
C 2176 -64 2458 607 2458 740 
C 2458 784 2419 784 2406 784 
C 2362 784 2355 771 2330 696 
C 2189 265 1837 51 1504 51 
C 1229 51 954 203 781 480 
C 582 803 582 1176 582 1472 
L 2438 1472 
z
M 589 1568 
C 634 2505 1126 2714 1382 2714 
C 1818 2714 2112 2297 2118 1568 
L 589 1568 
z
" transform="scale(0.015625)"/>
       <path id="CMR17-5b" d="M 1504 -1600 
L 1504 -1377 
L 902 -1377 
L 902 4544 
L 1504 4544 
L 1504 4767 
L 678 4767 
L 678 -1600 
L 1504 -1600 
z
" transform="scale(0.015625)"/>
       <path id="CMR17-73" d="M 1978 2697 
C 1978 2813 1971 2819 1933 2819 
C 1907 2819 1901 2813 1824 2717 
C 1805 2691 1747 2626 1728 2601 
C 1523 2819 1235 2819 1126 2819 
C 416 2819 160 2447 160 2076 
C 160 1498 813 1365 998 1325 
C 1402 1243 1542 1217 1677 1101 
C 1760 1025 1901 884 1901 654 
C 1901 384 1747 38 1158 38 
C 602 38 403 460 288 1021 
C 269 1110 269 1117 218 1117 
C 166 1117 160 1110 160 983 
L 160 63 
C 160 -51 166 -58 205 -58 
C 237 -58 243 -51 275 0 
C 314 57 410 211 448 276 
C 576 103 800 -64 1158 -64 
C 1792 -64 2131 283 2131 784 
C 2131 1112 1958 1285 1875 1362 
C 1683 1561 1459 1606 1190 1657 
C 838 1735 390 1825 390 2217 
C 390 2383 480 2737 1126 2737 
C 1811 2737 1850 2094 1862 1888 
C 1869 1856 1901 1849 1920 1849 
C 1978 1849 1978 1869 1978 1978 
L 1978 2697 
z
" transform="scale(0.015625)"/>
       <path id="CMR17-5d" d="M 915 4767 
L 90 4767 
L 90 4544 
L 691 4544 
L 691 -1377 
L 90 -1377 
L 90 -1600 
L 915 -1600 
L 915 4767 
z
" transform="scale(0.015625)"/>
      </defs>
      <use xlink:href="#CMR17-74" transform="scale(0.996264)"/>
      <use xlink:href="#CMR17-69" transform="translate(35.280768 0)scale(0.996264)"/>
      <use xlink:href="#CMR17-6d" transform="translate(60.151826 0)scale(0.996264)"/>
      <use xlink:href="#CMR17-65" transform="translate(137.071416 0)scale(0.996264)"/>
      <use xlink:href="#CMR17-5b" transform="translate(207.633043 0)scale(0.996264)"/>
      <use xlink:href="#CMR17-6d" transform="translate(232.504101 0)scale(0.996264)"/>
      <use xlink:href="#CMR17-73" transform="translate(309.423691 0)scale(0.996264)"/>
      <use xlink:href="#CMR17-5d" transform="translate(345.225029 0)scale(0.996264)"/>
     </g>
    </g>
   </g>
   <g id="matplotlib.axis_2">
    <g id="ytick_1">
     <g id="line2d_3">
      <defs>
       <path id="mb200bce9ac" d="M 0 0 
L -3.5 0 
" style="stroke: #000000; stroke-width: 0.8"/>
      </defs>
      <g>
       <use xlink:href="#mb200bce9ac" x="28.203076" y="73.308269" style="stroke: #000000; stroke-width: 0.8"/>
      </g>
     </g>
     <g id="text_4">
      <!-- $\mathdefault{0.7}$ -->
      <g transform="translate(7.2 77.113442)scale(0.11 -0.11)">
       <defs>
        <path id="CMMI12-3a" d="M 1178 307 
C 1178 492 1024 619 870 619 
C 685 619 557 466 557 313 
C 557 128 710 0 864 0 
C 1050 0 1178 153 1178 307 
z
" transform="scale(0.015625)"/>
        <path id="CMR17-37" d="M 2886 3941 
L 2886 4081 
L 1382 4081 
C 634 4081 621 4165 595 4288 
L 480 4288 
L 294 3094 
L 410 3094 
C 429 3215 474 3540 550 3661 
C 589 3712 1062 3712 1171 3712 
L 2579 3712 
L 1869 2661 
C 1395 1954 1069 999 1069 165 
C 1069 89 1069 -128 1299 -128 
C 1530 -128 1530 89 1530 171 
L 1530 465 
C 1530 1508 1709 2196 2003 2636 
L 2886 3941 
z
" transform="scale(0.015625)"/>
       </defs>
       <use xlink:href="#CMR17-30" transform="scale(0.996264)"/>
       <use xlink:href="#CMMI12-3a" transform="translate(45.690477 0)scale(0.996264)"/>
       <use xlink:href="#CMR17-37" transform="translate(72.787654 0)scale(0.996264)"/>
      </g>
     </g>
    </g>
    <g id="ytick_2">
     <g id="line2d_4">
      <g>
       <use xlink:href="#mb200bce9ac" x="28.203076" y="54.667091" style="stroke: #000000; stroke-width: 0.8"/>
      </g>
     </g>
     <g id="text_5">
      <!-- $\mathdefault{0.8}$ -->
      <g transform="translate(7.2 58.472264)scale(0.11 -0.11)">
       <defs>
        <path id="CMR17-38" d="M 1741 2264 
C 2144 2467 2554 2773 2554 3263 
C 2554 3841 1990 4179 1472 4179 
C 890 4179 378 3759 378 3180 
C 378 3021 416 2747 666 2505 
C 730 2442 998 2251 1171 2130 
C 883 1983 211 1634 211 934 
C 211 279 838 -128 1459 -128 
C 2144 -128 2720 362 2720 1010 
C 2720 1590 2330 1857 2074 2029 
L 1741 2264 
z
M 902 2822 
C 851 2854 595 3051 595 3351 
C 595 3739 998 4032 1459 4032 
C 1965 4032 2336 3676 2336 3262 
C 2336 2669 1670 2331 1638 2331 
C 1632 2331 1626 2331 1574 2370 
L 902 2822 
z
M 2080 1519 
C 2176 1449 2483 1240 2483 851 
C 2483 381 2010 25 1472 25 
C 890 25 448 438 448 940 
C 448 1443 838 1862 1280 2060 
L 2080 1519 
z
" transform="scale(0.015625)"/>
       </defs>
       <use xlink:href="#CMR17-30" transform="scale(0.996264)"/>
       <use xlink:href="#CMMI12-3a" transform="translate(45.690477 0)scale(0.996264)"/>
       <use xlink:href="#CMR17-38" transform="translate(72.787654 0)scale(0.996264)"/>
      </g>
     </g>
    </g>
    <g id="ytick_3">
     <g id="line2d_5">
      <g>
       <use xlink:href="#mb200bce9ac" x="28.203076" y="36.025912" style="stroke: #000000; stroke-width: 0.8"/>
      </g>
     </g>
     <g id="text_6">
      <!-- $\mathdefault{0.9}$ -->
      <g transform="translate(7.2 39.831085)scale(0.11 -0.11)">
       <defs>
        <path id="CMR17-39" d="M 2253 1864 
C 2253 464 1670 31 1190 31 
C 1043 31 685 31 538 294 
C 704 268 826 357 826 518 
C 826 692 685 749 595 749 
C 538 749 365 723 365 506 
C 365 71 742 -128 1203 -128 
C 1939 -128 2688 674 2688 2073 
C 2688 3817 1971 4179 1485 4179 
C 851 4179 243 3628 243 2778 
C 243 1991 762 1408 1414 1408 
C 1952 1408 2189 1903 2253 2112 
L 2253 1864 
z
M 1427 1510 
C 1254 1510 1011 1542 813 1922 
C 678 2169 678 2461 678 2771 
C 678 3146 678 3405 858 3684 
C 947 3817 1114 4032 1485 4032 
C 2240 4032 2240 2885 2240 2632 
C 2240 2182 2035 1510 1427 1510 
z
" transform="scale(0.015625)"/>
       </defs>
       <use xlink:href="#CMR17-30" transform="scale(0.996264)"/>
       <use xlink:href="#CMMI12-3a" transform="translate(45.690477 0)scale(0.996264)"/>
       <use xlink:href="#CMR17-39" transform="translate(72.787654 0)scale(0.996264)"/>
      </g>
     </g>
    </g>
   </g>
   <g id="line2d_6">
    <path d="M 30.811907 73.308269 
L 31.682098 61.455051 
L 32.517481 53.026751 
L 33.283248 47.391383 
L 34.014209 43.508307 
L 34.745169 40.761807 
L 35.441321 38.945764 
L 36.137473 37.706446 
L 36.833626 36.886727 
L 37.599393 36.328352 
L 38.434776 35.999579 
L 39.444197 35.852365 
L 40.766887 35.897581 
L 42.855344 36.218011 
L 60.189539 39.381481 
L 68.578176 40.507994 
L 78.393925 41.596065 
L 82.988531 42.039777 
L 82.988531 42.039777 
" clip-path="url(#p6b52fdf265)" style="fill: none; stroke: #ffde00; stroke-opacity: 0.8; stroke-width: 1.5; stroke-linecap: square"/>
   </g>
   <g id="line2d_7">
    <path d="M 30.811907 73.308269 
L 31.682098 61.355304 
L 32.517481 52.791817 
L 33.318056 46.798955 
L 34.083824 42.70585 
L 34.814784 39.971819 
L 35.510936 38.183097 
L 36.207089 36.990623 
L 36.903241 36.237309 
L 37.599393 35.801587 
L 38.365161 35.580783 
L 39.270159 35.554325 
L 40.453618 35.75271 
L 42.263615 36.306604 
L 55.142434 40.695921 
L 60.607231 42.146338 
L 66.698564 43.528544 
L 73.48605 44.836162 
L 81.039304 46.060815 
L 82.988531 46.343445 
L 82.988531 46.343445 
" clip-path="url(#p6b52fdf265)" style="fill: none; stroke: #ffc400; stroke-opacity: 0.8; stroke-width: 1.5; stroke-linecap: square"/>
   </g>
   <g id="line2d_8">
    <path d="M 30.811907 73.308269 
L 31.682098 61.255405 
L 32.517481 52.543664 
L 33.318056 46.377482 
L 34.083824 42.118563 
L 34.814784 39.250118 
L 35.510936 37.368133 
L 36.172281 36.170615 
L 36.833626 35.408989 
L 37.494971 34.973049 
L 38.191123 34.77138 
L 39.026506 34.773163 
L 40.070734 35.016236 
L 41.567462 35.616419 
L 44.943801 37.287205 
L 48.981485 39.175337 
L 52.636286 40.632163 
L 56.499931 41.929795 
L 60.676846 43.096305 
L 65.271452 44.146063 
L 70.388172 45.082388 
L 76.13143 45.902139 
L 82.675262 46.606782 
L 82.988531 46.635471 
L 82.988531 46.635471 
" clip-path="url(#p6b52fdf265)" style="fill: none; stroke: #ffa700; stroke-opacity: 0.8; stroke-width: 1.5; stroke-linecap: square"/>
   </g>
   <g id="line2d_9">
    <path d="M 30.811907 73.308269 
L 31.716906 60.758661 
L 32.587096 51.71379 
L 33.387671 45.551117 
L 34.153439 41.249296 
L 34.884399 38.320614 
L 35.580551 36.380684 
L 36.241896 35.137327 
L 36.903241 34.343515 
L 37.564586 33.890279 
L 38.260738 33.685442 
L 39.061313 33.695261 
L 40.035927 33.940837 
L 41.428232 34.540575 
L 44.560918 36.212011 
L 47.972064 37.911932 
L 51.000327 39.166583 
L 54.167821 40.23513 
L 57.613775 41.160529 
L 61.477421 41.963656 
L 65.897989 42.649182 
L 71.084325 43.220467 
L 77.349696 43.678592 
L 82.988531 43.946107 
L 82.988531 43.946107 
" clip-path="url(#p6b52fdf265)" style="fill: none; stroke: #ff8600; stroke-opacity: 0.8; stroke-width: 1.5; stroke-linecap: square"/>
   </g>
   <g id="line2d_10">
    <path d="M 30.811907 73.308269 
L 31.716906 60.696039 
L 32.587096 51.541251 
L 33.422479 44.99874 
L 34.223054 40.423503 
L 34.988822 37.304521 
L 35.719782 35.239191 
L 36.415934 33.919381 
L 37.077279 33.11683 
L 37.738624 32.649313 
L 38.434776 32.427617 
L 39.235352 32.418449 
L 40.209965 32.642632 
L 41.60227 33.21306 
L 49.782061 36.957328 
L 52.636286 37.837175 
L 55.803779 38.577147 
L 59.458579 39.19512 
L 63.809532 39.695892 
L 69.204713 40.083441 
L 76.40989 40.364762 
L 82.988531 40.494479 
L 82.988531 40.494479 
" clip-path="url(#p6b52fdf265)" style="fill: none; stroke: #ff6800; stroke-opacity: 0.8; stroke-width: 1.5; stroke-linecap: square"/>
   </g>
   <g id="line2d_11">
    <path d="M 30.811907 73.308269 
L 31.716906 60.648295 
L 32.587096 51.404912 
L 33.422479 44.731077 
L 34.223054 39.993993 
L 34.988822 36.70111 
L 35.719782 34.466207 
L 36.415934 32.991593 
L 37.112087 32.014739 
L 37.808239 31.419452 
L 38.504392 31.110445 
L 39.270159 31.010781 
L 40.209965 31.122794 
L 41.497847 31.523235 
L 43.969188 32.582518 
L 47.31072 33.942539 
L 50.025714 34.798806 
L 52.914747 35.473784 
L 56.256278 36.018701 
L 60.293962 36.442785 
L 65.515105 36.756396 
L 72.998744 36.965538 
L 82.988531 37.062778 
L 82.988531 37.062778 
" clip-path="url(#p6b52fdf265)" style="fill: none; stroke: #ff4700; stroke-opacity: 0.8; stroke-width: 1.5; stroke-linecap: square"/>
   </g>
   <g id="line2d_12">
    <path d="M 30.811907 73.308269 
L 31.716906 60.612129 
L 32.587096 51.298681 
L 33.457287 44.272947 
L 34.292669 39.277571 
L 35.093245 35.790937 
L 35.859012 33.409289 
L 36.589972 31.822959 
L 37.286125 30.799357 
L 37.982277 30.142028 
L 38.713237 29.749428 
L 39.513813 29.574007 
L 40.488426 29.604244 
L 41.776308 29.886662 
L 44.178034 30.692091 
L 47.763219 31.83836 
L 50.617444 32.504707 
L 53.784937 33.009709 
L 57.648583 33.389787 
L 62.765303 33.656012 
L 70.597018 33.818671 
L 82.988531 33.881315 
L 82.988531 33.881315 
" clip-path="url(#p6b52fdf265)" style="fill: none; stroke: #ff2900; stroke-opacity: 0.8; stroke-width: 1.5; stroke-linecap: square"/>
   </g>
   <g id="line2d_13">
    <path d="M 30.811907 73.308269 
L 31.716906 60.584876 
L 32.621904 50.892135 
L 33.492094 43.853954 
L 34.327477 38.794018 
L 35.128052 35.205069 
L 35.928628 32.603773 
L 36.694395 30.845922 
L 37.425355 29.686979 
L 38.156315 28.917883 
L 38.922083 28.427215 
L 39.757466 28.159182 
L 40.732079 28.08709 
L 42.019961 28.231161 
L 44.212841 28.741575 
L 48.633409 29.772345 
L 51.870518 30.270057 
L 55.699356 30.621611 
L 60.850884 30.854594 
L 69.239521 30.983322 
L 82.988531 31.020238 
L 82.988531 31.020238 
" clip-path="url(#p6b52fdf265)" style="fill: none; stroke: #f10800; stroke-opacity: 0.8; stroke-width: 1.5; stroke-linecap: square"/>
   </g>
   <g id="line2d_14">
    <path d="M 30.811907 73.308269 
L 31.716906 60.564423 
L 32.621904 50.827401 
L 33.492094 43.714284 
L 34.362285 38.364221 
L 35.197668 34.557041 
L 35.998243 31.881461 
L 36.798818 29.95669 
L 37.564586 28.663005 
L 38.330353 27.779881 
L 39.130929 27.186866 
L 40.001119 26.820658 
L 41.01054 26.644838 
L 42.298422 26.65872 
L 44.317264 26.93111 
L 50.582636 27.876348 
L 54.655128 28.197518 
L 60.224347 28.39395 
L 70.214134 28.48659 
L 82.988531 28.501637 
L 82.988531 28.501637 
" clip-path="url(#p6b52fdf265)" style="fill: none; stroke: #cd0000; stroke-opacity: 0.8; stroke-width: 1.5; stroke-linecap: square"/>
   </g>
   <g id="line2d_15">
    <path d="M 30.811907 73.308269 
L 31.716906 60.549123 
L 32.621904 50.778323 
L 33.526902 43.358489 
L 34.397092 37.9815 
L 35.232475 34.109578 
L 36.067858 31.240749 
L 36.868433 29.233374 
L 37.669009 27.791171 
L 38.469584 26.78307 
L 39.304967 26.079036 
L 40.209965 25.608335 
L 41.254194 25.325551 
L 42.542076 25.217808 
L 44.421687 25.304015 
L 55.560126 26.159589 
L 62.904534 26.289551 
L 81.805072 26.327478 
L 82.988531 26.327646 
L 82.988531 26.327646 
" clip-path="url(#p6b52fdf265)" style="fill: none; stroke: #a40000; stroke-opacity: 0.8; stroke-width: 1.5; stroke-linecap: square"/>
   </g>
   <g id="line2d_16">
    <path d="M 30.811907 73.308269 
L 31.716906 60.537704 
L 32.621904 50.741325 
L 33.526902 43.274122 
L 34.397092 37.826634 
L 35.267283 33.721967 
L 36.102666 30.78006 
L 36.938049 28.6055 
L 37.773432 27.026947 
L 38.608814 25.904481 
L 39.479005 25.099232 
L 40.418811 24.533791 
L 41.497847 24.155073 
L 42.820537 23.94248 
L 44.630533 23.894545 
L 48.250525 24.073775 
L 54.968396 24.361902 
L 63.670301 24.467244 
L 82.988531 24.487279 
L 82.988531 24.487279 
" clip-path="url(#p6b52fdf265)" style="fill: none; stroke: #800000; stroke-opacity: 0.8; stroke-width: 1.5; stroke-linecap: square"/>
   </g>
   <g id="patch_3">
    <path d="M 28.203076 75.779178 
L 28.203076 21.419178 
" style="fill: none; stroke: #000000; stroke-width: 0.8; stroke-linejoin: miter; stroke-linecap: square"/>
   </g>
   <g id="patch_4">
    <path d="M 28.203076 75.779178 
L 85.597362 75.779178 
" style="fill: none; stroke: #000000; stroke-width: 0.8; stroke-linejoin: miter; stroke-linecap: square"/>
   </g>
   <g id="text_7">
    <!-- $\mathrm{d} u / \mathrm{d}t$ -->
    <g transform="translate(42.956741 15.419178)scale(0.11 -0.11)">
     <defs>
      <path id="CMR17-64" d="M 1869 4326 
L 1869 4160 
C 2246 4160 2304 4122 2304 3820 
L 2304 2345 
C 2278 2377 2016 2790 1498 2790 
C 845 2790 211 2208 211 1364 
C 211 525 806 -64 1434 -64 
C 1978 -64 2259 337 2291 380 
L 2291 -63 
L 3066 -63 
L 3066 128 
C 2688 128 2630 166 2630 473 
L 2630 4396 
L 1869 4326 
z
M 2291 755 
C 2291 563 2176 390 2029 262 
C 1811 70 1594 38 1472 38 
C 1286 38 621 134 621 1356 
C 621 2612 1363 2688 1530 2688 
C 1824 2688 2061 2522 2208 2291 
C 2291 2157 2291 2138 2291 2023 
L 2291 755 
z
" transform="scale(0.015625)"/>
      <path id="CMMI12-75" d="M 2182 370 
C 2266 13 2573 -64 2726 -64 
C 2931 -64 3085 70 3187 287 
C 3296 517 3379 894 3379 913 
C 3379 945 3354 971 3315 971 
C 3258 971 3251 939 3226 843 
C 3110 402 2995 64 2739 64 
C 2547 64 2547 275 2547 358 
C 2547 505 2566 568 2630 837 
C 2675 1009 2720 1181 2758 1360 
L 3021 2401 
C 3066 2561 3066 2574 3066 2593 
C 3066 2689 2989 2753 2893 2753 
C 2707 2753 2662 2593 2624 2433 
C 2560 2184 2214 811 2170 588 
C 2163 588 1914 64 1446 64 
C 1114 64 1050 351 1050 588 
C 1050 952 1229 1462 1395 1890 
C 1472 2095 1504 2178 1504 2305 
C 1504 2580 1306 2816 998 2816 
C 410 2816 173 1890 173 1839 
C 173 1814 198 1782 243 1782 
C 301 1782 307 1807 333 1896 
C 486 2441 736 2682 979 2682 
C 1043 2682 1146 2682 1146 2478 
C 1146 2312 1075 2127 979 1884 
C 698 1124 666 881 666 690 
C 666 38 1158 -64 1421 -64 
C 1830 -64 2054 217 2182 370 
z
" transform="scale(0.015625)"/>
      <path id="CMMI12-3d" d="M 2746 4562 
C 2746 4569 2784 4666 2784 4678 
C 2784 4755 2720 4800 2669 4800 
C 2637 4800 2579 4800 2528 4659 
L 384 -1363 
C 384 -1370 346 -1465 346 -1478 
C 346 -1555 410 -1600 461 -1600 
C 499 -1600 557 -1593 602 -1459 
L 2746 4562 
z
" transform="scale(0.015625)"/>
      <path id="CMMI12-74" d="M 1286 2566 
L 1875 2566 
C 1997 2566 2061 2566 2061 2681 
C 2061 2752 2022 2752 1894 2752 
L 1331 2752 
L 1568 3692 
C 1594 3781 1594 3794 1594 3840 
C 1594 3943 1510 4000 1427 4000 
C 1376 4000 1229 3981 1178 3775 
L 928 2752 
L 326 2752 
C 198 2752 141 2752 141 2630 
C 141 2566 186 2566 307 2566 
L 877 2566 
L 454 881 
C 403 658 384 594 384 511 
C 384 211 595 -64 954 -64 
C 1600 -64 1946 868 1946 912 
C 1946 951 1920 970 1882 970 
C 1869 970 1843 970 1830 944 
C 1824 938 1818 931 1773 829 
C 1638 511 1344 64 973 64 
C 781 64 768 224 768 364 
C 768 370 768 492 787 568 
L 1286 2566 
z
" transform="scale(0.015625)"/>
     </defs>
     <use xlink:href="#CMR17-64" transform="scale(0.996264)"/>
     <use xlink:href="#CMMI12-75" transform="translate(50.89537 0)scale(0.996264)"/>
     <use xlink:href="#CMMI12-3d" transform="translate(106.415699 0)scale(0.996264)"/>
     <use xlink:href="#CMR17-64" transform="translate(155.190618 0)scale(0.996264)"/>
     <use xlink:href="#CMMI12-74" transform="translate(206.085988 0)scale(0.996264)"/>
    </g>
   </g>
  </g>
  <g id="axes_2">
   <g id="patch_5">
    <path d="M 142.991648 75.779178 
L 200.385933 75.779178 
L 200.385933 21.419178 
L 142.991648 21.419178 
z
" style="fill: #ffffff"/>
   </g>
   <g id="matplotlib.axis_3">
    <g id="xtick_3">
     <g id="line2d_17">
      <g>
       <use xlink:href="#m8962e334fe" x="145.600479" y="75.779178" style="stroke: #000000; stroke-width: 0.8"/>
      </g>
     </g>
     <g id="text_8">
      <!-- $\mathdefault{0}$ -->
      <g transform="translate(142.860745 90.389525)scale(0.11 -0.11)">
       <use xlink:href="#CMR17-30" transform="scale(0.996264)"/>
      </g>
     </g>
    </g>
    <g id="xtick_4">
     <g id="line2d_18">
      <g>
       <use xlink:href="#m8962e334fe" x="180.408099" y="75.779178" style="stroke: #000000; stroke-width: 0.8"/>
      </g>
     </g>
     <g id="text_9">
      <!-- $\mathdefault{1000}$ -->
      <g transform="translate(169.449165 90.389525)scale(0.11 -0.11)">
       <use xlink:href="#CMR17-31" transform="scale(0.996264)"/>
       <use xlink:href="#CMR17-30" transform="translate(45.690477 0)scale(0.996264)"/>
       <use xlink:href="#CMR17-30" transform="translate(91.380954 0)scale(0.996264)"/>
       <use xlink:href="#CMR17-30" transform="translate(137.071431 0)scale(0.996264)"/>
      </g>
     </g>
    </g>
    <g id="text_10">
     <!-- time [ms] -->
     <g transform="translate(149.436087 104.739598)scale(0.11 -0.11)">
      <use xlink:href="#CMR17-74" transform="scale(0.996264)"/>
      <use xlink:href="#CMR17-69" transform="translate(35.280768 0)scale(0.996264)"/>
      <use xlink:href="#CMR17-6d" transform="translate(60.151826 0)scale(0.996264)"/>
      <use xlink:href="#CMR17-65" transform="translate(137.071416 0)scale(0.996264)"/>
      <use xlink:href="#CMR17-5b" transform="translate(207.633043 0)scale(0.996264)"/>
      <use xlink:href="#CMR17-6d" transform="translate(232.504101 0)scale(0.996264)"/>
      <use xlink:href="#CMR17-73" transform="translate(309.423691 0)scale(0.996264)"/>
      <use xlink:href="#CMR17-5d" transform="translate(345.225029 0)scale(0.996264)"/>
     </g>
    </g>
   </g>
   <g id="matplotlib.axis_4">
    <g id="ytick_4">
     <g id="line2d_19">
      <g>
       <use xlink:href="#mb200bce9ac" x="142.991648" y="70.065162" style="stroke: #000000; stroke-width: 0.8"/>
      </g>
     </g>
     <g id="text_11">
      <!-- $\mathdefault{0.25}$ -->
      <g transform="translate(116.509104 73.870335)scale(0.11 -0.11)">
       <defs>
        <path id="CMR17-32" d="M 2669 989 
L 2554 989 
C 2490 536 2438 459 2413 420 
C 2381 369 1920 369 1830 369 
L 602 369 
C 832 619 1280 1072 1824 1597 
C 2214 1967 2669 2402 2669 3035 
C 2669 3790 2067 4224 1395 4224 
C 691 4224 262 3604 262 3030 
C 262 2780 448 2748 525 2748 
C 589 2748 781 2787 781 3010 
C 781 3207 614 3264 525 3264 
C 486 3264 448 3258 422 3245 
C 544 3790 915 4058 1306 4058 
C 1862 4058 2227 3617 2227 3035 
C 2227 2479 1901 2000 1536 1584 
L 262 146 
L 262 0 
L 2515 0 
L 2669 989 
z
" transform="scale(0.015625)"/>
        <path id="CMR17-35" d="M 730 3692 
C 794 3666 1056 3584 1325 3584 
C 1920 3584 2246 3911 2432 4100 
C 2432 4157 2432 4192 2394 4192 
C 2387 4192 2374 4192 2323 4163 
C 2099 4058 1837 3973 1517 3973 
C 1325 3973 1037 3999 723 4139 
C 653 4171 640 4171 634 4171 
C 602 4171 595 4164 595 4037 
L 595 2203 
C 595 2089 595 2057 659 2057 
C 691 2057 704 2070 736 2114 
C 941 2401 1222 2522 1542 2522 
C 1766 2522 2246 2382 2246 1289 
C 2246 1085 2246 715 2054 421 
C 1894 159 1645 25 1370 25 
C 947 25 518 320 403 814 
C 429 807 480 795 506 795 
C 589 795 749 840 749 1038 
C 749 1210 627 1280 506 1280 
C 358 1280 262 1190 262 1011 
C 262 454 704 -128 1382 -128 
C 2042 -128 2669 440 2669 1264 
C 2669 2030 2170 2624 1549 2624 
C 1222 2624 947 2503 730 2274 
L 730 3692 
z
" transform="scale(0.015625)"/>
       </defs>
       <use xlink:href="#CMR17-30" transform="scale(0.996264)"/>
       <use xlink:href="#CMMI12-3a" transform="translate(45.690477 0)scale(0.996264)"/>
       <use xlink:href="#CMR17-32" transform="translate(72.787654 0)scale(0.996264)"/>
       <use xlink:href="#CMR17-35" transform="translate(118.478131 0)scale(0.996264)"/>
      </g>
     </g>
    </g>
    <g id="ytick_5">
     <g id="line2d_20">
      <g>
       <use xlink:href="#mb200bce9ac" x="142.991648" y="53.849625" style="stroke: #000000; stroke-width: 0.8"/>
      </g>
     </g>
     <g id="text_12">
      <!-- $\mathdefault{0.50}$ -->
      <g transform="translate(116.509104 57.654799)scale(0.11 -0.11)">
       <use xlink:href="#CMR17-30" transform="scale(0.996264)"/>
       <use xlink:href="#CMMI12-3a" transform="translate(45.690477 0)scale(0.996264)"/>
       <use xlink:href="#CMR17-35" transform="translate(72.787654 0)scale(0.996264)"/>
       <use xlink:href="#CMR17-30" transform="translate(118.478131 0)scale(0.996264)"/>
      </g>
     </g>
    </g>
    <g id="ytick_6">
     <g id="line2d_21">
      <g>
       <use xlink:href="#mb200bce9ac" x="142.991648" y="37.634089" style="stroke: #000000; stroke-width: 0.8"/>
      </g>
     </g>
     <g id="text_13">
      <!-- $\mathdefault{0.75}$ -->
      <g transform="translate(116.509104 41.439262)scale(0.11 -0.11)">
       <use xlink:href="#CMR17-30" transform="scale(0.996264)"/>
       <use xlink:href="#CMMI12-3a" transform="translate(45.690477 0)scale(0.996264)"/>
       <use xlink:href="#CMR17-37" transform="translate(72.787654 0)scale(0.996264)"/>
       <use xlink:href="#CMR17-35" transform="translate(118.478131 0)scale(0.996264)"/>
      </g>
     </g>
    </g>
   </g>
   <g id="line2d_22">
    <path d="M 145.600479 73.308269 
L 146.401054 64.76806 
L 147.166822 58.816297 
L 147.932589 54.531658 
L 148.663549 51.607898 
L 149.429317 49.435083 
L 150.195085 47.911185 
L 150.99566 46.798663 
L 151.865851 45.964656 
L 152.875272 45.311879 
L 154.128346 44.781536 
L 155.833919 44.320988 
L 158.514106 43.854382 
L 163.456788 43.250789 
L 171.497349 42.50175 
L 181.87002 41.766107 
L 194.992493 41.067866 
L 197.777102 40.943323 
L 197.777102 40.943323 
" clip-path="url(#p5826846140)" style="fill: none; stroke: #ffde00; stroke-opacity: 0.8; stroke-width: 1.5; stroke-linecap: square"/>
   </g>
   <g id="line2d_23">
    <path d="M 145.600479 73.308269 
L 146.401054 64.376735 
L 147.201629 57.803634 
L 147.967397 53.227404 
L 148.733165 49.913488 
L 149.498932 47.529578 
L 150.299508 45.749682 
L 151.134891 44.433146 
L 152.039889 43.426338 
L 153.04931 42.636089 
L 154.267576 41.966712 
L 155.903535 41.337516 
L 158.270453 40.686975 
L 161.994868 39.916111 
L 167.355242 39.043152 
L 174.073113 38.179905 
L 182.183288 37.368774 
L 191.96423 36.621024 
L 197.777102 36.263532 
L 197.777102 36.263532 
" clip-path="url(#p5826846140)" style="fill: none; stroke: #ffc400; stroke-opacity: 0.8; stroke-width: 1.5; stroke-linecap: square"/>
   </g>
   <g id="line2d_24">
    <path d="M 145.600479 73.308269 
L 146.435862 63.626379 
L 147.236437 56.726204 
L 148.037012 51.637441 
L 148.837588 47.925787 
L 149.638163 45.233398 
L 150.438738 43.278085 
L 151.274121 41.793366 
L 152.179119 40.625637 
L 153.18854 39.681838 
L 154.371999 38.879255 
L 155.868727 38.140693 
L 157.887569 37.407349 
L 160.706986 36.634653 
L 164.535824 35.826852 
L 169.304469 35.055737 
L 175.012918 34.365554 
L 181.87002 33.768918 
L 190.258656 33.27134 
L 197.777102 32.970389 
L 197.777102 32.970389 
" clip-path="url(#p5826846140)" style="fill: none; stroke: #ffa700; stroke-opacity: 0.8; stroke-width: 1.5; stroke-linecap: square"/>
   </g>
   <g id="line2d_25">
    <path d="M 145.600479 73.308269 
L 146.470669 62.936321 
L 147.306052 55.518465 
L 148.141435 50.029956 
L 148.94201 46.152146 
L 149.742586 43.286944 
L 150.577969 41.08919 
L 151.448159 39.415076 
L 152.353157 38.13815 
L 153.362578 37.091881 
L 154.546037 36.195569 
L 155.97315 35.407051 
L 157.783146 34.673689 
L 160.150064 33.964423 
L 163.28275 33.269003 
L 167.216011 32.632542 
L 172.054271 32.083398 
L 178.075989 31.633782 
L 185.872896 31.286954 
L 196.732874 31.042873 
L 197.777102 31.02816 
L 197.777102 31.02816 
" clip-path="url(#p5826846140)" style="fill: none; stroke: #ff8600; stroke-opacity: 0.8; stroke-width: 1.5; stroke-linecap: square"/>
   </g>
   <g id="line2d_26">
    <path d="M 145.600479 73.308269 
L 146.470669 62.667287 
L 147.34086 54.690968 
L 148.176243 48.982257 
L 149.011626 44.73515 
L 149.847009 41.589631 
L 150.682391 39.259313 
L 151.552582 37.461382 
L 152.45758 36.077096 
L 153.467001 34.93828 
L 154.580845 34.015842 
L 155.903535 33.215219 
L 157.504685 32.511904 
L 159.558335 31.862729 
L 162.203714 31.269389 
L 165.614861 30.740857 
L 170.000621 30.29653 
L 175.743878 29.950796 
L 183.749631 29.707559 
L 196.628451 29.564084 
L 197.777102 29.558131 
L 197.777102 29.558131 
" clip-path="url(#p5826846140)" style="fill: none; stroke: #ff6800; stroke-opacity: 0.8; stroke-width: 1.5; stroke-linecap: square"/>
   </g>
   <g id="line2d_27">
    <path d="M 145.600479 73.308269 
L 146.470669 62.460411 
L 147.34086 54.252785 
L 148.21105 48.097874 
L 149.046433 43.674522 
L 149.881816 40.356823 
L 150.752007 37.781263 
L 151.622197 35.8672 
L 152.527195 34.384288 
L 153.501809 33.19921 
L 154.580845 32.233209 
L 155.833919 31.418039 
L 157.295839 30.736651 
L 159.140643 30.133118 
L 161.507561 29.606802 
L 164.60544 29.158452 
L 168.747547 28.796031 
L 174.525612 28.528918 
L 183.436362 28.36138 
L 197.777102 28.293105 
L 197.777102 28.293105 
" clip-path="url(#p5826846140)" style="fill: none; stroke: #ff4700; stroke-opacity: 0.8; stroke-width: 1.5; stroke-linecap: square"/>
   </g>
   <g id="line2d_28">
    <path d="M 145.600479 73.308269 
L 146.505477 61.921296 
L 147.375667 53.626481 
L 148.245858 47.350973 
L 149.116049 42.631612 
L 149.986239 39.09679 
L 150.85643 36.452577 
L 151.761428 34.402837 
L 152.701233 32.825736 
L 153.675847 31.616307 
L 154.754883 30.633601 
L 155.97315 29.832985 
L 157.400262 29.17081 
L 159.140643 28.617995 
L 161.368331 28.154862 
L 164.361786 27.774601 
L 168.538701 27.483972 
L 174.873688 27.286707 
L 186.39501 27.185074 
L 197.777102 27.166835 
L 197.777102 27.166835 
" clip-path="url(#p5826846140)" style="fill: none; stroke: #ff2900; stroke-opacity: 0.8; stroke-width: 1.5; stroke-linecap: square"/>
   </g>
   <g id="line2d_29">
    <path d="M 145.600479 73.308269 
L 146.505477 61.796859 
L 147.410475 53.072047 
L 148.280666 46.717069 
L 149.150856 41.899112 
L 150.021047 38.259172 
L 150.891237 35.513712 
L 151.796235 33.370427 
L 152.736041 31.713347 
L 153.710654 30.440794 
L 154.754883 29.438594 
L 155.903535 28.639628 
L 157.261032 27.974185 
L 158.89699 27.432775 
L 160.95064 26.998557 
L 163.700442 26.656713 
L 167.66851 26.404006 
L 174.073113 26.242804 
L 187.543662 26.17223 
L 197.777102 26.165773 
L 197.777102 26.165773 
" clip-path="url(#p5826846140)" style="fill: none; stroke: #f10800; stroke-opacity: 0.8; stroke-width: 1.5; stroke-linecap: square"/>
   </g>
   <g id="line2d_30">
    <path d="M 145.600479 73.308269 
L 146.505477 61.703186 
L 147.410475 52.869179 
L 148.315473 46.174363 
L 149.220471 41.121406 
L 150.12547 37.319626 
L 151.030468 34.464211 
L 151.935466 32.319813 
L 152.875272 30.653471 
L 153.849885 29.370036 
L 154.894114 28.359398 
L 156.042765 27.557251 
L 157.365455 26.910252 
L 158.931798 26.396454 
L 160.915832 25.987905 
L 163.596019 25.676349 
L 167.564087 25.457991 
L 174.455996 25.330988 
L 192.555959 25.288558 
L 197.777102 25.287697 
L 197.777102 25.287697 
" clip-path="url(#p5826846140)" style="fill: none; stroke: #cd0000; stroke-opacity: 0.8; stroke-width: 1.5; stroke-linecap: square"/>
   </g>
   <g id="line2d_31">
    <path d="M 145.600479 73.308269 
L 146.505477 61.632958 
L 147.410475 52.716461 
L 148.315473 45.929824 
L 149.220471 40.780724 
L 150.12547 36.884178 
L 151.030468 33.940483 
L 151.935466 31.717981 
L 152.875272 29.983446 
L 153.849885 28.643734 
L 154.894114 27.588143 
L 156.007957 26.773746 
L 157.295839 26.112139 
L 158.827375 25.586773 
L 160.741794 25.17917 
L 163.28275 24.879024 
L 167.076781 24.674513 
L 173.899074 24.56243 
L 194.644416 24.53086 
L 197.777102 24.530667 
L 197.777102 24.530667 
" clip-path="url(#p5826846140)" style="fill: none; stroke: #a40000; stroke-opacity: 0.8; stroke-width: 1.5; stroke-linecap: square"/>
   </g>
   <g id="line2d_32">
    <path d="M 145.600479 73.308269 
L 146.505477 61.580467 
L 147.410475 52.601957 
L 148.315473 45.745732 
L 149.220471 40.522974 
L 150.12547 36.552815 
L 151.030468 33.53938 
L 151.935466 31.253935 
L 152.875272 29.46312 
L 153.849885 28.075579 
L 154.859306 27.011518 
L 155.97315 26.157671 
L 157.226224 25.481442 
L 158.688144 24.950648 
L 160.49814 24.538825 
L 162.899866 24.234036 
L 166.450244 24.0292 
L 172.820038 23.919603 
L 192.869228 23.890287 
L 197.777102 23.890087 
L 197.777102 23.890087 
" clip-path="url(#p5826846140)" style="fill: none; stroke: #800000; stroke-opacity: 0.8; stroke-width: 1.5; stroke-linecap: square"/>
   </g>
   <g id="patch_6">
    <path d="M 142.991648 75.779178 
L 142.991648 21.419178 
" style="fill: none; stroke: #000000; stroke-width: 0.8; stroke-linejoin: miter; stroke-linecap: square"/>
   </g>
   <g id="patch_7">
    <path d="M 142.991648 75.779178 
L 200.385933 75.779178 
" style="fill: none; stroke: #000000; stroke-width: 0.8; stroke-linejoin: miter; stroke-linecap: square"/>
   </g>
   <g id="text_14">
    <!-- $\mathrm{d} v / \mathrm{d}t$ -->
    <g transform="translate(158.029449 15.419178)scale(0.11 -0.11)">
     <defs>
      <path id="CMMI12-76" d="M 2925 2389 
C 2925 2791 2720 2816 2669 2816 
C 2515 2816 2374 2663 2374 2535 
C 2374 2459 2419 2414 2445 2389 
C 2509 2331 2675 2159 2675 1827 
C 2675 1558 2291 64 1523 64 
C 1133 64 1056 390 1056 626 
C 1056 945 1203 1392 1376 1852 
C 1478 2114 1504 2178 1504 2305 
C 1504 2574 1312 2816 998 2816 
C 410 2816 173 1890 173 1839 
C 173 1814 198 1782 243 1782 
C 301 1782 307 1807 333 1897 
C 486 2446 736 2689 979 2689 
C 1037 2689 1146 2689 1146 2478 
C 1146 2312 1075 2127 979 1884 
C 672 1067 672 869 672 715 
C 672 575 691 313 890 134 
C 1120 -64 1440 -64 1498 -64 
C 2560 -64 2925 2024 2925 2389 
z
" transform="scale(0.015625)"/>
     </defs>
     <use xlink:href="#CMR17-64" transform="scale(0.996264)"/>
     <use xlink:href="#CMMI12-76" transform="translate(50.89537 0)scale(0.996264)"/>
     <use xlink:href="#CMMI12-3d" transform="translate(101.630543 0)scale(0.996264)"/>
     <use xlink:href="#CMR17-64" transform="translate(150.405462 0)scale(0.996264)"/>
     <use xlink:href="#CMMI12-74" transform="translate(201.300832 0)scale(0.996264)"/>
    </g>
   </g>
  </g>
  <g id="axes_3">
   <g id="patch_8">
    <path d="M 257.780219 75.779178 
L 315.174505 75.779178 
L 315.174505 21.419178 
L 257.780219 21.419178 
z
" style="fill: #ffffff"/>
   </g>
   <g id="matplotlib.axis_5">
    <g id="xtick_5">
     <g id="line2d_33">
      <g>
       <use xlink:href="#m8962e334fe" x="260.38905" y="75.779178" style="stroke: #000000; stroke-width: 0.8"/>
      </g>
     </g>
     <g id="text_15">
      <!-- $\mathdefault{0}$ -->
      <g transform="translate(257.649317 90.389525)scale(0.11 -0.11)">
       <use xlink:href="#CMR17-30" transform="scale(0.996264)"/>
      </g>
     </g>
    </g>
    <g id="xtick_6">
     <g id="line2d_34">
      <g>
       <use xlink:href="#m8962e334fe" x="295.196671" y="75.779178" style="stroke: #000000; stroke-width: 0.8"/>
      </g>
     </g>
     <g id="text_16">
      <!-- $\mathdefault{1000}$ -->
      <g transform="translate(284.237736 90.389525)scale(0.11 -0.11)">
       <use xlink:href="#CMR17-31" transform="scale(0.996264)"/>
       <use xlink:href="#CMR17-30" transform="translate(45.690477 0)scale(0.996264)"/>
       <use xlink:href="#CMR17-30" transform="translate(91.380954 0)scale(0.996264)"/>
       <use xlink:href="#CMR17-30" transform="translate(137.071431 0)scale(0.996264)"/>
      </g>
     </g>
    </g>
    <g id="text_17">
     <!-- time [ms] -->
     <g transform="translate(264.224658 104.739598)scale(0.11 -0.11)">
      <use xlink:href="#CMR17-74" transform="scale(0.996264)"/>
      <use xlink:href="#CMR17-69" transform="translate(35.280768 0)scale(0.996264)"/>
      <use xlink:href="#CMR17-6d" transform="translate(60.151826 0)scale(0.996264)"/>
      <use xlink:href="#CMR17-65" transform="translate(137.071416 0)scale(0.996264)"/>
      <use xlink:href="#CMR17-5b" transform="translate(207.633043 0)scale(0.996264)"/>
      <use xlink:href="#CMR17-6d" transform="translate(232.504101 0)scale(0.996264)"/>
      <use xlink:href="#CMR17-73" transform="translate(309.423691 0)scale(0.996264)"/>
      <use xlink:href="#CMR17-5d" transform="translate(345.225029 0)scale(0.996264)"/>
     </g>
    </g>
   </g>
   <g id="matplotlib.axis_6">
    <g id="ytick_7">
     <g id="line2d_35">
      <g>
       <use xlink:href="#mb200bce9ac" x="257.780219" y="73.309608" style="stroke: #000000; stroke-width: 0.8"/>
      </g>
     </g>
     <g id="text_18">
      <!-- $\mathdefault{0.0}$ -->
      <g transform="translate(236.777143 77.114781)scale(0.11 -0.11)">
       <use xlink:href="#CMR17-30" transform="scale(0.996264)"/>
       <use xlink:href="#CMMI12-3a" transform="translate(45.690477 0)scale(0.996264)"/>
       <use xlink:href="#CMR17-30" transform="translate(72.787654 0)scale(0.996264)"/>
      </g>
     </g>
    </g>
    <g id="ytick_8">
     <g id="line2d_36">
      <g>
       <use xlink:href="#mb200bce9ac" x="257.780219" y="23.890087" style="stroke: #000000; stroke-width: 0.8"/>
      </g>
     </g>
     <g id="text_19">
      <!-- $\mathdefault{0.5}$ -->
      <g transform="translate(236.777143 27.695261)scale(0.11 -0.11)">
       <use xlink:href="#CMR17-30" transform="scale(0.996264)"/>
       <use xlink:href="#CMMI12-3a" transform="translate(45.690477 0)scale(0.996264)"/>
       <use xlink:href="#CMR17-35" transform="translate(72.787654 0)scale(0.996264)"/>
      </g>
     </g>
    </g>
   </g>
   <g id="line2d_37">
    <path d="M 260.38905 23.890087 
L 260.667511 24.000551 
L 261.015587 24.405225 
L 261.537702 25.42169 
L 262.338277 27.552773 
L 265.749424 37.196523 
L 267.002498 39.834676 
L 268.220765 41.894332 
L 269.473839 43.583908 
L 270.796529 44.998889 
L 272.258449 46.234283 
L 273.894407 47.324607 
L 275.843634 48.350416 
L 278.24536 49.353042 
L 281.30843 50.380793 
L 285.346114 51.489289 
L 290.53245 52.673556 
L 296.902244 53.893153 
L 304.42069 55.099833 
L 312.565674 56.19834 
L 312.565674 56.19834 
" clip-path="url(#pc65a06fd32)" style="fill: none; stroke: #ffde00; stroke-opacity: 0.8; stroke-width: 1.5; stroke-linecap: square"/>
   </g>
   <g id="line2d_38">
    <path d="M 260.38905 23.890087 
L 260.667511 24.007961 
L 261.015587 24.441619 
L 261.502894 25.452026 
L 262.268662 27.64082 
L 266.515191 40.758366 
L 267.803073 43.619977 
L 269.090955 45.959378 
L 270.448453 47.97185 
L 271.910373 49.740986 
L 273.511523 51.3296 
L 275.32152 52.812324 
L 277.444784 54.259177 
L 279.950933 55.693178 
L 282.979196 57.162291 
L 286.564381 58.648589 
L 290.741295 60.135533 
L 295.50994 61.593806 
L 300.905121 63.006311 
L 306.926839 64.34847 
L 312.565674 65.425063 
L 312.565674 65.425063 
" clip-path="url(#pc65a06fd32)" style="fill: none; stroke: #ffc400; stroke-opacity: 0.8; stroke-width: 1.5; stroke-linecap: square"/>
   </g>
   <g id="line2d_39">
    <path d="M 260.38905 23.890087 
L 260.667511 24.015511 
L 261.015587 24.478843 
L 261.502894 25.565113 
L 262.233854 27.821703 
L 263.765389 33.492091 
L 265.610193 40.000178 
L 267.002498 44.10536 
L 268.325188 47.342789 
L 269.682685 50.091232 
L 271.109797 52.477634 
L 272.606525 54.552321 
L 274.242483 56.441812 
L 276.05248 58.190631 
L 278.071322 59.830002 
L 280.333817 61.380603 
L 282.909581 62.872497 
L 285.798613 64.284568 
L 289.035722 65.614138 
L 292.620907 66.842231 
L 296.588976 67.963794 
L 301.009544 68.97938 
L 305.987033 69.890054 
L 311.625868 70.690374 
L 312.565674 70.804072 
L 312.565674 70.804072 
" clip-path="url(#pc65a06fd32)" style="fill: none; stroke: #ffa700; stroke-opacity: 0.8; stroke-width: 1.5; stroke-linecap: square"/>
   </g>
   <g id="line2d_40">
    <path d="M 260.38905 23.890087 
L 260.632704 23.991384 
L 260.945972 24.385578 
L 261.398471 25.370966 
L 262.059816 27.428556 
L 263.208468 31.88067 
L 265.749424 41.801727 
L 267.176536 46.404521 
L 268.534033 50.050659 
L 269.891531 53.077079 
L 271.283836 55.654021 
L 272.745756 57.903086 
L 274.312099 59.907113 
L 275.982864 61.686718 
L 277.792861 63.293083 
L 279.776895 64.757511 
L 281.969775 66.097193 
L 284.406309 67.319361 
L 287.086495 68.411877 
L 290.079951 69.38961 
L 293.45629 70.255199 
L 297.319936 71.011076 
L 301.810119 71.656455 
L 307.135685 72.190725 
L 312.565674 72.557897 
L 312.565674 72.557897 
" clip-path="url(#pc65a06fd32)" style="fill: none; stroke: #ff8600; stroke-opacity: 0.8; stroke-width: 1.5; stroke-linecap: square"/>
   </g>
   <g id="line2d_41">
    <path d="M 260.38905 23.890087 
L 260.632704 23.994892 
L 260.945972 24.403573 
L 261.398471 25.428451 
L 262.059816 27.579068 
L 263.17366 32.120485 
L 265.923462 43.535371 
L 267.350574 48.411721 
L 268.708072 52.278313 
L 270.065569 55.482684 
L 271.423066 58.135213 
L 272.850178 60.441038 
L 274.346906 62.434312 
L 275.913249 64.151139 
L 277.584015 65.654298 
L 279.394011 66.982459 
L 281.378046 68.158014 
L 283.570926 69.192814 
L 286.007459 70.092592 
L 288.792069 70.877519 
L 291.99437 71.543383 
L 295.7884 72.098896 
L 300.452622 72.547747 
L 306.439532 72.888895 
L 312.565674 73.080395 
L 312.565674 73.080395 
" clip-path="url(#pc65a06fd32)" style="fill: none; stroke: #ff6800; stroke-opacity: 0.8; stroke-width: 1.5; stroke-linecap: square"/>
   </g>
   <g id="line2d_42">
    <path d="M 260.38905 23.890087 
L 260.632704 23.997574 
L 260.945972 24.417359 
L 261.398471 25.472619 
L 262.059816 27.695219 
L 263.138852 32.260537 
L 266.132308 45.230841 
L 267.55942 50.263168 
L 268.88211 54.146985 
L 270.204799 57.363998 
L 271.527489 60.017299 
L 272.884986 62.257242 
L 274.312099 64.183594 
L 275.774019 65.790865 
L 277.340362 67.185385 
L 279.011127 68.377584 
L 280.855931 69.417523 
L 282.909581 70.31297 
L 285.206884 71.068386 
L 287.887071 71.709566 
L 291.089372 72.238007 
L 295.05744 72.656476 
L 300.243776 72.967183 
L 307.727414 73.174576 
L 312.565674 73.235598 
L 312.565674 73.235598 
" clip-path="url(#pc65a06fd32)" style="fill: none; stroke: #ff4700; stroke-opacity: 0.8; stroke-width: 1.5; stroke-linecap: square"/>
   </g>
   <g id="line2d_43">
    <path d="M 260.38905 23.890087 
L 260.632704 23.999609 
L 260.945972 24.427834 
L 261.398471 25.50625 
L 262.025008 27.648546 
L 263.034429 32.000282 
L 266.375961 46.91047 
L 267.768266 51.88294 
L 269.090955 55.803609 
L 270.378837 58.950883 
L 271.666719 61.535291 
L 272.989409 63.702718 
L 274.346906 65.507599 
L 275.774019 67.035094 
L 277.270746 68.312001 
L 278.871897 69.387736 
L 280.647085 70.30872 
L 282.63112 71.082128 
L 284.928423 71.730379 
L 287.643417 72.256578 
L 290.984949 72.669338 
L 295.405517 72.977644 
L 301.810119 73.181254 
L 312.565674 73.283544 
L 312.565674 73.283544 
" clip-path="url(#pc65a06fd32)" style="fill: none; stroke: #ff2900; stroke-opacity: 0.8; stroke-width: 1.5; stroke-linecap: square"/>
   </g>
   <g id="line2d_44">
    <path d="M 260.38905 23.890087 
L 260.632704 24.001144 
L 260.945972 24.435741 
L 261.398471 25.531682 
L 262.025008 27.713188 
L 263.034429 32.158673 
L 266.480384 47.905885 
L 267.837881 52.844887 
L 269.125763 56.736174 
L 270.413645 59.932822 
L 271.666719 62.47159 
L 272.954601 64.590477 
L 274.277291 66.341739 
L 275.634788 67.77677 
L 277.061901 68.969296 
L 278.628243 69.985194 
L 280.333817 70.823297 
L 282.283044 71.525857 
L 284.545539 72.096465 
L 287.295341 72.550301 
L 290.810911 72.892499 
L 295.683978 73.127796 
L 303.654923 73.262862 
L 312.565674 73.299367 
L 312.565674 73.299367 
" clip-path="url(#pc65a06fd32)" style="fill: none; stroke: #f10800; stroke-opacity: 0.8; stroke-width: 1.5; stroke-linecap: square"/>
   </g>
   <g id="line2d_45">
    <path d="M 260.38905 23.890087 
L 260.632704 24.002296 
L 260.945972 24.441682 
L 261.398471 25.550814 
L 262.025008 27.761911 
L 263.034429 32.278438 
L 266.549999 48.635837 
L 267.907496 53.636443 
L 269.195378 57.559824 
L 270.448453 60.685671 
L 271.701527 63.225243 
L 272.954601 65.273932 
L 274.242483 66.959168 
L 275.565173 68.330824 
L 276.957478 69.461262 
L 278.489013 70.414506 
L 280.159779 71.189974 
L 282.074198 71.828664 
L 284.336693 72.341607 
L 287.121303 72.736977 
L 290.810911 73.024596 
L 296.310515 73.209167 
L 306.683186 73.295634 
L 312.565674 73.305049 
L 312.565674 73.305049 
" clip-path="url(#pc65a06fd32)" style="fill: none; stroke: #cd0000; stroke-opacity: 0.8; stroke-width: 1.5; stroke-linecap: square"/>
   </g>
   <g id="line2d_46">
    <path d="M 260.38905 23.890087 
L 260.632704 24.003158 
L 260.945972 24.446129 
L 261.398471 25.565151 
L 262.025008 27.798476 
L 263.034429 32.368534 
L 266.584807 49.12122 
L 267.942304 54.177247 
L 269.230186 58.130978 
L 270.48326 61.265847 
L 271.701527 63.733603 
L 272.919794 65.721396 
L 274.172868 67.353327 
L 275.46075 68.67705 
L 276.853055 69.787489 
L 278.349783 70.692147 
L 280.020548 71.434783 
L 281.934967 72.03369 
L 284.197463 72.502244 
L 287.051688 72.857943 
L 290.984949 73.107733 
L 297.180705 73.25328 
L 311.347407 73.306624 
L 312.565674 73.307292 
L 312.565674 73.307292 
" clip-path="url(#pc65a06fd32)" style="fill: none; stroke: #a40000; stroke-opacity: 0.8; stroke-width: 1.5; stroke-linecap: square"/>
   </g>
   <g id="line2d_47">
    <path d="M 260.38905 23.890087 
L 260.632704 24.003801 
L 260.945972 24.44945 
L 261.398471 25.575863 
L 262.025008 27.825826 
L 262.999622 32.265407 
L 266.68923 49.808211 
L 268.011919 54.732047 
L 269.264994 58.582716 
L 270.48326 61.638431 
L 271.701527 64.108111 
L 272.919794 66.085608 
L 274.172868 67.697511 
L 275.46075 68.994051 
L 276.818247 70.047567 
L 278.280167 70.903429 
L 279.916125 71.603106 
L 281.830545 72.172036 
L 284.127848 72.613249 
L 287.086495 72.941494 
L 291.228602 73.160003 
L 298.259742 73.277642 
L 312.565674 73.308269 
L 312.565674 73.308269 
" clip-path="url(#pc65a06fd32)" style="fill: none; stroke: #800000; stroke-opacity: 0.8; stroke-width: 1.5; stroke-linecap: square"/>
   </g>
   <g id="patch_9">
    <path d="M 257.780219 75.779178 
L 257.780219 21.419178 
" style="fill: none; stroke: #000000; stroke-width: 0.8; stroke-linejoin: miter; stroke-linecap: square"/>
   </g>
   <g id="patch_10">
    <path d="M 257.780219 75.779178 
L 315.174505 75.779178 
" style="fill: none; stroke: #000000; stroke-width: 0.8; stroke-linejoin: miter; stroke-linecap: square"/>
   </g>
   <g id="text_20">
    <!-- $\mathrm{d} y / \mathrm{d}t$ -->
    <g transform="translate(272.787564 15.419178)scale(0.11 -0.11)">
     <defs>
      <path id="CMMI12-79" d="M 1683 -700 
C 1510 -939 1261 -1152 947 -1152 
C 870 -1152 563 -1152 467 -889 
C 486 -895 518 -895 531 -895 
C 723 -895 851 -729 851 -582 
C 851 -435 730 -384 634 -384 
C 531 -384 307 -458 307 -759 
C 307 -1071 582 -1286 947 -1286 
C 1587 -1286 2234 -700 2413 6 
L 3040 2485 
C 3046 2517 3059 2556 3059 2594 
C 3059 2689 2982 2753 2886 2753 
C 2829 2753 2694 2727 2643 2535 
L 2170 658 
C 2138 543 2138 530 2086 460 
C 1958 281 1747 64 1440 64 
C 1082 64 1050 415 1050 588 
C 1050 952 1222 1443 1395 1903 
C 1466 2088 1504 2178 1504 2305 
C 1504 2574 1312 2816 998 2816 
C 410 2816 173 1890 173 1839 
C 173 1814 198 1782 243 1782 
C 301 1782 307 1807 333 1897 
C 486 2433 730 2689 979 2689 
C 1037 2689 1146 2689 1146 2478 
C 1146 2312 1075 2127 979 1884 
C 666 1047 666 837 666 683 
C 666 77 1101 -64 1421 -64 
C 1606 -64 1837 -6 2061 230 
L 2067 224 
C 1971 -147 1907 -392 1683 -700 
z
" transform="scale(0.015625)"/>
     </defs>
     <use xlink:href="#CMR17-64" transform="scale(0.996264)"/>
     <use xlink:href="#CMMI12-79" transform="translate(50.89537 0)scale(0.996264)"/>
     <use xlink:href="#CMMI12-3d" transform="translate(102.034151 0)scale(0.996264)"/>
     <use xlink:href="#CMR17-64" transform="translate(150.809069 0)scale(0.996264)"/>
     <use xlink:href="#CMMI12-74" transform="translate(201.704439 0)scale(0.996264)"/>
    </g>
   </g>
  </g>
  <g id="axes_4">
   <g id="patch_11">
    <path d="M 372.568791 75.779178 
L 429.963076 75.779178 
L 429.963076 21.419178 
L 372.568791 21.419178 
z
" style="fill: #ffffff"/>
   </g>
   <g id="matplotlib.axis_7">
    <g id="xtick_7">
     <g id="line2d_48">
      <g>
       <use xlink:href="#m8962e334fe" x="375.177622" y="75.779178" style="stroke: #000000; stroke-width: 0.8"/>
      </g>
     </g>
     <g id="text_21">
      <!-- $\mathdefault{0}$ -->
      <g transform="translate(372.437888 90.389525)scale(0.11 -0.11)">
       <use xlink:href="#CMR17-30" transform="scale(0.996264)"/>
      </g>
     </g>
    </g>
    <g id="xtick_8">
     <g id="line2d_49">
      <g>
       <use xlink:href="#m8962e334fe" x="409.985242" y="75.779178" style="stroke: #000000; stroke-width: 0.8"/>
      </g>
     </g>
     <g id="text_22">
      <!-- $\mathdefault{1000}$ -->
      <g transform="translate(399.026308 90.389525)scale(0.11 -0.11)">
       <use xlink:href="#CMR17-31" transform="scale(0.996264)"/>
       <use xlink:href="#CMR17-30" transform="translate(45.690477 0)scale(0.996264)"/>
       <use xlink:href="#CMR17-30" transform="translate(91.380954 0)scale(0.996264)"/>
       <use xlink:href="#CMR17-30" transform="translate(137.071431 0)scale(0.996264)"/>
      </g>
     </g>
    </g>
    <g id="text_23">
     <!-- time [ms] -->
     <g transform="translate(379.01323 104.739598)scale(0.11 -0.11)">
      <use xlink:href="#CMR17-74" transform="scale(0.996264)"/>
      <use xlink:href="#CMR17-69" transform="translate(35.280768 0)scale(0.996264)"/>
      <use xlink:href="#CMR17-6d" transform="translate(60.151826 0)scale(0.996264)"/>
      <use xlink:href="#CMR17-65" transform="translate(137.071416 0)scale(0.996264)"/>
      <use xlink:href="#CMR17-5b" transform="translate(207.633043 0)scale(0.996264)"/>
      <use xlink:href="#CMR17-6d" transform="translate(232.504101 0)scale(0.996264)"/>
      <use xlink:href="#CMR17-73" transform="translate(309.423691 0)scale(0.996264)"/>
      <use xlink:href="#CMR17-5d" transform="translate(345.225029 0)scale(0.996264)"/>
     </g>
    </g>
   </g>
   <g id="matplotlib.axis_8">
    <g id="ytick_9">
     <g id="line2d_50">
      <g>
       <use xlink:href="#mb200bce9ac" x="372.568791" y="51.597016" style="stroke: #000000; stroke-width: 0.8"/>
      </g>
     </g>
     <g id="text_24">
      <!-- $\mathdefault{0.001}$ -->
      <g transform="translate(332.083171 55.402189)scale(0.11 -0.11)">
       <defs>
        <path id="CMSY10-0" d="M 4218 1472 
C 4326 1472 4442 1472 4442 1600 
C 4442 1728 4326 1728 4218 1728 
L 755 1728 
C 646 1728 531 1728 531 1600 
C 531 1472 646 1472 755 1472 
L 4218 1472 
z
" transform="scale(0.015625)"/>
       </defs>
       <use xlink:href="#CMSY10-0" transform="scale(0.996264)"/>
       <use xlink:href="#CMR17-30" transform="translate(77.487468 0)scale(0.996264)"/>
       <use xlink:href="#CMMI12-3a" transform="translate(123.177945 0)scale(0.996264)"/>
       <use xlink:href="#CMR17-30" transform="translate(150.275122 0)scale(0.996264)"/>
       <use xlink:href="#CMR17-30" transform="translate(195.965599 0)scale(0.996264)"/>
       <use xlink:href="#CMR17-31" transform="translate(241.656076 0)scale(0.996264)"/>
      </g>
     </g>
    </g>
    <g id="ytick_10">
     <g id="line2d_51">
      <g>
       <use xlink:href="#mb200bce9ac" x="372.568791" y="23.887168" style="stroke: #000000; stroke-width: 0.8"/>
      </g>
     </g>
     <g id="text_25">
      <!-- $\mathdefault{0.000}$ -->
      <g transform="translate(340.60678 27.692341)scale(0.11 -0.11)">
       <use xlink:href="#CMR17-30" transform="scale(0.996264)"/>
       <use xlink:href="#CMMI12-3a" transform="translate(45.690477 0)scale(0.996264)"/>
       <use xlink:href="#CMR17-30" transform="translate(72.787654 0)scale(0.996264)"/>
       <use xlink:href="#CMR17-30" transform="translate(118.478131 0)scale(0.996264)"/>
       <use xlink:href="#CMR17-30" transform="translate(164.168608 0)scale(0.996264)"/>
      </g>
     </g>
    </g>
   </g>
   <g id="line2d_52">
    <path d="M 375.177622 24.39949 
L 375.316852 27.817895 
L 375.908582 40.579471 
L 376.430696 47.535039 
L 376.918003 51.334125 
L 377.335694 53.051709 
L 377.68377 53.666163 
L 377.927424 53.751166 
L 378.171077 53.607533 
L 378.519153 53.087126 
L 379.041268 51.80676 
L 379.87665 49.062538 
L 382.591645 39.788641 
L 383.775104 36.683872 
L 384.888948 34.361239 
L 386.002792 32.540483 
L 387.116636 31.128979 
L 388.300095 29.980967 
L 389.587977 29.043557 
L 391.015089 28.281258 
L 392.685855 27.644775 
L 394.739505 27.107689 
L 397.454499 26.641481 
L 401.318145 26.22214 
L 407.374671 25.810568 
L 417.120805 25.390075 
L 427.354245 25.096909 
L 427.354245 25.096909 
" clip-path="url(#p61aad70691)" style="fill: none; stroke: #ffde00; stroke-width: 1.5; stroke-linecap: square"/>
   </g>
   <g id="line2d_53">
    <path d="M 375.177622 24.43262 
L 375.316852 28.078989 
L 375.908582 41.846423 
L 376.465504 49.936186 
L 376.95281 54.135874 
L 377.370502 56.137574 
L 377.718578 56.946945 
L 377.997039 57.154046 
L 378.240692 57.076675 
L 378.553961 56.692606 
L 379.00646 55.712428 
L 379.702612 53.584846 
L 383.670681 40.418547 
L 384.819333 37.770164 
L 385.967984 35.666065 
L 387.116636 34.01102 
L 388.334902 32.643126 
L 389.622784 31.528297 
L 391.049897 30.586183 
L 392.685855 29.775176 
L 394.635082 29.061782 
L 397.071615 28.414409 
L 400.273916 27.804517 
L 404.659676 27.207908 
L 410.785818 26.611571 
L 419.139647 26.033249 
L 427.354245 25.619778 
L 427.354245 25.619778 
" clip-path="url(#p61aad70691)" style="fill: none; stroke: #ffc400; stroke-width: 1.5; stroke-linecap: square"/>
   </g>
   <g id="line2d_54">
    <path d="M 375.177622 24.466294 
L 375.316852 28.344858 
L 375.908582 43.149163 
L 376.465504 52.067592 
L 376.987618 57.123497 
L 377.440117 59.570981 
L 377.823001 60.582501 
L 378.101462 60.842661 
L 378.345115 60.80559 
L 378.623576 60.515911 
L 379.041268 59.696537 
L 379.667805 57.879501 
L 380.816456 53.707776 
L 382.835298 46.47843 
L 384.12318 42.716064 
L 385.341447 39.835509 
L 386.524906 37.589173 
L 387.743173 35.741128 
L 389.031055 34.189997 
L 390.42336 32.866901 
L 391.954895 31.724469 
L 393.695276 30.710399 
L 395.714118 29.795541 
L 398.150651 28.940446 
L 401.178914 28.122099 
L 404.972945 27.337825 
L 409.671974 26.602065 
L 415.450039 25.930123 
L 422.481178 25.343346 
L 427.354245 25.042523 
L 427.354245 25.042523 
" clip-path="url(#p61aad70691)" style="fill: none; stroke: #ffa700; stroke-width: 1.5; stroke-linecap: square"/>
   </g>
   <g id="line2d_55">
    <path d="M 375.177622 24.492616 
L 375.316852 28.553042 
L 375.943389 44.908389 
L 376.500311 54.230854 
L 377.022426 59.626956 
L 377.474925 62.325998 
L 377.857808 63.513939 
L 378.171077 63.900863 
L 378.41473 63.907887 
L 378.693191 63.658172 
L 379.076075 62.958007 
L 379.632997 61.41195 
L 380.572803 58.02383 
L 383.427028 47.396155 
L 384.71491 43.591874 
L 385.967984 40.56496 
L 387.221058 38.110224 
L 388.50894 36.071572 
L 389.866438 34.340029 
L 391.29355 32.874022 
L 392.859893 31.579576 
L 394.635082 30.406414 
L 396.653924 29.347058 
L 398.986034 28.382721 
L 401.701029 27.507246 
L 404.90333 26.714717 
L 408.69736 26.011378 
L 413.222351 25.404918 
L 418.721955 24.899224 
L 425.648672 24.495915 
L 427.354245 24.425064 
L 427.354245 24.425064 
" clip-path="url(#p61aad70691)" style="fill: none; stroke: #ff8600; stroke-width: 1.5; stroke-linecap: square"/>
   </g>
   <g id="line2d_56">
    <path d="M 375.177622 24.512922 
L 375.316852 28.713873 
L 375.943389 45.74438 
L 376.535119 56.073277 
L 377.057233 61.700908 
L 377.54454 64.734834 
L 377.927424 65.968107 
L 378.240692 66.38681 
L 378.484346 66.413524 
L 378.762807 66.179732 
L 379.14569 65.488709 
L 379.702612 63.928111 
L 380.572803 60.72294 
L 384.018757 47.397109 
L 385.341447 43.435901 
L 386.629329 40.267776 
L 387.917211 37.67953 
L 389.2399 35.513723 
L 390.632205 33.662441 
L 392.094125 32.088296 
L 393.660468 30.726118 
L 395.366042 29.534714 
L 397.280461 28.471578 
L 399.438533 27.533037 
L 401.909874 26.707584 
L 404.764099 25.994426 
L 408.140438 25.386203 
L 412.247738 24.881185 
L 417.399266 24.482496 
L 424.256367 24.188602 
L 427.354245 24.10926 
L 427.354245 24.10926 
" clip-path="url(#p61aad70691)" style="fill: none; stroke: #ff6800; stroke-width: 1.5; stroke-linecap: square"/>
   </g>
   <g id="line2d_57">
    <path d="M 375.177622 24.528431 
L 375.316852 28.836842 
L 375.943389 46.387282 
L 376.535119 57.150678 
L 377.057233 63.107523 
L 377.54454 66.396695 
L 377.962231 67.876547 
L 378.2755 68.349165 
L 378.519153 68.409348 
L 378.762807 68.244105 
L 379.110883 67.685785 
L 379.59819 66.415706 
L 380.32915 63.814197 
L 381.860685 57.314377 
L 383.705489 49.828215 
L 385.097794 45.089172 
L 386.420483 41.363737 
L 387.708365 38.383128 
L 388.996247 35.939341 
L 390.318937 33.887256 
L 391.711242 32.130761 
L 393.173162 30.640669 
L 394.739505 29.360661 
L 396.445078 28.256266 
L 398.324689 27.307032 
L 400.447954 26.489032 
L 402.884488 25.794584 
L 405.77352 25.211243 
L 409.28909 24.738833 
L 413.744465 24.375303 
L 419.835799 24.115762 
L 427.354245 23.977113 
L 427.354245 23.977113 
" clip-path="url(#p61aad70691)" style="fill: none; stroke: #ff4700; stroke-width: 1.5; stroke-linecap: square"/>
   </g>
   <g id="line2d_58">
    <path d="M 375.177622 24.540185 
L 375.316852 28.930123 
L 375.943389 46.877144 
L 376.535119 57.975558 
L 377.092041 64.505248 
L 377.579348 67.858159 
L 377.997039 69.386562 
L 378.345115 69.91516 
L 378.588769 69.957581 
L 378.832422 69.774542 
L 379.180498 69.18888 
L 379.667805 67.873585 
L 380.398765 65.183592 
L 381.860685 58.732316 
L 383.844719 50.252853 
L 385.237024 45.2484 
L 386.559714 41.296648 
L 387.847596 38.129389 
L 389.135478 35.535909 
L 390.458167 33.368174 
L 391.815664 31.569399 
L 393.207969 30.085461 
L 394.704697 28.81461 
L 396.305847 27.747339 
L 398.081036 26.836256 
L 400.06507 26.073204 
L 402.362373 25.435147 
L 405.077368 24.918309 
L 408.453707 24.510363 
L 412.909082 24.208404 
L 419.418108 24.009412 
L 427.354245 23.924955 
L 427.354245 23.924955 
" clip-path="url(#p61aad70691)" style="fill: none; stroke: #ff2900; stroke-width: 1.5; stroke-linecap: square"/>
   </g>
   <g id="line2d_59">
    <path d="M 375.177622 24.549043 
L 375.316852 29.000461 
L 375.943389 47.247779 
L 376.535119 58.601985 
L 377.092041 65.341558 
L 377.579348 68.848606 
L 377.997039 70.484516 
L 378.345115 71.084325 
L 378.588769 71.166476 
L 378.832422 71.014853 
L 379.14569 70.531178 
L 379.59819 69.37731 
L 380.259534 67.012477 
L 381.408186 61.92196 
L 384.053565 50.053431 
L 385.44587 44.8891 
L 386.768559 40.813821 
L 388.056441 37.555286 
L 389.309516 34.964148 
L 390.597398 32.799985 
L 391.920087 31.010515 
L 393.277584 29.543786 
L 394.704697 28.324723 
L 396.236232 27.30633 
L 397.941806 26.444365 
L 399.856225 25.732694 
L 402.083912 25.149787 
L 404.764099 24.686871 
L 408.175246 24.334351 
L 412.874275 24.087955 
L 420.357913 23.943262 
L 427.354245 23.904247 
L 427.354245 23.904247 
" clip-path="url(#p61aad70691)" style="fill: none; stroke: #f10800; stroke-width: 1.5; stroke-linecap: square"/>
   </g>
   <g id="line2d_60">
    <path d="M 375.177622 24.55569 
L 375.316852 29.053262 
L 375.943389 47.526717 
L 376.535119 59.074765 
L 377.092041 65.974511 
L 377.579348 69.599988 
L 377.997039 71.318958 
L 378.345115 71.973992 
L 378.623576 72.082691 
L 378.867229 71.924048 
L 379.180498 71.428626 
L 379.632997 70.251039 
L 380.294342 67.835222 
L 381.408186 62.7793 
L 384.227603 49.745445 
L 385.619908 44.461104 
L 386.90779 40.400693 
L 388.160864 37.150829 
L 389.413939 34.501244 
L 390.667013 32.35772 
L 391.954895 30.590241 
L 393.277584 29.148649 
L 394.669889 27.958396 
L 396.166617 26.972911 
L 397.802575 26.163267 
L 399.647379 25.499791 
L 401.840259 24.956125 
L 404.520446 24.532695 
L 408.001208 24.221733 
L 413.013505 24.016628 
L 421.854641 23.911301 
L 427.354245 23.89567 
L 427.354245 23.89567 
" clip-path="url(#p61aad70691)" style="fill: none; stroke: #cd0000; stroke-width: 1.5; stroke-linecap: square"/>
   </g>
   <g id="line2d_61">
    <path d="M 375.177622 24.560662 
L 375.316852 29.092764 
L 375.943389 47.735805 
L 376.535119 59.429914 
L 377.092041 66.451001 
L 377.579348 70.166668 
L 377.997039 71.949169 
L 378.345115 72.646579 
L 378.623576 72.781982 
L 378.867229 72.641389 
L 379.180498 72.161911 
L 379.632997 70.993319 
L 380.294342 68.562963 
L 381.373378 63.592417 
L 384.401641 49.27395 
L 385.793946 43.925535 
L 387.081828 39.8316 
L 388.334902 36.57029 
L 389.553169 33.993175 
L 390.771436 31.910569 
L 392.02451 30.195925 
L 393.312392 28.801554 
L 394.669889 27.654807 
L 396.131809 26.710535 
L 397.73296 25.940718 
L 399.577764 25.306513 
L 401.735836 24.805871 
L 404.416023 24.420552 
L 408.001208 24.143702 
L 413.396389 23.971808 
L 424.117136 23.896373 
L 427.354245 23.891885 
L 427.354245 23.891885 
" clip-path="url(#p61aad70691)" style="fill: none; stroke: #a40000; stroke-width: 1.5; stroke-linecap: square"/>
   </g>
   <g id="line2d_62">
    <path d="M 375.177622 24.564371 
L 375.316852 29.122242 
L 375.943389 47.892064 
L 376.535119 59.695759 
L 377.092041 66.808257 
L 377.579348 70.592139 
L 378.031847 72.525713 
L 378.379923 73.191275 
L 378.658384 73.304243 
L 378.902037 73.145428 
L 379.215306 72.643562 
L 379.667805 71.443061 
L 380.32915 68.96368 
L 381.408186 63.901719 
L 384.506064 48.991427 
L 385.863561 43.699666 
L 387.151443 39.545372 
L 388.36971 36.330249 
L 389.587977 33.720835 
L 390.806243 31.623929 
L 392.02451 29.95163 
L 393.312392 28.559226 
L 394.635082 27.450214 
L 396.062194 26.53897 
L 397.663345 25.784917 
L 399.473341 25.18283 
L 401.631413 24.705876 
L 404.346408 24.344371 
L 408.036016 24.092825 
L 413.848888 23.944865 
L 426.936554 23.890363 
L 427.354245 23.890087 
L 427.354245 23.890087 
" clip-path="url(#p61aad70691)" style="fill: none; stroke: #800000; stroke-width: 1.5; stroke-linecap: square"/>
   </g>
   <g id="patch_12">
    <path d="M 372.568791 75.779178 
L 372.568791 21.419178 
" style="fill: none; stroke: #000000; stroke-width: 0.8; stroke-linejoin: miter; stroke-linecap: square"/>
   </g>
   <g id="patch_13">
    <path d="M 372.568791 75.779178 
L 429.963076 75.779178 
" style="fill: none; stroke: #000000; stroke-width: 0.8; stroke-linejoin: miter; stroke-linecap: square"/>
   </g>
   <g id="text_26">
    <!-- gradient $y$ -->
    <g transform="translate(377.103004 15.419178)scale(0.11 -0.11)">
     <defs>
      <path id="CMR17-67" d="M 710 1164 
C 832 1068 1043 960 1299 960 
C 1805 960 2240 1357 2240 1888 
C 2240 2054 2189 2310 1997 2509 
C 2176 2692 2438 2752 2586 2752 
C 2611 2752 2650 2752 2682 2734 
C 2656 2728 2598 2703 2598 2605 
C 2598 2527 2656 2471 2739 2471 
C 2835 2471 2886 2533 2886 2614 
C 2886 2731 2790 2854 2586 2854 
C 2330 2854 2106 2738 1926 2580 
C 1734 2753 1504 2816 1299 2816 
C 794 2816 358 2419 358 1888 
C 358 1522 570 1292 634 1228 
C 442 1004 442 743 442 711 
C 442 545 506 302 723 168 
C 390 85 128 -169 128 -486 
C 128 -943 736 -1280 1466 -1280 
C 2170 -1280 2803 -956 2803 -479 
C 2803 384 1856 384 1363 384 
C 1216 384 954 384 922 391 
C 723 423 589 602 589 826 
C 589 883 589 1024 710 1164 
z
M 1299 1068 
C 736 1068 736 1760 736 1889 
C 736 2016 736 2708 1299 2708 
C 1862 2708 1862 2016 1862 1889 
C 1862 1760 1862 1068 1299 1068 
z
M 1466 -1171 
C 826 -1171 384 -835 384 -486 
C 384 -289 493 -105 634 -4 
C 794 104 858 104 1293 104 
C 1818 104 2547 104 2547 -486 
C 2547 -835 2106 -1171 1466 -1171 
z
" transform="scale(0.015625)"/>
      <path id="CMR17-72" d="M 960 1497 
C 960 2112 1222 2688 1702 2688 
C 1747 2688 1792 2682 1837 2662 
C 1837 2662 1696 2617 1696 2452 
C 1696 2298 1818 2234 1914 2234 
C 1990 2234 2131 2279 2131 2458 
C 2131 2663 1926 2790 1709 2790 
C 1222 2790 1011 2317 947 2093 
L 941 2093 
L 941 2790 
L 198 2720 
L 198 2554 
C 576 2554 634 2515 634 2208 
L 634 428 
C 634 184 608 153 198 153 
L 198 -13 
C 352 0 646 0 813 0 
C 998 0 1325 0 1498 -13 
L 1498 153 
C 1037 153 960 153 960 440 
L 960 1497 
z
" transform="scale(0.015625)"/>
      <path id="CMR17-61" d="M 2304 1653 
C 2304 2072 2304 2294 2035 2543 
C 1798 2752 1523 2816 1306 2816 
C 800 2816 435 2407 435 1971 
C 435 1728 627 1728 666 1728 
C 749 1728 896 1778 896 1954 
C 896 2112 774 2181 666 2181 
C 640 2181 608 2174 589 2168 
C 723 2592 1069 2714 1293 2714 
C 1613 2714 1965 2429 1965 1885 
L 1965 1600 
C 1587 1600 1133 1549 774 1357 
C 371 1133 256 813 256 570 
C 256 77 832 -64 1171 -64 
C 1523 -64 1850 139 1990 511 
C 2003 233 2182 -18 2464 -18 
C 2598 -18 2938 70 2938 567 
L 2938 920 
L 2822 920 
L 2822 562 
C 2822 178 2650 128 2566 128 
C 2304 128 2304 458 2304 738 
L 2304 1653 
z
M 1965 870 
C 1965 317 1568 38 1216 38 
C 896 38 646 275 646 570 
C 646 761 730 1100 1101 1305 
C 1408 1478 1760 1504 1965 1504 
L 1965 870 
z
" transform="scale(0.015625)"/>
      <path id="CMR17-6e" d="M 2656 1933 
C 2656 2259 2592 2790 1837 2790 
C 1331 2790 1069 2400 973 2144 
L 966 2144 
L 966 2790 
L 211 2720 
L 211 2554 
C 589 2554 646 2515 646 2208 
L 646 428 
C 646 184 621 153 211 153 
L 211 -13 
C 365 0 646 0 813 0 
C 979 0 1267 0 1421 -13 
L 1421 153 
C 1011 153 986 178 986 428 
L 986 1658 
C 986 2247 1344 2688 1792 2688 
C 2266 2688 2317 2266 2317 1958 
L 2317 428 
C 2317 184 2291 153 1882 153 
L 1882 -13 
C 2035 0 2317 0 2483 0 
C 2650 0 2938 0 3091 -13 
L 3091 153 
C 2682 153 2656 178 2656 428 
L 2656 1933 
z
" transform="scale(0.015625)"/>
     </defs>
     <use xlink:href="#CMR17-67" transform="scale(0.996264)"/>
     <use xlink:href="#CMR17-72" transform="translate(45.690477 0)scale(0.996264)"/>
     <use xlink:href="#CMR17-61" transform="translate(80.971245 0)scale(0.996264)"/>
     <use xlink:href="#CMR17-64" transform="translate(126.661722 0)scale(0.996264)"/>
     <use xlink:href="#CMR17-69" transform="translate(177.557092 0)scale(0.996264)"/>
     <use xlink:href="#CMR17-65" transform="translate(202.42815 0)scale(0.996264)"/>
     <use xlink:href="#CMR17-6e" transform="translate(242.913811 0)scale(0.996264)"/>
     <use xlink:href="#CMR17-74" transform="translate(291.206727 0)scale(0.996264)"/>
     <use xlink:href="#CMMI12-79" transform="translate(356.563461 0)scale(0.996264)"/>
    </g>
   </g>
   <g id="legend_1">
    <g id="text_27">
     <!-- Input $I$ -->
     <g transform="translate(436.424104 19.939525)scale(0.11 -0.11)">
      <defs>
       <path id="CMR17-49" d="M 1261 3905 
C 1261 4192 1338 4192 1798 4192 
L 1798 4352 
C 1594 4352 1267 4352 1050 4352 
C 832 4352 506 4352 301 4352 
L 301 4192 
C 762 4192 838 4192 838 3905 
L 838 447 
C 838 160 762 160 301 160 
L 301 0 
C 506 0 832 0 1050 0 
C 1267 0 1594 0 1798 0 
L 1798 160 
C 1338 160 1261 160 1261 447 
L 1261 3905 
z
" transform="scale(0.015625)"/>
       <path id="CMR17-70" d="M 1408 -1063 
C 998 -1063 973 -1037 973 -789 
L 973 402 
C 1158 134 1427 -38 1766 -38 
C 2406 -38 3053 523 3053 1388 
C 3053 2191 2496 2802 1837 2802 
C 1453 2802 1139 2592 960 2338 
L 960 2802 
L 198 2732 
L 198 2567 
C 576 2567 634 2528 634 2223 
L 634 -789 
C 634 -1031 608 -1063 198 -1063 
L 198 -1228 
C 352 -1216 634 -1216 800 -1216 
C 966 -1216 1254 -1216 1408 -1228 
L 1408 -1063 
z
M 973 2012 
C 973 2102 973 2235 1222 2471 
C 1254 2497 1472 2688 1792 2688 
C 2259 2688 2643 2108 2643 1382 
C 2643 656 2234 64 1728 64 
C 1498 64 1248 172 1056 472 
C 973 612 973 650 973 752 
L 973 2012 
z
" transform="scale(0.015625)"/>
       <path id="CMR17-75" d="M 1882 2693 
L 1882 2528 
C 2259 2528 2317 2489 2317 2186 
L 2317 1032 
C 2317 500 2029 38 1555 38 
C 1030 38 986 348 986 678 
L 986 2763 
L 211 2693 
L 211 2528 
C 467 2528 640 2528 646 2274 
L 646 1058 
C 646 633 646 361 813 183 
C 896 101 1056 -64 1517 -64 
C 2061 -64 2272 377 2323 506 
L 2330 506 
L 2330 -63 
L 3091 -63 
L 3091 128 
C 2714 128 2656 166 2656 473 
L 2656 2763 
L 1882 2693 
z
" transform="scale(0.015625)"/>
       <path id="CMMI12-49" d="M 2355 3880 
C 2413 4103 2426 4167 2893 4167 
C 3034 4167 3085 4167 3085 4288 
C 3085 4352 3014 4352 2995 4352 
C 2880 4352 2739 4352 2624 4352 
L 1837 4352 
C 1709 4352 1562 4352 1434 4352 
C 1382 4352 1312 4352 1312 4231 
C 1312 4167 1363 4167 1491 4167 
C 1888 4167 1888 4116 1888 4046 
C 1888 4002 1875 3963 1862 3906 
L 998 472 
C 941 249 928 185 461 185 
C 320 185 262 185 262 64 
C 262 0 326 0 358 0 
C 474 0 614 0 730 0 
L 1517 0 
C 1645 0 1786 0 1914 0 
C 1965 0 2042 0 2042 115 
C 2042 185 2003 185 1862 185 
C 1466 185 1466 236 1466 312 
C 1466 325 1466 357 1491 459 
L 2355 3880 
z
" transform="scale(0.015625)"/>
      </defs>
      <use xlink:href="#CMR17-49" transform="scale(0.996264)"/>
      <use xlink:href="#CMR17-6e" transform="translate(32.638409 0)scale(0.996264)"/>
      <use xlink:href="#CMR17-70" transform="translate(83.533779 0)scale(0.996264)"/>
      <use xlink:href="#CMR17-75" transform="translate(134.429149 0)scale(0.996264)"/>
      <use xlink:href="#CMR17-74" transform="translate(185.324519 0)scale(0.996264)"/>
      <use xlink:href="#CMMI12-49" transform="translate(250.681253 0)scale(0.996264)"/>
     </g>
    </g>
    <g id="line2d_63">
     <path d="M 440.81293 26.320419 
L 445.81293 26.320419 
L 450.81293 26.320419 
" style="fill: none; stroke: #ffde00; stroke-width: 1.5; stroke-linecap: square"/>
    </g>
    <g id="text_28">
     <!-- 1.01 -->
     <g transform="translate(454.81293 28.070419)scale(0.05 -0.05)">
      <defs>
       <path id="CMR17-2e" d="M 1062 261 
C 1062 420 934 522 800 522 
C 672 522 538 420 538 261 
C 538 102 666 0 800 0 
C 928 0 1062 102 1062 261 
z
" transform="scale(0.015625)"/>
      </defs>
      <use xlink:href="#CMR17-31" transform="scale(0.996264)"/>
      <use xlink:href="#CMR17-2e" transform="translate(45.690477 0)scale(0.996264)"/>
      <use xlink:href="#CMR17-30" transform="translate(70.561536 0)scale(0.996264)"/>
      <use xlink:href="#CMR17-31" transform="translate(116.252013 0)scale(0.996264)"/>
     </g>
    </g>
    <g id="line2d_64">
     <path d="M 440.81293 33.289001 
L 445.81293 33.289001 
L 450.81293 33.289001 
" style="fill: none; stroke: #ffc400; stroke-width: 1.5; stroke-linecap: square"/>
    </g>
    <g id="text_29">
     <!-- 1.05 -->
     <g transform="translate(454.81293 35.039001)scale(0.05 -0.05)">
      <use xlink:href="#CMR17-31" transform="scale(0.996264)"/>
      <use xlink:href="#CMR17-2e" transform="translate(45.690477 0)scale(0.996264)"/>
      <use xlink:href="#CMR17-30" transform="translate(70.561536 0)scale(0.996264)"/>
      <use xlink:href="#CMR17-35" transform="translate(116.252013 0)scale(0.996264)"/>
     </g>
    </g>
    <g id="line2d_65">
     <path d="M 440.81293 40.257583 
L 445.81293 40.257583 
L 450.81293 40.257583 
" style="fill: none; stroke: #ffa700; stroke-width: 1.5; stroke-linecap: square"/>
    </g>
    <g id="text_30">
     <!-- 1.1 -->
     <g transform="translate(454.81293 42.007583)scale(0.05 -0.05)">
      <use xlink:href="#CMR17-31" transform="scale(0.996264)"/>
      <use xlink:href="#CMR17-2e" transform="translate(45.690477 0)scale(0.996264)"/>
      <use xlink:href="#CMR17-31" transform="translate(70.561536 0)scale(0.996264)"/>
     </g>
    </g>
    <g id="line2d_66">
     <path d="M 440.81293 47.226164 
L 445.81293 47.226164 
L 450.81293 47.226164 
" style="fill: none; stroke: #ff8600; stroke-width: 1.5; stroke-linecap: square"/>
    </g>
    <g id="text_31">
     <!-- 1.15 -->
     <g transform="translate(454.81293 48.976164)scale(0.05 -0.05)">
      <use xlink:href="#CMR17-31" transform="scale(0.996264)"/>
      <use xlink:href="#CMR17-2e" transform="translate(45.690477 0)scale(0.996264)"/>
      <use xlink:href="#CMR17-31" transform="translate(70.561536 0)scale(0.996264)"/>
      <use xlink:href="#CMR17-35" transform="translate(116.252013 0)scale(0.996264)"/>
     </g>
    </g>
    <g id="line2d_67">
     <path d="M 440.81293 54.194746 
L 445.81293 54.194746 
L 450.81293 54.194746 
" style="fill: none; stroke: #ff6800; stroke-width: 1.5; stroke-linecap: square"/>
    </g>
    <g id="text_32">
     <!-- 1.2 -->
     <g transform="translate(454.81293 55.944746)scale(0.05 -0.05)">
      <use xlink:href="#CMR17-31" transform="scale(0.996264)"/>
      <use xlink:href="#CMR17-2e" transform="translate(45.690477 0)scale(0.996264)"/>
      <use xlink:href="#CMR17-32" transform="translate(70.561536 0)scale(0.996264)"/>
     </g>
    </g>
    <g id="line2d_68">
     <path d="M 440.81293 61.163327 
L 445.81293 61.163327 
L 450.81293 61.163327 
" style="fill: none; stroke: #ff4700; stroke-width: 1.5; stroke-linecap: square"/>
    </g>
    <g id="text_33">
     <!-- 1.25 -->
     <g transform="translate(454.81293 62.913327)scale(0.05 -0.05)">
      <use xlink:href="#CMR17-31" transform="scale(0.996264)"/>
      <use xlink:href="#CMR17-2e" transform="translate(45.690477 0)scale(0.996264)"/>
      <use xlink:href="#CMR17-32" transform="translate(70.561536 0)scale(0.996264)"/>
      <use xlink:href="#CMR17-35" transform="translate(116.252013 0)scale(0.996264)"/>
     </g>
    </g>
    <g id="line2d_69">
     <path d="M 440.81293 68.131909 
L 445.81293 68.131909 
L 450.81293 68.131909 
" style="fill: none; stroke: #ff2900; stroke-width: 1.5; stroke-linecap: square"/>
    </g>
    <g id="text_34">
     <!-- 1.3 -->
     <g transform="translate(454.81293 69.881909)scale(0.05 -0.05)">
      <defs>
       <path id="CMR17-33" d="M 1414 2157 
C 1984 2157 2234 1662 2234 1090 
C 2234 320 1824 25 1453 25 
C 1114 25 563 194 390 693 
C 422 680 454 680 486 680 
C 640 680 755 782 755 948 
C 755 1133 614 1216 486 1216 
C 378 1216 211 1165 211 926 
C 211 335 787 -128 1466 -128 
C 2176 -128 2720 430 2720 1085 
C 2720 1707 2208 2157 1600 2227 
C 2086 2328 2554 2756 2554 3329 
C 2554 3820 2048 4179 1472 4179 
C 890 4179 378 3829 378 3329 
C 378 3110 544 3072 627 3072 
C 762 3072 877 3155 877 3321 
C 877 3486 762 3569 627 3569 
C 602 3569 570 3569 544 3557 
C 730 3959 1235 4032 1459 4032 
C 1683 4032 2106 3925 2106 3320 
C 2106 3143 2080 2828 1862 2550 
C 1670 2304 1453 2304 1242 2284 
C 1210 2284 1062 2269 1037 2269 
C 992 2263 966 2257 966 2208 
C 966 2163 973 2157 1101 2157 
L 1414 2157 
z
" transform="scale(0.015625)"/>
      </defs>
      <use xlink:href="#CMR17-31" transform="scale(0.996264)"/>
      <use xlink:href="#CMR17-2e" transform="translate(45.690477 0)scale(0.996264)"/>
      <use xlink:href="#CMR17-33" transform="translate(70.561536 0)scale(0.996264)"/>
     </g>
    </g>
    <g id="line2d_70">
     <path d="M 440.81293 75.10049 
L 445.81293 75.10049 
L 450.81293 75.10049 
" style="fill: none; stroke: #f10800; stroke-width: 1.5; stroke-linecap: square"/>
    </g>
    <g id="text_35">
     <!-- 1.35 -->
     <g transform="translate(454.81293 76.85049)scale(0.05 -0.05)">
      <use xlink:href="#CMR17-31" transform="scale(0.996264)"/>
      <use xlink:href="#CMR17-2e" transform="translate(45.690477 0)scale(0.996264)"/>
      <use xlink:href="#CMR17-33" transform="translate(70.561536 0)scale(0.996264)"/>
      <use xlink:href="#CMR17-35" transform="translate(116.252013 0)scale(0.996264)"/>
     </g>
    </g>
    <g id="line2d_71">
     <path d="M 440.81293 82.069072 
L 445.81293 82.069072 
L 450.81293 82.069072 
" style="fill: none; stroke: #cd0000; stroke-width: 1.5; stroke-linecap: square"/>
    </g>
    <g id="text_36">
     <!-- 1.4 -->
     <g transform="translate(454.81293 83.819072)scale(0.05 -0.05)">
      <defs>
       <path id="CMR17-34" d="M 2150 4122 
C 2150 4256 2144 4256 2029 4256 
L 128 1254 
L 128 1088 
L 1779 1088 
L 1779 457 
C 1779 224 1766 160 1318 160 
L 1197 160 
L 1197 0 
C 1402 0 1747 0 1965 0 
C 2182 0 2528 0 2733 0 
L 2733 160 
L 2611 160 
C 2163 160 2150 224 2150 457 
L 2150 1088 
L 2803 1088 
L 2803 1254 
L 2150 1254 
L 2150 4122 
z
M 1798 3703 
L 1798 1254 
L 256 1254 
L 1798 3703 
z
" transform="scale(0.015625)"/>
      </defs>
      <use xlink:href="#CMR17-31" transform="scale(0.996264)"/>
      <use xlink:href="#CMR17-2e" transform="translate(45.690477 0)scale(0.996264)"/>
      <use xlink:href="#CMR17-34" transform="translate(70.561536 0)scale(0.996264)"/>
     </g>
    </g>
    <g id="line2d_72">
     <path d="M 440.81293 89.037654 
L 445.81293 89.037654 
L 450.81293 89.037654 
" style="fill: none; stroke: #a40000; stroke-width: 1.5; stroke-linecap: square"/>
    </g>
    <g id="text_37">
     <!-- 1.45 -->
     <g transform="translate(454.81293 90.787654)scale(0.05 -0.05)">
      <use xlink:href="#CMR17-31" transform="scale(0.996264)"/>
      <use xlink:href="#CMR17-2e" transform="translate(45.690477 0)scale(0.996264)"/>
      <use xlink:href="#CMR17-34" transform="translate(70.561536 0)scale(0.996264)"/>
      <use xlink:href="#CMR17-35" transform="translate(116.252013 0)scale(0.996264)"/>
     </g>
    </g>
    <g id="line2d_73">
     <path d="M 440.81293 96.006235 
L 445.81293 96.006235 
L 450.81293 96.006235 
" style="fill: none; stroke: #800000; stroke-width: 1.5; stroke-linecap: square"/>
    </g>
    <g id="text_38">
     <!-- 1.5 -->
     <g transform="translate(454.81293 97.756235)scale(0.05 -0.05)">
      <use xlink:href="#CMR17-31" transform="scale(0.996264)"/>
      <use xlink:href="#CMR17-2e" transform="translate(45.690477 0)scale(0.996264)"/>
      <use xlink:href="#CMR17-35" transform="translate(70.561536 0)scale(0.996264)"/>
     </g>
    </g>
   </g>
  </g>
 </g>
 <defs>
  <clipPath id="p6b52fdf265">
   <rect x="28.203076" y="21.419178" width="57.394286" height="54.36"/>
  </clipPath>
  <clipPath id="p5826846140">
   <rect x="142.991648" y="21.419178" width="57.394286" height="54.36"/>
  </clipPath>
  <clipPath id="pc65a06fd32">
   <rect x="257.780219" y="21.419178" width="57.394286" height="54.36"/>
  </clipPath>
  <clipPath id="p61aad70691">
   <rect x="372.568791" y="21.419178" width="57.394286" height="54.36"/>
  </clipPath>
 </defs>
</svg>
