<?xml version="1.0" encoding="utf-8" standalone="no"?>
<!DOCTYPE svg PUBLIC "-//W3C//DTD SVG 1.1//EN"
  "http://www.w3.org/Graphics/SVG/1.1/DTD/svg11.dtd">
<svg xmlns:xlink="http://www.w3.org/1999/xlink" width="352.328213pt" height="101.094681pt" viewBox="0 0 352.328213 101.094681" xmlns="http://www.w3.org/2000/svg" version="1.1">
 <metadata>
  <rdf:RDF xmlns:dc="http://purl.org/dc/elements/1.1/" xmlns:cc="http://creativecommons.org/ns#" xmlns:rdf="http://www.w3.org/1999/02/22-rdf-syntax-ns#">
   <cc:Work>
    <dc:type rdf:resource="http://purl.org/dc/dcmitype/StillImage"/>
    <dc:date>2022-08-02T15:42:33.627439</dc:date>
    <dc:format>image/svg+xml</dc:format>
    <dc:creator>
     <cc:Agent>
      <dc:title>Matplotlib v3.5.1, https://matplotlib.org/</dc:title>
     </cc:Agent>
    </dc:creator>
   </cc:Work>
  </rdf:RDF>
 </metadata>
 <defs>
  <style type="text/css">*{stroke-linejoin: round; stroke-linecap: butt}</style>
 </defs>
 <g id="figure_1">
  <g id="patch_1">
   <path d="M 0 101.094681 
L 352.328213 101.094681 
L 352.328213 0 
L 0 0 
L 0 101.094681 
z
" style="fill: none"/>
  </g>
  <g id="axes_1">
   <g id="patch_2">
    <path d="M 28.257656 62.125306 
L 88.095188 62.125306 
L 88.095188 21.427656 
L 28.257656 21.427656 
z
" style="fill: #ffffff"/>
   </g>
   <g id="matplotlib.axis_1">
    <g id="xtick_1">
     <g id="line2d_1">
      <defs>
       <path id="m436aefb238" d="M 0 0 
L 0 3.5 
" style="stroke: #000000; stroke-width: 0.8"/>
      </defs>
      <g>
       <use xlink:href="#m436aefb238" x="30.977544" y="62.125306" style="stroke: #000000; stroke-width: 0.8"/>
      </g>
     </g>
     <g id="text_1">
      <!-- 0 -->
      <g transform="translate(28.227544 76.759994)scale(0.11 -0.11)">
       <defs>
        <path id="CMUSerif-Roman-30" d="M 250 2048 
Q 250 2989 486 3501 
Q 819 4262 1600 4262 
Q 1766 4262 1939 4217 
Q 2112 4173 2333 4000 
Q 2554 3827 2688 3546 
Q 2944 3002 2944 2048 
Q 2944 1114 2707 602 
Q 2362 -141 1594 -141 
Q 1306 -141 1014 6 
Q 723 154 538 506 
Q 250 1037 250 2048 
z
M 781 2125 
Q 781 1158 851 774 
Q 928 358 1142 179 
Q 1357 0 1594 0 
Q 1850 0 2064 192 
Q 2278 384 2342 800 
Q 2413 1210 2413 2125 
Q 2413 3014 2349 3373 
Q 2266 3789 2042 3955 
Q 1818 4122 1594 4122 
Q 1510 4122 1420 4096 
Q 1331 4070 1203 4000 
Q 1075 3930 976 3750 
Q 877 3571 832 3302 
Q 781 2957 781 2125 
z
" transform="scale(0.015625)"/>
       </defs>
       <use xlink:href="#CMUSerif-Roman-30"/>
      </g>
     </g>
    </g>
    <g id="xtick_2">
     <g id="line2d_2">
      <g>
       <use xlink:href="#m436aefb238" x="85.402513" y="62.125306" style="stroke: #000000; stroke-width: 0.8"/>
      </g>
     </g>
     <g id="text_2">
      <!-- 2000 -->
      <g transform="translate(74.402513 76.759994)scale(0.11 -0.11)">
       <defs>
        <path id="CMUSerif-Roman-32" d="M 320 0 
Q 320 115 329 150 
Q 339 186 390 237 
L 1619 1606 
Q 2291 2362 2291 3021 
Q 2291 3450 2067 3757 
Q 1843 4064 1434 4064 
Q 1152 4064 915 3891 
Q 678 3718 570 3411 
Q 589 3418 653 3418 
Q 813 3418 902 3318 
Q 992 3219 992 3085 
Q 992 2912 880 2829 
Q 768 2746 659 2746 
Q 614 2746 556 2755 
Q 499 2765 409 2854 
Q 320 2944 320 3104 
Q 320 3552 659 3907 
Q 998 4262 1517 4262 
Q 2106 4262 2490 3913 
Q 2874 3565 2874 3021 
Q 2874 2829 2816 2656 
Q 2758 2483 2681 2348 
Q 2605 2214 2400 2000 
Q 2195 1786 2028 1632 
Q 1862 1478 1491 1152 
L 813 493 
L 1965 493 
Q 2528 493 2573 544 
Q 2637 634 2714 1114 
L 2874 1114 
L 2694 0 
L 320 0 
z
" transform="scale(0.015625)"/>
       </defs>
       <use xlink:href="#CMUSerif-Roman-32"/>
       <use xlink:href="#CMUSerif-Roman-30" x="49.999985"/>
       <use xlink:href="#CMUSerif-Roman-30" x="99.999969"/>
       <use xlink:href="#CMUSerif-Roman-30" x="149.999954"/>
      </g>
     </g>
    </g>
    <g id="text_3">
     <!-- time [ms] -->
     <g transform="translate(35.857594 91.144681)scale(0.11 -0.11)">
      <defs>
       <path id="CMUSerif-Roman-74" d="M 122 2560 
L 122 2701 
Q 416 2714 611 2922 
Q 806 3130 873 3386 
Q 941 3642 947 3936 
L 1107 3936 
L 1107 2758 
L 2022 2758 
L 2022 2560 
L 1107 2560 
L 1107 781 
Q 1107 90 1536 90 
Q 1722 90 1843 278 
Q 1965 467 1965 806 
L 1965 1158 
L 2125 1158 
L 2125 794 
Q 2125 448 1965 189 
Q 1805 -70 1491 -70 
Q 1376 -70 1261 -41 
Q 1146 -13 998 64 
Q 851 141 758 329 
Q 666 518 666 794 
L 666 2560 
L 122 2560 
z
" transform="scale(0.015625)"/>
       <path id="CMUSerif-Roman-69" d="M 211 0 
L 211 198 
Q 550 198 630 240 
Q 710 282 710 486 
L 710 2208 
Q 710 2445 630 2502 
Q 550 2560 237 2560 
L 237 2758 
L 1133 2829 
L 1133 480 
Q 1133 288 1200 243 
Q 1267 198 1581 198 
L 1581 0 
Q 928 19 915 19 
Q 826 19 211 0 
z
M 480 3942 
Q 480 4070 579 4176 
Q 678 4282 819 4282 
Q 960 4282 1059 4186 
Q 1158 4090 1158 3942 
Q 1158 3795 1059 3699 
Q 960 3603 819 3603 
Q 672 3603 576 3705 
Q 480 3808 480 3942 
z
" transform="scale(0.015625)"/>
       <path id="CMUSerif-Roman-6d" d="M 205 0 
L 205 198 
Q 544 198 624 240 
Q 704 282 704 486 
L 704 2202 
Q 704 2438 621 2499 
Q 538 2560 205 2560 
L 205 2758 
L 1107 2829 
L 1107 2157 
Q 1408 2829 2054 2829 
Q 2803 2829 2906 2202 
Q 3014 2445 3244 2637 
Q 3475 2829 3834 2829 
Q 4314 2829 4506 2592 
Q 4646 2432 4675 2253 
Q 4704 2074 4704 1613 
L 4704 390 
Q 4710 256 4812 227 
Q 4915 198 5203 198 
L 5203 0 
Q 4550 19 4486 19 
Q 4435 19 3763 0 
L 3763 198 
Q 4102 198 4182 240 
Q 4262 282 4262 486 
L 4262 1978 
Q 4262 2304 4163 2496 
Q 4064 2688 3789 2688 
Q 3456 2688 3190 2409 
Q 2925 2131 2925 1664 
L 2925 486 
Q 2925 282 3005 240 
Q 3085 198 3424 198 
L 3424 0 
Q 2771 19 2707 19 
Q 2656 19 1984 0 
L 1984 198 
Q 2323 198 2403 240 
Q 2483 282 2483 486 
L 2483 1978 
Q 2483 2304 2384 2496 
Q 2285 2688 2010 2688 
Q 1677 2688 1411 2409 
Q 1146 2131 1146 1664 
L 1146 486 
Q 1146 282 1226 240 
Q 1306 198 1645 198 
L 1645 0 
Q 992 19 928 19 
Q 877 19 205 0 
z
" transform="scale(0.015625)"/>
       <path id="CMUSerif-Roman-65" d="M 179 1408 
Q 179 2010 566 2438 
Q 954 2867 1510 2867 
Q 2074 2867 2365 2502 
Q 2656 2138 2656 1613 
Q 2656 1517 2630 1497 
Q 2605 1478 2496 1478 
L 710 1478 
Q 710 826 902 518 
Q 1171 90 1626 90 
Q 1690 90 1763 102 
Q 1837 115 1990 169 
Q 2144 224 2278 371 
Q 2413 518 2490 749 
Q 2509 838 2573 838 
Q 2656 838 2656 762 
Q 2656 704 2595 579 
Q 2534 454 2419 304 
Q 2304 154 2080 42 
Q 1856 -70 1587 -70 
Q 1024 -70 601 355 
Q 179 781 179 1408 
z
M 717 1613 
L 2234 1613 
Q 2234 1747 2211 1897 
Q 2189 2048 2121 2256 
Q 2054 2464 1897 2595 
Q 1741 2726 1510 2726 
Q 1408 2726 1296 2681 
Q 1184 2637 1049 2531 
Q 915 2426 822 2186 
Q 730 1946 717 1613 
z
" transform="scale(0.015625)"/>
       <path id="CMUSerif-Roman-20" transform="scale(0.015625)"/>
       <path id="CMUSerif-Roman-5b" d="M 666 -1600 
L 666 4800 
L 1632 4800 
L 1632 4653 
L 1094 4653 
L 1094 -1453 
L 1632 -1453 
L 1632 -1600 
L 666 -1600 
z
" transform="scale(0.015625)"/>
       <path id="CMUSerif-Roman-73" d="M 211 83 
L 211 928 
Q 211 998 214 1024 
Q 218 1050 237 1069 
Q 256 1088 294 1088 
Q 339 1088 355 1069 
Q 371 1050 384 979 
Q 480 538 688 304 
Q 896 70 1274 70 
Q 1632 70 1814 230 
Q 1997 390 1997 653 
Q 1997 1120 1331 1242 
Q 947 1318 787 1369 
Q 627 1421 486 1536 
Q 211 1760 211 2080 
Q 211 2400 454 2633 
Q 698 2867 1235 2867 
Q 1594 2867 1837 2688 
Q 1907 2746 1946 2790 
Q 2029 2867 2074 2867 
Q 2125 2867 2134 2835 
Q 2144 2803 2144 2714 
L 2144 2067 
Q 2144 1997 2141 1971 
Q 2138 1946 2118 1930 
Q 2099 1914 2061 1914 
Q 1990 1914 1984 1971 
Q 1933 2746 1235 2746 
Q 858 2746 688 2602 
Q 518 2458 518 2259 
Q 518 2150 569 2067 
Q 621 1984 688 1936 
Q 755 1888 880 1843 
Q 1005 1798 1081 1782 
Q 1158 1766 1306 1734 
Q 1818 1638 2035 1427 
Q 2304 1158 2304 819 
Q 2304 442 2048 186 
Q 1792 -70 1274 -70 
Q 858 -70 570 205 
Q 531 166 502 134 
Q 474 102 464 89 
Q 454 77 451 70 
Q 448 64 442 58 
Q 314 -70 282 -70 
Q 230 -70 220 -38 
Q 211 -6 211 83 
z
" transform="scale(0.015625)"/>
       <path id="CMUSerif-Roman-5d" d="M 134 -1453 
L 672 -1453 
L 672 4653 
L 134 4653 
L 134 4800 
L 1101 4800 
L 1101 -1600 
L 134 -1600 
L 134 -1453 
z
" transform="scale(0.015625)"/>
      </defs>
      <use xlink:href="#CMUSerif-Roman-74"/>
      <use xlink:href="#CMUSerif-Roman-69" x="38.799988"/>
      <use xlink:href="#CMUSerif-Roman-6d" x="66.499985"/>
      <use xlink:href="#CMUSerif-Roman-65" x="149.799973"/>
      <use xlink:href="#CMUSerif-Roman-20" x="194.199966"/>
      <use xlink:href="#CMUSerif-Roman-5b" x="227.499954"/>
      <use xlink:href="#CMUSerif-Roman-6d" x="255.299942"/>
      <use xlink:href="#CMUSerif-Roman-73" x="338.59993"/>
      <use xlink:href="#CMUSerif-Roman-5d" x="377.999924"/>
     </g>
    </g>
   </g>
   <g id="matplotlib.axis_2">
    <g id="ytick_1">
     <g id="line2d_3">
      <defs>
       <path id="mdaddae8717" d="M 0 0 
L -3.5 0 
" style="stroke: #000000; stroke-width: 0.8"/>
      </defs>
      <g>
       <use xlink:href="#mdaddae8717" x="28.257656" y="60.275413" style="stroke: #000000; stroke-width: 0.8"/>
      </g>
     </g>
     <g id="text_4">
      <!-- 0.7 -->
      <g transform="translate(7.2 64.092757)scale(0.11 -0.11)">
       <defs>
        <path id="CMUSerif-Roman-2e" d="M 640 102 
Q 544 205 544 339 
Q 544 474 640 573 
Q 736 672 883 672 
Q 1024 672 1120 579 
Q 1216 486 1216 339 
Q 1216 192 1113 96 
Q 1011 0 883 0 
Q 736 0 640 102 
z
" transform="scale(0.015625)"/>
        <path id="CMUSerif-Roman-37" d="M 358 3008 
L 570 4326 
L 730 4326 
Q 749 4250 781 4214 
Q 813 4179 995 4150 
Q 1178 4122 1549 4122 
L 3104 4122 
Q 3104 3974 3046 3898 
L 2182 2682 
Q 1907 2298 1786 1587 
Q 1715 1114 1715 538 
L 1715 211 
Q 1715 -141 1420 -141 
Q 1126 -141 1126 211 
Q 1126 1434 1914 2618 
Q 1997 2739 2307 3174 
Q 2618 3610 2630 3629 
L 1306 3629 
Q 723 3629 678 3590 
Q 614 3533 518 3008 
L 358 3008 
z
" transform="scale(0.015625)"/>
       </defs>
       <use xlink:href="#CMUSerif-Roman-30"/>
       <use xlink:href="#CMUSerif-Roman-2e" x="49.999985"/>
       <use xlink:href="#CMUSerif-Roman-37" x="77.799973"/>
      </g>
     </g>
    </g>
    <g id="ytick_2">
     <g id="line2d_4">
      <g>
       <use xlink:href="#mdaddae8717" x="28.257656" y="46.31934" style="stroke: #000000; stroke-width: 0.8"/>
      </g>
     </g>
     <g id="text_5">
      <!-- 0.8 -->
      <g transform="translate(7.2 50.136683)scale(0.11 -0.11)">
       <defs>
        <path id="CMUSerif-Roman-38" d="M 269 966 
Q 269 1683 1190 2144 
Q 794 2413 723 2490 
Q 442 2803 442 3194 
Q 442 3642 781 3952 
Q 1120 4262 1600 4262 
Q 2061 4262 2406 3996 
Q 2752 3731 2752 3309 
Q 2752 2714 1978 2317 
Q 2490 1997 2611 1862 
Q 2925 1517 2925 1075 
Q 2925 563 2531 211 
Q 2138 -141 1594 -141 
Q 1062 -141 665 169 
Q 269 480 269 966 
z
M 589 966 
Q 589 570 886 304 
Q 1184 38 1600 38 
Q 2003 38 2304 268 
Q 2605 499 2605 845 
Q 2605 979 2560 1094 
Q 2515 1210 2425 1302 
Q 2336 1395 2281 1436 
Q 2227 1478 2125 1549 
L 1338 2048 
Q 589 1632 589 966 
z
M 723 3443 
Q 723 3136 1043 2925 
L 1837 2413 
Q 2470 2784 2470 3309 
Q 2470 3648 2211 3875 
Q 1952 4102 1594 4102 
Q 1242 4102 982 3916 
Q 723 3731 723 3443 
z
" transform="scale(0.015625)"/>
       </defs>
       <use xlink:href="#CMUSerif-Roman-30"/>
       <use xlink:href="#CMUSerif-Roman-2e" x="49.999985"/>
       <use xlink:href="#CMUSerif-Roman-38" x="77.799973"/>
      </g>
     </g>
    </g>
    <g id="ytick_3">
     <g id="line2d_5">
      <g>
       <use xlink:href="#mdaddae8717" x="28.257656" y="32.363266" style="stroke: #000000; stroke-width: 0.8"/>
      </g>
     </g>
     <g id="text_6">
      <!-- 0.9 -->
      <g transform="translate(7.2 36.18061)scale(0.11 -0.11)">
       <defs>
        <path id="CMUSerif-Roman-39" d="M 269 2822 
Q 269 3162 368 3395 
Q 467 3629 678 3859 
Q 1062 4262 1619 4262 
Q 1856 4262 2067 4163 
Q 2278 4064 2480 3837 
Q 2682 3610 2803 3165 
Q 2925 2720 2925 2106 
Q 2925 1114 2445 486 
Q 1965 -141 1318 -141 
Q 909 -141 669 44 
Q 429 230 429 550 
Q 429 717 521 787 
Q 614 858 723 858 
Q 838 858 928 781 
Q 1018 704 1018 563 
Q 1018 448 944 358 
Q 870 269 685 269 
Q 870 38 1312 38 
Q 1472 38 1632 112 
Q 1792 186 1965 365 
Q 2138 544 2243 921 
Q 2349 1299 2349 1830 
L 2349 2035 
Q 2093 1395 1549 1395 
Q 1011 1395 640 1808 
Q 269 2221 269 2822 
z
M 845 2816 
Q 845 2182 960 1946 
Q 1158 1542 1555 1542 
Q 1946 1542 2141 1891 
Q 2336 2240 2336 2694 
Q 2336 3322 2234 3597 
Q 2042 4102 1619 4102 
Q 1197 4102 979 3699 
Q 845 3462 845 2816 
z
" transform="scale(0.015625)"/>
       </defs>
       <use xlink:href="#CMUSerif-Roman-30"/>
       <use xlink:href="#CMUSerif-Roman-2e" x="49.999985"/>
       <use xlink:href="#CMUSerif-Roman-39" x="77.799973"/>
      </g>
     </g>
    </g>
   </g>
   <g id="line2d_6">
    <path d="M 30.977544 60.275413 
L 31.739494 50.502561 
L 32.474231 43.805444 
L 33.154543 39.507304 
L 33.807642 36.7002 
L 34.43353 34.905649 
L 35.059417 33.738048 
L 35.685304 33.007732 
L 36.365616 32.548689 
L 37.127566 32.301632 
L 38.107215 32.228317 
L 39.549477 32.366098 
L 42.624487 32.941578 
L 49.454821 34.192762 
L 56.23073 35.187852 
L 64.312838 36.143033 
L 74.054907 37.063491 
L 85.375301 37.916413 
L 85.375301 37.916413 
" clip-path="url(#pcf51b79430)" style="fill: none; stroke: #ffde00; stroke-opacity: 0.8; stroke-width: 1.5; stroke-linecap: square"/>
   </g>
   <g id="line2d_7">
    <path d="M 30.977544 60.275413 
L 31.739494 50.416564 
L 32.474231 43.601724 
L 33.154543 39.19003 
L 33.807642 36.296078 
L 34.43353 34.452836 
L 35.059417 33.27377 
L 35.658091 32.589025 
L 36.283979 32.19532 
L 36.991503 32.016494 
L 37.862303 32.037866 
L 39.086864 32.308467 
L 41.427138 33.0992 
L 47.005697 34.98984 
L 51.604607 36.287371 
L 56.774979 37.51004 
L 62.625664 38.66066 
L 69.26551 39.734966 
L 76.776156 40.720626 
L 85.320876 41.613406 
L 85.375301 41.618438 
L 85.375301 41.618438 
" clip-path="url(#pcf51b79430)" style="fill: none; stroke: #ffc400; stroke-opacity: 0.8; stroke-width: 1.5; stroke-linecap: square"/>
   </g>
   <g id="line2d_8">
    <path d="M 30.977544 60.275413 
L 31.766706 50.029716 
L 32.501443 43.16925 
L 33.208968 38.530266 
L 33.862067 35.603436 
L 34.487955 33.734906 
L 35.086629 32.58908 
L 35.685304 31.901394 
L 36.283979 31.541301 
L 36.937078 31.407024 
L 37.72624 31.479268 
L 38.81474 31.818645 
L 40.774039 32.704447 
L 45.372948 34.799508 
L 48.665659 36.027526 
L 52.230494 37.115677 
L 56.149092 38.076207 
L 60.557515 38.923331 
L 65.564612 39.653991 
L 71.388084 40.272769 
L 78.35448 40.78113 
L 85.375301 41.119395 
L 85.375301 41.119395 
" clip-path="url(#pcf51b79430)" style="fill: none; stroke: #ffa700; stroke-opacity: 0.8; stroke-width: 1.5; stroke-linecap: square"/>
   </g>
   <g id="line2d_9">
    <path d="M 30.977544 60.275413 
L 31.766706 49.958919 
L 32.528656 42.767481 
L 33.23618 38.049292 
L 33.916492 34.927604 
L 34.54238 33.008132 
L 35.141054 31.820283 
L 35.739729 31.103707 
L 36.338404 30.729608 
L 36.964291 30.596754 
L 37.72624 30.672315 
L 38.760315 31.019273 
L 40.583551 31.909235 
L 44.474936 33.810724 
L 47.196185 34.868004 
L 50.107921 35.756968 
L 53.346206 36.509533 
L 57.074317 37.142782 
L 61.509952 37.662959 
L 66.979661 38.071126 
L 74.163757 38.37179 
L 84.640564 38.568525 
L 85.375301 38.576385 
L 85.375301 38.576385 
" clip-path="url(#pcf51b79430)" style="fill: none; stroke: #ff8600; stroke-opacity: 0.8; stroke-width: 1.5; stroke-linecap: square"/>
   </g>
   <g id="line2d_10">
    <path d="M 30.977544 60.275413 
L 31.766706 49.904253 
L 32.528656 42.612674 
L 33.263393 37.606573 
L 33.943705 34.385603 
L 34.596805 32.294674 
L 35.222692 30.995263 
L 35.821366 30.23555 
L 36.420041 29.822592 
L 37.045928 29.655874 
L 37.780665 29.694324 
L 38.760315 29.982488 
L 40.447489 30.750812 
L 44.148387 32.452894 
L 46.651935 33.32968 
L 49.345971 34.032006 
L 52.448194 34.603528 
L 56.176305 35.055837 
L 60.93849 35.398162 
L 67.551123 35.634049 
L 78.300055 35.768323 
L 85.375301 35.795728 
L 85.375301 35.795728 
" clip-path="url(#pcf51b79430)" style="fill: none; stroke: #ff6800; stroke-opacity: 0.8; stroke-width: 1.5; stroke-linecap: square"/>
   </g>
   <g id="line2d_11">
    <path d="M 30.977544 60.275413 
L 31.766706 49.862413 
L 32.555868 42.267263 
L 33.290605 37.203401 
L 33.99813 33.779845 
L 34.678442 31.541517 
L 35.304329 30.183621 
L 35.930216 29.331812 
L 36.528891 28.867734 
L 37.181991 28.641925 
L 37.94394 28.629595 
L 38.92359 28.852853 
L 40.583551 29.495854 
L 44.230024 30.922608 
L 46.70636 31.620827 
L 49.454821 32.156981 
L 52.774744 32.567687 
L 57.101529 32.865405 
L 63.414826 33.057495 
L 75.007344 33.151455 
L 85.375301 33.165762 
L 85.375301 33.165762 
" clip-path="url(#pcf51b79430)" style="fill: none; stroke: #ff4700; stroke-opacity: 0.8; stroke-width: 1.5; stroke-linecap: square"/>
   </g>
   <g id="line2d_12">
    <path d="M 30.977544 60.275413 
L 31.793919 49.524039 
L 32.583081 41.944763 
L 33.34503 36.680189 
L 34.052555 33.218238 
L 34.732867 30.905462 
L 35.385967 29.409618 
L 36.011854 28.481502 
L 36.637741 27.921388 
L 37.29084 27.621006 
L 38.05279 27.522194 
L 39.032439 27.639938 
L 40.583551 28.086016 
L 44.828699 29.378743 
L 47.46831 29.900316 
L 50.570533 30.278067 
L 54.679618 30.540568 
L 60.992915 30.698006 
L 74.435882 30.761207 
L 85.375301 30.765905 
L 85.375301 30.765905 
" clip-path="url(#pcf51b79430)" style="fill: none; stroke: #ff2900; stroke-opacity: 0.8; stroke-width: 1.5; stroke-linecap: square"/>
   </g>
   <g id="line2d_13">
    <path d="M 30.977544 60.275413 
L 31.793919 49.498756 
L 32.583081 41.864612 
L 33.34503 36.50921 
L 34.079767 32.816035 
L 34.787292 30.325515 
L 35.467604 28.690393 
L 36.120704 27.651581 
L 36.773803 26.999384 
L 37.454115 26.61761 
L 38.243277 26.436136 
L 39.222927 26.453556 
L 40.719614 26.731504 
L 46.080473 27.874221 
L 49.209909 28.228082 
L 53.373419 28.458044 
L 60.17654 28.581874 
L 78.626604 28.617954 
L 85.375301 28.618462 
L 85.375301 28.618462 
" clip-path="url(#pcf51b79430)" style="fill: none; stroke: #f10800; stroke-opacity: 0.8; stroke-width: 1.5; stroke-linecap: square"/>
   </g>
   <g id="line2d_14">
    <path d="M 30.977544 60.275413 
L 31.793919 49.479735 
L 32.583081 41.80306 
L 33.372243 36.211151 
L 34.134192 32.346533 
L 34.868929 29.723204 
L 35.576454 27.98017 
L 36.256766 26.850886 
L 36.964291 26.096407 
L 37.699028 25.637784 
L 38.515402 25.392475 
L 39.549477 25.328643 
L 41.073376 25.482299 
L 47.958134 26.396542 
L 52.230494 26.607345 
L 59.496228 26.709638 
L 84.939901 26.731115 
L 85.375301 26.731119 
L 85.375301 26.731119 
" clip-path="url(#pcf51b79430)" style="fill: none; stroke: #cd0000; stroke-opacity: 0.8; stroke-width: 1.5; stroke-linecap: square"/>
   </g>
   <g id="line2d_15">
    <path d="M 30.977544 60.275413 
L 31.793919 49.46548 
L 32.583081 41.7562 
L 33.372243 36.104285 
L 34.134192 32.153157 
L 34.868929 29.423775 
L 35.603666 27.505815 
L 36.311191 26.237715 
L 37.045928 25.364584 
L 37.807878 24.802167 
L 38.651465 24.458661 
L 39.685539 24.29008 
L 41.127801 24.300278 
L 44.556574 24.62656 
L 48.828934 24.92054 
L 54.489131 25.059229 
L 68.06816 25.101717 
L 85.375301 25.102913 
L 85.375301 25.102913 
" clip-path="url(#pcf51b79430)" style="fill: none; stroke: #a40000; stroke-opacity: 0.8; stroke-width: 1.5; stroke-linecap: square"/>
   </g>
   <g id="line2d_16">
    <path d="M 30.977544 60.275413 
L 31.793919 49.454828 
L 32.610293 41.493495 
L 33.399455 35.855946 
L 34.188617 31.761535 
L 34.950567 28.927055 
L 35.712516 26.924854 
L 36.447253 25.584837 
L 37.209203 24.645422 
L 37.998365 24.019147 
L 38.869165 23.609437 
L 39.930451 23.364679 
L 41.372713 23.277604 
L 44.066749 23.383895 
L 50.597745 23.646908 
L 59.686715 23.718312 
L 85.375301 23.724856 
L 85.375301 23.724856 
" clip-path="url(#pcf51b79430)" style="fill: none; stroke: #800000; stroke-opacity: 0.8; stroke-width: 1.5; stroke-linecap: square"/>
   </g>
   <g id="patch_3">
    <path d="M 28.257656 62.125306 
L 28.257656 21.427656 
" style="fill: none; stroke: #000000; stroke-width: 0.8; stroke-linejoin: miter; stroke-linecap: square"/>
   </g>
   <g id="patch_4">
    <path d="M 28.257656 62.125306 
L 88.095188 62.125306 
" style="fill: none; stroke: #000000; stroke-width: 0.8; stroke-linejoin: miter; stroke-linecap: square"/>
   </g>
   <g id="text_7">
    <!-- du/dt -->
    <g transform="translate(44.135094 15.427656)scale(0.11 -0.11)">
     <defs>
      <path id="CMUSerif-Roman-64" d="M 218 1376 
Q 218 1984 643 2406 
Q 1069 2829 1645 2829 
Q 2131 2829 2451 2432 
L 2451 3814 
Q 2451 4051 2368 4112 
Q 2285 4173 1952 4173 
L 1952 4371 
L 2874 4442 
L 2874 557 
Q 2874 320 2957 259 
Q 3040 198 3373 198 
L 3373 0 
L 2432 -70 
L 2432 352 
Q 2099 -70 1574 -70 
Q 1024 -70 621 352 
Q 218 774 218 1376 
z
M 749 1370 
Q 749 774 934 480 
Q 1190 70 1606 70 
Q 2080 70 2362 518 
Q 2432 627 2432 755 
L 2432 2067 
Q 2432 2195 2362 2304 
Q 2099 2688 1670 2688 
Q 1222 2688 947 2278 
Q 749 1971 749 1370 
z
" transform="scale(0.015625)"/>
      <path id="CMUSerif-Roman-75" d="M 205 2560 
L 205 2758 
L 1146 2829 
L 1146 704 
Q 1146 550 1158 460 
Q 1171 371 1222 268 
Q 1274 166 1395 118 
Q 1517 70 1709 70 
Q 2054 70 2268 355 
Q 2483 640 2483 1062 
L 2483 2202 
Q 2483 2438 2400 2499 
Q 2317 2560 1984 2560 
L 1984 2758 
L 2925 2829 
L 2925 557 
Q 2925 320 3008 259 
Q 3091 198 3424 198 
L 3424 0 
L 2502 -70 
L 2502 506 
Q 2234 -70 1677 -70 
Q 1395 -70 1203 0 
Q 1011 70 915 160 
Q 819 250 768 422 
Q 717 595 710 700 
Q 704 806 704 1011 
L 704 1971 
Q 704 2406 640 2483 
Q 576 2560 205 2560 
z
" transform="scale(0.015625)"/>
      <path id="CMUSerif-Roman-2f" d="M 365 -1510 
Q 365 -1478 390 -1408 
L 2650 4627 
Q 2650 4634 2666 4669 
Q 2682 4704 2691 4726 
Q 2701 4749 2720 4768 
Q 2739 4787 2765 4787 
Q 2829 4787 2829 4710 
Q 2829 4704 2810 4627 
L 544 -1414 
Q 506 -1523 483 -1555 
Q 461 -1587 422 -1587 
Q 365 -1587 365 -1510 
z
" transform="scale(0.015625)"/>
     </defs>
     <use xlink:href="#CMUSerif-Roman-64"/>
     <use xlink:href="#CMUSerif-Roman-75" x="55.499985"/>
     <use xlink:href="#CMUSerif-Roman-2f" x="110.999969"/>
     <use xlink:href="#CMUSerif-Roman-64" x="160.999954"/>
     <use xlink:href="#CMUSerif-Roman-74" x="216.499939"/>
    </g>
   </g>
  </g>
  <g id="axes_2">
   <g id="patch_5">
    <path d="M 134.089323 62.125306 
L 193.926855 62.125306 
L 193.926855 21.427656 
L 134.089323 21.427656 
z
" style="fill: #ffffff"/>
   </g>
   <g id="matplotlib.axis_3">
    <g id="xtick_3">
     <g id="line2d_17">
      <g>
       <use xlink:href="#m436aefb238" x="136.809211" y="62.125306" style="stroke: #000000; stroke-width: 0.8"/>
      </g>
     </g>
     <g id="text_8">
      <!-- 0 -->
      <g transform="translate(134.059211 76.759994)scale(0.11 -0.11)">
       <use xlink:href="#CMUSerif-Roman-30"/>
      </g>
     </g>
    </g>
    <g id="xtick_4">
     <g id="line2d_18">
      <g>
       <use xlink:href="#m436aefb238" x="191.23418" y="62.125306" style="stroke: #000000; stroke-width: 0.8"/>
      </g>
     </g>
     <g id="text_9">
      <!-- 2000 -->
      <g transform="translate(180.23418 76.759994)scale(0.11 -0.11)">
       <use xlink:href="#CMUSerif-Roman-32"/>
       <use xlink:href="#CMUSerif-Roman-30" x="49.999985"/>
       <use xlink:href="#CMUSerif-Roman-30" x="99.999969"/>
       <use xlink:href="#CMUSerif-Roman-30" x="149.999954"/>
      </g>
     </g>
    </g>
    <g id="text_10">
     <!-- time [ms] -->
     <g transform="translate(141.689261 91.144681)scale(0.11 -0.11)">
      <use xlink:href="#CMUSerif-Roman-74"/>
      <use xlink:href="#CMUSerif-Roman-69" x="38.799988"/>
      <use xlink:href="#CMUSerif-Roman-6d" x="66.499985"/>
      <use xlink:href="#CMUSerif-Roman-65" x="149.799973"/>
      <use xlink:href="#CMUSerif-Roman-20" x="194.199966"/>
      <use xlink:href="#CMUSerif-Roman-5b" x="227.499954"/>
      <use xlink:href="#CMUSerif-Roman-6d" x="255.299942"/>
      <use xlink:href="#CMUSerif-Roman-73" x="338.59993"/>
      <use xlink:href="#CMUSerif-Roman-5d" x="377.999924"/>
     </g>
    </g>
   </g>
   <g id="matplotlib.axis_4">
    <g id="ytick_4">
     <g id="line2d_19">
      <g>
       <use xlink:href="#mdaddae8717" x="134.089323" y="57.847404" style="stroke: #000000; stroke-width: 0.8"/>
      </g>
     </g>
     <g id="text_11">
      <!-- 0.25 -->
      <g transform="translate(107.531667 61.664748)scale(0.11 -0.11)">
       <defs>
        <path id="CMUSerif-Roman-35" d="M 320 1030 
Q 320 1222 422 1296 
Q 525 1370 634 1370 
Q 781 1370 867 1277 
Q 954 1184 954 1056 
Q 954 928 867 835 
Q 781 742 634 742 
Q 563 742 525 755 
Q 608 461 867 249 
Q 1126 38 1466 38 
Q 1894 38 2150 454 
Q 2304 723 2304 1331 
Q 2304 1869 2189 2138 
Q 2010 2547 1645 2547 
Q 1126 2547 819 2099 
Q 781 2042 736 2042 
Q 672 2042 659 2077 
Q 646 2112 646 2208 
L 646 4102 
Q 646 4256 710 4256 
Q 736 4256 787 4237 
Q 1190 4058 1638 4058 
Q 2099 4058 2509 4243 
Q 2541 4262 2560 4262 
Q 2624 4262 2624 4192 
Q 2624 4166 2573 4092 
Q 2522 4019 2413 3923 
Q 2304 3827 2163 3737 
Q 2022 3648 1817 3587 
Q 1613 3526 1389 3526 
Q 1120 3526 845 3610 
L 845 2362 
Q 1178 2688 1658 2688 
Q 2170 2688 2522 2275 
Q 2874 1862 2874 1286 
Q 2874 685 2458 272 
Q 2042 -141 1478 -141 
Q 966 -141 643 224 
Q 320 589 320 1030 
z
" transform="scale(0.015625)"/>
       </defs>
       <use xlink:href="#CMUSerif-Roman-30"/>
       <use xlink:href="#CMUSerif-Roman-2e" x="49.999985"/>
       <use xlink:href="#CMUSerif-Roman-32" x="77.799973"/>
       <use xlink:href="#CMUSerif-Roman-35" x="127.799957"/>
      </g>
     </g>
    </g>
    <g id="ytick_5">
     <g id="line2d_20">
      <g>
       <use xlink:href="#mdaddae8717" x="134.089323" y="45.707357" style="stroke: #000000; stroke-width: 0.8"/>
      </g>
     </g>
     <g id="text_12">
      <!-- 0.50 -->
      <g transform="translate(107.531667 49.524701)scale(0.11 -0.11)">
       <use xlink:href="#CMUSerif-Roman-30"/>
       <use xlink:href="#CMUSerif-Roman-2e" x="49.999985"/>
       <use xlink:href="#CMUSerif-Roman-35" x="77.799973"/>
       <use xlink:href="#CMUSerif-Roman-30" x="127.799957"/>
      </g>
     </g>
    </g>
    <g id="ytick_6">
     <g id="line2d_21">
      <g>
       <use xlink:href="#mdaddae8717" x="134.089323" y="33.567311" style="stroke: #000000; stroke-width: 0.8"/>
      </g>
     </g>
     <g id="text_13">
      <!-- 0.75 -->
      <g transform="translate(107.531667 37.384655)scale(0.11 -0.11)">
       <use xlink:href="#CMUSerif-Roman-30"/>
       <use xlink:href="#CMUSerif-Roman-2e" x="49.999985"/>
       <use xlink:href="#CMUSerif-Roman-37" x="77.799973"/>
       <use xlink:href="#CMUSerif-Roman-35" x="127.799957"/>
      </g>
     </g>
    </g>
   </g>
   <g id="line2d_22">
    <path d="M 136.809211 60.275413 
L 137.516735 53.187505 
L 138.197047 48.441468 
L 138.87736 45.190201 
L 139.530459 43.070833 
L 140.210771 41.581667 
L 140.918296 40.552585 
L 141.680245 39.824867 
L 142.578257 39.275107 
L 143.748394 38.834353 
L 145.462781 38.448513 
L 148.565004 38.013442 
L 154.687813 37.405566 
L 163.450233 36.764948 
L 174.906689 36.160994 
L 190.118468 35.593216 
L 191.206967 35.559508 
L 191.206967 35.559508 
" clip-path="url(#pb9cf985bd9)" style="fill: none; stroke: #ffde00; stroke-opacity: 0.8; stroke-width: 1.5; stroke-linecap: square"/>
   </g>
   <g id="line2d_23">
    <path d="M 136.809211 60.275413 
L 137.543948 52.617969 
L 138.251472 47.457615 
L 138.931785 44.012857 
L 139.612097 41.63539 
L 140.319621 39.948197 
L 141.054358 38.763075 
L 141.84352 37.90378 
L 142.768745 37.22894 
L 143.938882 36.663251 
L 145.598843 36.128 
L 148.265667 35.527402 
L 152.592452 34.797916 
L 158.415923 34.048148 
L 165.654444 33.348172 
L 174.634564 32.711172 
L 185.846108 32.147159 
L 191.206967 31.940747 
L 191.206967 31.940747 
" clip-path="url(#pb9cf985bd9)" style="fill: none; stroke: #ffc400; stroke-opacity: 0.8; stroke-width: 1.5; stroke-linecap: square"/>
   </g>
   <g id="line2d_24">
    <path d="M 136.809211 60.275413 
L 137.543948 52.263271 
L 138.278685 46.573957 
L 138.98621 42.733388 
L 139.693734 40.054102 
L 140.401259 38.190386 
L 141.135996 36.842974 
L 141.95237 35.806986 
L 142.877595 34.999288 
L 143.993307 34.327029 
L 145.489993 33.699454 
L 147.63978 33.057332 
L 150.769215 32.369365 
L 154.905513 31.696556 
L 159.994248 31.101525 
L 166.280331 30.598705 
L 174.253589 30.193866 
L 184.893671 29.889278 
L 191.206967 29.783122 
L 191.206967 29.783122 
" clip-path="url(#pb9cf985bd9)" style="fill: none; stroke: #ffa700; stroke-opacity: 0.8; stroke-width: 1.5; stroke-linecap: square"/>
   </g>
   <g id="line2d_25">
    <path d="M 136.809211 60.275413 
L 137.57116 51.723687 
L 138.305897 45.808683 
L 139.040634 41.606555 
L 139.775372 38.652834 
L 140.510109 36.582237 
L 141.272058 35.075943 
L 142.088433 33.944685 
L 143.013657 33.048645 
L 144.102157 32.313115 
L 145.489993 31.657751 
L 147.340442 31.042664 
L 149.898416 30.439368 
L 153.272764 29.881158 
L 157.572336 29.404424 
L 163.096471 29.026631 
L 170.607117 28.750317 
L 182.009148 28.574848 
L 191.206967 28.522095 
L 191.206967 28.522095 
" clip-path="url(#pb9cf985bd9)" style="fill: none; stroke: #ff8600; stroke-opacity: 0.8; stroke-width: 1.5; stroke-linecap: square"/>
   </g>
   <g id="line2d_26">
    <path d="M 136.809211 60.275413 
L 137.57116 51.49658 
L 138.33311 45.149227 
L 139.067847 40.758443 
L 139.802584 37.617712 
L 140.564534 35.308931 
L 141.326483 33.675863 
L 142.142858 32.436089 
L 143.04087 31.474745 
L 144.074944 30.698552 
L 145.326718 30.044298 
L 146.932255 29.46509 
L 149.082041 28.937135 
L 151.966565 28.468238 
L 155.803525 28.080184 
L 161.028322 27.788525 
L 168.811093 27.596962 
L 183.152072 27.502437 
L 191.206967 27.490753 
L 191.206967 27.490753 
" clip-path="url(#pb9cf985bd9)" style="fill: none; stroke: #ff6800; stroke-opacity: 0.8; stroke-width: 1.5; stroke-linecap: square"/>
   </g>
   <g id="line2d_27">
    <path d="M 136.809211 60.275413 
L 137.598373 51.050482 
L 138.360322 44.580856 
L 139.122272 39.905512 
L 139.884221 36.554364 
L 140.646171 34.160633 
L 141.435333 32.39516 
L 142.251708 31.097737 
L 143.14972 30.088864 
L 144.156582 29.297696 
L 145.353931 28.649063 
L 146.850618 28.102949 
L 148.809916 27.636644 
L 151.47674 27.243133 
L 155.20485 26.932211 
L 160.67456 26.716629 
L 170.090079 26.597779 
L 191.206967 26.564885 
L 191.206967 26.564885 
" clip-path="url(#pb9cf985bd9)" style="fill: none; stroke: #ff4700; stroke-opacity: 0.8; stroke-width: 1.5; stroke-linecap: square"/>
   </g>
   <g id="line2d_28">
    <path d="M 136.809211 60.275413 
L 137.598373 50.911976 
L 138.387535 44.088696 
L 139.149484 39.305921 
L 139.911434 35.837155 
L 140.673384 33.33032 
L 141.462546 31.462949 
L 142.27892 30.081818 
L 143.14972 29.034399 
L 144.129369 28.208612 
L 145.245081 27.562698 
L 146.605705 27.037049 
L 148.374517 26.603222 
L 150.796428 26.253555 
L 154.306838 25.989516 
L 159.858185 25.817713 
L 170.960879 25.738634 
L 191.206967 25.727951 
L 191.206967 25.727951 
" clip-path="url(#pb9cf985bd9)" style="fill: none; stroke: #ff2900; stroke-opacity: 0.8; stroke-width: 1.5; stroke-linecap: square"/>
   </g>
   <g id="line2d_29">
    <path d="M 136.809211 60.275413 
L 137.598373 50.807077 
L 138.387535 43.861625 
L 139.176697 38.802979 
L 139.965859 35.140463 
L 140.755021 32.49821 
L 141.544183 30.592734 
L 142.360558 29.174313 
L 143.231357 28.095814 
L 144.183794 27.26787 
L 145.272293 26.619688 
L 146.578493 26.107259 
L 148.265667 25.698072 
L 150.551515 25.386783 
L 153.980288 25.163071 
L 159.885398 25.029367 
L 174.580139 24.982308 
L 191.206967 24.980383 
L 191.206967 24.980383 
" clip-path="url(#pb9cf985bd9)" style="fill: none; stroke: #f10800; stroke-opacity: 0.8; stroke-width: 1.5; stroke-linecap: square"/>
   </g>
   <g id="line2d_30">
    <path d="M 136.809211 60.275413 
L 137.625585 50.447706 
L 138.414747 43.483459 
L 139.203909 38.378229 
L 139.993071 34.653541 
L 140.782233 31.944742 
L 141.598608 29.919552 
L 142.414983 28.462363 
L 143.285782 27.35101 
L 144.238219 26.498795 
L 145.299506 25.850025 
L 146.578493 25.338791 
L 148.184029 24.948233 
L 150.388241 24.656938 
L 153.735376 24.459848 
L 159.939823 24.352046 
L 179.750511 24.323814 
L 191.206967 24.323604 
L 191.206967 24.323604 
" clip-path="url(#pb9cf985bd9)" style="fill: none; stroke: #cd0000; stroke-opacity: 0.8; stroke-width: 1.5; stroke-linecap: square"/>
   </g>
   <g id="line2d_31">
    <path d="M 136.809211 60.275413 
L 137.625585 50.386194 
L 138.414747 43.351167 
L 139.203909 38.167617 
L 139.993071 34.362622 
L 140.782233 31.577285 
L 141.598608 29.481698 
L 142.414983 27.965901 
L 143.285782 26.805944 
L 144.211007 25.9371 
L 145.245081 25.269332 
L 146.469643 24.75022 
L 147.993542 24.35652 
L 150.061691 24.068204 
L 153.191126 23.87853 
L 159.123448 23.779759 
L 180.566886 23.757117 
L 191.206967 23.75705 
L 191.206967 23.75705 
" clip-path="url(#pb9cf985bd9)" style="fill: none; stroke: #a40000; stroke-opacity: 0.8; stroke-width: 1.5; stroke-linecap: square"/>
   </g>
   <g id="line2d_32">
    <path d="M 136.809211 60.275413 
L 137.625585 50.340198 
L 138.44196 43.043434 
L 139.258334 37.702533 
L 140.074709 33.80537 
L 140.891083 30.968461 
L 141.707458 28.90617 
L 142.551045 27.365124 
L 143.421844 26.225827 
L 144.347069 25.370372 
L 145.381143 24.712823 
L 146.605705 24.203501 
L 148.129604 23.821078 
L 150.197753 23.547069 
L 153.381614 23.373103 
L 159.749335 23.290988 
L 190.771568 23.27755 
L 191.206967 23.277549 
L 191.206967 23.277549 
" clip-path="url(#pb9cf985bd9)" style="fill: none; stroke: #800000; stroke-opacity: 0.8; stroke-width: 1.5; stroke-linecap: square"/>
   </g>
   <g id="patch_6">
    <path d="M 134.089323 62.125306 
L 134.089323 21.427656 
" style="fill: none; stroke: #000000; stroke-width: 0.8; stroke-linejoin: miter; stroke-linecap: square"/>
   </g>
   <g id="patch_7">
    <path d="M 134.089323 62.125306 
L 193.926855 62.125306 
" style="fill: none; stroke: #000000; stroke-width: 0.8; stroke-linejoin: miter; stroke-linecap: square"/>
   </g>
   <g id="text_14">
    <!-- dv/dt -->
    <g transform="translate(150.120589 15.427656)scale(0.11 -0.11)">
     <defs>
      <path id="CMUSerif-Roman-76" d="M 122 2560 
L 122 2758 
Q 410 2739 742 2739 
Q 864 2739 1440 2758 
L 1440 2560 
Q 1075 2560 1075 2394 
Q 1075 2368 1114 2285 
L 1830 499 
L 2483 2131 
Q 2522 2240 2522 2285 
Q 2522 2394 2448 2474 
Q 2374 2554 2214 2560 
L 2214 2758 
Q 2541 2739 2771 2739 
Q 3034 2739 3251 2758 
L 3251 2560 
Q 3059 2560 2924 2473 
Q 2790 2387 2748 2313 
Q 2707 2240 2662 2131 
L 1824 51 
Q 1773 -70 1690 -70 
Q 1632 -70 1609 -48 
Q 1587 -26 1555 51 
L 634 2323 
Q 570 2483 490 2521 
Q 410 2560 122 2560 
z
" transform="scale(0.015625)"/>
     </defs>
     <use xlink:href="#CMUSerif-Roman-64"/>
     <use xlink:href="#CMUSerif-Roman-76" x="55.499985"/>
     <use xlink:href="#CMUSerif-Roman-2f" x="108.199982"/>
     <use xlink:href="#CMUSerif-Roman-64" x="158.199966"/>
     <use xlink:href="#CMUSerif-Roman-74" x="213.699951"/>
    </g>
   </g>
  </g>
  <g id="axes_3">
   <g id="patch_8">
    <path d="M 239.92099 62.125306 
L 299.758522 62.125306 
L 299.758522 21.427656 
L 239.92099 21.427656 
z
" style="fill: #ffffff"/>
   </g>
   <g id="matplotlib.axis_5">
    <g id="xtick_5">
     <g id="line2d_33">
      <g>
       <use xlink:href="#m436aefb238" x="242.640877" y="62.125306" style="stroke: #000000; stroke-width: 0.8"/>
      </g>
     </g>
     <g id="text_15">
      <!-- 0 -->
      <g transform="translate(239.890877 76.759994)scale(0.11 -0.11)">
       <use xlink:href="#CMUSerif-Roman-30"/>
      </g>
     </g>
    </g>
    <g id="xtick_6">
     <g id="line2d_34">
      <g>
       <use xlink:href="#m436aefb238" x="297.065846" y="62.125306" style="stroke: #000000; stroke-width: 0.8"/>
      </g>
     </g>
     <g id="text_16">
      <!-- 2000 -->
      <g transform="translate(286.065846 76.759994)scale(0.11 -0.11)">
       <use xlink:href="#CMUSerif-Roman-32"/>
       <use xlink:href="#CMUSerif-Roman-30" x="49.999985"/>
       <use xlink:href="#CMUSerif-Roman-30" x="99.999969"/>
       <use xlink:href="#CMUSerif-Roman-30" x="149.999954"/>
      </g>
     </g>
    </g>
    <g id="text_17">
     <!-- time [ms] -->
     <g transform="translate(247.520928 91.144681)scale(0.11 -0.11)">
      <use xlink:href="#CMUSerif-Roman-74"/>
      <use xlink:href="#CMUSerif-Roman-69" x="38.799988"/>
      <use xlink:href="#CMUSerif-Roman-6d" x="66.499985"/>
      <use xlink:href="#CMUSerif-Roman-65" x="149.799973"/>
      <use xlink:href="#CMUSerif-Roman-20" x="194.199966"/>
      <use xlink:href="#CMUSerif-Roman-5b" x="227.499954"/>
      <use xlink:href="#CMUSerif-Roman-6d" x="255.299942"/>
      <use xlink:href="#CMUSerif-Roman-73" x="338.59993"/>
      <use xlink:href="#CMUSerif-Roman-5d" x="377.999924"/>
     </g>
    </g>
   </g>
   <g id="matplotlib.axis_6">
    <g id="ytick_7">
     <g id="line2d_35">
      <g>
       <use xlink:href="#mdaddae8717" x="239.92099" y="60.275434" style="stroke: #000000; stroke-width: 0.8"/>
      </g>
     </g>
     <g id="text_18">
      <!-- 0.0 -->
      <g transform="translate(218.863333 64.092777)scale(0.11 -0.11)">
       <use xlink:href="#CMUSerif-Roman-30"/>
       <use xlink:href="#CMUSerif-Roman-2e" x="49.999985"/>
       <use xlink:href="#CMUSerif-Roman-30" x="77.799973"/>
      </g>
     </g>
    </g>
    <g id="ytick_8">
     <g id="line2d_36">
      <g>
       <use xlink:href="#mdaddae8717" x="239.92099" y="23.277549" style="stroke: #000000; stroke-width: 0.8"/>
      </g>
     </g>
     <g id="text_19">
      <!-- 0.5 -->
      <g transform="translate(218.863333 27.094893)scale(0.11 -0.11)">
       <use xlink:href="#CMUSerif-Roman-30"/>
       <use xlink:href="#CMUSerif-Roman-2e" x="49.999985"/>
       <use xlink:href="#CMUSerif-Roman-35" x="77.799973"/>
      </g>
     </g>
    </g>
   </g>
   <g id="line2d_37">
    <path d="M 242.640877 23.277549 
L 242.88579 23.381358 
L 243.21234 23.789722 
L 243.702164 24.802795 
L 244.600176 27.270095 
L 246.477838 32.420016 
L 247.59355 34.811742 
L 248.682049 36.637292 
L 249.797761 38.083478 
L 250.99511 39.274348 
L 252.328522 40.287373 
L 253.906846 41.200863 
L 255.866145 42.06644 
L 258.424118 42.940084 
L 261.907316 43.880564 
L 266.560651 44.896709 
L 272.438548 45.945596 
L 279.513794 46.975743 
L 287.949664 47.972481 
L 297.038634 48.847319 
L 297.038634 48.847319 
" clip-path="url(#p98d088eb0c)" style="fill: none; stroke: #ffde00; stroke-opacity: 0.8; stroke-width: 1.5; stroke-linecap: square"/>
   </g>
   <g id="line2d_38">
    <path d="M 242.640877 23.277549 
L 242.88579 23.388358 
L 243.21234 23.826462 
L 243.702164 24.922229 
L 244.545751 27.45481 
L 246.749963 34.204683 
L 247.920099 37.001626 
L 249.063024 39.178154 
L 250.260373 40.985212 
L 251.53936 42.515684 
L 252.981622 43.890127 
L 254.641583 45.15927 
L 256.628094 46.391794 
L 259.077218 47.640018 
L 262.070591 48.908585 
L 265.689852 50.19428 
L 269.934999 51.459963 
L 274.806034 52.674352 
L 280.330168 53.817878 
L 286.616252 54.88714 
L 293.745923 55.869936 
L 297.038634 56.25712 
L 297.038634 56.25712 
" clip-path="url(#p98d088eb0c)" style="fill: none; stroke: #ffc400; stroke-opacity: 0.8; stroke-width: 1.5; stroke-linecap: square"/>
   </g>
   <g id="line2d_39">
    <path d="M 242.640877 23.277549 
L 242.88579 23.395493 
L 243.21234 23.864082 
L 243.702164 25.045379 
L 244.518539 27.716411 
L 247.076512 36.398704 
L 248.273862 39.552192 
L 249.471211 42.096056 
L 250.695773 44.191293 
L 252.029185 46.03265 
L 253.471446 47.647372 
L 255.104195 49.138893 
L 256.954644 50.525348 
L 259.077218 51.835819 
L 261.526342 53.082395 
L 264.302015 54.24313 
L 267.458663 55.318446 
L 271.023499 56.293224 
L 275.050946 57.159775 
L 279.677069 57.921682 
L 285.037928 58.572956 
L 291.40565 59.115852 
L 297.038634 59.44957 
L 297.038634 59.44957 
" clip-path="url(#p98d088eb0c)" style="fill: none; stroke: #ffa700; stroke-opacity: 0.8; stroke-width: 1.5; stroke-linecap: square"/>
   </g>
   <g id="line2d_40">
    <path d="M 242.640877 23.277549 
L 242.88579 23.401086 
L 243.21234 23.89369 
L 243.674952 25.061289 
L 244.436901 27.686361 
L 247.4847 38.778616 
L 248.709261 42.143275 
L 249.906611 44.806617 
L 251.158385 47.057593 
L 252.464584 48.957876 
L 253.879634 50.626937 
L 255.430745 52.109743 
L 257.145132 53.435977 
L 259.050006 54.623872 
L 261.172579 55.683252 
L 263.567278 56.627772 
L 266.288526 57.459331 
L 269.445175 58.185049 
L 273.11886 58.795545 
L 277.554495 59.299264 
L 283.105842 59.695186 
L 290.480425 59.984602 
L 297.038634 60.118066 
L 297.038634 60.118066 
" clip-path="url(#p98d088eb0c)" style="fill: none; stroke: #ff8600; stroke-opacity: 0.8; stroke-width: 1.5; stroke-linecap: square"/>
   </g>
   <g id="line2d_41">
    <path d="M 242.640877 23.277549 
L 242.858577 23.3793 
L 243.157915 23.8082 
L 243.593314 24.885684 
L 244.273626 27.249004 
L 248.165012 41.877683 
L 249.362361 45.060198 
L 250.55971 47.63315 
L 251.784272 49.756438 
L 253.063259 51.544019 
L 254.423883 53.072976 
L 255.893357 54.393789 
L 257.498894 55.538619 
L 259.267705 56.52753 
L 261.281429 57.393597 
L 263.567278 58.129943 
L 266.234101 58.750804 
L 269.445175 59.262874 
L 273.44541 59.666376 
L 278.751844 59.964786 
L 286.507402 60.159234 
L 297.038634 60.244856 
L 297.038634 60.244856 
" clip-path="url(#p98d088eb0c)" style="fill: none; stroke: #ff6800; stroke-opacity: 0.8; stroke-width: 1.5; stroke-linecap: square"/>
   </g>
   <g id="line2d_42">
    <path d="M 242.640877 23.277549 
L 242.858577 23.381918 
L 243.157915 23.822673 
L 243.593314 24.933259 
L 244.273626 27.380987 
L 246.042438 34.953756 
L 247.4847 40.521972 
L 248.709261 44.3889 
L 249.879398 47.379633 
L 251.049535 49.788074 
L 252.246884 51.764103 
L 253.498659 53.411463 
L 254.83207 54.799161 
L 256.24712 55.952591 
L 257.798231 56.929613 
L 259.53983 57.758652 
L 261.526342 58.451535 
L 263.866615 59.024088 
L 266.723926 59.483581 
L 270.370399 59.832891 
L 275.431921 60.077727 
L 283.514029 60.220741 
L 297.038634 60.26906 
L 297.038634 60.26906 
" clip-path="url(#p98d088eb0c)" style="fill: none; stroke: #ff4700; stroke-opacity: 0.8; stroke-width: 1.5; stroke-linecap: square"/>
   </g>
   <g id="line2d_43">
    <path d="M 242.640877 23.277549 
L 242.858577 23.383904 
L 243.157915 23.833674 
L 243.593314 24.969523 
L 244.273626 27.482051 
L 245.851951 34.478295 
L 247.37585 40.713813 
L 248.600412 44.817594 
L 249.770548 47.984465 
L 250.913473 50.462658 
L 252.08361 52.48238 
L 253.280959 54.114803 
L 254.532733 55.451773 
L 255.866145 56.553683 
L 257.308407 57.460249 
L 258.941156 58.220132 
L 260.818817 58.841921 
L 263.050241 59.33976 
L 265.853127 59.727011 
L 269.60845 60.006876 
L 275.268646 60.183703 
L 286.289703 60.264081 
L 297.038634 60.273953 
L 297.038634 60.273953 
" clip-path="url(#p98d088eb0c)" style="fill: none; stroke: #ff2900; stroke-opacity: 0.8; stroke-width: 1.5; stroke-linecap: square"/>
   </g>
   <g id="line2d_44">
    <path d="M 242.640877 23.277549 
L 242.858577 23.385403 
L 243.157915 23.841983 
L 243.593314 24.996968 
L 244.273626 27.558811 
L 245.770313 34.358298 
L 247.348637 41.049493 
L 248.573199 45.296605 
L 249.716123 48.494967 
L 250.859048 51.046247 
L 252.001972 53.060849 
L 253.172109 54.675852 
L 254.369458 55.958118 
L 255.648445 57.006758 
L 257.036282 57.859293 
L 258.614606 58.56234 
L 260.437842 59.124047 
L 262.642054 59.56327 
L 265.499364 59.893394 
L 269.526812 60.116626 
L 276.275508 60.238954 
L 294.80721 60.274791 
L 297.038634 60.275039 
L 297.038634 60.275039 
" clip-path="url(#p98d088eb0c)" style="fill: none; stroke: #f10800; stroke-opacity: 0.8; stroke-width: 1.5; stroke-linecap: square"/>
   </g>
   <g id="line2d_45">
    <path d="M 242.640877 23.277549 
L 242.858577 23.386528 
L 243.157915 23.848227 
L 243.593314 25.017629 
L 244.246414 27.500669 
L 245.634251 33.904933 
L 247.294212 41.166968 
L 248.518774 45.547135 
L 249.661698 48.838349 
L 250.77741 51.39356 
L 251.893122 53.405592 
L 253.036047 55.010691 
L 254.206183 56.275463 
L 255.457958 57.299912 
L 256.818582 58.122024 
L 258.342481 58.778867 
L 260.138505 59.302546 
L 262.342716 59.703112 
L 265.254452 59.992187 
L 269.554025 60.175531 
L 277.71777 60.261708 
L 297.038634 60.27531 
L 297.038634 60.27531 
" clip-path="url(#p98d088eb0c)" style="fill: none; stroke: #cd0000; stroke-opacity: 0.8; stroke-width: 1.5; stroke-linecap: square"/>
   </g>
   <g id="line2d_46">
    <path d="M 242.640877 23.277549 
L 242.858577 23.387369 
L 243.157915 23.852902 
L 243.593314 25.033118 
L 244.246414 27.542844 
L 245.607038 33.903879 
L 247.294212 41.413523 
L 248.518774 45.863667 
L 249.661698 49.197403 
L 250.750198 51.716342 
L 251.838697 53.697555 
L 252.954409 55.27446 
L 254.097333 56.5118 
L 255.321895 57.50863 
L 256.655307 58.302252 
L 258.151994 58.929392 
L 259.920805 59.421763 
L 262.125016 59.793388 
L 265.091177 60.053229 
L 269.690087 60.209123 
L 279.568219 60.27059 
L 297.038634 60.275387 
L 297.038634 60.275387 
" clip-path="url(#p98d088eb0c)" style="fill: none; stroke: #a40000; stroke-opacity: 0.8; stroke-width: 1.5; stroke-linecap: square"/>
   </g>
   <g id="line2d_47">
    <path d="M 242.640877 23.277549 
L 242.858577 23.387998 
L 243.157915 23.856394 
L 243.593314 25.044695 
L 244.246414 27.574415 
L 245.579826 33.8677 
L 247.294212 41.598769 
L 248.518774 46.100901 
L 249.634486 49.393934 
L 250.722985 51.940416 
L 251.811485 53.932405 
L 252.899984 55.47305 
L 254.015696 56.68024 
L 255.213045 57.65092 
L 256.519245 58.42086 
L 257.988719 59.0257 
L 259.730318 59.496252 
L 261.934529 59.849413 
L 264.955115 60.090704 
L 269.798937 60.227746 
L 281.55473 60.273723 
L 297.038634 60.275413 
L 297.038634 60.275413 
" clip-path="url(#p98d088eb0c)" style="fill: none; stroke: #800000; stroke-opacity: 0.8; stroke-width: 1.5; stroke-linecap: square"/>
   </g>
   <g id="patch_9">
    <path d="M 239.92099 62.125306 
L 239.92099 21.427656 
" style="fill: none; stroke: #000000; stroke-width: 0.8; stroke-linejoin: miter; stroke-linecap: square"/>
   </g>
   <g id="patch_10">
    <path d="M 239.92099 62.125306 
L 299.758522 62.125306 
" style="fill: none; stroke: #000000; stroke-width: 0.8; stroke-linejoin: miter; stroke-linecap: square"/>
   </g>
   <g id="text_20">
    <!-- dy/dt -->
    <g transform="translate(255.952256 15.427656)scale(0.11 -0.11)">
     <defs>
      <path id="CMUSerif-Roman-79" d="M 122 -794 
Q 122 -659 202 -588 
Q 282 -518 390 -518 
Q 506 -518 582 -592 
Q 659 -666 659 -787 
Q 659 -1024 410 -1056 
Q 531 -1171 710 -1171 
Q 902 -1171 1056 -1030 
Q 1210 -890 1277 -755 
Q 1344 -621 1440 -378 
Q 1530 -186 1600 0 
L 640 2336 
Q 576 2490 480 2525 
Q 384 2560 122 2560 
L 122 2758 
Q 410 2739 742 2739 
Q 941 2739 1440 2758 
L 1440 2560 
Q 1082 2560 1082 2394 
Q 1082 2374 1120 2278 
L 1830 557 
L 2477 2131 
Q 2515 2221 2515 2285 
Q 2515 2547 2214 2560 
L 2214 2758 
Q 2637 2739 2771 2739 
Q 3034 2739 3251 2758 
L 3251 2560 
Q 2822 2560 2656 2150 
L 1530 -582 
Q 1222 -1312 710 -1312 
Q 467 -1312 294 -1161 
Q 122 -1011 122 -794 
z
" transform="scale(0.015625)"/>
     </defs>
     <use xlink:href="#CMUSerif-Roman-64"/>
     <use xlink:href="#CMUSerif-Roman-79" x="55.499985"/>
     <use xlink:href="#CMUSerif-Roman-2f" x="108.199982"/>
     <use xlink:href="#CMUSerif-Roman-64" x="158.199966"/>
     <use xlink:href="#CMUSerif-Roman-74" x="213.699951"/>
    </g>
   </g>
   <g id="legend_1">
    <g id="text_21">
     <!-- Input I -->
     <g transform="translate(309.342275 20.453049)scale(0.11 -0.11)">
      <defs>
       <path id="CMUSerif-Roman-49" d="M 179 0 
L 179 198 
L 346 198 
Q 704 198 787 256 
Q 870 314 870 499 
L 870 3872 
Q 870 4058 787 4115 
Q 704 4173 346 4173 
L 179 4173 
L 179 4371 
Q 403 4352 1158 4352 
Q 1907 4352 2131 4371 
L 2131 4173 
L 1965 4173 
Q 1606 4173 1523 4115 
Q 1440 4058 1440 3872 
L 1440 499 
Q 1440 314 1523 256 
Q 1606 198 1965 198 
L 2131 198 
L 2131 0 
Q 1907 19 1152 19 
Q 403 19 179 0 
z
" transform="scale(0.015625)"/>
       <path id="CMUSerif-Roman-6e" d="M 205 0 
L 205 198 
Q 544 198 624 240 
Q 704 282 704 486 
L 704 2202 
Q 704 2438 621 2499 
Q 538 2560 205 2560 
L 205 2758 
L 1107 2829 
L 1107 2157 
Q 1408 2829 2054 2829 
Q 2534 2829 2726 2592 
Q 2867 2432 2896 2253 
Q 2925 2074 2925 1613 
L 2925 390 
Q 2931 256 3033 227 
Q 3136 198 3424 198 
L 3424 0 
Q 2771 19 2707 19 
Q 2656 19 1984 0 
L 1984 198 
Q 2323 198 2403 240 
Q 2483 282 2483 486 
L 2483 1978 
Q 2483 2304 2384 2496 
Q 2285 2688 2010 2688 
Q 1677 2688 1411 2409 
Q 1146 2131 1146 1664 
L 1146 486 
Q 1146 282 1226 240 
Q 1306 198 1645 198 
L 1645 0 
Q 992 19 928 19 
Q 877 19 205 0 
z
" transform="scale(0.015625)"/>
       <path id="CMUSerif-Roman-70" d="M 179 -1043 
Q 518 -1043 598 -1001 
Q 678 -960 678 -755 
L 678 2240 
Q 678 2451 598 2505 
Q 518 2560 179 2560 
L 179 2758 
L 1101 2829 
L 1101 2406 
Q 1485 2829 1997 2829 
Q 2541 2829 2937 2406 
Q 3334 1984 3334 1382 
Q 3334 774 2912 352 
Q 2490 -70 1907 -70 
Q 1587 -70 1372 93 
Q 1158 256 1120 378 
L 1120 320 
L 1120 -755 
Q 1120 -960 1200 -1001 
Q 1280 -1043 1619 -1043 
L 1619 -1242 
Q 947 -1222 896 -1222 
Q 832 -1222 179 -1242 
L 179 -1043 
z
M 1120 730 
Q 1120 634 1133 598 
Q 1146 563 1210 461 
Q 1466 70 1882 70 
Q 2246 70 2524 444 
Q 2803 819 2803 1382 
Q 2803 1920 2550 2294 
Q 2298 2669 1946 2669 
Q 1696 2669 1478 2534 
Q 1261 2400 1120 2157 
L 1120 730 
z
" transform="scale(0.015625)"/>
      </defs>
      <use xlink:href="#CMUSerif-Roman-49"/>
      <use xlink:href="#CMUSerif-Roman-6e" x="36.099991"/>
      <use xlink:href="#CMUSerif-Roman-70" x="91.599976"/>
      <use xlink:href="#CMUSerif-Roman-75" x="147.09996"/>
      <use xlink:href="#CMUSerif-Roman-74" x="202.599945"/>
      <use xlink:href="#CMUSerif-Roman-20" x="241.399933"/>
      <use xlink:href="#CMUSerif-Roman-49" x="274.699921"/>
     </g>
    </g>
    <g id="line2d_48">
     <path d="M 317.279306 25.987736 
L 321.279306 25.987736 
L 325.279306 25.987736 
" style="fill: none; stroke: #ffde00; stroke-opacity: 0.8; stroke-width: 1.5; stroke-linecap: square"/>
    </g>
    <g id="text_22">
     <!-- 1.01 -->
     <g transform="translate(328.479306 27.387736)scale(0.04 -0.04)">
      <defs>
       <path id="CMUSerif-Roman-31" d="M 570 3654 
L 570 3853 
Q 1338 3853 1734 4262 
Q 1843 4262 1862 4236 
Q 1882 4211 1882 4096 
L 1882 506 
Q 1882 314 1974 256 
Q 2067 198 2477 198 
L 2682 198 
L 2682 0 
Q 2458 19 1645 19 
Q 832 19 608 0 
L 608 198 
L 813 198 
Q 1216 198 1312 256 
Q 1408 314 1408 506 
L 1408 3821 
Q 1075 3654 570 3654 
z
" transform="scale(0.015625)"/>
      </defs>
      <use xlink:href="#CMUSerif-Roman-31"/>
      <use xlink:href="#CMUSerif-Roman-2e" x="49.999985"/>
      <use xlink:href="#CMUSerif-Roman-30" x="77.799973"/>
      <use xlink:href="#CMUSerif-Roman-31" x="127.799957"/>
     </g>
    </g>
    <g id="line2d_49">
     <path d="M 317.279306 31.563986 
L 321.279306 31.563986 
L 325.279306 31.563986 
" style="fill: none; stroke: #ffc400; stroke-opacity: 0.8; stroke-width: 1.5; stroke-linecap: square"/>
    </g>
    <g id="text_23">
     <!-- 1.05 -->
     <g transform="translate(328.479306 32.963986)scale(0.04 -0.04)">
      <use xlink:href="#CMUSerif-Roman-31"/>
      <use xlink:href="#CMUSerif-Roman-2e" x="49.999985"/>
      <use xlink:href="#CMUSerif-Roman-30" x="77.799973"/>
      <use xlink:href="#CMUSerif-Roman-35" x="127.799957"/>
     </g>
    </g>
    <g id="line2d_50">
     <path d="M 317.279306 37.140236 
L 321.279306 37.140236 
L 325.279306 37.140236 
" style="fill: none; stroke: #ffa700; stroke-opacity: 0.8; stroke-width: 1.5; stroke-linecap: square"/>
    </g>
    <g id="text_24">
     <!-- 1.1 -->
     <g transform="translate(328.479306 38.540236)scale(0.04 -0.04)">
      <use xlink:href="#CMUSerif-Roman-31"/>
      <use xlink:href="#CMUSerif-Roman-2e" x="49.999985"/>
      <use xlink:href="#CMUSerif-Roman-31" x="77.799973"/>
     </g>
    </g>
    <g id="line2d_51">
     <path d="M 317.279306 42.716486 
L 321.279306 42.716486 
L 325.279306 42.716486 
" style="fill: none; stroke: #ff8600; stroke-opacity: 0.8; stroke-width: 1.5; stroke-linecap: square"/>
    </g>
    <g id="text_25">
     <!-- 1.15 -->
     <g transform="translate(328.479306 44.116486)scale(0.04 -0.04)">
      <use xlink:href="#CMUSerif-Roman-31"/>
      <use xlink:href="#CMUSerif-Roman-2e" x="49.999985"/>
      <use xlink:href="#CMUSerif-Roman-31" x="77.799973"/>
      <use xlink:href="#CMUSerif-Roman-35" x="127.799957"/>
     </g>
    </g>
    <g id="line2d_52">
     <path d="M 317.279306 48.292736 
L 321.279306 48.292736 
L 325.279306 48.292736 
" style="fill: none; stroke: #ff6800; stroke-opacity: 0.8; stroke-width: 1.5; stroke-linecap: square"/>
    </g>
    <g id="text_26">
     <!-- 1.2 -->
     <g transform="translate(328.479306 49.692736)scale(0.04 -0.04)">
      <use xlink:href="#CMUSerif-Roman-31"/>
      <use xlink:href="#CMUSerif-Roman-2e" x="49.999985"/>
      <use xlink:href="#CMUSerif-Roman-32" x="77.799973"/>
     </g>
    </g>
    <g id="line2d_53">
     <path d="M 317.279306 53.868986 
L 321.279306 53.868986 
L 325.279306 53.868986 
" style="fill: none; stroke: #ff4700; stroke-opacity: 0.8; stroke-width: 1.5; stroke-linecap: square"/>
    </g>
    <g id="text_27">
     <!-- 1.25 -->
     <g transform="translate(328.479306 55.268986)scale(0.04 -0.04)">
      <use xlink:href="#CMUSerif-Roman-31"/>
      <use xlink:href="#CMUSerif-Roman-2e" x="49.999985"/>
      <use xlink:href="#CMUSerif-Roman-32" x="77.799973"/>
      <use xlink:href="#CMUSerif-Roman-35" x="127.799957"/>
     </g>
    </g>
    <g id="line2d_54">
     <path d="M 317.279306 59.445236 
L 321.279306 59.445236 
L 325.279306 59.445236 
" style="fill: none; stroke: #ff2900; stroke-opacity: 0.8; stroke-width: 1.5; stroke-linecap: square"/>
    </g>
    <g id="text_28">
     <!-- 1.3 -->
     <g transform="translate(328.479306 60.845236)scale(0.04 -0.04)">
      <defs>
       <path id="CMUSerif-Roman-33" d="M 269 864 
Q 269 1056 377 1145 
Q 486 1235 627 1235 
Q 774 1235 880 1139 
Q 986 1043 986 877 
Q 986 698 861 598 
Q 736 499 563 525 
Q 717 269 998 153 
Q 1280 38 1542 38 
Q 1818 38 2042 275 
Q 2266 512 2266 1094 
Q 2266 1587 2074 1872 
Q 1882 2157 1504 2157 
L 1222 2157 
Q 1126 2157 1097 2166 
Q 1069 2176 1069 2227 
Q 1069 2291 1165 2304 
Q 1261 2304 1414 2323 
Q 1786 2336 1984 2656 
Q 2163 2957 2163 3386 
Q 2163 3776 1977 3939 
Q 1792 4102 1549 4102 
Q 1325 4102 1078 4009 
Q 832 3917 698 3706 
Q 1094 3706 1094 3386 
Q 1094 3245 1004 3152 
Q 915 3059 768 3059 
Q 627 3059 534 3148 
Q 442 3238 442 3392 
Q 442 3757 768 4009 
Q 1094 4262 1574 4262 
Q 2048 4262 2400 4012 
Q 2752 3763 2752 3379 
Q 2752 3002 2502 2691 
Q 2253 2381 1856 2253 
Q 2342 2157 2633 1827 
Q 2925 1498 2925 1094 
Q 2925 595 2531 227 
Q 2138 -141 1562 -141 
Q 1030 -141 649 147 
Q 269 435 269 864 
z
" transform="scale(0.015625)"/>
      </defs>
      <use xlink:href="#CMUSerif-Roman-31"/>
      <use xlink:href="#CMUSerif-Roman-2e" x="49.999985"/>
      <use xlink:href="#CMUSerif-Roman-33" x="77.799973"/>
     </g>
    </g>
    <g id="line2d_55">
     <path d="M 317.279306 65.021486 
L 321.279306 65.021486 
L 325.279306 65.021486 
" style="fill: none; stroke: #f10800; stroke-opacity: 0.8; stroke-width: 1.5; stroke-linecap: square"/>
    </g>
    <g id="text_29">
     <!-- 1.35 -->
     <g transform="translate(328.479306 66.421486)scale(0.04 -0.04)">
      <use xlink:href="#CMUSerif-Roman-31"/>
      <use xlink:href="#CMUSerif-Roman-2e" x="49.999985"/>
      <use xlink:href="#CMUSerif-Roman-33" x="77.799973"/>
      <use xlink:href="#CMUSerif-Roman-35" x="127.799957"/>
     </g>
    </g>
    <g id="line2d_56">
     <path d="M 317.279306 70.597736 
L 321.279306 70.597736 
L 325.279306 70.597736 
" style="fill: none; stroke: #cd0000; stroke-opacity: 0.8; stroke-width: 1.5; stroke-linecap: square"/>
    </g>
    <g id="text_30">
     <!-- 1.4 -->
     <g transform="translate(328.479306 71.997736)scale(0.04 -0.04)">
      <defs>
       <path id="CMUSerif-Roman-34" d="M 179 1056 
L 179 1254 
L 2144 4256 
Q 2195 4333 2272 4333 
Q 2342 4333 2358 4304 
Q 2374 4275 2374 4166 
L 2374 1254 
L 3014 1254 
L 3014 1056 
L 2374 1056 
L 2374 499 
Q 2374 314 2451 256 
Q 2528 198 2861 198 
L 2995 198 
L 2995 0 
Q 2733 19 2125 19 
Q 1523 19 1261 0 
L 1261 198 
L 1395 198 
Q 1728 198 1805 256 
Q 1882 314 1882 499 
L 1882 1056 
L 179 1056 
z
M 358 1254 
L 1920 1254 
L 1920 3642 
L 358 1254 
z
" transform="scale(0.015625)"/>
      </defs>
      <use xlink:href="#CMUSerif-Roman-31"/>
      <use xlink:href="#CMUSerif-Roman-2e" x="49.999985"/>
      <use xlink:href="#CMUSerif-Roman-34" x="77.799973"/>
     </g>
    </g>
    <g id="line2d_57">
     <path d="M 317.279306 76.173986 
L 321.279306 76.173986 
L 325.279306 76.173986 
" style="fill: none; stroke: #a40000; stroke-opacity: 0.8; stroke-width: 1.5; stroke-linecap: square"/>
    </g>
    <g id="text_31">
     <!-- 1.45 -->
     <g transform="translate(328.479306 77.573986)scale(0.04 -0.04)">
      <use xlink:href="#CMUSerif-Roman-31"/>
      <use xlink:href="#CMUSerif-Roman-2e" x="49.999985"/>
      <use xlink:href="#CMUSerif-Roman-34" x="77.799973"/>
      <use xlink:href="#CMUSerif-Roman-35" x="127.799957"/>
     </g>
    </g>
    <g id="line2d_58">
     <path d="M 317.279306 81.750236 
L 321.279306 81.750236 
L 325.279306 81.750236 
" style="fill: none; stroke: #800000; stroke-opacity: 0.8; stroke-width: 1.5; stroke-linecap: square"/>
    </g>
    <g id="text_32">
     <!-- 1.5 -->
     <g transform="translate(328.479306 83.150236)scale(0.04 -0.04)">
      <use xlink:href="#CMUSerif-Roman-31"/>
      <use xlink:href="#CMUSerif-Roman-2e" x="49.999985"/>
      <use xlink:href="#CMUSerif-Roman-35" x="77.799973"/>
     </g>
    </g>
   </g>
  </g>
 </g>
 <defs>
  <clipPath id="pcf51b79430">
   <rect x="28.257656" y="21.427656" width="59.837532" height="40.69765"/>
  </clipPath>
  <clipPath id="pb9cf985bd9">
   <rect x="134.089323" y="21.427656" width="59.837532" height="40.69765"/>
  </clipPath>
  <clipPath id="p98d088eb0c">
   <rect x="239.92099" y="21.427656" width="59.837532" height="40.69765"/>
  </clipPath>
 </defs>
</svg>
