<?xml version="1.0" encoding="UTF-8" standalone="no"?>
<svg
   xmlns:dc="http://purl.org/dc/elements/1.1/"
   xmlns:cc="http://creativecommons.org/ns#"
   xmlns:rdf="http://www.w3.org/1999/02/22-rdf-syntax-ns#"
   xmlns:svg="http://www.w3.org/2000/svg"
   xmlns="http://www.w3.org/2000/svg"
   xmlns:xlink="http://www.w3.org/1999/xlink"
   xmlns:sodipodi="http://sodipodi.sourceforge.net/DTD/sodipodi-0.dtd"
   xmlns:inkscape="http://www.inkscape.org/namespaces/inkscape"
   width="128.19131pt"
   height="120.24pt"
   viewBox="0 0 128.19131 120.24"
   version="1.1"
   id="svg177"
   sodipodi:docname="input_stim_60mse.svg"
   inkscape:version="0.92.5 (2060ec1f9f, 2020-04-08)">
  <sodipodi:namedview
     pagecolor="#ffffff"
     bordercolor="#666666"
     borderopacity="1"
     objecttolerance="10"
     gridtolerance="10"
     guidetolerance="10"
     inkscape:pageopacity="0"
     inkscape:pageshadow="2"
     inkscape:window-width="2560"
     inkscape:window-height="1378"
     id="namedview179"
     showgrid="false"
     inkscape:zoom="1.4720559"
     inkscape:cx="90.895457"
     inkscape:cy="80.159998"
     inkscape:window-x="1920"
     inkscape:window-y="34"
     inkscape:window-maximized="1"
     inkscape:current-layer="svg177" />
  <metadata
     id="metadata2">
    <rdf:RDF>
      <cc:Work>
        <dc:type
           rdf:resource="http://purl.org/dc/dcmitype/StillImage" />
        <dc:date>2022-09-12T10:24:38.337013</dc:date>
        <dc:format>image/svg+xml</dc:format>
        <dc:creator>
          <cc:Agent>
            <dc:title>Matplotlib v3.5.1, https://matplotlib.org/</dc:title>
          </cc:Agent>
        </dc:creator>
      </cc:Work>
    </rdf:RDF>
  </metadata>
  <defs
     id="defs6"
     style="stroke-linecap:butt;stroke-linejoin:round">
    <style
       type="text/css"
       id="style4">*{stroke-linejoin: round; stroke-linecap: butt}</style>
  </defs>
  <g
     style="stroke-linecap:butt;stroke-linejoin:round"
     id="patch_1"
     transform="scale(0.94021069,1)">
    <path
       inkscape:connector-curvature="0"
       id="path8"
       style="fill:none;stroke-linecap:butt;stroke-linejoin:round"
       d="M 0,120.24 H 136.34318 V 0 H 0 Z" />
  </g>
  <g
     style="stroke-linecap:butt;stroke-linejoin:round"
     id="axes_1">
    <g
       style="stroke-linecap:butt;stroke-linejoin:round"
       id="patch_2">
      <path
         inkscape:connector-curvature="0"
         id="path11"
         style="fill:#ffffff;stroke-linecap:butt;stroke-linejoin:round"
         d="M 47.423785,81.339855 H 121.55379 V 7.2 H 47.423785 Z" />
    </g>
    <g
       style="stroke-linecap:butt;stroke-linejoin:round"
       id="matplotlib.axis_1">
      <g
         style="stroke-linecap:butt;stroke-linejoin:round"
         id="xtick_1">
        <g
           style="stroke-linecap:butt;stroke-linejoin:round"
           id="line2d_1">
          <defs
             id="defs15">
            <path
               inkscape:connector-curvature="0"
               style="stroke:#000000;stroke-width:0.80000001;stroke-linecap:butt;stroke-linejoin:round"
               d="M 0,0 V 3.5"
               id="md9941108c6" />
          </defs>
          <g
             style="stroke-linecap:butt;stroke-linejoin:round"
             id="g19">
            <use
               height="100%"
               width="100%"
               id="use17"
               style="stroke:#000000;stroke-width:0.80000001;stroke-linecap:butt;stroke-linejoin:round"
               y="81.339851"
               x="62.02515"
               xlink:href="#md9941108c6" />
          </g>
        </g>
        <g
           style="stroke-linecap:butt;stroke-linejoin:round"
           id="text_1">
          <!-- $\mathdefault{500}$ -->
          <g
             style="stroke-linecap:butt;stroke-linejoin:round"
             id="g32"
             transform="matrix(0.11,0,0,-0.11,53.805949,95.950201)">
            <defs
               id="defs24">
              <path
                 style="stroke-linecap:butt;stroke-linejoin:round"
                 inkscape:connector-curvature="0"
                 transform="scale(0.015625)"
                 d="m 730,3692 c 64,-26 326,-108 595,-108 595,0 921,327 1107,516 0,57 0,92 -38,92 -7,0 -20,0 -71,-29 -224,-105 -486,-190 -806,-190 -192,0 -480,26 -794,166 -70,32 -83,32 -89,32 -32,0 -39,-7 -39,-134 V 2203 c 0,-114 0,-146 64,-146 32,0 45,13 77,57 205,287 486,408 806,408 224,0 704,-140 704,-1233 0,-204 0,-574 -192,-868 C 1894,159 1645,25 1370,25 947,25 518,320 403,814 c 26,-7 77,-19 103,-19 83,0 243,45 243,243 0,172 -122,242 -243,242 -148,0 -244,-90 -244,-269 0,-557 442,-1139 1120,-1139 660,0 1287,568 1287,1392 0,766 -499,1360 -1120,1360 -327,0 -602,-121 -819,-350 z"
                 id="CMR17-35" />
              <path
                 style="stroke-linecap:butt;stroke-linejoin:round"
                 inkscape:connector-curvature="0"
                 transform="scale(0.015625)"
                 d="m 2688,2025 c 0,391 -6,1055 -275,1566 -237,448 -615,607 -947,607 -308,0 -698,-140 -941,-601 C 269,3118 243,2524 243,2025 c 0,-364 7,-919 205,-1406 275,-658 768,-747 1018,-747 294,0 742,121 1004,728 192,442 218,959 218,1425 z M 1466,-26 c -410,0 -653,351 -743,838 -70,376 -70,926 -70,1284 0,492 0,901 83,1291 122,542 480,709 730,709 262,0 601,-173 723,-696 83,-364 89,-793 89,-1304 0,-416 0,-927 -76,-1304 C 2067,95 1690,-26 1466,-26 Z"
                 id="CMR17-30" />
            </defs>
            <use
               height="100%"
               width="100%"
               y="0"
               x="0"
               style="stroke-linecap:butt;stroke-linejoin:round"
               id="use26"
               transform="scale(0.996264)"
               xlink:href="#CMR17-35" />
            <use
               height="100%"
               width="100%"
               y="0"
               x="0"
               style="stroke-linecap:butt;stroke-linejoin:round"
               id="use28"
               transform="matrix(0.996264,0,0,0.996264,45.690477,0)"
               xlink:href="#CMR17-30" />
            <use
               height="100%"
               width="100%"
               y="0"
               x="0"
               style="stroke-linecap:butt;stroke-linejoin:round"
               id="use30"
               transform="matrix(0.996264,0,0,0.996264,91.380954,0)"
               xlink:href="#CMR17-30" />
          </g>
        </g>
      </g>
      <g
         style="stroke-linecap:butt;stroke-linejoin:round"
         id="xtick_2">
        <g
           style="stroke-linecap:butt;stroke-linejoin:round"
           id="line2d_2">
          <g
             style="stroke-linecap:butt;stroke-linejoin:round"
             id="g38">
            <use
               height="100%"
               width="100%"
               id="use36"
               style="stroke:#000000;stroke-width:0.80000001;stroke-linecap:butt;stroke-linejoin:round"
               y="81.339851"
               x="118.18425"
               xlink:href="#md9941108c6" />
          </g>
        </g>
        <g
           style="stroke-linecap:butt;stroke-linejoin:round"
           id="text_2">
          <!-- $\mathdefault{1000}$ -->
          <g
             style="stroke-linecap:butt;stroke-linejoin:round"
             id="g52"
             transform="matrix(0.11,0,0,-0.11,107.22531,95.950201)">
            <defs
               id="defs42">
              <path
                 style="stroke-linecap:butt;stroke-linejoin:round"
                 inkscape:connector-curvature="0"
                 transform="scale(0.015625)"
                 d="m 1702,4058 c 0,134 -6,134 -96,134 -249,-276 -627,-365 -985,-365 -19,0 -51,0 -58,-19 -6,-13 -6,-26 -6,-160 198,0 531,38 787,191 V 461 C 1344,236 1331,160 781,160 H 589 V 0 c 307,0 627,0 934,0 307,0 627,0 935,0 v 160 h -192 c -551,0 -564,70 -564,298 z"
                 id="CMR17-31" />
            </defs>
            <use
               height="100%"
               width="100%"
               y="0"
               x="0"
               style="stroke-linecap:butt;stroke-linejoin:round"
               id="use44"
               transform="scale(0.996264)"
               xlink:href="#CMR17-31" />
            <use
               height="100%"
               width="100%"
               y="0"
               x="0"
               style="stroke-linecap:butt;stroke-linejoin:round"
               id="use46"
               transform="matrix(0.996264,0,0,0.996264,45.690477,0)"
               xlink:href="#CMR17-30" />
            <use
               height="100%"
               width="100%"
               y="0"
               x="0"
               style="stroke-linecap:butt;stroke-linejoin:round"
               id="use48"
               transform="matrix(0.996264,0,0,0.996264,91.380954,0)"
               xlink:href="#CMR17-30" />
            <use
               height="100%"
               width="100%"
               y="0"
               x="0"
               style="stroke-linecap:butt;stroke-linejoin:round"
               id="use50"
               transform="matrix(0.996264,0,0,0.996264,137.07143,0)"
               xlink:href="#CMR17-30" />
          </g>
        </g>
      </g>
      <g
         style="stroke-linecap:butt;stroke-linejoin:round"
         id="text_3">
        <!-- stimulus [ms] -->
        <g
           style="stroke-linecap:butt;stroke-linejoin:round"
           id="g90"
           transform="matrix(0.11,0,0,-0.11,52.890562,110.30027)">
          <defs
             id="defs64">
            <path
               style="stroke-linecap:butt;stroke-linejoin:round"
               inkscape:connector-curvature="0"
               transform="scale(0.015625)"
               d="m 1978,2697 c 0,116 -7,122 -45,122 -26,0 -32,-6 -109,-102 -19,-26 -77,-91 -96,-116 -205,218 -493,218 -602,218 -710,0 -966,-372 -966,-743 0,-578 653,-711 838,-751 404,-82 544,-108 679,-224 83,-76 224,-217 224,-447 0,-270 -154,-616 -743,-616 -556,0 -755,422 -870,983 -19,89 -19,96 -70,96 -52,0 -58,-7 -58,-134 V 63 c 0,-114 6,-121 45,-121 32,0 38,7 70,58 39,57 135,211 173,276 128,-173 352,-340 710,-340 634,0 973,347 973,848 0,328 -173,501 -256,578 -192,199 -416,244 -685,295 -352,78 -800,168 -800,560 0,166 90,520 736,520 685,0 724,-643 736,-849 7,-32 39,-39 58,-39 58,0 58,20 58,129 z"
               id="CMR17-73" />
            <path
               style="stroke-linecap:butt;stroke-linejoin:round"
               inkscape:connector-curvature="0"
               transform="scale(0.015625)"
               d="m 966,2560 h 896 v 165 H 966 V 3904 H 851 C 838,3245 614,2668 70,2668 V 2560 H 627 V 771 c 0,-121 0,-835 743,-835 377,0 595,370 595,841 v 363 H 1850 V 783 C 1850,344 1677,51 1408,51 1222,51 966,178 966,758 Z"
               id="CMR17-74" />
            <path
               style="stroke-linecap:butt;stroke-linejoin:round"
               inkscape:connector-curvature="0"
               transform="scale(0.015625)"
               d="m 992,3909 c 0,140 -115,261 -262,261 -141,0 -263,-114 -263,-261 0,-140 115,-261 263,-261 140,0 262,115 262,261 z M 243,2706 v -165 c 359,0 410,-39 410,-344 V 427 C 653,184 627,153 218,153 V -13 C 371,0 646,0 806,0 c 154,0 416,0 564,-13 v 166 c -378,0 -391,38 -391,267 v 2356 z"
               id="CMR17-69" />
            <path
               style="stroke-linecap:butt;stroke-linejoin:round"
               inkscape:connector-curvature="0"
               transform="scale(0.015625)"
               d="m 4326,1933 c 0,319 -57,857 -819,857 -435,0 -736,-294 -851,-639 h -6 c -77,525 -455,639 -813,639 -506,0 -768,-390 -864,-646 h -7 v 646 l -755,-70 v -166 c 378,0 435,-39 435,-346 V 428 C 646,184 621,153 211,153 V -13 C 365,0 646,0 813,0 c 166,0 454,0 608,-13 v 166 c -410,0 -435,25 -435,275 v 1230 c 0,589 358,1030 806,1030 474,0 525,-422 525,-730 V 428 c 0,-244 -26,-275 -435,-275 V -13 c 153,13 435,13 601,13 167,0 455,0 608,-13 v 166 c -409,0 -435,25 -435,275 v 1230 c 0,589 358,1030 806,1030 474,0 525,-422 525,-730 V 428 c 0,-244 -25,-275 -435,-275 V -13 c 154,13 435,13 602,13 166,0 454,0 608,-13 v 166 c -410,0 -436,25 -436,275 z"
               id="CMR17-6d" />
            <path
               style="stroke-linecap:butt;stroke-linejoin:round"
               inkscape:connector-curvature="0"
               transform="scale(0.015625)"
               d="m 1882,2693 v -165 c 377,0 435,-39 435,-342 V 1032 C 2317,500 2029,38 1555,38 1030,38 986,348 986,678 v 2085 l -775,-70 v -165 c 256,0 429,0 435,-254 V 1058 c 0,-425 0,-697 167,-875 83,-82 243,-247 704,-247 544,0 755,441 806,570 h 7 V -63 h 761 v 191 c -377,0 -435,38 -435,345 v 2290 z"
               id="CMR17-75" />
            <path
               style="stroke-linecap:butt;stroke-linejoin:round"
               inkscape:connector-curvature="0"
               transform="scale(0.015625)"
               d="m 979,4396 -761,-70 v -166 c 377,0 435,-38 435,-343 V 426 C 653,184 627,153 218,153 V -13 C 371,0 653,0 813,0 c 166,0 448,0 601,-13 v 166 c -409,0 -435,25 -435,273 z"
               id="CMR17-6c" />
            <path
               style="stroke-linecap:butt;stroke-linejoin:round"
               inkscape:connector-curvature="0"
               transform="scale(0.015625)"
               d="m 1504,-1600 v 223 H 902 v 5921 h 602 v 223 H 678 v -6367 z"
               id="CMR17-5b" />
            <path
               style="stroke-linecap:butt;stroke-linejoin:round"
               inkscape:connector-curvature="0"
               transform="scale(0.015625)"
               d="M 915,4767 H 90 V 4544 H 691 V -1377 H 90 v -223 h 825 z"
               id="CMR17-5d" />
          </defs>
          <use
             height="100%"
             width="100%"
             y="0"
             x="0"
             style="stroke-linecap:butt;stroke-linejoin:round"
             id="use66"
             transform="scale(0.996264)"
             xlink:href="#CMR17-73" />
          <use
             height="100%"
             width="100%"
             y="0"
             x="0"
             style="stroke-linecap:butt;stroke-linejoin:round"
             id="use68"
             transform="matrix(0.996264,0,0,0.996264,35.801338,0)"
             xlink:href="#CMR17-74" />
          <use
             height="100%"
             width="100%"
             y="0"
             x="0"
             style="stroke-linecap:butt;stroke-linejoin:round"
             id="use70"
             transform="matrix(0.996264,0,0,0.996264,71.082105,0)"
             xlink:href="#CMR17-69" />
          <use
             height="100%"
             width="100%"
             y="0"
             x="0"
             style="stroke-linecap:butt;stroke-linejoin:round"
             id="use72"
             transform="matrix(0.996264,0,0,0.996264,95.953164,0)"
             xlink:href="#CMR17-6d" />
          <use
             height="100%"
             width="100%"
             y="0"
             x="0"
             style="stroke-linecap:butt;stroke-linejoin:round"
             id="use74"
             transform="matrix(0.996264,0,0,0.996264,170.2703,0)"
             xlink:href="#CMR17-75" />
          <use
             height="100%"
             width="100%"
             y="0"
             x="0"
             style="stroke-linecap:butt;stroke-linejoin:round"
             id="use76"
             transform="matrix(0.996264,0,0,0.996264,221.16567,0)"
             xlink:href="#CMR17-6c" />
          <use
             height="100%"
             width="100%"
             y="0"
             x="0"
             style="stroke-linecap:butt;stroke-linejoin:round"
             id="use78"
             transform="matrix(0.996264,0,0,0.996264,246.03673,0)"
             xlink:href="#CMR17-75" />
          <use
             height="100%"
             width="100%"
             y="0"
             x="0"
             style="stroke-linecap:butt;stroke-linejoin:round"
             id="use80"
             transform="matrix(0.996264,0,0,0.996264,296.9321,0)"
             xlink:href="#CMR17-73" />
          <use
             height="100%"
             width="100%"
             y="0"
             x="0"
             style="stroke-linecap:butt;stroke-linejoin:round"
             id="use82"
             transform="matrix(0.996264,0,0,0.996264,362.8094,0)"
             xlink:href="#CMR17-5b" />
          <use
             height="100%"
             width="100%"
             y="0"
             x="0"
             style="stroke-linecap:butt;stroke-linejoin:round"
             id="use84"
             transform="matrix(0.996264,0,0,0.996264,387.68046,0)"
             xlink:href="#CMR17-6d" />
          <use
             height="100%"
             width="100%"
             y="0"
             x="0"
             style="stroke-linecap:butt;stroke-linejoin:round"
             id="use86"
             transform="matrix(0.996264,0,0,0.996264,464.60005,0)"
             xlink:href="#CMR17-73" />
          <use
             height="100%"
             width="100%"
             y="0"
             x="0"
             style="stroke-linecap:butt;stroke-linejoin:round"
             id="use88"
             transform="matrix(0.996264,0,0,0.996264,500.40139,0)"
             xlink:href="#CMR17-5d" />
        </g>
      </g>
    </g>
    <g
       style="stroke-linecap:butt;stroke-linejoin:round"
       id="matplotlib.axis_2">
      <g
         style="stroke-linecap:butt;stroke-linejoin:round"
         id="ytick_1">
        <g
           style="stroke-linecap:butt;stroke-linejoin:round"
           id="line2d_3">
          <defs
             id="defs95">
            <path
               inkscape:connector-curvature="0"
               style="stroke:#000000;stroke-width:0.80000001;stroke-linecap:butt;stroke-linejoin:round"
               d="M 0,0 H -3.5"
               id="ma95465ccee" />
          </defs>
          <g
             style="stroke-linecap:butt;stroke-linejoin:round"
             id="g99">
            <use
               height="100%"
               width="100%"
               id="use97"
               style="stroke:#000000;stroke-width:0.80000001;stroke-linecap:butt;stroke-linejoin:round"
               y="56.755878"
               x="47.423786"
               xlink:href="#ma95465ccee" />
          </g>
        </g>
        <g
           style="stroke-linecap:butt;stroke-linejoin:round"
           id="text_4">
          <!-- $\mathdefault{1.04}$ -->
          <g
             style="stroke-linecap:butt;stroke-linejoin:round"
             id="g114"
             transform="matrix(0.11,0,0,-0.11,20.941241,60.561052)">
            <defs
               id="defs104">
              <path
                 style="stroke-linecap:butt;stroke-linejoin:round"
                 inkscape:connector-curvature="0"
                 transform="scale(0.015625)"
                 d="M 1178,307 C 1178,492 1024,619 870,619 685,619 557,466 557,313 557,128 710,0 864,0 c 186,0 314,153 314,307 z"
                 id="CMMI12-3a" />
              <path
                 style="stroke-linecap:butt;stroke-linejoin:round"
                 inkscape:connector-curvature="0"
                 transform="scale(0.015625)"
                 d="m 2150,4122 c 0,134 -6,134 -121,134 L 128,1254 V 1088 H 1779 V 457 c 0,-233 -13,-297 -461,-297 H 1197 V 0 c 205,0 550,0 768,0 217,0 563,0 768,0 v 160 h -122 c -448,0 -461,64 -461,297 v 631 h 653 v 166 H 2150 Z M 1798,3703 V 1254 H 256 Z"
                 id="CMR17-34" />
            </defs>
            <use
               height="100%"
               width="100%"
               y="0"
               x="0"
               style="stroke-linecap:butt;stroke-linejoin:round"
               id="use106"
               transform="scale(0.996264)"
               xlink:href="#CMR17-31" />
            <use
               height="100%"
               width="100%"
               y="0"
               x="0"
               style="stroke-linecap:butt;stroke-linejoin:round"
               id="use108"
               transform="matrix(0.996264,0,0,0.996264,45.690477,0)"
               xlink:href="#CMMI12-3a" />
            <use
               height="100%"
               width="100%"
               y="0"
               x="0"
               style="stroke-linecap:butt;stroke-linejoin:round"
               id="use110"
               transform="matrix(0.996264,0,0,0.996264,72.787654,0)"
               xlink:href="#CMR17-30" />
            <use
               height="100%"
               width="100%"
               y="0"
               x="0"
               style="stroke-linecap:butt;stroke-linejoin:round"
               id="use112"
               transform="matrix(0.996264,0,0,0.996264,118.47813,0)"
               xlink:href="#CMR17-34" />
          </g>
        </g>
      </g>
      <g
         style="stroke-linecap:butt;stroke-linejoin:round"
         id="ytick_2">
        <g
           style="stroke-linecap:butt;stroke-linejoin:round"
           id="line2d_4">
          <g
             style="stroke-linecap:butt;stroke-linejoin:round"
             id="g120">
            <use
               height="100%"
               width="100%"
               id="use118"
               style="stroke:#000000;stroke-width:0.80000001;stroke-linecap:butt;stroke-linejoin:round"
               y="21.232569"
               x="47.423786"
               xlink:href="#ma95465ccee" />
          </g>
        </g>
        <g
           style="stroke-linecap:butt;stroke-linejoin:round"
           id="text_5">
          <!-- $\mathdefault{1.06}$ -->
          <g
             style="stroke-linecap:butt;stroke-linejoin:round"
             id="g134"
             transform="matrix(0.11,0,0,-0.11,20.941241,25.037743)">
            <defs
               id="defs124">
              <path
                 style="stroke-linecap:butt;stroke-linejoin:round"
                 inkscape:connector-curvature="0"
                 transform="scale(0.015625)"
                 d="m 678,2176 c 0,1514 717,1856 1133,1856 135,0 461,-23 589,-256 -102,0 -294,0 -294,-223 0,-172 140,-230 230,-230 58,0 230,25 230,237 0,394 -320,619 -761,619 -762,0 -1562,-789 -1562,-2195 0,-1731 723,-2112 1235,-2112 621,0 1210,555 1210,1411 0,798 -518,1379 -1171,1379 -391,0 -679,-255 -839,-702 z M 1478,25 c -787,0 -787,1175 -787,1411 0,460 218,1124 813,1124 109,0 422,0 634,-440 115,-250 115,-511 115,-831 0,-345 0,-599 -135,-855 C 1978,171 1773,25 1478,25 Z"
                 id="CMR17-36" />
            </defs>
            <use
               height="100%"
               width="100%"
               y="0"
               x="0"
               style="stroke-linecap:butt;stroke-linejoin:round"
               id="use126"
               transform="scale(0.996264)"
               xlink:href="#CMR17-31" />
            <use
               height="100%"
               width="100%"
               y="0"
               x="0"
               style="stroke-linecap:butt;stroke-linejoin:round"
               id="use128"
               transform="matrix(0.996264,0,0,0.996264,45.690477,0)"
               xlink:href="#CMMI12-3a" />
            <use
               height="100%"
               width="100%"
               y="0"
               x="0"
               style="stroke-linecap:butt;stroke-linejoin:round"
               id="use130"
               transform="matrix(0.996264,0,0,0.996264,72.787654,0)"
               xlink:href="#CMR17-30" />
            <use
               height="100%"
               width="100%"
               y="0"
               x="0"
               style="stroke-linecap:butt;stroke-linejoin:round"
               id="use132"
               transform="matrix(0.996264,0,0,0.996264,118.47813,0)"
               xlink:href="#CMR17-36" />
          </g>
        </g>
      </g>
      <g
         style="stroke-linecap:butt;stroke-linejoin:round"
         id="text_6">
        <!-- mean $I$ -->
        <g
           style="stroke-linecap:butt;stroke-linejoin:round"
           id="g154"
           transform="matrix(0,-0.11,-0.11,0,14.810347,61.290512)">
          <defs
             id="defs142">
            <path
               style="stroke-linecap:butt;stroke-linejoin:round"
               inkscape:connector-curvature="0"
               transform="scale(0.015625)"
               d="m 2438,1472 c 26,26 26,39 26,104 0,662 -346,1240 -1075,1240 C 710,2816 173,2169 173,1383 173,551 781,-64 1459,-64 c 717,0 999,671 999,804 0,44 -39,44 -52,44 -44,0 -51,-13 -76,-88 C 2189,265 1837,51 1504,51 1229,51 954,203 781,480 582,803 582,1176 582,1472 Z m -1849,96 c 45,937 537,1146 793,1146 436,0 730,-417 736,-1146 z"
               id="CMR17-65" />
            <path
               style="stroke-linecap:butt;stroke-linejoin:round"
               inkscape:connector-curvature="0"
               transform="scale(0.015625)"
               d="m 2304,1653 c 0,419 0,641 -269,890 -237,209 -512,273 -729,273 -506,0 -871,-409 -871,-845 0,-243 192,-243 231,-243 83,0 230,50 230,226 0,158 -122,227 -230,227 -26,0 -58,-7 -77,-13 134,424 480,546 704,546 320,0 672,-285 672,-829 V 1600 C 1587,1600 1133,1549 774,1357 371,1133 256,813 256,570 256,77 832,-64 1171,-64 c 352,0 679,203 819,575 13,-278 192,-529 474,-529 134,0 474,88 474,585 V 920 H 2822 V 562 c 0,-384 -172,-434 -256,-434 -262,0 -262,330 -262,610 z M 1965,870 C 1965,317 1568,38 1216,38 896,38 646,275 646,570 c 0,191 84,530 455,735 307,173 659,199 864,199 z"
               id="CMR17-61" />
            <path
               style="stroke-linecap:butt;stroke-linejoin:round"
               inkscape:connector-curvature="0"
               transform="scale(0.015625)"
               d="m 2656,1933 c 0,326 -64,857 -819,857 -506,0 -768,-390 -864,-646 h -7 v 646 l -755,-70 v -166 c 378,0 435,-39 435,-346 V 428 C 646,184 621,153 211,153 V -13 C 365,0 646,0 813,0 c 166,0 454,0 608,-13 v 166 c -410,0 -435,25 -435,275 v 1230 c 0,589 358,1030 806,1030 474,0 525,-422 525,-730 V 428 c 0,-244 -26,-275 -435,-275 V -13 c 153,13 435,13 601,13 167,0 455,0 608,-13 v 166 c -409,0 -435,25 -435,275 z"
               id="CMR17-6e" />
            <path
               style="stroke-linecap:butt;stroke-linejoin:round"
               inkscape:connector-curvature="0"
               transform="scale(0.015625)"
               d="m 2355,3880 c 58,223 71,287 538,287 141,0 192,0 192,121 0,64 -71,64 -90,64 -115,0 -256,0 -371,0 h -787 c -128,0 -275,0 -403,0 -52,0 -122,0 -122,-121 0,-64 51,-64 179,-64 397,0 397,-51 397,-121 0,-44 -13,-83 -26,-140 L 998,472 C 941,249 928,185 461,185 320,185 262,185 262,64 262,0 326,0 358,0 474,0 614,0 730,0 h 787 c 128,0 269,0 397,0 51,0 128,0 128,115 0,70 -39,70 -180,70 -396,0 -396,51 -396,127 0,13 0,45 25,147 z"
               id="CMMI12-49" />
          </defs>
          <use
             height="100%"
             width="100%"
             y="0"
             x="0"
             style="stroke-linecap:butt;stroke-linejoin:round"
             id="use144"
             transform="scale(0.996264)"
             xlink:href="#CMR17-6d" />
          <use
             height="100%"
             width="100%"
             y="0"
             x="0"
             style="stroke-linecap:butt;stroke-linejoin:round"
             id="use146"
             transform="matrix(0.996264,0,0,0.996264,76.91959,0)"
             xlink:href="#CMR17-65" />
          <use
             height="100%"
             width="100%"
             y="0"
             x="0"
             style="stroke-linecap:butt;stroke-linejoin:round"
             id="use148"
             transform="matrix(0.996264,0,0,0.996264,117.40525,0)"
             xlink:href="#CMR17-61" />
          <use
             height="100%"
             width="100%"
             y="0"
             x="0"
             style="stroke-linecap:butt;stroke-linejoin:round"
             id="use150"
             transform="matrix(0.996264,0,0,0.996264,163.09573,0)"
             xlink:href="#CMR17-6e" />
          <use
             height="100%"
             width="100%"
             y="0"
             x="0"
             style="stroke-linecap:butt;stroke-linejoin:round"
             id="use152"
             transform="matrix(0.996264,0,0,0.996264,244.06706,0)"
             xlink:href="#CMMI12-49" />
        </g>
      </g>
    </g>
    <g
       style="stroke-linecap:butt;stroke-linejoin:round"
       id="line2d_5">
      <path
         inkscape:connector-curvature="0"
         id="path158"
         style="fill:none;stroke:#000000;stroke-width:1.5;stroke-linecap:square;stroke-linejoin:round"
         clip-path="url(#pe5634d2711)"
         d="m 50.793331,10.569993 5.615909,11.085692 5.61591,9.582353 5.61591,8.181428 5.615909,8.949124 5.61591,8.556242 5.61591,4.665203" />
    </g>
    <g
       style="stroke-linecap:butt;stroke-linejoin:round"
       id="line2d_6">
      <path
         inkscape:connector-curvature="0"
         id="path161"
         style="fill:none;stroke:#808080;stroke-width:1.5;stroke-linecap:square;stroke-linejoin:round"
         clip-path="url(#pe5634d2711)"
         d="m 84.488789,58.062223 5.615909,3.258276 5.61591,5.748238 5.615912,2.511842 5.61591,3.283903 5.61591,2.323323 5.61591,2.782056" />
    </g>
    <g
       style="stroke-linecap:butt;stroke-linejoin:round"
       id="patch_3">
      <path
         inkscape:connector-curvature="0"
         id="path164"
         style="fill:none;stroke:#000000;stroke-width:0.80000001;stroke-linecap:square;stroke-linejoin:miter"
         d="M 47.423785,81.339855 V 7.2" />
    </g>
    <g
       style="stroke-linecap:butt;stroke-linejoin:round"
       id="patch_4">
      <path
         inkscape:connector-curvature="0"
         id="path167"
         style="fill:none;stroke:#000000;stroke-width:0.80000001;stroke-linecap:square;stroke-linejoin:miter"
         d="M 47.423785,81.339855 H 121.55379" />
    </g>
  </g>
  <defs
     id="defs175">
    <clipPath
       id="pe5634d2711"
       style="stroke-linecap:butt;stroke-linejoin:round">
      <rect
         x="47.423786"
         y="7.1999998"
         width="74.130005"
         height="74.139854"
         id="rect172"
         style="stroke-linecap:butt;stroke-linejoin:round" />
    </clipPath>
  </defs>
</svg>
