<?xml version="1.0" encoding="utf-8" standalone="no"?>
<!DOCTYPE svg PUBLIC "-//W3C//DTD SVG 1.1//EN"
  "http://www.w3.org/Graphics/SVG/1.1/DTD/svg11.dtd">
<svg xmlns:xlink="http://www.w3.org/1999/xlink" width="221.04pt" height="199.44pt" viewBox="0 0 221.04 199.44" xmlns="http://www.w3.org/2000/svg" version="1.1">
 <metadata>
  <rdf:RDF xmlns:dc="http://purl.org/dc/elements/1.1/" xmlns:cc="http://creativecommons.org/ns#" xmlns:rdf="http://www.w3.org/1999/02/22-rdf-syntax-ns#">
   <cc:Work>
    <dc:type rdf:resource="http://purl.org/dc/dcmitype/StillImage"/>
    <dc:date>2022-09-23T11:19:39.539503</dc:date>
    <dc:format>image/svg+xml</dc:format>
    <dc:creator>
     <cc:Agent>
      <dc:title>Matplotlib v3.5.1, https://matplotlib.org/</dc:title>
     </cc:Agent>
    </dc:creator>
   </cc:Work>
  </rdf:RDF>
 </metadata>
 <defs>
  <style type="text/css">*{stroke-linejoin: round; stroke-linecap: butt}</style>
 </defs>
 <g id="figure_1">
  <g id="patch_1">
   <path d="M 0 199.44 
L 221.04 199.44 
L 221.04 0 
L 0 0 
L 0 199.44 
z
" style="fill: none"/>
  </g>
  <g id="axes_1">
   <g id="patch_2">
    <path d="M 47.423785 33.999964 
L 213.84 33.999964 
L 213.84 7.2 
L 47.423785 7.2 
z
" style="fill: #ffffff"/>
   </g>
   <g id="patch_3">
    <path d="M 68.616106 33.999964 
L 68.616106 7.2 
L 79.311457 7.2 
L 79.311457 33.999964 
z
" clip-path="url(#p24557fd180)" style="fill: #cd5c5c; opacity: 0.2"/>
   </g>
   <g id="patch_4">
    <path d="M 57.230732 33.999964 
L 57.230732 7.2 
L 68.616106 7.2 
L 68.616106 33.999964 
z
" clip-path="url(#p24557fd180)" style="fill: #4682b4; opacity: 0.2"/>
   </g>
   <g id="patch_5">
    <path d="M 100.357148 33.999964 
L 100.357148 7.2 
L 109.84496 7.2 
L 109.84496 33.999964 
z
" clip-path="url(#p24557fd180)" style="fill: #cd5c5c; opacity: 0.2"/>
   </g>
   <g id="patch_6">
    <path d="M 91.559359 33.999964 
L 91.559359 7.2 
L 100.357148 7.2 
L 100.357148 33.999964 
z
" clip-path="url(#p24557fd180)" style="fill: #4682b4; opacity: 0.2"/>
   </g>
   <g id="patch_7">
    <path d="M 132.615708 33.999964 
L 132.615708 7.2 
L 141.068485 7.2 
L 141.068485 33.999964 
z
" clip-path="url(#p24557fd180)" style="fill: #cd5c5c; opacity: 0.2"/>
   </g>
   <g id="patch_8">
    <path d="M 122.092862 33.999964 
L 122.092862 7.2 
L 132.615708 7.2 
L 132.615708 33.999964 
z
" clip-path="url(#p24557fd180)" style="fill: #4682b4; opacity: 0.2"/>
   </g>
   <g id="patch_9">
    <path d="M 165.56429 33.999964 
L 165.56429 7.2 
L 176.087135 7.2 
L 176.087135 33.999964 
z
" clip-path="url(#p24557fd180)" style="fill: #cd5c5c; opacity: 0.2"/>
   </g>
   <g id="patch_10">
    <path d="M 153.316387 33.999964 
L 153.316387 7.2 
L 165.56429 7.2 
L 165.56429 33.999964 
z
" clip-path="url(#p24557fd180)" style="fill: #4682b4; opacity: 0.2"/>
   </g>
   <g id="patch_11">
    <path d="M 196.270298 33.999964 
L 196.270298 7.2 
L 205.930615 7.2 
L 205.930615 33.999964 
z
" clip-path="url(#p24557fd180)" style="fill: #cd5c5c; opacity: 0.2"/>
   </g>
   <g id="patch_12">
    <path d="M 188.335037 33.999964 
L 188.335037 7.2 
L 196.270298 7.2 
L 196.270298 33.999964 
z
" clip-path="url(#p24557fd180)" style="fill: #4682b4; opacity: 0.2"/>
   </g>
   <g id="matplotlib.axis_1">
    <g id="xtick_1">
     <g id="line2d_1">
      <defs>
       <path id="mabd96e3799" d="M 0 0 
L 0 3.5 
" style="stroke: #000000; stroke-width: 0.8"/>
      </defs>
      <g>
       <use xlink:href="#mabd96e3799" x="54.988158" y="33.999964" style="stroke: #000000; stroke-width: 0.8"/>
      </g>
     </g>
    </g>
    <g id="xtick_2">
     <g id="line2d_2">
      <g>
       <use xlink:href="#mabd96e3799" x="89.489291" y="33.999964" style="stroke: #000000; stroke-width: 0.8"/>
      </g>
     </g>
    </g>
    <g id="xtick_3">
     <g id="line2d_3">
      <g>
       <use xlink:href="#mabd96e3799" x="123.990424" y="33.999964" style="stroke: #000000; stroke-width: 0.8"/>
      </g>
     </g>
    </g>
    <g id="xtick_4">
     <g id="line2d_4">
      <g>
       <use xlink:href="#mabd96e3799" x="158.491557" y="33.999964" style="stroke: #000000; stroke-width: 0.8"/>
      </g>
     </g>
    </g>
    <g id="xtick_5">
     <g id="line2d_5">
      <g>
       <use xlink:href="#mabd96e3799" x="192.99269" y="33.999964" style="stroke: #000000; stroke-width: 0.8"/>
      </g>
     </g>
    </g>
   </g>
   <g id="matplotlib.axis_2">
    <g id="ytick_1">
     <g id="line2d_6">
      <defs>
       <path id="m18b4c4eb45" d="M 0 0 
L -3.5 0 
" style="stroke: #000000; stroke-width: 0.8"/>
      </defs>
      <g>
       <use xlink:href="#m18b4c4eb45" x="47.423785" y="31.183809" style="stroke: #000000; stroke-width: 0.8"/>
      </g>
     </g>
     <g id="text_1">
      <!-- $\mathdefault{0.85}$ -->
      <g transform="translate(20.941241 34.988982)scale(0.11 -0.11)">
       <defs>
        <path id="CMR17-30" d="M 2688 2025 
C 2688 2416 2682 3080 2413 3591 
C 2176 4039 1798 4198 1466 4198 
C 1158 4198 768 4058 525 3597 
C 269 3118 243 2524 243 2025 
C 243 1661 250 1106 448 619 
C 723 -39 1216 -128 1466 -128 
C 1760 -128 2208 -7 2470 600 
C 2662 1042 2688 1559 2688 2025 
z
M 1466 -26 
C 1056 -26 813 325 723 812 
C 653 1188 653 1738 653 2096 
C 653 2588 653 2997 736 3387 
C 858 3929 1216 4096 1466 4096 
C 1728 4096 2067 3923 2189 3400 
C 2272 3036 2278 2607 2278 2096 
C 2278 1680 2278 1169 2202 792 
C 2067 95 1690 -26 1466 -26 
z
" transform="scale(0.015625)"/>
        <path id="CMMI12-3a" d="M 1178 307 
C 1178 492 1024 619 870 619 
C 685 619 557 466 557 313 
C 557 128 710 0 864 0 
C 1050 0 1178 153 1178 307 
z
" transform="scale(0.015625)"/>
        <path id="CMR17-38" d="M 1741 2264 
C 2144 2467 2554 2773 2554 3263 
C 2554 3841 1990 4179 1472 4179 
C 890 4179 378 3759 378 3180 
C 378 3021 416 2747 666 2505 
C 730 2442 998 2251 1171 2130 
C 883 1983 211 1634 211 934 
C 211 279 838 -128 1459 -128 
C 2144 -128 2720 362 2720 1010 
C 2720 1590 2330 1857 2074 2029 
L 1741 2264 
z
M 902 2822 
C 851 2854 595 3051 595 3351 
C 595 3739 998 4032 1459 4032 
C 1965 4032 2336 3676 2336 3262 
C 2336 2669 1670 2331 1638 2331 
C 1632 2331 1626 2331 1574 2370 
L 902 2822 
z
M 2080 1519 
C 2176 1449 2483 1240 2483 851 
C 2483 381 2010 25 1472 25 
C 890 25 448 438 448 940 
C 448 1443 838 1862 1280 2060 
L 2080 1519 
z
" transform="scale(0.015625)"/>
        <path id="CMR17-35" d="M 730 3692 
C 794 3666 1056 3584 1325 3584 
C 1920 3584 2246 3911 2432 4100 
C 2432 4157 2432 4192 2394 4192 
C 2387 4192 2374 4192 2323 4163 
C 2099 4058 1837 3973 1517 3973 
C 1325 3973 1037 3999 723 4139 
C 653 4171 640 4171 634 4171 
C 602 4171 595 4164 595 4037 
L 595 2203 
C 595 2089 595 2057 659 2057 
C 691 2057 704 2070 736 2114 
C 941 2401 1222 2522 1542 2522 
C 1766 2522 2246 2382 2246 1289 
C 2246 1085 2246 715 2054 421 
C 1894 159 1645 25 1370 25 
C 947 25 518 320 403 814 
C 429 807 480 795 506 795 
C 589 795 749 840 749 1038 
C 749 1210 627 1280 506 1280 
C 358 1280 262 1190 262 1011 
C 262 454 704 -128 1382 -128 
C 2042 -128 2669 440 2669 1264 
C 2669 2030 2170 2624 1549 2624 
C 1222 2624 947 2503 730 2274 
L 730 3692 
z
" transform="scale(0.015625)"/>
       </defs>
       <use xlink:href="#CMR17-30" transform="scale(0.996264)"/>
       <use xlink:href="#CMMI12-3a" transform="translate(45.690477 0)scale(0.996264)"/>
       <use xlink:href="#CMR17-38" transform="translate(72.787654 0)scale(0.996264)"/>
       <use xlink:href="#CMR17-35" transform="translate(118.478131 0)scale(0.996264)"/>
      </g>
     </g>
    </g>
    <g id="ytick_2">
     <g id="line2d_7">
      <g>
       <use xlink:href="#m18b4c4eb45" x="47.423785" y="11.078335" style="stroke: #000000; stroke-width: 0.8"/>
      </g>
     </g>
     <g id="text_2">
      <!-- $\mathdefault{0.90}$ -->
      <g transform="translate(20.941241 14.883508)scale(0.11 -0.11)">
       <defs>
        <path id="CMR17-39" d="M 2253 1864 
C 2253 464 1670 31 1190 31 
C 1043 31 685 31 538 294 
C 704 268 826 357 826 518 
C 826 692 685 749 595 749 
C 538 749 365 723 365 506 
C 365 71 742 -128 1203 -128 
C 1939 -128 2688 674 2688 2073 
C 2688 3817 1971 4179 1485 4179 
C 851 4179 243 3628 243 2778 
C 243 1991 762 1408 1414 1408 
C 1952 1408 2189 1903 2253 2112 
L 2253 1864 
z
M 1427 1510 
C 1254 1510 1011 1542 813 1922 
C 678 2169 678 2461 678 2771 
C 678 3146 678 3405 858 3684 
C 947 3817 1114 4032 1485 4032 
C 2240 4032 2240 2885 2240 2632 
C 2240 2182 2035 1510 1427 1510 
z
" transform="scale(0.015625)"/>
       </defs>
       <use xlink:href="#CMR17-30" transform="scale(0.996264)"/>
       <use xlink:href="#CMMI12-3a" transform="translate(45.690477 0)scale(0.996264)"/>
       <use xlink:href="#CMR17-39" transform="translate(72.787654 0)scale(0.996264)"/>
       <use xlink:href="#CMR17-30" transform="translate(118.478131 0)scale(0.996264)"/>
      </g>
     </g>
    </g>
    <g id="text_3">
     <!-- $u$ -->
     <g transform="translate(14.810347 23.736733)rotate(-90)scale(0.11 -0.11)">
      <defs>
       <path id="CMMI12-75" d="M 2182 370 
C 2266 13 2573 -64 2726 -64 
C 2931 -64 3085 70 3187 287 
C 3296 517 3379 894 3379 913 
C 3379 945 3354 971 3315 971 
C 3258 971 3251 939 3226 843 
C 3110 402 2995 64 2739 64 
C 2547 64 2547 275 2547 358 
C 2547 505 2566 568 2630 837 
C 2675 1009 2720 1181 2758 1360 
L 3021 2401 
C 3066 2561 3066 2574 3066 2593 
C 3066 2689 2989 2753 2893 2753 
C 2707 2753 2662 2593 2624 2433 
C 2560 2184 2214 811 2170 588 
C 2163 588 1914 64 1446 64 
C 1114 64 1050 351 1050 588 
C 1050 952 1229 1462 1395 1890 
C 1472 2095 1504 2178 1504 2305 
C 1504 2580 1306 2816 998 2816 
C 410 2816 173 1890 173 1839 
C 173 1814 198 1782 243 1782 
C 301 1782 307 1807 333 1896 
C 486 2441 736 2682 979 2682 
C 1043 2682 1146 2682 1146 2478 
C 1146 2312 1075 2127 979 1884 
C 698 1124 666 881 666 690 
C 666 38 1158 -64 1421 -64 
C 1830 -64 2054 217 2182 370 
z
" transform="scale(0.015625)"/>
      </defs>
      <use xlink:href="#CMMI12-75" transform="scale(0.996264)"/>
     </g>
    </g>
   </g>
   <g id="line2d_8">
    <path d="M 54.988158 27.523915 
L 55.33317 27.904833 
L 55.850687 28.255926 
L 56.195698 28.744752 
L 56.368204 28.741664 
L 56.713215 29.497319 
L 56.885721 29.622436 
L 57.058226 29.416064 
L 57.230732 29.604905 
L 57.403238 19.815318 
L 57.748249 14.941719 
L 58.09326 12.440441 
L 58.265766 11.954391 
L 58.438272 11.829396 
L 58.610777 11.869191 
L 58.783283 11.739728 
L 58.955789 11.992507 
L 59.128294 12.497686 
L 59.3008 12.639614 
L 59.473306 13.016677 
L 59.818317 14.142515 
L 60.50834 15.759398 
L 61.025857 17.158765 
L 61.715879 18.667284 
L 62.060891 19.431172 
L 62.405902 20.438743 
L 63.26843 21.942013 
L 63.785947 23.057639 
L 63.958453 23.470018 
L 64.130959 23.570778 
L 64.648475 24.448573 
L 64.820981 24.95108 
L 64.993487 25.01631 
L 65.165992 25.234882 
L 65.338498 25.807913 
L 65.683509 25.61596 
L 65.856015 26.146017 
L 66.028521 26.313421 
L 66.373532 26.992687 
L 67.408566 28.600033 
L 67.581072 28.751023 
L 67.926083 29.585549 
L 68.098589 29.372267 
L 68.271094 29.585159 
L 68.4436 29.591121 
L 68.616106 29.851928 
L 68.788611 20.021171 
L 69.133623 14.545937 
L 69.478634 12.298275 
L 69.823645 11.506891 
L 69.996151 11.330324 
L 70.686174 12.664442 
L 71.031185 13.675221 
L 71.376196 14.557093 
L 71.721208 15.573043 
L 71.893713 15.924783 
L 72.41123 17.583764 
L 73.101253 19.298436 
L 73.273759 19.37381 
L 73.61877 20.22087 
L 73.791276 20.558685 
L 73.963781 21.300608 
L 74.136287 21.513746 
L 74.481298 22.126565 
L 74.653804 22.444681 
L 74.82631 22.512439 
L 75.688838 24.648904 
L 75.861344 24.657824 
L 76.378861 25.317911 
L 76.551366 25.444016 
L 77.5864 27.375218 
L 77.931412 28.212766 
L 78.103917 28.206357 
L 78.448929 29.111438 
L 78.621434 29.304944 
L 78.79394 29.328481 
L 79.311457 29.754957 
L 79.483963 19.940362 
L 79.828974 14.644596 
L 80.173985 12.356502 
L 80.346491 11.807462 
L 80.691502 11.766933 
L 81.036514 12.180031 
L 81.209019 12.627469 
L 81.381525 12.761924 
L 82.76157 16.59456 
L 83.451593 18.323319 
L 83.796604 19.292944 
L 83.96911 19.614883 
L 84.141616 19.582622 
L 84.486627 20.246528 
L 85.17665 21.964137 
L 85.521661 22.370896 
L 86.211684 23.450002 
L 86.556695 24.146628 
L 86.729201 24.317723 
L 87.074212 25.067644 
L 87.246718 25.426338 
L 87.591729 25.485057 
L 87.764235 25.839423 
L 87.93674 25.92771 
L 88.971774 27.771873 
L 89.14428 27.828262 
L 89.316786 28.112014 
L 89.489291 28.154917 
L 89.661797 28.321854 
L 89.834303 28.766551 
L 90.179314 28.909566 
L 90.35182 29.078804 
L 90.524325 29.465995 
L 90.696831 29.501612 
L 91.214348 30.168898 
L 91.386854 30.820978 
L 91.559359 30.685787 
L 91.731865 20.716053 
L 92.076876 15.440793 
L 92.421888 13.353839 
L 92.766899 12.716046 
L 93.284416 13.039906 
L 93.629427 13.659685 
L 94.31945 15.510012 
L 94.836967 17.133291 
L 95.009473 17.341468 
L 96.217012 20.107633 
L 97.252046 21.93447 
L 97.597058 22.411376 
L 98.114575 23.576893 
L 98.459586 24.096226 
L 98.977103 25.190474 
L 99.149609 25.326424 
L 100.012137 26.724399 
L 100.184643 26.926029 
L 100.357148 27.376705 
L 100.529654 17.958485 
L 100.874665 12.399047 
L 101.219677 9.99657 
L 101.392182 9.380634 
L 101.737194 9.509445 
L 102.082205 9.901118 
L 102.427216 11.017379 
L 102.772227 11.906942 
L 103.46225 14.043587 
L 104.324778 16.64184 
L 104.497284 17.382249 
L 104.66979 17.548267 
L 105.187307 19.134838 
L 106.567352 22.93885 
L 107.084869 23.619297 
L 107.42988 24.069526 
L 107.774892 24.563485 
L 107.947397 24.828196 
L 108.292409 25.909326 
L 108.464914 26.36579 
L 108.63742 26.339155 
L 108.982431 27.1019 
L 109.327443 27.369926 
L 109.672454 28.02555 
L 109.84496 28.123836 
L 110.017465 18.581094 
L 110.362477 13.292473 
L 110.707488 11.349342 
L 110.879994 10.985304 
L 111.225005 11.231833 
L 111.397511 11.481118 
L 112.087533 13.099839 
L 112.60505 14.483677 
L 112.950062 15.548062 
L 113.295073 17.059072 
L 113.467579 17.277124 
L 113.985096 18.541238 
L 114.502613 19.36846 
L 114.847624 20.191528 
L 115.192635 20.944318 
L 115.365141 21.144644 
L 115.882658 22.29244 
L 116.400175 23.046002 
L 116.572681 22.998197 
L 117.262703 25.091987 
L 117.435209 25.271849 
L 117.952726 26.168359 
L 118.125232 26.276147 
L 118.642749 27.212426 
L 118.98776 27.992126 
L 119.160266 28.3098 
L 119.332771 28.951914 
L 119.505277 29.160068 
L 119.677783 29.633864 
L 119.850288 29.600362 
L 120.022794 29.35315 
L 120.1953 29.494541 
L 120.712817 30.735818 
L 121.057828 31.162731 
L 121.402839 31.239925 
L 121.747851 32.007226 
L 121.920356 32.133358 
L 122.092862 32.50304 
L 122.265368 22.230431 
L 122.610379 16.875428 
L 122.95539 14.251335 
L 123.127896 13.796895 
L 123.645413 13.905934 
L 123.990424 14.187869 
L 124.335436 14.890553 
L 124.507941 15.075669 
L 125.887987 19.265407 
L 126.060492 19.604946 
L 126.578009 21.445768 
L 126.750515 21.455655 
L 127.613043 23.678159 
L 127.785549 24.297296 
L 127.958055 24.294658 
L 128.648077 25.703283 
L 129.165594 27.06998 
L 129.3381 27.600862 
L 129.510606 27.685761 
L 130.373134 28.802115 
L 130.54564 29.375934 
L 130.718145 29.440054 
L 131.925685 31.512509 
L 132.098191 31.58508 
L 132.443202 32.296424 
L 132.615708 32.781783 
L 132.788213 22.462717 
L 133.133225 17.591275 
L 133.478236 15.088401 
L 133.823247 14.240579 
L 134.168259 14.379949 
L 134.858281 15.451355 
L 135.203293 16.383344 
L 136.755844 19.865515 
L 136.928349 20.047889 
L 137.445866 21.200954 
L 137.618372 21.683669 
L 137.790878 21.821965 
L 138.653406 23.796037 
L 138.825912 24.1053 
L 138.998417 24.78799 
L 139.515934 25.509616 
L 140.205957 27.121741 
L 140.723474 28.636532 
L 140.895979 28.62256 
L 141.068485 28.770974 
L 141.240991 19.120376 
L 141.586002 14.110978 
L 141.931013 12.3603 
L 142.103519 11.838512 
L 142.276025 11.677886 
L 142.793542 12.47511 
L 143.138553 13.138149 
L 143.828576 15.117123 
L 144.001081 15.210156 
L 146.243655 21.246199 
L 146.933678 23.056707 
L 147.106183 23.076225 
L 148.313723 24.995338 
L 149.176251 26.960785 
L 150.211285 28.308964 
L 150.728802 28.779342 
L 150.901308 28.694179 
L 151.418825 29.838851 
L 151.591331 30.405959 
L 151.763836 30.509072 
L 151.936342 30.360764 
L 152.108848 30.39224 
L 152.453859 30.744382 
L 152.626365 31.286615 
L 152.79887 31.407628 
L 153.143882 31.36723 
L 153.316387 31.662618 
L 153.488893 21.53008 
L 153.833904 15.923204 
L 154.178916 13.483107 
L 154.351421 13.007196 
L 154.523927 12.871928 
L 154.868938 13.052923 
L 155.731467 14.981084 
L 156.766501 17.605542 
L 157.456523 18.836891 
L 157.97404 19.928039 
L 158.319052 21.007627 
L 158.664063 21.364773 
L 159.009074 22.23173 
L 159.699097 23.680981 
L 160.38912 24.619702 
L 160.734131 25.648677 
L 160.906637 25.776797 
L 161.251648 26.227769 
L 161.424154 26.312572 
L 161.941671 27.662438 
L 162.114176 27.649162 
L 162.631693 28.21193 
L 162.804199 28.585141 
L 162.976705 29.244427 
L 163.494222 29.859706 
L 163.666727 29.60679 
L 163.839233 30.24617 
L 164.011739 30.368853 
L 164.184244 30.702206 
L 164.529256 30.468791 
L 164.701761 30.946915 
L 164.874267 30.780218 
L 165.56429 31.811254 
L 165.736795 21.653943 
L 166.081807 16.78134 
L 166.426818 14.578922 
L 166.599324 14.073629 
L 167.116841 14.025549 
L 167.634358 15.043578 
L 167.979369 16.137622 
L 168.151875 16.449818 
L 168.496886 17.406291 
L 168.841897 18.097368 
L 170.73946 22.279894 
L 171.084471 22.890239 
L 171.429482 24.010507 
L 173.327045 26.682932 
L 173.49955 26.766649 
L 174.017067 27.72721 
L 175.224607 29.887056 
L 175.569618 30.447077 
L 175.742124 30.267736 
L 176.087135 31.114303 
L 176.259641 21.07315 
L 176.604652 15.742225 
L 176.949664 13.552812 
L 177.294675 12.746056 
L 177.812192 12.923068 
L 178.157203 13.867069 
L 178.502214 14.729355 
L 179.537248 16.287107 
L 179.709754 16.525802 
L 180.054765 17.688193 
L 182.297339 22.788881 
L 182.814856 23.895932 
L 183.159867 24.546024 
L 183.504879 24.653945 
L 183.677384 25.198171 
L 183.84989 25.307753 
L 184.022396 25.674879 
L 184.194901 26.314428 
L 184.367407 26.24876 
L 184.539913 26.408821 
L 184.712418 26.935425 
L 184.884924 27.080945 
L 185.05743 27.454444 
L 185.229935 27.409015 
L 186.264969 29.719054 
L 186.954992 30.478499 
L 187.127498 30.764107 
L 187.472509 30.830147 
L 187.645015 31.033091 
L 187.81752 30.932444 
L 187.990026 31.211086 
L 188.162532 31.188604 
L 188.335037 30.990162 
L 188.507543 20.9697 
L 188.852554 15.746834 
L 189.197566 13.292627 
L 189.370071 12.690769 
L 189.715083 12.354371 
L 190.060094 12.723364 
L 190.405105 13.506964 
L 191.612645 16.643033 
L 191.957656 17.217843 
L 192.99269 19.091184 
L 193.510207 19.848668 
L 194.545241 22.845177 
L 194.717747 22.96348 
L 195.235264 23.809659 
L 195.580275 24.058629 
L 195.752781 24.299584 
L 196.097792 25.005723 
L 196.270298 25.114106 
L 196.442804 16.072986 
L 196.787815 10.872577 
L 197.132826 8.993062 
L 197.305332 8.529761 
L 197.477838 8.41818 
L 197.822849 9.130133 
L 199.720411 15.451206 
L 200.065423 15.997879 
L 200.58294 17.329995 
L 201.272962 19.722168 
L 201.445468 20.299397 
L 201.617974 20.459563 
L 202.135491 21.917741 
L 202.307996 22.011638 
L 203.515536 24.45263 
L 204.205559 26.097452 
L 204.378064 26.37304 
L 204.723076 27.283554 
L 205.413098 27.977557 
L 205.930615 29.484351 
L 206.103121 29.522904 
L 206.103121 29.522904 
" clip-path="url(#p24557fd180)" style="fill: none; stroke: #808080; stroke-width: 1.5; stroke-linecap: square"/>
   </g>
   <g id="LineCollection_1">
    <path d="M 57.230732 32.781783 
L 57.230732 8.41818 
" clip-path="url(#p24557fd180)" style="fill: none; stroke: #808080; stroke-opacity: 0.5; stroke-width: 1.5"/>
    <path d="M 68.616106 32.781783 
L 68.616106 8.41818 
" clip-path="url(#p24557fd180)" style="fill: none; stroke: #808080; stroke-opacity: 0.5; stroke-width: 1.5"/>
    <path d="M 79.311457 32.781783 
L 79.311457 8.41818 
" clip-path="url(#p24557fd180)" style="fill: none; stroke: #808080; stroke-opacity: 0.5; stroke-width: 1.5"/>
    <path d="M 91.559359 32.781783 
L 91.559359 8.41818 
" clip-path="url(#p24557fd180)" style="fill: none; stroke: #808080; stroke-opacity: 0.5; stroke-width: 1.5"/>
    <path d="M 100.357148 32.781783 
L 100.357148 8.41818 
" clip-path="url(#p24557fd180)" style="fill: none; stroke: #808080; stroke-opacity: 0.5; stroke-width: 1.5"/>
    <path d="M 109.84496 32.781783 
L 109.84496 8.41818 
" clip-path="url(#p24557fd180)" style="fill: none; stroke: #808080; stroke-opacity: 0.5; stroke-width: 1.5"/>
    <path d="M 122.092862 32.781783 
L 122.092862 8.41818 
" clip-path="url(#p24557fd180)" style="fill: none; stroke: #808080; stroke-opacity: 0.5; stroke-width: 1.5"/>
    <path d="M 132.615708 32.781783 
L 132.615708 8.41818 
" clip-path="url(#p24557fd180)" style="fill: none; stroke: #808080; stroke-opacity: 0.5; stroke-width: 1.5"/>
    <path d="M 141.068485 32.781783 
L 141.068485 8.41818 
" clip-path="url(#p24557fd180)" style="fill: none; stroke: #808080; stroke-opacity: 0.5; stroke-width: 1.5"/>
    <path d="M 153.316387 32.781783 
L 153.316387 8.41818 
" clip-path="url(#p24557fd180)" style="fill: none; stroke: #808080; stroke-opacity: 0.5; stroke-width: 1.5"/>
    <path d="M 165.56429 32.781783 
L 165.56429 8.41818 
" clip-path="url(#p24557fd180)" style="fill: none; stroke: #808080; stroke-opacity: 0.5; stroke-width: 1.5"/>
    <path d="M 176.087135 32.781783 
L 176.087135 8.41818 
" clip-path="url(#p24557fd180)" style="fill: none; stroke: #808080; stroke-opacity: 0.5; stroke-width: 1.5"/>
    <path d="M 188.335037 32.781783 
L 188.335037 8.41818 
" clip-path="url(#p24557fd180)" style="fill: none; stroke: #808080; stroke-opacity: 0.5; stroke-width: 1.5"/>
    <path d="M 196.270298 32.781783 
L 196.270298 8.41818 
" clip-path="url(#p24557fd180)" style="fill: none; stroke: #808080; stroke-opacity: 0.5; stroke-width: 1.5"/>
    <path d="M 205.930615 32.781783 
L 205.930615 8.41818 
" clip-path="url(#p24557fd180)" style="fill: none; stroke: #808080; stroke-opacity: 0.5; stroke-width: 1.5"/>
   </g>
   <g id="patch_13">
    <path d="M 47.423785 33.999964 
L 47.423785 7.2 
" style="fill: none; stroke: #000000; stroke-width: 0.8; stroke-linejoin: miter; stroke-linecap: square"/>
   </g>
   <g id="patch_14">
    <path d="M 47.423785 33.999964 
L 213.84 33.999964 
" style="fill: none; stroke: #000000; stroke-width: 0.8; stroke-linejoin: miter; stroke-linecap: square"/>
   </g>
  </g>
  <g id="axes_2">
   <g id="patch_15">
    <path d="M 47.423785 76.179927 
L 213.84 76.179927 
L 213.84 49.379964 
L 47.423785 49.379964 
z
" style="fill: #ffffff"/>
   </g>
   <g id="patch_16">
    <path d="M 68.616106 76.179927 
L 68.616106 49.379964 
L 79.311457 49.379964 
L 79.311457 76.179927 
z
" clip-path="url(#p1e3a3b8da1)" style="fill: #cd5c5c; opacity: 0.2"/>
   </g>
   <g id="patch_17">
    <path d="M 57.230732 76.179927 
L 57.230732 49.379964 
L 68.616106 49.379964 
L 68.616106 76.179927 
z
" clip-path="url(#p1e3a3b8da1)" style="fill: #4682b4; opacity: 0.2"/>
   </g>
   <g id="patch_18">
    <path d="M 100.357148 76.179927 
L 100.357148 49.379964 
L 109.84496 49.379964 
L 109.84496 76.179927 
z
" clip-path="url(#p1e3a3b8da1)" style="fill: #cd5c5c; opacity: 0.2"/>
   </g>
   <g id="patch_19">
    <path d="M 91.559359 76.179927 
L 91.559359 49.379964 
L 100.357148 49.379964 
L 100.357148 76.179927 
z
" clip-path="url(#p1e3a3b8da1)" style="fill: #4682b4; opacity: 0.2"/>
   </g>
   <g id="patch_20">
    <path d="M 132.615708 76.179927 
L 132.615708 49.379964 
L 141.068485 49.379964 
L 141.068485 76.179927 
z
" clip-path="url(#p1e3a3b8da1)" style="fill: #cd5c5c; opacity: 0.2"/>
   </g>
   <g id="patch_21">
    <path d="M 122.092862 76.179927 
L 122.092862 49.379964 
L 132.615708 49.379964 
L 132.615708 76.179927 
z
" clip-path="url(#p1e3a3b8da1)" style="fill: #4682b4; opacity: 0.2"/>
   </g>
   <g id="patch_22">
    <path d="M 165.56429 76.179927 
L 165.56429 49.379964 
L 176.087135 49.379964 
L 176.087135 76.179927 
z
" clip-path="url(#p1e3a3b8da1)" style="fill: #cd5c5c; opacity: 0.2"/>
   </g>
   <g id="patch_23">
    <path d="M 153.316387 76.179927 
L 153.316387 49.379964 
L 165.56429 49.379964 
L 165.56429 76.179927 
z
" clip-path="url(#p1e3a3b8da1)" style="fill: #4682b4; opacity: 0.2"/>
   </g>
   <g id="patch_24">
    <path d="M 196.270298 76.179927 
L 196.270298 49.379964 
L 205.930615 49.379964 
L 205.930615 76.179927 
z
" clip-path="url(#p1e3a3b8da1)" style="fill: #cd5c5c; opacity: 0.2"/>
   </g>
   <g id="patch_25">
    <path d="M 188.335037 76.179927 
L 188.335037 49.379964 
L 196.270298 49.379964 
L 196.270298 76.179927 
z
" clip-path="url(#p1e3a3b8da1)" style="fill: #4682b4; opacity: 0.2"/>
   </g>
   <g id="matplotlib.axis_3">
    <g id="xtick_6">
     <g id="line2d_9">
      <g>
       <use xlink:href="#mabd96e3799" x="54.988158" y="76.179927" style="stroke: #000000; stroke-width: 0.8"/>
      </g>
     </g>
    </g>
    <g id="xtick_7">
     <g id="line2d_10">
      <g>
       <use xlink:href="#mabd96e3799" x="89.489291" y="76.179927" style="stroke: #000000; stroke-width: 0.8"/>
      </g>
     </g>
    </g>
    <g id="xtick_8">
     <g id="line2d_11">
      <g>
       <use xlink:href="#mabd96e3799" x="123.990424" y="76.179927" style="stroke: #000000; stroke-width: 0.8"/>
      </g>
     </g>
    </g>
    <g id="xtick_9">
     <g id="line2d_12">
      <g>
       <use xlink:href="#mabd96e3799" x="158.491557" y="76.179927" style="stroke: #000000; stroke-width: 0.8"/>
      </g>
     </g>
    </g>
    <g id="xtick_10">
     <g id="line2d_13">
      <g>
       <use xlink:href="#mabd96e3799" x="192.99269" y="76.179927" style="stroke: #000000; stroke-width: 0.8"/>
      </g>
     </g>
    </g>
   </g>
   <g id="matplotlib.axis_4">
    <g id="ytick_3">
     <g id="line2d_14">
      <g>
       <use xlink:href="#m18b4c4eb45" x="47.423785" y="69.60576" style="stroke: #000000; stroke-width: 0.8"/>
      </g>
     </g>
     <g id="text_4">
      <!-- $\mathdefault{0.65}$ -->
      <g transform="translate(20.941241 73.410933)scale(0.11 -0.11)">
       <defs>
        <path id="CMR17-36" d="M 678 2176 
C 678 3690 1395 4032 1811 4032 
C 1946 4032 2272 4009 2400 3776 
C 2298 3776 2106 3776 2106 3553 
C 2106 3381 2246 3323 2336 3323 
C 2394 3323 2566 3348 2566 3560 
C 2566 3954 2246 4179 1805 4179 
C 1043 4179 243 3390 243 1984 
C 243 253 966 -128 1478 -128 
C 2099 -128 2688 427 2688 1283 
C 2688 2081 2170 2662 1517 2662 
C 1126 2662 838 2407 678 1960 
L 678 2176 
z
M 1478 25 
C 691 25 691 1200 691 1436 
C 691 1896 909 2560 1504 2560 
C 1613 2560 1926 2560 2138 2120 
C 2253 1870 2253 1609 2253 1289 
C 2253 944 2253 690 2118 434 
C 1978 171 1773 25 1478 25 
z
" transform="scale(0.015625)"/>
       </defs>
       <use xlink:href="#CMR17-30" transform="scale(0.996264)"/>
       <use xlink:href="#CMMI12-3a" transform="translate(45.690477 0)scale(0.996264)"/>
       <use xlink:href="#CMR17-36" transform="translate(72.787654 0)scale(0.996264)"/>
       <use xlink:href="#CMR17-35" transform="translate(118.478131 0)scale(0.996264)"/>
      </g>
     </g>
    </g>
    <g id="ytick_4">
     <g id="line2d_15">
      <g>
       <use xlink:href="#m18b4c4eb45" x="47.423785" y="61.984948" style="stroke: #000000; stroke-width: 0.8"/>
      </g>
     </g>
     <g id="text_5">
      <!-- $\mathdefault{0.70}$ -->
      <g transform="translate(20.941241 65.790121)scale(0.11 -0.11)">
       <defs>
        <path id="CMR17-37" d="M 2886 3941 
L 2886 4081 
L 1382 4081 
C 634 4081 621 4165 595 4288 
L 480 4288 
L 294 3094 
L 410 3094 
C 429 3215 474 3540 550 3661 
C 589 3712 1062 3712 1171 3712 
L 2579 3712 
L 1869 2661 
C 1395 1954 1069 999 1069 165 
C 1069 89 1069 -128 1299 -128 
C 1530 -128 1530 89 1530 171 
L 1530 465 
C 1530 1508 1709 2196 2003 2636 
L 2886 3941 
z
" transform="scale(0.015625)"/>
       </defs>
       <use xlink:href="#CMR17-30" transform="scale(0.996264)"/>
       <use xlink:href="#CMMI12-3a" transform="translate(45.690477 0)scale(0.996264)"/>
       <use xlink:href="#CMR17-37" transform="translate(72.787654 0)scale(0.996264)"/>
       <use xlink:href="#CMR17-30" transform="translate(118.478131 0)scale(0.996264)"/>
      </g>
     </g>
    </g>
    <g id="ytick_5">
     <g id="line2d_16">
      <g>
       <use xlink:href="#m18b4c4eb45" x="47.423785" y="54.364135" style="stroke: #000000; stroke-width: 0.8"/>
      </g>
     </g>
     <g id="text_6">
      <!-- $\mathdefault{0.75}$ -->
      <g transform="translate(20.941241 58.169309)scale(0.11 -0.11)">
       <use xlink:href="#CMR17-30" transform="scale(0.996264)"/>
       <use xlink:href="#CMMI12-3a" transform="translate(45.690477 0)scale(0.996264)"/>
       <use xlink:href="#CMR17-37" transform="translate(72.787654 0)scale(0.996264)"/>
       <use xlink:href="#CMR17-35" transform="translate(118.478131 0)scale(0.996264)"/>
      </g>
     </g>
    </g>
    <g id="text_7">
     <!-- $v$ -->
     <g transform="translate(14.810347 65.435963)rotate(-90)scale(0.11 -0.11)">
      <defs>
       <path id="CMMI12-76" d="M 2925 2389 
C 2925 2791 2720 2816 2669 2816 
C 2515 2816 2374 2663 2374 2535 
C 2374 2459 2419 2414 2445 2389 
C 2509 2331 2675 2159 2675 1827 
C 2675 1558 2291 64 1523 64 
C 1133 64 1056 390 1056 626 
C 1056 945 1203 1392 1376 1852 
C 1478 2114 1504 2178 1504 2305 
C 1504 2574 1312 2816 998 2816 
C 410 2816 173 1890 173 1839 
C 173 1814 198 1782 243 1782 
C 301 1782 307 1807 333 1897 
C 486 2446 736 2689 979 2689 
C 1037 2689 1146 2689 1146 2478 
C 1146 2312 1075 2127 979 1884 
C 672 1067 672 869 672 715 
C 672 575 691 313 890 134 
C 1120 -64 1440 -64 1498 -64 
C 2560 -64 2925 2024 2925 2389 
z
" transform="scale(0.015625)"/>
      </defs>
      <use xlink:href="#CMMI12-76" transform="scale(0.996264)"/>
     </g>
    </g>
   </g>
   <g id="line2d_17">
    <path d="M 54.988158 56.242848 
L 55.850687 55.770991 
L 56.368204 55.081787 
L 56.713215 55.098251 
L 56.885721 55.061756 
L 57.058226 55.18025 
L 57.230732 55.083941 
L 57.403238 74.016004 
L 57.748249 70.353211 
L 58.265766 66.764251 
L 59.128294 64.444502 
L 59.990823 62.945526 
L 60.163328 62.668008 
L 60.50834 61.892447 
L 62.405902 59.53526 
L 62.923419 59.248444 
L 63.613442 58.32927 
L 63.958453 57.976451 
L 64.303464 57.659608 
L 64.47597 57.690111 
L 64.648475 57.497603 
L 64.993487 57.406545 
L 65.856015 56.696611 
L 66.028521 56.65969 
L 66.546038 56.175299 
L 66.718543 56.10586 
L 67.408566 55.329744 
L 67.926083 55.267927 
L 68.616106 54.95521 
L 68.788611 73.908729 
L 69.306128 68.149294 
L 69.996151 64.60851 
L 70.686174 62.919884 
L 72.756242 59.393226 
L 72.928747 59.400419 
L 73.273759 58.919567 
L 73.446264 58.893857 
L 73.963781 58.21767 
L 74.82631 57.404989 
L 75.171321 56.843222 
L 76.033849 56.385554 
L 76.206355 56.33783 
L 76.378861 56.479384 
L 76.723872 56.100486 
L 77.413895 55.752568 
L 77.758906 55.265211 
L 78.621434 54.565761 
L 78.966446 54.224508 
L 79.138951 54.350258 
L 79.311457 54.144588 
L 79.483963 73.23321 
L 80.00148 67.800304 
L 80.346491 65.888667 
L 80.864008 64.061136 
L 81.381525 62.737591 
L 81.554031 62.510825 
L 81.899042 61.739807 
L 82.071548 61.589195 
L 82.244053 61.195258 
L 82.416559 61.095613 
L 82.934076 60.312526 
L 83.796604 59.240822 
L 83.96911 59.147534 
L 84.314121 58.464582 
L 85.521661 57.63715 
L 86.384189 56.610966 
L 86.556695 56.644961 
L 87.074212 56.339165 
L 87.246718 56.330796 
L 88.454257 55.581548 
L 88.626763 55.718282 
L 89.14428 55.263342 
L 89.316786 55.314291 
L 89.661797 54.826237 
L 89.834303 54.855713 
L 90.179314 54.449054 
L 90.524325 54.42745 
L 91.559359 53.635845 
L 91.731865 72.809257 
L 92.249382 67.314179 
L 92.766899 64.693736 
L 93.456922 62.7208 
L 95.52699 59.449012 
L 95.872001 59.110266 
L 96.734529 58.00926 
L 97.252046 57.732462 
L 97.424552 57.719906 
L 98.459586 56.721242 
L 99.667126 55.696151 
L 100.184643 55.121448 
L 100.357148 54.876393 
L 100.529654 73.843047 
L 100.874665 69.293238 
L 101.392182 65.38034 
L 101.909699 63.132415 
L 102.427216 61.998542 
L 103.117239 60.307853 
L 103.979767 58.965782 
L 104.497284 58.360249 
L 104.842295 57.828136 
L 105.187307 57.063512 
L 105.877329 56.248302 
L 106.222341 55.894861 
L 107.084869 54.864674 
L 107.774892 54.59123 
L 108.119903 54.155544 
L 108.63742 53.628368 
L 109.84496 52.758032 
L 110.017465 72.077746 
L 110.362477 67.686545 
L 110.879994 64.297085 
L 111.397511 62.329453 
L 112.087533 60.503502 
L 112.432545 60.09765 
L 112.777556 59.123771 
L 113.122567 58.768404 
L 113.467579 58.306523 
L 113.640084 58.113101 
L 113.985096 57.353569 
L 114.675118 56.591341 
L 114.847624 56.317658 
L 115.02013 56.31272 
L 115.192635 56.094025 
L 115.365141 56.100803 
L 116.227669 55.269296 
L 116.400175 54.936181 
L 116.745186 54.7418 
L 117.435209 54.086695 
L 117.78022 53.903301 
L 117.952726 53.827731 
L 118.297737 53.381203 
L 118.470243 53.211784 
L 118.642749 52.827993 
L 121.057828 51.496435 
L 121.230334 51.682281 
L 121.747851 51.217052 
L 121.920356 51.23242 
L 122.092862 50.963042 
L 122.265368 70.581922 
L 122.782885 64.802751 
L 123.300402 62.115602 
L 123.817919 60.659499 
L 124.680447 58.832678 
L 125.37047 57.843424 
L 126.060492 56.870485 
L 126.923021 55.649674 
L 127.268032 55.27754 
L 127.440538 55.194061 
L 127.958055 54.550601 
L 128.475572 54.188904 
L 128.820583 53.665568 
L 128.993089 53.632384 
L 129.683111 52.996278 
L 130.028123 52.919282 
L 130.54564 52.425726 
L 130.718145 52.394101 
L 131.753179 51.266651 
L 132.615708 50.598144 
L 132.788213 70.27784 
L 133.30573 65.377442 
L 133.650742 63.588807 
L 134.168259 61.785658 
L 134.51327 61.1618 
L 134.858281 60.469364 
L 135.030787 60.36167 
L 135.548304 59.396484 
L 136.928349 57.803214 
L 137.273361 57.363885 
L 137.618372 56.726184 
L 138.308395 55.917821 
L 138.653406 55.866527 
L 138.998417 55.425849 
L 139.68844 54.879305 
L 140.033451 54.275391 
L 140.205957 54.178318 
L 140.378462 53.84715 
L 140.550968 53.924617 
L 141.068485 53.553809 
L 141.240991 72.740894 
L 141.758508 67.140004 
L 142.276025 64.334177 
L 143.483564 61.235411 
L 145.036115 58.680605 
L 145.381127 58.428729 
L 145.553632 58.082995 
L 145.726138 58.142952 
L 147.278689 56.35198 
L 147.451195 56.319391 
L 147.6237 56.023665 
L 147.968712 55.81685 
L 148.658734 54.735711 
L 149.521263 54.438408 
L 150.03878 53.926597 
L 150.901308 53.668135 
L 151.246319 53.392751 
L 151.763836 53.245526 
L 151.936342 53.16389 
L 152.108848 52.86719 
L 152.626365 52.70823 
L 153.143882 52.354693 
L 153.316387 52.322038 
L 153.488893 71.714419 
L 153.833904 67.607915 
L 154.351421 64.269848 
L 154.696433 62.943617 
L 155.558961 60.852339 
L 155.903972 60.48217 
L 156.421489 59.422227 
L 156.766501 58.913869 
L 157.456523 58.279815 
L 158.491557 57.205166 
L 158.836569 56.979554 
L 159.18158 56.44157 
L 159.699097 56.167677 
L 159.871603 56.067998 
L 160.216614 55.747082 
L 160.38912 55.530178 
L 160.561625 55.496607 
L 160.906637 55.0238 
L 161.251648 54.926696 
L 161.596659 54.507337 
L 161.769165 54.461704 
L 162.114176 54.152057 
L 162.631693 53.949827 
L 162.804199 53.914737 
L 163.321716 53.457876 
L 163.494222 53.381734 
L 163.839233 52.940283 
L 164.184244 52.973119 
L 164.35675 52.841695 
L 164.529256 52.925138 
L 165.56429 52.533429 
L 165.736795 71.890578 
L 166.254312 66.710251 
L 166.771829 64.305781 
L 167.289346 62.719331 
L 168.496886 60.834495 
L 168.669392 60.7451 
L 169.014403 59.945354 
L 170.221943 58.05651 
L 170.566954 57.726152 
L 170.911965 57.369883 
L 171.084471 57.368592 
L 171.429482 57.050312 
L 172.292011 56.524339 
L 172.637022 56.271376 
L 173.154539 55.894259 
L 173.49955 55.500702 
L 175.224607 54.407017 
L 175.569618 54.154119 
L 175.91463 54.141862 
L 176.087135 53.848107 
L 176.259641 72.986143 
L 176.604652 68.75189 
L 177.122169 65.500016 
L 177.639686 63.803104 
L 178.157203 62.811206 
L 179.364743 60.967084 
L 180.227271 60.099936 
L 180.917294 59.335484 
L 182.297339 57.694655 
L 182.469845 57.555946 
L 182.987362 56.681286 
L 183.504879 56.773104 
L 184.022396 56.32278 
L 184.367407 56.171712 
L 184.539913 55.85299 
L 185.402441 55.362059 
L 185.747452 54.900041 
L 187.127498 54.132938 
L 187.300003 54.25881 
L 187.645015 53.932873 
L 187.81752 53.924996 
L 187.990026 54.056216 
L 188.162532 53.822055 
L 188.335037 53.869762 
L 188.507543 73.004188 
L 188.852554 68.924532 
L 189.542577 65.099846 
L 189.887588 63.996076 
L 190.2326 63.274445 
L 191.440139 61.159074 
L 191.957656 60.768161 
L 192.130162 60.341714 
L 192.302668 60.307671 
L 193.337702 59.201313 
L 193.682713 58.663566 
L 193.855219 58.527735 
L 194.20023 58.058781 
L 194.890253 57.532633 
L 195.062758 57.543274 
L 195.40777 57.357044 
L 195.580275 57.302918 
L 195.925287 56.708397 
L 196.097792 56.579039 
L 196.270298 56.218833 
L 196.442804 74.961747 
L 196.960321 68.431551 
L 197.477838 65.200301 
L 197.995355 62.913056 
L 198.857883 60.854309 
L 199.030389 60.612474 
L 199.547906 59.542292 
L 199.720411 59.439966 
L 200.237928 58.425878 
L 200.410434 58.221605 
L 200.755445 57.642699 
L 201.100457 57.119788 
L 201.445468 56.635564 
L 201.962985 55.994131 
L 202.653008 55.387202 
L 202.998019 55.150814 
L 203.515536 54.516474 
L 203.688042 54.277244 
L 203.860547 54.248649 
L 204.378064 53.579193 
L 206.103121 52.266653 
L 206.103121 52.266653 
" clip-path="url(#p1e3a3b8da1)" style="fill: none; stroke: #808080; stroke-width: 1.5; stroke-linecap: square"/>
   </g>
   <g id="LineCollection_2">
    <path d="M 57.230732 74.961747 
L 57.230732 50.598144 
" clip-path="url(#p1e3a3b8da1)" style="fill: none; stroke: #808080; stroke-opacity: 0.5; stroke-width: 1.5"/>
    <path d="M 68.616106 74.961747 
L 68.616106 50.598144 
" clip-path="url(#p1e3a3b8da1)" style="fill: none; stroke: #808080; stroke-opacity: 0.5; stroke-width: 1.5"/>
    <path d="M 79.311457 74.961747 
L 79.311457 50.598144 
" clip-path="url(#p1e3a3b8da1)" style="fill: none; stroke: #808080; stroke-opacity: 0.5; stroke-width: 1.5"/>
    <path d="M 91.559359 74.961747 
L 91.559359 50.598144 
" clip-path="url(#p1e3a3b8da1)" style="fill: none; stroke: #808080; stroke-opacity: 0.5; stroke-width: 1.5"/>
    <path d="M 100.357148 74.961747 
L 100.357148 50.598144 
" clip-path="url(#p1e3a3b8da1)" style="fill: none; stroke: #808080; stroke-opacity: 0.5; stroke-width: 1.5"/>
    <path d="M 109.84496 74.961747 
L 109.84496 50.598144 
" clip-path="url(#p1e3a3b8da1)" style="fill: none; stroke: #808080; stroke-opacity: 0.5; stroke-width: 1.5"/>
    <path d="M 122.092862 74.961747 
L 122.092862 50.598144 
" clip-path="url(#p1e3a3b8da1)" style="fill: none; stroke: #808080; stroke-opacity: 0.5; stroke-width: 1.5"/>
    <path d="M 132.615708 74.961747 
L 132.615708 50.598144 
" clip-path="url(#p1e3a3b8da1)" style="fill: none; stroke: #808080; stroke-opacity: 0.5; stroke-width: 1.5"/>
    <path d="M 141.068485 74.961747 
L 141.068485 50.598144 
" clip-path="url(#p1e3a3b8da1)" style="fill: none; stroke: #808080; stroke-opacity: 0.5; stroke-width: 1.5"/>
    <path d="M 153.316387 74.961747 
L 153.316387 50.598144 
" clip-path="url(#p1e3a3b8da1)" style="fill: none; stroke: #808080; stroke-opacity: 0.5; stroke-width: 1.5"/>
    <path d="M 165.56429 74.961747 
L 165.56429 50.598144 
" clip-path="url(#p1e3a3b8da1)" style="fill: none; stroke: #808080; stroke-opacity: 0.5; stroke-width: 1.5"/>
    <path d="M 176.087135 74.961747 
L 176.087135 50.598144 
" clip-path="url(#p1e3a3b8da1)" style="fill: none; stroke: #808080; stroke-opacity: 0.5; stroke-width: 1.5"/>
    <path d="M 188.335037 74.961747 
L 188.335037 50.598144 
" clip-path="url(#p1e3a3b8da1)" style="fill: none; stroke: #808080; stroke-opacity: 0.5; stroke-width: 1.5"/>
    <path d="M 196.270298 74.961747 
L 196.270298 50.598144 
" clip-path="url(#p1e3a3b8da1)" style="fill: none; stroke: #808080; stroke-opacity: 0.5; stroke-width: 1.5"/>
    <path d="M 205.930615 74.961747 
L 205.930615 50.598144 
" clip-path="url(#p1e3a3b8da1)" style="fill: none; stroke: #808080; stroke-opacity: 0.5; stroke-width: 1.5"/>
   </g>
   <g id="patch_26">
    <path d="M 47.423785 76.179927 
L 47.423785 49.379964 
" style="fill: none; stroke: #000000; stroke-width: 0.8; stroke-linejoin: miter; stroke-linecap: square"/>
   </g>
   <g id="patch_27">
    <path d="M 47.423785 76.179927 
L 213.84 76.179927 
" style="fill: none; stroke: #000000; stroke-width: 0.8; stroke-linejoin: miter; stroke-linecap: square"/>
   </g>
  </g>
  <g id="axes_3">
   <g id="patch_28">
    <path d="M 47.423785 118.359891 
L 213.84 118.359891 
L 213.84 91.559927 
L 47.423785 91.559927 
z
" style="fill: #ffffff"/>
   </g>
   <g id="patch_29">
    <path d="M 68.616106 118.359891 
L 68.616106 91.559927 
L 79.311457 91.559927 
L 79.311457 118.359891 
z
" clip-path="url(#p561eedb23b)" style="fill: #cd5c5c; opacity: 0.2"/>
   </g>
   <g id="patch_30">
    <path d="M 57.230732 118.359891 
L 57.230732 91.559927 
L 68.616106 91.559927 
L 68.616106 118.359891 
z
" clip-path="url(#p561eedb23b)" style="fill: #4682b4; opacity: 0.2"/>
   </g>
   <g id="patch_31">
    <path d="M 100.357148 118.359891 
L 100.357148 91.559927 
L 109.84496 91.559927 
L 109.84496 118.359891 
z
" clip-path="url(#p561eedb23b)" style="fill: #cd5c5c; opacity: 0.2"/>
   </g>
   <g id="patch_32">
    <path d="M 91.559359 118.359891 
L 91.559359 91.559927 
L 100.357148 91.559927 
L 100.357148 118.359891 
z
" clip-path="url(#p561eedb23b)" style="fill: #4682b4; opacity: 0.2"/>
   </g>
   <g id="patch_33">
    <path d="M 132.615708 118.359891 
L 132.615708 91.559927 
L 141.068485 91.559927 
L 141.068485 118.359891 
z
" clip-path="url(#p561eedb23b)" style="fill: #cd5c5c; opacity: 0.2"/>
   </g>
   <g id="patch_34">
    <path d="M 122.092862 118.359891 
L 122.092862 91.559927 
L 132.615708 91.559927 
L 132.615708 118.359891 
z
" clip-path="url(#p561eedb23b)" style="fill: #4682b4; opacity: 0.2"/>
   </g>
   <g id="patch_35">
    <path d="M 165.56429 118.359891 
L 165.56429 91.559927 
L 176.087135 91.559927 
L 176.087135 118.359891 
z
" clip-path="url(#p561eedb23b)" style="fill: #cd5c5c; opacity: 0.2"/>
   </g>
   <g id="patch_36">
    <path d="M 153.316387 118.359891 
L 153.316387 91.559927 
L 165.56429 91.559927 
L 165.56429 118.359891 
z
" clip-path="url(#p561eedb23b)" style="fill: #4682b4; opacity: 0.2"/>
   </g>
   <g id="patch_37">
    <path d="M 196.270298 118.359891 
L 196.270298 91.559927 
L 205.930615 91.559927 
L 205.930615 118.359891 
z
" clip-path="url(#p561eedb23b)" style="fill: #cd5c5c; opacity: 0.2"/>
   </g>
   <g id="patch_38">
    <path d="M 188.335037 118.359891 
L 188.335037 91.559927 
L 196.270298 91.559927 
L 196.270298 118.359891 
z
" clip-path="url(#p561eedb23b)" style="fill: #4682b4; opacity: 0.2"/>
   </g>
   <g id="matplotlib.axis_5">
    <g id="xtick_11">
     <g id="line2d_18">
      <g>
       <use xlink:href="#mabd96e3799" x="54.988158" y="118.359891" style="stroke: #000000; stroke-width: 0.8"/>
      </g>
     </g>
    </g>
    <g id="xtick_12">
     <g id="line2d_19">
      <g>
       <use xlink:href="#mabd96e3799" x="89.489291" y="118.359891" style="stroke: #000000; stroke-width: 0.8"/>
      </g>
     </g>
    </g>
    <g id="xtick_13">
     <g id="line2d_20">
      <g>
       <use xlink:href="#mabd96e3799" x="123.990424" y="118.359891" style="stroke: #000000; stroke-width: 0.8"/>
      </g>
     </g>
    </g>
    <g id="xtick_14">
     <g id="line2d_21">
      <g>
       <use xlink:href="#mabd96e3799" x="158.491557" y="118.359891" style="stroke: #000000; stroke-width: 0.8"/>
      </g>
     </g>
    </g>
    <g id="xtick_15">
     <g id="line2d_22">
      <g>
       <use xlink:href="#mabd96e3799" x="192.99269" y="118.359891" style="stroke: #000000; stroke-width: 0.8"/>
      </g>
     </g>
    </g>
   </g>
   <g id="matplotlib.axis_6">
    <g id="ytick_6">
     <g id="line2d_23">
      <g>
       <use xlink:href="#m18b4c4eb45" x="47.423785" y="113.604996" style="stroke: #000000; stroke-width: 0.8"/>
      </g>
     </g>
     <g id="text_8">
      <!-- $\mathdefault{0.1}$ -->
      <g transform="translate(26.420709 117.410169)scale(0.11 -0.11)">
       <defs>
        <path id="CMR17-31" d="M 1702 4058 
C 1702 4192 1696 4192 1606 4192 
C 1357 3916 979 3827 621 3827 
C 602 3827 570 3827 563 3808 
C 557 3795 557 3782 557 3648 
C 755 3648 1088 3686 1344 3839 
L 1344 461 
C 1344 236 1331 160 781 160 
L 589 160 
L 589 0 
C 896 0 1216 0 1523 0 
C 1830 0 2150 0 2458 0 
L 2458 160 
L 2266 160 
C 1715 160 1702 230 1702 458 
L 1702 4058 
z
" transform="scale(0.015625)"/>
       </defs>
       <use xlink:href="#CMR17-30" transform="scale(0.996264)"/>
       <use xlink:href="#CMMI12-3a" transform="translate(45.690477 0)scale(0.996264)"/>
       <use xlink:href="#CMR17-31" transform="translate(72.787654 0)scale(0.996264)"/>
      </g>
     </g>
    </g>
    <g id="ytick_7">
     <g id="line2d_24">
      <g>
       <use xlink:href="#m18b4c4eb45" x="47.423785" y="97.078037" style="stroke: #000000; stroke-width: 0.8"/>
      </g>
     </g>
     <g id="text_9">
      <!-- $\mathdefault{0.2}$ -->
      <g transform="translate(26.420709 100.88321)scale(0.11 -0.11)">
       <defs>
        <path id="CMR17-32" d="M 2669 989 
L 2554 989 
C 2490 536 2438 459 2413 420 
C 2381 369 1920 369 1830 369 
L 602 369 
C 832 619 1280 1072 1824 1597 
C 2214 1967 2669 2402 2669 3035 
C 2669 3790 2067 4224 1395 4224 
C 691 4224 262 3604 262 3030 
C 262 2780 448 2748 525 2748 
C 589 2748 781 2787 781 3010 
C 781 3207 614 3264 525 3264 
C 486 3264 448 3258 422 3245 
C 544 3790 915 4058 1306 4058 
C 1862 4058 2227 3617 2227 3035 
C 2227 2479 1901 2000 1536 1584 
L 262 146 
L 262 0 
L 2515 0 
L 2669 989 
z
" transform="scale(0.015625)"/>
       </defs>
       <use xlink:href="#CMR17-30" transform="scale(0.996264)"/>
       <use xlink:href="#CMMI12-3a" transform="translate(45.690477 0)scale(0.996264)"/>
       <use xlink:href="#CMR17-32" transform="translate(72.787654 0)scale(0.996264)"/>
      </g>
     </g>
    </g>
    <g id="text_10">
     <!-- $y$ -->
     <g transform="translate(20.289814 107.646383)rotate(-90)scale(0.11 -0.11)">
      <defs>
       <path id="CMMI12-79" d="M 1683 -700 
C 1510 -939 1261 -1152 947 -1152 
C 870 -1152 563 -1152 467 -889 
C 486 -895 518 -895 531 -895 
C 723 -895 851 -729 851 -582 
C 851 -435 730 -384 634 -384 
C 531 -384 307 -458 307 -759 
C 307 -1071 582 -1286 947 -1286 
C 1587 -1286 2234 -700 2413 6 
L 3040 2485 
C 3046 2517 3059 2556 3059 2594 
C 3059 2689 2982 2753 2886 2753 
C 2829 2753 2694 2727 2643 2535 
L 2170 658 
C 2138 543 2138 530 2086 460 
C 1958 281 1747 64 1440 64 
C 1082 64 1050 415 1050 588 
C 1050 952 1222 1443 1395 1903 
C 1466 2088 1504 2178 1504 2305 
C 1504 2574 1312 2816 998 2816 
C 410 2816 173 1890 173 1839 
C 173 1814 198 1782 243 1782 
C 301 1782 307 1807 333 1897 
C 486 2433 730 2689 979 2689 
C 1037 2689 1146 2689 1146 2478 
C 1146 2312 1075 2127 979 1884 
C 666 1047 666 837 666 683 
C 666 77 1101 -64 1421 -64 
C 1606 -64 1837 -6 2061 230 
L 2067 224 
C 1971 -147 1907 -392 1683 -700 
z
" transform="scale(0.015625)"/>
      </defs>
      <use xlink:href="#CMMI12-79" transform="scale(0.996264)"/>
     </g>
    </g>
   </g>
   <g id="line2d_25">
    <path d="M 54.988158 109.102316 
L 55.33317 110.10319 
L 55.505675 109.230181 
L 55.678181 110.073801 
L 55.850687 109.844282 
L 56.195698 111.149167 
L 56.368204 110.692102 
L 56.540709 111.075209 
L 56.713215 111.98362 
L 56.885721 111.85374 
L 57.230732 111.99406 
L 57.748249 102.265924 
L 58.09326 98.102479 
L 58.265766 97.586094 
L 58.610777 95.915764 
L 58.783283 95.506634 
L 59.128294 95.391019 
L 59.473306 94.430803 
L 59.645811 94.670769 
L 59.818317 94.542589 
L 60.335834 96.836112 
L 60.50834 96.103576 
L 61.025857 98.416342 
L 61.198362 97.989179 
L 62.233396 101.920985 
L 62.405902 102.031276 
L 62.578408 103.128929 
L 62.750913 102.173032 
L 62.923419 102.293107 
L 63.095925 102.751593 
L 63.26843 101.628531 
L 63.440936 101.518337 
L 63.958453 101.869583 
L 64.303464 104.440817 
L 64.47597 104.984902 
L 64.648475 104.806957 
L 64.820981 106.409567 
L 64.993487 106.946108 
L 65.165992 106.748697 
L 65.338498 107.70607 
L 65.511004 107.658387 
L 65.683509 107.327178 
L 65.856015 106.353753 
L 66.028521 107.351265 
L 66.201026 107.23755 
L 66.373532 107.504811 
L 66.546038 108.154333 
L 66.718543 108.294101 
L 66.891049 108.836585 
L 67.23606 107.10778 
L 67.408566 107.785464 
L 67.581072 109.027441 
L 67.753577 109.33723 
L 68.271094 112.943255 
L 68.4436 112.797435 
L 68.616106 112.173416 
L 68.961117 104.807992 
L 69.306128 100.736574 
L 69.478634 99.716974 
L 69.65114 97.879542 
L 69.823645 98.613897 
L 70.168657 97.565656 
L 70.341162 97.636603 
L 70.513668 97.543123 
L 70.858679 97.858833 
L 71.031185 98.546353 
L 71.548702 96.695628 
L 71.893713 98.016181 
L 72.066219 97.462829 
L 72.41123 99.496582 
L 72.583736 99.323153 
L 72.756242 100.207147 
L 72.928747 100.069578 
L 73.273759 101.543038 
L 73.791276 102.40542 
L 74.136287 104.148114 
L 74.308793 104.220973 
L 74.653804 105.323745 
L 74.82631 104.328342 
L 74.998815 105.116224 
L 75.171321 105.285353 
L 75.343827 104.605032 
L 75.516332 105.100002 
L 75.688838 104.4017 
L 76.206355 107.308146 
L 76.378861 107.456392 
L 76.551366 106.821234 
L 76.896378 108.433174 
L 77.068883 108.2591 
L 77.241389 108.830228 
L 77.413895 108.579074 
L 77.758906 108.927032 
L 77.931412 110.20661 
L 78.276423 110.875768 
L 78.448929 111.588347 
L 78.621434 111.396432 
L 78.79394 112.196111 
L 78.966446 111.958502 
L 79.138951 112.916791 
L 79.311457 112.508824 
L 79.656468 104.583007 
L 80.00148 100.293952 
L 80.173985 99.929571 
L 80.691502 95.555594 
L 80.864008 95.413115 
L 81.036514 94.624172 
L 81.726536 98.755895 
L 81.899042 98.224508 
L 82.071548 98.935514 
L 82.244053 98.583349 
L 82.589065 99.20825 
L 82.76157 98.533765 
L 82.934076 99.105327 
L 83.106582 99.111475 
L 83.624099 100.749351 
L 83.796604 100.660462 
L 83.96911 101.468208 
L 84.141616 101.72852 
L 84.314121 102.955408 
L 84.659133 103.511637 
L 85.004144 102.834287 
L 85.17665 102.085174 
L 85.349155 102.287404 
L 85.521661 103.356908 
L 85.694167 103.418723 
L 85.866672 104.792963 
L 86.039178 105.077657 
L 86.211684 105.984717 
L 86.384189 105.116628 
L 86.729201 107.131146 
L 86.901706 106.421177 
L 87.074212 107.031216 
L 87.419223 107.343133 
L 87.591729 108.140142 
L 87.764235 107.484528 
L 87.93674 108.93338 
L 88.109246 108.624792 
L 88.281752 108.874112 
L 88.454257 108.314271 
L 88.799269 110.728072 
L 88.971774 110.001086 
L 89.489291 109.879767 
L 90.006808 111.938911 
L 90.179314 111.564002 
L 90.35182 111.804454 
L 90.524325 111.165052 
L 90.696831 111.975963 
L 91.041842 111.508715 
L 91.214348 111.57474 
L 91.559359 112.524679 
L 91.904371 106.606854 
L 92.249382 100.123313 
L 92.421888 98.018566 
L 92.594393 97.309239 
L 92.766899 97.528693 
L 92.939405 96.771812 
L 93.284416 96.803672 
L 93.456922 96.401893 
L 93.629427 97.240873 
L 93.801933 97.263579 
L 93.974439 96.927997 
L 94.146944 97.547283 
L 94.31945 97.543213 
L 94.491956 96.385109 
L 94.664461 97.792153 
L 94.836967 98.223125 
L 95.009473 98.098193 
L 95.354484 98.752231 
L 95.52699 99.867805 
L 96.044507 100.804351 
L 96.217012 101.649198 
L 96.389518 101.857552 
L 97.252046 104.884718 
L 97.424552 104.597217 
L 97.769563 106.168959 
L 97.942069 106.067643 
L 98.114575 105.560743 
L 98.459586 106.783818 
L 98.632092 107.168845 
L 98.804597 107.188842 
L 98.977103 107.763521 
L 99.149609 107.55445 
L 99.49462 108.783717 
L 99.667126 108.681089 
L 100.012137 109.46794 
L 100.184643 109.385936 
L 100.357148 110.538138 
L 100.70216 104.945373 
L 101.392182 97.919752 
L 102.082205 95.433063 
L 102.25471 94.742279 
L 102.427216 95.213501 
L 102.772227 96.815944 
L 102.944733 97.395479 
L 103.117239 97.408123 
L 103.289744 98.078432 
L 103.46225 98.022455 
L 103.634756 98.230188 
L 103.807261 99.449813 
L 103.979767 99.225232 
L 104.152273 100.351505 
L 104.324778 100.575164 
L 105.187307 103.855203 
L 105.359812 103.55619 
L 105.532318 104.035122 
L 105.704824 103.851477 
L 105.877329 105.058019 
L 106.049835 105.233694 
L 106.739858 108.55394 
L 106.912363 108.484183 
L 107.084869 107.720931 
L 107.257375 108.344331 
L 107.602386 108.59843 
L 107.774892 108.05545 
L 108.292409 109.013197 
L 108.464914 110.434547 
L 108.982431 111.758065 
L 109.154937 111.901801 
L 109.327443 112.574461 
L 109.499948 112.267227 
L 109.672454 112.62689 
L 109.84496 113.433161 
L 110.189971 105.795648 
L 110.534982 101.722891 
L 111.225005 98.751814 
L 111.397511 98.80217 
L 111.742522 99.668873 
L 111.915028 99.694259 
L 112.087533 99.498876 
L 112.260039 98.506056 
L 112.432545 98.68554 
L 112.777556 100.453771 
L 112.950062 100.293018 
L 113.295073 101.736607 
L 113.467579 101.814155 
L 113.640084 102.075411 
L 113.81259 103.194967 
L 113.985096 102.942555 
L 114.330107 105.045131 
L 114.502613 104.442307 
L 114.675118 105.022085 
L 114.847624 103.933376 
L 115.02013 105.561865 
L 115.365141 106.515871 
L 115.537647 106.695561 
L 115.710152 106.519317 
L 115.882658 106.541825 
L 116.055164 107.670614 
L 116.227669 107.91601 
L 116.400175 108.751621 
L 116.572681 107.93366 
L 116.745186 108.331313 
L 116.917692 109.090922 
L 117.090198 109.055272 
L 117.435209 110.481689 
L 117.607715 110.01798 
L 117.952726 110.956639 
L 118.125232 111.050387 
L 118.297737 111.471504 
L 118.470243 112.442166 
L 118.815254 112.996907 
L 118.98776 113.539961 
L 119.160266 113.554184 
L 119.332771 112.722626 
L 119.850288 113.850766 
L 120.022794 113.367358 
L 120.367805 114.397088 
L 120.540311 116.313202 
L 120.712817 116.173338 
L 120.885322 115.662262 
L 121.057828 116.111138 
L 121.230334 116.030581 
L 121.402839 116.545939 
L 121.575345 116.579109 
L 121.920356 117.141711 
L 122.092862 116.920666 
L 122.437873 109.32388 
L 122.782885 105.399774 
L 123.300402 102.647813 
L 123.472907 102.693807 
L 123.645413 101.650224 
L 123.817919 102.032176 
L 124.16293 101.651327 
L 124.335436 101.794189 
L 124.507941 101.275802 
L 124.680447 101.378141 
L 124.852953 100.512476 
L 125.197964 101.014298 
L 125.37047 102.070851 
L 125.542975 102.289127 
L 125.715481 102.823905 
L 125.887987 101.95945 
L 126.060492 102.471909 
L 126.578009 105.507803 
L 126.750515 106.236126 
L 126.923021 106.201889 
L 127.268032 107.377166 
L 127.613043 108.986044 
L 127.785549 109.088771 
L 127.958055 110.057145 
L 128.13056 110.346421 
L 128.303066 110.415046 
L 128.475572 110.069897 
L 128.648077 110.626836 
L 128.820583 111.642718 
L 129.165594 110.780101 
L 129.3381 111.131404 
L 129.510606 112.694758 
L 129.683111 111.291618 
L 129.855617 112.682514 
L 130.028123 112.549339 
L 130.200628 113.380959 
L 130.373134 113.159117 
L 130.54564 113.821005 
L 130.890651 114.210175 
L 131.063157 113.331293 
L 131.235662 114.244143 
L 131.408168 113.69841 
L 131.753179 115.10596 
L 131.925685 115.109149 
L 132.098191 115.546321 
L 132.270696 116.607184 
L 132.443202 116.372007 
L 132.615708 115.343762 
L 132.960719 109.502706 
L 133.478236 103.898169 
L 133.823247 101.733514 
L 133.995753 100.876596 
L 134.168259 100.990233 
L 134.340764 100.83867 
L 134.858281 99.146874 
L 135.375798 101.38759 
L 135.548304 100.99504 
L 135.72081 100.916627 
L 135.893315 101.583098 
L 136.065821 101.371684 
L 136.238327 100.968842 
L 136.410832 101.134693 
L 136.755844 102.660003 
L 137.100855 103.452523 
L 137.273361 104.176245 
L 137.618372 103.243402 
L 137.790878 103.908064 
L 138.308395 106.947093 
L 138.653406 107.19334 
L 138.825912 107.720315 
L 138.998417 107.518775 
L 139.170923 108.042654 
L 139.343429 108.986925 
L 139.515934 109.075192 
L 139.68844 108.891339 
L 139.860946 110.10021 
L 140.205957 110.752156 
L 140.378462 110.175485 
L 140.550968 111.292945 
L 140.895979 111.757952 
L 141.068485 112.826745 
L 141.586002 102.094725 
L 141.931013 99.826501 
L 142.44853 97.331313 
L 142.621036 97.915767 
L 142.793542 96.955894 
L 142.966047 96.658117 
L 143.311059 98.351298 
L 143.483564 98.076088 
L 143.65607 98.590868 
L 143.828576 100.013469 
L 144.001081 99.903893 
L 144.173587 99.996585 
L 145.208621 103.279708 
L 145.553632 102.900974 
L 145.726138 102.866491 
L 145.898644 103.873882 
L 146.071149 103.671506 
L 146.243655 104.75288 
L 146.416161 104.575872 
L 146.588666 105.076467 
L 146.761172 106.208054 
L 146.933678 106.379487 
L 147.106183 106.326433 
L 147.278689 105.879904 
L 147.451195 106.629527 
L 147.6237 106.445069 
L 147.796206 107.829049 
L 148.313723 107.109593 
L 148.486229 107.372465 
L 149.176251 110.505817 
L 149.348757 110.457679 
L 149.521263 110.967169 
L 150.03878 113.682677 
L 150.211285 113.854465 
L 150.383791 112.635624 
L 150.728802 113.402322 
L 150.901308 114.282477 
L 151.073814 113.18917 
L 151.246319 113.451267 
L 151.418825 114.334477 
L 151.591331 114.4576 
L 151.763836 114.226566 
L 151.936342 114.246722 
L 152.108848 113.484723 
L 152.281353 113.375638 
L 152.626365 114.505246 
L 152.79887 114.44795 
L 152.971376 114.631876 
L 153.143882 115.020114 
L 153.316387 115.762701 
L 153.661399 108.153567 
L 154.00641 104.453179 
L 154.178916 102.604165 
L 154.351421 102.130487 
L 154.696433 99.816935 
L 155.21395 100.079218 
L 155.386455 99.964506 
L 155.558961 99.564901 
L 155.903972 99.453754 
L 156.076478 99.604033 
L 156.248984 99.414955 
L 157.111512 101.307013 
L 157.284018 101.788291 
L 157.456523 101.788463 
L 157.97404 103.588374 
L 158.146546 103.48727 
L 158.491557 105.542575 
L 158.664063 105.755662 
L 158.836569 105.532442 
L 159.526591 108.09325 
L 159.699097 108.758985 
L 159.871603 108.568218 
L 160.044108 109.37221 
L 160.216614 108.93378 
L 160.38912 108.95294 
L 160.561625 108.701522 
L 160.734131 109.670665 
L 160.906637 109.538832 
L 161.079142 109.962467 
L 161.251648 109.437071 
L 161.596659 109.297895 
L 161.769165 110.470243 
L 162.114176 111.062798 
L 162.286682 110.709723 
L 162.459188 110.884559 
L 162.804199 110.473979 
L 162.976705 110.958953 
L 163.321716 112.576302 
L 163.494222 112.694189 
L 163.666727 112.204112 
L 163.839233 112.993422 
L 164.35675 112.820254 
L 164.874267 113.797985 
L 165.046773 113.736838 
L 165.219278 114.049988 
L 165.391784 115.056364 
L 165.56429 115.389974 
L 166.081807 105.647095 
L 166.944335 99.124305 
L 167.116841 99.269253 
L 167.289346 98.695204 
L 167.634358 99.342632 
L 167.806863 100.531505 
L 168.151875 100.007881 
L 168.496886 101.88502 
L 168.669392 102.223482 
L 168.841897 102.865607 
L 169.014403 102.146148 
L 169.359414 102.725668 
L 169.53192 102.7864 
L 169.704426 102.714674 
L 169.876931 103.051301 
L 170.049437 104.248049 
L 170.221943 104.368471 
L 170.394448 104.353147 
L 170.73946 105.692997 
L 170.911965 104.515951 
L 171.601988 108.146478 
L 171.774494 108.435633 
L 172.119505 108.348019 
L 172.292011 107.940744 
L 172.464516 106.706463 
L 172.809528 107.321383 
L 172.982033 107.041767 
L 173.672056 109.685536 
L 174.017067 110.098431 
L 174.189573 109.783071 
L 174.362079 110.162842 
L 174.534584 110.25461 
L 174.879596 111.684092 
L 175.052101 111.51627 
L 175.224607 111.824738 
L 175.397113 111.10538 
L 175.569618 112.30323 
L 175.742124 111.914719 
L 176.087135 112.562971 
L 176.432147 104.26561 
L 176.777158 100.262087 
L 176.949664 99.776038 
L 177.122169 98.730403 
L 177.294675 98.47691 
L 177.467181 98.517459 
L 177.639686 99.453519 
L 177.812192 99.430137 
L 178.502214 97.610491 
L 178.67472 97.313239 
L 179.192237 98.23378 
L 179.364743 99.22448 
L 179.537248 99.453966 
L 179.709754 100.27075 
L 179.88226 99.69605 
L 180.399777 101.37844 
L 180.572282 101.679 
L 180.744788 102.605227 
L 180.917294 102.570822 
L 181.089799 103.335506 
L 181.262305 103.251557 
L 181.607316 102.535118 
L 181.779822 103.570699 
L 181.952328 103.439828 
L 182.814856 106.684464 
L 182.987362 106.188757 
L 183.332373 108.630027 
L 183.677384 108.58314 
L 183.84989 108.625723 
L 184.022396 108.289361 
L 184.194901 108.850035 
L 184.367407 108.967598 
L 184.539913 109.814919 
L 184.712418 108.779569 
L 184.884924 108.968235 
L 185.05743 108.882819 
L 185.229935 109.257942 
L 185.402441 108.650738 
L 185.747452 109.839727 
L 185.919958 109.865584 
L 186.092464 110.422468 
L 186.264969 110.263316 
L 186.437475 111.619295 
L 186.782486 112.256193 
L 187.127498 114.311737 
L 187.300003 114.53188 
L 187.472509 115.233905 
L 187.645015 114.325112 
L 187.81752 114.749303 
L 187.990026 114.48182 
L 188.335037 115.429825 
L 188.680049 107.399551 
L 188.852554 106.310369 
L 189.370071 99.715534 
L 189.887588 98.256784 
L 190.060094 98.305938 
L 190.750117 95.926553 
L 190.922622 95.959051 
L 191.095128 95.801041 
L 191.267634 96.370415 
L 191.785151 99.605093 
L 191.957656 99.242063 
L 192.130162 99.77375 
L 192.302668 99.871614 
L 192.475173 99.657596 
L 192.647679 99.836289 
L 192.820185 99.347002 
L 193.855219 103.092578 
L 194.027724 104.142029 
L 194.372736 104.225469 
L 194.545241 104.501445 
L 195.235264 107.837457 
L 195.40777 107.305793 
L 195.580275 108.000465 
L 195.752781 107.547471 
L 195.925287 108.850181 
L 196.097792 108.382157 
L 196.270298 110.065224 
L 196.615309 101.349672 
L 196.960321 97.752063 
L 197.305332 95.656143 
L 197.477838 95.875601 
L 197.650343 95.517947 
L 197.822849 94.733308 
L 198.16786 95.978988 
L 198.340366 96.140315 
L 199.030389 98.599945 
L 199.202894 99.777863 
L 199.547906 99.911966 
L 199.720411 99.645703 
L 199.892917 100.125512 
L 200.410434 102.090487 
L 200.58294 101.988239 
L 201.272962 103.928093 
L 201.445468 104.253354 
L 202.135491 107.500364 
L 202.307996 106.796962 
L 202.480502 106.87496 
L 202.653008 108.091054 
L 202.998019 107.740919 
L 203.170525 108.582394 
L 203.34303 110.286514 
L 203.515536 109.476515 
L 203.860547 108.925888 
L 204.033053 110.003293 
L 204.205559 109.674411 
L 204.378064 110.131794 
L 204.55057 110.10096 
L 204.723076 111.44521 
L 204.895581 111.360554 
L 205.068087 112.141228 
L 205.240593 110.920025 
L 205.413098 111.124263 
L 205.585604 111.663285 
L 205.75811 112.913724 
L 205.930615 113.35036 
L 206.103121 113.310854 
L 206.103121 113.310854 
" clip-path="url(#p561eedb23b)" style="fill: none; stroke: #808080; stroke-width: 1.5; stroke-linecap: square"/>
   </g>
   <g id="LineCollection_3">
    <path d="M 54.988158 113.604996 
L 206.275627 113.604996 
" clip-path="url(#p561eedb23b)" style="fill: none; stroke-dasharray: 5.55,2.4; stroke-dashoffset: 0; stroke: #d3d3d3; stroke-width: 1.5"/>
   </g>
   <g id="LineCollection_4">
    <path d="M 57.230732 117.141711 
L 57.230732 92.778107 
" clip-path="url(#p561eedb23b)" style="fill: none; stroke: #808080; stroke-opacity: 0.5; stroke-width: 1.5"/>
    <path d="M 68.616106 117.141711 
L 68.616106 92.778107 
" clip-path="url(#p561eedb23b)" style="fill: none; stroke: #808080; stroke-opacity: 0.5; stroke-width: 1.5"/>
    <path d="M 79.311457 117.141711 
L 79.311457 92.778107 
" clip-path="url(#p561eedb23b)" style="fill: none; stroke: #808080; stroke-opacity: 0.5; stroke-width: 1.5"/>
    <path d="M 91.559359 117.141711 
L 91.559359 92.778107 
" clip-path="url(#p561eedb23b)" style="fill: none; stroke: #808080; stroke-opacity: 0.5; stroke-width: 1.5"/>
    <path d="M 100.357148 117.141711 
L 100.357148 92.778107 
" clip-path="url(#p561eedb23b)" style="fill: none; stroke: #808080; stroke-opacity: 0.5; stroke-width: 1.5"/>
    <path d="M 109.84496 117.141711 
L 109.84496 92.778107 
" clip-path="url(#p561eedb23b)" style="fill: none; stroke: #808080; stroke-opacity: 0.5; stroke-width: 1.5"/>
    <path d="M 122.092862 117.141711 
L 122.092862 92.778107 
" clip-path="url(#p561eedb23b)" style="fill: none; stroke: #808080; stroke-opacity: 0.5; stroke-width: 1.5"/>
    <path d="M 132.615708 117.141711 
L 132.615708 92.778107 
" clip-path="url(#p561eedb23b)" style="fill: none; stroke: #808080; stroke-opacity: 0.5; stroke-width: 1.5"/>
    <path d="M 141.068485 117.141711 
L 141.068485 92.778107 
" clip-path="url(#p561eedb23b)" style="fill: none; stroke: #808080; stroke-opacity: 0.5; stroke-width: 1.5"/>
    <path d="M 153.316387 117.141711 
L 153.316387 92.778107 
" clip-path="url(#p561eedb23b)" style="fill: none; stroke: #808080; stroke-opacity: 0.5; stroke-width: 1.5"/>
    <path d="M 165.56429 117.141711 
L 165.56429 92.778107 
" clip-path="url(#p561eedb23b)" style="fill: none; stroke: #808080; stroke-opacity: 0.5; stroke-width: 1.5"/>
    <path d="M 176.087135 117.141711 
L 176.087135 92.778107 
" clip-path="url(#p561eedb23b)" style="fill: none; stroke: #808080; stroke-opacity: 0.5; stroke-width: 1.5"/>
    <path d="M 188.335037 117.141711 
L 188.335037 92.778107 
" clip-path="url(#p561eedb23b)" style="fill: none; stroke: #808080; stroke-opacity: 0.5; stroke-width: 1.5"/>
    <path d="M 196.270298 117.141711 
L 196.270298 92.778107 
" clip-path="url(#p561eedb23b)" style="fill: none; stroke: #808080; stroke-opacity: 0.5; stroke-width: 1.5"/>
    <path d="M 205.930615 117.141711 
L 205.930615 92.778107 
" clip-path="url(#p561eedb23b)" style="fill: none; stroke: #808080; stroke-opacity: 0.5; stroke-width: 1.5"/>
   </g>
   <g id="patch_39">
    <path d="M 47.423785 118.359891 
L 47.423785 91.559927 
" style="fill: none; stroke: #000000; stroke-width: 0.8; stroke-linejoin: miter; stroke-linecap: square"/>
   </g>
   <g id="patch_40">
    <path d="M 47.423785 118.359891 
L 213.84 118.359891 
" style="fill: none; stroke: #000000; stroke-width: 0.8; stroke-linejoin: miter; stroke-linecap: square"/>
   </g>
  </g>
  <g id="axes_4">
   <g id="patch_41">
    <path d="M 47.423785 160.539855 
L 213.84 160.539855 
L 213.84 133.739891 
L 47.423785 133.739891 
z
" style="fill: #ffffff"/>
   </g>
   <g id="patch_42">
    <path d="M 68.616106 160.539855 
L 68.616106 133.739891 
L 79.311457 133.739891 
L 79.311457 160.539855 
z
" clip-path="url(#p975b45fa33)" style="fill: #cd5c5c; opacity: 0.2"/>
   </g>
   <g id="patch_43">
    <path d="M 57.230732 160.539855 
L 57.230732 133.739891 
L 68.616106 133.739891 
L 68.616106 160.539855 
z
" clip-path="url(#p975b45fa33)" style="fill: #4682b4; opacity: 0.2"/>
   </g>
   <g id="patch_44">
    <path d="M 100.357148 160.539855 
L 100.357148 133.739891 
L 109.84496 133.739891 
L 109.84496 160.539855 
z
" clip-path="url(#p975b45fa33)" style="fill: #cd5c5c; opacity: 0.2"/>
   </g>
   <g id="patch_45">
    <path d="M 91.559359 160.539855 
L 91.559359 133.739891 
L 100.357148 133.739891 
L 100.357148 160.539855 
z
" clip-path="url(#p975b45fa33)" style="fill: #4682b4; opacity: 0.2"/>
   </g>
   <g id="patch_46">
    <path d="M 132.615708 160.539855 
L 132.615708 133.739891 
L 141.068485 133.739891 
L 141.068485 160.539855 
z
" clip-path="url(#p975b45fa33)" style="fill: #cd5c5c; opacity: 0.2"/>
   </g>
   <g id="patch_47">
    <path d="M 122.092862 160.539855 
L 122.092862 133.739891 
L 132.615708 133.739891 
L 132.615708 160.539855 
z
" clip-path="url(#p975b45fa33)" style="fill: #4682b4; opacity: 0.2"/>
   </g>
   <g id="patch_48">
    <path d="M 165.56429 160.539855 
L 165.56429 133.739891 
L 176.087135 133.739891 
L 176.087135 160.539855 
z
" clip-path="url(#p975b45fa33)" style="fill: #cd5c5c; opacity: 0.2"/>
   </g>
   <g id="patch_49">
    <path d="M 153.316387 160.539855 
L 153.316387 133.739891 
L 165.56429 133.739891 
L 165.56429 160.539855 
z
" clip-path="url(#p975b45fa33)" style="fill: #4682b4; opacity: 0.2"/>
   </g>
   <g id="patch_50">
    <path d="M 196.270298 160.539855 
L 196.270298 133.739891 
L 205.930615 133.739891 
L 205.930615 160.539855 
z
" clip-path="url(#p975b45fa33)" style="fill: #cd5c5c; opacity: 0.2"/>
   </g>
   <g id="patch_51">
    <path d="M 188.335037 160.539855 
L 188.335037 133.739891 
L 196.270298 133.739891 
L 196.270298 160.539855 
z
" clip-path="url(#p975b45fa33)" style="fill: #4682b4; opacity: 0.2"/>
   </g>
   <g id="matplotlib.axis_7">
    <g id="xtick_16">
     <g id="line2d_26">
      <g>
       <use xlink:href="#mabd96e3799" x="54.988158" y="160.539855" style="stroke: #000000; stroke-width: 0.8"/>
      </g>
     </g>
     <g id="text_11">
      <!-- $\mathdefault{0}$ -->
      <g transform="translate(52.248425 175.150201)scale(0.11 -0.11)">
       <use xlink:href="#CMR17-30" transform="scale(0.996264)"/>
      </g>
     </g>
    </g>
    <g id="xtick_17">
     <g id="line2d_27">
      <g>
       <use xlink:href="#mabd96e3799" x="89.489291" y="160.539855" style="stroke: #000000; stroke-width: 0.8"/>
      </g>
     </g>
     <g id="text_12">
      <!-- $\mathdefault{2000}$ -->
      <g transform="translate(78.530357 175.150201)scale(0.11 -0.11)">
       <use xlink:href="#CMR17-32" transform="scale(0.996264)"/>
       <use xlink:href="#CMR17-30" transform="translate(45.690477 0)scale(0.996264)"/>
       <use xlink:href="#CMR17-30" transform="translate(91.380954 0)scale(0.996264)"/>
       <use xlink:href="#CMR17-30" transform="translate(137.071431 0)scale(0.996264)"/>
      </g>
     </g>
    </g>
    <g id="xtick_18">
     <g id="line2d_28">
      <g>
       <use xlink:href="#mabd96e3799" x="123.990424" y="160.539855" style="stroke: #000000; stroke-width: 0.8"/>
      </g>
     </g>
     <g id="text_13">
      <!-- $\mathdefault{4000}$ -->
      <g transform="translate(113.03149 175.150201)scale(0.11 -0.11)">
       <defs>
        <path id="CMR17-34" d="M 2150 4122 
C 2150 4256 2144 4256 2029 4256 
L 128 1254 
L 128 1088 
L 1779 1088 
L 1779 457 
C 1779 224 1766 160 1318 160 
L 1197 160 
L 1197 0 
C 1402 0 1747 0 1965 0 
C 2182 0 2528 0 2733 0 
L 2733 160 
L 2611 160 
C 2163 160 2150 224 2150 457 
L 2150 1088 
L 2803 1088 
L 2803 1254 
L 2150 1254 
L 2150 4122 
z
M 1798 3703 
L 1798 1254 
L 256 1254 
L 1798 3703 
z
" transform="scale(0.015625)"/>
       </defs>
       <use xlink:href="#CMR17-34" transform="scale(0.996264)"/>
       <use xlink:href="#CMR17-30" transform="translate(45.690477 0)scale(0.996264)"/>
       <use xlink:href="#CMR17-30" transform="translate(91.380954 0)scale(0.996264)"/>
       <use xlink:href="#CMR17-30" transform="translate(137.071431 0)scale(0.996264)"/>
      </g>
     </g>
    </g>
    <g id="xtick_19">
     <g id="line2d_29">
      <g>
       <use xlink:href="#mabd96e3799" x="158.491557" y="160.539855" style="stroke: #000000; stroke-width: 0.8"/>
      </g>
     </g>
     <g id="text_14">
      <!-- $\mathdefault{6000}$ -->
      <g transform="translate(147.532623 175.150201)scale(0.11 -0.11)">
       <use xlink:href="#CMR17-36" transform="scale(0.996264)"/>
       <use xlink:href="#CMR17-30" transform="translate(45.690477 0)scale(0.996264)"/>
       <use xlink:href="#CMR17-30" transform="translate(91.380954 0)scale(0.996264)"/>
       <use xlink:href="#CMR17-30" transform="translate(137.071431 0)scale(0.996264)"/>
      </g>
     </g>
    </g>
    <g id="xtick_20">
     <g id="line2d_30">
      <g>
       <use xlink:href="#mabd96e3799" x="192.99269" y="160.539855" style="stroke: #000000; stroke-width: 0.8"/>
      </g>
     </g>
     <g id="text_15">
      <!-- $\mathdefault{8000}$ -->
      <g transform="translate(182.033756 175.150201)scale(0.11 -0.11)">
       <use xlink:href="#CMR17-38" transform="scale(0.996264)"/>
       <use xlink:href="#CMR17-30" transform="translate(45.690477 0)scale(0.996264)"/>
       <use xlink:href="#CMR17-30" transform="translate(91.380954 0)scale(0.996264)"/>
       <use xlink:href="#CMR17-30" transform="translate(137.071431 0)scale(0.996264)"/>
      </g>
     </g>
    </g>
    <g id="text_16">
     <!-- time [ms] -->
     <g transform="translate(108.379189 189.500274)scale(0.11 -0.11)">
      <defs>
       <path id="CMR17-74" d="M 966 2560 
L 1862 2560 
L 1862 2725 
L 966 2725 
L 966 3904 
L 851 3904 
C 838 3245 614 2668 70 2668 
L 70 2560 
L 627 2560 
L 627 771 
C 627 650 627 -64 1370 -64 
C 1747 -64 1965 306 1965 777 
L 1965 1140 
L 1850 1140 
L 1850 783 
C 1850 344 1677 51 1408 51 
C 1222 51 966 178 966 758 
L 966 2560 
z
" transform="scale(0.015625)"/>
       <path id="CMR17-69" d="M 992 3909 
C 992 4049 877 4170 730 4170 
C 589 4170 467 4056 467 3909 
C 467 3769 582 3648 730 3648 
C 870 3648 992 3763 992 3909 
z
M 243 2706 
L 243 2541 
C 602 2541 653 2502 653 2197 
L 653 427 
C 653 184 627 153 218 153 
L 218 -13 
C 371 0 646 0 806 0 
C 960 0 1222 0 1370 -13 
L 1370 153 
C 992 153 979 191 979 420 
L 979 2776 
L 243 2706 
z
" transform="scale(0.015625)"/>
       <path id="CMR17-6d" d="M 4326 1933 
C 4326 2252 4269 2790 3507 2790 
C 3072 2790 2771 2496 2656 2151 
L 2650 2151 
C 2573 2676 2195 2790 1837 2790 
C 1331 2790 1069 2400 973 2144 
L 966 2144 
L 966 2790 
L 211 2720 
L 211 2554 
C 589 2554 646 2515 646 2208 
L 646 428 
C 646 184 621 153 211 153 
L 211 -13 
C 365 0 646 0 813 0 
C 979 0 1267 0 1421 -13 
L 1421 153 
C 1011 153 986 178 986 428 
L 986 1658 
C 986 2247 1344 2688 1792 2688 
C 2266 2688 2317 2266 2317 1958 
L 2317 428 
C 2317 184 2291 153 1882 153 
L 1882 -13 
C 2035 0 2317 0 2483 0 
C 2650 0 2938 0 3091 -13 
L 3091 153 
C 2682 153 2656 178 2656 428 
L 2656 1658 
C 2656 2247 3014 2688 3462 2688 
C 3936 2688 3987 2266 3987 1958 
L 3987 428 
C 3987 184 3962 153 3552 153 
L 3552 -13 
C 3706 0 3987 0 4154 0 
C 4320 0 4608 0 4762 -13 
L 4762 153 
C 4352 153 4326 178 4326 428 
L 4326 1933 
z
" transform="scale(0.015625)"/>
       <path id="CMR17-65" d="M 2438 1472 
C 2464 1498 2464 1511 2464 1576 
C 2464 2238 2118 2816 1389 2816 
C 710 2816 173 2169 173 1383 
C 173 551 781 -64 1459 -64 
C 2176 -64 2458 607 2458 740 
C 2458 784 2419 784 2406 784 
C 2362 784 2355 771 2330 696 
C 2189 265 1837 51 1504 51 
C 1229 51 954 203 781 480 
C 582 803 582 1176 582 1472 
L 2438 1472 
z
M 589 1568 
C 634 2505 1126 2714 1382 2714 
C 1818 2714 2112 2297 2118 1568 
L 589 1568 
z
" transform="scale(0.015625)"/>
       <path id="CMR17-5b" d="M 1504 -1600 
L 1504 -1377 
L 902 -1377 
L 902 4544 
L 1504 4544 
L 1504 4767 
L 678 4767 
L 678 -1600 
L 1504 -1600 
z
" transform="scale(0.015625)"/>
       <path id="CMR17-73" d="M 1978 2697 
C 1978 2813 1971 2819 1933 2819 
C 1907 2819 1901 2813 1824 2717 
C 1805 2691 1747 2626 1728 2601 
C 1523 2819 1235 2819 1126 2819 
C 416 2819 160 2447 160 2076 
C 160 1498 813 1365 998 1325 
C 1402 1243 1542 1217 1677 1101 
C 1760 1025 1901 884 1901 654 
C 1901 384 1747 38 1158 38 
C 602 38 403 460 288 1021 
C 269 1110 269 1117 218 1117 
C 166 1117 160 1110 160 983 
L 160 63 
C 160 -51 166 -58 205 -58 
C 237 -58 243 -51 275 0 
C 314 57 410 211 448 276 
C 576 103 800 -64 1158 -64 
C 1792 -64 2131 283 2131 784 
C 2131 1112 1958 1285 1875 1362 
C 1683 1561 1459 1606 1190 1657 
C 838 1735 390 1825 390 2217 
C 390 2383 480 2737 1126 2737 
C 1811 2737 1850 2094 1862 1888 
C 1869 1856 1901 1849 1920 1849 
C 1978 1849 1978 1869 1978 1978 
L 1978 2697 
z
" transform="scale(0.015625)"/>
       <path id="CMR17-5d" d="M 915 4767 
L 90 4767 
L 90 4544 
L 691 4544 
L 691 -1377 
L 90 -1377 
L 90 -1600 
L 915 -1600 
L 915 4767 
z
" transform="scale(0.015625)"/>
      </defs>
      <use xlink:href="#CMR17-74" transform="scale(0.996264)"/>
      <use xlink:href="#CMR17-69" transform="translate(35.280768 0)scale(0.996264)"/>
      <use xlink:href="#CMR17-6d" transform="translate(60.151826 0)scale(0.996264)"/>
      <use xlink:href="#CMR17-65" transform="translate(137.071416 0)scale(0.996264)"/>
      <use xlink:href="#CMR17-5b" transform="translate(207.633043 0)scale(0.996264)"/>
      <use xlink:href="#CMR17-6d" transform="translate(232.504101 0)scale(0.996264)"/>
      <use xlink:href="#CMR17-73" transform="translate(309.423691 0)scale(0.996264)"/>
      <use xlink:href="#CMR17-5d" transform="translate(345.225029 0)scale(0.996264)"/>
     </g>
    </g>
   </g>
   <g id="matplotlib.axis_8">
    <g id="ytick_8">
     <g id="line2d_31">
      <g>
       <use xlink:href="#m18b4c4eb45" x="47.423785" y="153.471382" style="stroke: #000000; stroke-width: 0.8"/>
      </g>
     </g>
     <g id="text_17">
      <!-- $\mathdefault{1.04}$ -->
      <g transform="translate(20.941241 157.276556)scale(0.11 -0.11)">
       <use xlink:href="#CMR17-31" transform="scale(0.996264)"/>
       <use xlink:href="#CMMI12-3a" transform="translate(45.690477 0)scale(0.996264)"/>
       <use xlink:href="#CMR17-30" transform="translate(72.787654 0)scale(0.996264)"/>
       <use xlink:href="#CMR17-34" transform="translate(118.478131 0)scale(0.996264)"/>
      </g>
     </g>
    </g>
    <g id="ytick_9">
     <g id="line2d_32">
      <g>
       <use xlink:href="#m18b4c4eb45" x="47.423785" y="140.092511" style="stroke: #000000; stroke-width: 0.8"/>
      </g>
     </g>
     <g id="text_18">
      <!-- $\mathdefault{1.05}$ -->
      <g transform="translate(20.941241 143.897684)scale(0.11 -0.11)">
       <use xlink:href="#CMR17-31" transform="scale(0.996264)"/>
       <use xlink:href="#CMMI12-3a" transform="translate(45.690477 0)scale(0.996264)"/>
       <use xlink:href="#CMR17-30" transform="translate(72.787654 0)scale(0.996264)"/>
       <use xlink:href="#CMR17-35" transform="translate(118.478131 0)scale(0.996264)"/>
      </g>
     </g>
    </g>
    <g id="text_19">
     <!-- $I$ -->
     <g transform="translate(14.810347 149.54855)rotate(-90)scale(0.11 -0.11)">
      <defs>
       <path id="CMMI12-49" d="M 2355 3880 
C 2413 4103 2426 4167 2893 4167 
C 3034 4167 3085 4167 3085 4288 
C 3085 4352 3014 4352 2995 4352 
C 2880 4352 2739 4352 2624 4352 
L 1837 4352 
C 1709 4352 1562 4352 1434 4352 
C 1382 4352 1312 4352 1312 4231 
C 1312 4167 1363 4167 1491 4167 
C 1888 4167 1888 4116 1888 4046 
C 1888 4002 1875 3963 1862 3906 
L 998 472 
C 941 249 928 185 461 185 
C 320 185 262 185 262 64 
C 262 0 326 0 358 0 
C 474 0 614 0 730 0 
L 1517 0 
C 1645 0 1786 0 1914 0 
C 1965 0 2042 0 2042 115 
C 2042 185 2003 185 1862 185 
C 1466 185 1466 236 1466 312 
C 1466 325 1466 357 1491 459 
L 2355 3880 
z
" transform="scale(0.015625)"/>
      </defs>
      <use xlink:href="#CMMI12-49" transform="scale(0.996264)"/>
     </g>
    </g>
   </g>
   <g id="line2d_33">
    <path d="M 54.988158 159.321674 
L 68.616106 159.321674 
L 68.788611 151.595742 
L 100.357148 151.595742 
L 100.529654 135.044566 
L 132.615708 135.044566 
L 132.788213 144.428319 
L 165.56429 144.428319 
L 165.736795 154.061465 
L 196.270298 154.061465 
L 196.442804 134.958071 
L 206.103121 134.958071 
L 206.103121 134.958071 
" clip-path="url(#p975b45fa33)" style="fill: none; stroke: #808080; stroke-width: 1.5; stroke-linecap: square"/>
   </g>
   <g id="LineCollection_5">
    <path d="M 57.230732 159.321674 
L 57.230732 134.958071 
" clip-path="url(#p975b45fa33)" style="fill: none; stroke: #808080; stroke-opacity: 0.5; stroke-width: 1.5"/>
    <path d="M 68.616106 159.321674 
L 68.616106 134.958071 
" clip-path="url(#p975b45fa33)" style="fill: none; stroke: #808080; stroke-opacity: 0.5; stroke-width: 1.5"/>
    <path d="M 79.311457 159.321674 
L 79.311457 134.958071 
" clip-path="url(#p975b45fa33)" style="fill: none; stroke: #808080; stroke-opacity: 0.5; stroke-width: 1.5"/>
    <path d="M 91.559359 159.321674 
L 91.559359 134.958071 
" clip-path="url(#p975b45fa33)" style="fill: none; stroke: #808080; stroke-opacity: 0.5; stroke-width: 1.5"/>
    <path d="M 100.357148 159.321674 
L 100.357148 134.958071 
" clip-path="url(#p975b45fa33)" style="fill: none; stroke: #808080; stroke-opacity: 0.5; stroke-width: 1.5"/>
    <path d="M 109.84496 159.321674 
L 109.84496 134.958071 
" clip-path="url(#p975b45fa33)" style="fill: none; stroke: #808080; stroke-opacity: 0.5; stroke-width: 1.5"/>
    <path d="M 122.092862 159.321674 
L 122.092862 134.958071 
" clip-path="url(#p975b45fa33)" style="fill: none; stroke: #808080; stroke-opacity: 0.5; stroke-width: 1.5"/>
    <path d="M 132.615708 159.321674 
L 132.615708 134.958071 
" clip-path="url(#p975b45fa33)" style="fill: none; stroke: #808080; stroke-opacity: 0.5; stroke-width: 1.5"/>
    <path d="M 141.068485 159.321674 
L 141.068485 134.958071 
" clip-path="url(#p975b45fa33)" style="fill: none; stroke: #808080; stroke-opacity: 0.5; stroke-width: 1.5"/>
    <path d="M 153.316387 159.321674 
L 153.316387 134.958071 
" clip-path="url(#p975b45fa33)" style="fill: none; stroke: #808080; stroke-opacity: 0.5; stroke-width: 1.5"/>
    <path d="M 165.56429 159.321674 
L 165.56429 134.958071 
" clip-path="url(#p975b45fa33)" style="fill: none; stroke: #808080; stroke-opacity: 0.5; stroke-width: 1.5"/>
    <path d="M 176.087135 159.321674 
L 176.087135 134.958071 
" clip-path="url(#p975b45fa33)" style="fill: none; stroke: #808080; stroke-opacity: 0.5; stroke-width: 1.5"/>
    <path d="M 188.335037 159.321674 
L 188.335037 134.958071 
" clip-path="url(#p975b45fa33)" style="fill: none; stroke: #808080; stroke-opacity: 0.5; stroke-width: 1.5"/>
    <path d="M 196.270298 159.321674 
L 196.270298 134.958071 
" clip-path="url(#p975b45fa33)" style="fill: none; stroke: #808080; stroke-opacity: 0.5; stroke-width: 1.5"/>
    <path d="M 205.930615 159.321674 
L 205.930615 134.958071 
" clip-path="url(#p975b45fa33)" style="fill: none; stroke: #808080; stroke-opacity: 0.5; stroke-width: 1.5"/>
   </g>
   <g id="patch_52">
    <path d="M 47.423785 160.539855 
L 47.423785 133.739891 
" style="fill: none; stroke: #000000; stroke-width: 0.8; stroke-linejoin: miter; stroke-linecap: square"/>
   </g>
   <g id="patch_53">
    <path d="M 47.423785 160.539855 
L 213.84 160.539855 
" style="fill: none; stroke: #000000; stroke-width: 0.8; stroke-linejoin: miter; stroke-linecap: square"/>
   </g>
  </g>
 </g>
 <defs>
  <clipPath id="p24557fd180">
   <rect x="47.423785" y="7.2" width="166.416215" height="26.799964"/>
  </clipPath>
  <clipPath id="p1e3a3b8da1">
   <rect x="47.423785" y="49.379964" width="166.416215" height="26.799964"/>
  </clipPath>
  <clipPath id="p561eedb23b">
   <rect x="47.423785" y="91.559927" width="166.416215" height="26.799964"/>
  </clipPath>
  <clipPath id="p975b45fa33">
   <rect x="47.423785" y="133.739891" width="166.416215" height="26.799964"/>
  </clipPath>
 </defs>
</svg>
