<?xml version="1.0" encoding="utf-8" standalone="no"?>
<!DOCTYPE svg PUBLIC "-//W3C//DTD SVG 1.1//EN"
  "http://www.w3.org/Graphics/SVG/1.1/DTD/svg11.dtd">
<svg xmlns:xlink="http://www.w3.org/1999/xlink" width="307.44pt" height="242.64pt" viewBox="0 0 307.44 242.64" xmlns="http://www.w3.org/2000/svg" version="1.1">
 <metadata>
  <rdf:RDF xmlns:dc="http://purl.org/dc/elements/1.1/" xmlns:cc="http://creativecommons.org/ns#" xmlns:rdf="http://www.w3.org/1999/02/22-rdf-syntax-ns#">
   <cc:Work>
    <dc:type rdf:resource="http://purl.org/dc/dcmitype/StillImage"/>
    <dc:date>2022-09-12T13:25:49.301902</dc:date>
    <dc:format>image/svg+xml</dc:format>
    <dc:creator>
     <cc:Agent>
      <dc:title>Matplotlib v3.5.1, https://matplotlib.org/</dc:title>
     </cc:Agent>
    </dc:creator>
   </cc:Work>
  </rdf:RDF>
 </metadata>
 <defs>
  <style type="text/css">*{stroke-linejoin: round; stroke-linecap: butt}</style>
 </defs>
 <g id="figure_1">
  <g id="patch_1">
   <path d="M 0 242.64 
L 307.44 242.64 
L 307.44 0 
L 0 0 
z
" style="fill: #ffffff"/>
  </g>
  <g id="axes_1">
   <g id="patch_2">
    <path d="M 47.423785 52.161753 
L 300.24 52.161753 
L 300.24 20.810347 
L 47.423785 20.810347 
z
" style="fill: #ffffff"/>
   </g>
   <g id="matplotlib.axis_1">
    <g id="xtick_1">
     <g id="line2d_1">
      <defs>
       <path id="m0b634b38a2" d="M 0 0 
L 0 3.5 
" style="stroke: #262626; stroke-width: 0.8"/>
      </defs>
      <g>
       <use xlink:href="#m0b634b38a2" x="58.915431" y="52.161753" style="fill: #262626; stroke: #262626; stroke-width: 0.8"/>
      </g>
     </g>
    </g>
    <g id="xtick_2">
     <g id="line2d_2">
      <g>
       <use xlink:href="#m0b634b38a2" x="113.185307" y="52.161753" style="fill: #262626; stroke: #262626; stroke-width: 0.8"/>
      </g>
     </g>
    </g>
    <g id="xtick_3">
     <g id="line2d_3">
      <g>
       <use xlink:href="#m0b634b38a2" x="167.455182" y="52.161753" style="fill: #262626; stroke: #262626; stroke-width: 0.8"/>
      </g>
     </g>
    </g>
    <g id="xtick_4">
     <g id="line2d_4">
      <g>
       <use xlink:href="#m0b634b38a2" x="221.725058" y="52.161753" style="fill: #262626; stroke: #262626; stroke-width: 0.8"/>
      </g>
     </g>
    </g>
    <g id="xtick_5">
     <g id="line2d_5">
      <g>
       <use xlink:href="#m0b634b38a2" x="275.994933" y="52.161753" style="fill: #262626; stroke: #262626; stroke-width: 0.8"/>
      </g>
     </g>
    </g>
   </g>
   <g id="matplotlib.axis_2">
    <g id="ytick_1">
     <g id="line2d_6">
      <defs>
       <path id="ma25c9729d6" d="M 0 0 
L -3.5 0 
" style="stroke: #262626; stroke-width: 0.8"/>
      </defs>
      <g>
       <use xlink:href="#ma25c9729d6" x="47.423785" y="46.742993" style="fill: #262626; stroke: #262626; stroke-width: 0.8"/>
      </g>
     </g>
     <g id="text_1">
      <!-- $\mathdefault{0.85}$ -->
      <g style="fill: #262626" transform="translate(20.941241 50.548166)scale(0.11 -0.11)">
       <defs>
        <path id="CMR17-30" d="M 2688 2025 
C 2688 2416 2682 3080 2413 3591 
C 2176 4039 1798 4198 1466 4198 
C 1158 4198 768 4058 525 3597 
C 269 3118 243 2524 243 2025 
C 243 1661 250 1106 448 619 
C 723 -39 1216 -128 1466 -128 
C 1760 -128 2208 -7 2470 600 
C 2662 1042 2688 1559 2688 2025 
z
M 1466 -26 
C 1056 -26 813 325 723 812 
C 653 1188 653 1738 653 2096 
C 653 2588 653 2997 736 3387 
C 858 3929 1216 4096 1466 4096 
C 1728 4096 2067 3923 2189 3400 
C 2272 3036 2278 2607 2278 2096 
C 2278 1680 2278 1169 2202 792 
C 2067 95 1690 -26 1466 -26 
z
" transform="scale(0.015625)"/>
        <path id="CMMI12-3a" d="M 1178 307 
C 1178 492 1024 619 870 619 
C 685 619 557 466 557 313 
C 557 128 710 0 864 0 
C 1050 0 1178 153 1178 307 
z
" transform="scale(0.015625)"/>
        <path id="CMR17-38" d="M 1741 2264 
C 2144 2467 2554 2773 2554 3263 
C 2554 3841 1990 4179 1472 4179 
C 890 4179 378 3759 378 3180 
C 378 3021 416 2747 666 2505 
C 730 2442 998 2251 1171 2130 
C 883 1983 211 1634 211 934 
C 211 279 838 -128 1459 -128 
C 2144 -128 2720 362 2720 1010 
C 2720 1590 2330 1857 2074 2029 
L 1741 2264 
z
M 902 2822 
C 851 2854 595 3051 595 3351 
C 595 3739 998 4032 1459 4032 
C 1965 4032 2336 3676 2336 3262 
C 2336 2669 1670 2331 1638 2331 
C 1632 2331 1626 2331 1574 2370 
L 902 2822 
z
M 2080 1519 
C 2176 1449 2483 1240 2483 851 
C 2483 381 2010 25 1472 25 
C 890 25 448 438 448 940 
C 448 1443 838 1862 1280 2060 
L 2080 1519 
z
" transform="scale(0.015625)"/>
        <path id="CMR17-35" d="M 730 3692 
C 794 3666 1056 3584 1325 3584 
C 1920 3584 2246 3911 2432 4100 
C 2432 4157 2432 4192 2394 4192 
C 2387 4192 2374 4192 2323 4163 
C 2099 4058 1837 3973 1517 3973 
C 1325 3973 1037 3999 723 4139 
C 653 4171 640 4171 634 4171 
C 602 4171 595 4164 595 4037 
L 595 2203 
C 595 2089 595 2057 659 2057 
C 691 2057 704 2070 736 2114 
C 941 2401 1222 2522 1542 2522 
C 1766 2522 2246 2382 2246 1289 
C 2246 1085 2246 715 2054 421 
C 1894 159 1645 25 1370 25 
C 947 25 518 320 403 814 
C 429 807 480 795 506 795 
C 589 795 749 840 749 1038 
C 749 1210 627 1280 506 1280 
C 358 1280 262 1190 262 1011 
C 262 454 704 -128 1382 -128 
C 2042 -128 2669 440 2669 1264 
C 2669 2030 2170 2624 1549 2624 
C 1222 2624 947 2503 730 2274 
L 730 3692 
z
" transform="scale(0.015625)"/>
       </defs>
       <use xlink:href="#CMR17-30" transform="scale(0.996264)"/>
       <use xlink:href="#CMMI12-3a" transform="translate(45.690477 0)scale(0.996264)"/>
       <use xlink:href="#CMR17-38" transform="translate(72.787654 0)scale(0.996264)"/>
       <use xlink:href="#CMR17-35" transform="translate(118.478131 0)scale(0.996264)"/>
      </g>
     </g>
    </g>
    <g id="ytick_2">
     <g id="line2d_7">
      <g>
       <use xlink:href="#ma25c9729d6" x="47.423785" y="24.807107" style="fill: #262626; stroke: #262626; stroke-width: 0.8"/>
      </g>
     </g>
     <g id="text_2">
      <!-- $\mathdefault{0.90}$ -->
      <g style="fill: #262626" transform="translate(20.941241 28.61228)scale(0.11 -0.11)">
       <defs>
        <path id="CMR17-39" d="M 2253 1864 
C 2253 464 1670 31 1190 31 
C 1043 31 685 31 538 294 
C 704 268 826 357 826 518 
C 826 692 685 749 595 749 
C 538 749 365 723 365 506 
C 365 71 742 -128 1203 -128 
C 1939 -128 2688 674 2688 2073 
C 2688 3817 1971 4179 1485 4179 
C 851 4179 243 3628 243 2778 
C 243 1991 762 1408 1414 1408 
C 1952 1408 2189 1903 2253 2112 
L 2253 1864 
z
M 1427 1510 
C 1254 1510 1011 1542 813 1922 
C 678 2169 678 2461 678 2771 
C 678 3146 678 3405 858 3684 
C 947 3817 1114 4032 1485 4032 
C 2240 4032 2240 2885 2240 2632 
C 2240 2182 2035 1510 1427 1510 
z
" transform="scale(0.015625)"/>
       </defs>
       <use xlink:href="#CMR17-30" transform="scale(0.996264)"/>
       <use xlink:href="#CMMI12-3a" transform="translate(45.690477 0)scale(0.996264)"/>
       <use xlink:href="#CMR17-39" transform="translate(72.787654 0)scale(0.996264)"/>
       <use xlink:href="#CMR17-30" transform="translate(118.478131 0)scale(0.996264)"/>
      </g>
     </g>
    </g>
    <g id="text_3">
     <!-- $u$ -->
     <g style="fill: #262626" transform="translate(14.810347 39.622801)rotate(-90)scale(0.11 -0.11)">
      <defs>
       <path id="CMMI12-75" d="M 2182 370 
C 2266 13 2573 -64 2726 -64 
C 2931 -64 3085 70 3187 287 
C 3296 517 3379 894 3379 913 
C 3379 945 3354 971 3315 971 
C 3258 971 3251 939 3226 843 
C 3110 402 2995 64 2739 64 
C 2547 64 2547 275 2547 358 
C 2547 505 2566 568 2630 837 
C 2675 1009 2720 1181 2758 1360 
L 3021 2401 
C 3066 2561 3066 2574 3066 2593 
C 3066 2689 2989 2753 2893 2753 
C 2707 2753 2662 2593 2624 2433 
C 2560 2184 2214 811 2170 588 
C 2163 588 1914 64 1446 64 
C 1114 64 1050 351 1050 588 
C 1050 952 1229 1462 1395 1890 
C 1472 2095 1504 2178 1504 2305 
C 1504 2580 1306 2816 998 2816 
C 410 2816 173 1890 173 1839 
C 173 1814 198 1782 243 1782 
C 301 1782 307 1807 333 1896 
C 486 2441 736 2682 979 2682 
C 1043 2682 1146 2682 1146 2478 
C 1146 2312 1075 2127 979 1884 
C 698 1124 666 881 666 690 
C 666 38 1158 -64 1421 -64 
C 1830 -64 2054 217 2182 370 
z
" transform="scale(0.015625)"/>
      </defs>
      <use xlink:href="#CMMI12-75" transform="scale(0.996264)"/>
     </g>
    </g>
   </g>
   <g id="patch_3">
    <path d="M 76.010442 52.161753 
L 76.010442 20.810347 
L 94.19085 20.810347 
L 94.19085 52.161753 
z
" clip-path="url(#p89fc48b2a4)" style="fill: #cd5c5c; opacity: 0.2; stroke: #ffffff; stroke-linejoin: miter"/>
   </g>
   <g id="patch_4">
    <path d="M 59.45813 52.161753 
L 59.45813 20.810347 
L 76.010442 20.810347 
L 76.010442 52.161753 
z
" clip-path="url(#p89fc48b2a4)" style="fill: #4682b4; opacity: 0.2; stroke: #ffffff; stroke-linejoin: miter"/>
   </g>
   <g id="patch_5">
    <path d="M 127.295474 52.161753 
L 127.295474 20.810347 
L 139.777546 20.810347 
L 139.777546 52.161753 
z
" clip-path="url(#p89fc48b2a4)" style="fill: #cd5c5c; opacity: 0.2; stroke: #ffffff; stroke-linejoin: miter"/>
   </g>
   <g id="patch_6">
    <path d="M 113.456656 52.161753 
L 113.456656 20.810347 
L 127.295474 20.810347 
L 127.295474 52.161753 
z
" clip-path="url(#p89fc48b2a4)" style="fill: #4682b4; opacity: 0.2; stroke: #ffffff; stroke-linejoin: miter"/>
   </g>
   <g id="patch_7">
    <path d="M 178.309157 52.161753 
L 178.309157 20.810347 
L 194.047421 20.810347 
L 194.047421 52.161753 
z
" clip-path="url(#p89fc48b2a4)" style="fill: #cd5c5c; opacity: 0.2; stroke: #ffffff; stroke-linejoin: miter"/>
   </g>
   <g id="patch_8">
    <path d="M 159.043351 52.161753 
L 159.043351 20.810347 
L 178.309157 20.810347 
L 178.309157 52.161753 
z
" clip-path="url(#p89fc48b2a4)" style="fill: #4682b4; opacity: 0.2; stroke: #ffffff; stroke-linejoin: miter"/>
   </g>
   <g id="patch_9">
    <path d="M 229.865539 52.161753 
L 229.865539 20.810347 
L 245.332453 20.810347 
L 245.332453 52.161753 
z
" clip-path="url(#p89fc48b2a4)" style="fill: #cd5c5c; opacity: 0.2; stroke: #ffffff; stroke-linejoin: miter"/>
   </g>
   <g id="patch_10">
    <path d="M 213.313227 52.161753 
L 213.313227 20.810347 
L 229.865539 20.810347 
L 229.865539 52.161753 
z
" clip-path="url(#p89fc48b2a4)" style="fill: #4682b4; opacity: 0.2; stroke: #ffffff; stroke-linejoin: miter"/>
   </g>
   <g id="patch_11">
    <path d="M 275.723584 52.161753 
L 275.723584 20.810347 
L 288.477004 20.810347 
L 288.477004 52.161753 
z
" clip-path="url(#p89fc48b2a4)" style="fill: #cd5c5c; opacity: 0.2; stroke: #ffffff; stroke-linejoin: miter"/>
   </g>
   <g id="patch_12">
    <path d="M 264.598259 52.161753 
L 264.598259 20.810347 
L 275.723584 20.810347 
L 275.723584 52.161753 
z
" clip-path="url(#p89fc48b2a4)" style="fill: #4682b4; opacity: 0.2; stroke: #ffffff; stroke-linejoin: miter"/>
   </g>
   <g id="line2d_8">
    <path d="M 58.915431 48.695061 
L 59.18678 48.698187 
L 59.45813 37.404378 
L 60.000828 31.399411 
L 60.543527 28.500253 
L 60.814877 27.911369 
L 61.086226 27.688433 
L 61.900274 28.431287 
L 62.442973 29.103353 
L 62.985672 29.661928 
L 63.52837 30.824507 
L 65.156467 33.611468 
L 65.427816 33.698002 
L 65.699165 34.433624 
L 66.241864 34.803563 
L 66.513214 35.162766 
L 67.327262 36.848188 
L 68.14131 38.055211 
L 68.412659 38.395289 
L 68.684009 39.122211 
L 68.955358 39.345472 
L 69.226707 39.882046 
L 69.498057 40.057979 
L 70.854804 41.852438 
L 71.126153 41.865006 
L 71.668852 42.407223 
L 72.4829 43.738222 
L 72.754249 43.908783 
L 73.296948 44.813235 
L 73.568297 44.728402 
L 74.653695 46.57575 
L 75.196394 46.978352 
L 75.739092 47.570091 
L 76.010442 36.464298 
L 76.553141 30.912031 
L 76.82449 29.342164 
L 77.095839 28.464743 
L 77.638538 27.882857 
L 77.909887 27.790028 
L 78.723936 28.542614 
L 78.995285 29.024567 
L 79.266634 29.158804 
L 79.537984 29.736002 
L 80.080682 30.275521 
L 81.16608 32.657229 
L 81.708779 33.256741 
L 81.980128 34.146166 
L 82.522827 34.760508 
L 83.065526 35.872853 
L 83.608224 36.322864 
L 84.150923 36.684066 
L 85.50767 38.705394 
L 85.779019 38.623903 
L 86.593067 40.259659 
L 87.407116 41.128792 
L 87.949814 42.047273 
L 88.492513 42.343334 
L 89.035212 42.840094 
L 89.306561 42.89931 
L 89.577911 43.458891 
L 89.84926 43.660111 
L 90.120609 44.209437 
L 90.391959 44.452415 
L 90.934658 44.538465 
L 92.020055 45.590544 
L 92.291404 45.571391 
L 92.562754 45.66508 
L 93.105453 46.383104 
L 93.376802 46.883343 
L 93.648151 46.850498 
L 93.919501 47.20801 
L 94.19085 36.162564 
L 94.733549 30.441682 
L 95.276248 27.601032 
L 95.547597 26.829178 
L 95.818946 26.551966 
L 96.090296 26.433654 
L 96.361645 26.483766 
L 97.175693 27.088645 
L 97.447043 27.525401 
L 97.718392 28.242332 
L 99.075139 30.133309 
L 99.617838 30.568696 
L 99.889187 31.264676 
L 100.431886 31.771843 
L 101.517283 34.033971 
L 102.059982 34.781477 
L 104.230777 38.108683 
L 104.502126 38.38552 
L 105.044825 39.343051 
L 105.316175 39.545252 
L 106.130223 40.741721 
L 106.401572 40.803602 
L 106.944271 41.637412 
L 107.21562 41.660666 
L 107.48697 42.265707 
L 107.758319 42.471112 
L 108.301018 42.601094 
L 108.572367 42.926502 
L 108.843716 43.076379 
L 109.115066 43.428242 
L 109.386415 44.051955 
L 109.657765 43.97694 
L 109.929114 44.61725 
L 110.200463 44.567158 
L 111.014511 45.091514 
L 111.285861 45.471291 
L 112.099909 45.679054 
L 112.371258 45.969119 
L 112.642608 45.856824 
L 113.185307 46.684315 
L 113.456656 35.726152 
L 113.999355 29.742029 
L 114.542053 27.490629 
L 114.813403 27.059717 
L 115.356102 26.797768 
L 116.17015 27.601466 
L 116.984198 28.656281 
L 117.798246 30.479431 
L 118.340945 31.323904 
L 119.154993 32.315721 
L 120.24039 34.095217 
L 120.783089 34.460264 
L 121.325788 35.634074 
L 122.139836 36.96372 
L 122.953884 37.906033 
L 123.225233 38.522695 
L 123.767932 38.686086 
L 124.85333 40.263106 
L 125.124679 40.79879 
L 125.396029 40.69986 
L 125.667378 40.977494 
L 125.938727 41.037483 
L 126.752775 42.090179 
L 127.024125 42.263623 
L 127.295474 32.042242 
L 127.838173 25.721525 
L 128.380872 22.971781 
L 128.652221 22.565175 
L 128.92357 22.361747 
L 129.19492 22.54539 
L 130.008968 23.787935 
L 131.908414 28.157069 
L 132.179763 28.508873 
L 132.722462 29.545037 
L 133.807859 31.821082 
L 134.893257 34.490174 
L 135.435955 35.472499 
L 135.978654 36.189911 
L 136.250004 36.744145 
L 136.521353 36.972396 
L 137.064052 38.058482 
L 137.335401 38.19181 
L 137.60675 38.653757 
L 137.8781 38.849228 
L 138.692148 40.401053 
L 139.506196 42.003708 
L 139.777546 31.825646 
L 140.320244 26.251366 
L 140.862943 24.166551 
L 141.134292 23.700684 
L 141.405642 23.649963 
L 141.676991 23.77731 
L 142.491039 24.885571 
L 144.119136 28.949346 
L 144.661834 30.48169 
L 144.933184 31.048396 
L 145.475882 32.534257 
L 146.018581 33.103141 
L 146.56128 34.279538 
L 147.103979 35.048831 
L 147.375328 35.478661 
L 147.646677 36.199379 
L 147.918027 36.336245 
L 149.003424 38.802537 
L 149.274774 38.999935 
L 151.445569 41.78784 
L 151.716918 41.762735 
L 151.988268 42.007317 
L 152.259617 42.66416 
L 153.345014 43.312887 
L 154.973111 45.76282 
L 155.24446 45.787035 
L 155.515809 46.321186 
L 155.787159 46.192455 
L 156.058508 46.375829 
L 157.143906 47.60939 
L 157.415255 47.623243 
L 157.686604 47.879922 
L 157.957954 47.856472 
L 158.772002 48.835004 
L 159.043351 37.518392 
L 159.58605 31.288271 
L 160.128749 28.646174 
L 160.400098 28.038344 
L 160.942797 27.732234 
L 161.214146 28.144387 
L 161.485496 28.310724 
L 162.570893 30.388209 
L 163.113592 32.008959 
L 163.92764 33.600423 
L 164.19899 34.403446 
L 164.470339 34.77555 
L 165.013038 35.772444 
L 165.555736 36.414128 
L 165.827086 37.230203 
L 167.726531 39.652989 
L 168.26923 41.055334 
L 168.54058 41.227863 
L 168.811929 41.684482 
L 169.354628 42.283234 
L 169.625977 42.829864 
L 169.897326 42.974643 
L 170.440025 43.729546 
L 171.254073 44.675358 
L 171.525423 44.737046 
L 171.796772 45.236302 
L 172.068121 45.3004 
L 172.339471 45.548561 
L 172.61082 46.042693 
L 173.153519 46.402172 
L 173.424868 46.837842 
L 173.696218 46.95579 
L 174.510266 48.18272 
L 175.595663 48.732157 
L 175.867013 48.604469 
L 176.409712 49.417371 
L 176.95241 49.861937 
L 177.22376 50.12669 
L 177.495109 50.063929 
L 177.766458 50.538756 
L 178.037808 50.736689 
L 178.309157 39.10313 
L 178.851856 34.442916 
L 179.394555 32.301706 
L 179.665904 31.781189 
L 179.937253 31.504643 
L 180.751302 32.103708 
L 181.022651 32.122536 
L 181.836699 33.238655 
L 182.922097 34.766749 
L 183.464795 35.120092 
L 184.278843 36.597553 
L 185.364241 37.633746 
L 185.63559 37.654471 
L 187.535036 39.99227 
L 187.806385 40.022461 
L 188.077735 40.498777 
L 188.620433 40.858065 
L 189.705831 41.597793 
L 191.062578 43.033036 
L 191.333927 43.660515 
L 191.605277 43.842735 
L 192.147975 44.591009 
L 192.419325 44.690848 
L 192.690674 44.983282 
L 192.962024 44.888448 
L 193.776072 45.458825 
L 194.047421 34.70491 
L 194.59012 29.316907 
L 195.132819 26.901114 
L 195.675517 26.067704 
L 196.218216 26.100963 
L 196.489565 26.624658 
L 196.760915 26.707835 
L 197.032264 27.08101 
L 197.303614 27.227767 
L 197.574963 27.967876 
L 198.117662 28.629505 
L 198.389011 29.031848 
L 198.93171 30.463643 
L 199.203059 30.716808 
L 200.288457 32.798989 
L 200.559806 33.116051 
L 201.102505 33.924319 
L 201.373854 34.349062 
L 201.645204 34.538628 
L 202.187902 35.293762 
L 202.459252 35.540937 
L 203.001951 36.567149 
L 203.2733 36.86724 
L 203.815999 37.91148 
L 204.630047 38.806386 
L 204.901396 38.781828 
L 205.172746 39.324049 
L 205.715444 39.83562 
L 205.986794 39.937146 
L 206.529492 40.532787 
L 207.072191 40.914751 
L 207.343541 41.017514 
L 207.61489 41.241231 
L 207.886239 41.270135 
L 208.157589 41.571161 
L 208.700287 42.656165 
L 208.971637 42.861063 
L 209.242986 42.816796 
L 209.514336 43.416227 
L 209.785685 43.655616 
L 210.057034 44.062315 
L 210.328384 44.088914 
L 210.599733 44.331747 
L 210.871082 43.962178 
L 211.413781 44.9008 
L 211.685131 44.924267 
L 211.95648 44.772264 
L 212.227829 45.600965 
L 213.041877 46.068189 
L 213.313227 35.212714 
L 213.855926 29.51935 
L 214.127275 27.999836 
L 214.669974 26.753566 
L 214.941323 26.4582 
L 215.212673 26.447189 
L 215.755371 26.602681 
L 216.840769 28.229624 
L 217.112118 28.503547 
L 217.654817 29.735171 
L 218.740214 30.956927 
L 219.011564 31.628112 
L 219.554263 32.097311 
L 220.63966 33.926424 
L 220.911009 34.451021 
L 221.182359 34.60444 
L 221.725058 35.837345 
L 222.267756 36.461583 
L 222.810455 37.005833 
L 223.081804 37.724114 
L 223.353154 37.887354 
L 223.895853 38.774031 
L 224.167202 38.79063 
L 224.438551 39.393652 
L 224.709901 39.54333 
L 224.98125 39.925422 
L 225.252599 39.899407 
L 225.523949 40.325318 
L 225.795298 40.435723 
L 226.066648 40.352368 
L 226.337997 40.740656 
L 226.609346 40.834833 
L 227.152045 41.224169 
L 227.694744 42.392066 
L 228.237443 42.447453 
L 229.051491 43.552404 
L 229.59419 44.361808 
L 229.865539 33.790729 
L 230.408238 28.038676 
L 230.950936 25.238685 
L 231.493635 24.393015 
L 231.764985 24.547433 
L 232.036334 24.39463 
L 233.121731 25.467399 
L 235.021177 28.850069 
L 235.292526 29.170592 
L 236.106575 31.088671 
L 236.377924 31.735684 
L 236.649273 32.005343 
L 236.920623 32.790963 
L 237.463321 33.329012 
L 238.27737 35.20523 
L 238.820068 35.941653 
L 239.634116 37.46805 
L 239.905466 37.686624 
L 240.448165 38.454832 
L 242.34761 40.756353 
L 242.890309 41.746611 
L 243.433008 42.49579 
L 243.704357 42.57703 
L 243.975707 42.853876 
L 244.518405 43.705661 
L 244.789755 43.665915 
L 245.061104 44.153352 
L 245.332453 33.617015 
L 245.875152 28.079811 
L 246.417851 25.75387 
L 246.96055 25.124414 
L 247.231899 25.319598 
L 247.503248 25.810604 
L 247.774598 25.977109 
L 248.317297 27.153389 
L 249.402694 28.684737 
L 250.216742 30.624232 
L 251.573489 33.717278 
L 251.844838 33.907062 
L 252.116188 33.90795 
L 252.930236 35.413382 
L 253.201585 35.427231 
L 253.472935 35.844524 
L 253.744284 36.005097 
L 254.015634 36.74611 
L 254.286983 37.048142 
L 254.558332 37.139201 
L 254.829682 37.364278 
L 255.101031 37.815557 
L 255.64373 38.235385 
L 255.915079 38.656103 
L 256.186429 38.845719 
L 256.457778 39.256581 
L 256.729127 39.412764 
L 257.000477 39.744702 
L 257.543175 40.904079 
L 258.357224 41.949357 
L 258.899922 42.085151 
L 259.171272 42.568819 
L 259.442621 42.725569 
L 259.71397 43.352066 
L 260.256669 43.662717 
L 260.528019 44.070449 
L 260.799368 44.256622 
L 261.342067 44.854486 
L 261.613416 45.09097 
L 261.884765 45.63529 
L 262.156115 45.824627 
L 262.427464 46.55862 
L 262.698814 46.866825 
L 262.970163 47.487192 
L 263.241512 47.330489 
L 263.784211 47.744083 
L 264.32691 47.980375 
L 264.598259 36.806201 
L 265.140958 30.861668 
L 265.683657 28.26429 
L 266.226356 27.747695 
L 266.497705 27.672436 
L 266.769054 27.748815 
L 268.6685 30.803794 
L 268.939849 31.05121 
L 270.025247 33.080592 
L 270.296596 33.394289 
L 270.567946 34.220821 
L 273.281439 38.253472 
L 273.552789 38.791685 
L 274.095487 39.370879 
L 274.366837 39.760148 
L 274.638186 39.896957 
L 275.180885 40.891272 
L 275.452234 41.288916 
L 275.723584 31.229985 
L 276.266282 25.099811 
L 276.537632 23.368626 
L 277.080331 22.235411 
L 277.35168 22.368928 
L 278.165728 23.37624 
L 278.708427 24.476854 
L 278.979776 24.780904 
L 281.150571 29.655416 
L 281.421921 29.997904 
L 281.964619 31.41939 
L 283.050017 32.825312 
L 283.321366 33.567401 
L 283.592716 33.620217 
L 284.135414 34.885795 
L 284.406764 35.205308 
L 284.949463 36.094029 
L 285.220812 36.523623 
L 286.03486 38.644457 
L 287.120258 40.125983 
L 287.391607 40.79722 
L 288.477004 41.811956 
L 288.477004 41.811956 
" clip-path="url(#p89fc48b2a4)" style="fill: none; stroke: #808080; stroke-width: 1.5; stroke-linecap: round"/>
   </g>
   <g id="LineCollection_1">
    <path d="M 59.18678 50.736689 
L 59.18678 22.235411 
" clip-path="url(#p89fc48b2a4)" style="fill: none; stroke: #808080; stroke-opacity: 0.5; stroke-width: 1.5"/>
    <path d="M 75.739092 50.736689 
L 75.739092 22.235411 
" clip-path="url(#p89fc48b2a4)" style="fill: none; stroke: #808080; stroke-opacity: 0.5; stroke-width: 1.5"/>
    <path d="M 93.919501 50.736689 
L 93.919501 22.235411 
" clip-path="url(#p89fc48b2a4)" style="fill: none; stroke: #808080; stroke-opacity: 0.5; stroke-width: 1.5"/>
    <path d="M 113.185307 50.736689 
L 113.185307 22.235411 
" clip-path="url(#p89fc48b2a4)" style="fill: none; stroke: #808080; stroke-opacity: 0.5; stroke-width: 1.5"/>
    <path d="M 127.024125 50.736689 
L 127.024125 22.235411 
" clip-path="url(#p89fc48b2a4)" style="fill: none; stroke: #808080; stroke-opacity: 0.5; stroke-width: 1.5"/>
    <path d="M 139.506196 50.736689 
L 139.506196 22.235411 
" clip-path="url(#p89fc48b2a4)" style="fill: none; stroke: #808080; stroke-opacity: 0.5; stroke-width: 1.5"/>
    <path d="M 158.772002 50.736689 
L 158.772002 22.235411 
" clip-path="url(#p89fc48b2a4)" style="fill: none; stroke: #808080; stroke-opacity: 0.5; stroke-width: 1.5"/>
    <path d="M 178.037808 50.736689 
L 178.037808 22.235411 
" clip-path="url(#p89fc48b2a4)" style="fill: none; stroke: #808080; stroke-opacity: 0.5; stroke-width: 1.5"/>
    <path d="M 193.776072 50.736689 
L 193.776072 22.235411 
" clip-path="url(#p89fc48b2a4)" style="fill: none; stroke: #808080; stroke-opacity: 0.5; stroke-width: 1.5"/>
    <path d="M 213.041877 50.736689 
L 213.041877 22.235411 
" clip-path="url(#p89fc48b2a4)" style="fill: none; stroke: #808080; stroke-opacity: 0.5; stroke-width: 1.5"/>
    <path d="M 229.59419 50.736689 
L 229.59419 22.235411 
" clip-path="url(#p89fc48b2a4)" style="fill: none; stroke: #808080; stroke-opacity: 0.5; stroke-width: 1.5"/>
    <path d="M 245.061104 50.736689 
L 245.061104 22.235411 
" clip-path="url(#p89fc48b2a4)" style="fill: none; stroke: #808080; stroke-opacity: 0.5; stroke-width: 1.5"/>
    <path d="M 264.32691 50.736689 
L 264.32691 22.235411 
" clip-path="url(#p89fc48b2a4)" style="fill: none; stroke: #808080; stroke-opacity: 0.5; stroke-width: 1.5"/>
    <path d="M 275.452234 50.736689 
L 275.452234 22.235411 
" clip-path="url(#p89fc48b2a4)" style="fill: none; stroke: #808080; stroke-opacity: 0.5; stroke-width: 1.5"/>
    <path d="M 288.205655 50.736689 
L 288.205655 22.235411 
" clip-path="url(#p89fc48b2a4)" style="fill: none; stroke: #808080; stroke-opacity: 0.5; stroke-width: 1.5"/>
   </g>
   <g id="patch_13">
    <path d="M 47.423785 52.161753 
L 47.423785 20.810347 
" style="fill: none; stroke: #262626; stroke-width: 0.8; stroke-linejoin: miter; stroke-linecap: square"/>
   </g>
   <g id="patch_14">
    <path d="M 47.423785 52.161753 
L 300.24 52.161753 
" style="fill: none; stroke: #262626; stroke-width: 0.8; stroke-linejoin: miter; stroke-linecap: square"/>
   </g>
   <g id="text_4">
    <!-- Experiment -->
    <g style="fill: #262626" transform="translate(147.834884 14.810347)scale(0.11 -0.11)">
     <defs>
      <path id="CMSS17-45" d="M 1958 433 
C 1446 433 1216 433 1101 433 
L 1101 2107 
L 3085 2107 
L 3085 2496 
L 1101 2496 
L 1101 4009 
L 1926 4009 
C 2003 4009 2080 4009 2157 4009 
L 3251 4009 
L 3251 4416 
L 563 4416 
L 563 0 
L 3334 0 
L 3334 433 
L 1958 433 
z
" transform="scale(0.015625)"/>
      <path id="CMSS17-78" d="M 1587 1414 
L 2656 2739 
L 2099 2739 
L 1363 1777 
L 602 2739 
L 32 2739 
L 1139 1414 
L 0 0 
L 563 0 
L 1363 1121 
L 2195 0 
L 2758 0 
L 1587 1414 
z
" transform="scale(0.015625)"/>
      <path id="CMSS17-70" d="M 966 333 
C 1178 129 1466 -5 1773 -5 
C 2368 -5 2880 603 2880 1412 
C 2880 2159 2496 2816 1946 2816 
C 1626 2816 1242 2702 954 2472 
L 954 2765 
L 480 2765 
L 480 -1216 
L 966 -1216 
L 966 333 
z
M 966 2100 
C 1018 2176 1235 2415 1587 2415 
C 2035 2415 2394 1960 2394 1412 
C 2394 787 1958 384 1530 384 
C 1402 384 1267 415 1139 523 
C 966 674 966 768 966 857 
L 966 2100 
z
" transform="scale(0.015625)"/>
      <path id="CMSS17-65" d="M 2502 1377 
C 2502 1590 2490 2003 2285 2345 
C 2061 2713 1696 2816 1421 2816 
C 755 2816 192 2188 192 1375 
C 192 582 774 -64 1510 -64 
C 1798 -64 2150 19 2470 248 
C 2470 274 2458 414 2451 420 
C 2451 433 2432 630 2432 656 
C 2125 407 1773 325 1517 325 
C 1107 325 666 667 646 1377 
L 2502 1377 
z
M 698 1728 
C 781 2084 1062 2421 1421 2421 
C 1517 2421 1965 2421 2080 1728 
L 698 1728 
z
" transform="scale(0.015625)"/>
      <path id="CMSS17-72" d="M 954 1363 
C 954 1965 1395 2368 1958 2368 
L 1958 2789 
C 1549 2789 1165 2585 934 2253 
L 934 2758 
L 480 2758 
L 480 0 
L 954 0 
L 954 1363 
z
" transform="scale(0.015625)"/>
      <path id="CMSS17-69" d="M 979 4183 
L 442 4183 
L 442 3648 
L 979 3648 
L 979 4183 
z
M 947 2739 
L 474 2739 
L 474 0 
L 947 0 
L 947 2739 
z
" transform="scale(0.015625)"/>
      <path id="CMSS17-6d" d="M 4288 1877 
C 4288 2308 4179 2816 3462 2816 
C 2982 2816 2694 2516 2566 2331 
C 2451 2670 2182 2816 1798 2816 
C 1363 2816 1088 2568 941 2389 
L 941 2758 
L 474 2758 
L 474 0 
L 960 0 
L 960 1559 
C 960 1939 1101 2428 1555 2428 
C 2138 2428 2138 2016 2138 1829 
L 2138 0 
L 2624 0 
L 2624 1559 
C 2624 1939 2765 2428 3219 2428 
C 3802 2428 3802 2016 3802 1829 
L 3802 0 
L 4288 0 
L 4288 1877 
z
" transform="scale(0.015625)"/>
      <path id="CMSS17-6e" d="M 2618 1877 
C 2618 2283 2522 2816 1798 2816 
C 1389 2816 1120 2606 941 2389 
L 941 2758 
L 474 2758 
L 474 0 
L 960 0 
L 960 1559 
C 960 1964 1114 2428 1549 2428 
C 2112 2428 2131 2048 2131 1829 
L 2131 0 
L 2618 0 
L 2618 1877 
z
" transform="scale(0.015625)"/>
      <path id="CMSS17-74" d="M 1069 2368 
L 1901 2368 
L 1901 2737 
L 1069 2737 
L 1069 3520 
L 614 3520 
L 614 2737 
L 109 2737 
L 109 2368 
L 602 2368 
L 602 749 
C 602 384 685 -64 1107 -64 
C 1427 -64 1722 25 2003 172 
L 1901 548 
C 1747 414 1562 337 1363 337 
C 1082 337 1069 696 1069 856 
L 1069 2368 
z
" transform="scale(0.015625)"/>
     </defs>
     <use xlink:href="#CMSS17-45" transform="scale(0.996264)"/>
     <use xlink:href="#CMSS17-78" transform="translate(55.892013 0)scale(0.996264)"/>
     <use xlink:href="#CMSS17-70" transform="translate(98.892155 0)scale(0.996264)"/>
     <use xlink:href="#CMSS17-65" transform="translate(149.699537 0)scale(0.996264)"/>
     <use xlink:href="#CMSS17-72" transform="translate(191.338359 0)scale(0.996264)"/>
     <use xlink:href="#CMSS17-69" transform="translate(223.248131 0)scale(0.996264)"/>
     <use xlink:href="#CMSS17-6d" transform="translate(245.428854 0)scale(0.996264)"/>
     <use xlink:href="#CMSS17-65" transform="translate(319.658109 0)scale(0.996264)"/>
     <use xlink:href="#CMSS17-6e" transform="translate(361.296931 0)scale(0.996264)"/>
     <use xlink:href="#CMSS17-74" transform="translate(409.501874 0)scale(0.996264)"/>
    </g>
   </g>
  </g>
  <g id="axes_2">
   <g id="patch_15">
    <path d="M 47.423785 102.687787 
L 300.24 102.687787 
L 300.24 71.336381 
L 47.423785 71.336381 
z
" style="fill: #ffffff"/>
   </g>
   <g id="matplotlib.axis_3">
    <g id="xtick_6">
     <g id="line2d_9">
      <g>
       <use xlink:href="#m0b634b38a2" x="58.915431" y="102.687787" style="fill: #262626; stroke: #262626; stroke-width: 0.8"/>
      </g>
     </g>
    </g>
    <g id="xtick_7">
     <g id="line2d_10">
      <g>
       <use xlink:href="#m0b634b38a2" x="113.185307" y="102.687787" style="fill: #262626; stroke: #262626; stroke-width: 0.8"/>
      </g>
     </g>
    </g>
    <g id="xtick_8">
     <g id="line2d_11">
      <g>
       <use xlink:href="#m0b634b38a2" x="167.455182" y="102.687787" style="fill: #262626; stroke: #262626; stroke-width: 0.8"/>
      </g>
     </g>
    </g>
    <g id="xtick_9">
     <g id="line2d_12">
      <g>
       <use xlink:href="#m0b634b38a2" x="221.725058" y="102.687787" style="fill: #262626; stroke: #262626; stroke-width: 0.8"/>
      </g>
     </g>
    </g>
    <g id="xtick_10">
     <g id="line2d_13">
      <g>
       <use xlink:href="#m0b634b38a2" x="275.994933" y="102.687787" style="fill: #262626; stroke: #262626; stroke-width: 0.8"/>
      </g>
     </g>
    </g>
   </g>
   <g id="matplotlib.axis_4">
    <g id="ytick_3">
     <g id="line2d_14">
      <g>
       <use xlink:href="#ma25c9729d6" x="47.423785" y="87.97321" style="fill: #262626; stroke: #262626; stroke-width: 0.8"/>
      </g>
     </g>
     <g id="text_5">
      <!-- $\mathdefault{0.7}$ -->
      <g style="fill: #262626" transform="translate(26.420709 91.778383)scale(0.11 -0.11)">
       <defs>
        <path id="CMR17-37" d="M 2886 3941 
L 2886 4081 
L 1382 4081 
C 634 4081 621 4165 595 4288 
L 480 4288 
L 294 3094 
L 410 3094 
C 429 3215 474 3540 550 3661 
C 589 3712 1062 3712 1171 3712 
L 2579 3712 
L 1869 2661 
C 1395 1954 1069 999 1069 165 
C 1069 89 1069 -128 1299 -128 
C 1530 -128 1530 89 1530 171 
L 1530 465 
C 1530 1508 1709 2196 2003 2636 
L 2886 3941 
z
" transform="scale(0.015625)"/>
       </defs>
       <use xlink:href="#CMR17-30" transform="scale(0.996264)"/>
       <use xlink:href="#CMMI12-3a" transform="translate(45.690477 0)scale(0.996264)"/>
       <use xlink:href="#CMR17-37" transform="translate(72.787654 0)scale(0.996264)"/>
      </g>
     </g>
    </g>
    <g id="ytick_4">
     <g id="line2d_15">
      <g>
       <use xlink:href="#ma25c9729d6" x="47.423785" y="71.344374" style="fill: #262626; stroke: #262626; stroke-width: 0.8"/>
      </g>
     </g>
     <g id="text_6">
      <!-- $\mathdefault{0.8}$ -->
      <g style="fill: #262626" transform="translate(26.420709 75.149548)scale(0.11 -0.11)">
       <use xlink:href="#CMR17-30" transform="scale(0.996264)"/>
       <use xlink:href="#CMMI12-3a" transform="translate(45.690477 0)scale(0.996264)"/>
       <use xlink:href="#CMR17-38" transform="translate(72.787654 0)scale(0.996264)"/>
      </g>
     </g>
    </g>
    <g id="text_7">
     <!-- $v$ -->
     <g style="fill: #262626" transform="translate(20.289814 89.668101)rotate(-90)scale(0.11 -0.11)">
      <defs>
       <path id="CMMI12-76" d="M 2925 2389 
C 2925 2791 2720 2816 2669 2816 
C 2515 2816 2374 2663 2374 2535 
C 2374 2459 2419 2414 2445 2389 
C 2509 2331 2675 2159 2675 1827 
C 2675 1558 2291 64 1523 64 
C 1133 64 1056 390 1056 626 
C 1056 945 1203 1392 1376 1852 
C 1478 2114 1504 2178 1504 2305 
C 1504 2574 1312 2816 998 2816 
C 410 2816 173 1890 173 1839 
C 173 1814 198 1782 243 1782 
C 301 1782 307 1807 333 1897 
C 486 2446 736 2689 979 2689 
C 1037 2689 1146 2689 1146 2478 
C 1146 2312 1075 2127 979 1884 
C 672 1067 672 869 672 715 
C 672 575 691 313 890 134 
C 1120 -64 1440 -64 1498 -64 
C 2560 -64 2925 2024 2925 2389 
z
" transform="scale(0.015625)"/>
      </defs>
      <use xlink:href="#CMMI12-76" transform="scale(0.996264)"/>
     </g>
    </g>
   </g>
   <g id="patch_16">
    <path d="M 76.010442 102.687787 
L 76.010442 71.336381 
L 94.19085 71.336381 
L 94.19085 102.687787 
z
" clip-path="url(#pc9ffb065bc)" style="fill: #cd5c5c; opacity: 0.2; stroke: #ffffff; stroke-linejoin: miter"/>
   </g>
   <g id="patch_17">
    <path d="M 59.45813 102.687787 
L 59.45813 71.336381 
L 76.010442 71.336381 
L 76.010442 102.687787 
z
" clip-path="url(#pc9ffb065bc)" style="fill: #4682b4; opacity: 0.2; stroke: #ffffff; stroke-linejoin: miter"/>
   </g>
   <g id="patch_18">
    <path d="M 127.295474 102.687787 
L 127.295474 71.336381 
L 139.777546 71.336381 
L 139.777546 102.687787 
z
" clip-path="url(#pc9ffb065bc)" style="fill: #cd5c5c; opacity: 0.2; stroke: #ffffff; stroke-linejoin: miter"/>
   </g>
   <g id="patch_19">
    <path d="M 113.456656 102.687787 
L 113.456656 71.336381 
L 127.295474 71.336381 
L 127.295474 102.687787 
z
" clip-path="url(#pc9ffb065bc)" style="fill: #4682b4; opacity: 0.2; stroke: #ffffff; stroke-linejoin: miter"/>
   </g>
   <g id="patch_20">
    <path d="M 178.309157 102.687787 
L 178.309157 71.336381 
L 194.047421 71.336381 
L 194.047421 102.687787 
z
" clip-path="url(#pc9ffb065bc)" style="fill: #cd5c5c; opacity: 0.2; stroke: #ffffff; stroke-linejoin: miter"/>
   </g>
   <g id="patch_21">
    <path d="M 159.043351 102.687787 
L 159.043351 71.336381 
L 178.309157 71.336381 
L 178.309157 102.687787 
z
" clip-path="url(#pc9ffb065bc)" style="fill: #4682b4; opacity: 0.2; stroke: #ffffff; stroke-linejoin: miter"/>
   </g>
   <g id="patch_22">
    <path d="M 229.865539 102.687787 
L 229.865539 71.336381 
L 245.332453 71.336381 
L 245.332453 102.687787 
z
" clip-path="url(#pc9ffb065bc)" style="fill: #cd5c5c; opacity: 0.2; stroke: #ffffff; stroke-linejoin: miter"/>
   </g>
   <g id="patch_23">
    <path d="M 213.313227 102.687787 
L 213.313227 71.336381 
L 229.865539 71.336381 
L 229.865539 102.687787 
z
" clip-path="url(#pc9ffb065bc)" style="fill: #4682b4; opacity: 0.2; stroke: #ffffff; stroke-linejoin: miter"/>
   </g>
   <g id="patch_24">
    <path d="M 275.723584 102.687787 
L 275.723584 71.336381 
L 288.477004 71.336381 
L 288.477004 102.687787 
z
" clip-path="url(#pc9ffb065bc)" style="fill: #cd5c5c; opacity: 0.2; stroke: #ffffff; stroke-linejoin: miter"/>
   </g>
   <g id="patch_25">
    <path d="M 264.598259 102.687787 
L 264.598259 71.336381 
L 275.723584 71.336381 
L 275.723584 102.687787 
z
" clip-path="url(#pc9ffb065bc)" style="fill: #4682b4; opacity: 0.2; stroke: #ffffff; stroke-linejoin: miter"/>
   </g>
   <g id="line2d_16">
    <path d="M 58.915431 76.286454 
L 59.18678 76.134634 
L 59.45813 97.508038 
L 60.000828 93.323917 
L 60.814877 89.578419 
L 61.628925 87.409453 
L 62.171624 86.559941 
L 62.442973 86.14379 
L 62.714322 85.995342 
L 62.985672 85.659028 
L 63.257021 85.098048 
L 63.79972 84.495289 
L 64.071069 84.45626 
L 64.342419 84.085627 
L 65.156467 83.719983 
L 65.427816 83.430886 
L 65.699165 82.951159 
L 65.970515 83.006699 
L 66.513214 82.780526 
L 67.055912 82.166949 
L 67.327262 82.088593 
L 68.412659 81.135056 
L 68.684009 81.089094 
L 70.583454 79.854556 
L 71.126153 79.599007 
L 71.668852 79.218782 
L 71.940201 79.227774 
L 72.4829 78.702059 
L 72.754249 78.607008 
L 73.025599 78.379341 
L 73.568297 77.756423 
L 74.110996 77.619004 
L 74.382346 77.428876 
L 74.653695 77.37538 
L 75.467743 76.890321 
L 75.739092 76.861673 
L 76.010442 98.113904 
L 76.553141 93.973141 
L 77.095839 91.402576 
L 77.638538 89.932668 
L 78.181237 89.081747 
L 78.452586 88.360586 
L 79.266634 87.704056 
L 82.794176 84.257479 
L 83.608224 83.838974 
L 85.779019 82.219525 
L 86.050369 82.145408 
L 86.321718 81.830936 
L 86.593067 81.796497 
L 87.678465 81.305314 
L 87.949814 81.252676 
L 89.035212 80.361412 
L 89.306561 80.441003 
L 89.84926 80.113277 
L 90.120609 80.020381 
L 90.391959 79.778858 
L 90.663308 79.856793 
L 90.934658 79.747384 
L 91.748706 79.078378 
L 92.562754 79.012524 
L 93.105453 78.923798 
L 93.376802 78.929358 
L 93.919501 78.693244 
L 94.19085 99.640214 
L 94.733549 95.276317 
L 95.276248 92.747453 
L 96.090296 90.484474 
L 97.175693 88.785641 
L 97.718392 88.10407 
L 98.261091 87.931573 
L 98.53244 87.77064 
L 99.889187 86.424486 
L 100.431886 86.144775 
L 100.703235 85.572821 
L 100.974585 85.424323 
L 101.245934 85.087681 
L 101.517283 85.017182 
L 101.788633 84.605009 
L 102.331331 84.32953 
L 102.87403 83.850652 
L 103.688078 83.000208 
L 104.230777 82.685943 
L 104.773476 82.479806 
L 105.044825 82.206246 
L 105.316175 82.117754 
L 105.587524 81.865968 
L 105.858873 81.87644 
L 107.758319 80.530933 
L 108.029668 80.61181 
L 108.301018 80.50021 
L 108.572367 80.509521 
L 109.929114 79.771222 
L 110.200463 79.82764 
L 110.471813 79.742609 
L 110.743162 79.396064 
L 111.55721 79.080497 
L 111.82856 79.089435 
L 112.371258 78.826461 
L 112.913957 78.851653 
L 113.185307 78.809443 
L 113.456656 99.737046 
L 113.999355 95.08242 
L 114.542053 92.467304 
L 115.084752 90.788142 
L 116.441499 88.307485 
L 116.712848 88.0243 
L 116.984198 87.556849 
L 117.255547 87.421648 
L 118.069595 86.508087 
L 118.340945 86.357348 
L 118.883643 85.782539 
L 119.154993 85.780551 
L 119.697692 85.185277 
L 121.325788 83.817569 
L 121.597137 83.502192 
L 121.868487 83.55751 
L 122.139836 83.26708 
L 122.411185 83.206283 
L 123.225233 82.562168 
L 123.767932 82.312681 
L 124.58198 81.761117 
L 125.396029 81.66941 
L 125.667378 81.496524 
L 125.938727 81.51744 
L 127.024125 80.640255 
L 127.295474 101.262723 
L 127.838173 95.568536 
L 128.380872 91.894086 
L 128.92357 89.478803 
L 129.737619 87.060514 
L 130.551667 85.477487 
L 132.722462 82.731467 
L 132.993811 82.491957 
L 133.53651 81.635797 
L 133.807859 81.506341 
L 134.079209 81.068645 
L 134.350558 80.891418 
L 134.621907 80.463621 
L 134.893257 80.255292 
L 135.164606 79.801585 
L 135.707305 79.442947 
L 136.250004 78.892668 
L 137.60675 78.305332 
L 137.8781 78.142294 
L 138.692148 77.255129 
L 139.506196 76.661473 
L 139.777546 97.947071 
L 140.320244 92.998187 
L 140.862943 90.148961 
L 141.405642 88.192582 
L 142.21969 86.223859 
L 143.305087 84.042755 
L 143.847786 83.335658 
L 144.933184 81.884094 
L 146.289931 80.61919 
L 146.832629 79.936158 
L 147.103979 79.742921 
L 147.375328 79.405923 
L 147.918027 79.217403 
L 148.460726 78.585112 
L 150.088822 77.525549 
L 150.90287 77.053799 
L 151.174219 76.983822 
L 151.445569 76.668275 
L 151.988268 76.472156 
L 152.259617 76.458679 
L 152.802316 76.138124 
L 153.073665 75.953166 
L 153.345014 75.957618 
L 154.430412 75.174354 
L 154.973111 75.215036 
L 156.058508 74.618255 
L 157.143906 74.287531 
L 157.415255 74.268239 
L 158.772002 73.457919 
L 159.043351 95.277442 
L 159.58605 90.453489 
L 160.128749 87.647861 
L 160.671448 85.95477 
L 162.299544 82.545206 
L 163.92764 80.468847 
L 164.741688 79.705548 
L 165.013038 79.736401 
L 166.098435 78.863036 
L 167.455182 77.833605 
L 169.897326 76.069554 
L 170.168676 76.117995 
L 170.982724 75.535693 
L 171.525423 75.424386 
L 171.796772 75.388318 
L 172.339471 74.927945 
L 172.61082 74.94013 
L 173.696218 74.16468 
L 173.967567 74.173637 
L 175.052965 73.744591 
L 175.324314 73.8727 
L 175.595663 73.610941 
L 176.409712 73.455378 
L 177.22376 73.097286 
L 177.495109 73.093181 
L 178.037808 72.761444 
L 178.309157 94.697047 
L 178.851856 91.371882 
L 179.394555 89.552524 
L 180.208603 87.974575 
L 181.022651 87.076141 
L 181.836699 86.485858 
L 182.108048 86.471138 
L 182.650747 85.779755 
L 183.464795 84.748163 
L 183.736145 84.8713 
L 184.278843 84.711027 
L 184.821542 84.405851 
L 185.092892 84.184595 
L 185.364241 84.131064 
L 185.63559 83.818913 
L 186.178289 83.616487 
L 186.720988 83.137405 
L 187.535036 83.105033 
L 188.077735 82.759129 
L 188.349084 82.74403 
L 188.620433 82.48598 
L 188.891783 82.484355 
L 189.434482 82.090316 
L 190.519879 81.656435 
L 190.791229 81.41166 
L 191.333927 81.292277 
L 191.605277 80.930857 
L 191.876626 80.975859 
L 192.690674 80.457865 
L 192.962024 80.306225 
L 193.233373 80.350492 
L 193.776072 80.11103 
L 194.047421 100.821702 
L 194.59012 96.684709 
L 195.132819 93.958569 
L 195.675517 92.119293 
L 195.946867 91.302247 
L 196.489565 90.479318 
L 196.760915 90.043608 
L 197.574963 89.262573 
L 198.117662 88.660366 
L 199.203059 87.7412 
L 199.745758 86.927874 
L 200.017107 86.865307 
L 200.831155 85.808834 
L 203.001951 84.462503 
L 203.2733 84.336017 
L 203.544649 83.997856 
L 203.815999 84.08017 
L 204.630047 83.50295 
L 205.172746 83.032483 
L 205.444095 83.001837 
L 205.715444 82.853134 
L 205.986794 82.880761 
L 206.258143 82.758003 
L 206.529492 82.804037 
L 206.800842 82.481493 
L 208.428938 81.516458 
L 208.700287 81.27927 
L 209.242986 81.280532 
L 209.785685 80.791837 
L 210.871082 80.514576 
L 211.142432 80.528259 
L 211.413781 80.666603 
L 211.685131 80.45017 
L 212.227829 80.251693 
L 212.770528 79.790287 
L 213.041877 79.71868 
L 213.313227 100.494743 
L 213.855926 96.250117 
L 214.398624 93.529185 
L 214.941323 91.778181 
L 216.29807 89.55814 
L 216.569419 89.401059 
L 217.112118 88.682557 
L 218.197516 87.348471 
L 218.740214 87.27274 
L 219.011564 86.86876 
L 219.282913 86.726219 
L 219.825612 86.197325 
L 220.911009 85.375818 
L 221.182359 85.088815 
L 221.725058 84.976099 
L 221.996407 84.803735 
L 222.810455 83.908624 
L 223.081804 83.880634 
L 223.624503 83.642009 
L 224.438551 83.212847 
L 225.523949 82.570205 
L 225.795298 82.545677 
L 226.337997 82.112151 
L 226.880696 81.973188 
L 227.152045 81.783628 
L 227.423395 81.785377 
L 229.59419 80.534025 
L 229.865539 101.174197 
L 230.408238 96.100881 
L 230.950936 93.133073 
L 231.493635 91.27345 
L 231.764985 90.87875 
L 232.307683 89.642268 
L 232.850382 88.51766 
L 233.121731 88.018902 
L 233.66443 87.507021 
L 235.292526 85.728325 
L 235.563876 85.592807 
L 236.377924 84.714033 
L 236.920623 84.324211 
L 238.820068 82.264308 
L 239.091418 82.219275 
L 239.905466 81.434181 
L 240.448165 80.993097 
L 240.719514 80.962511 
L 240.990863 80.609726 
L 241.533562 80.33428 
L 241.804912 80.307751 
L 242.61896 79.71283 
L 242.890309 79.780934 
L 243.975707 79.233242 
L 244.247056 79.136472 
L 244.518405 78.886861 
L 244.789755 78.812088 
L 245.061104 78.396797 
L 245.332453 99.393174 
L 245.875152 94.841195 
L 246.417851 91.93606 
L 247.231899 89.471647 
L 247.774598 88.291045 
L 248.859995 86.801434 
L 250.759441 84.783692 
L 251.573489 83.960624 
L 252.116188 83.226779 
L 252.658887 83.098652 
L 253.201585 82.611791 
L 253.472935 82.271705 
L 253.744284 82.227637 
L 254.015634 82.299113 
L 254.286983 82.249231 
L 255.64373 81.23594 
L 255.915079 81.263799 
L 256.457778 80.916787 
L 257.000477 80.516981 
L 257.271826 80.418554 
L 257.543175 79.977828 
L 258.085874 79.690337 
L 259.98532 78.996396 
L 260.256669 78.667455 
L 260.799368 78.571748 
L 261.070717 78.270362 
L 261.342067 78.272106 
L 262.698814 77.369928 
L 262.970163 77.39479 
L 263.784211 77.089907 
L 264.32691 76.730964 
L 264.598259 98.00498 
L 265.140958 93.458617 
L 265.683657 90.63683 
L 266.226356 88.990584 
L 266.497705 88.469522 
L 266.769054 87.676571 
L 267.040404 87.240815 
L 267.311753 87.021617 
L 268.6685 85.204365 
L 269.482548 84.523903 
L 270.296596 83.640425 
L 271.110644 82.938863 
L 271.381994 82.75684 
L 271.653343 82.360519 
L 272.196042 82.153038 
L 273.01009 81.157593 
L 274.095487 80.629081 
L 274.638186 80.143798 
L 275.452234 79.79904 
L 275.723584 100.56171 
L 276.266282 95.322001 
L 276.808981 91.902336 
L 277.623029 88.652338 
L 278.165728 87.478165 
L 278.708427 86.755899 
L 280.065174 84.353204 
L 280.879222 83.51222 
L 281.964619 82.151917 
L 283.050017 81.349014 
L 284.135414 80.534907 
L 285.492161 79.294181 
L 286.03486 78.842896 
L 286.306209 78.856361 
L 286.848908 78.258429 
L 287.934306 77.559808 
L 288.205655 77.550122 
L 288.477004 77.278567 
L 288.477004 77.278567 
" clip-path="url(#pc9ffb065bc)" style="fill: none; stroke: #808080; stroke-width: 1.5; stroke-linecap: round"/>
   </g>
   <g id="LineCollection_2">
    <path d="M 59.18678 101.262723 
L 59.18678 72.761444 
" clip-path="url(#pc9ffb065bc)" style="fill: none; stroke: #808080; stroke-opacity: 0.5; stroke-width: 1.5"/>
    <path d="M 75.739092 101.262723 
L 75.739092 72.761444 
" clip-path="url(#pc9ffb065bc)" style="fill: none; stroke: #808080; stroke-opacity: 0.5; stroke-width: 1.5"/>
    <path d="M 93.919501 101.262723 
L 93.919501 72.761444 
" clip-path="url(#pc9ffb065bc)" style="fill: none; stroke: #808080; stroke-opacity: 0.5; stroke-width: 1.5"/>
    <path d="M 113.185307 101.262723 
L 113.185307 72.761444 
" clip-path="url(#pc9ffb065bc)" style="fill: none; stroke: #808080; stroke-opacity: 0.5; stroke-width: 1.5"/>
    <path d="M 127.024125 101.262723 
L 127.024125 72.761444 
" clip-path="url(#pc9ffb065bc)" style="fill: none; stroke: #808080; stroke-opacity: 0.5; stroke-width: 1.5"/>
    <path d="M 139.506196 101.262723 
L 139.506196 72.761444 
" clip-path="url(#pc9ffb065bc)" style="fill: none; stroke: #808080; stroke-opacity: 0.5; stroke-width: 1.5"/>
    <path d="M 158.772002 101.262723 
L 158.772002 72.761444 
" clip-path="url(#pc9ffb065bc)" style="fill: none; stroke: #808080; stroke-opacity: 0.5; stroke-width: 1.5"/>
    <path d="M 178.037808 101.262723 
L 178.037808 72.761444 
" clip-path="url(#pc9ffb065bc)" style="fill: none; stroke: #808080; stroke-opacity: 0.5; stroke-width: 1.5"/>
    <path d="M 193.776072 101.262723 
L 193.776072 72.761444 
" clip-path="url(#pc9ffb065bc)" style="fill: none; stroke: #808080; stroke-opacity: 0.5; stroke-width: 1.5"/>
    <path d="M 213.041877 101.262723 
L 213.041877 72.761444 
" clip-path="url(#pc9ffb065bc)" style="fill: none; stroke: #808080; stroke-opacity: 0.5; stroke-width: 1.5"/>
    <path d="M 229.59419 101.262723 
L 229.59419 72.761444 
" clip-path="url(#pc9ffb065bc)" style="fill: none; stroke: #808080; stroke-opacity: 0.5; stroke-width: 1.5"/>
    <path d="M 245.061104 101.262723 
L 245.061104 72.761444 
" clip-path="url(#pc9ffb065bc)" style="fill: none; stroke: #808080; stroke-opacity: 0.5; stroke-width: 1.5"/>
    <path d="M 264.32691 101.262723 
L 264.32691 72.761444 
" clip-path="url(#pc9ffb065bc)" style="fill: none; stroke: #808080; stroke-opacity: 0.5; stroke-width: 1.5"/>
    <path d="M 275.452234 101.262723 
L 275.452234 72.761444 
" clip-path="url(#pc9ffb065bc)" style="fill: none; stroke: #808080; stroke-opacity: 0.5; stroke-width: 1.5"/>
    <path d="M 288.205655 101.262723 
L 288.205655 72.761444 
" clip-path="url(#pc9ffb065bc)" style="fill: none; stroke: #808080; stroke-opacity: 0.5; stroke-width: 1.5"/>
   </g>
   <g id="patch_26">
    <path d="M 47.423785 102.687787 
L 47.423785 71.336381 
" style="fill: none; stroke: #262626; stroke-width: 0.8; stroke-linejoin: miter; stroke-linecap: square"/>
   </g>
   <g id="patch_27">
    <path d="M 47.423785 102.687787 
L 300.24 102.687787 
" style="fill: none; stroke: #262626; stroke-width: 0.8; stroke-linejoin: miter; stroke-linecap: square"/>
   </g>
  </g>
  <g id="axes_3">
   <g id="patch_28">
    <path d="M 47.423785 153.213821 
L 300.24 153.213821 
L 300.24 121.862414 
L 47.423785 121.862414 
z
" style="fill: #ffffff"/>
   </g>
   <g id="matplotlib.axis_5">
    <g id="xtick_11">
     <g id="line2d_17">
      <g>
       <use xlink:href="#m0b634b38a2" x="58.915431" y="153.213821" style="fill: #262626; stroke: #262626; stroke-width: 0.8"/>
      </g>
     </g>
    </g>
    <g id="xtick_12">
     <g id="line2d_18">
      <g>
       <use xlink:href="#m0b634b38a2" x="113.185307" y="153.213821" style="fill: #262626; stroke: #262626; stroke-width: 0.8"/>
      </g>
     </g>
    </g>
    <g id="xtick_13">
     <g id="line2d_19">
      <g>
       <use xlink:href="#m0b634b38a2" x="167.455182" y="153.213821" style="fill: #262626; stroke: #262626; stroke-width: 0.8"/>
      </g>
     </g>
    </g>
    <g id="xtick_14">
     <g id="line2d_20">
      <g>
       <use xlink:href="#m0b634b38a2" x="221.725058" y="153.213821" style="fill: #262626; stroke: #262626; stroke-width: 0.8"/>
      </g>
     </g>
    </g>
    <g id="xtick_15">
     <g id="line2d_21">
      <g>
       <use xlink:href="#m0b634b38a2" x="275.994933" y="153.213821" style="fill: #262626; stroke: #262626; stroke-width: 0.8"/>
      </g>
     </g>
    </g>
   </g>
   <g id="matplotlib.axis_6">
    <g id="ytick_5">
     <g id="line2d_22">
      <g>
       <use xlink:href="#ma25c9729d6" x="47.423785" y="144.234068" style="fill: #262626; stroke: #262626; stroke-width: 0.8"/>
      </g>
     </g>
     <g id="text_8">
      <!-- $\mathdefault{0.1}$ -->
      <g style="fill: #262626" transform="translate(26.420709 148.039241)scale(0.11 -0.11)">
       <defs>
        <path id="CMR17-31" d="M 1702 4058 
C 1702 4192 1696 4192 1606 4192 
C 1357 3916 979 3827 621 3827 
C 602 3827 570 3827 563 3808 
C 557 3795 557 3782 557 3648 
C 755 3648 1088 3686 1344 3839 
L 1344 461 
C 1344 236 1331 160 781 160 
L 589 160 
L 589 0 
C 896 0 1216 0 1523 0 
C 1830 0 2150 0 2458 0 
L 2458 160 
L 2266 160 
C 1715 160 1702 230 1702 458 
L 1702 4058 
z
" transform="scale(0.015625)"/>
       </defs>
       <use xlink:href="#CMR17-30" transform="scale(0.996264)"/>
       <use xlink:href="#CMMI12-3a" transform="translate(45.690477 0)scale(0.996264)"/>
       <use xlink:href="#CMR17-31" transform="translate(72.787654 0)scale(0.996264)"/>
      </g>
     </g>
    </g>
    <g id="ytick_6">
     <g id="line2d_23">
      <g>
       <use xlink:href="#ma25c9729d6" x="47.423785" y="129.215905" style="fill: #262626; stroke: #262626; stroke-width: 0.8"/>
      </g>
     </g>
     <g id="text_9">
      <!-- $\mathdefault{0.2}$ -->
      <g style="fill: #262626" transform="translate(26.420709 133.021078)scale(0.11 -0.11)">
       <defs>
        <path id="CMR17-32" d="M 2669 989 
L 2554 989 
C 2490 536 2438 459 2413 420 
C 2381 369 1920 369 1830 369 
L 602 369 
C 832 619 1280 1072 1824 1597 
C 2214 1967 2669 2402 2669 3035 
C 2669 3790 2067 4224 1395 4224 
C 691 4224 262 3604 262 3030 
C 262 2780 448 2748 525 2748 
C 589 2748 781 2787 781 3010 
C 781 3207 614 3264 525 3264 
C 486 3264 448 3258 422 3245 
C 544 3790 915 4058 1306 4058 
C 1862 4058 2227 3617 2227 3035 
C 2227 2479 1901 2000 1536 1584 
L 262 146 
L 262 0 
L 2515 0 
L 2669 989 
z
" transform="scale(0.015625)"/>
       </defs>
       <use xlink:href="#CMR17-30" transform="scale(0.996264)"/>
       <use xlink:href="#CMMI12-3a" transform="translate(45.690477 0)scale(0.996264)"/>
       <use xlink:href="#CMR17-32" transform="translate(72.787654 0)scale(0.996264)"/>
      </g>
     </g>
    </g>
    <g id="text_10">
     <!-- $y$ -->
     <g style="fill: #262626" transform="translate(20.289814 140.224592)rotate(-90)scale(0.11 -0.11)">
      <defs>
       <path id="CMMI12-79" d="M 1683 -700 
C 1510 -939 1261 -1152 947 -1152 
C 870 -1152 563 -1152 467 -889 
C 486 -895 518 -895 531 -895 
C 723 -895 851 -729 851 -582 
C 851 -435 730 -384 634 -384 
C 531 -384 307 -458 307 -759 
C 307 -1071 582 -1286 947 -1286 
C 1587 -1286 2234 -700 2413 6 
L 3040 2485 
C 3046 2517 3059 2556 3059 2594 
C 3059 2689 2982 2753 2886 2753 
C 2829 2753 2694 2727 2643 2535 
L 2170 658 
C 2138 543 2138 530 2086 460 
C 1958 281 1747 64 1440 64 
C 1082 64 1050 415 1050 588 
C 1050 952 1222 1443 1395 1903 
C 1466 2088 1504 2178 1504 2305 
C 1504 2574 1312 2816 998 2816 
C 410 2816 173 1890 173 1839 
C 173 1814 198 1782 243 1782 
C 301 1782 307 1807 333 1897 
C 486 2433 730 2689 979 2689 
C 1037 2689 1146 2689 1146 2478 
C 1146 2312 1075 2127 979 1884 
C 666 1047 666 837 666 683 
C 666 77 1101 -64 1421 -64 
C 1606 -64 1837 -6 2061 230 
L 2067 224 
C 1971 -147 1907 -392 1683 -700 
z
" transform="scale(0.015625)"/>
      </defs>
      <use xlink:href="#CMMI12-79" transform="scale(0.996264)"/>
     </g>
    </g>
   </g>
   <g id="patch_29">
    <path d="M 76.010442 153.213821 
L 76.010442 121.862414 
L 94.19085 121.862414 
L 94.19085 153.213821 
z
" clip-path="url(#p5a4b7a6762)" style="fill: #cd5c5c; opacity: 0.2; stroke: #ffffff; stroke-linejoin: miter"/>
   </g>
   <g id="patch_30">
    <path d="M 59.45813 153.213821 
L 59.45813 121.862414 
L 76.010442 121.862414 
L 76.010442 153.213821 
z
" clip-path="url(#p5a4b7a6762)" style="fill: #4682b4; opacity: 0.2; stroke: #ffffff; stroke-linejoin: miter"/>
   </g>
   <g id="patch_31">
    <path d="M 127.295474 153.213821 
L 127.295474 121.862414 
L 139.777546 121.862414 
L 139.777546 153.213821 
z
" clip-path="url(#p5a4b7a6762)" style="fill: #cd5c5c; opacity: 0.2; stroke: #ffffff; stroke-linejoin: miter"/>
   </g>
   <g id="patch_32">
    <path d="M 113.456656 153.213821 
L 113.456656 121.862414 
L 127.295474 121.862414 
L 127.295474 153.213821 
z
" clip-path="url(#p5a4b7a6762)" style="fill: #4682b4; opacity: 0.2; stroke: #ffffff; stroke-linejoin: miter"/>
   </g>
   <g id="patch_33">
    <path d="M 178.309157 153.213821 
L 178.309157 121.862414 
L 194.047421 121.862414 
L 194.047421 153.213821 
z
" clip-path="url(#p5a4b7a6762)" style="fill: #cd5c5c; opacity: 0.2; stroke: #ffffff; stroke-linejoin: miter"/>
   </g>
   <g id="patch_34">
    <path d="M 159.043351 153.213821 
L 159.043351 121.862414 
L 178.309157 121.862414 
L 178.309157 153.213821 
z
" clip-path="url(#p5a4b7a6762)" style="fill: #4682b4; opacity: 0.2; stroke: #ffffff; stroke-linejoin: miter"/>
   </g>
   <g id="patch_35">
    <path d="M 229.865539 153.213821 
L 229.865539 121.862414 
L 245.332453 121.862414 
L 245.332453 153.213821 
z
" clip-path="url(#p5a4b7a6762)" style="fill: #cd5c5c; opacity: 0.2; stroke: #ffffff; stroke-linejoin: miter"/>
   </g>
   <g id="patch_36">
    <path d="M 213.313227 153.213821 
L 213.313227 121.862414 
L 229.865539 121.862414 
L 229.865539 153.213821 
z
" clip-path="url(#p5a4b7a6762)" style="fill: #4682b4; opacity: 0.2; stroke: #ffffff; stroke-linejoin: miter"/>
   </g>
   <g id="patch_37">
    <path d="M 275.723584 153.213821 
L 275.723584 121.862414 
L 288.477004 121.862414 
L 288.477004 153.213821 
z
" clip-path="url(#p5a4b7a6762)" style="fill: #cd5c5c; opacity: 0.2; stroke: #ffffff; stroke-linejoin: miter"/>
   </g>
   <g id="patch_38">
    <path d="M 264.598259 153.213821 
L 264.598259 121.862414 
L 275.723584 121.862414 
L 275.723584 153.213821 
z
" clip-path="url(#p5a4b7a6762)" style="fill: #4682b4; opacity: 0.2; stroke: #ffffff; stroke-linejoin: miter"/>
   </g>
   <g id="line2d_24">
    <path d="M 58.915431 147.54706 
L 59.18678 147.627506 
L 59.729479 139.804545 
L 60.000828 138.218414 
L 60.543527 134.273311 
L 61.357575 132.083538 
L 61.628925 132.075108 
L 62.171624 131.666534 
L 62.442973 132.168144 
L 62.714322 133.023824 
L 62.985672 133.289574 
L 63.52837 133.221361 
L 64.071069 134.224488 
L 64.342419 134.105403 
L 64.613768 135.743633 
L 65.156467 136.174074 
L 65.427816 136.025517 
L 65.699165 136.908001 
L 65.970515 136.22975 
L 66.241864 136.18343 
L 66.513214 137.120056 
L 66.784563 137.298165 
L 67.327262 137.202336 
L 67.598611 136.715574 
L 67.86996 137.050802 
L 68.14131 137.779062 
L 68.412659 138.076699 
L 69.226707 139.951216 
L 69.498057 139.845684 
L 69.769406 140.281681 
L 70.583454 142.060167 
L 70.854804 142.238535 
L 71.126153 141.728493 
L 71.668852 142.758286 
L 71.940201 142.099947 
L 72.4829 143.165106 
L 73.025599 143.101142 
L 73.296948 143.162074 
L 73.568297 143.606683 
L 73.839647 144.83075 
L 74.110996 144.215628 
L 74.382346 145.148547 
L 74.653695 145.144168 
L 74.925044 144.979409 
L 75.196394 144.465079 
L 75.467743 145.784016 
L 75.739092 145.992624 
L 76.281791 138.494633 
L 76.82449 135.235467 
L 77.095839 133.944345 
L 77.367189 133.950596 
L 77.638538 133.276958 
L 77.909887 131.561127 
L 78.181237 130.674627 
L 78.452586 130.668541 
L 78.723936 130.775529 
L 78.995285 131.645935 
L 79.266634 132.93252 
L 79.537984 133.251021 
L 79.809333 132.984699 
L 80.080682 132.352319 
L 80.352032 132.050539 
L 80.894731 131.797979 
L 81.16608 131.555778 
L 81.437429 131.557177 
L 81.708779 131.701409 
L 81.980128 131.380226 
L 82.251477 131.722889 
L 82.522827 132.417452 
L 82.794176 133.541344 
L 83.065526 133.146572 
L 83.608224 134.387762 
L 84.150923 134.979139 
L 84.422272 135.586922 
L 84.693622 135.703436 
L 84.964971 136.506213 
L 85.50767 136.50018 
L 85.779019 137.44052 
L 86.050369 137.527896 
L 86.593067 138.444175 
L 87.135766 138.631548 
L 87.678465 138.245886 
L 87.949814 138.326668 
L 88.221164 138.885556 
L 88.492513 138.661781 
L 88.763863 138.293968 
L 89.577911 140.59733 
L 89.84926 141.538957 
L 90.120609 140.917798 
L 90.934658 142.173321 
L 91.206007 142.283258 
L 91.477356 142.269317 
L 92.020055 142.847284 
L 92.291404 143.667419 
L 92.562754 143.74958 
L 92.834103 143.47101 
L 93.105453 143.645752 
L 93.376802 142.927137 
L 93.648151 142.66103 
L 93.919501 142.782967 
L 94.19085 140.229278 
L 94.733549 133.77329 
L 95.004898 131.905055 
L 95.547597 129.931267 
L 95.818946 129.809956 
L 96.361645 127.857351 
L 96.632994 128.029283 
L 96.904344 127.713269 
L 97.175693 128.400958 
L 97.447043 127.691824 
L 97.718392 128.414532 
L 97.989741 128.194766 
L 98.53244 129.147948 
L 99.075139 129.74146 
L 99.346488 129.413082 
L 99.889187 130.836049 
L 100.431886 132.037363 
L 100.974585 133.390315 
L 101.517283 133.973783 
L 101.788633 134.186749 
L 102.059982 134.601282 
L 102.331331 135.326022 
L 102.602681 135.594224 
L 102.87403 135.552702 
L 103.416729 137.348072 
L 103.959428 137.514363 
L 104.230777 136.974193 
L 104.502126 137.320569 
L 105.044825 138.311346 
L 105.858873 138.955447 
L 106.130223 139.433822 
L 106.401572 139.399381 
L 106.672921 138.789703 
L 106.944271 140.016421 
L 107.21562 139.835395 
L 107.758319 140.742719 
L 108.029668 140.78847 
L 108.843716 141.544971 
L 109.115066 141.082935 
L 109.386415 141.551936 
L 109.657765 141.051107 
L 109.929114 141.303198 
L 110.200463 141.719734 
L 110.471813 141.403347 
L 110.743162 141.287645 
L 111.014511 142.27844 
L 111.285861 142.276533 
L 111.55721 143.050343 
L 111.82856 142.833231 
L 112.099909 143.289504 
L 112.371258 143.522965 
L 112.642608 144.209921 
L 112.913957 145.403161 
L 113.185307 145.293507 
L 113.728005 137.28322 
L 114.270704 132.525797 
L 114.542053 130.815135 
L 115.084752 129.157222 
L 115.356102 129.489425 
L 115.627451 129.390633 
L 116.17015 130.587321 
L 116.441499 130.858218 
L 116.712848 130.671253 
L 116.984198 130.631662 
L 117.526897 132.03437 
L 117.798246 132.438155 
L 118.069595 132.007254 
L 118.340945 131.834853 
L 118.612294 132.376502 
L 118.883643 134.14748 
L 119.154993 133.751806 
L 119.426342 133.885251 
L 119.697692 133.482234 
L 119.969041 133.359561 
L 120.24039 132.999202 
L 120.51174 133.573815 
L 120.783089 133.606059 
L 121.054438 134.433154 
L 121.325788 134.756706 
L 121.597137 136.001696 
L 121.868487 136.008081 
L 122.139836 136.23473 
L 122.411185 136.82231 
L 122.682535 135.571917 
L 123.225233 137.761245 
L 123.496583 137.262127 
L 124.039282 137.418124 
L 124.310631 136.935577 
L 124.85333 137.67171 
L 125.124679 137.4863 
L 125.396029 137.149193 
L 125.667378 137.781218 
L 125.938727 138.023047 
L 126.210077 137.739875 
L 126.481426 138.11497 
L 126.752775 137.848755 
L 127.024125 138.740904 
L 127.295474 134.857747 
L 127.566824 134.001487 
L 128.109522 129.520595 
L 128.380872 129.430093 
L 128.92357 128.32125 
L 129.19492 127.295879 
L 129.737619 128.348511 
L 130.008968 128.391939 
L 130.280317 129.99507 
L 130.551667 129.814726 
L 130.823016 130.89913 
L 131.094365 130.641708 
L 132.179763 133.939445 
L 132.451112 134.279339 
L 132.722462 133.350568 
L 132.993811 133.381518 
L 133.807859 136.4882 
L 134.350558 137.072707 
L 134.621907 137.151819 
L 134.893257 137.00766 
L 135.435955 138.712673 
L 135.707305 138.63228 
L 136.250004 140.247013 
L 136.521353 140.6354 
L 136.792702 139.946683 
L 137.064052 140.425215 
L 137.60675 140.505803 
L 138.420799 142.956807 
L 138.692148 143.02553 
L 138.963497 144.123052 
L 139.234847 143.823434 
L 139.506196 144.166659 
L 140.320244 135.027197 
L 140.862943 132.94798 
L 141.134292 131.98684 
L 141.405642 132.112094 
L 141.676991 132.653584 
L 141.948341 131.855399 
L 142.762389 132.326804 
L 143.033738 131.447726 
L 143.305087 132.520985 
L 143.576437 131.92638 
L 144.119136 132.591777 
L 144.661834 135.172377 
L 144.933184 135.49884 
L 145.204533 136.58711 
L 145.475882 137.133343 
L 145.747232 136.985997 
L 146.018581 137.66817 
L 146.56128 137.462206 
L 146.832629 136.936896 
L 147.103979 136.977799 
L 147.646677 137.568419 
L 147.918027 138.246219 
L 148.189376 139.961398 
L 148.460726 140.368694 
L 148.732075 140.455836 
L 149.274774 142.278728 
L 149.546123 141.791132 
L 149.817472 141.852602 
L 150.360171 142.398615 
L 150.631521 143.147638 
L 151.174219 142.63217 
L 151.445569 142.767252 
L 151.716918 142.744266 
L 152.259617 143.631622 
L 152.530966 143.853956 
L 153.345014 145.332679 
L 153.616364 145.566119 
L 153.887713 145.28041 
L 154.159063 146.563407 
L 154.701761 146.971706 
L 154.973111 146.980331 
L 155.515809 147.422662 
L 155.787159 148.628631 
L 156.058508 149.014182 
L 156.601207 148.533657 
L 156.872556 149.752169 
L 157.686604 150.862592 
L 157.957954 151.136363 
L 158.229303 151.788757 
L 158.500653 150.516805 
L 158.772002 149.850425 
L 159.314701 142.715973 
L 159.857399 138.245382 
L 160.128749 137.840404 
L 160.671448 135.836486 
L 160.942797 136.291525 
L 161.214146 135.611881 
L 161.485496 136.072083 
L 161.756845 135.750085 
L 162.028194 135.74551 
L 162.299544 135.54986 
L 162.570893 135.574699 
L 162.842243 134.909476 
L 163.384941 136.319786 
L 163.92764 137.602062 
L 164.19899 138.311003 
L 164.470339 138.527781 
L 165.013038 139.113503 
L 165.284387 139.050438 
L 165.555736 139.35436 
L 165.827086 140.509459 
L 166.369785 140.571017 
L 166.641134 140.898283 
L 166.912483 141.783124 
L 167.183833 142.245863 
L 167.455182 142.979598 
L 167.726531 143.336055 
L 167.997881 143.1107 
L 168.26923 142.204622 
L 168.54058 142.991139 
L 168.811929 142.529221 
L 169.083278 142.385186 
L 169.354628 143.211348 
L 169.625977 143.183004 
L 170.168676 144.988371 
L 170.440025 145.425648 
L 170.711375 145.279545 
L 170.982724 144.614894 
L 172.068121 147.415027 
L 172.339471 147.478481 
L 172.61082 147.102234 
L 172.88217 147.885581 
L 173.153519 147.866543 
L 173.424868 148.829508 
L 173.696218 148.115616 
L 173.967567 147.932222 
L 174.238916 148.376259 
L 174.781615 150.303555 
L 175.052965 149.994372 
L 175.324314 150.513377 
L 175.595663 150.09831 
L 175.867013 150.003517 
L 176.138362 150.466588 
L 176.681061 150.516115 
L 176.95241 150.765746 
L 177.22376 150.424557 
L 177.495109 150.335586 
L 177.766458 150.002578 
L 178.037808 150.877198 
L 178.309157 146.558799 
L 179.123205 139.677934 
L 179.394555 138.211039 
L 179.937253 136.855324 
L 180.479952 133.567329 
L 180.751302 134.122769 
L 181.022651 133.443794 
L 181.294 133.446802 
L 181.56535 133.101079 
L 181.836699 133.260605 
L 182.108048 133.092287 
L 182.379398 133.432943 
L 183.193446 132.458438 
L 183.464795 132.887689 
L 183.736145 134.024896 
L 184.550193 135.432796 
L 185.092892 136.700199 
L 185.364241 136.256254 
L 185.63559 137.014204 
L 185.90694 136.827978 
L 186.720988 137.779803 
L 187.263687 137.500925 
L 187.535036 137.128801 
L 188.077735 139.139279 
L 188.349084 139.092473 
L 188.620433 139.657635 
L 188.891783 139.27111 
L 189.163132 140.053792 
L 189.434482 139.897127 
L 189.705831 139.355028 
L 190.24853 139.861859 
L 190.519879 139.076627 
L 190.791229 139.691374 
L 191.062578 139.557787 
L 192.147975 140.786749 
L 192.419325 141.583273 
L 193.233373 142.452733 
L 193.504722 143.346722 
L 193.776072 143.542029 
L 194.59012 135.264373 
L 195.132819 131.791736 
L 195.404168 129.715806 
L 195.675517 129.163243 
L 196.218216 128.837241 
L 196.489565 129.25945 
L 196.760915 128.779968 
L 197.032264 128.641257 
L 197.303614 129.153661 
L 197.574963 130.032469 
L 197.846312 130.39724 
L 198.117662 130.337832 
L 198.389011 130.111832 
L 198.66036 130.235912 
L 198.93171 131.307173 
L 199.203059 131.193574 
L 199.474409 130.839493 
L 199.745758 131.249794 
L 200.017107 131.147549 
L 200.288457 131.547054 
L 200.559806 131.224352 
L 200.831155 131.470956 
L 201.102505 132.215423 
L 201.373854 131.788621 
L 201.645204 132.094196 
L 201.916553 132.109194 
L 202.187902 132.372015 
L 202.730601 133.433944 
L 203.001951 133.359394 
L 203.815999 136.100067 
L 204.087348 136.35841 
L 204.358697 135.669015 
L 204.630047 136.483971 
L 205.172746 136.98017 
L 205.444095 138.040301 
L 205.715444 138.196646 
L 205.986794 137.823647 
L 206.529492 138.889409 
L 206.800842 138.94086 
L 207.072191 139.612278 
L 207.61489 140.064689 
L 207.886239 139.757514 
L 208.157589 139.78651 
L 208.700287 140.421786 
L 209.242986 141.372527 
L 209.514336 141.260613 
L 210.057034 142.898455 
L 210.328384 142.984283 
L 210.599733 142.885744 
L 210.871082 141.987829 
L 211.142432 141.941245 
L 211.413781 141.700341 
L 211.685131 141.885641 
L 211.95648 142.333911 
L 212.227829 142.079759 
L 212.499179 141.180356 
L 212.770528 142.421612 
L 213.041877 142.787003 
L 213.584576 137.156919 
L 213.855926 134.331771 
L 214.127275 133.662073 
L 214.398624 132.589286 
L 214.669974 130.749643 
L 214.941323 130.149519 
L 215.212673 128.991579 
L 215.484022 128.53238 
L 216.026721 126.653445 
L 216.29807 126.557001 
L 216.569419 127.49247 
L 216.840769 127.432265 
L 217.383468 127.863115 
L 217.654817 129.272878 
L 217.926166 128.542844 
L 218.197516 128.654742 
L 219.282913 131.311318 
L 219.554263 132.969368 
L 219.825612 132.946228 
L 220.368311 133.739803 
L 220.63966 133.720085 
L 220.911009 133.375029 
L 221.182359 133.405965 
L 221.725058 134.233694 
L 221.996407 135.1901 
L 222.267756 135.657147 
L 222.539106 135.898429 
L 222.810455 135.607068 
L 223.081804 135.823041 
L 223.353154 136.942417 
L 223.624503 136.885371 
L 223.895853 136.528517 
L 224.167202 136.580003 
L 224.438551 136.305699 
L 224.709901 136.902158 
L 224.98125 138.024668 
L 225.252599 138.262949 
L 225.523949 138.05437 
L 225.795298 138.77728 
L 226.066648 138.568038 
L 226.337997 139.438024 
L 226.609346 139.145801 
L 226.880696 139.410776 
L 227.152045 140.467142 
L 227.423395 140.946932 
L 227.694744 141.183112 
L 227.966093 141.20337 
L 228.237443 141.435475 
L 228.508792 142.265404 
L 229.051491 141.867316 
L 229.32284 141.749966 
L 229.59419 141.381058 
L 230.136888 135.289547 
L 230.408238 133.422672 
L 231.493635 130.11373 
L 231.764985 129.433934 
L 232.307683 129.091681 
L 232.579033 128.739136 
L 232.850382 128.786568 
L 233.393081 129.705455 
L 233.66443 128.911629 
L 233.93578 129.437593 
L 234.207129 129.405759 
L 234.478478 129.866261 
L 235.563876 130.907312 
L 235.835225 131.249858 
L 236.106575 130.794313 
L 236.377924 131.44196 
L 236.649273 132.525852 
L 236.920623 132.638473 
L 237.191972 133.433233 
L 237.463321 134.81526 
L 237.734671 134.943991 
L 238.00602 134.769346 
L 238.27737 137.100656 
L 238.548719 137.798232 
L 238.820068 137.913756 
L 239.091418 137.049493 
L 239.362767 137.839486 
L 239.634116 137.799643 
L 239.905466 138.193346 
L 240.176815 138.801633 
L 240.448165 138.455116 
L 240.990863 140.118753 
L 241.804912 142.631256 
L 242.076261 142.092532 
L 242.34761 142.425438 
L 242.890309 142.544083 
L 243.161658 142.680333 
L 243.433008 142.520004 
L 243.704357 142.939746 
L 243.975707 143.037312 
L 244.247056 143.942457 
L 244.518405 144.041196 
L 244.789755 143.965625 
L 245.061104 144.141996 
L 245.875152 133.977379 
L 246.146502 131.715441 
L 246.417851 131.873486 
L 246.96055 129.433208 
L 247.503248 128.735452 
L 247.774598 128.330477 
L 248.045947 128.670205 
L 248.317297 129.260986 
L 248.588646 129.462749 
L 249.131345 131.220551 
L 249.945393 131.73341 
L 250.488092 133.467977 
L 250.759441 134.803036 
L 251.30214 133.852745 
L 251.573489 134.564307 
L 251.844838 134.53687 
L 252.116188 134.933306 
L 252.387537 136.10984 
L 252.658887 135.957194 
L 252.930236 136.977885 
L 253.472935 138.032178 
L 253.744284 138.155312 
L 254.015634 137.694996 
L 254.286983 138.663091 
L 254.558332 137.969881 
L 255.101031 138.381252 
L 255.37238 138.180211 
L 255.915079 139.87648 
L 256.186429 139.948878 
L 256.457778 140.303311 
L 256.729127 141.071066 
L 257.000477 140.244445 
L 257.271826 139.947035 
L 257.543175 140.870575 
L 258.085874 140.492357 
L 258.357224 140.623382 
L 258.628573 141.425244 
L 258.899922 140.732969 
L 259.171272 140.673767 
L 259.442621 141.095968 
L 259.71397 141.156252 
L 259.98532 141.408699 
L 260.528019 142.926401 
L 260.799368 142.628113 
L 261.342067 142.953879 
L 261.613416 143.566666 
L 261.884765 143.807241 
L 262.156115 144.592193 
L 262.427464 144.641931 
L 262.698814 145.450071 
L 262.970163 145.609442 
L 263.512862 145.20016 
L 264.32691 147.462638 
L 265.140958 138.551683 
L 265.412307 135.933518 
L 266.226356 132.939403 
L 266.769054 132.059322 
L 267.040404 131.904477 
L 267.311753 131.979745 
L 267.583102 130.899696 
L 267.854452 130.592497 
L 268.125801 130.658957 
L 268.6685 131.986329 
L 268.939849 131.959357 
L 269.211199 133.067254 
L 269.482548 133.039595 
L 269.753897 133.378762 
L 270.025247 133.186066 
L 270.296596 133.382287 
L 270.567946 133.737524 
L 270.839295 133.615494 
L 271.924692 136.432541 
L 272.196042 136.835783 
L 272.738741 137.139938 
L 273.281439 136.909439 
L 273.552789 137.171283 
L 273.824138 139.192755 
L 274.366837 140.729498 
L 274.638186 140.382353 
L 275.180885 141.159493 
L 275.452234 141.205735 
L 275.994933 133.746291 
L 276.537632 129.481048 
L 276.808981 128.528189 
L 277.35168 127.649417 
L 277.623029 127.412157 
L 277.894379 126.787533 
L 278.165728 127.957455 
L 278.708427 128.949959 
L 278.979776 128.485486 
L 279.251126 130.070984 
L 279.793824 131.303944 
L 280.065174 131.952952 
L 280.336523 131.503486 
L 280.879222 133.517445 
L 281.150571 133.267595 
L 281.421921 133.454724 
L 281.69327 133.825115 
L 281.964619 133.770144 
L 282.235969 134.53816 
L 282.507318 134.712996 
L 283.050017 135.582872 
L 283.321366 136.735498 
L 283.864065 137.262899 
L 284.406764 137.363098 
L 284.949463 138.385803 
L 285.220812 139.704498 
L 285.492161 139.622941 
L 285.763511 141.483949 
L 286.03486 140.26779 
L 286.306209 140.789139 
L 286.577559 140.868372 
L 286.848908 140.657155 
L 287.120258 141.181807 
L 287.391607 142.762328 
L 288.477004 144.180922 
L 288.477004 144.180922 
" clip-path="url(#p5a4b7a6762)" style="fill: none; stroke: #808080; stroke-width: 1.5; stroke-linecap: round"/>
   </g>
   <g id="LineCollection_3">
    <path d="M 58.915431 144.234068 
L 288.748354 144.234068 
" clip-path="url(#p5a4b7a6762)" style="fill: none; stroke-dasharray: 5.55,2.4; stroke-dashoffset: 0; stroke: #d3d3d3; stroke-width: 1.5"/>
   </g>
   <g id="LineCollection_4">
    <path d="M 59.18678 151.788757 
L 59.18678 123.287478 
" clip-path="url(#p5a4b7a6762)" style="fill: none; stroke: #808080; stroke-opacity: 0.5; stroke-width: 1.5"/>
    <path d="M 75.739092 151.788757 
L 75.739092 123.287478 
" clip-path="url(#p5a4b7a6762)" style="fill: none; stroke: #808080; stroke-opacity: 0.5; stroke-width: 1.5"/>
    <path d="M 93.919501 151.788757 
L 93.919501 123.287478 
" clip-path="url(#p5a4b7a6762)" style="fill: none; stroke: #808080; stroke-opacity: 0.5; stroke-width: 1.5"/>
    <path d="M 113.185307 151.788757 
L 113.185307 123.287478 
" clip-path="url(#p5a4b7a6762)" style="fill: none; stroke: #808080; stroke-opacity: 0.5; stroke-width: 1.5"/>
    <path d="M 127.024125 151.788757 
L 127.024125 123.287478 
" clip-path="url(#p5a4b7a6762)" style="fill: none; stroke: #808080; stroke-opacity: 0.5; stroke-width: 1.5"/>
    <path d="M 139.506196 151.788757 
L 139.506196 123.287478 
" clip-path="url(#p5a4b7a6762)" style="fill: none; stroke: #808080; stroke-opacity: 0.5; stroke-width: 1.5"/>
    <path d="M 158.772002 151.788757 
L 158.772002 123.287478 
" clip-path="url(#p5a4b7a6762)" style="fill: none; stroke: #808080; stroke-opacity: 0.5; stroke-width: 1.5"/>
    <path d="M 178.037808 151.788757 
L 178.037808 123.287478 
" clip-path="url(#p5a4b7a6762)" style="fill: none; stroke: #808080; stroke-opacity: 0.5; stroke-width: 1.5"/>
    <path d="M 193.776072 151.788757 
L 193.776072 123.287478 
" clip-path="url(#p5a4b7a6762)" style="fill: none; stroke: #808080; stroke-opacity: 0.5; stroke-width: 1.5"/>
    <path d="M 213.041877 151.788757 
L 213.041877 123.287478 
" clip-path="url(#p5a4b7a6762)" style="fill: none; stroke: #808080; stroke-opacity: 0.5; stroke-width: 1.5"/>
    <path d="M 229.59419 151.788757 
L 229.59419 123.287478 
" clip-path="url(#p5a4b7a6762)" style="fill: none; stroke: #808080; stroke-opacity: 0.5; stroke-width: 1.5"/>
    <path d="M 245.061104 151.788757 
L 245.061104 123.287478 
" clip-path="url(#p5a4b7a6762)" style="fill: none; stroke: #808080; stroke-opacity: 0.5; stroke-width: 1.5"/>
    <path d="M 264.32691 151.788757 
L 264.32691 123.287478 
" clip-path="url(#p5a4b7a6762)" style="fill: none; stroke: #808080; stroke-opacity: 0.5; stroke-width: 1.5"/>
    <path d="M 275.452234 151.788757 
L 275.452234 123.287478 
" clip-path="url(#p5a4b7a6762)" style="fill: none; stroke: #808080; stroke-opacity: 0.5; stroke-width: 1.5"/>
    <path d="M 288.205655 151.788757 
L 288.205655 123.287478 
" clip-path="url(#p5a4b7a6762)" style="fill: none; stroke: #808080; stroke-opacity: 0.5; stroke-width: 1.5"/>
   </g>
   <g id="patch_39">
    <path d="M 47.423785 153.213821 
L 47.423785 121.862414 
" style="fill: none; stroke: #262626; stroke-width: 0.8; stroke-linejoin: miter; stroke-linecap: square"/>
   </g>
   <g id="patch_40">
    <path d="M 47.423785 153.213821 
L 300.24 153.213821 
" style="fill: none; stroke: #262626; stroke-width: 0.8; stroke-linejoin: miter; stroke-linecap: square"/>
   </g>
  </g>
  <g id="axes_4">
   <g id="patch_41">
    <path d="M 47.423785 203.739855 
L 300.24 203.739855 
L 300.24 172.388448 
L 47.423785 172.388448 
z
" style="fill: #ffffff"/>
   </g>
   <g id="matplotlib.axis_7">
    <g id="xtick_16">
     <g id="line2d_25">
      <g>
       <use xlink:href="#m0b634b38a2" x="58.915431" y="203.739855" style="fill: #262626; stroke: #262626; stroke-width: 0.8"/>
      </g>
     </g>
     <g id="text_11">
      <!-- $\mathdefault{0}$ -->
      <g style="fill: #262626" transform="translate(56.175697 218.350201)scale(0.11 -0.11)">
       <use xlink:href="#CMR17-30" transform="scale(0.996264)"/>
      </g>
     </g>
    </g>
    <g id="xtick_17">
     <g id="line2d_26">
      <g>
       <use xlink:href="#m0b634b38a2" x="113.185307" y="203.739855" style="fill: #262626; stroke: #262626; stroke-width: 0.8"/>
      </g>
     </g>
     <g id="text_12">
      <!-- $\mathdefault{2000}$ -->
      <g style="fill: #262626" transform="translate(102.226372 218.350201)scale(0.11 -0.11)">
       <use xlink:href="#CMR17-32" transform="scale(0.996264)"/>
       <use xlink:href="#CMR17-30" transform="translate(45.690477 0)scale(0.996264)"/>
       <use xlink:href="#CMR17-30" transform="translate(91.380954 0)scale(0.996264)"/>
       <use xlink:href="#CMR17-30" transform="translate(137.071431 0)scale(0.996264)"/>
      </g>
     </g>
    </g>
    <g id="xtick_18">
     <g id="line2d_27">
      <g>
       <use xlink:href="#m0b634b38a2" x="167.455182" y="203.739855" style="fill: #262626; stroke: #262626; stroke-width: 0.8"/>
      </g>
     </g>
     <g id="text_13">
      <!-- $\mathdefault{4000}$ -->
      <g style="fill: #262626" transform="translate(156.496248 218.350201)scale(0.11 -0.11)">
       <defs>
        <path id="CMR17-34" d="M 2150 4122 
C 2150 4256 2144 4256 2029 4256 
L 128 1254 
L 128 1088 
L 1779 1088 
L 1779 457 
C 1779 224 1766 160 1318 160 
L 1197 160 
L 1197 0 
C 1402 0 1747 0 1965 0 
C 2182 0 2528 0 2733 0 
L 2733 160 
L 2611 160 
C 2163 160 2150 224 2150 457 
L 2150 1088 
L 2803 1088 
L 2803 1254 
L 2150 1254 
L 2150 4122 
z
M 1798 3703 
L 1798 1254 
L 256 1254 
L 1798 3703 
z
" transform="scale(0.015625)"/>
       </defs>
       <use xlink:href="#CMR17-34" transform="scale(0.996264)"/>
       <use xlink:href="#CMR17-30" transform="translate(45.690477 0)scale(0.996264)"/>
       <use xlink:href="#CMR17-30" transform="translate(91.380954 0)scale(0.996264)"/>
       <use xlink:href="#CMR17-30" transform="translate(137.071431 0)scale(0.996264)"/>
      </g>
     </g>
    </g>
    <g id="xtick_19">
     <g id="line2d_28">
      <g>
       <use xlink:href="#m0b634b38a2" x="221.725058" y="203.739855" style="fill: #262626; stroke: #262626; stroke-width: 0.8"/>
      </g>
     </g>
     <g id="text_14">
      <!-- $\mathdefault{6000}$ -->
      <g style="fill: #262626" transform="translate(210.766123 218.350201)scale(0.11 -0.11)">
       <defs>
        <path id="CMR17-36" d="M 678 2176 
C 678 3690 1395 4032 1811 4032 
C 1946 4032 2272 4009 2400 3776 
C 2298 3776 2106 3776 2106 3553 
C 2106 3381 2246 3323 2336 3323 
C 2394 3323 2566 3348 2566 3560 
C 2566 3954 2246 4179 1805 4179 
C 1043 4179 243 3390 243 1984 
C 243 253 966 -128 1478 -128 
C 2099 -128 2688 427 2688 1283 
C 2688 2081 2170 2662 1517 2662 
C 1126 2662 838 2407 678 1960 
L 678 2176 
z
M 1478 25 
C 691 25 691 1200 691 1436 
C 691 1896 909 2560 1504 2560 
C 1613 2560 1926 2560 2138 2120 
C 2253 1870 2253 1609 2253 1289 
C 2253 944 2253 690 2118 434 
C 1978 171 1773 25 1478 25 
z
" transform="scale(0.015625)"/>
       </defs>
       <use xlink:href="#CMR17-36" transform="scale(0.996264)"/>
       <use xlink:href="#CMR17-30" transform="translate(45.690477 0)scale(0.996264)"/>
       <use xlink:href="#CMR17-30" transform="translate(91.380954 0)scale(0.996264)"/>
       <use xlink:href="#CMR17-30" transform="translate(137.071431 0)scale(0.996264)"/>
      </g>
     </g>
    </g>
    <g id="xtick_20">
     <g id="line2d_29">
      <g>
       <use xlink:href="#m0b634b38a2" x="275.994933" y="203.739855" style="fill: #262626; stroke: #262626; stroke-width: 0.8"/>
      </g>
     </g>
     <g id="text_15">
      <!-- $\mathdefault{8000}$ -->
      <g style="fill: #262626" transform="translate(265.035999 218.350201)scale(0.11 -0.11)">
       <use xlink:href="#CMR17-38" transform="scale(0.996264)"/>
       <use xlink:href="#CMR17-30" transform="translate(45.690477 0)scale(0.996264)"/>
       <use xlink:href="#CMR17-30" transform="translate(91.380954 0)scale(0.996264)"/>
       <use xlink:href="#CMR17-30" transform="translate(137.071431 0)scale(0.996264)"/>
      </g>
     </g>
    </g>
    <g id="text_16">
     <!-- time [ms] -->
     <g style="fill: #262626" transform="translate(152.309794 232.700274)scale(0.11 -0.11)">
      <defs>
       <path id="CMSS17-5b" d="M 1613 -1600 
L 1613 -1212 
L 1062 -1212 
L 1062 4352 
L 1613 4352 
L 1613 4741 
L 595 4741 
L 595 -1600 
L 1613 -1600 
z
" transform="scale(0.015625)"/>
       <path id="CMSS17-73" d="M 2061 2627 
C 1683 2807 1389 2807 1197 2807 
C 742 2807 198 2648 198 2003 
C 198 1359 902 1218 1094 1179 
C 1389 1122 1715 1058 1715 740 
C 1715 337 1254 337 1171 337 
C 915 337 563 407 243 638 
L 166 210 
C 531 0 883 -64 1178 -64 
C 1965 -64 2163 416 2163 781 
C 2163 1094 1984 1305 1862 1401 
C 1651 1568 1574 1587 1050 1696 
C 960 1709 646 1779 646 2066 
C 646 2432 1050 2432 1139 2432 
C 1555 2432 1811 2303 1984 2208 
L 2061 2627 
z
" transform="scale(0.015625)"/>
       <path id="CMSS17-5d" d="M 1146 4741 
L 128 4741 
L 128 4352 
L 678 4352 
L 678 -1212 
L 128 -1212 
L 128 -1600 
L 1146 -1600 
L 1146 4741 
z
" transform="scale(0.015625)"/>
      </defs>
      <use xlink:href="#CMSS17-74" transform="scale(0.996264)"/>
      <use xlink:href="#CMSS17-69" transform="translate(33.831567 0)scale(0.996264)"/>
      <use xlink:href="#CMSS17-6d" transform="translate(56.01229 0)scale(0.996264)"/>
      <use xlink:href="#CMSS17-65" transform="translate(130.241544 0)scale(0.996264)"/>
      <use xlink:href="#CMSS17-5b" transform="translate(203.109479 0)scale(0.996264)"/>
      <use xlink:href="#CMSS17-6d" transform="translate(230.294918 0)scale(0.996264)"/>
      <use xlink:href="#CMSS17-73" transform="translate(304.524172 0)scale(0.996264)"/>
      <use xlink:href="#CMSS17-5d" transform="translate(340.437714 0)scale(0.996264)"/>
     </g>
    </g>
   </g>
   <g id="matplotlib.axis_8">
    <g id="ytick_7">
     <g id="line2d_30">
      <g>
       <use xlink:href="#ma25c9729d6" x="47.423785" y="198.474058" style="fill: #262626; stroke: #262626; stroke-width: 0.8"/>
      </g>
     </g>
     <g id="text_17">
      <!-- $\mathdefault{1.04}$ -->
      <g style="fill: #262626" transform="translate(20.941241 202.279231)scale(0.11 -0.11)">
       <use xlink:href="#CMR17-31" transform="scale(0.996264)"/>
       <use xlink:href="#CMMI12-3a" transform="translate(45.690477 0)scale(0.996264)"/>
       <use xlink:href="#CMR17-30" transform="translate(72.787654 0)scale(0.996264)"/>
       <use xlink:href="#CMR17-34" transform="translate(118.478131 0)scale(0.996264)"/>
      </g>
     </g>
    </g>
    <g id="ytick_8">
     <g id="line2d_31">
      <g>
       <use xlink:href="#ma25c9729d6" x="47.423785" y="179.144154" style="fill: #262626; stroke: #262626; stroke-width: 0.8"/>
      </g>
     </g>
     <g id="text_18">
      <!-- $\mathdefault{1.06}$ -->
      <g style="fill: #262626" transform="translate(20.941241 182.949327)scale(0.11 -0.11)">
       <use xlink:href="#CMR17-31" transform="scale(0.996264)"/>
       <use xlink:href="#CMMI12-3a" transform="translate(45.690477 0)scale(0.996264)"/>
       <use xlink:href="#CMR17-30" transform="translate(72.787654 0)scale(0.996264)"/>
       <use xlink:href="#CMR17-36" transform="translate(118.478131 0)scale(0.996264)"/>
      </g>
     </g>
    </g>
    <g id="text_19">
     <!-- $I$ -->
     <g style="fill: #262626" transform="translate(14.810347 190.472828)rotate(-90)scale(0.11 -0.11)">
      <defs>
       <path id="CMMI12-49" d="M 2355 3880 
C 2413 4103 2426 4167 2893 4167 
C 3034 4167 3085 4167 3085 4288 
C 3085 4352 3014 4352 2995 4352 
C 2880 4352 2739 4352 2624 4352 
L 1837 4352 
C 1709 4352 1562 4352 1434 4352 
C 1382 4352 1312 4352 1312 4231 
C 1312 4167 1363 4167 1491 4167 
C 1888 4167 1888 4116 1888 4046 
C 1888 4002 1875 3963 1862 3906 
L 998 472 
C 941 249 928 185 461 185 
C 320 185 262 185 262 64 
C 262 0 326 0 358 0 
C 474 0 614 0 730 0 
L 1517 0 
C 1645 0 1786 0 1914 0 
C 1965 0 2042 0 2042 115 
C 2042 185 2003 185 1862 185 
C 1466 185 1466 236 1466 312 
C 1466 325 1466 357 1491 459 
L 2355 3880 
z
" transform="scale(0.015625)"/>
      </defs>
      <use xlink:href="#CMMI12-49" transform="scale(0.996264)"/>
     </g>
    </g>
   </g>
   <g id="patch_42">
    <path d="M 76.010442 203.739855 
L 76.010442 172.388448 
L 94.19085 172.388448 
L 94.19085 203.739855 
z
" clip-path="url(#pfae5279b35)" style="fill: #cd5c5c; opacity: 0.2; stroke: #ffffff; stroke-linejoin: miter"/>
   </g>
   <g id="patch_43">
    <path d="M 59.45813 203.739855 
L 59.45813 172.388448 
L 76.010442 172.388448 
L 76.010442 203.739855 
z
" clip-path="url(#pfae5279b35)" style="fill: #4682b4; opacity: 0.2; stroke: #ffffff; stroke-linejoin: miter"/>
   </g>
   <g id="patch_44">
    <path d="M 127.295474 203.739855 
L 127.295474 172.388448 
L 139.777546 172.388448 
L 139.777546 203.739855 
z
" clip-path="url(#pfae5279b35)" style="fill: #cd5c5c; opacity: 0.2; stroke: #ffffff; stroke-linejoin: miter"/>
   </g>
   <g id="patch_45">
    <path d="M 113.456656 203.739855 
L 113.456656 172.388448 
L 127.295474 172.388448 
L 127.295474 203.739855 
z
" clip-path="url(#pfae5279b35)" style="fill: #4682b4; opacity: 0.2; stroke: #ffffff; stroke-linejoin: miter"/>
   </g>
   <g id="patch_46">
    <path d="M 178.309157 203.739855 
L 178.309157 172.388448 
L 194.047421 172.388448 
L 194.047421 203.739855 
z
" clip-path="url(#pfae5279b35)" style="fill: #cd5c5c; opacity: 0.2; stroke: #ffffff; stroke-linejoin: miter"/>
   </g>
   <g id="patch_47">
    <path d="M 159.043351 203.739855 
L 159.043351 172.388448 
L 178.309157 172.388448 
L 178.309157 203.739855 
z
" clip-path="url(#pfae5279b35)" style="fill: #4682b4; opacity: 0.2; stroke: #ffffff; stroke-linejoin: miter"/>
   </g>
   <g id="patch_48">
    <path d="M 229.865539 203.739855 
L 229.865539 172.388448 
L 245.332453 172.388448 
L 245.332453 203.739855 
z
" clip-path="url(#pfae5279b35)" style="fill: #cd5c5c; opacity: 0.2; stroke: #ffffff; stroke-linejoin: miter"/>
   </g>
   <g id="patch_49">
    <path d="M 213.313227 203.739855 
L 213.313227 172.388448 
L 229.865539 172.388448 
L 229.865539 203.739855 
z
" clip-path="url(#pfae5279b35)" style="fill: #4682b4; opacity: 0.2; stroke: #ffffff; stroke-linejoin: miter"/>
   </g>
   <g id="patch_50">
    <path d="M 275.723584 203.739855 
L 275.723584 172.388448 
L 288.477004 172.388448 
L 288.477004 203.739855 
z
" clip-path="url(#pfae5279b35)" style="fill: #cd5c5c; opacity: 0.2; stroke: #ffffff; stroke-linejoin: miter"/>
   </g>
   <g id="patch_51">
    <path d="M 264.598259 203.739855 
L 264.598259 172.388448 
L 275.723584 172.388448 
L 275.723584 203.739855 
z
" clip-path="url(#pfae5279b35)" style="fill: #4682b4; opacity: 0.2; stroke: #ffffff; stroke-linejoin: miter"/>
   </g>
   <g id="line2d_32">
    <path d="M 58.915431 189.836245 
L 75.739092 189.836245 
L 76.010442 197.381046 
L 127.024125 197.381046 
L 127.295474 173.813512 
L 178.037808 173.813512 
L 178.309157 202.314791 
L 229.59419 202.314791 
L 229.865539 190.074409 
L 275.452234 190.074409 
L 275.723584 177.081833 
L 288.477004 177.081833 
L 288.477004 177.081833 
" clip-path="url(#pfae5279b35)" style="fill: none; stroke: #808080; stroke-width: 1.5; stroke-linecap: round"/>
   </g>
   <g id="LineCollection_5">
    <path d="M 59.18678 202.314791 
L 59.18678 173.813512 
" clip-path="url(#pfae5279b35)" style="fill: none; stroke: #808080; stroke-opacity: 0.5; stroke-width: 1.5"/>
    <path d="M 75.739092 202.314791 
L 75.739092 173.813512 
" clip-path="url(#pfae5279b35)" style="fill: none; stroke: #808080; stroke-opacity: 0.5; stroke-width: 1.5"/>
    <path d="M 93.919501 202.314791 
L 93.919501 173.813512 
" clip-path="url(#pfae5279b35)" style="fill: none; stroke: #808080; stroke-opacity: 0.5; stroke-width: 1.5"/>
    <path d="M 113.185307 202.314791 
L 113.185307 173.813512 
" clip-path="url(#pfae5279b35)" style="fill: none; stroke: #808080; stroke-opacity: 0.5; stroke-width: 1.5"/>
    <path d="M 127.024125 202.314791 
L 127.024125 173.813512 
" clip-path="url(#pfae5279b35)" style="fill: none; stroke: #808080; stroke-opacity: 0.5; stroke-width: 1.5"/>
    <path d="M 139.506196 202.314791 
L 139.506196 173.813512 
" clip-path="url(#pfae5279b35)" style="fill: none; stroke: #808080; stroke-opacity: 0.5; stroke-width: 1.5"/>
    <path d="M 158.772002 202.314791 
L 158.772002 173.813512 
" clip-path="url(#pfae5279b35)" style="fill: none; stroke: #808080; stroke-opacity: 0.5; stroke-width: 1.5"/>
    <path d="M 178.037808 202.314791 
L 178.037808 173.813512 
" clip-path="url(#pfae5279b35)" style="fill: none; stroke: #808080; stroke-opacity: 0.5; stroke-width: 1.5"/>
    <path d="M 193.776072 202.314791 
L 193.776072 173.813512 
" clip-path="url(#pfae5279b35)" style="fill: none; stroke: #808080; stroke-opacity: 0.5; stroke-width: 1.5"/>
    <path d="M 213.041877 202.314791 
L 213.041877 173.813512 
" clip-path="url(#pfae5279b35)" style="fill: none; stroke: #808080; stroke-opacity: 0.5; stroke-width: 1.5"/>
    <path d="M 229.59419 202.314791 
L 229.59419 173.813512 
" clip-path="url(#pfae5279b35)" style="fill: none; stroke: #808080; stroke-opacity: 0.5; stroke-width: 1.5"/>
    <path d="M 245.061104 202.314791 
L 245.061104 173.813512 
" clip-path="url(#pfae5279b35)" style="fill: none; stroke: #808080; stroke-opacity: 0.5; stroke-width: 1.5"/>
    <path d="M 264.32691 202.314791 
L 264.32691 173.813512 
" clip-path="url(#pfae5279b35)" style="fill: none; stroke: #808080; stroke-opacity: 0.5; stroke-width: 1.5"/>
    <path d="M 275.452234 202.314791 
L 275.452234 173.813512 
" clip-path="url(#pfae5279b35)" style="fill: none; stroke: #808080; stroke-opacity: 0.5; stroke-width: 1.5"/>
    <path d="M 288.205655 202.314791 
L 288.205655 173.813512 
" clip-path="url(#pfae5279b35)" style="fill: none; stroke: #808080; stroke-opacity: 0.5; stroke-width: 1.5"/>
   </g>
   <g id="patch_52">
    <path d="M 47.423785 203.739855 
L 47.423785 172.388448 
" style="fill: none; stroke: #262626; stroke-width: 0.8; stroke-linejoin: miter; stroke-linecap: square"/>
   </g>
   <g id="patch_53">
    <path d="M 47.423785 203.739855 
L 300.24 203.739855 
" style="fill: none; stroke: #262626; stroke-width: 0.8; stroke-linejoin: miter; stroke-linecap: square"/>
   </g>
  </g>
 </g>
 <defs>
  <clipPath id="p89fc48b2a4">
   <rect x="47.423785" y="20.810347" width="252.816215" height="31.351406"/>
  </clipPath>
  <clipPath id="pc9ffb065bc">
   <rect x="47.423785" y="71.336381" width="252.816215" height="31.351406"/>
  </clipPath>
  <clipPath id="p5a4b7a6762">
   <rect x="47.423785" y="121.862414" width="252.816215" height="31.351406"/>
  </clipPath>
  <clipPath id="pfae5279b35">
   <rect x="47.423785" y="172.388448" width="252.816215" height="31.351406"/>
  </clipPath>
 </defs>
</svg>
