<?xml version="1.0" encoding="utf-8" standalone="no"?>
<!DOCTYPE svg PUBLIC "-//W3C//DTD SVG 1.1//EN"
  "http://www.w3.org/Graphics/SVG/1.1/DTD/svg11.dtd">
<svg xmlns:xlink="http://www.w3.org/1999/xlink" width="450.012776pt" height="138.277464pt" viewBox="0 0 450.012776 138.277464" xmlns="http://www.w3.org/2000/svg" version="1.1">
 <metadata>
  <rdf:RDF xmlns:dc="http://purl.org/dc/elements/1.1/" xmlns:cc="http://creativecommons.org/ns#" xmlns:rdf="http://www.w3.org/1999/02/22-rdf-syntax-ns#">
   <cc:Work>
    <dc:type rdf:resource="http://purl.org/dc/dcmitype/StillImage"/>
    <dc:date>2022-08-09T11:36:35.813662</dc:date>
    <dc:format>image/svg+xml</dc:format>
    <dc:creator>
     <cc:Agent>
      <dc:title>Matplotlib v3.5.1, https://matplotlib.org/</dc:title>
     </cc:Agent>
    </dc:creator>
   </cc:Work>
  </rdf:RDF>
 </metadata>
 <defs>
  <style type="text/css">*{stroke-linejoin: round; stroke-linecap: butt}</style>
 </defs>
 <g id="figure_1">
  <g id="patch_1">
   <path d="M 0 138.277464 
L 450.012776 138.277464 
L 450.012776 0 
L 0 0 
L 0 138.277464 
z
" style="fill: none"/>
  </g>
  <g id="axes_1">
   <g id="patch_2">
    <path d="M 28.203076 99.377318 
L 118.966132 99.377318 
L 118.966132 22.835464 
L 28.203076 22.835464 
z
" style="fill: #ffffff"/>
   </g>
   <g id="matplotlib.axis_1">
    <g id="xtick_1">
     <g id="line2d_1">
      <defs>
       <path id="m3fde711d80" d="M 0 0 
L 0 3.5 
" style="stroke: #000000; stroke-width: 0.8"/>
      </defs>
      <g>
       <use xlink:href="#m3fde711d80" x="32.32867" y="99.377318" style="stroke: #000000; stroke-width: 0.8"/>
      </g>
     </g>
     <g id="text_1">
      <!-- $\mathdefault{0}$ -->
      <g transform="translate(29.588936 113.987665)scale(0.11 -0.11)">
       <defs>
        <path id="CMR17-30" d="M 2688 2025 
C 2688 2416 2682 3080 2413 3591 
C 2176 4039 1798 4198 1466 4198 
C 1158 4198 768 4058 525 3597 
C 269 3118 243 2524 243 2025 
C 243 1661 250 1106 448 619 
C 723 -39 1216 -128 1466 -128 
C 1760 -128 2208 -7 2470 600 
C 2662 1042 2688 1559 2688 2025 
z
M 1466 -26 
C 1056 -26 813 325 723 812 
C 653 1188 653 1738 653 2096 
C 653 2588 653 2997 736 3387 
C 858 3929 1216 4096 1466 4096 
C 1728 4096 2067 3923 2189 3400 
C 2272 3036 2278 2607 2278 2096 
C 2278 1680 2278 1169 2202 792 
C 2067 95 1690 -26 1466 -26 
z
" transform="scale(0.015625)"/>
       </defs>
       <use xlink:href="#CMR17-30" transform="scale(0.996264)"/>
      </g>
     </g>
    </g>
    <g id="xtick_2">
     <g id="line2d_2">
      <g>
       <use xlink:href="#m3fde711d80" x="114.881815" y="99.377318" style="stroke: #000000; stroke-width: 0.8"/>
      </g>
     </g>
     <g id="text_2">
      <!-- $\mathdefault{2000}$ -->
      <g transform="translate(103.92288 113.987665)scale(0.11 -0.11)">
       <defs>
        <path id="CMR17-32" d="M 2669 989 
L 2554 989 
C 2490 536 2438 459 2413 420 
C 2381 369 1920 369 1830 369 
L 602 369 
C 832 619 1280 1072 1824 1597 
C 2214 1967 2669 2402 2669 3035 
C 2669 3790 2067 4224 1395 4224 
C 691 4224 262 3604 262 3030 
C 262 2780 448 2748 525 2748 
C 589 2748 781 2787 781 3010 
C 781 3207 614 3264 525 3264 
C 486 3264 448 3258 422 3245 
C 544 3790 915 4058 1306 4058 
C 1862 4058 2227 3617 2227 3035 
C 2227 2479 1901 2000 1536 1584 
L 262 146 
L 262 0 
L 2515 0 
L 2669 989 
z
" transform="scale(0.015625)"/>
       </defs>
       <use xlink:href="#CMR17-32" transform="scale(0.996264)"/>
       <use xlink:href="#CMR17-30" transform="translate(45.690477 0)scale(0.996264)"/>
       <use xlink:href="#CMR17-30" transform="translate(91.380954 0)scale(0.996264)"/>
       <use xlink:href="#CMR17-30" transform="translate(137.071431 0)scale(0.996264)"/>
      </g>
     </g>
    </g>
    <g id="text_3">
     <!-- time [ms] -->
     <g transform="translate(51.3319 128.337738)scale(0.11 -0.11)">
      <defs>
       <path id="CMR17-74" d="M 966 2560 
L 1862 2560 
L 1862 2725 
L 966 2725 
L 966 3904 
L 851 3904 
C 838 3245 614 2668 70 2668 
L 70 2560 
L 627 2560 
L 627 771 
C 627 650 627 -64 1370 -64 
C 1747 -64 1965 306 1965 777 
L 1965 1140 
L 1850 1140 
L 1850 783 
C 1850 344 1677 51 1408 51 
C 1222 51 966 178 966 758 
L 966 2560 
z
" transform="scale(0.015625)"/>
       <path id="CMR17-69" d="M 992 3909 
C 992 4049 877 4170 730 4170 
C 589 4170 467 4056 467 3909 
C 467 3769 582 3648 730 3648 
C 870 3648 992 3763 992 3909 
z
M 243 2706 
L 243 2541 
C 602 2541 653 2502 653 2197 
L 653 427 
C 653 184 627 153 218 153 
L 218 -13 
C 371 0 646 0 806 0 
C 960 0 1222 0 1370 -13 
L 1370 153 
C 992 153 979 191 979 420 
L 979 2776 
L 243 2706 
z
" transform="scale(0.015625)"/>
       <path id="CMR17-6d" d="M 4326 1933 
C 4326 2252 4269 2790 3507 2790 
C 3072 2790 2771 2496 2656 2151 
L 2650 2151 
C 2573 2676 2195 2790 1837 2790 
C 1331 2790 1069 2400 973 2144 
L 966 2144 
L 966 2790 
L 211 2720 
L 211 2554 
C 589 2554 646 2515 646 2208 
L 646 428 
C 646 184 621 153 211 153 
L 211 -13 
C 365 0 646 0 813 0 
C 979 0 1267 0 1421 -13 
L 1421 153 
C 1011 153 986 178 986 428 
L 986 1658 
C 986 2247 1344 2688 1792 2688 
C 2266 2688 2317 2266 2317 1958 
L 2317 428 
C 2317 184 2291 153 1882 153 
L 1882 -13 
C 2035 0 2317 0 2483 0 
C 2650 0 2938 0 3091 -13 
L 3091 153 
C 2682 153 2656 178 2656 428 
L 2656 1658 
C 2656 2247 3014 2688 3462 2688 
C 3936 2688 3987 2266 3987 1958 
L 3987 428 
C 3987 184 3962 153 3552 153 
L 3552 -13 
C 3706 0 3987 0 4154 0 
C 4320 0 4608 0 4762 -13 
L 4762 153 
C 4352 153 4326 178 4326 428 
L 4326 1933 
z
" transform="scale(0.015625)"/>
       <path id="CMR17-65" d="M 2438 1472 
C 2464 1498 2464 1511 2464 1576 
C 2464 2238 2118 2816 1389 2816 
C 710 2816 173 2169 173 1383 
C 173 551 781 -64 1459 -64 
C 2176 -64 2458 607 2458 740 
C 2458 784 2419 784 2406 784 
C 2362 784 2355 771 2330 696 
C 2189 265 1837 51 1504 51 
C 1229 51 954 203 781 480 
C 582 803 582 1176 582 1472 
L 2438 1472 
z
M 589 1568 
C 634 2505 1126 2714 1382 2714 
C 1818 2714 2112 2297 2118 1568 
L 589 1568 
z
" transform="scale(0.015625)"/>
       <path id="CMR17-5b" d="M 1504 -1600 
L 1504 -1377 
L 902 -1377 
L 902 4544 
L 1504 4544 
L 1504 4767 
L 678 4767 
L 678 -1600 
L 1504 -1600 
z
" transform="scale(0.015625)"/>
       <path id="CMR17-73" d="M 1978 2697 
C 1978 2813 1971 2819 1933 2819 
C 1907 2819 1901 2813 1824 2717 
C 1805 2691 1747 2626 1728 2601 
C 1523 2819 1235 2819 1126 2819 
C 416 2819 160 2447 160 2076 
C 160 1498 813 1365 998 1325 
C 1402 1243 1542 1217 1677 1101 
C 1760 1025 1901 884 1901 654 
C 1901 384 1747 38 1158 38 
C 602 38 403 460 288 1021 
C 269 1110 269 1117 218 1117 
C 166 1117 160 1110 160 983 
L 160 63 
C 160 -51 166 -58 205 -58 
C 237 -58 243 -51 275 0 
C 314 57 410 211 448 276 
C 576 103 800 -64 1158 -64 
C 1792 -64 2131 283 2131 784 
C 2131 1112 1958 1285 1875 1362 
C 1683 1561 1459 1606 1190 1657 
C 838 1735 390 1825 390 2217 
C 390 2383 480 2737 1126 2737 
C 1811 2737 1850 2094 1862 1888 
C 1869 1856 1901 1849 1920 1849 
C 1978 1849 1978 1869 1978 1978 
L 1978 2697 
z
" transform="scale(0.015625)"/>
       <path id="CMR17-5d" d="M 915 4767 
L 90 4767 
L 90 4544 
L 691 4544 
L 691 -1377 
L 90 -1377 
L 90 -1600 
L 915 -1600 
L 915 4767 
z
" transform="scale(0.015625)"/>
      </defs>
      <use xlink:href="#CMR17-74" transform="scale(0.996264)"/>
      <use xlink:href="#CMR17-69" transform="translate(35.280768 0)scale(0.996264)"/>
      <use xlink:href="#CMR17-6d" transform="translate(60.151826 0)scale(0.996264)"/>
      <use xlink:href="#CMR17-65" transform="translate(137.071416 0)scale(0.996264)"/>
      <use xlink:href="#CMR17-5b" transform="translate(207.633043 0)scale(0.996264)"/>
      <use xlink:href="#CMR17-6d" transform="translate(232.504101 0)scale(0.996264)"/>
      <use xlink:href="#CMR17-73" transform="translate(309.423691 0)scale(0.996264)"/>
      <use xlink:href="#CMR17-5d" transform="translate(345.225029 0)scale(0.996264)"/>
     </g>
    </g>
   </g>
   <g id="matplotlib.axis_2">
    <g id="ytick_1">
     <g id="line2d_3">
      <defs>
       <path id="meb8fa9f7d1" d="M 0 0 
L -3.5 0 
" style="stroke: #000000; stroke-width: 0.8"/>
      </defs>
      <g>
       <use xlink:href="#meb8fa9f7d1" x="28.203076" y="74.256687" style="stroke: #000000; stroke-width: 0.8"/>
      </g>
     </g>
     <g id="text_4">
      <!-- $\mathdefault{0.6}$ -->
      <g transform="translate(7.2 78.06186)scale(0.11 -0.11)">
       <defs>
        <path id="CMMI12-3a" d="M 1178 307 
C 1178 492 1024 619 870 619 
C 685 619 557 466 557 313 
C 557 128 710 0 864 0 
C 1050 0 1178 153 1178 307 
z
" transform="scale(0.015625)"/>
        <path id="CMR17-36" d="M 678 2176 
C 678 3690 1395 4032 1811 4032 
C 1946 4032 2272 4009 2400 3776 
C 2298 3776 2106 3776 2106 3553 
C 2106 3381 2246 3323 2336 3323 
C 2394 3323 2566 3348 2566 3560 
C 2566 3954 2246 4179 1805 4179 
C 1043 4179 243 3390 243 1984 
C 243 253 966 -128 1478 -128 
C 2099 -128 2688 427 2688 1283 
C 2688 2081 2170 2662 1517 2662 
C 1126 2662 838 2407 678 1960 
L 678 2176 
z
M 1478 25 
C 691 25 691 1200 691 1436 
C 691 1896 909 2560 1504 2560 
C 1613 2560 1926 2560 2138 2120 
C 2253 1870 2253 1609 2253 1289 
C 2253 944 2253 690 2118 434 
C 1978 171 1773 25 1478 25 
z
" transform="scale(0.015625)"/>
       </defs>
       <use xlink:href="#CMR17-30" transform="scale(0.996264)"/>
       <use xlink:href="#CMMI12-3a" transform="translate(45.690477 0)scale(0.996264)"/>
       <use xlink:href="#CMR17-36" transform="translate(72.787654 0)scale(0.996264)"/>
      </g>
     </g>
    </g>
    <g id="ytick_2">
     <g id="line2d_4">
      <g>
       <use xlink:href="#meb8fa9f7d1" x="28.203076" y="45.137216" style="stroke: #000000; stroke-width: 0.8"/>
      </g>
     </g>
     <g id="text_5">
      <!-- $\mathdefault{0.8}$ -->
      <g transform="translate(7.2 48.942389)scale(0.11 -0.11)">
       <defs>
        <path id="CMR17-38" d="M 1741 2264 
C 2144 2467 2554 2773 2554 3263 
C 2554 3841 1990 4179 1472 4179 
C 890 4179 378 3759 378 3180 
C 378 3021 416 2747 666 2505 
C 730 2442 998 2251 1171 2130 
C 883 1983 211 1634 211 934 
C 211 279 838 -128 1459 -128 
C 2144 -128 2720 362 2720 1010 
C 2720 1590 2330 1857 2074 2029 
L 1741 2264 
z
M 902 2822 
C 851 2854 595 3051 595 3351 
C 595 3739 998 4032 1459 4032 
C 1965 4032 2336 3676 2336 3262 
C 2336 2669 1670 2331 1638 2331 
C 1632 2331 1626 2331 1574 2370 
L 902 2822 
z
M 2080 1519 
C 2176 1449 2483 1240 2483 851 
C 2483 381 2010 25 1472 25 
C 890 25 448 438 448 940 
C 448 1443 838 1862 1280 2060 
L 2080 1519 
z
" transform="scale(0.015625)"/>
       </defs>
       <use xlink:href="#CMR17-30" transform="scale(0.996264)"/>
       <use xlink:href="#CMMI12-3a" transform="translate(45.690477 0)scale(0.996264)"/>
       <use xlink:href="#CMR17-38" transform="translate(72.787654 0)scale(0.996264)"/>
      </g>
     </g>
    </g>
   </g>
   <g id="line2d_5">
    <path d="M 32.32867 59.696952 
L 33.154201 69.971876 
L 33.938456 77.103077 
L 34.722711 82.30312 
L 35.506966 86.066355 
L 36.291221 88.775059 
L 37.075476 90.717568 
L 37.85973 92.107426 
L 38.685262 93.144317 
L 39.593346 93.931899 
L 40.625261 94.524407 
L 41.863558 94.9657 
L 43.473344 95.285874 
L 45.826109 95.504074 
L 50.160149 95.643768 
L 63.698865 95.772198 
L 99.980972 95.884214 
L 114.840538 95.898143 
L 114.840538 95.898143 
" clip-path="url(#pb58a1f18a9)" style="fill: none; stroke: #0000a4; stroke-opacity: 0.8; stroke-width: 1.5; stroke-linecap: square"/>
   </g>
   <g id="line2d_6">
    <path d="M 32.32867 59.696952 
L 33.112925 67.856131 
L 33.855903 73.42583 
L 34.598881 77.42131 
L 35.341859 80.248252 
L 36.084838 82.217017 
L 36.827816 83.560544 
L 37.570794 84.451357 
L 38.355049 85.039899 
L 39.180581 85.384622 
L 40.171218 85.547238 
L 41.409516 85.510038 
L 43.184408 85.211208 
L 46.8993 84.298377 
L 52.100148 83.098221 
L 56.681847 82.277961 
L 61.717589 81.606593 
L 67.537586 81.060829 
L 74.59588 80.63087 
L 83.676726 80.312391 
L 96.555017 80.100546 
L 114.840538 79.998056 
L 114.840538 79.998056 
" clip-path="url(#pb58a1f18a9)" style="fill: none; stroke: #0000cd; stroke-opacity: 0.8; stroke-width: 1.5; stroke-linecap: square"/>
   </g>
   <g id="line2d_7">
    <path d="M 32.32867 59.696952 
L 33.071648 65.781259 
L 33.77335 69.838531 
L 34.475051 72.673375 
L 35.176753 74.601859 
L 35.837178 75.804457 
L 36.497603 76.5678 
L 37.158029 77.005871 
L 37.85973 77.21048 
L 38.685262 77.207338 
L 39.717176 76.958588 
L 41.12058 76.370899 
L 43.844833 74.934084 
L 47.724831 72.956708 
L 50.696744 71.701275 
L 53.709934 70.671996 
L 56.929507 69.809632 
L 60.520569 69.083377 
L 64.606949 68.488771 
L 69.477585 68.011197 
L 75.586518 67.645394 
L 83.841832 67.38771 
L 96.678846 67.232669 
L 114.840538 67.178424 
L 114.840538 67.178424 
" clip-path="url(#pb58a1f18a9)" style="fill: none; stroke: #0000f1; stroke-opacity: 0.8; stroke-width: 1.5; stroke-linecap: square"/>
   </g>
   <g id="line2d_8">
    <path d="M 32.32867 59.696952 
L 33.030371 63.82793 
L 33.690797 66.479346 
L 34.351222 68.240906 
L 34.97037 69.289787 
L 35.548242 69.87398 
L 36.126114 70.169914 
L 36.745263 70.246272 
L 37.488241 70.098721 
L 38.396326 69.677557 
L 39.6759 68.82056 
L 42.3176 66.710483 
L 45.413343 64.347604 
L 47.807384 62.799613 
L 50.201426 61.517532 
L 52.67802 60.446848 
L 55.319721 59.548952 
L 58.250357 58.791669 
L 61.59376 58.163805 
L 65.515034 57.659717 
L 70.38567 57.267068 
L 76.824815 56.983954 
L 86.442256 56.804565 
L 104.934161 56.722373 
L 114.840538 56.714304 
L 114.840538 56.714304 
" clip-path="url(#pb58a1f18a9)" style="fill: none; stroke: #0008ff; stroke-opacity: 0.8; stroke-width: 1.5; stroke-linecap: square"/>
   </g>
   <g id="line2d_9">
    <path d="M 32.32867 59.696952 
L 32.947818 61.951678 
L 33.566967 63.398642 
L 34.144839 64.202398 
L 34.681434 64.591567 
L 35.21803 64.718628 
L 35.837178 64.620034 
L 36.580157 64.25187 
L 37.570794 63.484486 
L 39.098028 61.981365 
L 43.927387 57.073536 
L 46.032492 55.323812 
L 48.09632 53.891532 
L 50.201426 52.696331 
L 52.430361 51.684076 
L 54.865678 50.824466 
L 57.589932 50.10412 
L 60.726952 49.512019 
L 64.48312 49.038926 
L 69.188649 48.680697 
L 75.627794 48.428928 
L 85.740555 48.280352 
L 108.401393 48.224217 
L 114.840538 48.222229 
L 114.840538 48.222229 
" clip-path="url(#pb58a1f18a9)" style="fill: none; stroke: #0028ff; stroke-opacity: 0.8; stroke-width: 1.5; stroke-linecap: square"/>
   </g>
   <g id="line2d_10">
    <path d="M 32.32867 59.696952 
L 32.865265 60.483537 
L 33.360584 60.847183 
L 33.855903 60.942783 
L 34.392498 60.814437 
L 35.052923 60.411676 
L 35.919731 59.604037 
L 37.240582 58.032985 
L 42.689089 51.236073 
L 44.629088 49.312567 
L 46.527811 47.740143 
L 48.46781 46.422894 
L 50.490362 45.319373 
L 52.67802 44.38364 
L 55.072061 43.605365 
L 57.796315 42.958933 
L 61.015888 42.432885 
L 64.937162 42.026463 
L 70.096734 41.728024 
L 77.60907 41.535103 
L 91.354168 41.440191 
L 114.840538 41.422757 
L 114.840538 41.422757 
" clip-path="url(#pb58a1f18a9)" style="fill: none; stroke: #004cff; stroke-opacity: 0.8; stroke-width: 1.5; stroke-linecap: square"/>
   </g>
   <g id="line2d_11">
    <path d="M 32.32867 59.696952 
L 32.906542 59.343806 
L 33.64952 58.590317 
L 34.681434 57.193229 
L 36.580157 54.167571 
L 39.593346 49.433322 
L 41.533345 46.812027 
L 43.349515 44.729684 
L 45.124407 43.030265 
L 46.940576 41.601087 
L 48.798022 40.419789 
L 50.779298 39.421017 
L 52.966956 38.571471 
L 55.402274 37.868881 
L 58.209081 37.294783 
L 61.59376 36.836465 
L 65.886523 36.489707 
L 71.83035 36.248933 
L 81.406514 36.110493 
L 104.438842 36.062852 
L 114.840538 36.061316 
L 114.840538 36.061316 
" clip-path="url(#pb58a1f18a9)" style="fill: none; stroke: #006cff; stroke-opacity: 0.8; stroke-width: 1.5; stroke-linecap: square"/>
   </g>
   <g id="line2d_12">
    <path d="M 32.32867 59.696952 
L 35.052923 53.404733 
L 37.075476 49.268583 
L 38.891645 46.038371 
L 40.625261 43.398775 
L 42.3176 41.223591 
L 44.00994 39.411249 
L 45.702279 37.919404 
L 47.477172 36.650213 
L 49.334618 35.592637 
L 51.35717 34.696551 
L 53.627381 33.939702 
L 56.227805 33.315892 
L 59.282272 32.818833 
L 63.079716 32.43453 
L 68.156735 32.15752 
L 75.792901 31.984419 
L 90.900126 31.907197 
L 114.840538 31.897538 
L 114.840538 31.897538 
" clip-path="url(#pb58a1f18a9)" style="fill: none; stroke: #0090ff; stroke-opacity: 0.8; stroke-width: 1.5; stroke-linecap: square"/>
   </g>
   <g id="line2d_13">
    <path d="M 32.32867 59.696952 
L 33.443137 55.541316 
L 34.722711 51.63038 
L 36.126114 48.050218 
L 37.612071 44.848789 
L 39.180581 41.993373 
L 40.74909 39.592517 
L 42.3176 37.584552 
L 43.927387 35.877045 
L 45.578449 34.443661 
L 47.312066 33.229687 
L 49.169511 32.20102 
L 51.192063 31.337103 
L 53.462275 30.613726 
L 56.062699 30.02275 
L 59.199718 29.546201 
L 63.162269 29.181975 
L 68.528224 28.927398 
L 76.948645 28.775056 
L 95.440549 28.716125 
L 114.840538 28.712122 
L 114.840538 28.712122 
" clip-path="url(#pb58a1f18a9)" style="fill: none; stroke: #00b0ff; stroke-opacity: 0.8; stroke-width: 1.5; stroke-linecap: square"/>
   </g>
   <g id="line2d_14">
    <path d="M 32.32867 59.696952 
L 33.278031 55.012541 
L 34.351222 50.840094 
L 35.506966 47.231175 
L 36.78654 43.960281 
L 38.148666 41.075514 
L 39.593346 38.526335 
L 41.079303 36.343259 
L 42.606536 34.483059 
L 44.175046 32.911378 
L 45.826109 31.566611 
L 47.559725 30.436614 
L 49.458447 29.467016 
L 51.522276 28.663617 
L 53.875041 27.989963 
L 56.640571 27.437788 
L 59.983973 27.00546 
L 64.318013 26.681573 
L 70.468223 26.463681 
L 80.911196 26.346703 
L 111.166923 26.314798 
L 114.840538 26.314639 
L 114.840538 26.314639 
" clip-path="url(#pb58a1f18a9)" style="fill: none; stroke: #00d4ff; stroke-opacity: 0.8; stroke-width: 1.5; stroke-linecap: square"/>
   </g>
   <g id="patch_3">
    <path d="M 28.203076 99.377318 
L 28.203076 22.835464 
" style="fill: none; stroke: #000000; stroke-width: 0.8; stroke-linejoin: miter; stroke-linecap: square"/>
   </g>
   <g id="patch_4">
    <path d="M 28.203076 99.377318 
L 118.966132 99.377318 
" style="fill: none; stroke: #000000; stroke-width: 0.8; stroke-linejoin: miter; stroke-linecap: square"/>
   </g>
   <g id="text_6">
    <!-- $\mathrm{d} u / \mathrm{d}t$ -->
    <g transform="translate(59.641126 16.835464)scale(0.11 -0.11)">
     <defs>
      <path id="CMR17-64" d="M 1869 4326 
L 1869 4160 
C 2246 4160 2304 4122 2304 3820 
L 2304 2345 
C 2278 2377 2016 2790 1498 2790 
C 845 2790 211 2208 211 1364 
C 211 525 806 -64 1434 -64 
C 1978 -64 2259 337 2291 380 
L 2291 -63 
L 3066 -63 
L 3066 128 
C 2688 128 2630 166 2630 473 
L 2630 4396 
L 1869 4326 
z
M 2291 755 
C 2291 563 2176 390 2029 262 
C 1811 70 1594 38 1472 38 
C 1286 38 621 134 621 1356 
C 621 2612 1363 2688 1530 2688 
C 1824 2688 2061 2522 2208 2291 
C 2291 2157 2291 2138 2291 2023 
L 2291 755 
z
" transform="scale(0.015625)"/>
      <path id="CMMI12-75" d="M 2182 370 
C 2266 13 2573 -64 2726 -64 
C 2931 -64 3085 70 3187 287 
C 3296 517 3379 894 3379 913 
C 3379 945 3354 971 3315 971 
C 3258 971 3251 939 3226 843 
C 3110 402 2995 64 2739 64 
C 2547 64 2547 275 2547 358 
C 2547 505 2566 568 2630 837 
C 2675 1009 2720 1181 2758 1360 
L 3021 2401 
C 3066 2561 3066 2574 3066 2593 
C 3066 2689 2989 2753 2893 2753 
C 2707 2753 2662 2593 2624 2433 
C 2560 2184 2214 811 2170 588 
C 2163 588 1914 64 1446 64 
C 1114 64 1050 351 1050 588 
C 1050 952 1229 1462 1395 1890 
C 1472 2095 1504 2178 1504 2305 
C 1504 2580 1306 2816 998 2816 
C 410 2816 173 1890 173 1839 
C 173 1814 198 1782 243 1782 
C 301 1782 307 1807 333 1896 
C 486 2441 736 2682 979 2682 
C 1043 2682 1146 2682 1146 2478 
C 1146 2312 1075 2127 979 1884 
C 698 1124 666 881 666 690 
C 666 38 1158 -64 1421 -64 
C 1830 -64 2054 217 2182 370 
z
" transform="scale(0.015625)"/>
      <path id="CMMI12-3d" d="M 2746 4562 
C 2746 4569 2784 4666 2784 4678 
C 2784 4755 2720 4800 2669 4800 
C 2637 4800 2579 4800 2528 4659 
L 384 -1363 
C 384 -1370 346 -1465 346 -1478 
C 346 -1555 410 -1600 461 -1600 
C 499 -1600 557 -1593 602 -1459 
L 2746 4562 
z
" transform="scale(0.015625)"/>
      <path id="CMMI12-74" d="M 1286 2566 
L 1875 2566 
C 1997 2566 2061 2566 2061 2681 
C 2061 2752 2022 2752 1894 2752 
L 1331 2752 
L 1568 3692 
C 1594 3781 1594 3794 1594 3840 
C 1594 3943 1510 4000 1427 4000 
C 1376 4000 1229 3981 1178 3775 
L 928 2752 
L 326 2752 
C 198 2752 141 2752 141 2630 
C 141 2566 186 2566 307 2566 
L 877 2566 
L 454 881 
C 403 658 384 594 384 511 
C 384 211 595 -64 954 -64 
C 1600 -64 1946 868 1946 912 
C 1946 951 1920 970 1882 970 
C 1869 970 1843 970 1830 944 
C 1824 938 1818 931 1773 829 
C 1638 511 1344 64 973 64 
C 781 64 768 224 768 364 
C 768 370 768 492 787 568 
L 1286 2566 
z
" transform="scale(0.015625)"/>
     </defs>
     <use xlink:href="#CMR17-64" transform="scale(0.996264)"/>
     <use xlink:href="#CMMI12-75" transform="translate(50.89537 0)scale(0.996264)"/>
     <use xlink:href="#CMMI12-3d" transform="translate(106.415699 0)scale(0.996264)"/>
     <use xlink:href="#CMR17-64" transform="translate(155.190618 0)scale(0.996264)"/>
     <use xlink:href="#CMMI12-74" transform="translate(206.085988 0)scale(0.996264)"/>
    </g>
   </g>
  </g>
  <g id="axes_2">
   <g id="patch_5">
    <path d="M 163.561045 99.377318 
L 254.324101 99.377318 
L 254.324101 22.835464 
L 163.561045 22.835464 
z
" style="fill: #ffffff"/>
   </g>
   <g id="matplotlib.axis_3">
    <g id="xtick_3">
     <g id="line2d_15">
      <g>
       <use xlink:href="#m3fde711d80" x="167.686639" y="99.377318" style="stroke: #000000; stroke-width: 0.8"/>
      </g>
     </g>
     <g id="text_7">
      <!-- $\mathdefault{0}$ -->
      <g transform="translate(164.946905 113.987665)scale(0.11 -0.11)">
       <use xlink:href="#CMR17-30" transform="scale(0.996264)"/>
      </g>
     </g>
    </g>
    <g id="xtick_4">
     <g id="line2d_16">
      <g>
       <use xlink:href="#m3fde711d80" x="250.239784" y="99.377318" style="stroke: #000000; stroke-width: 0.8"/>
      </g>
     </g>
     <g id="text_8">
      <!-- $\mathdefault{2000}$ -->
      <g transform="translate(239.280849 113.987665)scale(0.11 -0.11)">
       <use xlink:href="#CMR17-32" transform="scale(0.996264)"/>
       <use xlink:href="#CMR17-30" transform="translate(45.690477 0)scale(0.996264)"/>
       <use xlink:href="#CMR17-30" transform="translate(91.380954 0)scale(0.996264)"/>
       <use xlink:href="#CMR17-30" transform="translate(137.071431 0)scale(0.996264)"/>
      </g>
     </g>
    </g>
    <g id="text_9">
     <!-- time [ms] -->
     <g transform="translate(186.68987 128.337738)scale(0.11 -0.11)">
      <use xlink:href="#CMR17-74" transform="scale(0.996264)"/>
      <use xlink:href="#CMR17-69" transform="translate(35.280768 0)scale(0.996264)"/>
      <use xlink:href="#CMR17-6d" transform="translate(60.151826 0)scale(0.996264)"/>
      <use xlink:href="#CMR17-65" transform="translate(137.071416 0)scale(0.996264)"/>
      <use xlink:href="#CMR17-5b" transform="translate(207.633043 0)scale(0.996264)"/>
      <use xlink:href="#CMR17-6d" transform="translate(232.504101 0)scale(0.996264)"/>
      <use xlink:href="#CMR17-73" transform="translate(309.423691 0)scale(0.996264)"/>
      <use xlink:href="#CMR17-5d" transform="translate(345.225029 0)scale(0.996264)"/>
     </g>
    </g>
   </g>
   <g id="matplotlib.axis_4">
    <g id="ytick_3">
     <g id="line2d_17">
      <g>
       <use xlink:href="#meb8fa9f7d1" x="163.561045" y="70.317464" style="stroke: #000000; stroke-width: 0.8"/>
      </g>
     </g>
     <g id="text_10">
      <!-- $\mathdefault{0.1}$ -->
      <g transform="translate(142.557969 74.122637)scale(0.11 -0.11)">
       <defs>
        <path id="CMR17-31" d="M 1702 4058 
C 1702 4192 1696 4192 1606 4192 
C 1357 3916 979 3827 621 3827 
C 602 3827 570 3827 563 3808 
C 557 3795 557 3782 557 3648 
C 755 3648 1088 3686 1344 3839 
L 1344 461 
C 1344 236 1331 160 781 160 
L 589 160 
L 589 0 
C 896 0 1216 0 1523 0 
C 1830 0 2150 0 2458 0 
L 2458 160 
L 2266 160 
C 1715 160 1702 230 1702 458 
L 1702 4058 
z
" transform="scale(0.015625)"/>
       </defs>
       <use xlink:href="#CMR17-30" transform="scale(0.996264)"/>
       <use xlink:href="#CMMI12-3a" transform="translate(45.690477 0)scale(0.996264)"/>
       <use xlink:href="#CMR17-31" transform="translate(72.787654 0)scale(0.996264)"/>
      </g>
     </g>
    </g>
    <g id="ytick_4">
     <g id="line2d_18">
      <g>
       <use xlink:href="#meb8fa9f7d1" x="163.561045" y="27.53875" style="stroke: #000000; stroke-width: 0.8"/>
      </g>
     </g>
     <g id="text_11">
      <!-- $\mathdefault{0.2}$ -->
      <g transform="translate(142.557969 31.343923)scale(0.11 -0.11)">
       <use xlink:href="#CMR17-30" transform="scale(0.996264)"/>
       <use xlink:href="#CMMI12-3a" transform="translate(45.690477 0)scale(0.996264)"/>
       <use xlink:href="#CMR17-32" transform="translate(72.787654 0)scale(0.996264)"/>
      </g>
     </g>
    </g>
   </g>
   <g id="line2d_19">
    <path d="M 167.686639 27.53875 
L 168.553447 41.695829 
L 169.378978 51.856153 
L 170.20451 59.407579 
L 170.988765 64.686974 
L 171.773019 68.553543 
L 172.557274 71.356951 
L 173.341529 73.37347 
L 174.125784 74.814767 
L 174.951316 75.884163 
L 175.818124 76.657263 
L 176.808761 77.240624 
L 177.964505 77.657841 
L 179.450462 77.946351 
L 181.596844 78.1136 
L 185.394288 78.150271 
L 250.198507 77.785913 
L 250.198507 77.785913 
" clip-path="url(#p38ca32ccb7)" style="fill: none; stroke: #0000a4; stroke-opacity: 0.8; stroke-width: 1.5; stroke-linecap: square"/>
   </g>
   <g id="line2d_20">
    <path d="M 167.686639 27.53875 
L 168.553447 41.114195 
L 169.378978 50.819689 
L 170.20451 58.065572 
L 171.030041 63.440831 
L 171.855573 67.428093 
L 172.722381 70.530905 
L 173.589189 72.841665 
L 174.497273 74.666725 
L 175.487911 76.178247 
L 176.602378 77.477418 
L 177.881952 78.629278 
L 179.450462 79.732959 
L 181.390461 80.815624 
L 183.825779 81.909587 
L 186.756415 82.975509 
L 190.141094 83.964505 
L 193.938539 84.837704 
L 198.231302 85.590828 
L 203.143215 86.221473 
L 208.963211 86.738032 
L 216.145335 87.143628 
L 225.59767 87.44209 
L 239.384045 87.636059 
L 250.198507 87.69808 
L 250.198507 87.69808 
" clip-path="url(#p38ca32ccb7)" style="fill: none; stroke: #0000cd; stroke-opacity: 0.8; stroke-width: 1.5; stroke-linecap: square"/>
   </g>
   <g id="line2d_21">
    <path d="M 167.686639 27.53875 
L 168.553447 40.383182 
L 169.420255 49.972967 
L 170.287063 57.116246 
L 171.153871 62.470957 
L 172.061955 66.709439 
L 173.011317 70.088288 
L 174.001954 72.822622 
L 175.116422 75.242878 
L 176.354719 77.386629 
L 177.716846 79.303259 
L 179.285356 81.124162 
L 181.060248 82.837311 
L 183.000247 84.400703 
L 185.105352 85.814624 
L 187.375564 87.074566 
L 189.852158 88.193357 
L 192.535135 89.160702 
L 195.507049 89.995038 
L 198.891728 90.709709 
L 202.813002 91.304211 
L 207.518531 91.784999 
L 213.462358 92.157197 
L 221.470013 92.421208 
L 233.811708 92.582834 
L 250.198507 92.64072 
L 250.198507 92.64072 
" clip-path="url(#p38ca32ccb7)" style="fill: none; stroke: #0000f1; stroke-opacity: 0.8; stroke-width: 1.5; stroke-linecap: square"/>
   </g>
   <g id="line2d_22">
    <path d="M 167.686639 27.53875 
L 168.553447 39.463469 
L 169.420255 48.445045 
L 170.328339 55.558133 
L 171.236424 60.99971 
L 172.227062 65.607752 
L 173.258976 69.390257 
L 174.41472 72.785062 
L 175.653017 75.744727 
L 177.015144 78.435653 
L 178.501101 80.88412 
L 180.110887 83.105157 
L 181.803227 85.060564 
L 183.578119 86.77302 
L 185.435565 88.259475 
L 187.41684 89.560118 
L 189.521946 90.677267 
L 191.833434 91.649686 
L 194.392581 92.480679 
L 197.281941 93.180983 
L 200.66662 93.76529 
L 204.753001 94.235196 
L 209.912572 94.593611 
L 216.970866 94.846061 
L 228.074264 94.99658 
L 250.198507 95.053141 
L 250.198507 95.053141 
" clip-path="url(#p38ca32ccb7)" style="fill: none; stroke: #0008ff; stroke-opacity: 0.8; stroke-width: 1.5; stroke-linecap: square"/>
   </g>
   <g id="line2d_23">
    <path d="M 167.686639 27.53875 
L 168.553447 38.303778 
L 169.461531 46.911838 
L 170.410893 53.852051 
L 171.442807 59.748337 
L 172.515998 64.632397 
L 173.713018 69.04907 
L 174.992592 72.927302 
L 176.354719 76.362337 
L 177.799399 79.413801 
L 179.285356 82.050399 
L 180.853865 84.383865 
L 182.463652 86.380884 
L 184.114715 88.080072 
L 185.848331 89.547501 
L 187.6645 90.797238 
L 189.645775 91.887245 
L 191.792157 92.810863 
L 194.186198 93.595346 
L 196.910452 94.250574 
L 200.130025 94.790391 
L 204.092576 95.219546 
L 209.210871 95.538617 
L 216.516824 95.753827 
L 229.023626 95.869222 
L 250.198507 95.898143 
L 250.198507 95.898143 
" clip-path="url(#p38ca32ccb7)" style="fill: none; stroke: #0028ff; stroke-opacity: 0.8; stroke-width: 1.5; stroke-linecap: square"/>
   </g>
   <g id="line2d_24">
    <path d="M 167.686639 27.53875 
L 168.594723 37.229529 
L 169.585361 45.471657 
L 170.658552 52.533102 
L 171.814296 58.66379 
L 173.052593 64.058028 
L 174.373444 68.847123 
L 175.776847 73.109872 
L 177.221527 76.793769 
L 178.666207 79.891308 
L 180.152164 82.565183 
L 181.679397 84.856917 
L 183.20663 86.758739 
L 184.816416 88.40985 
L 186.467479 89.790238 
L 188.242372 90.984544 
L 190.141094 91.994373 
L 192.246199 92.859015 
L 194.598964 93.582337 
L 197.323218 94.183589 
L 200.584067 94.669956 
L 204.711724 95.04951 
L 210.242785 95.320348 
L 218.663206 95.488519 
L 235.669154 95.561597 
L 250.198507 95.568875 
L 250.198507 95.568875 
" clip-path="url(#p38ca32ccb7)" style="fill: none; stroke: #004cff; stroke-opacity: 0.8; stroke-width: 1.5; stroke-linecap: square"/>
   </g>
   <g id="line2d_25">
    <path d="M 167.686639 27.53875 
L 168.75983 36.585435 
L 169.95685 44.769793 
L 171.236424 52.01689 
L 172.639827 58.691188 
L 174.084508 64.491446 
L 175.529188 69.404194 
L 176.973868 73.563491 
L 178.418548 77.073361 
L 179.863228 80.022576 
L 181.349184 82.554095 
L 182.835141 84.652405 
L 184.362374 86.428793 
L 185.930884 87.918692 
L 187.581947 89.185589 
L 189.356839 90.268132 
L 191.296838 91.188589 
L 193.44322 91.959625 
L 195.919814 92.60808 
L 198.850451 93.137503 
L 202.441513 93.551893 
L 207.147042 93.859373 
L 213.957677 94.063029 
L 226.010436 94.167755 
L 250.198507 94.190941 
L 250.198507 94.190941 
" clip-path="url(#p38ca32ccb7)" style="fill: none; stroke: #006cff; stroke-opacity: 0.8; stroke-width: 1.5; stroke-linecap: square"/>
   </g>
   <g id="line2d_26">
    <path d="M 167.686639 27.53875 
L 169.998127 40.798248 
L 171.855573 50.224634 
L 173.547912 57.699283 
L 175.116422 63.659164 
L 176.643655 68.607253 
L 178.129612 72.678316 
L 179.574292 76.008372 
L 181.018972 78.796089 
L 182.463652 81.115828 
L 183.949608 83.086521 
L 185.476842 84.743587 
L 187.045351 86.123532 
L 188.737691 87.314097 
L 190.55386 88.315969 
L 192.535135 89.15418 
L 194.805347 89.866598 
L 197.447048 90.4527 
L 200.625344 90.919837 
L 204.670448 91.276595 
L 210.201509 91.525311 
L 218.993418 91.672543 
L 238.930003 91.727367 
L 250.198507 91.730031 
L 250.198507 91.730031 
" clip-path="url(#p38ca32ccb7)" style="fill: none; stroke: #0090ff; stroke-opacity: 0.8; stroke-width: 1.5; stroke-linecap: square"/>
   </g>
   <g id="line2d_27">
    <path d="M 167.686639 27.53875 
L 168.181958 28.684832 
L 168.883659 30.959278 
L 169.95685 35.320642 
L 175.405358 58.689181 
L 176.973868 63.953625 
L 178.459824 68.197456 
L 179.904504 71.682455 
L 181.349184 74.604219 
L 182.793864 77.035595 
L 184.238544 79.047279 
L 185.724501 80.746991 
L 187.293011 82.20316 
L 188.944074 83.429261 
L 190.718966 84.465778 
L 192.658965 85.336779 
L 194.846624 86.06871 
L 197.364494 86.670107 
L 200.377684 87.153854 
L 204.175129 87.527607 
L 209.293424 87.793731 
L 217.177249 87.957728 
L 233.440219 88.026616 
L 250.198507 88.033078 
L 250.198507 88.033078 
" clip-path="url(#p38ca32ccb7)" style="fill: none; stroke: #00b0ff; stroke-opacity: 0.8; stroke-width: 1.5; stroke-linecap: square"/>
   </g>
   <g id="line2d_28">
    <path d="M 167.686639 27.53875 
L 168.099404 26.588364 
L 168.429617 26.322746 
L 168.718553 26.384563 
L 169.048766 26.733565 
L 169.502808 27.603928 
L 170.121957 29.335339 
L 171.030041 32.608282 
L 172.722381 39.712461 
L 175.364081 50.615304 
L 177.056421 56.64348 
L 178.583654 61.302206 
L 180.069611 65.145376 
L 181.514291 68.287006 
L 182.958971 70.911119 
L 184.403651 73.088055 
L 185.889607 74.930914 
L 187.41684 76.474503 
L 189.026627 77.784725 
L 190.718966 78.877978 
L 192.576412 79.811667 
L 194.640241 80.596182 
L 196.993005 81.247756 
L 199.758536 81.777514 
L 203.184491 82.197384 
L 207.642361 82.506925 
L 214.081506 82.712245 
L 225.432564 82.818262 
L 250.198507 82.842341 
L 250.198507 82.842341 
" clip-path="url(#p38ca32ccb7)" style="fill: none; stroke: #00d4ff; stroke-opacity: 0.8; stroke-width: 1.5; stroke-linecap: square"/>
   </g>
   <g id="patch_6">
    <path d="M 163.561045 99.377318 
L 163.561045 22.835464 
" style="fill: none; stroke: #000000; stroke-width: 0.8; stroke-linejoin: miter; stroke-linecap: square"/>
   </g>
   <g id="patch_7">
    <path d="M 163.561045 99.377318 
L 254.324101 99.377318 
" style="fill: none; stroke: #000000; stroke-width: 0.8; stroke-linejoin: miter; stroke-linecap: square"/>
   </g>
   <g id="text_12">
    <!-- $\mathrm{d} v / \mathrm{d}t$ -->
    <g transform="translate(195.283232 16.835464)scale(0.11 -0.11)">
     <defs>
      <path id="CMMI12-76" d="M 2925 2389 
C 2925 2791 2720 2816 2669 2816 
C 2515 2816 2374 2663 2374 2535 
C 2374 2459 2419 2414 2445 2389 
C 2509 2331 2675 2159 2675 1827 
C 2675 1558 2291 64 1523 64 
C 1133 64 1056 390 1056 626 
C 1056 945 1203 1392 1376 1852 
C 1478 2114 1504 2178 1504 2305 
C 1504 2574 1312 2816 998 2816 
C 410 2816 173 1890 173 1839 
C 173 1814 198 1782 243 1782 
C 301 1782 307 1807 333 1897 
C 486 2446 736 2689 979 2689 
C 1037 2689 1146 2689 1146 2478 
C 1146 2312 1075 2127 979 1884 
C 672 1067 672 869 672 715 
C 672 575 691 313 890 134 
C 1120 -64 1440 -64 1498 -64 
C 2560 -64 2925 2024 2925 2389 
z
" transform="scale(0.015625)"/>
     </defs>
     <use xlink:href="#CMR17-64" transform="scale(0.996264)"/>
     <use xlink:href="#CMMI12-76" transform="translate(50.89537 0)scale(0.996264)"/>
     <use xlink:href="#CMMI12-3d" transform="translate(101.630543 0)scale(0.996264)"/>
     <use xlink:href="#CMR17-64" transform="translate(150.405462 0)scale(0.996264)"/>
     <use xlink:href="#CMMI12-74" transform="translate(201.300832 0)scale(0.996264)"/>
    </g>
   </g>
  </g>
  <g id="axes_3">
   <g id="patch_8">
    <path d="M 298.919014 99.377318 
L 389.68207 99.377318 
L 389.68207 22.835464 
L 298.919014 22.835464 
z
" style="fill: #ffffff"/>
   </g>
   <g id="matplotlib.axis_5">
    <g id="xtick_5">
     <g id="line2d_29">
      <g>
       <use xlink:href="#m3fde711d80" x="303.044608" y="99.377318" style="stroke: #000000; stroke-width: 0.8"/>
      </g>
     </g>
     <g id="text_13">
      <!-- $\mathdefault{0}$ -->
      <g transform="translate(300.304874 113.987665)scale(0.11 -0.11)">
       <use xlink:href="#CMR17-30" transform="scale(0.996264)"/>
      </g>
     </g>
    </g>
    <g id="xtick_6">
     <g id="line2d_30">
      <g>
       <use xlink:href="#m3fde711d80" x="385.597753" y="99.377318" style="stroke: #000000; stroke-width: 0.8"/>
      </g>
     </g>
     <g id="text_14">
      <!-- $\mathdefault{2000}$ -->
      <g transform="translate(374.638818 113.987665)scale(0.11 -0.11)">
       <use xlink:href="#CMR17-32" transform="scale(0.996264)"/>
       <use xlink:href="#CMR17-30" transform="translate(45.690477 0)scale(0.996264)"/>
       <use xlink:href="#CMR17-30" transform="translate(91.380954 0)scale(0.996264)"/>
       <use xlink:href="#CMR17-30" transform="translate(137.071431 0)scale(0.996264)"/>
      </g>
     </g>
    </g>
    <g id="text_15">
     <!-- time [ms] -->
     <g transform="translate(322.047839 128.337738)scale(0.11 -0.11)">
      <use xlink:href="#CMR17-74" transform="scale(0.996264)"/>
      <use xlink:href="#CMR17-69" transform="translate(35.280768 0)scale(0.996264)"/>
      <use xlink:href="#CMR17-6d" transform="translate(60.151826 0)scale(0.996264)"/>
      <use xlink:href="#CMR17-65" transform="translate(137.071416 0)scale(0.996264)"/>
      <use xlink:href="#CMR17-5b" transform="translate(207.633043 0)scale(0.996264)"/>
      <use xlink:href="#CMR17-6d" transform="translate(232.504101 0)scale(0.996264)"/>
      <use xlink:href="#CMR17-73" transform="translate(309.423691 0)scale(0.996264)"/>
      <use xlink:href="#CMR17-5d" transform="translate(345.225029 0)scale(0.996264)"/>
     </g>
    </g>
   </g>
   <g id="matplotlib.axis_6">
    <g id="ytick_5">
     <g id="line2d_31">
      <g>
       <use xlink:href="#meb8fa9f7d1" x="298.919014" y="91.472602" style="stroke: #000000; stroke-width: 0.8"/>
      </g>
     </g>
     <g id="text_16">
      <!-- $\mathdefault{0.4}$ -->
      <g transform="translate(277.915938 95.277776)scale(0.11 -0.11)">
       <defs>
        <path id="CMR17-34" d="M 2150 4122 
C 2150 4256 2144 4256 2029 4256 
L 128 1254 
L 128 1088 
L 1779 1088 
L 1779 457 
C 1779 224 1766 160 1318 160 
L 1197 160 
L 1197 0 
C 1402 0 1747 0 1965 0 
C 2182 0 2528 0 2733 0 
L 2733 160 
L 2611 160 
C 2163 160 2150 224 2150 457 
L 2150 1088 
L 2803 1088 
L 2803 1254 
L 2150 1254 
L 2150 4122 
z
M 1798 3703 
L 1798 1254 
L 256 1254 
L 1798 3703 
z
" transform="scale(0.015625)"/>
       </defs>
       <use xlink:href="#CMR17-30" transform="scale(0.996264)"/>
       <use xlink:href="#CMMI12-3a" transform="translate(45.690477 0)scale(0.996264)"/>
       <use xlink:href="#CMR17-34" transform="translate(72.787654 0)scale(0.996264)"/>
      </g>
     </g>
    </g>
    <g id="ytick_6">
     <g id="line2d_32">
      <g>
       <use xlink:href="#meb8fa9f7d1" x="298.919014" y="63.053589" style="stroke: #000000; stroke-width: 0.8"/>
      </g>
     </g>
     <g id="text_17">
      <!-- $\mathdefault{0.6}$ -->
      <g transform="translate(277.915938 66.858762)scale(0.11 -0.11)">
       <use xlink:href="#CMR17-30" transform="scale(0.996264)"/>
       <use xlink:href="#CMMI12-3a" transform="translate(45.690477 0)scale(0.996264)"/>
       <use xlink:href="#CMR17-36" transform="translate(72.787654 0)scale(0.996264)"/>
      </g>
     </g>
    </g>
    <g id="ytick_7">
     <g id="line2d_33">
      <g>
       <use xlink:href="#meb8fa9f7d1" x="298.919014" y="34.634575" style="stroke: #000000; stroke-width: 0.8"/>
      </g>
     </g>
     <g id="text_18">
      <!-- $\mathdefault{0.8}$ -->
      <g transform="translate(277.915938 38.439748)scale(0.11 -0.11)">
       <use xlink:href="#CMR17-30" transform="scale(0.996264)"/>
       <use xlink:href="#CMMI12-3a" transform="translate(45.690477 0)scale(0.996264)"/>
       <use xlink:href="#CMR17-38" transform="translate(72.787654 0)scale(0.996264)"/>
      </g>
     </g>
    </g>
   </g>
   <g id="line2d_34">
    <path d="M 303.044608 77.263095 
L 303.416097 77.385415 
L 303.870139 77.80978 
L 304.489288 78.727128 
L 305.521202 80.723023 
L 308.410562 86.479774 
L 309.772689 88.617711 
L 311.052263 90.22604 
L 312.331837 91.491231 
L 313.693964 92.525884 
L 315.138644 93.345781 
L 316.789707 94.020448 
L 318.688429 94.550975 
L 321.041193 94.969801 
L 324.178213 95.28858 
L 328.883742 95.520592 
L 337.551823 95.689823 
L 358.850534 95.836112 
L 385.556476 95.898143 
L 385.556476 95.898143 
" clip-path="url(#p9806f7c85d)" style="fill: none; stroke: #0000a4; stroke-opacity: 0.8; stroke-width: 1.5; stroke-linecap: square"/>
   </g>
   <g id="line2d_35">
    <path d="M 303.044608 77.263095 
L 303.457374 77.373608 
L 303.993969 77.775612 
L 304.778224 78.676752 
L 308.286733 83.046851 
L 309.442477 83.981724 
L 310.556944 84.603814 
L 311.712688 84.995637 
L 312.950985 85.180413 
L 314.354389 85.163255 
L 316.088005 84.907667 
L 318.399493 84.324626 
L 322.981192 82.881562 
L 328.182041 81.337034 
L 332.474804 80.30152 
L 336.891397 79.467856 
L 341.762033 78.7789 
L 347.375647 78.215732 
L 354.145005 77.76904 
L 362.771808 77.434164 
L 374.824568 77.205708 
L 385.556476 77.116068 
L 385.556476 77.116068 
" clip-path="url(#p9806f7c85d)" style="fill: none; stroke: #0000cd; stroke-opacity: 0.8; stroke-width: 1.5; stroke-linecap: square"/>
   </g>
   <g id="line2d_36">
    <path d="M 303.044608 77.263095 
L 303.581203 77.375692 
L 304.365458 77.802699 
L 307.048435 79.443267 
L 308.08035 79.735005 
L 309.070987 79.789785 
L 310.144178 79.622568 
L 311.341199 79.203748 
L 312.785879 78.450988 
L 314.725878 77.166698 
L 318.894812 74.050028 
L 322.320767 71.643883 
L 325.127574 69.941224 
L 327.851828 68.546369 
L 330.658635 67.361761 
L 333.589272 66.366985 
L 336.808844 65.513587 
L 340.399906 64.798377 
L 344.527563 64.210019 
L 349.480752 63.738122 
L 355.713514 63.379568 
L 364.216488 63.129095 
L 377.631374 62.981561 
L 385.556476 62.950888 
L 385.556476 62.950888 
" clip-path="url(#p9806f7c85d)" style="fill: none; stroke: #0000f1; stroke-opacity: 0.8; stroke-width: 1.5; stroke-linecap: square"/>
   </g>
   <g id="line2d_37">
    <path d="M 303.044608 77.263095 
L 304.035246 77.382122 
L 305.562479 77.54043 
L 306.553117 77.401379 
L 307.543754 77.02434 
L 308.616945 76.361857 
L 309.855242 75.321978 
L 311.423752 73.695832 
L 313.85907 70.805762 
L 318.399493 65.40732 
L 320.834811 62.883084 
L 323.063746 60.884103 
L 325.251404 59.214058 
L 327.480339 57.790573 
L 329.791827 56.57868 
L 332.227145 55.551864 
L 334.910122 54.666588 
L 337.882035 53.925795 
L 341.266714 53.315678 
L 345.311818 52.820545 
L 350.34756 52.439473 
L 357.075641 52.167943 
L 367.270955 52.000675 
L 385.556476 51.931225 
L 385.556476 51.931225 
" clip-path="url(#p9806f7c85d)" style="fill: none; stroke: #0008ff; stroke-opacity: 0.8; stroke-width: 1.5; stroke-linecap: square"/>
   </g>
   <g id="line2d_38">
    <path d="M 303.044608 77.263095 
L 304.159075 77.154689 
L 305.025883 76.845479 
L 305.933968 76.27066 
L 306.924606 75.361886 
L 308.08035 73.983364 
L 309.566306 71.835101 
L 311.836518 68.101284 
L 316.253111 60.805816 
L 318.482046 57.586569 
L 320.504598 55.042845 
L 322.444597 52.947709 
L 324.384596 51.172936 
L 326.365871 49.660593 
L 328.4297 48.368294 
L 330.576082 47.285388 
L 332.928846 46.351211 
L 335.52927 45.564691 
L 338.459907 44.915823 
L 341.927139 44.384735 
L 346.13735 43.973467 
L 351.66841 43.669967 
L 359.676065 43.473047 
L 374.122866 43.375313 
L 385.556476 43.360379 
L 385.556476 43.360379 
" clip-path="url(#p9806f7c85d)" style="fill: none; stroke: #0028ff; stroke-opacity: 0.8; stroke-width: 1.5; stroke-linecap: square"/>
   </g>
   <g id="line2d_39">
    <path d="M 303.044608 77.263095 
L 303.705033 77.149195 
L 304.406735 76.783223 
L 305.19099 76.096846 
L 306.099074 74.982568 
L 307.213542 73.236577 
L 308.699498 70.450404 
L 311.176093 65.241716 
L 314.684601 57.960564 
L 316.830983 54.026962 
L 318.770982 50.928074 
L 320.587151 48.431562 
L 322.40332 46.308632 
L 324.21949 44.527254 
L 326.076935 43.018229 
L 328.016934 41.733305 
L 330.039486 40.660013 
L 332.227145 39.749657 
L 334.662462 38.979317 
L 337.427993 38.341388 
L 340.688842 37.823362 
L 344.69267 37.420464 
L 349.976071 37.125592 
L 357.69479 36.93691 
L 372.017761 36.846175 
L 385.556476 36.832839 
L 385.556476 36.832839 
" clip-path="url(#p9806f7c85d)" style="fill: none; stroke: #004cff; stroke-opacity: 0.8; stroke-width: 1.5; stroke-linecap: square"/>
   </g>
   <g id="line2d_40">
    <path d="M 303.044608 77.263095 
L 303.581203 77.145232 
L 304.159075 76.775108 
L 304.860777 76.031832 
L 305.686308 74.814144 
L 306.759499 72.80211 
L 308.204179 69.576068 
L 310.887157 62.912777 
L 313.900346 55.640195 
L 315.964175 51.238282 
L 317.821621 47.789103 
L 319.596513 44.957464 
L 321.330129 42.608551 
L 323.063746 40.635652 
L 324.797362 38.996076 
L 326.572254 37.616455 
L 328.470977 36.424013 
L 330.493529 35.41991 
L 332.722464 34.568275 
L 335.199058 33.864984 
L 338.088418 33.283885 
L 341.55565 32.823685 
L 345.930967 32.478161 
L 351.957346 32.24006 
L 361.698617 32.10364 
L 385.432647 32.057635 
L 385.556476 32.057605 
L 385.556476 32.057605 
" clip-path="url(#p9806f7c85d)" style="fill: none; stroke: #006cff; stroke-opacity: 0.8; stroke-width: 1.5; stroke-linecap: square"/>
   </g>
   <g id="line2d_41">
    <path d="M 303.044608 77.263095 
L 303.49865 77.158547 
L 304.035246 76.788752 
L 304.654394 76.077739 
L 305.438649 74.8175 
L 306.470563 72.690329 
L 307.873967 69.227406 
L 310.474391 62.079348 
L 313.405028 54.250342 
L 315.42758 49.477748 
L 317.243749 45.74965 
L 318.977365 42.694022 
L 320.669704 40.161793 
L 322.320767 38.083036 
L 324.013107 36.308503 
L 325.746723 34.81478 
L 327.562892 33.548015 
L 329.461614 32.494039 
L 331.525443 31.601915 
L 333.836931 30.848655 
L 336.478632 30.227462 
L 339.615651 29.726571 
L 343.495649 29.341879 
L 348.655221 29.066398 
L 356.456493 28.894369 
L 371.935207 28.819099 
L 385.556476 28.811189 
L 385.556476 28.811189 
" clip-path="url(#p9806f7c85d)" style="fill: none; stroke: #0090ff; stroke-opacity: 0.8; stroke-width: 1.5; stroke-linecap: square"/>
   </g>
   <g id="line2d_42">
    <path d="M 303.044608 77.263095 
L 303.49865 77.151529 
L 303.993969 76.796484 
L 304.613118 76.058052 
L 305.397372 74.735343 
L 306.38801 72.590202 
L 307.750137 69.061387 
L 310.226731 61.895933 
L 313.198645 53.501256 
L 315.17992 48.553881 
L 316.954813 44.690599 
L 318.647152 41.520491 
L 320.298215 38.888496 
L 321.949278 36.672882 
L 323.600341 34.827331 
L 325.29268 33.269055 
L 327.026297 31.970512 
L 328.883742 30.857599 
L 330.865018 29.928695 
L 333.093953 29.135044 
L 335.611824 28.481855 
L 338.54246 27.956617 
L 342.174799 27.542115 
L 346.880328 27.241319 
L 353.732239 27.045183 
L 366.115211 26.948351 
L 385.556476 26.930293 
L 385.556476 26.930293 
" clip-path="url(#p9806f7c85d)" style="fill: none; stroke: #00b0ff; stroke-opacity: 0.8; stroke-width: 1.5; stroke-linecap: square"/>
   </g>
   <g id="line2d_43">
    <path d="M 303.044608 77.263095 
L 303.49865 77.157618 
L 304.035246 76.780412 
L 304.654394 76.047352 
L 305.438649 74.735377 
L 306.429287 72.599886 
L 307.750137 69.182006 
L 310.020349 62.582729 
L 313.322474 53.114399 
L 315.30375 48.110261 
L 317.078643 44.203129 
L 318.770982 40.998276 
L 320.422045 38.338942 
L 322.031831 36.153041 
L 323.682894 34.282376 
L 325.375234 32.704019 
L 327.10885 31.38984 
L 328.966295 30.264613 
L 330.947571 29.326475 
L 333.135229 28.53873 
L 335.611824 27.886322 
L 338.54246 27.352255 
L 342.133522 26.935326 
L 346.797775 26.631037 
L 353.525856 26.433094 
L 365.619892 26.333976 
L 385.556476 26.314639 
L 385.556476 26.314639 
" clip-path="url(#p9806f7c85d)" style="fill: none; stroke: #00d4ff; stroke-opacity: 0.8; stroke-width: 1.5; stroke-linecap: square"/>
   </g>
   <g id="patch_9">
    <path d="M 298.919014 99.377318 
L 298.919014 22.835464 
" style="fill: none; stroke: #000000; stroke-width: 0.8; stroke-linejoin: miter; stroke-linecap: square"/>
   </g>
   <g id="patch_10">
    <path d="M 298.919014 99.377318 
L 389.68207 99.377318 
" style="fill: none; stroke: #000000; stroke-width: 0.8; stroke-linejoin: miter; stroke-linecap: square"/>
   </g>
   <g id="text_19">
    <!-- $\mathrm{d} y / \mathrm{d}t$ -->
    <g transform="translate(330.610744 16.835464)scale(0.11 -0.11)">
     <defs>
      <path id="CMMI12-79" d="M 1683 -700 
C 1510 -939 1261 -1152 947 -1152 
C 870 -1152 563 -1152 467 -889 
C 486 -895 518 -895 531 -895 
C 723 -895 851 -729 851 -582 
C 851 -435 730 -384 634 -384 
C 531 -384 307 -458 307 -759 
C 307 -1071 582 -1286 947 -1286 
C 1587 -1286 2234 -700 2413 6 
L 3040 2485 
C 3046 2517 3059 2556 3059 2594 
C 3059 2689 2982 2753 2886 2753 
C 2829 2753 2694 2727 2643 2535 
L 2170 658 
C 2138 543 2138 530 2086 460 
C 1958 281 1747 64 1440 64 
C 1082 64 1050 415 1050 588 
C 1050 952 1222 1443 1395 1903 
C 1466 2088 1504 2178 1504 2305 
C 1504 2574 1312 2816 998 2816 
C 410 2816 173 1890 173 1839 
C 173 1814 198 1782 243 1782 
C 301 1782 307 1807 333 1897 
C 486 2433 730 2689 979 2689 
C 1037 2689 1146 2689 1146 2478 
C 1146 2312 1075 2127 979 1884 
C 666 1047 666 837 666 683 
C 666 77 1101 -64 1421 -64 
C 1606 -64 1837 -6 2061 230 
L 2067 224 
C 1971 -147 1907 -392 1683 -700 
z
" transform="scale(0.015625)"/>
     </defs>
     <use xlink:href="#CMR17-64" transform="scale(0.996264)"/>
     <use xlink:href="#CMMI12-79" transform="translate(50.89537 0)scale(0.996264)"/>
     <use xlink:href="#CMMI12-3d" transform="translate(102.034151 0)scale(0.996264)"/>
     <use xlink:href="#CMR17-64" transform="translate(150.809069 0)scale(0.996264)"/>
     <use xlink:href="#CMMI12-74" transform="translate(201.704439 0)scale(0.996264)"/>
    </g>
   </g>
   <g id="legend_1">
    <g id="text_20">
     <!-- Input $I$ -->
     <g transform="translate(405.058375 17.610347)scale(0.11 -0.11)">
      <defs>
       <path id="CMR17-49" d="M 1261 3905 
C 1261 4192 1338 4192 1798 4192 
L 1798 4352 
C 1594 4352 1267 4352 1050 4352 
C 832 4352 506 4352 301 4352 
L 301 4192 
C 762 4192 838 4192 838 3905 
L 838 447 
C 838 160 762 160 301 160 
L 301 0 
C 506 0 832 0 1050 0 
C 1267 0 1594 0 1798 0 
L 1798 160 
C 1338 160 1261 160 1261 447 
L 1261 3905 
z
" transform="scale(0.015625)"/>
       <path id="CMR17-6e" d="M 2656 1933 
C 2656 2259 2592 2790 1837 2790 
C 1331 2790 1069 2400 973 2144 
L 966 2144 
L 966 2790 
L 211 2720 
L 211 2554 
C 589 2554 646 2515 646 2208 
L 646 428 
C 646 184 621 153 211 153 
L 211 -13 
C 365 0 646 0 813 0 
C 979 0 1267 0 1421 -13 
L 1421 153 
C 1011 153 986 178 986 428 
L 986 1658 
C 986 2247 1344 2688 1792 2688 
C 2266 2688 2317 2266 2317 1958 
L 2317 428 
C 2317 184 2291 153 1882 153 
L 1882 -13 
C 2035 0 2317 0 2483 0 
C 2650 0 2938 0 3091 -13 
L 3091 153 
C 2682 153 2656 178 2656 428 
L 2656 1933 
z
" transform="scale(0.015625)"/>
       <path id="CMR17-70" d="M 1408 -1063 
C 998 -1063 973 -1037 973 -789 
L 973 402 
C 1158 134 1427 -38 1766 -38 
C 2406 -38 3053 523 3053 1388 
C 3053 2191 2496 2802 1837 2802 
C 1453 2802 1139 2592 960 2338 
L 960 2802 
L 198 2732 
L 198 2567 
C 576 2567 634 2528 634 2223 
L 634 -789 
C 634 -1031 608 -1063 198 -1063 
L 198 -1228 
C 352 -1216 634 -1216 800 -1216 
C 966 -1216 1254 -1216 1408 -1228 
L 1408 -1063 
z
M 973 2012 
C 973 2102 973 2235 1222 2471 
C 1254 2497 1472 2688 1792 2688 
C 2259 2688 2643 2108 2643 1382 
C 2643 656 2234 64 1728 64 
C 1498 64 1248 172 1056 472 
C 973 612 973 650 973 752 
L 973 2012 
z
" transform="scale(0.015625)"/>
       <path id="CMR17-75" d="M 1882 2693 
L 1882 2528 
C 2259 2528 2317 2489 2317 2186 
L 2317 1032 
C 2317 500 2029 38 1555 38 
C 1030 38 986 348 986 678 
L 986 2763 
L 211 2693 
L 211 2528 
C 467 2528 640 2528 646 2274 
L 646 1058 
C 646 633 646 361 813 183 
C 896 101 1056 -64 1517 -64 
C 2061 -64 2272 377 2323 506 
L 2330 506 
L 2330 -63 
L 3091 -63 
L 3091 128 
C 2714 128 2656 166 2656 473 
L 2656 2763 
L 1882 2693 
z
" transform="scale(0.015625)"/>
       <path id="CMMI12-49" d="M 2355 3880 
C 2413 4103 2426 4167 2893 4167 
C 3034 4167 3085 4167 3085 4288 
C 3085 4352 3014 4352 2995 4352 
C 2880 4352 2739 4352 2624 4352 
L 1837 4352 
C 1709 4352 1562 4352 1434 4352 
C 1382 4352 1312 4352 1312 4231 
C 1312 4167 1363 4167 1491 4167 
C 1888 4167 1888 4116 1888 4046 
C 1888 4002 1875 3963 1862 3906 
L 998 472 
C 941 249 928 185 461 185 
C 320 185 262 185 262 64 
C 262 0 326 0 358 0 
C 474 0 614 0 730 0 
L 1517 0 
C 1645 0 1786 0 1914 0 
C 1965 0 2042 0 2042 115 
C 2042 185 2003 185 1862 185 
C 1466 185 1466 236 1466 312 
C 1466 325 1466 357 1491 459 
L 2355 3880 
z
" transform="scale(0.015625)"/>
      </defs>
      <use xlink:href="#CMR17-49" transform="scale(0.996264)"/>
      <use xlink:href="#CMR17-6e" transform="translate(32.638409 0)scale(0.996264)"/>
      <use xlink:href="#CMR17-70" transform="translate(83.533779 0)scale(0.996264)"/>
      <use xlink:href="#CMR17-75" transform="translate(134.429149 0)scale(0.996264)"/>
      <use xlink:href="#CMR17-74" transform="translate(185.324519 0)scale(0.996264)"/>
      <use xlink:href="#CMMI12-49" transform="translate(250.681253 0)scale(0.996264)"/>
     </g>
    </g>
    <g id="line2d_44">
     <path d="M 405.650998 25.691241 
L 412.650998 25.691241 
L 419.650998 25.691241 
" style="fill: none; stroke: #0000a4; stroke-opacity: 0.8; stroke-width: 1.5; stroke-linecap: square"/>
    </g>
    <g id="text_21">
     <!-- 0.05 -->
     <g transform="translate(425.250998 28.141241)scale(0.07 -0.07)">
      <defs>
       <path id="CMR17-2e" d="M 1062 261 
C 1062 420 934 522 800 522 
C 672 522 538 420 538 261 
C 538 102 666 0 800 0 
C 928 0 1062 102 1062 261 
z
" transform="scale(0.015625)"/>
       <path id="CMR17-35" d="M 730 3692 
C 794 3666 1056 3584 1325 3584 
C 1920 3584 2246 3911 2432 4100 
C 2432 4157 2432 4192 2394 4192 
C 2387 4192 2374 4192 2323 4163 
C 2099 4058 1837 3973 1517 3973 
C 1325 3973 1037 3999 723 4139 
C 653 4171 640 4171 634 4171 
C 602 4171 595 4164 595 4037 
L 595 2203 
C 595 2089 595 2057 659 2057 
C 691 2057 704 2070 736 2114 
C 941 2401 1222 2522 1542 2522 
C 1766 2522 2246 2382 2246 1289 
C 2246 1085 2246 715 2054 421 
C 1894 159 1645 25 1370 25 
C 947 25 518 320 403 814 
C 429 807 480 795 506 795 
C 589 795 749 840 749 1038 
C 749 1210 627 1280 506 1280 
C 358 1280 262 1190 262 1011 
C 262 454 704 -128 1382 -128 
C 2042 -128 2669 440 2669 1264 
C 2669 2030 2170 2624 1549 2624 
C 1222 2624 947 2503 730 2274 
L 730 3692 
z
" transform="scale(0.015625)"/>
      </defs>
      <use xlink:href="#CMR17-30" transform="scale(0.996264)"/>
      <use xlink:href="#CMR17-2e" transform="translate(45.690477 0)scale(0.996264)"/>
      <use xlink:href="#CMR17-30" transform="translate(70.561536 0)scale(0.996264)"/>
      <use xlink:href="#CMR17-35" transform="translate(116.252013 0)scale(0.996264)"/>
     </g>
    </g>
    <g id="line2d_45">
     <path d="M 405.650998 35.447256 
L 412.650998 35.447256 
L 419.650998 35.447256 
" style="fill: none; stroke: #0000cd; stroke-opacity: 0.8; stroke-width: 1.5; stroke-linecap: square"/>
    </g>
    <g id="text_22">
     <!-- 0.1 -->
     <g transform="translate(425.250998 37.897256)scale(0.07 -0.07)">
      <use xlink:href="#CMR17-30" transform="scale(0.996264)"/>
      <use xlink:href="#CMR17-2e" transform="translate(45.690477 0)scale(0.996264)"/>
      <use xlink:href="#CMR17-31" transform="translate(70.561536 0)scale(0.996264)"/>
     </g>
    </g>
    <g id="line2d_46">
     <path d="M 405.650998 45.20327 
L 412.650998 45.20327 
L 419.650998 45.20327 
" style="fill: none; stroke: #0000f1; stroke-opacity: 0.8; stroke-width: 1.5; stroke-linecap: square"/>
    </g>
    <g id="text_23">
     <!-- 0.15 -->
     <g transform="translate(425.250998 47.65327)scale(0.07 -0.07)">
      <use xlink:href="#CMR17-30" transform="scale(0.996264)"/>
      <use xlink:href="#CMR17-2e" transform="translate(45.690477 0)scale(0.996264)"/>
      <use xlink:href="#CMR17-31" transform="translate(70.561536 0)scale(0.996264)"/>
      <use xlink:href="#CMR17-35" transform="translate(116.252013 0)scale(0.996264)"/>
     </g>
    </g>
    <g id="line2d_47">
     <path d="M 405.650998 54.959284 
L 412.650998 54.959284 
L 419.650998 54.959284 
" style="fill: none; stroke: #0008ff; stroke-opacity: 0.8; stroke-width: 1.5; stroke-linecap: square"/>
    </g>
    <g id="text_24">
     <!-- 0.2 -->
     <g transform="translate(425.250998 57.409284)scale(0.07 -0.07)">
      <use xlink:href="#CMR17-30" transform="scale(0.996264)"/>
      <use xlink:href="#CMR17-2e" transform="translate(45.690477 0)scale(0.996264)"/>
      <use xlink:href="#CMR17-32" transform="translate(70.561536 0)scale(0.996264)"/>
     </g>
    </g>
    <g id="line2d_48">
     <path d="M 405.650998 64.715298 
L 412.650998 64.715298 
L 419.650998 64.715298 
" style="fill: none; stroke: #0028ff; stroke-opacity: 0.8; stroke-width: 1.5; stroke-linecap: square"/>
    </g>
    <g id="text_25">
     <!-- 0.25 -->
     <g transform="translate(425.250998 67.165298)scale(0.07 -0.07)">
      <use xlink:href="#CMR17-30" transform="scale(0.996264)"/>
      <use xlink:href="#CMR17-2e" transform="translate(45.690477 0)scale(0.996264)"/>
      <use xlink:href="#CMR17-32" transform="translate(70.561536 0)scale(0.996264)"/>
      <use xlink:href="#CMR17-35" transform="translate(116.252013 0)scale(0.996264)"/>
     </g>
    </g>
    <g id="line2d_49">
     <path d="M 405.650998 74.471312 
L 412.650998 74.471312 
L 419.650998 74.471312 
" style="fill: none; stroke: #004cff; stroke-opacity: 0.8; stroke-width: 1.5; stroke-linecap: square"/>
    </g>
    <g id="text_26">
     <!-- 0.3 -->
     <g transform="translate(425.250998 76.921312)scale(0.07 -0.07)">
      <defs>
       <path id="CMR17-33" d="M 1414 2157 
C 1984 2157 2234 1662 2234 1090 
C 2234 320 1824 25 1453 25 
C 1114 25 563 194 390 693 
C 422 680 454 680 486 680 
C 640 680 755 782 755 948 
C 755 1133 614 1216 486 1216 
C 378 1216 211 1165 211 926 
C 211 335 787 -128 1466 -128 
C 2176 -128 2720 430 2720 1085 
C 2720 1707 2208 2157 1600 2227 
C 2086 2328 2554 2756 2554 3329 
C 2554 3820 2048 4179 1472 4179 
C 890 4179 378 3829 378 3329 
C 378 3110 544 3072 627 3072 
C 762 3072 877 3155 877 3321 
C 877 3486 762 3569 627 3569 
C 602 3569 570 3569 544 3557 
C 730 3959 1235 4032 1459 4032 
C 1683 4032 2106 3925 2106 3320 
C 2106 3143 2080 2828 1862 2550 
C 1670 2304 1453 2304 1242 2284 
C 1210 2284 1062 2269 1037 2269 
C 992 2263 966 2257 966 2208 
C 966 2163 973 2157 1101 2157 
L 1414 2157 
z
" transform="scale(0.015625)"/>
      </defs>
      <use xlink:href="#CMR17-30" transform="scale(0.996264)"/>
      <use xlink:href="#CMR17-2e" transform="translate(45.690477 0)scale(0.996264)"/>
      <use xlink:href="#CMR17-33" transform="translate(70.561536 0)scale(0.996264)"/>
     </g>
    </g>
    <g id="line2d_50">
     <path d="M 405.650998 84.227326 
L 412.650998 84.227326 
L 419.650998 84.227326 
" style="fill: none; stroke: #006cff; stroke-opacity: 0.8; stroke-width: 1.5; stroke-linecap: square"/>
    </g>
    <g id="text_27">
     <!-- 0.35 -->
     <g transform="translate(425.250998 86.677326)scale(0.07 -0.07)">
      <use xlink:href="#CMR17-30" transform="scale(0.996264)"/>
      <use xlink:href="#CMR17-2e" transform="translate(45.690477 0)scale(0.996264)"/>
      <use xlink:href="#CMR17-33" transform="translate(70.561536 0)scale(0.996264)"/>
      <use xlink:href="#CMR17-35" transform="translate(116.252013 0)scale(0.996264)"/>
     </g>
    </g>
    <g id="line2d_51">
     <path d="M 405.650998 93.983341 
L 412.650998 93.983341 
L 419.650998 93.983341 
" style="fill: none; stroke: #0090ff; stroke-opacity: 0.8; stroke-width: 1.5; stroke-linecap: square"/>
    </g>
    <g id="text_28">
     <!-- 0.4 -->
     <g transform="translate(425.250998 96.433341)scale(0.07 -0.07)">
      <use xlink:href="#CMR17-30" transform="scale(0.996264)"/>
      <use xlink:href="#CMR17-2e" transform="translate(45.690477 0)scale(0.996264)"/>
      <use xlink:href="#CMR17-34" transform="translate(70.561536 0)scale(0.996264)"/>
     </g>
    </g>
    <g id="line2d_52">
     <path d="M 405.650998 103.739355 
L 412.650998 103.739355 
L 419.650998 103.739355 
" style="fill: none; stroke: #00b0ff; stroke-opacity: 0.8; stroke-width: 1.5; stroke-linecap: square"/>
    </g>
    <g id="text_29">
     <!-- 0.45 -->
     <g transform="translate(425.250998 106.189355)scale(0.07 -0.07)">
      <use xlink:href="#CMR17-30" transform="scale(0.996264)"/>
      <use xlink:href="#CMR17-2e" transform="translate(45.690477 0)scale(0.996264)"/>
      <use xlink:href="#CMR17-34" transform="translate(70.561536 0)scale(0.996264)"/>
      <use xlink:href="#CMR17-35" transform="translate(116.252013 0)scale(0.996264)"/>
     </g>
    </g>
    <g id="line2d_53">
     <path d="M 405.650998 113.495369 
L 412.650998 113.495369 
L 419.650998 113.495369 
" style="fill: none; stroke: #00d4ff; stroke-opacity: 0.8; stroke-width: 1.5; stroke-linecap: square"/>
    </g>
    <g id="text_30">
     <!-- 0.5 -->
     <g transform="translate(425.250998 115.945369)scale(0.07 -0.07)">
      <use xlink:href="#CMR17-30" transform="scale(0.996264)"/>
      <use xlink:href="#CMR17-2e" transform="translate(45.690477 0)scale(0.996264)"/>
      <use xlink:href="#CMR17-35" transform="translate(70.561536 0)scale(0.996264)"/>
     </g>
    </g>
   </g>
  </g>
 </g>
 <defs>
  <clipPath id="pb58a1f18a9">
   <rect x="28.203076" y="22.835464" width="90.763055" height="76.541855"/>
  </clipPath>
  <clipPath id="p38ca32ccb7">
   <rect x="163.561045" y="22.835464" width="90.763055" height="76.541855"/>
  </clipPath>
  <clipPath id="p9806f7c85d">
   <rect x="298.919014" y="22.835464" width="90.763055" height="76.541855"/>
  </clipPath>
 </defs>
</svg>
