<?xml version="1.0" encoding="utf-8" standalone="no"?>
<!DOCTYPE svg PUBLIC "-//W3C//DTD SVG 1.1//EN"
  "http://www.w3.org/Graphics/SVG/1.1/DTD/svg11.dtd">
<svg xmlns:xlink="http://www.w3.org/1999/xlink" width="451.44pt" height="137.902464pt" viewBox="0 0 451.44 137.902464" xmlns="http://www.w3.org/2000/svg" version="1.1">
 <metadata>
  <rdf:RDF xmlns:dc="http://purl.org/dc/elements/1.1/" xmlns:cc="http://creativecommons.org/ns#" xmlns:rdf="http://www.w3.org/1999/02/22-rdf-syntax-ns#">
   <cc:Work>
    <dc:type rdf:resource="http://purl.org/dc/dcmitype/StillImage"/>
    <dc:date>2022-08-09T11:36:18.744063</dc:date>
    <dc:format>image/svg+xml</dc:format>
    <dc:creator>
     <cc:Agent>
      <dc:title>Matplotlib v3.5.1, https://matplotlib.org/</dc:title>
     </cc:Agent>
    </dc:creator>
   </cc:Work>
  </rdf:RDF>
 </metadata>
 <defs>
  <style type="text/css">*{stroke-linejoin: round; stroke-linecap: butt}</style>
 </defs>
 <g id="figure_1">
  <g id="patch_1">
   <path d="M 0 137.902464 
L 451.44 137.902464 
L 451.44 0 
L 0 0 
L 0 137.902464 
z
" style="fill: none"/>
  </g>
  <g id="axes_1">
   <g id="patch_2">
    <path d="M 28.203076 99.002318 
L 123.735431 99.002318 
L 123.735431 23.960464 
L 28.203076 23.960464 
z
" style="fill: #ffffff"/>
   </g>
   <g id="matplotlib.axis_1">
    <g id="xtick_1">
     <g id="line2d_1">
      <defs>
       <path id="m6da88eb6e4" d="M 0 0 
L 0 3.5 
" style="stroke: #000000; stroke-width: 0.8"/>
      </defs>
      <g>
       <use xlink:href="#m6da88eb6e4" x="32.545456" y="99.002318" style="stroke: #000000; stroke-width: 0.8"/>
      </g>
     </g>
     <g id="text_1">
      <!-- $\mathdefault{0}$ -->
      <g transform="translate(29.805722 113.612665)scale(0.11 -0.11)">
       <defs>
        <path id="CMR17-30" d="M 2688 2025 
C 2688 2416 2682 3080 2413 3591 
C 2176 4039 1798 4198 1466 4198 
C 1158 4198 768 4058 525 3597 
C 269 3118 243 2524 243 2025 
C 243 1661 250 1106 448 619 
C 723 -39 1216 -128 1466 -128 
C 1760 -128 2208 -7 2470 600 
C 2662 1042 2688 1559 2688 2025 
z
M 1466 -26 
C 1056 -26 813 325 723 812 
C 653 1188 653 1738 653 2096 
C 653 2588 653 2997 736 3387 
C 858 3929 1216 4096 1466 4096 
C 1728 4096 2067 3923 2189 3400 
C 2272 3036 2278 2607 2278 2096 
C 2278 1680 2278 1169 2202 792 
C 2067 95 1690 -26 1466 -26 
z
" transform="scale(0.015625)"/>
       </defs>
       <use xlink:href="#CMR17-30" transform="scale(0.996264)"/>
      </g>
     </g>
    </g>
    <g id="xtick_2">
     <g id="line2d_2">
      <g>
       <use xlink:href="#m6da88eb6e4" x="119.479986" y="99.002318" style="stroke: #000000; stroke-width: 0.8"/>
      </g>
     </g>
     <g id="text_2">
      <!-- $\mathdefault{1000}$ -->
      <g transform="translate(108.521052 113.612665)scale(0.11 -0.11)">
       <defs>
        <path id="CMR17-31" d="M 1702 4058 
C 1702 4192 1696 4192 1606 4192 
C 1357 3916 979 3827 621 3827 
C 602 3827 570 3827 563 3808 
C 557 3795 557 3782 557 3648 
C 755 3648 1088 3686 1344 3839 
L 1344 461 
C 1344 236 1331 160 781 160 
L 589 160 
L 589 0 
C 896 0 1216 0 1523 0 
C 1830 0 2150 0 2458 0 
L 2458 160 
L 2266 160 
C 1715 160 1702 230 1702 458 
L 1702 4058 
z
" transform="scale(0.015625)"/>
       </defs>
       <use xlink:href="#CMR17-31" transform="scale(0.996264)"/>
       <use xlink:href="#CMR17-30" transform="translate(45.690477 0)scale(0.996264)"/>
       <use xlink:href="#CMR17-30" transform="translate(91.380954 0)scale(0.996264)"/>
       <use xlink:href="#CMR17-30" transform="translate(137.071431 0)scale(0.996264)"/>
      </g>
     </g>
    </g>
    <g id="text_3">
     <!-- time [ms] -->
     <g transform="translate(53.71655 127.962738)scale(0.11 -0.11)">
      <defs>
       <path id="CMR17-74" d="M 966 2560 
L 1862 2560 
L 1862 2725 
L 966 2725 
L 966 3904 
L 851 3904 
C 838 3245 614 2668 70 2668 
L 70 2560 
L 627 2560 
L 627 771 
C 627 650 627 -64 1370 -64 
C 1747 -64 1965 306 1965 777 
L 1965 1140 
L 1850 1140 
L 1850 783 
C 1850 344 1677 51 1408 51 
C 1222 51 966 178 966 758 
L 966 2560 
z
" transform="scale(0.015625)"/>
       <path id="CMR17-69" d="M 992 3909 
C 992 4049 877 4170 730 4170 
C 589 4170 467 4056 467 3909 
C 467 3769 582 3648 730 3648 
C 870 3648 992 3763 992 3909 
z
M 243 2706 
L 243 2541 
C 602 2541 653 2502 653 2197 
L 653 427 
C 653 184 627 153 218 153 
L 218 -13 
C 371 0 646 0 806 0 
C 960 0 1222 0 1370 -13 
L 1370 153 
C 992 153 979 191 979 420 
L 979 2776 
L 243 2706 
z
" transform="scale(0.015625)"/>
       <path id="CMR17-6d" d="M 4326 1933 
C 4326 2252 4269 2790 3507 2790 
C 3072 2790 2771 2496 2656 2151 
L 2650 2151 
C 2573 2676 2195 2790 1837 2790 
C 1331 2790 1069 2400 973 2144 
L 966 2144 
L 966 2790 
L 211 2720 
L 211 2554 
C 589 2554 646 2515 646 2208 
L 646 428 
C 646 184 621 153 211 153 
L 211 -13 
C 365 0 646 0 813 0 
C 979 0 1267 0 1421 -13 
L 1421 153 
C 1011 153 986 178 986 428 
L 986 1658 
C 986 2247 1344 2688 1792 2688 
C 2266 2688 2317 2266 2317 1958 
L 2317 428 
C 2317 184 2291 153 1882 153 
L 1882 -13 
C 2035 0 2317 0 2483 0 
C 2650 0 2938 0 3091 -13 
L 3091 153 
C 2682 153 2656 178 2656 428 
L 2656 1658 
C 2656 2247 3014 2688 3462 2688 
C 3936 2688 3987 2266 3987 1958 
L 3987 428 
C 3987 184 3962 153 3552 153 
L 3552 -13 
C 3706 0 3987 0 4154 0 
C 4320 0 4608 0 4762 -13 
L 4762 153 
C 4352 153 4326 178 4326 428 
L 4326 1933 
z
" transform="scale(0.015625)"/>
       <path id="CMR17-65" d="M 2438 1472 
C 2464 1498 2464 1511 2464 1576 
C 2464 2238 2118 2816 1389 2816 
C 710 2816 173 2169 173 1383 
C 173 551 781 -64 1459 -64 
C 2176 -64 2458 607 2458 740 
C 2458 784 2419 784 2406 784 
C 2362 784 2355 771 2330 696 
C 2189 265 1837 51 1504 51 
C 1229 51 954 203 781 480 
C 582 803 582 1176 582 1472 
L 2438 1472 
z
M 589 1568 
C 634 2505 1126 2714 1382 2714 
C 1818 2714 2112 2297 2118 1568 
L 589 1568 
z
" transform="scale(0.015625)"/>
       <path id="CMR17-5b" d="M 1504 -1600 
L 1504 -1377 
L 902 -1377 
L 902 4544 
L 1504 4544 
L 1504 4767 
L 678 4767 
L 678 -1600 
L 1504 -1600 
z
" transform="scale(0.015625)"/>
       <path id="CMR17-73" d="M 1978 2697 
C 1978 2813 1971 2819 1933 2819 
C 1907 2819 1901 2813 1824 2717 
C 1805 2691 1747 2626 1728 2601 
C 1523 2819 1235 2819 1126 2819 
C 416 2819 160 2447 160 2076 
C 160 1498 813 1365 998 1325 
C 1402 1243 1542 1217 1677 1101 
C 1760 1025 1901 884 1901 654 
C 1901 384 1747 38 1158 38 
C 602 38 403 460 288 1021 
C 269 1110 269 1117 218 1117 
C 166 1117 160 1110 160 983 
L 160 63 
C 160 -51 166 -58 205 -58 
C 237 -58 243 -51 275 0 
C 314 57 410 211 448 276 
C 576 103 800 -64 1158 -64 
C 1792 -64 2131 283 2131 784 
C 2131 1112 1958 1285 1875 1362 
C 1683 1561 1459 1606 1190 1657 
C 838 1735 390 1825 390 2217 
C 390 2383 480 2737 1126 2737 
C 1811 2737 1850 2094 1862 1888 
C 1869 1856 1901 1849 1920 1849 
C 1978 1849 1978 1869 1978 1978 
L 1978 2697 
z
" transform="scale(0.015625)"/>
       <path id="CMR17-5d" d="M 915 4767 
L 90 4767 
L 90 4544 
L 691 4544 
L 691 -1377 
L 90 -1377 
L 90 -1600 
L 915 -1600 
L 915 4767 
z
" transform="scale(0.015625)"/>
      </defs>
      <use xlink:href="#CMR17-74" transform="scale(0.996264)"/>
      <use xlink:href="#CMR17-69" transform="translate(35.280768 0)scale(0.996264)"/>
      <use xlink:href="#CMR17-6d" transform="translate(60.151826 0)scale(0.996264)"/>
      <use xlink:href="#CMR17-65" transform="translate(137.071416 0)scale(0.996264)"/>
      <use xlink:href="#CMR17-5b" transform="translate(207.633043 0)scale(0.996264)"/>
      <use xlink:href="#CMR17-6d" transform="translate(232.504101 0)scale(0.996264)"/>
      <use xlink:href="#CMR17-73" transform="translate(309.423691 0)scale(0.996264)"/>
      <use xlink:href="#CMR17-5d" transform="translate(345.225029 0)scale(0.996264)"/>
     </g>
    </g>
   </g>
   <g id="matplotlib.axis_2">
    <g id="ytick_1">
     <g id="line2d_3">
      <defs>
       <path id="m97bf1ec48f" d="M 0 0 
L -3.5 0 
" style="stroke: #000000; stroke-width: 0.8"/>
      </defs>
      <g>
       <use xlink:href="#m97bf1ec48f" x="28.203076" y="83.630438" style="stroke: #000000; stroke-width: 0.8"/>
      </g>
     </g>
     <g id="text_4">
      <!-- $\mathdefault{0.6}$ -->
      <g transform="translate(7.2 87.435611)scale(0.11 -0.11)">
       <defs>
        <path id="CMMI12-3a" d="M 1178 307 
C 1178 492 1024 619 870 619 
C 685 619 557 466 557 313 
C 557 128 710 0 864 0 
C 1050 0 1178 153 1178 307 
z
" transform="scale(0.015625)"/>
        <path id="CMR17-36" d="M 678 2176 
C 678 3690 1395 4032 1811 4032 
C 1946 4032 2272 4009 2400 3776 
C 2298 3776 2106 3776 2106 3553 
C 2106 3381 2246 3323 2336 3323 
C 2394 3323 2566 3348 2566 3560 
C 2566 3954 2246 4179 1805 4179 
C 1043 4179 243 3390 243 1984 
C 243 253 966 -128 1478 -128 
C 2099 -128 2688 427 2688 1283 
C 2688 2081 2170 2662 1517 2662 
C 1126 2662 838 2407 678 1960 
L 678 2176 
z
M 1478 25 
C 691 25 691 1200 691 1436 
C 691 1896 909 2560 1504 2560 
C 1613 2560 1926 2560 2138 2120 
C 2253 1870 2253 1609 2253 1289 
C 2253 944 2253 690 2118 434 
C 1978 171 1773 25 1478 25 
z
" transform="scale(0.015625)"/>
       </defs>
       <use xlink:href="#CMR17-30" transform="scale(0.996264)"/>
       <use xlink:href="#CMMI12-3a" transform="translate(45.690477 0)scale(0.996264)"/>
       <use xlink:href="#CMR17-36" transform="translate(72.787654 0)scale(0.996264)"/>
      </g>
     </g>
    </g>
    <g id="ytick_2">
     <g id="line2d_4">
      <g>
       <use xlink:href="#m97bf1ec48f" x="28.203076" y="52.812232" style="stroke: #000000; stroke-width: 0.8"/>
      </g>
     </g>
     <g id="text_5">
      <!-- $\mathdefault{0.8}$ -->
      <g transform="translate(7.2 56.617405)scale(0.11 -0.11)">
       <defs>
        <path id="CMR17-38" d="M 1741 2264 
C 2144 2467 2554 2773 2554 3263 
C 2554 3841 1990 4179 1472 4179 
C 890 4179 378 3759 378 3180 
C 378 3021 416 2747 666 2505 
C 730 2442 998 2251 1171 2130 
C 883 1983 211 1634 211 934 
C 211 279 838 -128 1459 -128 
C 2144 -128 2720 362 2720 1010 
C 2720 1590 2330 1857 2074 2029 
L 1741 2264 
z
M 902 2822 
C 851 2854 595 3051 595 3351 
C 595 3739 998 4032 1459 4032 
C 1965 4032 2336 3676 2336 3262 
C 2336 2669 1670 2331 1638 2331 
C 1632 2331 1626 2331 1574 2370 
L 902 2822 
z
M 2080 1519 
C 2176 1449 2483 1240 2483 851 
C 2483 381 2010 25 1472 25 
C 890 25 448 438 448 940 
C 448 1443 838 1862 1280 2060 
L 2080 1519 
z
" transform="scale(0.015625)"/>
       </defs>
       <use xlink:href="#CMR17-30" transform="scale(0.996264)"/>
       <use xlink:href="#CMMI12-3a" transform="translate(45.690477 0)scale(0.996264)"/>
       <use xlink:href="#CMR17-38" transform="translate(72.787654 0)scale(0.996264)"/>
      </g>
     </g>
    </g>
   </g>
   <g id="line2d_5">
    <path d="M 32.545456 68.221335 
L 33.675605 74.430539 
L 34.805754 79.378948 
L 35.935903 83.294411 
L 36.979117 86.160279 
L 38.022331 88.440424 
L 39.15248 90.374302 
L 40.282629 91.860207 
L 41.412778 92.989841 
L 42.629862 93.892316 
L 43.933879 94.578538 
L 45.411766 95.090878 
L 47.063523 95.419728 
L 49.063017 95.579643 
L 51.584118 95.544739 
L 55.148434 95.251854 
L 62.016262 94.413163 
L 73.317751 93.077723 
L 82.619745 92.216521 
L 92.704151 91.510482 
L 104.266443 90.929112 
L 118.089034 90.464086 
L 119.393052 90.430054 
L 119.393052 90.430054 
" clip-path="url(#pf29284739a)" style="fill: none; stroke: #0000cd; stroke-opacity: 0.8; stroke-width: 1.5; stroke-linecap: square"/>
   </g>
   <g id="line2d_6">
    <path d="M 32.545456 68.221335 
L 33.58867 71.475145 
L 34.54495 73.774375 
L 35.50123 75.540629 
L 36.45751 76.871461 
L 37.41379 77.84779 
L 38.457004 78.586678 
L 39.500218 79.053543 
L 40.630367 79.318022 
L 41.934385 79.383838 
L 43.412272 79.22991 
L 45.237897 78.808939 
L 47.672064 78.006028 
L 51.844922 76.354899 
L 59.060488 73.517269 
L 63.754952 71.928415 
L 68.362482 70.60798 
L 73.143882 69.474635 
L 78.186084 68.509564 
L 83.749894 67.674181 
L 90.00918 66.96453 
L 97.224746 66.376027 
L 105.9182 65.899363 
L 116.785016 65.536388 
L 119.393052 65.475648 
L 119.393052 65.475648 
" clip-path="url(#pf29284739a)" style="fill: none; stroke: #0008ff; stroke-opacity: 0.8; stroke-width: 1.5; stroke-linecap: square"/>
   </g>
   <g id="line2d_7">
    <path d="M 32.545456 68.221335 
L 33.414801 68.904113 
L 34.284147 69.317047 
L 35.240426 69.520318 
L 36.283641 69.50483 
L 37.500724 69.247548 
L 38.978611 68.68426 
L 40.804236 67.737317 
L 43.499207 66.066209 
L 52.540398 60.287635 
L 56.104714 58.358223 
L 59.582095 56.728825 
L 63.146411 55.308891 
L 66.797661 54.093511 
L 70.709715 53.026252 
L 74.969507 52.097529 
L 79.663971 51.303573 
L 85.053912 50.623837 
L 91.313198 50.065473 
L 98.876503 49.620936 
L 108.61317 49.283123 
L 119.393052 49.084953 
L 119.393052 49.084953 
" clip-path="url(#pf29284739a)" style="fill: none; stroke: #004cff; stroke-opacity: 0.8; stroke-width: 1.5; stroke-linecap: square"/>
   </g>
   <g id="line2d_8">
    <path d="M 32.545456 68.221335 
L 36.979117 63.009594 
L 40.456498 59.257508 
L 43.586141 56.202436 
L 46.541915 53.622568 
L 49.410755 51.406587 
L 52.279594 49.465814 
L 55.235368 47.736285 
L 58.278077 46.217137 
L 61.40772 44.900778 
L 64.798167 43.719586 
L 68.449417 42.688886 
L 72.448405 41.796455 
L 76.882066 41.037452 
L 82.011204 40.391021 
L 88.096621 39.858397 
L 95.57299 39.43943 
L 105.309658 39.130635 
L 119.306117 38.927636 
L 119.393052 38.926882 
L 119.393052 38.926882 
" clip-path="url(#pf29284739a)" style="fill: none; stroke: #0090ff; stroke-opacity: 0.8; stroke-width: 1.5; stroke-linecap: square"/>
   </g>
   <g id="line2d_9">
    <path d="M 32.545456 68.221335 
L 33.936408 64.647869 
L 35.414296 61.44241 
L 37.066052 58.398782 
L 38.804742 55.654781 
L 40.717302 53.047327 
L 42.803731 50.581272 
L 45.064028 48.26241 
L 47.411261 46.171698 
L 49.932362 44.228559 
L 52.540398 42.50054 
L 55.322303 40.929765 
L 58.191142 39.563585 
L 61.320786 38.323834 
L 64.624298 37.254044 
L 68.275548 36.306948 
L 72.361471 35.482512 
L 76.969001 34.784506 
L 82.358942 34.199652 
L 88.879032 33.726081 
L 97.050877 33.365497 
L 108.265432 33.109004 
L 119.393052 32.991731 
L 119.393052 32.991731 
" clip-path="url(#pf29284739a)" style="fill: none; stroke: #00d4ff; stroke-opacity: 0.8; stroke-width: 1.5; stroke-linecap: square"/>
   </g>
   <g id="line2d_10">
    <path d="M 32.545456 68.221335 
L 33.849474 63.671321 
L 35.153492 59.910631 
L 36.544444 56.57592 
L 38.022331 53.620413 
L 39.587153 50.992095 
L 41.238909 48.641108 
L 43.064534 46.426407 
L 45.064028 44.354161 
L 47.237392 42.426236 
L 49.584624 40.644281 
L 52.105725 39.011151 
L 54.800696 37.530436 
L 57.669535 36.205053 
L 60.799178 35.005508 
L 64.189625 33.946437 
L 67.92781 33.015181 
L 72.100667 32.209079 
L 76.882066 31.518894 
L 82.445876 30.947449 
L 89.22677 30.48491 
L 97.833288 30.133263 
L 109.656384 29.888322 
L 119.393052 29.792178 
L 119.393052 29.792178 
" clip-path="url(#pf29284739a)" style="fill: none; stroke: #29ffce; stroke-opacity: 0.8; stroke-width: 1.5; stroke-linecap: square"/>
   </g>
   <g id="line2d_11">
    <path d="M 32.545456 68.221335 
L 33.762539 63.249754 
L 35.066557 58.860162 
L 36.370575 55.260411 
L 37.674593 52.289723 
L 39.065546 49.664276 
L 40.543433 47.348861 
L 42.108254 45.302051 
L 43.846945 43.394631 
L 45.759505 41.62895 
L 47.932868 39.936303 
L 50.2801 38.389329 
L 52.888136 36.932078 
L 55.84391 35.541323 
L 59.060488 34.27999 
L 62.537869 33.156625 
L 66.362988 32.156086 
L 70.62278 31.275947 
L 75.404179 30.519841 
L 80.881055 29.883215 
L 87.401145 29.35679 
L 95.399121 28.943075 
L 105.9182 28.635329 
L 119.393052 28.447478 
L 119.393052 28.447478 
" clip-path="url(#pf29284739a)" style="fill: none; stroke: #60ff97; stroke-opacity: 0.8; stroke-width: 1.5; stroke-linecap: square"/>
   </g>
   <g id="line2d_12">
    <path d="M 32.545456 68.221335 
L 33.849474 62.470117 
L 35.066557 58.035835 
L 36.283641 54.370781 
L 37.587659 51.155674 
L 38.891677 48.539395 
L 40.195695 46.399743 
L 41.586647 44.528585 
L 43.064534 42.898014 
L 44.71629 41.402824 
L 46.541915 40.044887 
L 48.715279 38.715448 
L 51.23638 37.445186 
L 54.192154 36.211346 
L 57.669535 35.006011 
L 61.668524 33.859226 
L 66.189119 32.798955 
L 71.231322 31.851025 
L 76.795132 31.034812 
L 83.141353 30.334638 
L 90.443853 29.758151 
L 99.224241 29.294728 
L 110.351861 28.940485 
L 119.393052 28.770781 
L 119.393052 28.770781 
" clip-path="url(#pf29284739a)" style="fill: none; stroke: #97ff60; stroke-opacity: 0.8; stroke-width: 1.5; stroke-linecap: square"/>
   </g>
   <g id="line2d_13">
    <path d="M 32.545456 68.221335 
L 33.849474 62.188076 
L 35.153492 57.189428 
L 36.370575 53.345292 
L 37.587659 50.186991 
L 38.804742 47.611612 
L 40.021826 45.522095 
L 41.325844 43.72302 
L 42.629862 42.287648 
L 44.020814 41.069949 
L 45.585636 39.99469 
L 47.324326 39.069253 
L 49.410755 38.220957 
L 51.931856 37.447761 
L 55.148434 36.70465 
L 59.49516 35.940499 
L 65.580577 35.109107 
L 73.578554 34.24723 
L 83.054418 33.452897 
L 93.8343 32.77747 
L 106.265938 32.227634 
L 119.393052 31.838727 
L 119.393052 31.838727 
" clip-path="url(#pf29284739a)" style="fill: none; stroke: #ceff29; stroke-opacity: 0.8; stroke-width: 1.5; stroke-linecap: square"/>
   </g>
   <g id="line2d_14">
    <path d="M 32.545456 68.221335 
L 33.936408 61.640401 
L 35.240426 56.505222 
L 36.544444 52.260609 
L 37.761528 49.009428 
L 38.978611 46.356784 
L 40.195695 44.218854 
L 41.412778 42.515821 
L 42.629862 41.174286 
L 43.933879 40.064067 
L 45.324832 39.177166 
L 46.802719 38.495595 
L 48.54141 37.950557 
L 50.540904 37.567623 
L 52.975071 37.333697 
L 56.278583 37.255749 
L 61.320786 37.386981 
L 73.404685 37.998176 
L 95.051383 39.020863 
L 118.523706 39.893847 
L 119.393052 39.922402 
L 119.393052 39.922402 
" clip-path="url(#pf29284739a)" style="fill: none; stroke: #ffe600; stroke-opacity: 0.8; stroke-width: 1.5; stroke-linecap: square"/>
   </g>
   <g id="line2d_15">
    <path d="M 32.545456 68.221335 
L 33.936408 61.531046 
L 35.327361 55.937746 
L 36.631379 51.578735 
L 37.935397 47.980323 
L 39.15248 45.229525 
L 40.369564 42.993396 
L 41.586647 41.203708 
L 42.803731 39.795601 
L 44.020814 38.708979 
L 45.324832 37.84001 
L 46.715784 37.185679 
L 48.193671 36.733272 
L 49.932362 36.443773 
L 51.931856 36.34425 
L 54.452958 36.453665 
L 57.930339 36.849422 
L 64.015756 37.808819 
L 77.490608 39.944133 
L 87.140341 41.221268 
L 97.48555 42.362282 
L 108.873974 43.39113 
L 119.393052 44.168156 
L 119.393052 44.168156 
" clip-path="url(#pf29284739a)" style="fill: none; stroke: #ffa700; stroke-opacity: 0.8; stroke-width: 1.5; stroke-linecap: square"/>
   </g>
   <g id="line2d_16">
    <path d="M 32.545456 68.221335 
L 33.936408 61.467593 
L 35.327361 55.778537 
L 36.718313 51.024795 
L 38.022331 47.318766 
L 39.326349 44.255157 
L 40.630367 41.75759 
L 41.934385 39.753754 
L 43.151469 38.268539 
L 44.455487 37.029218 
L 45.759505 36.096522 
L 47.150457 35.380193 
L 48.628344 34.87297 
L 50.2801 34.547311 
L 52.19266 34.406802 
L 54.539892 34.473567 
L 57.582601 34.797744 
L 62.624803 35.593219 
L 74.013227 37.417491 
L 81.315727 38.329932 
L 89.139835 39.079713 
L 98.094092 39.707666 
L 108.700104 40.219876 
L 119.393052 40.561339 
L 119.393052 40.561339 
" clip-path="url(#pf29284739a)" style="fill: none; stroke: #ff6800; stroke-opacity: 0.8; stroke-width: 1.5; stroke-linecap: square"/>
   </g>
   <g id="line2d_17">
    <path d="M 32.545456 68.221335 
L 33.936408 61.431535 
L 35.327361 55.684338 
L 36.718313 50.844027 
L 38.109266 46.796118 
L 39.500218 43.441724 
L 40.804236 40.848623 
L 42.108254 38.721924 
L 43.412272 37.00077 
L 44.71629 35.628909 
L 46.107243 34.492525 
L 47.498195 33.638312 
L 48.976082 32.983923 
L 50.627838 32.498786 
L 52.453463 32.194576 
L 54.626827 32.06196 
L 57.408732 32.130461 
L 61.40772 32.477775 
L 80.01171 34.356504 
L 88.357424 34.840864 
L 98.528764 35.197825 
L 112.351355 35.444131 
L 119.393052 35.510894 
L 119.393052 35.510894 
" clip-path="url(#pf29284739a)" style="fill: none; stroke: #ff2900; stroke-opacity: 0.8; stroke-width: 1.5; stroke-linecap: square"/>
   </g>
   <g id="line2d_18">
    <path d="M 32.545456 68.221335 
L 33.936408 61.411334 
L 35.327361 55.630254 
L 36.718313 50.737152 
L 38.109266 46.613213 
L 39.500218 43.157116 
L 40.891171 40.281061 
L 42.282123 37.907698 
L 43.673076 35.96801 
L 45.064028 34.400002 
L 46.454981 33.147991 
L 47.932868 32.108417 
L 49.497689 31.276977 
L 51.23638 30.613881 
L 53.14894 30.130164 
L 55.322303 29.811115 
L 58.017273 29.648579 
L 61.581589 29.669826 
L 67.667006 29.964297 
L 81.489597 30.651054 
L 92.617216 30.941444 
L 108.439301 31.109502 
L 119.393052 31.151805 
L 119.393052 31.151805 
" clip-path="url(#pf29284739a)" style="fill: none; stroke: #cd0000; stroke-opacity: 0.8; stroke-width: 1.5; stroke-linecap: square"/>
   </g>
   <g id="line2d_19">
    <path d="M 32.545456 68.221335 
L 34.023343 61.009311 
L 35.50123 54.939076 
L 36.892183 50.115744 
L 38.283135 46.032791 
L 39.674087 42.588376 
L 41.06504 39.695047 
L 42.455992 37.276968 
L 43.933879 35.154434 
L 45.411766 33.423839 
L 46.889653 32.024102 
L 48.454475 30.843427 
L 50.106231 29.87414 
L 51.931856 29.069003 
L 53.93135 28.437479 
L 56.191648 27.959508 
L 58.886619 27.62053 
L 62.364 27.419996 
L 67.319268 27.376883 
L 78.620757 27.571708 
L 96.094598 27.785123 
L 119.393052 27.854262 
L 119.393052 27.854262 
" clip-path="url(#pf29284739a)" style="fill: none; stroke: #800000; stroke-opacity: 0.8; stroke-width: 1.5; stroke-linecap: square"/>
   </g>
   <g id="patch_3">
    <path d="M 28.203076 99.002318 
L 28.203076 23.960464 
" style="fill: none; stroke: #000000; stroke-width: 0.8; stroke-linejoin: miter; stroke-linecap: square"/>
   </g>
   <g id="patch_4">
    <path d="M 28.203076 99.002318 
L 123.735431 99.002318 
" style="fill: none; stroke: #000000; stroke-width: 0.8; stroke-linejoin: miter; stroke-linecap: square"/>
   </g>
   <g id="text_6">
    <!-- $\mathrm{d} u / \mathrm{d}t$ -->
    <g transform="translate(62.025776 17.960464)scale(0.11 -0.11)">
     <defs>
      <path id="CMR17-64" d="M 1869 4326 
L 1869 4160 
C 2246 4160 2304 4122 2304 3820 
L 2304 2345 
C 2278 2377 2016 2790 1498 2790 
C 845 2790 211 2208 211 1364 
C 211 525 806 -64 1434 -64 
C 1978 -64 2259 337 2291 380 
L 2291 -63 
L 3066 -63 
L 3066 128 
C 2688 128 2630 166 2630 473 
L 2630 4396 
L 1869 4326 
z
M 2291 755 
C 2291 563 2176 390 2029 262 
C 1811 70 1594 38 1472 38 
C 1286 38 621 134 621 1356 
C 621 2612 1363 2688 1530 2688 
C 1824 2688 2061 2522 2208 2291 
C 2291 2157 2291 2138 2291 2023 
L 2291 755 
z
" transform="scale(0.015625)"/>
      <path id="CMMI12-75" d="M 2182 370 
C 2266 13 2573 -64 2726 -64 
C 2931 -64 3085 70 3187 287 
C 3296 517 3379 894 3379 913 
C 3379 945 3354 971 3315 971 
C 3258 971 3251 939 3226 843 
C 3110 402 2995 64 2739 64 
C 2547 64 2547 275 2547 358 
C 2547 505 2566 568 2630 837 
C 2675 1009 2720 1181 2758 1360 
L 3021 2401 
C 3066 2561 3066 2574 3066 2593 
C 3066 2689 2989 2753 2893 2753 
C 2707 2753 2662 2593 2624 2433 
C 2560 2184 2214 811 2170 588 
C 2163 588 1914 64 1446 64 
C 1114 64 1050 351 1050 588 
C 1050 952 1229 1462 1395 1890 
C 1472 2095 1504 2178 1504 2305 
C 1504 2580 1306 2816 998 2816 
C 410 2816 173 1890 173 1839 
C 173 1814 198 1782 243 1782 
C 301 1782 307 1807 333 1896 
C 486 2441 736 2682 979 2682 
C 1043 2682 1146 2682 1146 2478 
C 1146 2312 1075 2127 979 1884 
C 698 1124 666 881 666 690 
C 666 38 1158 -64 1421 -64 
C 1830 -64 2054 217 2182 370 
z
" transform="scale(0.015625)"/>
      <path id="CMMI12-3d" d="M 2746 4562 
C 2746 4569 2784 4666 2784 4678 
C 2784 4755 2720 4800 2669 4800 
C 2637 4800 2579 4800 2528 4659 
L 384 -1363 
C 384 -1370 346 -1465 346 -1478 
C 346 -1555 410 -1600 461 -1600 
C 499 -1600 557 -1593 602 -1459 
L 2746 4562 
z
" transform="scale(0.015625)"/>
      <path id="CMMI12-74" d="M 1286 2566 
L 1875 2566 
C 1997 2566 2061 2566 2061 2681 
C 2061 2752 2022 2752 1894 2752 
L 1331 2752 
L 1568 3692 
C 1594 3781 1594 3794 1594 3840 
C 1594 3943 1510 4000 1427 4000 
C 1376 4000 1229 3981 1178 3775 
L 928 2752 
L 326 2752 
C 198 2752 141 2752 141 2630 
C 141 2566 186 2566 307 2566 
L 877 2566 
L 454 881 
C 403 658 384 594 384 511 
C 384 211 595 -64 954 -64 
C 1600 -64 1946 868 1946 912 
C 1946 951 1920 970 1882 970 
C 1869 970 1843 970 1830 944 
C 1824 938 1818 931 1773 829 
C 1638 511 1344 64 973 64 
C 781 64 768 224 768 364 
C 768 370 768 492 787 568 
L 1286 2566 
z
" transform="scale(0.015625)"/>
     </defs>
     <use xlink:href="#CMR17-64" transform="scale(0.996264)"/>
     <use xlink:href="#CMMI12-75" transform="translate(50.89537 0)scale(0.996264)"/>
     <use xlink:href="#CMMI12-3d" transform="translate(106.415699 0)scale(0.996264)"/>
     <use xlink:href="#CMR17-64" transform="translate(155.190618 0)scale(0.996264)"/>
     <use xlink:href="#CMMI12-74" transform="translate(206.085988 0)scale(0.996264)"/>
    </g>
   </g>
  </g>
  <g id="axes_2">
   <g id="patch_5">
    <path d="M 168.37816 99.002318 
L 263.910515 99.002318 
L 263.910515 23.960464 
L 168.37816 23.960464 
z
" style="fill: #ffffff"/>
   </g>
   <g id="matplotlib.axis_3">
    <g id="xtick_3">
     <g id="line2d_20">
      <g>
       <use xlink:href="#m6da88eb6e4" x="172.72054" y="99.002318" style="stroke: #000000; stroke-width: 0.8"/>
      </g>
     </g>
     <g id="text_7">
      <!-- $\mathdefault{0}$ -->
      <g transform="translate(169.980806 113.612665)scale(0.11 -0.11)">
       <use xlink:href="#CMR17-30" transform="scale(0.996264)"/>
      </g>
     </g>
    </g>
    <g id="xtick_4">
     <g id="line2d_21">
      <g>
       <use xlink:href="#m6da88eb6e4" x="259.65507" y="99.002318" style="stroke: #000000; stroke-width: 0.8"/>
      </g>
     </g>
     <g id="text_8">
      <!-- $\mathdefault{1000}$ -->
      <g transform="translate(248.696136 113.612665)scale(0.11 -0.11)">
       <use xlink:href="#CMR17-31" transform="scale(0.996264)"/>
       <use xlink:href="#CMR17-30" transform="translate(45.690477 0)scale(0.996264)"/>
       <use xlink:href="#CMR17-30" transform="translate(91.380954 0)scale(0.996264)"/>
       <use xlink:href="#CMR17-30" transform="translate(137.071431 0)scale(0.996264)"/>
      </g>
     </g>
    </g>
    <g id="text_9">
     <!-- time [ms] -->
     <g transform="translate(193.891634 127.962738)scale(0.11 -0.11)">
      <use xlink:href="#CMR17-74" transform="scale(0.996264)"/>
      <use xlink:href="#CMR17-69" transform="translate(35.280768 0)scale(0.996264)"/>
      <use xlink:href="#CMR17-6d" transform="translate(60.151826 0)scale(0.996264)"/>
      <use xlink:href="#CMR17-65" transform="translate(137.071416 0)scale(0.996264)"/>
      <use xlink:href="#CMR17-5b" transform="translate(207.633043 0)scale(0.996264)"/>
      <use xlink:href="#CMR17-6d" transform="translate(232.504101 0)scale(0.996264)"/>
      <use xlink:href="#CMR17-73" transform="translate(309.423691 0)scale(0.996264)"/>
      <use xlink:href="#CMR17-5d" transform="translate(345.225029 0)scale(0.996264)"/>
     </g>
    </g>
   </g>
   <g id="matplotlib.axis_4">
    <g id="ytick_3">
     <g id="line2d_22">
      <g>
       <use xlink:href="#m97bf1ec48f" x="168.37816" y="98.68035" style="stroke: #000000; stroke-width: 0.8"/>
      </g>
     </g>
     <g id="text_10">
      <!-- $\mathdefault{0.0}$ -->
      <g transform="translate(147.375084 102.485523)scale(0.11 -0.11)">
       <use xlink:href="#CMR17-30" transform="scale(0.996264)"/>
       <use xlink:href="#CMMI12-3a" transform="translate(45.690477 0)scale(0.996264)"/>
       <use xlink:href="#CMR17-30" transform="translate(72.787654 0)scale(0.996264)"/>
      </g>
     </g>
    </g>
    <g id="ytick_4">
     <g id="line2d_23">
      <g>
       <use xlink:href="#m97bf1ec48f" x="168.37816" y="61.61052" style="stroke: #000000; stroke-width: 0.8"/>
      </g>
     </g>
     <g id="text_11">
      <!-- $\mathdefault{0.5}$ -->
      <g transform="translate(147.375084 65.415694)scale(0.11 -0.11)">
       <defs>
        <path id="CMR17-35" d="M 730 3692 
C 794 3666 1056 3584 1325 3584 
C 1920 3584 2246 3911 2432 4100 
C 2432 4157 2432 4192 2394 4192 
C 2387 4192 2374 4192 2323 4163 
C 2099 4058 1837 3973 1517 3973 
C 1325 3973 1037 3999 723 4139 
C 653 4171 640 4171 634 4171 
C 602 4171 595 4164 595 4037 
L 595 2203 
C 595 2089 595 2057 659 2057 
C 691 2057 704 2070 736 2114 
C 941 2401 1222 2522 1542 2522 
C 1766 2522 2246 2382 2246 1289 
C 2246 1085 2246 715 2054 421 
C 1894 159 1645 25 1370 25 
C 947 25 518 320 403 814 
C 429 807 480 795 506 795 
C 589 795 749 840 749 1038 
C 749 1210 627 1280 506 1280 
C 358 1280 262 1190 262 1011 
C 262 454 704 -128 1382 -128 
C 2042 -128 2669 440 2669 1264 
C 2669 2030 2170 2624 1549 2624 
C 1222 2624 947 2503 730 2274 
L 730 3692 
z
" transform="scale(0.015625)"/>
       </defs>
       <use xlink:href="#CMR17-30" transform="scale(0.996264)"/>
       <use xlink:href="#CMMI12-3a" transform="translate(45.690477 0)scale(0.996264)"/>
       <use xlink:href="#CMR17-35" transform="translate(72.787654 0)scale(0.996264)"/>
      </g>
     </g>
    </g>
    <g id="ytick_5">
     <g id="line2d_24">
      <g>
       <use xlink:href="#m97bf1ec48f" x="168.37816" y="24.540691" style="stroke: #000000; stroke-width: 0.8"/>
      </g>
     </g>
     <g id="text_12">
      <!-- $\mathdefault{1.0}$ -->
      <g transform="translate(147.375084 28.345864)scale(0.11 -0.11)">
       <use xlink:href="#CMR17-31" transform="scale(0.996264)"/>
       <use xlink:href="#CMMI12-3a" transform="translate(45.690477 0)scale(0.996264)"/>
       <use xlink:href="#CMR17-30" transform="translate(72.787654 0)scale(0.996264)"/>
      </g>
     </g>
    </g>
   </g>
   <g id="line2d_25">
    <path d="M 172.72054 83.852418 
L 174.111492 85.704605 
L 175.502445 87.189768 
L 176.980332 88.434591 
L 178.545153 89.452353 
L 180.283844 90.303856 
L 182.196404 90.989857 
L 184.543636 91.582832 
L 187.412476 92.068982 
L 191.324529 92.492516 
L 197.149143 92.880068 
L 206.88581 93.281184 
L 222.186288 93.676532 
L 242.96364 93.980328 
L 259.568136 94.111712 
L 259.568136 94.111712 
" clip-path="url(#p5d4a2a41db)" style="fill: none; stroke: #0000cd; stroke-opacity: 0.8; stroke-width: 1.5; stroke-linecap: square"/>
   </g>
   <g id="line2d_26">
    <path d="M 172.72054 83.852418 
L 174.111492 85.479114 
L 175.589379 86.861464 
L 177.154201 88.021839 
L 178.892892 89.035238 
L 180.892386 89.940313 
L 183.239618 90.756965 
L 186.195392 91.538559 
L 189.933577 92.28341 
L 194.714976 92.998533 
L 200.713459 93.663719 
L 208.015959 94.244654 
L 216.883281 94.720347 
L 228.010901 95.084729 
L 243.050575 95.340099 
L 259.568136 95.464323 
L 259.568136 95.464323 
" clip-path="url(#p5d4a2a41db)" style="fill: none; stroke: #0008ff; stroke-opacity: 0.8; stroke-width: 1.5; stroke-linecap: square"/>
   </g>
   <g id="line2d_27">
    <path d="M 172.72054 83.852418 
L 174.285361 85.256993 
L 176.024052 86.521951 
L 178.023546 87.699693 
L 180.370779 88.817803 
L 183.152684 89.889202 
L 186.456196 90.915659 
L 190.281315 91.867868 
L 194.714976 92.736959 
L 199.757179 93.492512 
L 205.581792 94.131926 
L 212.44962 94.651905 
L 220.88227 95.055897 
L 231.922955 95.348814 
L 248.179712 95.537153 
L 259.568136 95.591325 
L 259.568136 95.591325 
" clip-path="url(#p5d4a2a41db)" style="fill: none; stroke: #004cff; stroke-opacity: 0.8; stroke-width: 1.5; stroke-linecap: square"/>
   </g>
   <g id="line2d_28">
    <path d="M 172.72054 83.852418 
L 177.762743 86.227452 
L 181.9356 87.95217 
L 185.934589 89.36683 
L 189.933577 90.54722 
L 194.106434 91.547673 
L 198.62703 92.399729 
L 203.669233 93.116842 
L 209.406912 93.702053 
L 216.27474 94.170814 
L 224.881258 94.52569 
L 236.704354 94.774789 
L 255.395278 94.920676 
L 259.568136 94.934736 
L 259.568136 94.934736 
" clip-path="url(#p5d4a2a41db)" style="fill: none; stroke: #0090ff; stroke-opacity: 0.8; stroke-width: 1.5; stroke-linecap: square"/>
   </g>
   <g id="line2d_29">
    <path d="M 172.72054 83.852418 
L 173.850689 83.662428 
L 175.154707 83.669529 
L 176.806463 83.916087 
L 178.979826 84.485418 
L 182.544142 85.684746 
L 189.672773 88.09431 
L 194.0195 89.305389 
L 198.366226 90.284201 
L 202.973756 91.09322 
L 208.102894 91.766017 
L 214.101376 92.320389 
L 221.316942 92.754083 
L 230.618937 93.077012 
L 243.746051 93.292115 
L 259.568136 93.388895 
L 259.568136 93.388895 
" clip-path="url(#p5d4a2a41db)" style="fill: none; stroke: #00d4ff; stroke-opacity: 0.8; stroke-width: 1.5; stroke-linecap: square"/>
   </g>
   <g id="line2d_30">
    <path d="M 172.72054 83.852418 
L 173.67682 82.781449 
L 174.6331 82.032139 
L 175.676314 81.501421 
L 176.806463 81.185741 
L 178.110481 81.070402 
L 179.588368 81.168889 
L 181.500927 81.532939 
L 184.195898 82.296521 
L 197.496881 86.377281 
L 202.017477 87.379834 
L 206.798876 88.208207 
L 212.101882 88.895176 
L 218.187299 89.452627 
L 225.4898 89.891034 
L 234.878729 90.219801 
L 248.005843 90.440253 
L 259.568136 90.524108 
L 259.568136 90.524108 
" clip-path="url(#p5d4a2a41db)" style="fill: none; stroke: #29ffce; stroke-opacity: 0.8; stroke-width: 1.5; stroke-linecap: square"/>
   </g>
   <g id="line2d_31">
    <path d="M 172.72054 83.852418 
L 173.67682 81.691524 
L 174.6331 80.032018 
L 175.589379 78.780504 
L 176.632594 77.788848 
L 177.675808 77.106504 
L 178.805957 76.639289 
L 180.02304 76.378345 
L 181.413993 76.308057 
L 183.152684 76.459597 
L 185.326047 76.886546 
L 188.542624 77.76598 
L 199.931048 81.041235 
L 204.799382 82.128562 
L 209.841584 83.024408 
L 215.31846 83.76781 
L 221.490811 84.377135 
L 228.793312 84.867531 
L 237.834503 85.242434 
L 250.005337 85.509347 
L 259.568136 85.615322 
L 259.568136 85.615322 
" clip-path="url(#p5d4a2a41db)" style="fill: none; stroke: #60ff97; stroke-opacity: 0.8; stroke-width: 1.5; stroke-linecap: square"/>
   </g>
   <g id="line2d_32">
    <path d="M 172.72054 83.852418 
L 173.763754 80.302358 
L 174.806969 77.491839 
L 175.850183 75.295261 
L 176.893397 73.601923 
L 177.936612 72.316991 
L 178.979826 71.360978 
L 180.109975 70.62074 
L 181.327058 70.092421 
L 182.631076 69.762762 
L 184.195898 69.604896 
L 186.021523 69.649694 
L 188.368755 69.937636 
L 191.759202 70.595686 
L 208.79837 74.193008 
L 214.970722 75.125727 
L 221.577746 75.894784 
L 228.967181 76.52556 
L 237.573699 77.03067 
L 248.179712 77.420621 
L 259.568136 77.661223 
L 259.568136 77.661223 
" clip-path="url(#p5d4a2a41db)" style="fill: none; stroke: #97ff60; stroke-opacity: 0.8; stroke-width: 1.5; stroke-linecap: square"/>
   </g>
   <g id="line2d_33">
    <path d="M 172.72054 83.852418 
L 173.850689 78.894159 
L 174.980838 74.877946 
L 176.110987 71.659462 
L 177.241135 69.10604 
L 178.371284 67.099494 
L 179.501433 65.537468 
L 180.631582 64.333371 
L 181.848666 63.354795 
L 183.152684 62.592188 
L 184.630571 61.999013 
L 186.282327 61.585586 
L 188.281821 61.329484 
L 190.802922 61.25067 
L 194.193369 61.384123 
L 199.931048 61.866376 
L 218.882775 63.562298 
L 230.271199 64.30378 
L 242.876706 64.896557 
L 257.655576 65.361339 
L 259.568136 65.407445 
L 259.568136 65.407445 
" clip-path="url(#p5d4a2a41db)" style="fill: none; stroke: #ceff29; stroke-opacity: 0.8; stroke-width: 1.5; stroke-linecap: square"/>
   </g>
   <g id="line2d_34">
    <path d="M 172.72054 83.852418 
L 173.937623 77.626047 
L 175.154707 72.499874 
L 176.37179 68.316544 
L 177.588874 64.929737 
L 178.805957 62.206341 
L 180.02304 60.028223 
L 181.240124 58.293056 
L 182.544142 56.827287 
L 183.935094 55.615878 
L 185.412981 54.633893 
L 187.064737 53.813345 
L 188.977297 53.124679 
L 191.237595 52.555694 
L 194.106434 52.071845 
L 198.105423 51.641027 
L 204.364709 51.217103 
L 216.10087 50.679656 
L 236.61742 49.975713 
L 259.568136 49.373004 
L 259.568136 49.373004 
" clip-path="url(#p5d4a2a41db)" style="fill: none; stroke: #ffe600; stroke-opacity: 0.8; stroke-width: 1.5; stroke-linecap: square"/>
   </g>
   <g id="line2d_35">
    <path d="M 172.72054 83.852418 
L 174.024558 76.558827 
L 175.328576 70.497565 
L 176.632594 65.494411 
L 177.936612 61.39028 
L 179.24063 58.041203 
L 180.544648 55.318816 
L 181.848666 53.110738 
L 183.152684 51.320466 
L 184.543636 49.779969 
L 186.021523 48.472149 
L 187.673279 47.318305 
L 189.498904 46.324522 
L 191.585333 45.448085 
L 194.106434 44.640722 
L 197.236077 43.883177 
L 201.322 43.13404 
L 206.972745 42.339928 
L 214.622983 41.500477 
L 224.446585 40.652863 
L 236.269681 39.861643 
L 250.266141 39.154275 
L 259.568136 38.786682 
L 259.568136 38.786682 
" clip-path="url(#p5d4a2a41db)" style="fill: none; stroke: #ffa700; stroke-opacity: 0.8; stroke-width: 1.5; stroke-linecap: square"/>
   </g>
   <g id="line2d_36">
    <path d="M 172.72054 83.852418 
L 174.111492 75.67728 
L 175.502445 68.861488 
L 176.806463 63.529334 
L 178.110481 59.071536 
L 179.414499 55.358053 
L 180.718517 52.273387 
L 182.109469 49.561852 
L 183.500422 47.343314 
L 184.891374 45.526824 
L 186.369261 43.952266 
L 187.934083 42.602744 
L 189.672773 41.401688 
L 191.585333 40.356219 
L 193.758696 39.426531 
L 196.279798 38.593241 
L 199.322506 37.826837 
L 203.147625 37.104573 
L 208.015959 36.426173 
L 214.188311 35.800535 
L 222.099353 35.232248 
L 232.096824 34.747511 
L 244.8762 34.360965 
L 259.568136 34.10619 
L 259.568136 34.10619 
" clip-path="url(#p5d4a2a41db)" style="fill: none; stroke: #ff6800; stroke-opacity: 0.8; stroke-width: 1.5; stroke-linecap: square"/>
   </g>
   <g id="line2d_37">
    <path d="M 172.72054 83.852418 
L 174.111492 75.417513 
L 175.502445 68.31797 
L 176.893397 62.359687 
L 178.28435 57.373517 
L 179.675302 53.2119 
L 181.066255 49.746283 
L 182.457207 46.86511 
L 183.84816 44.472164 
L 185.326047 42.372714 
L 186.803934 40.648174 
L 188.368755 39.153875 
L 190.020511 37.873758 
L 191.846137 36.739009 
L 193.845631 35.75702 
L 196.105929 34.894169 
L 198.713964 34.136722 
L 201.843608 33.46432 
L 205.668727 32.877215 
L 210.537061 32.366274 
L 216.883281 31.936506 
L 225.4898 31.590614 
L 237.747569 31.336526 
L 257.220903 31.178336 
L 259.568136 31.168966 
L 259.568136 31.168966 
" clip-path="url(#p5d4a2a41db)" style="fill: none; stroke: #ff2900; stroke-opacity: 0.8; stroke-width: 1.5; stroke-linecap: square"/>
   </g>
   <g id="line2d_38">
    <path d="M 172.72054 83.852418 
L 174.111492 75.26915 
L 175.502445 68.00519 
L 176.893397 61.868039 
L 178.28435 56.6917 
L 179.675302 52.332889 
L 181.066255 48.667931 
L 182.457207 45.590227 
L 183.935094 42.861339 
L 185.412981 40.598335 
L 186.890868 38.722034 
L 188.45569 37.083108 
L 190.107446 35.67029 
L 191.846137 34.467072 
L 193.758696 33.410726 
L 195.932059 32.474315 
L 198.366226 31.677307 
L 201.148131 31.004278 
L 204.538578 30.423734 
L 208.711435 29.947461 
L 214.101376 29.568613 
L 221.577746 29.282315 
L 233.053104 29.088466 
L 254.352064 28.986577 
L 259.568136 28.978681 
L 259.568136 28.978681 
" clip-path="url(#p5d4a2a41db)" style="fill: none; stroke: #cd0000; stroke-opacity: 0.8; stroke-width: 1.5; stroke-linecap: square"/>
   </g>
   <g id="line2d_39">
    <path d="M 172.72054 83.852418 
L 174.111492 75.185893 
L 175.502445 67.828896 
L 176.893397 61.589463 
L 178.28435 56.302983 
L 179.675302 51.828218 
L 181.153189 47.827925 
L 182.631076 44.483244 
L 184.108963 41.688863 
L 185.58685 39.355602 
L 187.151672 37.304149 
L 188.716493 35.610282 
L 190.36825 34.141443 
L 192.10694 32.884247 
L 194.0195 31.776523 
L 196.105929 30.827686 
L 198.453161 30.009611 
L 201.148131 29.313491 
L 204.277774 28.739068 
L 208.102894 28.2688 
L 213.058162 27.89699 
L 219.839055 27.628269 
L 230.358133 27.457368 
L 251.657093 27.377734 
L 259.568136 27.371457 
L 259.568136 27.371457 
" clip-path="url(#p5d4a2a41db)" style="fill: none; stroke: #800000; stroke-opacity: 0.8; stroke-width: 1.5; stroke-linecap: square"/>
   </g>
   <g id="patch_6">
    <path d="M 168.37816 99.002318 
L 168.37816 23.960464 
" style="fill: none; stroke: #000000; stroke-width: 0.8; stroke-linejoin: miter; stroke-linecap: square"/>
   </g>
   <g id="patch_7">
    <path d="M 168.37816 99.002318 
L 263.910515 99.002318 
" style="fill: none; stroke: #000000; stroke-width: 0.8; stroke-linejoin: miter; stroke-linecap: square"/>
   </g>
   <g id="text_13">
    <!-- $\mathrm{d} v / \mathrm{d}t$ -->
    <g transform="translate(202.484997 17.960464)scale(0.11 -0.11)">
     <defs>
      <path id="CMMI12-76" d="M 2925 2389 
C 2925 2791 2720 2816 2669 2816 
C 2515 2816 2374 2663 2374 2535 
C 2374 2459 2419 2414 2445 2389 
C 2509 2331 2675 2159 2675 1827 
C 2675 1558 2291 64 1523 64 
C 1133 64 1056 390 1056 626 
C 1056 945 1203 1392 1376 1852 
C 1478 2114 1504 2178 1504 2305 
C 1504 2574 1312 2816 998 2816 
C 410 2816 173 1890 173 1839 
C 173 1814 198 1782 243 1782 
C 301 1782 307 1807 333 1897 
C 486 2446 736 2689 979 2689 
C 1037 2689 1146 2689 1146 2478 
C 1146 2312 1075 2127 979 1884 
C 672 1067 672 869 672 715 
C 672 575 691 313 890 134 
C 1120 -64 1440 -64 1498 -64 
C 2560 -64 2925 2024 2925 2389 
z
" transform="scale(0.015625)"/>
     </defs>
     <use xlink:href="#CMR17-64" transform="scale(0.996264)"/>
     <use xlink:href="#CMMI12-76" transform="translate(50.89537 0)scale(0.996264)"/>
     <use xlink:href="#CMMI12-3d" transform="translate(101.630543 0)scale(0.996264)"/>
     <use xlink:href="#CMR17-64" transform="translate(150.405462 0)scale(0.996264)"/>
     <use xlink:href="#CMMI12-74" transform="translate(201.300832 0)scale(0.996264)"/>
    </g>
   </g>
  </g>
  <g id="axes_3">
   <g id="patch_8">
    <path d="M 308.553244 99.002318 
L 404.085599 99.002318 
L 404.085599 23.960464 
L 308.553244 23.960464 
z
" style="fill: #ffffff"/>
   </g>
   <g id="matplotlib.axis_5">
    <g id="xtick_5">
     <g id="line2d_40">
      <g>
       <use xlink:href="#m6da88eb6e4" x="312.895624" y="99.002318" style="stroke: #000000; stroke-width: 0.8"/>
      </g>
     </g>
     <g id="text_14">
      <!-- $\mathdefault{0}$ -->
      <g transform="translate(310.15589 113.612665)scale(0.11 -0.11)">
       <use xlink:href="#CMR17-30" transform="scale(0.996264)"/>
      </g>
     </g>
    </g>
    <g id="xtick_6">
     <g id="line2d_41">
      <g>
       <use xlink:href="#m6da88eb6e4" x="399.830154" y="99.002318" style="stroke: #000000; stroke-width: 0.8"/>
      </g>
     </g>
     <g id="text_15">
      <!-- $\mathdefault{1000}$ -->
      <g transform="translate(388.87122 113.612665)scale(0.11 -0.11)">
       <use xlink:href="#CMR17-31" transform="scale(0.996264)"/>
       <use xlink:href="#CMR17-30" transform="translate(45.690477 0)scale(0.996264)"/>
       <use xlink:href="#CMR17-30" transform="translate(91.380954 0)scale(0.996264)"/>
       <use xlink:href="#CMR17-30" transform="translate(137.071431 0)scale(0.996264)"/>
      </g>
     </g>
    </g>
    <g id="text_16">
     <!-- time [ms] -->
     <g transform="translate(334.066718 127.962738)scale(0.11 -0.11)">
      <use xlink:href="#CMR17-74" transform="scale(0.996264)"/>
      <use xlink:href="#CMR17-69" transform="translate(35.280768 0)scale(0.996264)"/>
      <use xlink:href="#CMR17-6d" transform="translate(60.151826 0)scale(0.996264)"/>
      <use xlink:href="#CMR17-65" transform="translate(137.071416 0)scale(0.996264)"/>
      <use xlink:href="#CMR17-5b" transform="translate(207.633043 0)scale(0.996264)"/>
      <use xlink:href="#CMR17-6d" transform="translate(232.504101 0)scale(0.996264)"/>
      <use xlink:href="#CMR17-73" transform="translate(309.423691 0)scale(0.996264)"/>
      <use xlink:href="#CMR17-5d" transform="translate(345.225029 0)scale(0.996264)"/>
     </g>
    </g>
   </g>
   <g id="matplotlib.axis_6">
    <g id="ytick_6">
     <g id="line2d_42">
      <g>
       <use xlink:href="#m97bf1ec48f" x="308.553244" y="95.642372" style="stroke: #000000; stroke-width: 0.8"/>
      </g>
     </g>
     <g id="text_17">
      <!-- $\mathdefault{0.0}$ -->
      <g transform="translate(287.550168 99.447546)scale(0.11 -0.11)">
       <use xlink:href="#CMR17-30" transform="scale(0.996264)"/>
       <use xlink:href="#CMMI12-3a" transform="translate(45.690477 0)scale(0.996264)"/>
       <use xlink:href="#CMR17-30" transform="translate(72.787654 0)scale(0.996264)"/>
      </g>
     </g>
    </g>
    <g id="ytick_7">
     <g id="line2d_43">
      <g>
       <use xlink:href="#m97bf1ec48f" x="308.553244" y="55.734002" style="stroke: #000000; stroke-width: 0.8"/>
      </g>
     </g>
     <g id="text_18">
      <!-- $\mathdefault{0.5}$ -->
      <g transform="translate(287.550168 59.539175)scale(0.11 -0.11)">
       <use xlink:href="#CMR17-30" transform="scale(0.996264)"/>
       <use xlink:href="#CMMI12-3a" transform="translate(45.690477 0)scale(0.996264)"/>
       <use xlink:href="#CMR17-35" transform="translate(72.787654 0)scale(0.996264)"/>
      </g>
     </g>
    </g>
   </g>
   <g id="line2d_44">
    <path d="M 312.895624 55.734002 
L 314.112707 55.850825 
L 315.677529 56.243162 
L 318.459434 57.220605 
L 322.458422 58.579351 
L 325.327262 59.304034 
L 328.196101 59.792169 
L 331.23881 60.08297 
L 334.803125 60.191339 
L 339.149852 60.088663 
L 345.148335 59.70726 
L 378.618129 57.23757 
L 391.484439 56.684771 
L 399.743219 56.428776 
L 399.743219 56.428776 
" clip-path="url(#p3c38a805e5)" style="fill: none; stroke: #0000cd; stroke-opacity: 0.8; stroke-width: 1.5; stroke-linecap: square"/>
   </g>
   <g id="line2d_45">
    <path d="M 312.895624 55.734002 
L 316.112201 55.851093 
L 319.328779 55.863799 
L 322.023749 55.644369 
L 324.805654 55.193579 
L 328.022232 54.442119 
L 332.19509 53.225052 
L 350.277472 47.678957 
L 355.754347 46.381855 
L 361.318157 45.297078 
L 367.142771 44.389832 
L 373.575926 43.618138 
L 380.791492 42.982168 
L 389.224141 42.468332 
L 399.56935 42.069422 
L 399.743219 42.064328 
L 399.743219 42.064328 
" clip-path="url(#p3c38a805e5)" style="fill: none; stroke: #0008ff; stroke-opacity: 0.8; stroke-width: 1.5; stroke-linecap: square"/>
   </g>
   <g id="line2d_46">
    <path d="M 312.895624 55.734002 
L 314.721249 55.623976 
L 316.633809 55.280931 
L 318.720237 54.671069 
L 321.06747 53.745659 
L 323.936309 52.364263 
L 328.022232 50.124756 
L 337.758899 44.711772 
L 342.018691 42.642302 
L 346.01768 40.94126 
L 350.016668 39.480293 
L 354.102591 38.223474 
L 358.449318 37.123138 
L 363.056848 36.187792 
L 368.185985 35.379032 
L 373.923664 34.705 
L 380.617623 34.150114 
L 388.702534 33.712642 
L 399.047743 33.387583 
L 399.743219 33.372193 
L 399.743219 33.372193 
" clip-path="url(#p3c38a805e5)" style="fill: none; stroke: #004cff; stroke-opacity: 0.8; stroke-width: 1.5; stroke-linecap: square"/>
   </g>
   <g id="line2d_47">
    <path d="M 312.895624 55.734002 
L 314.199642 55.626405 
L 315.677529 55.274065 
L 317.329285 54.644347 
L 319.241845 53.67357 
L 321.676011 52.170511 
L 325.066458 49.783637 
L 335.237798 42.460723 
L 338.975983 40.126592 
L 342.540299 38.165552 
L 346.01768 36.506277 
L 349.581996 35.05445 
L 353.233246 33.806596 
L 357.1453 32.70724 
L 361.318157 31.766306 
L 365.925687 30.95665 
L 371.141759 30.270199 
L 377.227176 29.701817 
L 384.529677 29.252238 
L 393.831671 28.914234 
L 399.743219 28.784737 
L 399.743219 28.784737 
" clip-path="url(#p3c38a805e5)" style="fill: none; stroke: #0090ff; stroke-opacity: 0.8; stroke-width: 1.5; stroke-linecap: square"/>
   </g>
   <g id="line2d_48">
    <path d="M 312.895624 55.734002 
L 314.199642 55.62514 
L 315.677529 55.263898 
L 317.329285 54.610673 
L 319.241845 53.594227 
L 321.502142 52.130149 
L 324.631785 49.813208 
L 336.020209 41.132714 
L 339.584525 38.81995 
L 342.974971 36.882648 
L 346.365418 35.202824 
L 349.755865 33.767613 
L 353.32018 32.499579 
L 357.058365 31.403919 
L 361.144288 30.44082 
L 365.664884 29.610798 
L 370.707086 28.916372 
L 376.5317 28.343473 
L 383.573397 27.883152 
L 392.440719 27.536979 
L 399.743219 27.371457 
L 399.743219 27.371457 
" clip-path="url(#p3c38a805e5)" style="fill: none; stroke: #00d4ff; stroke-opacity: 0.8; stroke-width: 1.5; stroke-linecap: square"/>
   </g>
   <g id="line2d_49">
    <path d="M 312.895624 55.734002 
L 314.634314 55.62631 
L 316.373005 55.289473 
L 318.19863 54.696461 
L 320.198124 53.801703 
L 322.545357 52.492458 
L 325.501131 50.571141 
L 330.630268 46.91817 
L 336.367947 42.919583 
L 340.280001 40.463719 
L 343.931251 38.434369 
L 347.495567 36.711273 
L 351.059883 35.236177 
L 354.711133 33.963392 
L 358.623187 32.83837 
L 362.796044 31.87272 
L 367.403574 31.039741 
L 372.532712 30.342053 
L 378.531194 29.758717 
L 385.659826 29.297222 
L 394.701017 28.946368 
L 399.743219 28.823872 
L 399.743219 28.823872 
" clip-path="url(#p3c38a805e5)" style="fill: none; stroke: #29ffce; stroke-opacity: 0.8; stroke-width: 1.5; stroke-linecap: square"/>
   </g>
   <g id="line2d_50">
    <path d="M 312.895624 55.734002 
L 318.459434 55.644884 
L 320.545862 55.277787 
L 322.719226 54.659781 
L 325.153393 53.722896 
L 328.022232 52.368678 
L 332.02122 50.211622 
L 342.627233 44.384564 
L 346.887025 42.360221 
L 350.886014 40.700824 
L 354.885002 39.278538 
L 359.057859 38.033419 
L 363.404586 36.969954 
L 368.09905 36.052212 
L 373.315122 35.264916 
L 379.22667 34.605799 
L 386.094498 34.071606 
L 394.440213 33.65382 
L 399.743219 33.478188 
L 399.743219 33.478188 
" clip-path="url(#p3c38a805e5)" style="fill: none; stroke: #60ff97; stroke-opacity: 0.8; stroke-width: 1.5; stroke-linecap: square"/>
   </g>
   <g id="line2d_51">
    <path d="M 312.895624 55.734002 
L 314.112707 55.846793 
L 315.938332 56.271106 
L 320.285059 57.346748 
L 322.458422 57.617622 
L 324.631785 57.658793 
L 326.892083 57.474438 
L 329.413185 57.037673 
L 332.368959 56.287177 
L 336.107143 55.093974 
L 342.714168 52.703765 
L 350.364406 50.013594 
L 355.841282 48.331018 
L 361.057354 46.963778 
L 366.36036 45.807521 
L 371.92417 44.825679 
L 377.922652 43.995359 
L 384.616611 43.29669 
L 392.353784 42.719408 
L 399.743219 42.337203 
L 399.743219 42.337203 
" clip-path="url(#p3c38a805e5)" style="fill: none; stroke: #97ff60; stroke-opacity: 0.8; stroke-width: 1.5; stroke-linecap: square"/>
   </g>
   <g id="line2d_52">
    <path d="M 312.895624 55.734002 
L 313.851904 55.856987 
L 314.982053 56.250143 
L 316.546874 57.062391 
L 323.936309 61.249045 
L 326.196607 62.10968 
L 328.456905 62.732604 
L 330.891072 63.168005 
L 333.586042 63.413758 
L 336.628751 63.459325 
L 340.280001 63.281832 
L 345.0614 62.810113 
L 352.798573 61.790259 
L 368.012116 59.782099 
L 377.661849 58.757773 
L 387.572385 57.932732 
L 398.439202 57.255528 
L 399.743219 57.187886 
L 399.743219 57.187886 
" clip-path="url(#p3c38a805e5)" style="fill: none; stroke: #ceff29; stroke-opacity: 0.8; stroke-width: 1.5; stroke-linecap: square"/>
   </g>
   <g id="line2d_53">
    <path d="M 312.895624 55.734002 
L 313.678035 55.843878 
L 314.634314 56.22923 
L 315.764463 56.944827 
L 317.329285 58.229426 
L 320.371993 61.099875 
L 323.675506 64.09393 
L 326.196607 66.071197 
L 328.630774 67.692411 
L 331.064941 69.048531 
L 333.672977 70.245871 
L 336.541816 71.311181 
L 339.758394 72.259643 
L 343.496578 73.118957 
L 347.930239 73.901121 
L 353.494049 74.646422 
L 360.79655 75.388382 
L 370.96789 76.18313 
L 385.225153 77.060583 
L 399.743219 77.793009 
L 399.743219 77.793009 
" clip-path="url(#p3c38a805e5)" style="fill: none; stroke: #ffe600; stroke-opacity: 0.8; stroke-width: 1.5; stroke-linecap: square"/>
   </g>
   <g id="line2d_54">
    <path d="M 312.895624 55.734002 
L 313.5911 55.835286 
L 314.460445 56.209447 
L 315.50366 56.94079 
L 316.807678 58.162109 
L 318.633303 60.211069 
L 326.022738 68.833833 
L 328.543839 71.286327 
L 331.064941 73.427014 
L 333.672977 75.342656 
L 336.367947 77.046471 
L 339.323721 78.647261 
L 342.540299 80.132235 
L 346.104614 81.531883 
L 350.190537 82.892439 
L 354.885002 84.213999 
L 360.274943 85.495374 
L 366.534229 86.749844 
L 373.749795 87.964342 
L 382.008575 89.124413 
L 391.397505 90.213908 
L 399.743219 91.020168 
L 399.743219 91.020168 
" clip-path="url(#p3c38a805e5)" style="fill: none; stroke: #ffa700; stroke-opacity: 0.8; stroke-width: 1.5; stroke-linecap: square"/>
   </g>
   <g id="line2d_55">
    <path d="M 312.895624 55.734002 
L 313.5911 55.843756 
L 314.373511 56.198797 
L 315.329791 56.900305 
L 316.45994 58.016269 
L 318.024761 59.904878 
L 320.545862 63.35646 
L 325.066458 69.541741 
L 327.674494 72.723077 
L 330.195595 75.448439 
L 332.629762 77.758939 
L 335.150864 79.84718 
L 337.758899 81.719212 
L 340.540804 83.438228 
L 343.496578 84.999713 
L 346.713156 86.441807 
L 350.190537 87.754246 
L 354.015657 88.958992 
L 358.275449 90.065534 
L 363.056848 91.075017 
L 368.446789 91.983705 
L 374.61914 92.795995 
L 381.834706 93.51428 
L 390.267356 94.124107 
L 399.743219 94.601831 
L 399.743219 94.601831 
" clip-path="url(#p3c38a805e5)" style="fill: none; stroke: #ff6800; stroke-opacity: 0.8; stroke-width: 1.5; stroke-linecap: square"/>
   </g>
   <g id="line2d_56">
    <path d="M 312.895624 55.734002 
L 313.5911 55.848723 
L 314.373511 56.220874 
L 315.329791 56.958985 
L 316.45994 58.138839 
L 317.937827 60.0286 
L 320.198124 63.329395 
L 325.761934 71.571384 
L 328.36997 74.972438 
L 330.804137 77.783036 
L 333.151369 80.163488 
L 335.585536 82.313351 
L 338.019703 84.170809 
L 340.627739 85.875794 
L 343.322709 87.370152 
L 346.191549 88.707454 
L 349.321192 89.917325 
L 352.711639 90.987299 
L 356.449823 91.93332 
L 360.709615 92.776221 
L 365.577949 93.505101 
L 371.228694 94.120078 
L 378.009587 94.627837 
L 386.529171 95.032131 
L 397.83066 95.330947 
L 399.743219 95.364422 
L 399.743219 95.364422 
" clip-path="url(#p3c38a805e5)" style="fill: none; stroke: #ff2900; stroke-opacity: 0.8; stroke-width: 1.5; stroke-linecap: square"/>
   </g>
   <g id="line2d_57">
    <path d="M 312.895624 55.734002 
L 313.5911 55.851553 
L 314.373511 56.233479 
L 315.242856 56.912142 
L 316.373005 58.105644 
L 317.763958 59.918799 
L 319.850386 63.050651 
L 326.544345 73.363229 
L 329.065446 76.714612 
L 331.412679 79.470887 
L 333.759911 81.880746 
L 336.107143 83.9667 
L 338.454376 85.759359 
L 340.888543 87.344086 
L 343.496578 88.772799 
L 346.278483 90.035319 
L 349.234257 91.129782 
L 352.450835 92.084177 
L 356.102085 92.928987 
L 360.188008 93.641622 
L 364.969407 94.243678 
L 370.707086 94.733607 
L 377.922652 95.115016 
L 387.572385 95.388299 
L 399.743219 95.541499 
L 399.743219 95.541499 
" clip-path="url(#p3c38a805e5)" style="fill: none; stroke: #cd0000; stroke-opacity: 0.8; stroke-width: 1.5; stroke-linecap: square"/>
   </g>
   <g id="line2d_58">
    <path d="M 312.895624 55.734002 
L 313.5911 55.853138 
L 314.373511 56.240551 
L 315.242856 56.929729 
L 316.373005 58.143473 
L 317.763958 59.990879 
L 319.763452 63.051026 
L 326.892083 74.280094 
L 329.32625 77.561911 
L 331.673482 80.352782 
L 333.93378 82.697492 
L 336.194078 84.726424 
L 338.54131 86.529488 
L 340.888543 88.057449 
L 343.409644 89.431981 
L 346.104614 90.640822 
L 348.973454 91.680813 
L 352.103097 92.578605 
L 355.667413 93.362701 
L 359.753336 94.023245 
L 364.534735 94.561502 
L 370.359348 94.984702 
L 377.922652 95.299421 
L 388.702534 95.508007 
L 399.743219 95.591325 
L 399.743219 95.591325 
" clip-path="url(#p3c38a805e5)" style="fill: none; stroke: #800000; stroke-opacity: 0.8; stroke-width: 1.5; stroke-linecap: square"/>
   </g>
   <g id="patch_9">
    <path d="M 308.553244 99.002318 
L 308.553244 23.960464 
" style="fill: none; stroke: #000000; stroke-width: 0.8; stroke-linejoin: miter; stroke-linecap: square"/>
   </g>
   <g id="patch_10">
    <path d="M 308.553244 99.002318 
L 404.085599 99.002318 
" style="fill: none; stroke: #000000; stroke-width: 0.8; stroke-linejoin: miter; stroke-linecap: square"/>
   </g>
   <g id="text_19">
    <!-- $\mathrm{d} y / \mathrm{d}t$ -->
    <g transform="translate(342.629624 17.960464)scale(0.11 -0.11)">
     <defs>
      <path id="CMMI12-79" d="M 1683 -700 
C 1510 -939 1261 -1152 947 -1152 
C 870 -1152 563 -1152 467 -889 
C 486 -895 518 -895 531 -895 
C 723 -895 851 -729 851 -582 
C 851 -435 730 -384 634 -384 
C 531 -384 307 -458 307 -759 
C 307 -1071 582 -1286 947 -1286 
C 1587 -1286 2234 -700 2413 6 
L 3040 2485 
C 3046 2517 3059 2556 3059 2594 
C 3059 2689 2982 2753 2886 2753 
C 2829 2753 2694 2727 2643 2535 
L 2170 658 
C 2138 543 2138 530 2086 460 
C 1958 281 1747 64 1440 64 
C 1082 64 1050 415 1050 588 
C 1050 952 1222 1443 1395 1903 
C 1466 2088 1504 2178 1504 2305 
C 1504 2574 1312 2816 998 2816 
C 410 2816 173 1890 173 1839 
C 173 1814 198 1782 243 1782 
C 301 1782 307 1807 333 1897 
C 486 2433 730 2689 979 2689 
C 1037 2689 1146 2689 1146 2478 
C 1146 2312 1075 2127 979 1884 
C 666 1047 666 837 666 683 
C 666 77 1101 -64 1421 -64 
C 1606 -64 1837 -6 2061 230 
L 2067 224 
C 1971 -147 1907 -392 1683 -700 
z
" transform="scale(0.015625)"/>
     </defs>
     <use xlink:href="#CMR17-64" transform="scale(0.996264)"/>
     <use xlink:href="#CMMI12-79" transform="translate(50.89537 0)scale(0.996264)"/>
     <use xlink:href="#CMMI12-3d" transform="translate(102.034151 0)scale(0.996264)"/>
     <use xlink:href="#CMR17-64" transform="translate(150.809069 0)scale(0.996264)"/>
     <use xlink:href="#CMMI12-74" transform="translate(201.704439 0)scale(0.996264)"/>
    </g>
   </g>
   <g id="legend_1">
    <g id="text_20">
     <!-- Input $I$ -->
     <g transform="translate(407.685599 16.410347)scale(0.11 -0.11)">
      <defs>
       <path id="CMR17-49" d="M 1261 3905 
C 1261 4192 1338 4192 1798 4192 
L 1798 4352 
C 1594 4352 1267 4352 1050 4352 
C 832 4352 506 4352 301 4352 
L 301 4192 
C 762 4192 838 4192 838 3905 
L 838 447 
C 838 160 762 160 301 160 
L 301 0 
C 506 0 832 0 1050 0 
C 1267 0 1594 0 1798 0 
L 1798 160 
C 1338 160 1261 160 1261 447 
L 1261 3905 
z
" transform="scale(0.015625)"/>
       <path id="CMR17-6e" d="M 2656 1933 
C 2656 2259 2592 2790 1837 2790 
C 1331 2790 1069 2400 973 2144 
L 966 2144 
L 966 2790 
L 211 2720 
L 211 2554 
C 589 2554 646 2515 646 2208 
L 646 428 
C 646 184 621 153 211 153 
L 211 -13 
C 365 0 646 0 813 0 
C 979 0 1267 0 1421 -13 
L 1421 153 
C 1011 153 986 178 986 428 
L 986 1658 
C 986 2247 1344 2688 1792 2688 
C 2266 2688 2317 2266 2317 1958 
L 2317 428 
C 2317 184 2291 153 1882 153 
L 1882 -13 
C 2035 0 2317 0 2483 0 
C 2650 0 2938 0 3091 -13 
L 3091 153 
C 2682 153 2656 178 2656 428 
L 2656 1933 
z
" transform="scale(0.015625)"/>
       <path id="CMR17-70" d="M 1408 -1063 
C 998 -1063 973 -1037 973 -789 
L 973 402 
C 1158 134 1427 -38 1766 -38 
C 2406 -38 3053 523 3053 1388 
C 3053 2191 2496 2802 1837 2802 
C 1453 2802 1139 2592 960 2338 
L 960 2802 
L 198 2732 
L 198 2567 
C 576 2567 634 2528 634 2223 
L 634 -789 
C 634 -1031 608 -1063 198 -1063 
L 198 -1228 
C 352 -1216 634 -1216 800 -1216 
C 966 -1216 1254 -1216 1408 -1228 
L 1408 -1063 
z
M 973 2012 
C 973 2102 973 2235 1222 2471 
C 1254 2497 1472 2688 1792 2688 
C 2259 2688 2643 2108 2643 1382 
C 2643 656 2234 64 1728 64 
C 1498 64 1248 172 1056 472 
C 973 612 973 650 973 752 
L 973 2012 
z
" transform="scale(0.015625)"/>
       <path id="CMR17-75" d="M 1882 2693 
L 1882 2528 
C 2259 2528 2317 2489 2317 2186 
L 2317 1032 
C 2317 500 2029 38 1555 38 
C 1030 38 986 348 986 678 
L 986 2763 
L 211 2693 
L 211 2528 
C 467 2528 640 2528 646 2274 
L 646 1058 
C 646 633 646 361 813 183 
C 896 101 1056 -64 1517 -64 
C 2061 -64 2272 377 2323 506 
L 2330 506 
L 2330 -63 
L 3091 -63 
L 3091 128 
C 2714 128 2656 166 2656 473 
L 2656 2763 
L 1882 2693 
z
" transform="scale(0.015625)"/>
       <path id="CMMI12-49" d="M 2355 3880 
C 2413 4103 2426 4167 2893 4167 
C 3034 4167 3085 4167 3085 4288 
C 3085 4352 3014 4352 2995 4352 
C 2880 4352 2739 4352 2624 4352 
L 1837 4352 
C 1709 4352 1562 4352 1434 4352 
C 1382 4352 1312 4352 1312 4231 
C 1312 4167 1363 4167 1491 4167 
C 1888 4167 1888 4116 1888 4046 
C 1888 4002 1875 3963 1862 3906 
L 998 472 
C 941 249 928 185 461 185 
C 320 185 262 185 262 64 
C 262 0 326 0 358 0 
C 474 0 614 0 730 0 
L 1517 0 
C 1645 0 1786 0 1914 0 
C 1965 0 2042 0 2042 115 
C 2042 185 2003 185 1862 185 
C 1466 185 1466 236 1466 312 
C 1466 325 1466 357 1491 459 
L 2355 3880 
z
" transform="scale(0.015625)"/>
      </defs>
      <use xlink:href="#CMR17-49" transform="scale(0.996264)"/>
      <use xlink:href="#CMR17-6e" transform="translate(32.638409 0)scale(0.996264)"/>
      <use xlink:href="#CMR17-70" transform="translate(83.533779 0)scale(0.996264)"/>
      <use xlink:href="#CMR17-75" transform="translate(134.429149 0)scale(0.996264)"/>
      <use xlink:href="#CMR17-74" transform="translate(185.324519 0)scale(0.996264)"/>
      <use xlink:href="#CMMI12-49" transform="translate(250.681253 0)scale(0.996264)"/>
     </g>
    </g>
    <g id="line2d_59">
     <path d="M 416.048155 21.941241 
L 420.048155 21.941241 
L 424.048155 21.941241 
" style="fill: none; stroke: #0000cd; stroke-opacity: 0.8; stroke-width: 1.5; stroke-linecap: square"/>
    </g>
    <g id="text_21">
     <!-- 0.1 -->
     <g transform="translate(427.248155 23.341241)scale(0.04 -0.04)">
      <defs>
       <path id="CMR17-2e" d="M 1062 261 
C 1062 420 934 522 800 522 
C 672 522 538 420 538 261 
C 538 102 666 0 800 0 
C 928 0 1062 102 1062 261 
z
" transform="scale(0.015625)"/>
      </defs>
      <use xlink:href="#CMR17-30" transform="scale(0.996264)"/>
      <use xlink:href="#CMR17-2e" transform="translate(45.690477 0)scale(0.996264)"/>
      <use xlink:href="#CMR17-31" transform="translate(70.561536 0)scale(0.996264)"/>
     </g>
    </g>
    <g id="line2d_60">
     <path d="M 416.048155 27.516107 
L 420.048155 27.516107 
L 424.048155 27.516107 
" style="fill: none; stroke: #0008ff; stroke-opacity: 0.8; stroke-width: 1.5; stroke-linecap: square"/>
    </g>
    <g id="text_22">
     <!-- 0.2 -->
     <g transform="translate(427.248155 28.916107)scale(0.04 -0.04)">
      <defs>
       <path id="CMR17-32" d="M 2669 989 
L 2554 989 
C 2490 536 2438 459 2413 420 
C 2381 369 1920 369 1830 369 
L 602 369 
C 832 619 1280 1072 1824 1597 
C 2214 1967 2669 2402 2669 3035 
C 2669 3790 2067 4224 1395 4224 
C 691 4224 262 3604 262 3030 
C 262 2780 448 2748 525 2748 
C 589 2748 781 2787 781 3010 
C 781 3207 614 3264 525 3264 
C 486 3264 448 3258 422 3245 
C 544 3790 915 4058 1306 4058 
C 1862 4058 2227 3617 2227 3035 
C 2227 2479 1901 2000 1536 1584 
L 262 146 
L 262 0 
L 2515 0 
L 2669 989 
z
" transform="scale(0.015625)"/>
      </defs>
      <use xlink:href="#CMR17-30" transform="scale(0.996264)"/>
      <use xlink:href="#CMR17-2e" transform="translate(45.690477 0)scale(0.996264)"/>
      <use xlink:href="#CMR17-32" transform="translate(70.561536 0)scale(0.996264)"/>
     </g>
    </g>
    <g id="line2d_61">
     <path d="M 416.048155 33.090972 
L 420.048155 33.090972 
L 424.048155 33.090972 
" style="fill: none; stroke: #004cff; stroke-opacity: 0.8; stroke-width: 1.5; stroke-linecap: square"/>
    </g>
    <g id="text_23">
     <!-- 0.3 -->
     <g transform="translate(427.248155 34.490972)scale(0.04 -0.04)">
      <defs>
       <path id="CMR17-33" d="M 1414 2157 
C 1984 2157 2234 1662 2234 1090 
C 2234 320 1824 25 1453 25 
C 1114 25 563 194 390 693 
C 422 680 454 680 486 680 
C 640 680 755 782 755 948 
C 755 1133 614 1216 486 1216 
C 378 1216 211 1165 211 926 
C 211 335 787 -128 1466 -128 
C 2176 -128 2720 430 2720 1085 
C 2720 1707 2208 2157 1600 2227 
C 2086 2328 2554 2756 2554 3329 
C 2554 3820 2048 4179 1472 4179 
C 890 4179 378 3829 378 3329 
C 378 3110 544 3072 627 3072 
C 762 3072 877 3155 877 3321 
C 877 3486 762 3569 627 3569 
C 602 3569 570 3569 544 3557 
C 730 3959 1235 4032 1459 4032 
C 1683 4032 2106 3925 2106 3320 
C 2106 3143 2080 2828 1862 2550 
C 1670 2304 1453 2304 1242 2284 
C 1210 2284 1062 2269 1037 2269 
C 992 2263 966 2257 966 2208 
C 966 2163 973 2157 1101 2157 
L 1414 2157 
z
" transform="scale(0.015625)"/>
      </defs>
      <use xlink:href="#CMR17-30" transform="scale(0.996264)"/>
      <use xlink:href="#CMR17-2e" transform="translate(45.690477 0)scale(0.996264)"/>
      <use xlink:href="#CMR17-33" transform="translate(70.561536 0)scale(0.996264)"/>
     </g>
    </g>
    <g id="line2d_62">
     <path d="M 416.048155 38.665837 
L 420.048155 38.665837 
L 424.048155 38.665837 
" style="fill: none; stroke: #0090ff; stroke-opacity: 0.8; stroke-width: 1.5; stroke-linecap: square"/>
    </g>
    <g id="text_24">
     <!-- 0.4 -->
     <g transform="translate(427.248155 40.065837)scale(0.04 -0.04)">
      <defs>
       <path id="CMR17-34" d="M 2150 4122 
C 2150 4256 2144 4256 2029 4256 
L 128 1254 
L 128 1088 
L 1779 1088 
L 1779 457 
C 1779 224 1766 160 1318 160 
L 1197 160 
L 1197 0 
C 1402 0 1747 0 1965 0 
C 2182 0 2528 0 2733 0 
L 2733 160 
L 2611 160 
C 2163 160 2150 224 2150 457 
L 2150 1088 
L 2803 1088 
L 2803 1254 
L 2150 1254 
L 2150 4122 
z
M 1798 3703 
L 1798 1254 
L 256 1254 
L 1798 3703 
z
" transform="scale(0.015625)"/>
      </defs>
      <use xlink:href="#CMR17-30" transform="scale(0.996264)"/>
      <use xlink:href="#CMR17-2e" transform="translate(45.690477 0)scale(0.996264)"/>
      <use xlink:href="#CMR17-34" transform="translate(70.561536 0)scale(0.996264)"/>
     </g>
    </g>
    <g id="line2d_63">
     <path d="M 416.048155 44.240702 
L 420.048155 44.240702 
L 424.048155 44.240702 
" style="fill: none; stroke: #00d4ff; stroke-opacity: 0.8; stroke-width: 1.5; stroke-linecap: square"/>
    </g>
    <g id="text_25">
     <!-- 0.5 -->
     <g transform="translate(427.248155 45.640702)scale(0.04 -0.04)">
      <use xlink:href="#CMR17-30" transform="scale(0.996264)"/>
      <use xlink:href="#CMR17-2e" transform="translate(45.690477 0)scale(0.996264)"/>
      <use xlink:href="#CMR17-35" transform="translate(70.561536 0)scale(0.996264)"/>
     </g>
    </g>
    <g id="line2d_64">
     <path d="M 416.048155 49.815568 
L 420.048155 49.815568 
L 424.048155 49.815568 
" style="fill: none; stroke: #29ffce; stroke-opacity: 0.8; stroke-width: 1.5; stroke-linecap: square"/>
    </g>
    <g id="text_26">
     <!-- 0.6 -->
     <g transform="translate(427.248155 51.215568)scale(0.04 -0.04)">
      <use xlink:href="#CMR17-30" transform="scale(0.996264)"/>
      <use xlink:href="#CMR17-2e" transform="translate(45.690477 0)scale(0.996264)"/>
      <use xlink:href="#CMR17-36" transform="translate(70.561536 0)scale(0.996264)"/>
     </g>
    </g>
    <g id="line2d_65">
     <path d="M 416.048155 55.390433 
L 420.048155 55.390433 
L 424.048155 55.390433 
" style="fill: none; stroke: #60ff97; stroke-opacity: 0.8; stroke-width: 1.5; stroke-linecap: square"/>
    </g>
    <g id="text_27">
     <!-- 0.7 -->
     <g transform="translate(427.248155 56.790433)scale(0.04 -0.04)">
      <defs>
       <path id="CMR17-37" d="M 2886 3941 
L 2886 4081 
L 1382 4081 
C 634 4081 621 4165 595 4288 
L 480 4288 
L 294 3094 
L 410 3094 
C 429 3215 474 3540 550 3661 
C 589 3712 1062 3712 1171 3712 
L 2579 3712 
L 1869 2661 
C 1395 1954 1069 999 1069 165 
C 1069 89 1069 -128 1299 -128 
C 1530 -128 1530 89 1530 171 
L 1530 465 
C 1530 1508 1709 2196 2003 2636 
L 2886 3941 
z
" transform="scale(0.015625)"/>
      </defs>
      <use xlink:href="#CMR17-30" transform="scale(0.996264)"/>
      <use xlink:href="#CMR17-2e" transform="translate(45.690477 0)scale(0.996264)"/>
      <use xlink:href="#CMR17-37" transform="translate(70.561536 0)scale(0.996264)"/>
     </g>
    </g>
    <g id="line2d_66">
     <path d="M 416.048155 60.965298 
L 420.048155 60.965298 
L 424.048155 60.965298 
" style="fill: none; stroke: #97ff60; stroke-opacity: 0.8; stroke-width: 1.5; stroke-linecap: square"/>
    </g>
    <g id="text_28">
     <!-- 0.8 -->
     <g transform="translate(427.248155 62.365298)scale(0.04 -0.04)">
      <use xlink:href="#CMR17-30" transform="scale(0.996264)"/>
      <use xlink:href="#CMR17-2e" transform="translate(45.690477 0)scale(0.996264)"/>
      <use xlink:href="#CMR17-38" transform="translate(70.561536 0)scale(0.996264)"/>
     </g>
    </g>
    <g id="line2d_67">
     <path d="M 416.048155 66.540163 
L 420.048155 66.540163 
L 424.048155 66.540163 
" style="fill: none; stroke: #ceff29; stroke-opacity: 0.8; stroke-width: 1.5; stroke-linecap: square"/>
    </g>
    <g id="text_29">
     <!-- 0.9 -->
     <g transform="translate(427.248155 67.940163)scale(0.04 -0.04)">
      <defs>
       <path id="CMR17-39" d="M 2253 1864 
C 2253 464 1670 31 1190 31 
C 1043 31 685 31 538 294 
C 704 268 826 357 826 518 
C 826 692 685 749 595 749 
C 538 749 365 723 365 506 
C 365 71 742 -128 1203 -128 
C 1939 -128 2688 674 2688 2073 
C 2688 3817 1971 4179 1485 4179 
C 851 4179 243 3628 243 2778 
C 243 1991 762 1408 1414 1408 
C 1952 1408 2189 1903 2253 2112 
L 2253 1864 
z
M 1427 1510 
C 1254 1510 1011 1542 813 1922 
C 678 2169 678 2461 678 2771 
C 678 3146 678 3405 858 3684 
C 947 3817 1114 4032 1485 4032 
C 2240 4032 2240 2885 2240 2632 
C 2240 2182 2035 1510 1427 1510 
z
" transform="scale(0.015625)"/>
      </defs>
      <use xlink:href="#CMR17-30" transform="scale(0.996264)"/>
      <use xlink:href="#CMR17-2e" transform="translate(45.690477 0)scale(0.996264)"/>
      <use xlink:href="#CMR17-39" transform="translate(70.561536 0)scale(0.996264)"/>
     </g>
    </g>
    <g id="line2d_68">
     <path d="M 416.048155 72.115029 
L 420.048155 72.115029 
L 424.048155 72.115029 
" style="fill: none; stroke: #ffe600; stroke-opacity: 0.8; stroke-width: 1.5; stroke-linecap: square"/>
    </g>
    <g id="text_30">
     <!-- 1.0 -->
     <g transform="translate(427.248155 73.515029)scale(0.04 -0.04)">
      <use xlink:href="#CMR17-31" transform="scale(0.996264)"/>
      <use xlink:href="#CMR17-2e" transform="translate(45.690477 0)scale(0.996264)"/>
      <use xlink:href="#CMR17-30" transform="translate(70.561536 0)scale(0.996264)"/>
     </g>
    </g>
    <g id="line2d_69">
     <path d="M 416.048155 77.689894 
L 420.048155 77.689894 
L 424.048155 77.689894 
" style="fill: none; stroke: #ffa700; stroke-opacity: 0.8; stroke-width: 1.5; stroke-linecap: square"/>
    </g>
    <g id="text_31">
     <!-- 1.1 -->
     <g transform="translate(427.248155 79.089894)scale(0.04 -0.04)">
      <use xlink:href="#CMR17-31" transform="scale(0.996264)"/>
      <use xlink:href="#CMR17-2e" transform="translate(45.690477 0)scale(0.996264)"/>
      <use xlink:href="#CMR17-31" transform="translate(70.561536 0)scale(0.996264)"/>
     </g>
    </g>
    <g id="line2d_70">
     <path d="M 416.048155 83.264759 
L 420.048155 83.264759 
L 424.048155 83.264759 
" style="fill: none; stroke: #ff6800; stroke-opacity: 0.8; stroke-width: 1.5; stroke-linecap: square"/>
    </g>
    <g id="text_32">
     <!-- 1.2 -->
     <g transform="translate(427.248155 84.664759)scale(0.04 -0.04)">
      <use xlink:href="#CMR17-31" transform="scale(0.996264)"/>
      <use xlink:href="#CMR17-2e" transform="translate(45.690477 0)scale(0.996264)"/>
      <use xlink:href="#CMR17-32" transform="translate(70.561536 0)scale(0.996264)"/>
     </g>
    </g>
    <g id="line2d_71">
     <path d="M 416.048155 88.839624 
L 420.048155 88.839624 
L 424.048155 88.839624 
" style="fill: none; stroke: #ff2900; stroke-opacity: 0.8; stroke-width: 1.5; stroke-linecap: square"/>
    </g>
    <g id="text_33">
     <!-- 1.3 -->
     <g transform="translate(427.248155 90.239624)scale(0.04 -0.04)">
      <use xlink:href="#CMR17-31" transform="scale(0.996264)"/>
      <use xlink:href="#CMR17-2e" transform="translate(45.690477 0)scale(0.996264)"/>
      <use xlink:href="#CMR17-33" transform="translate(70.561536 0)scale(0.996264)"/>
     </g>
    </g>
    <g id="line2d_72">
     <path d="M 416.048155 94.41449 
L 420.048155 94.41449 
L 424.048155 94.41449 
" style="fill: none; stroke: #cd0000; stroke-opacity: 0.8; stroke-width: 1.5; stroke-linecap: square"/>
    </g>
    <g id="text_34">
     <!-- 1.4 -->
     <g transform="translate(427.248155 95.81449)scale(0.04 -0.04)">
      <use xlink:href="#CMR17-31" transform="scale(0.996264)"/>
      <use xlink:href="#CMR17-2e" transform="translate(45.690477 0)scale(0.996264)"/>
      <use xlink:href="#CMR17-34" transform="translate(70.561536 0)scale(0.996264)"/>
     </g>
    </g>
    <g id="line2d_73">
     <path d="M 416.048155 99.989355 
L 420.048155 99.989355 
L 424.048155 99.989355 
" style="fill: none; stroke: #800000; stroke-opacity: 0.8; stroke-width: 1.5; stroke-linecap: square"/>
    </g>
    <g id="text_35">
     <!-- 1.5 -->
     <g transform="translate(427.248155 101.389355)scale(0.04 -0.04)">
      <use xlink:href="#CMR17-31" transform="scale(0.996264)"/>
      <use xlink:href="#CMR17-2e" transform="translate(45.690477 0)scale(0.996264)"/>
      <use xlink:href="#CMR17-35" transform="translate(70.561536 0)scale(0.996264)"/>
     </g>
    </g>
   </g>
  </g>
 </g>
 <defs>
  <clipPath id="pf29284739a">
   <rect x="28.203076" y="23.960464" width="95.532355" height="75.041855"/>
  </clipPath>
  <clipPath id="p5d4a2a41db">
   <rect x="168.37816" y="23.960464" width="95.532355" height="75.041855"/>
  </clipPath>
  <clipPath id="p3c38a805e5">
   <rect x="308.553244" y="23.960464" width="95.532355" height="75.041855"/>
  </clipPath>
 </defs>
</svg>
