<?xml version="1.0" encoding="utf-8" standalone="no"?>
<!DOCTYPE svg PUBLIC "-//W3C//DTD SVG 1.1//EN"
  "http://www.w3.org/Graphics/SVG/1.1/DTD/svg11.dtd">
<svg xmlns:xlink="http://www.w3.org/1999/xlink" width="451.402344pt" height="138.444375pt" viewBox="0 0 451.402344 138.444375" xmlns="http://www.w3.org/2000/svg" version="1.1">
 <metadata>
  <rdf:RDF xmlns:dc="http://purl.org/dc/elements/1.1/" xmlns:cc="http://creativecommons.org/ns#" xmlns:rdf="http://www.w3.org/1999/02/22-rdf-syntax-ns#">
   <cc:Work>
    <dc:type rdf:resource="http://purl.org/dc/dcmitype/StillImage"/>
    <dc:date>2022-07-28T08:26:02.605325</dc:date>
    <dc:format>image/svg+xml</dc:format>
    <dc:creator>
     <cc:Agent>
      <dc:title>Matplotlib v3.5.1, https://matplotlib.org/</dc:title>
     </cc:Agent>
    </dc:creator>
   </cc:Work>
  </rdf:RDF>
 </metadata>
 <defs>
  <style type="text/css">*{stroke-linejoin: round; stroke-linecap: butt}</style>
 </defs>
 <g id="figure_1">
  <g id="patch_1">
   <path d="M 0 138.444375 
L 451.402344 138.444375 
L 451.402344 0 
L 0 0 
L 0 138.444375 
z
" style="fill: none"/>
  </g>
  <g id="axes_1">
   <g id="patch_2">
    <path d="M 28.257656 100.705625 
L 117.511822 100.705625 
L 117.511822 21.901125 
L 28.257656 21.901125 
z
" style="fill: #ffffff"/>
   </g>
   <g id="matplotlib.axis_1">
    <g id="xtick_1">
     <g id="line2d_1">
      <defs>
       <path id="m2875b7a0d8" d="M 0 0 
L 0 3.5 
" style="stroke: #000000; stroke-width: 0.8"/>
      </defs>
      <g>
       <use xlink:href="#m2875b7a0d8" x="32.314664" y="100.705625" style="stroke: #000000; stroke-width: 0.8"/>
      </g>
     </g>
     <g id="text_1">
      <!-- 0 -->
      <g transform="translate(29.564664 115.340312)scale(0.11 -0.11)">
       <defs>
        <path id="CMUSerif-Roman-30" d="M 250 2048 
Q 250 2989 486 3501 
Q 819 4262 1600 4262 
Q 1766 4262 1939 4217 
Q 2112 4173 2333 4000 
Q 2554 3827 2688 3546 
Q 2944 3002 2944 2048 
Q 2944 1114 2707 602 
Q 2362 -141 1594 -141 
Q 1306 -141 1014 6 
Q 723 154 538 506 
Q 250 1037 250 2048 
z
M 781 2125 
Q 781 1158 851 774 
Q 928 358 1142 179 
Q 1357 0 1594 0 
Q 1850 0 2064 192 
Q 2278 384 2342 800 
Q 2413 1210 2413 2125 
Q 2413 3014 2349 3373 
Q 2266 3789 2042 3955 
Q 1818 4122 1594 4122 
Q 1510 4122 1420 4096 
Q 1331 4070 1203 4000 
Q 1075 3930 976 3750 
Q 877 3571 832 3302 
Q 781 2957 781 2125 
z
" transform="scale(0.015625)"/>
       </defs>
       <use xlink:href="#CMUSerif-Roman-30"/>
      </g>
     </g>
    </g>
    <g id="xtick_2">
     <g id="line2d_2">
      <g>
       <use xlink:href="#m2875b7a0d8" x="113.536036" y="100.705625" style="stroke: #000000; stroke-width: 0.8"/>
      </g>
     </g>
     <g id="text_2">
      <!-- 1000 -->
      <g transform="translate(102.536036 115.340312)scale(0.11 -0.11)">
       <defs>
        <path id="CMUSerif-Roman-31" d="M 570 3654 
L 570 3853 
Q 1338 3853 1734 4262 
Q 1843 4262 1862 4236 
Q 1882 4211 1882 4096 
L 1882 506 
Q 1882 314 1974 256 
Q 2067 198 2477 198 
L 2682 198 
L 2682 0 
Q 2458 19 1645 19 
Q 832 19 608 0 
L 608 198 
L 813 198 
Q 1216 198 1312 256 
Q 1408 314 1408 506 
L 1408 3821 
Q 1075 3654 570 3654 
z
" transform="scale(0.015625)"/>
       </defs>
       <use xlink:href="#CMUSerif-Roman-31"/>
       <use xlink:href="#CMUSerif-Roman-30" x="49.999985"/>
       <use xlink:href="#CMUSerif-Roman-30" x="99.999969"/>
       <use xlink:href="#CMUSerif-Roman-30" x="149.999954"/>
      </g>
     </g>
    </g>
    <g id="text_3">
     <!-- t -->
     <g transform="translate(70.750911 129.109687)scale(0.11 -0.11)">
      <defs>
       <path id="CMUSerif-Roman-74" d="M 122 2560 
L 122 2701 
Q 416 2714 611 2922 
Q 806 3130 873 3386 
Q 941 3642 947 3936 
L 1107 3936 
L 1107 2758 
L 2022 2758 
L 2022 2560 
L 1107 2560 
L 1107 781 
Q 1107 90 1536 90 
Q 1722 90 1843 278 
Q 1965 467 1965 806 
L 1965 1158 
L 2125 1158 
L 2125 794 
Q 2125 448 1965 189 
Q 1805 -70 1491 -70 
Q 1376 -70 1261 -41 
Q 1146 -13 998 64 
Q 851 141 758 329 
Q 666 518 666 794 
L 666 2560 
L 122 2560 
z
" transform="scale(0.015625)"/>
      </defs>
      <use xlink:href="#CMUSerif-Roman-74"/>
     </g>
    </g>
   </g>
   <g id="matplotlib.axis_2">
    <g id="ytick_1">
     <g id="line2d_3">
      <defs>
       <path id="mfb306c76fc" d="M 0 0 
L -3.5 0 
" style="stroke: #000000; stroke-width: 0.8"/>
      </defs>
      <g>
       <use xlink:href="#mfb306c76fc" x="28.257656" y="97.123602" style="stroke: #000000; stroke-width: 0.8"/>
      </g>
     </g>
     <g id="text_4">
      <!-- 0.7 -->
      <g transform="translate(7.2 100.940946)scale(0.11 -0.11)">
       <defs>
        <path id="CMUSerif-Roman-2e" d="M 640 102 
Q 544 205 544 339 
Q 544 474 640 573 
Q 736 672 883 672 
Q 1024 672 1120 579 
Q 1216 486 1216 339 
Q 1216 192 1113 96 
Q 1011 0 883 0 
Q 736 0 640 102 
z
" transform="scale(0.015625)"/>
        <path id="CMUSerif-Roman-37" d="M 358 3008 
L 570 4326 
L 730 4326 
Q 749 4250 781 4214 
Q 813 4179 995 4150 
Q 1178 4122 1549 4122 
L 3104 4122 
Q 3104 3974 3046 3898 
L 2182 2682 
Q 1907 2298 1786 1587 
Q 1715 1114 1715 538 
L 1715 211 
Q 1715 -141 1420 -141 
Q 1126 -141 1126 211 
Q 1126 1434 1914 2618 
Q 1997 2739 2307 3174 
Q 2618 3610 2630 3629 
L 1306 3629 
Q 723 3629 678 3590 
Q 614 3533 518 3008 
L 358 3008 
z
" transform="scale(0.015625)"/>
       </defs>
       <use xlink:href="#CMUSerif-Roman-30"/>
       <use xlink:href="#CMUSerif-Roman-2e" x="49.999985"/>
       <use xlink:href="#CMUSerif-Roman-37" x="77.799973"/>
      </g>
     </g>
    </g>
    <g id="ytick_2">
     <g id="line2d_4">
      <g>
       <use xlink:href="#mfb306c76fc" x="28.257656" y="69.418168" style="stroke: #000000; stroke-width: 0.8"/>
      </g>
     </g>
     <g id="text_5">
      <!-- 0.8 -->
      <g transform="translate(7.2 73.235512)scale(0.11 -0.11)">
       <defs>
        <path id="CMUSerif-Roman-38" d="M 269 966 
Q 269 1683 1190 2144 
Q 794 2413 723 2490 
Q 442 2803 442 3194 
Q 442 3642 781 3952 
Q 1120 4262 1600 4262 
Q 2061 4262 2406 3996 
Q 2752 3731 2752 3309 
Q 2752 2714 1978 2317 
Q 2490 1997 2611 1862 
Q 2925 1517 2925 1075 
Q 2925 563 2531 211 
Q 2138 -141 1594 -141 
Q 1062 -141 665 169 
Q 269 480 269 966 
z
M 589 966 
Q 589 570 886 304 
Q 1184 38 1600 38 
Q 2003 38 2304 268 
Q 2605 499 2605 845 
Q 2605 979 2560 1094 
Q 2515 1210 2425 1302 
Q 2336 1395 2281 1436 
Q 2227 1478 2125 1549 
L 1338 2048 
Q 589 1632 589 966 
z
M 723 3443 
Q 723 3136 1043 2925 
L 1837 2413 
Q 2470 2784 2470 3309 
Q 2470 3648 2211 3875 
Q 1952 4102 1594 4102 
Q 1242 4102 982 3916 
Q 723 3731 723 3443 
z
" transform="scale(0.015625)"/>
       </defs>
       <use xlink:href="#CMUSerif-Roman-30"/>
       <use xlink:href="#CMUSerif-Roman-2e" x="49.999985"/>
       <use xlink:href="#CMUSerif-Roman-38" x="77.799973"/>
      </g>
     </g>
    </g>
    <g id="ytick_3">
     <g id="line2d_5">
      <g>
       <use xlink:href="#mfb306c76fc" x="28.257656" y="41.712735" style="stroke: #000000; stroke-width: 0.8"/>
      </g>
     </g>
     <g id="text_6">
      <!-- 0.9 -->
      <g transform="translate(7.2 45.530078)scale(0.11 -0.11)">
       <defs>
        <path id="CMUSerif-Roman-39" d="M 269 2822 
Q 269 3162 368 3395 
Q 467 3629 678 3859 
Q 1062 4262 1619 4262 
Q 1856 4262 2067 4163 
Q 2278 4064 2480 3837 
Q 2682 3610 2803 3165 
Q 2925 2720 2925 2106 
Q 2925 1114 2445 486 
Q 1965 -141 1318 -141 
Q 909 -141 669 44 
Q 429 230 429 550 
Q 429 717 521 787 
Q 614 858 723 858 
Q 838 858 928 781 
Q 1018 704 1018 563 
Q 1018 448 944 358 
Q 870 269 685 269 
Q 870 38 1312 38 
Q 1472 38 1632 112 
Q 1792 186 1965 365 
Q 2138 544 2243 921 
Q 2349 1299 2349 1830 
L 2349 2035 
Q 2093 1395 1549 1395 
Q 1011 1395 640 1808 
Q 269 2221 269 2822 
z
M 845 2816 
Q 845 2182 960 1946 
Q 1158 1542 1555 1542 
Q 1946 1542 2141 1891 
Q 2336 2240 2336 2694 
Q 2336 3322 2234 3597 
Q 2042 4102 1619 4102 
Q 1197 4102 979 3699 
Q 845 3462 845 2816 
z
" transform="scale(0.015625)"/>
       </defs>
       <use xlink:href="#CMUSerif-Roman-30"/>
       <use xlink:href="#CMUSerif-Roman-2e" x="49.999985"/>
       <use xlink:href="#CMUSerif-Roman-39" x="77.799973"/>
      </g>
     </g>
    </g>
   </g>
   <g id="line2d_6">
    <path d="M 32.314664 97.123602 
L 33.532984 88.195981 
L 34.751305 80.868359 
L 35.969626 74.811331 
L 37.269168 69.445238 
L 38.649931 64.6981 
L 40.111916 60.48724 
L 41.655122 56.731526 
L 43.279549 53.359155 
L 44.985198 50.311326 
L 46.853289 47.425825 
L 48.802602 44.816927 
L 50.914358 42.367254 
L 53.107335 40.167503 
L 55.381534 38.198559 
L 57.818175 36.389359 
L 60.336037 34.79872 
L 63.016343 33.370659 
L 65.859091 32.108793 
L 68.945503 30.984752 
L 72.3568 29.986789 
L 76.092984 29.12989 
L 80.316495 28.392807 
L 85.189777 27.771762 
L 91.037716 27.258147 
L 98.266418 26.855459 
L 107.85054 26.557794 
L 113.454815 26.457255 
L 113.454815 26.457255 
" clip-path="url(#p2b64208f0c)" style="fill: none; stroke: #000000; stroke-opacity: 0.8; stroke-width: 1.5; stroke-linecap: square"/>
   </g>
   <g id="line2d_7">
    <path d="M 32.314664 97.123602 
L 33.532984 87.145819 
L 34.751305 78.977941 
L 35.969626 72.308476 
L 37.187946 66.851435 
L 38.406267 62.358892 
L 39.705809 58.399119 
L 41.086572 54.917166 
L 42.548557 51.847941 
L 44.091763 49.125705 
L 45.797412 46.57838 
L 47.665503 44.202937 
L 49.696038 41.989683 
L 51.889015 39.929217 
L 54.244434 38.01593 
L 56.843518 36.195815 
L 59.605045 34.538831 
L 62.529014 33.04572 
L 65.615427 31.716657 
L 68.945503 30.523071 
L 72.600465 29.453006 
L 76.580312 28.52206 
L 81.047487 27.709651 
L 86.164434 27.012718 
L 92.093594 26.436024 
L 99.241075 25.970676 
L 108.337868 25.611539 
L 113.454815 25.483148 
L 113.454815 25.483148 
" clip-path="url(#p2b64208f0c)" style="fill: none; stroke: #cccccc; stroke-opacity: 0.8; stroke-width: 1.5; stroke-linecap: square"/>
   </g>
   <g id="patch_3">
    <path d="M 28.257656 100.705625 
L 28.257656 21.901125 
" style="fill: none; stroke: #000000; stroke-width: 0.8; stroke-linejoin: miter; stroke-linecap: square"/>
   </g>
   <g id="patch_4">
    <path d="M 28.257656 100.705625 
L 117.511822 100.705625 
" style="fill: none; stroke: #000000; stroke-width: 0.8; stroke-linejoin: miter; stroke-linecap: square"/>
   </g>
   <g id="text_7">
    <!-- du/dt -->
    <g transform="translate(58.843411 15.901125)scale(0.11 -0.11)">
     <defs>
      <path id="CMUSerif-Roman-64" d="M 218 1376 
Q 218 1984 643 2406 
Q 1069 2829 1645 2829 
Q 2131 2829 2451 2432 
L 2451 3814 
Q 2451 4051 2368 4112 
Q 2285 4173 1952 4173 
L 1952 4371 
L 2874 4442 
L 2874 557 
Q 2874 320 2957 259 
Q 3040 198 3373 198 
L 3373 0 
L 2432 -70 
L 2432 352 
Q 2099 -70 1574 -70 
Q 1024 -70 621 352 
Q 218 774 218 1376 
z
M 749 1370 
Q 749 774 934 480 
Q 1190 70 1606 70 
Q 2080 70 2362 518 
Q 2432 627 2432 755 
L 2432 2067 
Q 2432 2195 2362 2304 
Q 2099 2688 1670 2688 
Q 1222 2688 947 2278 
Q 749 1971 749 1370 
z
" transform="scale(0.015625)"/>
      <path id="CMUSerif-Roman-75" d="M 205 2560 
L 205 2758 
L 1146 2829 
L 1146 704 
Q 1146 550 1158 460 
Q 1171 371 1222 268 
Q 1274 166 1395 118 
Q 1517 70 1709 70 
Q 2054 70 2268 355 
Q 2483 640 2483 1062 
L 2483 2202 
Q 2483 2438 2400 2499 
Q 2317 2560 1984 2560 
L 1984 2758 
L 2925 2829 
L 2925 557 
Q 2925 320 3008 259 
Q 3091 198 3424 198 
L 3424 0 
L 2502 -70 
L 2502 506 
Q 2234 -70 1677 -70 
Q 1395 -70 1203 0 
Q 1011 70 915 160 
Q 819 250 768 422 
Q 717 595 710 700 
Q 704 806 704 1011 
L 704 1971 
Q 704 2406 640 2483 
Q 576 2560 205 2560 
z
" transform="scale(0.015625)"/>
      <path id="CMUSerif-Roman-2f" d="M 365 -1510 
Q 365 -1478 390 -1408 
L 2650 4627 
Q 2650 4634 2666 4669 
Q 2682 4704 2691 4726 
Q 2701 4749 2720 4768 
Q 2739 4787 2765 4787 
Q 2829 4787 2829 4710 
Q 2829 4704 2810 4627 
L 544 -1414 
Q 506 -1523 483 -1555 
Q 461 -1587 422 -1587 
Q 365 -1587 365 -1510 
z
" transform="scale(0.015625)"/>
     </defs>
     <use xlink:href="#CMUSerif-Roman-64"/>
     <use xlink:href="#CMUSerif-Roman-75" x="55.499985"/>
     <use xlink:href="#CMUSerif-Roman-2f" x="110.999969"/>
     <use xlink:href="#CMUSerif-Roman-64" x="160.999954"/>
     <use xlink:href="#CMUSerif-Roman-74" x="216.499939"/>
    </g>
   </g>
  </g>
  <g id="axes_2">
   <g id="patch_5">
    <path d="M 162.213073 100.705625 
L 251.467239 100.705625 
L 251.467239 21.901125 
L 162.213073 21.901125 
z
" style="fill: #ffffff"/>
   </g>
   <g id="matplotlib.axis_3">
    <g id="xtick_3">
     <g id="line2d_8">
      <g>
       <use xlink:href="#m2875b7a0d8" x="166.270081" y="100.705625" style="stroke: #000000; stroke-width: 0.8"/>
      </g>
     </g>
     <g id="text_8">
      <!-- 0 -->
      <g transform="translate(163.520081 115.340312)scale(0.11 -0.11)">
       <use xlink:href="#CMUSerif-Roman-30"/>
      </g>
     </g>
    </g>
    <g id="xtick_4">
     <g id="line2d_9">
      <g>
       <use xlink:href="#m2875b7a0d8" x="247.491453" y="100.705625" style="stroke: #000000; stroke-width: 0.8"/>
      </g>
     </g>
     <g id="text_9">
      <!-- 1000 -->
      <g transform="translate(236.491453 115.340312)scale(0.11 -0.11)">
       <use xlink:href="#CMUSerif-Roman-31"/>
       <use xlink:href="#CMUSerif-Roman-30" x="49.999985"/>
       <use xlink:href="#CMUSerif-Roman-30" x="99.999969"/>
       <use xlink:href="#CMUSerif-Roman-30" x="149.999954"/>
      </g>
     </g>
    </g>
    <g id="text_10">
     <!-- t -->
     <g transform="translate(204.706328 129.109687)scale(0.11 -0.11)">
      <use xlink:href="#CMUSerif-Roman-74"/>
     </g>
    </g>
   </g>
   <g id="matplotlib.axis_4">
    <g id="ytick_4">
     <g id="line2d_10">
      <g>
       <use xlink:href="#mfb306c76fc" x="162.213073" y="75.782083" style="stroke: #000000; stroke-width: 0.8"/>
      </g>
     </g>
     <g id="text_11">
      <!-- 0.2 -->
      <g transform="translate(141.155417 79.599427)scale(0.11 -0.11)">
       <defs>
        <path id="CMUSerif-Roman-32" d="M 320 0 
Q 320 115 329 150 
Q 339 186 390 237 
L 1619 1606 
Q 2291 2362 2291 3021 
Q 2291 3450 2067 3757 
Q 1843 4064 1434 4064 
Q 1152 4064 915 3891 
Q 678 3718 570 3411 
Q 589 3418 653 3418 
Q 813 3418 902 3318 
Q 992 3219 992 3085 
Q 992 2912 880 2829 
Q 768 2746 659 2746 
Q 614 2746 556 2755 
Q 499 2765 409 2854 
Q 320 2944 320 3104 
Q 320 3552 659 3907 
Q 998 4262 1517 4262 
Q 2106 4262 2490 3913 
Q 2874 3565 2874 3021 
Q 2874 2829 2816 2656 
Q 2758 2483 2681 2348 
Q 2605 2214 2400 2000 
Q 2195 1786 2028 1632 
Q 1862 1478 1491 1152 
L 813 493 
L 1965 493 
Q 2528 493 2573 544 
Q 2637 634 2714 1114 
L 2874 1114 
L 2694 0 
L 320 0 
z
" transform="scale(0.015625)"/>
       </defs>
       <use xlink:href="#CMUSerif-Roman-30"/>
       <use xlink:href="#CMUSerif-Roman-2e" x="49.999985"/>
       <use xlink:href="#CMUSerif-Roman-32" x="77.799973"/>
      </g>
     </g>
    </g>
    <g id="ytick_5">
     <g id="line2d_11">
      <g>
       <use xlink:href="#mfb306c76fc" x="162.213073" y="40.848584" style="stroke: #000000; stroke-width: 0.8"/>
      </g>
     </g>
     <g id="text_12">
      <!-- 0.3 -->
      <g transform="translate(141.155417 44.665928)scale(0.11 -0.11)">
       <defs>
        <path id="CMUSerif-Roman-33" d="M 269 864 
Q 269 1056 377 1145 
Q 486 1235 627 1235 
Q 774 1235 880 1139 
Q 986 1043 986 877 
Q 986 698 861 598 
Q 736 499 563 525 
Q 717 269 998 153 
Q 1280 38 1542 38 
Q 1818 38 2042 275 
Q 2266 512 2266 1094 
Q 2266 1587 2074 1872 
Q 1882 2157 1504 2157 
L 1222 2157 
Q 1126 2157 1097 2166 
Q 1069 2176 1069 2227 
Q 1069 2291 1165 2304 
Q 1261 2304 1414 2323 
Q 1786 2336 1984 2656 
Q 2163 2957 2163 3386 
Q 2163 3776 1977 3939 
Q 1792 4102 1549 4102 
Q 1325 4102 1078 4009 
Q 832 3917 698 3706 
Q 1094 3706 1094 3386 
Q 1094 3245 1004 3152 
Q 915 3059 768 3059 
Q 627 3059 534 3148 
Q 442 3238 442 3392 
Q 442 3757 768 4009 
Q 1094 4262 1574 4262 
Q 2048 4262 2400 4012 
Q 2752 3763 2752 3379 
Q 2752 3002 2502 2691 
Q 2253 2381 1856 2253 
Q 2342 2157 2633 1827 
Q 2925 1498 2925 1094 
Q 2925 595 2531 227 
Q 2138 -141 1562 -141 
Q 1030 -141 649 147 
Q 269 435 269 864 
z
" transform="scale(0.015625)"/>
       </defs>
       <use xlink:href="#CMUSerif-Roman-30"/>
       <use xlink:href="#CMUSerif-Roman-2e" x="49.999985"/>
       <use xlink:href="#CMUSerif-Roman-33" x="77.799973"/>
      </g>
     </g>
    </g>
   </g>
   <g id="line2d_12">
    <path d="M 166.270081 75.782083 
L 167.163516 68.243574 
L 167.97573 63.09871 
L 168.787943 59.272302 
L 169.600157 56.517526 
L 170.331149 54.785667 
L 170.98092 53.736753 
L 171.630691 53.073596 
L 172.280462 52.734545 
L 172.930233 52.667171 
L 173.580004 52.826873 
L 174.310997 53.230924 
L 175.204432 53.984086 
L 176.341531 55.255795 
L 177.803516 57.245544 
L 179.996493 60.645932 
L 186.981531 71.709556 
L 189.661836 75.424769 
L 192.179699 78.540177 
L 194.61634 81.208 
L 197.052981 83.550168 
L 199.489622 85.59096 
L 202.007485 87.413132 
L 204.606569 89.022314 
L 207.368095 90.467727 
L 210.292065 91.743218 
L 213.459698 92.875757 
L 216.870996 93.856212 
L 220.6884 94.716741 
L 224.993133 95.45306 
L 229.947637 96.069999 
L 235.876797 96.577159 
L 243.267942 96.975717 
L 247.410232 97.123602 
L 247.410232 97.123602 
" clip-path="url(#pa6322366c9)" style="fill: none; stroke: #000000; stroke-opacity: 0.8; stroke-width: 1.5; stroke-linecap: square"/>
   </g>
   <g id="line2d_13">
    <path d="M 166.270081 75.782083 
L 167.244737 61.887643 
L 168.219394 51.162612 
L 169.112829 43.610126 
L 170.006264 37.834343 
L 170.899699 33.505835 
L 171.711913 30.594907 
L 172.524126 28.481423 
L 173.255119 27.142486 
L 173.986111 26.246148 
L 174.635882 25.7611 
L 175.285653 25.523287 
L 176.016645 25.50434 
L 176.747638 25.704616 
L 177.641073 26.191151 
L 178.696951 27.034868 
L 179.996493 28.366616 
L 181.783363 30.542797 
L 184.707332 34.516714 
L 190.149164 41.922419 
L 193.235576 45.717109 
L 196.078324 48.856868 
L 198.75863 51.494522 
L 201.438935 53.828295 
L 204.200462 55.93491 
L 206.961988 57.764839 
L 209.885958 59.431833 
L 212.891149 60.889212 
L 216.058782 62.181709 
L 219.47008 63.335103 
L 223.206263 64.361203 
L 227.348553 65.262616 
L 231.978171 66.03742 
L 237.25756 66.692079 
L 243.511606 67.237583 
L 247.410232 67.485199 
L 247.410232 67.485199 
" clip-path="url(#pa6322366c9)" style="fill: none; stroke: #cccccc; stroke-opacity: 0.8; stroke-width: 1.5; stroke-linecap: square"/>
   </g>
   <g id="patch_6">
    <path d="M 162.213073 100.705625 
L 162.213073 21.901125 
" style="fill: none; stroke: #000000; stroke-width: 0.8; stroke-linejoin: miter; stroke-linecap: square"/>
   </g>
   <g id="patch_7">
    <path d="M 162.213073 100.705625 
L 251.467239 100.705625 
" style="fill: none; stroke: #000000; stroke-width: 0.8; stroke-linejoin: miter; stroke-linecap: square"/>
   </g>
   <g id="text_13">
    <!-- dv/dt -->
    <g transform="translate(192.952656 15.901125)scale(0.11 -0.11)">
     <defs>
      <path id="CMUSerif-Roman-76" d="M 122 2560 
L 122 2758 
Q 410 2739 742 2739 
Q 864 2739 1440 2758 
L 1440 2560 
Q 1075 2560 1075 2394 
Q 1075 2368 1114 2285 
L 1830 499 
L 2483 2131 
Q 2522 2240 2522 2285 
Q 2522 2394 2448 2474 
Q 2374 2554 2214 2560 
L 2214 2758 
Q 2541 2739 2771 2739 
Q 3034 2739 3251 2758 
L 3251 2560 
Q 3059 2560 2924 2473 
Q 2790 2387 2748 2313 
Q 2707 2240 2662 2131 
L 1824 51 
Q 1773 -70 1690 -70 
Q 1632 -70 1609 -48 
Q 1587 -26 1555 51 
L 634 2323 
Q 570 2483 490 2521 
Q 410 2560 122 2560 
z
" transform="scale(0.015625)"/>
     </defs>
     <use xlink:href="#CMUSerif-Roman-64"/>
     <use xlink:href="#CMUSerif-Roman-76" x="55.499985"/>
     <use xlink:href="#CMUSerif-Roman-2f" x="108.199982"/>
     <use xlink:href="#CMUSerif-Roman-64" x="158.199966"/>
     <use xlink:href="#CMUSerif-Roman-74" x="213.699951"/>
    </g>
   </g>
  </g>
  <g id="axes_3">
   <g id="patch_8">
    <path d="M 296.16849 100.705625 
L 385.422656 100.705625 
L 385.422656 21.901125 
L 296.16849 21.901125 
z
" style="fill: #ffffff"/>
   </g>
   <g id="matplotlib.axis_5">
    <g id="xtick_5">
     <g id="line2d_14">
      <g>
       <use xlink:href="#m2875b7a0d8" x="300.225498" y="100.705625" style="stroke: #000000; stroke-width: 0.8"/>
      </g>
     </g>
     <g id="text_14">
      <!-- 0 -->
      <g transform="translate(297.475498 115.340312)scale(0.11 -0.11)">
       <use xlink:href="#CMUSerif-Roman-30"/>
      </g>
     </g>
    </g>
    <g id="xtick_6">
     <g id="line2d_15">
      <g>
       <use xlink:href="#m2875b7a0d8" x="381.44687" y="100.705625" style="stroke: #000000; stroke-width: 0.8"/>
      </g>
     </g>
     <g id="text_15">
      <!-- 1000 -->
      <g transform="translate(370.44687 115.340312)scale(0.11 -0.11)">
       <use xlink:href="#CMUSerif-Roman-31"/>
       <use xlink:href="#CMUSerif-Roman-30" x="49.999985"/>
       <use xlink:href="#CMUSerif-Roman-30" x="99.999969"/>
       <use xlink:href="#CMUSerif-Roman-30" x="149.999954"/>
      </g>
     </g>
    </g>
    <g id="text_16">
     <!-- t -->
     <g transform="translate(338.661745 129.109687)scale(0.11 -0.11)">
      <use xlink:href="#CMUSerif-Roman-74"/>
     </g>
    </g>
   </g>
   <g id="matplotlib.axis_6">
    <g id="ytick_6">
     <g id="line2d_16">
      <g>
       <use xlink:href="#mfb306c76fc" x="296.16849" y="73.156866" style="stroke: #000000; stroke-width: 0.8"/>
      </g>
     </g>
     <g id="text_17">
      <!-- 0.6 -->
      <g transform="translate(275.110834 76.97421)scale(0.11 -0.11)">
       <defs>
        <path id="CMUSerif-Roman-36" d="M 269 2022 
Q 269 3027 781 3644 
Q 1293 4262 1952 4262 
Q 2336 4262 2550 4067 
Q 2765 3872 2765 3571 
Q 2765 3405 2669 3334 
Q 2573 3264 2470 3264 
Q 2355 3264 2265 3341 
Q 2176 3418 2176 3558 
Q 2176 3846 2528 3846 
Q 2362 4102 1965 4102 
Q 1843 4102 1718 4067 
Q 1594 4032 1430 3913 
Q 1267 3795 1142 3606 
Q 1018 3418 931 3066 
Q 845 2714 845 2253 
L 845 2099 
Q 1107 2733 1644 2733 
Q 2182 2733 2553 2323 
Q 2925 1914 2925 1306 
Q 2925 685 2537 272 
Q 2150 -141 1606 -141 
Q 1363 -141 1142 -38 
Q 922 64 717 294 
Q 512 525 390 969 
Q 269 1414 269 2022 
z
M 858 1446 
Q 858 819 973 518 
Q 992 467 1033 400 
Q 1075 333 1148 243 
Q 1222 154 1344 96 
Q 1466 38 1606 38 
Q 2035 38 2240 454 
Q 2349 685 2349 1312 
Q 2349 1952 2234 2189 
Q 2035 2586 1638 2586 
Q 1370 2586 1184 2400 
Q 998 2214 928 1968 
Q 858 1722 858 1446 
z
" transform="scale(0.015625)"/>
       </defs>
       <use xlink:href="#CMUSerif-Roman-30"/>
       <use xlink:href="#CMUSerif-Roman-2e" x="49.999985"/>
       <use xlink:href="#CMUSerif-Roman-36" x="77.799973"/>
      </g>
     </g>
    </g>
    <g id="ytick_7">
     <g id="line2d_17">
      <g>
       <use xlink:href="#mfb306c76fc" x="296.16849" y="28.516232" style="stroke: #000000; stroke-width: 0.8"/>
      </g>
     </g>
     <g id="text_18">
      <!-- 0.8 -->
      <g transform="translate(275.110834 32.333575)scale(0.11 -0.11)">
       <use xlink:href="#CMUSerif-Roman-30"/>
       <use xlink:href="#CMUSerif-Roman-2e" x="49.999985"/>
       <use xlink:href="#CMUSerif-Roman-38" x="77.799973"/>
      </g>
     </g>
    </g>
   </g>
   <g id="line2d_18">
    <path d="M 300.225498 95.477184 
L 301.849925 95.365596 
L 302.987024 95.068287 
L 304.124123 94.534705 
L 305.261223 93.750722 
L 306.479543 92.638402 
L 307.860307 91.062469 
L 309.403513 88.954162 
L 311.271604 86.003446 
L 313.627024 81.833138 
L 317.200764 74.992877 
L 323.292367 63.342664 
L 326.460001 57.782643 
L 329.302749 53.228365 
L 331.983054 49.347805 
L 334.582138 45.974812 
L 337.100001 43.064805 
L 339.617863 40.489246 
L 342.135726 38.225268 
L 344.73481 36.187573 
L 347.415115 34.373376 
L 350.176642 32.775119 
L 353.100611 31.345029 
L 356.187023 30.087364 
L 359.517099 28.975584 
L 363.172061 27.997601 
L 367.151909 27.165239 
L 371.700305 26.445883 
L 376.979695 25.843555 
L 381.365649 25.483148 
L 381.365649 25.483148 
" clip-path="url(#p902f2bd16d)" style="fill: none; stroke: #000000; stroke-opacity: 0.8; stroke-width: 1.5; stroke-linecap: square"/>
   </g>
   <g id="line2d_19">
    <path d="M 300.225498 95.477184 
L 301.118933 95.601252 
L 302.418475 96.044887 
L 304.936337 96.920602 
L 306.235879 97.114088 
L 307.4542 97.064089 
L 308.67252 96.777071 
L 309.890841 96.257105 
L 311.190383 95.461844 
L 312.652368 94.300437 
L 314.358016 92.640675 
L 316.388551 90.324762 
L 318.906413 87.09128 
L 322.886261 81.562864 
L 329.140306 72.91068 
L 332.632825 68.479507 
L 335.719237 64.912428 
L 338.643207 61.861924 
L 341.485955 59.206563 
L 344.328703 56.848574 
L 347.171451 54.771677 
L 350.09542 52.906694 
L 353.100611 51.250198 
L 356.268245 49.758926 
L 359.598321 48.438229 
L 363.172061 47.263031 
L 367.070687 46.221531 
L 371.294199 45.325822 
L 376.086259 44.542957 
L 381.365649 43.901852 
L 381.365649 43.901852 
" clip-path="url(#p902f2bd16d)" style="fill: none; stroke: #cccccc; stroke-opacity: 0.8; stroke-width: 1.5; stroke-linecap: square"/>
   </g>
   <g id="line2d_20">
    <path d="M 296.16849 50.836549 
L 385.422656 50.836549 
" clip-path="url(#p902f2bd16d)" style="fill: none; stroke-dasharray: 5.55,2.4; stroke-dashoffset: 0; stroke: #808080; stroke-width: 1.5"/>
   </g>
   <g id="patch_9">
    <path d="M 296.16849 100.705625 
L 296.16849 21.901125 
" style="fill: none; stroke: #000000; stroke-width: 0.8; stroke-linejoin: miter; stroke-linecap: square"/>
   </g>
   <g id="patch_10">
    <path d="M 296.16849 100.705625 
L 385.422656 100.705625 
" style="fill: none; stroke: #000000; stroke-width: 0.8; stroke-linejoin: miter; stroke-linecap: square"/>
   </g>
   <g id="text_19">
    <!-- dy/dt -->
    <g transform="translate(326.908073 15.901125)scale(0.11 -0.11)">
     <defs>
      <path id="CMUSerif-Roman-79" d="M 122 -794 
Q 122 -659 202 -588 
Q 282 -518 390 -518 
Q 506 -518 582 -592 
Q 659 -666 659 -787 
Q 659 -1024 410 -1056 
Q 531 -1171 710 -1171 
Q 902 -1171 1056 -1030 
Q 1210 -890 1277 -755 
Q 1344 -621 1440 -378 
Q 1530 -186 1600 0 
L 640 2336 
Q 576 2490 480 2525 
Q 384 2560 122 2560 
L 122 2758 
Q 410 2739 742 2739 
Q 941 2739 1440 2758 
L 1440 2560 
Q 1082 2560 1082 2394 
Q 1082 2374 1120 2278 
L 1830 557 
L 2477 2131 
Q 2515 2221 2515 2285 
Q 2515 2547 2214 2560 
L 2214 2758 
Q 2637 2739 2771 2739 
Q 3034 2739 3251 2758 
L 3251 2560 
Q 2822 2560 2656 2150 
L 1530 -582 
Q 1222 -1312 710 -1312 
Q 467 -1312 294 -1161 
Q 122 -1011 122 -794 
z
" transform="scale(0.015625)"/>
     </defs>
     <use xlink:href="#CMUSerif-Roman-64"/>
     <use xlink:href="#CMUSerif-Roman-79" x="55.499985"/>
     <use xlink:href="#CMUSerif-Roman-2f" x="108.199982"/>
     <use xlink:href="#CMUSerif-Roman-64" x="158.199966"/>
     <use xlink:href="#CMUSerif-Roman-74" x="213.699951"/>
    </g>
   </g>
   <g id="legend_1">
    <g id="text_20">
     <!-- Input I -->
     <g transform="translate(400.219531 18.834687)scale(0.11 -0.11)">
      <defs>
       <path id="CMUSerif-Roman-49" d="M 179 0 
L 179 198 
L 346 198 
Q 704 198 787 256 
Q 870 314 870 499 
L 870 3872 
Q 870 4058 787 4115 
Q 704 4173 346 4173 
L 179 4173 
L 179 4371 
Q 403 4352 1158 4352 
Q 1907 4352 2131 4371 
L 2131 4173 
L 1965 4173 
Q 1606 4173 1523 4115 
Q 1440 4058 1440 3872 
L 1440 499 
Q 1440 314 1523 256 
Q 1606 198 1965 198 
L 2131 198 
L 2131 0 
Q 1907 19 1152 19 
Q 403 19 179 0 
z
" transform="scale(0.015625)"/>
       <path id="CMUSerif-Roman-6e" d="M 205 0 
L 205 198 
Q 544 198 624 240 
Q 704 282 704 486 
L 704 2202 
Q 704 2438 621 2499 
Q 538 2560 205 2560 
L 205 2758 
L 1107 2829 
L 1107 2157 
Q 1408 2829 2054 2829 
Q 2534 2829 2726 2592 
Q 2867 2432 2896 2253 
Q 2925 2074 2925 1613 
L 2925 390 
Q 2931 256 3033 227 
Q 3136 198 3424 198 
L 3424 0 
Q 2771 19 2707 19 
Q 2656 19 1984 0 
L 1984 198 
Q 2323 198 2403 240 
Q 2483 282 2483 486 
L 2483 1978 
Q 2483 2304 2384 2496 
Q 2285 2688 2010 2688 
Q 1677 2688 1411 2409 
Q 1146 2131 1146 1664 
L 1146 486 
Q 1146 282 1226 240 
Q 1306 198 1645 198 
L 1645 0 
Q 992 19 928 19 
Q 877 19 205 0 
z
" transform="scale(0.015625)"/>
       <path id="CMUSerif-Roman-70" d="M 179 -1043 
Q 518 -1043 598 -1001 
Q 678 -960 678 -755 
L 678 2240 
Q 678 2451 598 2505 
Q 518 2560 179 2560 
L 179 2758 
L 1101 2829 
L 1101 2406 
Q 1485 2829 1997 2829 
Q 2541 2829 2937 2406 
Q 3334 1984 3334 1382 
Q 3334 774 2912 352 
Q 2490 -70 1907 -70 
Q 1587 -70 1372 93 
Q 1158 256 1120 378 
L 1120 320 
L 1120 -755 
Q 1120 -960 1200 -1001 
Q 1280 -1043 1619 -1043 
L 1619 -1242 
Q 947 -1222 896 -1222 
Q 832 -1222 179 -1242 
L 179 -1043 
z
M 1120 730 
Q 1120 634 1133 598 
Q 1146 563 1210 461 
Q 1466 70 1882 70 
Q 2246 70 2524 444 
Q 2803 819 2803 1382 
Q 2803 1920 2550 2294 
Q 2298 2669 1946 2669 
Q 1696 2669 1478 2534 
Q 1261 2400 1120 2157 
L 1120 730 
z
" transform="scale(0.015625)"/>
       <path id="CMUSerif-Roman-20" transform="scale(0.015625)"/>
      </defs>
      <use xlink:href="#CMUSerif-Roman-49"/>
      <use xlink:href="#CMUSerif-Roman-6e" x="36.099991"/>
      <use xlink:href="#CMUSerif-Roman-70" x="91.599976"/>
      <use xlink:href="#CMUSerif-Roman-75" x="147.09996"/>
      <use xlink:href="#CMUSerif-Roman-74" x="202.599945"/>
      <use xlink:href="#CMUSerif-Roman-20" x="241.399933"/>
      <use xlink:href="#CMUSerif-Roman-49" x="274.699921"/>
     </g>
    </g>
    <g id="line2d_21">
     <path d="M 394.422656 29.469375 
L 404.422656 29.469375 
L 414.422656 29.469375 
" style="fill: none; stroke: #000000; stroke-opacity: 0.8; stroke-width: 1.5; stroke-linecap: square"/>
    </g>
    <g id="text_21">
     <!-- 0.65 -->
     <g transform="translate(422.422656 32.969375)scale(0.1 -0.1)">
      <defs>
       <path id="CMUSerif-Roman-35" d="M 320 1030 
Q 320 1222 422 1296 
Q 525 1370 634 1370 
Q 781 1370 867 1277 
Q 954 1184 954 1056 
Q 954 928 867 835 
Q 781 742 634 742 
Q 563 742 525 755 
Q 608 461 867 249 
Q 1126 38 1466 38 
Q 1894 38 2150 454 
Q 2304 723 2304 1331 
Q 2304 1869 2189 2138 
Q 2010 2547 1645 2547 
Q 1126 2547 819 2099 
Q 781 2042 736 2042 
Q 672 2042 659 2077 
Q 646 2112 646 2208 
L 646 4102 
Q 646 4256 710 4256 
Q 736 4256 787 4237 
Q 1190 4058 1638 4058 
Q 2099 4058 2509 4243 
Q 2541 4262 2560 4262 
Q 2624 4262 2624 4192 
Q 2624 4166 2573 4092 
Q 2522 4019 2413 3923 
Q 2304 3827 2163 3737 
Q 2022 3648 1817 3587 
Q 1613 3526 1389 3526 
Q 1120 3526 845 3610 
L 845 2362 
Q 1178 2688 1658 2688 
Q 2170 2688 2522 2275 
Q 2874 1862 2874 1286 
Q 2874 685 2458 272 
Q 2042 -141 1478 -141 
Q 966 -141 643 224 
Q 320 589 320 1030 
z
" transform="scale(0.015625)"/>
      </defs>
      <use xlink:href="#CMUSerif-Roman-30"/>
      <use xlink:href="#CMUSerif-Roman-2e" x="49.999985"/>
      <use xlink:href="#CMUSerif-Roman-36" x="77.799973"/>
      <use xlink:href="#CMUSerif-Roman-35" x="127.799957"/>
     </g>
    </g>
    <g id="line2d_22">
     <path d="M 394.422656 43.41 
L 404.422656 43.41 
L 414.422656 43.41 
" style="fill: none; stroke: #cccccc; stroke-opacity: 0.8; stroke-width: 1.5; stroke-linecap: square"/>
    </g>
    <g id="text_22">
     <!-- 0.75 -->
     <g transform="translate(422.422656 46.91)scale(0.1 -0.1)">
      <use xlink:href="#CMUSerif-Roman-30"/>
      <use xlink:href="#CMUSerif-Roman-2e" x="49.999985"/>
      <use xlink:href="#CMUSerif-Roman-37" x="77.799973"/>
      <use xlink:href="#CMUSerif-Roman-35" x="127.799957"/>
     </g>
    </g>
   </g>
  </g>
 </g>
 <defs>
  <clipPath id="p2b64208f0c">
   <rect x="28.257656" y="21.901125" width="89.254166" height="78.8045"/>
  </clipPath>
  <clipPath id="pa6322366c9">
   <rect x="162.213073" y="21.901125" width="89.254166" height="78.8045"/>
  </clipPath>
  <clipPath id="p902f2bd16d">
   <rect x="296.16849" y="21.901125" width="89.254166" height="78.8045"/>
  </clipPath>
 </defs>
</svg>
