<?xml version="1.0" encoding="utf-8" standalone="no"?>
<!DOCTYPE svg PUBLIC "-//W3C//DTD SVG 1.1//EN"
  "http://www.w3.org/Graphics/SVG/1.1/DTD/svg11.dtd">
<svg xmlns:xlink="http://www.w3.org/1999/xlink" width="451.683594pt" height="137.694375pt" viewBox="0 0 451.683594 137.694375" xmlns="http://www.w3.org/2000/svg" version="1.1">
 <metadata>
  <rdf:RDF xmlns:dc="http://purl.org/dc/elements/1.1/" xmlns:cc="http://creativecommons.org/ns#" xmlns:rdf="http://www.w3.org/1999/02/22-rdf-syntax-ns#">
   <cc:Work>
    <dc:type rdf:resource="http://purl.org/dc/dcmitype/StillImage"/>
    <dc:date>2022-07-28T08:35:13.173032</dc:date>
    <dc:format>image/svg+xml</dc:format>
    <dc:creator>
     <cc:Agent>
      <dc:title>Matplotlib v3.5.1, https://matplotlib.org/</dc:title>
     </cc:Agent>
    </dc:creator>
   </cc:Work>
  </rdf:RDF>
 </metadata>
 <defs>
  <style type="text/css">*{stroke-linejoin: round; stroke-linecap: butt}</style>
 </defs>
 <g id="figure_1">
  <g id="patch_1">
   <path d="M 0 137.694375 
L 451.683594 137.694375 
L 451.683594 0 
L 0 0 
L 0 137.694375 
z
" style="fill: none"/>
  </g>
  <g id="axes_1">
   <g id="patch_2">
    <path d="M 28.257656 99.955625 
L 124.070156 99.955625 
L 124.070156 24.151125 
L 28.257656 24.151125 
z
" style="fill: #ffffff"/>
   </g>
   <g id="matplotlib.axis_1">
    <g id="xtick_1">
     <g id="line2d_1">
      <defs>
       <path id="m396b829537" d="M 0 0 
L 0 3.5 
" style="stroke: #000000; stroke-width: 0.8"/>
      </defs>
      <g>
       <use xlink:href="#m396b829537" x="32.61277" y="99.955625" style="stroke: #000000; stroke-width: 0.8"/>
      </g>
     </g>
     <g id="text_1">
      <!-- 0 -->
      <g transform="translate(29.86277 114.590312)scale(0.11 -0.11)">
       <defs>
        <path id="CMUSerif-Roman-30" d="M 250 2048 
Q 250 2989 486 3501 
Q 819 4262 1600 4262 
Q 1766 4262 1939 4217 
Q 2112 4173 2333 4000 
Q 2554 3827 2688 3546 
Q 2944 3002 2944 2048 
Q 2944 1114 2707 602 
Q 2362 -141 1594 -141 
Q 1306 -141 1014 6 
Q 723 154 538 506 
Q 250 1037 250 2048 
z
M 781 2125 
Q 781 1158 851 774 
Q 928 358 1142 179 
Q 1357 0 1594 0 
Q 1850 0 2064 192 
Q 2278 384 2342 800 
Q 2413 1210 2413 2125 
Q 2413 3014 2349 3373 
Q 2266 3789 2042 3955 
Q 1818 4122 1594 4122 
Q 1510 4122 1420 4096 
Q 1331 4070 1203 4000 
Q 1075 3930 976 3750 
Q 877 3571 832 3302 
Q 781 2957 781 2125 
z
" transform="scale(0.015625)"/>
       </defs>
       <use xlink:href="#CMUSerif-Roman-30"/>
      </g>
     </g>
    </g>
    <g id="xtick_2">
     <g id="line2d_2">
      <g>
       <use xlink:href="#m396b829537" x="119.802232" y="99.955625" style="stroke: #000000; stroke-width: 0.8"/>
      </g>
     </g>
     <g id="text_2">
      <!-- 1000 -->
      <g transform="translate(108.802232 114.590312)scale(0.11 -0.11)">
       <defs>
        <path id="CMUSerif-Roman-31" d="M 570 3654 
L 570 3853 
Q 1338 3853 1734 4262 
Q 1843 4262 1862 4236 
Q 1882 4211 1882 4096 
L 1882 506 
Q 1882 314 1974 256 
Q 2067 198 2477 198 
L 2682 198 
L 2682 0 
Q 2458 19 1645 19 
Q 832 19 608 0 
L 608 198 
L 813 198 
Q 1216 198 1312 256 
Q 1408 314 1408 506 
L 1408 3821 
Q 1075 3654 570 3654 
z
" transform="scale(0.015625)"/>
       </defs>
       <use xlink:href="#CMUSerif-Roman-31"/>
       <use xlink:href="#CMUSerif-Roman-30" x="49.999985"/>
       <use xlink:href="#CMUSerif-Roman-30" x="99.999969"/>
       <use xlink:href="#CMUSerif-Roman-30" x="149.999954"/>
      </g>
     </g>
    </g>
    <g id="text_3">
     <!-- t -->
     <g transform="translate(74.030078 128.359687)scale(0.11 -0.11)">
      <defs>
       <path id="CMUSerif-Roman-74" d="M 122 2560 
L 122 2701 
Q 416 2714 611 2922 
Q 806 3130 873 3386 
Q 941 3642 947 3936 
L 1107 3936 
L 1107 2758 
L 2022 2758 
L 2022 2560 
L 1107 2560 
L 1107 781 
Q 1107 90 1536 90 
Q 1722 90 1843 278 
Q 1965 467 1965 806 
L 1965 1158 
L 2125 1158 
L 2125 794 
Q 2125 448 1965 189 
Q 1805 -70 1491 -70 
Q 1376 -70 1261 -41 
Q 1146 -13 998 64 
Q 851 141 758 329 
Q 666 518 666 794 
L 666 2560 
L 122 2560 
z
" transform="scale(0.015625)"/>
      </defs>
      <use xlink:href="#CMUSerif-Roman-74"/>
     </g>
    </g>
   </g>
   <g id="matplotlib.axis_2">
    <g id="ytick_1">
     <g id="line2d_3">
      <defs>
       <path id="m5a7457c31e" d="M 0 0 
L -3.5 0 
" style="stroke: #000000; stroke-width: 0.8"/>
      </defs>
      <g>
       <use xlink:href="#m5a7457c31e" x="28.257656" y="84.427521" style="stroke: #000000; stroke-width: 0.8"/>
      </g>
     </g>
     <g id="text_4">
      <!-- 0.6 -->
      <g transform="translate(7.2 88.244865)scale(0.11 -0.11)">
       <defs>
        <path id="CMUSerif-Roman-2e" d="M 640 102 
Q 544 205 544 339 
Q 544 474 640 573 
Q 736 672 883 672 
Q 1024 672 1120 579 
Q 1216 486 1216 339 
Q 1216 192 1113 96 
Q 1011 0 883 0 
Q 736 0 640 102 
z
" transform="scale(0.015625)"/>
        <path id="CMUSerif-Roman-36" d="M 269 2022 
Q 269 3027 781 3644 
Q 1293 4262 1952 4262 
Q 2336 4262 2550 4067 
Q 2765 3872 2765 3571 
Q 2765 3405 2669 3334 
Q 2573 3264 2470 3264 
Q 2355 3264 2265 3341 
Q 2176 3418 2176 3558 
Q 2176 3846 2528 3846 
Q 2362 4102 1965 4102 
Q 1843 4102 1718 4067 
Q 1594 4032 1430 3913 
Q 1267 3795 1142 3606 
Q 1018 3418 931 3066 
Q 845 2714 845 2253 
L 845 2099 
Q 1107 2733 1644 2733 
Q 2182 2733 2553 2323 
Q 2925 1914 2925 1306 
Q 2925 685 2537 272 
Q 2150 -141 1606 -141 
Q 1363 -141 1142 -38 
Q 922 64 717 294 
Q 512 525 390 969 
Q 269 1414 269 2022 
z
M 858 1446 
Q 858 819 973 518 
Q 992 467 1033 400 
Q 1075 333 1148 243 
Q 1222 154 1344 96 
Q 1466 38 1606 38 
Q 2035 38 2240 454 
Q 2349 685 2349 1312 
Q 2349 1952 2234 2189 
Q 2035 2586 1638 2586 
Q 1370 2586 1184 2400 
Q 998 2214 928 1968 
Q 858 1722 858 1446 
z
" transform="scale(0.015625)"/>
       </defs>
       <use xlink:href="#CMUSerif-Roman-30"/>
       <use xlink:href="#CMUSerif-Roman-2e" x="49.999985"/>
       <use xlink:href="#CMUSerif-Roman-36" x="77.799973"/>
      </g>
     </g>
    </g>
    <g id="ytick_2">
     <g id="line2d_4">
      <g>
       <use xlink:href="#m5a7457c31e" x="28.257656" y="53.296112" style="stroke: #000000; stroke-width: 0.8"/>
      </g>
     </g>
     <g id="text_5">
      <!-- 0.8 -->
      <g transform="translate(7.2 57.113455)scale(0.11 -0.11)">
       <defs>
        <path id="CMUSerif-Roman-38" d="M 269 966 
Q 269 1683 1190 2144 
Q 794 2413 723 2490 
Q 442 2803 442 3194 
Q 442 3642 781 3952 
Q 1120 4262 1600 4262 
Q 2061 4262 2406 3996 
Q 2752 3731 2752 3309 
Q 2752 2714 1978 2317 
Q 2490 1997 2611 1862 
Q 2925 1517 2925 1075 
Q 2925 563 2531 211 
Q 2138 -141 1594 -141 
Q 1062 -141 665 169 
Q 269 480 269 966 
z
M 589 966 
Q 589 570 886 304 
Q 1184 38 1600 38 
Q 2003 38 2304 268 
Q 2605 499 2605 845 
Q 2605 979 2560 1094 
Q 2515 1210 2425 1302 
Q 2336 1395 2281 1436 
Q 2227 1478 2125 1549 
L 1338 2048 
Q 589 1632 589 966 
z
M 723 3443 
Q 723 3136 1043 2925 
L 1837 2413 
Q 2470 2784 2470 3309 
Q 2470 3648 2211 3875 
Q 1952 4102 1594 4102 
Q 1242 4102 982 3916 
Q 723 3731 723 3443 
z
" transform="scale(0.015625)"/>
       </defs>
       <use xlink:href="#CMUSerif-Roman-30"/>
       <use xlink:href="#CMUSerif-Roman-2e" x="49.999985"/>
       <use xlink:href="#CMUSerif-Roman-38" x="77.799973"/>
      </g>
     </g>
    </g>
   </g>
   <g id="line2d_5">
    <path d="M 32.61277 68.861816 
L 33.746233 75.134125 
L 34.879696 80.132823 
L 35.925969 83.816209 
L 36.972243 86.76607 
L 38.018516 89.114257 
L 39.15198 91.107032 
L 40.285443 92.639305 
L 41.418906 93.805247 
L 42.639558 94.737873 
L 43.9474 95.448339 
L 45.342431 95.955772 
L 46.999031 96.311487 
L 48.917199 96.488634 
L 51.358504 96.479122 
L 54.758893 96.221343 
L 60.774966 95.499728 
L 73.504627 93.970818 
L 82.74671 93.107987 
L 92.860688 92.392915 
L 104.369697 91.807711 
L 118.145632 91.337673 
L 119.715042 91.296242 
L 119.715042 91.296242 
" clip-path="url(#p2d7f16691c)" style="fill: none; stroke: #0000cd; stroke-opacity: 0.8; stroke-width: 1.5; stroke-linecap: square"/>
   </g>
   <g id="line2d_6">
    <path d="M 32.61277 68.861816 
L 33.571854 71.906942 
L 34.530938 74.284019 
L 35.490022 76.112824 
L 36.449106 77.493555 
L 37.40819 78.509378 
L 38.367274 79.228924 
L 39.413548 79.742002 
L 40.547011 80.044302 
L 41.767663 80.141891 
L 43.249884 80.024168 
L 44.993673 79.653311 
L 47.347789 78.904665 
L 51.009746 77.472767 
L 59.554314 74.084357 
L 64.175355 72.524699 
L 68.709207 71.226959 
L 73.417438 70.109127 
L 78.474427 69.138039 
L 84.054552 68.297594 
L 90.332194 67.58374 
L 97.568919 66.991817 
L 106.200676 66.516246 
L 117.099358 66.149583 
L 119.715042 66.088225 
L 119.715042 66.088225 
" clip-path="url(#p2d7f16691c)" style="fill: none; stroke: #0008ff; stroke-opacity: 0.8; stroke-width: 1.5; stroke-linecap: square"/>
   </g>
   <g id="line2d_7">
    <path d="M 32.61277 68.861816 
L 33.484664 69.551534 
L 34.356559 69.968665 
L 35.315643 70.174001 
L 36.361917 70.158356 
L 37.582569 69.898459 
L 39.06479 69.329446 
L 40.895769 68.372879 
L 43.598642 66.684788 
L 52.666346 60.847487 
L 56.241114 58.898467 
L 59.728692 57.252509 
L 63.216271 55.850246 
L 66.878228 54.617026 
L 70.801754 53.533864 
L 75.074038 52.591131 
L 79.782269 51.785078 
L 85.100826 51.104373 
L 91.291278 50.540928 
L 98.789571 50.088782 
L 108.380412 49.744664 
L 119.715042 49.530953 
L 119.715042 49.530953 
" clip-path="url(#p2d7f16691c)" style="fill: none; stroke: #004cff; stroke-opacity: 0.8; stroke-width: 1.5; stroke-linecap: square"/>
   </g>
   <g id="line2d_8">
    <path d="M 32.61277 68.861816 
L 37.059432 63.597109 
L 40.547011 59.806891 
L 43.685832 56.720771 
L 46.650273 54.114684 
L 49.527525 51.876182 
L 52.404778 49.915684 
L 55.369219 48.168579 
L 58.420851 46.633991 
L 61.559671 45.304254 
L 64.96006 44.111058 
L 68.622018 43.069883 
L 72.632733 42.168382 
L 77.079395 41.401666 
L 82.223574 40.748665 
L 88.239646 40.216893 
L 95.650751 39.795037 
L 105.241592 39.483446 
L 119.017526 39.275864 
L 119.715042 39.269646 
L 119.715042 39.269646 
" clip-path="url(#p2d7f16691c)" style="fill: none; stroke: #0090ff; stroke-opacity: 0.8; stroke-width: 1.5; stroke-linecap: square"/>
   </g>
   <g id="line2d_9">
    <path d="M 32.61277 68.861816 
L 34.007801 65.252034 
L 35.490022 62.013998 
L 37.146622 58.939438 
L 38.890411 56.16755 
L 40.808579 53.533596 
L 42.901126 51.042479 
L 45.168052 48.700051 
L 47.522168 46.588091 
L 50.050662 44.625204 
L 52.666346 42.879623 
L 55.369219 41.338569 
L 58.246472 39.951186 
L 61.298103 38.723827 
L 64.611302 37.631209 
L 68.27326 36.663704 
L 72.283975 35.837006 
L 76.817827 35.131154 
L 82.136384 34.534454 
L 88.501215 34.052183 
L 96.522645 33.678435 
L 107.334139 33.412049 
L 119.715042 33.274177 
L 119.715042 33.274177 
" clip-path="url(#p2d7f16691c)" style="fill: none; stroke: #00d4ff; stroke-opacity: 0.8; stroke-width: 1.5; stroke-linecap: square"/>
   </g>
   <g id="line2d_10">
    <path d="M 32.61277 68.861816 
L 33.920612 64.265561 
L 35.228454 60.466651 
L 36.623485 57.09805 
L 38.105706 54.112507 
L 39.675116 51.457477 
L 41.331716 49.082597 
L 43.162695 46.845388 
L 45.168052 44.752082 
L 47.347789 42.804564 
L 49.701904 41.004499 
L 52.230399 39.354771 
L 54.933272 37.859008 
L 57.810524 36.520156 
L 60.949345 35.30842 
L 64.349734 34.238585 
L 68.098881 33.297865 
L 72.283975 32.483571 
L 76.992206 31.797188 
L 82.572331 31.216593 
L 89.28592 30.751394 
L 97.830487 30.394664 
L 109.513875 30.145245 
L 119.715042 30.042106 
L 119.715042 30.042106 
" clip-path="url(#p2d7f16691c)" style="fill: none; stroke: #29ffce; stroke-opacity: 0.8; stroke-width: 1.5; stroke-linecap: square"/>
   </g>
   <g id="line2d_11">
    <path d="M 32.61277 68.861816 
L 33.833422 63.83971 
L 35.141264 59.405507 
L 36.449106 55.769172 
L 37.756948 52.768293 
L 39.15198 50.116164 
L 40.6342 47.777217 
L 42.203611 45.709605 
L 43.9474 43.7828 
L 45.865568 41.999175 
L 47.958115 40.352374 
L 50.312231 38.780116 
L 52.927914 37.299827 
L 55.805167 35.925626 
L 58.943987 34.670191 
L 62.431566 33.518171 
L 66.267902 32.492035 
L 70.452996 31.605458 
L 75.161227 30.83792 
L 80.566974 30.186514 
L 86.931805 29.649394 
L 94.778856 29.220401 
L 104.892834 28.901869 
L 119.366284 28.686886 
L 119.715042 28.68374 
L 119.715042 28.68374 
" clip-path="url(#p2d7f16691c)" style="fill: none; stroke: #60ff97; stroke-opacity: 0.8; stroke-width: 1.5; stroke-linecap: square"/>
   </g>
   <g id="line2d_12">
    <path d="M 32.61277 68.861816 
L 33.920612 63.05215 
L 35.141264 58.572802 
L 36.361917 54.870501 
L 37.582569 51.818937 
L 38.890411 49.139807 
L 40.198253 46.949737 
L 41.593284 45.035792 
L 43.075505 43.369436 
L 44.732105 41.843106 
L 46.563084 40.458614 
L 48.655631 39.154258 
L 51.096936 37.894841 
L 53.974188 36.661656 
L 57.374577 35.449166 
L 61.298103 34.289256 
L 65.744765 33.210881 
L 70.714565 32.240987 
L 76.207501 31.400571 
L 82.397953 30.683168 
L 89.547488 30.084562 
L 98.092056 29.600531 
L 108.816359 29.227291 
L 119.715042 29.010329 
L 119.715042 29.010329 
" clip-path="url(#p2d7f16691c)" style="fill: none; stroke: #97ff60; stroke-opacity: 0.8; stroke-width: 1.5; stroke-linecap: square"/>
   </g>
   <g id="line2d_13">
    <path d="M 32.61277 68.861816 
L 33.920612 62.767242 
L 35.228454 57.717793 
L 36.449106 53.834589 
L 37.669759 50.644191 
L 38.890411 48.042639 
L 40.111064 45.931885 
L 41.418906 44.114527 
L 42.726747 42.664567 
L 44.121779 41.434493 
L 45.691189 40.348306 
L 47.434978 39.413464 
L 49.527525 38.556547 
L 52.05602 37.775493 
L 55.28203 37.02483 
L 59.641503 36.252913 
L 65.744765 35.413071 
L 73.766196 34.542435 
L 83.269847 33.74003 
L 93.994151 33.062414 
L 106.375055 32.508697 
L 119.715042 32.109454 
L 119.715042 32.109454 
" clip-path="url(#p2d7f16691c)" style="fill: none; stroke: #ceff29; stroke-opacity: 0.8; stroke-width: 1.5; stroke-linecap: square"/>
   </g>
   <g id="line2d_14">
    <path d="M 32.61277 68.861816 
L 34.007801 62.214001 
L 35.315643 57.026634 
L 36.623485 52.738883 
L 37.844138 49.45466 
L 39.06479 46.775058 
L 40.285443 44.615401 
L 41.506095 42.895059 
L 42.726747 41.53989 
L 44.034589 40.418388 
L 45.429621 39.522474 
L 46.911842 38.833976 
L 48.568441 38.30553 
L 50.573799 37.909144 
L 53.015104 37.665468 
L 56.241114 37.581108 
L 61.123724 37.699848 
L 72.109596 38.253001 
L 94.342909 39.323861 
L 117.535306 40.202714 
L 119.715042 40.275284 
L 119.715042 40.275284 
" clip-path="url(#p2d7f16691c)" style="fill: none; stroke: #ffe600; stroke-opacity: 0.8; stroke-width: 1.5; stroke-linecap: square"/>
   </g>
   <g id="line2d_15">
    <path d="M 32.61277 68.861816 
L 34.007801 62.103534 
L 35.402833 56.453391 
L 36.710675 52.050079 
L 38.018516 48.415097 
L 39.239169 45.636343 
L 40.459821 43.377488 
L 41.680474 41.569611 
L 42.901126 40.147194 
L 44.121779 39.049529 
L 45.429621 38.171729 
L 46.824652 37.510747 
L 48.306873 37.053742 
L 50.050662 36.761301 
L 52.05602 36.660767 
L 54.584514 36.771294 
L 57.984903 37.158923 
L 63.913787 38.096307 
L 77.689722 40.297235 
L 87.280562 41.576706 
L 97.568919 42.722346 
L 108.903549 43.757814 
L 119.715042 44.564187 
L 119.715042 44.564187 
" clip-path="url(#p2d7f16691c)" style="fill: none; stroke: #ffa700; stroke-opacity: 0.8; stroke-width: 1.5; stroke-linecap: square"/>
   </g>
   <g id="line2d_16">
    <path d="M 32.61277 68.861816 
L 34.007801 62.039436 
L 35.402833 56.292563 
L 36.797864 51.490509 
L 38.105706 47.746816 
L 39.413548 44.652072 
L 40.72139 42.129123 
L 41.942042 40.22576 
L 43.162695 38.700511 
L 44.470537 37.425894 
L 45.778379 36.464801 
L 47.17341 35.724705 
L 48.655631 35.198406 
L 50.312231 34.857526 
L 52.230399 34.705625 
L 54.497325 34.759216 
L 57.461766 35.063458 
L 62.169997 35.797975 
L 74.63809 37.806118 
L 81.962005 38.71458 
L 89.809057 39.460034 
L 98.789571 40.083988 
L 109.426686 40.592783 
L 119.715042 40.920714 
L 119.715042 40.920714 
" clip-path="url(#p2d7f16691c)" style="fill: none; stroke: #ff6800; stroke-opacity: 0.8; stroke-width: 1.5; stroke-linecap: square"/>
   </g>
   <g id="line2d_17">
    <path d="M 32.61277 68.861816 
L 34.007801 62.003012 
L 35.402833 56.197407 
L 36.797864 51.307904 
L 38.192895 47.218856 
L 39.587927 43.830372 
L 40.895769 41.210918 
L 42.203611 39.062606 
L 43.511453 37.323959 
L 44.819295 35.938156 
L 46.214326 34.790223 
L 47.609357 33.927328 
L 49.091578 33.266289 
L 50.748178 32.776222 
L 52.579157 32.46892 
L 54.758893 32.334956 
L 57.461766 32.399107 
L 61.385292 32.736372 
L 80.828542 34.696085 
L 89.198731 35.169936 
L 99.487087 35.520538 
L 113.52459 35.761414 
L 119.715042 35.818941 
L 119.715042 35.818941 
" clip-path="url(#p2d7f16691c)" style="fill: none; stroke: #ff2900; stroke-opacity: 0.8; stroke-width: 1.5; stroke-linecap: square"/>
   </g>
   <g id="line2d_18">
    <path d="M 32.61277 68.861816 
L 34.007801 61.982606 
L 35.402833 56.142774 
L 36.797864 51.199943 
L 38.192895 47.034092 
L 39.587927 43.542872 
L 40.982958 40.637587 
L 42.37799 38.240104 
L 43.773021 36.280703 
L 45.168052 34.69676 
L 46.563084 33.432025 
L 48.045305 32.381886 
L 49.614715 31.541996 
L 51.358504 30.87216 
L 53.276672 30.383528 
L 55.456409 30.061236 
L 58.159282 29.897048 
L 61.73405 29.918511 
L 67.837312 30.215975 
L 81.613247 30.90653 
L 92.686309 31.199927 
L 108.293223 31.370296 
L 119.715042 31.415551 
L 119.715042 31.415551 
" clip-path="url(#p2d7f16691c)" style="fill: none; stroke: #cd0000; stroke-opacity: 0.8; stroke-width: 1.5; stroke-linecap: square"/>
   </g>
   <g id="line2d_19">
    <path d="M 32.61277 68.861816 
L 34.007801 61.971274 
L 35.402833 56.112 
L 36.797864 51.138072 
L 38.192895 46.926096 
L 39.587927 43.371147 
L 40.982958 40.383233 
L 42.37799 37.884415 
L 43.86021 35.689278 
L 45.342431 33.897879 
L 46.824652 32.447538 
L 48.394062 31.222834 
L 50.050662 30.216116 
L 51.794451 29.41285 
L 53.71262 28.768531 
L 55.979546 28.251613 
L 58.595229 27.890216 
L 61.908429 27.667328 
L 66.529471 27.597409 
L 75.422796 27.732806 
L 94.342909 28.000467 
L 119.715042 28.084496 
L 119.715042 28.084496 
" clip-path="url(#p2d7f16691c)" style="fill: none; stroke: #800000; stroke-opacity: 0.8; stroke-width: 1.5; stroke-linecap: square"/>
   </g>
   <g id="patch_3">
    <path d="M 28.257656 99.955625 
L 28.257656 24.151125 
" style="fill: none; stroke: #000000; stroke-width: 0.8; stroke-linejoin: miter; stroke-linecap: square"/>
   </g>
   <g id="patch_4">
    <path d="M 28.257656 99.955625 
L 124.070156 99.955625 
" style="fill: none; stroke: #000000; stroke-width: 0.8; stroke-linejoin: miter; stroke-linecap: square"/>
   </g>
   <g id="text_6">
    <!-- du/dt -->
    <g transform="translate(62.122578 18.151125)scale(0.11 -0.11)">
     <defs>
      <path id="CMUSerif-Roman-64" d="M 218 1376 
Q 218 1984 643 2406 
Q 1069 2829 1645 2829 
Q 2131 2829 2451 2432 
L 2451 3814 
Q 2451 4051 2368 4112 
Q 2285 4173 1952 4173 
L 1952 4371 
L 2874 4442 
L 2874 557 
Q 2874 320 2957 259 
Q 3040 198 3373 198 
L 3373 0 
L 2432 -70 
L 2432 352 
Q 2099 -70 1574 -70 
Q 1024 -70 621 352 
Q 218 774 218 1376 
z
M 749 1370 
Q 749 774 934 480 
Q 1190 70 1606 70 
Q 2080 70 2362 518 
Q 2432 627 2432 755 
L 2432 2067 
Q 2432 2195 2362 2304 
Q 2099 2688 1670 2688 
Q 1222 2688 947 2278 
Q 749 1971 749 1370 
z
" transform="scale(0.015625)"/>
      <path id="CMUSerif-Roman-75" d="M 205 2560 
L 205 2758 
L 1146 2829 
L 1146 704 
Q 1146 550 1158 460 
Q 1171 371 1222 268 
Q 1274 166 1395 118 
Q 1517 70 1709 70 
Q 2054 70 2268 355 
Q 2483 640 2483 1062 
L 2483 2202 
Q 2483 2438 2400 2499 
Q 2317 2560 1984 2560 
L 1984 2758 
L 2925 2829 
L 2925 557 
Q 2925 320 3008 259 
Q 3091 198 3424 198 
L 3424 0 
L 2502 -70 
L 2502 506 
Q 2234 -70 1677 -70 
Q 1395 -70 1203 0 
Q 1011 70 915 160 
Q 819 250 768 422 
Q 717 595 710 700 
Q 704 806 704 1011 
L 704 1971 
Q 704 2406 640 2483 
Q 576 2560 205 2560 
z
" transform="scale(0.015625)"/>
      <path id="CMUSerif-Roman-2f" d="M 365 -1510 
Q 365 -1478 390 -1408 
L 2650 4627 
Q 2650 4634 2666 4669 
Q 2682 4704 2691 4726 
Q 2701 4749 2720 4768 
Q 2739 4787 2765 4787 
Q 2829 4787 2829 4710 
Q 2829 4704 2810 4627 
L 544 -1414 
Q 506 -1523 483 -1555 
Q 461 -1587 422 -1587 
Q 365 -1587 365 -1510 
z
" transform="scale(0.015625)"/>
     </defs>
     <use xlink:href="#CMUSerif-Roman-64"/>
     <use xlink:href="#CMUSerif-Roman-75" x="55.499985"/>
     <use xlink:href="#CMUSerif-Roman-2f" x="110.999969"/>
     <use xlink:href="#CMUSerif-Roman-64" x="160.999954"/>
     <use xlink:href="#CMUSerif-Roman-74" x="216.499939"/>
    </g>
   </g>
  </g>
  <g id="axes_2">
   <g id="patch_5">
    <path d="M 168.771406 99.955625 
L 264.583906 99.955625 
L 264.583906 24.151125 
L 168.771406 24.151125 
z
" style="fill: #ffffff"/>
   </g>
   <g id="matplotlib.axis_3">
    <g id="xtick_3">
     <g id="line2d_20">
      <g>
       <use xlink:href="#m396b829537" x="173.12652" y="99.955625" style="stroke: #000000; stroke-width: 0.8"/>
      </g>
     </g>
     <g id="text_7">
      <!-- 0 -->
      <g transform="translate(170.37652 114.590312)scale(0.11 -0.11)">
       <use xlink:href="#CMUSerif-Roman-30"/>
      </g>
     </g>
    </g>
    <g id="xtick_4">
     <g id="line2d_21">
      <g>
       <use xlink:href="#m396b829537" x="260.315982" y="99.955625" style="stroke: #000000; stroke-width: 0.8"/>
      </g>
     </g>
     <g id="text_8">
      <!-- 1000 -->
      <g transform="translate(249.315982 114.590312)scale(0.11 -0.11)">
       <use xlink:href="#CMUSerif-Roman-31"/>
       <use xlink:href="#CMUSerif-Roman-30" x="49.999985"/>
       <use xlink:href="#CMUSerif-Roman-30" x="99.999969"/>
       <use xlink:href="#CMUSerif-Roman-30" x="149.999954"/>
      </g>
     </g>
    </g>
    <g id="text_9">
     <!-- t -->
     <g transform="translate(214.543828 128.359687)scale(0.11 -0.11)">
      <use xlink:href="#CMUSerif-Roman-74"/>
     </g>
    </g>
   </g>
   <g id="matplotlib.axis_4">
    <g id="ytick_3">
     <g id="line2d_22">
      <g>
       <use xlink:href="#m5a7457c31e" x="168.771406" y="99.630384" style="stroke: #000000; stroke-width: 0.8"/>
      </g>
     </g>
     <g id="text_10">
      <!-- 0.0 -->
      <g transform="translate(147.71375 103.447728)scale(0.11 -0.11)">
       <use xlink:href="#CMUSerif-Roman-30"/>
       <use xlink:href="#CMUSerif-Roman-2e" x="49.999985"/>
       <use xlink:href="#CMUSerif-Roman-30" x="77.799973"/>
      </g>
     </g>
    </g>
    <g id="ytick_4">
     <g id="line2d_23">
      <g>
       <use xlink:href="#m5a7457c31e" x="168.771406" y="62.183817" style="stroke: #000000; stroke-width: 0.8"/>
      </g>
     </g>
     <g id="text_11">
      <!-- 0.5 -->
      <g transform="translate(147.71375 66.001161)scale(0.11 -0.11)">
       <defs>
        <path id="CMUSerif-Roman-35" d="M 320 1030 
Q 320 1222 422 1296 
Q 525 1370 634 1370 
Q 781 1370 867 1277 
Q 954 1184 954 1056 
Q 954 928 867 835 
Q 781 742 634 742 
Q 563 742 525 755 
Q 608 461 867 249 
Q 1126 38 1466 38 
Q 1894 38 2150 454 
Q 2304 723 2304 1331 
Q 2304 1869 2189 2138 
Q 2010 2547 1645 2547 
Q 1126 2547 819 2099 
Q 781 2042 736 2042 
Q 672 2042 659 2077 
Q 646 2112 646 2208 
L 646 4102 
Q 646 4256 710 4256 
Q 736 4256 787 4237 
Q 1190 4058 1638 4058 
Q 2099 4058 2509 4243 
Q 2541 4262 2560 4262 
Q 2624 4262 2624 4192 
Q 2624 4166 2573 4092 
Q 2522 4019 2413 3923 
Q 2304 3827 2163 3737 
Q 2022 3648 1817 3587 
Q 1613 3526 1389 3526 
Q 1120 3526 845 3610 
L 845 2362 
Q 1178 2688 1658 2688 
Q 2170 2688 2522 2275 
Q 2874 1862 2874 1286 
Q 2874 685 2458 272 
Q 2042 -141 1478 -141 
Q 966 -141 643 224 
Q 320 589 320 1030 
z
" transform="scale(0.015625)"/>
       </defs>
       <use xlink:href="#CMUSerif-Roman-30"/>
       <use xlink:href="#CMUSerif-Roman-2e" x="49.999985"/>
       <use xlink:href="#CMUSerif-Roman-35" x="77.799973"/>
      </g>
     </g>
    </g>
    <g id="ytick_5">
     <g id="line2d_24">
      <g>
       <use xlink:href="#m5a7457c31e" x="168.771406" y="24.737249" style="stroke: #000000; stroke-width: 0.8"/>
      </g>
     </g>
     <g id="text_12">
      <!-- 1.0 -->
      <g transform="translate(147.71375 28.554593)scale(0.11 -0.11)">
       <use xlink:href="#CMUSerif-Roman-31"/>
       <use xlink:href="#CMUSerif-Roman-2e" x="49.999985"/>
       <use xlink:href="#CMUSerif-Roman-30" x="77.799973"/>
      </g>
     </g>
    </g>
   </g>
   <g id="line2d_25">
    <path d="M 173.12652 84.651757 
L 174.521551 86.522768 
L 175.916583 88.023025 
L 177.398804 89.280499 
L 178.968214 90.308604 
L 180.624814 91.131588 
L 182.542982 91.834839 
L 184.809908 92.423646 
L 187.68716 92.927457 
L 191.523497 93.356787 
L 197.190812 93.747692 
L 206.607273 94.149805 
L 221.516671 94.550652 
L 241.744627 94.863088 
L 260.228792 95.015316 
L 260.228792 95.015316 
" clip-path="url(#p0871eacb01)" style="fill: none; stroke: #0000cd; stroke-opacity: 0.8; stroke-width: 1.5; stroke-linecap: square"/>
   </g>
   <g id="line2d_26">
    <path d="M 173.12652 84.651757 
L 174.521551 86.294985 
L 176.003772 87.691384 
L 177.573183 88.863552 
L 179.316972 89.88725 
L 181.322329 90.801523 
L 183.676445 91.626474 
L 186.640887 92.416012 
L 190.390034 93.168433 
L 195.185454 93.890824 
L 201.201527 94.56277 
L 208.525442 95.149609 
L 217.418767 95.630137 
L 228.491828 95.996076 
L 243.488416 96.254207 
L 260.228792 96.381674 
L 260.228792 96.381674 
" clip-path="url(#p0871eacb01)" style="fill: none; stroke: #0008ff; stroke-opacity: 0.8; stroke-width: 1.5; stroke-linecap: square"/>
   </g>
   <g id="line2d_27">
    <path d="M 173.12652 84.651757 
L 174.69593 86.070607 
L 176.43972 87.348421 
L 178.445077 88.538132 
L 180.799193 89.667605 
L 183.589256 90.749893 
L 186.902455 91.786781 
L 190.738791 92.748668 
L 195.185454 93.626592 
L 200.242443 94.389823 
L 205.996947 95.027619 
L 212.797725 95.550189 
L 221.167914 95.959373 
L 232.066596 96.256773 
L 248.022268 96.449845 
L 260.228792 96.509966 
L 260.228792 96.509966 
" clip-path="url(#p0871eacb01)" style="fill: none; stroke: #004cff; stroke-opacity: 0.8; stroke-width: 1.5; stroke-linecap: square"/>
   </g>
   <g id="line2d_28">
    <path d="M 173.12652 84.651757 
L 178.096319 87.012069 
L 182.281414 88.759444 
L 186.292129 90.193699 
L 190.302844 91.391095 
L 194.487938 92.406406 
L 199.02179 93.271419 
L 203.99159 93.988889 
L 209.658905 94.579032 
L 216.459683 95.055799 
L 225.00425 95.419895 
L 236.600448 95.675226 
L 254.735856 95.827169 
L 260.228792 95.846704 
L 260.228792 95.846704 
" clip-path="url(#p0871eacb01)" style="fill: none; stroke: #0090ff; stroke-opacity: 0.8; stroke-width: 1.5; stroke-linecap: square"/>
   </g>
   <g id="line2d_29">
    <path d="M 173.12652 84.651757 
L 174.259983 84.459836 
L 175.567825 84.46701 
L 177.224425 84.716074 
L 179.404161 85.29119 
L 182.978929 86.502707 
L 190.128465 88.936759 
L 194.487938 90.160146 
L 198.847411 91.148906 
L 203.468453 91.966147 
L 208.612631 92.645782 
L 214.541514 93.19913 
L 221.69105 93.635624 
L 230.845944 93.961258 
L 243.749984 94.181066 
L 260.228792 94.285153 
L 260.228792 94.285153 
" clip-path="url(#p0871eacb01)" style="fill: none; stroke: #00d4ff; stroke-opacity: 0.8; stroke-width: 1.5; stroke-linecap: square"/>
   </g>
   <g id="line2d_30">
    <path d="M 173.12652 84.651757 
L 174.085604 83.569905 
L 175.044688 82.812979 
L 176.090962 82.276867 
L 177.224425 81.957979 
L 178.532267 81.841468 
L 180.014488 81.940956 
L 181.932656 82.308706 
L 184.635529 83.080048 
L 197.975517 87.20228 
L 202.509369 88.215022 
L 207.304789 89.051814 
L 212.623346 89.745765 
L 218.726609 90.308881 
L 226.050523 90.751743 
L 235.379796 91.081629 
L 248.458215 91.304697 
L 260.228792 91.391252 
L 260.228792 91.391252 
" clip-path="url(#p0871eacb01)" style="fill: none; stroke: #29ffce; stroke-opacity: 0.8; stroke-width: 1.5; stroke-linecap: square"/>
   </g>
   <g id="line2d_31">
    <path d="M 173.12652 84.651757 
L 174.085604 82.468902 
L 175.044688 80.792531 
L 176.003772 79.528297 
L 177.050046 78.526564 
L 178.096319 77.837285 
L 179.229782 77.365322 
L 180.450435 77.101726 
L 181.845466 77.030724 
L 183.502066 77.171268 
L 185.681803 77.594299 
L 188.907813 78.477407 
L 200.591201 81.8552 
L 205.47381 82.945397 
L 210.530799 83.842653 
L 216.023735 84.58669 
L 222.214187 85.196216 
L 229.538102 85.686578 
L 238.605806 86.061341 
L 250.812331 86.328095 
L 260.228792 86.432577 
L 260.228792 86.432577 
" clip-path="url(#p0871eacb01)" style="fill: none; stroke: #60ff97; stroke-opacity: 0.8; stroke-width: 1.5; stroke-linecap: square"/>
   </g>
   <g id="line2d_32">
    <path d="M 173.12652 84.651757 
L 174.172794 81.065618 
L 175.219067 78.226536 
L 176.265341 76.007635 
L 177.311614 74.297088 
L 178.357888 72.999096 
L 179.404161 72.033368 
L 180.537624 71.285606 
L 181.758277 70.751918 
L 183.066119 70.418909 
L 184.635529 70.259438 
L 186.466508 70.304692 
L 188.820623 70.59556 
L 192.221012 71.260298 
L 209.222957 74.879275 
L 215.32622 75.812861 
L 221.865429 76.586621 
L 229.189344 77.225082 
L 237.733911 77.739691 
L 248.196647 78.137209 
L 260.228792 78.397642 
L 260.228792 78.397642 
" clip-path="url(#p0871eacb01)" style="fill: none; stroke: #97ff60; stroke-opacity: 0.8; stroke-width: 1.5; stroke-linecap: square"/>
   </g>
   <g id="line2d_33">
    <path d="M 173.12652 84.651757 
L 174.259983 79.643108 
L 175.393446 75.586078 
L 176.526909 72.334886 
L 177.660372 69.755513 
L 178.793835 67.728575 
L 179.927298 66.150673 
L 181.060761 64.93434 
L 182.281414 63.945818 
L 183.589256 63.175461 
L 184.984287 62.604874 
L 186.640887 62.175308 
L 188.559055 61.914163 
L 191.00036 61.819393 
L 194.313559 61.933233 
L 199.632116 62.367562 
L 220.819156 64.258899 
L 232.328165 64.986157 
L 245.145016 65.566733 
L 260.228792 66.01933 
L 260.228792 66.01933 
" clip-path="url(#p0871eacb01)" style="fill: none; stroke: #ceff29; stroke-opacity: 0.8; stroke-width: 1.5; stroke-linecap: square"/>
   </g>
   <g id="line2d_34">
    <path d="M 173.12652 84.651757 
L 174.347173 78.362109 
L 175.567825 73.183838 
L 176.788477 68.957994 
L 178.00913 65.536766 
L 179.229782 62.785693 
L 180.450435 60.585439 
L 181.671087 58.832637 
L 182.978929 57.351971 
L 184.286771 56.195653 
L 185.768992 55.187336 
L 187.425592 54.345043 
L 189.256571 53.665724 
L 191.523497 53.074001 
L 194.313559 52.584756 
L 198.149896 52.151494 
L 204.078779 51.729372 
L 214.977462 51.209172 
L 234.595091 50.510828 
L 260.228792 49.821931 
L 260.228792 49.821931 
" clip-path="url(#p0871eacb01)" style="fill: none; stroke: #ffe600; stroke-opacity: 0.8; stroke-width: 1.5; stroke-linecap: square"/>
   </g>
   <g id="line2d_35">
    <path d="M 173.12652 84.651757 
L 174.434362 77.284042 
L 175.742204 71.16118 
L 177.050046 66.10718 
L 178.357888 61.961339 
L 179.66573 58.578225 
L 180.973572 55.82817 
L 182.281414 53.597652 
L 183.589256 51.789186 
L 184.984287 50.233032 
L 186.466508 48.911921 
L 188.123108 47.746351 
L 189.954086 46.742467 
L 192.046633 45.857123 
L 194.575128 45.041555 
L 197.713948 44.276312 
L 201.811853 43.519561 
L 207.391979 42.72831 
L 215.064651 41.877981 
L 224.829871 41.026605 
L 236.600448 40.229363 
L 250.550762 39.514664 
L 260.228792 39.128021 
L 260.228792 39.128021 
" clip-path="url(#p0871eacb01)" style="fill: none; stroke: #ffa700; stroke-opacity: 0.8; stroke-width: 1.5; stroke-linecap: square"/>
   </g>
   <g id="line2d_36">
    <path d="M 173.12652 84.651757 
L 174.521551 76.393536 
L 175.829393 69.902477 
L 177.137235 64.452202 
L 178.445077 59.894471 
L 179.752919 56.096911 
L 181.060761 52.941895 
L 182.368603 50.325795 
L 183.763634 48.027803 
L 185.158666 46.146589 
L 186.640887 44.516554 
L 188.210297 43.120354 
L 189.954086 41.878873 
L 191.872254 40.799533 
L 194.051991 39.84122 
L 196.580485 38.98392 
L 199.632116 38.197202 
L 203.381263 37.47215 
L 208.089494 36.796627 
L 214.192757 36.157457 
L 221.952619 35.580051 
L 231.717838 35.086177 
L 244.185931 34.68846 
L 260.228792 34.399961 
L 260.228792 34.399961 
" clip-path="url(#p0871eacb01)" style="fill: none; stroke: #ff6800; stroke-opacity: 0.8; stroke-width: 1.5; stroke-linecap: square"/>
   </g>
   <g id="line2d_37">
    <path d="M 173.12652 84.651757 
L 174.521551 76.131129 
L 175.916583 68.959434 
L 177.311614 62.940597 
L 178.706646 57.903753 
L 180.101677 53.699842 
L 181.496708 50.199004 
L 182.89174 47.28855 
L 184.286771 44.871284 
L 185.768992 42.750498 
L 187.251213 41.008431 
L 188.820623 39.498946 
L 190.477223 38.205819 
L 192.308202 37.059537 
L 194.313559 36.067569 
L 196.580485 35.195949 
L 199.196169 34.430804 
L 202.33499 33.751569 
L 206.171326 33.158497 
L 211.053936 32.642363 
L 217.418767 32.208227 
L 225.963334 31.861444 
L 238.169859 31.604592 
L 257.525919 31.443871 
L 260.228792 31.432887 
L 260.228792 31.432887 
" clip-path="url(#p0871eacb01)" style="fill: none; stroke: #ff2900; stroke-opacity: 0.8; stroke-width: 1.5; stroke-linecap: square"/>
   </g>
   <g id="line2d_38">
    <path d="M 173.12652 84.651757 
L 174.521551 75.981258 
L 175.916583 68.643475 
L 177.311614 62.443952 
L 178.706646 57.215007 
L 180.101677 52.811897 
L 181.496708 49.109693 
L 182.89174 46.00071 
L 184.373961 43.244088 
L 185.856182 40.958086 
L 187.338402 39.062717 
L 188.907813 37.407134 
L 190.564412 35.979957 
L 192.308202 34.764511 
L 194.22637 33.697429 
L 196.318917 32.784778 
L 198.760222 31.971356 
L 201.550285 31.284667 
L 204.863484 30.705141 
L 208.961389 30.223279 
L 214.279946 29.835306 
L 221.603861 29.541452 
L 232.676922 29.341301 
L 252.904878 29.23253 
L 260.228792 29.220342 
L 260.228792 29.220342 
" clip-path="url(#p0871eacb01)" style="fill: none; stroke: #cd0000; stroke-opacity: 0.8; stroke-width: 1.5; stroke-linecap: square"/>
   </g>
   <g id="line2d_39">
    <path d="M 173.12652 84.651757 
L 174.521551 75.897155 
L 175.916583 68.465389 
L 177.311614 62.162546 
L 178.706646 56.82234 
L 180.101677 52.302098 
L 181.496708 48.479391 
L 182.978929 45.064877 
L 184.46115 42.212039 
L 185.943371 39.829898 
L 187.512781 37.735434 
L 189.082192 36.006047 
L 190.738791 34.506422 
L 192.482581 33.222909 
L 194.400749 32.092044 
L 196.493296 31.123443 
L 198.847411 30.288397 
L 201.550285 29.577912 
L 204.689105 28.991715 
L 208.525442 28.511892 
L 213.408051 28.137615 
L 220.12164 27.86338 
L 230.409996 27.688431 
L 250.89952 27.604814 
L 260.228792 27.596784 
L 260.228792 27.596784 
" clip-path="url(#p0871eacb01)" style="fill: none; stroke: #800000; stroke-opacity: 0.8; stroke-width: 1.5; stroke-linecap: square"/>
   </g>
   <g id="patch_6">
    <path d="M 168.771406 99.955625 
L 168.771406 24.151125 
" style="fill: none; stroke: #000000; stroke-width: 0.8; stroke-linejoin: miter; stroke-linecap: square"/>
   </g>
   <g id="patch_7">
    <path d="M 168.771406 99.955625 
L 264.583906 99.955625 
" style="fill: none; stroke: #000000; stroke-width: 0.8; stroke-linejoin: miter; stroke-linecap: square"/>
   </g>
   <g id="text_13">
    <!-- dv/dt -->
    <g transform="translate(202.790156 18.151125)scale(0.11 -0.11)">
     <defs>
      <path id="CMUSerif-Roman-76" d="M 122 2560 
L 122 2758 
Q 410 2739 742 2739 
Q 864 2739 1440 2758 
L 1440 2560 
Q 1075 2560 1075 2394 
Q 1075 2368 1114 2285 
L 1830 499 
L 2483 2131 
Q 2522 2240 2522 2285 
Q 2522 2394 2448 2474 
Q 2374 2554 2214 2560 
L 2214 2758 
Q 2541 2739 2771 2739 
Q 3034 2739 3251 2758 
L 3251 2560 
Q 3059 2560 2924 2473 
Q 2790 2387 2748 2313 
Q 2707 2240 2662 2131 
L 1824 51 
Q 1773 -70 1690 -70 
Q 1632 -70 1609 -48 
Q 1587 -26 1555 51 
L 634 2323 
Q 570 2483 490 2521 
Q 410 2560 122 2560 
z
" transform="scale(0.015625)"/>
     </defs>
     <use xlink:href="#CMUSerif-Roman-64"/>
     <use xlink:href="#CMUSerif-Roman-76" x="55.499985"/>
     <use xlink:href="#CMUSerif-Roman-2f" x="108.199982"/>
     <use xlink:href="#CMUSerif-Roman-64" x="158.199966"/>
     <use xlink:href="#CMUSerif-Roman-74" x="213.699951"/>
    </g>
   </g>
  </g>
  <g id="axes_3">
   <g id="patch_8">
    <path d="M 309.285157 99.955625 
L 405.097656 99.955625 
L 405.097656 24.151125 
L 309.285157 24.151125 
z
" style="fill: #ffffff"/>
   </g>
   <g id="matplotlib.axis_5">
    <g id="xtick_5">
     <g id="line2d_40">
      <g>
       <use xlink:href="#m396b829537" x="313.64027" y="99.955625" style="stroke: #000000; stroke-width: 0.8"/>
      </g>
     </g>
     <g id="text_14">
      <!-- 0 -->
      <g transform="translate(310.89027 114.590312)scale(0.11 -0.11)">
       <use xlink:href="#CMUSerif-Roman-30"/>
      </g>
     </g>
    </g>
    <g id="xtick_6">
     <g id="line2d_41">
      <g>
       <use xlink:href="#m396b829537" x="400.829732" y="99.955625" style="stroke: #000000; stroke-width: 0.8"/>
      </g>
     </g>
     <g id="text_15">
      <!-- 1000 -->
      <g transform="translate(389.829732 114.590312)scale(0.11 -0.11)">
       <use xlink:href="#CMUSerif-Roman-31"/>
       <use xlink:href="#CMUSerif-Roman-30" x="49.999985"/>
       <use xlink:href="#CMUSerif-Roman-30" x="99.999969"/>
       <use xlink:href="#CMUSerif-Roman-30" x="149.999954"/>
      </g>
     </g>
    </g>
    <g id="text_16">
     <!-- t -->
     <g transform="translate(355.057578 128.359687)scale(0.11 -0.11)">
      <use xlink:href="#CMUSerif-Roman-74"/>
     </g>
    </g>
   </g>
   <g id="matplotlib.axis_6">
    <g id="ytick_6">
     <g id="line2d_42">
      <g>
       <use xlink:href="#m5a7457c31e" x="309.285157" y="96.561532" style="stroke: #000000; stroke-width: 0.8"/>
      </g>
     </g>
     <g id="text_17">
      <!-- 0.0 -->
      <g transform="translate(288.2275 100.378876)scale(0.11 -0.11)">
       <use xlink:href="#CMUSerif-Roman-30"/>
       <use xlink:href="#CMUSerif-Roman-2e" x="49.999985"/>
       <use xlink:href="#CMUSerif-Roman-30" x="77.799973"/>
      </g>
     </g>
    </g>
    <g id="ytick_7">
     <g id="line2d_43">
      <g>
       <use xlink:href="#m5a7457c31e" x="309.285157" y="56.247575" style="stroke: #000000; stroke-width: 0.8"/>
      </g>
     </g>
     <g id="text_18">
      <!-- 0.5 -->
      <g transform="translate(288.2275 60.064919)scale(0.11 -0.11)">
       <use xlink:href="#CMUSerif-Roman-30"/>
       <use xlink:href="#CMUSerif-Roman-2e" x="49.999985"/>
       <use xlink:href="#CMUSerif-Roman-35" x="77.799973"/>
      </g>
     </g>
    </g>
   </g>
   <g id="line2d_44">
    <path d="M 313.64027 56.247575 
L 314.860923 56.365586 
L 316.430333 56.76191 
L 319.133206 57.716881 
L 323.231111 59.121842 
L 326.021174 59.835292 
L 328.811237 60.323484 
L 331.862868 60.629488 
L 335.350446 60.749176 
L 339.62273 60.66184 
L 345.464424 60.301331 
L 358.97879 59.163016 
L 371.534073 58.232065 
L 383.566219 57.569601 
L 397.080585 57.055514 
L 400.742543 56.949411 
L 400.742543 56.949411 
" clip-path="url(#pac9b867de0)" style="fill: none; stroke: #0000cd; stroke-opacity: 0.8; stroke-width: 1.5; stroke-linecap: square"/>
   </g>
   <g id="line2d_45">
    <path d="M 313.64027 56.247575 
L 316.779091 56.362374 
L 320.005101 56.38207 
L 322.707974 56.167697 
L 325.498037 55.71902 
L 328.724047 54.965706 
L 332.909141 53.740559 
L 351.306118 48.065463 
L 356.711864 46.781473 
L 362.204801 45.704582 
L 368.046494 44.788116 
L 374.411325 44.017695 
L 381.648051 43.372667 
L 390.105428 42.851426 
L 400.393785 42.449316 
L 400.742543 42.438978 
L 400.742543 42.438978 
" clip-path="url(#pac9b867de0)" style="fill: none; stroke: #0008ff; stroke-opacity: 0.8; stroke-width: 1.5; stroke-linecap: square"/>
   </g>
   <g id="line2d_46">
    <path d="M 313.64027 56.247575 
L 315.471249 56.136432 
L 317.389417 55.7899 
L 319.481964 55.17384 
L 321.83608 54.239025 
L 324.713332 52.843591 
L 328.811237 50.581323 
L 338.576456 45.113328 
L 342.84874 43.022825 
L 346.859455 41.304496 
L 350.87017 39.828682 
L 354.968075 38.559089 
L 359.240359 37.467587 
L 363.8614 36.518562 
L 368.918389 35.709915 
L 374.585704 35.031318 
L 381.212103 34.468443 
L 389.146344 34.024997 
L 399.260322 33.692348 
L 400.742543 33.658505 
L 400.742543 33.658505 
" clip-path="url(#pac9b867de0)" style="fill: none; stroke: #004cff; stroke-opacity: 0.8; stroke-width: 1.5; stroke-linecap: square"/>
   </g>
   <g id="line2d_47">
    <path d="M 313.64027 56.247575 
L 314.948112 56.138885 
L 316.430333 55.782964 
L 318.086933 55.146847 
L 320.005101 54.166204 
L 322.359216 52.706021 
L 325.672416 50.365242 
L 336.30953 42.666133 
L 340.058677 40.327555 
L 343.546256 38.410796 
L 347.033834 36.747135 
L 350.608602 35.292488 
L 354.27056 34.042942 
L 358.194085 32.942649 
L 362.379179 32.001326 
L 367.000221 31.191651 
L 372.231589 30.505422 
L 378.334851 29.937402 
L 385.658766 29.488234 
L 394.988038 29.150623 
L 400.742543 29.024427 
L 400.742543 29.024427 
" clip-path="url(#pac9b867de0)" style="fill: none; stroke: #0090ff; stroke-opacity: 0.8; stroke-width: 1.5; stroke-linecap: square"/>
   </g>
   <g id="line2d_48">
    <path d="M 313.64027 56.247575 
L 314.948112 56.137607 
L 316.343144 55.800503 
L 317.912554 55.19323 
L 319.743533 54.240008 
L 322.010459 52.789178 
L 324.9749 50.604716 
L 337.704562 40.902652 
L 341.19214 38.686695 
L 344.592529 36.790255 
L 347.992918 35.151914 
L 351.480497 33.72356 
L 355.055265 32.499239 
L 358.891601 31.421887 
L 363.076695 30.483517 
L 367.697737 29.682352 
L 372.929104 29.008821 
L 379.032367 28.456363 
L 386.443471 28.020066 
L 395.947122 27.6968 
L 400.742543 27.596784 
L 400.742543 27.596784 
" clip-path="url(#pac9b867de0)" style="fill: none; stroke: #00d4ff; stroke-opacity: 0.8; stroke-width: 1.5; stroke-linecap: square"/>
   </g>
   <g id="line2d_49">
    <path d="M 313.64027 56.247575 
L 315.38406 56.138789 
L 317.127849 55.798529 
L 318.958827 55.199491 
L 320.964185 54.295639 
L 323.318301 52.973088 
L 326.282742 51.032245 
L 331.426921 47.342149 
L 337.181425 43.302925 
L 341.104951 40.822101 
L 344.679719 38.817801 
L 348.167297 37.110505 
L 351.742065 35.608551 
L 355.404023 34.311777 
L 359.240359 33.187929 
L 363.425453 32.198366 
L 367.959305 31.35833 
L 373.103483 30.638815 
L 378.945177 30.051331 
L 385.920334 29.578902 
L 394.72647 29.216138 
L 400.742543 29.06396 
L 400.742543 29.06396 
" clip-path="url(#pac9b867de0)" style="fill: none; stroke: #29ffce; stroke-opacity: 0.8; stroke-width: 1.5; stroke-linecap: square"/>
   </g>
   <g id="line2d_50">
    <path d="M 313.64027 56.247575 
L 319.220396 56.157552 
L 321.312943 55.786724 
L 323.492679 55.162437 
L 325.933984 54.216031 
L 328.811237 52.84805 
L 332.821952 50.669072 
L 343.371877 44.827131 
L 347.64416 42.776993 
L 351.654876 41.095487 
L 355.665591 39.653632 
L 359.763496 38.414881 
L 364.122969 37.331575 
L 368.8312 36.396252 
L 373.975378 35.605147 
L 379.817072 34.938018 
L 386.61785 34.393203 
L 394.900849 33.963694 
L 400.742543 33.765578 
L 400.742543 33.765578 
" clip-path="url(#pac9b867de0)" style="fill: none; stroke: #60ff97; stroke-opacity: 0.8; stroke-width: 1.5; stroke-linecap: square"/>
   </g>
   <g id="line2d_51">
    <path d="M 313.64027 56.247575 
L 314.860923 56.361513 
L 316.691901 56.790139 
L 321.051375 57.876712 
L 323.231111 58.150339 
L 325.410848 58.191928 
L 327.677774 58.005699 
L 330.206268 57.564496 
L 333.17071 56.806372 
L 336.919857 55.601044 
L 343.459066 53.218791 
L 351.131739 50.497941 
L 356.537486 48.819455 
L 361.681664 47.451698 
L 366.913031 46.289849 
L 372.405968 45.29798 
L 378.334851 44.454147 
L 384.96125 43.739426 
L 392.546733 43.15036 
L 400.742543 42.714626 
L 400.742543 42.714626 
" clip-path="url(#pac9b867de0)" style="fill: none; stroke: #97ff60; stroke-opacity: 0.8; stroke-width: 1.5; stroke-linecap: square"/>
   </g>
   <g id="line2d_52">
    <path d="M 313.64027 56.247575 
L 314.512165 56.351249 
L 315.645628 56.73108 
L 317.127849 57.488378 
L 320.266669 59.427101 
L 323.143922 61.070853 
L 325.410848 62.11276 
L 327.677774 62.906234 
L 329.9447 63.466479 
L 332.386005 63.843078 
L 335.088878 64.03534 
L 338.227699 64.031403 
L 342.064035 63.794277 
L 347.208213 63.236308 
L 356.886243 61.91222 
L 369.092768 60.316162 
L 378.683609 59.293787 
L 388.623207 58.462287 
L 399.52189 57.779925 
L 400.742543 57.716235 
L 400.742543 57.716235 
" clip-path="url(#pac9b867de0)" style="fill: none; stroke: #ceff29; stroke-opacity: 0.8; stroke-width: 1.5; stroke-linecap: square"/>
   </g>
   <g id="line2d_53">
    <path d="M 313.64027 56.247575 
L 314.424975 56.358568 
L 315.38406 56.747837 
L 316.517523 57.470706 
L 318.086933 58.76836 
L 321.138564 61.667981 
L 324.364574 64.618236 
L 326.893068 66.626075 
L 329.334373 68.273813 
L 331.775678 69.652741 
L 334.391362 70.870438 
L 337.181425 71.924387 
L 340.320246 72.871671 
L 343.982203 73.737456 
L 348.341676 74.530759 
L 353.747423 75.279371 
L 360.809769 76.022301 
L 370.574989 76.811931 
L 384.263734 77.682902 
L 400.742543 78.530767 
L 400.742543 78.530767 
" clip-path="url(#pac9b867de0)" style="fill: none; stroke: #ffe600; stroke-opacity: 0.8; stroke-width: 1.5; stroke-linecap: square"/>
   </g>
   <g id="line2d_54">
    <path d="M 313.64027 56.247575 
L 314.337786 56.34989 
L 315.209681 56.727852 
L 316.168765 57.39528 
L 317.389417 58.520646 
L 319.133206 60.459252 
L 327.416205 70.108034 
L 329.9447 72.508018 
L 332.473194 74.597965 
L 335.088878 76.467223 
L 337.878941 78.180577 
L 340.843382 79.738923 
L 344.156582 81.224304 
L 347.818539 82.619789 
L 352.003633 83.97278 
L 356.799054 85.285177 
L 362.379179 86.575451 
L 368.8312 87.832533 
L 376.242304 89.044638 
L 384.699682 90.197976 
L 394.290522 91.276909 
L 400.742543 91.892353 
L 400.742543 91.892353 
" clip-path="url(#pac9b867de0)" style="fill: none; stroke: #ffa700; stroke-opacity: 0.8; stroke-width: 1.5; stroke-linecap: square"/>
   </g>
   <g id="line2d_55">
    <path d="M 313.64027 56.247575 
L 314.337786 56.358445 
L 315.122491 56.717094 
L 316.081575 57.425732 
L 317.215038 58.553037 
L 318.784449 60.46084 
L 321.312943 63.9475 
L 325.846795 70.195641 
L 328.462479 73.40931 
L 330.990973 76.162369 
L 333.432278 78.496351 
L 335.960773 80.605814 
L 338.576456 82.496872 
L 341.366519 84.233357 
L 344.330961 85.810712 
L 347.556971 87.267462 
L 351.044549 88.593239 
L 354.880886 89.810229 
L 359.153169 90.928017 
L 363.94859 91.947759 
L 369.354336 92.865682 
L 375.544788 93.686227 
L 382.694324 94.404294 
L 391.151702 95.022501 
L 400.742543 95.510416 
L 400.742543 95.510416 
" clip-path="url(#pac9b867de0)" style="fill: none; stroke: #ff6800; stroke-opacity: 0.8; stroke-width: 1.5; stroke-linecap: square"/>
   </g>
   <g id="line2d_56">
    <path d="M 313.64027 56.247575 
L 314.337786 56.363463 
L 315.122491 56.739396 
L 315.994386 57.406074 
L 317.127849 58.575459 
L 318.61007 60.465468 
L 320.789806 63.654479 
L 326.71869 72.487057 
L 329.247184 75.789114 
L 331.688489 78.615488 
L 334.042604 81.008369 
L 336.483909 83.16894 
L 338.925214 85.035373 
L 341.453709 86.695697 
L 344.156582 88.205242 
L 347.033834 89.556135 
L 350.172655 90.778302 
L 353.573044 91.85915 
L 357.322191 92.814785 
L 361.507285 93.651009 
L 366.302705 94.379837 
L 371.97002 95.007655 
L 378.683609 95.520589 
L 387.053797 95.928912 
L 398.126859 96.233658 
L 400.742543 96.280757 
L 400.742543 96.280757 
" clip-path="url(#pac9b867de0)" style="fill: none; stroke: #ff2900; stroke-opacity: 0.8; stroke-width: 1.5; stroke-linecap: square"/>
   </g>
   <g id="line2d_57">
    <path d="M 313.64027 56.247575 
L 314.337786 56.366321 
L 315.122491 56.752129 
L 315.994386 57.437689 
L 317.127849 58.64332 
L 318.52288 60.474903 
L 320.615427 63.638583 
L 327.329016 74.055968 
L 329.85751 77.441411 
L 332.211626 80.225697 
L 334.478552 82.575894 
L 336.832667 84.694645 
L 339.186783 86.515903 
L 341.628088 88.126184 
L 344.243771 89.578131 
L 346.946645 90.824918 
L 349.911086 91.94432 
L 353.137096 92.920601 
L 356.711864 93.766872 
L 360.809769 94.500683 
L 365.518 95.111289 
L 371.185315 95.612998 
L 378.247661 96.003758 
L 387.664123 96.287399 
L 400.742543 96.459634 
L 400.742543 96.459634 
" clip-path="url(#pac9b867de0)" style="fill: none; stroke: #cd0000; stroke-opacity: 0.8; stroke-width: 1.5; stroke-linecap: square"/>
   </g>
   <g id="line2d_58">
    <path d="M 313.64027 56.247575 
L 314.337786 56.367923 
L 315.122491 56.759273 
L 315.994386 57.455454 
L 317.127849 58.681534 
L 318.52288 60.547716 
L 320.528238 63.638962 
L 327.677774 74.982151 
L 330.119079 78.29732 
L 332.473194 81.116555 
L 334.74012 83.485094 
L 337.007046 85.534646 
L 339.273972 87.293752 
L 341.628088 88.846897 
L 344.156582 90.244347 
L 346.772266 91.437697 
L 349.649518 92.502486 
L 352.788339 93.421914 
L 356.275917 94.208114 
L 360.286632 94.877417 
L 364.994863 95.428649 
L 370.749368 95.866828 
L 378.160472 96.19363 
L 388.536018 96.411729 
L 400.742543 96.509966 
L 400.742543 96.509966 
" clip-path="url(#pac9b867de0)" style="fill: none; stroke: #800000; stroke-opacity: 0.8; stroke-width: 1.5; stroke-linecap: square"/>
   </g>
   <g id="patch_9">
    <path d="M 309.285157 99.955625 
L 309.285157 24.151125 
" style="fill: none; stroke: #000000; stroke-width: 0.8; stroke-linejoin: miter; stroke-linecap: square"/>
   </g>
   <g id="patch_10">
    <path d="M 309.285157 99.955625 
L 405.097656 99.955625 
" style="fill: none; stroke: #000000; stroke-width: 0.8; stroke-linejoin: miter; stroke-linecap: square"/>
   </g>
   <g id="text_19">
    <!-- dy/dt -->
    <g transform="translate(343.303906 18.151125)scale(0.11 -0.11)">
     <defs>
      <path id="CMUSerif-Roman-79" d="M 122 -794 
Q 122 -659 202 -588 
Q 282 -518 390 -518 
Q 506 -518 582 -592 
Q 659 -666 659 -787 
Q 659 -1024 410 -1056 
Q 531 -1171 710 -1171 
Q 902 -1171 1056 -1030 
Q 1210 -890 1277 -755 
Q 1344 -621 1440 -378 
Q 1530 -186 1600 0 
L 640 2336 
Q 576 2490 480 2525 
Q 384 2560 122 2560 
L 122 2758 
Q 410 2739 742 2739 
Q 941 2739 1440 2758 
L 1440 2560 
Q 1082 2560 1082 2394 
Q 1082 2374 1120 2278 
L 1830 557 
L 2477 2131 
Q 2515 2221 2515 2285 
Q 2515 2547 2214 2560 
L 2214 2758 
Q 2637 2739 2771 2739 
Q 3034 2739 3251 2758 
L 3251 2560 
Q 2822 2560 2656 2150 
L 1530 -582 
Q 1222 -1312 710 -1312 
Q 467 -1312 294 -1161 
Q 122 -1011 122 -794 
z
" transform="scale(0.015625)"/>
     </defs>
     <use xlink:href="#CMUSerif-Roman-64"/>
     <use xlink:href="#CMUSerif-Roman-79" x="55.499985"/>
     <use xlink:href="#CMUSerif-Roman-2f" x="108.199982"/>
     <use xlink:href="#CMUSerif-Roman-64" x="158.199966"/>
     <use xlink:href="#CMUSerif-Roman-74" x="213.699951"/>
    </g>
   </g>
   <g id="legend_1">
    <g id="text_20">
     <!-- Input I -->
     <g transform="translate(408.697656 16.434687)scale(0.11 -0.11)">
      <defs>
       <path id="CMUSerif-Roman-49" d="M 179 0 
L 179 198 
L 346 198 
Q 704 198 787 256 
Q 870 314 870 499 
L 870 3872 
Q 870 4058 787 4115 
Q 704 4173 346 4173 
L 179 4173 
L 179 4371 
Q 403 4352 1158 4352 
Q 1907 4352 2131 4371 
L 2131 4173 
L 1965 4173 
Q 1606 4173 1523 4115 
Q 1440 4058 1440 3872 
L 1440 499 
Q 1440 314 1523 256 
Q 1606 198 1965 198 
L 2131 198 
L 2131 0 
Q 1907 19 1152 19 
Q 403 19 179 0 
z
" transform="scale(0.015625)"/>
       <path id="CMUSerif-Roman-6e" d="M 205 0 
L 205 198 
Q 544 198 624 240 
Q 704 282 704 486 
L 704 2202 
Q 704 2438 621 2499 
Q 538 2560 205 2560 
L 205 2758 
L 1107 2829 
L 1107 2157 
Q 1408 2829 2054 2829 
Q 2534 2829 2726 2592 
Q 2867 2432 2896 2253 
Q 2925 2074 2925 1613 
L 2925 390 
Q 2931 256 3033 227 
Q 3136 198 3424 198 
L 3424 0 
Q 2771 19 2707 19 
Q 2656 19 1984 0 
L 1984 198 
Q 2323 198 2403 240 
Q 2483 282 2483 486 
L 2483 1978 
Q 2483 2304 2384 2496 
Q 2285 2688 2010 2688 
Q 1677 2688 1411 2409 
Q 1146 2131 1146 1664 
L 1146 486 
Q 1146 282 1226 240 
Q 1306 198 1645 198 
L 1645 0 
Q 992 19 928 19 
Q 877 19 205 0 
z
" transform="scale(0.015625)"/>
       <path id="CMUSerif-Roman-70" d="M 179 -1043 
Q 518 -1043 598 -1001 
Q 678 -960 678 -755 
L 678 2240 
Q 678 2451 598 2505 
Q 518 2560 179 2560 
L 179 2758 
L 1101 2829 
L 1101 2406 
Q 1485 2829 1997 2829 
Q 2541 2829 2937 2406 
Q 3334 1984 3334 1382 
Q 3334 774 2912 352 
Q 2490 -70 1907 -70 
Q 1587 -70 1372 93 
Q 1158 256 1120 378 
L 1120 320 
L 1120 -755 
Q 1120 -960 1200 -1001 
Q 1280 -1043 1619 -1043 
L 1619 -1242 
Q 947 -1222 896 -1222 
Q 832 -1222 179 -1242 
L 179 -1043 
z
M 1120 730 
Q 1120 634 1133 598 
Q 1146 563 1210 461 
Q 1466 70 1882 70 
Q 2246 70 2524 444 
Q 2803 819 2803 1382 
Q 2803 1920 2550 2294 
Q 2298 2669 1946 2669 
Q 1696 2669 1478 2534 
Q 1261 2400 1120 2157 
L 1120 730 
z
" transform="scale(0.015625)"/>
       <path id="CMUSerif-Roman-20" transform="scale(0.015625)"/>
      </defs>
      <use xlink:href="#CMUSerif-Roman-49"/>
      <use xlink:href="#CMUSerif-Roman-6e" x="36.099991"/>
      <use xlink:href="#CMUSerif-Roman-70" x="91.599976"/>
      <use xlink:href="#CMUSerif-Roman-75" x="147.09996"/>
      <use xlink:href="#CMUSerif-Roman-74" x="202.599945"/>
      <use xlink:href="#CMUSerif-Roman-20" x="241.399933"/>
      <use xlink:href="#CMUSerif-Roman-49" x="274.699921"/>
     </g>
    </g>
    <g id="line2d_59">
     <path d="M 417.634688 21.969375 
L 421.634688 21.969375 
L 425.634688 21.969375 
" style="fill: none; stroke: #0000cd; stroke-opacity: 0.8; stroke-width: 1.5; stroke-linecap: square"/>
    </g>
    <g id="text_21">
     <!-- 0.1 -->
     <g transform="translate(428.834688 23.369375)scale(0.04 -0.04)">
      <use xlink:href="#CMUSerif-Roman-30"/>
      <use xlink:href="#CMUSerif-Roman-2e" x="49.999985"/>
      <use xlink:href="#CMUSerif-Roman-31" x="77.799973"/>
     </g>
    </g>
    <g id="line2d_60">
     <path d="M 417.634688 27.545625 
L 421.634688 27.545625 
L 425.634688 27.545625 
" style="fill: none; stroke: #0008ff; stroke-opacity: 0.8; stroke-width: 1.5; stroke-linecap: square"/>
    </g>
    <g id="text_22">
     <!-- 0.2 -->
     <g transform="translate(428.834688 28.945625)scale(0.04 -0.04)">
      <defs>
       <path id="CMUSerif-Roman-32" d="M 320 0 
Q 320 115 329 150 
Q 339 186 390 237 
L 1619 1606 
Q 2291 2362 2291 3021 
Q 2291 3450 2067 3757 
Q 1843 4064 1434 4064 
Q 1152 4064 915 3891 
Q 678 3718 570 3411 
Q 589 3418 653 3418 
Q 813 3418 902 3318 
Q 992 3219 992 3085 
Q 992 2912 880 2829 
Q 768 2746 659 2746 
Q 614 2746 556 2755 
Q 499 2765 409 2854 
Q 320 2944 320 3104 
Q 320 3552 659 3907 
Q 998 4262 1517 4262 
Q 2106 4262 2490 3913 
Q 2874 3565 2874 3021 
Q 2874 2829 2816 2656 
Q 2758 2483 2681 2348 
Q 2605 2214 2400 2000 
Q 2195 1786 2028 1632 
Q 1862 1478 1491 1152 
L 813 493 
L 1965 493 
Q 2528 493 2573 544 
Q 2637 634 2714 1114 
L 2874 1114 
L 2694 0 
L 320 0 
z
" transform="scale(0.015625)"/>
      </defs>
      <use xlink:href="#CMUSerif-Roman-30"/>
      <use xlink:href="#CMUSerif-Roman-2e" x="49.999985"/>
      <use xlink:href="#CMUSerif-Roman-32" x="77.799973"/>
     </g>
    </g>
    <g id="line2d_61">
     <path d="M 417.634688 33.121875 
L 421.634688 33.121875 
L 425.634688 33.121875 
" style="fill: none; stroke: #004cff; stroke-opacity: 0.8; stroke-width: 1.5; stroke-linecap: square"/>
    </g>
    <g id="text_23">
     <!-- 0.3 -->
     <g transform="translate(428.834688 34.521875)scale(0.04 -0.04)">
      <defs>
       <path id="CMUSerif-Roman-33" d="M 269 864 
Q 269 1056 377 1145 
Q 486 1235 627 1235 
Q 774 1235 880 1139 
Q 986 1043 986 877 
Q 986 698 861 598 
Q 736 499 563 525 
Q 717 269 998 153 
Q 1280 38 1542 38 
Q 1818 38 2042 275 
Q 2266 512 2266 1094 
Q 2266 1587 2074 1872 
Q 1882 2157 1504 2157 
L 1222 2157 
Q 1126 2157 1097 2166 
Q 1069 2176 1069 2227 
Q 1069 2291 1165 2304 
Q 1261 2304 1414 2323 
Q 1786 2336 1984 2656 
Q 2163 2957 2163 3386 
Q 2163 3776 1977 3939 
Q 1792 4102 1549 4102 
Q 1325 4102 1078 4009 
Q 832 3917 698 3706 
Q 1094 3706 1094 3386 
Q 1094 3245 1004 3152 
Q 915 3059 768 3059 
Q 627 3059 534 3148 
Q 442 3238 442 3392 
Q 442 3757 768 4009 
Q 1094 4262 1574 4262 
Q 2048 4262 2400 4012 
Q 2752 3763 2752 3379 
Q 2752 3002 2502 2691 
Q 2253 2381 1856 2253 
Q 2342 2157 2633 1827 
Q 2925 1498 2925 1094 
Q 2925 595 2531 227 
Q 2138 -141 1562 -141 
Q 1030 -141 649 147 
Q 269 435 269 864 
z
" transform="scale(0.015625)"/>
      </defs>
      <use xlink:href="#CMUSerif-Roman-30"/>
      <use xlink:href="#CMUSerif-Roman-2e" x="49.999985"/>
      <use xlink:href="#CMUSerif-Roman-33" x="77.799973"/>
     </g>
    </g>
    <g id="line2d_62">
     <path d="M 417.634688 38.698125 
L 421.634688 38.698125 
L 425.634688 38.698125 
" style="fill: none; stroke: #0090ff; stroke-opacity: 0.8; stroke-width: 1.5; stroke-linecap: square"/>
    </g>
    <g id="text_24">
     <!-- 0.4 -->
     <g transform="translate(428.834688 40.098125)scale(0.04 -0.04)">
      <defs>
       <path id="CMUSerif-Roman-34" d="M 179 1056 
L 179 1254 
L 2144 4256 
Q 2195 4333 2272 4333 
Q 2342 4333 2358 4304 
Q 2374 4275 2374 4166 
L 2374 1254 
L 3014 1254 
L 3014 1056 
L 2374 1056 
L 2374 499 
Q 2374 314 2451 256 
Q 2528 198 2861 198 
L 2995 198 
L 2995 0 
Q 2733 19 2125 19 
Q 1523 19 1261 0 
L 1261 198 
L 1395 198 
Q 1728 198 1805 256 
Q 1882 314 1882 499 
L 1882 1056 
L 179 1056 
z
M 358 1254 
L 1920 1254 
L 1920 3642 
L 358 1254 
z
" transform="scale(0.015625)"/>
      </defs>
      <use xlink:href="#CMUSerif-Roman-30"/>
      <use xlink:href="#CMUSerif-Roman-2e" x="49.999985"/>
      <use xlink:href="#CMUSerif-Roman-34" x="77.799973"/>
     </g>
    </g>
    <g id="line2d_63">
     <path d="M 417.634688 44.274375 
L 421.634688 44.274375 
L 425.634688 44.274375 
" style="fill: none; stroke: #00d4ff; stroke-opacity: 0.8; stroke-width: 1.5; stroke-linecap: square"/>
    </g>
    <g id="text_25">
     <!-- 0.5 -->
     <g transform="translate(428.834688 45.674375)scale(0.04 -0.04)">
      <use xlink:href="#CMUSerif-Roman-30"/>
      <use xlink:href="#CMUSerif-Roman-2e" x="49.999985"/>
      <use xlink:href="#CMUSerif-Roman-35" x="77.799973"/>
     </g>
    </g>
    <g id="line2d_64">
     <path d="M 417.634688 49.850625 
L 421.634688 49.850625 
L 425.634688 49.850625 
" style="fill: none; stroke: #29ffce; stroke-opacity: 0.8; stroke-width: 1.5; stroke-linecap: square"/>
    </g>
    <g id="text_26">
     <!-- 0.6 -->
     <g transform="translate(428.834688 51.250625)scale(0.04 -0.04)">
      <use xlink:href="#CMUSerif-Roman-30"/>
      <use xlink:href="#CMUSerif-Roman-2e" x="49.999985"/>
      <use xlink:href="#CMUSerif-Roman-36" x="77.799973"/>
     </g>
    </g>
    <g id="line2d_65">
     <path d="M 417.634688 55.426875 
L 421.634688 55.426875 
L 425.634688 55.426875 
" style="fill: none; stroke: #60ff97; stroke-opacity: 0.8; stroke-width: 1.5; stroke-linecap: square"/>
    </g>
    <g id="text_27">
     <!-- 0.7 -->
     <g transform="translate(428.834688 56.826875)scale(0.04 -0.04)">
      <defs>
       <path id="CMUSerif-Roman-37" d="M 358 3008 
L 570 4326 
L 730 4326 
Q 749 4250 781 4214 
Q 813 4179 995 4150 
Q 1178 4122 1549 4122 
L 3104 4122 
Q 3104 3974 3046 3898 
L 2182 2682 
Q 1907 2298 1786 1587 
Q 1715 1114 1715 538 
L 1715 211 
Q 1715 -141 1420 -141 
Q 1126 -141 1126 211 
Q 1126 1434 1914 2618 
Q 1997 2739 2307 3174 
Q 2618 3610 2630 3629 
L 1306 3629 
Q 723 3629 678 3590 
Q 614 3533 518 3008 
L 358 3008 
z
" transform="scale(0.015625)"/>
      </defs>
      <use xlink:href="#CMUSerif-Roman-30"/>
      <use xlink:href="#CMUSerif-Roman-2e" x="49.999985"/>
      <use xlink:href="#CMUSerif-Roman-37" x="77.799973"/>
     </g>
    </g>
    <g id="line2d_66">
     <path d="M 417.634688 61.003125 
L 421.634688 61.003125 
L 425.634688 61.003125 
" style="fill: none; stroke: #97ff60; stroke-opacity: 0.8; stroke-width: 1.5; stroke-linecap: square"/>
    </g>
    <g id="text_28">
     <!-- 0.8 -->
     <g transform="translate(428.834688 62.403125)scale(0.04 -0.04)">
      <use xlink:href="#CMUSerif-Roman-30"/>
      <use xlink:href="#CMUSerif-Roman-2e" x="49.999985"/>
      <use xlink:href="#CMUSerif-Roman-38" x="77.799973"/>
     </g>
    </g>
    <g id="line2d_67">
     <path d="M 417.634688 66.579375 
L 421.634688 66.579375 
L 425.634688 66.579375 
" style="fill: none; stroke: #ceff29; stroke-opacity: 0.8; stroke-width: 1.5; stroke-linecap: square"/>
    </g>
    <g id="text_29">
     <!-- 0.9 -->
     <g transform="translate(428.834688 67.979375)scale(0.04 -0.04)">
      <defs>
       <path id="CMUSerif-Roman-39" d="M 269 2822 
Q 269 3162 368 3395 
Q 467 3629 678 3859 
Q 1062 4262 1619 4262 
Q 1856 4262 2067 4163 
Q 2278 4064 2480 3837 
Q 2682 3610 2803 3165 
Q 2925 2720 2925 2106 
Q 2925 1114 2445 486 
Q 1965 -141 1318 -141 
Q 909 -141 669 44 
Q 429 230 429 550 
Q 429 717 521 787 
Q 614 858 723 858 
Q 838 858 928 781 
Q 1018 704 1018 563 
Q 1018 448 944 358 
Q 870 269 685 269 
Q 870 38 1312 38 
Q 1472 38 1632 112 
Q 1792 186 1965 365 
Q 2138 544 2243 921 
Q 2349 1299 2349 1830 
L 2349 2035 
Q 2093 1395 1549 1395 
Q 1011 1395 640 1808 
Q 269 2221 269 2822 
z
M 845 2816 
Q 845 2182 960 1946 
Q 1158 1542 1555 1542 
Q 1946 1542 2141 1891 
Q 2336 2240 2336 2694 
Q 2336 3322 2234 3597 
Q 2042 4102 1619 4102 
Q 1197 4102 979 3699 
Q 845 3462 845 2816 
z
" transform="scale(0.015625)"/>
      </defs>
      <use xlink:href="#CMUSerif-Roman-30"/>
      <use xlink:href="#CMUSerif-Roman-2e" x="49.999985"/>
      <use xlink:href="#CMUSerif-Roman-39" x="77.799973"/>
     </g>
    </g>
    <g id="line2d_68">
     <path d="M 417.634688 72.155625 
L 421.634688 72.155625 
L 425.634688 72.155625 
" style="fill: none; stroke: #ffe600; stroke-opacity: 0.8; stroke-width: 1.5; stroke-linecap: square"/>
    </g>
    <g id="text_30">
     <!-- 1.0 -->
     <g transform="translate(428.834688 73.555625)scale(0.04 -0.04)">
      <use xlink:href="#CMUSerif-Roman-31"/>
      <use xlink:href="#CMUSerif-Roman-2e" x="49.999985"/>
      <use xlink:href="#CMUSerif-Roman-30" x="77.799973"/>
     </g>
    </g>
    <g id="line2d_69">
     <path d="M 417.634688 77.731875 
L 421.634688 77.731875 
L 425.634688 77.731875 
" style="fill: none; stroke: #ffa700; stroke-opacity: 0.8; stroke-width: 1.5; stroke-linecap: square"/>
    </g>
    <g id="text_31">
     <!-- 1.1 -->
     <g transform="translate(428.834688 79.131875)scale(0.04 -0.04)">
      <use xlink:href="#CMUSerif-Roman-31"/>
      <use xlink:href="#CMUSerif-Roman-2e" x="49.999985"/>
      <use xlink:href="#CMUSerif-Roman-31" x="77.799973"/>
     </g>
    </g>
    <g id="line2d_70">
     <path d="M 417.634688 83.308125 
L 421.634688 83.308125 
L 425.634688 83.308125 
" style="fill: none; stroke: #ff6800; stroke-opacity: 0.8; stroke-width: 1.5; stroke-linecap: square"/>
    </g>
    <g id="text_32">
     <!-- 1.2 -->
     <g transform="translate(428.834688 84.708125)scale(0.04 -0.04)">
      <use xlink:href="#CMUSerif-Roman-31"/>
      <use xlink:href="#CMUSerif-Roman-2e" x="49.999985"/>
      <use xlink:href="#CMUSerif-Roman-32" x="77.799973"/>
     </g>
    </g>
    <g id="line2d_71">
     <path d="M 417.634688 88.884375 
L 421.634688 88.884375 
L 425.634688 88.884375 
" style="fill: none; stroke: #ff2900; stroke-opacity: 0.8; stroke-width: 1.5; stroke-linecap: square"/>
    </g>
    <g id="text_33">
     <!-- 1.3 -->
     <g transform="translate(428.834688 90.284375)scale(0.04 -0.04)">
      <use xlink:href="#CMUSerif-Roman-31"/>
      <use xlink:href="#CMUSerif-Roman-2e" x="49.999985"/>
      <use xlink:href="#CMUSerif-Roman-33" x="77.799973"/>
     </g>
    </g>
    <g id="line2d_72">
     <path d="M 417.634688 94.460625 
L 421.634688 94.460625 
L 425.634688 94.460625 
" style="fill: none; stroke: #cd0000; stroke-opacity: 0.8; stroke-width: 1.5; stroke-linecap: square"/>
    </g>
    <g id="text_34">
     <!-- 1.4 -->
     <g transform="translate(428.834688 95.860625)scale(0.04 -0.04)">
      <use xlink:href="#CMUSerif-Roman-31"/>
      <use xlink:href="#CMUSerif-Roman-2e" x="49.999985"/>
      <use xlink:href="#CMUSerif-Roman-34" x="77.799973"/>
     </g>
    </g>
    <g id="line2d_73">
     <path d="M 417.634688 100.036875 
L 421.634688 100.036875 
L 425.634688 100.036875 
" style="fill: none; stroke: #800000; stroke-opacity: 0.8; stroke-width: 1.5; stroke-linecap: square"/>
    </g>
    <g id="text_35">
     <!-- 1.5 -->
     <g transform="translate(428.834688 101.436875)scale(0.04 -0.04)">
      <use xlink:href="#CMUSerif-Roman-31"/>
      <use xlink:href="#CMUSerif-Roman-2e" x="49.999985"/>
      <use xlink:href="#CMUSerif-Roman-35" x="77.799973"/>
     </g>
    </g>
   </g>
  </g>
 </g>
 <defs>
  <clipPath id="p2d7f16691c">
   <rect x="28.257656" y="24.151125" width="95.8125" height="75.8045"/>
  </clipPath>
  <clipPath id="p0871eacb01">
   <rect x="168.771406" y="24.151125" width="95.8125" height="75.8045"/>
  </clipPath>
  <clipPath id="pac9b867de0">
   <rect x="309.285157" y="24.151125" width="95.8125" height="75.8045"/>
  </clipPath>
 </defs>
</svg>
