<?xml version="1.0" encoding="utf-8" standalone="no"?>
<!DOCTYPE svg PUBLIC "-//W3C//DTD SVG 1.1//EN"
  "http://www.w3.org/Graphics/SVG/1.1/DTD/svg11.dtd">
<svg xmlns:xlink="http://www.w3.org/1999/xlink" width="451.683594pt" height="137.323437pt" viewBox="0 0 451.683594 137.323437" xmlns="http://www.w3.org/2000/svg" version="1.1">
 <metadata>
  <rdf:RDF xmlns:dc="http://purl.org/dc/elements/1.1/" xmlns:cc="http://creativecommons.org/ns#" xmlns:rdf="http://www.w3.org/1999/02/22-rdf-syntax-ns#">
   <cc:Work>
    <dc:type rdf:resource="http://purl.org/dc/dcmitype/StillImage"/>
    <dc:date>2022-08-02T15:14:02.157815</dc:date>
    <dc:format>image/svg+xml</dc:format>
    <dc:creator>
     <cc:Agent>
      <dc:title>Matplotlib v3.5.1, https://matplotlib.org/</dc:title>
     </cc:Agent>
    </dc:creator>
   </cc:Work>
  </rdf:RDF>
 </metadata>
 <defs>
  <style type="text/css">*{stroke-linejoin: round; stroke-linecap: butt}</style>
 </defs>
 <g id="figure_1">
  <g id="patch_1">
   <path d="M 0 137.323437 
L 451.683594 137.323437 
L 451.683594 0 
L 0 0 
L 0 137.323437 
z
" style="fill: none"/>
  </g>
  <g id="axes_1">
   <g id="patch_2">
    <path d="M 28.257656 98.354062 
L 124.070156 98.354062 
L 124.070156 23.830812 
L 28.257656 23.830812 
z
" style="fill: #ffffff"/>
   </g>
   <g id="matplotlib.axis_1">
    <g id="xtick_1">
     <g id="line2d_1">
      <defs>
       <path id="mb7979cf044" d="M 0 0 
L 0 3.5 
" style="stroke: #000000; stroke-width: 0.8"/>
      </defs>
      <g>
       <use xlink:href="#mb7979cf044" x="32.61277" y="98.354062" style="stroke: #000000; stroke-width: 0.8"/>
      </g>
     </g>
     <g id="text_1">
      <!-- 0 -->
      <g transform="translate(29.86277 112.98875)scale(0.11 -0.11)">
       <defs>
        <path id="CMUSerif-Roman-30" d="M 250 2048 
Q 250 2989 486 3501 
Q 819 4262 1600 4262 
Q 1766 4262 1939 4217 
Q 2112 4173 2333 4000 
Q 2554 3827 2688 3546 
Q 2944 3002 2944 2048 
Q 2944 1114 2707 602 
Q 2362 -141 1594 -141 
Q 1306 -141 1014 6 
Q 723 154 538 506 
Q 250 1037 250 2048 
z
M 781 2125 
Q 781 1158 851 774 
Q 928 358 1142 179 
Q 1357 0 1594 0 
Q 1850 0 2064 192 
Q 2278 384 2342 800 
Q 2413 1210 2413 2125 
Q 2413 3014 2349 3373 
Q 2266 3789 2042 3955 
Q 1818 4122 1594 4122 
Q 1510 4122 1420 4096 
Q 1331 4070 1203 4000 
Q 1075 3930 976 3750 
Q 877 3571 832 3302 
Q 781 2957 781 2125 
z
" transform="scale(0.015625)"/>
       </defs>
       <use xlink:href="#CMUSerif-Roman-30"/>
      </g>
     </g>
    </g>
    <g id="xtick_2">
     <g id="line2d_2">
      <g>
       <use xlink:href="#mb7979cf044" x="119.802232" y="98.354062" style="stroke: #000000; stroke-width: 0.8"/>
      </g>
     </g>
     <g id="text_2">
      <!-- 1000 -->
      <g transform="translate(108.802232 112.98875)scale(0.11 -0.11)">
       <defs>
        <path id="CMUSerif-Roman-31" d="M 570 3654 
L 570 3853 
Q 1338 3853 1734 4262 
Q 1843 4262 1862 4236 
Q 1882 4211 1882 4096 
L 1882 506 
Q 1882 314 1974 256 
Q 2067 198 2477 198 
L 2682 198 
L 2682 0 
Q 2458 19 1645 19 
Q 832 19 608 0 
L 608 198 
L 813 198 
Q 1216 198 1312 256 
Q 1408 314 1408 506 
L 1408 3821 
Q 1075 3654 570 3654 
z
" transform="scale(0.015625)"/>
       </defs>
       <use xlink:href="#CMUSerif-Roman-31"/>
       <use xlink:href="#CMUSerif-Roman-30" x="49.999985"/>
       <use xlink:href="#CMUSerif-Roman-30" x="99.999969"/>
       <use xlink:href="#CMUSerif-Roman-30" x="149.999954"/>
      </g>
     </g>
    </g>
    <g id="text_3">
     <!-- time [ms] -->
     <g transform="translate(53.845078 127.373437)scale(0.11 -0.11)">
      <defs>
       <path id="CMUSerif-Roman-74" d="M 122 2560 
L 122 2701 
Q 416 2714 611 2922 
Q 806 3130 873 3386 
Q 941 3642 947 3936 
L 1107 3936 
L 1107 2758 
L 2022 2758 
L 2022 2560 
L 1107 2560 
L 1107 781 
Q 1107 90 1536 90 
Q 1722 90 1843 278 
Q 1965 467 1965 806 
L 1965 1158 
L 2125 1158 
L 2125 794 
Q 2125 448 1965 189 
Q 1805 -70 1491 -70 
Q 1376 -70 1261 -41 
Q 1146 -13 998 64 
Q 851 141 758 329 
Q 666 518 666 794 
L 666 2560 
L 122 2560 
z
" transform="scale(0.015625)"/>
       <path id="CMUSerif-Roman-69" d="M 211 0 
L 211 198 
Q 550 198 630 240 
Q 710 282 710 486 
L 710 2208 
Q 710 2445 630 2502 
Q 550 2560 237 2560 
L 237 2758 
L 1133 2829 
L 1133 480 
Q 1133 288 1200 243 
Q 1267 198 1581 198 
L 1581 0 
Q 928 19 915 19 
Q 826 19 211 0 
z
M 480 3942 
Q 480 4070 579 4176 
Q 678 4282 819 4282 
Q 960 4282 1059 4186 
Q 1158 4090 1158 3942 
Q 1158 3795 1059 3699 
Q 960 3603 819 3603 
Q 672 3603 576 3705 
Q 480 3808 480 3942 
z
" transform="scale(0.015625)"/>
       <path id="CMUSerif-Roman-6d" d="M 205 0 
L 205 198 
Q 544 198 624 240 
Q 704 282 704 486 
L 704 2202 
Q 704 2438 621 2499 
Q 538 2560 205 2560 
L 205 2758 
L 1107 2829 
L 1107 2157 
Q 1408 2829 2054 2829 
Q 2803 2829 2906 2202 
Q 3014 2445 3244 2637 
Q 3475 2829 3834 2829 
Q 4314 2829 4506 2592 
Q 4646 2432 4675 2253 
Q 4704 2074 4704 1613 
L 4704 390 
Q 4710 256 4812 227 
Q 4915 198 5203 198 
L 5203 0 
Q 4550 19 4486 19 
Q 4435 19 3763 0 
L 3763 198 
Q 4102 198 4182 240 
Q 4262 282 4262 486 
L 4262 1978 
Q 4262 2304 4163 2496 
Q 4064 2688 3789 2688 
Q 3456 2688 3190 2409 
Q 2925 2131 2925 1664 
L 2925 486 
Q 2925 282 3005 240 
Q 3085 198 3424 198 
L 3424 0 
Q 2771 19 2707 19 
Q 2656 19 1984 0 
L 1984 198 
Q 2323 198 2403 240 
Q 2483 282 2483 486 
L 2483 1978 
Q 2483 2304 2384 2496 
Q 2285 2688 2010 2688 
Q 1677 2688 1411 2409 
Q 1146 2131 1146 1664 
L 1146 486 
Q 1146 282 1226 240 
Q 1306 198 1645 198 
L 1645 0 
Q 992 19 928 19 
Q 877 19 205 0 
z
" transform="scale(0.015625)"/>
       <path id="CMUSerif-Roman-65" d="M 179 1408 
Q 179 2010 566 2438 
Q 954 2867 1510 2867 
Q 2074 2867 2365 2502 
Q 2656 2138 2656 1613 
Q 2656 1517 2630 1497 
Q 2605 1478 2496 1478 
L 710 1478 
Q 710 826 902 518 
Q 1171 90 1626 90 
Q 1690 90 1763 102 
Q 1837 115 1990 169 
Q 2144 224 2278 371 
Q 2413 518 2490 749 
Q 2509 838 2573 838 
Q 2656 838 2656 762 
Q 2656 704 2595 579 
Q 2534 454 2419 304 
Q 2304 154 2080 42 
Q 1856 -70 1587 -70 
Q 1024 -70 601 355 
Q 179 781 179 1408 
z
M 717 1613 
L 2234 1613 
Q 2234 1747 2211 1897 
Q 2189 2048 2121 2256 
Q 2054 2464 1897 2595 
Q 1741 2726 1510 2726 
Q 1408 2726 1296 2681 
Q 1184 2637 1049 2531 
Q 915 2426 822 2186 
Q 730 1946 717 1613 
z
" transform="scale(0.015625)"/>
       <path id="CMUSerif-Roman-20" transform="scale(0.015625)"/>
       <path id="CMUSerif-Roman-5b" d="M 666 -1600 
L 666 4800 
L 1632 4800 
L 1632 4653 
L 1094 4653 
L 1094 -1453 
L 1632 -1453 
L 1632 -1600 
L 666 -1600 
z
" transform="scale(0.015625)"/>
       <path id="CMUSerif-Roman-73" d="M 211 83 
L 211 928 
Q 211 998 214 1024 
Q 218 1050 237 1069 
Q 256 1088 294 1088 
Q 339 1088 355 1069 
Q 371 1050 384 979 
Q 480 538 688 304 
Q 896 70 1274 70 
Q 1632 70 1814 230 
Q 1997 390 1997 653 
Q 1997 1120 1331 1242 
Q 947 1318 787 1369 
Q 627 1421 486 1536 
Q 211 1760 211 2080 
Q 211 2400 454 2633 
Q 698 2867 1235 2867 
Q 1594 2867 1837 2688 
Q 1907 2746 1946 2790 
Q 2029 2867 2074 2867 
Q 2125 2867 2134 2835 
Q 2144 2803 2144 2714 
L 2144 2067 
Q 2144 1997 2141 1971 
Q 2138 1946 2118 1930 
Q 2099 1914 2061 1914 
Q 1990 1914 1984 1971 
Q 1933 2746 1235 2746 
Q 858 2746 688 2602 
Q 518 2458 518 2259 
Q 518 2150 569 2067 
Q 621 1984 688 1936 
Q 755 1888 880 1843 
Q 1005 1798 1081 1782 
Q 1158 1766 1306 1734 
Q 1818 1638 2035 1427 
Q 2304 1158 2304 819 
Q 2304 442 2048 186 
Q 1792 -70 1274 -70 
Q 858 -70 570 205 
Q 531 166 502 134 
Q 474 102 464 89 
Q 454 77 451 70 
Q 448 64 442 58 
Q 314 -70 282 -70 
Q 230 -70 220 -38 
Q 211 -6 211 83 
z
" transform="scale(0.015625)"/>
       <path id="CMUSerif-Roman-5d" d="M 134 -1453 
L 672 -1453 
L 672 4653 
L 134 4653 
L 134 4800 
L 1101 4800 
L 1101 -1600 
L 134 -1600 
L 134 -1453 
z
" transform="scale(0.015625)"/>
      </defs>
      <use xlink:href="#CMUSerif-Roman-74"/>
      <use xlink:href="#CMUSerif-Roman-69" x="38.799988"/>
      <use xlink:href="#CMUSerif-Roman-6d" x="66.499985"/>
      <use xlink:href="#CMUSerif-Roman-65" x="149.799973"/>
      <use xlink:href="#CMUSerif-Roman-20" x="194.199966"/>
      <use xlink:href="#CMUSerif-Roman-5b" x="227.499954"/>
      <use xlink:href="#CMUSerif-Roman-6d" x="255.299942"/>
      <use xlink:href="#CMUSerif-Roman-73" x="338.59993"/>
      <use xlink:href="#CMUSerif-Roman-5d" x="377.999924"/>
     </g>
    </g>
   </g>
   <g id="matplotlib.axis_2">
    <g id="ytick_1">
     <g id="line2d_3">
      <defs>
       <path id="m83fb24d55f" d="M 0 0 
L -3.5 0 
" style="stroke: #000000; stroke-width: 0.8"/>
      </defs>
      <g>
       <use xlink:href="#m83fb24d55f" x="28.257656" y="83.088415" style="stroke: #000000; stroke-width: 0.8"/>
      </g>
     </g>
     <g id="text_4">
      <!-- 0.6 -->
      <g transform="translate(7.2 86.905759)scale(0.11 -0.11)">
       <defs>
        <path id="CMUSerif-Roman-2e" d="M 640 102 
Q 544 205 544 339 
Q 544 474 640 573 
Q 736 672 883 672 
Q 1024 672 1120 579 
Q 1216 486 1216 339 
Q 1216 192 1113 96 
Q 1011 0 883 0 
Q 736 0 640 102 
z
" transform="scale(0.015625)"/>
        <path id="CMUSerif-Roman-36" d="M 269 2022 
Q 269 3027 781 3644 
Q 1293 4262 1952 4262 
Q 2336 4262 2550 4067 
Q 2765 3872 2765 3571 
Q 2765 3405 2669 3334 
Q 2573 3264 2470 3264 
Q 2355 3264 2265 3341 
Q 2176 3418 2176 3558 
Q 2176 3846 2528 3846 
Q 2362 4102 1965 4102 
Q 1843 4102 1718 4067 
Q 1594 4032 1430 3913 
Q 1267 3795 1142 3606 
Q 1018 3418 931 3066 
Q 845 2714 845 2253 
L 845 2099 
Q 1107 2733 1644 2733 
Q 2182 2733 2553 2323 
Q 2925 1914 2925 1306 
Q 2925 685 2537 272 
Q 2150 -141 1606 -141 
Q 1363 -141 1142 -38 
Q 922 64 717 294 
Q 512 525 390 969 
Q 269 1414 269 2022 
z
M 858 1446 
Q 858 819 973 518 
Q 992 467 1033 400 
Q 1075 333 1148 243 
Q 1222 154 1344 96 
Q 1466 38 1606 38 
Q 2035 38 2240 454 
Q 2349 685 2349 1312 
Q 2349 1952 2234 2189 
Q 2035 2586 1638 2586 
Q 1370 2586 1184 2400 
Q 998 2214 928 1968 
Q 858 1722 858 1446 
z
" transform="scale(0.015625)"/>
       </defs>
       <use xlink:href="#CMUSerif-Roman-30"/>
       <use xlink:href="#CMUSerif-Roman-2e" x="49.999985"/>
       <use xlink:href="#CMUSerif-Roman-36" x="77.799973"/>
      </g>
     </g>
    </g>
    <g id="ytick_2">
     <g id="line2d_4">
      <g>
       <use xlink:href="#m83fb24d55f" x="28.257656" y="52.48319" style="stroke: #000000; stroke-width: 0.8"/>
      </g>
     </g>
     <g id="text_5">
      <!-- 0.8 -->
      <g transform="translate(7.2 56.300533)scale(0.11 -0.11)">
       <defs>
        <path id="CMUSerif-Roman-38" d="M 269 966 
Q 269 1683 1190 2144 
Q 794 2413 723 2490 
Q 442 2803 442 3194 
Q 442 3642 781 3952 
Q 1120 4262 1600 4262 
Q 2061 4262 2406 3996 
Q 2752 3731 2752 3309 
Q 2752 2714 1978 2317 
Q 2490 1997 2611 1862 
Q 2925 1517 2925 1075 
Q 2925 563 2531 211 
Q 2138 -141 1594 -141 
Q 1062 -141 665 169 
Q 269 480 269 966 
z
M 589 966 
Q 589 570 886 304 
Q 1184 38 1600 38 
Q 2003 38 2304 268 
Q 2605 499 2605 845 
Q 2605 979 2560 1094 
Q 2515 1210 2425 1302 
Q 2336 1395 2281 1436 
Q 2227 1478 2125 1549 
L 1338 2048 
Q 589 1632 589 966 
z
M 723 3443 
Q 723 3136 1043 2925 
L 1837 2413 
Q 2470 2784 2470 3309 
Q 2470 3648 2211 3875 
Q 1952 4102 1594 4102 
Q 1242 4102 982 3916 
Q 723 3731 723 3443 
z
" transform="scale(0.015625)"/>
       </defs>
       <use xlink:href="#CMUSerif-Roman-30"/>
       <use xlink:href="#CMUSerif-Roman-2e" x="49.999985"/>
       <use xlink:href="#CMUSerif-Roman-38" x="77.799973"/>
      </g>
     </g>
    </g>
   </g>
   <g id="line2d_5">
    <path d="M 32.61277 67.785802 
L 33.746233 73.952096 
L 34.879696 78.866307 
L 35.925969 82.487436 
L 36.972243 85.387438 
L 38.018516 87.695936 
L 39.15198 89.655028 
L 40.285443 91.161404 
L 41.418906 92.307638 
L 42.639558 93.224501 
L 43.9474 93.922959 
L 45.429621 94.446096 
L 47.086221 94.784128 
L 49.091578 94.952244 
L 51.620073 94.924637 
L 55.107651 94.647607 
L 61.73405 93.851885 
L 73.504627 92.470411 
L 82.8339 91.615161 
L 93.035067 90.908839 
L 104.718455 90.329473 
L 118.668769 89.867962 
L 119.715042 89.84104 
L 119.715042 89.84104 
" clip-path="url(#p5afb7c24cf)" style="fill: none; stroke: #0000cd; stroke-opacity: 0.8; stroke-width: 1.5; stroke-linecap: square"/>
   </g>
   <g id="line2d_6">
    <path d="M 32.61277 67.785802 
L 33.571854 70.779459 
L 34.530938 73.116359 
L 35.490022 74.914253 
L 36.449106 76.271647 
L 37.40819 77.2703 
L 38.454464 78.029551 
L 39.500737 78.513374 
L 40.6342 78.793124 
L 41.942042 78.873378 
L 43.424263 78.73263 
L 45.255242 78.324468 
L 47.696547 77.534446 
L 51.794451 75.93386 
L 59.292745 73.013754 
L 64.000976 71.440349 
L 68.622018 70.133422 
L 73.417438 69.012031 
L 78.561616 68.042731 
L 84.141742 67.219849 
L 90.506572 66.512723 
L 97.830487 65.93005 
L 106.636623 65.461266 
L 117.709685 65.104598 
L 119.715042 65.059091 
L 119.715042 65.059091 
" clip-path="url(#p5afb7c24cf)" style="fill: none; stroke: #0008ff; stroke-opacity: 0.8; stroke-width: 1.5; stroke-linecap: square"/>
   </g>
   <g id="line2d_7">
    <path d="M 32.61277 67.785802 
L 33.484664 68.463862 
L 34.356559 68.873943 
L 35.315643 69.075808 
L 36.361917 69.060428 
L 37.582569 68.804924 
L 39.06479 68.245528 
L 40.982958 67.255514 
L 43.773021 65.532672 
L 52.404778 60.057119 
L 55.979546 58.122232 
L 59.467124 56.485563 
L 63.041892 55.057684 
L 66.703849 53.834467 
L 70.627375 52.759612 
L 74.899659 51.823769 
L 79.60789 51.023367 
L 84.926447 50.347266 
L 91.204088 49.781029 
L 98.789571 49.330071 
L 108.467602 48.989522 
L 119.715042 48.78167 
L 119.715042 48.78167 
" clip-path="url(#p5afb7c24cf)" style="fill: none; stroke: #004cff; stroke-opacity: 0.8; stroke-width: 1.5; stroke-linecap: square"/>
   </g>
   <g id="line2d_8">
    <path d="M 32.61277 67.785802 
L 37.059432 62.610079 
L 40.547011 58.883924 
L 43.685832 55.849965 
L 46.650273 53.287926 
L 49.527525 51.087259 
L 52.404778 49.159898 
L 55.369219 47.442323 
L 58.420851 45.933673 
L 61.646861 44.593332 
L 65.04725 43.426294 
L 68.709207 42.408106 
L 72.719922 41.526631 
L 77.253774 40.764357 
L 82.397953 40.129591 
L 88.501215 39.606667 
L 95.999509 39.195388 
L 105.851918 38.890383 
L 119.715042 38.6938 
L 119.715042 38.6938 
" clip-path="url(#p5afb7c24cf)" style="fill: none; stroke: #0090ff; stroke-opacity: 0.8; stroke-width: 1.5; stroke-linecap: square"/>
   </g>
   <g id="line2d_9">
    <path d="M 32.61277 67.785802 
L 34.007801 64.237033 
L 35.490022 61.053726 
L 37.146622 58.031132 
L 38.890411 55.306095 
L 40.808579 52.71666 
L 42.901126 50.267648 
L 45.168052 47.964811 
L 47.522168 45.888548 
L 50.050662 43.958837 
L 52.666346 42.242761 
L 55.456409 40.682841 
L 58.420851 39.288585 
L 61.559671 38.064029 
L 64.96006 36.982548 
L 68.622018 36.052491 
L 72.719922 35.243041 
L 77.428153 34.546831 
L 82.921089 33.968544 
L 89.547488 33.504419 
L 97.917677 33.151395 
L 109.426686 32.903454 
L 119.715042 32.799666 
L 119.715042 32.799666 
" clip-path="url(#p5afb7c24cf)" style="fill: none; stroke: #00d4ff; stroke-opacity: 0.8; stroke-width: 1.5; stroke-linecap: square"/>
   </g>
   <g id="line2d_10">
    <path d="M 32.61277 67.785802 
L 33.920612 63.267233 
L 35.228454 59.532533 
L 36.623485 56.220867 
L 38.105706 53.285786 
L 39.675116 50.675632 
L 41.331716 48.340892 
L 43.162695 46.141496 
L 45.168052 44.083571 
L 47.347789 42.168971 
L 49.701904 40.39933 
L 52.230399 38.777486 
L 54.933272 37.307005 
L 57.810524 35.990781 
L 60.949345 34.799526 
L 64.349734 33.747774 
L 68.098881 32.822954 
L 72.283975 32.022423 
L 77.079395 31.337008 
L 82.659521 30.769512 
L 89.460299 30.310169 
L 98.092056 29.960953 
L 110.037012 29.716542 
L 119.715042 29.622224 
L 119.715042 29.622224 
" clip-path="url(#p5afb7c24cf)" style="fill: none; stroke: #29ffce; stroke-opacity: 0.8; stroke-width: 1.5; stroke-linecap: square"/>
   </g>
   <g id="line2d_11">
    <path d="M 32.61277 67.785802 
L 33.833422 62.84858 
L 35.141264 58.489324 
L 36.449106 54.91445 
L 37.756948 51.964292 
L 39.15198 49.356989 
L 40.6342 47.057576 
L 42.203611 45.024911 
L 43.9474 43.130672 
L 45.865568 41.377194 
L 48.045305 39.696245 
L 50.48661 38.107683 
L 53.189483 36.624508 
L 56.153925 35.257737 
L 59.379935 34.017757 
L 62.954703 32.888446 
L 66.878228 31.889965 
L 71.237701 31.018292 
L 76.120311 30.275219 
L 81.787626 29.646394 
L 88.501215 29.134696 
L 96.784214 28.735726 
L 107.770086 28.44278 
L 119.715042 28.286817 
L 119.715042 28.286817 
" clip-path="url(#p5afb7c24cf)" style="fill: none; stroke: #60ff97; stroke-opacity: 0.8; stroke-width: 1.5; stroke-linecap: square"/>
   </g>
   <g id="line2d_12">
    <path d="M 32.61277 67.785802 
L 33.920612 62.074331 
L 35.141264 57.670694 
L 36.361917 54.030968 
L 37.669759 50.838081 
L 38.977601 48.239882 
L 40.285443 46.115017 
L 41.680474 44.25679 
L 43.162695 42.637488 
L 44.819295 41.152631 
L 46.650273 39.804079 
L 48.83001 38.483827 
L 51.358504 37.222343 
L 54.322946 35.997031 
L 57.810524 34.800026 
L 61.82124 33.661166 
L 66.355092 32.608222 
L 71.41208 31.666843 
L 77.079395 30.845231 
L 83.444226 30.152828 
L 90.85533 29.57719 
L 99.748655 29.117449 
L 111.083285 28.766371 
L 119.715042 28.607886 
L 119.715042 28.607886 
" clip-path="url(#p5afb7c24cf)" style="fill: none; stroke: #97ff60; stroke-opacity: 0.8; stroke-width: 1.5; stroke-linecap: square"/>
   </g>
   <g id="line2d_13">
    <path d="M 32.61277 67.785802 
L 33.920612 61.794239 
L 35.228454 56.830135 
L 36.449106 53.012566 
L 37.669759 49.876092 
L 38.890411 47.318511 
L 40.111064 45.243434 
L 41.418906 43.456793 
L 42.726747 42.03134 
L 44.121779 40.822056 
L 45.691189 39.754229 
L 47.434978 38.835186 
L 49.527525 37.992753 
L 52.05602 37.224901 
L 55.28203 36.486926 
L 59.728692 35.714694 
L 65.919144 34.881462 
L 74.027764 34.021822 
L 83.618605 33.232551 
L 94.517288 32.564082 
L 107.15976 32.019157 
L 119.715042 31.65463 
L 119.715042 31.65463 
" clip-path="url(#p5afb7c24cf)" style="fill: none; stroke: #ceff29; stroke-opacity: 0.8; stroke-width: 1.5; stroke-linecap: square"/>
   </g>
   <g id="line2d_14">
    <path d="M 32.61277 67.785802 
L 34.007801 61.250349 
L 35.315643 56.150658 
L 36.623485 51.935379 
L 37.844138 48.706667 
L 39.06479 46.072355 
L 40.285443 43.9492 
L 41.506095 42.257936 
L 42.726747 40.925672 
L 44.034589 39.823126 
L 45.429621 38.942354 
L 46.911842 38.265494 
L 48.655631 37.724222 
L 50.660988 37.343935 
L 53.189483 37.10671 
L 56.502682 37.034567 
L 61.646861 37.17172 
L 74.463712 37.816598 
L 95.999509 38.815987 
L 119.715042 39.68244 
L 119.715042 39.68244 
" clip-path="url(#p5afb7c24cf)" style="fill: none; stroke: #ffe600; stroke-opacity: 0.8; stroke-width: 1.5; stroke-linecap: square"/>
   </g>
   <g id="line2d_15">
    <path d="M 32.61277 67.785802 
L 34.007801 61.141749 
L 35.402833 55.587104 
L 36.710675 51.258217 
L 38.018516 47.684674 
L 39.239169 44.952886 
L 40.459821 42.732211 
L 41.680474 40.954891 
L 42.901126 39.556515 
L 44.121779 38.477403 
L 45.429621 37.614439 
L 46.824652 36.96463 
L 48.306873 36.515349 
L 50.050662 36.227851 
L 52.05602 36.129016 
L 54.584514 36.237675 
L 58.072093 36.630697 
L 64.175355 37.583464 
L 77.689722 39.704021 
L 87.367752 40.97233 
L 97.743298 42.105459 
L 109.252307 43.134203 
L 119.715042 43.898852 
L 119.715042 43.898852 
" clip-path="url(#p5afb7c24cf)" style="fill: none; stroke: #ffa700; stroke-opacity: 0.8; stroke-width: 1.5; stroke-linecap: square"/>
   </g>
   <g id="line2d_16">
    <path d="M 32.61277 67.785802 
L 34.007801 61.078735 
L 35.402833 55.428995 
L 36.797864 50.708106 
L 38.105706 47.027688 
L 39.413548 43.985252 
L 40.72139 41.504946 
L 42.029232 39.514957 
L 43.249884 38.040006 
L 44.557726 36.80925 
L 45.865568 35.883 
L 47.260599 35.171622 
L 48.74282 34.667904 
L 50.39942 34.344495 
L 52.317588 34.204958 
L 54.671704 34.271261 
L 57.723335 34.593198 
L 62.780324 35.383176 
L 74.202143 37.19484 
L 81.526058 38.100976 
L 89.460299 38.8527 
L 98.440814 39.474259 
L 109.077928 39.981224 
L 119.715042 40.316962 
L 119.715042 40.316962 
" clip-path="url(#p5afb7c24cf)" style="fill: none; stroke: #ff6800; stroke-opacity: 0.8; stroke-width: 1.5; stroke-linecap: square"/>
   </g>
   <g id="line2d_17">
    <path d="M 32.61277 67.785802 
L 34.007801 61.042926 
L 35.402833 55.335447 
L 36.797864 50.528587 
L 38.192895 46.508652 
L 39.587927 43.17744 
L 40.895769 40.60226 
L 42.203611 38.490259 
L 43.511453 36.780999 
L 44.819295 35.418619 
L 46.214326 34.290088 
L 47.609357 33.441778 
L 49.091578 32.791912 
L 50.748178 32.310128 
L 52.579157 32.00802 
L 54.758893 31.87632 
L 57.548956 31.944348 
L 61.559671 32.289261 
L 80.305405 34.161162 
L 88.675594 34.639986 
L 98.96395 34.994967 
L 112.914264 35.238094 
L 119.715042 35.301419 
L 119.715042 35.301419 
" clip-path="url(#p5afb7c24cf)" style="fill: none; stroke: #ff2900; stroke-opacity: 0.8; stroke-width: 1.5; stroke-linecap: square"/>
   </g>
   <g id="line2d_18">
    <path d="M 32.61277 67.785802 
L 34.007801 61.022865 
L 35.402833 55.281738 
L 36.797864 50.422451 
L 38.192895 46.327011 
L 39.587927 42.894799 
L 40.982958 40.03862 
L 42.37799 37.68166 
L 43.773021 35.755376 
L 45.168052 34.198205 
L 46.650273 32.886397 
L 48.132494 31.869873 
L 49.701904 31.057871 
L 51.445694 30.411379 
L 53.363862 29.941029 
L 55.630788 29.62395 
L 58.420851 29.47387 
L 62.169997 29.514528 
L 68.883586 29.853194 
L 81.438868 30.465736 
L 92.59912 30.758925 
L 108.380412 30.928467 
L 119.715042 30.972455 
L 119.715042 30.972455 
" clip-path="url(#p5afb7c24cf)" style="fill: none; stroke: #cd0000; stroke-opacity: 0.8; stroke-width: 1.5; stroke-linecap: square"/>
   </g>
   <g id="line2d_19">
    <path d="M 32.61277 67.785802 
L 34.007801 61.011724 
L 35.402833 55.251484 
L 36.797864 50.361625 
L 38.192895 46.22084 
L 39.587927 42.725977 
L 40.982958 39.788565 
L 42.37799 37.331982 
L 43.86021 35.173948 
L 45.342431 33.412826 
L 46.824652 31.987 
L 48.394062 30.782996 
L 50.050662 29.793293 
L 51.881641 28.969916 
L 53.886999 28.322772 
L 56.153925 27.831567 
L 58.856798 27.481505 
L 62.257187 27.274919 
L 67.139797 27.221384 
L 77.515343 27.392581 
L 95.389182 27.622627 
L 119.715042 27.697701 
L 119.715042 27.697701 
" clip-path="url(#p5afb7c24cf)" style="fill: none; stroke: #800000; stroke-opacity: 0.8; stroke-width: 1.5; stroke-linecap: square"/>
   </g>
   <g id="patch_3">
    <path d="M 28.257656 98.354062 
L 28.257656 23.830812 
" style="fill: none; stroke: #000000; stroke-width: 0.8; stroke-linejoin: miter; stroke-linecap: square"/>
   </g>
   <g id="patch_4">
    <path d="M 28.257656 98.354062 
L 124.070156 98.354062 
" style="fill: none; stroke: #000000; stroke-width: 0.8; stroke-linejoin: miter; stroke-linecap: square"/>
   </g>
   <g id="text_6">
    <!-- du/dt -->
    <g transform="translate(62.122578 17.830812)scale(0.11 -0.11)">
     <defs>
      <path id="CMUSerif-Roman-64" d="M 218 1376 
Q 218 1984 643 2406 
Q 1069 2829 1645 2829 
Q 2131 2829 2451 2432 
L 2451 3814 
Q 2451 4051 2368 4112 
Q 2285 4173 1952 4173 
L 1952 4371 
L 2874 4442 
L 2874 557 
Q 2874 320 2957 259 
Q 3040 198 3373 198 
L 3373 0 
L 2432 -70 
L 2432 352 
Q 2099 -70 1574 -70 
Q 1024 -70 621 352 
Q 218 774 218 1376 
z
M 749 1370 
Q 749 774 934 480 
Q 1190 70 1606 70 
Q 2080 70 2362 518 
Q 2432 627 2432 755 
L 2432 2067 
Q 2432 2195 2362 2304 
Q 2099 2688 1670 2688 
Q 1222 2688 947 2278 
Q 749 1971 749 1370 
z
" transform="scale(0.015625)"/>
      <path id="CMUSerif-Roman-75" d="M 205 2560 
L 205 2758 
L 1146 2829 
L 1146 704 
Q 1146 550 1158 460 
Q 1171 371 1222 268 
Q 1274 166 1395 118 
Q 1517 70 1709 70 
Q 2054 70 2268 355 
Q 2483 640 2483 1062 
L 2483 2202 
Q 2483 2438 2400 2499 
Q 2317 2560 1984 2560 
L 1984 2758 
L 2925 2829 
L 2925 557 
Q 2925 320 3008 259 
Q 3091 198 3424 198 
L 3424 0 
L 2502 -70 
L 2502 506 
Q 2234 -70 1677 -70 
Q 1395 -70 1203 0 
Q 1011 70 915 160 
Q 819 250 768 422 
Q 717 595 710 700 
Q 704 806 704 1011 
L 704 1971 
Q 704 2406 640 2483 
Q 576 2560 205 2560 
z
" transform="scale(0.015625)"/>
      <path id="CMUSerif-Roman-2f" d="M 365 -1510 
Q 365 -1478 390 -1408 
L 2650 4627 
Q 2650 4634 2666 4669 
Q 2682 4704 2691 4726 
Q 2701 4749 2720 4768 
Q 2739 4787 2765 4787 
Q 2829 4787 2829 4710 
Q 2829 4704 2810 4627 
L 544 -1414 
Q 506 -1523 483 -1555 
Q 461 -1587 422 -1587 
Q 365 -1587 365 -1510 
z
" transform="scale(0.015625)"/>
     </defs>
     <use xlink:href="#CMUSerif-Roman-64"/>
     <use xlink:href="#CMUSerif-Roman-75" x="55.499985"/>
     <use xlink:href="#CMUSerif-Roman-2f" x="110.999969"/>
     <use xlink:href="#CMUSerif-Roman-64" x="160.999954"/>
     <use xlink:href="#CMUSerif-Roman-74" x="216.499939"/>
    </g>
   </g>
  </g>
  <g id="axes_2">
   <g id="patch_5">
    <path d="M 168.771406 98.354062 
L 264.583906 98.354062 
L 264.583906 23.830812 
L 168.771406 23.830812 
z
" style="fill: #ffffff"/>
   </g>
   <g id="matplotlib.axis_3">
    <g id="xtick_3">
     <g id="line2d_20">
      <g>
       <use xlink:href="#mb7979cf044" x="173.12652" y="98.354062" style="stroke: #000000; stroke-width: 0.8"/>
      </g>
     </g>
     <g id="text_7">
      <!-- 0 -->
      <g transform="translate(170.37652 112.98875)scale(0.11 -0.11)">
       <use xlink:href="#CMUSerif-Roman-30"/>
      </g>
     </g>
    </g>
    <g id="xtick_4">
     <g id="line2d_21">
      <g>
       <use xlink:href="#mb7979cf044" x="260.315982" y="98.354062" style="stroke: #000000; stroke-width: 0.8"/>
      </g>
     </g>
     <g id="text_8">
      <!-- 1000 -->
      <g transform="translate(249.315982 112.98875)scale(0.11 -0.11)">
       <use xlink:href="#CMUSerif-Roman-31"/>
       <use xlink:href="#CMUSerif-Roman-30" x="49.999985"/>
       <use xlink:href="#CMUSerif-Roman-30" x="99.999969"/>
       <use xlink:href="#CMUSerif-Roman-30" x="149.999954"/>
      </g>
     </g>
    </g>
    <g id="text_9">
     <!-- time [ms] -->
     <g transform="translate(194.358828 127.373437)scale(0.11 -0.11)">
      <use xlink:href="#CMUSerif-Roman-74"/>
      <use xlink:href="#CMUSerif-Roman-69" x="38.799988"/>
      <use xlink:href="#CMUSerif-Roman-6d" x="66.499985"/>
      <use xlink:href="#CMUSerif-Roman-65" x="149.799973"/>
      <use xlink:href="#CMUSerif-Roman-20" x="194.199966"/>
      <use xlink:href="#CMUSerif-Roman-5b" x="227.499954"/>
      <use xlink:href="#CMUSerif-Roman-6d" x="255.299942"/>
      <use xlink:href="#CMUSerif-Roman-73" x="338.59993"/>
      <use xlink:href="#CMUSerif-Roman-5d" x="377.999924"/>
     </g>
    </g>
   </g>
   <g id="matplotlib.axis_4">
    <g id="ytick_3">
     <g id="line2d_22">
      <g>
       <use xlink:href="#m83fb24d55f" x="168.771406" y="98.034319" style="stroke: #000000; stroke-width: 0.8"/>
      </g>
     </g>
     <g id="text_10">
      <!-- 0.0 -->
      <g transform="translate(147.71375 101.851663)scale(0.11 -0.11)">
       <use xlink:href="#CMUSerif-Roman-30"/>
       <use xlink:href="#CMUSerif-Roman-2e" x="49.999985"/>
       <use xlink:href="#CMUSerif-Roman-30" x="77.799973"/>
      </g>
     </g>
    </g>
    <g id="ytick_4">
     <g id="line2d_23">
      <g>
       <use xlink:href="#m83fb24d55f" x="168.771406" y="61.220675" style="stroke: #000000; stroke-width: 0.8"/>
      </g>
     </g>
     <g id="text_11">
      <!-- 0.5 -->
      <g transform="translate(147.71375 65.038018)scale(0.11 -0.11)">
       <defs>
        <path id="CMUSerif-Roman-35" d="M 320 1030 
Q 320 1222 422 1296 
Q 525 1370 634 1370 
Q 781 1370 867 1277 
Q 954 1184 954 1056 
Q 954 928 867 835 
Q 781 742 634 742 
Q 563 742 525 755 
Q 608 461 867 249 
Q 1126 38 1466 38 
Q 1894 38 2150 454 
Q 2304 723 2304 1331 
Q 2304 1869 2189 2138 
Q 2010 2547 1645 2547 
Q 1126 2547 819 2099 
Q 781 2042 736 2042 
Q 672 2042 659 2077 
Q 646 2112 646 2208 
L 646 4102 
Q 646 4256 710 4256 
Q 736 4256 787 4237 
Q 1190 4058 1638 4058 
Q 2099 4058 2509 4243 
Q 2541 4262 2560 4262 
Q 2624 4262 2624 4192 
Q 2624 4166 2573 4092 
Q 2522 4019 2413 3923 
Q 2304 3827 2163 3737 
Q 2022 3648 1817 3587 
Q 1613 3526 1389 3526 
Q 1120 3526 845 3610 
L 845 2362 
Q 1178 2688 1658 2688 
Q 2170 2688 2522 2275 
Q 2874 1862 2874 1286 
Q 2874 685 2458 272 
Q 2042 -141 1478 -141 
Q 966 -141 643 224 
Q 320 589 320 1030 
z
" transform="scale(0.015625)"/>
       </defs>
       <use xlink:href="#CMUSerif-Roman-30"/>
       <use xlink:href="#CMUSerif-Roman-2e" x="49.999985"/>
       <use xlink:href="#CMUSerif-Roman-35" x="77.799973"/>
      </g>
     </g>
    </g>
    <g id="ytick_5">
     <g id="line2d_24">
      <g>
       <use xlink:href="#m83fb24d55f" x="168.771406" y="24.40703" style="stroke: #000000; stroke-width: 0.8"/>
      </g>
     </g>
     <g id="text_12">
      <!-- 1.0 -->
      <g transform="translate(147.71375 28.224374)scale(0.11 -0.11)">
       <use xlink:href="#CMUSerif-Roman-31"/>
       <use xlink:href="#CMUSerif-Roman-2e" x="49.999985"/>
       <use xlink:href="#CMUSerif-Roman-30" x="77.799973"/>
      </g>
     </g>
    </g>
   </g>
   <g id="line2d_25">
    <path d="M 173.12652 83.308861 
L 174.521551 85.148248 
L 175.916583 86.623148 
L 177.398804 87.859368 
L 178.968214 88.870096 
L 180.712003 89.715714 
L 182.630171 90.396975 
L 184.984287 90.985851 
L 187.948729 91.480409 
L 191.959444 91.903904 
L 197.975517 92.29211 
L 208.002305 92.692244 
L 223.696408 93.083786 
L 244.883447 93.379796 
L 260.228792 93.497255 
L 260.228792 93.497255 
" clip-path="url(#pb6fe58011f)" style="fill: none; stroke: #0000cd; stroke-opacity: 0.8; stroke-width: 1.5; stroke-linecap: square"/>
   </g>
   <g id="line2d_26">
    <path d="M 173.12652 83.308861 
L 174.521551 84.924315 
L 176.003772 86.297112 
L 177.573183 87.449468 
L 179.316972 88.455863 
L 181.322329 89.354684 
L 183.763634 90.191877 
L 186.728076 90.961683 
L 190.477223 91.696499 
L 195.359833 92.414019 
L 201.463095 93.076733 
L 208.874199 93.651937 
L 217.941903 94.12354 
L 229.276533 94.480091 
L 244.709068 94.728469 
L 260.228792 94.840518 
L 260.228792 94.840518 
" clip-path="url(#pb6fe58011f)" style="fill: none; stroke: #0008ff; stroke-opacity: 0.8; stroke-width: 1.5; stroke-linecap: square"/>
   </g>
   <g id="line2d_27">
    <path d="M 173.12652 83.308861 
L 174.69593 84.703729 
L 176.43972 85.959946 
L 178.445077 87.129548 
L 180.799193 88.239931 
L 183.589256 89.303926 
L 186.902455 90.323289 
L 190.738791 91.268917 
L 195.185454 92.132003 
L 200.242443 92.882334 
L 206.084137 93.517329 
L 212.972104 94.033714 
L 221.429482 94.434915 
L 232.589733 94.727397 
L 248.981352 94.913988 
L 260.228792 94.966642 
L 260.228792 94.966642 
" clip-path="url(#pb6fe58011f)" style="fill: none; stroke: #004cff; stroke-opacity: 0.8; stroke-width: 1.5; stroke-linecap: square"/>
   </g>
   <g id="line2d_28">
    <path d="M 173.12652 83.308861 
L 178.183509 85.667482 
L 182.368603 87.380281 
L 186.379318 88.785164 
L 190.390034 89.957396 
L 194.575128 90.950935 
L 199.10898 91.797103 
L 204.165968 92.50926 
L 209.920473 93.090427 
L 216.80844 93.555949 
L 225.527387 93.911001 
L 237.472343 94.158113 
L 256.392456 94.301949 
L 260.228792 94.314591 
L 260.228792 94.314591 
" clip-path="url(#pb6fe58011f)" style="fill: none; stroke: #0090ff; stroke-opacity: 0.8; stroke-width: 1.5; stroke-linecap: square"/>
   </g>
   <g id="line2d_29">
    <path d="M 173.12652 83.308861 
L 174.259983 83.120184 
L 175.567825 83.127237 
L 177.224425 83.372091 
L 179.404161 83.937487 
L 182.978929 85.128526 
L 190.128465 87.521438 
L 194.487938 88.724147 
L 198.847411 89.696195 
L 203.555642 90.512785 
L 208.78701 91.186887 
L 214.803083 91.73129 
L 222.126998 92.16102 
L 231.543459 92.478194 
L 244.970637 92.689283 
L 260.228792 92.779433 
L 260.228792 92.779433 
" clip-path="url(#pb6fe58011f)" style="fill: none; stroke: #00d4ff; stroke-opacity: 0.8; stroke-width: 1.5; stroke-linecap: square"/>
   </g>
   <g id="line2d_30">
    <path d="M 173.12652 83.308861 
L 174.085604 82.245294 
L 175.044688 81.501162 
L 176.090962 80.974111 
L 177.224425 80.660613 
L 178.532267 80.546072 
L 180.014488 80.643878 
L 181.932656 81.005412 
L 184.635529 81.763717 
L 197.975517 85.816275 
L 202.509369 86.8119 
L 207.304789 87.634548 
L 212.623346 88.31677 
L 218.726609 88.870368 
L 226.137713 89.309787 
L 235.554175 89.634414 
L 248.806973 89.852963 
L 260.228792 89.934444 
L 260.228792 89.934444 
" clip-path="url(#pb6fe58011f)" style="fill: none; stroke: #29ffce; stroke-opacity: 0.8; stroke-width: 1.5; stroke-linecap: square"/>
   </g>
   <g id="line2d_31">
    <path d="M 173.12652 83.308861 
L 174.085604 81.162901 
L 175.044688 79.514864 
L 176.003772 78.271998 
L 177.050046 77.287196 
L 178.096319 76.609567 
L 179.229782 76.145582 
L 180.450435 75.886441 
L 181.845466 75.816639 
L 183.589256 75.967131 
L 185.768992 76.391129 
L 189.082192 77.290166 
L 200.329632 80.495766 
L 205.212242 81.579603 
L 210.269231 82.473054 
L 215.762167 83.214738 
L 221.952619 83.822817 
L 229.276533 84.312308 
L 238.344238 84.686576 
L 250.550762 84.953067 
L 260.228792 85.059582 
L 260.228792 85.059582 
" clip-path="url(#pb6fe58011f)" style="fill: none; stroke: #60ff97; stroke-opacity: 0.8; stroke-width: 1.5; stroke-linecap: square"/>
   </g>
   <g id="line2d_32">
    <path d="M 173.12652 83.308861 
L 174.172794 79.783335 
L 175.219067 76.992239 
L 176.265341 74.810842 
L 177.311614 73.129206 
L 178.357888 71.853154 
L 179.404161 70.903748 
L 180.537624 70.168625 
L 181.758277 69.643957 
L 183.153308 69.301824 
L 184.722719 69.157082 
L 186.640887 69.218087 
L 189.082192 69.532825 
L 192.65696 70.238389 
L 208.089494 73.506882 
L 214.279946 74.477148 
L 220.819156 75.27225 
L 228.055881 75.923834 
L 236.426069 76.449018 
L 246.627236 76.857979 
L 259.880035 77.155034 
L 260.228792 77.160453 
L 260.228792 77.160453 
" clip-path="url(#pb6fe58011f)" style="fill: none; stroke: #97ff60; stroke-opacity: 0.8; stroke-width: 1.5; stroke-linecap: square"/>
   </g>
   <g id="line2d_33">
    <path d="M 173.12652 83.308861 
L 174.259983 78.384868 
L 175.393446 74.396411 
L 176.526909 71.20017 
L 177.660372 68.664393 
L 178.793835 66.671715 
L 179.927298 65.120483 
L 181.060761 63.924708 
L 182.281414 62.952895 
L 183.589256 62.195558 
L 185.071476 61.606483 
L 186.728076 61.195912 
L 188.733434 60.941581 
L 191.261928 60.863311 
L 194.749507 61.00143 
L 200.591201 61.491242 
L 219.162556 63.139511 
L 230.584375 63.880805 
L 243.226847 64.473865 
L 258.049056 64.939113 
L 260.228792 64.99136 
L 260.228792 64.99136 
" clip-path="url(#pb6fe58011f)" style="fill: none; stroke: #ceff29; stroke-opacity: 0.8; stroke-width: 1.5; stroke-linecap: square"/>
   </g>
   <g id="line2d_34">
    <path d="M 173.12652 83.308861 
L 174.347173 77.12552 
L 175.567825 72.034773 
L 176.788477 67.880354 
L 178.00913 64.516952 
L 179.229782 61.812378 
L 180.450435 59.649313 
L 181.671087 57.926137 
L 182.978929 56.470497 
L 184.373961 55.26746 
L 185.856182 54.292262 
L 187.512781 53.477385 
L 189.430949 52.793478 
L 191.697875 52.228425 
L 194.575128 51.74792 
L 198.585843 51.320079 
L 204.863484 50.899084 
L 216.634062 50.365352 
L 237.297964 49.663693 
L 260.228792 49.06773 
L 260.228792 49.06773 
" clip-path="url(#pb6fe58011f)" style="fill: none; stroke: #ffe600; stroke-opacity: 0.8; stroke-width: 1.5; stroke-linecap: square"/>
   </g>
   <g id="line2d_35">
    <path d="M 173.12652 83.308861 
L 174.434362 76.065676 
L 175.742204 70.046302 
L 177.050046 65.077725 
L 178.357888 61.001957 
L 179.66573 57.676025 
L 180.973572 54.972451 
L 182.281414 52.779634 
L 183.589256 51.001734 
L 184.984287 49.471883 
L 186.466508 48.1731 
L 188.123108 47.027231 
L 189.954086 46.040315 
L 192.046633 45.169935 
L 194.575128 44.368152 
L 197.713948 43.615843 
L 201.811853 42.871882 
L 207.479168 42.083259 
L 215.23903 41.241189 
L 225.178629 40.394697 
L 237.123585 39.606992 
L 251.248278 38.904674 
L 260.228792 38.554569 
L 260.228792 38.554569 
" clip-path="url(#pb6fe58011f)" style="fill: none; stroke: #ffa700; stroke-opacity: 0.8; stroke-width: 1.5; stroke-linecap: square"/>
   </g>
   <g id="line2d_36">
    <path d="M 173.12652 83.308861 
L 174.521551 75.190221 
L 175.829393 68.808874 
L 177.137235 63.450719 
L 178.445077 58.970024 
L 179.752919 55.23665 
L 181.060761 52.13496 
L 182.368603 49.563077 
L 183.763634 47.303926 
L 185.158666 45.454508 
L 186.640887 43.852024 
L 188.210297 42.479423 
L 189.954086 41.258925 
L 191.872254 40.197828 
L 194.051991 39.255713 
L 196.580485 38.412903 
L 199.632116 37.639482 
L 203.381263 36.926685 
L 208.176684 36.252032 
L 214.279946 35.626606 
L 222.126998 35.055978 
L 232.066596 34.567145 
L 244.796258 34.175559 
L 260.228792 33.906423 
L 260.228792 33.906423 
" clip-path="url(#pb6fe58011f)" style="fill: none; stroke: #ff6800; stroke-opacity: 0.8; stroke-width: 1.5; stroke-linecap: square"/>
   </g>
   <g id="line2d_37">
    <path d="M 173.12652 83.308861 
L 174.521551 74.932249 
L 175.916583 67.88177 
L 177.311614 61.964664 
L 178.706646 57.012952 
L 180.101677 52.880096 
L 181.496708 49.438429 
L 182.89174 46.577168 
L 184.286771 44.200759 
L 185.768992 42.115819 
L 187.251213 40.403196 
L 188.820623 38.919224 
L 190.477223 37.647954 
L 192.308202 36.521047 
L 194.313559 35.545844 
L 196.580485 34.688956 
L 199.283359 33.915142 
L 202.422179 33.253267 
L 206.345705 32.663972 
L 211.315504 32.156644 
L 217.767525 31.733591 
L 226.57366 31.393056 
L 239.216132 31.14427 
L 259.531277 30.992121 
L 260.228792 30.989498 
L 260.228792 30.989498 
" clip-path="url(#pb6fe58011f)" style="fill: none; stroke: #ff2900; stroke-opacity: 0.8; stroke-width: 1.5; stroke-linecap: square"/>
   </g>
   <g id="line2d_38">
    <path d="M 173.12652 83.308861 
L 174.521551 74.784911 
L 175.916583 67.571151 
L 177.311614 61.476413 
L 178.706646 56.335847 
L 180.101677 52.00716 
L 181.496708 48.36753 
L 182.89174 45.311095 
L 184.373961 42.601066 
L 185.856182 40.353702 
L 187.338402 38.490368 
L 188.907813 36.862768 
L 190.564412 35.459714 
L 192.308202 34.264811 
L 194.22637 33.215765 
L 196.406106 32.285826 
L 198.847411 31.494326 
L 201.637474 30.825948 
L 205.037863 30.249416 
L 209.222957 29.776435 
L 214.628704 29.400205 
L 222.126998 29.115885 
L 233.636007 28.923376 
L 255.084614 28.822033 
L 260.228792 28.81435 
L 260.228792 28.81435 
" clip-path="url(#pb6fe58011f)" style="fill: none; stroke: #cd0000; stroke-opacity: 0.8; stroke-width: 1.5; stroke-linecap: square"/>
   </g>
   <g id="line2d_39">
    <path d="M 173.12652 83.308861 
L 174.521551 74.702229 
L 175.916583 67.396076 
L 177.311614 61.199763 
L 178.706646 55.949817 
L 180.101677 51.505977 
L 181.496708 47.747881 
L 182.978929 44.39108 
L 184.46115 41.586461 
L 185.943371 39.244582 
L 187.512781 37.185519 
L 189.082192 35.485362 
L 190.738791 34.011084 
L 192.482581 32.749265 
L 194.400749 31.637513 
L 196.493296 30.685284 
L 198.847411 29.864353 
L 201.550285 29.165876 
L 204.689105 28.589587 
L 208.525442 28.117873 
L 213.495241 27.745005 
L 220.296019 27.475599 
L 230.845944 27.304329 
L 252.120172 27.224663 
L 260.228792 27.218233 
L 260.228792 27.218233 
" clip-path="url(#pb6fe58011f)" style="fill: none; stroke: #800000; stroke-opacity: 0.8; stroke-width: 1.5; stroke-linecap: square"/>
   </g>
   <g id="patch_6">
    <path d="M 168.771406 98.354062 
L 168.771406 23.830812 
" style="fill: none; stroke: #000000; stroke-width: 0.8; stroke-linejoin: miter; stroke-linecap: square"/>
   </g>
   <g id="patch_7">
    <path d="M 168.771406 98.354062 
L 264.583906 98.354062 
" style="fill: none; stroke: #000000; stroke-width: 0.8; stroke-linejoin: miter; stroke-linecap: square"/>
   </g>
   <g id="text_13">
    <!-- dv/dt -->
    <g transform="translate(202.790156 17.830812)scale(0.11 -0.11)">
     <defs>
      <path id="CMUSerif-Roman-76" d="M 122 2560 
L 122 2758 
Q 410 2739 742 2739 
Q 864 2739 1440 2758 
L 1440 2560 
Q 1075 2560 1075 2394 
Q 1075 2368 1114 2285 
L 1830 499 
L 2483 2131 
Q 2522 2240 2522 2285 
Q 2522 2394 2448 2474 
Q 2374 2554 2214 2560 
L 2214 2758 
Q 2541 2739 2771 2739 
Q 3034 2739 3251 2758 
L 3251 2560 
Q 3059 2560 2924 2473 
Q 2790 2387 2748 2313 
Q 2707 2240 2662 2131 
L 1824 51 
Q 1773 -70 1690 -70 
Q 1632 -70 1609 -48 
Q 1587 -26 1555 51 
L 634 2323 
Q 570 2483 490 2521 
Q 410 2560 122 2560 
z
" transform="scale(0.015625)"/>
     </defs>
     <use xlink:href="#CMUSerif-Roman-64"/>
     <use xlink:href="#CMUSerif-Roman-76" x="55.499985"/>
     <use xlink:href="#CMUSerif-Roman-2f" x="108.199982"/>
     <use xlink:href="#CMUSerif-Roman-64" x="158.199966"/>
     <use xlink:href="#CMUSerif-Roman-74" x="213.699951"/>
    </g>
   </g>
  </g>
  <g id="axes_3">
   <g id="patch_8">
    <path d="M 309.285157 98.354062 
L 405.097656 98.354062 
L 405.097656 23.830812 
L 309.285157 23.830812 
z
" style="fill: #ffffff"/>
   </g>
   <g id="matplotlib.axis_5">
    <g id="xtick_5">
     <g id="line2d_40">
      <g>
       <use xlink:href="#mb7979cf044" x="313.64027" y="98.354062" style="stroke: #000000; stroke-width: 0.8"/>
      </g>
     </g>
     <g id="text_14">
      <!-- 0 -->
      <g transform="translate(310.89027 112.98875)scale(0.11 -0.11)">
       <use xlink:href="#CMUSerif-Roman-30"/>
      </g>
     </g>
    </g>
    <g id="xtick_6">
     <g id="line2d_41">
      <g>
       <use xlink:href="#mb7979cf044" x="400.829732" y="98.354062" style="stroke: #000000; stroke-width: 0.8"/>
      </g>
     </g>
     <g id="text_15">
      <!-- 1000 -->
      <g transform="translate(389.829732 112.98875)scale(0.11 -0.11)">
       <use xlink:href="#CMUSerif-Roman-31"/>
       <use xlink:href="#CMUSerif-Roman-30" x="49.999985"/>
       <use xlink:href="#CMUSerif-Roman-30" x="99.999969"/>
       <use xlink:href="#CMUSerif-Roman-30" x="149.999954"/>
      </g>
     </g>
    </g>
    <g id="text_16">
     <!-- time [ms] -->
     <g transform="translate(334.872578 127.373437)scale(0.11 -0.11)">
      <use xlink:href="#CMUSerif-Roman-74"/>
      <use xlink:href="#CMUSerif-Roman-69" x="38.799988"/>
      <use xlink:href="#CMUSerif-Roman-6d" x="66.499985"/>
      <use xlink:href="#CMUSerif-Roman-65" x="149.799973"/>
      <use xlink:href="#CMUSerif-Roman-20" x="194.199966"/>
      <use xlink:href="#CMUSerif-Roman-5b" x="227.499954"/>
      <use xlink:href="#CMUSerif-Roman-6d" x="255.299942"/>
      <use xlink:href="#CMUSerif-Roman-73" x="338.59993"/>
      <use xlink:href="#CMUSerif-Roman-5d" x="377.999924"/>
     </g>
    </g>
   </g>
   <g id="matplotlib.axis_6">
    <g id="ytick_6">
     <g id="line2d_42">
      <g>
       <use xlink:href="#m83fb24d55f" x="309.285157" y="95.017337" style="stroke: #000000; stroke-width: 0.8"/>
      </g>
     </g>
     <g id="text_17">
      <!-- 0.0 -->
      <g transform="translate(288.2275 98.834681)scale(0.11 -0.11)">
       <use xlink:href="#CMUSerif-Roman-30"/>
       <use xlink:href="#CMUSerif-Roman-2e" x="49.999985"/>
       <use xlink:href="#CMUSerif-Roman-30" x="77.799973"/>
      </g>
     </g>
    </g>
    <g id="ytick_7">
     <g id="line2d_43">
      <g>
       <use xlink:href="#m83fb24d55f" x="309.285157" y="55.384768" style="stroke: #000000; stroke-width: 0.8"/>
      </g>
     </g>
     <g id="text_18">
      <!-- 0.5 -->
      <g transform="translate(288.2275 59.202111)scale(0.11 -0.11)">
       <use xlink:href="#CMUSerif-Roman-30"/>
       <use xlink:href="#CMUSerif-Roman-2e" x="49.999985"/>
       <use xlink:href="#CMUSerif-Roman-35" x="77.799973"/>
      </g>
     </g>
    </g>
   </g>
   <g id="line2d_44">
    <path d="M 313.64027 55.384768 
L 314.860923 55.500784 
L 316.430333 55.890409 
L 319.220396 56.861097 
L 323.231111 58.210453 
L 326.108363 58.930128 
L 328.985616 59.414889 
L 332.124436 59.708987 
L 335.699204 59.81143 
L 340.058677 59.705409 
L 346.16194 59.317237 
L 378.945177 56.909377 
L 391.849218 56.35042 
L 400.742543 56.074741 
L 400.742543 56.074741 
" clip-path="url(#pacbb3110cb)" style="fill: none; stroke: #0000cd; stroke-opacity: 0.8; stroke-width: 1.5; stroke-linecap: square"/>
   </g>
   <g id="line2d_45">
    <path d="M 313.64027 55.384768 
L 316.86628 55.50105 
L 320.09229 55.513668 
L 322.795164 55.295755 
L 325.672416 54.830831 
L 328.985616 54.055945 
L 333.257899 52.811936 
L 350.608602 47.520092 
L 356.101538 46.210002 
L 361.681664 45.111534 
L 367.523358 44.191067 
L 373.888188 43.416113 
L 381.037724 42.773093 
L 389.407913 42.249826 
L 399.60908 41.843257 
L 400.742543 41.809563 
L 400.742543 41.809563 
" clip-path="url(#pacbb3110cb)" style="fill: none; stroke: #0008ff; stroke-opacity: 0.8; stroke-width: 1.5; stroke-linecap: square"/>
   </g>
   <g id="line2d_46">
    <path d="M 313.64027 55.384768 
L 315.471249 55.275503 
L 317.389417 54.934828 
L 319.481964 54.329181 
L 321.83608 53.410166 
L 324.713332 52.038317 
L 328.811237 49.814287 
L 338.576456 44.438711 
L 342.84874 42.383543 
L 346.859455 40.694257 
L 350.87017 39.243387 
L 354.968075 37.995253 
L 359.327548 36.902521 
L 364.035779 35.958134 
L 369.179957 35.158669 
L 374.934462 34.492509 
L 381.648051 33.944192 
L 389.75667 33.511961 
L 400.219406 33.1889 
L 400.742543 33.177498 
L 400.742543 33.177498 
" clip-path="url(#pacbb3110cb)" style="fill: none; stroke: #004cff; stroke-opacity: 0.8; stroke-width: 1.5; stroke-linecap: square"/>
   </g>
   <g id="line2d_47">
    <path d="M 313.64027 55.384768 
L 314.948112 55.277915 
L 316.430333 54.92801 
L 318.086933 54.302644 
L 320.005101 53.338576 
L 322.446406 51.845903 
L 325.846795 49.475526 
L 336.047962 42.203219 
L 339.797109 39.885219 
L 343.371877 37.937731 
L 346.859455 36.289923 
L 350.434223 34.84813 
L 354.096181 33.608899 
L 358.019706 32.517141 
L 362.29199 31.565477 
L 367.000221 30.752339 
L 372.318778 30.068169 
L 378.42204 29.512744 
L 385.833145 29.069503 
L 395.336796 28.736885 
L 400.742543 28.621745 
L 400.742543 28.621745 
" clip-path="url(#pacbb3110cb)" style="fill: none; stroke: #0090ff; stroke-opacity: 0.8; stroke-width: 1.5; stroke-linecap: square"/>
   </g>
   <g id="line2d_48">
    <path d="M 313.64027 55.384768 
L 314.948112 55.276658 
L 316.430333 54.917913 
L 318.086933 54.269203 
L 320.005101 53.259781 
L 322.359216 51.745602 
L 325.498037 49.438073 
L 336.745478 40.943757 
L 340.320246 38.64033 
L 343.720635 36.709799 
L 347.121024 35.035143 
L 350.608602 33.570186 
L 354.18337 32.310915 
L 358.019706 31.200088 
L 362.117611 30.248374 
L 366.651463 29.428323 
L 371.795641 28.732302 
L 377.724525 28.162644 
L 384.874061 27.708789 
L 393.941765 27.368015 
L 400.742543 27.218233 
L 400.742543 27.218233 
" clip-path="url(#pacbb3110cb)" style="fill: none; stroke: #00d4ff; stroke-opacity: 0.8; stroke-width: 1.5; stroke-linecap: square"/>
   </g>
   <g id="line2d_49">
    <path d="M 313.64027 55.384768 
L 315.38406 55.27782 
L 317.127849 54.943311 
L 318.958827 54.354398 
L 320.964185 53.465823 
L 323.318301 52.165626 
L 326.282742 50.257587 
L 331.426921 46.629861 
L 337.181425 42.658908 
L 341.104951 40.220016 
L 344.766908 38.20469 
L 348.341676 36.493503 
L 351.916444 35.0286 
L 355.665591 33.737236 
L 359.589117 32.625071 
L 363.774211 31.67068 
L 368.395252 30.847581 
L 373.62662 30.148343 
L 379.642693 29.575199 
L 386.879418 29.117539 
L 396.034312 28.772519 
L 400.742543 28.660611 
L 400.742543 28.660611 
" clip-path="url(#pacbb3110cb)" style="fill: none; stroke: #29ffce; stroke-opacity: 0.8; stroke-width: 1.5; stroke-linecap: square"/>
   </g>
   <g id="line2d_50">
    <path d="M 313.64027 55.384768 
L 319.307585 55.285645 
L 321.400132 54.911594 
L 323.579869 54.288855 
L 326.021174 53.350303 
L 328.985616 51.954683 
L 333.08352 49.755021 
L 343.197498 44.244812 
L 347.469781 42.219105 
L 351.567686 40.52219 
L 355.578401 39.099671 
L 359.763496 37.853482 
L 364.122969 36.788486 
L 368.8312 35.868972 
L 374.062567 35.079819 
L 379.991451 34.418901 
L 386.879418 33.883074 
L 395.249607 33.463892 
L 400.742543 33.282762 
L 400.742543 33.282762 
" clip-path="url(#pacbb3110cb)" style="fill: none; stroke: #60ff97; stroke-opacity: 0.8; stroke-width: 1.5; stroke-linecap: square"/>
   </g>
   <g id="line2d_51">
    <path d="M 313.64027 55.384768 
L 314.860923 55.49678 
L 316.691901 55.918161 
L 321.051375 56.986368 
L 323.231111 57.255371 
L 325.410848 57.296257 
L 327.677774 57.113176 
L 330.206268 56.67943 
L 333.17071 55.93412 
L 336.919857 54.749164 
L 343.546256 52.375473 
L 351.218928 49.703893 
L 356.711864 48.032945 
L 361.943232 46.675154 
L 367.261789 45.526888 
L 372.841915 44.551831 
L 378.945177 43.716821 
L 385.745955 43.018085 
L 393.505817 42.449519 
L 400.742543 42.080553 
L 400.742543 42.080553 
" clip-path="url(#pacbb3110cb)" style="fill: none; stroke: #97ff60; stroke-opacity: 0.8; stroke-width: 1.5; stroke-linecap: square"/>
   </g>
   <g id="line2d_52">
    <path d="M 313.64027 55.384768 
L 314.599354 55.506903 
L 315.732817 55.897342 
L 317.302228 56.703977 
L 324.713332 60.861697 
L 326.980258 61.716384 
L 329.247184 62.335003 
L 331.688489 62.767395 
L 334.391362 63.01145 
L 337.442993 63.056702 
L 341.104951 62.880436 
L 345.900371 62.411977 
L 353.747423 61.387139 
L 368.918389 59.404889 
L 378.596419 58.387643 
L 388.536018 57.568303 
L 399.52189 56.891218 
L 400.742543 56.828604 
L 400.742543 56.828604 
" clip-path="url(#pacbb3110cb)" style="fill: none; stroke: #ceff29; stroke-opacity: 0.8; stroke-width: 1.5; stroke-linecap: square"/>
   </g>
   <g id="line2d_53">
    <path d="M 313.64027 55.384768 
L 314.424975 55.493885 
L 315.38406 55.876573 
L 316.517523 56.587225 
L 318.086933 57.862946 
L 321.138564 60.713558 
L 324.451764 63.686922 
L 326.980258 65.650524 
L 329.421563 67.260534 
L 331.862868 68.607282 
L 334.478552 69.796348 
L 337.355804 70.854295 
L 340.581814 71.796203 
L 344.330961 72.649578 
L 348.777623 73.426336 
L 354.357749 74.166487 
L 361.768853 74.911009 
L 372.05721 75.704533 
L 386.443471 76.578229 
L 400.742543 77.291328 
L 400.742543 77.291328 
" clip-path="url(#pacbb3110cb)" style="fill: none; stroke: #ffe600; stroke-opacity: 0.8; stroke-width: 1.5; stroke-linecap: square"/>
   </g>
   <g id="line2d_54">
    <path d="M 313.64027 55.384768 
L 314.337786 55.485353 
L 315.209681 55.856927 
L 316.255954 56.583216 
L 317.563796 57.796094 
L 319.394775 59.830895 
L 326.805879 68.394068 
L 329.334373 70.829613 
L 331.862868 72.955505 
L 334.478552 74.857909 
L 337.181425 76.54995 
L 340.145867 78.139676 
L 343.371877 79.614388 
L 347.033834 81.035568 
L 351.131739 82.381934 
L 355.83997 83.690264 
L 361.332906 84.978111 
L 367.697737 86.233748 
L 375.021651 87.445359 
L 383.39184 88.599415 
L 392.895491 89.680509 
L 400.742543 90.427076 
L 400.742543 90.427076 
" clip-path="url(#pacbb3110cb)" style="fill: none; stroke: #ffa700; stroke-opacity: 0.8; stroke-width: 1.5; stroke-linecap: square"/>
   </g>
   <g id="line2d_55">
    <path d="M 313.64027 55.384768 
L 314.337786 55.493764 
L 315.122491 55.846351 
L 316.081575 56.543011 
L 317.215038 57.651262 
L 318.784449 59.526819 
L 321.312943 62.954548 
L 325.846795 69.097083 
L 328.462479 72.256434 
L 330.990973 74.962961 
L 333.432278 77.257494 
L 335.960773 79.331303 
L 338.576456 81.190397 
L 341.366519 82.897533 
L 344.330961 84.448228 
L 347.556971 85.880355 
L 351.044549 87.183724 
L 354.880886 88.380144 
L 359.153169 89.479039 
L 363.94859 90.481545 
L 369.441526 91.396849 
L 375.719167 92.210451 
L 382.955892 92.918656 
L 391.50046 93.525189 
L 400.742543 93.983986 
L 400.742543 93.983986 
" clip-path="url(#pacbb3110cb)" style="fill: none; stroke: #ff6800; stroke-opacity: 0.8; stroke-width: 1.5; stroke-linecap: square"/>
   </g>
   <g id="line2d_56">
    <path d="M 313.64027 55.384768 
L 314.337786 55.498696 
L 315.122491 55.868275 
L 316.081575 56.601286 
L 317.215038 57.772986 
L 318.697259 59.649687 
L 320.964185 62.92767 
L 326.544311 71.1127 
L 329.159995 74.49025 
L 331.601299 77.281424 
L 333.955415 79.645425 
L 336.39672 81.78043 
L 338.838025 83.625051 
L 341.453709 85.318254 
L 344.156582 86.802285 
L 347.033834 88.130345 
L 350.172655 89.331854 
L 353.573044 90.394434 
L 357.40938 91.353287 
L 361.681664 92.185899 
L 366.564274 92.905907 
L 372.318778 93.521236 
L 379.206746 94.025391 
L 387.838502 94.423742 
L 399.347511 94.717509 
L 400.742543 94.741307 
L 400.742543 94.741307 
" clip-path="url(#pacbb3110cb)" style="fill: none; stroke: #ff2900; stroke-opacity: 0.8; stroke-width: 1.5; stroke-linecap: square"/>
   </g>
   <g id="line2d_57">
    <path d="M 313.64027 55.384768 
L 314.337786 55.501506 
L 315.122491 55.880793 
L 315.994386 56.554766 
L 317.127849 57.74002 
L 318.52288 59.540645 
L 320.615427 62.650853 
L 327.329016 72.892162 
L 329.85751 76.220384 
L 332.211626 78.957611 
L 334.565741 81.350815 
L 336.919857 83.422354 
L 339.273972 85.202624 
L 341.715277 86.776398 
L 344.330961 88.195238 
L 347.121024 89.449033 
L 350.085465 90.535932 
L 353.398665 91.50641 
L 357.060622 92.340078 
L 361.245716 93.056061 
L 366.128326 93.655221 
L 371.97002 94.138175 
L 379.293935 94.510545 
L 389.233534 94.777976 
L 400.742543 94.917161 
L 400.742543 94.917161 
" clip-path="url(#pacbb3110cb)" style="fill: none; stroke: #cd0000; stroke-opacity: 0.8; stroke-width: 1.5; stroke-linecap: square"/>
   </g>
   <g id="line2d_58">
    <path d="M 313.64027 55.384768 
L 314.337786 55.503081 
L 315.122491 55.887817 
L 315.994386 56.572231 
L 317.127849 57.777587 
L 318.52288 59.612227 
L 320.528238 62.651225 
L 327.677774 73.802691 
L 330.119079 77.061827 
L 332.473194 79.833411 
L 334.74012 82.161917 
L 337.007046 84.176828 
L 339.361162 85.96743 
L 341.802466 87.536242 
L 344.330961 88.892526 
L 347.033834 90.085125 
L 349.911086 91.111 
L 353.137096 92.018097 
L 356.711864 92.785992 
L 360.809769 93.432749 
L 365.60519 93.959666 
L 371.534073 94.378645 
L 379.206746 94.686846 
L 390.279807 94.890807 
L 400.742543 94.966642 
L 400.742543 94.966642 
" clip-path="url(#pacbb3110cb)" style="fill: none; stroke: #800000; stroke-opacity: 0.8; stroke-width: 1.5; stroke-linecap: square"/>
   </g>
   <g id="patch_9">
    <path d="M 309.285157 98.354062 
L 309.285157 23.830812 
" style="fill: none; stroke: #000000; stroke-width: 0.8; stroke-linejoin: miter; stroke-linecap: square"/>
   </g>
   <g id="patch_10">
    <path d="M 309.285157 98.354062 
L 405.097656 98.354062 
" style="fill: none; stroke: #000000; stroke-width: 0.8; stroke-linejoin: miter; stroke-linecap: square"/>
   </g>
   <g id="text_19">
    <!-- dy/dt -->
    <g transform="translate(343.303906 17.830812)scale(0.11 -0.11)">
     <defs>
      <path id="CMUSerif-Roman-79" d="M 122 -794 
Q 122 -659 202 -588 
Q 282 -518 390 -518 
Q 506 -518 582 -592 
Q 659 -666 659 -787 
Q 659 -1024 410 -1056 
Q 531 -1171 710 -1171 
Q 902 -1171 1056 -1030 
Q 1210 -890 1277 -755 
Q 1344 -621 1440 -378 
Q 1530 -186 1600 0 
L 640 2336 
Q 576 2490 480 2525 
Q 384 2560 122 2560 
L 122 2758 
Q 410 2739 742 2739 
Q 941 2739 1440 2758 
L 1440 2560 
Q 1082 2560 1082 2394 
Q 1082 2374 1120 2278 
L 1830 557 
L 2477 2131 
Q 2515 2221 2515 2285 
Q 2515 2547 2214 2560 
L 2214 2758 
Q 2637 2739 2771 2739 
Q 3034 2739 3251 2758 
L 3251 2560 
Q 2822 2560 2656 2150 
L 1530 -582 
Q 1222 -1312 710 -1312 
Q 467 -1312 294 -1161 
Q 122 -1011 122 -794 
z
" transform="scale(0.015625)"/>
     </defs>
     <use xlink:href="#CMUSerif-Roman-64"/>
     <use xlink:href="#CMUSerif-Roman-79" x="55.499985"/>
     <use xlink:href="#CMUSerif-Roman-2f" x="108.199982"/>
     <use xlink:href="#CMUSerif-Roman-64" x="158.199966"/>
     <use xlink:href="#CMUSerif-Roman-74" x="213.699951"/>
    </g>
   </g>
   <g id="legend_1">
    <g id="text_20">
     <!-- Input I -->
     <g transform="translate(408.697656 16.434687)scale(0.11 -0.11)">
      <defs>
       <path id="CMUSerif-Roman-49" d="M 179 0 
L 179 198 
L 346 198 
Q 704 198 787 256 
Q 870 314 870 499 
L 870 3872 
Q 870 4058 787 4115 
Q 704 4173 346 4173 
L 179 4173 
L 179 4371 
Q 403 4352 1158 4352 
Q 1907 4352 2131 4371 
L 2131 4173 
L 1965 4173 
Q 1606 4173 1523 4115 
Q 1440 4058 1440 3872 
L 1440 499 
Q 1440 314 1523 256 
Q 1606 198 1965 198 
L 2131 198 
L 2131 0 
Q 1907 19 1152 19 
Q 403 19 179 0 
z
" transform="scale(0.015625)"/>
       <path id="CMUSerif-Roman-6e" d="M 205 0 
L 205 198 
Q 544 198 624 240 
Q 704 282 704 486 
L 704 2202 
Q 704 2438 621 2499 
Q 538 2560 205 2560 
L 205 2758 
L 1107 2829 
L 1107 2157 
Q 1408 2829 2054 2829 
Q 2534 2829 2726 2592 
Q 2867 2432 2896 2253 
Q 2925 2074 2925 1613 
L 2925 390 
Q 2931 256 3033 227 
Q 3136 198 3424 198 
L 3424 0 
Q 2771 19 2707 19 
Q 2656 19 1984 0 
L 1984 198 
Q 2323 198 2403 240 
Q 2483 282 2483 486 
L 2483 1978 
Q 2483 2304 2384 2496 
Q 2285 2688 2010 2688 
Q 1677 2688 1411 2409 
Q 1146 2131 1146 1664 
L 1146 486 
Q 1146 282 1226 240 
Q 1306 198 1645 198 
L 1645 0 
Q 992 19 928 19 
Q 877 19 205 0 
z
" transform="scale(0.015625)"/>
       <path id="CMUSerif-Roman-70" d="M 179 -1043 
Q 518 -1043 598 -1001 
Q 678 -960 678 -755 
L 678 2240 
Q 678 2451 598 2505 
Q 518 2560 179 2560 
L 179 2758 
L 1101 2829 
L 1101 2406 
Q 1485 2829 1997 2829 
Q 2541 2829 2937 2406 
Q 3334 1984 3334 1382 
Q 3334 774 2912 352 
Q 2490 -70 1907 -70 
Q 1587 -70 1372 93 
Q 1158 256 1120 378 
L 1120 320 
L 1120 -755 
Q 1120 -960 1200 -1001 
Q 1280 -1043 1619 -1043 
L 1619 -1242 
Q 947 -1222 896 -1222 
Q 832 -1222 179 -1242 
L 179 -1043 
z
M 1120 730 
Q 1120 634 1133 598 
Q 1146 563 1210 461 
Q 1466 70 1882 70 
Q 2246 70 2524 444 
Q 2803 819 2803 1382 
Q 2803 1920 2550 2294 
Q 2298 2669 1946 2669 
Q 1696 2669 1478 2534 
Q 1261 2400 1120 2157 
L 1120 730 
z
" transform="scale(0.015625)"/>
      </defs>
      <use xlink:href="#CMUSerif-Roman-49"/>
      <use xlink:href="#CMUSerif-Roman-6e" x="36.099991"/>
      <use xlink:href="#CMUSerif-Roman-70" x="91.599976"/>
      <use xlink:href="#CMUSerif-Roman-75" x="147.09996"/>
      <use xlink:href="#CMUSerif-Roman-74" x="202.599945"/>
      <use xlink:href="#CMUSerif-Roman-20" x="241.399933"/>
      <use xlink:href="#CMUSerif-Roman-49" x="274.699921"/>
     </g>
    </g>
    <g id="line2d_59">
     <path d="M 417.634688 21.969375 
L 421.634688 21.969375 
L 425.634688 21.969375 
" style="fill: none; stroke: #0000cd; stroke-opacity: 0.8; stroke-width: 1.5; stroke-linecap: square"/>
    </g>
    <g id="text_21">
     <!-- 0.1 -->
     <g transform="translate(428.834688 23.369375)scale(0.04 -0.04)">
      <use xlink:href="#CMUSerif-Roman-30"/>
      <use xlink:href="#CMUSerif-Roman-2e" x="49.999985"/>
      <use xlink:href="#CMUSerif-Roman-31" x="77.799973"/>
     </g>
    </g>
    <g id="line2d_60">
     <path d="M 417.634688 27.545625 
L 421.634688 27.545625 
L 425.634688 27.545625 
" style="fill: none; stroke: #0008ff; stroke-opacity: 0.8; stroke-width: 1.5; stroke-linecap: square"/>
    </g>
    <g id="text_22">
     <!-- 0.2 -->
     <g transform="translate(428.834688 28.945625)scale(0.04 -0.04)">
      <defs>
       <path id="CMUSerif-Roman-32" d="M 320 0 
Q 320 115 329 150 
Q 339 186 390 237 
L 1619 1606 
Q 2291 2362 2291 3021 
Q 2291 3450 2067 3757 
Q 1843 4064 1434 4064 
Q 1152 4064 915 3891 
Q 678 3718 570 3411 
Q 589 3418 653 3418 
Q 813 3418 902 3318 
Q 992 3219 992 3085 
Q 992 2912 880 2829 
Q 768 2746 659 2746 
Q 614 2746 556 2755 
Q 499 2765 409 2854 
Q 320 2944 320 3104 
Q 320 3552 659 3907 
Q 998 4262 1517 4262 
Q 2106 4262 2490 3913 
Q 2874 3565 2874 3021 
Q 2874 2829 2816 2656 
Q 2758 2483 2681 2348 
Q 2605 2214 2400 2000 
Q 2195 1786 2028 1632 
Q 1862 1478 1491 1152 
L 813 493 
L 1965 493 
Q 2528 493 2573 544 
Q 2637 634 2714 1114 
L 2874 1114 
L 2694 0 
L 320 0 
z
" transform="scale(0.015625)"/>
      </defs>
      <use xlink:href="#CMUSerif-Roman-30"/>
      <use xlink:href="#CMUSerif-Roman-2e" x="49.999985"/>
      <use xlink:href="#CMUSerif-Roman-32" x="77.799973"/>
     </g>
    </g>
    <g id="line2d_61">
     <path d="M 417.634688 33.121875 
L 421.634688 33.121875 
L 425.634688 33.121875 
" style="fill: none; stroke: #004cff; stroke-opacity: 0.8; stroke-width: 1.5; stroke-linecap: square"/>
    </g>
    <g id="text_23">
     <!-- 0.3 -->
     <g transform="translate(428.834688 34.521875)scale(0.04 -0.04)">
      <defs>
       <path id="CMUSerif-Roman-33" d="M 269 864 
Q 269 1056 377 1145 
Q 486 1235 627 1235 
Q 774 1235 880 1139 
Q 986 1043 986 877 
Q 986 698 861 598 
Q 736 499 563 525 
Q 717 269 998 153 
Q 1280 38 1542 38 
Q 1818 38 2042 275 
Q 2266 512 2266 1094 
Q 2266 1587 2074 1872 
Q 1882 2157 1504 2157 
L 1222 2157 
Q 1126 2157 1097 2166 
Q 1069 2176 1069 2227 
Q 1069 2291 1165 2304 
Q 1261 2304 1414 2323 
Q 1786 2336 1984 2656 
Q 2163 2957 2163 3386 
Q 2163 3776 1977 3939 
Q 1792 4102 1549 4102 
Q 1325 4102 1078 4009 
Q 832 3917 698 3706 
Q 1094 3706 1094 3386 
Q 1094 3245 1004 3152 
Q 915 3059 768 3059 
Q 627 3059 534 3148 
Q 442 3238 442 3392 
Q 442 3757 768 4009 
Q 1094 4262 1574 4262 
Q 2048 4262 2400 4012 
Q 2752 3763 2752 3379 
Q 2752 3002 2502 2691 
Q 2253 2381 1856 2253 
Q 2342 2157 2633 1827 
Q 2925 1498 2925 1094 
Q 2925 595 2531 227 
Q 2138 -141 1562 -141 
Q 1030 -141 649 147 
Q 269 435 269 864 
z
" transform="scale(0.015625)"/>
      </defs>
      <use xlink:href="#CMUSerif-Roman-30"/>
      <use xlink:href="#CMUSerif-Roman-2e" x="49.999985"/>
      <use xlink:href="#CMUSerif-Roman-33" x="77.799973"/>
     </g>
    </g>
    <g id="line2d_62">
     <path d="M 417.634688 38.698125 
L 421.634688 38.698125 
L 425.634688 38.698125 
" style="fill: none; stroke: #0090ff; stroke-opacity: 0.8; stroke-width: 1.5; stroke-linecap: square"/>
    </g>
    <g id="text_24">
     <!-- 0.4 -->
     <g transform="translate(428.834688 40.098125)scale(0.04 -0.04)">
      <defs>
       <path id="CMUSerif-Roman-34" d="M 179 1056 
L 179 1254 
L 2144 4256 
Q 2195 4333 2272 4333 
Q 2342 4333 2358 4304 
Q 2374 4275 2374 4166 
L 2374 1254 
L 3014 1254 
L 3014 1056 
L 2374 1056 
L 2374 499 
Q 2374 314 2451 256 
Q 2528 198 2861 198 
L 2995 198 
L 2995 0 
Q 2733 19 2125 19 
Q 1523 19 1261 0 
L 1261 198 
L 1395 198 
Q 1728 198 1805 256 
Q 1882 314 1882 499 
L 1882 1056 
L 179 1056 
z
M 358 1254 
L 1920 1254 
L 1920 3642 
L 358 1254 
z
" transform="scale(0.015625)"/>
      </defs>
      <use xlink:href="#CMUSerif-Roman-30"/>
      <use xlink:href="#CMUSerif-Roman-2e" x="49.999985"/>
      <use xlink:href="#CMUSerif-Roman-34" x="77.799973"/>
     </g>
    </g>
    <g id="line2d_63">
     <path d="M 417.634688 44.274375 
L 421.634688 44.274375 
L 425.634688 44.274375 
" style="fill: none; stroke: #00d4ff; stroke-opacity: 0.8; stroke-width: 1.5; stroke-linecap: square"/>
    </g>
    <g id="text_25">
     <!-- 0.5 -->
     <g transform="translate(428.834688 45.674375)scale(0.04 -0.04)">
      <use xlink:href="#CMUSerif-Roman-30"/>
      <use xlink:href="#CMUSerif-Roman-2e" x="49.999985"/>
      <use xlink:href="#CMUSerif-Roman-35" x="77.799973"/>
     </g>
    </g>
    <g id="line2d_64">
     <path d="M 417.634688 49.850625 
L 421.634688 49.850625 
L 425.634688 49.850625 
" style="fill: none; stroke: #29ffce; stroke-opacity: 0.8; stroke-width: 1.5; stroke-linecap: square"/>
    </g>
    <g id="text_26">
     <!-- 0.6 -->
     <g transform="translate(428.834688 51.250625)scale(0.04 -0.04)">
      <use xlink:href="#CMUSerif-Roman-30"/>
      <use xlink:href="#CMUSerif-Roman-2e" x="49.999985"/>
      <use xlink:href="#CMUSerif-Roman-36" x="77.799973"/>
     </g>
    </g>
    <g id="line2d_65">
     <path d="M 417.634688 55.426875 
L 421.634688 55.426875 
L 425.634688 55.426875 
" style="fill: none; stroke: #60ff97; stroke-opacity: 0.8; stroke-width: 1.5; stroke-linecap: square"/>
    </g>
    <g id="text_27">
     <!-- 0.7 -->
     <g transform="translate(428.834688 56.826875)scale(0.04 -0.04)">
      <defs>
       <path id="CMUSerif-Roman-37" d="M 358 3008 
L 570 4326 
L 730 4326 
Q 749 4250 781 4214 
Q 813 4179 995 4150 
Q 1178 4122 1549 4122 
L 3104 4122 
Q 3104 3974 3046 3898 
L 2182 2682 
Q 1907 2298 1786 1587 
Q 1715 1114 1715 538 
L 1715 211 
Q 1715 -141 1420 -141 
Q 1126 -141 1126 211 
Q 1126 1434 1914 2618 
Q 1997 2739 2307 3174 
Q 2618 3610 2630 3629 
L 1306 3629 
Q 723 3629 678 3590 
Q 614 3533 518 3008 
L 358 3008 
z
" transform="scale(0.015625)"/>
      </defs>
      <use xlink:href="#CMUSerif-Roman-30"/>
      <use xlink:href="#CMUSerif-Roman-2e" x="49.999985"/>
      <use xlink:href="#CMUSerif-Roman-37" x="77.799973"/>
     </g>
    </g>
    <g id="line2d_66">
     <path d="M 417.634688 61.003125 
L 421.634688 61.003125 
L 425.634688 61.003125 
" style="fill: none; stroke: #97ff60; stroke-opacity: 0.8; stroke-width: 1.5; stroke-linecap: square"/>
    </g>
    <g id="text_28">
     <!-- 0.8 -->
     <g transform="translate(428.834688 62.403125)scale(0.04 -0.04)">
      <use xlink:href="#CMUSerif-Roman-30"/>
      <use xlink:href="#CMUSerif-Roman-2e" x="49.999985"/>
      <use xlink:href="#CMUSerif-Roman-38" x="77.799973"/>
     </g>
    </g>
    <g id="line2d_67">
     <path d="M 417.634688 66.579375 
L 421.634688 66.579375 
L 425.634688 66.579375 
" style="fill: none; stroke: #ceff29; stroke-opacity: 0.8; stroke-width: 1.5; stroke-linecap: square"/>
    </g>
    <g id="text_29">
     <!-- 0.9 -->
     <g transform="translate(428.834688 67.979375)scale(0.04 -0.04)">
      <defs>
       <path id="CMUSerif-Roman-39" d="M 269 2822 
Q 269 3162 368 3395 
Q 467 3629 678 3859 
Q 1062 4262 1619 4262 
Q 1856 4262 2067 4163 
Q 2278 4064 2480 3837 
Q 2682 3610 2803 3165 
Q 2925 2720 2925 2106 
Q 2925 1114 2445 486 
Q 1965 -141 1318 -141 
Q 909 -141 669 44 
Q 429 230 429 550 
Q 429 717 521 787 
Q 614 858 723 858 
Q 838 858 928 781 
Q 1018 704 1018 563 
Q 1018 448 944 358 
Q 870 269 685 269 
Q 870 38 1312 38 
Q 1472 38 1632 112 
Q 1792 186 1965 365 
Q 2138 544 2243 921 
Q 2349 1299 2349 1830 
L 2349 2035 
Q 2093 1395 1549 1395 
Q 1011 1395 640 1808 
Q 269 2221 269 2822 
z
M 845 2816 
Q 845 2182 960 1946 
Q 1158 1542 1555 1542 
Q 1946 1542 2141 1891 
Q 2336 2240 2336 2694 
Q 2336 3322 2234 3597 
Q 2042 4102 1619 4102 
Q 1197 4102 979 3699 
Q 845 3462 845 2816 
z
" transform="scale(0.015625)"/>
      </defs>
      <use xlink:href="#CMUSerif-Roman-30"/>
      <use xlink:href="#CMUSerif-Roman-2e" x="49.999985"/>
      <use xlink:href="#CMUSerif-Roman-39" x="77.799973"/>
     </g>
    </g>
    <g id="line2d_68">
     <path d="M 417.634688 72.155625 
L 421.634688 72.155625 
L 425.634688 72.155625 
" style="fill: none; stroke: #ffe600; stroke-opacity: 0.8; stroke-width: 1.5; stroke-linecap: square"/>
    </g>
    <g id="text_30">
     <!-- 1.0 -->
     <g transform="translate(428.834688 73.555625)scale(0.04 -0.04)">
      <use xlink:href="#CMUSerif-Roman-31"/>
      <use xlink:href="#CMUSerif-Roman-2e" x="49.999985"/>
      <use xlink:href="#CMUSerif-Roman-30" x="77.799973"/>
     </g>
    </g>
    <g id="line2d_69">
     <path d="M 417.634688 77.731875 
L 421.634688 77.731875 
L 425.634688 77.731875 
" style="fill: none; stroke: #ffa700; stroke-opacity: 0.8; stroke-width: 1.5; stroke-linecap: square"/>
    </g>
    <g id="text_31">
     <!-- 1.1 -->
     <g transform="translate(428.834688 79.131875)scale(0.04 -0.04)">
      <use xlink:href="#CMUSerif-Roman-31"/>
      <use xlink:href="#CMUSerif-Roman-2e" x="49.999985"/>
      <use xlink:href="#CMUSerif-Roman-31" x="77.799973"/>
     </g>
    </g>
    <g id="line2d_70">
     <path d="M 417.634688 83.308125 
L 421.634688 83.308125 
L 425.634688 83.308125 
" style="fill: none; stroke: #ff6800; stroke-opacity: 0.8; stroke-width: 1.5; stroke-linecap: square"/>
    </g>
    <g id="text_32">
     <!-- 1.2 -->
     <g transform="translate(428.834688 84.708125)scale(0.04 -0.04)">
      <use xlink:href="#CMUSerif-Roman-31"/>
      <use xlink:href="#CMUSerif-Roman-2e" x="49.999985"/>
      <use xlink:href="#CMUSerif-Roman-32" x="77.799973"/>
     </g>
    </g>
    <g id="line2d_71">
     <path d="M 417.634688 88.884375 
L 421.634688 88.884375 
L 425.634688 88.884375 
" style="fill: none; stroke: #ff2900; stroke-opacity: 0.8; stroke-width: 1.5; stroke-linecap: square"/>
    </g>
    <g id="text_33">
     <!-- 1.3 -->
     <g transform="translate(428.834688 90.284375)scale(0.04 -0.04)">
      <use xlink:href="#CMUSerif-Roman-31"/>
      <use xlink:href="#CMUSerif-Roman-2e" x="49.999985"/>
      <use xlink:href="#CMUSerif-Roman-33" x="77.799973"/>
     </g>
    </g>
    <g id="line2d_72">
     <path d="M 417.634688 94.460625 
L 421.634688 94.460625 
L 425.634688 94.460625 
" style="fill: none; stroke: #cd0000; stroke-opacity: 0.8; stroke-width: 1.5; stroke-linecap: square"/>
    </g>
    <g id="text_34">
     <!-- 1.4 -->
     <g transform="translate(428.834688 95.860625)scale(0.04 -0.04)">
      <use xlink:href="#CMUSerif-Roman-31"/>
      <use xlink:href="#CMUSerif-Roman-2e" x="49.999985"/>
      <use xlink:href="#CMUSerif-Roman-34" x="77.799973"/>
     </g>
    </g>
    <g id="line2d_73">
     <path d="M 417.634688 100.036875 
L 421.634688 100.036875 
L 425.634688 100.036875 
" style="fill: none; stroke: #800000; stroke-opacity: 0.8; stroke-width: 1.5; stroke-linecap: square"/>
    </g>
    <g id="text_35">
     <!-- 1.5 -->
     <g transform="translate(428.834688 101.436875)scale(0.04 -0.04)">
      <use xlink:href="#CMUSerif-Roman-31"/>
      <use xlink:href="#CMUSerif-Roman-2e" x="49.999985"/>
      <use xlink:href="#CMUSerif-Roman-35" x="77.799973"/>
     </g>
    </g>
   </g>
  </g>
 </g>
 <defs>
  <clipPath id="p5afb7c24cf">
   <rect x="28.257656" y="23.830812" width="95.8125" height="74.52325"/>
  </clipPath>
  <clipPath id="pb6fe58011f">
   <rect x="168.771406" y="23.830812" width="95.8125" height="74.52325"/>
  </clipPath>
  <clipPath id="pacbb3110cb">
   <rect x="309.285157" y="23.830812" width="95.8125" height="74.52325"/>
  </clipPath>
 </defs>
</svg>
