<?xml version="1.0" encoding="utf-8" standalone="no"?>
<!DOCTYPE svg PUBLIC "-//W3C//DTD SVG 1.1//EN"
  "http://www.w3.org/Graphics/SVG/1.1/DTD/svg11.dtd">
<svg xmlns:xlink="http://www.w3.org/1999/xlink" width="185.756996pt" height="120.253935pt" viewBox="0 0 185.756996 120.253935" xmlns="http://www.w3.org/2000/svg" version="1.1">
 <metadata>
  <rdf:RDF xmlns:dc="http://purl.org/dc/elements/1.1/" xmlns:cc="http://creativecommons.org/ns#" xmlns:rdf="http://www.w3.org/1999/02/22-rdf-syntax-ns#">
   <cc:Work>
    <dc:type rdf:resource="http://purl.org/dc/dcmitype/StillImage"/>
    <dc:date>2022-07-28T08:48:24.484845</dc:date>
    <dc:format>image/svg+xml</dc:format>
    <dc:creator>
     <cc:Agent>
      <dc:title>Matplotlib v3.5.1, https://matplotlib.org/</dc:title>
     </cc:Agent>
    </dc:creator>
   </cc:Work>
  </rdf:RDF>
 </metadata>
 <defs>
  <style type="text/css">*{stroke-linejoin: round; stroke-linecap: butt}</style>
 </defs>
 <g id="figure_1">
  <g id="patch_1">
   <path d="M 0 120.253935 
L 185.756996 120.253935 
L 185.756996 0 
L 0 0 
L 0 120.253935 
z
" style="fill: none"/>
  </g>
  <g id="axes_1">
   <g id="patch_2">
    <path d="M 42.027031 82.515185 
L 173.409362 82.515185 
L 173.409362 7.612685 
L 42.027031 7.612685 
z
" style="fill: #ffffff"/>
   </g>
   <g id="matplotlib.axis_1">
    <g id="xtick_1">
     <g id="line2d_1">
      <defs>
       <path id="mfe41b5dfb4" d="M 0 0 
L 0 3.5 
" style="stroke: #000000; stroke-width: 0.8"/>
      </defs>
      <g>
       <use xlink:href="#mfe41b5dfb4" x="47.998955" y="82.515185" style="stroke: #000000; stroke-width: 0.8"/>
      </g>
     </g>
     <g id="text_1">
      <!-- 0 -->
      <g transform="translate(45.248955 97.149872)scale(0.11 -0.11)">
       <defs>
        <path id="CMUSerif-Roman-30" d="M 250 2048 
Q 250 2989 486 3501 
Q 819 4262 1600 4262 
Q 1766 4262 1939 4217 
Q 2112 4173 2333 4000 
Q 2554 3827 2688 3546 
Q 2944 3002 2944 2048 
Q 2944 1114 2707 602 
Q 2362 -141 1594 -141 
Q 1306 -141 1014 6 
Q 723 154 538 506 
Q 250 1037 250 2048 
z
M 781 2125 
Q 781 1158 851 774 
Q 928 358 1142 179 
Q 1357 0 1594 0 
Q 1850 0 2064 192 
Q 2278 384 2342 800 
Q 2413 1210 2413 2125 
Q 2413 3014 2349 3373 
Q 2266 3789 2042 3955 
Q 1818 4122 1594 4122 
Q 1510 4122 1420 4096 
Q 1331 4070 1203 4000 
Q 1075 3930 976 3750 
Q 877 3571 832 3302 
Q 781 2957 781 2125 
z
" transform="scale(0.015625)"/>
       </defs>
       <use xlink:href="#CMUSerif-Roman-30"/>
      </g>
     </g>
    </g>
    <g id="xtick_2">
     <g id="line2d_2">
      <g>
       <use xlink:href="#mfe41b5dfb4" x="107.777976" y="82.515185" style="stroke: #000000; stroke-width: 0.8"/>
      </g>
     </g>
     <g id="text_2">
      <!-- 500 -->
      <g transform="translate(99.527976 97.149872)scale(0.11 -0.11)">
       <defs>
        <path id="CMUSerif-Roman-35" d="M 320 1030 
Q 320 1222 422 1296 
Q 525 1370 634 1370 
Q 781 1370 867 1277 
Q 954 1184 954 1056 
Q 954 928 867 835 
Q 781 742 634 742 
Q 563 742 525 755 
Q 608 461 867 249 
Q 1126 38 1466 38 
Q 1894 38 2150 454 
Q 2304 723 2304 1331 
Q 2304 1869 2189 2138 
Q 2010 2547 1645 2547 
Q 1126 2547 819 2099 
Q 781 2042 736 2042 
Q 672 2042 659 2077 
Q 646 2112 646 2208 
L 646 4102 
Q 646 4256 710 4256 
Q 736 4256 787 4237 
Q 1190 4058 1638 4058 
Q 2099 4058 2509 4243 
Q 2541 4262 2560 4262 
Q 2624 4262 2624 4192 
Q 2624 4166 2573 4092 
Q 2522 4019 2413 3923 
Q 2304 3827 2163 3737 
Q 2022 3648 1817 3587 
Q 1613 3526 1389 3526 
Q 1120 3526 845 3610 
L 845 2362 
Q 1178 2688 1658 2688 
Q 2170 2688 2522 2275 
Q 2874 1862 2874 1286 
Q 2874 685 2458 272 
Q 2042 -141 1478 -141 
Q 966 -141 643 224 
Q 320 589 320 1030 
z
" transform="scale(0.015625)"/>
       </defs>
       <use xlink:href="#CMUSerif-Roman-35"/>
       <use xlink:href="#CMUSerif-Roman-30" x="49.999985"/>
       <use xlink:href="#CMUSerif-Roman-30" x="99.999969"/>
      </g>
     </g>
    </g>
    <g id="xtick_3">
     <g id="line2d_3">
      <g>
       <use xlink:href="#mfe41b5dfb4" x="167.556996" y="82.515185" style="stroke: #000000; stroke-width: 0.8"/>
      </g>
     </g>
     <g id="text_3">
      <!-- 1000 -->
      <g transform="translate(156.556996 97.149872)scale(0.11 -0.11)">
       <defs>
        <path id="CMUSerif-Roman-31" d="M 570 3654 
L 570 3853 
Q 1338 3853 1734 4262 
Q 1843 4262 1862 4236 
Q 1882 4211 1882 4096 
L 1882 506 
Q 1882 314 1974 256 
Q 2067 198 2477 198 
L 2682 198 
L 2682 0 
Q 2458 19 1645 19 
Q 832 19 608 0 
L 608 198 
L 813 198 
Q 1216 198 1312 256 
Q 1408 314 1408 506 
L 1408 3821 
Q 1075 3654 570 3654 
z
" transform="scale(0.015625)"/>
       </defs>
       <use xlink:href="#CMUSerif-Roman-31"/>
       <use xlink:href="#CMUSerif-Roman-30" x="49.999985"/>
       <use xlink:href="#CMUSerif-Roman-30" x="99.999969"/>
       <use xlink:href="#CMUSerif-Roman-30" x="149.999954"/>
      </g>
     </g>
    </g>
    <g id="text_4">
     <!-- t -->
     <g transform="translate(105.584369 110.919247)scale(0.11 -0.11)">
      <defs>
       <path id="CMUSerif-Roman-74" d="M 122 2560 
L 122 2701 
Q 416 2714 611 2922 
Q 806 3130 873 3386 
Q 941 3642 947 3936 
L 1107 3936 
L 1107 2758 
L 2022 2758 
L 2022 2560 
L 1107 2560 
L 1107 781 
Q 1107 90 1536 90 
Q 1722 90 1843 278 
Q 1965 467 1965 806 
L 1965 1158 
L 2125 1158 
L 2125 794 
Q 2125 448 1965 189 
Q 1805 -70 1491 -70 
Q 1376 -70 1261 -41 
Q 1146 -13 998 64 
Q 851 141 758 329 
Q 666 518 666 794 
L 666 2560 
L 122 2560 
z
" transform="scale(0.015625)"/>
      </defs>
      <use xlink:href="#CMUSerif-Roman-74"/>
     </g>
    </g>
   </g>
   <g id="matplotlib.axis_2">
    <g id="ytick_1">
     <g id="line2d_4">
      <defs>
       <path id="mdf22589f8b" d="M 0 0 
L -3.5 0 
" style="stroke: #000000; stroke-width: 0.8"/>
      </defs>
      <g>
       <use xlink:href="#mdf22589f8b" x="42.027031" y="64.99006" style="stroke: #000000; stroke-width: 0.8"/>
      </g>
     </g>
     <g id="text_5">
      <!-- 0.1 -->
      <g transform="translate(20.969375 68.807404)scale(0.11 -0.11)">
       <defs>
        <path id="CMUSerif-Roman-2e" d="M 640 102 
Q 544 205 544 339 
Q 544 474 640 573 
Q 736 672 883 672 
Q 1024 672 1120 579 
Q 1216 486 1216 339 
Q 1216 192 1113 96 
Q 1011 0 883 0 
Q 736 0 640 102 
z
" transform="scale(0.015625)"/>
       </defs>
       <use xlink:href="#CMUSerif-Roman-30"/>
       <use xlink:href="#CMUSerif-Roman-2e" x="49.999985"/>
       <use xlink:href="#CMUSerif-Roman-31" x="77.799973"/>
      </g>
     </g>
    </g>
    <g id="ytick_2">
     <g id="line2d_5">
      <g>
       <use xlink:href="#mdf22589f8b" x="42.027031" y="38.003702" style="stroke: #000000; stroke-width: 0.8"/>
      </g>
     </g>
     <g id="text_6">
      <!-- 0.2 -->
      <g transform="translate(20.969375 41.821046)scale(0.11 -0.11)">
       <defs>
        <path id="CMUSerif-Roman-32" d="M 320 0 
Q 320 115 329 150 
Q 339 186 390 237 
L 1619 1606 
Q 2291 2362 2291 3021 
Q 2291 3450 2067 3757 
Q 1843 4064 1434 4064 
Q 1152 4064 915 3891 
Q 678 3718 570 3411 
Q 589 3418 653 3418 
Q 813 3418 902 3318 
Q 992 3219 992 3085 
Q 992 2912 880 2829 
Q 768 2746 659 2746 
Q 614 2746 556 2755 
Q 499 2765 409 2854 
Q 320 2944 320 3104 
Q 320 3552 659 3907 
Q 998 4262 1517 4262 
Q 2106 4262 2490 3913 
Q 2874 3565 2874 3021 
Q 2874 2829 2816 2656 
Q 2758 2483 2681 2348 
Q 2605 2214 2400 2000 
Q 2195 1786 2028 1632 
Q 1862 1478 1491 1152 
L 813 493 
L 1965 493 
Q 2528 493 2573 544 
Q 2637 634 2714 1114 
L 2874 1114 
L 2694 0 
L 320 0 
z
" transform="scale(0.015625)"/>
       </defs>
       <use xlink:href="#CMUSerif-Roman-30"/>
       <use xlink:href="#CMUSerif-Roman-2e" x="49.999985"/>
       <use xlink:href="#CMUSerif-Roman-32" x="77.799973"/>
      </g>
     </g>
    </g>
    <g id="ytick_3">
     <g id="line2d_6">
      <g>
       <use xlink:href="#mdf22589f8b" x="42.027031" y="11.017344" style="stroke: #000000; stroke-width: 0.8"/>
      </g>
     </g>
     <g id="text_7">
      <!-- 0.3 -->
      <g transform="translate(20.969375 14.834688)scale(0.11 -0.11)">
       <defs>
        <path id="CMUSerif-Roman-33" d="M 269 864 
Q 269 1056 377 1145 
Q 486 1235 627 1235 
Q 774 1235 880 1139 
Q 986 1043 986 877 
Q 986 698 861 598 
Q 736 499 563 525 
Q 717 269 998 153 
Q 1280 38 1542 38 
Q 1818 38 2042 275 
Q 2266 512 2266 1094 
Q 2266 1587 2074 1872 
Q 1882 2157 1504 2157 
L 1222 2157 
Q 1126 2157 1097 2166 
Q 1069 2176 1069 2227 
Q 1069 2291 1165 2304 
Q 1261 2304 1414 2323 
Q 1786 2336 1984 2656 
Q 2163 2957 2163 3386 
Q 2163 3776 1977 3939 
Q 1792 4102 1549 4102 
Q 1325 4102 1078 4009 
Q 832 3917 698 3706 
Q 1094 3706 1094 3386 
Q 1094 3245 1004 3152 
Q 915 3059 768 3059 
Q 627 3059 534 3148 
Q 442 3238 442 3392 
Q 442 3757 768 4009 
Q 1094 4262 1574 4262 
Q 2048 4262 2400 4012 
Q 2752 3763 2752 3379 
Q 2752 3002 2502 2691 
Q 2253 2381 1856 2253 
Q 2342 2157 2633 1827 
Q 2925 1498 2925 1094 
Q 2925 595 2531 227 
Q 2138 -141 1562 -141 
Q 1030 -141 649 147 
Q 269 435 269 864 
z
" transform="scale(0.015625)"/>
       </defs>
       <use xlink:href="#CMUSerif-Roman-30"/>
       <use xlink:href="#CMUSerif-Roman-2e" x="49.999985"/>
       <use xlink:href="#CMUSerif-Roman-33" x="77.799973"/>
      </g>
     </g>
    </g>
    <g id="text_8">
     <!-- y -->
     <g transform="translate(14.714375 47.962607)rotate(-90)scale(0.11 -0.11)">
      <defs>
       <path id="CMUSerif-Roman-79" d="M 122 -794 
Q 122 -659 202 -588 
Q 282 -518 390 -518 
Q 506 -518 582 -592 
Q 659 -666 659 -787 
Q 659 -1024 410 -1056 
Q 531 -1171 710 -1171 
Q 902 -1171 1056 -1030 
Q 1210 -890 1277 -755 
Q 1344 -621 1440 -378 
Q 1530 -186 1600 0 
L 640 2336 
Q 576 2490 480 2525 
Q 384 2560 122 2560 
L 122 2758 
Q 410 2739 742 2739 
Q 941 2739 1440 2758 
L 1440 2560 
Q 1082 2560 1082 2394 
Q 1082 2374 1120 2278 
L 1830 557 
L 2477 2131 
Q 2515 2221 2515 2285 
Q 2515 2547 2214 2560 
L 2214 2758 
Q 2637 2739 2771 2739 
Q 3034 2739 3251 2758 
L 3251 2560 
Q 2822 2560 2656 2150 
L 1530 -582 
Q 1222 -1312 710 -1312 
Q 467 -1312 294 -1161 
Q 122 -1011 122 -794 
z
" transform="scale(0.015625)"/>
      </defs>
      <use xlink:href="#CMUSerif-Roman-79"/>
     </g>
    </g>
   </g>
   <g id="line2d_7">
    <path d="M 42.027031 64.99006 
L 173.409362 64.99006 
" clip-path="url(#pfa9ea0db96)" style="fill: none; stroke-dasharray: 5.55,2.4; stroke-dashoffset: 0; stroke: #808080; stroke-width: 1.5"/>
   </g>
   <g id="line2d_8">
    <path d="M 47.998955 11.017344 
L 48.835862 11.117121 
L 49.792326 11.446388 
L 50.987906 12.116506 
L 52.422603 13.206078 
L 54.215974 14.866074 
L 56.965808 17.761085 
L 65.215313 26.624168 
L 68.682496 29.939578 
L 72.14968 32.942438 
L 75.616863 35.65131 
L 79.323162 38.259017 
L 83.268577 40.755693 
L 87.572667 43.20645 
L 92.235431 45.599501 
L 97.376426 47.983966 
L 103.115212 50.394204 
L 109.451788 52.809165 
L 116.505713 55.25275 
L 124.157427 57.665325 
L 132.52649 60.068495 
L 141.612901 62.44233 
L 151.297103 64.741445 
L 161.698652 66.981374 
L 167.437438 68.126669 
L 167.437438 68.126669 
" clip-path="url(#pfa9ea0db96)" style="fill: none; stroke: #000000; stroke-width: 1.5; stroke-linecap: square"/>
   </g>
   <g id="line2d_9">
    <path d="M 47.998955 11.017344 
L 48.835862 11.132913 
L 49.792326 11.515764 
L 50.868348 12.207449 
L 52.183487 13.344935 
L 53.857299 15.127232 
L 56.128902 17.916532 
L 60.672108 23.953998 
L 65.215313 29.827411 
L 68.682496 33.955658 
L 72.030122 37.604538 
L 75.377747 40.930283 
L 78.84493 44.061872 
L 82.431671 47.003575 
L 86.257528 49.850786 
L 90.322502 52.593725 
L 94.626591 55.228156 
L 99.289355 57.816545 
L 104.310793 60.342364 
L 109.690904 62.793045 
L 115.42969 65.158649 
L 121.527151 67.430959 
L 128.102843 69.641135 
L 135.037209 71.737347 
L 142.449808 73.74621 
L 150.340638 75.654714 
L 158.829259 77.476641 
L 167.437438 79.110526 
L 167.437438 79.110526 
" clip-path="url(#pfa9ea0db96)" style="fill: none; stroke: #cccccc; stroke-width: 1.5; stroke-linecap: square"/>
   </g>
   <g id="patch_3">
    <path d="M 42.027031 82.515185 
L 42.027031 7.612685 
" style="fill: none; stroke: #000000; stroke-width: 0.8; stroke-linejoin: miter; stroke-linecap: square"/>
   </g>
   <g id="patch_4">
    <path d="M 42.027031 82.515185 
L 173.409362 82.515185 
" style="fill: none; stroke: #000000; stroke-width: 0.8; stroke-linejoin: miter; stroke-linecap: square"/>
   </g>
  </g>
 </g>
 <defs>
  <clipPath id="pfa9ea0db96">
   <rect x="42.027031" y="7.612685" width="131.382331" height="74.9025"/>
  </clipPath>
 </defs>
</svg>
