<?xml version="1.0" encoding="utf-8" standalone="no"?>
<!DOCTYPE svg PUBLIC "-//W3C//DTD SVG 1.1//EN"
  "http://www.w3.org/Graphics/SVG/1.1/DTD/svg11.dtd">
<svg xmlns:xlink="http://www.w3.org/1999/xlink" width="451.44pt" height="138.006337pt" viewBox="0 0 451.44 138.006337" xmlns="http://www.w3.org/2000/svg" version="1.1">
 <metadata>
  <rdf:RDF xmlns:dc="http://purl.org/dc/elements/1.1/" xmlns:cc="http://creativecommons.org/ns#" xmlns:rdf="http://www.w3.org/1999/02/22-rdf-syntax-ns#">
   <cc:Work>
    <dc:type rdf:resource="http://purl.org/dc/dcmitype/StillImage"/>
    <dc:date>2022-05-16T11:39:36.855226</dc:date>
    <dc:format>image/svg+xml</dc:format>
    <dc:creator>
     <cc:Agent>
      <dc:title>Matplotlib v3.5.1, https://matplotlib.org/</dc:title>
     </cc:Agent>
    </dc:creator>
   </cc:Work>
  </rdf:RDF>
 </metadata>
 <defs>
  <style type="text/css">*{stroke-linejoin: round; stroke-linecap: butt}</style>
 </defs>
 <g id="figure_1">
  <g id="patch_1">
   <path d="M 0 138.006337 
L 451.44 138.006337 
L 451.44 0 
L 0 0 
L 0 138.006337 
z
" style="fill: none"/>
  </g>
  <g id="axes_1">
   <g id="patch_2">
    <path d="M 28.203076 99.521687 
L 125.23187 99.521687 
L 125.23187 24.064337 
L 28.203076 24.064337 
z
" style="fill: #ffffff"/>
   </g>
   <g id="matplotlib.axis_1">
    <g id="xtick_1">
     <g id="line2d_1">
      <defs>
       <path id="m26337a99a2" d="M 0 0 
L 0 3.5 
" style="stroke: #000000; stroke-width: 0.8"/>
      </defs>
      <g>
       <use xlink:href="#m26337a99a2" x="32.613476" y="99.521687" style="stroke: #000000; stroke-width: 0.8"/>
      </g>
     </g>
     <g id="text_1">
      <!-- $\mathdefault{0}$ -->
      <g transform="translate(29.873742 114.329839)scale(0.11 -0.11)">
       <defs>
        <path id="CMR17-30" d="M 2688 2025 
C 2688 2416 2682 3080 2413 3591 
C 2176 4039 1798 4198 1466 4198 
C 1158 4198 768 4058 525 3597 
C 269 3118 243 2524 243 2025 
C 243 1661 250 1106 448 619 
C 723 -39 1216 -128 1466 -128 
C 1760 -128 2208 -7 2470 600 
C 2662 1042 2688 1559 2688 2025 
z
M 1466 -26 
C 1056 -26 813 325 723 812 
C 653 1188 653 1738 653 2096 
C 653 2588 653 2997 736 3387 
C 858 3929 1216 4096 1466 4096 
C 1728 4096 2067 3923 2189 3400 
C 2272 3036 2278 2607 2278 2096 
C 2278 1680 2278 1169 2202 792 
C 2067 95 1690 -26 1466 -26 
z
" transform="scale(0.015625)"/>
       </defs>
       <use xlink:href="#CMR17-30" transform="scale(0.996264)"/>
      </g>
     </g>
    </g>
    <g id="xtick_2">
     <g id="line2d_2">
      <g>
       <use xlink:href="#m26337a99a2" x="120.909766" y="99.521687" style="stroke: #000000; stroke-width: 0.8"/>
      </g>
     </g>
     <g id="text_2">
      <!-- $\mathdefault{1000}$ -->
      <g transform="translate(109.950832 114.329839)scale(0.11 -0.11)">
       <defs>
        <path id="CMR17-31" d="M 1702 4058 
C 1702 4192 1696 4192 1606 4192 
C 1357 3916 979 3827 621 3827 
C 602 3827 570 3827 563 3808 
C 557 3795 557 3782 557 3648 
C 755 3648 1088 3686 1344 3839 
L 1344 461 
C 1344 236 1331 160 781 160 
L 589 160 
L 589 0 
C 896 0 1216 0 1523 0 
C 1830 0 2150 0 2458 0 
L 2458 160 
L 2266 160 
C 1715 160 1702 230 1702 458 
L 1702 4058 
z
" transform="scale(0.015625)"/>
       </defs>
       <use xlink:href="#CMR17-31" transform="scale(0.996264)"/>
       <use xlink:href="#CMR17-30" transform="translate(45.690477 0)scale(0.996264)"/>
       <use xlink:href="#CMR17-30" transform="translate(91.380954 0)scale(0.996264)"/>
       <use xlink:href="#CMR17-30" transform="translate(137.071431 0)scale(0.996264)"/>
      </g>
     </g>
    </g>
    <g id="text_3">
     <!-- t -->
     <g transform="translate(75.194239 128.472165)scale(0.11 -0.11)">
      <defs>
       <path id="NimbusSanL-Regu-74" d="M 1626 3380 
L 1075 3380 
L 1075 4288 
L 544 4288 
L 544 3380 
L 90 3380 
L 90 2944 
L 544 2944 
L 544 404 
C 544 64 774 -128 1190 -128 
C 1318 -128 1446 -116 1626 -83 
L 1626 366 
C 1555 346 1472 340 1370 340 
C 1139 340 1075 404 1075 641 
L 1075 2944 
L 1626 2944 
L 1626 3380 
z
" transform="scale(0.015625)"/>
      </defs>
      <use xlink:href="#NimbusSanL-Regu-74" transform="scale(0.996264)"/>
     </g>
    </g>
   </g>
   <g id="matplotlib.axis_2">
    <g id="ytick_1">
     <g id="line2d_3">
      <defs>
       <path id="m1c92677873" d="M 0 0 
L -3.5 0 
" style="stroke: #000000; stroke-width: 0.8"/>
      </defs>
      <g>
       <use xlink:href="#m1c92677873" x="28.203076" y="84.064695" style="stroke: #000000; stroke-width: 0.8"/>
      </g>
     </g>
     <g id="text_4">
      <!-- $\mathdefault{0.6}$ -->
      <g transform="translate(7.2 87.968771)scale(0.11 -0.11)">
       <defs>
        <path id="CMMI12-3a" d="M 1178 307 
C 1178 492 1024 619 870 619 
C 685 619 557 466 557 313 
C 557 128 710 0 864 0 
C 1050 0 1178 153 1178 307 
z
" transform="scale(0.015625)"/>
        <path id="CMR17-36" d="M 678 2176 
C 678 3690 1395 4032 1811 4032 
C 1946 4032 2272 4009 2400 3776 
C 2298 3776 2106 3776 2106 3553 
C 2106 3381 2246 3323 2336 3323 
C 2394 3323 2566 3348 2566 3560 
C 2566 3954 2246 4179 1805 4179 
C 1043 4179 243 3390 243 1984 
C 243 253 966 -128 1478 -128 
C 2099 -128 2688 427 2688 1283 
C 2688 2081 2170 2662 1517 2662 
C 1126 2662 838 2407 678 1960 
L 678 2176 
z
M 1478 25 
C 691 25 691 1200 691 1436 
C 691 1896 909 2560 1504 2560 
C 1613 2560 1926 2560 2138 2120 
C 2253 1870 2253 1609 2253 1289 
C 2253 944 2253 690 2118 434 
C 1978 171 1773 25 1478 25 
z
" transform="scale(0.015625)"/>
       </defs>
       <use xlink:href="#CMR17-30" transform="scale(0.996264)"/>
       <use xlink:href="#CMMI12-3a" transform="translate(45.690477 0)scale(0.996264)"/>
       <use xlink:href="#CMR17-36" transform="translate(72.787654 0)scale(0.996264)"/>
      </g>
     </g>
    </g>
    <g id="ytick_2">
     <g id="line2d_4">
      <g>
       <use xlink:href="#m1c92677873" x="28.203076" y="53.075853" style="stroke: #000000; stroke-width: 0.8"/>
      </g>
     </g>
     <g id="text_5">
      <!-- $\mathdefault{0.8}$ -->
      <g transform="translate(7.2 56.979929)scale(0.11 -0.11)">
       <defs>
        <path id="CMR17-38" d="M 1741 2264 
C 2144 2467 2554 2773 2554 3263 
C 2554 3841 1990 4179 1472 4179 
C 890 4179 378 3759 378 3180 
C 378 3021 416 2747 666 2505 
C 730 2442 998 2251 1171 2130 
C 883 1983 211 1634 211 934 
C 211 279 838 -128 1459 -128 
C 2144 -128 2720 362 2720 1010 
C 2720 1590 2330 1857 2074 2029 
L 1741 2264 
z
M 902 2822 
C 851 2854 595 3051 595 3351 
C 595 3739 998 4032 1459 4032 
C 1965 4032 2336 3676 2336 3262 
C 2336 2669 1670 2331 1638 2331 
C 1632 2331 1626 2331 1574 2370 
L 902 2822 
z
M 2080 1519 
C 2176 1449 2483 1240 2483 851 
C 2483 381 2010 25 1472 25 
C 890 25 448 438 448 940 
C 448 1443 838 1862 1280 2060 
L 2080 1519 
z
" transform="scale(0.015625)"/>
       </defs>
       <use xlink:href="#CMR17-30" transform="scale(0.996264)"/>
       <use xlink:href="#CMMI12-3a" transform="translate(45.690477 0)scale(0.996264)"/>
       <use xlink:href="#CMR17-38" transform="translate(72.787654 0)scale(0.996264)"/>
      </g>
     </g>
    </g>
   </g>
   <g id="line2d_5">
    <path d="M 32.613476 68.570274 
L 33.761328 74.813858 
L 34.909179 79.789665 
L 35.968735 83.456182 
L 37.02829 86.392534 
L 38.087846 88.729968 
L 39.147401 90.578632 
L 40.295253 92.135566 
L 41.443105 93.321326 
L 42.679253 94.270946 
L 44.003697 94.995667 
L 45.416438 95.51482 
L 47.094068 95.880949 
L 49.036586 96.066737 
L 51.508882 96.064664 
L 54.864141 95.821891 
L 60.779993 95.130875 
L 74.201029 93.546034 
L 83.648732 92.684189 
L 93.891101 91.977929 
L 105.634508 91.396515 
L 119.673618 90.931533 
L 120.82147 90.90196 
L 120.82147 90.90196 
" clip-path="url(#p2e80d41a7e)" style="fill: none; stroke: #0000cd; stroke-opacity: 0.8; stroke-width: 1.5; stroke-linecap: square"/>
   </g>
   <g id="line2d_6">
    <path d="M 32.613476 68.570274 
L 33.584735 71.601455 
L 34.555994 73.967646 
L 35.527254 75.788075 
L 36.498513 77.162483 
L 37.469772 78.173654 
L 38.441031 78.889905 
L 39.500587 79.400633 
L 40.648438 79.701549 
L 41.884586 79.798691 
L 43.385623 79.681507 
L 45.151549 79.312349 
L 47.535549 78.567131 
L 51.243993 77.14179 
L 59.89703 73.768898 
L 64.576733 72.216382 
L 69.16814 70.924586 
L 74.024436 69.793302 
L 79.145621 68.830423 
L 84.796583 67.997226 
L 91.153916 67.289626 
L 98.482508 66.702954 
L 107.312137 66.227857 
L 118.43747 65.863975 
L 120.82147 65.809385 
L 120.82147 65.809385 
" clip-path="url(#p2e80d41a7e)" style="fill: none; stroke: #0008ff; stroke-opacity: 0.8; stroke-width: 1.5; stroke-linecap: square"/>
   </g>
   <g id="line2d_7">
    <path d="M 32.613476 68.570274 
L 33.496439 69.256833 
L 34.379402 69.672054 
L 35.350661 69.876449 
L 36.410216 69.860876 
L 37.646364 69.60217 
L 39.147401 69.035762 
L 41.001624 68.083576 
L 43.738809 66.403216 
L 52.921623 60.592647 
L 56.541771 58.652552 
L 60.073622 57.014132 
L 63.605474 55.618291 
L 67.313918 54.390719 
L 71.287251 53.312516 
L 75.613769 52.374101 
L 80.381769 51.571739 
L 85.767843 50.894152 
L 92.125176 50.326786 
L 99.806953 49.875006 
L 109.607841 49.533882 
L 120.82147 49.327937 
L 120.82147 49.327937 
" clip-path="url(#p2e80d41a7e)" style="fill: none; stroke: #004cff; stroke-opacity: 0.8; stroke-width: 1.5; stroke-linecap: square"/>
   </g>
   <g id="line2d_8">
    <path d="M 32.613476 68.570274 
L 37.116587 63.329676 
L 40.648438 59.556816 
L 43.827105 56.484829 
L 46.829179 53.890677 
L 49.742956 51.662426 
L 52.656734 49.710906 
L 55.658808 47.971802 
L 58.749178 46.444242 
L 61.927844 45.120595 
L 65.3714 43.932863 
L 69.079844 42.896456 
L 73.141473 41.999084 
L 77.644584 41.235878 
L 82.854065 40.585868 
L 88.946509 40.056531 
L 96.451694 39.636607 
L 106.252582 39.324441 
L 120.291692 39.118237 
L 120.82147 39.113623 
L 120.82147 39.113623 
" clip-path="url(#p2e80d41a7e)" style="fill: none; stroke: #0090ff; stroke-opacity: 0.8; stroke-width: 1.5; stroke-linecap: square"/>
   </g>
   <g id="line2d_9">
    <path d="M 32.613476 68.570274 
L 34.026217 64.977023 
L 35.527254 61.753815 
L 37.204883 58.693335 
L 38.970809 55.934141 
L 40.913327 53.31225 
L 43.032438 50.832541 
L 45.239845 48.584579 
L 47.623845 46.471262 
L 50.096141 44.570278 
L 52.74503 42.814754 
L 55.482215 41.26474 
L 58.395993 39.869038 
L 61.486363 38.634061 
L 64.841622 37.534427 
L 68.550066 36.560505 
L 72.611695 35.728164 
L 77.203103 35.017373 
L 82.589176 34.416406 
L 89.034805 33.930625 
L 97.158064 33.554119 
L 108.106804 33.285745 
L 120.82147 33.14561 
L 120.82147 33.14561 
" clip-path="url(#p2e80d41a7e)" style="fill: none; stroke: #00d4ff; stroke-opacity: 0.8; stroke-width: 1.5; stroke-linecap: square"/>
   </g>
   <g id="line2d_10">
    <path d="M 32.613476 68.570274 
L 33.93792 63.995068 
L 35.262365 60.213555 
L 36.675105 56.86038 
L 38.176142 53.88851 
L 39.765475 51.245639 
L 41.443105 48.881635 
L 43.297327 46.654671 
L 45.328142 44.570951 
L 47.535549 42.632352 
L 49.919549 40.84053 
L 52.480141 39.198358 
L 55.217326 37.709445 
L 58.131104 36.376724 
L 61.30977 35.170537 
L 64.753326 34.105602 
L 68.550066 33.169189 
L 72.788288 32.358624 
L 77.644584 31.664618 
L 83.295547 31.090009 
L 90.094361 30.629631 
L 98.747397 30.276612 
L 110.667397 30.02859 
L 120.82147 29.928341 
L 120.82147 29.928341 
" clip-path="url(#p2e80d41a7e)" style="fill: none; stroke: #29ffce; stroke-opacity: 0.8; stroke-width: 1.5; stroke-linecap: square"/>
   </g>
   <g id="line2d_11">
    <path d="M 32.613476 68.570274 
L 33.849624 63.571166 
L 35.085772 59.424885 
L 36.410216 55.757575 
L 37.734661 52.732757 
L 39.147401 50.06147 
L 40.648438 47.7078 
L 42.237772 45.629293 
L 44.003697 43.694383 
L 45.946216 41.905094 
L 48.065327 40.254558 
L 50.449327 38.679886 
L 53.098215 37.198118 
L 56.011993 35.823008 
L 59.190659 34.566958 
L 62.722511 33.414435 
L 66.607548 32.38783 
L 70.84577 31.500792 
L 75.613769 30.732797 
L 81.088139 30.08095 
L 87.533768 29.54343 
L 95.480435 29.114093 
L 105.722804 28.795291 
L 120.291692 28.580918 
L 120.82147 28.576195 
L 120.82147 28.576195 
" clip-path="url(#p2e80d41a7e)" style="fill: none; stroke: #60ff97; stroke-opacity: 0.8; stroke-width: 1.5; stroke-linecap: square"/>
   </g>
   <g id="line2d_12">
    <path d="M 32.613476 68.570274 
L 33.93792 62.787213 
L 35.174068 58.328379 
L 36.410216 54.643032 
L 37.646364 51.605443 
L 38.970809 48.938583 
L 40.295253 46.758542 
L 41.707994 44.853362 
L 43.209031 43.194638 
L 44.88666 41.675297 
L 46.740882 40.297146 
L 48.859993 38.998763 
L 51.332289 37.745113 
L 54.246067 36.517576 
L 57.689622 35.310638 
L 61.662955 34.15604 
L 66.166066 33.082604 
L 71.198955 32.117151 
L 76.761621 31.280584 
L 83.030658 30.566466 
L 90.270953 29.970602 
L 98.92399 29.488788 
L 109.784434 29.117257 
L 120.82147 28.901288 
L 120.82147 28.901288 
" clip-path="url(#p2e80d41a7e)" style="fill: none; stroke: #97ff60; stroke-opacity: 0.8; stroke-width: 1.5; stroke-linecap: square"/>
   </g>
   <g id="line2d_13">
    <path d="M 32.613476 68.570274 
L 33.93792 62.50361 
L 35.262365 57.477285 
L 36.498513 53.611865 
L 37.734661 50.436077 
L 38.970809 47.846439 
L 40.206957 45.745352 
L 41.531401 43.936316 
L 42.855846 42.492996 
L 44.268586 41.268555 
L 45.857919 40.187343 
L 47.623845 39.256781 
L 49.742956 38.403789 
L 52.303549 37.626312 
L 55.570511 36.879087 
L 59.985326 36.110705 
L 66.166066 35.274709 
L 74.289325 34.40806 
L 83.913621 33.609329 
L 94.774064 32.934816 
L 107.400434 32.380455 
L 120.82147 31.986221 
L 120.82147 31.986221 
" clip-path="url(#p2e80d41a7e)" style="fill: none; stroke: #ceff29; stroke-opacity: 0.8; stroke-width: 1.5; stroke-linecap: square"/>
   </g>
   <g id="line2d_14">
    <path d="M 32.613476 68.570274 
L 33.93792 62.331609 
L 35.262365 57.104494 
L 36.586809 52.779985 
L 37.822957 49.464535 
L 39.059105 46.757041 
L 40.295253 44.573029 
L 41.531401 42.831866 
L 42.767549 41.459219 
L 44.091994 40.322343 
L 45.504734 39.413332 
L 47.005771 38.714014 
L 48.683401 38.176459 
L 50.714215 37.772201 
L 53.186512 37.522168 
L 56.453474 37.432757 
L 61.30977 37.544111 
L 72.081918 38.073932 
L 94.950657 39.160173 
L 118.525766 40.039496 
L 120.82147 40.114655 
L 120.82147 40.114655 
" clip-path="url(#p2e80d41a7e)" style="fill: none; stroke: #ffe600; stroke-opacity: 0.8; stroke-width: 1.5; stroke-linecap: square"/>
   </g>
   <g id="line2d_15">
    <path d="M 32.613476 68.570274 
L 34.026217 61.842942 
L 35.350661 56.540336 
L 36.675105 52.102935 
L 37.99955 48.436428 
L 39.235698 45.630746 
L 40.471846 43.347576 
L 41.707994 41.518125 
L 42.944142 40.076883 
L 44.18029 38.963037 
L 45.504734 38.07061 
L 46.917475 37.396769 
L 48.418512 36.928748 
L 50.096141 36.636111 
L 52.126956 36.517576 
L 54.599252 36.606381 
L 57.954511 36.965022 
L 63.605474 37.829435 
L 78.792436 40.211698 
L 88.593324 41.483934 
L 99.100582 42.620309 
L 110.667397 43.644987 
L 120.82147 44.383917 
L 120.82147 44.383917 
" clip-path="url(#p2e80d41a7e)" style="fill: none; stroke: #ffa700; stroke-opacity: 0.8; stroke-width: 1.5; stroke-linecap: square"/>
   </g>
   <g id="line2d_16">
    <path d="M 32.613476 68.570274 
L 34.026217 61.779137 
L 35.438957 56.058582 
L 36.851698 51.27852 
L 38.176142 47.551971 
L 39.500587 44.471399 
L 40.825031 41.960004 
L 42.061179 40.065358 
L 43.297327 38.547094 
L 44.621771 37.278314 
L 45.946216 36.321623 
L 47.358956 35.584916 
L 48.859993 35.061027 
L 50.537623 34.721708 
L 52.480141 34.570502 
L 54.775845 34.623848 
L 57.777919 34.926697 
L 62.634215 35.672608 
L 75.083992 37.644677 
L 82.50088 38.551611 
L 90.447546 39.296018 
L 99.542064 39.919168 
L 110.314211 40.427338 
L 120.82147 40.757129 
L 120.82147 40.757129 
" clip-path="url(#p2e80d41a7e)" style="fill: none; stroke: #ff6800; stroke-opacity: 0.8; stroke-width: 1.5; stroke-linecap: square"/>
   </g>
   <g id="line2d_17">
    <path d="M 32.613476 68.570274 
L 34.026217 61.74288 
L 35.438957 55.963862 
L 36.851698 51.096751 
L 38.264439 47.026429 
L 39.588883 43.845558 
L 40.913327 41.20454 
L 42.237772 39.036756 
L 43.562216 37.280696 
L 44.88666 35.879492 
L 46.299401 34.717259 
L 47.712142 33.842128 
L 49.213178 33.170149 
L 50.890808 32.670079 
L 52.74503 32.354044 
L 54.952437 32.212265 
L 57.689622 32.269674 
L 61.574659 32.591929 
L 82.059398 34.60278 
L 90.712435 35.066967 
L 101.396286 35.40703 
L 116.141767 35.637997 
L 120.82147 35.67872 
L 120.82147 35.67872 
" clip-path="url(#p2e80d41a7e)" style="fill: none; stroke: #ff2900; stroke-opacity: 0.8; stroke-width: 1.5; stroke-linecap: square"/>
   </g>
   <g id="line2d_18">
    <path d="M 32.613476 68.570274 
L 34.026217 61.722568 
L 35.438957 55.909479 
L 36.851698 50.989284 
L 38.264439 46.842511 
L 39.677179 43.367279 
L 41.08992 40.475299 
L 42.50266 38.088796 
L 43.915401 36.138367 
L 45.328142 34.561678 
L 46.740882 33.302735 
L 48.241919 32.257405 
L 49.831253 31.421361 
L 51.597178 30.754594 
L 53.539697 30.268199 
L 55.747104 29.947383 
L 58.484289 29.783947 
L 62.104437 29.805311 
L 68.285177 30.101413 
L 82.235991 30.788806 
L 93.44962 31.080859 
L 109.342952 31.250956 
L 120.82147 31.295496 
L 120.82147 31.295496 
" clip-path="url(#p2e80d41a7e)" style="fill: none; stroke: #cd0000; stroke-opacity: 0.8; stroke-width: 1.5; stroke-linecap: square"/>
   </g>
   <g id="line2d_19">
    <path d="M 32.613476 68.570274 
L 34.026217 61.711288 
L 35.438957 55.878846 
L 36.851698 50.927696 
L 38.264439 46.735009 
L 39.677179 43.19634 
L 41.08992 40.22211 
L 42.50266 37.734735 
L 43.915401 35.666409 
L 45.416438 33.861381 
L 46.917475 32.399295 
L 48.506808 31.163999 
L 50.184438 30.147931 
L 51.950363 29.336595 
L 53.892882 28.685185 
L 56.100289 28.177979 
L 58.749178 27.804236 
L 62.104437 27.571468 
L 66.695844 27.494337 
L 75.34888 27.61748 
L 95.215546 27.89671 
L 120.82147 27.979695 
L 120.82147 27.979695 
" clip-path="url(#p2e80d41a7e)" style="fill: none; stroke: #800000; stroke-opacity: 0.8; stroke-width: 1.5; stroke-linecap: square"/>
   </g>
   <g id="patch_3">
    <path d="M 28.203076 99.521687 
L 28.203076 24.064337 
" style="fill: none; stroke: #000000; stroke-width: 0.8; stroke-linejoin: miter; stroke-linecap: square"/>
   </g>
   <g id="patch_4">
    <path d="M 28.203076 99.521687 
L 125.23187 99.521687 
" style="fill: none; stroke: #000000; stroke-width: 0.8; stroke-linejoin: miter; stroke-linecap: square"/>
   </g>
   <g id="text_6">
    <!-- du/dt -->
    <g transform="translate(64.531397 18.064337)scale(0.11 -0.11)">
     <defs>
      <path id="NimbusSanL-Regu-64" d="M 3168 4672 
L 2637 4672 
L 2637 2937 
C 2413 3276 2054 3456 1606 3456 
C 736 3456 166 2761 166 1695 
C 166 566 723 -128 1626 -128 
C 2086 -128 2406 45 2694 461 
L 2694 -2 
L 3168 -2 
L 3168 4672 
z
M 1696 2956 
C 2272 2956 2637 2447 2637 1651 
C 2637 881 2266 372 1702 372 
C 1114 372 723 887 723 1664 
C 723 2440 1114 2956 1696 2956 
z
" transform="scale(0.015625)"/>
      <path id="NimbusSanL-Regu-75" d="M 3085 33 
L 3085 3392 
L 2554 3392 
L 2554 1479 
C 2554 790 2195 340 1638 340 
C 1216 340 947 597 947 1003 
L 947 3392 
L 416 3392 
L 416 792 
C 416 232 832 -128 1485 -128 
C 1978 -128 2291 45 2605 488 
L 2605 33 
L 3085 33 
z
" transform="scale(0.015625)"/>
      <path id="NimbusSanL-Regu-2f" d="M 1466 4672 
L -51 -128 
L 301 -128 
L 1818 4672 
L 1466 4672 
z
" transform="scale(0.015625)"/>
     </defs>
     <use xlink:href="#NimbusSanL-Regu-64" transform="scale(0.996264)"/>
     <use xlink:href="#NimbusSanL-Regu-75" transform="translate(55.391677 0)scale(0.996264)"/>
     <use xlink:href="#NimbusSanL-Regu-2f" transform="translate(110.783354 0)scale(0.996264)"/>
     <use xlink:href="#NimbusSanL-Regu-64" transform="translate(138.478524 0)scale(0.996264)"/>
     <use xlink:href="#NimbusSanL-Regu-74" transform="translate(193.8702 0)scale(0.996264)"/>
    </g>
   </g>
  </g>
  <g id="axes_2">
   <g id="patch_5">
    <path d="M 169.874598 99.521687 
L 266.903392 99.521687 
L 266.903392 24.064337 
L 169.874598 24.064337 
z
" style="fill: #ffffff"/>
   </g>
   <g id="matplotlib.axis_3">
    <g id="xtick_3">
     <g id="line2d_20">
      <g>
       <use xlink:href="#m26337a99a2" x="174.284998" y="99.521687" style="stroke: #000000; stroke-width: 0.8"/>
      </g>
     </g>
     <g id="text_7">
      <!-- $\mathdefault{0}$ -->
      <g transform="translate(171.545264 114.329839)scale(0.11 -0.11)">
       <use xlink:href="#CMR17-30" transform="scale(0.996264)"/>
      </g>
     </g>
    </g>
    <g id="xtick_4">
     <g id="line2d_21">
      <g>
       <use xlink:href="#m26337a99a2" x="262.581288" y="99.521687" style="stroke: #000000; stroke-width: 0.8"/>
      </g>
     </g>
     <g id="text_8">
      <!-- $\mathdefault{1000}$ -->
      <g transform="translate(251.622354 114.329839)scale(0.11 -0.11)">
       <use xlink:href="#CMR17-31" transform="scale(0.996264)"/>
       <use xlink:href="#CMR17-30" transform="translate(45.690477 0)scale(0.996264)"/>
       <use xlink:href="#CMR17-30" transform="translate(91.380954 0)scale(0.996264)"/>
       <use xlink:href="#CMR17-30" transform="translate(137.071431 0)scale(0.996264)"/>
      </g>
     </g>
    </g>
    <g id="text_9">
     <!-- t -->
     <g transform="translate(216.865761 128.472165)scale(0.11 -0.11)">
      <use xlink:href="#NimbusSanL-Regu-74" transform="scale(0.996264)"/>
     </g>
    </g>
   </g>
   <g id="matplotlib.axis_4">
    <g id="ytick_3">
     <g id="line2d_22">
      <g>
       <use xlink:href="#m1c92677873" x="169.874598" y="99.197936" style="stroke: #000000; stroke-width: 0.8"/>
      </g>
     </g>
     <g id="text_10">
      <!-- $\mathdefault{0.0}$ -->
      <g transform="translate(148.871522 103.102012)scale(0.11 -0.11)">
       <use xlink:href="#CMR17-30" transform="scale(0.996264)"/>
       <use xlink:href="#CMMI12-3a" transform="translate(45.690477 0)scale(0.996264)"/>
       <use xlink:href="#CMR17-30" transform="translate(72.787654 0)scale(0.996264)"/>
      </g>
     </g>
    </g>
    <g id="ytick_4">
     <g id="line2d_23">
      <g>
       <use xlink:href="#m1c92677873" x="169.874598" y="61.922857" style="stroke: #000000; stroke-width: 0.8"/>
      </g>
     </g>
     <g id="text_11">
      <!-- $\mathdefault{0.5}$ -->
      <g transform="translate(148.871522 65.826933)scale(0.11 -0.11)">
       <defs>
        <path id="CMR17-35" d="M 730 3692 
C 794 3666 1056 3584 1325 3584 
C 1920 3584 2246 3911 2432 4100 
C 2432 4157 2432 4192 2394 4192 
C 2387 4192 2374 4192 2323 4163 
C 2099 4058 1837 3973 1517 3973 
C 1325 3973 1037 3999 723 4139 
C 653 4171 640 4171 634 4171 
C 602 4171 595 4164 595 4037 
L 595 2203 
C 595 2089 595 2057 659 2057 
C 691 2057 704 2070 736 2114 
C 941 2401 1222 2522 1542 2522 
C 1766 2522 2246 2382 2246 1289 
C 2246 1085 2246 715 2054 421 
C 1894 159 1645 25 1370 25 
C 947 25 518 320 403 814 
C 429 807 480 795 506 795 
C 589 795 749 840 749 1038 
C 749 1210 627 1280 506 1280 
C 358 1280 262 1190 262 1011 
C 262 454 704 -128 1382 -128 
C 2042 -128 2669 440 2669 1264 
C 2669 2030 2170 2624 1549 2624 
C 1222 2624 947 2503 730 2274 
L 730 3692 
z
" transform="scale(0.015625)"/>
       </defs>
       <use xlink:href="#CMR17-30" transform="scale(0.996264)"/>
       <use xlink:href="#CMMI12-3a" transform="translate(45.690477 0)scale(0.996264)"/>
       <use xlink:href="#CMR17-35" transform="translate(72.787654 0)scale(0.996264)"/>
      </g>
     </g>
    </g>
    <g id="ytick_5">
     <g id="line2d_24">
      <g>
       <use xlink:href="#m1c92677873" x="169.874598" y="24.647777" style="stroke: #000000; stroke-width: 0.8"/>
      </g>
     </g>
     <g id="text_12">
      <!-- $\mathdefault{1.0}$ -->
      <g transform="translate(148.871522 28.551854)scale(0.11 -0.11)">
       <use xlink:href="#CMR17-31" transform="scale(0.996264)"/>
       <use xlink:href="#CMMI12-3a" transform="translate(45.690477 0)scale(0.996264)"/>
       <use xlink:href="#CMR17-30" transform="translate(72.787654 0)scale(0.996264)"/>
      </g>
     </g>
    </g>
   </g>
   <g id="line2d_25">
    <path d="M 174.284998 84.287904 
L 175.697739 86.150346 
L 177.110479 87.643733 
L 178.611516 88.895449 
L 180.200849 89.918845 
L 181.878479 90.73806 
L 183.820997 91.438091 
L 186.116701 92.024201 
L 189.030478 92.525705 
L 192.915515 92.953069 
L 198.654774 93.342184 
L 208.190773 93.742455 
L 223.377735 94.14328 
L 243.950771 94.454371 
L 262.492992 94.604002 
L 262.492992 94.604002 
" clip-path="url(#pc262a54d18)" style="fill: none; stroke: #0000cd; stroke-opacity: 0.8; stroke-width: 1.5; stroke-linecap: square"/>
   </g>
   <g id="line2d_26">
    <path d="M 174.284998 84.287904 
L 175.697739 85.923607 
L 177.198776 87.313611 
L 178.788109 88.480411 
L 180.554035 89.499421 
L 182.584849 90.409507 
L 184.968849 91.23068 
L 187.970923 92.016602 
L 191.767663 92.765577 
L 196.623959 93.48466 
L 202.716403 94.153529 
L 210.133292 94.737681 
L 219.139513 95.216007 
L 230.441439 95.582407 
L 245.716697 95.839191 
L 262.492992 95.964103 
L 262.492992 95.964103 
" clip-path="url(#pc262a54d18)" style="fill: none; stroke: #0008ff; stroke-opacity: 0.8; stroke-width: 1.5; stroke-linecap: square"/>
   </g>
   <g id="line2d_27">
    <path d="M 174.284998 84.287904 
L 175.874331 85.700256 
L 177.640257 86.972218 
L 179.671072 88.156481 
L 182.055071 89.280782 
L 184.880553 90.358113 
L 188.235812 91.390253 
L 192.120849 92.347734 
L 196.623959 93.221638 
L 201.745144 93.981374 
L 207.572699 94.616249 
L 214.45981 95.136426 
L 222.936254 95.543737 
L 234.061586 95.841428 
L 250.308104 96.033179 
L 262.492992 96.091808 
L 262.492992 96.091808 
" clip-path="url(#pc262a54d18)" style="fill: none; stroke: #004cff; stroke-opacity: 0.8; stroke-width: 1.5; stroke-linecap: square"/>
   </g>
   <g id="line2d_28">
    <path d="M 174.284998 84.287904 
L 179.317886 86.637407 
L 183.556108 88.37678 
L 187.617738 89.804466 
L 191.679367 90.996379 
L 195.917589 92.00704 
L 200.508996 92.868091 
L 205.541885 93.582276 
L 211.36944 94.177211 
L 218.25655 94.649124 
L 226.909587 95.009469 
L 238.74129 95.263399 
L 257.283511 95.413599 
L 262.492992 95.431583 
L 262.492992 95.431583 
" clip-path="url(#pc262a54d18)" style="fill: none; stroke: #0090ff; stroke-opacity: 0.8; stroke-width: 1.5; stroke-linecap: square"/>
   </g>
   <g id="line2d_29">
    <path d="M 174.284998 84.287904 
L 175.43285 84.096862 
L 176.757294 84.104003 
L 178.434924 84.351926 
L 180.642331 84.924409 
L 184.262479 86.130377 
L 191.502775 88.553282 
L 195.917589 89.771067 
L 200.332404 90.755299 
L 205.012107 91.568797 
L 210.221588 92.245319 
L 216.225736 92.796133 
L 223.466032 93.230629 
L 232.825438 93.556992 
L 245.981586 93.775399 
L 262.492992 93.877183 
L 262.492992 93.877183 
" clip-path="url(#pc262a54d18)" style="fill: none; stroke: #00d4ff; stroke-opacity: 0.8; stroke-width: 1.5; stroke-linecap: square"/>
   </g>
   <g id="line2d_30">
    <path d="M 174.284998 84.287904 
L 175.256257 83.211006 
L 176.227516 82.457547 
L 177.287072 81.92389 
L 178.434924 81.606462 
L 179.759368 81.490485 
L 181.260405 81.589517 
L 183.202923 81.955583 
L 185.940108 82.723393 
L 199.449441 86.826747 
L 204.040848 87.834851 
L 208.897144 88.667811 
L 214.283217 89.358583 
L 220.463958 89.91912 
L 227.880846 90.359955 
L 237.328549 90.68833 
L 250.572993 90.910376 
L 262.492992 90.996535 
L 262.492992 90.996535 
" clip-path="url(#pc262a54d18)" style="fill: none; stroke: #29ffce; stroke-opacity: 0.8; stroke-width: 1.5; stroke-linecap: square"/>
   </g>
   <g id="line2d_31">
    <path d="M 174.284998 84.287904 
L 175.256257 82.115046 
L 176.227516 80.446351 
L 177.198776 79.187907 
L 178.170035 78.260941 
L 179.22959 77.551672 
L 180.377442 77.062437 
L 181.61359 76.784232 
L 183.026331 76.700396 
L 184.70396 76.829636 
L 186.911367 77.242308 
L 190.090034 78.090168 
L 202.451515 81.589273 
L 207.396107 82.658223 
L 212.517292 83.53617 
L 218.168254 84.27306 
L 224.525587 84.872043 
L 232.030772 85.349949 
L 241.478475 85.717266 
L 254.193141 85.973714 
L 262.492992 86.060569 
L 262.492992 86.060569 
" clip-path="url(#pc262a54d18)" style="fill: none; stroke: #60ff97; stroke-opacity: 0.8; stroke-width: 1.5; stroke-linecap: square"/>
   </g>
   <g id="line2d_32">
    <path d="M 174.284998 84.287904 
L 175.344553 80.718188 
L 176.404109 77.892107 
L 177.463664 75.683368 
L 178.52322 73.980654 
L 179.582775 72.688607 
L 180.642331 71.727302 
L 181.790183 70.982964 
L 183.026331 70.45172 
L 184.350775 70.120236 
L 185.940108 69.961496 
L 187.79433 70.006542 
L 190.17833 70.296078 
L 193.621886 70.957772 
L 210.839662 74.560175 
L 217.108699 75.501211 
L 223.819217 76.277408 
L 231.324401 76.914208 
L 240.065734 77.424242 
L 250.749585 77.815605 
L 262.492992 78.06243 
L 262.492992 78.06243 
" clip-path="url(#pc262a54d18)" style="fill: none; stroke: #97ff60; stroke-opacity: 0.8; stroke-width: 1.5; stroke-linecap: square"/>
   </g>
   <g id="line2d_33">
    <path d="M 174.284998 84.287904 
L 175.43285 79.302192 
L 176.580701 75.263742 
L 177.728553 72.027438 
L 178.876405 69.459878 
L 180.024257 67.442222 
L 181.172109 65.871547 
L 182.31996 64.660784 
L 183.556108 63.676789 
L 184.880553 62.90996 
L 186.38159 62.313501 
L 188.059219 61.897784 
L 190.090034 61.640265 
L 192.56233 61.560517 
L 196.005885 61.689631 
L 201.656848 62.1552 
L 221.523513 63.911514 
L 233.090327 64.650463 
L 245.893289 65.24065 
L 260.903659 65.703081 
L 262.492992 65.740805 
L 262.492992 65.740805 
" clip-path="url(#pc262a54d18)" style="fill: none; stroke: #ceff29; stroke-opacity: 0.8; stroke-width: 1.5; stroke-linecap: square"/>
   </g>
   <g id="line2d_34">
    <path d="M 174.284998 84.287904 
L 175.521146 78.027059 
L 176.757294 72.872503 
L 177.993442 68.666011 
L 179.22959 65.260451 
L 180.465738 62.521976 
L 181.701886 60.331799 
L 182.938034 58.587024 
L 184.262479 57.113139 
L 185.586923 55.962116 
L 187.08796 54.958417 
L 188.76559 54.119981 
L 190.619812 53.443773 
L 192.915515 52.854759 
L 195.829293 52.355482 
L 199.802626 51.920954 
L 205.89507 51.501295 
L 217.285291 50.973549 
L 237.593438 50.27114 
L 262.492992 49.617583 
L 262.492992 49.617583 
" clip-path="url(#pc262a54d18)" style="fill: none; stroke: #ffe600; stroke-opacity: 0.8; stroke-width: 1.5; stroke-linecap: square"/>
   </g>
   <g id="line2d_35">
    <path d="M 174.284998 84.287904 
L 175.609442 76.95393 
L 176.933887 70.859107 
L 178.258331 65.828252 
L 179.494479 61.951382 
L 180.730627 58.743729 
L 182.055071 55.929128 
L 183.379516 53.645821 
L 184.70396 51.794669 
L 186.116701 50.202327 
L 187.617738 48.851394 
L 189.207071 47.716473 
L 190.972997 46.723692 
L 193.003811 45.83607 
L 195.476108 45.00941 
L 198.478181 44.249114 
L 202.363218 43.503005 
L 207.660996 42.724132 
L 214.989588 41.885346 
L 224.525587 41.027396 
L 236.092401 40.216862 
L 249.778326 39.487596 
L 262.492992 38.972646 
L 262.492992 38.972646 
" clip-path="url(#pc262a54d18)" style="fill: none; stroke: #ffa700; stroke-opacity: 0.8; stroke-width: 1.5; stroke-linecap: square"/>
   </g>
   <g id="line2d_36">
    <path d="M 174.284998 84.287904 
L 175.697739 76.067502 
L 177.022183 69.606169 
L 178.346627 64.180853 
L 179.671072 59.643995 
L 180.995516 55.863826 
L 182.31996 52.723259 
L 183.644405 50.119139 
L 185.057145 47.831671 
L 186.469886 45.959072 
L 187.970923 44.336502 
L 189.560256 42.946696 
L 191.326182 41.7109 
L 193.2687 40.636503 
L 195.476108 39.682579 
L 198.0367 38.829205 
L 201.12707 38.04609 
L 204.923811 37.324358 
L 209.780107 36.641248 
L 215.960847 36.007983 
L 223.819217 35.435553 
L 233.796698 34.942252 
L 246.511363 34.547086 
L 262.492992 34.266239 
L 262.492992 34.266239 
" clip-path="url(#pc262a54d18)" style="fill: none; stroke: #ff6800; stroke-opacity: 0.8; stroke-width: 1.5; stroke-linecap: square"/>
   </g>
   <g id="line2d_37">
    <path d="M 174.284998 84.287904 
L 175.697739 75.806297 
L 177.110479 68.667444 
L 178.52322 62.676171 
L 179.935961 57.662393 
L 181.348701 53.477735 
L 182.761442 49.992929 
L 184.174182 47.095803 
L 185.586923 44.689608 
L 187.08796 42.578534 
L 188.588997 40.844445 
L 190.17833 39.341872 
L 191.85596 38.054667 
L 193.710182 36.913635 
L 195.740996 35.926209 
L 198.0367 35.058581 
L 200.685589 34.29694 
L 203.864255 33.620815 
L 207.749292 33.03046 
L 212.693884 32.51669 
L 219.139513 32.084542 
L 227.880846 31.736735 
L 240.330623 31.48124 
L 260.108992 31.322175 
L 262.492992 31.312752 
L 262.492992 31.312752 
" clip-path="url(#pc262a54d18)" style="fill: none; stroke: #ff2900; stroke-opacity: 0.8; stroke-width: 1.5; stroke-linecap: square"/>
   </g>
   <g id="line2d_38">
    <path d="M 174.284998 84.287904 
L 175.697739 75.657112 
L 177.110479 68.352933 
L 178.52322 62.181801 
L 179.935961 56.976802 
L 181.348701 52.593856 
L 182.761442 48.908607 
L 184.174182 45.813861 
L 185.586923 43.21746 
L 187.08796 40.916707 
L 188.588997 39.009112 
L 190.17833 37.342902 
L 191.85596 35.906656 
L 193.621886 34.683605 
L 195.564404 33.609994 
L 197.683515 32.691921 
L 200.067515 31.899213 
L 202.892996 31.201864 
L 206.248255 30.613758 
L 210.398181 30.125181 
L 215.695958 29.737123 
L 223.02455 29.439907 
L 234.061586 29.236549 
L 254.016548 29.124837 
L 262.492992 29.11034 
L 262.492992 29.11034 
" clip-path="url(#pc262a54d18)" style="fill: none; stroke: #cd0000; stroke-opacity: 0.8; stroke-width: 1.5; stroke-linecap: square"/>
   </g>
   <g id="line2d_39">
    <path d="M 174.284998 84.287904 
L 175.697739 75.573394 
L 177.110479 68.175663 
L 178.52322 61.901683 
L 179.935961 56.585933 
L 181.348701 52.086392 
L 182.761442 48.281191 
L 184.262479 44.882314 
L 185.763516 42.042541 
L 187.264553 39.671308 
L 188.853886 37.586437 
L 190.443219 35.864969 
L 192.120849 34.372212 
L 193.886774 33.094577 
L 195.829293 31.96889 
L 197.948404 31.004725 
L 200.332404 30.173504 
L 203.069589 29.466272 
L 206.248255 28.88276 
L 210.133292 28.405134 
L 215.077884 28.032572 
L 221.876698 27.759592 
L 232.383957 27.584619 
L 253.310178 27.501878 
L 262.492992 27.494217 
L 262.492992 27.494217 
" clip-path="url(#pc262a54d18)" style="fill: none; stroke: #800000; stroke-opacity: 0.8; stroke-width: 1.5; stroke-linecap: square"/>
   </g>
   <g id="patch_6">
    <path d="M 169.874598 99.521687 
L 169.874598 24.064337 
" style="fill: none; stroke: #000000; stroke-width: 0.8; stroke-linejoin: miter; stroke-linecap: square"/>
   </g>
   <g id="patch_7">
    <path d="M 169.874598 99.521687 
L 266.903392 99.521687 
" style="fill: none; stroke: #000000; stroke-width: 0.8; stroke-linejoin: miter; stroke-linecap: square"/>
   </g>
   <g id="text_13">
    <!-- dv/dt -->
    <g transform="translate(206.509729 18.064337)scale(0.11 -0.11)">
     <defs>
      <path id="NimbusSanL-Regu-76" d="M 1824 0 
L 3110 3360 
L 2509 3360 
L 1562 635 
L 666 3360 
L 64 3360 
L 1242 0 
L 1824 0 
z
" transform="scale(0.015625)"/>
     </defs>
     <use xlink:href="#NimbusSanL-Regu-64" transform="scale(0.996264)"/>
     <use xlink:href="#NimbusSanL-Regu-76" transform="translate(55.391677 0)scale(0.996264)"/>
     <use xlink:href="#NimbusSanL-Regu-2f" transform="translate(105.204877 0)scale(0.996264)"/>
     <use xlink:href="#NimbusSanL-Regu-64" transform="translate(132.900047 0)scale(0.996264)"/>
     <use xlink:href="#NimbusSanL-Regu-74" transform="translate(188.291724 0)scale(0.996264)"/>
    </g>
   </g>
  </g>
  <g id="axes_3">
   <g id="patch_8">
    <path d="M 311.54612 99.521687 
L 408.574914 99.521687 
L 408.574914 24.064337 
L 311.54612 24.064337 
z
" style="fill: #ffffff"/>
   </g>
   <g id="matplotlib.axis_5">
    <g id="xtick_5">
     <g id="line2d_40">
      <g>
       <use xlink:href="#m26337a99a2" x="315.95652" y="99.521687" style="stroke: #000000; stroke-width: 0.8"/>
      </g>
     </g>
     <g id="text_14">
      <!-- $\mathdefault{0}$ -->
      <g transform="translate(313.216786 114.329839)scale(0.11 -0.11)">
       <use xlink:href="#CMR17-30" transform="scale(0.996264)"/>
      </g>
     </g>
    </g>
    <g id="xtick_6">
     <g id="line2d_41">
      <g>
       <use xlink:href="#m26337a99a2" x="404.25281" y="99.521687" style="stroke: #000000; stroke-width: 0.8"/>
      </g>
     </g>
     <g id="text_15">
      <!-- $\mathdefault{1000}$ -->
      <g transform="translate(393.293876 114.329839)scale(0.11 -0.11)">
       <use xlink:href="#CMR17-31" transform="scale(0.996264)"/>
       <use xlink:href="#CMR17-30" transform="translate(45.690477 0)scale(0.996264)"/>
       <use xlink:href="#CMR17-30" transform="translate(91.380954 0)scale(0.996264)"/>
       <use xlink:href="#CMR17-30" transform="translate(137.071431 0)scale(0.996264)"/>
      </g>
     </g>
    </g>
    <g id="text_16">
     <!-- t -->
     <g transform="translate(358.537283 128.472165)scale(0.11 -0.11)">
      <use xlink:href="#NimbusSanL-Regu-74" transform="scale(0.996264)"/>
     </g>
    </g>
   </g>
   <g id="matplotlib.axis_6">
    <g id="ytick_6">
     <g id="line2d_42">
      <g>
       <use xlink:href="#m1c92677873" x="311.54612" y="96.143138" style="stroke: #000000; stroke-width: 0.8"/>
      </g>
     </g>
     <g id="text_17">
      <!-- $\mathdefault{0.0}$ -->
      <g transform="translate(290.543044 100.047214)scale(0.11 -0.11)">
       <use xlink:href="#CMR17-30" transform="scale(0.996264)"/>
       <use xlink:href="#CMMI12-3a" transform="translate(45.690477 0)scale(0.996264)"/>
       <use xlink:href="#CMR17-30" transform="translate(72.787654 0)scale(0.996264)"/>
      </g>
     </g>
    </g>
    <g id="ytick_7">
     <g id="line2d_43">
      <g>
       <use xlink:href="#m1c92677873" x="311.54612" y="56.0138" style="stroke: #000000; stroke-width: 0.8"/>
      </g>
     </g>
     <g id="text_18">
      <!-- $\mathdefault{0.5}$ -->
      <g transform="translate(290.543044 59.917877)scale(0.11 -0.11)">
       <use xlink:href="#CMR17-30" transform="scale(0.996264)"/>
       <use xlink:href="#CMMI12-3a" transform="translate(45.690477 0)scale(0.996264)"/>
       <use xlink:href="#CMR17-35" transform="translate(72.787654 0)scale(0.996264)"/>
      </g>
     </g>
    </g>
   </g>
   <g id="line2d_44">
    <path d="M 315.95652 56.0138 
L 317.192668 56.131271 
L 318.782001 56.52578 
L 321.607483 57.508635 
L 325.669112 58.874904 
L 328.494593 59.585087 
L 331.408371 60.082838 
L 334.498741 60.381324 
L 338.030593 60.495238 
L 342.357111 60.404126 
L 348.361258 60.035777 
L 363.283332 58.801816 
L 375.733108 57.917613 
L 388.006293 57.274525 
L 401.957107 56.773814 
L 404.164514 56.712422 
L 404.164514 56.712422 
" clip-path="url(#pcdd9cbdb0d)" style="fill: none; stroke: #0000cd; stroke-opacity: 0.8; stroke-width: 1.5; stroke-linecap: square"/>
   </g>
   <g id="line2d_45">
    <path d="M 315.95652 56.0138 
L 319.223483 56.13154 
L 322.402149 56.147679 
L 325.139334 55.934288 
L 327.964815 55.487666 
L 331.231778 54.737801 
L 335.47 53.518265 
L 354.100517 47.869159 
L 359.574887 46.591049 
L 365.137554 45.519089 
L 371.053405 44.60682 
L 377.499034 43.839928 
L 384.827626 43.197853 
L 393.392367 42.679 
L 403.899625 42.276141 
L 404.164514 42.26844 
L 404.164514 42.26844 
" clip-path="url(#pcdd9cbdb0d)" style="fill: none; stroke: #0008ff; stroke-opacity: 0.8; stroke-width: 1.5; stroke-linecap: square"/>
   </g>
   <g id="line2d_46">
    <path d="M 315.95652 56.0138 
L 317.810742 55.903166 
L 319.75326 55.558221 
L 321.872371 54.944982 
L 324.256371 54.014449 
L 327.170149 52.625404 
L 331.320074 50.373498 
L 341.209259 44.930543 
L 345.535777 42.849614 
L 349.597407 41.139154 
L 353.659036 39.670098 
L 357.808962 38.406319 
L 362.13548 37.319816 
L 366.815183 36.375138 
L 371.936368 35.570194 
L 377.763923 34.885881 
L 384.474441 34.328361 
L 392.5977 33.88542 
L 402.928366 33.555698 
L 404.164514 33.528178 
L 404.164514 33.528178 
" clip-path="url(#pcdd9cbdb0d)" style="fill: none; stroke: #004cff; stroke-opacity: 0.8; stroke-width: 1.5; stroke-linecap: square"/>
   </g>
   <g id="line2d_47">
    <path d="M 315.95652 56.0138 
L 317.280964 55.905608 
L 318.782001 55.551317 
L 320.459631 54.918113 
L 322.402149 53.941961 
L 324.786149 52.488465 
L 328.141408 50.158406 
L 338.913555 42.494555 
L 342.710296 40.166687 
L 346.242148 38.258705 
L 349.773999 36.602663 
L 353.394147 35.154678 
L 357.102591 33.910854 
L 361.075924 32.8156 
L 365.314146 31.878588 
L 369.99385 31.072621 
L 375.291627 30.389535 
L 381.472367 29.824116 
L 388.889256 29.377005 
L 398.336959 29.04094 
L 404.164514 28.915322 
L 404.164514 28.915322 
" clip-path="url(#pcdd9cbdb0d)" style="fill: none; stroke: #0090ff; stroke-opacity: 0.8; stroke-width: 1.5; stroke-linecap: square"/>
   </g>
   <g id="line2d_48">
    <path d="M 315.95652 56.0138 
L 317.280964 55.904336 
L 318.693705 55.568776 
L 320.283038 54.964284 
L 322.13726 54.015427 
L 324.432964 52.571241 
L 327.435038 50.396783 
L 340.326296 40.73915 
L 343.858148 38.533341 
L 347.301703 36.645586 
L 350.745258 35.014748 
L 354.27711 33.592935 
L 357.897258 32.37422 
L 361.782295 31.301803 
L 366.020517 30.36773 
L 370.70022 29.570234 
L 375.997997 28.899788 
L 382.178738 28.349859 
L 389.683922 27.915561 
L 399.308218 27.593774 
L 404.164514 27.494217 
L 404.164514 27.494217 
" clip-path="url(#pcdd9cbdb0d)" style="fill: none; stroke: #00d4ff; stroke-opacity: 0.8; stroke-width: 1.5; stroke-linecap: square"/>
   </g>
   <g id="line2d_49">
    <path d="M 315.95652 56.0138 
L 317.722446 55.905512 
L 319.488372 55.56681 
L 321.342594 54.970516 
L 323.373408 54.070804 
L 325.757408 52.754309 
L 328.759482 50.822354 
L 333.968963 47.149157 
L 339.796518 43.12843 
L 343.769851 40.658968 
L 347.389999 38.663846 
L 350.921851 36.964369 
L 354.541999 35.469294 
L 358.250443 34.178458 
L 362.13548 33.059757 
L 366.373702 32.074725 
L 370.965109 31.238537 
L 376.17459 30.522317 
L 382.178738 29.930288 
L 389.330737 29.457951 
L 398.336959 29.098259 
L 404.164514 28.954674 
L 404.164514 28.954674 
" clip-path="url(#pcdd9cbdb0d)" style="fill: none; stroke: #29ffce; stroke-opacity: 0.8; stroke-width: 1.5; stroke-linecap: square"/>
   </g>
   <g id="line2d_50">
    <path d="M 315.95652 56.0138 
L 321.607483 55.92419 
L 323.726594 55.55506 
L 325.934001 54.933632 
L 328.406297 53.99156 
L 331.320074 52.629844 
L 335.381704 50.460844 
L 346.065555 44.645656 
L 350.392073 42.604907 
L 354.453703 40.931101 
L 358.515332 39.49585 
L 362.665258 38.262772 
L 367.080072 37.184427 
L 371.848072 36.253387 
L 377.057553 35.465905 
L 382.973404 34.801831 
L 389.860515 34.259512 
L 398.248662 33.83197 
L 404.164514 33.63476 
L 404.164514 33.63476 
" clip-path="url(#pcdd9cbdb0d)" style="fill: none; stroke: #60ff97; stroke-opacity: 0.8; stroke-width: 1.5; stroke-linecap: square"/>
   </g>
   <g id="line2d_51">
    <path d="M 315.95652 56.0138 
L 317.192668 56.127217 
L 319.04689 56.553879 
L 323.461705 57.635476 
L 325.669112 57.90785 
L 327.876519 57.949249 
L 330.172223 57.763873 
L 332.732815 57.32469 
L 335.734889 56.570038 
L 339.531629 55.37023 
L 346.242148 52.966786 
L 353.923925 50.290497 
L 359.398295 48.619697 
L 364.696072 47.237078 
L 369.99385 46.084259 
L 375.644812 45.08649 
L 381.737256 44.242085 
L 388.536071 43.531136 
L 396.306144 42.948879 
L 404.164514 42.542826 
L 404.164514 42.542826 
" clip-path="url(#pcdd9cbdb0d)" style="fill: none; stroke: #97ff60; stroke-opacity: 0.8; stroke-width: 1.5; stroke-linecap: square"/>
   </g>
   <g id="line2d_52">
    <path d="M 315.95652 56.0138 
L 316.839483 56.117 
L 317.987335 56.495091 
L 319.488372 57.248921 
L 322.667038 59.178766 
L 325.580816 60.814989 
L 327.876519 61.852125 
L 330.172223 62.641966 
L 332.467926 63.199645 
L 334.940222 63.57452 
L 337.677407 63.765901 
L 340.856074 63.761982 
L 344.741111 63.525941 
L 349.950592 62.970528 
L 359.839776 61.640359 
L 372.112961 60.063755 
L 381.825552 59.046062 
L 391.89133 58.21837 
L 402.928366 57.539133 
L 404.164514 57.475735 
L 404.164514 57.475735 
" clip-path="url(#pcdd9cbdb0d)" style="fill: none; stroke: #ceff29; stroke-opacity: 0.8; stroke-width: 1.5; stroke-linecap: square"/>
   </g>
   <g id="line2d_53">
    <path d="M 315.95652 56.0138 
L 316.751187 56.124285 
L 317.722446 56.511771 
L 318.870298 57.23133 
L 320.459631 58.523042 
L 323.550001 61.409383 
L 326.816964 64.346128 
L 329.377556 66.344772 
L 331.849852 67.984964 
L 334.322148 69.357577 
L 336.971037 70.569697 
L 339.796518 71.618819 
L 342.975185 72.561765 
L 346.683629 73.423586 
L 351.098443 74.213256 
L 356.572813 74.95844 
L 363.813109 75.705969 
L 373.79059 76.496413 
L 387.8297 77.37072 
L 404.164514 78.194945 
L 404.164514 78.194945 
" clip-path="url(#pcdd9cbdb0d)" style="fill: none; stroke: #ffe600; stroke-opacity: 0.8; stroke-width: 1.5; stroke-linecap: square"/>
   </g>
   <g id="line2d_54">
    <path d="M 315.95652 56.0138 
L 316.66289 56.115646 
L 317.545853 56.491878 
L 318.517112 57.156249 
L 319.75326 58.276461 
L 321.519186 60.20619 
L 329.907334 69.810785 
L 332.467926 72.199778 
L 335.028519 74.280154 
L 337.677407 76.140852 
L 340.502889 77.846359 
L 343.504963 79.397569 
L 346.860222 80.876147 
L 350.568666 82.265241 
L 354.806888 83.612036 
L 359.663184 84.918423 
L 365.314146 86.202788 
L 371.848072 87.454114 
L 379.353256 88.660668 
L 387.917997 89.808724 
L 397.630588 90.882716 
L 404.164514 91.495341 
L 404.164514 91.495341 
" clip-path="url(#pcdd9cbdb0d)" style="fill: none; stroke: #ffa700; stroke-opacity: 0.8; stroke-width: 1.5; stroke-linecap: square"/>
   </g>
   <g id="line2d_55">
    <path d="M 315.95652 56.0138 
L 316.66289 56.124163 
L 317.457557 56.481169 
L 318.428816 57.186561 
L 319.576668 58.308704 
L 321.166001 60.20777 
L 323.726594 63.678463 
L 328.318001 69.897991 
L 330.966889 73.096942 
L 333.439185 75.748673 
L 335.911482 78.082908 
L 338.472074 80.192891 
L 341.120963 82.084458 
L 343.946444 83.821318 
L 346.948518 85.398846 
L 350.215481 86.855551 
L 353.747332 88.181077 
L 357.632369 89.397637 
L 361.958887 90.514849 
L 366.815183 91.533914 
L 372.289553 92.451107 
L 378.55859 93.270911 
L 385.798886 93.988267 
L 394.363626 94.605825 
L 404.164514 95.096835 
L 404.164514 95.096835 
" clip-path="url(#pcdd9cbdb0d)" style="fill: none; stroke: #ff6800; stroke-opacity: 0.8; stroke-width: 1.5; stroke-linecap: square"/>
   </g>
   <g id="line2d_56">
    <path d="M 315.95652 56.0138 
L 316.66289 56.129157 
L 317.457557 56.503369 
L 318.34052 57.166993 
L 319.488372 58.331024 
L 320.989409 60.212377 
L 323.196816 63.386784 
L 329.200964 72.178913 
L 331.761556 75.465848 
L 334.233852 78.279278 
L 336.617852 80.661201 
L 339.001852 82.740315 
L 341.474148 84.608058 
L 344.03474 86.269686 
L 346.771925 87.780484 
L 349.685703 89.132516 
L 352.864369 90.355708 
L 356.307925 91.437441 
L 360.104665 92.393832 
L 364.342887 93.23069 
L 369.199183 93.960044 
L 374.850146 94.580169 
L 381.64896 95.096139 
L 390.125404 95.506856 
L 401.339033 95.813372 
L 404.164514 95.863649 
L 404.164514 95.863649 
" clip-path="url(#pcdd9cbdb0d)" style="fill: none; stroke: #ff2900; stroke-opacity: 0.8; stroke-width: 1.5; stroke-linecap: square"/>
   </g>
   <g id="line2d_57">
    <path d="M 315.95652 56.0138 
L 316.66289 56.132003 
L 317.457557 56.516044 
L 318.34052 57.198464 
L 319.488372 58.398574 
L 320.901112 60.221769 
L 323.020223 63.370961 
L 329.819038 73.740639 
L 332.37963 77.110578 
L 334.76363 79.882114 
L 337.059333 82.221548 
L 339.443333 84.330596 
L 341.827333 86.143513 
L 344.299629 87.74642 
L 346.948518 89.191717 
L 349.685703 90.432794 
L 352.687777 91.54707 
L 355.954739 92.51888 
L 359.574887 93.361276 
L 363.724813 94.091726 
L 368.492813 94.699536 
L 374.232072 95.198947 
L 381.384071 95.587918 
L 390.92007 95.87026 
L 404.164514 96.041706 
L 404.164514 96.041706 
" clip-path="url(#pcdd9cbdb0d)" style="fill: none; stroke: #cd0000; stroke-opacity: 0.8; stroke-width: 1.5; stroke-linecap: square"/>
   </g>
   <g id="line2d_58">
    <path d="M 315.95652 56.0138 
L 316.66289 56.133597 
L 317.457557 56.523155 
L 318.34052 57.216148 
L 319.400075 58.332094 
L 320.812816 60.169433 
L 322.843631 63.231593 
L 330.348815 74.911047 
L 332.821111 78.183199 
L 335.116815 80.865729 
L 337.412519 83.210758 
L 339.708222 85.239248 
L 342.003926 86.979797 
L 344.387925 88.516218 
L 346.948518 89.898361 
L 349.685703 91.113895 
L 352.59948 92.159644 
L 355.778147 93.062407 
L 359.309998 93.83418 
L 363.371628 94.491062 
L 368.139628 95.031956 
L 373.967183 95.461833 
L 381.472367 95.782381 
L 392.156218 95.998477 
L 404.164514 96.091808 
L 404.164514 96.091808 
" clip-path="url(#pcdd9cbdb0d)" style="fill: none; stroke: #800000; stroke-opacity: 0.8; stroke-width: 1.5; stroke-linecap: square"/>
   </g>
   <g id="patch_9">
    <path d="M 311.54612 99.521687 
L 311.54612 24.064337 
" style="fill: none; stroke: #000000; stroke-width: 0.8; stroke-linejoin: miter; stroke-linecap: square"/>
   </g>
   <g id="patch_10">
    <path d="M 311.54612 99.521687 
L 408.574914 99.521687 
" style="fill: none; stroke: #000000; stroke-width: 0.8; stroke-linejoin: miter; stroke-linecap: square"/>
   </g>
   <g id="text_19">
    <!-- dy/dt -->
    <g transform="translate(348.181251 18.064337)scale(0.11 -0.11)">
     <defs>
      <path id="NimbusSanL-Regu-79" d="M 2483 3360 
L 1555 738 
L 698 3360 
L 128 3360 
L 1261 -21 
L 1056 -554 
C 973 -792 851 -882 627 -882 
C 550 -882 461 -869 346 -843 
L 346 -1325 
C 454 -1382 563 -1408 704 -1408 
C 877 -1408 1062 -1350 1203 -1247 
C 1370 -1125 1466 -983 1568 -713 
L 3059 3360 
L 2483 3360 
z
" transform="scale(0.015625)"/>
     </defs>
     <use xlink:href="#NimbusSanL-Regu-64" transform="scale(0.996264)"/>
     <use xlink:href="#NimbusSanL-Regu-79" transform="translate(55.391677 0)scale(0.996264)"/>
     <use xlink:href="#NimbusSanL-Regu-2f" transform="translate(105.204877 0)scale(0.996264)"/>
     <use xlink:href="#NimbusSanL-Regu-64" transform="translate(132.900047 0)scale(0.996264)"/>
     <use xlink:href="#NimbusSanL-Regu-74" transform="translate(188.291724 0)scale(0.996264)"/>
    </g>
   </g>
   <g id="legend_1">
    <g id="text_20">
     <!-- Input I -->
     <g transform="translate(412.174914 16.608152)scale(0.11 -0.11)">
      <defs>
       <path id="NimbusSanL-Regu-49" d="M 1242 4672 
L 640 4672 
L 640 -2 
L 1242 -2 
L 1242 4672 
z
" transform="scale(0.015625)"/>
       <path id="NimbusSanL-Regu-6e" d="M 448 3359 
L 448 0 
L 986 0 
L 986 1853 
C 986 2539 1344 2988 1894 2988 
C 2317 2988 2586 2731 2586 2327 
L 2586 0 
L 3117 0 
L 3117 2539 
C 3117 3097 2701 3456 2054 3456 
C 1555 3456 1235 3263 941 2796 
L 941 3359 
L 448 3359 
z
" transform="scale(0.015625)"/>
       <path id="NimbusSanL-Regu-70" d="M 346 -1408 
L 883 -1408 
L 883 320 
C 1165 -27 1478 -180 1914 -180 
C 2778 -180 3347 522 3347 1599 
C 3347 2734 2797 3444 1907 3444 
C 1453 3444 1088 3238 838 2841 
L 838 3349 
L 346 3349 
L 346 -1408 
z
M 1818 2944 
C 2406 2944 2790 2420 2790 1612 
C 2790 843 2400 320 1818 320 
C 1254 320 883 837 883 1632 
C 883 2427 1254 2944 1818 2944 
z
" transform="scale(0.015625)"/>
      </defs>
      <use xlink:href="#NimbusSanL-Regu-49" transform="scale(0.996264)"/>
      <use xlink:href="#NimbusSanL-Regu-6e" transform="translate(27.69517 0)scale(0.996264)"/>
      <use xlink:href="#NimbusSanL-Regu-70" transform="translate(83.086847 0)scale(0.996264)"/>
      <use xlink:href="#NimbusSanL-Regu-75" transform="translate(138.478524 0)scale(0.996264)"/>
      <use xlink:href="#NimbusSanL-Regu-74" transform="translate(193.8702 0)scale(0.996264)"/>
      <use xlink:href="#NimbusSanL-Regu-49" transform="translate(249.26054 0)scale(0.996264)"/>
     </g>
    </g>
    <g id="line2d_59">
     <path d="M 419.037897 22.381653 
L 423.037897 22.381653 
L 427.037897 22.381653 
" style="fill: none; stroke: #0000cd; stroke-opacity: 0.8; stroke-width: 1.5; stroke-linecap: square"/>
    </g>
    <g id="text_21">
     <!-- 0.1 -->
     <g transform="translate(430.237897 23.781653)scale(0.04 -0.04)">
      <defs>
       <path id="NimbusSanL-Regu-30" d="M 1760 4544 
C 1338 4544 954 4360 717 4046 
C 422 3651 275 3044 275 2208 
C 275 683 787 -128 1760 -128 
C 2720 -128 3245 683 3245 2170 
C 3245 3050 3104 3638 2803 4046 
C 2566 4366 2189 4544 1760 4544 
z
M 1760 4044 
C 2368 4044 2669 3432 2669 2221 
C 2669 939 2374 340 1747 340 
C 1152 340 851 965 851 2202 
C 851 3438 1152 4044 1760 4044 
z
" transform="scale(0.015625)"/>
       <path id="NimbusSanL-Regu-2e" d="M 1222 667 
L 557 667 
L 557 0 
L 1222 0 
L 1222 667 
z
" transform="scale(0.015625)"/>
       <path id="NimbusSanL-Regu-31" d="M 1658 3238 
L 1658 0 
L 2221 0 
L 2221 4545 
L 1850 4545 
C 1651 3847 1523 3751 653 3642 
L 653 3238 
L 1658 3238 
z
" transform="scale(0.015625)"/>
      </defs>
      <use xlink:href="#NimbusSanL-Regu-30" transform="scale(0.996264)"/>
      <use xlink:href="#NimbusSanL-Regu-2e" transform="translate(55.391677 0)scale(0.996264)"/>
      <use xlink:href="#NimbusSanL-Regu-31" transform="translate(83.086847 0)scale(0.996264)"/>
     </g>
    </g>
    <g id="line2d_60">
     <path d="M 419.037897 28.069773 
L 423.037897 28.069773 
L 427.037897 28.069773 
" style="fill: none; stroke: #0008ff; stroke-opacity: 0.8; stroke-width: 1.5; stroke-linecap: square"/>
    </g>
    <g id="text_22">
     <!-- 0.2 -->
     <g transform="translate(430.237897 29.469773)scale(0.04 -0.04)">
      <defs>
       <path id="NimbusSanL-Regu-32" d="M 3238 558 
L 851 558 
C 909 930 1114 1167 1670 1494 
L 2310 1840 
C 2944 2186 3270 2653 3270 3211 
C 3270 3589 3117 3942 2848 4185 
C 2579 4429 2246 4544 1818 4544 
C 1242 4544 813 4339 563 3955 
C 403 3711 333 3429 320 2967 
L 883 2967 
C 902 3275 941 3461 1018 3608 
C 1165 3884 1459 4051 1798 4051 
C 2310 4051 2694 3685 2694 3198 
C 2694 2839 2483 2531 2080 2301 
L 1491 1968 
C 544 1430 269 1000 218 0 
L 3238 0 
L 3238 558 
z
" transform="scale(0.015625)"/>
      </defs>
      <use xlink:href="#NimbusSanL-Regu-30" transform="scale(0.996264)"/>
      <use xlink:href="#NimbusSanL-Regu-2e" transform="translate(55.391677 0)scale(0.996264)"/>
      <use xlink:href="#NimbusSanL-Regu-32" transform="translate(83.086847 0)scale(0.996264)"/>
     </g>
    </g>
    <g id="line2d_61">
     <path d="M 419.037897 33.757893 
L 423.037897 33.757893 
L 427.037897 33.757893 
" style="fill: none; stroke: #004cff; stroke-opacity: 0.8; stroke-width: 1.5; stroke-linecap: square"/>
    </g>
    <g id="text_23">
     <!-- 0.3 -->
     <g transform="translate(430.237897 35.157893)scale(0.04 -0.04)">
      <defs>
       <path id="NimbusSanL-Regu-33" d="M 1414 2112 
L 1485 2112 
L 1722 2112 
C 2342 2112 2662 1830 2662 1284 
C 2662 712 2310 372 1722 372 
C 1107 372 806 681 768 1345 
L 205 1345 
C 230 978 294 740 403 534 
C 634 97 1082 -128 1702 -128 
C 2637 -128 3238 431 3238 1293 
C 3238 1872 3014 2194 2470 2381 
C 2893 2546 3104 2862 3104 3311 
C 3104 4082 2586 4544 1722 4544 
C 806 4544 320 4050 301 3095 
L 864 3095 
C 870 3366 896 3517 966 3655 
C 1094 3900 1376 4051 1728 4051 
C 2227 4051 2528 3760 2528 3287 
C 2528 2971 2413 2781 2163 2681 
C 2010 2618 1811 2592 1414 2592 
L 1414 2112 
z
" transform="scale(0.015625)"/>
      </defs>
      <use xlink:href="#NimbusSanL-Regu-30" transform="scale(0.996264)"/>
      <use xlink:href="#NimbusSanL-Regu-2e" transform="translate(55.391677 0)scale(0.996264)"/>
      <use xlink:href="#NimbusSanL-Regu-33" transform="translate(83.086847 0)scale(0.996264)"/>
     </g>
    </g>
    <g id="line2d_62">
     <path d="M 419.037897 39.446012 
L 423.037897 39.446012 
L 427.037897 39.446012 
" style="fill: none; stroke: #0090ff; stroke-opacity: 0.8; stroke-width: 1.5; stroke-linecap: square"/>
    </g>
    <g id="text_24">
     <!-- 0.4 -->
     <g transform="translate(430.237897 40.846012)scale(0.04 -0.04)">
      <defs>
       <path id="NimbusSanL-Regu-34" d="M 2093 1088 
L 2093 0 
L 2656 0 
L 2656 1088 
L 3328 1088 
L 3328 1594 
L 2656 1594 
L 2656 4545 
L 2240 4545 
L 179 1684 
L 179 1088 
L 2093 1088 
z
M 2093 1594 
L 672 1594 
L 2093 3583 
L 2093 1594 
z
" transform="scale(0.015625)"/>
      </defs>
      <use xlink:href="#NimbusSanL-Regu-30" transform="scale(0.996264)"/>
      <use xlink:href="#NimbusSanL-Regu-2e" transform="translate(55.391677 0)scale(0.996264)"/>
      <use xlink:href="#NimbusSanL-Regu-34" transform="translate(83.086847 0)scale(0.996264)"/>
     </g>
    </g>
    <g id="line2d_63">
     <path d="M 419.037897 45.134132 
L 423.037897 45.134132 
L 427.037897 45.134132 
" style="fill: none; stroke: #00d4ff; stroke-opacity: 0.8; stroke-width: 1.5; stroke-linecap: square"/>
    </g>
    <g id="text_25">
     <!-- 0.5 -->
     <g transform="translate(430.237897 46.534132)scale(0.04 -0.04)">
      <defs>
       <path id="NimbusSanL-Regu-35" d="M 3046 4544 
L 704 4544 
L 365 2086 
L 883 2086 
C 1146 2399 1363 2508 1715 2508 
C 2323 2508 2707 2092 2707 1421 
C 2707 768 2330 372 1715 372 
C 1222 372 922 621 787 1133 
L 224 1133 
C 301 762 365 582 499 415 
C 755 70 1216 -128 1728 -128 
C 2643 -128 3283 537 3283 1497 
C 3283 2394 2688 3008 1818 3008 
C 1498 3008 1242 2925 979 2732 
L 1158 3987 
L 3046 3987 
L 3046 4544 
z
" transform="scale(0.015625)"/>
      </defs>
      <use xlink:href="#NimbusSanL-Regu-30" transform="scale(0.996264)"/>
      <use xlink:href="#NimbusSanL-Regu-2e" transform="translate(55.391677 0)scale(0.996264)"/>
      <use xlink:href="#NimbusSanL-Regu-35" transform="translate(83.086847 0)scale(0.996264)"/>
     </g>
    </g>
    <g id="line2d_64">
     <path d="M 419.037897 50.822251 
L 423.037897 50.822251 
L 427.037897 50.822251 
" style="fill: none; stroke: #29ffce; stroke-opacity: 0.8; stroke-width: 1.5; stroke-linecap: square"/>
    </g>
    <g id="text_26">
     <!-- 0.6 -->
     <g transform="translate(430.237897 52.222251)scale(0.04 -0.04)">
      <defs>
       <path id="NimbusSanL-Regu-36" d="M 3187 3382 
C 3078 4111 2592 4544 1901 4544 
C 1402 4544 954 4302 685 3900 
C 403 3460 275 2904 275 2081 
C 275 1321 390 836 659 434 
C 902 69 1299 -128 1798 -128 
C 2662 -128 3283 518 3283 1415 
C 3283 2268 2707 2868 1894 2868 
C 1446 2868 1094 2695 851 2362 
C 858 3444 1216 4044 1862 4044 
C 2259 4044 2534 3803 2624 3382 
L 3187 3382 
z
M 1824 2368 
C 2368 2368 2707 1986 2707 1370 
C 2707 793 2323 372 1805 372 
C 1280 372 883 813 883 1402 
C 883 1973 1267 2368 1824 2368 
z
" transform="scale(0.015625)"/>
      </defs>
      <use xlink:href="#NimbusSanL-Regu-30" transform="scale(0.996264)"/>
      <use xlink:href="#NimbusSanL-Regu-2e" transform="translate(55.391677 0)scale(0.996264)"/>
      <use xlink:href="#NimbusSanL-Regu-36" transform="translate(83.086847 0)scale(0.996264)"/>
     </g>
    </g>
    <g id="line2d_65">
     <path d="M 419.037897 56.510371 
L 423.037897 56.510371 
L 427.037897 56.510371 
" style="fill: none; stroke: #60ff97; stroke-opacity: 0.8; stroke-width: 1.5; stroke-linecap: square"/>
    </g>
    <g id="text_27">
     <!-- 0.7 -->
     <g transform="translate(430.237897 57.910371)scale(0.04 -0.04)">
      <defs>
       <path id="NimbusSanL-Regu-37" d="M 3328 4525 
L 294 4525 
L 294 3968 
L 2746 3968 
C 1664 2418 1222 1466 883 -32 
L 1485 -32 
C 1734 1427 2304 2681 3328 4051 
L 3328 4525 
z
" transform="scale(0.015625)"/>
      </defs>
      <use xlink:href="#NimbusSanL-Regu-30" transform="scale(0.996264)"/>
      <use xlink:href="#NimbusSanL-Regu-2e" transform="translate(55.391677 0)scale(0.996264)"/>
      <use xlink:href="#NimbusSanL-Regu-37" transform="translate(83.086847 0)scale(0.996264)"/>
     </g>
    </g>
    <g id="line2d_66">
     <path d="M 419.037897 62.198491 
L 423.037897 62.198491 
L 427.037897 62.198491 
" style="fill: none; stroke: #97ff60; stroke-opacity: 0.8; stroke-width: 1.5; stroke-linecap: square"/>
    </g>
    <g id="text_28">
     <!-- 0.8 -->
     <g transform="translate(430.237897 63.598491)scale(0.04 -0.04)">
      <defs>
       <path id="NimbusSanL-Regu-38" d="M 2502 2399 
C 2970 2680 3123 2910 3123 3338 
C 3123 4046 2566 4544 1760 4544 
C 960 4544 397 4046 397 3338 
C 397 2917 550 2687 1011 2399 
C 493 2150 237 1774 237 1276 
C 237 446 864 -128 1760 -128 
C 2656 -128 3283 447 3283 1270 
C 3283 1774 3027 2150 2502 2399 
z
M 1760 4044 
C 2240 4044 2547 3764 2547 3325 
C 2547 2904 2234 2624 1760 2624 
C 1286 2624 973 2904 973 3331 
C 973 3764 1286 4044 1760 4044 
z
M 1760 2149 
C 2323 2149 2707 1792 2707 1263 
C 2707 729 2323 372 1747 372 
C 1197 372 813 735 813 1263 
C 813 1792 1197 2149 1760 2149 
z
" transform="scale(0.015625)"/>
      </defs>
      <use xlink:href="#NimbusSanL-Regu-30" transform="scale(0.996264)"/>
      <use xlink:href="#NimbusSanL-Regu-2e" transform="translate(55.391677 0)scale(0.996264)"/>
      <use xlink:href="#NimbusSanL-Regu-38" transform="translate(83.086847 0)scale(0.996264)"/>
     </g>
    </g>
    <g id="line2d_67">
     <path d="M 419.037897 67.88661 
L 423.037897 67.88661 
L 427.037897 67.88661 
" style="fill: none; stroke: #ceff29; stroke-opacity: 0.8; stroke-width: 1.5; stroke-linecap: square"/>
    </g>
    <g id="text_29">
     <!-- 0.9 -->
     <g transform="translate(430.237897 69.28661)scale(0.04 -0.04)">
      <defs>
       <path id="NimbusSanL-Regu-39" d="M 339 1064 
C 448 316 934 -128 1626 -128 
C 2125 -128 2579 114 2842 516 
C 3130 956 3258 1512 3258 2335 
C 3258 3095 3142 3580 2874 3982 
C 2624 4347 2227 4544 1728 4544 
C 864 4544 243 3909 243 3027 
C 243 2190 819 1600 1638 1600 
C 2067 1600 2381 1754 2675 2106 
C 2669 991 2310 372 1664 372 
C 1267 372 992 624 902 1064 
L 339 1064 
z
M 1722 4051 
C 2246 4051 2643 3622 2643 3041 
C 2643 2491 2253 2100 1702 2100 
C 1158 2100 819 2472 819 3072 
C 819 3640 1203 4051 1722 4051 
z
" transform="scale(0.015625)"/>
      </defs>
      <use xlink:href="#NimbusSanL-Regu-30" transform="scale(0.996264)"/>
      <use xlink:href="#NimbusSanL-Regu-2e" transform="translate(55.391677 0)scale(0.996264)"/>
      <use xlink:href="#NimbusSanL-Regu-39" transform="translate(83.086847 0)scale(0.996264)"/>
     </g>
    </g>
    <g id="line2d_68">
     <path d="M 419.037897 73.57473 
L 423.037897 73.57473 
L 427.037897 73.57473 
" style="fill: none; stroke: #ffe600; stroke-opacity: 0.8; stroke-width: 1.5; stroke-linecap: square"/>
    </g>
    <g id="text_30">
     <!-- 1.0 -->
     <g transform="translate(430.237897 74.97473)scale(0.04 -0.04)">
      <use xlink:href="#NimbusSanL-Regu-31" transform="scale(0.996264)"/>
      <use xlink:href="#NimbusSanL-Regu-2e" transform="translate(55.391677 0)scale(0.996264)"/>
      <use xlink:href="#NimbusSanL-Regu-30" transform="translate(83.086847 0)scale(0.996264)"/>
     </g>
    </g>
    <g id="line2d_69">
     <path d="M 419.037897 79.26285 
L 423.037897 79.26285 
L 427.037897 79.26285 
" style="fill: none; stroke: #ffa700; stroke-opacity: 0.8; stroke-width: 1.5; stroke-linecap: square"/>
    </g>
    <g id="text_31">
     <!-- 1.1 -->
     <g transform="translate(430.237897 80.66285)scale(0.04 -0.04)">
      <use xlink:href="#NimbusSanL-Regu-31" transform="scale(0.996264)"/>
      <use xlink:href="#NimbusSanL-Regu-2e" transform="translate(55.391677 0)scale(0.996264)"/>
      <use xlink:href="#NimbusSanL-Regu-31" transform="translate(83.086847 0)scale(0.996264)"/>
     </g>
    </g>
    <g id="line2d_70">
     <path d="M 419.037897 84.950969 
L 423.037897 84.950969 
L 427.037897 84.950969 
" style="fill: none; stroke: #ff6800; stroke-opacity: 0.8; stroke-width: 1.5; stroke-linecap: square"/>
    </g>
    <g id="text_32">
     <!-- 1.2 -->
     <g transform="translate(430.237897 86.350969)scale(0.04 -0.04)">
      <use xlink:href="#NimbusSanL-Regu-31" transform="scale(0.996264)"/>
      <use xlink:href="#NimbusSanL-Regu-2e" transform="translate(55.391677 0)scale(0.996264)"/>
      <use xlink:href="#NimbusSanL-Regu-32" transform="translate(83.086847 0)scale(0.996264)"/>
     </g>
    </g>
    <g id="line2d_71">
     <path d="M 419.037897 90.639089 
L 423.037897 90.639089 
L 427.037897 90.639089 
" style="fill: none; stroke: #ff2900; stroke-opacity: 0.8; stroke-width: 1.5; stroke-linecap: square"/>
    </g>
    <g id="text_33">
     <!-- 1.3 -->
     <g transform="translate(430.237897 92.039089)scale(0.04 -0.04)">
      <use xlink:href="#NimbusSanL-Regu-31" transform="scale(0.996264)"/>
      <use xlink:href="#NimbusSanL-Regu-2e" transform="translate(55.391677 0)scale(0.996264)"/>
      <use xlink:href="#NimbusSanL-Regu-33" transform="translate(83.086847 0)scale(0.996264)"/>
     </g>
    </g>
    <g id="line2d_72">
     <path d="M 419.037897 96.327208 
L 423.037897 96.327208 
L 427.037897 96.327208 
" style="fill: none; stroke: #cd0000; stroke-opacity: 0.8; stroke-width: 1.5; stroke-linecap: square"/>
    </g>
    <g id="text_34">
     <!-- 1.4 -->
     <g transform="translate(430.237897 97.727208)scale(0.04 -0.04)">
      <use xlink:href="#NimbusSanL-Regu-31" transform="scale(0.996264)"/>
      <use xlink:href="#NimbusSanL-Regu-2e" transform="translate(55.391677 0)scale(0.996264)"/>
      <use xlink:href="#NimbusSanL-Regu-34" transform="translate(83.086847 0)scale(0.996264)"/>
     </g>
    </g>
    <g id="line2d_73">
     <path d="M 419.037897 102.015328 
L 423.037897 102.015328 
L 427.037897 102.015328 
" style="fill: none; stroke: #800000; stroke-opacity: 0.8; stroke-width: 1.5; stroke-linecap: square"/>
    </g>
    <g id="text_35">
     <!-- 1.5 -->
     <g transform="translate(430.237897 103.415328)scale(0.04 -0.04)">
      <use xlink:href="#NimbusSanL-Regu-31" transform="scale(0.996264)"/>
      <use xlink:href="#NimbusSanL-Regu-2e" transform="translate(55.391677 0)scale(0.996264)"/>
      <use xlink:href="#NimbusSanL-Regu-35" transform="translate(83.086847 0)scale(0.996264)"/>
     </g>
    </g>
   </g>
  </g>
 </g>
 <defs>
  <clipPath id="p2e80d41a7e">
   <rect x="28.203076" y="24.064337" width="97.028793" height="75.45735"/>
  </clipPath>
  <clipPath id="pc262a54d18">
   <rect x="169.874598" y="24.064337" width="97.028793" height="75.45735"/>
  </clipPath>
  <clipPath id="pcdd9cbdb0d">
   <rect x="311.54612" y="24.064337" width="97.028793" height="75.45735"/>
  </clipPath>
 </defs>
</svg>
