<?xml version="1.0" encoding="utf-8" standalone="no"?>
<!DOCTYPE svg PUBLIC "-//W3C//DTD SVG 1.1//EN"
  "http://www.w3.org/Graphics/SVG/1.1/DTD/svg11.dtd">
<svg xmlns:xlink="http://www.w3.org/1999/xlink" width="136.46464pt" height="100.460145pt" viewBox="0 0 136.46464 100.460145" xmlns="http://www.w3.org/2000/svg" version="1.1">
 <metadata>
  <rdf:RDF xmlns:dc="http://purl.org/dc/elements/1.1/" xmlns:cc="http://creativecommons.org/ns#" xmlns:rdf="http://www.w3.org/1999/02/22-rdf-syntax-ns#">
   <cc:Work>
    <dc:type rdf:resource="http://purl.org/dc/dcmitype/StillImage"/>
    <dc:date>2022-10-05T11:33:28.622495</dc:date>
    <dc:format>image/svg+xml</dc:format>
    <dc:creator>
     <cc:Agent>
      <dc:title>Matplotlib v3.5.1, https://matplotlib.org/</dc:title>
     </cc:Agent>
    </dc:creator>
   </cc:Work>
  </rdf:RDF>
 </metadata>
 <defs>
  <style type="text/css">*{stroke-linejoin: round; stroke-linecap: butt}</style>
 </defs>
 <g id="figure_1">
  <g id="patch_1">
   <path d="M 0 100.460145 
L 136.46464 100.460145 
L 136.46464 0 
L 0 0 
L 0 100.460145 
z
" style="fill: none"/>
  </g>
  <g id="axes_1">
   <g id="patch_2">
    <path d="M 7.2 61.56 
L 127.166897 61.56 
L 127.166897 7.2 
L 7.2 7.2 
z
" style="fill: #ffffff"/>
   </g>
   <g id="patch_3">
    <path d="M 12.653041 16.48721 
L 19.469342 16.48721 
L 19.469342 9.670909 
L 12.653041 9.670909 
z
" clip-path="url(#p805f519b60)" style="fill: #9e0142"/>
   </g>
   <g id="patch_4">
    <path d="M 21.173417 16.48721 
L 27.989718 16.48721 
L 27.989718 9.670909 
L 21.173417 9.670909 
z
" clip-path="url(#p805f519b60)" style="fill: #cb334d"/>
   </g>
   <g id="patch_5">
    <path d="M 29.693793 16.48721 
L 36.510094 16.48721 
L 36.510094 9.670909 
L 29.693793 9.670909 
z
" clip-path="url(#p805f519b60)" style="fill: #e95c47"/>
   </g>
   <g id="patch_6">
    <path d="M 38.214169 16.48721 
L 45.03047 16.48721 
L 45.03047 9.670909 
L 38.214169 9.670909 
z
" clip-path="url(#p805f519b60)" style="fill: #f98e52"/>
   </g>
   <g id="patch_7">
    <path d="M 46.734545 16.48721 
L 53.550846 16.48721 
L 53.550846 9.670909 
L 46.734545 9.670909 
z
" clip-path="url(#p805f519b60)" style="fill: #fdbf6f"/>
   </g>
   <g id="patch_8">
    <path d="M 55.254922 16.48721 
L 62.071223 16.48721 
L 62.071223 9.670909 
L 55.254922 9.670909 
z
" clip-path="url(#p805f519b60)" style="fill: #fee593"/>
   </g>
   <g id="patch_9">
    <path d="M 63.775298 16.48721 
L 70.591599 16.48721 
L 70.591599 9.670909 
L 63.775298 9.670909 
z
" clip-path="url(#p805f519b60)" style="fill: #fffa8d"/>
   </g>
   <g id="patch_10">
    <path d="M 63.775298 25.007586 
L 70.591599 25.007586 
L 70.591599 18.191285 
L 63.775298 18.191285 
z
" clip-path="url(#p805f519b60)" style="fill: #fffa8d"/>
   </g>
   <g id="patch_11">
    <path d="M 72.295674 25.007586 
L 79.111975 25.007586 
L 79.111975 18.191285 
L 72.295674 18.191285 
z
" clip-path="url(#p805f519b60)" style="fill: #eaf79e"/>
   </g>
   <g id="patch_12">
    <path d="M 80.81605 25.007586 
L 87.632351 25.007586 
L 87.632351 18.191285 
L 80.81605 18.191285 
z
" clip-path="url(#p805f519b60)" style="fill: #bfe5a0"/>
   </g>
   <g id="patch_13">
    <path d="M 89.336426 25.007586 
L 96.152727 25.007586 
L 96.152727 18.191285 
L 89.336426 18.191285 
z
" clip-path="url(#p805f519b60)" style="fill: #86cfa5"/>
   </g>
   <g id="patch_14">
    <path d="M 97.856803 25.007586 
L 104.673103 25.007586 
L 104.673103 18.191285 
L 97.856803 18.191285 
z
" clip-path="url(#p805f519b60)" style="fill: #54aead"/>
   </g>
   <g id="patch_15">
    <path d="M 106.377179 25.007586 
L 113.19348 25.007586 
L 113.19348 18.191285 
L 106.377179 18.191285 
z
" clip-path="url(#p805f519b60)" style="fill: #3a7eb8"/>
   </g>
   <g id="patch_16">
    <path d="M 114.897555 25.007586 
L 121.713856 25.007586 
L 121.713856 18.191285 
L 114.897555 18.191285 
z
" clip-path="url(#p805f519b60)" style="fill: #5e4fa2"/>
   </g>
   <g id="patch_17">
    <path d="M 38.214169 33.527962 
L 45.03047 33.527962 
L 45.03047 26.711661 
L 38.214169 26.711661 
z
" clip-path="url(#p805f519b60)" style="fill: #f98e52"/>
   </g>
   <g id="patch_18">
    <path d="M 46.734545 33.527962 
L 53.550846 33.527962 
L 53.550846 26.711661 
L 46.734545 26.711661 
z
" clip-path="url(#p805f519b60)" style="fill: #fdbf6f"/>
   </g>
   <g id="patch_19">
    <path d="M 55.254922 33.527962 
L 62.071223 33.527962 
L 62.071223 26.711661 
L 55.254922 26.711661 
z
" clip-path="url(#p805f519b60)" style="fill: #fee593"/>
   </g>
   <g id="patch_20">
    <path d="M 63.775298 33.527962 
L 70.591599 33.527962 
L 70.591599 26.711661 
L 63.775298 26.711661 
z
" clip-path="url(#p805f519b60)" style="fill: #fffa8d"/>
   </g>
   <g id="patch_21">
    <path d="M 72.295674 33.527962 
L 79.111975 33.527962 
L 79.111975 26.711661 
L 72.295674 26.711661 
z
" clip-path="url(#p805f519b60)" style="fill: #eaf79e"/>
   </g>
   <g id="patch_22">
    <path d="M 80.81605 33.527962 
L 87.632351 33.527962 
L 87.632351 26.711661 
L 80.81605 26.711661 
z
" clip-path="url(#p805f519b60)" style="fill: #bfe5a0"/>
   </g>
   <g id="patch_23">
    <path d="M 89.336426 33.527962 
L 96.152727 33.527962 
L 96.152727 26.711661 
L 89.336426 26.711661 
z
" clip-path="url(#p805f519b60)" style="fill: #86cfa5"/>
   </g>
   <g id="patch_24">
    <path d="M 12.653041 42.048339 
L 19.469342 42.048339 
L 19.469342 35.232038 
L 12.653041 35.232038 
z
" clip-path="url(#p805f519b60)" style="fill: #9e0142"/>
   </g>
   <g id="patch_25">
    <path d="M 21.173417 42.048339 
L 27.989718 42.048339 
L 27.989718 35.232038 
L 21.173417 35.232038 
z
" clip-path="url(#p805f519b60)" style="fill: #cb334d"/>
   </g>
   <g id="patch_26">
    <path d="M 29.693793 42.048339 
L 36.510094 42.048339 
L 36.510094 35.232038 
L 29.693793 35.232038 
z
" clip-path="url(#p805f519b60)" style="fill: #e95c47"/>
   </g>
   <g id="patch_27">
    <path d="M 38.214169 42.048339 
L 45.03047 42.048339 
L 45.03047 35.232038 
L 38.214169 35.232038 
z
" clip-path="url(#p805f519b60)" style="fill: #f98e52"/>
   </g>
   <g id="patch_28">
    <path d="M 46.734545 42.048339 
L 53.550846 42.048339 
L 53.550846 35.232038 
L 46.734545 35.232038 
z
" clip-path="url(#p805f519b60)" style="fill: #fdbf6f"/>
   </g>
   <g id="patch_29">
    <path d="M 55.254922 42.048339 
L 62.071223 42.048339 
L 62.071223 35.232038 
L 55.254922 35.232038 
z
" clip-path="url(#p805f519b60)" style="fill: #fee593"/>
   </g>
   <g id="patch_30">
    <path d="M 63.775298 42.048339 
L 70.591599 42.048339 
L 70.591599 35.232038 
L 63.775298 35.232038 
z
" clip-path="url(#p805f519b60)" style="fill: #fffa8d"/>
   </g>
   <g id="patch_31">
    <path d="M 72.295674 42.048339 
L 79.111975 42.048339 
L 79.111975 35.232038 
L 72.295674 35.232038 
z
" clip-path="url(#p805f519b60)" style="fill: #eaf79e"/>
   </g>
   <g id="patch_32">
    <path d="M 80.81605 42.048339 
L 87.632351 42.048339 
L 87.632351 35.232038 
L 80.81605 35.232038 
z
" clip-path="url(#p805f519b60)" style="fill: #bfe5a0"/>
   </g>
   <g id="patch_33">
    <path d="M 89.336426 42.048339 
L 96.152727 42.048339 
L 96.152727 35.232038 
L 89.336426 35.232038 
z
" clip-path="url(#p805f519b60)" style="fill: #86cfa5"/>
   </g>
   <g id="patch_34">
    <path d="M 97.856803 42.048339 
L 104.673103 42.048339 
L 104.673103 35.232038 
L 97.856803 35.232038 
z
" clip-path="url(#p805f519b60)" style="fill: #54aead"/>
   </g>
   <g id="patch_35">
    <path d="M 106.377179 42.048339 
L 113.19348 42.048339 
L 113.19348 35.232038 
L 106.377179 35.232038 
z
" clip-path="url(#p805f519b60)" style="fill: #3a7eb8"/>
   </g>
   <g id="patch_36">
    <path d="M 114.897555 42.048339 
L 121.713856 42.048339 
L 121.713856 35.232038 
L 114.897555 35.232038 
z
" clip-path="url(#p805f519b60)" style="fill: #5e4fa2"/>
   </g>
   <g id="patch_37">
    <path d="M 12.653041 59.089091 
L 19.469342 59.089091 
L 19.469342 52.27279 
L 12.653041 52.27279 
z
" clip-path="url(#p805f519b60)" style="fill: #9e0142"/>
   </g>
   <g id="patch_38">
    <path d="M 29.693793 59.089091 
L 36.510094 59.089091 
L 36.510094 52.27279 
L 29.693793 52.27279 
z
" clip-path="url(#p805f519b60)" style="fill: #e95c47"/>
   </g>
   <g id="patch_39">
    <path d="M 46.734545 59.089091 
L 53.550846 59.089091 
L 53.550846 52.27279 
L 46.734545 52.27279 
z
" clip-path="url(#p805f519b60)" style="fill: #fdbf6f"/>
   </g>
   <g id="patch_40">
    <path d="M 63.775298 59.089091 
L 70.591599 59.089091 
L 70.591599 52.27279 
L 63.775298 52.27279 
z
" clip-path="url(#p805f519b60)" style="fill: #fffa8d"/>
   </g>
   <g id="patch_41">
    <path d="M 12.653041 50.568715 
L 19.469342 50.568715 
L 19.469342 43.752414 
L 12.653041 43.752414 
z
" clip-path="url(#p805f519b60)" style="fill: #9e0142"/>
   </g>
   <g id="patch_42">
    <path d="M 29.693793 50.568715 
L 36.510094 50.568715 
L 36.510094 43.752414 
L 29.693793 43.752414 
z
" clip-path="url(#p805f519b60)" style="fill: #e95c47"/>
   </g>
   <g id="patch_43">
    <path d="M 46.734545 50.568715 
L 53.550846 50.568715 
L 53.550846 43.752414 
L 46.734545 43.752414 
z
" clip-path="url(#p805f519b60)" style="fill: #fdbf6f"/>
   </g>
   <g id="patch_44">
    <path d="M 63.775298 50.568715 
L 70.591599 50.568715 
L 70.591599 43.752414 
L 63.775298 43.752414 
z
" clip-path="url(#p805f519b60)" style="fill: #fffa8d"/>
   </g>
   <g id="patch_45">
    <path d="M 80.81605 50.568715 
L 87.632351 50.568715 
L 87.632351 43.752414 
L 80.81605 43.752414 
z
" clip-path="url(#p805f519b60)" style="fill: #bfe5a0"/>
   </g>
   <g id="patch_46">
    <path d="M 97.856803 50.568715 
L 104.673103 50.568715 
L 104.673103 43.752414 
L 97.856803 43.752414 
z
" clip-path="url(#p805f519b60)" style="fill: #54aead"/>
   </g>
   <g id="patch_47">
    <path d="M 114.897555 50.568715 
L 121.713856 50.568715 
L 121.713856 43.752414 
L 114.897555 43.752414 
z
" clip-path="url(#p805f519b60)" style="fill: #5e4fa2"/>
   </g>
   <g id="matplotlib.axis_1">
    <g id="xtick_1">
     <g id="line2d_1">
      <defs>
       <path id="m3d967eedb0" d="M 0 0 
L 0 3.5 
" style="stroke: #000000; stroke-width: 0.8"/>
      </defs>
      <g>
       <use xlink:href="#m3d967eedb0" x="33.101944" y="61.56" style="stroke: #000000; stroke-width: 0.8"/>
      </g>
     </g>
     <g id="text_1">
      <!-- $\mathdefault{500}$ -->
      <g transform="translate(24.882743 76.170347)scale(0.11 -0.11)">
       <defs>
        <path id="CMR17-35" d="M 730 3692 
C 794 3666 1056 3584 1325 3584 
C 1920 3584 2246 3911 2432 4100 
C 2432 4157 2432 4192 2394 4192 
C 2387 4192 2374 4192 2323 4163 
C 2099 4058 1837 3973 1517 3973 
C 1325 3973 1037 3999 723 4139 
C 653 4171 640 4171 634 4171 
C 602 4171 595 4164 595 4037 
L 595 2203 
C 595 2089 595 2057 659 2057 
C 691 2057 704 2070 736 2114 
C 941 2401 1222 2522 1542 2522 
C 1766 2522 2246 2382 2246 1289 
C 2246 1085 2246 715 2054 421 
C 1894 159 1645 25 1370 25 
C 947 25 518 320 403 814 
C 429 807 480 795 506 795 
C 589 795 749 840 749 1038 
C 749 1210 627 1280 506 1280 
C 358 1280 262 1190 262 1011 
C 262 454 704 -128 1382 -128 
C 2042 -128 2669 440 2669 1264 
C 2669 2030 2170 2624 1549 2624 
C 1222 2624 947 2503 730 2274 
L 730 3692 
z
" transform="scale(0.015625)"/>
        <path id="CMR17-30" d="M 2688 2025 
C 2688 2416 2682 3080 2413 3591 
C 2176 4039 1798 4198 1466 4198 
C 1158 4198 768 4058 525 3597 
C 269 3118 243 2524 243 2025 
C 243 1661 250 1106 448 619 
C 723 -39 1216 -128 1466 -128 
C 1760 -128 2208 -7 2470 600 
C 2662 1042 2688 1559 2688 2025 
z
M 1466 -26 
C 1056 -26 813 325 723 812 
C 653 1188 653 1738 653 2096 
C 653 2588 653 2997 736 3387 
C 858 3929 1216 4096 1466 4096 
C 1728 4096 2067 3923 2189 3400 
C 2272 3036 2278 2607 2278 2096 
C 2278 1680 2278 1169 2202 792 
C 2067 95 1690 -26 1466 -26 
z
" transform="scale(0.015625)"/>
       </defs>
       <use xlink:href="#CMR17-35" transform="scale(0.996264)"/>
       <use xlink:href="#CMR17-30" transform="translate(45.690477 0)scale(0.996264)"/>
       <use xlink:href="#CMR17-30" transform="translate(91.380954 0)scale(0.996264)"/>
      </g>
     </g>
    </g>
    <g id="xtick_2">
     <g id="line2d_2">
      <g>
       <use xlink:href="#m3d967eedb0" x="75.703824" y="61.56" style="stroke: #000000; stroke-width: 0.8"/>
      </g>
     </g>
     <g id="text_2">
      <!-- $\mathdefault{750}$ -->
      <g transform="translate(67.484624 76.170347)scale(0.11 -0.11)">
       <defs>
        <path id="CMR17-37" d="M 2886 3941 
L 2886 4081 
L 1382 4081 
C 634 4081 621 4165 595 4288 
L 480 4288 
L 294 3094 
L 410 3094 
C 429 3215 474 3540 550 3661 
C 589 3712 1062 3712 1171 3712 
L 2579 3712 
L 1869 2661 
C 1395 1954 1069 999 1069 165 
C 1069 89 1069 -128 1299 -128 
C 1530 -128 1530 89 1530 171 
L 1530 465 
C 1530 1508 1709 2196 2003 2636 
L 2886 3941 
z
" transform="scale(0.015625)"/>
       </defs>
       <use xlink:href="#CMR17-37" transform="scale(0.996264)"/>
       <use xlink:href="#CMR17-35" transform="translate(45.690477 0)scale(0.996264)"/>
       <use xlink:href="#CMR17-30" transform="translate(91.380954 0)scale(0.996264)"/>
      </g>
     </g>
    </g>
    <g id="xtick_3">
     <g id="line2d_3">
      <g>
       <use xlink:href="#m3d967eedb0" x="118.305705" y="61.56" style="stroke: #000000; stroke-width: 0.8"/>
      </g>
     </g>
     <g id="text_3">
      <!-- $\mathdefault{1000}$ -->
      <g transform="translate(107.346771 76.170347)scale(0.11 -0.11)">
       <defs>
        <path id="CMR17-31" d="M 1702 4058 
C 1702 4192 1696 4192 1606 4192 
C 1357 3916 979 3827 621 3827 
C 602 3827 570 3827 563 3808 
C 557 3795 557 3782 557 3648 
C 755 3648 1088 3686 1344 3839 
L 1344 461 
C 1344 236 1331 160 781 160 
L 589 160 
L 589 0 
C 896 0 1216 0 1523 0 
C 1830 0 2150 0 2458 0 
L 2458 160 
L 2266 160 
C 1715 160 1702 230 1702 458 
L 1702 4058 
z
" transform="scale(0.015625)"/>
       </defs>
       <use xlink:href="#CMR17-31" transform="scale(0.996264)"/>
       <use xlink:href="#CMR17-30" transform="translate(45.690477 0)scale(0.996264)"/>
       <use xlink:href="#CMR17-30" transform="translate(91.380954 0)scale(0.996264)"/>
       <use xlink:href="#CMR17-30" transform="translate(137.071431 0)scale(0.996264)"/>
      </g>
     </g>
    </g>
    <g id="text_4">
     <!-- stimulus [ms] -->
     <g transform="translate(35.585221 90.520419)scale(0.11 -0.11)">
      <defs>
       <path id="CMR17-73" d="M 1978 2697 
C 1978 2813 1971 2819 1933 2819 
C 1907 2819 1901 2813 1824 2717 
C 1805 2691 1747 2626 1728 2601 
C 1523 2819 1235 2819 1126 2819 
C 416 2819 160 2447 160 2076 
C 160 1498 813 1365 998 1325 
C 1402 1243 1542 1217 1677 1101 
C 1760 1025 1901 884 1901 654 
C 1901 384 1747 38 1158 38 
C 602 38 403 460 288 1021 
C 269 1110 269 1117 218 1117 
C 166 1117 160 1110 160 983 
L 160 63 
C 160 -51 166 -58 205 -58 
C 237 -58 243 -51 275 0 
C 314 57 410 211 448 276 
C 576 103 800 -64 1158 -64 
C 1792 -64 2131 283 2131 784 
C 2131 1112 1958 1285 1875 1362 
C 1683 1561 1459 1606 1190 1657 
C 838 1735 390 1825 390 2217 
C 390 2383 480 2737 1126 2737 
C 1811 2737 1850 2094 1862 1888 
C 1869 1856 1901 1849 1920 1849 
C 1978 1849 1978 1869 1978 1978 
L 1978 2697 
z
" transform="scale(0.015625)"/>
       <path id="CMR17-74" d="M 966 2560 
L 1862 2560 
L 1862 2725 
L 966 2725 
L 966 3904 
L 851 3904 
C 838 3245 614 2668 70 2668 
L 70 2560 
L 627 2560 
L 627 771 
C 627 650 627 -64 1370 -64 
C 1747 -64 1965 306 1965 777 
L 1965 1140 
L 1850 1140 
L 1850 783 
C 1850 344 1677 51 1408 51 
C 1222 51 966 178 966 758 
L 966 2560 
z
" transform="scale(0.015625)"/>
       <path id="CMR17-69" d="M 992 3909 
C 992 4049 877 4170 730 4170 
C 589 4170 467 4056 467 3909 
C 467 3769 582 3648 730 3648 
C 870 3648 992 3763 992 3909 
z
M 243 2706 
L 243 2541 
C 602 2541 653 2502 653 2197 
L 653 427 
C 653 184 627 153 218 153 
L 218 -13 
C 371 0 646 0 806 0 
C 960 0 1222 0 1370 -13 
L 1370 153 
C 992 153 979 191 979 420 
L 979 2776 
L 243 2706 
z
" transform="scale(0.015625)"/>
       <path id="CMR17-6d" d="M 4326 1933 
C 4326 2252 4269 2790 3507 2790 
C 3072 2790 2771 2496 2656 2151 
L 2650 2151 
C 2573 2676 2195 2790 1837 2790 
C 1331 2790 1069 2400 973 2144 
L 966 2144 
L 966 2790 
L 211 2720 
L 211 2554 
C 589 2554 646 2515 646 2208 
L 646 428 
C 646 184 621 153 211 153 
L 211 -13 
C 365 0 646 0 813 0 
C 979 0 1267 0 1421 -13 
L 1421 153 
C 1011 153 986 178 986 428 
L 986 1658 
C 986 2247 1344 2688 1792 2688 
C 2266 2688 2317 2266 2317 1958 
L 2317 428 
C 2317 184 2291 153 1882 153 
L 1882 -13 
C 2035 0 2317 0 2483 0 
C 2650 0 2938 0 3091 -13 
L 3091 153 
C 2682 153 2656 178 2656 428 
L 2656 1658 
C 2656 2247 3014 2688 3462 2688 
C 3936 2688 3987 2266 3987 1958 
L 3987 428 
C 3987 184 3962 153 3552 153 
L 3552 -13 
C 3706 0 3987 0 4154 0 
C 4320 0 4608 0 4762 -13 
L 4762 153 
C 4352 153 4326 178 4326 428 
L 4326 1933 
z
" transform="scale(0.015625)"/>
       <path id="CMR17-75" d="M 1882 2693 
L 1882 2528 
C 2259 2528 2317 2489 2317 2186 
L 2317 1032 
C 2317 500 2029 38 1555 38 
C 1030 38 986 348 986 678 
L 986 2763 
L 211 2693 
L 211 2528 
C 467 2528 640 2528 646 2274 
L 646 1058 
C 646 633 646 361 813 183 
C 896 101 1056 -64 1517 -64 
C 2061 -64 2272 377 2323 506 
L 2330 506 
L 2330 -63 
L 3091 -63 
L 3091 128 
C 2714 128 2656 166 2656 473 
L 2656 2763 
L 1882 2693 
z
" transform="scale(0.015625)"/>
       <path id="CMR17-6c" d="M 979 4396 
L 218 4326 
L 218 4160 
C 595 4160 653 4122 653 3817 
L 653 426 
C 653 184 627 153 218 153 
L 218 -13 
C 371 0 653 0 813 0 
C 979 0 1261 0 1414 -13 
L 1414 153 
C 1005 153 979 178 979 426 
L 979 4396 
z
" transform="scale(0.015625)"/>
       <path id="CMR17-5b" d="M 1504 -1600 
L 1504 -1377 
L 902 -1377 
L 902 4544 
L 1504 4544 
L 1504 4767 
L 678 4767 
L 678 -1600 
L 1504 -1600 
z
" transform="scale(0.015625)"/>
       <path id="CMR17-5d" d="M 915 4767 
L 90 4767 
L 90 4544 
L 691 4544 
L 691 -1377 
L 90 -1377 
L 90 -1600 
L 915 -1600 
L 915 4767 
z
" transform="scale(0.015625)"/>
      </defs>
      <use xlink:href="#CMR17-73" transform="scale(0.996264)"/>
      <use xlink:href="#CMR17-74" transform="translate(35.801338 0)scale(0.996264)"/>
      <use xlink:href="#CMR17-69" transform="translate(71.082105 0)scale(0.996264)"/>
      <use xlink:href="#CMR17-6d" transform="translate(95.953164 0)scale(0.996264)"/>
      <use xlink:href="#CMR17-75" transform="translate(170.2703 0)scale(0.996264)"/>
      <use xlink:href="#CMR17-6c" transform="translate(221.16567 0)scale(0.996264)"/>
      <use xlink:href="#CMR17-75" transform="translate(246.036728 0)scale(0.996264)"/>
      <use xlink:href="#CMR17-73" transform="translate(296.932098 0)scale(0.996264)"/>
      <use xlink:href="#CMR17-5b" transform="translate(362.809402 0)scale(0.996264)"/>
      <use xlink:href="#CMR17-6d" transform="translate(387.68046 0)scale(0.996264)"/>
      <use xlink:href="#CMR17-73" transform="translate(464.60005 0)scale(0.996264)"/>
      <use xlink:href="#CMR17-5d" transform="translate(500.401388 0)scale(0.996264)"/>
     </g>
    </g>
   </g>
   <g id="patch_48">
    <path d="M 7.2 61.56 
L 127.166897 61.56 
" style="fill: none; stroke: #000000; stroke-width: 0.8; stroke-linejoin: miter; stroke-linecap: square"/>
   </g>
  </g>
 </g>
 <defs>
  <clipPath id="p805f519b60">
   <rect x="7.2" y="7.2" width="119.966897" height="54.36"/>
  </clipPath>
 </defs>
</svg>
