<?xml version="1.0" encoding="utf-8" standalone="no"?>
<!DOCTYPE svg PUBLIC "-//W3C//DTD SVG 1.1//EN"
  "http://www.w3.org/Graphics/SVG/1.1/DTD/svg11.dtd">
<svg xmlns:xlink="http://www.w3.org/1999/xlink" width="157.700176pt" height="100.460145pt" viewBox="0 0 157.700176 100.460145" xmlns="http://www.w3.org/2000/svg" version="1.1">
 <metadata>
  <rdf:RDF xmlns:dc="http://purl.org/dc/elements/1.1/" xmlns:cc="http://creativecommons.org/ns#" xmlns:rdf="http://www.w3.org/1999/02/22-rdf-syntax-ns#">
   <cc:Work>
    <dc:type rdf:resource="http://purl.org/dc/dcmitype/StillImage"/>
    <dc:date>2022-10-21T16:49:46.678108</dc:date>
    <dc:format>image/svg+xml</dc:format>
    <dc:creator>
     <cc:Agent>
      <dc:title>Matplotlib v3.5.1, https://matplotlib.org/</dc:title>
     </cc:Agent>
    </dc:creator>
   </cc:Work>
  </rdf:RDF>
 </metadata>
 <defs>
  <style type="text/css">*{stroke-linejoin: round; stroke-linecap: butt}</style>
 </defs>
 <g id="figure_1">
  <g id="patch_1">
   <path d="M 0 100.460145 
L 157.700176 100.460145 
L 157.700176 0 
L 0 0 
z
" style="fill: #ffffff"/>
  </g>
  <g id="axes_1">
   <g id="patch_2">
    <path d="M 38.900176 61.56 
L 150.500176 61.56 
L 150.500176 7.2 
L 38.900176 7.2 
z
" style="fill: #ffffff"/>
   </g>
   <g id="matplotlib.axis_1">
    <g id="xtick_1">
     <g id="line2d_1">
      <defs>
       <path id="me4096175cb" d="M 0 0 
L 0 3.5 
" style="stroke: #262626; stroke-width: 0.8"/>
      </defs>
      <g>
       <use xlink:href="#me4096175cb" x="38.900176" y="61.56" style="fill: #262626; stroke: #262626; stroke-width: 0.8"/>
      </g>
     </g>
     <g id="text_1">
      <!-- $\mathdefault{0.00}$ -->
      <g style="fill: #262626" transform="translate(29.158904 76.170347)scale(0.11 -0.11)">
       <defs>
        <path id="CMR17-30" d="M 2688 2025 
C 2688 2416 2682 3080 2413 3591 
C 2176 4039 1798 4198 1466 4198 
C 1158 4198 768 4058 525 3597 
C 269 3118 243 2524 243 2025 
C 243 1661 250 1106 448 619 
C 723 -39 1216 -128 1466 -128 
C 1760 -128 2208 -7 2470 600 
C 2662 1042 2688 1559 2688 2025 
z
M 1466 -26 
C 1056 -26 813 325 723 812 
C 653 1188 653 1738 653 2096 
C 653 2588 653 2997 736 3387 
C 858 3929 1216 4096 1466 4096 
C 1728 4096 2067 3923 2189 3400 
C 2272 3036 2278 2607 2278 2096 
C 2278 1680 2278 1169 2202 792 
C 2067 95 1690 -26 1466 -26 
z
" transform="scale(0.015625)"/>
        <path id="CMMI12-3a" d="M 1178 307 
C 1178 492 1024 619 870 619 
C 685 619 557 466 557 313 
C 557 128 710 0 864 0 
C 1050 0 1178 153 1178 307 
z
" transform="scale(0.015625)"/>
       </defs>
       <use xlink:href="#CMR17-30" transform="scale(0.996264)"/>
       <use xlink:href="#CMMI12-3a" transform="translate(45.690477 0)scale(0.996264)"/>
       <use xlink:href="#CMR17-30" transform="translate(72.787654 0)scale(0.996264)"/>
       <use xlink:href="#CMR17-30" transform="translate(118.478131 0)scale(0.996264)"/>
      </g>
     </g>
    </g>
    <g id="xtick_2">
     <g id="line2d_2">
      <g>
       <use xlink:href="#me4096175cb" x="85.400176" y="61.56" style="fill: #262626; stroke: #262626; stroke-width: 0.8"/>
      </g>
     </g>
     <g id="text_2">
      <!-- $\mathdefault{0.05}$ -->
      <g style="fill: #262626" transform="translate(75.658904 76.170347)scale(0.11 -0.11)">
       <defs>
        <path id="CMR17-35" d="M 730 3692 
C 794 3666 1056 3584 1325 3584 
C 1920 3584 2246 3911 2432 4100 
C 2432 4157 2432 4192 2394 4192 
C 2387 4192 2374 4192 2323 4163 
C 2099 4058 1837 3973 1517 3973 
C 1325 3973 1037 3999 723 4139 
C 653 4171 640 4171 634 4171 
C 602 4171 595 4164 595 4037 
L 595 2203 
C 595 2089 595 2057 659 2057 
C 691 2057 704 2070 736 2114 
C 941 2401 1222 2522 1542 2522 
C 1766 2522 2246 2382 2246 1289 
C 2246 1085 2246 715 2054 421 
C 1894 159 1645 25 1370 25 
C 947 25 518 320 403 814 
C 429 807 480 795 506 795 
C 589 795 749 840 749 1038 
C 749 1210 627 1280 506 1280 
C 358 1280 262 1190 262 1011 
C 262 454 704 -128 1382 -128 
C 2042 -128 2669 440 2669 1264 
C 2669 2030 2170 2624 1549 2624 
C 1222 2624 947 2503 730 2274 
L 730 3692 
z
" transform="scale(0.015625)"/>
       </defs>
       <use xlink:href="#CMR17-30" transform="scale(0.996264)"/>
       <use xlink:href="#CMMI12-3a" transform="translate(45.690477 0)scale(0.996264)"/>
       <use xlink:href="#CMR17-30" transform="translate(72.787654 0)scale(0.996264)"/>
       <use xlink:href="#CMR17-35" transform="translate(118.478131 0)scale(0.996264)"/>
      </g>
     </g>
    </g>
    <g id="xtick_3">
     <g id="line2d_3">
      <g>
       <use xlink:href="#me4096175cb" x="131.900176" y="61.56" style="fill: #262626; stroke: #262626; stroke-width: 0.8"/>
      </g>
     </g>
     <g id="text_3">
      <!-- $\mathdefault{0.10}$ -->
      <g style="fill: #262626" transform="translate(122.158904 76.170347)scale(0.11 -0.11)">
       <defs>
        <path id="CMR17-31" d="M 1702 4058 
C 1702 4192 1696 4192 1606 4192 
C 1357 3916 979 3827 621 3827 
C 602 3827 570 3827 563 3808 
C 557 3795 557 3782 557 3648 
C 755 3648 1088 3686 1344 3839 
L 1344 461 
C 1344 236 1331 160 781 160 
L 589 160 
L 589 0 
C 896 0 1216 0 1523 0 
C 1830 0 2150 0 2458 0 
L 2458 160 
L 2266 160 
C 1715 160 1702 230 1702 458 
L 1702 4058 
z
" transform="scale(0.015625)"/>
       </defs>
       <use xlink:href="#CMR17-30" transform="scale(0.996264)"/>
       <use xlink:href="#CMMI12-3a" transform="translate(45.690477 0)scale(0.996264)"/>
       <use xlink:href="#CMR17-31" transform="translate(72.787654 0)scale(0.996264)"/>
       <use xlink:href="#CMR17-30" transform="translate(118.478131 0)scale(0.996264)"/>
      </g>
     </g>
    </g>
    <g id="text_4">
     <!-- E(t)/var -->
     <g style="fill: #262626" transform="translate(74.365268 90.520419)scale(0.11 -0.11)">
      <defs>
       <path id="CMR17-45" d="M 3885 1615 
L 3770 1615 
C 3629 676 3546 166 2419 166 
L 1530 166 
C 1274 166 1261 197 1261 414 
L 1261 2176 
L 1862 2176 
C 2464 2176 2522 1960 2522 1430 
L 2637 1430 
L 2637 3081 
L 2522 3081 
C 2522 2557 2464 2342 1862 2342 
L 1261 2342 
L 1261 3913 
C 1261 4128 1274 4160 1530 4160 
L 2406 4160 
C 3398 4160 3514 3769 3603 2929 
L 3718 2929 
L 3565 4325 
L 326 4325 
L 326 4160 
C 768 4160 838 4160 838 3874 
L 838 451 
C 838 166 768 166 326 166 
L 326 0 
L 3654 0 
L 3885 1615 
z
" transform="scale(0.015625)"/>
       <path id="CMR17-28" d="M 1958 -1561 
C 1958 -1555 1958 -1542 1939 -1523 
C 1645 -1224 858 -407 858 1581 
C 858 3569 1632 4379 1946 4697 
C 1946 4704 1958 4717 1958 4736 
C 1958 4755 1939 4768 1914 4768 
C 1843 4768 1299 4296 986 3594 
C 666 2887 576 2199 576 1588 
C 576 1128 621 351 1005 -471 
C 1312 -1135 1837 -1600 1914 -1600 
C 1946 -1600 1958 -1587 1958 -1561 
z
" transform="scale(0.015625)"/>
       <path id="CMR17-74" d="M 966 2560 
L 1862 2560 
L 1862 2725 
L 966 2725 
L 966 3904 
L 851 3904 
C 838 3245 614 2668 70 2668 
L 70 2560 
L 627 2560 
L 627 771 
C 627 650 627 -64 1370 -64 
C 1747 -64 1965 306 1965 777 
L 1965 1140 
L 1850 1140 
L 1850 783 
C 1850 344 1677 51 1408 51 
C 1222 51 966 178 966 758 
L 966 2560 
z
" transform="scale(0.015625)"/>
       <path id="CMR17-29" d="M 1683 1581 
C 1683 2040 1638 2817 1254 3639 
C 947 4303 422 4768 346 4768 
C 326 4768 301 4761 301 4729 
C 301 4717 307 4710 314 4697 
C 621 4378 1402 3568 1402 1584 
C 1402 -407 627 -1217 314 -1537 
C 307 -1549 301 -1556 301 -1568 
C 301 -1600 326 -1600 346 -1600 
C 416 -1600 960 -1128 1274 -426 
C 1594 281 1683 969 1683 1581 
z
" transform="scale(0.015625)"/>
       <path id="CMR17-2f" d="M 2605 4545 
C 2637 4627 2637 4640 2637 4653 
C 2637 4729 2579 4768 2528 4768 
C 2451 4768 2426 4717 2400 4640 
L 326 -1377 
C 294 -1460 294 -1473 294 -1486 
C 294 -1562 352 -1600 403 -1600 
C 480 -1600 506 -1549 531 -1473 
L 2605 4545 
z
" transform="scale(0.015625)"/>
       <path id="CMR17-76" d="M 2502 2163 
C 2560 2304 2662 2560 3034 2560 
L 3034 2726 
C 2912 2726 2752 2726 2630 2726 
C 2496 2726 2285 2726 2157 2732 
L 2157 2566 
C 2317 2553 2406 2477 2406 2311 
C 2406 2253 2406 2240 2368 2151 
L 1664 377 
L 902 2286 
C 864 2369 864 2381 864 2407 
C 864 2560 1075 2560 1171 2560 
L 1171 2732 
C 1018 2726 736 2726 576 2726 
C 403 2726 205 2726 64 2732 
L 64 2560 
C 307 2560 442 2560 518 2362 
L 1446 44 
C 1485 -51 1491 -64 1549 -64 
C 1606 -64 1613 -51 1651 44 
L 2502 2163 
z
" transform="scale(0.015625)"/>
       <path id="CMR17-61" d="M 2304 1653 
C 2304 2072 2304 2294 2035 2543 
C 1798 2752 1523 2816 1306 2816 
C 800 2816 435 2407 435 1971 
C 435 1728 627 1728 666 1728 
C 749 1728 896 1778 896 1954 
C 896 2112 774 2181 666 2181 
C 640 2181 608 2174 589 2168 
C 723 2592 1069 2714 1293 2714 
C 1613 2714 1965 2429 1965 1885 
L 1965 1600 
C 1587 1600 1133 1549 774 1357 
C 371 1133 256 813 256 570 
C 256 77 832 -64 1171 -64 
C 1523 -64 1850 139 1990 511 
C 2003 233 2182 -18 2464 -18 
C 2598 -18 2938 70 2938 567 
L 2938 920 
L 2822 920 
L 2822 562 
C 2822 178 2650 128 2566 128 
C 2304 128 2304 458 2304 738 
L 2304 1653 
z
M 1965 870 
C 1965 317 1568 38 1216 38 
C 896 38 646 275 646 570 
C 646 761 730 1100 1101 1305 
C 1408 1478 1760 1504 1965 1504 
L 1965 870 
z
" transform="scale(0.015625)"/>
       <path id="CMR17-72" d="M 960 1497 
C 960 2112 1222 2688 1702 2688 
C 1747 2688 1792 2682 1837 2662 
C 1837 2662 1696 2617 1696 2452 
C 1696 2298 1818 2234 1914 2234 
C 1990 2234 2131 2279 2131 2458 
C 2131 2663 1926 2790 1709 2790 
C 1222 2790 1011 2317 947 2093 
L 941 2093 
L 941 2790 
L 198 2720 
L 198 2554 
C 576 2554 634 2515 634 2208 
L 634 428 
C 634 184 608 153 198 153 
L 198 -13 
C 352 0 646 0 813 0 
C 998 0 1325 0 1498 -13 
L 1498 153 
C 1037 153 960 153 960 440 
L 960 1497 
z
" transform="scale(0.015625)"/>
      </defs>
      <use xlink:href="#CMR17-45" transform="scale(0.996264)"/>
      <use xlink:href="#CMR17-28" transform="translate(62.586301 0)scale(0.996264)"/>
      <use xlink:href="#CMR17-74" transform="translate(97.867068 0)scale(0.996264)"/>
      <use xlink:href="#CMR17-29" transform="translate(133.147836 0)scale(0.996264)"/>
      <use xlink:href="#CMR17-2f" transform="translate(168.428604 0)scale(0.996264)"/>
      <use xlink:href="#CMR17-76" transform="translate(214.119081 0)scale(0.996264)"/>
      <use xlink:href="#CMR17-61" transform="translate(257.20718 0)scale(0.996264)"/>
      <use xlink:href="#CMR17-72" transform="translate(302.897657 0)scale(0.996264)"/>
     </g>
    </g>
   </g>
   <g id="matplotlib.axis_2">
    <g id="ytick_1">
     <g id="line2d_4">
      <defs>
       <path id="ma92419c516" d="M 0 0 
L -3.5 0 
" style="stroke: #262626; stroke-width: 0.8"/>
      </defs>
      <g>
       <use xlink:href="#ma92419c516" x="38.900176" y="61.56" style="fill: #262626; stroke: #262626; stroke-width: 0.8"/>
      </g>
     </g>
     <g id="text_5">
      <!-- $\mathdefault{0}$ -->
      <g style="fill: #262626" transform="translate(26.420709 65.365173)scale(0.11 -0.11)">
       <use xlink:href="#CMR17-30" transform="scale(0.996264)"/>
      </g>
     </g>
    </g>
    <g id="ytick_2">
     <g id="line2d_5">
      <g>
       <use xlink:href="#ma92419c516" x="38.900176" y="18.072" style="fill: #262626; stroke: #262626; stroke-width: 0.8"/>
      </g>
     </g>
     <g id="text_6">
      <!-- $\mathdefault{20}$ -->
      <g style="fill: #262626" transform="translate(20.941241 21.877173)scale(0.11 -0.11)">
       <defs>
        <path id="CMR17-32" d="M 2669 989 
L 2554 989 
C 2490 536 2438 459 2413 420 
C 2381 369 1920 369 1830 369 
L 602 369 
C 832 619 1280 1072 1824 1597 
C 2214 1967 2669 2402 2669 3035 
C 2669 3790 2067 4224 1395 4224 
C 691 4224 262 3604 262 3030 
C 262 2780 448 2748 525 2748 
C 589 2748 781 2787 781 3010 
C 781 3207 614 3264 525 3264 
C 486 3264 448 3258 422 3245 
C 544 3790 915 4058 1306 4058 
C 1862 4058 2227 3617 2227 3035 
C 2227 2479 1901 2000 1536 1584 
L 262 146 
L 262 0 
L 2515 0 
L 2669 989 
z
" transform="scale(0.015625)"/>
       </defs>
       <use xlink:href="#CMR17-32" transform="scale(0.996264)"/>
       <use xlink:href="#CMR17-30" transform="translate(45.690477 0)scale(0.996264)"/>
      </g>
     </g>
    </g>
    <g id="text_7">
     <!-- $K$ -->
     <g style="fill: #262626" transform="translate(14.810347 39.033737)rotate(-90)scale(0.11 -0.11)">
      <defs>
       <path id="CMMI12-4b" d="M 3200 2571 
C 3194 2590 3168 2641 3168 2661 
C 3168 2667 3174 2673 3283 2756 
L 3904 3242 
C 4762 3905 5043 4128 5485 4167 
C 5530 4167 5594 4167 5594 4282 
C 5594 4320 5574 4352 5523 4352 
C 5453 4352 5376 4352 5306 4352 
L 5062 4352 
C 4864 4352 4653 4352 4461 4352 
C 4416 4352 4339 4352 4339 4237 
C 4339 4173 4384 4167 4422 4167 
C 4493 4160 4576 4135 4576 4046 
C 4576 3919 4384 3765 4333 3727 
L 1824 1784 
L 2355 3887 
C 2413 4103 2426 4167 2880 4167 
C 3002 4167 3059 4167 3059 4288 
C 3059 4352 2995 4352 2963 4352 
C 2848 4352 2714 4352 2592 4352 
L 1837 4352 
C 1722 4352 1581 4352 1466 4352 
C 1414 4352 1344 4352 1344 4231 
C 1344 4167 1402 4167 1498 4167 
C 1888 4167 1888 4116 1888 4046 
C 1888 4034 1888 3995 1862 3899 
L 998 472 
C 941 249 928 185 480 185 
C 358 185 294 185 294 70 
C 294 0 352 0 390 0 
C 512 0 640 0 762 0 
L 1510 0 
C 1632 0 1766 0 1888 0 
C 1939 0 2010 0 2010 121 
C 2010 185 1952 185 1856 185 
C 1466 185 1466 236 1466 300 
C 1466 345 1504 504 1530 606 
L 1779 1593 
L 2752 2351 
C 2938 1943 3277 1128 3539 505 
C 3558 466 3571 428 3571 383 
C 3571 185 3315 185 3258 185 
C 3200 185 3136 185 3136 64 
C 3136 0 3206 0 3226 0 
C 3450 0 3686 0 3910 0 
L 4218 0 
C 4314 0 4422 0 4518 0 
C 4557 0 4627 0 4627 121 
C 4627 185 4570 185 4506 185 
C 4269 185 4186 236 4090 466 
L 3200 2571 
z
" transform="scale(0.015625)"/>
      </defs>
      <use xlink:href="#CMMI12-4b" transform="scale(0.996264)"/>
     </g>
    </g>
   </g>
   <g id="LineCollection_1">
    <path d="M 90.050176 17.006544 
L 90.050176 13.353552 
" clip-path="url(#p8d8a5ff3e5)" style="fill: none; stroke: #000000; stroke-width: 1.5"/>
   </g>
   <g id="line2d_6">
    <defs>
     <path id="m55762a5603" d="M 1 0 
L -1 -0 
" style="stroke: #000000"/>
    </defs>
    <g clip-path="url(#p8d8a5ff3e5)">
     <use xlink:href="#m55762a5603" x="90.050176" y="17.006544" style="stroke: #000000"/>
    </g>
   </g>
   <g id="line2d_7">
    <g clip-path="url(#p8d8a5ff3e5)">
     <use xlink:href="#m55762a5603" x="90.050176" y="13.353552" style="stroke: #000000"/>
    </g>
   </g>
   <g id="LineCollection_2">
    <path d="M 104.000176 27.030528 
L 104.000176 23.421024 
" clip-path="url(#p8d8a5ff3e5)" style="fill: none; stroke: #fdae61; stroke-width: 1.5"/>
   </g>
   <g id="line2d_8">
    <defs>
     <path id="mcb29f971ed" d="M 1 0 
L -1 -0 
" style="stroke: #fdae61"/>
    </defs>
    <g clip-path="url(#p8d8a5ff3e5)">
     <use xlink:href="#mcb29f971ed" x="104.000176" y="27.030528" style="fill: #fdae61; stroke: #fdae61"/>
    </g>
   </g>
   <g id="line2d_9">
    <g clip-path="url(#p8d8a5ff3e5)">
     <use xlink:href="#mcb29f971ed" x="104.000176" y="23.421024" style="fill: #fdae61; stroke: #fdae61"/>
    </g>
   </g>
   <g id="LineCollection_3">
    <path d="M 117.950176 35.054064 
L 117.950176 31.096656 
" clip-path="url(#p8d8a5ff3e5)" style="fill: none; stroke: #808080; stroke-width: 1.5"/>
   </g>
   <g id="line2d_10">
    <defs>
     <path id="m8bb609893f" d="M 1 0 
L -1 -0 
" style="stroke: #808080"/>
    </defs>
    <g clip-path="url(#p8d8a5ff3e5)">
     <use xlink:href="#m8bb609893f" x="117.950176" y="35.054064" style="fill: #808080; stroke: #808080"/>
    </g>
   </g>
   <g id="line2d_11">
    <g clip-path="url(#p8d8a5ff3e5)">
     <use xlink:href="#m8bb609893f" x="117.950176" y="31.096656" style="fill: #808080; stroke: #808080"/>
    </g>
   </g>
   <g id="LineCollection_4">
    <path d="M 136.550176 46.12176 
L 136.550176 39.120192 
" clip-path="url(#p8d8a5ff3e5)" style="fill: none; stroke: #abd9e9; stroke-width: 1.5"/>
   </g>
   <g id="line2d_12">
    <defs>
     <path id="m308cd17a27" d="M 1 0 
L -1 -0 
" style="stroke: #abd9e9"/>
    </defs>
    <g clip-path="url(#p8d8a5ff3e5)">
     <use xlink:href="#m308cd17a27" x="136.550176" y="46.12176" style="fill: #abd9e9; stroke: #abd9e9"/>
    </g>
   </g>
   <g id="line2d_13">
    <g clip-path="url(#p8d8a5ff3e5)">
     <use xlink:href="#m308cd17a27" x="136.550176" y="39.120192" style="fill: #abd9e9; stroke: #abd9e9"/>
    </g>
   </g>
   <g id="LineCollection_5">
    <path d="M 57.500176 26.595648 
L 57.500176 23.855904 
" clip-path="url(#p8d8a5ff3e5)" style="fill: none; stroke: #f46d43; stroke-width: 1.5"/>
   </g>
   <g id="line2d_14">
    <defs>
     <path id="m24f28a74c7" d="M 1 0 
L -1 -0 
" style="stroke: #f46d43"/>
    </defs>
    <g clip-path="url(#p8d8a5ff3e5)">
     <use xlink:href="#m24f28a74c7" x="57.500176" y="26.595648" style="fill: #f46d43; stroke: #f46d43"/>
    </g>
   </g>
   <g id="line2d_15">
    <g clip-path="url(#p8d8a5ff3e5)">
     <use xlink:href="#m24f28a74c7" x="57.500176" y="23.855904" style="fill: #f46d43; stroke: #f46d43"/>
    </g>
   </g>
   <g id="LineCollection_6">
    <path d="M 79.820176 16.919568 
L 79.820176 14.04936 
" clip-path="url(#p8d8a5ff3e5)" style="fill: none; stroke: #000000; stroke-width: 1.5"/>
   </g>
   <g id="line2d_16">
    <g clip-path="url(#p8d8a5ff3e5)">
     <use xlink:href="#m55762a5603" x="79.820176" y="16.919568" style="stroke: #000000"/>
    </g>
   </g>
   <g id="line2d_17">
    <g clip-path="url(#p8d8a5ff3e5)">
     <use xlink:href="#m55762a5603" x="79.820176" y="14.04936" style="stroke: #000000"/>
    </g>
   </g>
   <g id="LineCollection_7">
    <path d="M 55.175176 26.11728 
L 55.175176 23.681952 
" clip-path="url(#p8d8a5ff3e5)" style="fill: none; stroke: #f46d43; stroke-width: 1.5"/>
   </g>
   <g id="line2d_18">
    <g clip-path="url(#p8d8a5ff3e5)">
     <use xlink:href="#m24f28a74c7" x="55.175176" y="26.11728" style="fill: #f46d43; stroke: #f46d43"/>
    </g>
   </g>
   <g id="line2d_19">
    <g clip-path="url(#p8d8a5ff3e5)">
     <use xlink:href="#m24f28a74c7" x="55.175176" y="23.681952" style="fill: #f46d43; stroke: #f46d43"/>
    </g>
   </g>
   <g id="line2d_20">
    <path d="M 90.050176 15.180048 
" clip-path="url(#p8d8a5ff3e5)" style="fill: none; stroke: #000000; stroke-width: 1.5; stroke-linecap: round"/>
    <defs>
     <path id="ma018dd0f58" d="M 0 2 
C 0.530406 2 1.03916 1.789267 1.414214 1.414214 
C 1.789267 1.03916 2 0.530406 2 0 
C 2 -0.530406 1.789267 -1.03916 1.414214 -1.414214 
C 1.03916 -1.789267 0.530406 -2 0 -2 
C -0.530406 -2 -1.03916 -1.789267 -1.414214 -1.414214 
C -1.789267 -1.03916 -2 -0.530406 -2 0 
C -2 0.530406 -1.789267 1.03916 -1.414214 1.414214 
C -1.03916 1.789267 -0.530406 2 0 2 
z
" style="stroke: #000000"/>
    </defs>
    <g clip-path="url(#p8d8a5ff3e5)">
     <use xlink:href="#ma018dd0f58" x="90.050176" y="15.180048" style="stroke: #000000"/>
    </g>
   </g>
   <g id="line2d_21">
    <path d="M 104.000176 25.225776 
" clip-path="url(#p8d8a5ff3e5)" style="fill: none; stroke: #fdae61; stroke-width: 1.5; stroke-linecap: round"/>
    <defs>
     <path id="m2748dbbc3b" d="M 0 2 
C 0.530406 2 1.03916 1.789267 1.414214 1.414214 
C 1.789267 1.03916 2 0.530406 2 0 
C 2 -0.530406 1.789267 -1.03916 1.414214 -1.414214 
C 1.03916 -1.789267 0.530406 -2 0 -2 
C -0.530406 -2 -1.03916 -1.789267 -1.414214 -1.414214 
C -1.789267 -1.03916 -2 -0.530406 -2 0 
C -2 0.530406 -1.789267 1.03916 -1.414214 1.414214 
C -1.03916 1.789267 -0.530406 2 0 2 
z
" style="stroke: #fdae61"/>
    </defs>
    <g clip-path="url(#p8d8a5ff3e5)">
     <use xlink:href="#m2748dbbc3b" x="104.000176" y="25.225776" style="fill: #fdae61; stroke: #fdae61"/>
    </g>
   </g>
   <g id="line2d_22">
    <path d="M 117.950176 33.07536 
" clip-path="url(#p8d8a5ff3e5)" style="fill: none; stroke: #808080; stroke-width: 1.5; stroke-linecap: round"/>
    <defs>
     <path id="mda62afd7d8" d="M 0 2 
C 0.530406 2 1.03916 1.789267 1.414214 1.414214 
C 1.789267 1.03916 2 0.530406 2 0 
C 2 -0.530406 1.789267 -1.03916 1.414214 -1.414214 
C 1.03916 -1.789267 0.530406 -2 0 -2 
C -0.530406 -2 -1.03916 -1.789267 -1.414214 -1.414214 
C -1.789267 -1.03916 -2 -0.530406 -2 0 
C -2 0.530406 -1.789267 1.03916 -1.414214 1.414214 
C -1.03916 1.789267 -0.530406 2 0 2 
z
" style="stroke: #808080"/>
    </defs>
    <g clip-path="url(#p8d8a5ff3e5)">
     <use xlink:href="#mda62afd7d8" x="117.950176" y="33.07536" style="fill: #808080; stroke: #808080"/>
    </g>
   </g>
   <g id="line2d_23">
    <path d="M 136.550176 42.620976 
" clip-path="url(#p8d8a5ff3e5)" style="fill: none; stroke: #abd9e9; stroke-width: 1.5; stroke-linecap: round"/>
    <defs>
     <path id="mc739504ede" d="M 0 2 
C 0.530406 2 1.03916 1.789267 1.414214 1.414214 
C 1.789267 1.03916 2 0.530406 2 0 
C 2 -0.530406 1.789267 -1.03916 1.414214 -1.414214 
C 1.03916 -1.789267 0.530406 -2 0 -2 
C -0.530406 -2 -1.03916 -1.789267 -1.414214 -1.414214 
C -1.789267 -1.03916 -2 -0.530406 -2 0 
C -2 0.530406 -1.789267 1.03916 -1.414214 1.414214 
C -1.03916 1.789267 -0.530406 2 0 2 
z
" style="stroke: #abd9e9"/>
    </defs>
    <g clip-path="url(#p8d8a5ff3e5)">
     <use xlink:href="#mc739504ede" x="136.550176" y="42.620976" style="fill: #abd9e9; stroke: #abd9e9"/>
    </g>
   </g>
   <g id="line2d_24">
    <path d="M 57.500176 25.225776 
" clip-path="url(#p8d8a5ff3e5)" style="fill: none; stroke: #f46d43; stroke-width: 1.5; stroke-linecap: round"/>
    <defs>
     <path id="m8bcde9c856" d="M 0 2 
C 0.530406 2 1.03916 1.789267 1.414214 1.414214 
C 1.789267 1.03916 2 0.530406 2 0 
C 2 -0.530406 1.789267 -1.03916 1.414214 -1.414214 
C 1.03916 -1.789267 0.530406 -2 0 -2 
C -0.530406 -2 -1.03916 -1.789267 -1.414214 -1.414214 
C -1.789267 -1.03916 -2 -0.530406 -2 0 
C -2 0.530406 -1.789267 1.03916 -1.414214 1.414214 
C -1.03916 1.789267 -0.530406 2 0 2 
z
" style="stroke: #f46d43"/>
    </defs>
    <g clip-path="url(#p8d8a5ff3e5)">
     <use xlink:href="#m8bcde9c856" x="57.500176" y="25.225776" style="fill: #f46d43; stroke: #f46d43"/>
    </g>
   </g>
   <g id="line2d_25">
    <path d="M 79.820176 15.484464 
" clip-path="url(#p8d8a5ff3e5)" style="fill: none; stroke: #000000; stroke-width: 1.5; stroke-linecap: round"/>
    <g clip-path="url(#p8d8a5ff3e5)">
     <use xlink:href="#ma018dd0f58" x="79.820176" y="15.484464" style="stroke: #000000"/>
    </g>
   </g>
   <g id="line2d_26">
    <path d="M 55.175176 24.899616 
" clip-path="url(#p8d8a5ff3e5)" style="fill: none; stroke: #f46d43; stroke-width: 1.5; stroke-linecap: round"/>
    <g clip-path="url(#p8d8a5ff3e5)">
     <use xlink:href="#m8bcde9c856" x="55.175176" y="24.899616" style="fill: #f46d43; stroke: #f46d43"/>
    </g>
   </g>
   <g id="patch_3">
    <path d="M 38.900176 61.56 
L 38.900176 7.2 
" style="fill: none; stroke: #262626; stroke-width: 0.8; stroke-linejoin: miter; stroke-linecap: square"/>
   </g>
   <g id="patch_4">
    <path d="M 38.900176 61.56 
L 150.500176 61.56 
" style="fill: none; stroke: #262626; stroke-width: 0.8; stroke-linejoin: miter; stroke-linecap: square"/>
   </g>
  </g>
 </g>
 <defs>
  <clipPath id="p8d8a5ff3e5">
   <rect x="38.900176" y="7.2" width="111.6" height="54.36"/>
  </clipPath>
 </defs>
</svg>
