<?xml version="1.0" encoding="utf-8" standalone="no"?>
<!DOCTYPE svg PUBLIC "-//W3C//DTD SVG 1.1//EN"
  "http://www.w3.org/Graphics/SVG/1.1/DTD/svg11.dtd">
<svg xmlns:xlink="http://www.w3.org/1999/xlink" width="313.878382pt" height="278.668281pt" viewBox="0 0 313.878382 278.668281" xmlns="http://www.w3.org/2000/svg" version="1.1">
 <metadata>
  <rdf:RDF xmlns:dc="http://purl.org/dc/elements/1.1/" xmlns:cc="http://creativecommons.org/ns#" xmlns:rdf="http://www.w3.org/1999/02/22-rdf-syntax-ns#">
   <cc:Work>
    <dc:type rdf:resource="http://purl.org/dc/dcmitype/StillImage"/>
    <dc:date>2022-07-31T21:32:29.762336</dc:date>
    <dc:format>image/svg+xml</dc:format>
    <dc:creator>
     <cc:Agent>
      <dc:title>Matplotlib v3.5.1, https://matplotlib.org/</dc:title>
     </cc:Agent>
    </dc:creator>
   </cc:Work>
  </rdf:RDF>
 </metadata>
 <defs>
  <style type="text/css">*{stroke-linejoin: round; stroke-linecap: butt}</style>
 </defs>
 <g id="figure_1">
  <g id="patch_1">
   <path d="M 0 278.668281 
L 313.878382 278.668281 
L 313.878382 0 
L 0 0 
L 0 278.668281 
z
" style="fill: none"/>
  </g>
  <g id="axes_1">
   <g id="patch_2">
    <path d="M 33.757656 53.937031 
L 303.151966 53.937031 
L 303.151966 21.427656 
L 33.757656 21.427656 
z
" style="fill: #ffffff"/>
   </g>
   <g id="patch_3">
    <path d="M 66.507779 53.937031 
L 66.507779 21.427656 
L 86.435103 21.427656 
L 86.435103 53.937031 
z
" clip-path="url(#p415333a609)" style="fill: #ff0000; opacity: 0.1"/>
   </g>
   <g id="patch_4">
    <path d="M 46.002852 53.937031 
L 46.002852 21.427656 
L 66.507779 21.427656 
L 66.507779 53.937031 
z
" clip-path="url(#p415333a609)" style="fill: #0000ff; opacity: 0.1"/>
   </g>
   <g id="patch_5">
    <path d="M 121.668921 53.937031 
L 121.668921 21.427656 
L 140.152236 21.427656 
L 140.152236 53.937031 
z
" clip-path="url(#p415333a609)" style="fill: #ff0000; opacity: 0.1"/>
   </g>
   <g id="patch_6">
    <path d="M 106.94003 53.937031 
L 106.94003 21.427656 
L 121.668921 21.427656 
L 121.668921 53.937031 
z
" clip-path="url(#p415333a609)" style="fill: #0000ff; opacity: 0.1"/>
   </g>
   <g id="patch_7">
    <path d="M 172.498036 53.937031 
L 172.498036 21.427656 
L 188.382135 21.427656 
L 188.382135 53.937031 
z
" clip-path="url(#p415333a609)" style="fill: #ff0000; opacity: 0.1"/>
   </g>
   <g id="patch_8">
    <path d="M 160.657163 53.937031 
L 160.657163 21.427656 
L 172.498036 21.427656 
L 172.498036 53.937031 
z
" clip-path="url(#p415333a609)" style="fill: #0000ff; opacity: 0.1"/>
   </g>
   <g id="patch_9">
    <path d="M 226.503971 53.937031 
L 226.503971 21.427656 
L 242.099267 21.427656 
L 242.099267 53.937031 
z
" clip-path="url(#p415333a609)" style="fill: #ff0000; opacity: 0.1"/>
   </g>
   <g id="patch_10">
    <path d="M 208.887062 53.937031 
L 208.887062 21.427656 
L 226.503971 21.427656 
L 226.503971 53.937031 
z
" clip-path="url(#p415333a609)" style="fill: #0000ff; opacity: 0.1"/>
   </g>
   <g id="patch_11">
    <path d="M 274.445068 53.937031 
L 274.445068 21.427656 
L 290.329166 21.427656 
L 290.329166 53.937031 
z
" clip-path="url(#p415333a609)" style="fill: #ff0000; opacity: 0.1"/>
   </g>
   <g id="patch_12">
    <path d="M 262.604195 53.937031 
L 262.604195 21.427656 
L 274.445068 21.427656 
L 274.445068 53.937031 
z
" clip-path="url(#p415333a609)" style="fill: #0000ff; opacity: 0.1"/>
   </g>
   <g id="matplotlib.axis_1">
    <g id="xtick_1">
     <g id="line2d_1">
      <defs>
       <path id="m54a6508144" d="M 0 0 
L 0 3.5 
" style="stroke: #000000; stroke-width: 0.8"/>
      </defs>
      <g>
       <use xlink:href="#m54a6508144" x="61.886951" y="53.937031" style="stroke: #000000; stroke-width: 0.8"/>
      </g>
     </g>
    </g>
    <g id="xtick_2">
     <g id="line2d_2">
      <g>
       <use xlink:href="#m54a6508144" x="119.647309" y="53.937031" style="stroke: #000000; stroke-width: 0.8"/>
      </g>
     </g>
    </g>
    <g id="xtick_3">
     <g id="line2d_3">
      <g>
       <use xlink:href="#m54a6508144" x="177.407667" y="53.937031" style="stroke: #000000; stroke-width: 0.8"/>
      </g>
     </g>
    </g>
    <g id="xtick_4">
     <g id="line2d_4">
      <g>
       <use xlink:href="#m54a6508144" x="235.168025" y="53.937031" style="stroke: #000000; stroke-width: 0.8"/>
      </g>
     </g>
    </g>
    <g id="xtick_5">
     <g id="line2d_5">
      <g>
       <use xlink:href="#m54a6508144" x="292.928382" y="53.937031" style="stroke: #000000; stroke-width: 0.8"/>
      </g>
     </g>
    </g>
   </g>
   <g id="matplotlib.axis_2">
    <g id="ytick_1">
     <g id="line2d_6">
      <defs>
       <path id="m333d9c004d" d="M 0 0 
L -3.5 0 
" style="stroke: #000000; stroke-width: 0.8"/>
      </defs>
      <g>
       <use xlink:href="#m333d9c004d" x="33.757656" y="42.173424" style="stroke: #000000; stroke-width: 0.8"/>
      </g>
     </g>
     <g id="text_1">
      <!-- 0.90 -->
      <g transform="translate(7.2 45.990768)scale(0.11 -0.11)">
       <defs>
        <path id="CMUSerif-Roman-30" d="M 250 2048 
Q 250 2989 486 3501 
Q 819 4262 1600 4262 
Q 1766 4262 1939 4217 
Q 2112 4173 2333 4000 
Q 2554 3827 2688 3546 
Q 2944 3002 2944 2048 
Q 2944 1114 2707 602 
Q 2362 -141 1594 -141 
Q 1306 -141 1014 6 
Q 723 154 538 506 
Q 250 1037 250 2048 
z
M 781 2125 
Q 781 1158 851 774 
Q 928 358 1142 179 
Q 1357 0 1594 0 
Q 1850 0 2064 192 
Q 2278 384 2342 800 
Q 2413 1210 2413 2125 
Q 2413 3014 2349 3373 
Q 2266 3789 2042 3955 
Q 1818 4122 1594 4122 
Q 1510 4122 1420 4096 
Q 1331 4070 1203 4000 
Q 1075 3930 976 3750 
Q 877 3571 832 3302 
Q 781 2957 781 2125 
z
" transform="scale(0.015625)"/>
        <path id="CMUSerif-Roman-2e" d="M 640 102 
Q 544 205 544 339 
Q 544 474 640 573 
Q 736 672 883 672 
Q 1024 672 1120 579 
Q 1216 486 1216 339 
Q 1216 192 1113 96 
Q 1011 0 883 0 
Q 736 0 640 102 
z
" transform="scale(0.015625)"/>
        <path id="CMUSerif-Roman-39" d="M 269 2822 
Q 269 3162 368 3395 
Q 467 3629 678 3859 
Q 1062 4262 1619 4262 
Q 1856 4262 2067 4163 
Q 2278 4064 2480 3837 
Q 2682 3610 2803 3165 
Q 2925 2720 2925 2106 
Q 2925 1114 2445 486 
Q 1965 -141 1318 -141 
Q 909 -141 669 44 
Q 429 230 429 550 
Q 429 717 521 787 
Q 614 858 723 858 
Q 838 858 928 781 
Q 1018 704 1018 563 
Q 1018 448 944 358 
Q 870 269 685 269 
Q 870 38 1312 38 
Q 1472 38 1632 112 
Q 1792 186 1965 365 
Q 2138 544 2243 921 
Q 2349 1299 2349 1830 
L 2349 2035 
Q 2093 1395 1549 1395 
Q 1011 1395 640 1808 
Q 269 2221 269 2822 
z
M 845 2816 
Q 845 2182 960 1946 
Q 1158 1542 1555 1542 
Q 1946 1542 2141 1891 
Q 2336 2240 2336 2694 
Q 2336 3322 2234 3597 
Q 2042 4102 1619 4102 
Q 1197 4102 979 3699 
Q 845 3462 845 2816 
z
" transform="scale(0.015625)"/>
       </defs>
       <use xlink:href="#CMUSerif-Roman-30"/>
       <use xlink:href="#CMUSerif-Roman-2e" x="49.999985"/>
       <use xlink:href="#CMUSerif-Roman-39" x="77.799973"/>
       <use xlink:href="#CMUSerif-Roman-30" x="127.799957"/>
      </g>
     </g>
    </g>
    <g id="ytick_2">
     <g id="line2d_7">
      <g>
       <use xlink:href="#m333d9c004d" x="33.757656" y="24.251411" style="stroke: #000000; stroke-width: 0.8"/>
      </g>
     </g>
     <g id="text_2">
      <!-- 0.95 -->
      <g transform="translate(7.2 28.068755)scale(0.11 -0.11)">
       <defs>
        <path id="CMUSerif-Roman-35" d="M 320 1030 
Q 320 1222 422 1296 
Q 525 1370 634 1370 
Q 781 1370 867 1277 
Q 954 1184 954 1056 
Q 954 928 867 835 
Q 781 742 634 742 
Q 563 742 525 755 
Q 608 461 867 249 
Q 1126 38 1466 38 
Q 1894 38 2150 454 
Q 2304 723 2304 1331 
Q 2304 1869 2189 2138 
Q 2010 2547 1645 2547 
Q 1126 2547 819 2099 
Q 781 2042 736 2042 
Q 672 2042 659 2077 
Q 646 2112 646 2208 
L 646 4102 
Q 646 4256 710 4256 
Q 736 4256 787 4237 
Q 1190 4058 1638 4058 
Q 2099 4058 2509 4243 
Q 2541 4262 2560 4262 
Q 2624 4262 2624 4192 
Q 2624 4166 2573 4092 
Q 2522 4019 2413 3923 
Q 2304 3827 2163 3737 
Q 2022 3648 1817 3587 
Q 1613 3526 1389 3526 
Q 1120 3526 845 3610 
L 845 2362 
Q 1178 2688 1658 2688 
Q 2170 2688 2522 2275 
Q 2874 1862 2874 1286 
Q 2874 685 2458 272 
Q 2042 -141 1478 -141 
Q 966 -141 643 224 
Q 320 589 320 1030 
z
" transform="scale(0.015625)"/>
       </defs>
       <use xlink:href="#CMUSerif-Roman-30"/>
       <use xlink:href="#CMUSerif-Roman-2e" x="49.999985"/>
       <use xlink:href="#CMUSerif-Roman-39" x="77.799973"/>
       <use xlink:href="#CMUSerif-Roman-35" x="127.799957"/>
      </g>
     </g>
    </g>
   </g>
   <g id="line2d_8">
    <path d="M 46.291654 49.801012 
L 47.158059 45.30453 
L 48.024465 41.850252 
L 49.179672 38.403974 
L 50.334879 35.713518 
L 51.778888 33.242728 
L 53.511699 30.869788 
L 55.244509 28.987818 
L 56.399717 28.013694 
L 58.998933 26.235055 
L 60.442942 25.458772 
L 63.042158 24.355529 
L 66.507779 23.30621 
L 66.796581 49.57263 
L 67.662986 45.156083 
L 68.529392 41.707354 
L 69.395797 39.020239 
L 70.551004 36.283774 
L 71.41741 34.553104 
L 72.572617 32.640664 
L 74.305428 30.3814 
L 76.32704 28.361384 
L 78.926256 26.401018 
L 80.370265 25.587944 
L 82.680679 24.540226 
L 84.991094 23.791826 
L 86.435103 23.384321 
L 86.723905 49.644733 
L 87.59031 45.118721 
L 88.456715 41.682434 
L 89.611922 38.307615 
L 90.478328 36.297141 
L 91.633535 34.070621 
L 92.788742 32.314421 
L 93.943949 30.813153 
L 95.387958 29.281678 
L 97.409571 27.607181 
L 99.142381 26.401556 
L 101.452796 25.099094 
L 105.496021 23.630411 
L 106.94003 23.248394 
L 107.228832 49.519261 
L 108.095237 45.076398 
L 108.961642 41.661764 
L 110.116849 38.15687 
L 111.272057 35.518379 
L 112.427264 33.396821 
L 113.582471 31.660576 
L 114.737678 30.26363 
L 116.181687 28.765107 
L 117.625696 27.509561 
L 119.069705 26.520254 
L 121.668921 25.186062 
L 121.957723 51.307878 
L 122.824128 46.919356 
L 123.690534 43.468243 
L 124.845741 39.946613 
L 126.000948 37.193269 
L 127.444957 34.434498 
L 129.177768 31.762087 
L 130.621777 30.018477 
L 132.065786 28.56578 
L 133.798596 27.170992 
L 135.531407 25.986752 
L 136.975416 25.183792 
L 138.708227 24.420624 
L 140.152236 23.858505 
L 140.441037 50.082441 
L 141.307443 45.520739 
L 142.173848 42.022448 
L 143.040254 39.281623 
L 144.195461 36.427044 
L 145.350668 34.20656 
L 146.794677 31.92797 
L 147.661082 30.763058 
L 149.105091 29.183019 
L 150.260298 28.120037 
L 153.148316 26.003146 
L 154.881127 25.044697 
L 156.902739 24.22402 
L 160.368361 23.21096 
L 160.657163 23.142572 
L 160.945965 49.421579 
L 161.81237 44.937813 
L 162.678775 41.526028 
L 163.833982 38.031224 
L 164.98919 35.325068 
L 166.144397 33.204111 
L 168.166009 30.350928 
L 169.610018 28.714617 
L 170.765225 27.679345 
L 172.498036 26.433138 
L 172.786838 52.459025 
L 173.653243 48.111771 
L 174.519649 44.577914 
L 175.386054 41.700962 
L 176.541261 38.625442 
L 177.98527 35.507417 
L 179.718081 32.595276 
L 180.873288 30.993796 
L 182.606099 29.077139 
L 184.627711 27.306137 
L 186.649324 25.866418 
L 188.382135 24.933501 
L 188.670936 51.074744 
L 189.537342 46.472371 
L 190.403747 42.951416 
L 191.558954 39.325671 
L 192.714161 36.495853 
L 193.869369 34.200523 
L 195.313378 31.908763 
L 196.757386 30.011663 
L 198.778999 27.945428 
L 200.51181 26.561413 
L 202.533422 25.259803 
L 205.132638 24.072605 
L 207.731854 23.191773 
L 208.887062 22.905355 
L 209.175863 49.20261 
L 210.042269 44.712391 
L 210.908674 41.27933 
L 211.77508 38.510003 
L 212.930287 35.586559 
L 214.085494 33.343467 
L 215.529503 31.088696 
L 216.973512 29.28879 
L 218.706322 27.645087 
L 219.86153 26.748469 
L 221.883142 25.430249 
L 223.904755 24.425713 
L 226.503971 23.485767 
L 226.792773 49.738375 
L 227.659178 45.0492 
L 228.525583 41.462936 
L 229.391989 38.691747 
L 230.547196 35.767062 
L 231.991205 33.044944 
L 233.435214 30.871015 
L 234.590421 29.48345 
L 236.612033 27.50883 
L 238.344844 26.25802 
L 240.366457 25.121721 
L 242.099267 24.308136 
L 242.388069 50.497484 
L 243.254475 45.912182 
L 244.12088 42.354301 
L 244.987285 39.567794 
L 246.142493 36.638782 
L 247.2977 34.285254 
L 248.452907 32.438612 
L 249.896916 30.510995 
L 251.340925 28.907895 
L 252.784934 27.615163 
L 253.940141 26.748496 
L 255.672952 25.64094 
L 257.116961 24.848225 
L 260.004978 23.729287 
L 262.604195 23.000649 
L 262.892996 49.290573 
L 263.759402 44.829182 
L 264.625807 41.43295 
L 265.492212 38.71451 
L 266.64742 35.816917 
L 267.802627 33.558155 
L 269.246636 31.323869 
L 270.401843 29.920595 
L 271.55705 28.722827 
L 273.289861 27.223689 
L 274.445068 26.433471 
L 274.73387 52.459332 
L 275.600275 48.014545 
L 276.755482 43.508298 
L 277.910689 40.043911 
L 279.065897 37.266514 
L 279.932302 35.519524 
L 281.665113 32.628992 
L 283.109122 30.697527 
L 285.419536 28.182108 
L 286.574743 27.171468 
L 288.018752 26.129888 
L 290.617968 24.653146 
L 290.617968 24.653146 
" clip-path="url(#p415333a609)" style="fill: none; stroke: #808080; stroke-width: 1.5; stroke-linecap: square"/>
   </g>
   <g id="LineCollection_1">
    <path d="M 46.002852 52.459332 
L 46.002852 22.905355 
" clip-path="url(#p415333a609)" style="fill: none; stroke: #808080; stroke-opacity: 0.5; stroke-width: 1.5"/>
    <path d="M 66.507779 52.459332 
L 66.507779 22.905355 
" clip-path="url(#p415333a609)" style="fill: none; stroke: #808080; stroke-opacity: 0.5; stroke-width: 1.5"/>
    <path d="M 86.435103 52.459332 
L 86.435103 22.905355 
" clip-path="url(#p415333a609)" style="fill: none; stroke: #808080; stroke-opacity: 0.5; stroke-width: 1.5"/>
    <path d="M 106.94003 52.459332 
L 106.94003 22.905355 
" clip-path="url(#p415333a609)" style="fill: none; stroke: #808080; stroke-opacity: 0.5; stroke-width: 1.5"/>
    <path d="M 121.668921 52.459332 
L 121.668921 22.905355 
" clip-path="url(#p415333a609)" style="fill: none; stroke: #808080; stroke-opacity: 0.5; stroke-width: 1.5"/>
    <path d="M 140.152236 52.459332 
L 140.152236 22.905355 
" clip-path="url(#p415333a609)" style="fill: none; stroke: #808080; stroke-opacity: 0.5; stroke-width: 1.5"/>
    <path d="M 160.657163 52.459332 
L 160.657163 22.905355 
" clip-path="url(#p415333a609)" style="fill: none; stroke: #808080; stroke-opacity: 0.5; stroke-width: 1.5"/>
    <path d="M 172.498036 52.459332 
L 172.498036 22.905355 
" clip-path="url(#p415333a609)" style="fill: none; stroke: #808080; stroke-opacity: 0.5; stroke-width: 1.5"/>
    <path d="M 188.382135 52.459332 
L 188.382135 22.905355 
" clip-path="url(#p415333a609)" style="fill: none; stroke: #808080; stroke-opacity: 0.5; stroke-width: 1.5"/>
    <path d="M 208.887062 52.459332 
L 208.887062 22.905355 
" clip-path="url(#p415333a609)" style="fill: none; stroke: #808080; stroke-opacity: 0.5; stroke-width: 1.5"/>
    <path d="M 226.503971 52.459332 
L 226.503971 22.905355 
" clip-path="url(#p415333a609)" style="fill: none; stroke: #808080; stroke-opacity: 0.5; stroke-width: 1.5"/>
    <path d="M 242.099267 52.459332 
L 242.099267 22.905355 
" clip-path="url(#p415333a609)" style="fill: none; stroke: #808080; stroke-opacity: 0.5; stroke-width: 1.5"/>
    <path d="M 262.604195 52.459332 
L 262.604195 22.905355 
" clip-path="url(#p415333a609)" style="fill: none; stroke: #808080; stroke-opacity: 0.5; stroke-width: 1.5"/>
    <path d="M 274.445068 52.459332 
L 274.445068 22.905355 
" clip-path="url(#p415333a609)" style="fill: none; stroke: #808080; stroke-opacity: 0.5; stroke-width: 1.5"/>
    <path d="M 290.329166 52.459332 
L 290.329166 22.905355 
" clip-path="url(#p415333a609)" style="fill: none; stroke: #808080; stroke-opacity: 0.5; stroke-width: 1.5"/>
   </g>
   <g id="patch_13">
    <path d="M 33.757656 53.937031 
L 33.757656 21.427656 
" style="fill: none; stroke: #000000; stroke-width: 0.8; stroke-linejoin: miter; stroke-linecap: square"/>
   </g>
   <g id="patch_14">
    <path d="M 33.757656 53.937031 
L 303.151966 53.937031 
" style="fill: none; stroke: #000000; stroke-width: 0.8; stroke-linejoin: miter; stroke-linecap: square"/>
   </g>
   <g id="text_3">
    <!-- du/dt -->
    <g transform="translate(154.413483 15.427656)scale(0.11 -0.11)">
     <defs>
      <path id="CMUSerif-Roman-64" d="M 218 1376 
Q 218 1984 643 2406 
Q 1069 2829 1645 2829 
Q 2131 2829 2451 2432 
L 2451 3814 
Q 2451 4051 2368 4112 
Q 2285 4173 1952 4173 
L 1952 4371 
L 2874 4442 
L 2874 557 
Q 2874 320 2957 259 
Q 3040 198 3373 198 
L 3373 0 
L 2432 -70 
L 2432 352 
Q 2099 -70 1574 -70 
Q 1024 -70 621 352 
Q 218 774 218 1376 
z
M 749 1370 
Q 749 774 934 480 
Q 1190 70 1606 70 
Q 2080 70 2362 518 
Q 2432 627 2432 755 
L 2432 2067 
Q 2432 2195 2362 2304 
Q 2099 2688 1670 2688 
Q 1222 2688 947 2278 
Q 749 1971 749 1370 
z
" transform="scale(0.015625)"/>
      <path id="CMUSerif-Roman-75" d="M 205 2560 
L 205 2758 
L 1146 2829 
L 1146 704 
Q 1146 550 1158 460 
Q 1171 371 1222 268 
Q 1274 166 1395 118 
Q 1517 70 1709 70 
Q 2054 70 2268 355 
Q 2483 640 2483 1062 
L 2483 2202 
Q 2483 2438 2400 2499 
Q 2317 2560 1984 2560 
L 1984 2758 
L 2925 2829 
L 2925 557 
Q 2925 320 3008 259 
Q 3091 198 3424 198 
L 3424 0 
L 2502 -70 
L 2502 506 
Q 2234 -70 1677 -70 
Q 1395 -70 1203 0 
Q 1011 70 915 160 
Q 819 250 768 422 
Q 717 595 710 700 
Q 704 806 704 1011 
L 704 1971 
Q 704 2406 640 2483 
Q 576 2560 205 2560 
z
" transform="scale(0.015625)"/>
      <path id="CMUSerif-Roman-2f" d="M 365 -1510 
Q 365 -1478 390 -1408 
L 2650 4627 
Q 2650 4634 2666 4669 
Q 2682 4704 2691 4726 
Q 2701 4749 2720 4768 
Q 2739 4787 2765 4787 
Q 2829 4787 2829 4710 
Q 2829 4704 2810 4627 
L 544 -1414 
Q 506 -1523 483 -1555 
Q 461 -1587 422 -1587 
Q 365 -1587 365 -1510 
z
" transform="scale(0.015625)"/>
      <path id="CMUSerif-Roman-74" d="M 122 2560 
L 122 2701 
Q 416 2714 611 2922 
Q 806 3130 873 3386 
Q 941 3642 947 3936 
L 1107 3936 
L 1107 2758 
L 2022 2758 
L 2022 2560 
L 1107 2560 
L 1107 781 
Q 1107 90 1536 90 
Q 1722 90 1843 278 
Q 1965 467 1965 806 
L 1965 1158 
L 2125 1158 
L 2125 794 
Q 2125 448 1965 189 
Q 1805 -70 1491 -70 
Q 1376 -70 1261 -41 
Q 1146 -13 998 64 
Q 851 141 758 329 
Q 666 518 666 794 
L 666 2560 
L 122 2560 
z
" transform="scale(0.015625)"/>
     </defs>
     <use xlink:href="#CMUSerif-Roman-64"/>
     <use xlink:href="#CMUSerif-Roman-75" x="55.499985"/>
     <use xlink:href="#CMUSerif-Roman-2f" x="110.999969"/>
     <use xlink:href="#CMUSerif-Roman-64" x="160.999954"/>
     <use xlink:href="#CMUSerif-Roman-74" x="216.499939"/>
    </g>
   </g>
  </g>
  <g id="axes_2">
   <g id="patch_15">
    <path d="M 33.757656 115.857656 
L 303.151966 115.857656 
L 303.151966 83.348281 
L 33.757656 83.348281 
z
" style="fill: #ffffff"/>
   </g>
   <g id="patch_16">
    <path d="M 66.507779 115.857656 
L 66.507779 83.348281 
L 86.435103 83.348281 
L 86.435103 115.857656 
z
" clip-path="url(#pf7c8ca99ad)" style="fill: #ff0000; opacity: 0.1"/>
   </g>
   <g id="patch_17">
    <path d="M 46.002852 115.857656 
L 46.002852 83.348281 
L 66.507779 83.348281 
L 66.507779 115.857656 
z
" clip-path="url(#pf7c8ca99ad)" style="fill: #0000ff; opacity: 0.1"/>
   </g>
   <g id="patch_18">
    <path d="M 121.668921 115.857656 
L 121.668921 83.348281 
L 140.152236 83.348281 
L 140.152236 115.857656 
z
" clip-path="url(#pf7c8ca99ad)" style="fill: #ff0000; opacity: 0.1"/>
   </g>
   <g id="patch_19">
    <path d="M 106.94003 115.857656 
L 106.94003 83.348281 
L 121.668921 83.348281 
L 121.668921 115.857656 
z
" clip-path="url(#pf7c8ca99ad)" style="fill: #0000ff; opacity: 0.1"/>
   </g>
   <g id="patch_20">
    <path d="M 172.498036 115.857656 
L 172.498036 83.348281 
L 188.382135 83.348281 
L 188.382135 115.857656 
z
" clip-path="url(#pf7c8ca99ad)" style="fill: #ff0000; opacity: 0.1"/>
   </g>
   <g id="patch_21">
    <path d="M 160.657163 115.857656 
L 160.657163 83.348281 
L 172.498036 83.348281 
L 172.498036 115.857656 
z
" clip-path="url(#pf7c8ca99ad)" style="fill: #0000ff; opacity: 0.1"/>
   </g>
   <g id="patch_22">
    <path d="M 226.503971 115.857656 
L 226.503971 83.348281 
L 242.099267 83.348281 
L 242.099267 115.857656 
z
" clip-path="url(#pf7c8ca99ad)" style="fill: #ff0000; opacity: 0.1"/>
   </g>
   <g id="patch_23">
    <path d="M 208.887062 115.857656 
L 208.887062 83.348281 
L 226.503971 83.348281 
L 226.503971 115.857656 
z
" clip-path="url(#pf7c8ca99ad)" style="fill: #0000ff; opacity: 0.1"/>
   </g>
   <g id="patch_24">
    <path d="M 274.445068 115.857656 
L 274.445068 83.348281 
L 290.329166 83.348281 
L 290.329166 115.857656 
z
" clip-path="url(#pf7c8ca99ad)" style="fill: #ff0000; opacity: 0.1"/>
   </g>
   <g id="patch_25">
    <path d="M 262.604195 115.857656 
L 262.604195 83.348281 
L 274.445068 83.348281 
L 274.445068 115.857656 
z
" clip-path="url(#pf7c8ca99ad)" style="fill: #0000ff; opacity: 0.1"/>
   </g>
   <g id="matplotlib.axis_3">
    <g id="xtick_6">
     <g id="line2d_9">
      <g>
       <use xlink:href="#m54a6508144" x="61.886951" y="115.857656" style="stroke: #000000; stroke-width: 0.8"/>
      </g>
     </g>
    </g>
    <g id="xtick_7">
     <g id="line2d_10">
      <g>
       <use xlink:href="#m54a6508144" x="119.647309" y="115.857656" style="stroke: #000000; stroke-width: 0.8"/>
      </g>
     </g>
    </g>
    <g id="xtick_8">
     <g id="line2d_11">
      <g>
       <use xlink:href="#m54a6508144" x="177.407667" y="115.857656" style="stroke: #000000; stroke-width: 0.8"/>
      </g>
     </g>
    </g>
    <g id="xtick_9">
     <g id="line2d_12">
      <g>
       <use xlink:href="#m54a6508144" x="235.168025" y="115.857656" style="stroke: #000000; stroke-width: 0.8"/>
      </g>
     </g>
    </g>
    <g id="xtick_10">
     <g id="line2d_13">
      <g>
       <use xlink:href="#m54a6508144" x="292.928382" y="115.857656" style="stroke: #000000; stroke-width: 0.8"/>
      </g>
     </g>
    </g>
   </g>
   <g id="matplotlib.axis_4">
    <g id="ytick_3">
     <g id="line2d_14">
      <g>
       <use xlink:href="#m333d9c004d" x="33.757656" y="103.812344" style="stroke: #000000; stroke-width: 0.8"/>
      </g>
     </g>
     <g id="text_4">
      <!-- 0.30 -->
      <g transform="translate(7.2 107.629688)scale(0.11 -0.11)">
       <defs>
        <path id="CMUSerif-Roman-33" d="M 269 864 
Q 269 1056 377 1145 
Q 486 1235 627 1235 
Q 774 1235 880 1139 
Q 986 1043 986 877 
Q 986 698 861 598 
Q 736 499 563 525 
Q 717 269 998 153 
Q 1280 38 1542 38 
Q 1818 38 2042 275 
Q 2266 512 2266 1094 
Q 2266 1587 2074 1872 
Q 1882 2157 1504 2157 
L 1222 2157 
Q 1126 2157 1097 2166 
Q 1069 2176 1069 2227 
Q 1069 2291 1165 2304 
Q 1261 2304 1414 2323 
Q 1786 2336 1984 2656 
Q 2163 2957 2163 3386 
Q 2163 3776 1977 3939 
Q 1792 4102 1549 4102 
Q 1325 4102 1078 4009 
Q 832 3917 698 3706 
Q 1094 3706 1094 3386 
Q 1094 3245 1004 3152 
Q 915 3059 768 3059 
Q 627 3059 534 3148 
Q 442 3238 442 3392 
Q 442 3757 768 4009 
Q 1094 4262 1574 4262 
Q 2048 4262 2400 4012 
Q 2752 3763 2752 3379 
Q 2752 3002 2502 2691 
Q 2253 2381 1856 2253 
Q 2342 2157 2633 1827 
Q 2925 1498 2925 1094 
Q 2925 595 2531 227 
Q 2138 -141 1562 -141 
Q 1030 -141 649 147 
Q 269 435 269 864 
z
" transform="scale(0.015625)"/>
       </defs>
       <use xlink:href="#CMUSerif-Roman-30"/>
       <use xlink:href="#CMUSerif-Roman-2e" x="49.999985"/>
       <use xlink:href="#CMUSerif-Roman-33" x="77.799973"/>
       <use xlink:href="#CMUSerif-Roman-30" x="127.799957"/>
      </g>
     </g>
    </g>
    <g id="ytick_4">
     <g id="line2d_15">
      <g>
       <use xlink:href="#m333d9c004d" x="33.757656" y="86.940903" style="stroke: #000000; stroke-width: 0.8"/>
      </g>
     </g>
     <g id="text_5">
      <!-- 0.35 -->
      <g transform="translate(7.2 90.758247)scale(0.11 -0.11)">
       <use xlink:href="#CMUSerif-Roman-30"/>
       <use xlink:href="#CMUSerif-Roman-2e" x="49.999985"/>
       <use xlink:href="#CMUSerif-Roman-33" x="77.799973"/>
       <use xlink:href="#CMUSerif-Roman-35" x="127.799957"/>
      </g>
     </g>
    </g>
   </g>
   <g id="line2d_16">
    <path d="M 46.291654 88.197485 
L 46.869258 86.742535 
L 47.446861 86.174196 
L 47.735663 86.105437 
L 48.602068 86.290679 
L 49.468474 87.042775 
L 50.334879 88.289244 
L 52.934095 92.790205 
L 53.511699 93.832266 
L 54.955708 96.15286 
L 56.97732 98.925694 
L 57.554924 99.888133 
L 58.998933 101.646788 
L 60.731743 103.061365 
L 61.886951 104.034616 
L 62.753356 104.666766 
L 64.197365 105.70994 
L 65.06377 106.203785 
L 65.930176 106.755796 
L 66.507779 106.921395 
L 66.796581 88.512993 
L 67.374185 87.12419 
L 67.951788 86.649601 
L 68.529392 86.503713 
L 69.106995 86.83253 
L 69.684599 87.512343 
L 70.262202 88.062147 
L 70.839806 89.084547 
L 71.128608 89.49459 
L 71.995013 91.102414 
L 72.572617 91.972488 
L 74.016626 94.505729 
L 74.594229 95.480433 
L 75.460635 96.99229 
L 77.482247 99.853403 
L 78.348653 100.95484 
L 78.926256 101.599184 
L 81.814274 104.502553 
L 82.391878 104.800999 
L 84.124688 106.085049 
L 85.857499 107.212878 
L 86.435103 107.435409 
L 86.723905 88.987467 
L 87.301508 87.577913 
L 87.879112 86.783575 
L 88.456715 86.61334 
L 88.745517 86.633653 
L 89.323121 87.110746 
L 90.189526 88.059489 
L 91.922337 90.903242 
L 93.366346 93.360853 
L 96.831967 98.63538 
L 99.431183 101.949317 
L 101.163994 103.831708 
L 101.741598 104.238993 
L 103.474408 105.832252 
L 104.340814 106.410473 
L 104.918417 106.751035 
L 105.207219 106.791207 
L 105.784823 107.148234 
L 106.94003 107.708362 
L 107.228832 89.239424 
L 107.517633 88.360332 
L 108.095237 87.49597 
L 108.672841 87.116608 
L 108.961642 86.986797 
L 109.250444 87.088379 
L 110.983255 88.845153 
L 111.84966 90.309167 
L 112.716066 92.031126 
L 113.293669 92.910765 
L 114.448876 94.996832 
L 117.048092 98.829585 
L 117.625696 99.454536 
L 119.93611 102.186913 
L 120.513714 102.770517 
L 121.380119 103.731699 
L 121.668921 103.930157 
L 121.957723 85.75185 
L 122.535326 85.083529 
L 122.824128 84.82598 
L 123.401732 84.931342 
L 125.134543 87.306939 
L 125.712146 88.38246 
L 130.044173 97.23043 
L 132.932191 102.061487 
L 134.3762 104.008059 
L 137.264218 107.253193 
L 137.841821 107.740746 
L 140.152236 109.484508 
L 140.441037 90.878943 
L 141.018641 89.784508 
L 141.596245 89.121978 
L 142.46265 89.217419 
L 143.040254 89.80392 
L 144.484262 91.781864 
L 146.505875 95.620608 
L 147.661082 97.791024 
L 152.281911 104.483174 
L 154.592325 106.900615 
L 159.213154 110.276851 
L 160.368361 110.67968 
L 160.657163 110.786672 
L 160.945965 92.080941 
L 161.523568 90.719444 
L 161.81237 90.298629 
L 162.389973 90.117558 
L 162.678775 90.093522 
L 163.545181 90.709901 
L 165.277991 93.15676 
L 166.144397 94.62946 
L 167.877207 97.924117 
L 169.321216 100.247271 
L 171.631631 103.277162 
L 172.498036 104.454396 
L 172.786838 86.235763 
L 173.07564 85.94066 
L 173.364441 85.854652 
L 173.942045 86.082856 
L 174.80845 87.151066 
L 176.541261 90.673181 
L 179.429279 97.118797 
L 182.606099 103.017667 
L 186.360522 108.485314 
L 186.938126 109.026247 
L 188.093333 110.083577 
L 188.382135 110.360694 
L 188.670936 91.687731 
L 188.959738 91.023623 
L 189.537342 90.502342 
L 190.114945 90.363088 
L 190.981351 90.956283 
L 192.136558 92.858436 
L 194.15817 96.729621 
L 194.735774 97.908669 
L 195.602179 99.780911 
L 199.356603 105.996537 
L 201.955819 109.499279 
L 205.132638 112.33762 
L 205.710242 112.669384 
L 206.865449 113.310058 
L 208.887062 114.379957 
L 209.175863 95.39782 
L 209.753467 94.209221 
L 210.331071 93.846563 
L 210.908674 94.014654 
L 211.197476 94.195237 
L 212.352683 95.462254 
L 212.930287 96.311233 
L 214.374296 98.67235 
L 215.818305 101.173689 
L 217.551115 104.167811 
L 221.016737 108.625159 
L 221.883142 109.519174 
L 222.460746 110.099625 
L 223.038349 110.578469 
L 223.904755 111.545178 
L 225.926367 112.961576 
L 226.503971 113.163572 
L 226.792773 94.275002 
L 227.370376 92.747504 
L 227.94798 91.906909 
L 228.236782 91.61432 
L 228.814385 91.579268 
L 229.103187 91.733396 
L 230.547196 93.459329 
L 233.435214 98.420391 
L 234.590421 100.369883 
L 237.767241 104.85475 
L 238.633646 105.930038 
L 242.099267 109.09875 
L 242.388069 90.522859 
L 242.965673 89.450835 
L 243.543276 89.014286 
L 244.409682 89.250831 
L 245.564889 90.591184 
L 247.586501 94.109315 
L 248.164105 95.13042 
L 249.03051 96.70098 
L 251.340925 100.879473 
L 252.496132 102.745856 
L 253.073735 103.484094 
L 254.806546 105.72735 
L 255.961753 106.906025 
L 257.116961 107.948887 
L 261.448987 111.083102 
L 262.315393 111.458774 
L 262.604195 111.543764 
L 262.892996 92.779795 
L 263.4706 91.471471 
L 264.048204 90.869481 
L 264.337005 90.735555 
L 265.203411 91.178639 
L 265.492212 91.444484 
L 268.669032 96.57739 
L 270.113041 99.215467 
L 274.445068 105.218577 
L 274.73387 86.941161 
L 275.022672 86.688904 
L 275.600275 86.566355 
L 276.177879 87.011594 
L 276.755482 87.63123 
L 277.910689 89.825561 
L 278.488293 91.074507 
L 282.82032 100.751053 
L 284.841932 104.524058 
L 285.419536 105.413248 
L 285.99714 106.310967 
L 287.72995 108.603012 
L 290.617968 111.69504 
L 290.617968 111.69504 
" clip-path="url(#pf7c8ca99ad)" style="fill: none; stroke: #808080; stroke-width: 1.5; stroke-linecap: square"/>
   </g>
   <g id="LineCollection_2">
    <path d="M 46.002852 114.379957 
L 46.002852 84.82598 
" clip-path="url(#pf7c8ca99ad)" style="fill: none; stroke: #808080; stroke-opacity: 0.5; stroke-width: 1.5"/>
    <path d="M 66.507779 114.379957 
L 66.507779 84.82598 
" clip-path="url(#pf7c8ca99ad)" style="fill: none; stroke: #808080; stroke-opacity: 0.5; stroke-width: 1.5"/>
    <path d="M 86.435103 114.379957 
L 86.435103 84.82598 
" clip-path="url(#pf7c8ca99ad)" style="fill: none; stroke: #808080; stroke-opacity: 0.5; stroke-width: 1.5"/>
    <path d="M 106.94003 114.379957 
L 106.94003 84.82598 
" clip-path="url(#pf7c8ca99ad)" style="fill: none; stroke: #808080; stroke-opacity: 0.5; stroke-width: 1.5"/>
    <path d="M 121.668921 114.379957 
L 121.668921 84.82598 
" clip-path="url(#pf7c8ca99ad)" style="fill: none; stroke: #808080; stroke-opacity: 0.5; stroke-width: 1.5"/>
    <path d="M 140.152236 114.379957 
L 140.152236 84.82598 
" clip-path="url(#pf7c8ca99ad)" style="fill: none; stroke: #808080; stroke-opacity: 0.5; stroke-width: 1.5"/>
    <path d="M 160.657163 114.379957 
L 160.657163 84.82598 
" clip-path="url(#pf7c8ca99ad)" style="fill: none; stroke: #808080; stroke-opacity: 0.5; stroke-width: 1.5"/>
    <path d="M 172.498036 114.379957 
L 172.498036 84.82598 
" clip-path="url(#pf7c8ca99ad)" style="fill: none; stroke: #808080; stroke-opacity: 0.5; stroke-width: 1.5"/>
    <path d="M 188.382135 114.379957 
L 188.382135 84.82598 
" clip-path="url(#pf7c8ca99ad)" style="fill: none; stroke: #808080; stroke-opacity: 0.5; stroke-width: 1.5"/>
    <path d="M 208.887062 114.379957 
L 208.887062 84.82598 
" clip-path="url(#pf7c8ca99ad)" style="fill: none; stroke: #808080; stroke-opacity: 0.5; stroke-width: 1.5"/>
    <path d="M 226.503971 114.379957 
L 226.503971 84.82598 
" clip-path="url(#pf7c8ca99ad)" style="fill: none; stroke: #808080; stroke-opacity: 0.5; stroke-width: 1.5"/>
    <path d="M 242.099267 114.379957 
L 242.099267 84.82598 
" clip-path="url(#pf7c8ca99ad)" style="fill: none; stroke: #808080; stroke-opacity: 0.5; stroke-width: 1.5"/>
    <path d="M 262.604195 114.379957 
L 262.604195 84.82598 
" clip-path="url(#pf7c8ca99ad)" style="fill: none; stroke: #808080; stroke-opacity: 0.5; stroke-width: 1.5"/>
    <path d="M 274.445068 114.379957 
L 274.445068 84.82598 
" clip-path="url(#pf7c8ca99ad)" style="fill: none; stroke: #808080; stroke-opacity: 0.5; stroke-width: 1.5"/>
    <path d="M 290.329166 114.379957 
L 290.329166 84.82598 
" clip-path="url(#pf7c8ca99ad)" style="fill: none; stroke: #808080; stroke-opacity: 0.5; stroke-width: 1.5"/>
   </g>
   <g id="patch_26">
    <path d="M 33.757656 115.857656 
L 33.757656 83.348281 
" style="fill: none; stroke: #000000; stroke-width: 0.8; stroke-linejoin: miter; stroke-linecap: square"/>
   </g>
   <g id="patch_27">
    <path d="M 33.757656 115.857656 
L 303.151966 115.857656 
" style="fill: none; stroke: #000000; stroke-width: 0.8; stroke-linejoin: miter; stroke-linecap: square"/>
   </g>
   <g id="text_6">
    <!-- dv/dt -->
    <g transform="translate(154.567311 77.348281)scale(0.11 -0.11)">
     <defs>
      <path id="CMUSerif-Roman-76" d="M 122 2560 
L 122 2758 
Q 410 2739 742 2739 
Q 864 2739 1440 2758 
L 1440 2560 
Q 1075 2560 1075 2394 
Q 1075 2368 1114 2285 
L 1830 499 
L 2483 2131 
Q 2522 2240 2522 2285 
Q 2522 2394 2448 2474 
Q 2374 2554 2214 2560 
L 2214 2758 
Q 2541 2739 2771 2739 
Q 3034 2739 3251 2758 
L 3251 2560 
Q 3059 2560 2924 2473 
Q 2790 2387 2748 2313 
Q 2707 2240 2662 2131 
L 1824 51 
Q 1773 -70 1690 -70 
Q 1632 -70 1609 -48 
Q 1587 -26 1555 51 
L 634 2323 
Q 570 2483 490 2521 
Q 410 2560 122 2560 
z
" transform="scale(0.015625)"/>
     </defs>
     <use xlink:href="#CMUSerif-Roman-64"/>
     <use xlink:href="#CMUSerif-Roman-76" x="55.499985"/>
     <use xlink:href="#CMUSerif-Roman-2f" x="108.199982"/>
     <use xlink:href="#CMUSerif-Roman-64" x="158.199966"/>
     <use xlink:href="#CMUSerif-Roman-74" x="213.699951"/>
    </g>
   </g>
  </g>
  <g id="axes_3">
   <g id="patch_28">
    <path d="M 33.757656 177.778281 
L 303.151966 177.778281 
L 303.151966 145.268906 
L 33.757656 145.268906 
z
" style="fill: #ffffff"/>
   </g>
   <g id="patch_29">
    <path d="M 66.507779 177.778281 
L 66.507779 145.268906 
L 86.435103 145.268906 
L 86.435103 177.778281 
z
" clip-path="url(#pc19882ad45)" style="fill: #ff0000; opacity: 0.1"/>
   </g>
   <g id="patch_30">
    <path d="M 46.002852 177.778281 
L 46.002852 145.268906 
L 66.507779 145.268906 
L 66.507779 177.778281 
z
" clip-path="url(#pc19882ad45)" style="fill: #0000ff; opacity: 0.1"/>
   </g>
   <g id="patch_31">
    <path d="M 121.668921 177.778281 
L 121.668921 145.268906 
L 140.152236 145.268906 
L 140.152236 177.778281 
z
" clip-path="url(#pc19882ad45)" style="fill: #ff0000; opacity: 0.1"/>
   </g>
   <g id="patch_32">
    <path d="M 106.94003 177.778281 
L 106.94003 145.268906 
L 121.668921 145.268906 
L 121.668921 177.778281 
z
" clip-path="url(#pc19882ad45)" style="fill: #0000ff; opacity: 0.1"/>
   </g>
   <g id="patch_33">
    <path d="M 172.498036 177.778281 
L 172.498036 145.268906 
L 188.382135 145.268906 
L 188.382135 177.778281 
z
" clip-path="url(#pc19882ad45)" style="fill: #ff0000; opacity: 0.1"/>
   </g>
   <g id="patch_34">
    <path d="M 160.657163 177.778281 
L 160.657163 145.268906 
L 172.498036 145.268906 
L 172.498036 177.778281 
z
" clip-path="url(#pc19882ad45)" style="fill: #0000ff; opacity: 0.1"/>
   </g>
   <g id="patch_35">
    <path d="M 226.503971 177.778281 
L 226.503971 145.268906 
L 242.099267 145.268906 
L 242.099267 177.778281 
z
" clip-path="url(#pc19882ad45)" style="fill: #ff0000; opacity: 0.1"/>
   </g>
   <g id="patch_36">
    <path d="M 208.887062 177.778281 
L 208.887062 145.268906 
L 226.503971 145.268906 
L 226.503971 177.778281 
z
" clip-path="url(#pc19882ad45)" style="fill: #0000ff; opacity: 0.1"/>
   </g>
   <g id="patch_37">
    <path d="M 274.445068 177.778281 
L 274.445068 145.268906 
L 290.329166 145.268906 
L 290.329166 177.778281 
z
" clip-path="url(#pc19882ad45)" style="fill: #ff0000; opacity: 0.1"/>
   </g>
   <g id="patch_38">
    <path d="M 262.604195 177.778281 
L 262.604195 145.268906 
L 274.445068 145.268906 
L 274.445068 177.778281 
z
" clip-path="url(#pc19882ad45)" style="fill: #0000ff; opacity: 0.1"/>
   </g>
   <g id="matplotlib.axis_5">
    <g id="xtick_11">
     <g id="line2d_17">
      <g>
       <use xlink:href="#m54a6508144" x="61.886951" y="177.778281" style="stroke: #000000; stroke-width: 0.8"/>
      </g>
     </g>
    </g>
    <g id="xtick_12">
     <g id="line2d_18">
      <g>
       <use xlink:href="#m54a6508144" x="119.647309" y="177.778281" style="stroke: #000000; stroke-width: 0.8"/>
      </g>
     </g>
    </g>
    <g id="xtick_13">
     <g id="line2d_19">
      <g>
       <use xlink:href="#m54a6508144" x="177.407667" y="177.778281" style="stroke: #000000; stroke-width: 0.8"/>
      </g>
     </g>
    </g>
    <g id="xtick_14">
     <g id="line2d_20">
      <g>
       <use xlink:href="#m54a6508144" x="235.168025" y="177.778281" style="stroke: #000000; stroke-width: 0.8"/>
      </g>
     </g>
    </g>
    <g id="xtick_15">
     <g id="line2d_21">
      <g>
       <use xlink:href="#m54a6508144" x="292.928382" y="177.778281" style="stroke: #000000; stroke-width: 0.8"/>
      </g>
     </g>
    </g>
   </g>
   <g id="matplotlib.axis_6">
    <g id="ytick_5">
     <g id="line2d_22">
      <g>
       <use xlink:href="#m333d9c004d" x="33.757656" y="171.223449" style="stroke: #000000; stroke-width: 0.8"/>
      </g>
     </g>
     <g id="text_7">
      <!-- 0.6 -->
      <g transform="translate(12.7 175.040793)scale(0.11 -0.11)">
       <defs>
        <path id="CMUSerif-Roman-36" d="M 269 2022 
Q 269 3027 781 3644 
Q 1293 4262 1952 4262 
Q 2336 4262 2550 4067 
Q 2765 3872 2765 3571 
Q 2765 3405 2669 3334 
Q 2573 3264 2470 3264 
Q 2355 3264 2265 3341 
Q 2176 3418 2176 3558 
Q 2176 3846 2528 3846 
Q 2362 4102 1965 4102 
Q 1843 4102 1718 4067 
Q 1594 4032 1430 3913 
Q 1267 3795 1142 3606 
Q 1018 3418 931 3066 
Q 845 2714 845 2253 
L 845 2099 
Q 1107 2733 1644 2733 
Q 2182 2733 2553 2323 
Q 2925 1914 2925 1306 
Q 2925 685 2537 272 
Q 2150 -141 1606 -141 
Q 1363 -141 1142 -38 
Q 922 64 717 294 
Q 512 525 390 969 
Q 269 1414 269 2022 
z
M 858 1446 
Q 858 819 973 518 
Q 992 467 1033 400 
Q 1075 333 1148 243 
Q 1222 154 1344 96 
Q 1466 38 1606 38 
Q 2035 38 2240 454 
Q 2349 685 2349 1312 
Q 2349 1952 2234 2189 
Q 2035 2586 1638 2586 
Q 1370 2586 1184 2400 
Q 998 2214 928 1968 
Q 858 1722 858 1446 
z
" transform="scale(0.015625)"/>
       </defs>
       <use xlink:href="#CMUSerif-Roman-30"/>
       <use xlink:href="#CMUSerif-Roman-2e" x="49.999985"/>
       <use xlink:href="#CMUSerif-Roman-36" x="77.799973"/>
      </g>
     </g>
    </g>
    <g id="ytick_6">
     <g id="line2d_23">
      <g>
       <use xlink:href="#m333d9c004d" x="33.757656" y="153.656509" style="stroke: #000000; stroke-width: 0.8"/>
      </g>
     </g>
     <g id="text_8">
      <!-- 0.7 -->
      <g transform="translate(12.7 157.473853)scale(0.11 -0.11)">
       <defs>
        <path id="CMUSerif-Roman-37" d="M 358 3008 
L 570 4326 
L 730 4326 
Q 749 4250 781 4214 
Q 813 4179 995 4150 
Q 1178 4122 1549 4122 
L 3104 4122 
Q 3104 3974 3046 3898 
L 2182 2682 
Q 1907 2298 1786 1587 
Q 1715 1114 1715 538 
L 1715 211 
Q 1715 -141 1420 -141 
Q 1126 -141 1126 211 
Q 1126 1434 1914 2618 
Q 1997 2739 2307 3174 
Q 2618 3610 2630 3629 
L 1306 3629 
Q 723 3629 678 3590 
Q 614 3533 518 3008 
L 358 3008 
z
" transform="scale(0.015625)"/>
       </defs>
       <use xlink:href="#CMUSerif-Roman-30"/>
       <use xlink:href="#CMUSerif-Roman-2e" x="49.999985"/>
       <use xlink:href="#CMUSerif-Roman-37" x="77.799973"/>
      </g>
     </g>
    </g>
   </g>
   <g id="line2d_24">
    <path d="M 46.291654 164.853997 
L 47.158059 168.810557 
L 48.024465 171.417652 
L 48.602068 172.842371 
L 49.179672 173.731562 
L 49.468474 174.064365 
L 49.757275 174.213348 
L 50.046077 174.188539 
L 50.623681 174.448929 
L 50.912483 174.332311 
L 51.201284 174.407298 
L 51.490086 174.296968 
L 52.06769 174.413732 
L 52.645293 173.879752 
L 52.934095 173.51552 
L 54.089302 172.928161 
L 55.244509 171.415192 
L 55.533311 171.360419 
L 56.399717 170.58058 
L 57.266122 169.915125 
L 57.554924 169.587676 
L 57.843726 169.045144 
L 58.421329 168.547417 
L 58.710131 167.963505 
L 60.15414 167.114463 
L 60.731743 166.618127 
L 61.020545 166.618578 
L 61.598149 165.829759 
L 62.753356 164.628854 
L 63.042158 164.564129 
L 63.33096 164.220888 
L 63.619761 164.302178 
L 63.908563 163.955223 
L 64.486167 163.806005 
L 65.06377 163.361123 
L 65.352572 162.994653 
L 65.641374 163.116124 
L 66.507779 163.097258 
L 67.085383 166.01267 
L 68.24059 170.480792 
L 69.106995 172.49027 
L 69.973401 173.672202 
L 70.551004 173.84745 
L 71.706211 174.021336 
L 71.995013 173.806641 
L 72.283815 173.852474 
L 72.572617 173.730211 
L 72.861419 173.314056 
L 73.15022 173.419382 
L 73.439022 173.286123 
L 73.727824 172.879742 
L 74.883031 172.296161 
L 75.749436 171.40328 
L 76.038238 171.237181 
L 77.193445 169.942358 
L 77.771049 169.587297 
L 78.059851 169.112152 
L 79.50386 167.991782 
L 79.792662 167.189615 
L 80.081463 167.013129 
L 80.370265 166.632458 
L 80.659067 166.040581 
L 81.525472 165.277364 
L 81.814274 164.923138 
L 82.103076 164.747787 
L 82.391878 164.434206 
L 82.680679 164.468201 
L 82.969481 164.287711 
L 83.547085 163.768556 
L 83.835887 163.551693 
L 84.702292 163.563718 
L 85.279896 163.130141 
L 85.568697 163.15385 
L 85.857499 162.904008 
L 86.146301 162.814099 
L 86.435103 162.579438 
L 87.301508 166.481034 
L 88.167913 169.426249 
L 88.745517 170.977196 
L 89.034319 171.773548 
L 90.189526 173.243396 
L 91.344733 173.826733 
L 91.922337 173.759559 
L 92.49994 173.409815 
L 92.788742 173.196753 
L 93.366346 173.350164 
L 93.655147 173.016383 
L 94.232751 172.655733 
L 95.965562 171.199041 
L 96.254364 171.240905 
L 96.543165 170.828662 
L 96.831967 170.724532 
L 97.120769 170.473134 
L 97.698373 169.769054 
L 98.564778 168.700406 
L 98.85358 168.567581 
L 99.431183 167.803467 
L 101.163994 166.124517 
L 101.452796 166.196284 
L 103.76321 164.217052 
L 104.340814 163.481653 
L 105.496021 162.90828 
L 106.073624 162.695343 
L 106.94003 162.057154 
L 107.806435 166.432057 
L 108.384039 168.813126 
L 108.961642 170.377207 
L 109.250444 171.257119 
L 110.405651 172.862431 
L 110.694453 172.918793 
L 110.983255 173.317525 
L 111.560858 173.546461 
L 111.84966 173.33464 
L 112.427264 173.460423 
L 112.716066 173.619839 
L 113.871273 173.39032 
L 114.737678 172.470172 
L 115.604084 171.913837 
L 115.892885 171.437491 
L 116.470489 170.96974 
L 116.759291 170.624955 
L 117.048092 170.623646 
L 117.625696 170.041182 
L 117.914498 169.586351 
L 118.2033 169.59962 
L 118.492101 169.079401 
L 119.069705 168.644154 
L 119.647309 168.436504 
L 120.513714 167.278216 
L 121.668921 165.965358 
L 122.535326 169.90356 
L 123.11293 172.039174 
L 123.401732 172.624589 
L 123.979335 174.234429 
L 124.556939 175.264539 
L 124.845741 175.664407 
L 125.134543 175.760881 
L 125.712146 176.300582 
L 126.28975 176.088875 
L 126.867353 175.905931 
L 127.444957 175.64775 
L 127.733759 175.224437 
L 128.02256 175.196309 
L 129.177768 173.990425 
L 130.332975 172.513058 
L 131.19938 171.431434 
L 131.776984 170.451468 
L 132.354587 169.600473 
L 132.643389 169.366018 
L 133.220993 169.273875 
L 134.953803 167.307736 
L 135.531407 166.450066 
L 136.109011 165.883208 
L 136.975416 164.92847 
L 139.28583 162.846324 
L 140.152236 162.550461 
L 141.307443 167.791223 
L 141.885046 169.585096 
L 143.040254 171.376309 
L 144.195461 172.766704 
L 144.773064 172.303022 
L 145.061866 172.540496 
L 145.928271 172.495309 
L 147.083479 171.490692 
L 147.661082 170.941108 
L 147.949884 170.752583 
L 148.238686 170.320538 
L 148.527488 170.272002 
L 148.816289 169.873282 
L 149.105091 169.724448 
L 149.393893 169.323624 
L 149.682695 169.144169 
L 150.260298 168.289905 
L 150.5491 168.235382 
L 151.126704 167.736157 
L 151.415505 167.338828 
L 151.993109 167.091174 
L 152.570713 166.33002 
L 153.437118 165.594866 
L 153.72592 165.474593 
L 154.592325 164.702552 
L 154.881127 164.695887 
L 155.458731 164.118092 
L 155.747532 164.046764 
L 157.480343 161.946519 
L 158.057947 161.706838 
L 158.346748 161.456625 
L 158.63555 161.447427 
L 159.501956 160.567207 
L 160.657163 160.132552 
L 161.81237 166.165568 
L 162.389973 168.029592 
L 164.700388 171.436298 
L 165.277991 171.578131 
L 165.566793 171.569401 
L 165.855595 171.798788 
L 166.433199 171.647887 
L 167.010802 171.318098 
L 168.166009 170.540882 
L 168.454811 170.251614 
L 168.743613 170.134519 
L 169.032415 169.666465 
L 169.321216 169.487134 
L 169.610018 169.014129 
L 169.89882 168.957324 
L 170.187622 168.418795 
L 171.054027 167.573773 
L 171.342829 167.466442 
L 172.498036 166.252817 
L 173.653243 171.358609 
L 174.230847 172.905213 
L 175.097252 174.669688 
L 175.963658 175.69323 
L 176.252459 175.80016 
L 176.541261 176.04134 
L 176.830063 175.960076 
L 177.407667 175.584266 
L 177.98527 175.33241 
L 178.274072 174.96229 
L 178.851675 174.860018 
L 180.584486 173.090847 
L 181.16209 172.01352 
L 183.183702 169.325351 
L 183.761306 168.528673 
L 184.050108 168.415294 
L 184.627711 167.469424 
L 185.494117 166.354337 
L 186.938126 164.155299 
L 187.804531 163.436198 
L 188.382135 162.701349 
L 188.959738 165.575058 
L 190.403747 169.858427 
L 190.692549 170.62884 
L 191.558954 171.661311 
L 192.136558 172.321181 
L 192.42536 172.351967 
L 192.714161 172.128797 
L 193.002963 172.304849 
L 193.580567 172.202924 
L 193.869369 172.341384 
L 194.15817 172.057521 
L 194.446972 172.063439 
L 195.024576 171.421382 
L 195.602179 171.214274 
L 195.890981 171.004266 
L 196.179783 171.007948 
L 196.757386 169.956274 
L 199.645404 167.140234 
L 199.934206 166.606528 
L 200.223008 166.337075 
L 200.51181 166.223004 
L 201.667017 164.941097 
L 202.533422 163.343851 
L 202.822224 163.290236 
L 204.266233 161.662136 
L 204.555035 161.582838 
L 204.843837 161.276701 
L 205.132638 161.276783 
L 205.999044 160.791157 
L 207.154251 159.572621 
L 207.443053 159.462542 
L 208.020656 159.014054 
L 208.309458 158.956623 
L 208.59826 158.654011 
L 208.887062 158.55374 
L 209.753467 162.828197 
L 210.619872 166.0456 
L 211.197476 167.534161 
L 212.063881 168.655099 
L 212.352683 169.188295 
L 212.641485 169.407178 
L 212.930287 169.944003 
L 214.085494 170.24 
L 214.374296 170.106552 
L 214.663097 170.156463 
L 214.951899 169.969928 
L 215.240701 169.604416 
L 215.529503 169.518117 
L 215.818305 169.142556 
L 216.107106 169.036243 
L 216.68471 168.327407 
L 216.973512 168.3202 
L 217.551115 167.403544 
L 218.995124 165.76189 
L 221.59434 163.179525 
L 221.883142 163.113831 
L 222.749548 161.84326 
L 223.038349 161.858547 
L 225.348764 160.077877 
L 225.637565 160.004711 
L 226.215169 159.329297 
L 226.503971 159.201564 
L 227.081574 162.482462 
L 228.236782 166.707982 
L 229.680791 169.822861 
L 230.547196 170.618949 
L 231.124799 170.98108 
L 232.568808 171.257469 
L 232.85761 170.999787 
L 233.435214 170.880162 
L 234.301619 169.93985 
L 234.590421 169.747663 
L 235.168025 168.886461 
L 236.03443 168.209469 
L 236.323232 167.9653 
L 236.900835 167.202175 
L 237.767241 166.433637 
L 238.344844 165.82542 
L 238.633646 165.687708 
L 239.500051 164.728994 
L 239.788853 164.367728 
L 240.077655 164.351229 
L 240.366457 163.915151 
L 241.521664 163.148142 
L 241.810466 162.992112 
L 242.099267 162.673942 
L 242.965673 166.675353 
L 243.832078 169.741714 
L 244.12088 170.531047 
L 244.409682 170.961311 
L 244.698484 171.742836 
L 245.276087 172.291402 
L 245.564889 172.740564 
L 245.853691 172.88947 
L 246.142493 173.200748 
L 246.431294 173.120455 
L 246.720096 173.263062 
L 247.008898 173.215783 
L 247.2977 173.043562 
L 247.586501 173.179383 
L 248.741709 173.084883 
L 249.319312 172.780517 
L 249.896916 172.215802 
L 252.496132 169.035631 
L 252.784934 168.874532 
L 253.651339 167.882448 
L 254.228943 167.057789 
L 254.517744 166.678247 
L 255.095348 166.423193 
L 256.250555 165.17525 
L 256.539357 165.043353 
L 258.849771 162.16233 
L 259.138573 162.009089 
L 259.427375 161.600254 
L 259.716177 161.451503 
L 260.29378 160.783972 
L 261.448987 160.449818 
L 262.026591 160.253302 
L 262.315393 160.000402 
L 262.604195 159.949945 
L 263.759402 165.444514 
L 264.337005 167.86642 
L 265.492212 170.57829 
L 266.936221 172.019753 
L 267.225023 171.971025 
L 267.513825 171.757702 
L 267.802627 171.766065 
L 268.669032 172.18945 
L 269.246636 171.416341 
L 270.401843 170.477973 
L 271.845852 169.030129 
L 272.134654 168.821112 
L 272.423455 168.349742 
L 273.001059 168.2169 
L 273.578663 167.326164 
L 274.156266 166.828301 
L 274.445068 166.539242 
L 275.022672 169.363265 
L 275.600275 171.554749 
L 276.755482 174.301355 
L 277.044284 174.565266 
L 277.333086 175.102422 
L 277.621888 175.383454 
L 278.199491 175.58658 
L 278.488293 175.814373 
L 279.065897 175.747634 
L 279.6435 175.291544 
L 280.509906 174.773694 
L 281.665113 173.943477 
L 282.531518 172.682499 
L 282.82032 172.317326 
L 283.397923 171.186058 
L 283.686725 170.608881 
L 283.975527 170.375893 
L 285.130734 168.36801 
L 285.708338 167.554173 
L 286.285941 166.808878 
L 287.441148 165.520172 
L 288.018752 164.910325 
L 288.596356 163.893664 
L 288.885157 163.821406 
L 289.173959 163.580828 
L 289.751563 163.481982 
L 290.329166 162.676093 
L 290.617968 162.471757 
L 290.617968 162.471757 
" clip-path="url(#pc19882ad45)" style="fill: none; stroke: #808080; stroke-width: 1.5; stroke-linecap: square"/>
   </g>
   <g id="LineCollection_3">
    <path d="M 46.291654 162.439979 
L 290.90677 162.439979 
" clip-path="url(#pc19882ad45)" style="fill: none; stroke-dasharray: 5.55,2.4; stroke-dashoffset: 0; stroke: #d3d3d3; stroke-width: 1.5"/>
   </g>
   <g id="LineCollection_4">
    <path d="M 46.002852 176.300582 
L 46.002852 146.746605 
" clip-path="url(#pc19882ad45)" style="fill: none; stroke: #808080; stroke-opacity: 0.5; stroke-width: 1.5"/>
    <path d="M 66.507779 176.300582 
L 66.507779 146.746605 
" clip-path="url(#pc19882ad45)" style="fill: none; stroke: #808080; stroke-opacity: 0.5; stroke-width: 1.5"/>
    <path d="M 86.435103 176.300582 
L 86.435103 146.746605 
" clip-path="url(#pc19882ad45)" style="fill: none; stroke: #808080; stroke-opacity: 0.5; stroke-width: 1.5"/>
    <path d="M 106.94003 176.300582 
L 106.94003 146.746605 
" clip-path="url(#pc19882ad45)" style="fill: none; stroke: #808080; stroke-opacity: 0.5; stroke-width: 1.5"/>
    <path d="M 121.668921 176.300582 
L 121.668921 146.746605 
" clip-path="url(#pc19882ad45)" style="fill: none; stroke: #808080; stroke-opacity: 0.5; stroke-width: 1.5"/>
    <path d="M 140.152236 176.300582 
L 140.152236 146.746605 
" clip-path="url(#pc19882ad45)" style="fill: none; stroke: #808080; stroke-opacity: 0.5; stroke-width: 1.5"/>
    <path d="M 160.657163 176.300582 
L 160.657163 146.746605 
" clip-path="url(#pc19882ad45)" style="fill: none; stroke: #808080; stroke-opacity: 0.5; stroke-width: 1.5"/>
    <path d="M 172.498036 176.300582 
L 172.498036 146.746605 
" clip-path="url(#pc19882ad45)" style="fill: none; stroke: #808080; stroke-opacity: 0.5; stroke-width: 1.5"/>
    <path d="M 188.382135 176.300582 
L 188.382135 146.746605 
" clip-path="url(#pc19882ad45)" style="fill: none; stroke: #808080; stroke-opacity: 0.5; stroke-width: 1.5"/>
    <path d="M 208.887062 176.300582 
L 208.887062 146.746605 
" clip-path="url(#pc19882ad45)" style="fill: none; stroke: #808080; stroke-opacity: 0.5; stroke-width: 1.5"/>
    <path d="M 226.503971 176.300582 
L 226.503971 146.746605 
" clip-path="url(#pc19882ad45)" style="fill: none; stroke: #808080; stroke-opacity: 0.5; stroke-width: 1.5"/>
    <path d="M 242.099267 176.300582 
L 242.099267 146.746605 
" clip-path="url(#pc19882ad45)" style="fill: none; stroke: #808080; stroke-opacity: 0.5; stroke-width: 1.5"/>
    <path d="M 262.604195 176.300582 
L 262.604195 146.746605 
" clip-path="url(#pc19882ad45)" style="fill: none; stroke: #808080; stroke-opacity: 0.5; stroke-width: 1.5"/>
    <path d="M 274.445068 176.300582 
L 274.445068 146.746605 
" clip-path="url(#pc19882ad45)" style="fill: none; stroke: #808080; stroke-opacity: 0.5; stroke-width: 1.5"/>
    <path d="M 290.329166 176.300582 
L 290.329166 146.746605 
" clip-path="url(#pc19882ad45)" style="fill: none; stroke: #808080; stroke-opacity: 0.5; stroke-width: 1.5"/>
   </g>
   <g id="patch_39">
    <path d="M 33.757656 177.778281 
L 33.757656 145.268906 
" style="fill: none; stroke: #000000; stroke-width: 0.8; stroke-linejoin: miter; stroke-linecap: square"/>
   </g>
   <g id="patch_40">
    <path d="M 33.757656 177.778281 
L 303.151966 177.778281 
" style="fill: none; stroke: #000000; stroke-width: 0.8; stroke-linejoin: miter; stroke-linecap: square"/>
   </g>
   <g id="text_9">
    <!-- dy/dt -->
    <g transform="translate(154.567311 139.268906)scale(0.11 -0.11)">
     <defs>
      <path id="CMUSerif-Roman-79" d="M 122 -794 
Q 122 -659 202 -588 
Q 282 -518 390 -518 
Q 506 -518 582 -592 
Q 659 -666 659 -787 
Q 659 -1024 410 -1056 
Q 531 -1171 710 -1171 
Q 902 -1171 1056 -1030 
Q 1210 -890 1277 -755 
Q 1344 -621 1440 -378 
Q 1530 -186 1600 0 
L 640 2336 
Q 576 2490 480 2525 
Q 384 2560 122 2560 
L 122 2758 
Q 410 2739 742 2739 
Q 941 2739 1440 2758 
L 1440 2560 
Q 1082 2560 1082 2394 
Q 1082 2374 1120 2278 
L 1830 557 
L 2477 2131 
Q 2515 2221 2515 2285 
Q 2515 2547 2214 2560 
L 2214 2758 
Q 2637 2739 2771 2739 
Q 3034 2739 3251 2758 
L 3251 2560 
Q 2822 2560 2656 2150 
L 1530 -582 
Q 1222 -1312 710 -1312 
Q 467 -1312 294 -1161 
Q 122 -1011 122 -794 
z
" transform="scale(0.015625)"/>
     </defs>
     <use xlink:href="#CMUSerif-Roman-64"/>
     <use xlink:href="#CMUSerif-Roman-79" x="55.499985"/>
     <use xlink:href="#CMUSerif-Roman-2f" x="108.199982"/>
     <use xlink:href="#CMUSerif-Roman-64" x="158.199966"/>
     <use xlink:href="#CMUSerif-Roman-74" x="213.699951"/>
    </g>
   </g>
  </g>
  <g id="axes_4">
   <g id="patch_41">
    <path d="M 33.757656 239.698906 
L 303.151966 239.698906 
L 303.151966 207.189531 
L 33.757656 207.189531 
z
" style="fill: #ffffff"/>
   </g>
   <g id="patch_42">
    <path d="M 66.507779 239.698906 
L 66.507779 207.189531 
L 86.435103 207.189531 
L 86.435103 239.698906 
z
" clip-path="url(#p2ed59ba8e1)" style="fill: #ff0000; opacity: 0.1"/>
   </g>
   <g id="patch_43">
    <path d="M 46.002852 239.698906 
L 46.002852 207.189531 
L 66.507779 207.189531 
L 66.507779 239.698906 
z
" clip-path="url(#p2ed59ba8e1)" style="fill: #0000ff; opacity: 0.1"/>
   </g>
   <g id="patch_44">
    <path d="M 121.668921 239.698906 
L 121.668921 207.189531 
L 140.152236 207.189531 
L 140.152236 239.698906 
z
" clip-path="url(#p2ed59ba8e1)" style="fill: #ff0000; opacity: 0.1"/>
   </g>
   <g id="patch_45">
    <path d="M 106.94003 239.698906 
L 106.94003 207.189531 
L 121.668921 207.189531 
L 121.668921 239.698906 
z
" clip-path="url(#p2ed59ba8e1)" style="fill: #0000ff; opacity: 0.1"/>
   </g>
   <g id="patch_46">
    <path d="M 172.498036 239.698906 
L 172.498036 207.189531 
L 188.382135 207.189531 
L 188.382135 239.698906 
z
" clip-path="url(#p2ed59ba8e1)" style="fill: #ff0000; opacity: 0.1"/>
   </g>
   <g id="patch_47">
    <path d="M 160.657163 239.698906 
L 160.657163 207.189531 
L 172.498036 207.189531 
L 172.498036 239.698906 
z
" clip-path="url(#p2ed59ba8e1)" style="fill: #0000ff; opacity: 0.1"/>
   </g>
   <g id="patch_48">
    <path d="M 226.503971 239.698906 
L 226.503971 207.189531 
L 242.099267 207.189531 
L 242.099267 239.698906 
z
" clip-path="url(#p2ed59ba8e1)" style="fill: #ff0000; opacity: 0.1"/>
   </g>
   <g id="patch_49">
    <path d="M 208.887062 239.698906 
L 208.887062 207.189531 
L 226.503971 207.189531 
L 226.503971 239.698906 
z
" clip-path="url(#p2ed59ba8e1)" style="fill: #0000ff; opacity: 0.1"/>
   </g>
   <g id="patch_50">
    <path d="M 274.445068 239.698906 
L 274.445068 207.189531 
L 290.329166 207.189531 
L 290.329166 239.698906 
z
" clip-path="url(#p2ed59ba8e1)" style="fill: #ff0000; opacity: 0.1"/>
   </g>
   <g id="patch_51">
    <path d="M 262.604195 239.698906 
L 262.604195 207.189531 
L 274.445068 207.189531 
L 274.445068 239.698906 
z
" clip-path="url(#p2ed59ba8e1)" style="fill: #0000ff; opacity: 0.1"/>
   </g>
   <g id="matplotlib.axis_7">
    <g id="xtick_16">
     <g id="line2d_25">
      <g>
       <use xlink:href="#m54a6508144" x="61.886951" y="239.698906" style="stroke: #000000; stroke-width: 0.8"/>
      </g>
     </g>
     <g id="text_10">
      <!-- 2000 -->
      <g transform="translate(50.886951 254.333594)scale(0.11 -0.11)">
       <defs>
        <path id="CMUSerif-Roman-32" d="M 320 0 
Q 320 115 329 150 
Q 339 186 390 237 
L 1619 1606 
Q 2291 2362 2291 3021 
Q 2291 3450 2067 3757 
Q 1843 4064 1434 4064 
Q 1152 4064 915 3891 
Q 678 3718 570 3411 
Q 589 3418 653 3418 
Q 813 3418 902 3318 
Q 992 3219 992 3085 
Q 992 2912 880 2829 
Q 768 2746 659 2746 
Q 614 2746 556 2755 
Q 499 2765 409 2854 
Q 320 2944 320 3104 
Q 320 3552 659 3907 
Q 998 4262 1517 4262 
Q 2106 4262 2490 3913 
Q 2874 3565 2874 3021 
Q 2874 2829 2816 2656 
Q 2758 2483 2681 2348 
Q 2605 2214 2400 2000 
Q 2195 1786 2028 1632 
Q 1862 1478 1491 1152 
L 813 493 
L 1965 493 
Q 2528 493 2573 544 
Q 2637 634 2714 1114 
L 2874 1114 
L 2694 0 
L 320 0 
z
" transform="scale(0.015625)"/>
       </defs>
       <use xlink:href="#CMUSerif-Roman-32"/>
       <use xlink:href="#CMUSerif-Roman-30" x="49.999985"/>
       <use xlink:href="#CMUSerif-Roman-30" x="99.999969"/>
       <use xlink:href="#CMUSerif-Roman-30" x="149.999954"/>
      </g>
     </g>
    </g>
    <g id="xtick_17">
     <g id="line2d_26">
      <g>
       <use xlink:href="#m54a6508144" x="119.647309" y="239.698906" style="stroke: #000000; stroke-width: 0.8"/>
      </g>
     </g>
     <g id="text_11">
      <!-- 4000 -->
      <g transform="translate(108.647309 254.333594)scale(0.11 -0.11)">
       <defs>
        <path id="CMUSerif-Roman-34" d="M 179 1056 
L 179 1254 
L 2144 4256 
Q 2195 4333 2272 4333 
Q 2342 4333 2358 4304 
Q 2374 4275 2374 4166 
L 2374 1254 
L 3014 1254 
L 3014 1056 
L 2374 1056 
L 2374 499 
Q 2374 314 2451 256 
Q 2528 198 2861 198 
L 2995 198 
L 2995 0 
Q 2733 19 2125 19 
Q 1523 19 1261 0 
L 1261 198 
L 1395 198 
Q 1728 198 1805 256 
Q 1882 314 1882 499 
L 1882 1056 
L 179 1056 
z
M 358 1254 
L 1920 1254 
L 1920 3642 
L 358 1254 
z
" transform="scale(0.015625)"/>
       </defs>
       <use xlink:href="#CMUSerif-Roman-34"/>
       <use xlink:href="#CMUSerif-Roman-30" x="49.999985"/>
       <use xlink:href="#CMUSerif-Roman-30" x="99.999969"/>
       <use xlink:href="#CMUSerif-Roman-30" x="149.999954"/>
      </g>
     </g>
    </g>
    <g id="xtick_18">
     <g id="line2d_27">
      <g>
       <use xlink:href="#m54a6508144" x="177.407667" y="239.698906" style="stroke: #000000; stroke-width: 0.8"/>
      </g>
     </g>
     <g id="text_12">
      <!-- 6000 -->
      <g transform="translate(166.407667 254.333594)scale(0.11 -0.11)">
       <use xlink:href="#CMUSerif-Roman-36"/>
       <use xlink:href="#CMUSerif-Roman-30" x="49.999985"/>
       <use xlink:href="#CMUSerif-Roman-30" x="99.999969"/>
       <use xlink:href="#CMUSerif-Roman-30" x="149.999954"/>
      </g>
     </g>
    </g>
    <g id="xtick_19">
     <g id="line2d_28">
      <g>
       <use xlink:href="#m54a6508144" x="235.168025" y="239.698906" style="stroke: #000000; stroke-width: 0.8"/>
      </g>
     </g>
     <g id="text_13">
      <!-- 8000 -->
      <g transform="translate(224.168025 254.333594)scale(0.11 -0.11)">
       <defs>
        <path id="CMUSerif-Roman-38" d="M 269 966 
Q 269 1683 1190 2144 
Q 794 2413 723 2490 
Q 442 2803 442 3194 
Q 442 3642 781 3952 
Q 1120 4262 1600 4262 
Q 2061 4262 2406 3996 
Q 2752 3731 2752 3309 
Q 2752 2714 1978 2317 
Q 2490 1997 2611 1862 
Q 2925 1517 2925 1075 
Q 2925 563 2531 211 
Q 2138 -141 1594 -141 
Q 1062 -141 665 169 
Q 269 480 269 966 
z
M 589 966 
Q 589 570 886 304 
Q 1184 38 1600 38 
Q 2003 38 2304 268 
Q 2605 499 2605 845 
Q 2605 979 2560 1094 
Q 2515 1210 2425 1302 
Q 2336 1395 2281 1436 
Q 2227 1478 2125 1549 
L 1338 2048 
Q 589 1632 589 966 
z
M 723 3443 
Q 723 3136 1043 2925 
L 1837 2413 
Q 2470 2784 2470 3309 
Q 2470 3648 2211 3875 
Q 1952 4102 1594 4102 
Q 1242 4102 982 3916 
Q 723 3731 723 3443 
z
" transform="scale(0.015625)"/>
       </defs>
       <use xlink:href="#CMUSerif-Roman-38"/>
       <use xlink:href="#CMUSerif-Roman-30" x="49.999985"/>
       <use xlink:href="#CMUSerif-Roman-30" x="99.999969"/>
       <use xlink:href="#CMUSerif-Roman-30" x="149.999954"/>
      </g>
     </g>
    </g>
    <g id="xtick_20">
     <g id="line2d_29">
      <g>
       <use xlink:href="#m54a6508144" x="292.928382" y="239.698906" style="stroke: #000000; stroke-width: 0.8"/>
      </g>
     </g>
     <g id="text_14">
      <!-- 10000 -->
      <g transform="translate(279.178382 254.333594)scale(0.11 -0.11)">
       <defs>
        <path id="CMUSerif-Roman-31" d="M 570 3654 
L 570 3853 
Q 1338 3853 1734 4262 
Q 1843 4262 1862 4236 
Q 1882 4211 1882 4096 
L 1882 506 
Q 1882 314 1974 256 
Q 2067 198 2477 198 
L 2682 198 
L 2682 0 
Q 2458 19 1645 19 
Q 832 19 608 0 
L 608 198 
L 813 198 
Q 1216 198 1312 256 
Q 1408 314 1408 506 
L 1408 3821 
Q 1075 3654 570 3654 
z
" transform="scale(0.015625)"/>
       </defs>
       <use xlink:href="#CMUSerif-Roman-31"/>
       <use xlink:href="#CMUSerif-Roman-30" x="49.999985"/>
       <use xlink:href="#CMUSerif-Roman-30" x="99.999969"/>
       <use xlink:href="#CMUSerif-Roman-30" x="149.999954"/>
       <use xlink:href="#CMUSerif-Roman-30" x="199.999939"/>
      </g>
     </g>
    </g>
    <g id="text_15">
     <!-- Time (ms) -->
     <g transform="translate(143.088639 268.718281)scale(0.11 -0.11)">
      <defs>
       <path id="CMUSerif-Roman-54" d="M 230 2893 
L 352 4333 
L 4262 4333 
L 4384 2893 
L 4224 2893 
Q 4198 3181 4176 3347 
Q 4154 3514 4099 3670 
Q 4045 3827 3977 3904 
Q 3910 3981 3782 4041 
Q 3654 4102 3488 4118 
Q 3322 4134 3072 4134 
Q 2778 4134 2707 4122 
Q 2630 4102 2611 4048 
Q 2592 3994 2592 3878 
L 2592 506 
Q 2592 378 2617 326 
Q 2643 275 2790 236 
Q 2938 198 3264 198 
L 3520 198 
L 3520 0 
Q 3258 19 2304 19 
Q 1357 19 1094 0 
L 1094 198 
L 1350 198 
Q 1677 198 1824 236 
Q 1971 275 1996 326 
Q 2022 378 2022 506 
L 2022 3878 
Q 2022 3968 2016 4006 
Q 2010 4045 1981 4077 
Q 1952 4109 1888 4121 
Q 1824 4134 1542 4134 
Q 1293 4134 1126 4118 
Q 960 4102 832 4041 
Q 704 3981 637 3904 
Q 570 3827 515 3670 
Q 461 3514 438 3347 
Q 416 3181 390 2893 
L 230 2893 
z
" transform="scale(0.015625)"/>
       <path id="CMUSerif-Roman-69" d="M 211 0 
L 211 198 
Q 550 198 630 240 
Q 710 282 710 486 
L 710 2208 
Q 710 2445 630 2502 
Q 550 2560 237 2560 
L 237 2758 
L 1133 2829 
L 1133 480 
Q 1133 288 1200 243 
Q 1267 198 1581 198 
L 1581 0 
Q 928 19 915 19 
Q 826 19 211 0 
z
M 480 3942 
Q 480 4070 579 4176 
Q 678 4282 819 4282 
Q 960 4282 1059 4186 
Q 1158 4090 1158 3942 
Q 1158 3795 1059 3699 
Q 960 3603 819 3603 
Q 672 3603 576 3705 
Q 480 3808 480 3942 
z
" transform="scale(0.015625)"/>
       <path id="CMUSerif-Roman-6d" d="M 205 0 
L 205 198 
Q 544 198 624 240 
Q 704 282 704 486 
L 704 2202 
Q 704 2438 621 2499 
Q 538 2560 205 2560 
L 205 2758 
L 1107 2829 
L 1107 2157 
Q 1408 2829 2054 2829 
Q 2803 2829 2906 2202 
Q 3014 2445 3244 2637 
Q 3475 2829 3834 2829 
Q 4314 2829 4506 2592 
Q 4646 2432 4675 2253 
Q 4704 2074 4704 1613 
L 4704 390 
Q 4710 256 4812 227 
Q 4915 198 5203 198 
L 5203 0 
Q 4550 19 4486 19 
Q 4435 19 3763 0 
L 3763 198 
Q 4102 198 4182 240 
Q 4262 282 4262 486 
L 4262 1978 
Q 4262 2304 4163 2496 
Q 4064 2688 3789 2688 
Q 3456 2688 3190 2409 
Q 2925 2131 2925 1664 
L 2925 486 
Q 2925 282 3005 240 
Q 3085 198 3424 198 
L 3424 0 
Q 2771 19 2707 19 
Q 2656 19 1984 0 
L 1984 198 
Q 2323 198 2403 240 
Q 2483 282 2483 486 
L 2483 1978 
Q 2483 2304 2384 2496 
Q 2285 2688 2010 2688 
Q 1677 2688 1411 2409 
Q 1146 2131 1146 1664 
L 1146 486 
Q 1146 282 1226 240 
Q 1306 198 1645 198 
L 1645 0 
Q 992 19 928 19 
Q 877 19 205 0 
z
" transform="scale(0.015625)"/>
       <path id="CMUSerif-Roman-65" d="M 179 1408 
Q 179 2010 566 2438 
Q 954 2867 1510 2867 
Q 2074 2867 2365 2502 
Q 2656 2138 2656 1613 
Q 2656 1517 2630 1497 
Q 2605 1478 2496 1478 
L 710 1478 
Q 710 826 902 518 
Q 1171 90 1626 90 
Q 1690 90 1763 102 
Q 1837 115 1990 169 
Q 2144 224 2278 371 
Q 2413 518 2490 749 
Q 2509 838 2573 838 
Q 2656 838 2656 762 
Q 2656 704 2595 579 
Q 2534 454 2419 304 
Q 2304 154 2080 42 
Q 1856 -70 1587 -70 
Q 1024 -70 601 355 
Q 179 781 179 1408 
z
M 717 1613 
L 2234 1613 
Q 2234 1747 2211 1897 
Q 2189 2048 2121 2256 
Q 2054 2464 1897 2595 
Q 1741 2726 1510 2726 
Q 1408 2726 1296 2681 
Q 1184 2637 1049 2531 
Q 915 2426 822 2186 
Q 730 1946 717 1613 
z
" transform="scale(0.015625)"/>
       <path id="CMUSerif-Roman-20" transform="scale(0.015625)"/>
       <path id="CMUSerif-Roman-28" d="M 634 1600 
Q 634 2682 1037 3552 
Q 1210 3917 1450 4224 
Q 1690 4531 1850 4665 
Q 2010 4800 2054 4800 
Q 2118 4800 2118 4736 
Q 2118 4704 2035 4627 
Q 1005 3578 1005 1600 
Q 1005 -384 2010 -1395 
Q 2118 -1504 2118 -1536 
Q 2118 -1600 2054 -1600 
Q 2010 -1600 1856 -1472 
Q 1702 -1344 1465 -1049 
Q 1229 -755 1056 -397 
Q 634 474 634 1600 
z
" transform="scale(0.015625)"/>
       <path id="CMUSerif-Roman-73" d="M 211 83 
L 211 928 
Q 211 998 214 1024 
Q 218 1050 237 1069 
Q 256 1088 294 1088 
Q 339 1088 355 1069 
Q 371 1050 384 979 
Q 480 538 688 304 
Q 896 70 1274 70 
Q 1632 70 1814 230 
Q 1997 390 1997 653 
Q 1997 1120 1331 1242 
Q 947 1318 787 1369 
Q 627 1421 486 1536 
Q 211 1760 211 2080 
Q 211 2400 454 2633 
Q 698 2867 1235 2867 
Q 1594 2867 1837 2688 
Q 1907 2746 1946 2790 
Q 2029 2867 2074 2867 
Q 2125 2867 2134 2835 
Q 2144 2803 2144 2714 
L 2144 2067 
Q 2144 1997 2141 1971 
Q 2138 1946 2118 1930 
Q 2099 1914 2061 1914 
Q 1990 1914 1984 1971 
Q 1933 2746 1235 2746 
Q 858 2746 688 2602 
Q 518 2458 518 2259 
Q 518 2150 569 2067 
Q 621 1984 688 1936 
Q 755 1888 880 1843 
Q 1005 1798 1081 1782 
Q 1158 1766 1306 1734 
Q 1818 1638 2035 1427 
Q 2304 1158 2304 819 
Q 2304 442 2048 186 
Q 1792 -70 1274 -70 
Q 858 -70 570 205 
Q 531 166 502 134 
Q 474 102 464 89 
Q 454 77 451 70 
Q 448 64 442 58 
Q 314 -70 282 -70 
Q 230 -70 220 -38 
Q 211 -6 211 83 
z
" transform="scale(0.015625)"/>
       <path id="CMUSerif-Roman-29" d="M 365 -1536 
Q 365 -1504 448 -1427 
Q 1478 -378 1478 1600 
Q 1478 3584 486 4589 
Q 365 4704 365 4736 
Q 365 4800 429 4800 
Q 474 4800 627 4672 
Q 781 4544 1017 4249 
Q 1254 3955 1427 3597 
Q 1850 2726 1850 1600 
Q 1850 518 1446 -352 
Q 1274 -717 1034 -1024 
Q 794 -1331 634 -1465 
Q 474 -1600 429 -1600 
Q 365 -1600 365 -1536 
z
" transform="scale(0.015625)"/>
      </defs>
      <use xlink:href="#CMUSerif-Roman-54"/>
      <use xlink:href="#CMUSerif-Roman-69" x="72.199982"/>
      <use xlink:href="#CMUSerif-Roman-6d" x="99.899979"/>
      <use xlink:href="#CMUSerif-Roman-65" x="183.199966"/>
      <use xlink:href="#CMUSerif-Roman-20" x="227.59996"/>
      <use xlink:href="#CMUSerif-Roman-28" x="260.899948"/>
      <use xlink:href="#CMUSerif-Roman-6d" x="299.699936"/>
      <use xlink:href="#CMUSerif-Roman-73" x="382.999924"/>
      <use xlink:href="#CMUSerif-Roman-29" x="422.399918"/>
     </g>
    </g>
   </g>
   <g id="matplotlib.axis_8">
    <g id="ytick_7">
     <g id="line2d_30">
      <g>
       <use xlink:href="#m333d9c004d" x="33.757656" y="239.150463" style="stroke: #000000; stroke-width: 0.8"/>
      </g>
     </g>
     <g id="text_16">
      <!-- 0.78 -->
      <g transform="translate(7.2 242.967807)scale(0.11 -0.11)">
       <use xlink:href="#CMUSerif-Roman-30"/>
       <use xlink:href="#CMUSerif-Roman-2e" x="49.999985"/>
       <use xlink:href="#CMUSerif-Roman-37" x="77.799973"/>
       <use xlink:href="#CMUSerif-Roman-38" x="127.799957"/>
      </g>
     </g>
    </g>
    <g id="ytick_8">
     <g id="line2d_31">
      <g>
       <use xlink:href="#m333d9c004d" x="33.757656" y="208.66723" style="stroke: #000000; stroke-width: 0.8"/>
      </g>
     </g>
     <g id="text_17">
      <!-- 0.80 -->
      <g transform="translate(7.2 212.484574)scale(0.11 -0.11)">
       <use xlink:href="#CMUSerif-Roman-30"/>
       <use xlink:href="#CMUSerif-Roman-2e" x="49.999985"/>
       <use xlink:href="#CMUSerif-Roman-38" x="77.799973"/>
       <use xlink:href="#CMUSerif-Roman-30" x="127.799957"/>
      </g>
     </g>
    </g>
   </g>
   <g id="line2d_32">
    <path d="M 46.291654 208.66723 
L 66.507779 208.66723 
L 66.796581 210.860594 
L 121.668921 210.860594 
L 121.957723 222.624929 
L 172.498036 222.624929 
L 172.786838 235.348526 
L 226.503971 235.348526 
L 226.792773 224.5418 
L 274.445068 224.5418 
L 274.73387 238.221207 
L 290.617968 238.221207 
L 290.617968 238.221207 
" clip-path="url(#p2ed59ba8e1)" style="fill: none; stroke: #808080; stroke-width: 1.5; stroke-linecap: square"/>
   </g>
   <g id="LineCollection_5">
    <path d="M 46.002852 238.221207 
L 46.002852 208.66723 
" clip-path="url(#p2ed59ba8e1)" style="fill: none; stroke: #808080; stroke-opacity: 0.5; stroke-width: 1.5"/>
    <path d="M 66.507779 238.221207 
L 66.507779 208.66723 
" clip-path="url(#p2ed59ba8e1)" style="fill: none; stroke: #808080; stroke-opacity: 0.5; stroke-width: 1.5"/>
    <path d="M 86.435103 238.221207 
L 86.435103 208.66723 
" clip-path="url(#p2ed59ba8e1)" style="fill: none; stroke: #808080; stroke-opacity: 0.5; stroke-width: 1.5"/>
    <path d="M 106.94003 238.221207 
L 106.94003 208.66723 
" clip-path="url(#p2ed59ba8e1)" style="fill: none; stroke: #808080; stroke-opacity: 0.5; stroke-width: 1.5"/>
    <path d="M 121.668921 238.221207 
L 121.668921 208.66723 
" clip-path="url(#p2ed59ba8e1)" style="fill: none; stroke: #808080; stroke-opacity: 0.5; stroke-width: 1.5"/>
    <path d="M 140.152236 238.221207 
L 140.152236 208.66723 
" clip-path="url(#p2ed59ba8e1)" style="fill: none; stroke: #808080; stroke-opacity: 0.5; stroke-width: 1.5"/>
    <path d="M 160.657163 238.221207 
L 160.657163 208.66723 
" clip-path="url(#p2ed59ba8e1)" style="fill: none; stroke: #808080; stroke-opacity: 0.5; stroke-width: 1.5"/>
    <path d="M 172.498036 238.221207 
L 172.498036 208.66723 
" clip-path="url(#p2ed59ba8e1)" style="fill: none; stroke: #808080; stroke-opacity: 0.5; stroke-width: 1.5"/>
    <path d="M 188.382135 238.221207 
L 188.382135 208.66723 
" clip-path="url(#p2ed59ba8e1)" style="fill: none; stroke: #808080; stroke-opacity: 0.5; stroke-width: 1.5"/>
    <path d="M 208.887062 238.221207 
L 208.887062 208.66723 
" clip-path="url(#p2ed59ba8e1)" style="fill: none; stroke: #808080; stroke-opacity: 0.5; stroke-width: 1.5"/>
    <path d="M 226.503971 238.221207 
L 226.503971 208.66723 
" clip-path="url(#p2ed59ba8e1)" style="fill: none; stroke: #808080; stroke-opacity: 0.5; stroke-width: 1.5"/>
    <path d="M 242.099267 238.221207 
L 242.099267 208.66723 
" clip-path="url(#p2ed59ba8e1)" style="fill: none; stroke: #808080; stroke-opacity: 0.5; stroke-width: 1.5"/>
    <path d="M 262.604195 238.221207 
L 262.604195 208.66723 
" clip-path="url(#p2ed59ba8e1)" style="fill: none; stroke: #808080; stroke-opacity: 0.5; stroke-width: 1.5"/>
    <path d="M 274.445068 238.221207 
L 274.445068 208.66723 
" clip-path="url(#p2ed59ba8e1)" style="fill: none; stroke: #808080; stroke-opacity: 0.5; stroke-width: 1.5"/>
    <path d="M 290.329166 238.221207 
L 290.329166 208.66723 
" clip-path="url(#p2ed59ba8e1)" style="fill: none; stroke: #808080; stroke-opacity: 0.5; stroke-width: 1.5"/>
   </g>
   <g id="patch_52">
    <path d="M 33.757656 239.698906 
L 33.757656 207.189531 
" style="fill: none; stroke: #000000; stroke-width: 0.8; stroke-linejoin: miter; stroke-linecap: square"/>
   </g>
   <g id="patch_53">
    <path d="M 33.757656 239.698906 
L 303.151966 239.698906 
" style="fill: none; stroke: #000000; stroke-width: 0.8; stroke-linejoin: miter; stroke-linecap: square"/>
   </g>
   <g id="text_18">
    <!-- dI/dt -->
    <g transform="translate(155.480827 201.189531)scale(0.11 -0.11)">
     <defs>
      <path id="CMUSerif-Roman-49" d="M 179 0 
L 179 198 
L 346 198 
Q 704 198 787 256 
Q 870 314 870 499 
L 870 3872 
Q 870 4058 787 4115 
Q 704 4173 346 4173 
L 179 4173 
L 179 4371 
Q 403 4352 1158 4352 
Q 1907 4352 2131 4371 
L 2131 4173 
L 1965 4173 
Q 1606 4173 1523 4115 
Q 1440 4058 1440 3872 
L 1440 499 
Q 1440 314 1523 256 
Q 1606 198 1965 198 
L 2131 198 
L 2131 0 
Q 1907 19 1152 19 
Q 403 19 179 0 
z
" transform="scale(0.015625)"/>
     </defs>
     <use xlink:href="#CMUSerif-Roman-64"/>
     <use xlink:href="#CMUSerif-Roman-49" x="55.499985"/>
     <use xlink:href="#CMUSerif-Roman-2f" x="91.599976"/>
     <use xlink:href="#CMUSerif-Roman-64" x="141.59996"/>
     <use xlink:href="#CMUSerif-Roman-74" x="197.099945"/>
    </g>
   </g>
  </g>
 </g>
 <defs>
  <clipPath id="p415333a609">
   <rect x="33.757656" y="21.427656" width="269.39431" height="32.509375"/>
  </clipPath>
  <clipPath id="pf7c8ca99ad">
   <rect x="33.757656" y="83.348281" width="269.39431" height="32.509375"/>
  </clipPath>
  <clipPath id="pc19882ad45">
   <rect x="33.757656" y="145.268906" width="269.39431" height="32.509375"/>
  </clipPath>
  <clipPath id="p2ed59ba8e1">
   <rect x="33.757656" y="207.189531" width="269.39431" height="32.509375"/>
  </clipPath>
 </defs>
</svg>
