<?xml version="1.0" encoding="utf-8" standalone="no"?>
<!DOCTYPE svg PUBLIC "-//W3C//DTD SVG 1.1//EN"
  "http://www.w3.org/Graphics/SVG/1.1/DTD/svg11.dtd">
<svg xmlns:xlink="http://www.w3.org/1999/xlink" width="451.497656pt" height="278.668281pt" viewBox="0 0 451.497656 278.668281" xmlns="http://www.w3.org/2000/svg" version="1.1">
 <metadata>
  <rdf:RDF xmlns:dc="http://purl.org/dc/elements/1.1/" xmlns:cc="http://creativecommons.org/ns#" xmlns:rdf="http://www.w3.org/1999/02/22-rdf-syntax-ns#">
   <cc:Work>
    <dc:type rdf:resource="http://purl.org/dc/dcmitype/StillImage"/>
    <dc:date>2022-07-28T08:34:26.131599</dc:date>
    <dc:format>image/svg+xml</dc:format>
    <dc:creator>
     <cc:Agent>
      <dc:title>Matplotlib v3.5.1, https://matplotlib.org/</dc:title>
     </cc:Agent>
    </dc:creator>
   </cc:Work>
  </rdf:RDF>
 </metadata>
 <defs>
  <style type="text/css">*{stroke-linejoin: round; stroke-linecap: butt}</style>
 </defs>
 <g id="figure_1">
  <g id="patch_1">
   <path d="M 0 278.668281 
L 451.497656 278.668281 
L 451.497656 0 
L 0 0 
L 0 278.668281 
z
" style="fill: none"/>
  </g>
  <g id="axes_1">
   <g id="patch_2">
    <path d="M 39.257656 53.937031 
L 444.297656 53.937031 
L 444.297656 21.427656 
L 39.257656 21.427656 
z
" style="fill: #ffffff"/>
   </g>
   <g id="patch_3">
    <path d="M 133.851637 53.937031 
L 133.851637 21.427656 
L 162.06759 21.427656 
L 162.06759 53.937031 
z
" clip-path="url(#p011b712e08)" style="fill: #ff0000; opacity: 0.1"/>
   </g>
   <g id="patch_4">
    <path d="M 108.809979 53.937031 
L 108.809979 21.427656 
L 133.851637 21.427656 
L 133.851637 53.937031 
z
" clip-path="url(#p011b712e08)" style="fill: #0000ff; opacity: 0.1"/>
   </g>
   <g id="patch_5">
    <path d="M 201.569924 53.937031 
L 201.569924 21.427656 
L 220.262992 21.427656 
L 220.262992 53.937031 
z
" clip-path="url(#p011b712e08)" style="fill: #ff0000; opacity: 0.1"/>
   </g>
   <g id="patch_6">
    <path d="M 187.109248 53.937031 
L 187.109248 21.427656 
L 201.569924 21.427656 
L 201.569924 53.937031 
z
" clip-path="url(#p011b712e08)" style="fill: #0000ff; opacity: 0.1"/>
   </g>
   <g id="patch_7">
    <path d="M 266.819314 53.937031 
L 266.819314 21.427656 
L 287.27588 21.427656 
L 287.27588 53.937031 
z
" clip-path="url(#p011b712e08)" style="fill: #ff0000; opacity: 0.1"/>
   </g>
   <g id="patch_8">
    <path d="M 245.30465 53.937031 
L 245.30465 21.427656 
L 266.819314 21.427656 
L 266.819314 53.937031 
z
" clip-path="url(#p011b712e08)" style="fill: #0000ff; opacity: 0.1"/>
   </g>
   <g id="patch_9">
    <path d="M 330.305208 53.937031 
L 330.305208 21.427656 
L 348.998276 21.427656 
L 348.998276 53.937031 
z
" clip-path="url(#p011b712e08)" style="fill: #ff0000; opacity: 0.1"/>
   </g>
   <g id="patch_10">
    <path d="M 312.317538 53.937031 
L 312.317538 21.427656 
L 330.305208 21.427656 
L 330.305208 53.937031 
z
" clip-path="url(#p011b712e08)" style="fill: #0000ff; opacity: 0.1"/>
   </g>
   <g id="patch_11">
    <path d="M 402.608586 53.937031 
L 402.608586 21.427656 
L 425.181348 21.427656 
L 425.181348 53.937031 
z
" clip-path="url(#p011b712e08)" style="fill: #ff0000; opacity: 0.1"/>
   </g>
   <g id="patch_12">
    <path d="M 374.039934 53.937031 
L 374.039934 21.427656 
L 402.608586 21.427656 
L 402.608586 53.937031 
z
" clip-path="url(#p011b712e08)" style="fill: #0000ff; opacity: 0.1"/>
   </g>
   <g id="matplotlib.axis_1">
    <g id="xtick_1">
     <g id="line2d_1">
      <defs>
       <path id="m0fa5d79ce8" d="M 0 0 
L 0 3.5 
" style="stroke: #000000; stroke-width: 0.8"/>
      </defs>
      <g>
       <use xlink:href="#m0fa5d79ce8" x="57.668565" y="53.937031" style="stroke: #000000; stroke-width: 0.8"/>
      </g>
     </g>
    </g>
    <g id="xtick_2">
     <g id="line2d_2">
      <g>
       <use xlink:href="#m0fa5d79ce8" x="128.208447" y="53.937031" style="stroke: #000000; stroke-width: 0.8"/>
      </g>
     </g>
    </g>
    <g id="xtick_3">
     <g id="line2d_3">
      <g>
       <use xlink:href="#m0fa5d79ce8" x="198.748328" y="53.937031" style="stroke: #000000; stroke-width: 0.8"/>
      </g>
     </g>
    </g>
    <g id="xtick_4">
     <g id="line2d_4">
      <g>
       <use xlink:href="#m0fa5d79ce8" x="269.28821" y="53.937031" style="stroke: #000000; stroke-width: 0.8"/>
      </g>
     </g>
    </g>
    <g id="xtick_5">
     <g id="line2d_5">
      <g>
       <use xlink:href="#m0fa5d79ce8" x="339.828092" y="53.937031" style="stroke: #000000; stroke-width: 0.8"/>
      </g>
     </g>
    </g>
    <g id="xtick_6">
     <g id="line2d_6">
      <g>
       <use xlink:href="#m0fa5d79ce8" x="410.367973" y="53.937031" style="stroke: #000000; stroke-width: 0.8"/>
      </g>
     </g>
    </g>
   </g>
   <g id="matplotlib.axis_2">
    <g id="ytick_1">
     <g id="line2d_7">
      <defs>
       <path id="m36bbc07a98" d="M 0 0 
L -3.5 0 
" style="stroke: #000000; stroke-width: 0.8"/>
      </defs>
      <g>
       <use xlink:href="#m36bbc07a98" x="39.257656" y="43.162874" style="stroke: #000000; stroke-width: 0.8"/>
      </g>
     </g>
     <g id="text_1">
      <!-- 0.8 -->
      <g transform="translate(18.2 46.980218)scale(0.11 -0.11)">
       <defs>
        <path id="CMUSerif-Roman-30" d="M 250 2048 
Q 250 2989 486 3501 
Q 819 4262 1600 4262 
Q 1766 4262 1939 4217 
Q 2112 4173 2333 4000 
Q 2554 3827 2688 3546 
Q 2944 3002 2944 2048 
Q 2944 1114 2707 602 
Q 2362 -141 1594 -141 
Q 1306 -141 1014 6 
Q 723 154 538 506 
Q 250 1037 250 2048 
z
M 781 2125 
Q 781 1158 851 774 
Q 928 358 1142 179 
Q 1357 0 1594 0 
Q 1850 0 2064 192 
Q 2278 384 2342 800 
Q 2413 1210 2413 2125 
Q 2413 3014 2349 3373 
Q 2266 3789 2042 3955 
Q 1818 4122 1594 4122 
Q 1510 4122 1420 4096 
Q 1331 4070 1203 4000 
Q 1075 3930 976 3750 
Q 877 3571 832 3302 
Q 781 2957 781 2125 
z
" transform="scale(0.015625)"/>
        <path id="CMUSerif-Roman-2e" d="M 640 102 
Q 544 205 544 339 
Q 544 474 640 573 
Q 736 672 883 672 
Q 1024 672 1120 579 
Q 1216 486 1216 339 
Q 1216 192 1113 96 
Q 1011 0 883 0 
Q 736 0 640 102 
z
" transform="scale(0.015625)"/>
        <path id="CMUSerif-Roman-38" d="M 269 966 
Q 269 1683 1190 2144 
Q 794 2413 723 2490 
Q 442 2803 442 3194 
Q 442 3642 781 3952 
Q 1120 4262 1600 4262 
Q 2061 4262 2406 3996 
Q 2752 3731 2752 3309 
Q 2752 2714 1978 2317 
Q 2490 1997 2611 1862 
Q 2925 1517 2925 1075 
Q 2925 563 2531 211 
Q 2138 -141 1594 -141 
Q 1062 -141 665 169 
Q 269 480 269 966 
z
M 589 966 
Q 589 570 886 304 
Q 1184 38 1600 38 
Q 2003 38 2304 268 
Q 2605 499 2605 845 
Q 2605 979 2560 1094 
Q 2515 1210 2425 1302 
Q 2336 1395 2281 1436 
Q 2227 1478 2125 1549 
L 1338 2048 
Q 589 1632 589 966 
z
M 723 3443 
Q 723 3136 1043 2925 
L 1837 2413 
Q 2470 2784 2470 3309 
Q 2470 3648 2211 3875 
Q 1952 4102 1594 4102 
Q 1242 4102 982 3916 
Q 723 3731 723 3443 
z
" transform="scale(0.015625)"/>
       </defs>
       <use xlink:href="#CMUSerif-Roman-30"/>
       <use xlink:href="#CMUSerif-Roman-2e" x="49.999985"/>
       <use xlink:href="#CMUSerif-Roman-38" x="77.799973"/>
      </g>
     </g>
    </g>
    <g id="ytick_2">
     <g id="line2d_8">
      <g>
       <use xlink:href="#m36bbc07a98" x="39.257656" y="30.370715" style="stroke: #000000; stroke-width: 0.8"/>
      </g>
     </g>
     <g id="text_2">
      <!-- 0.9 -->
      <g transform="translate(18.2 34.188059)scale(0.11 -0.11)">
       <defs>
        <path id="CMUSerif-Roman-39" d="M 269 2822 
Q 269 3162 368 3395 
Q 467 3629 678 3859 
Q 1062 4262 1619 4262 
Q 1856 4262 2067 4163 
Q 2278 4064 2480 3837 
Q 2682 3610 2803 3165 
Q 2925 2720 2925 2106 
Q 2925 1114 2445 486 
Q 1965 -141 1318 -141 
Q 909 -141 669 44 
Q 429 230 429 550 
Q 429 717 521 787 
Q 614 858 723 858 
Q 838 858 928 781 
Q 1018 704 1018 563 
Q 1018 448 944 358 
Q 870 269 685 269 
Q 870 38 1312 38 
Q 1472 38 1632 112 
Q 1792 186 1965 365 
Q 2138 544 2243 921 
Q 2349 1299 2349 1830 
L 2349 2035 
Q 2093 1395 1549 1395 
Q 1011 1395 640 1808 
Q 269 2221 269 2822 
z
M 845 2816 
Q 845 2182 960 1946 
Q 1158 1542 1555 1542 
Q 1946 1542 2141 1891 
Q 2336 2240 2336 2694 
Q 2336 3322 2234 3597 
Q 2042 4102 1619 4102 
Q 1197 4102 979 3699 
Q 845 3462 845 2816 
z
" transform="scale(0.015625)"/>
       </defs>
       <use xlink:href="#CMUSerif-Roman-30"/>
       <use xlink:href="#CMUSerif-Roman-2e" x="49.999985"/>
       <use xlink:href="#CMUSerif-Roman-39" x="77.799973"/>
      </g>
     </g>
    </g>
   </g>
   <g id="line2d_9">
    <path d="M 57.668565 52.459332 
L 58.373964 46.737411 
L 59.079363 42.424456 
L 59.784762 39.190033 
L 60.490161 36.766756 
L 61.195559 34.915078 
L 62.253658 32.848232 
L 63.311756 31.334462 
L 64.722553 29.795413 
L 66.486051 28.367455 
L 68.249548 27.268875 
L 70.365744 26.262201 
L 72.129241 25.584369 
L 74.950836 24.759216 
L 77.772432 24.188682 
L 82.357524 23.610531 
L 83.768322 23.496614 
L 84.121021 35.696967 
L 84.82642 33.869673 
L 85.884518 31.892619 
L 86.942616 30.438244 
L 88.353414 29.018733 
L 89.411512 28.179369 
L 91.175009 27.099263 
L 93.643905 25.95038 
L 95.760101 25.207604 
L 99.992494 24.226971 
L 104.224887 23.678871 
L 108.809979 23.358388 
L 109.162679 35.572564 
L 109.868078 33.750003 
L 110.926176 31.758875 
L 111.984274 30.31923 
L 113.042372 29.219677 
L 114.45317 28.10089 
L 115.863968 27.200687 
L 119.038262 25.753332 
L 121.507158 24.96234 
L 123.976054 24.431255 
L 128.208447 23.781475 
L 131.735441 23.482691 
L 133.851637 23.352452 
L 134.204337 35.567221 
L 135.262435 33.228234 
L 136.320533 31.532043 
L 137.378632 30.229342 
L 138.789429 28.870232 
L 140.552926 27.577938 
L 142.316423 26.57051 
L 144.785319 25.486136 
L 147.254215 24.704759 
L 149.370411 24.258493 
L 151.839307 23.836615 
L 157.482498 23.249077 
L 162.06759 23.055669 
L 162.420289 35.300116 
L 163.478388 32.748082 
L 164.536486 30.959718 
L 165.594584 29.612388 
L 167.005382 28.275486 
L 168.768879 27.041328 
L 170.179676 26.289682 
L 172.295873 25.396287 
L 174.764769 24.670248 
L 177.586364 24.07158 
L 180.407959 23.65218 
L 185.69845 23.216806 
L 187.109248 23.14428 
L 187.461947 35.379866 
L 188.520046 32.810481 
L 189.578144 31.03259 
L 190.636242 29.681037 
L 191.69434 28.642775 
L 193.457837 27.339332 
L 195.221334 26.339243 
L 197.337531 25.463659 
L 200.511826 24.521016 
L 201.569924 24.29618 
L 201.922623 36.416577 
L 202.980721 34.129318 
L 204.03882 32.426927 
L 205.449617 30.630187 
L 206.507715 29.544043 
L 208.623912 27.789288 
L 210.387409 26.70291 
L 212.503605 25.650077 
L 214.972501 24.758985 
L 217.794097 24.055292 
L 220.262992 23.637748 
L 220.615692 35.823988 
L 221.67379 33.23464 
L 222.731888 31.377811 
L 223.789986 29.952899 
L 225.200784 28.489371 
L 226.611582 27.380999 
L 228.375079 26.303721 
L 230.491275 25.36666 
L 232.960171 24.563542 
L 235.076368 24.052303 
L 237.897963 23.588145 
L 240.719558 23.30274 
L 245.30465 23.008686 
L 245.65735 35.257832 
L 246.715448 32.711223 
L 247.773546 30.904988 
L 248.831644 29.537093 
L 250.242442 28.15556 
L 251.65324 27.106106 
L 253.416737 26.095895 
L 255.180234 25.334334 
L 256.943731 24.735401 
L 260.118025 24.005284 
L 263.64502 23.47664 
L 266.819314 23.189866 
L 267.172014 35.420894 
L 267.877412 33.554947 
L 268.935511 31.457295 
L 269.993609 29.934674 
L 271.051707 28.753823 
L 272.815204 27.333529 
L 274.578701 26.270734 
L 276.694898 25.363905 
L 278.458395 24.781223 
L 280.927291 24.180492 
L 284.101585 23.618868 
L 286.570481 23.363498 
L 287.27588 23.303269 
L 287.628579 35.522956 
L 288.333978 33.724397 
L 289.392076 31.702059 
L 290.450175 30.190457 
L 291.508273 28.99468 
L 292.91907 27.794135 
L 294.329868 26.84157 
L 296.093365 25.920403 
L 298.209562 25.068715 
L 300.325758 24.449445 
L 302.441954 24.014268 
L 304.558151 23.674953 
L 310.554041 23.140622 
L 312.317538 23.037174 
L 312.670237 35.283471 
L 313.728335 32.75687 
L 314.786434 30.946865 
L 315.844532 29.561226 
L 317.25533 28.181232 
L 318.666127 27.137162 
L 320.429624 26.139725 
L 323.251219 24.99274 
L 325.720115 24.329023 
L 327.836312 23.886381 
L 330.305208 23.551467 
L 330.657907 35.746335 
L 331.716005 33.220198 
L 332.774103 31.390316 
L 333.832202 29.974135 
L 335.242999 28.539361 
L 337.006496 27.22261 
L 339.122693 26.011054 
L 341.238889 25.154567 
L 343.707785 24.432543 
L 346.176681 23.9178 
L 348.998276 23.544857 
L 349.350976 35.740386 
L 350.056374 33.912371 
L 351.114473 31.838195 
L 352.172571 30.326839 
L 353.583369 28.787279 
L 354.994166 27.608032 
L 357.110363 26.297512 
L 358.87386 25.457061 
L 361.342756 24.632038 
L 364.164351 23.981729 
L 365.927848 23.6989 
L 369.807541 23.270529 
L 374.039934 23.039293 
L 374.392634 35.285379 
L 375.450732 32.749598 
L 376.50883 30.929171 
L 377.566928 29.574688 
L 378.625027 28.53313 
L 380.035824 27.386551 
L 381.799321 26.324556 
L 383.562818 25.51922 
L 386.384413 24.591102 
L 389.206009 23.959697 
L 393.791101 23.363838 
L 402.608586 22.905355 
L 402.961286 35.164834 
L 403.666684 33.305358 
L 404.372083 31.852921 
L 405.430182 30.190575 
L 406.840979 28.585065 
L 408.251777 27.437045 
L 410.015274 26.366084 
L 411.778771 25.537198 
L 413.894967 24.770026 
L 416.011164 24.241074 
L 418.48006 23.794023 
L 421.301655 23.45126 
L 425.534048 23.14355 
L 425.534048 23.14355 
" clip-path="url(#p011b712e08)" style="fill: none; stroke: #808080; stroke-width: 1.5; stroke-linecap: square"/>
   </g>
   <g id="LineCollection_1">
    <path d="M 83.768322 52.459332 
L 83.768322 22.905355 
" clip-path="url(#p011b712e08)" style="fill: none; stroke: #808080; stroke-opacity: 0.5; stroke-width: 1.5"/>
    <path d="M 108.809979 52.459332 
L 108.809979 22.905355 
" clip-path="url(#p011b712e08)" style="fill: none; stroke: #808080; stroke-opacity: 0.5; stroke-width: 1.5"/>
    <path d="M 133.851637 52.459332 
L 133.851637 22.905355 
" clip-path="url(#p011b712e08)" style="fill: none; stroke: #808080; stroke-opacity: 0.5; stroke-width: 1.5"/>
    <path d="M 162.06759 52.459332 
L 162.06759 22.905355 
" clip-path="url(#p011b712e08)" style="fill: none; stroke: #808080; stroke-opacity: 0.5; stroke-width: 1.5"/>
    <path d="M 187.109248 52.459332 
L 187.109248 22.905355 
" clip-path="url(#p011b712e08)" style="fill: none; stroke: #808080; stroke-opacity: 0.5; stroke-width: 1.5"/>
    <path d="M 201.569924 52.459332 
L 201.569924 22.905355 
" clip-path="url(#p011b712e08)" style="fill: none; stroke: #808080; stroke-opacity: 0.5; stroke-width: 1.5"/>
    <path d="M 220.262992 52.459332 
L 220.262992 22.905355 
" clip-path="url(#p011b712e08)" style="fill: none; stroke: #808080; stroke-opacity: 0.5; stroke-width: 1.5"/>
    <path d="M 245.30465 52.459332 
L 245.30465 22.905355 
" clip-path="url(#p011b712e08)" style="fill: none; stroke: #808080; stroke-opacity: 0.5; stroke-width: 1.5"/>
    <path d="M 266.819314 52.459332 
L 266.819314 22.905355 
" clip-path="url(#p011b712e08)" style="fill: none; stroke: #808080; stroke-opacity: 0.5; stroke-width: 1.5"/>
    <path d="M 287.27588 52.459332 
L 287.27588 22.905355 
" clip-path="url(#p011b712e08)" style="fill: none; stroke: #808080; stroke-opacity: 0.5; stroke-width: 1.5"/>
    <path d="M 312.317538 52.459332 
L 312.317538 22.905355 
" clip-path="url(#p011b712e08)" style="fill: none; stroke: #808080; stroke-opacity: 0.5; stroke-width: 1.5"/>
    <path d="M 330.305208 52.459332 
L 330.305208 22.905355 
" clip-path="url(#p011b712e08)" style="fill: none; stroke: #808080; stroke-opacity: 0.5; stroke-width: 1.5"/>
    <path d="M 348.998276 52.459332 
L 348.998276 22.905355 
" clip-path="url(#p011b712e08)" style="fill: none; stroke: #808080; stroke-opacity: 0.5; stroke-width: 1.5"/>
    <path d="M 374.039934 52.459332 
L 374.039934 22.905355 
" clip-path="url(#p011b712e08)" style="fill: none; stroke: #808080; stroke-opacity: 0.5; stroke-width: 1.5"/>
    <path d="M 402.608586 52.459332 
L 402.608586 22.905355 
" clip-path="url(#p011b712e08)" style="fill: none; stroke: #808080; stroke-opacity: 0.5; stroke-width: 1.5"/>
    <path d="M 425.181348 52.459332 
L 425.181348 22.905355 
" clip-path="url(#p011b712e08)" style="fill: none; stroke: #808080; stroke-opacity: 0.5; stroke-width: 1.5"/>
   </g>
   <g id="patch_13">
    <path d="M 39.257656 53.937031 
L 39.257656 21.427656 
" style="fill: none; stroke: #000000; stroke-width: 0.8; stroke-linejoin: miter; stroke-linecap: square"/>
   </g>
   <g id="patch_14">
    <path d="M 39.257656 53.937031 
L 444.297656 53.937031 
" style="fill: none; stroke: #000000; stroke-width: 0.8; stroke-linejoin: miter; stroke-linecap: square"/>
   </g>
   <g id="text_3">
    <!-- du/dt -->
    <g transform="translate(227.736328 15.427656)scale(0.11 -0.11)">
     <defs>
      <path id="CMUSerif-Roman-64" d="M 218 1376 
Q 218 1984 643 2406 
Q 1069 2829 1645 2829 
Q 2131 2829 2451 2432 
L 2451 3814 
Q 2451 4051 2368 4112 
Q 2285 4173 1952 4173 
L 1952 4371 
L 2874 4442 
L 2874 557 
Q 2874 320 2957 259 
Q 3040 198 3373 198 
L 3373 0 
L 2432 -70 
L 2432 352 
Q 2099 -70 1574 -70 
Q 1024 -70 621 352 
Q 218 774 218 1376 
z
M 749 1370 
Q 749 774 934 480 
Q 1190 70 1606 70 
Q 2080 70 2362 518 
Q 2432 627 2432 755 
L 2432 2067 
Q 2432 2195 2362 2304 
Q 2099 2688 1670 2688 
Q 1222 2688 947 2278 
Q 749 1971 749 1370 
z
" transform="scale(0.015625)"/>
      <path id="CMUSerif-Roman-75" d="M 205 2560 
L 205 2758 
L 1146 2829 
L 1146 704 
Q 1146 550 1158 460 
Q 1171 371 1222 268 
Q 1274 166 1395 118 
Q 1517 70 1709 70 
Q 2054 70 2268 355 
Q 2483 640 2483 1062 
L 2483 2202 
Q 2483 2438 2400 2499 
Q 2317 2560 1984 2560 
L 1984 2758 
L 2925 2829 
L 2925 557 
Q 2925 320 3008 259 
Q 3091 198 3424 198 
L 3424 0 
L 2502 -70 
L 2502 506 
Q 2234 -70 1677 -70 
Q 1395 -70 1203 0 
Q 1011 70 915 160 
Q 819 250 768 422 
Q 717 595 710 700 
Q 704 806 704 1011 
L 704 1971 
Q 704 2406 640 2483 
Q 576 2560 205 2560 
z
" transform="scale(0.015625)"/>
      <path id="CMUSerif-Roman-2f" d="M 365 -1510 
Q 365 -1478 390 -1408 
L 2650 4627 
Q 2650 4634 2666 4669 
Q 2682 4704 2691 4726 
Q 2701 4749 2720 4768 
Q 2739 4787 2765 4787 
Q 2829 4787 2829 4710 
Q 2829 4704 2810 4627 
L 544 -1414 
Q 506 -1523 483 -1555 
Q 461 -1587 422 -1587 
Q 365 -1587 365 -1510 
z
" transform="scale(0.015625)"/>
      <path id="CMUSerif-Roman-74" d="M 122 2560 
L 122 2701 
Q 416 2714 611 2922 
Q 806 3130 873 3386 
Q 941 3642 947 3936 
L 1107 3936 
L 1107 2758 
L 2022 2758 
L 2022 2560 
L 1107 2560 
L 1107 781 
Q 1107 90 1536 90 
Q 1722 90 1843 278 
Q 1965 467 1965 806 
L 1965 1158 
L 2125 1158 
L 2125 794 
Q 2125 448 1965 189 
Q 1805 -70 1491 -70 
Q 1376 -70 1261 -41 
Q 1146 -13 998 64 
Q 851 141 758 329 
Q 666 518 666 794 
L 666 2560 
L 122 2560 
z
" transform="scale(0.015625)"/>
     </defs>
     <use xlink:href="#CMUSerif-Roman-64"/>
     <use xlink:href="#CMUSerif-Roman-75" x="55.499985"/>
     <use xlink:href="#CMUSerif-Roman-2f" x="110.999969"/>
     <use xlink:href="#CMUSerif-Roman-64" x="160.999954"/>
     <use xlink:href="#CMUSerif-Roman-74" x="216.499939"/>
    </g>
   </g>
  </g>
  <g id="axes_2">
   <g id="patch_15">
    <path d="M 39.257656 115.857656 
L 444.297656 115.857656 
L 444.297656 83.348281 
L 39.257656 83.348281 
z
" style="fill: #ffffff"/>
   </g>
   <g id="patch_16">
    <path d="M 133.851637 115.857656 
L 133.851637 83.348281 
L 162.06759 83.348281 
L 162.06759 115.857656 
z
" clip-path="url(#pa96dfd48b2)" style="fill: #ff0000; opacity: 0.1"/>
   </g>
   <g id="patch_17">
    <path d="M 108.809979 115.857656 
L 108.809979 83.348281 
L 133.851637 83.348281 
L 133.851637 115.857656 
z
" clip-path="url(#pa96dfd48b2)" style="fill: #0000ff; opacity: 0.1"/>
   </g>
   <g id="patch_18">
    <path d="M 201.569924 115.857656 
L 201.569924 83.348281 
L 220.262992 83.348281 
L 220.262992 115.857656 
z
" clip-path="url(#pa96dfd48b2)" style="fill: #ff0000; opacity: 0.1"/>
   </g>
   <g id="patch_19">
    <path d="M 187.109248 115.857656 
L 187.109248 83.348281 
L 201.569924 83.348281 
L 201.569924 115.857656 
z
" clip-path="url(#pa96dfd48b2)" style="fill: #0000ff; opacity: 0.1"/>
   </g>
   <g id="patch_20">
    <path d="M 266.819314 115.857656 
L 266.819314 83.348281 
L 287.27588 83.348281 
L 287.27588 115.857656 
z
" clip-path="url(#pa96dfd48b2)" style="fill: #ff0000; opacity: 0.1"/>
   </g>
   <g id="patch_21">
    <path d="M 245.30465 115.857656 
L 245.30465 83.348281 
L 266.819314 83.348281 
L 266.819314 115.857656 
z
" clip-path="url(#pa96dfd48b2)" style="fill: #0000ff; opacity: 0.1"/>
   </g>
   <g id="patch_22">
    <path d="M 330.305208 115.857656 
L 330.305208 83.348281 
L 348.998276 83.348281 
L 348.998276 115.857656 
z
" clip-path="url(#pa96dfd48b2)" style="fill: #ff0000; opacity: 0.1"/>
   </g>
   <g id="patch_23">
    <path d="M 312.317538 115.857656 
L 312.317538 83.348281 
L 330.305208 83.348281 
L 330.305208 115.857656 
z
" clip-path="url(#pa96dfd48b2)" style="fill: #0000ff; opacity: 0.1"/>
   </g>
   <g id="patch_24">
    <path d="M 402.608586 115.857656 
L 402.608586 83.348281 
L 425.181348 83.348281 
L 425.181348 115.857656 
z
" clip-path="url(#pa96dfd48b2)" style="fill: #ff0000; opacity: 0.1"/>
   </g>
   <g id="patch_25">
    <path d="M 374.039934 115.857656 
L 374.039934 83.348281 
L 402.608586 83.348281 
L 402.608586 115.857656 
z
" clip-path="url(#pa96dfd48b2)" style="fill: #0000ff; opacity: 0.1"/>
   </g>
   <g id="matplotlib.axis_3">
    <g id="xtick_7">
     <g id="line2d_10">
      <g>
       <use xlink:href="#m0fa5d79ce8" x="57.668565" y="115.857656" style="stroke: #000000; stroke-width: 0.8"/>
      </g>
     </g>
    </g>
    <g id="xtick_8">
     <g id="line2d_11">
      <g>
       <use xlink:href="#m0fa5d79ce8" x="128.208447" y="115.857656" style="stroke: #000000; stroke-width: 0.8"/>
      </g>
     </g>
    </g>
    <g id="xtick_9">
     <g id="line2d_12">
      <g>
       <use xlink:href="#m0fa5d79ce8" x="198.748328" y="115.857656" style="stroke: #000000; stroke-width: 0.8"/>
      </g>
     </g>
    </g>
    <g id="xtick_10">
     <g id="line2d_13">
      <g>
       <use xlink:href="#m0fa5d79ce8" x="269.28821" y="115.857656" style="stroke: #000000; stroke-width: 0.8"/>
      </g>
     </g>
    </g>
    <g id="xtick_11">
     <g id="line2d_14">
      <g>
       <use xlink:href="#m0fa5d79ce8" x="339.828092" y="115.857656" style="stroke: #000000; stroke-width: 0.8"/>
      </g>
     </g>
    </g>
    <g id="xtick_12">
     <g id="line2d_15">
      <g>
       <use xlink:href="#m0fa5d79ce8" x="410.367973" y="115.857656" style="stroke: #000000; stroke-width: 0.8"/>
      </g>
     </g>
    </g>
   </g>
   <g id="matplotlib.axis_4">
    <g id="ytick_3">
     <g id="line2d_16">
      <g>
       <use xlink:href="#m36bbc07a98" x="39.257656" y="110.427184" style="stroke: #000000; stroke-width: 0.8"/>
      </g>
     </g>
     <g id="text_4">
      <!-- 0.25 -->
      <g transform="translate(12.7 114.244527)scale(0.11 -0.11)">
       <defs>
        <path id="CMUSerif-Roman-32" d="M 320 0 
Q 320 115 329 150 
Q 339 186 390 237 
L 1619 1606 
Q 2291 2362 2291 3021 
Q 2291 3450 2067 3757 
Q 1843 4064 1434 4064 
Q 1152 4064 915 3891 
Q 678 3718 570 3411 
Q 589 3418 653 3418 
Q 813 3418 902 3318 
Q 992 3219 992 3085 
Q 992 2912 880 2829 
Q 768 2746 659 2746 
Q 614 2746 556 2755 
Q 499 2765 409 2854 
Q 320 2944 320 3104 
Q 320 3552 659 3907 
Q 998 4262 1517 4262 
Q 2106 4262 2490 3913 
Q 2874 3565 2874 3021 
Q 2874 2829 2816 2656 
Q 2758 2483 2681 2348 
Q 2605 2214 2400 2000 
Q 2195 1786 2028 1632 
Q 1862 1478 1491 1152 
L 813 493 
L 1965 493 
Q 2528 493 2573 544 
Q 2637 634 2714 1114 
L 2874 1114 
L 2694 0 
L 320 0 
z
" transform="scale(0.015625)"/>
        <path id="CMUSerif-Roman-35" d="M 320 1030 
Q 320 1222 422 1296 
Q 525 1370 634 1370 
Q 781 1370 867 1277 
Q 954 1184 954 1056 
Q 954 928 867 835 
Q 781 742 634 742 
Q 563 742 525 755 
Q 608 461 867 249 
Q 1126 38 1466 38 
Q 1894 38 2150 454 
Q 2304 723 2304 1331 
Q 2304 1869 2189 2138 
Q 2010 2547 1645 2547 
Q 1126 2547 819 2099 
Q 781 2042 736 2042 
Q 672 2042 659 2077 
Q 646 2112 646 2208 
L 646 4102 
Q 646 4256 710 4256 
Q 736 4256 787 4237 
Q 1190 4058 1638 4058 
Q 2099 4058 2509 4243 
Q 2541 4262 2560 4262 
Q 2624 4262 2624 4192 
Q 2624 4166 2573 4092 
Q 2522 4019 2413 3923 
Q 2304 3827 2163 3737 
Q 2022 3648 1817 3587 
Q 1613 3526 1389 3526 
Q 1120 3526 845 3610 
L 845 2362 
Q 1178 2688 1658 2688 
Q 2170 2688 2522 2275 
Q 2874 1862 2874 1286 
Q 2874 685 2458 272 
Q 2042 -141 1478 -141 
Q 966 -141 643 224 
Q 320 589 320 1030 
z
" transform="scale(0.015625)"/>
       </defs>
       <use xlink:href="#CMUSerif-Roman-30"/>
       <use xlink:href="#CMUSerif-Roman-2e" x="49.999985"/>
       <use xlink:href="#CMUSerif-Roman-32" x="77.799973"/>
       <use xlink:href="#CMUSerif-Roman-35" x="127.799957"/>
      </g>
     </g>
    </g>
    <g id="ytick_4">
     <g id="line2d_17">
      <g>
       <use xlink:href="#m36bbc07a98" x="39.257656" y="100.819019" style="stroke: #000000; stroke-width: 0.8"/>
      </g>
     </g>
     <g id="text_5">
      <!-- 0.30 -->
      <g transform="translate(12.7 104.636363)scale(0.11 -0.11)">
       <defs>
        <path id="CMUSerif-Roman-33" d="M 269 864 
Q 269 1056 377 1145 
Q 486 1235 627 1235 
Q 774 1235 880 1139 
Q 986 1043 986 877 
Q 986 698 861 598 
Q 736 499 563 525 
Q 717 269 998 153 
Q 1280 38 1542 38 
Q 1818 38 2042 275 
Q 2266 512 2266 1094 
Q 2266 1587 2074 1872 
Q 1882 2157 1504 2157 
L 1222 2157 
Q 1126 2157 1097 2166 
Q 1069 2176 1069 2227 
Q 1069 2291 1165 2304 
Q 1261 2304 1414 2323 
Q 1786 2336 1984 2656 
Q 2163 2957 2163 3386 
Q 2163 3776 1977 3939 
Q 1792 4102 1549 4102 
Q 1325 4102 1078 4009 
Q 832 3917 698 3706 
Q 1094 3706 1094 3386 
Q 1094 3245 1004 3152 
Q 915 3059 768 3059 
Q 627 3059 534 3148 
Q 442 3238 442 3392 
Q 442 3757 768 4009 
Q 1094 4262 1574 4262 
Q 2048 4262 2400 4012 
Q 2752 3763 2752 3379 
Q 2752 3002 2502 2691 
Q 2253 2381 1856 2253 
Q 2342 2157 2633 1827 
Q 2925 1498 2925 1094 
Q 2925 595 2531 227 
Q 2138 -141 1562 -141 
Q 1030 -141 649 147 
Q 269 435 269 864 
z
" transform="scale(0.015625)"/>
       </defs>
       <use xlink:href="#CMUSerif-Roman-30"/>
       <use xlink:href="#CMUSerif-Roman-2e" x="49.999985"/>
       <use xlink:href="#CMUSerif-Roman-33" x="77.799973"/>
       <use xlink:href="#CMUSerif-Roman-30" x="127.799957"/>
      </g>
     </g>
    </g>
    <g id="ytick_5">
     <g id="line2d_18">
      <g>
       <use xlink:href="#m36bbc07a98" x="39.257656" y="91.210854" style="stroke: #000000; stroke-width: 0.8"/>
      </g>
     </g>
     <g id="text_6">
      <!-- 0.35 -->
      <g transform="translate(12.7 95.028198)scale(0.11 -0.11)">
       <use xlink:href="#CMUSerif-Roman-30"/>
       <use xlink:href="#CMUSerif-Roman-2e" x="49.999985"/>
       <use xlink:href="#CMUSerif-Roman-33" x="77.799973"/>
       <use xlink:href="#CMUSerif-Roman-35" x="127.799957"/>
      </g>
     </g>
    </g>
   </g>
   <g id="line2d_19">
    <path d="M 57.668565 112.281057 
L 58.373964 100.720968 
L 59.079363 93.417443 
L 59.784762 88.93963 
L 60.490161 86.361177 
L 61.195559 85.142931 
L 61.548259 84.82598 
L 62.606357 85.001214 
L 62.959056 85.228526 
L 65.427952 88.156478 
L 66.486051 89.81393 
L 69.660345 94.295527 
L 72.129241 96.975555 
L 73.187339 97.835122 
L 75.303536 99.50256 
L 76.714333 100.278372 
L 77.419732 100.673251 
L 79.535929 101.793433 
L 82.357524 102.693249 
L 83.768322 103.045968 
L 84.121021 89.371842 
L 84.82642 88.025587 
L 85.179119 87.575553 
L 85.531819 87.34453 
L 85.884518 87.302258 
L 86.589917 87.644293 
L 87.648015 88.576944 
L 88.353414 89.369733 
L 89.411512 90.766264 
L 90.82231 92.709679 
L 92.938506 95.122391 
L 95.407402 97.525329 
L 97.170899 99.07925 
L 101.403292 101.386827 
L 102.108691 101.661322 
L 103.166789 102.202921 
L 104.577587 102.539254 
L 107.399182 103.204714 
L 108.809979 103.425058 
L 109.162679 89.713023 
L 109.868078 88.210165 
L 110.220777 87.878661 
L 110.573477 87.751189 
L 111.278875 87.858369 
L 111.631575 87.980523 
L 112.336974 88.515047 
L 113.747771 90.10999 
L 114.805869 91.326995 
L 115.863968 92.723165 
L 117.627465 94.758263 
L 119.390962 96.725869 
L 121.154459 98.284739 
L 125.034152 100.912507 
L 126.797649 101.75254 
L 127.503048 101.977626 
L 128.561146 102.267627 
L 129.619245 102.570664 
L 132.08814 103.199368 
L 133.851637 103.497415 
L 134.204337 89.778144 
L 134.557036 89.41073 
L 134.909736 89.260159 
L 135.262435 89.303514 
L 136.320533 90.112342 
L 137.025932 90.906415 
L 137.731331 91.876449 
L 139.847527 95.181187 
L 140.552926 96.180431 
L 141.963724 98.137767 
L 144.07992 100.638477 
L 144.785319 101.34537 
L 145.843417 102.40176 
L 149.017712 104.734547 
L 154.660903 107.22649 
L 155.366301 107.485076 
L 156.4244 107.82377 
L 159.245995 108.291327 
L 162.06759 108.560329 
L 162.420289 94.334767 
L 162.772989 93.637824 
L 163.478388 92.846303 
L 164.183787 92.784622 
L 164.889185 93.190877 
L 165.594584 93.851333 
L 166.299983 94.650038 
L 168.06348 96.896213 
L 169.121578 98.19477 
L 171.237775 100.704457 
L 171.943173 101.381782 
L 174.764769 103.643434 
L 178.291763 105.893003 
L 180.407959 106.762007 
L 182.524156 107.40249 
L 183.229555 107.615774 
L 185.345751 108.218219 
L 187.109248 108.399506 
L 187.461947 94.190026 
L 188.167346 93.044749 
L 188.520046 92.709327 
L 189.225444 92.656943 
L 189.930843 93.071626 
L 190.988942 94.012227 
L 191.69434 94.846915 
L 194.163236 98.011895 
L 196.632132 100.92259 
L 199.453727 103.372679 
L 201.569924 104.808649 
L 201.922623 90.958255 
L 202.275323 90.978471 
L 202.628022 91.151858 
L 203.68612 92.450808 
L 205.096918 94.928969 
L 208.976611 101.834189 
L 211.798207 105.887342 
L 214.267102 108.656362 
L 215.325201 109.508909 
L 216.383299 110.20911 
L 217.441397 110.845459 
L 218.499495 111.587325 
L 220.262992 112.42238 
L 220.615692 97.810613 
L 220.968391 97.348465 
L 221.67379 96.980014 
L 222.026489 97.0524 
L 223.084588 97.886235 
L 223.789986 98.712688 
L 228.375079 105.301337 
L 229.433177 106.401687 
L 232.254772 109.221352 
L 233.66557 110.264886 
L 235.781766 111.56031 
L 237.545263 112.361686 
L 238.956061 112.893501 
L 240.014159 113.261454 
L 240.719558 113.348974 
L 242.130356 113.713075 
L 245.30465 114.379957 
L 245.65735 99.572433 
L 246.010049 99.040965 
L 246.715448 98.625278 
L 247.420847 98.72054 
L 247.773546 98.859866 
L 248.478945 99.501299 
L 249.889743 101.154266 
L 251.30054 103.055787 
L 253.769436 106.243725 
L 255.885633 108.3091 
L 257.29643 109.490603 
L 258.707228 110.531343 
L 262.586921 112.562213 
L 265.055817 113.310718 
L 266.819314 113.790557 
L 267.172014 99.041973 
L 267.877412 97.856762 
L 268.582811 97.476282 
L 269.28821 97.606468 
L 269.993609 98.076183 
L 271.051707 99.083362 
L 275.989499 105.069318 
L 279.163793 107.81789 
L 280.221892 108.564814 
L 281.985389 109.645875 
L 284.101585 110.625437 
L 284.806984 110.85008 
L 285.865082 111.116501 
L 286.92318 111.330736 
L 287.27588 111.493811 
L 287.628579 96.974901 
L 287.981279 96.357154 
L 288.333978 96.009739 
L 288.686677 95.894223 
L 289.039377 95.932551 
L 289.744776 96.341701 
L 291.155573 97.794573 
L 291.860972 98.690296 
L 296.093365 104.292139 
L 298.562261 106.731021 
L 301.031157 108.620009 
L 302.794654 109.578905 
L 304.205451 110.061664 
L 307.732446 111.381763 
L 309.495943 111.737818 
L 311.612139 112.172181 
L 311.964838 112.32022 
L 312.317538 112.319807 
L 312.670237 97.718298 
L 313.022937 97.153858 
L 313.375636 96.826845 
L 313.728335 96.655525 
L 314.081035 96.657832 
L 315.139133 97.214622 
L 315.844532 97.979252 
L 316.90263 99.239161 
L 318.666127 101.531752 
L 320.429624 103.791334 
L 322.193121 105.725157 
L 322.89852 106.424459 
L 326.072815 108.902535 
L 326.778214 109.280845 
L 329.599809 110.629869 
L 330.305208 110.810237 
L 330.657907 96.359684 
L 331.010606 95.966947 
L 331.363306 95.761696 
L 331.716005 95.711973 
L 332.421404 96.101887 
L 333.126803 96.729621 
L 335.242999 99.684563 
L 338.064595 103.743128 
L 340.180791 106.068676 
L 343.355086 108.986717 
L 346.176681 110.762033 
L 348.998276 111.96633 
L 349.350976 97.400168 
L 349.703675 96.828242 
L 350.056374 96.557117 
L 350.409074 96.495803 
L 350.761773 96.560854 
L 351.467172 96.988791 
L 352.52527 98.114495 
L 358.52116 106.041862 
L 360.284657 107.776438 
L 361.342756 108.732834 
L 362.048154 109.236751 
L 362.753553 109.753592 
L 365.575148 111.184086 
L 366.985946 111.804808 
L 369.102142 112.39287 
L 370.160241 112.6997 
L 371.571038 112.962369 
L 372.276437 112.934641 
L 373.334535 113.167371 
L 374.039934 113.234265 
L 374.392634 98.54131 
L 374.745333 97.966874 
L 375.450732 97.505832 
L 376.156131 97.749839 
L 376.861529 98.17552 
L 377.919628 99.303617 
L 381.799321 104.310981 
L 384.973616 107.619666 
L 388.147911 109.910389 
L 388.853309 110.198146 
L 389.911408 110.83129 
L 390.969506 111.409427 
L 392.733003 112.0409 
L 395.201899 112.660959 
L 395.907297 112.805883 
L 397.318095 113.095575 
L 398.728893 113.330425 
L 400.13969 113.551109 
L 402.608586 113.815816 
L 402.961286 99.064706 
L 403.313985 98.267869 
L 404.019384 97.395033 
L 404.724783 97.167273 
L 405.430182 97.476228 
L 407.546378 99.31005 
L 408.604476 100.668165 
L 411.778771 104.511872 
L 412.48417 105.108052 
L 414.953066 107.114128 
L 415.658464 107.532412 
L 416.363863 108.004725 
L 417.069262 108.414636 
L 417.774661 108.800932 
L 418.48006 109.115774 
L 419.538158 109.575581 
L 423.065152 110.52861 
L 425.534048 110.954904 
L 425.534048 110.954904 
" clip-path="url(#pa96dfd48b2)" style="fill: none; stroke: #808080; stroke-width: 1.5; stroke-linecap: square"/>
   </g>
   <g id="LineCollection_2">
    <path d="M 83.768322 114.379957 
L 83.768322 84.82598 
" clip-path="url(#pa96dfd48b2)" style="fill: none; stroke: #808080; stroke-opacity: 0.5; stroke-width: 1.5"/>
    <path d="M 108.809979 114.379957 
L 108.809979 84.82598 
" clip-path="url(#pa96dfd48b2)" style="fill: none; stroke: #808080; stroke-opacity: 0.5; stroke-width: 1.5"/>
    <path d="M 133.851637 114.379957 
L 133.851637 84.82598 
" clip-path="url(#pa96dfd48b2)" style="fill: none; stroke: #808080; stroke-opacity: 0.5; stroke-width: 1.5"/>
    <path d="M 162.06759 114.379957 
L 162.06759 84.82598 
" clip-path="url(#pa96dfd48b2)" style="fill: none; stroke: #808080; stroke-opacity: 0.5; stroke-width: 1.5"/>
    <path d="M 187.109248 114.379957 
L 187.109248 84.82598 
" clip-path="url(#pa96dfd48b2)" style="fill: none; stroke: #808080; stroke-opacity: 0.5; stroke-width: 1.5"/>
    <path d="M 201.569924 114.379957 
L 201.569924 84.82598 
" clip-path="url(#pa96dfd48b2)" style="fill: none; stroke: #808080; stroke-opacity: 0.5; stroke-width: 1.5"/>
    <path d="M 220.262992 114.379957 
L 220.262992 84.82598 
" clip-path="url(#pa96dfd48b2)" style="fill: none; stroke: #808080; stroke-opacity: 0.5; stroke-width: 1.5"/>
    <path d="M 245.30465 114.379957 
L 245.30465 84.82598 
" clip-path="url(#pa96dfd48b2)" style="fill: none; stroke: #808080; stroke-opacity: 0.5; stroke-width: 1.5"/>
    <path d="M 266.819314 114.379957 
L 266.819314 84.82598 
" clip-path="url(#pa96dfd48b2)" style="fill: none; stroke: #808080; stroke-opacity: 0.5; stroke-width: 1.5"/>
    <path d="M 287.27588 114.379957 
L 287.27588 84.82598 
" clip-path="url(#pa96dfd48b2)" style="fill: none; stroke: #808080; stroke-opacity: 0.5; stroke-width: 1.5"/>
    <path d="M 312.317538 114.379957 
L 312.317538 84.82598 
" clip-path="url(#pa96dfd48b2)" style="fill: none; stroke: #808080; stroke-opacity: 0.5; stroke-width: 1.5"/>
    <path d="M 330.305208 114.379957 
L 330.305208 84.82598 
" clip-path="url(#pa96dfd48b2)" style="fill: none; stroke: #808080; stroke-opacity: 0.5; stroke-width: 1.5"/>
    <path d="M 348.998276 114.379957 
L 348.998276 84.82598 
" clip-path="url(#pa96dfd48b2)" style="fill: none; stroke: #808080; stroke-opacity: 0.5; stroke-width: 1.5"/>
    <path d="M 374.039934 114.379957 
L 374.039934 84.82598 
" clip-path="url(#pa96dfd48b2)" style="fill: none; stroke: #808080; stroke-opacity: 0.5; stroke-width: 1.5"/>
    <path d="M 402.608586 114.379957 
L 402.608586 84.82598 
" clip-path="url(#pa96dfd48b2)" style="fill: none; stroke: #808080; stroke-opacity: 0.5; stroke-width: 1.5"/>
    <path d="M 425.181348 114.379957 
L 425.181348 84.82598 
" clip-path="url(#pa96dfd48b2)" style="fill: none; stroke: #808080; stroke-opacity: 0.5; stroke-width: 1.5"/>
   </g>
   <g id="patch_26">
    <path d="M 39.257656 115.857656 
L 39.257656 83.348281 
" style="fill: none; stroke: #000000; stroke-width: 0.8; stroke-linejoin: miter; stroke-linecap: square"/>
   </g>
   <g id="patch_27">
    <path d="M 39.257656 115.857656 
L 444.297656 115.857656 
" style="fill: none; stroke: #000000; stroke-width: 0.8; stroke-linejoin: miter; stroke-linecap: square"/>
   </g>
   <g id="text_7">
    <!-- dv/dt -->
    <g transform="translate(227.890156 77.348281)scale(0.11 -0.11)">
     <defs>
      <path id="CMUSerif-Roman-76" d="M 122 2560 
L 122 2758 
Q 410 2739 742 2739 
Q 864 2739 1440 2758 
L 1440 2560 
Q 1075 2560 1075 2394 
Q 1075 2368 1114 2285 
L 1830 499 
L 2483 2131 
Q 2522 2240 2522 2285 
Q 2522 2394 2448 2474 
Q 2374 2554 2214 2560 
L 2214 2758 
Q 2541 2739 2771 2739 
Q 3034 2739 3251 2758 
L 3251 2560 
Q 3059 2560 2924 2473 
Q 2790 2387 2748 2313 
Q 2707 2240 2662 2131 
L 1824 51 
Q 1773 -70 1690 -70 
Q 1632 -70 1609 -48 
Q 1587 -26 1555 51 
L 634 2323 
Q 570 2483 490 2521 
Q 410 2560 122 2560 
z
" transform="scale(0.015625)"/>
     </defs>
     <use xlink:href="#CMUSerif-Roman-64"/>
     <use xlink:href="#CMUSerif-Roman-76" x="55.499985"/>
     <use xlink:href="#CMUSerif-Roman-2f" x="108.199982"/>
     <use xlink:href="#CMUSerif-Roman-64" x="158.199966"/>
     <use xlink:href="#CMUSerif-Roman-74" x="213.699951"/>
    </g>
   </g>
  </g>
  <g id="axes_3">
   <g id="patch_28">
    <path d="M 39.257656 177.778281 
L 444.297656 177.778281 
L 444.297656 145.268906 
L 39.257656 145.268906 
z
" style="fill: #ffffff"/>
   </g>
   <g id="patch_29">
    <path d="M 133.851637 177.778281 
L 133.851637 145.268906 
L 162.06759 145.268906 
L 162.06759 177.778281 
z
" clip-path="url(#pc51caacf62)" style="fill: #ff0000; opacity: 0.1"/>
   </g>
   <g id="patch_30">
    <path d="M 108.809979 177.778281 
L 108.809979 145.268906 
L 133.851637 145.268906 
L 133.851637 177.778281 
z
" clip-path="url(#pc51caacf62)" style="fill: #0000ff; opacity: 0.1"/>
   </g>
   <g id="patch_31">
    <path d="M 201.569924 177.778281 
L 201.569924 145.268906 
L 220.262992 145.268906 
L 220.262992 177.778281 
z
" clip-path="url(#pc51caacf62)" style="fill: #ff0000; opacity: 0.1"/>
   </g>
   <g id="patch_32">
    <path d="M 187.109248 177.778281 
L 187.109248 145.268906 
L 201.569924 145.268906 
L 201.569924 177.778281 
z
" clip-path="url(#pc51caacf62)" style="fill: #0000ff; opacity: 0.1"/>
   </g>
   <g id="patch_33">
    <path d="M 266.819314 177.778281 
L 266.819314 145.268906 
L 287.27588 145.268906 
L 287.27588 177.778281 
z
" clip-path="url(#pc51caacf62)" style="fill: #ff0000; opacity: 0.1"/>
   </g>
   <g id="patch_34">
    <path d="M 245.30465 177.778281 
L 245.30465 145.268906 
L 266.819314 145.268906 
L 266.819314 177.778281 
z
" clip-path="url(#pc51caacf62)" style="fill: #0000ff; opacity: 0.1"/>
   </g>
   <g id="patch_35">
    <path d="M 330.305208 177.778281 
L 330.305208 145.268906 
L 348.998276 145.268906 
L 348.998276 177.778281 
z
" clip-path="url(#pc51caacf62)" style="fill: #ff0000; opacity: 0.1"/>
   </g>
   <g id="patch_36">
    <path d="M 312.317538 177.778281 
L 312.317538 145.268906 
L 330.305208 145.268906 
L 330.305208 177.778281 
z
" clip-path="url(#pc51caacf62)" style="fill: #0000ff; opacity: 0.1"/>
   </g>
   <g id="patch_37">
    <path d="M 402.608586 177.778281 
L 402.608586 145.268906 
L 425.181348 145.268906 
L 425.181348 177.778281 
z
" clip-path="url(#pc51caacf62)" style="fill: #ff0000; opacity: 0.1"/>
   </g>
   <g id="patch_38">
    <path d="M 374.039934 177.778281 
L 374.039934 145.268906 
L 402.608586 145.268906 
L 402.608586 177.778281 
z
" clip-path="url(#pc51caacf62)" style="fill: #0000ff; opacity: 0.1"/>
   </g>
   <g id="matplotlib.axis_5">
    <g id="xtick_13">
     <g id="line2d_20">
      <g>
       <use xlink:href="#m0fa5d79ce8" x="57.668565" y="177.778281" style="stroke: #000000; stroke-width: 0.8"/>
      </g>
     </g>
    </g>
    <g id="xtick_14">
     <g id="line2d_21">
      <g>
       <use xlink:href="#m0fa5d79ce8" x="128.208447" y="177.778281" style="stroke: #000000; stroke-width: 0.8"/>
      </g>
     </g>
    </g>
    <g id="xtick_15">
     <g id="line2d_22">
      <g>
       <use xlink:href="#m0fa5d79ce8" x="198.748328" y="177.778281" style="stroke: #000000; stroke-width: 0.8"/>
      </g>
     </g>
    </g>
    <g id="xtick_16">
     <g id="line2d_23">
      <g>
       <use xlink:href="#m0fa5d79ce8" x="269.28821" y="177.778281" style="stroke: #000000; stroke-width: 0.8"/>
      </g>
     </g>
    </g>
    <g id="xtick_17">
     <g id="line2d_24">
      <g>
       <use xlink:href="#m0fa5d79ce8" x="339.828092" y="177.778281" style="stroke: #000000; stroke-width: 0.8"/>
      </g>
     </g>
    </g>
    <g id="xtick_18">
     <g id="line2d_25">
      <g>
       <use xlink:href="#m0fa5d79ce8" x="410.367973" y="177.778281" style="stroke: #000000; stroke-width: 0.8"/>
      </g>
     </g>
    </g>
   </g>
   <g id="matplotlib.axis_6">
    <g id="ytick_6">
     <g id="line2d_26">
      <g>
       <use xlink:href="#m36bbc07a98" x="39.257656" y="174.464336" style="stroke: #000000; stroke-width: 0.8"/>
      </g>
     </g>
     <g id="text_8">
      <!-- 0.50 -->
      <g transform="translate(12.7 178.281679)scale(0.11 -0.11)">
       <use xlink:href="#CMUSerif-Roman-30"/>
       <use xlink:href="#CMUSerif-Roman-2e" x="49.999985"/>
       <use xlink:href="#CMUSerif-Roman-35" x="77.799973"/>
       <use xlink:href="#CMUSerif-Roman-30" x="127.799957"/>
      </g>
     </g>
    </g>
    <g id="ytick_7">
     <g id="line2d_27">
      <g>
       <use xlink:href="#m36bbc07a98" x="39.257656" y="151.06449" style="stroke: #000000; stroke-width: 0.8"/>
      </g>
     </g>
     <g id="text_9">
      <!-- 0.75 -->
      <g transform="translate(12.7 154.881833)scale(0.11 -0.11)">
       <defs>
        <path id="CMUSerif-Roman-37" d="M 358 3008 
L 570 4326 
L 730 4326 
Q 749 4250 781 4214 
Q 813 4179 995 4150 
Q 1178 4122 1549 4122 
L 3104 4122 
Q 3104 3974 3046 3898 
L 2182 2682 
Q 1907 2298 1786 1587 
Q 1715 1114 1715 538 
L 1715 211 
Q 1715 -141 1420 -141 
Q 1126 -141 1126 211 
Q 1126 1434 1914 2618 
Q 1997 2739 2307 3174 
Q 2618 3610 2630 3629 
L 1306 3629 
Q 723 3629 678 3590 
Q 614 3533 518 3008 
L 358 3008 
z
" transform="scale(0.015625)"/>
       </defs>
       <use xlink:href="#CMUSerif-Roman-30"/>
       <use xlink:href="#CMUSerif-Roman-2e" x="49.999985"/>
       <use xlink:href="#CMUSerif-Roman-37" x="77.799973"/>
       <use xlink:href="#CMUSerif-Roman-35" x="127.799957"/>
      </g>
     </g>
    </g>
   </g>
   <g id="line2d_28">
    <path d="M 57.668565 174.72148 
L 58.021265 174.861042 
L 58.373964 175.360713 
L 58.726664 175.534818 
L 59.079363 175.897418 
L 59.432062 176.07569 
L 61.195559 176.279614 
L 61.900958 176.226696 
L 62.253658 175.915735 
L 62.959056 175.705358 
L 64.017155 174.872363 
L 64.722553 174.073987 
L 65.075253 173.753008 
L 65.427952 173.642673 
L 67.191449 172.051661 
L 67.544149 171.448713 
L 67.896848 171.109351 
L 68.602247 170.138454 
L 68.954946 169.725026 
L 69.307646 169.52791 
L 70.718443 168.092828 
L 72.83464 166.166059 
L 73.187339 165.648367 
L 73.892738 165.27849 
L 74.245438 164.955239 
L 74.950836 163.959179 
L 75.303536 163.836119 
L 76.714333 162.677857 
L 77.419732 162.504573 
L 78.47783 161.639699 
L 79.183229 161.505528 
L 79.888628 161.35139 
L 80.594027 160.896204 
L 81.299426 160.614825 
L 82.004824 160.188395 
L 82.357524 160.182646 
L 82.710223 159.96499 
L 83.062923 159.886422 
L 83.415622 159.675111 
L 83.768322 159.638213 
L 84.47372 162.55001 
L 85.179119 164.808342 
L 85.531819 165.859866 
L 85.884518 166.549415 
L 86.942616 167.83502 
L 87.295316 168.100048 
L 89.058813 168.54692 
L 89.411512 168.479035 
L 89.764211 168.282856 
L 90.116911 168.279427 
L 90.82231 168.016986 
L 91.880408 167.478525 
L 93.291206 166.367149 
L 93.996604 166.013175 
L 94.349304 165.905229 
L 95.054703 165.253026 
L 95.760101 164.840738 
L 96.8182 164.298945 
L 97.170899 164.282721 
L 97.523598 163.843704 
L 100.697893 161.967171 
L 102.108691 161.370191 
L 102.46139 161.391227 
L 103.166789 161.161349 
L 104.224887 160.933168 
L 104.930286 160.450438 
L 105.282985 160.598362 
L 105.988384 160.157863 
L 106.341084 160.119735 
L 106.693783 159.939911 
L 107.046482 159.573288 
L 107.751881 159.649718 
L 108.809979 159.247125 
L 109.515378 162.167865 
L 110.573477 164.815453 
L 111.278875 166.134904 
L 111.984274 167.084915 
L 113.395072 168.375274 
L 114.45317 168.3557 
L 115.158569 168.320129 
L 116.216667 167.890255 
L 116.922066 167.325758 
L 117.274765 167.10591 
L 118.332863 166.095851 
L 119.038262 165.647637 
L 119.743661 165.081576 
L 120.44906 164.510618 
L 120.801759 164.304739 
L 121.507158 163.549622 
L 122.212557 163.35331 
L 122.917956 163.217798 
L 123.623355 162.598308 
L 123.976054 162.56531 
L 125.034152 161.797264 
L 127.503048 160.853415 
L 128.208447 160.75806 
L 128.913846 160.505135 
L 129.619245 160.362609 
L 129.971944 160.457913 
L 130.324643 160.432833 
L 131.382742 159.929963 
L 131.735441 159.704439 
L 133.498938 159.634692 
L 133.851637 159.343609 
L 134.557036 161.946479 
L 135.262435 163.896158 
L 136.320533 165.960549 
L 137.025932 166.838294 
L 137.378632 167.079711 
L 138.43673 167.318866 
L 138.789429 167.152946 
L 139.142129 167.20042 
L 140.905626 166.79711 
L 141.963724 165.891164 
L 142.316423 165.835764 
L 143.374521 165.163597 
L 143.727221 165.098968 
L 144.07992 164.828589 
L 144.43262 164.412609 
L 144.785319 164.277399 
L 145.843417 163.186458 
L 146.548816 163.027137 
L 147.959614 161.657167 
L 148.312313 161.340955 
L 149.017712 161.032276 
L 149.370411 160.697945 
L 150.07581 160.268408 
L 150.781209 159.818656 
L 151.133908 159.636029 
L 151.486608 159.644063 
L 152.192007 159.2842 
L 152.897405 159.106939 
L 153.955504 158.458835 
L 156.0717 157.640294 
L 156.4244 157.354587 
L 158.540596 156.837421 
L 158.893295 156.618859 
L 159.245995 156.695699 
L 159.951394 156.422132 
L 161.362191 156.0673 
L 161.714891 156.069602 
L 162.06759 155.795544 
L 163.125688 160.104122 
L 163.831087 162.05117 
L 164.889185 164.121526 
L 166.299983 165.394577 
L 167.710781 165.405786 
L 168.06348 165.249569 
L 168.416179 165.230997 
L 169.826977 164.759951 
L 170.532376 164.159661 
L 170.885075 164.043119 
L 171.590474 163.377287 
L 172.648572 162.580276 
L 173.706671 161.825979 
L 174.05937 161.428783 
L 175.470168 160.84613 
L 176.528266 160.331384 
L 178.291763 159.453189 
L 178.644462 159.411977 
L 179.349861 158.947375 
L 180.05526 158.903419 
L 182.171456 157.761821 
L 182.524156 157.749046 
L 183.934953 157.112295 
L 184.640352 157.028089 
L 184.993052 156.75425 
L 185.69845 156.662457 
L 186.403849 156.5032 
L 187.109248 156.357492 
L 187.814647 159.168637 
L 188.520046 161.204835 
L 188.872745 162.198403 
L 189.930843 163.958598 
L 190.283543 164.437216 
L 190.636242 164.714225 
L 190.988942 165.210847 
L 192.399739 165.66769 
L 194.163236 165.684002 
L 194.868635 165.36265 
L 195.574034 164.480443 
L 196.279433 163.926577 
L 196.984831 163.57181 
L 197.337531 163.179055 
L 198.395629 162.705492 
L 199.453727 162.051128 
L 200.159126 161.380081 
L 200.511826 161.225841 
L 200.864525 160.944596 
L 201.569924 160.727385 
L 202.628022 164.261371 
L 203.333421 165.754663 
L 203.68612 166.165296 
L 204.03882 166.793511 
L 205.096918 167.260172 
L 206.155016 167.368066 
L 207.213114 166.748571 
L 208.271213 166.041357 
L 210.387409 163.99363 
L 211.092808 163.115762 
L 212.150906 162.339598 
L 212.503605 162.182283 
L 213.209004 161.234543 
L 213.561704 160.947993 
L 213.914403 160.806804 
L 214.267102 160.325839 
L 217.088698 158.260109 
L 217.441397 157.911056 
L 217.794097 157.778935 
L 218.852195 156.85576 
L 219.204894 156.777777 
L 219.910293 156.215445 
L 220.262992 156.047417 
L 220.968391 158.627912 
L 222.026489 161.259049 
L 222.379189 161.97491 
L 223.437287 163.214093 
L 224.848085 163.912454 
L 225.553483 163.836976 
L 225.906183 163.898171 
L 226.964281 163.557766 
L 227.316981 163.096738 
L 227.66968 163.010012 
L 228.375079 162.243757 
L 229.433177 161.47402 
L 230.138576 161.075785 
L 230.491275 160.837559 
L 231.196674 160.035955 
L 233.31287 158.444772 
L 234.018269 158.085195 
L 234.370969 157.704377 
L 235.076368 157.336599 
L 236.134466 156.614358 
L 236.487165 156.492998 
L 237.192564 155.855373 
L 237.545263 155.896948 
L 238.250662 155.562673 
L 238.603362 155.446521 
L 239.30876 155.013032 
L 239.66146 155.007115 
L 240.719558 154.246014 
L 241.072257 154.27457 
L 241.777656 154.009759 
L 242.483055 154.024078 
L 243.188454 153.730645 
L 243.893853 153.576462 
L 244.246552 153.717854 
L 245.30465 153.520916 
L 246.362749 157.660051 
L 247.068147 159.427322 
L 248.831644 161.942297 
L 249.537043 162.263183 
L 250.595141 162.377885 
L 251.65324 162.204569 
L 253.416737 161.711957 
L 254.122136 161.029454 
L 254.474835 160.828145 
L 255.180234 160.597876 
L 255.885633 160.145406 
L 256.943731 159.507983 
L 258.001829 158.931939 
L 259.059927 158.021825 
L 260.823424 156.953561 
L 261.528823 156.496696 
L 262.234222 156.142273 
L 262.586921 155.838744 
L 266.819314 154.072049 
L 267.877412 158.207365 
L 268.582811 160.108982 
L 269.28821 161.475172 
L 270.346308 162.800024 
L 272.109805 163.436334 
L 272.462505 163.483755 
L 274.931401 162.194479 
L 275.2841 162.168101 
L 276.342198 161.227689 
L 276.694898 161.073436 
L 278.105695 160.000819 
L 279.163793 159.339807 
L 279.869192 158.844327 
L 280.574591 158.469051 
L 281.27999 157.985563 
L 281.985389 157.831549 
L 282.338088 157.526088 
L 284.806984 156.539328 
L 285.512383 156.363404 
L 286.570481 155.89535 
L 287.27588 155.765361 
L 287.981279 158.718383 
L 288.686677 160.641377 
L 289.392076 162.210681 
L 290.450175 163.610546 
L 291.155573 164.132423 
L 292.213672 164.333137 
L 293.27177 164.107107 
L 293.624469 163.915466 
L 293.977169 163.875234 
L 294.329868 163.479599 
L 295.387966 162.826667 
L 295.740666 162.422728 
L 296.446064 162.098692 
L 299.620359 159.655173 
L 299.973059 159.465539 
L 300.678457 158.911407 
L 301.031157 158.675612 
L 301.383856 158.263862 
L 301.736556 158.070469 
L 302.089255 158.013119 
L 302.441954 157.835122 
L 302.794654 157.804933 
L 303.147353 157.539087 
L 303.500053 157.520148 
L 303.852752 157.303024 
L 304.205451 157.312282 
L 305.26355 156.953119 
L 306.674347 156.315708 
L 307.027047 156.089386 
L 307.732446 155.961456 
L 308.437844 155.478339 
L 311.612139 154.928448 
L 312.317538 154.669585 
L 313.022937 157.52476 
L 313.728335 159.701679 
L 314.433734 161.34498 
L 315.491832 163.025353 
L 316.197231 163.56775 
L 316.90263 163.808407 
L 317.960728 163.524505 
L 318.666127 163.568323 
L 319.371526 163.300762 
L 319.724225 163.189057 
L 321.487722 161.831727 
L 322.545821 161.28763 
L 325.367416 159.212742 
L 325.720115 158.977612 
L 326.072815 158.527424 
L 326.778214 158.375787 
L 327.483612 157.856483 
L 328.541711 157.309126 
L 328.89441 157.107441 
L 329.247109 157.187288 
L 329.599809 157.146192 
L 330.305208 156.677734 
L 331.010606 159.266257 
L 331.716005 161.331697 
L 332.421404 162.648424 
L 333.479502 163.859098 
L 334.184901 164.218749 
L 334.8903 164.312262 
L 335.242999 164.323736 
L 337.006496 163.418735 
L 337.359196 163.327407 
L 340.53349 161.150153 
L 340.88619 160.716215 
L 344.060485 158.445794 
L 345.118583 158.118351 
L 345.823982 157.792085 
L 347.234779 156.671814 
L 347.940178 156.50822 
L 348.645577 155.972393 
L 348.998276 155.845772 
L 350.056374 159.627463 
L 351.114473 162.084845 
L 352.172571 163.395089 
L 352.52527 163.451915 
L 353.583369 164.09841 
L 354.288767 163.950649 
L 355.346866 163.564328 
L 357.463062 161.78711 
L 357.815761 161.535702 
L 358.168461 161.452685 
L 359.226559 160.815019 
L 360.284657 160.20582 
L 360.990056 159.688332 
L 361.695455 158.955301 
L 362.753553 158.24488 
L 363.811651 157.528513 
L 364.164351 157.275849 
L 364.86975 157.125409 
L 365.222449 156.98391 
L 365.575148 156.689853 
L 365.927848 156.676345 
L 368.396744 155.551598 
L 369.454842 155.163403 
L 370.51294 154.634017 
L 370.86564 154.712239 
L 371.923738 154.423836 
L 372.629137 154.226365 
L 373.687235 153.912965 
L 374.039934 153.972607 
L 374.745333 157.020371 
L 375.450732 159.27745 
L 376.50883 161.639977 
L 377.214229 162.515015 
L 377.919628 163.137118 
L 378.625027 163.500885 
L 381.093922 162.930168 
L 382.152021 162.408798 
L 382.50472 161.989885 
L 382.857419 161.95076 
L 383.210119 161.746144 
L 384.268217 160.779904 
L 386.737113 159.123382 
L 387.442512 158.477963 
L 387.795211 158.377113 
L 388.147911 157.888846 
L 390.969506 156.551983 
L 391.322205 156.496845 
L 391.674905 156.191593 
L 392.027604 156.127695 
L 392.733003 155.725187 
L 393.085702 155.747809 
L 393.791101 155.539518 
L 394.1438 155.444539 
L 394.4965 155.213322 
L 394.849199 155.29246 
L 395.201899 154.983549 
L 395.907297 154.970976 
L 396.259997 154.767041 
L 396.965396 154.918946 
L 397.318095 154.73377 
L 397.670795 154.693252 
L 398.023494 154.519277 
L 398.376193 154.470924 
L 399.081592 154.142596 
L 399.786991 154.088881 
L 400.13969 154.209503 
L 400.49239 154.141516 
L 401.197789 154.332748 
L 401.903187 154.034038 
L 402.608586 153.905146 
L 403.313985 156.725051 
L 404.019384 159.043723 
L 405.077482 161.392328 
L 405.782881 162.428821 
L 406.48828 162.988794 
L 407.546378 163.379063 
L 408.251777 163.457768 
L 408.604476 163.285657 
L 408.957176 163.403139 
L 409.662574 163.105507 
L 410.015274 163.14105 
L 411.073372 162.571817 
L 412.836869 161.296957 
L 413.189568 160.880094 
L 413.894967 160.343489 
L 414.600366 159.827014 
L 415.305765 159.474056 
L 418.832759 157.42915 
L 419.538158 157.34127 
L 419.890857 156.993388 
L 420.596256 156.723984 
L 421.654354 156.87124 
L 422.712452 156.407142 
L 423.417851 156.012265 
L 423.770551 156.088765 
L 425.534048 155.759744 
L 425.534048 155.759744 
" clip-path="url(#pc51caacf62)" style="fill: none; stroke: #808080; stroke-width: 1.5; stroke-linecap: square"/>
   </g>
   <g id="LineCollection_3">
    <path d="M 57.668565 155.744459 
L 425.886747 155.744459 
" clip-path="url(#pc51caacf62)" style="fill: none; stroke-dasharray: 5.55,2.4; stroke-dashoffset: 0; stroke: #d3d3d3; stroke-width: 1.5"/>
   </g>
   <g id="LineCollection_4">
    <path d="M 83.768322 176.300582 
L 83.768322 146.746605 
" clip-path="url(#pc51caacf62)" style="fill: none; stroke: #808080; stroke-opacity: 0.5; stroke-width: 1.5"/>
    <path d="M 108.809979 176.300582 
L 108.809979 146.746605 
" clip-path="url(#pc51caacf62)" style="fill: none; stroke: #808080; stroke-opacity: 0.5; stroke-width: 1.5"/>
    <path d="M 133.851637 176.300582 
L 133.851637 146.746605 
" clip-path="url(#pc51caacf62)" style="fill: none; stroke: #808080; stroke-opacity: 0.5; stroke-width: 1.5"/>
    <path d="M 162.06759 176.300582 
L 162.06759 146.746605 
" clip-path="url(#pc51caacf62)" style="fill: none; stroke: #808080; stroke-opacity: 0.5; stroke-width: 1.5"/>
    <path d="M 187.109248 176.300582 
L 187.109248 146.746605 
" clip-path="url(#pc51caacf62)" style="fill: none; stroke: #808080; stroke-opacity: 0.5; stroke-width: 1.5"/>
    <path d="M 201.569924 176.300582 
L 201.569924 146.746605 
" clip-path="url(#pc51caacf62)" style="fill: none; stroke: #808080; stroke-opacity: 0.5; stroke-width: 1.5"/>
    <path d="M 220.262992 176.300582 
L 220.262992 146.746605 
" clip-path="url(#pc51caacf62)" style="fill: none; stroke: #808080; stroke-opacity: 0.5; stroke-width: 1.5"/>
    <path d="M 245.30465 176.300582 
L 245.30465 146.746605 
" clip-path="url(#pc51caacf62)" style="fill: none; stroke: #808080; stroke-opacity: 0.5; stroke-width: 1.5"/>
    <path d="M 266.819314 176.300582 
L 266.819314 146.746605 
" clip-path="url(#pc51caacf62)" style="fill: none; stroke: #808080; stroke-opacity: 0.5; stroke-width: 1.5"/>
    <path d="M 287.27588 176.300582 
L 287.27588 146.746605 
" clip-path="url(#pc51caacf62)" style="fill: none; stroke: #808080; stroke-opacity: 0.5; stroke-width: 1.5"/>
    <path d="M 312.317538 176.300582 
L 312.317538 146.746605 
" clip-path="url(#pc51caacf62)" style="fill: none; stroke: #808080; stroke-opacity: 0.5; stroke-width: 1.5"/>
    <path d="M 330.305208 176.300582 
L 330.305208 146.746605 
" clip-path="url(#pc51caacf62)" style="fill: none; stroke: #808080; stroke-opacity: 0.5; stroke-width: 1.5"/>
    <path d="M 348.998276 176.300582 
L 348.998276 146.746605 
" clip-path="url(#pc51caacf62)" style="fill: none; stroke: #808080; stroke-opacity: 0.5; stroke-width: 1.5"/>
    <path d="M 374.039934 176.300582 
L 374.039934 146.746605 
" clip-path="url(#pc51caacf62)" style="fill: none; stroke: #808080; stroke-opacity: 0.5; stroke-width: 1.5"/>
    <path d="M 402.608586 176.300582 
L 402.608586 146.746605 
" clip-path="url(#pc51caacf62)" style="fill: none; stroke: #808080; stroke-opacity: 0.5; stroke-width: 1.5"/>
    <path d="M 425.181348 176.300582 
L 425.181348 146.746605 
" clip-path="url(#pc51caacf62)" style="fill: none; stroke: #808080; stroke-opacity: 0.5; stroke-width: 1.5"/>
   </g>
   <g id="patch_39">
    <path d="M 39.257656 177.778281 
L 39.257656 145.268906 
" style="fill: none; stroke: #000000; stroke-width: 0.8; stroke-linejoin: miter; stroke-linecap: square"/>
   </g>
   <g id="patch_40">
    <path d="M 39.257656 177.778281 
L 444.297656 177.778281 
" style="fill: none; stroke: #000000; stroke-width: 0.8; stroke-linejoin: miter; stroke-linecap: square"/>
   </g>
   <g id="text_10">
    <!-- dy/dt -->
    <g transform="translate(227.890156 139.268906)scale(0.11 -0.11)">
     <defs>
      <path id="CMUSerif-Roman-79" d="M 122 -794 
Q 122 -659 202 -588 
Q 282 -518 390 -518 
Q 506 -518 582 -592 
Q 659 -666 659 -787 
Q 659 -1024 410 -1056 
Q 531 -1171 710 -1171 
Q 902 -1171 1056 -1030 
Q 1210 -890 1277 -755 
Q 1344 -621 1440 -378 
Q 1530 -186 1600 0 
L 640 2336 
Q 576 2490 480 2525 
Q 384 2560 122 2560 
L 122 2758 
Q 410 2739 742 2739 
Q 941 2739 1440 2758 
L 1440 2560 
Q 1082 2560 1082 2394 
Q 1082 2374 1120 2278 
L 1830 557 
L 2477 2131 
Q 2515 2221 2515 2285 
Q 2515 2547 2214 2560 
L 2214 2758 
Q 2637 2739 2771 2739 
Q 3034 2739 3251 2758 
L 3251 2560 
Q 2822 2560 2656 2150 
L 1530 -582 
Q 1222 -1312 710 -1312 
Q 467 -1312 294 -1161 
Q 122 -1011 122 -794 
z
" transform="scale(0.015625)"/>
     </defs>
     <use xlink:href="#CMUSerif-Roman-64"/>
     <use xlink:href="#CMUSerif-Roman-79" x="55.499985"/>
     <use xlink:href="#CMUSerif-Roman-2f" x="108.199982"/>
     <use xlink:href="#CMUSerif-Roman-64" x="158.199966"/>
     <use xlink:href="#CMUSerif-Roman-74" x="213.699951"/>
    </g>
   </g>
  </g>
  <g id="axes_4">
   <g id="patch_41">
    <path d="M 39.257656 239.698906 
L 444.297656 239.698906 
L 444.297656 207.189531 
L 39.257656 207.189531 
z
" style="fill: #ffffff"/>
   </g>
   <g id="patch_42">
    <path d="M 133.851637 239.698906 
L 133.851637 207.189531 
L 162.06759 207.189531 
L 162.06759 239.698906 
z
" clip-path="url(#p3e59b62b93)" style="fill: #ff0000; opacity: 0.1"/>
   </g>
   <g id="patch_43">
    <path d="M 108.809979 239.698906 
L 108.809979 207.189531 
L 133.851637 207.189531 
L 133.851637 239.698906 
z
" clip-path="url(#p3e59b62b93)" style="fill: #0000ff; opacity: 0.1"/>
   </g>
   <g id="patch_44">
    <path d="M 201.569924 239.698906 
L 201.569924 207.189531 
L 220.262992 207.189531 
L 220.262992 239.698906 
z
" clip-path="url(#p3e59b62b93)" style="fill: #ff0000; opacity: 0.1"/>
   </g>
   <g id="patch_45">
    <path d="M 187.109248 239.698906 
L 187.109248 207.189531 
L 201.569924 207.189531 
L 201.569924 239.698906 
z
" clip-path="url(#p3e59b62b93)" style="fill: #0000ff; opacity: 0.1"/>
   </g>
   <g id="patch_46">
    <path d="M 266.819314 239.698906 
L 266.819314 207.189531 
L 287.27588 207.189531 
L 287.27588 239.698906 
z
" clip-path="url(#p3e59b62b93)" style="fill: #ff0000; opacity: 0.1"/>
   </g>
   <g id="patch_47">
    <path d="M 245.30465 239.698906 
L 245.30465 207.189531 
L 266.819314 207.189531 
L 266.819314 239.698906 
z
" clip-path="url(#p3e59b62b93)" style="fill: #0000ff; opacity: 0.1"/>
   </g>
   <g id="patch_48">
    <path d="M 330.305208 239.698906 
L 330.305208 207.189531 
L 348.998276 207.189531 
L 348.998276 239.698906 
z
" clip-path="url(#p3e59b62b93)" style="fill: #ff0000; opacity: 0.1"/>
   </g>
   <g id="patch_49">
    <path d="M 312.317538 239.698906 
L 312.317538 207.189531 
L 330.305208 207.189531 
L 330.305208 239.698906 
z
" clip-path="url(#p3e59b62b93)" style="fill: #0000ff; opacity: 0.1"/>
   </g>
   <g id="patch_50">
    <path d="M 402.608586 239.698906 
L 402.608586 207.189531 
L 425.181348 207.189531 
L 425.181348 239.698906 
z
" clip-path="url(#p3e59b62b93)" style="fill: #ff0000; opacity: 0.1"/>
   </g>
   <g id="patch_51">
    <path d="M 374.039934 239.698906 
L 374.039934 207.189531 
L 402.608586 207.189531 
L 402.608586 239.698906 
z
" clip-path="url(#p3e59b62b93)" style="fill: #0000ff; opacity: 0.1"/>
   </g>
   <g id="matplotlib.axis_7">
    <g id="xtick_19">
     <g id="line2d_29">
      <g>
       <use xlink:href="#m0fa5d79ce8" x="57.668565" y="239.698906" style="stroke: #000000; stroke-width: 0.8"/>
      </g>
     </g>
     <g id="text_11">
      <!-- 0 -->
      <g transform="translate(54.918565 254.333594)scale(0.11 -0.11)">
       <use xlink:href="#CMUSerif-Roman-30"/>
      </g>
     </g>
    </g>
    <g id="xtick_20">
     <g id="line2d_30">
      <g>
       <use xlink:href="#m0fa5d79ce8" x="128.208447" y="239.698906" style="stroke: #000000; stroke-width: 0.8"/>
      </g>
     </g>
     <g id="text_12">
      <!-- 2000 -->
      <g transform="translate(117.208447 254.333594)scale(0.11 -0.11)">
       <use xlink:href="#CMUSerif-Roman-32"/>
       <use xlink:href="#CMUSerif-Roman-30" x="49.999985"/>
       <use xlink:href="#CMUSerif-Roman-30" x="99.999969"/>
       <use xlink:href="#CMUSerif-Roman-30" x="149.999954"/>
      </g>
     </g>
    </g>
    <g id="xtick_21">
     <g id="line2d_31">
      <g>
       <use xlink:href="#m0fa5d79ce8" x="198.748328" y="239.698906" style="stroke: #000000; stroke-width: 0.8"/>
      </g>
     </g>
     <g id="text_13">
      <!-- 4000 -->
      <g transform="translate(187.748328 254.333594)scale(0.11 -0.11)">
       <defs>
        <path id="CMUSerif-Roman-34" d="M 179 1056 
L 179 1254 
L 2144 4256 
Q 2195 4333 2272 4333 
Q 2342 4333 2358 4304 
Q 2374 4275 2374 4166 
L 2374 1254 
L 3014 1254 
L 3014 1056 
L 2374 1056 
L 2374 499 
Q 2374 314 2451 256 
Q 2528 198 2861 198 
L 2995 198 
L 2995 0 
Q 2733 19 2125 19 
Q 1523 19 1261 0 
L 1261 198 
L 1395 198 
Q 1728 198 1805 256 
Q 1882 314 1882 499 
L 1882 1056 
L 179 1056 
z
M 358 1254 
L 1920 1254 
L 1920 3642 
L 358 1254 
z
" transform="scale(0.015625)"/>
       </defs>
       <use xlink:href="#CMUSerif-Roman-34"/>
       <use xlink:href="#CMUSerif-Roman-30" x="49.999985"/>
       <use xlink:href="#CMUSerif-Roman-30" x="99.999969"/>
       <use xlink:href="#CMUSerif-Roman-30" x="149.999954"/>
      </g>
     </g>
    </g>
    <g id="xtick_22">
     <g id="line2d_32">
      <g>
       <use xlink:href="#m0fa5d79ce8" x="269.28821" y="239.698906" style="stroke: #000000; stroke-width: 0.8"/>
      </g>
     </g>
     <g id="text_14">
      <!-- 6000 -->
      <g transform="translate(258.28821 254.333594)scale(0.11 -0.11)">
       <defs>
        <path id="CMUSerif-Roman-36" d="M 269 2022 
Q 269 3027 781 3644 
Q 1293 4262 1952 4262 
Q 2336 4262 2550 4067 
Q 2765 3872 2765 3571 
Q 2765 3405 2669 3334 
Q 2573 3264 2470 3264 
Q 2355 3264 2265 3341 
Q 2176 3418 2176 3558 
Q 2176 3846 2528 3846 
Q 2362 4102 1965 4102 
Q 1843 4102 1718 4067 
Q 1594 4032 1430 3913 
Q 1267 3795 1142 3606 
Q 1018 3418 931 3066 
Q 845 2714 845 2253 
L 845 2099 
Q 1107 2733 1644 2733 
Q 2182 2733 2553 2323 
Q 2925 1914 2925 1306 
Q 2925 685 2537 272 
Q 2150 -141 1606 -141 
Q 1363 -141 1142 -38 
Q 922 64 717 294 
Q 512 525 390 969 
Q 269 1414 269 2022 
z
M 858 1446 
Q 858 819 973 518 
Q 992 467 1033 400 
Q 1075 333 1148 243 
Q 1222 154 1344 96 
Q 1466 38 1606 38 
Q 2035 38 2240 454 
Q 2349 685 2349 1312 
Q 2349 1952 2234 2189 
Q 2035 2586 1638 2586 
Q 1370 2586 1184 2400 
Q 998 2214 928 1968 
Q 858 1722 858 1446 
z
" transform="scale(0.015625)"/>
       </defs>
       <use xlink:href="#CMUSerif-Roman-36"/>
       <use xlink:href="#CMUSerif-Roman-30" x="49.999985"/>
       <use xlink:href="#CMUSerif-Roman-30" x="99.999969"/>
       <use xlink:href="#CMUSerif-Roman-30" x="149.999954"/>
      </g>
     </g>
    </g>
    <g id="xtick_23">
     <g id="line2d_33">
      <g>
       <use xlink:href="#m0fa5d79ce8" x="339.828092" y="239.698906" style="stroke: #000000; stroke-width: 0.8"/>
      </g>
     </g>
     <g id="text_15">
      <!-- 8000 -->
      <g transform="translate(328.828092 254.333594)scale(0.11 -0.11)">
       <use xlink:href="#CMUSerif-Roman-38"/>
       <use xlink:href="#CMUSerif-Roman-30" x="49.999985"/>
       <use xlink:href="#CMUSerif-Roman-30" x="99.999969"/>
       <use xlink:href="#CMUSerif-Roman-30" x="149.999954"/>
      </g>
     </g>
    </g>
    <g id="xtick_24">
     <g id="line2d_34">
      <g>
       <use xlink:href="#m0fa5d79ce8" x="410.367973" y="239.698906" style="stroke: #000000; stroke-width: 0.8"/>
      </g>
     </g>
     <g id="text_16">
      <!-- 10000 -->
      <g transform="translate(396.617973 254.333594)scale(0.11 -0.11)">
       <defs>
        <path id="CMUSerif-Roman-31" d="M 570 3654 
L 570 3853 
Q 1338 3853 1734 4262 
Q 1843 4262 1862 4236 
Q 1882 4211 1882 4096 
L 1882 506 
Q 1882 314 1974 256 
Q 2067 198 2477 198 
L 2682 198 
L 2682 0 
Q 2458 19 1645 19 
Q 832 19 608 0 
L 608 198 
L 813 198 
Q 1216 198 1312 256 
Q 1408 314 1408 506 
L 1408 3821 
Q 1075 3654 570 3654 
z
" transform="scale(0.015625)"/>
       </defs>
       <use xlink:href="#CMUSerif-Roman-31"/>
       <use xlink:href="#CMUSerif-Roman-30" x="49.999985"/>
       <use xlink:href="#CMUSerif-Roman-30" x="99.999969"/>
       <use xlink:href="#CMUSerif-Roman-30" x="149.999954"/>
       <use xlink:href="#CMUSerif-Roman-30" x="199.999939"/>
      </g>
     </g>
    </g>
    <g id="text_17">
     <!-- Time (ms) -->
     <g transform="translate(216.411484 268.718281)scale(0.11 -0.11)">
      <defs>
       <path id="CMUSerif-Roman-54" d="M 230 2893 
L 352 4333 
L 4262 4333 
L 4384 2893 
L 4224 2893 
Q 4198 3181 4176 3347 
Q 4154 3514 4099 3670 
Q 4045 3827 3977 3904 
Q 3910 3981 3782 4041 
Q 3654 4102 3488 4118 
Q 3322 4134 3072 4134 
Q 2778 4134 2707 4122 
Q 2630 4102 2611 4048 
Q 2592 3994 2592 3878 
L 2592 506 
Q 2592 378 2617 326 
Q 2643 275 2790 236 
Q 2938 198 3264 198 
L 3520 198 
L 3520 0 
Q 3258 19 2304 19 
Q 1357 19 1094 0 
L 1094 198 
L 1350 198 
Q 1677 198 1824 236 
Q 1971 275 1996 326 
Q 2022 378 2022 506 
L 2022 3878 
Q 2022 3968 2016 4006 
Q 2010 4045 1981 4077 
Q 1952 4109 1888 4121 
Q 1824 4134 1542 4134 
Q 1293 4134 1126 4118 
Q 960 4102 832 4041 
Q 704 3981 637 3904 
Q 570 3827 515 3670 
Q 461 3514 438 3347 
Q 416 3181 390 2893 
L 230 2893 
z
" transform="scale(0.015625)"/>
       <path id="CMUSerif-Roman-69" d="M 211 0 
L 211 198 
Q 550 198 630 240 
Q 710 282 710 486 
L 710 2208 
Q 710 2445 630 2502 
Q 550 2560 237 2560 
L 237 2758 
L 1133 2829 
L 1133 480 
Q 1133 288 1200 243 
Q 1267 198 1581 198 
L 1581 0 
Q 928 19 915 19 
Q 826 19 211 0 
z
M 480 3942 
Q 480 4070 579 4176 
Q 678 4282 819 4282 
Q 960 4282 1059 4186 
Q 1158 4090 1158 3942 
Q 1158 3795 1059 3699 
Q 960 3603 819 3603 
Q 672 3603 576 3705 
Q 480 3808 480 3942 
z
" transform="scale(0.015625)"/>
       <path id="CMUSerif-Roman-6d" d="M 205 0 
L 205 198 
Q 544 198 624 240 
Q 704 282 704 486 
L 704 2202 
Q 704 2438 621 2499 
Q 538 2560 205 2560 
L 205 2758 
L 1107 2829 
L 1107 2157 
Q 1408 2829 2054 2829 
Q 2803 2829 2906 2202 
Q 3014 2445 3244 2637 
Q 3475 2829 3834 2829 
Q 4314 2829 4506 2592 
Q 4646 2432 4675 2253 
Q 4704 2074 4704 1613 
L 4704 390 
Q 4710 256 4812 227 
Q 4915 198 5203 198 
L 5203 0 
Q 4550 19 4486 19 
Q 4435 19 3763 0 
L 3763 198 
Q 4102 198 4182 240 
Q 4262 282 4262 486 
L 4262 1978 
Q 4262 2304 4163 2496 
Q 4064 2688 3789 2688 
Q 3456 2688 3190 2409 
Q 2925 2131 2925 1664 
L 2925 486 
Q 2925 282 3005 240 
Q 3085 198 3424 198 
L 3424 0 
Q 2771 19 2707 19 
Q 2656 19 1984 0 
L 1984 198 
Q 2323 198 2403 240 
Q 2483 282 2483 486 
L 2483 1978 
Q 2483 2304 2384 2496 
Q 2285 2688 2010 2688 
Q 1677 2688 1411 2409 
Q 1146 2131 1146 1664 
L 1146 486 
Q 1146 282 1226 240 
Q 1306 198 1645 198 
L 1645 0 
Q 992 19 928 19 
Q 877 19 205 0 
z
" transform="scale(0.015625)"/>
       <path id="CMUSerif-Roman-65" d="M 179 1408 
Q 179 2010 566 2438 
Q 954 2867 1510 2867 
Q 2074 2867 2365 2502 
Q 2656 2138 2656 1613 
Q 2656 1517 2630 1497 
Q 2605 1478 2496 1478 
L 710 1478 
Q 710 826 902 518 
Q 1171 90 1626 90 
Q 1690 90 1763 102 
Q 1837 115 1990 169 
Q 2144 224 2278 371 
Q 2413 518 2490 749 
Q 2509 838 2573 838 
Q 2656 838 2656 762 
Q 2656 704 2595 579 
Q 2534 454 2419 304 
Q 2304 154 2080 42 
Q 1856 -70 1587 -70 
Q 1024 -70 601 355 
Q 179 781 179 1408 
z
M 717 1613 
L 2234 1613 
Q 2234 1747 2211 1897 
Q 2189 2048 2121 2256 
Q 2054 2464 1897 2595 
Q 1741 2726 1510 2726 
Q 1408 2726 1296 2681 
Q 1184 2637 1049 2531 
Q 915 2426 822 2186 
Q 730 1946 717 1613 
z
" transform="scale(0.015625)"/>
       <path id="CMUSerif-Roman-20" transform="scale(0.015625)"/>
       <path id="CMUSerif-Roman-28" d="M 634 1600 
Q 634 2682 1037 3552 
Q 1210 3917 1450 4224 
Q 1690 4531 1850 4665 
Q 2010 4800 2054 4800 
Q 2118 4800 2118 4736 
Q 2118 4704 2035 4627 
Q 1005 3578 1005 1600 
Q 1005 -384 2010 -1395 
Q 2118 -1504 2118 -1536 
Q 2118 -1600 2054 -1600 
Q 2010 -1600 1856 -1472 
Q 1702 -1344 1465 -1049 
Q 1229 -755 1056 -397 
Q 634 474 634 1600 
z
" transform="scale(0.015625)"/>
       <path id="CMUSerif-Roman-73" d="M 211 83 
L 211 928 
Q 211 998 214 1024 
Q 218 1050 237 1069 
Q 256 1088 294 1088 
Q 339 1088 355 1069 
Q 371 1050 384 979 
Q 480 538 688 304 
Q 896 70 1274 70 
Q 1632 70 1814 230 
Q 1997 390 1997 653 
Q 1997 1120 1331 1242 
Q 947 1318 787 1369 
Q 627 1421 486 1536 
Q 211 1760 211 2080 
Q 211 2400 454 2633 
Q 698 2867 1235 2867 
Q 1594 2867 1837 2688 
Q 1907 2746 1946 2790 
Q 2029 2867 2074 2867 
Q 2125 2867 2134 2835 
Q 2144 2803 2144 2714 
L 2144 2067 
Q 2144 1997 2141 1971 
Q 2138 1946 2118 1930 
Q 2099 1914 2061 1914 
Q 1990 1914 1984 1971 
Q 1933 2746 1235 2746 
Q 858 2746 688 2602 
Q 518 2458 518 2259 
Q 518 2150 569 2067 
Q 621 1984 688 1936 
Q 755 1888 880 1843 
Q 1005 1798 1081 1782 
Q 1158 1766 1306 1734 
Q 1818 1638 2035 1427 
Q 2304 1158 2304 819 
Q 2304 442 2048 186 
Q 1792 -70 1274 -70 
Q 858 -70 570 205 
Q 531 166 502 134 
Q 474 102 464 89 
Q 454 77 451 70 
Q 448 64 442 58 
Q 314 -70 282 -70 
Q 230 -70 220 -38 
Q 211 -6 211 83 
z
" transform="scale(0.015625)"/>
       <path id="CMUSerif-Roman-29" d="M 365 -1536 
Q 365 -1504 448 -1427 
Q 1478 -378 1478 1600 
Q 1478 3584 486 4589 
Q 365 4704 365 4736 
Q 365 4800 429 4800 
Q 474 4800 627 4672 
Q 781 4544 1017 4249 
Q 1254 3955 1427 3597 
Q 1850 2726 1850 1600 
Q 1850 518 1446 -352 
Q 1274 -717 1034 -1024 
Q 794 -1331 634 -1465 
Q 474 -1600 429 -1600 
Q 365 -1600 365 -1536 
z
" transform="scale(0.015625)"/>
      </defs>
      <use xlink:href="#CMUSerif-Roman-54"/>
      <use xlink:href="#CMUSerif-Roman-69" x="72.199982"/>
      <use xlink:href="#CMUSerif-Roman-6d" x="99.899979"/>
      <use xlink:href="#CMUSerif-Roman-65" x="183.199966"/>
      <use xlink:href="#CMUSerif-Roman-20" x="227.59996"/>
      <use xlink:href="#CMUSerif-Roman-28" x="260.899948"/>
      <use xlink:href="#CMUSerif-Roman-6d" x="299.699936"/>
      <use xlink:href="#CMUSerif-Roman-73" x="382.999924"/>
      <use xlink:href="#CMUSerif-Roman-29" x="422.399918"/>
     </g>
    </g>
   </g>
   <g id="matplotlib.axis_8">
    <g id="ytick_8">
     <g id="line2d_35">
      <g>
       <use xlink:href="#m36bbc07a98" x="39.257656" y="224.783576" style="stroke: #000000; stroke-width: 0.8"/>
      </g>
     </g>
     <g id="text_18">
      <!-- 0.775 -->
      <g transform="translate(7.2 228.60092)scale(0.11 -0.11)">
       <use xlink:href="#CMUSerif-Roman-30"/>
       <use xlink:href="#CMUSerif-Roman-2e" x="49.999985"/>
       <use xlink:href="#CMUSerif-Roman-37" x="77.799973"/>
       <use xlink:href="#CMUSerif-Roman-37" x="127.799957"/>
       <use xlink:href="#CMUSerif-Roman-35" x="177.799942"/>
      </g>
     </g>
    </g>
    <g id="ytick_9">
     <g id="line2d_36">
      <g>
       <use xlink:href="#m36bbc07a98" x="39.257656" y="208.66723" style="stroke: #000000; stroke-width: 0.8"/>
      </g>
     </g>
     <g id="text_19">
      <!-- 0.800 -->
      <g transform="translate(7.2 212.484574)scale(0.11 -0.11)">
       <use xlink:href="#CMUSerif-Roman-30"/>
       <use xlink:href="#CMUSerif-Roman-2e" x="49.999985"/>
       <use xlink:href="#CMUSerif-Roman-38" x="77.799973"/>
       <use xlink:href="#CMUSerif-Roman-30" x="127.799957"/>
       <use xlink:href="#CMUSerif-Roman-30" x="177.799942"/>
      </g>
     </g>
    </g>
   </g>
   <g id="line2d_37">
    <path d="M 57.668565 208.66723 
L 133.851637 208.66723 
L 134.204337 221.061574 
L 201.569924 221.061574 
L 201.922623 238.221207 
L 266.819314 238.221207 
L 267.172014 232.461954 
L 330.305208 232.461954 
L 330.657907 235.675861 
L 402.608586 235.675861 
L 402.961286 229.341845 
L 425.534048 229.341845 
L 425.534048 229.341845 
" clip-path="url(#p3e59b62b93)" style="fill: none; stroke: #808080; stroke-width: 1.5; stroke-linecap: square"/>
   </g>
   <g id="LineCollection_5">
    <path d="M 83.768322 238.221207 
L 83.768322 208.66723 
" clip-path="url(#p3e59b62b93)" style="fill: none; stroke: #808080; stroke-opacity: 0.5; stroke-width: 1.5"/>
    <path d="M 108.809979 238.221207 
L 108.809979 208.66723 
" clip-path="url(#p3e59b62b93)" style="fill: none; stroke: #808080; stroke-opacity: 0.5; stroke-width: 1.5"/>
    <path d="M 133.851637 238.221207 
L 133.851637 208.66723 
" clip-path="url(#p3e59b62b93)" style="fill: none; stroke: #808080; stroke-opacity: 0.5; stroke-width: 1.5"/>
    <path d="M 162.06759 238.221207 
L 162.06759 208.66723 
" clip-path="url(#p3e59b62b93)" style="fill: none; stroke: #808080; stroke-opacity: 0.5; stroke-width: 1.5"/>
    <path d="M 187.109248 238.221207 
L 187.109248 208.66723 
" clip-path="url(#p3e59b62b93)" style="fill: none; stroke: #808080; stroke-opacity: 0.5; stroke-width: 1.5"/>
    <path d="M 201.569924 238.221207 
L 201.569924 208.66723 
" clip-path="url(#p3e59b62b93)" style="fill: none; stroke: #808080; stroke-opacity: 0.5; stroke-width: 1.5"/>
    <path d="M 220.262992 238.221207 
L 220.262992 208.66723 
" clip-path="url(#p3e59b62b93)" style="fill: none; stroke: #808080; stroke-opacity: 0.5; stroke-width: 1.5"/>
    <path d="M 245.30465 238.221207 
L 245.30465 208.66723 
" clip-path="url(#p3e59b62b93)" style="fill: none; stroke: #808080; stroke-opacity: 0.5; stroke-width: 1.5"/>
    <path d="M 266.819314 238.221207 
L 266.819314 208.66723 
" clip-path="url(#p3e59b62b93)" style="fill: none; stroke: #808080; stroke-opacity: 0.5; stroke-width: 1.5"/>
    <path d="M 287.27588 238.221207 
L 287.27588 208.66723 
" clip-path="url(#p3e59b62b93)" style="fill: none; stroke: #808080; stroke-opacity: 0.5; stroke-width: 1.5"/>
    <path d="M 312.317538 238.221207 
L 312.317538 208.66723 
" clip-path="url(#p3e59b62b93)" style="fill: none; stroke: #808080; stroke-opacity: 0.5; stroke-width: 1.5"/>
    <path d="M 330.305208 238.221207 
L 330.305208 208.66723 
" clip-path="url(#p3e59b62b93)" style="fill: none; stroke: #808080; stroke-opacity: 0.5; stroke-width: 1.5"/>
    <path d="M 348.998276 238.221207 
L 348.998276 208.66723 
" clip-path="url(#p3e59b62b93)" style="fill: none; stroke: #808080; stroke-opacity: 0.5; stroke-width: 1.5"/>
    <path d="M 374.039934 238.221207 
L 374.039934 208.66723 
" clip-path="url(#p3e59b62b93)" style="fill: none; stroke: #808080; stroke-opacity: 0.5; stroke-width: 1.5"/>
    <path d="M 402.608586 238.221207 
L 402.608586 208.66723 
" clip-path="url(#p3e59b62b93)" style="fill: none; stroke: #808080; stroke-opacity: 0.5; stroke-width: 1.5"/>
    <path d="M 425.181348 238.221207 
L 425.181348 208.66723 
" clip-path="url(#p3e59b62b93)" style="fill: none; stroke: #808080; stroke-opacity: 0.5; stroke-width: 1.5"/>
   </g>
   <g id="patch_52">
    <path d="M 39.257656 239.698906 
L 39.257656 207.189531 
" style="fill: none; stroke: #000000; stroke-width: 0.8; stroke-linejoin: miter; stroke-linecap: square"/>
   </g>
   <g id="patch_53">
    <path d="M 39.257656 239.698906 
L 444.297656 239.698906 
" style="fill: none; stroke: #000000; stroke-width: 0.8; stroke-linejoin: miter; stroke-linecap: square"/>
   </g>
   <g id="text_20">
    <!-- dI/dt -->
    <g transform="translate(228.803672 201.189531)scale(0.11 -0.11)">
     <defs>
      <path id="CMUSerif-Roman-49" d="M 179 0 
L 179 198 
L 346 198 
Q 704 198 787 256 
Q 870 314 870 499 
L 870 3872 
Q 870 4058 787 4115 
Q 704 4173 346 4173 
L 179 4173 
L 179 4371 
Q 403 4352 1158 4352 
Q 1907 4352 2131 4371 
L 2131 4173 
L 1965 4173 
Q 1606 4173 1523 4115 
Q 1440 4058 1440 3872 
L 1440 499 
Q 1440 314 1523 256 
Q 1606 198 1965 198 
L 2131 198 
L 2131 0 
Q 1907 19 1152 19 
Q 403 19 179 0 
z
" transform="scale(0.015625)"/>
     </defs>
     <use xlink:href="#CMUSerif-Roman-64"/>
     <use xlink:href="#CMUSerif-Roman-49" x="55.499985"/>
     <use xlink:href="#CMUSerif-Roman-2f" x="91.599976"/>
     <use xlink:href="#CMUSerif-Roman-64" x="141.59996"/>
     <use xlink:href="#CMUSerif-Roman-74" x="197.099945"/>
    </g>
   </g>
  </g>
 </g>
 <defs>
  <clipPath id="p011b712e08">
   <rect x="39.257656" y="21.427656" width="405.04" height="32.509375"/>
  </clipPath>
  <clipPath id="pa96dfd48b2">
   <rect x="39.257656" y="83.348281" width="405.04" height="32.509375"/>
  </clipPath>
  <clipPath id="pc51caacf62">
   <rect x="39.257656" y="145.268906" width="405.04" height="32.509375"/>
  </clipPath>
  <clipPath id="p3e59b62b93">
   <rect x="39.257656" y="207.189531" width="405.04" height="32.509375"/>
  </clipPath>
 </defs>
</svg>
