<?xml version="1.0" encoding="utf-8" standalone="no"?>
<!DOCTYPE svg PUBLIC "-//W3C//DTD SVG 1.1//EN"
  "http://www.w3.org/Graphics/SVG/1.1/DTD/svg11.dtd">
<svg xmlns:xlink="http://www.w3.org/1999/xlink" width="451.372656pt" height="278.668281pt" viewBox="0 0 451.372656 278.668281" xmlns="http://www.w3.org/2000/svg" version="1.1">
 <metadata>
  <rdf:RDF xmlns:dc="http://purl.org/dc/elements/1.1/" xmlns:cc="http://creativecommons.org/ns#" xmlns:rdf="http://www.w3.org/1999/02/22-rdf-syntax-ns#">
   <cc:Work>
    <dc:type rdf:resource="http://purl.org/dc/dcmitype/StillImage"/>
    <dc:date>2022-07-31T21:29:44.159857</dc:date>
    <dc:format>image/svg+xml</dc:format>
    <dc:creator>
     <cc:Agent>
      <dc:title>Matplotlib v3.5.1, https://matplotlib.org/</dc:title>
     </cc:Agent>
    </dc:creator>
   </cc:Work>
  </rdf:RDF>
 </metadata>
 <defs>
  <style type="text/css">*{stroke-linejoin: round; stroke-linecap: butt}</style>
 </defs>
 <g id="figure_1">
  <g id="patch_1">
   <path d="M 0 278.668281 
L 451.372656 278.668281 
L 451.372656 0 
L 0 0 
L 0 278.668281 
z
" style="fill: none"/>
  </g>
  <g id="axes_1">
   <g id="patch_2">
    <path d="M 33.757656 53.937031 
L 444.172656 53.937031 
L 444.172656 21.427656 
L 33.757656 21.427656 
z
" style="fill: #ffffff"/>
   </g>
   <g id="patch_3">
    <path d="M 83.578087 53.937031 
L 83.578087 21.427656 
L 115.182236 21.427656 
L 115.182236 53.937031 
z
" clip-path="url(#pe6fd0e107a)" style="fill: #ff0000; opacity: 0.1"/>
   </g>
   <g id="patch_4">
    <path d="M 52.412884 53.937031 
L 52.412884 21.427656 
L 83.578087 21.427656 
L 83.578087 53.937031 
z
" clip-path="url(#pe6fd0e107a)" style="fill: #0000ff; opacity: 0.1"/>
   </g>
   <g id="patch_5">
    <path d="M 168.733712 53.937031 
L 168.733712 21.427656 
L 196.82629 21.427656 
L 196.82629 53.937031 
z
" clip-path="url(#pe6fd0e107a)" style="fill: #ff0000; opacity: 0.1"/>
   </g>
   <g id="patch_6">
    <path d="M 146.34744 53.937031 
L 146.34744 21.427656 
L 168.733712 21.427656 
L 168.733712 53.937031 
z
" clip-path="url(#pe6fd0e107a)" style="fill: #0000ff; opacity: 0.1"/>
   </g>
   <g id="patch_7">
    <path d="M 245.988301 53.937031 
L 245.988301 21.427656 
L 270.130359 21.427656 
L 270.130359 53.937031 
z
" clip-path="url(#pe6fd0e107a)" style="fill: #ff0000; opacity: 0.1"/>
   </g>
   <g id="patch_8">
    <path d="M 227.991493 53.937031 
L 227.991493 21.427656 
L 245.988301 21.427656 
L 245.988301 53.937031 
z
" clip-path="url(#pe6fd0e107a)" style="fill: #0000ff; opacity: 0.1"/>
   </g>
   <g id="patch_9">
    <path d="M 328.071301 53.937031 
L 328.071301 21.427656 
L 351.774413 21.427656 
L 351.774413 53.937031 
z
" clip-path="url(#pe6fd0e107a)" style="fill: #ff0000; opacity: 0.1"/>
   </g>
   <g id="patch_10">
    <path d="M 301.295563 53.937031 
L 301.295563 21.427656 
L 328.071301 21.427656 
L 328.071301 53.937031 
z
" clip-path="url(#pe6fd0e107a)" style="fill: #0000ff; opacity: 0.1"/>
   </g>
   <g id="patch_11">
    <path d="M 400.936424 53.937031 
L 400.936424 21.427656 
L 424.639536 21.427656 
L 424.639536 53.937031 
z
" clip-path="url(#pe6fd0e107a)" style="fill: #ff0000; opacity: 0.1"/>
   </g>
   <g id="patch_12">
    <path d="M 382.939616 53.937031 
L 382.939616 21.427656 
L 400.936424 21.427656 
L 400.936424 53.937031 
z
" clip-path="url(#pe6fd0e107a)" style="fill: #0000ff; opacity: 0.1"/>
   </g>
   <g id="matplotlib.axis_1">
    <g id="xtick_1">
     <g id="line2d_1">
      <defs>
       <path id="m7cf764c105" d="M 0 0 
L 0 3.5 
" style="stroke: #000000; stroke-width: 0.8"/>
      </defs>
      <g>
       <use xlink:href="#m7cf764c105" x="76.554942" y="53.937031" style="stroke: #000000; stroke-width: 0.8"/>
      </g>
     </g>
    </g>
    <g id="xtick_2">
     <g id="line2d_2">
      <g>
       <use xlink:href="#m7cf764c105" x="164.344247" y="53.937031" style="stroke: #000000; stroke-width: 0.8"/>
      </g>
     </g>
    </g>
    <g id="xtick_3">
     <g id="line2d_3">
      <g>
       <use xlink:href="#m7cf764c105" x="252.133552" y="53.937031" style="stroke: #000000; stroke-width: 0.8"/>
      </g>
     </g>
    </g>
    <g id="xtick_4">
     <g id="line2d_4">
      <g>
       <use xlink:href="#m7cf764c105" x="339.922857" y="53.937031" style="stroke: #000000; stroke-width: 0.8"/>
      </g>
     </g>
    </g>
    <g id="xtick_5">
     <g id="line2d_5">
      <g>
       <use xlink:href="#m7cf764c105" x="427.712162" y="53.937031" style="stroke: #000000; stroke-width: 0.8"/>
      </g>
     </g>
    </g>
   </g>
   <g id="matplotlib.axis_2">
    <g id="ytick_1">
     <g id="line2d_6">
      <defs>
       <path id="mc079bd544d" d="M 0 0 
L -3.5 0 
" style="stroke: #000000; stroke-width: 0.8"/>
      </defs>
      <g>
       <use xlink:href="#mc079bd544d" x="33.757656" y="42.140633" style="stroke: #000000; stroke-width: 0.8"/>
      </g>
     </g>
     <g id="text_1">
      <!-- 0.90 -->
      <g transform="translate(7.2 45.957977)scale(0.11 -0.11)">
       <defs>
        <path id="CMUSerif-Roman-30" d="M 250 2048 
Q 250 2989 486 3501 
Q 819 4262 1600 4262 
Q 1766 4262 1939 4217 
Q 2112 4173 2333 4000 
Q 2554 3827 2688 3546 
Q 2944 3002 2944 2048 
Q 2944 1114 2707 602 
Q 2362 -141 1594 -141 
Q 1306 -141 1014 6 
Q 723 154 538 506 
Q 250 1037 250 2048 
z
M 781 2125 
Q 781 1158 851 774 
Q 928 358 1142 179 
Q 1357 0 1594 0 
Q 1850 0 2064 192 
Q 2278 384 2342 800 
Q 2413 1210 2413 2125 
Q 2413 3014 2349 3373 
Q 2266 3789 2042 3955 
Q 1818 4122 1594 4122 
Q 1510 4122 1420 4096 
Q 1331 4070 1203 4000 
Q 1075 3930 976 3750 
Q 877 3571 832 3302 
Q 781 2957 781 2125 
z
" transform="scale(0.015625)"/>
        <path id="CMUSerif-Roman-2e" d="M 640 102 
Q 544 205 544 339 
Q 544 474 640 573 
Q 736 672 883 672 
Q 1024 672 1120 579 
Q 1216 486 1216 339 
Q 1216 192 1113 96 
Q 1011 0 883 0 
Q 736 0 640 102 
z
" transform="scale(0.015625)"/>
        <path id="CMUSerif-Roman-39" d="M 269 2822 
Q 269 3162 368 3395 
Q 467 3629 678 3859 
Q 1062 4262 1619 4262 
Q 1856 4262 2067 4163 
Q 2278 4064 2480 3837 
Q 2682 3610 2803 3165 
Q 2925 2720 2925 2106 
Q 2925 1114 2445 486 
Q 1965 -141 1318 -141 
Q 909 -141 669 44 
Q 429 230 429 550 
Q 429 717 521 787 
Q 614 858 723 858 
Q 838 858 928 781 
Q 1018 704 1018 563 
Q 1018 448 944 358 
Q 870 269 685 269 
Q 870 38 1312 38 
Q 1472 38 1632 112 
Q 1792 186 1965 365 
Q 2138 544 2243 921 
Q 2349 1299 2349 1830 
L 2349 2035 
Q 2093 1395 1549 1395 
Q 1011 1395 640 1808 
Q 269 2221 269 2822 
z
M 845 2816 
Q 845 2182 960 1946 
Q 1158 1542 1555 1542 
Q 1946 1542 2141 1891 
Q 2336 2240 2336 2694 
Q 2336 3322 2234 3597 
Q 2042 4102 1619 4102 
Q 1197 4102 979 3699 
Q 845 3462 845 2816 
z
" transform="scale(0.015625)"/>
       </defs>
       <use xlink:href="#CMUSerif-Roman-30"/>
       <use xlink:href="#CMUSerif-Roman-2e" x="49.999985"/>
       <use xlink:href="#CMUSerif-Roman-39" x="77.799973"/>
       <use xlink:href="#CMUSerif-Roman-30" x="127.799957"/>
      </g>
     </g>
    </g>
    <g id="ytick_2">
     <g id="line2d_7">
      <g>
       <use xlink:href="#mc079bd544d" x="33.757656" y="24.262638" style="stroke: #000000; stroke-width: 0.8"/>
      </g>
     </g>
     <g id="text_2">
      <!-- 0.95 -->
      <g transform="translate(7.2 28.079982)scale(0.11 -0.11)">
       <defs>
        <path id="CMUSerif-Roman-35" d="M 320 1030 
Q 320 1222 422 1296 
Q 525 1370 634 1370 
Q 781 1370 867 1277 
Q 954 1184 954 1056 
Q 954 928 867 835 
Q 781 742 634 742 
Q 563 742 525 755 
Q 608 461 867 249 
Q 1126 38 1466 38 
Q 1894 38 2150 454 
Q 2304 723 2304 1331 
Q 2304 1869 2189 2138 
Q 2010 2547 1645 2547 
Q 1126 2547 819 2099 
Q 781 2042 736 2042 
Q 672 2042 659 2077 
Q 646 2112 646 2208 
L 646 4102 
Q 646 4256 710 4256 
Q 736 4256 787 4237 
Q 1190 4058 1638 4058 
Q 2099 4058 2509 4243 
Q 2541 4262 2560 4262 
Q 2624 4262 2624 4192 
Q 2624 4166 2573 4092 
Q 2522 4019 2413 3923 
Q 2304 3827 2163 3737 
Q 2022 3648 1817 3587 
Q 1613 3526 1389 3526 
Q 1120 3526 845 3610 
L 845 2362 
Q 1178 2688 1658 2688 
Q 2170 2688 2522 2275 
Q 2874 1862 2874 1286 
Q 2874 685 2458 272 
Q 2042 -141 1478 -141 
Q 966 -141 643 224 
Q 320 589 320 1030 
z
" transform="scale(0.015625)"/>
       </defs>
       <use xlink:href="#CMUSerif-Roman-30"/>
       <use xlink:href="#CMUSerif-Roman-2e" x="49.999985"/>
       <use xlink:href="#CMUSerif-Roman-39" x="77.799973"/>
       <use xlink:href="#CMUSerif-Roman-35" x="127.799957"/>
      </g>
     </g>
    </g>
   </g>
   <g id="line2d_8">
    <path d="M 52.85183 49.674158 
L 54.16867 45.158231 
L 55.485509 41.741314 
L 56.802349 39.048676 
L 58.119188 36.882847 
L 59.436028 35.097117 
L 61.630761 32.706331 
L 63.825493 30.770787 
L 66.459172 28.931755 
L 69.531798 27.2469 
L 72.165477 26.087864 
L 75.677049 24.946792 
L 78.749675 24.172537 
L 83.578087 23.30016 
L 84.017033 49.503575 
L 85.333873 45.005522 
L 86.650712 41.600265 
L 87.967552 38.953604 
L 88.845445 37.43508 
L 90.601231 35.018002 
L 91.918071 33.508633 
L 93.23491 32.199998 
L 94.990696 30.704861 
L 97.185429 29.175257 
L 99.380162 27.848402 
L 103.33068 26.093756 
L 105.086466 25.504292 
L 109.475932 24.286852 
L 114.74329 23.362134 
L 115.182236 23.280101 
L 115.621183 49.485059 
L 116.499076 46.39037 
L 117.815916 42.641479 
L 119.132755 39.792677 
L 120.449595 37.491444 
L 122.205381 35.021054 
L 123.52222 33.53771 
L 125.716953 31.510776 
L 127.472739 30.147295 
L 129.228525 28.961989 
L 131.862204 27.514705 
L 135.373777 26.054043 
L 138.007456 25.205436 
L 145.0306 23.558734 
L 146.34744 23.355298 
L 146.786386 49.554472 
L 147.664279 46.459718 
L 148.981119 42.749572 
L 149.859012 40.712446 
L 151.175851 38.188617 
L 152.492691 36.150217 
L 154.248477 33.9371 
L 155.12637 32.988358 
L 156.44321 31.81509 
L 157.760049 30.768595 
L 159.954782 29.217113 
L 161.710568 28.168402 
L 165.22214 26.559654 
L 167.855819 25.576409 
L 168.733712 25.302863 
L 169.172659 51.352224 
L 170.489498 46.996977 
L 171.806338 43.611162 
L 173.123178 40.855619 
L 174.878964 37.980521 
L 176.195803 36.197678 
L 177.951589 34.121487 
L 179.707376 32.381479 
L 181.902108 30.541714 
L 184.096841 29.022094 
L 186.73052 27.505808 
L 189.803146 26.132341 
L 192.436825 25.196877 
L 196.82629 24.007484 
L 197.265236 50.156489 
L 198.582076 45.623206 
L 199.898916 42.122715 
L 201.215755 39.447059 
L 202.532595 37.283915 
L 204.288381 34.896747 
L 206.483113 32.484522 
L 209.116793 30.207858 
L 211.311525 28.695804 
L 213.506258 27.440046 
L 217.01783 25.876145 
L 220.968349 24.548341 
L 227.991493 23.096653 
L 228.43044 49.315722 
L 229.747279 44.826195 
L 231.064119 41.393692 
L 232.380958 38.678864 
L 233.697798 36.487053 
L 235.014638 34.670522 
L 236.770424 32.666684 
L 238.52621 31.029713 
L 240.720942 29.352091 
L 242.915675 28.031648 
L 245.549354 26.677432 
L 245.988301 26.502231 
L 246.427247 52.459332 
L 247.744087 48.100915 
L 248.62198 45.674497 
L 249.938819 42.67252 
L 251.694605 39.493081 
L 253.011445 37.465489 
L 254.328285 35.740487 
L 255.645124 34.179976 
L 258.71775 31.130455 
L 260.912482 29.466138 
L 262.668269 28.324109 
L 265.301948 26.9046 
L 270.130359 24.955819 
L 270.569306 51.031876 
L 271.886146 46.443239 
L 273.202985 42.860573 
L 274.958771 39.238162 
L 276.275611 37.047594 
L 278.031397 34.632274 
L 279.787183 32.683004 
L 282.420862 30.341939 
L 285.932434 27.938701 
L 289.444007 26.203545 
L 291.638739 25.344961 
L 293.833472 24.635504 
L 298.661884 23.402463 
L 301.295563 22.905355 
L 301.734509 49.13914 
L 303.051349 44.677318 
L 304.368188 41.210836 
L 305.685028 38.498817 
L 307.001867 36.315042 
L 308.318707 34.446569 
L 310.074493 32.450144 
L 311.830279 30.758987 
L 314.025012 29.074461 
L 315.780798 27.954192 
L 317.536584 26.938367 
L 319.29237 26.132849 
L 322.364996 24.988486 
L 326.315515 23.933643 
L 328.071301 23.551189 
L 328.510247 49.735294 
L 329.827087 45.083245 
L 331.143926 41.519708 
L 332.460766 38.7828 
L 333.777605 36.486873 
L 335.094445 34.630545 
L 336.850231 32.582817 
L 339.044964 30.582416 
L 340.80075 29.24638 
L 345.629162 26.568513 
L 348.262841 25.521843 
L 351.774413 24.405106 
L 352.213359 50.523525 
L 353.530199 45.926053 
L 354.847039 42.420399 
L 356.163878 39.621673 
L 357.919664 36.660187 
L 359.236504 34.822827 
L 360.553343 33.292427 
L 362.748076 31.170457 
L 364.503862 29.820494 
L 367.137541 28.111024 
L 369.332274 26.945177 
L 373.282793 25.284285 
L 376.794365 24.263995 
L 382.061723 23.178948 
L 382.939616 23.038048 
L 383.378563 49.261625 
L 384.256456 46.102399 
L 385.573295 42.384319 
L 386.890135 39.46746 
L 388.206974 37.091612 
L 389.523814 35.190744 
L 390.840654 33.553426 
L 392.59644 31.757368 
L 393.913279 30.617128 
L 395.669065 29.342939 
L 397.863798 27.993149 
L 400.058531 26.821514 
L 400.936424 26.446231 
L 401.37537 52.407641 
L 402.253263 49.301544 
L 403.570103 45.545868 
L 404.886942 42.557675 
L 406.203782 40.048693 
L 407.520621 37.886878 
L 408.837461 36.074254 
L 410.154301 34.426501 
L 412.349033 32.206713 
L 414.104819 30.69313 
L 416.299552 29.083919 
L 418.055338 27.961621 
L 419.811124 27.020948 
L 423.761643 25.347846 
L 425.078482 24.866017 
L 425.078482 24.866017 
" clip-path="url(#pe6fd0e107a)" style="fill: none; stroke: #808080; stroke-width: 1.5; stroke-linecap: square"/>
   </g>
   <g id="LineCollection_1">
    <path d="M 52.412884 52.459332 
L 52.412884 22.905355 
" clip-path="url(#pe6fd0e107a)" style="fill: none; stroke: #808080; stroke-opacity: 0.5; stroke-width: 1.5"/>
    <path d="M 83.578087 52.459332 
L 83.578087 22.905355 
" clip-path="url(#pe6fd0e107a)" style="fill: none; stroke: #808080; stroke-opacity: 0.5; stroke-width: 1.5"/>
    <path d="M 115.182236 52.459332 
L 115.182236 22.905355 
" clip-path="url(#pe6fd0e107a)" style="fill: none; stroke: #808080; stroke-opacity: 0.5; stroke-width: 1.5"/>
    <path d="M 146.34744 52.459332 
L 146.34744 22.905355 
" clip-path="url(#pe6fd0e107a)" style="fill: none; stroke: #808080; stroke-opacity: 0.5; stroke-width: 1.5"/>
    <path d="M 168.733712 52.459332 
L 168.733712 22.905355 
" clip-path="url(#pe6fd0e107a)" style="fill: none; stroke: #808080; stroke-opacity: 0.5; stroke-width: 1.5"/>
    <path d="M 196.82629 52.459332 
L 196.82629 22.905355 
" clip-path="url(#pe6fd0e107a)" style="fill: none; stroke: #808080; stroke-opacity: 0.5; stroke-width: 1.5"/>
    <path d="M 227.991493 52.459332 
L 227.991493 22.905355 
" clip-path="url(#pe6fd0e107a)" style="fill: none; stroke: #808080; stroke-opacity: 0.5; stroke-width: 1.5"/>
    <path d="M 245.988301 52.459332 
L 245.988301 22.905355 
" clip-path="url(#pe6fd0e107a)" style="fill: none; stroke: #808080; stroke-opacity: 0.5; stroke-width: 1.5"/>
    <path d="M 270.130359 52.459332 
L 270.130359 22.905355 
" clip-path="url(#pe6fd0e107a)" style="fill: none; stroke: #808080; stroke-opacity: 0.5; stroke-width: 1.5"/>
    <path d="M 301.295563 52.459332 
L 301.295563 22.905355 
" clip-path="url(#pe6fd0e107a)" style="fill: none; stroke: #808080; stroke-opacity: 0.5; stroke-width: 1.5"/>
    <path d="M 328.071301 52.459332 
L 328.071301 22.905355 
" clip-path="url(#pe6fd0e107a)" style="fill: none; stroke: #808080; stroke-opacity: 0.5; stroke-width: 1.5"/>
    <path d="M 351.774413 52.459332 
L 351.774413 22.905355 
" clip-path="url(#pe6fd0e107a)" style="fill: none; stroke: #808080; stroke-opacity: 0.5; stroke-width: 1.5"/>
    <path d="M 382.939616 52.459332 
L 382.939616 22.905355 
" clip-path="url(#pe6fd0e107a)" style="fill: none; stroke: #808080; stroke-opacity: 0.5; stroke-width: 1.5"/>
    <path d="M 400.936424 52.459332 
L 400.936424 22.905355 
" clip-path="url(#pe6fd0e107a)" style="fill: none; stroke: #808080; stroke-opacity: 0.5; stroke-width: 1.5"/>
    <path d="M 424.639536 52.459332 
L 424.639536 22.905355 
" clip-path="url(#pe6fd0e107a)" style="fill: none; stroke: #808080; stroke-opacity: 0.5; stroke-width: 1.5"/>
   </g>
   <g id="patch_13">
    <path d="M 33.757656 53.937031 
L 33.757656 21.427656 
" style="fill: none; stroke: #000000; stroke-width: 0.8; stroke-linejoin: miter; stroke-linecap: square"/>
   </g>
   <g id="patch_14">
    <path d="M 33.757656 53.937031 
L 444.172656 53.937031 
" style="fill: none; stroke: #000000; stroke-width: 0.8; stroke-linejoin: miter; stroke-linecap: square"/>
   </g>
   <g id="text_3">
    <!-- du/dt -->
    <g transform="translate(224.923828 15.427656)scale(0.11 -0.11)">
     <defs>
      <path id="CMUSerif-Roman-64" d="M 218 1376 
Q 218 1984 643 2406 
Q 1069 2829 1645 2829 
Q 2131 2829 2451 2432 
L 2451 3814 
Q 2451 4051 2368 4112 
Q 2285 4173 1952 4173 
L 1952 4371 
L 2874 4442 
L 2874 557 
Q 2874 320 2957 259 
Q 3040 198 3373 198 
L 3373 0 
L 2432 -70 
L 2432 352 
Q 2099 -70 1574 -70 
Q 1024 -70 621 352 
Q 218 774 218 1376 
z
M 749 1370 
Q 749 774 934 480 
Q 1190 70 1606 70 
Q 2080 70 2362 518 
Q 2432 627 2432 755 
L 2432 2067 
Q 2432 2195 2362 2304 
Q 2099 2688 1670 2688 
Q 1222 2688 947 2278 
Q 749 1971 749 1370 
z
" transform="scale(0.015625)"/>
      <path id="CMUSerif-Roman-75" d="M 205 2560 
L 205 2758 
L 1146 2829 
L 1146 704 
Q 1146 550 1158 460 
Q 1171 371 1222 268 
Q 1274 166 1395 118 
Q 1517 70 1709 70 
Q 2054 70 2268 355 
Q 2483 640 2483 1062 
L 2483 2202 
Q 2483 2438 2400 2499 
Q 2317 2560 1984 2560 
L 1984 2758 
L 2925 2829 
L 2925 557 
Q 2925 320 3008 259 
Q 3091 198 3424 198 
L 3424 0 
L 2502 -70 
L 2502 506 
Q 2234 -70 1677 -70 
Q 1395 -70 1203 0 
Q 1011 70 915 160 
Q 819 250 768 422 
Q 717 595 710 700 
Q 704 806 704 1011 
L 704 1971 
Q 704 2406 640 2483 
Q 576 2560 205 2560 
z
" transform="scale(0.015625)"/>
      <path id="CMUSerif-Roman-2f" d="M 365 -1510 
Q 365 -1478 390 -1408 
L 2650 4627 
Q 2650 4634 2666 4669 
Q 2682 4704 2691 4726 
Q 2701 4749 2720 4768 
Q 2739 4787 2765 4787 
Q 2829 4787 2829 4710 
Q 2829 4704 2810 4627 
L 544 -1414 
Q 506 -1523 483 -1555 
Q 461 -1587 422 -1587 
Q 365 -1587 365 -1510 
z
" transform="scale(0.015625)"/>
      <path id="CMUSerif-Roman-74" d="M 122 2560 
L 122 2701 
Q 416 2714 611 2922 
Q 806 3130 873 3386 
Q 941 3642 947 3936 
L 1107 3936 
L 1107 2758 
L 2022 2758 
L 2022 2560 
L 1107 2560 
L 1107 781 
Q 1107 90 1536 90 
Q 1722 90 1843 278 
Q 1965 467 1965 806 
L 1965 1158 
L 2125 1158 
L 2125 794 
Q 2125 448 1965 189 
Q 1805 -70 1491 -70 
Q 1376 -70 1261 -41 
Q 1146 -13 998 64 
Q 851 141 758 329 
Q 666 518 666 794 
L 666 2560 
L 122 2560 
z
" transform="scale(0.015625)"/>
     </defs>
     <use xlink:href="#CMUSerif-Roman-64"/>
     <use xlink:href="#CMUSerif-Roman-75" x="55.499985"/>
     <use xlink:href="#CMUSerif-Roman-2f" x="110.999969"/>
     <use xlink:href="#CMUSerif-Roman-64" x="160.999954"/>
     <use xlink:href="#CMUSerif-Roman-74" x="216.499939"/>
    </g>
   </g>
  </g>
  <g id="axes_2">
   <g id="patch_15">
    <path d="M 33.757656 115.857656 
L 444.172656 115.857656 
L 444.172656 83.348281 
L 33.757656 83.348281 
z
" style="fill: #ffffff"/>
   </g>
   <g id="patch_16">
    <path d="M 83.578087 115.857656 
L 83.578087 83.348281 
L 115.182236 83.348281 
L 115.182236 115.857656 
z
" clip-path="url(#p97270c997d)" style="fill: #ff0000; opacity: 0.1"/>
   </g>
   <g id="patch_17">
    <path d="M 52.412884 115.857656 
L 52.412884 83.348281 
L 83.578087 83.348281 
L 83.578087 115.857656 
z
" clip-path="url(#p97270c997d)" style="fill: #0000ff; opacity: 0.1"/>
   </g>
   <g id="patch_18">
    <path d="M 168.733712 115.857656 
L 168.733712 83.348281 
L 196.82629 83.348281 
L 196.82629 115.857656 
z
" clip-path="url(#p97270c997d)" style="fill: #ff0000; opacity: 0.1"/>
   </g>
   <g id="patch_19">
    <path d="M 146.34744 115.857656 
L 146.34744 83.348281 
L 168.733712 83.348281 
L 168.733712 115.857656 
z
" clip-path="url(#p97270c997d)" style="fill: #0000ff; opacity: 0.1"/>
   </g>
   <g id="patch_20">
    <path d="M 245.988301 115.857656 
L 245.988301 83.348281 
L 270.130359 83.348281 
L 270.130359 115.857656 
z
" clip-path="url(#p97270c997d)" style="fill: #ff0000; opacity: 0.1"/>
   </g>
   <g id="patch_21">
    <path d="M 227.991493 115.857656 
L 227.991493 83.348281 
L 245.988301 83.348281 
L 245.988301 115.857656 
z
" clip-path="url(#p97270c997d)" style="fill: #0000ff; opacity: 0.1"/>
   </g>
   <g id="patch_22">
    <path d="M 328.071301 115.857656 
L 328.071301 83.348281 
L 351.774413 83.348281 
L 351.774413 115.857656 
z
" clip-path="url(#p97270c997d)" style="fill: #ff0000; opacity: 0.1"/>
   </g>
   <g id="patch_23">
    <path d="M 301.295563 115.857656 
L 301.295563 83.348281 
L 328.071301 83.348281 
L 328.071301 115.857656 
z
" clip-path="url(#p97270c997d)" style="fill: #0000ff; opacity: 0.1"/>
   </g>
   <g id="patch_24">
    <path d="M 400.936424 115.857656 
L 400.936424 83.348281 
L 424.639536 83.348281 
L 424.639536 115.857656 
z
" clip-path="url(#p97270c997d)" style="fill: #ff0000; opacity: 0.1"/>
   </g>
   <g id="patch_25">
    <path d="M 382.939616 115.857656 
L 382.939616 83.348281 
L 400.936424 83.348281 
L 400.936424 115.857656 
z
" clip-path="url(#p97270c997d)" style="fill: #0000ff; opacity: 0.1"/>
   </g>
   <g id="matplotlib.axis_3">
    <g id="xtick_6">
     <g id="line2d_9">
      <g>
       <use xlink:href="#m7cf764c105" x="76.554942" y="115.857656" style="stroke: #000000; stroke-width: 0.8"/>
      </g>
     </g>
    </g>
    <g id="xtick_7">
     <g id="line2d_10">
      <g>
       <use xlink:href="#m7cf764c105" x="164.344247" y="115.857656" style="stroke: #000000; stroke-width: 0.8"/>
      </g>
     </g>
    </g>
    <g id="xtick_8">
     <g id="line2d_11">
      <g>
       <use xlink:href="#m7cf764c105" x="252.133552" y="115.857656" style="stroke: #000000; stroke-width: 0.8"/>
      </g>
     </g>
    </g>
    <g id="xtick_9">
     <g id="line2d_12">
      <g>
       <use xlink:href="#m7cf764c105" x="339.922857" y="115.857656" style="stroke: #000000; stroke-width: 0.8"/>
      </g>
     </g>
    </g>
    <g id="xtick_10">
     <g id="line2d_13">
      <g>
       <use xlink:href="#m7cf764c105" x="427.712162" y="115.857656" style="stroke: #000000; stroke-width: 0.8"/>
      </g>
     </g>
    </g>
   </g>
   <g id="matplotlib.axis_4">
    <g id="ytick_3">
     <g id="line2d_14">
      <g>
       <use xlink:href="#mc079bd544d" x="33.757656" y="104.191205" style="stroke: #000000; stroke-width: 0.8"/>
      </g>
     </g>
     <g id="text_4">
      <!-- 0.30 -->
      <g transform="translate(7.2 108.008548)scale(0.11 -0.11)">
       <defs>
        <path id="CMUSerif-Roman-33" d="M 269 864 
Q 269 1056 377 1145 
Q 486 1235 627 1235 
Q 774 1235 880 1139 
Q 986 1043 986 877 
Q 986 698 861 598 
Q 736 499 563 525 
Q 717 269 998 153 
Q 1280 38 1542 38 
Q 1818 38 2042 275 
Q 2266 512 2266 1094 
Q 2266 1587 2074 1872 
Q 1882 2157 1504 2157 
L 1222 2157 
Q 1126 2157 1097 2166 
Q 1069 2176 1069 2227 
Q 1069 2291 1165 2304 
Q 1261 2304 1414 2323 
Q 1786 2336 1984 2656 
Q 2163 2957 2163 3386 
Q 2163 3776 1977 3939 
Q 1792 4102 1549 4102 
Q 1325 4102 1078 4009 
Q 832 3917 698 3706 
Q 1094 3706 1094 3386 
Q 1094 3245 1004 3152 
Q 915 3059 768 3059 
Q 627 3059 534 3148 
Q 442 3238 442 3392 
Q 442 3757 768 4009 
Q 1094 4262 1574 4262 
Q 2048 4262 2400 4012 
Q 2752 3763 2752 3379 
Q 2752 3002 2502 2691 
Q 2253 2381 1856 2253 
Q 2342 2157 2633 1827 
Q 2925 1498 2925 1094 
Q 2925 595 2531 227 
Q 2138 -141 1562 -141 
Q 1030 -141 649 147 
Q 269 435 269 864 
z
" transform="scale(0.015625)"/>
       </defs>
       <use xlink:href="#CMUSerif-Roman-30"/>
       <use xlink:href="#CMUSerif-Roman-2e" x="49.999985"/>
       <use xlink:href="#CMUSerif-Roman-33" x="77.799973"/>
       <use xlink:href="#CMUSerif-Roman-30" x="127.799957"/>
      </g>
     </g>
    </g>
    <g id="ytick_4">
     <g id="line2d_15">
      <g>
       <use xlink:href="#mc079bd544d" x="33.757656" y="87.97172" style="stroke: #000000; stroke-width: 0.8"/>
      </g>
     </g>
     <g id="text_5">
      <!-- 0.35 -->
      <g transform="translate(7.2 91.789063)scale(0.11 -0.11)">
       <use xlink:href="#CMUSerif-Roman-30"/>
       <use xlink:href="#CMUSerif-Roman-2e" x="49.999985"/>
       <use xlink:href="#CMUSerif-Roman-33" x="77.799973"/>
       <use xlink:href="#CMUSerif-Roman-35" x="127.799957"/>
      </g>
     </g>
    </g>
   </g>
   <g id="line2d_16">
    <path d="M 52.85183 89.428648 
L 53.290777 88.61962 
L 54.16867 87.676621 
L 55.046563 87.323257 
L 55.485509 87.26553 
L 56.363402 87.507057 
L 57.680242 88.321011 
L 61.630761 92.219829 
L 62.9476 93.684346 
L 65.142333 96.091414 
L 65.581279 96.456507 
L 66.459172 97.412888 
L 69.092851 99.885055 
L 72.604424 102.412874 
L 75.677049 104.169973 
L 76.993889 104.762209 
L 77.432835 105.112543 
L 81.822301 106.792903 
L 82.700194 107.017186 
L 83.578087 107.256412 
L 84.017033 89.553489 
L 84.894926 87.979634 
L 85.333873 87.446507 
L 85.772819 87.098936 
L 86.211766 86.904254 
L 87.089659 87.09029 
L 87.528605 87.226495 
L 91.040178 90.089352 
L 93.673857 92.80471 
L 95.868589 95.13953 
L 98.063322 97.278088 
L 99.380162 98.533613 
L 101.135948 99.893384 
L 102.891734 101.085837 
L 104.208573 102.067922 
L 105.525413 102.605442 
L 106.403306 103.224533 
L 107.281199 103.578035 
L 111.231718 105.416532 
L 111.670664 105.473704 
L 112.548557 105.916584 
L 115.182236 106.719705 
L 115.621183 89.058067 
L 116.06013 88.204833 
L 116.499076 87.654096 
L 117.376969 87.066802 
L 118.254862 87.013289 
L 119.571702 87.366271 
L 120.449595 87.853482 
L 121.766434 89.010346 
L 122.644327 89.845843 
L 126.1559 93.645656 
L 127.911686 95.502638 
L 128.350632 96.064612 
L 134.056937 100.76197 
L 135.373777 101.493632 
L 136.690616 102.375134 
L 141.957974 105.012962 
L 142.396921 105.087365 
L 143.274814 105.440978 
L 145.0306 106.154397 
L 145.908493 106.450916 
L 146.34744 106.607931 
L 146.786386 88.954891 
L 147.664279 87.547155 
L 148.103226 87.080993 
L 148.981119 86.756515 
L 149.420065 86.780553 
L 151.175851 87.579865 
L 152.053744 88.232464 
L 152.492691 88.483598 
L 154.687424 90.940153 
L 156.004263 92.415106 
L 158.198996 94.575704 
L 159.954782 96.421837 
L 164.783194 100.446587 
L 166.977926 101.906231 
L 168.294766 102.740943 
L 168.733712 102.980961 
L 169.172659 85.606919 
L 169.611605 85.213813 
L 170.489498 84.82598 
L 171.367392 85.002362 
L 172.245285 85.477818 
L 173.562124 86.787016 
L 174.440017 87.765325 
L 177.951589 92.486903 
L 180.146322 95.257616 
L 182.780001 98.464522 
L 183.657894 99.321739 
L 185.41368 101.191658 
L 189.803146 104.814222 
L 192.436825 106.53281 
L 193.753664 107.254051 
L 196.82629 108.521977 
L 197.265236 90.721703 
L 197.704183 90.061423 
L 198.14313 89.629312 
L 199.021023 89.180822 
L 199.459969 89.050623 
L 200.337862 89.265974 
L 200.776809 89.394523 
L 201.654702 90.004018 
L 203.410488 91.665497 
L 204.288381 92.731794 
L 204.727327 93.332457 
L 205.166274 93.701971 
L 207.361007 96.380038 
L 208.2389 97.376895 
L 211.311525 100.575262 
L 213.067311 102.123095 
L 216.139937 104.85967 
L 220.529402 107.468802 
L 220.968349 107.585194 
L 221.846242 108.139766 
L 227.552547 110.437289 
L 227.991493 110.468588 
L 228.43044 92.518575 
L 229.308333 91.330088 
L 229.747279 90.967784 
L 231.064119 90.683383 
L 231.503065 90.787647 
L 234.136744 92.686706 
L 235.453584 93.973667 
L 238.087263 96.93382 
L 241.159889 99.970148 
L 242.476728 101.347418 
L 243.793568 102.421906 
L 244.671461 103.262405 
L 245.549354 103.897135 
L 245.988301 104.14484 
L 246.427247 86.681268 
L 246.866194 86.373826 
L 247.30514 86.253561 
L 248.183033 86.487145 
L 249.499873 87.35762 
L 250.377766 88.332042 
L 252.133552 90.714136 
L 254.328285 94.196147 
L 255.645124 96.211921 
L 259.156696 100.852124 
L 260.912482 102.96329 
L 262.229322 104.387379 
L 263.107215 105.144631 
L 263.985108 106.055325 
L 265.301948 107.114827 
L 266.618787 108.263859 
L 267.49668 108.937069 
L 268.374573 109.520199 
L 269.252466 110.106997 
L 270.130359 110.579285 
L 270.569306 92.620756 
L 271.447199 91.543391 
L 272.325092 91.234214 
L 273.202985 91.287033 
L 274.080878 91.839433 
L 275.397718 93.296882 
L 283.298755 102.690149 
L 285.932434 105.497888 
L 286.810327 106.173342 
L 288.127167 107.357581 
L 289.444007 108.376216 
L 290.3219 109.131628 
L 291.638739 110.008701 
L 292.516632 110.464502 
L 292.955579 110.850738 
L 293.833472 111.383626 
L 294.711365 111.912079 
L 296.028204 112.471958 
L 297.345044 112.972688 
L 298.661884 113.634195 
L 299.10083 113.838212 
L 299.539777 113.879559 
L 300.41767 114.198695 
L 301.295563 114.379957 
L 301.734509 96.129069 
L 302.612402 95.020526 
L 303.051349 94.672352 
L 303.929242 94.417547 
L 304.807135 94.61754 
L 305.246081 94.841931 
L 307.879761 97.125057 
L 308.757654 98.164483 
L 310.074493 99.749075 
L 314.025012 103.919242 
L 315.780798 105.521229 
L 316.658691 106.392704 
L 319.29237 108.588394 
L 321.048156 109.662857 
L 321.487103 110.0417 
L 321.926049 110.18607 
L 322.803942 110.714116 
L 324.120782 111.375923 
L 325.437621 112.002602 
L 328.071301 113.252967 
L 328.510247 95.088771 
L 328.949194 94.226293 
L 329.827087 93.260158 
L 330.70498 92.98994 
L 331.582873 93.059231 
L 333.338659 93.984524 
L 335.972338 96.349751 
L 337.289178 97.796496 
L 338.167071 98.651082 
L 339.922857 100.677795 
L 343.434429 103.9208 
L 344.312322 104.694167 
L 347.823894 107.048156 
L 348.701787 107.828186 
L 350.457573 108.999714 
L 351.774413 109.623915 
L 352.213359 91.738877 
L 352.652306 91.051073 
L 353.091253 90.574998 
L 353.969146 90.215767 
L 354.847039 90.256872 
L 356.163878 91.091962 
L 360.114397 95.404529 
L 361.431236 97.052098 
L 362.748076 98.60969 
L 363.625969 99.624082 
L 370.210167 105.752633 
L 371.965953 107.167346 
L 372.843846 107.896101 
L 374.160686 108.741915 
L 375.477525 109.253374 
L 375.916472 109.508526 
L 376.794365 109.870742 
L 382.50067 112.294608 
L 382.939616 112.317506 
L 383.378563 94.225268 
L 383.817509 93.487565 
L 384.256456 92.978625 
L 384.695402 92.670847 
L 385.573295 92.501978 
L 386.012242 92.522054 
L 387.768028 93.290937 
L 388.206974 93.53111 
L 389.084867 94.48308 
L 390.840654 96.22919 
L 393.474333 99.075725 
L 396.985905 102.552959 
L 397.863798 103.396374 
L 400.936424 105.841003 
L 401.37537 88.246958 
L 401.814317 87.870443 
L 402.253263 87.736824 
L 403.131156 88.025144 
L 404.009049 88.46976 
L 405.325889 89.674927 
L 411.910087 98.786861 
L 413.665873 101.194165 
L 416.738498 104.76133 
L 417.616392 105.566592 
L 421.127964 108.688708 
L 424.639536 111.331103 
L 425.078482 111.538132 
L 425.078482 111.538132 
" clip-path="url(#p97270c997d)" style="fill: none; stroke: #808080; stroke-width: 1.5; stroke-linecap: square"/>
   </g>
   <g id="LineCollection_2">
    <path d="M 52.412884 114.379957 
L 52.412884 84.82598 
" clip-path="url(#p97270c997d)" style="fill: none; stroke: #808080; stroke-opacity: 0.5; stroke-width: 1.5"/>
    <path d="M 83.578087 114.379957 
L 83.578087 84.82598 
" clip-path="url(#p97270c997d)" style="fill: none; stroke: #808080; stroke-opacity: 0.5; stroke-width: 1.5"/>
    <path d="M 115.182236 114.379957 
L 115.182236 84.82598 
" clip-path="url(#p97270c997d)" style="fill: none; stroke: #808080; stroke-opacity: 0.5; stroke-width: 1.5"/>
    <path d="M 146.34744 114.379957 
L 146.34744 84.82598 
" clip-path="url(#p97270c997d)" style="fill: none; stroke: #808080; stroke-opacity: 0.5; stroke-width: 1.5"/>
    <path d="M 168.733712 114.379957 
L 168.733712 84.82598 
" clip-path="url(#p97270c997d)" style="fill: none; stroke: #808080; stroke-opacity: 0.5; stroke-width: 1.5"/>
    <path d="M 196.82629 114.379957 
L 196.82629 84.82598 
" clip-path="url(#p97270c997d)" style="fill: none; stroke: #808080; stroke-opacity: 0.5; stroke-width: 1.5"/>
    <path d="M 227.991493 114.379957 
L 227.991493 84.82598 
" clip-path="url(#p97270c997d)" style="fill: none; stroke: #808080; stroke-opacity: 0.5; stroke-width: 1.5"/>
    <path d="M 245.988301 114.379957 
L 245.988301 84.82598 
" clip-path="url(#p97270c997d)" style="fill: none; stroke: #808080; stroke-opacity: 0.5; stroke-width: 1.5"/>
    <path d="M 270.130359 114.379957 
L 270.130359 84.82598 
" clip-path="url(#p97270c997d)" style="fill: none; stroke: #808080; stroke-opacity: 0.5; stroke-width: 1.5"/>
    <path d="M 301.295563 114.379957 
L 301.295563 84.82598 
" clip-path="url(#p97270c997d)" style="fill: none; stroke: #808080; stroke-opacity: 0.5; stroke-width: 1.5"/>
    <path d="M 328.071301 114.379957 
L 328.071301 84.82598 
" clip-path="url(#p97270c997d)" style="fill: none; stroke: #808080; stroke-opacity: 0.5; stroke-width: 1.5"/>
    <path d="M 351.774413 114.379957 
L 351.774413 84.82598 
" clip-path="url(#p97270c997d)" style="fill: none; stroke: #808080; stroke-opacity: 0.5; stroke-width: 1.5"/>
    <path d="M 382.939616 114.379957 
L 382.939616 84.82598 
" clip-path="url(#p97270c997d)" style="fill: none; stroke: #808080; stroke-opacity: 0.5; stroke-width: 1.5"/>
    <path d="M 400.936424 114.379957 
L 400.936424 84.82598 
" clip-path="url(#p97270c997d)" style="fill: none; stroke: #808080; stroke-opacity: 0.5; stroke-width: 1.5"/>
    <path d="M 424.639536 114.379957 
L 424.639536 84.82598 
" clip-path="url(#p97270c997d)" style="fill: none; stroke: #808080; stroke-opacity: 0.5; stroke-width: 1.5"/>
   </g>
   <g id="patch_26">
    <path d="M 33.757656 115.857656 
L 33.757656 83.348281 
" style="fill: none; stroke: #000000; stroke-width: 0.8; stroke-linejoin: miter; stroke-linecap: square"/>
   </g>
   <g id="patch_27">
    <path d="M 33.757656 115.857656 
L 444.172656 115.857656 
" style="fill: none; stroke: #000000; stroke-width: 0.8; stroke-linejoin: miter; stroke-linecap: square"/>
   </g>
   <g id="text_6">
    <!-- dv/dt -->
    <g transform="translate(225.077656 77.348281)scale(0.11 -0.11)">
     <defs>
      <path id="CMUSerif-Roman-76" d="M 122 2560 
L 122 2758 
Q 410 2739 742 2739 
Q 864 2739 1440 2758 
L 1440 2560 
Q 1075 2560 1075 2394 
Q 1075 2368 1114 2285 
L 1830 499 
L 2483 2131 
Q 2522 2240 2522 2285 
Q 2522 2394 2448 2474 
Q 2374 2554 2214 2560 
L 2214 2758 
Q 2541 2739 2771 2739 
Q 3034 2739 3251 2758 
L 3251 2560 
Q 3059 2560 2924 2473 
Q 2790 2387 2748 2313 
Q 2707 2240 2662 2131 
L 1824 51 
Q 1773 -70 1690 -70 
Q 1632 -70 1609 -48 
Q 1587 -26 1555 51 
L 634 2323 
Q 570 2483 490 2521 
Q 410 2560 122 2560 
z
" transform="scale(0.015625)"/>
     </defs>
     <use xlink:href="#CMUSerif-Roman-64"/>
     <use xlink:href="#CMUSerif-Roman-76" x="55.499985"/>
     <use xlink:href="#CMUSerif-Roman-2f" x="108.199982"/>
     <use xlink:href="#CMUSerif-Roman-64" x="158.199966"/>
     <use xlink:href="#CMUSerif-Roman-74" x="213.699951"/>
    </g>
   </g>
  </g>
  <g id="axes_3">
   <g id="patch_28">
    <path d="M 33.757656 177.778281 
L 444.172656 177.778281 
L 444.172656 145.268906 
L 33.757656 145.268906 
z
" style="fill: #ffffff"/>
   </g>
   <g id="patch_29">
    <path d="M 83.578087 177.778281 
L 83.578087 145.268906 
L 115.182236 145.268906 
L 115.182236 177.778281 
z
" clip-path="url(#p708a515be8)" style="fill: #ff0000; opacity: 0.1"/>
   </g>
   <g id="patch_30">
    <path d="M 52.412884 177.778281 
L 52.412884 145.268906 
L 83.578087 145.268906 
L 83.578087 177.778281 
z
" clip-path="url(#p708a515be8)" style="fill: #0000ff; opacity: 0.1"/>
   </g>
   <g id="patch_31">
    <path d="M 168.733712 177.778281 
L 168.733712 145.268906 
L 196.82629 145.268906 
L 196.82629 177.778281 
z
" clip-path="url(#p708a515be8)" style="fill: #ff0000; opacity: 0.1"/>
   </g>
   <g id="patch_32">
    <path d="M 146.34744 177.778281 
L 146.34744 145.268906 
L 168.733712 145.268906 
L 168.733712 177.778281 
z
" clip-path="url(#p708a515be8)" style="fill: #0000ff; opacity: 0.1"/>
   </g>
   <g id="patch_33">
    <path d="M 245.988301 177.778281 
L 245.988301 145.268906 
L 270.130359 145.268906 
L 270.130359 177.778281 
z
" clip-path="url(#p708a515be8)" style="fill: #ff0000; opacity: 0.1"/>
   </g>
   <g id="patch_34">
    <path d="M 227.991493 177.778281 
L 227.991493 145.268906 
L 245.988301 145.268906 
L 245.988301 177.778281 
z
" clip-path="url(#p708a515be8)" style="fill: #0000ff; opacity: 0.1"/>
   </g>
   <g id="patch_35">
    <path d="M 328.071301 177.778281 
L 328.071301 145.268906 
L 351.774413 145.268906 
L 351.774413 177.778281 
z
" clip-path="url(#p708a515be8)" style="fill: #ff0000; opacity: 0.1"/>
   </g>
   <g id="patch_36">
    <path d="M 301.295563 177.778281 
L 301.295563 145.268906 
L 328.071301 145.268906 
L 328.071301 177.778281 
z
" clip-path="url(#p708a515be8)" style="fill: #0000ff; opacity: 0.1"/>
   </g>
   <g id="patch_37">
    <path d="M 400.936424 177.778281 
L 400.936424 145.268906 
L 424.639536 145.268906 
L 424.639536 177.778281 
z
" clip-path="url(#p708a515be8)" style="fill: #ff0000; opacity: 0.1"/>
   </g>
   <g id="patch_38">
    <path d="M 382.939616 177.778281 
L 382.939616 145.268906 
L 400.936424 145.268906 
L 400.936424 177.778281 
z
" clip-path="url(#p708a515be8)" style="fill: #0000ff; opacity: 0.1"/>
   </g>
   <g id="matplotlib.axis_5">
    <g id="xtick_11">
     <g id="line2d_17">
      <g>
       <use xlink:href="#m7cf764c105" x="76.554942" y="177.778281" style="stroke: #000000; stroke-width: 0.8"/>
      </g>
     </g>
    </g>
    <g id="xtick_12">
     <g id="line2d_18">
      <g>
       <use xlink:href="#m7cf764c105" x="164.344247" y="177.778281" style="stroke: #000000; stroke-width: 0.8"/>
      </g>
     </g>
    </g>
    <g id="xtick_13">
     <g id="line2d_19">
      <g>
       <use xlink:href="#m7cf764c105" x="252.133552" y="177.778281" style="stroke: #000000; stroke-width: 0.8"/>
      </g>
     </g>
    </g>
    <g id="xtick_14">
     <g id="line2d_20">
      <g>
       <use xlink:href="#m7cf764c105" x="339.922857" y="177.778281" style="stroke: #000000; stroke-width: 0.8"/>
      </g>
     </g>
    </g>
    <g id="xtick_15">
     <g id="line2d_21">
      <g>
       <use xlink:href="#m7cf764c105" x="427.712162" y="177.778281" style="stroke: #000000; stroke-width: 0.8"/>
      </g>
     </g>
    </g>
   </g>
   <g id="matplotlib.axis_6">
    <g id="ytick_5">
     <g id="line2d_22">
      <g>
       <use xlink:href="#mc079bd544d" x="33.757656" y="170.889665" style="stroke: #000000; stroke-width: 0.8"/>
      </g>
     </g>
     <g id="text_7">
      <!-- 0.6 -->
      <g transform="translate(12.7 174.707008)scale(0.11 -0.11)">
       <defs>
        <path id="CMUSerif-Roman-36" d="M 269 2022 
Q 269 3027 781 3644 
Q 1293 4262 1952 4262 
Q 2336 4262 2550 4067 
Q 2765 3872 2765 3571 
Q 2765 3405 2669 3334 
Q 2573 3264 2470 3264 
Q 2355 3264 2265 3341 
Q 2176 3418 2176 3558 
Q 2176 3846 2528 3846 
Q 2362 4102 1965 4102 
Q 1843 4102 1718 4067 
Q 1594 4032 1430 3913 
Q 1267 3795 1142 3606 
Q 1018 3418 931 3066 
Q 845 2714 845 2253 
L 845 2099 
Q 1107 2733 1644 2733 
Q 2182 2733 2553 2323 
Q 2925 1914 2925 1306 
Q 2925 685 2537 272 
Q 2150 -141 1606 -141 
Q 1363 -141 1142 -38 
Q 922 64 717 294 
Q 512 525 390 969 
Q 269 1414 269 2022 
z
M 858 1446 
Q 858 819 973 518 
Q 992 467 1033 400 
Q 1075 333 1148 243 
Q 1222 154 1344 96 
Q 1466 38 1606 38 
Q 2035 38 2240 454 
Q 2349 685 2349 1312 
Q 2349 1952 2234 2189 
Q 2035 2586 1638 2586 
Q 1370 2586 1184 2400 
Q 998 2214 928 1968 
Q 858 1722 858 1446 
z
" transform="scale(0.015625)"/>
       </defs>
       <use xlink:href="#CMUSerif-Roman-30"/>
       <use xlink:href="#CMUSerif-Roman-2e" x="49.999985"/>
       <use xlink:href="#CMUSerif-Roman-36" x="77.799973"/>
      </g>
     </g>
    </g>
    <g id="ytick_6">
     <g id="line2d_23">
      <g>
       <use xlink:href="#mc079bd544d" x="33.757656" y="154.000352" style="stroke: #000000; stroke-width: 0.8"/>
      </g>
     </g>
     <g id="text_8">
      <!-- 0.7 -->
      <g transform="translate(12.7 157.817696)scale(0.11 -0.11)">
       <defs>
        <path id="CMUSerif-Roman-37" d="M 358 3008 
L 570 4326 
L 730 4326 
Q 749 4250 781 4214 
Q 813 4179 995 4150 
Q 1178 4122 1549 4122 
L 3104 4122 
Q 3104 3974 3046 3898 
L 2182 2682 
Q 1907 2298 1786 1587 
Q 1715 1114 1715 538 
L 1715 211 
Q 1715 -141 1420 -141 
Q 1126 -141 1126 211 
Q 1126 1434 1914 2618 
Q 1997 2739 2307 3174 
Q 2618 3610 2630 3629 
L 1306 3629 
Q 723 3629 678 3590 
Q 614 3533 518 3008 
L 358 3008 
z
" transform="scale(0.015625)"/>
       </defs>
       <use xlink:href="#CMUSerif-Roman-30"/>
       <use xlink:href="#CMUSerif-Roman-2e" x="49.999985"/>
       <use xlink:href="#CMUSerif-Roman-37" x="77.799973"/>
      </g>
     </g>
    </g>
   </g>
   <g id="line2d_24">
    <path d="M 52.85183 163.872238 
L 53.729723 166.354527 
L 55.046563 169.486004 
L 55.485509 170.327385 
L 55.924456 170.871657 
L 57.680242 172.239166 
L 58.119188 172.827907 
L 58.558135 172.980537 
L 58.997081 173.448687 
L 59.436028 173.56602 
L 59.874974 173.504699 
L 60.313921 173.555583 
L 60.752867 173.734571 
L 62.069707 173.785887 
L 62.508654 173.430382 
L 62.9476 173.54574 
L 63.386547 173.373586 
L 64.26444 172.821327 
L 64.703386 172.630818 
L 65.581279 171.823458 
L 66.020226 171.640613 
L 66.459172 171.324105 
L 66.898119 170.80027 
L 68.214958 170.227779 
L 68.653905 169.836082 
L 69.092851 169.255555 
L 70.848638 168.274612 
L 72.165477 167.326832 
L 72.604424 167.033225 
L 73.921263 166.68801 
L 75.238103 165.718466 
L 75.677049 165.616506 
L 76.115996 165.297207 
L 77.871782 163.497187 
L 78.310728 163.229079 
L 78.749675 163.390307 
L 79.627568 162.903346 
L 81.383354 162.326359 
L 82.261247 161.871736 
L 83.13914 161.974271 
L 83.578087 161.751602 
L 84.45598 164.750201 
L 85.333873 167.085527 
L 86.211766 169.109243 
L 87.528605 171.174781 
L 89.723338 173.661644 
L 90.162285 173.568884 
L 90.601231 173.757126 
L 91.040178 173.662443 
L 91.918071 173.828179 
L 92.357017 174.062989 
L 93.23491 174.138787 
L 94.112803 173.712134 
L 94.55175 173.376931 
L 95.429643 172.994704 
L 95.868589 172.719421 
L 96.746482 171.824367 
L 97.624376 171.249382 
L 98.502269 170.759601 
L 98.941215 170.685133 
L 99.380162 170.163127 
L 99.819108 169.948535 
L 100.258055 169.495212 
L 102.452787 168.591677 
L 102.891734 168.141621 
L 103.33068 167.871397 
L 103.769627 167.442409 
L 105.086466 166.962304 
L 106.403306 166.308497 
L 106.842253 166.296023 
L 107.281199 166.085465 
L 107.720146 165.653451 
L 108.159092 165.627245 
L 108.598039 165.198265 
L 110.353825 164.624267 
L 110.792771 164.378399 
L 111.231718 163.855583 
L 112.548557 163.304762 
L 112.987504 163.322699 
L 115.182236 162.491855 
L 116.499076 166.124233 
L 117.815916 169.615768 
L 118.693809 170.965757 
L 119.132755 171.403652 
L 120.449595 173.028626 
L 121.327488 173.579583 
L 124.400113 173.819652 
L 125.278007 173.644998 
L 126.594846 173.202837 
L 127.911686 172.184145 
L 128.350632 172.185448 
L 128.789579 171.983977 
L 129.667472 171.153391 
L 130.106418 170.791635 
L 130.545365 170.643326 
L 132.740097 169.306588 
L 134.056937 168.654085 
L 134.495884 168.128956 
L 135.373777 167.708412 
L 135.812723 167.659017 
L 136.25167 167.266454 
L 136.690616 167.168958 
L 137.568509 166.531311 
L 138.446402 165.897749 
L 139.763242 165.842715 
L 140.641135 165.048684 
L 141.080081 164.77618 
L 143.713761 164.008767 
L 144.591654 163.619807 
L 145.0306 163.486735 
L 145.469547 162.986711 
L 146.34744 162.828308 
L 147.225333 166.054471 
L 148.542172 169.022448 
L 148.981119 169.928993 
L 151.175851 172.895716 
L 152.492691 173.899677 
L 153.809531 173.96808 
L 154.248477 173.848161 
L 155.12637 173.864315 
L 155.565317 173.878557 
L 157.760049 173.096737 
L 158.198996 172.756919 
L 158.637942 172.254113 
L 159.076889 171.966371 
L 159.515835 172.138981 
L 162.149515 170.41087 
L 162.588461 170.273874 
L 163.905301 169.251888 
L 164.344247 169.105704 
L 166.100033 167.878003 
L 166.53898 167.394092 
L 166.977926 167.335242 
L 167.855819 166.568481 
L 168.733712 166.412527 
L 169.172659 168.017683 
L 170.489498 171.241697 
L 171.367392 172.989024 
L 173.123178 175.014202 
L 173.562124 175.243466 
L 174.001071 175.686364 
L 175.31791 176.02258 
L 175.756857 176.281747 
L 176.195803 176.1969 
L 176.63475 176.300582 
L 177.073696 176.200615 
L 178.390536 175.425975 
L 178.829482 175.354641 
L 179.707376 174.825399 
L 180.585269 174.297761 
L 181.024215 173.776938 
L 182.780001 172.592291 
L 183.218948 171.907215 
L 184.096841 171.061523 
L 184.974734 170.497295 
L 185.852627 169.373785 
L 186.291573 169.086067 
L 186.73052 168.961522 
L 188.047359 168.074964 
L 188.486306 167.967069 
L 189.364199 167.22474 
L 189.803146 166.955336 
L 190.681039 166.04704 
L 191.558932 165.525964 
L 191.997878 165.470649 
L 192.436825 165.028934 
L 193.314718 164.417536 
L 195.070504 163.261891 
L 196.82629 162.53274 
L 198.14313 166.294764 
L 199.021023 168.298736 
L 199.459969 169.295407 
L 200.337862 170.442987 
L 201.215755 171.455342 
L 201.654702 171.887556 
L 202.093648 172.036605 
L 202.971541 172.502766 
L 204.727327 173.367849 
L 206.044167 173.164551 
L 206.483113 173.138478 
L 206.92206 172.967337 
L 207.361007 172.646116 
L 208.677846 172.195951 
L 209.116793 171.583955 
L 210.433632 170.785619 
L 210.872579 170.182221 
L 211.311525 169.791921 
L 212.189418 169.463312 
L 212.628365 168.917399 
L 213.945204 168.047195 
L 214.384151 167.669984 
L 214.823097 167.672935 
L 215.262044 167.282828 
L 216.578884 166.527358 
L 217.456777 165.879849 
L 218.33467 165.291369 
L 219.212563 164.532463 
L 219.651509 164.143759 
L 221.846242 163.058978 
L 222.285188 163.078818 
L 222.724135 162.949488 
L 226.235707 160.978217 
L 227.1136 160.98428 
L 227.991493 160.53756 
L 229.308333 164.594916 
L 229.747279 165.865543 
L 230.625172 167.683704 
L 231.503065 169.287733 
L 231.942012 169.563833 
L 232.380958 170.088234 
L 233.697798 170.725264 
L 234.575691 171.524698 
L 235.014638 171.677578 
L 235.892531 171.811976 
L 236.331477 171.890601 
L 236.770424 171.737592 
L 237.648317 171.673041 
L 238.965156 170.965705 
L 239.404103 170.582188 
L 240.281996 170.388684 
L 240.720942 169.915555 
L 242.915675 168.761074 
L 243.793568 168.145497 
L 244.232515 167.918963 
L 244.671461 167.878869 
L 245.988301 166.742454 
L 246.866194 169.469191 
L 247.30514 170.356505 
L 247.744087 171.727247 
L 249.060926 173.844823 
L 249.499873 174.376177 
L 249.938819 175.122756 
L 250.816712 175.619479 
L 251.255659 175.765038 
L 251.694605 175.72864 
L 252.572498 176.111065 
L 253.450392 175.607626 
L 253.889338 175.454237 
L 254.328285 175.48126 
L 254.767231 175.20722 
L 255.206178 174.790864 
L 256.084071 174.327179 
L 256.523017 174.07077 
L 257.40091 173.24809 
L 257.839857 172.878605 
L 258.278803 172.677383 
L 259.156696 171.946395 
L 261.351429 170.336642 
L 262.229322 169.31319 
L 263.546162 168.323017 
L 263.985108 167.774089 
L 264.424055 167.418537 
L 264.863001 167.300597 
L 265.301948 167.035056 
L 267.057734 165.367765 
L 267.49668 165.229123 
L 267.935627 164.649953 
L 269.691413 163.235824 
L 270.130359 162.725232 
L 270.569306 164.49484 
L 271.447199 166.742884 
L 273.202985 169.715286 
L 273.641932 170.390642 
L 275.836664 172.374347 
L 276.275611 172.546183 
L 277.153504 172.50827 
L 277.59245 172.595294 
L 278.470343 172.437843 
L 278.90929 172.519773 
L 279.348236 172.336028 
L 280.22613 171.503806 
L 280.665076 171.5031 
L 281.104023 171.080795 
L 281.542969 171.17571 
L 281.981916 170.64422 
L 283.737702 169.896284 
L 284.176648 169.475091 
L 285.054541 168.973714 
L 285.932434 167.997197 
L 286.371381 167.759811 
L 287.68822 165.983829 
L 288.127167 165.861631 
L 288.566113 165.396311 
L 292.077686 163.077959 
L 292.516632 163.064419 
L 292.955579 162.815574 
L 293.394525 162.397012 
L 294.711365 162.140871 
L 295.150311 161.815669 
L 295.589258 161.788655 
L 296.906097 160.715011 
L 297.345044 160.665001 
L 298.661884 159.845623 
L 299.10083 159.781348 
L 299.539777 159.441937 
L 299.978723 159.274348 
L 301.295563 158.153781 
L 302.612402 162.503781 
L 303.929242 165.605087 
L 304.807135 166.880765 
L 305.685028 167.456269 
L 306.123974 167.845079 
L 306.562921 168.532406 
L 307.001867 168.753688 
L 307.440814 169.124462 
L 307.879761 169.278279 
L 308.757654 169.3145 
L 309.635547 169.164804 
L 310.51344 169.007711 
L 312.269226 168.536574 
L 313.147119 167.974824 
L 313.586065 167.817202 
L 317.097638 165.439996 
L 317.975531 164.721697 
L 319.29237 163.803652 
L 321.048156 162.646246 
L 323.681835 161.601711 
L 324.120782 161.59041 
L 324.559728 161.274023 
L 324.998675 161.252737 
L 326.315515 160.346349 
L 326.754461 160.224917 
L 327.632354 160.183878 
L 328.071301 160.043344 
L 328.949194 163.090209 
L 330.266033 165.973098 
L 332.460766 169.334422 
L 333.338659 170.259544 
L 334.216552 170.470699 
L 336.411285 170.821961 
L 336.850231 170.817438 
L 337.728124 170.483525 
L 340.80075 169.148628 
L 341.678643 169.106815 
L 343.434429 168.145107 
L 344.751269 166.744826 
L 345.190215 166.669065 
L 346.068108 166.151309 
L 347.384948 165.28735 
L 348.262841 164.489311 
L 348.701787 164.354995 
L 349.57968 163.822086 
L 350.018627 163.704884 
L 350.457573 163.174744 
L 350.89652 163.022848 
L 351.335466 162.669095 
L 351.774413 162.650388 
L 352.652306 165.168229 
L 353.530199 167.123253 
L 354.408092 168.911045 
L 354.847039 169.781343 
L 355.724932 170.748796 
L 356.602825 171.56941 
L 357.919664 172.137554 
L 358.358611 172.033689 
L 358.797557 172.123354 
L 359.67545 171.666005 
L 361.870183 171.519496 
L 362.748076 171.018574 
L 365.820702 169.458245 
L 366.698595 168.798247 
L 367.137541 168.845641 
L 367.576488 168.583565 
L 368.015434 168.169849 
L 369.332274 167.348069 
L 369.77122 166.794505 
L 370.649113 166.278072 
L 371.965953 165.043465 
L 372.843846 164.667947 
L 373.721739 164.064323 
L 374.160686 163.625945 
L 374.599632 163.581038 
L 375.038579 163.240027 
L 375.477525 163.105095 
L 376.355418 162.412725 
L 376.794365 162.368595 
L 377.672258 161.938626 
L 378.989097 161.201572 
L 381.18383 160.083816 
L 382.061723 159.98721 
L 382.50067 159.972127 
L 382.939616 159.842458 
L 384.256456 164.202942 
L 385.573295 167.012606 
L 386.451188 168.425729 
L 387.329081 169.593123 
L 387.768028 169.698086 
L 388.645921 170.17331 
L 389.962761 170.81021 
L 390.401707 171.112307 
L 391.2796 171.20139 
L 392.157493 170.724664 
L 392.59644 170.889057 
L 393.474333 170.592269 
L 394.352226 170.232566 
L 395.230119 170.101944 
L 395.669065 169.79501 
L 396.546958 168.805503 
L 396.985905 168.526342 
L 397.424851 168.503428 
L 398.302744 167.8257 
L 398.741691 167.294104 
L 399.619584 166.76674 
L 400.936424 165.714355 
L 401.814317 168.610432 
L 403.131156 171.625205 
L 404.009049 173.160187 
L 404.447996 173.57876 
L 404.886942 173.783242 
L 406.203782 175.085322 
L 406.642728 174.980335 
L 407.081675 175.190847 
L 407.520621 175.207599 
L 407.959568 175.099327 
L 408.398515 174.851835 
L 408.837461 174.883464 
L 409.276408 174.503424 
L 410.154301 174.248017 
L 410.593247 173.768519 
L 411.032194 173.549254 
L 411.910087 172.702017 
L 412.349033 172.556868 
L 412.78798 172.220714 
L 413.665873 171.324999 
L 414.104819 171.373221 
L 414.543766 171.005482 
L 415.421659 170.07769 
L 415.860605 169.762627 
L 416.738498 168.648625 
L 417.616392 168.237718 
L 418.494285 166.999855 
L 420.689017 165.519834 
L 421.56691 164.487662 
L 422.005857 164.350435 
L 422.88375 163.608674 
L 423.322696 163.202549 
L 424.200589 162.958572 
L 424.639536 162.513356 
L 425.078482 162.474714 
L 425.078482 162.474714 
" clip-path="url(#p708a515be8)" style="fill: none; stroke: #808080; stroke-width: 1.5; stroke-linecap: square"/>
   </g>
   <g id="LineCollection_3">
    <path d="M 52.85183 162.445009 
L 425.517429 162.445009 
" clip-path="url(#p708a515be8)" style="fill: none; stroke-dasharray: 5.55,2.4; stroke-dashoffset: 0; stroke: #d3d3d3; stroke-width: 1.5"/>
   </g>
   <g id="LineCollection_4">
    <path d="M 52.412884 176.300582 
L 52.412884 146.746605 
" clip-path="url(#p708a515be8)" style="fill: none; stroke: #808080; stroke-opacity: 0.5; stroke-width: 1.5"/>
    <path d="M 83.578087 176.300582 
L 83.578087 146.746605 
" clip-path="url(#p708a515be8)" style="fill: none; stroke: #808080; stroke-opacity: 0.5; stroke-width: 1.5"/>
    <path d="M 115.182236 176.300582 
L 115.182236 146.746605 
" clip-path="url(#p708a515be8)" style="fill: none; stroke: #808080; stroke-opacity: 0.5; stroke-width: 1.5"/>
    <path d="M 146.34744 176.300582 
L 146.34744 146.746605 
" clip-path="url(#p708a515be8)" style="fill: none; stroke: #808080; stroke-opacity: 0.5; stroke-width: 1.5"/>
    <path d="M 168.733712 176.300582 
L 168.733712 146.746605 
" clip-path="url(#p708a515be8)" style="fill: none; stroke: #808080; stroke-opacity: 0.5; stroke-width: 1.5"/>
    <path d="M 196.82629 176.300582 
L 196.82629 146.746605 
" clip-path="url(#p708a515be8)" style="fill: none; stroke: #808080; stroke-opacity: 0.5; stroke-width: 1.5"/>
    <path d="M 227.991493 176.300582 
L 227.991493 146.746605 
" clip-path="url(#p708a515be8)" style="fill: none; stroke: #808080; stroke-opacity: 0.5; stroke-width: 1.5"/>
    <path d="M 245.988301 176.300582 
L 245.988301 146.746605 
" clip-path="url(#p708a515be8)" style="fill: none; stroke: #808080; stroke-opacity: 0.5; stroke-width: 1.5"/>
    <path d="M 270.130359 176.300582 
L 270.130359 146.746605 
" clip-path="url(#p708a515be8)" style="fill: none; stroke: #808080; stroke-opacity: 0.5; stroke-width: 1.5"/>
    <path d="M 301.295563 176.300582 
L 301.295563 146.746605 
" clip-path="url(#p708a515be8)" style="fill: none; stroke: #808080; stroke-opacity: 0.5; stroke-width: 1.5"/>
    <path d="M 328.071301 176.300582 
L 328.071301 146.746605 
" clip-path="url(#p708a515be8)" style="fill: none; stroke: #808080; stroke-opacity: 0.5; stroke-width: 1.5"/>
    <path d="M 351.774413 176.300582 
L 351.774413 146.746605 
" clip-path="url(#p708a515be8)" style="fill: none; stroke: #808080; stroke-opacity: 0.5; stroke-width: 1.5"/>
    <path d="M 382.939616 176.300582 
L 382.939616 146.746605 
" clip-path="url(#p708a515be8)" style="fill: none; stroke: #808080; stroke-opacity: 0.5; stroke-width: 1.5"/>
    <path d="M 400.936424 176.300582 
L 400.936424 146.746605 
" clip-path="url(#p708a515be8)" style="fill: none; stroke: #808080; stroke-opacity: 0.5; stroke-width: 1.5"/>
    <path d="M 424.639536 176.300582 
L 424.639536 146.746605 
" clip-path="url(#p708a515be8)" style="fill: none; stroke: #808080; stroke-opacity: 0.5; stroke-width: 1.5"/>
   </g>
   <g id="patch_39">
    <path d="M 33.757656 177.778281 
L 33.757656 145.268906 
" style="fill: none; stroke: #000000; stroke-width: 0.8; stroke-linejoin: miter; stroke-linecap: square"/>
   </g>
   <g id="patch_40">
    <path d="M 33.757656 177.778281 
L 444.172656 177.778281 
" style="fill: none; stroke: #000000; stroke-width: 0.8; stroke-linejoin: miter; stroke-linecap: square"/>
   </g>
   <g id="text_9">
    <!-- dy/dt -->
    <g transform="translate(225.077656 139.268906)scale(0.11 -0.11)">
     <defs>
      <path id="CMUSerif-Roman-79" d="M 122 -794 
Q 122 -659 202 -588 
Q 282 -518 390 -518 
Q 506 -518 582 -592 
Q 659 -666 659 -787 
Q 659 -1024 410 -1056 
Q 531 -1171 710 -1171 
Q 902 -1171 1056 -1030 
Q 1210 -890 1277 -755 
Q 1344 -621 1440 -378 
Q 1530 -186 1600 0 
L 640 2336 
Q 576 2490 480 2525 
Q 384 2560 122 2560 
L 122 2758 
Q 410 2739 742 2739 
Q 941 2739 1440 2758 
L 1440 2560 
Q 1082 2560 1082 2394 
Q 1082 2374 1120 2278 
L 1830 557 
L 2477 2131 
Q 2515 2221 2515 2285 
Q 2515 2547 2214 2560 
L 2214 2758 
Q 2637 2739 2771 2739 
Q 3034 2739 3251 2758 
L 3251 2560 
Q 2822 2560 2656 2150 
L 1530 -582 
Q 1222 -1312 710 -1312 
Q 467 -1312 294 -1161 
Q 122 -1011 122 -794 
z
" transform="scale(0.015625)"/>
     </defs>
     <use xlink:href="#CMUSerif-Roman-64"/>
     <use xlink:href="#CMUSerif-Roman-79" x="55.499985"/>
     <use xlink:href="#CMUSerif-Roman-2f" x="108.199982"/>
     <use xlink:href="#CMUSerif-Roman-64" x="158.199966"/>
     <use xlink:href="#CMUSerif-Roman-74" x="213.699951"/>
    </g>
   </g>
  </g>
  <g id="axes_4">
   <g id="patch_41">
    <path d="M 33.757656 239.698906 
L 444.172656 239.698906 
L 444.172656 207.189531 
L 33.757656 207.189531 
z
" style="fill: #ffffff"/>
   </g>
   <g id="patch_42">
    <path d="M 83.578087 239.698906 
L 83.578087 207.189531 
L 115.182236 207.189531 
L 115.182236 239.698906 
z
" clip-path="url(#pdb0db59722)" style="fill: #ff0000; opacity: 0.1"/>
   </g>
   <g id="patch_43">
    <path d="M 52.412884 239.698906 
L 52.412884 207.189531 
L 83.578087 207.189531 
L 83.578087 239.698906 
z
" clip-path="url(#pdb0db59722)" style="fill: #0000ff; opacity: 0.1"/>
   </g>
   <g id="patch_44">
    <path d="M 168.733712 239.698906 
L 168.733712 207.189531 
L 196.82629 207.189531 
L 196.82629 239.698906 
z
" clip-path="url(#pdb0db59722)" style="fill: #ff0000; opacity: 0.1"/>
   </g>
   <g id="patch_45">
    <path d="M 146.34744 239.698906 
L 146.34744 207.189531 
L 168.733712 207.189531 
L 168.733712 239.698906 
z
" clip-path="url(#pdb0db59722)" style="fill: #0000ff; opacity: 0.1"/>
   </g>
   <g id="patch_46">
    <path d="M 245.988301 239.698906 
L 245.988301 207.189531 
L 270.130359 207.189531 
L 270.130359 239.698906 
z
" clip-path="url(#pdb0db59722)" style="fill: #ff0000; opacity: 0.1"/>
   </g>
   <g id="patch_47">
    <path d="M 227.991493 239.698906 
L 227.991493 207.189531 
L 245.988301 207.189531 
L 245.988301 239.698906 
z
" clip-path="url(#pdb0db59722)" style="fill: #0000ff; opacity: 0.1"/>
   </g>
   <g id="patch_48">
    <path d="M 328.071301 239.698906 
L 328.071301 207.189531 
L 351.774413 207.189531 
L 351.774413 239.698906 
z
" clip-path="url(#pdb0db59722)" style="fill: #ff0000; opacity: 0.1"/>
   </g>
   <g id="patch_49">
    <path d="M 301.295563 239.698906 
L 301.295563 207.189531 
L 328.071301 207.189531 
L 328.071301 239.698906 
z
" clip-path="url(#pdb0db59722)" style="fill: #0000ff; opacity: 0.1"/>
   </g>
   <g id="patch_50">
    <path d="M 400.936424 239.698906 
L 400.936424 207.189531 
L 424.639536 207.189531 
L 424.639536 239.698906 
z
" clip-path="url(#pdb0db59722)" style="fill: #ff0000; opacity: 0.1"/>
   </g>
   <g id="patch_51">
    <path d="M 382.939616 239.698906 
L 382.939616 207.189531 
L 400.936424 207.189531 
L 400.936424 239.698906 
z
" clip-path="url(#pdb0db59722)" style="fill: #0000ff; opacity: 0.1"/>
   </g>
   <g id="matplotlib.axis_7">
    <g id="xtick_16">
     <g id="line2d_25">
      <g>
       <use xlink:href="#m7cf764c105" x="76.554942" y="239.698906" style="stroke: #000000; stroke-width: 0.8"/>
      </g>
     </g>
     <g id="text_10">
      <!-- 2000 -->
      <g transform="translate(65.554942 254.333594)scale(0.11 -0.11)">
       <defs>
        <path id="CMUSerif-Roman-32" d="M 320 0 
Q 320 115 329 150 
Q 339 186 390 237 
L 1619 1606 
Q 2291 2362 2291 3021 
Q 2291 3450 2067 3757 
Q 1843 4064 1434 4064 
Q 1152 4064 915 3891 
Q 678 3718 570 3411 
Q 589 3418 653 3418 
Q 813 3418 902 3318 
Q 992 3219 992 3085 
Q 992 2912 880 2829 
Q 768 2746 659 2746 
Q 614 2746 556 2755 
Q 499 2765 409 2854 
Q 320 2944 320 3104 
Q 320 3552 659 3907 
Q 998 4262 1517 4262 
Q 2106 4262 2490 3913 
Q 2874 3565 2874 3021 
Q 2874 2829 2816 2656 
Q 2758 2483 2681 2348 
Q 2605 2214 2400 2000 
Q 2195 1786 2028 1632 
Q 1862 1478 1491 1152 
L 813 493 
L 1965 493 
Q 2528 493 2573 544 
Q 2637 634 2714 1114 
L 2874 1114 
L 2694 0 
L 320 0 
z
" transform="scale(0.015625)"/>
       </defs>
       <use xlink:href="#CMUSerif-Roman-32"/>
       <use xlink:href="#CMUSerif-Roman-30" x="49.999985"/>
       <use xlink:href="#CMUSerif-Roman-30" x="99.999969"/>
       <use xlink:href="#CMUSerif-Roman-30" x="149.999954"/>
      </g>
     </g>
    </g>
    <g id="xtick_17">
     <g id="line2d_26">
      <g>
       <use xlink:href="#m7cf764c105" x="164.344247" y="239.698906" style="stroke: #000000; stroke-width: 0.8"/>
      </g>
     </g>
     <g id="text_11">
      <!-- 4000 -->
      <g transform="translate(153.344247 254.333594)scale(0.11 -0.11)">
       <defs>
        <path id="CMUSerif-Roman-34" d="M 179 1056 
L 179 1254 
L 2144 4256 
Q 2195 4333 2272 4333 
Q 2342 4333 2358 4304 
Q 2374 4275 2374 4166 
L 2374 1254 
L 3014 1254 
L 3014 1056 
L 2374 1056 
L 2374 499 
Q 2374 314 2451 256 
Q 2528 198 2861 198 
L 2995 198 
L 2995 0 
Q 2733 19 2125 19 
Q 1523 19 1261 0 
L 1261 198 
L 1395 198 
Q 1728 198 1805 256 
Q 1882 314 1882 499 
L 1882 1056 
L 179 1056 
z
M 358 1254 
L 1920 1254 
L 1920 3642 
L 358 1254 
z
" transform="scale(0.015625)"/>
       </defs>
       <use xlink:href="#CMUSerif-Roman-34"/>
       <use xlink:href="#CMUSerif-Roman-30" x="49.999985"/>
       <use xlink:href="#CMUSerif-Roman-30" x="99.999969"/>
       <use xlink:href="#CMUSerif-Roman-30" x="149.999954"/>
      </g>
     </g>
    </g>
    <g id="xtick_18">
     <g id="line2d_27">
      <g>
       <use xlink:href="#m7cf764c105" x="252.133552" y="239.698906" style="stroke: #000000; stroke-width: 0.8"/>
      </g>
     </g>
     <g id="text_12">
      <!-- 6000 -->
      <g transform="translate(241.133552 254.333594)scale(0.11 -0.11)">
       <use xlink:href="#CMUSerif-Roman-36"/>
       <use xlink:href="#CMUSerif-Roman-30" x="49.999985"/>
       <use xlink:href="#CMUSerif-Roman-30" x="99.999969"/>
       <use xlink:href="#CMUSerif-Roman-30" x="149.999954"/>
      </g>
     </g>
    </g>
    <g id="xtick_19">
     <g id="line2d_28">
      <g>
       <use xlink:href="#m7cf764c105" x="339.922857" y="239.698906" style="stroke: #000000; stroke-width: 0.8"/>
      </g>
     </g>
     <g id="text_13">
      <!-- 8000 -->
      <g transform="translate(328.922857 254.333594)scale(0.11 -0.11)">
       <defs>
        <path id="CMUSerif-Roman-38" d="M 269 966 
Q 269 1683 1190 2144 
Q 794 2413 723 2490 
Q 442 2803 442 3194 
Q 442 3642 781 3952 
Q 1120 4262 1600 4262 
Q 2061 4262 2406 3996 
Q 2752 3731 2752 3309 
Q 2752 2714 1978 2317 
Q 2490 1997 2611 1862 
Q 2925 1517 2925 1075 
Q 2925 563 2531 211 
Q 2138 -141 1594 -141 
Q 1062 -141 665 169 
Q 269 480 269 966 
z
M 589 966 
Q 589 570 886 304 
Q 1184 38 1600 38 
Q 2003 38 2304 268 
Q 2605 499 2605 845 
Q 2605 979 2560 1094 
Q 2515 1210 2425 1302 
Q 2336 1395 2281 1436 
Q 2227 1478 2125 1549 
L 1338 2048 
Q 589 1632 589 966 
z
M 723 3443 
Q 723 3136 1043 2925 
L 1837 2413 
Q 2470 2784 2470 3309 
Q 2470 3648 2211 3875 
Q 1952 4102 1594 4102 
Q 1242 4102 982 3916 
Q 723 3731 723 3443 
z
" transform="scale(0.015625)"/>
       </defs>
       <use xlink:href="#CMUSerif-Roman-38"/>
       <use xlink:href="#CMUSerif-Roman-30" x="49.999985"/>
       <use xlink:href="#CMUSerif-Roman-30" x="99.999969"/>
       <use xlink:href="#CMUSerif-Roman-30" x="149.999954"/>
      </g>
     </g>
    </g>
    <g id="xtick_20">
     <g id="line2d_29">
      <g>
       <use xlink:href="#m7cf764c105" x="427.712162" y="239.698906" style="stroke: #000000; stroke-width: 0.8"/>
      </g>
     </g>
     <g id="text_14">
      <!-- 10000 -->
      <g transform="translate(413.962162 254.333594)scale(0.11 -0.11)">
       <defs>
        <path id="CMUSerif-Roman-31" d="M 570 3654 
L 570 3853 
Q 1338 3853 1734 4262 
Q 1843 4262 1862 4236 
Q 1882 4211 1882 4096 
L 1882 506 
Q 1882 314 1974 256 
Q 2067 198 2477 198 
L 2682 198 
L 2682 0 
Q 2458 19 1645 19 
Q 832 19 608 0 
L 608 198 
L 813 198 
Q 1216 198 1312 256 
Q 1408 314 1408 506 
L 1408 3821 
Q 1075 3654 570 3654 
z
" transform="scale(0.015625)"/>
       </defs>
       <use xlink:href="#CMUSerif-Roman-31"/>
       <use xlink:href="#CMUSerif-Roman-30" x="49.999985"/>
       <use xlink:href="#CMUSerif-Roman-30" x="99.999969"/>
       <use xlink:href="#CMUSerif-Roman-30" x="149.999954"/>
       <use xlink:href="#CMUSerif-Roman-30" x="199.999939"/>
      </g>
     </g>
    </g>
    <g id="text_15">
     <!-- Time (ms) -->
     <g transform="translate(213.598984 268.718281)scale(0.11 -0.11)">
      <defs>
       <path id="CMUSerif-Roman-54" d="M 230 2893 
L 352 4333 
L 4262 4333 
L 4384 2893 
L 4224 2893 
Q 4198 3181 4176 3347 
Q 4154 3514 4099 3670 
Q 4045 3827 3977 3904 
Q 3910 3981 3782 4041 
Q 3654 4102 3488 4118 
Q 3322 4134 3072 4134 
Q 2778 4134 2707 4122 
Q 2630 4102 2611 4048 
Q 2592 3994 2592 3878 
L 2592 506 
Q 2592 378 2617 326 
Q 2643 275 2790 236 
Q 2938 198 3264 198 
L 3520 198 
L 3520 0 
Q 3258 19 2304 19 
Q 1357 19 1094 0 
L 1094 198 
L 1350 198 
Q 1677 198 1824 236 
Q 1971 275 1996 326 
Q 2022 378 2022 506 
L 2022 3878 
Q 2022 3968 2016 4006 
Q 2010 4045 1981 4077 
Q 1952 4109 1888 4121 
Q 1824 4134 1542 4134 
Q 1293 4134 1126 4118 
Q 960 4102 832 4041 
Q 704 3981 637 3904 
Q 570 3827 515 3670 
Q 461 3514 438 3347 
Q 416 3181 390 2893 
L 230 2893 
z
" transform="scale(0.015625)"/>
       <path id="CMUSerif-Roman-69" d="M 211 0 
L 211 198 
Q 550 198 630 240 
Q 710 282 710 486 
L 710 2208 
Q 710 2445 630 2502 
Q 550 2560 237 2560 
L 237 2758 
L 1133 2829 
L 1133 480 
Q 1133 288 1200 243 
Q 1267 198 1581 198 
L 1581 0 
Q 928 19 915 19 
Q 826 19 211 0 
z
M 480 3942 
Q 480 4070 579 4176 
Q 678 4282 819 4282 
Q 960 4282 1059 4186 
Q 1158 4090 1158 3942 
Q 1158 3795 1059 3699 
Q 960 3603 819 3603 
Q 672 3603 576 3705 
Q 480 3808 480 3942 
z
" transform="scale(0.015625)"/>
       <path id="CMUSerif-Roman-6d" d="M 205 0 
L 205 198 
Q 544 198 624 240 
Q 704 282 704 486 
L 704 2202 
Q 704 2438 621 2499 
Q 538 2560 205 2560 
L 205 2758 
L 1107 2829 
L 1107 2157 
Q 1408 2829 2054 2829 
Q 2803 2829 2906 2202 
Q 3014 2445 3244 2637 
Q 3475 2829 3834 2829 
Q 4314 2829 4506 2592 
Q 4646 2432 4675 2253 
Q 4704 2074 4704 1613 
L 4704 390 
Q 4710 256 4812 227 
Q 4915 198 5203 198 
L 5203 0 
Q 4550 19 4486 19 
Q 4435 19 3763 0 
L 3763 198 
Q 4102 198 4182 240 
Q 4262 282 4262 486 
L 4262 1978 
Q 4262 2304 4163 2496 
Q 4064 2688 3789 2688 
Q 3456 2688 3190 2409 
Q 2925 2131 2925 1664 
L 2925 486 
Q 2925 282 3005 240 
Q 3085 198 3424 198 
L 3424 0 
Q 2771 19 2707 19 
Q 2656 19 1984 0 
L 1984 198 
Q 2323 198 2403 240 
Q 2483 282 2483 486 
L 2483 1978 
Q 2483 2304 2384 2496 
Q 2285 2688 2010 2688 
Q 1677 2688 1411 2409 
Q 1146 2131 1146 1664 
L 1146 486 
Q 1146 282 1226 240 
Q 1306 198 1645 198 
L 1645 0 
Q 992 19 928 19 
Q 877 19 205 0 
z
" transform="scale(0.015625)"/>
       <path id="CMUSerif-Roman-65" d="M 179 1408 
Q 179 2010 566 2438 
Q 954 2867 1510 2867 
Q 2074 2867 2365 2502 
Q 2656 2138 2656 1613 
Q 2656 1517 2630 1497 
Q 2605 1478 2496 1478 
L 710 1478 
Q 710 826 902 518 
Q 1171 90 1626 90 
Q 1690 90 1763 102 
Q 1837 115 1990 169 
Q 2144 224 2278 371 
Q 2413 518 2490 749 
Q 2509 838 2573 838 
Q 2656 838 2656 762 
Q 2656 704 2595 579 
Q 2534 454 2419 304 
Q 2304 154 2080 42 
Q 1856 -70 1587 -70 
Q 1024 -70 601 355 
Q 179 781 179 1408 
z
M 717 1613 
L 2234 1613 
Q 2234 1747 2211 1897 
Q 2189 2048 2121 2256 
Q 2054 2464 1897 2595 
Q 1741 2726 1510 2726 
Q 1408 2726 1296 2681 
Q 1184 2637 1049 2531 
Q 915 2426 822 2186 
Q 730 1946 717 1613 
z
" transform="scale(0.015625)"/>
       <path id="CMUSerif-Roman-20" transform="scale(0.015625)"/>
       <path id="CMUSerif-Roman-28" d="M 634 1600 
Q 634 2682 1037 3552 
Q 1210 3917 1450 4224 
Q 1690 4531 1850 4665 
Q 2010 4800 2054 4800 
Q 2118 4800 2118 4736 
Q 2118 4704 2035 4627 
Q 1005 3578 1005 1600 
Q 1005 -384 2010 -1395 
Q 2118 -1504 2118 -1536 
Q 2118 -1600 2054 -1600 
Q 2010 -1600 1856 -1472 
Q 1702 -1344 1465 -1049 
Q 1229 -755 1056 -397 
Q 634 474 634 1600 
z
" transform="scale(0.015625)"/>
       <path id="CMUSerif-Roman-73" d="M 211 83 
L 211 928 
Q 211 998 214 1024 
Q 218 1050 237 1069 
Q 256 1088 294 1088 
Q 339 1088 355 1069 
Q 371 1050 384 979 
Q 480 538 688 304 
Q 896 70 1274 70 
Q 1632 70 1814 230 
Q 1997 390 1997 653 
Q 1997 1120 1331 1242 
Q 947 1318 787 1369 
Q 627 1421 486 1536 
Q 211 1760 211 2080 
Q 211 2400 454 2633 
Q 698 2867 1235 2867 
Q 1594 2867 1837 2688 
Q 1907 2746 1946 2790 
Q 2029 2867 2074 2867 
Q 2125 2867 2134 2835 
Q 2144 2803 2144 2714 
L 2144 2067 
Q 2144 1997 2141 1971 
Q 2138 1946 2118 1930 
Q 2099 1914 2061 1914 
Q 1990 1914 1984 1971 
Q 1933 2746 1235 2746 
Q 858 2746 688 2602 
Q 518 2458 518 2259 
Q 518 2150 569 2067 
Q 621 1984 688 1936 
Q 755 1888 880 1843 
Q 1005 1798 1081 1782 
Q 1158 1766 1306 1734 
Q 1818 1638 2035 1427 
Q 2304 1158 2304 819 
Q 2304 442 2048 186 
Q 1792 -70 1274 -70 
Q 858 -70 570 205 
Q 531 166 502 134 
Q 474 102 464 89 
Q 454 77 451 70 
Q 448 64 442 58 
Q 314 -70 282 -70 
Q 230 -70 220 -38 
Q 211 -6 211 83 
z
" transform="scale(0.015625)"/>
       <path id="CMUSerif-Roman-29" d="M 365 -1536 
Q 365 -1504 448 -1427 
Q 1478 -378 1478 1600 
Q 1478 3584 486 4589 
Q 365 4704 365 4736 
Q 365 4800 429 4800 
Q 474 4800 627 4672 
Q 781 4544 1017 4249 
Q 1254 3955 1427 3597 
Q 1850 2726 1850 1600 
Q 1850 518 1446 -352 
Q 1274 -717 1034 -1024 
Q 794 -1331 634 -1465 
Q 474 -1600 429 -1600 
Q 365 -1600 365 -1536 
z
" transform="scale(0.015625)"/>
      </defs>
      <use xlink:href="#CMUSerif-Roman-54"/>
      <use xlink:href="#CMUSerif-Roman-69" x="72.199982"/>
      <use xlink:href="#CMUSerif-Roman-6d" x="99.899979"/>
      <use xlink:href="#CMUSerif-Roman-65" x="183.199966"/>
      <use xlink:href="#CMUSerif-Roman-20" x="227.59996"/>
      <use xlink:href="#CMUSerif-Roman-28" x="260.899948"/>
      <use xlink:href="#CMUSerif-Roman-6d" x="299.699936"/>
      <use xlink:href="#CMUSerif-Roman-73" x="382.999924"/>
      <use xlink:href="#CMUSerif-Roman-29" x="422.399918"/>
     </g>
    </g>
   </g>
   <g id="matplotlib.axis_8">
    <g id="ytick_7">
     <g id="line2d_30">
      <g>
       <use xlink:href="#mc079bd544d" x="33.757656" y="239.331842" style="stroke: #000000; stroke-width: 0.8"/>
      </g>
     </g>
     <g id="text_16">
      <!-- 0.78 -->
      <g transform="translate(7.2 243.149185)scale(0.11 -0.11)">
       <use xlink:href="#CMUSerif-Roman-30"/>
       <use xlink:href="#CMUSerif-Roman-2e" x="49.999985"/>
       <use xlink:href="#CMUSerif-Roman-37" x="77.799973"/>
       <use xlink:href="#CMUSerif-Roman-38" x="127.799957"/>
      </g>
     </g>
    </g>
    <g id="ytick_8">
     <g id="line2d_31">
      <g>
       <use xlink:href="#mc079bd544d" x="33.757656" y="210.911149" style="stroke: #000000; stroke-width: 0.8"/>
      </g>
     </g>
     <g id="text_17">
      <!-- 0.80 -->
      <g transform="translate(7.2 214.728493)scale(0.11 -0.11)">
       <use xlink:href="#CMUSerif-Roman-30"/>
       <use xlink:href="#CMUSerif-Roman-2e" x="49.999985"/>
       <use xlink:href="#CMUSerif-Roman-38" x="77.799973"/>
       <use xlink:href="#CMUSerif-Roman-30" x="127.799957"/>
      </g>
     </g>
    </g>
   </g>
   <g id="line2d_32">
    <path d="M 52.85183 210.911149 
L 83.578087 210.911149 
L 84.017033 208.66723 
L 168.733712 208.66723 
L 169.172659 221.506439 
L 245.988301 221.506439 
L 246.427247 235.413319 
L 328.071301 235.413319 
L 328.510247 227.641339 
L 400.936424 227.641339 
L 401.37537 238.221207 
L 425.078482 238.221207 
L 425.078482 238.221207 
" clip-path="url(#pdb0db59722)" style="fill: none; stroke: #808080; stroke-width: 1.5; stroke-linecap: square"/>
   </g>
   <g id="LineCollection_5">
    <path d="M 52.412884 238.221207 
L 52.412884 208.66723 
" clip-path="url(#pdb0db59722)" style="fill: none; stroke: #808080; stroke-opacity: 0.5; stroke-width: 1.5"/>
    <path d="M 83.578087 238.221207 
L 83.578087 208.66723 
" clip-path="url(#pdb0db59722)" style="fill: none; stroke: #808080; stroke-opacity: 0.5; stroke-width: 1.5"/>
    <path d="M 115.182236 238.221207 
L 115.182236 208.66723 
" clip-path="url(#pdb0db59722)" style="fill: none; stroke: #808080; stroke-opacity: 0.5; stroke-width: 1.5"/>
    <path d="M 146.34744 238.221207 
L 146.34744 208.66723 
" clip-path="url(#pdb0db59722)" style="fill: none; stroke: #808080; stroke-opacity: 0.5; stroke-width: 1.5"/>
    <path d="M 168.733712 238.221207 
L 168.733712 208.66723 
" clip-path="url(#pdb0db59722)" style="fill: none; stroke: #808080; stroke-opacity: 0.5; stroke-width: 1.5"/>
    <path d="M 196.82629 238.221207 
L 196.82629 208.66723 
" clip-path="url(#pdb0db59722)" style="fill: none; stroke: #808080; stroke-opacity: 0.5; stroke-width: 1.5"/>
    <path d="M 227.991493 238.221207 
L 227.991493 208.66723 
" clip-path="url(#pdb0db59722)" style="fill: none; stroke: #808080; stroke-opacity: 0.5; stroke-width: 1.5"/>
    <path d="M 245.988301 238.221207 
L 245.988301 208.66723 
" clip-path="url(#pdb0db59722)" style="fill: none; stroke: #808080; stroke-opacity: 0.5; stroke-width: 1.5"/>
    <path d="M 270.130359 238.221207 
L 270.130359 208.66723 
" clip-path="url(#pdb0db59722)" style="fill: none; stroke: #808080; stroke-opacity: 0.5; stroke-width: 1.5"/>
    <path d="M 301.295563 238.221207 
L 301.295563 208.66723 
" clip-path="url(#pdb0db59722)" style="fill: none; stroke: #808080; stroke-opacity: 0.5; stroke-width: 1.5"/>
    <path d="M 328.071301 238.221207 
L 328.071301 208.66723 
" clip-path="url(#pdb0db59722)" style="fill: none; stroke: #808080; stroke-opacity: 0.5; stroke-width: 1.5"/>
    <path d="M 351.774413 238.221207 
L 351.774413 208.66723 
" clip-path="url(#pdb0db59722)" style="fill: none; stroke: #808080; stroke-opacity: 0.5; stroke-width: 1.5"/>
    <path d="M 382.939616 238.221207 
L 382.939616 208.66723 
" clip-path="url(#pdb0db59722)" style="fill: none; stroke: #808080; stroke-opacity: 0.5; stroke-width: 1.5"/>
    <path d="M 400.936424 238.221207 
L 400.936424 208.66723 
" clip-path="url(#pdb0db59722)" style="fill: none; stroke: #808080; stroke-opacity: 0.5; stroke-width: 1.5"/>
    <path d="M 424.639536 238.221207 
L 424.639536 208.66723 
" clip-path="url(#pdb0db59722)" style="fill: none; stroke: #808080; stroke-opacity: 0.5; stroke-width: 1.5"/>
   </g>
   <g id="patch_52">
    <path d="M 33.757656 239.698906 
L 33.757656 207.189531 
" style="fill: none; stroke: #000000; stroke-width: 0.8; stroke-linejoin: miter; stroke-linecap: square"/>
   </g>
   <g id="patch_53">
    <path d="M 33.757656 239.698906 
L 444.172656 239.698906 
" style="fill: none; stroke: #000000; stroke-width: 0.8; stroke-linejoin: miter; stroke-linecap: square"/>
   </g>
   <g id="text_18">
    <!-- dI/dt -->
    <g transform="translate(225.991172 201.189531)scale(0.11 -0.11)">
     <defs>
      <path id="CMUSerif-Roman-49" d="M 179 0 
L 179 198 
L 346 198 
Q 704 198 787 256 
Q 870 314 870 499 
L 870 3872 
Q 870 4058 787 4115 
Q 704 4173 346 4173 
L 179 4173 
L 179 4371 
Q 403 4352 1158 4352 
Q 1907 4352 2131 4371 
L 2131 4173 
L 1965 4173 
Q 1606 4173 1523 4115 
Q 1440 4058 1440 3872 
L 1440 499 
Q 1440 314 1523 256 
Q 1606 198 1965 198 
L 2131 198 
L 2131 0 
Q 1907 19 1152 19 
Q 403 19 179 0 
z
" transform="scale(0.015625)"/>
     </defs>
     <use xlink:href="#CMUSerif-Roman-64"/>
     <use xlink:href="#CMUSerif-Roman-49" x="55.499985"/>
     <use xlink:href="#CMUSerif-Roman-2f" x="91.599976"/>
     <use xlink:href="#CMUSerif-Roman-64" x="141.59996"/>
     <use xlink:href="#CMUSerif-Roman-74" x="197.099945"/>
    </g>
   </g>
  </g>
 </g>
 <defs>
  <clipPath id="pe6fd0e107a">
   <rect x="33.757656" y="21.427656" width="410.415" height="32.509375"/>
  </clipPath>
  <clipPath id="p97270c997d">
   <rect x="33.757656" y="83.348281" width="410.415" height="32.509375"/>
  </clipPath>
  <clipPath id="p708a515be8">
   <rect x="33.757656" y="145.268906" width="410.415" height="32.509375"/>
  </clipPath>
  <clipPath id="pdb0db59722">
   <rect x="33.757656" y="207.189531" width="410.415" height="32.509375"/>
  </clipPath>
 </defs>
</svg>
