<?xml version="1.0" encoding="utf-8" standalone="no"?>
<!DOCTYPE svg PUBLIC "-//W3C//DTD SVG 1.1//EN"
  "http://www.w3.org/Graphics/SVG/1.1/DTD/svg11.dtd">
<svg xmlns:xlink="http://www.w3.org/1999/xlink" width="456.919467pt" height="278.64pt" viewBox="0 0 456.919467 278.64" xmlns="http://www.w3.org/2000/svg" version="1.1">
 <metadata>
  <rdf:RDF xmlns:dc="http://purl.org/dc/elements/1.1/" xmlns:cc="http://creativecommons.org/ns#" xmlns:rdf="http://www.w3.org/1999/02/22-rdf-syntax-ns#">
   <cc:Work>
    <dc:type rdf:resource="http://purl.org/dc/dcmitype/StillImage"/>
    <dc:date>2022-05-17T15:27:45.219597</dc:date>
    <dc:format>image/svg+xml</dc:format>
    <dc:creator>
     <cc:Agent>
      <dc:title>Matplotlib v3.5.1, https://matplotlib.org/</dc:title>
     </cc:Agent>
    </dc:creator>
   </cc:Work>
  </rdf:RDF>
 </metadata>
 <defs>
  <style type="text/css">*{stroke-linejoin: round; stroke-linecap: butt}</style>
 </defs>
 <g id="figure_1">
  <g id="patch_1">
   <path d="M 0 278.64 
L 456.919467 278.64 
L 456.919467 0 
L 0 0 
L 0 278.64 
z
" style="fill: none"/>
  </g>
  <g id="axes_1">
   <g id="patch_2">
    <path d="M 39.162011 53.670615 
L 449.719467 53.670615 
L 449.719467 22.569771 
L 39.162011 22.569771 
z
" style="fill: #ffffff"/>
   </g>
   <g id="patch_3">
    <path d="M 131.380789 53.670615 
L 131.380789 22.569771 
L 167.478243 22.569771 
L 167.478243 53.670615 
z
" clip-path="url(#p787727ccf3)" style="fill: #ff0000; opacity: 0.1"/>
   </g>
   <g id="patch_4">
    <path d="M 107.202306 53.670615 
L 107.202306 22.569771 
L 131.380789 22.569771 
L 131.380789 53.670615 
z
" clip-path="url(#p787727ccf3)" style="fill: #0000ff; opacity: 0.1"/>
   </g>
   <g id="patch_5">
    <path d="M 209.024369 53.670615 
L 209.024369 22.569771 
L 231.840684 22.569771 
L 231.840684 53.670615 
z
" clip-path="url(#p787727ccf3)" style="fill: #ff0000; opacity: 0.1"/>
   </g>
   <g id="patch_6">
    <path d="M 191.656726 53.670615 
L 191.656726 22.569771 
L 209.024369 22.569771 
L 209.024369 53.670615 
z
" clip-path="url(#p787727ccf3)" style="fill: #0000ff; opacity: 0.1"/>
   </g>
   <g id="patch_7">
    <path d="M 276.792231 53.670615 
L 276.792231 22.569771 
L 295.522042 22.569771 
L 295.522042 53.670615 
z
" clip-path="url(#p787727ccf3)" style="fill: #ff0000; opacity: 0.1"/>
   </g>
   <g id="patch_8">
    <path d="M 256.019168 53.670615 
L 256.019168 22.569771 
L 276.792231 22.569771 
L 276.792231 53.670615 
z
" clip-path="url(#p787727ccf3)" style="fill: #0000ff; opacity: 0.1"/>
   </g>
   <g id="patch_9">
    <path d="M 343.879008 53.670615 
L 343.879008 22.569771 
L 365.673697 22.569771 
L 365.673697 53.670615 
z
" clip-path="url(#p787727ccf3)" style="fill: #ff0000; opacity: 0.1"/>
   </g>
   <g id="patch_10">
    <path d="M 319.700525 53.670615 
L 319.700525 22.569771 
L 343.879008 22.569771 
L 343.879008 53.670615 
z
" clip-path="url(#p787727ccf3)" style="fill: #0000ff; opacity: 0.1"/>
   </g>
   <g id="patch_11">
    <path d="M 410.625244 53.670615 
L 410.625244 22.569771 
L 430.376681 22.569771 
L 430.376681 53.670615 
z
" clip-path="url(#p787727ccf3)" style="fill: #ff0000; opacity: 0.1"/>
   </g>
   <g id="patch_12">
    <path d="M 389.852181 53.670615 
L 389.852181 22.569771 
L 410.625244 22.569771 
L 410.625244 53.670615 
z
" clip-path="url(#p787727ccf3)" style="fill: #0000ff; opacity: 0.1"/>
   </g>
   <g id="matplotlib.axis_1">
    <g id="xtick_1">
     <g id="line2d_1">
      <defs>
       <path id="m9c5ac14c6a" d="M 0 0 
L 0 3.5 
" style="stroke: #000000; stroke-width: 0.8"/>
      </defs>
      <g>
       <use xlink:href="#m9c5ac14c6a" x="57.823713" y="53.670615" style="stroke: #000000; stroke-width: 0.8"/>
      </g>
     </g>
    </g>
    <g id="xtick_2">
     <g id="line2d_2">
      <g>
       <use xlink:href="#m9c5ac14c6a" x="125.932117" y="53.670615" style="stroke: #000000; stroke-width: 0.8"/>
      </g>
     </g>
    </g>
    <g id="xtick_3">
     <g id="line2d_3">
      <g>
       <use xlink:href="#m9c5ac14c6a" x="194.04052" y="53.670615" style="stroke: #000000; stroke-width: 0.8"/>
      </g>
     </g>
    </g>
    <g id="xtick_4">
     <g id="line2d_4">
      <g>
       <use xlink:href="#m9c5ac14c6a" x="262.148924" y="53.670615" style="stroke: #000000; stroke-width: 0.8"/>
      </g>
     </g>
    </g>
    <g id="xtick_5">
     <g id="line2d_5">
      <g>
       <use xlink:href="#m9c5ac14c6a" x="330.257327" y="53.670615" style="stroke: #000000; stroke-width: 0.8"/>
      </g>
     </g>
    </g>
    <g id="xtick_6">
     <g id="line2d_6">
      <g>
       <use xlink:href="#m9c5ac14c6a" x="398.365731" y="53.670615" style="stroke: #000000; stroke-width: 0.8"/>
      </g>
     </g>
    </g>
   </g>
   <g id="matplotlib.axis_2">
    <g id="ytick_1">
     <g id="line2d_7">
      <defs>
       <path id="mba8418139c" d="M 0 0 
L -3.5 0 
" style="stroke: #000000; stroke-width: 0.8"/>
      </defs>
      <g>
       <use xlink:href="#mba8418139c" x="39.162011" y="43.364524" style="stroke: #000000; stroke-width: 0.8"/>
      </g>
     </g>
     <g id="text_1">
      <!-- $\mathdefault{0.8}$ -->
      <g transform="translate(18.158935 47.2686)scale(0.11 -0.11)">
       <defs>
        <path id="CMR17-30" d="M 2688 2025 
C 2688 2416 2682 3080 2413 3591 
C 2176 4039 1798 4198 1466 4198 
C 1158 4198 768 4058 525 3597 
C 269 3118 243 2524 243 2025 
C 243 1661 250 1106 448 619 
C 723 -39 1216 -128 1466 -128 
C 1760 -128 2208 -7 2470 600 
C 2662 1042 2688 1559 2688 2025 
z
M 1466 -26 
C 1056 -26 813 325 723 812 
C 653 1188 653 1738 653 2096 
C 653 2588 653 2997 736 3387 
C 858 3929 1216 4096 1466 4096 
C 1728 4096 2067 3923 2189 3400 
C 2272 3036 2278 2607 2278 2096 
C 2278 1680 2278 1169 2202 792 
C 2067 95 1690 -26 1466 -26 
z
" transform="scale(0.015625)"/>
        <path id="CMMI12-3a" d="M 1178 307 
C 1178 492 1024 619 870 619 
C 685 619 557 466 557 313 
C 557 128 710 0 864 0 
C 1050 0 1178 153 1178 307 
z
" transform="scale(0.015625)"/>
        <path id="CMR17-38" d="M 1741 2264 
C 2144 2467 2554 2773 2554 3263 
C 2554 3841 1990 4179 1472 4179 
C 890 4179 378 3759 378 3180 
C 378 3021 416 2747 666 2505 
C 730 2442 998 2251 1171 2130 
C 883 1983 211 1634 211 934 
C 211 279 838 -128 1459 -128 
C 2144 -128 2720 362 2720 1010 
C 2720 1590 2330 1857 2074 2029 
L 1741 2264 
z
M 902 2822 
C 851 2854 595 3051 595 3351 
C 595 3739 998 4032 1459 4032 
C 1965 4032 2336 3676 2336 3262 
C 2336 2669 1670 2331 1638 2331 
C 1632 2331 1626 2331 1574 2370 
L 902 2822 
z
M 2080 1519 
C 2176 1449 2483 1240 2483 851 
C 2483 381 2010 25 1472 25 
C 890 25 448 438 448 940 
C 448 1443 838 1862 1280 2060 
L 2080 1519 
z
" transform="scale(0.015625)"/>
       </defs>
       <use xlink:href="#CMR17-30" transform="scale(0.996264)"/>
       <use xlink:href="#CMMI12-3a" transform="translate(45.690477 0)scale(0.996264)"/>
       <use xlink:href="#CMR17-38" transform="translate(72.787654 0)scale(0.996264)"/>
      </g>
     </g>
    </g>
    <g id="ytick_2">
     <g id="line2d_8">
      <g>
       <use xlink:href="#mba8418139c" x="39.162011" y="31.121033" style="stroke: #000000; stroke-width: 0.8"/>
      </g>
     </g>
     <g id="text_2">
      <!-- $\mathdefault{0.9}$ -->
      <g transform="translate(18.158935 35.025109)scale(0.11 -0.11)">
       <defs>
        <path id="CMR17-39" d="M 2253 1864 
C 2253 464 1670 31 1190 31 
C 1043 31 685 31 538 294 
C 704 268 826 357 826 518 
C 826 692 685 749 595 749 
C 538 749 365 723 365 506 
C 365 71 742 -128 1203 -128 
C 1939 -128 2688 674 2688 2073 
C 2688 3817 1971 4179 1485 4179 
C 851 4179 243 3628 243 2778 
C 243 1991 762 1408 1414 1408 
C 1952 1408 2189 1903 2253 2112 
L 2253 1864 
z
M 1427 1510 
C 1254 1510 1011 1542 813 1922 
C 678 2169 678 2461 678 2771 
C 678 3146 678 3405 858 3684 
C 947 3817 1114 4032 1485 4032 
C 2240 4032 2240 2885 2240 2632 
C 2240 2182 2035 1510 1427 1510 
z
" transform="scale(0.015625)"/>
       </defs>
       <use xlink:href="#CMR17-30" transform="scale(0.996264)"/>
       <use xlink:href="#CMMI12-3a" transform="translate(45.690477 0)scale(0.996264)"/>
       <use xlink:href="#CMR17-39" transform="translate(72.787654 0)scale(0.996264)"/>
      </g>
     </g>
    </g>
   </g>
   <g id="line2d_9">
    <path d="M 57.823713 52.256941 
L 58.504797 46.786716 
L 59.185881 42.670759 
L 59.866965 39.573751 
L 60.548049 37.265174 
L 61.229133 35.493931 
L 62.25076 33.515817 
L 63.272386 32.045539 
L 64.634554 30.603512 
L 65.996722 29.468424 
L 67.699432 28.348376 
L 69.742684 27.313078 
L 71.785936 26.526089 
L 75.531898 25.518862 
L 78.596776 25.01154 
L 83.023823 24.556486 
L 83.364365 36.232082 
L 84.045449 34.49861 
L 85.067075 32.599004 
L 86.088701 31.216606 
L 87.110327 30.120851 
L 88.131953 29.248358 
L 89.494121 28.349213 
L 91.537373 27.321011 
L 93.240083 26.643361 
L 96.645503 25.684723 
L 99.710381 25.146041 
L 103.796886 24.658408 
L 107.202306 24.440168 
L 107.542848 36.127397 
L 108.564474 33.67287 
L 109.5861 31.956849 
L 110.607726 30.718292 
L 111.969894 29.475334 
L 113.672604 28.316467 
L 115.375314 27.437393 
L 117.759108 26.506478 
L 120.142903 25.824807 
L 122.526697 25.31812 
L 127.294285 24.664939 
L 131.380789 24.393434 
L 131.721331 36.085336 
L 132.742957 33.849153 
L 133.764583 32.224537 
L 134.786209 30.99543 
L 136.148377 29.684683 
L 137.510545 28.677786 
L 139.213256 27.663972 
L 141.256508 26.70521 
L 143.29976 26.016976 
L 146.364638 25.258202 
L 150.1106 24.684679 
L 153.856562 24.367062 
L 156.580898 24.234936 
L 165.434991 23.996906 
L 167.478243 23.983445 
L 167.818785 35.716346 
L 168.499869 33.98896 
L 169.521495 32.070489 
L 170.543121 30.66777 
L 171.564747 29.612657 
L 173.267457 28.306178 
L 174.629625 27.516642 
L 175.991793 26.866815 
L 178.035046 26.108763 
L 181.440466 25.257455 
L 183.483718 24.914536 
L 188.591848 24.38567 
L 191.656726 24.202663 
L 191.997268 35.913642 
L 193.018894 33.484202 
L 194.04052 31.745876 
L 195.402688 30.113964 
L 196.764857 28.917027 
L 198.467567 27.807423 
L 200.851361 26.701853 
L 203.235155 25.868132 
L 205.278407 25.380036 
L 208.002743 24.886142 
L 209.024369 24.741869 
L 209.364911 36.398927 
L 210.386537 34.112373 
L 211.408163 32.417977 
L 212.770331 30.734729 
L 214.132499 29.438894 
L 215.83521 28.179985 
L 217.53792 27.249202 
L 219.24063 26.494779 
L 222.305508 25.541863 
L 225.710928 24.842273 
L 228.094722 24.52673 
L 231.840684 24.248934 
L 232.181226 35.955286 
L 233.202852 33.51696 
L 234.224478 31.758108 
L 235.246105 30.433211 
L 236.608273 29.121554 
L 237.970441 28.118601 
L 240.013693 26.978011 
L 242.056945 26.156376 
L 244.781281 25.362427 
L 247.165075 24.891656 
L 249.889411 24.512751 
L 252.954289 24.257674 
L 255.678626 24.141107 
L 256.019168 24.129128 
L 256.35971 35.847461 
L 257.381336 33.432182 
L 258.402962 31.69471 
L 259.424588 30.392589 
L 260.786756 29.093184 
L 262.148924 28.067578 
L 263.851634 27.118315 
L 265.554344 26.377038 
L 268.959764 25.344899 
L 272.365184 24.743174 
L 276.111147 24.348776 
L 276.792231 24.304895 
L 277.132773 36.005651 
L 278.154399 33.558409 
L 279.176025 31.812797 
L 280.197651 30.501528 
L 281.219277 29.477744 
L 282.581445 28.40996 
L 284.624697 27.194041 
L 286.327407 26.419255 
L 289.392285 25.48094 
L 292.116621 24.946114 
L 295.522042 24.500184 
L 295.862584 36.181411 
L 296.88421 33.714657 
L 297.905836 31.921932 
L 298.927462 30.588753 
L 300.28963 29.238103 
L 301.651798 28.233344 
L 303.354508 27.228541 
L 305.39776 26.344583 
L 307.781554 25.55087 
L 310.50589 24.946442 
L 313.570769 24.527859 
L 317.657273 24.211257 
L 319.700525 24.110069 
L 320.041067 35.830308 
L 320.722151 34.125761 
L 321.743777 32.210936 
L 322.765403 30.801111 
L 323.787029 29.692137 
L 325.149197 28.544216 
L 326.511365 27.662536 
L 328.214075 26.797096 
L 329.916785 26.152457 
L 332.30058 25.452152 
L 334.343832 25.037128 
L 337.068168 24.651648 
L 341.154672 24.292598 
L 343.879008 24.140215 
L 344.21955 35.857439 
L 344.900634 34.104279 
L 345.92226 32.11981 
L 346.943886 30.701132 
L 347.965512 29.598825 
L 349.668222 28.250818 
L 351.030391 27.413315 
L 352.733101 26.627349 
L 355.116895 25.821271 
L 357.841231 25.173622 
L 359.884483 24.812843 
L 363.630445 24.382558 
L 365.673697 24.236293 
L 366.014239 35.943909 
L 366.695323 34.228927 
L 367.716949 32.281813 
L 368.738575 30.84415 
L 369.760202 29.739168 
L 371.12237 28.603374 
L 372.484538 27.709264 
L 374.52779 26.673885 
L 376.571042 25.922377 
L 378.954836 25.31487 
L 383.381882 24.59284 
L 389.171097 24.159146 
L 389.852181 24.123511 
L 390.192723 35.842406 
L 391.214349 33.402375 
L 392.235975 31.645965 
L 393.257601 30.367549 
L 394.619769 29.065321 
L 396.322479 27.857598 
L 398.365731 26.798985 
L 400.749525 25.94676 
L 403.473861 25.254084 
L 405.517113 24.86936 
L 409.263076 24.421987 
L 410.625244 24.300573 
L 410.965786 36.001761 
L 411.64687 34.289072 
L 412.668496 32.344223 
L 413.690122 30.922109 
L 415.05229 29.495969 
L 416.755 28.167454 
L 418.117168 27.340415 
L 420.16042 26.412807 
L 422.884756 25.550192 
L 425.26855 25.047775 
L 428.333429 24.607425 
L 430.717223 24.381114 
L 430.717223 24.381114 
" clip-path="url(#p787727ccf3)" style="fill: none; stroke: #808080; stroke-width: 1.5; stroke-linecap: square"/>
   </g>
   <g id="LineCollection_1">
    <path d="M 83.023823 52.256941 
L 83.023823 23.983445 
" clip-path="url(#p787727ccf3)" style="fill: none; stroke: #808080; stroke-opacity: 0.5; stroke-width: 1.5"/>
    <path d="M 107.202306 52.256941 
L 107.202306 23.983445 
" clip-path="url(#p787727ccf3)" style="fill: none; stroke: #808080; stroke-opacity: 0.5; stroke-width: 1.5"/>
    <path d="M 131.380789 52.256941 
L 131.380789 23.983445 
" clip-path="url(#p787727ccf3)" style="fill: none; stroke: #808080; stroke-opacity: 0.5; stroke-width: 1.5"/>
    <path d="M 167.478243 52.256941 
L 167.478243 23.983445 
" clip-path="url(#p787727ccf3)" style="fill: none; stroke: #808080; stroke-opacity: 0.5; stroke-width: 1.5"/>
    <path d="M 191.656726 52.256941 
L 191.656726 23.983445 
" clip-path="url(#p787727ccf3)" style="fill: none; stroke: #808080; stroke-opacity: 0.5; stroke-width: 1.5"/>
    <path d="M 209.024369 52.256941 
L 209.024369 23.983445 
" clip-path="url(#p787727ccf3)" style="fill: none; stroke: #808080; stroke-opacity: 0.5; stroke-width: 1.5"/>
    <path d="M 231.840684 52.256941 
L 231.840684 23.983445 
" clip-path="url(#p787727ccf3)" style="fill: none; stroke: #808080; stroke-opacity: 0.5; stroke-width: 1.5"/>
    <path d="M 256.019168 52.256941 
L 256.019168 23.983445 
" clip-path="url(#p787727ccf3)" style="fill: none; stroke: #808080; stroke-opacity: 0.5; stroke-width: 1.5"/>
    <path d="M 276.792231 52.256941 
L 276.792231 23.983445 
" clip-path="url(#p787727ccf3)" style="fill: none; stroke: #808080; stroke-opacity: 0.5; stroke-width: 1.5"/>
    <path d="M 295.522042 52.256941 
L 295.522042 23.983445 
" clip-path="url(#p787727ccf3)" style="fill: none; stroke: #808080; stroke-opacity: 0.5; stroke-width: 1.5"/>
    <path d="M 319.700525 52.256941 
L 319.700525 23.983445 
" clip-path="url(#p787727ccf3)" style="fill: none; stroke: #808080; stroke-opacity: 0.5; stroke-width: 1.5"/>
    <path d="M 343.879008 52.256941 
L 343.879008 23.983445 
" clip-path="url(#p787727ccf3)" style="fill: none; stroke: #808080; stroke-opacity: 0.5; stroke-width: 1.5"/>
    <path d="M 365.673697 52.256941 
L 365.673697 23.983445 
" clip-path="url(#p787727ccf3)" style="fill: none; stroke: #808080; stroke-opacity: 0.5; stroke-width: 1.5"/>
    <path d="M 389.852181 52.256941 
L 389.852181 23.983445 
" clip-path="url(#p787727ccf3)" style="fill: none; stroke: #808080; stroke-opacity: 0.5; stroke-width: 1.5"/>
    <path d="M 410.625244 52.256941 
L 410.625244 23.983445 
" clip-path="url(#p787727ccf3)" style="fill: none; stroke: #808080; stroke-opacity: 0.5; stroke-width: 1.5"/>
    <path d="M 430.376681 52.256941 
L 430.376681 23.983445 
" clip-path="url(#p787727ccf3)" style="fill: none; stroke: #808080; stroke-opacity: 0.5; stroke-width: 1.5"/>
   </g>
   <g id="patch_13">
    <path d="M 39.162011 53.670615 
L 39.162011 22.569771 
" style="fill: none; stroke: #000000; stroke-width: 0.8; stroke-linejoin: miter; stroke-linecap: square"/>
   </g>
   <g id="patch_14">
    <path d="M 39.162011 53.670615 
L 449.719467 53.670615 
" style="fill: none; stroke: #000000; stroke-width: 0.8; stroke-linejoin: miter; stroke-linecap: square"/>
   </g>
   <g id="text_3">
    <!-- du/dt -->
    <g transform="translate(229.817445 16.569771)scale(0.132 -0.132)">
     <defs>
      <path id="NimbusSanL-Regu-64" d="M 3168 4672 
L 2637 4672 
L 2637 2937 
C 2413 3276 2054 3456 1606 3456 
C 736 3456 166 2761 166 1695 
C 166 566 723 -128 1626 -128 
C 2086 -128 2406 45 2694 461 
L 2694 -2 
L 3168 -2 
L 3168 4672 
z
M 1696 2956 
C 2272 2956 2637 2447 2637 1651 
C 2637 881 2266 372 1702 372 
C 1114 372 723 887 723 1664 
C 723 2440 1114 2956 1696 2956 
z
" transform="scale(0.015625)"/>
      <path id="NimbusSanL-Regu-75" d="M 3085 33 
L 3085 3392 
L 2554 3392 
L 2554 1479 
C 2554 790 2195 340 1638 340 
C 1216 340 947 597 947 1003 
L 947 3392 
L 416 3392 
L 416 792 
C 416 232 832 -128 1485 -128 
C 1978 -128 2291 45 2605 488 
L 2605 33 
L 3085 33 
z
" transform="scale(0.015625)"/>
      <path id="NimbusSanL-Regu-2f" d="M 1466 4672 
L -51 -128 
L 301 -128 
L 1818 4672 
L 1466 4672 
z
" transform="scale(0.015625)"/>
      <path id="NimbusSanL-Regu-74" d="M 1626 3380 
L 1075 3380 
L 1075 4288 
L 544 4288 
L 544 3380 
L 90 3380 
L 90 2944 
L 544 2944 
L 544 404 
C 544 64 774 -128 1190 -128 
C 1318 -128 1446 -116 1626 -83 
L 1626 366 
C 1555 346 1472 340 1370 340 
C 1139 340 1075 404 1075 641 
L 1075 2944 
L 1626 2944 
L 1626 3380 
z
" transform="scale(0.015625)"/>
     </defs>
     <use xlink:href="#NimbusSanL-Regu-64" transform="scale(0.996264)"/>
     <use xlink:href="#NimbusSanL-Regu-75" transform="translate(55.391677 0)scale(0.996264)"/>
     <use xlink:href="#NimbusSanL-Regu-2f" transform="translate(110.783354 0)scale(0.996264)"/>
     <use xlink:href="#NimbusSanL-Regu-64" transform="translate(138.478524 0)scale(0.996264)"/>
     <use xlink:href="#NimbusSanL-Regu-74" transform="translate(193.8702 0)scale(0.996264)"/>
    </g>
   </g>
  </g>
  <g id="axes_2">
   <g id="patch_15">
    <path d="M 39.162011 115.764596 
L 449.719467 115.764596 
L 449.719467 84.663751 
L 39.162011 84.663751 
z
" style="fill: #ffffff"/>
   </g>
   <g id="patch_16">
    <path d="M 131.380789 115.764596 
L 131.380789 84.663751 
L 167.478243 84.663751 
L 167.478243 115.764596 
z
" clip-path="url(#p6ccd466444)" style="fill: #ff0000; opacity: 0.1"/>
   </g>
   <g id="patch_17">
    <path d="M 107.202306 115.764596 
L 107.202306 84.663751 
L 131.380789 84.663751 
L 131.380789 115.764596 
z
" clip-path="url(#p6ccd466444)" style="fill: #0000ff; opacity: 0.1"/>
   </g>
   <g id="patch_18">
    <path d="M 209.024369 115.764596 
L 209.024369 84.663751 
L 231.840684 84.663751 
L 231.840684 115.764596 
z
" clip-path="url(#p6ccd466444)" style="fill: #ff0000; opacity: 0.1"/>
   </g>
   <g id="patch_19">
    <path d="M 191.656726 115.764596 
L 191.656726 84.663751 
L 209.024369 84.663751 
L 209.024369 115.764596 
z
" clip-path="url(#p6ccd466444)" style="fill: #0000ff; opacity: 0.1"/>
   </g>
   <g id="patch_20">
    <path d="M 276.792231 115.764596 
L 276.792231 84.663751 
L 295.522042 84.663751 
L 295.522042 115.764596 
z
" clip-path="url(#p6ccd466444)" style="fill: #ff0000; opacity: 0.1"/>
   </g>
   <g id="patch_21">
    <path d="M 256.019168 115.764596 
L 256.019168 84.663751 
L 276.792231 84.663751 
L 276.792231 115.764596 
z
" clip-path="url(#p6ccd466444)" style="fill: #0000ff; opacity: 0.1"/>
   </g>
   <g id="patch_22">
    <path d="M 343.879008 115.764596 
L 343.879008 84.663751 
L 365.673697 84.663751 
L 365.673697 115.764596 
z
" clip-path="url(#p6ccd466444)" style="fill: #ff0000; opacity: 0.1"/>
   </g>
   <g id="patch_23">
    <path d="M 319.700525 115.764596 
L 319.700525 84.663751 
L 343.879008 84.663751 
L 343.879008 115.764596 
z
" clip-path="url(#p6ccd466444)" style="fill: #0000ff; opacity: 0.1"/>
   </g>
   <g id="patch_24">
    <path d="M 410.625244 115.764596 
L 410.625244 84.663751 
L 430.376681 84.663751 
L 430.376681 115.764596 
z
" clip-path="url(#p6ccd466444)" style="fill: #ff0000; opacity: 0.1"/>
   </g>
   <g id="patch_25">
    <path d="M 389.852181 115.764596 
L 389.852181 84.663751 
L 410.625244 84.663751 
L 410.625244 115.764596 
z
" clip-path="url(#p6ccd466444)" style="fill: #0000ff; opacity: 0.1"/>
   </g>
   <g id="matplotlib.axis_3">
    <g id="xtick_7">
     <g id="line2d_10">
      <g>
       <use xlink:href="#m9c5ac14c6a" x="57.823713" y="115.764596" style="stroke: #000000; stroke-width: 0.8"/>
      </g>
     </g>
    </g>
    <g id="xtick_8">
     <g id="line2d_11">
      <g>
       <use xlink:href="#m9c5ac14c6a" x="125.932117" y="115.764596" style="stroke: #000000; stroke-width: 0.8"/>
      </g>
     </g>
    </g>
    <g id="xtick_9">
     <g id="line2d_12">
      <g>
       <use xlink:href="#m9c5ac14c6a" x="194.04052" y="115.764596" style="stroke: #000000; stroke-width: 0.8"/>
      </g>
     </g>
    </g>
    <g id="xtick_10">
     <g id="line2d_13">
      <g>
       <use xlink:href="#m9c5ac14c6a" x="262.148924" y="115.764596" style="stroke: #000000; stroke-width: 0.8"/>
      </g>
     </g>
    </g>
    <g id="xtick_11">
     <g id="line2d_14">
      <g>
       <use xlink:href="#m9c5ac14c6a" x="330.257327" y="115.764596" style="stroke: #000000; stroke-width: 0.8"/>
      </g>
     </g>
    </g>
    <g id="xtick_12">
     <g id="line2d_15">
      <g>
       <use xlink:href="#m9c5ac14c6a" x="398.365731" y="115.764596" style="stroke: #000000; stroke-width: 0.8"/>
      </g>
     </g>
    </g>
   </g>
   <g id="matplotlib.axis_4">
    <g id="ytick_3">
     <g id="line2d_16">
      <g>
       <use xlink:href="#mba8418139c" x="39.162011" y="112.43696" style="stroke: #000000; stroke-width: 0.8"/>
      </g>
     </g>
     <g id="text_4">
      <!-- $\mathdefault{0.25}$ -->
      <g transform="translate(12.679467 116.341036)scale(0.11 -0.11)">
       <defs>
        <path id="CMR17-32" d="M 2669 989 
L 2554 989 
C 2490 536 2438 459 2413 420 
C 2381 369 1920 369 1830 369 
L 602 369 
C 832 619 1280 1072 1824 1597 
C 2214 1967 2669 2402 2669 3035 
C 2669 3790 2067 4224 1395 4224 
C 691 4224 262 3604 262 3030 
C 262 2780 448 2748 525 2748 
C 589 2748 781 2787 781 3010 
C 781 3207 614 3264 525 3264 
C 486 3264 448 3258 422 3245 
C 544 3790 915 4058 1306 4058 
C 1862 4058 2227 3617 2227 3035 
C 2227 2479 1901 2000 1536 1584 
L 262 146 
L 262 0 
L 2515 0 
L 2669 989 
z
" transform="scale(0.015625)"/>
        <path id="CMR17-35" d="M 730 3692 
C 794 3666 1056 3584 1325 3584 
C 1920 3584 2246 3911 2432 4100 
C 2432 4157 2432 4192 2394 4192 
C 2387 4192 2374 4192 2323 4163 
C 2099 4058 1837 3973 1517 3973 
C 1325 3973 1037 3999 723 4139 
C 653 4171 640 4171 634 4171 
C 602 4171 595 4164 595 4037 
L 595 2203 
C 595 2089 595 2057 659 2057 
C 691 2057 704 2070 736 2114 
C 941 2401 1222 2522 1542 2522 
C 1766 2522 2246 2382 2246 1289 
C 2246 1085 2246 715 2054 421 
C 1894 159 1645 25 1370 25 
C 947 25 518 320 403 814 
C 429 807 480 795 506 795 
C 589 795 749 840 749 1038 
C 749 1210 627 1280 506 1280 
C 358 1280 262 1190 262 1011 
C 262 454 704 -128 1382 -128 
C 2042 -128 2669 440 2669 1264 
C 2669 2030 2170 2624 1549 2624 
C 1222 2624 947 2503 730 2274 
L 730 3692 
z
" transform="scale(0.015625)"/>
       </defs>
       <use xlink:href="#CMR17-30" transform="scale(0.996264)"/>
       <use xlink:href="#CMMI12-3a" transform="translate(45.690477 0)scale(0.996264)"/>
       <use xlink:href="#CMR17-32" transform="translate(72.787654 0)scale(0.996264)"/>
       <use xlink:href="#CMR17-35" transform="translate(118.478131 0)scale(0.996264)"/>
      </g>
     </g>
    </g>
    <g id="ytick_4">
     <g id="line2d_17">
      <g>
       <use xlink:href="#mba8418139c" x="39.162011" y="102.633544" style="stroke: #000000; stroke-width: 0.8"/>
      </g>
     </g>
     <g id="text_5">
      <!-- $\mathdefault{0.30}$ -->
      <g transform="translate(12.679467 106.53762)scale(0.11 -0.11)">
       <defs>
        <path id="CMR17-33" d="M 1414 2157 
C 1984 2157 2234 1662 2234 1090 
C 2234 320 1824 25 1453 25 
C 1114 25 563 194 390 693 
C 422 680 454 680 486 680 
C 640 680 755 782 755 948 
C 755 1133 614 1216 486 1216 
C 378 1216 211 1165 211 926 
C 211 335 787 -128 1466 -128 
C 2176 -128 2720 430 2720 1085 
C 2720 1707 2208 2157 1600 2227 
C 2086 2328 2554 2756 2554 3329 
C 2554 3820 2048 4179 1472 4179 
C 890 4179 378 3829 378 3329 
C 378 3110 544 3072 627 3072 
C 762 3072 877 3155 877 3321 
C 877 3486 762 3569 627 3569 
C 602 3569 570 3569 544 3557 
C 730 3959 1235 4032 1459 4032 
C 1683 4032 2106 3925 2106 3320 
C 2106 3143 2080 2828 1862 2550 
C 1670 2304 1453 2304 1242 2284 
C 1210 2284 1062 2269 1037 2269 
C 992 2263 966 2257 966 2208 
C 966 2163 973 2157 1101 2157 
L 1414 2157 
z
" transform="scale(0.015625)"/>
       </defs>
       <use xlink:href="#CMR17-30" transform="scale(0.996264)"/>
       <use xlink:href="#CMMI12-3a" transform="translate(45.690477 0)scale(0.996264)"/>
       <use xlink:href="#CMR17-33" transform="translate(72.787654 0)scale(0.996264)"/>
       <use xlink:href="#CMR17-30" transform="translate(118.478131 0)scale(0.996264)"/>
      </g>
     </g>
    </g>
    <g id="ytick_5">
     <g id="line2d_18">
      <g>
       <use xlink:href="#mba8418139c" x="39.162011" y="92.830128" style="stroke: #000000; stroke-width: 0.8"/>
      </g>
     </g>
     <g id="text_6">
      <!-- $\mathdefault{0.35}$ -->
      <g transform="translate(12.679467 96.734205)scale(0.11 -0.11)">
       <use xlink:href="#CMR17-30" transform="scale(0.996264)"/>
       <use xlink:href="#CMMI12-3a" transform="translate(45.690477 0)scale(0.996264)"/>
       <use xlink:href="#CMR17-33" transform="translate(72.787654 0)scale(0.996264)"/>
       <use xlink:href="#CMR17-35" transform="translate(118.478131 0)scale(0.996264)"/>
      </g>
     </g>
    </g>
   </g>
   <g id="line2d_19">
    <path d="M 57.823713 114.350922 
L 58.504797 102.454711 
L 59.185881 94.860432 
L 59.866965 90.196973 
L 60.548049 87.693251 
L 60.888591 86.883563 
L 61.569676 86.180794 
L 62.25076 86.077426 
L 62.591302 86.23335 
L 63.612928 87.358153 
L 64.294012 88.396538 
L 68.721058 95.047344 
L 71.104852 97.961437 
L 72.126478 98.965172 
L 73.148104 99.919333 
L 74.16973 100.687842 
L 76.553524 102.447117 
L 77.57515 102.993993 
L 79.958944 103.974158 
L 83.023823 104.870693 
L 83.364365 90.922196 
L 83.704907 90.089362 
L 84.385991 89.200691 
L 85.067075 89.01207 
L 85.407617 89.085539 
L 86.088701 89.640795 
L 86.769785 90.314731 
L 87.450869 91.088292 
L 89.494121 93.751042 
L 90.856289 95.476619 
L 93.921167 98.898567 
L 97.667129 101.703758 
L 100.050924 103.160643 
L 101.07255 103.603783 
L 102.094176 103.924434 
L 102.77526 104.074741 
L 103.796886 104.547092 
L 104.818512 104.708514 
L 106.521222 105.150793 
L 107.202306 105.316122 
L 107.542848 91.323082 
L 108.223932 89.880231 
L 108.905016 89.318951 
L 109.245558 89.231064 
L 109.5861 89.305353 
L 110.607726 90.06506 
L 111.28881 90.660038 
L 114.013146 94.249936 
L 116.737482 97.533775 
L 118.780734 99.631307 
L 121.505071 101.782626 
L 123.548323 102.950369 
L 126.613201 104.330506 
L 128.656453 104.912109 
L 130.018621 105.320505 
L 131.380789 105.412826 
L 131.721331 91.410116 
L 132.061873 90.947248 
L 132.742957 90.873463 
L 133.424041 91.253366 
L 134.105125 91.940295 
L 135.467293 93.783319 
L 138.872714 99.109325 
L 142.278134 103.311061 
L 145.343012 105.904556 
L 146.364638 106.644422 
L 147.386264 107.176985 
L 150.1106 108.431979 
L 150.791684 108.60354 
L 152.834936 109.404872 
L 153.856562 109.661876 
L 167.478243 110.96331 
L 167.818785 96.405552 
L 168.499869 95.124126 
L 168.840411 94.801957 
L 169.180953 94.647993 
L 169.521495 94.630183 
L 170.202579 94.919259 
L 171.224205 95.799156 
L 171.905289 96.626612 
L 174.970167 100.626103 
L 175.651251 101.38858 
L 177.353962 103.327511 
L 180.078298 105.736569 
L 182.12155 106.992248 
L 184.505344 108.163702 
L 186.889138 109.092915 
L 191.656726 110.116209 
L 191.997268 95.643161 
L 192.33781 94.871361 
L 193.018894 94.048087 
L 193.359436 93.988554 
L 194.04052 94.148322 
L 195.062146 94.943535 
L 196.083772 96.278826 
L 200.170277 101.626367 
L 202.894613 104.404909 
L 205.959491 106.682669 
L 209.024369 108.267466 
L 209.364911 93.979292 
L 209.705453 93.753972 
L 210.386537 93.798005 
L 211.067621 94.33505 
L 211.748705 95.178432 
L 212.429789 96.199895 
L 214.473041 99.744328 
L 217.197378 103.995374 
L 219.921714 107.178182 
L 221.624424 108.718928 
L 223.327134 110.097992 
L 225.029844 111.17767 
L 229.116348 112.828571 
L 230.819058 113.314443 
L 231.840684 113.479482 
L 232.181226 98.670106 
L 232.86231 97.627779 
L 233.543394 97.322472 
L 234.224478 97.6994 
L 234.56502 97.971941 
L 236.608273 100.646226 
L 237.629899 102.054062 
L 238.310983 103.046862 
L 240.354235 105.906099 
L 241.375861 106.970623 
L 242.738029 108.350826 
L 246.143449 110.889908 
L 248.527243 112.178223 
L 250.229953 112.76165 
L 251.251579 113.026026 
L 253.635373 113.411521 
L 255.678626 113.658885 
L 256.019168 113.72733 
L 256.35971 98.893169 
L 257.040794 97.873683 
L 257.721878 97.652731 
L 258.402962 97.962957 
L 259.084046 98.573489 
L 260.446214 100.323094 
L 262.489466 103.274087 
L 263.17055 104.145153 
L 264.192176 105.456004 
L 265.894886 107.320949 
L 268.27868 109.421875 
L 271.003016 111.227888 
L 272.365184 111.789518 
L 273.046268 112.130944 
L 276.111147 113.180198 
L 276.451689 113.174519 
L 276.792231 113.301955 
L 277.132773 98.510332 
L 277.813857 97.623132 
L 278.154399 97.365876 
L 278.494941 97.342942 
L 279.176025 97.71857 
L 279.857109 98.371394 
L 280.538193 99.185052 
L 281.900361 101.131775 
L 283.603071 103.755198 
L 284.965239 105.49422 
L 285.986865 106.596549 
L 286.667949 107.309536 
L 288.711201 109.105704 
L 291.776079 111.22637 
L 294.159874 112.49299 
L 295.1815 112.756518 
L 295.522042 112.890554 
L 295.862584 98.140071 
L 296.203126 97.536775 
L 296.543668 97.265847 
L 296.88421 97.183502 
L 297.565294 97.31812 
L 298.246378 97.80547 
L 299.268004 99.055665 
L 303.354508 104.859528 
L 304.035592 105.713905 
L 306.078844 108.203297 
L 308.462638 110.217177 
L 310.50589 111.390659 
L 312.889685 112.491001 
L 313.911311 112.73011 
L 314.251853 112.932697 
L 315.614021 113.245398 
L 316.976189 113.542674 
L 319.700525 113.983298 
L 320.041067 99.12354 
L 320.722151 98.072323 
L 321.403235 97.861434 
L 322.084319 98.147585 
L 323.105945 99.18102 
L 325.149197 102.018987 
L 326.851907 104.412251 
L 329.235701 107.147537 
L 329.916785 107.832846 
L 330.938411 108.786163 
L 332.30058 109.990564 
L 332.981664 110.27902 
L 333.662748 110.697081 
L 338.770878 112.841373 
L 340.81413 113.455699 
L 343.197924 113.842204 
L 343.879008 114.041491 
L 344.21955 99.175914 
L 344.560092 98.439741 
L 344.900634 97.974672 
L 345.241176 97.79349 
L 345.92226 97.889478 
L 346.262802 97.973747 
L 346.943886 98.52425 
L 348.306054 100.180709 
L 351.711475 104.499469 
L 354.776353 107.672876 
L 356.138521 108.777311 
L 358.862857 110.573054 
L 359.884483 111.046093 
L 360.906109 111.535349 
L 362.608819 112.256983 
L 363.630445 112.44305 
L 364.652071 112.672215 
L 365.333155 112.820031 
L 365.673697 112.973924 
L 366.014239 98.215104 
L 366.354781 97.57427 
L 366.695323 97.223776 
L 367.376407 96.988542 
L 368.057491 97.321163 
L 368.738575 97.902068 
L 370.100744 99.594156 
L 370.781828 100.652533 
L 374.187248 105.135461 
L 377.252126 108.257787 
L 378.954836 109.611821 
L 379.295378 109.76072 
L 379.63592 110.073154 
L 380.317004 110.365951 
L 382.700798 111.457234 
L 383.381882 111.693215 
L 383.722424 111.886427 
L 385.084592 112.161171 
L 386.106218 112.581961 
L 389.171097 113.17375 
L 389.852181 113.341197 
L 390.192723 98.54565 
L 390.873807 97.620073 
L 391.214349 97.425351 
L 391.554891 97.370594 
L 392.235975 97.658622 
L 392.917059 98.152329 
L 394.279227 99.791067 
L 397.684647 104.345593 
L 399.727899 106.703874 
L 400.408983 107.296911 
L 402.452235 109.076091 
L 404.836029 110.551861 
L 406.879281 111.469326 
L 408.24145 112.037645 
L 408.922534 112.266907 
L 409.603618 112.495817 
L 410.284702 112.66702 
L 410.625244 112.735839 
L 410.965786 98.000827 
L 411.64687 97.090133 
L 411.987412 96.892925 
L 412.327954 96.928363 
L 413.34958 97.633166 
L 414.371206 98.885559 
L 415.733374 100.86905 
L 418.798252 105.15201 
L 420.16042 106.732626 
L 422.544214 109.014272 
L 423.225298 109.506826 
L 425.609092 111.068842 
L 427.652345 111.816518 
L 428.333429 112.212014 
L 429.355055 112.514593 
L 430.376681 112.816433 
L 430.717223 112.86759 
L 430.717223 112.86759 
" clip-path="url(#p6ccd466444)" style="fill: none; stroke: #808080; stroke-width: 1.5; stroke-linecap: square"/>
   </g>
   <g id="LineCollection_2">
    <path d="M 83.023823 114.350922 
L 83.023823 86.077426 
" clip-path="url(#p6ccd466444)" style="fill: none; stroke: #808080; stroke-opacity: 0.5; stroke-width: 1.5"/>
    <path d="M 107.202306 114.350922 
L 107.202306 86.077426 
" clip-path="url(#p6ccd466444)" style="fill: none; stroke: #808080; stroke-opacity: 0.5; stroke-width: 1.5"/>
    <path d="M 131.380789 114.350922 
L 131.380789 86.077426 
" clip-path="url(#p6ccd466444)" style="fill: none; stroke: #808080; stroke-opacity: 0.5; stroke-width: 1.5"/>
    <path d="M 167.478243 114.350922 
L 167.478243 86.077426 
" clip-path="url(#p6ccd466444)" style="fill: none; stroke: #808080; stroke-opacity: 0.5; stroke-width: 1.5"/>
    <path d="M 191.656726 114.350922 
L 191.656726 86.077426 
" clip-path="url(#p6ccd466444)" style="fill: none; stroke: #808080; stroke-opacity: 0.5; stroke-width: 1.5"/>
    <path d="M 209.024369 114.350922 
L 209.024369 86.077426 
" clip-path="url(#p6ccd466444)" style="fill: none; stroke: #808080; stroke-opacity: 0.5; stroke-width: 1.5"/>
    <path d="M 231.840684 114.350922 
L 231.840684 86.077426 
" clip-path="url(#p6ccd466444)" style="fill: none; stroke: #808080; stroke-opacity: 0.5; stroke-width: 1.5"/>
    <path d="M 256.019168 114.350922 
L 256.019168 86.077426 
" clip-path="url(#p6ccd466444)" style="fill: none; stroke: #808080; stroke-opacity: 0.5; stroke-width: 1.5"/>
    <path d="M 276.792231 114.350922 
L 276.792231 86.077426 
" clip-path="url(#p6ccd466444)" style="fill: none; stroke: #808080; stroke-opacity: 0.5; stroke-width: 1.5"/>
    <path d="M 295.522042 114.350922 
L 295.522042 86.077426 
" clip-path="url(#p6ccd466444)" style="fill: none; stroke: #808080; stroke-opacity: 0.5; stroke-width: 1.5"/>
    <path d="M 319.700525 114.350922 
L 319.700525 86.077426 
" clip-path="url(#p6ccd466444)" style="fill: none; stroke: #808080; stroke-opacity: 0.5; stroke-width: 1.5"/>
    <path d="M 343.879008 114.350922 
L 343.879008 86.077426 
" clip-path="url(#p6ccd466444)" style="fill: none; stroke: #808080; stroke-opacity: 0.5; stroke-width: 1.5"/>
    <path d="M 365.673697 114.350922 
L 365.673697 86.077426 
" clip-path="url(#p6ccd466444)" style="fill: none; stroke: #808080; stroke-opacity: 0.5; stroke-width: 1.5"/>
    <path d="M 389.852181 114.350922 
L 389.852181 86.077426 
" clip-path="url(#p6ccd466444)" style="fill: none; stroke: #808080; stroke-opacity: 0.5; stroke-width: 1.5"/>
    <path d="M 410.625244 114.350922 
L 410.625244 86.077426 
" clip-path="url(#p6ccd466444)" style="fill: none; stroke: #808080; stroke-opacity: 0.5; stroke-width: 1.5"/>
    <path d="M 430.376681 114.350922 
L 430.376681 86.077426 
" clip-path="url(#p6ccd466444)" style="fill: none; stroke: #808080; stroke-opacity: 0.5; stroke-width: 1.5"/>
   </g>
   <g id="patch_26">
    <path d="M 39.162011 115.764596 
L 39.162011 84.663751 
" style="fill: none; stroke: #000000; stroke-width: 0.8; stroke-linejoin: miter; stroke-linecap: square"/>
   </g>
   <g id="patch_27">
    <path d="M 39.162011 115.764596 
L 449.719467 115.764596 
" style="fill: none; stroke: #000000; stroke-width: 0.8; stroke-linejoin: miter; stroke-linecap: square"/>
   </g>
   <g id="text_7">
    <!-- dv/dt -->
    <g transform="translate(230.185625 78.663751)scale(0.132 -0.132)">
     <defs>
      <path id="NimbusSanL-Regu-76" d="M 1824 0 
L 3110 3360 
L 2509 3360 
L 1562 635 
L 666 3360 
L 64 3360 
L 1242 0 
L 1824 0 
z
" transform="scale(0.015625)"/>
     </defs>
     <use xlink:href="#NimbusSanL-Regu-64" transform="scale(0.996264)"/>
     <use xlink:href="#NimbusSanL-Regu-76" transform="translate(55.391677 0)scale(0.996264)"/>
     <use xlink:href="#NimbusSanL-Regu-2f" transform="translate(105.204877 0)scale(0.996264)"/>
     <use xlink:href="#NimbusSanL-Regu-64" transform="translate(132.900047 0)scale(0.996264)"/>
     <use xlink:href="#NimbusSanL-Regu-74" transform="translate(188.291724 0)scale(0.996264)"/>
    </g>
   </g>
  </g>
  <g id="axes_3">
   <g id="patch_28">
    <path d="M 39.162011 177.858577 
L 449.719467 177.858577 
L 449.719467 146.757732 
L 39.162011 146.757732 
z
" style="fill: #ffffff"/>
   </g>
   <g id="patch_29">
    <path d="M 131.380789 177.858577 
L 131.380789 146.757732 
L 167.478243 146.757732 
L 167.478243 177.858577 
z
" clip-path="url(#pcdb31b145b)" style="fill: #ff0000; opacity: 0.1"/>
   </g>
   <g id="patch_30">
    <path d="M 107.202306 177.858577 
L 107.202306 146.757732 
L 131.380789 146.757732 
L 131.380789 177.858577 
z
" clip-path="url(#pcdb31b145b)" style="fill: #0000ff; opacity: 0.1"/>
   </g>
   <g id="patch_31">
    <path d="M 209.024369 177.858577 
L 209.024369 146.757732 
L 231.840684 146.757732 
L 231.840684 177.858577 
z
" clip-path="url(#pcdb31b145b)" style="fill: #ff0000; opacity: 0.1"/>
   </g>
   <g id="patch_32">
    <path d="M 191.656726 177.858577 
L 191.656726 146.757732 
L 209.024369 146.757732 
L 209.024369 177.858577 
z
" clip-path="url(#pcdb31b145b)" style="fill: #0000ff; opacity: 0.1"/>
   </g>
   <g id="patch_33">
    <path d="M 276.792231 177.858577 
L 276.792231 146.757732 
L 295.522042 146.757732 
L 295.522042 177.858577 
z
" clip-path="url(#pcdb31b145b)" style="fill: #ff0000; opacity: 0.1"/>
   </g>
   <g id="patch_34">
    <path d="M 256.019168 177.858577 
L 256.019168 146.757732 
L 276.792231 146.757732 
L 276.792231 177.858577 
z
" clip-path="url(#pcdb31b145b)" style="fill: #0000ff; opacity: 0.1"/>
   </g>
   <g id="patch_35">
    <path d="M 343.879008 177.858577 
L 343.879008 146.757732 
L 365.673697 146.757732 
L 365.673697 177.858577 
z
" clip-path="url(#pcdb31b145b)" style="fill: #ff0000; opacity: 0.1"/>
   </g>
   <g id="patch_36">
    <path d="M 319.700525 177.858577 
L 319.700525 146.757732 
L 343.879008 146.757732 
L 343.879008 177.858577 
z
" clip-path="url(#pcdb31b145b)" style="fill: #0000ff; opacity: 0.1"/>
   </g>
   <g id="patch_37">
    <path d="M 410.625244 177.858577 
L 410.625244 146.757732 
L 430.376681 146.757732 
L 430.376681 177.858577 
z
" clip-path="url(#pcdb31b145b)" style="fill: #ff0000; opacity: 0.1"/>
   </g>
   <g id="patch_38">
    <path d="M 389.852181 177.858577 
L 389.852181 146.757732 
L 410.625244 146.757732 
L 410.625244 177.858577 
z
" clip-path="url(#pcdb31b145b)" style="fill: #0000ff; opacity: 0.1"/>
   </g>
   <g id="matplotlib.axis_5">
    <g id="xtick_13">
     <g id="line2d_20">
      <g>
       <use xlink:href="#m9c5ac14c6a" x="57.823713" y="177.858577" style="stroke: #000000; stroke-width: 0.8"/>
      </g>
     </g>
    </g>
    <g id="xtick_14">
     <g id="line2d_21">
      <g>
       <use xlink:href="#m9c5ac14c6a" x="125.932117" y="177.858577" style="stroke: #000000; stroke-width: 0.8"/>
      </g>
     </g>
    </g>
    <g id="xtick_15">
     <g id="line2d_22">
      <g>
       <use xlink:href="#m9c5ac14c6a" x="194.04052" y="177.858577" style="stroke: #000000; stroke-width: 0.8"/>
      </g>
     </g>
    </g>
    <g id="xtick_16">
     <g id="line2d_23">
      <g>
       <use xlink:href="#m9c5ac14c6a" x="262.148924" y="177.858577" style="stroke: #000000; stroke-width: 0.8"/>
      </g>
     </g>
    </g>
    <g id="xtick_17">
     <g id="line2d_24">
      <g>
       <use xlink:href="#m9c5ac14c6a" x="330.257327" y="177.858577" style="stroke: #000000; stroke-width: 0.8"/>
      </g>
     </g>
    </g>
    <g id="xtick_18">
     <g id="line2d_25">
      <g>
       <use xlink:href="#m9c5ac14c6a" x="398.365731" y="177.858577" style="stroke: #000000; stroke-width: 0.8"/>
      </g>
     </g>
    </g>
   </g>
   <g id="matplotlib.axis_6">
    <g id="ytick_6">
     <g id="line2d_26">
      <g>
       <use xlink:href="#mba8418139c" x="39.162011" y="174.727772" style="stroke: #000000; stroke-width: 0.8"/>
      </g>
     </g>
     <g id="text_8">
      <!-- $\mathdefault{0.50}$ -->
      <g transform="translate(12.679467 178.631848)scale(0.11 -0.11)">
       <use xlink:href="#CMR17-30" transform="scale(0.996264)"/>
       <use xlink:href="#CMMI12-3a" transform="translate(45.690477 0)scale(0.996264)"/>
       <use xlink:href="#CMR17-35" transform="translate(72.787654 0)scale(0.996264)"/>
       <use xlink:href="#CMR17-30" transform="translate(118.478131 0)scale(0.996264)"/>
      </g>
     </g>
    </g>
    <g id="ytick_7">
     <g id="line2d_27">
      <g>
       <use xlink:href="#mba8418139c" x="39.162011" y="151.187618" style="stroke: #000000; stroke-width: 0.8"/>
      </g>
     </g>
     <g id="text_9">
      <!-- $\mathdefault{0.75}$ -->
      <g transform="translate(12.679467 155.091694)scale(0.11 -0.11)">
       <defs>
        <path id="CMR17-37" d="M 2886 3941 
L 2886 4081 
L 1382 4081 
C 634 4081 621 4165 595 4288 
L 480 4288 
L 294 3094 
L 410 3094 
C 429 3215 474 3540 550 3661 
C 589 3712 1062 3712 1171 3712 
L 2579 3712 
L 1869 2661 
C 1395 1954 1069 999 1069 165 
C 1069 89 1069 -128 1299 -128 
C 1530 -128 1530 89 1530 171 
L 1530 465 
C 1530 1508 1709 2196 2003 2636 
L 2886 3941 
z
" transform="scale(0.015625)"/>
       </defs>
       <use xlink:href="#CMR17-30" transform="scale(0.996264)"/>
       <use xlink:href="#CMMI12-3a" transform="translate(45.690477 0)scale(0.996264)"/>
       <use xlink:href="#CMR17-37" transform="translate(72.787654 0)scale(0.996264)"/>
       <use xlink:href="#CMR17-35" transform="translate(118.478131 0)scale(0.996264)"/>
      </g>
     </g>
    </g>
   </g>
   <g id="line2d_28">
    <path d="M 57.823713 174.766062 
L 58.504797 175.201055 
L 59.526423 176.177067 
L 59.866965 176.336105 
L 60.548049 176.397451 
L 61.229133 176.444902 
L 61.569676 176.20998 
L 62.931844 175.887458 
L 63.272386 175.694359 
L 63.95347 174.842807 
L 64.975096 174.144163 
L 65.996722 173.026932 
L 68.721058 169.614325 
L 69.402142 168.976728 
L 70.083226 167.962693 
L 70.76431 167.177662 
L 72.46702 165.512251 
L 73.488646 164.576172 
L 73.829188 164.152463 
L 74.16973 164.191332 
L 77.915692 161.780899 
L 78.596776 161.562693 
L 79.27786 161.296262 
L 79.958944 161.187939 
L 80.640028 160.982884 
L 81.321113 160.530077 
L 82.002197 160.323311 
L 82.683281 159.976694 
L 83.023823 159.930509 
L 83.704907 162.602492 
L 84.726533 165.541967 
L 85.407617 166.989066 
L 85.748159 167.603844 
L 87.791411 168.863001 
L 88.472495 168.933123 
L 89.153579 168.735138 
L 89.494121 168.619594 
L 89.834663 168.658373 
L 90.175205 168.268289 
L 90.515747 168.10128 
L 91.877915 166.98572 
L 92.558999 166.64913 
L 92.899541 166.46279 
L 93.580625 165.801675 
L 93.921167 165.685547 
L 94.602251 165.224349 
L 95.964419 164.495445 
L 97.326587 163.309728 
L 98.007671 163.013373 
L 98.688755 162.518865 
L 99.029297 162.224983 
L 99.710381 161.992734 
L 100.732008 161.50086 
L 101.753634 161.152132 
L 102.094176 160.955171 
L 102.434718 160.983933 
L 102.77526 160.876324 
L 103.115802 160.891262 
L 103.796886 160.558005 
L 104.137428 160.473705 
L 104.47797 160.25871 
L 105.840138 160.094315 
L 106.18068 160.043076 
L 107.202306 159.363804 
L 107.88339 162.231645 
L 109.245558 166.195448 
L 109.926642 167.319643 
L 110.607726 168.067608 
L 110.948268 168.258029 
L 111.28881 168.57964 
L 111.969894 168.768151 
L 112.650978 168.607179 
L 114.013146 168.249308 
L 114.353688 168.080089 
L 114.69423 167.767426 
L 115.715856 167.306829 
L 116.056398 167.098648 
L 116.39694 166.709263 
L 116.737482 166.665414 
L 117.078024 166.327938 
L 117.759108 166.091052 
L 118.440192 165.471605 
L 118.780734 165.026705 
L 120.823987 163.910036 
L 121.164529 163.528797 
L 125.251033 161.409472 
L 125.591575 161.353947 
L 126.272659 160.754269 
L 127.294285 160.283899 
L 127.634827 160.285281 
L 128.315911 160.027948 
L 128.996995 159.892282 
L 130.018621 159.561211 
L 130.699705 159.534073 
L 131.380789 159.302636 
L 132.061873 162.234038 
L 132.742957 164.416911 
L 133.424041 166.109276 
L 134.105125 167.065351 
L 135.467293 168.124956 
L 135.807835 168.14541 
L 136.488919 167.891 
L 137.170003 167.737703 
L 138.191629 167.205234 
L 139.89434 165.614594 
L 140.234882 165.478886 
L 141.256508 164.181975 
L 142.618676 163.094734 
L 143.29976 162.694776 
L 145.00247 161.390185 
L 145.343012 161.298092 
L 146.024096 160.826663 
L 146.70518 160.426092 
L 147.045722 160.126978 
L 148.067348 159.700659 
L 149.088974 158.994902 
L 149.770058 158.837913 
L 151.132226 158.484804 
L 151.472768 158.178177 
L 152.153852 158.142725 
L 152.494394 157.908972 
L 152.834936 157.906029 
L 153.51602 157.618001 
L 154.197104 157.498255 
L 154.537646 157.532589 
L 155.559272 157.214799 
L 156.240356 157.186753 
L 156.92144 156.888806 
L 157.261982 156.898915 
L 157.943067 156.70055 
L 158.964693 156.358399 
L 160.667403 156.780453 
L 161.348487 156.400882 
L 162.029571 156.436974 
L 164.072823 156.326574 
L 164.753907 156.49076 
L 166.116075 156.021582 
L 167.137701 156.084183 
L 167.478243 155.897673 
L 168.159327 159.024863 
L 169.180953 162.096543 
L 169.521495 162.868706 
L 171.224205 165.21987 
L 171.564747 165.475627 
L 171.905289 165.516995 
L 172.586373 165.778594 
L 173.267457 165.703941 
L 173.948541 165.499332 
L 174.289083 165.39062 
L 174.629625 165.074433 
L 174.970167 164.968734 
L 175.991793 164.268405 
L 177.01342 163.894728 
L 177.694504 163.483162 
L 178.375588 162.759983 
L 178.71613 162.660273 
L 181.440466 160.711314 
L 184.164802 159.476893 
L 185.186428 159.023015 
L 186.208054 158.590481 
L 187.22968 158.093119 
L 189.272932 157.922099 
L 189.954016 157.646008 
L 190.6351 157.618108 
L 191.316184 157.479831 
L 191.656726 157.37258 
L 192.33781 160.068174 
L 193.359436 163.15134 
L 194.04052 164.57772 
L 195.062146 165.783533 
L 195.402688 165.956066 
L 195.74323 166.312668 
L 196.083772 166.290029 
L 196.764857 166.530476 
L 197.445941 166.49679 
L 198.467567 165.788377 
L 199.148651 165.536181 
L 199.829735 165.019372 
L 202.213529 163.190312 
L 203.575697 162.573503 
L 203.916239 162.171116 
L 207.321659 160.054793 
L 208.343285 159.473942 
L 208.683827 159.141434 
L 209.024369 158.979514 
L 210.045995 162.83261 
L 210.727079 164.669322 
L 211.408163 165.851174 
L 212.089247 166.363314 
L 212.770331 166.502792 
L 213.110873 166.549913 
L 213.451415 166.305856 
L 213.791957 166.343763 
L 214.473041 166.103057 
L 214.813583 165.931859 
L 215.154125 165.574382 
L 215.83521 165.182422 
L 216.516294 164.73686 
L 216.856836 164.507033 
L 217.197378 164.112238 
L 218.219004 163.482597 
L 218.559546 163.036532 
L 219.24063 162.556616 
L 219.921714 161.868302 
L 222.305508 159.967293 
L 223.327134 159.369148 
L 224.34876 158.598175 
L 226.392012 157.639729 
L 227.073096 157.505016 
L 227.413638 157.507958 
L 228.435264 157.007622 
L 228.775806 156.950908 
L 230.137974 156.27104 
L 230.478516 156.185666 
L 230.819058 156.254889 
L 231.840684 155.933373 
L 232.521768 158.756744 
L 233.202852 160.97461 
L 234.224478 163.003718 
L 234.56502 163.320618 
L 234.905563 163.44521 
L 235.246105 163.953387 
L 236.267731 164.382239 
L 236.948815 164.248183 
L 237.629899 164.383171 
L 239.332609 163.647661 
L 239.673151 163.204405 
L 240.354235 162.768129 
L 241.035319 162.261012 
L 242.397487 161.266681 
L 243.078571 160.523293 
L 243.419113 160.318033 
L 244.100197 159.673816 
L 244.440739 159.556859 
L 244.781281 159.179743 
L 245.121823 159.078093 
L 245.462365 158.747307 
L 245.802907 158.667203 
L 246.143449 158.469685 
L 246.824533 158.323437 
L 247.165075 157.925125 
L 247.505617 157.861305 
L 247.846159 157.554002 
L 248.186701 157.402213 
L 248.527243 157.493777 
L 249.208327 157.132898 
L 249.889411 156.855845 
L 250.229953 156.759472 
L 250.911037 156.373292 
L 251.932663 155.920591 
L 252.273205 155.857873 
L 252.613747 155.614307 
L 253.294831 155.339737 
L 253.975915 155.059097 
L 254.997542 154.983305 
L 256.019168 154.86565 
L 257.040794 159.037131 
L 257.721878 161.111634 
L 258.402962 162.433484 
L 259.084046 163.458522 
L 260.105672 164.261436 
L 260.786756 164.434377 
L 261.127298 164.231754 
L 261.46784 164.263077 
L 263.17055 163.585497 
L 263.511092 163.290532 
L 263.851634 163.172302 
L 265.554344 161.608566 
L 266.235428 161.24786 
L 266.916512 160.886154 
L 268.619222 159.723262 
L 270.662474 158.323267 
L 271.343558 158.016749 
L 271.6841 157.674945 
L 272.705726 157.108749 
L 273.046268 156.696954 
L 273.727353 156.928284 
L 275.089521 156.143716 
L 276.792231 156.114058 
L 277.473315 158.962784 
L 278.154399 161.171113 
L 279.516567 163.529166 
L 279.857109 163.942079 
L 280.197651 164.174877 
L 282.240903 164.317293 
L 282.921987 164.201274 
L 283.603071 163.857899 
L 284.284155 163.597878 
L 284.965239 163.002902 
L 285.986865 162.314373 
L 287.008491 161.509137 
L 290.073369 159.027925 
L 290.754453 158.71977 
L 291.435537 157.981784 
L 293.138248 157.386199 
L 293.819332 156.772474 
L 294.159874 156.705981 
L 295.1815 156.045415 
L 295.522042 155.996728 
L 296.543668 159.928143 
L 297.224752 161.671425 
L 297.905836 163.105009 
L 298.246378 163.598342 
L 298.927462 164.147013 
L 300.28963 164.710961 
L 300.970714 164.556535 
L 302.332882 163.990701 
L 303.013966 163.487595 
L 303.69505 163.179473 
L 304.716676 162.258269 
L 305.057218 162.075166 
L 308.462638 159.024828 
L 309.143722 158.771978 
L 309.824806 158.136155 
L 310.50589 157.74504 
L 310.846432 157.737246 
L 312.549143 156.775306 
L 313.911311 156.341159 
L 314.251853 156.473211 
L 314.932937 156.081309 
L 315.614021 155.956094 
L 315.954563 155.667749 
L 317.657273 155.066277 
L 317.997815 155.213814 
L 318.678899 154.942675 
L 319.700525 155.107169 
L 320.722151 159.089758 
L 321.403235 160.965392 
L 322.084319 162.075591 
L 322.765403 163.022822 
L 323.105945 163.423721 
L 324.127571 164.108132 
L 324.468113 164.177457 
L 325.149197 164.004606 
L 326.170823 163.552998 
L 327.192449 162.819982 
L 327.873533 162.680527 
L 328.895159 162.038028 
L 329.576243 161.275171 
L 329.916785 161.170615 
L 332.641122 159.285668 
L 333.322206 158.524893 
L 333.662748 158.427041 
L 334.343832 157.875243 
L 335.024916 157.408447 
L 335.365458 157.193915 
L 335.706 157.258314 
L 336.046542 157.063255 
L 336.727626 156.910938 
L 338.430336 156.411632 
L 338.770878 156.414935 
L 339.11142 156.261149 
L 340.133046 156.110302 
L 340.473588 155.981235 
L 340.81413 156.011413 
L 341.835756 155.548367 
L 342.176298 155.530926 
L 342.51684 155.230815 
L 343.538466 155.307856 
L 343.879008 155.231262 
L 344.560092 158.10407 
L 345.241176 160.454581 
L 345.92226 162.254922 
L 347.284428 163.906701 
L 348.306054 164.251761 
L 348.646596 164.162605 
L 348.987138 164.324722 
L 349.668222 164.282699 
L 352.052017 163.164823 
L 353.414185 162.426266 
L 354.435811 161.561747 
L 354.776353 161.119852 
L 355.457437 160.684807 
L 355.797979 160.37274 
L 356.479063 160.125172 
L 356.819605 159.81811 
L 357.160147 159.325317 
L 357.500689 159.149893 
L 358.181773 158.62051 
L 358.862857 158.38098 
L 360.565567 157.667223 
L 360.906109 157.393661 
L 361.246651 157.364062 
L 361.587193 157.107475 
L 362.268277 156.99989 
L 363.630445 156.54959 
L 363.970987 156.282678 
L 365.673697 155.974806 
L 366.354781 158.871824 
L 367.376407 161.659196 
L 368.057491 163.298858 
L 369.079117 164.718095 
L 369.419659 164.79655 
L 370.100744 164.567008 
L 370.441286 164.636902 
L 370.781828 164.879158 
L 371.12237 164.860477 
L 372.143996 164.181088 
L 372.484538 164.253992 
L 372.82508 164.150578 
L 373.165622 163.754666 
L 373.846706 163.304768 
L 374.187248 162.859599 
L 375.208874 162.309915 
L 375.889958 161.771158 
L 376.2305 161.585871 
L 376.911584 160.752446 
L 377.252126 160.68418 
L 377.592668 160.494185 
L 379.63592 158.677293 
L 380.998088 157.972526 
L 381.679172 157.840143 
L 382.700798 157.354159 
L 383.04134 157.364794 
L 383.381882 157.116625 
L 383.722424 157.045895 
L 384.062966 156.776452 
L 386.106218 156.064135 
L 386.44676 155.79418 
L 386.787302 155.844828 
L 388.14947 155.629341 
L 388.490012 155.706754 
L 389.171097 155.496991 
L 389.852181 155.292189 
L 390.873807 159.220853 
L 391.554891 161.188953 
L 392.917059 163.437602 
L 393.938685 164.086351 
L 394.279227 164.326937 
L 395.300853 164.272145 
L 395.641395 164.016433 
L 396.322479 163.965228 
L 397.003563 163.599939 
L 397.344105 163.687374 
L 398.025189 163.305448 
L 398.365731 163.047076 
L 399.046815 162.380122 
L 399.387357 162.286736 
L 400.408983 161.634469 
L 400.749525 161.505037 
L 401.430609 160.930612 
L 402.452235 159.896445 
L 402.792777 159.731247 
L 403.473861 159.221318 
L 403.814403 159.05359 
L 404.154945 159.051749 
L 404.495487 158.705211 
L 405.176571 158.454071 
L 405.857655 158.291869 
L 406.879281 157.241853 
L 407.560365 157.029336 
L 408.24145 156.844429 
L 408.581992 156.71829 
L 408.922534 156.84326 
L 409.603618 156.52827 
L 409.94416 156.359336 
L 410.625244 156.26682 
L 411.64687 160.341312 
L 412.327954 162.218603 
L 412.668496 162.954542 
L 413.34958 163.711917 
L 414.030664 164.39085 
L 414.711748 164.642938 
L 415.05229 164.875859 
L 416.755 164.605046 
L 417.436084 164.300936 
L 417.776626 163.972198 
L 418.798252 163.42902 
L 420.16042 162.257553 
L 421.182046 161.107165 
L 423.56584 159.679054 
L 423.906382 159.592933 
L 426.290176 157.646325 
L 426.630718 157.615189 
L 427.652345 156.954993 
L 427.992887 156.55073 
L 428.333429 156.458797 
L 428.673971 156.549266 
L 430.717223 155.994306 
L 430.717223 155.994306 
" clip-path="url(#pcdb31b145b)" style="fill: none; stroke: #808080; stroke-width: 1.5; stroke-linecap: square"/>
   </g>
   <g id="LineCollection_3">
    <path d="M 57.823713 155.895649 
L 431.057765 155.895649 
" clip-path="url(#pcdb31b145b)" style="fill: none; stroke-dasharray: 5.55,2.4; stroke-dashoffset: 0; stroke: #d3d3d3; stroke-width: 1.5"/>
   </g>
   <g id="LineCollection_4">
    <path d="M 83.023823 176.444902 
L 83.023823 148.171407 
" clip-path="url(#pcdb31b145b)" style="fill: none; stroke: #808080; stroke-opacity: 0.5; stroke-width: 1.5"/>
    <path d="M 107.202306 176.444902 
L 107.202306 148.171407 
" clip-path="url(#pcdb31b145b)" style="fill: none; stroke: #808080; stroke-opacity: 0.5; stroke-width: 1.5"/>
    <path d="M 131.380789 176.444902 
L 131.380789 148.171407 
" clip-path="url(#pcdb31b145b)" style="fill: none; stroke: #808080; stroke-opacity: 0.5; stroke-width: 1.5"/>
    <path d="M 167.478243 176.444902 
L 167.478243 148.171407 
" clip-path="url(#pcdb31b145b)" style="fill: none; stroke: #808080; stroke-opacity: 0.5; stroke-width: 1.5"/>
    <path d="M 191.656726 176.444902 
L 191.656726 148.171407 
" clip-path="url(#pcdb31b145b)" style="fill: none; stroke: #808080; stroke-opacity: 0.5; stroke-width: 1.5"/>
    <path d="M 209.024369 176.444902 
L 209.024369 148.171407 
" clip-path="url(#pcdb31b145b)" style="fill: none; stroke: #808080; stroke-opacity: 0.5; stroke-width: 1.5"/>
    <path d="M 231.840684 176.444902 
L 231.840684 148.171407 
" clip-path="url(#pcdb31b145b)" style="fill: none; stroke: #808080; stroke-opacity: 0.5; stroke-width: 1.5"/>
    <path d="M 256.019168 176.444902 
L 256.019168 148.171407 
" clip-path="url(#pcdb31b145b)" style="fill: none; stroke: #808080; stroke-opacity: 0.5; stroke-width: 1.5"/>
    <path d="M 276.792231 176.444902 
L 276.792231 148.171407 
" clip-path="url(#pcdb31b145b)" style="fill: none; stroke: #808080; stroke-opacity: 0.5; stroke-width: 1.5"/>
    <path d="M 295.522042 176.444902 
L 295.522042 148.171407 
" clip-path="url(#pcdb31b145b)" style="fill: none; stroke: #808080; stroke-opacity: 0.5; stroke-width: 1.5"/>
    <path d="M 319.700525 176.444902 
L 319.700525 148.171407 
" clip-path="url(#pcdb31b145b)" style="fill: none; stroke: #808080; stroke-opacity: 0.5; stroke-width: 1.5"/>
    <path d="M 343.879008 176.444902 
L 343.879008 148.171407 
" clip-path="url(#pcdb31b145b)" style="fill: none; stroke: #808080; stroke-opacity: 0.5; stroke-width: 1.5"/>
    <path d="M 365.673697 176.444902 
L 365.673697 148.171407 
" clip-path="url(#pcdb31b145b)" style="fill: none; stroke: #808080; stroke-opacity: 0.5; stroke-width: 1.5"/>
    <path d="M 389.852181 176.444902 
L 389.852181 148.171407 
" clip-path="url(#pcdb31b145b)" style="fill: none; stroke: #808080; stroke-opacity: 0.5; stroke-width: 1.5"/>
    <path d="M 410.625244 176.444902 
L 410.625244 148.171407 
" clip-path="url(#pcdb31b145b)" style="fill: none; stroke: #808080; stroke-opacity: 0.5; stroke-width: 1.5"/>
    <path d="M 430.376681 176.444902 
L 430.376681 148.171407 
" clip-path="url(#pcdb31b145b)" style="fill: none; stroke: #808080; stroke-opacity: 0.5; stroke-width: 1.5"/>
   </g>
   <g id="patch_39">
    <path d="M 39.162011 177.858577 
L 39.162011 146.757732 
" style="fill: none; stroke: #000000; stroke-width: 0.8; stroke-linejoin: miter; stroke-linecap: square"/>
   </g>
   <g id="patch_40">
    <path d="M 39.162011 177.858577 
L 449.719467 177.858577 
" style="fill: none; stroke: #000000; stroke-width: 0.8; stroke-linejoin: miter; stroke-linecap: square"/>
   </g>
   <g id="text_10">
    <!-- dy/dt -->
    <g transform="translate(230.185625 140.757732)scale(0.132 -0.132)">
     <defs>
      <path id="NimbusSanL-Regu-79" d="M 2483 3360 
L 1555 738 
L 698 3360 
L 128 3360 
L 1261 -21 
L 1056 -554 
C 973 -792 851 -882 627 -882 
C 550 -882 461 -869 346 -843 
L 346 -1325 
C 454 -1382 563 -1408 704 -1408 
C 877 -1408 1062 -1350 1203 -1247 
C 1370 -1125 1466 -983 1568 -713 
L 3059 3360 
L 2483 3360 
z
" transform="scale(0.015625)"/>
     </defs>
     <use xlink:href="#NimbusSanL-Regu-64" transform="scale(0.996264)"/>
     <use xlink:href="#NimbusSanL-Regu-79" transform="translate(55.391677 0)scale(0.996264)"/>
     <use xlink:href="#NimbusSanL-Regu-2f" transform="translate(105.204877 0)scale(0.996264)"/>
     <use xlink:href="#NimbusSanL-Regu-64" transform="translate(132.900047 0)scale(0.996264)"/>
     <use xlink:href="#NimbusSanL-Regu-74" transform="translate(188.291724 0)scale(0.996264)"/>
    </g>
   </g>
  </g>
  <g id="axes_4">
   <g id="patch_41">
    <path d="M 39.162011 239.952558 
L 449.719467 239.952558 
L 449.719467 208.851713 
L 39.162011 208.851713 
z
" style="fill: #ffffff"/>
   </g>
   <g id="patch_42">
    <path d="M 131.380789 239.952558 
L 131.380789 208.851713 
L 167.478243 208.851713 
L 167.478243 239.952558 
z
" clip-path="url(#p967ab450e9)" style="fill: #ff0000; opacity: 0.1"/>
   </g>
   <g id="patch_43">
    <path d="M 107.202306 239.952558 
L 107.202306 208.851713 
L 131.380789 208.851713 
L 131.380789 239.952558 
z
" clip-path="url(#p967ab450e9)" style="fill: #0000ff; opacity: 0.1"/>
   </g>
   <g id="patch_44">
    <path d="M 209.024369 239.952558 
L 209.024369 208.851713 
L 231.840684 208.851713 
L 231.840684 239.952558 
z
" clip-path="url(#p967ab450e9)" style="fill: #ff0000; opacity: 0.1"/>
   </g>
   <g id="patch_45">
    <path d="M 191.656726 239.952558 
L 191.656726 208.851713 
L 209.024369 208.851713 
L 209.024369 239.952558 
z
" clip-path="url(#p967ab450e9)" style="fill: #0000ff; opacity: 0.1"/>
   </g>
   <g id="patch_46">
    <path d="M 276.792231 239.952558 
L 276.792231 208.851713 
L 295.522042 208.851713 
L 295.522042 239.952558 
z
" clip-path="url(#p967ab450e9)" style="fill: #ff0000; opacity: 0.1"/>
   </g>
   <g id="patch_47">
    <path d="M 256.019168 239.952558 
L 256.019168 208.851713 
L 276.792231 208.851713 
L 276.792231 239.952558 
z
" clip-path="url(#p967ab450e9)" style="fill: #0000ff; opacity: 0.1"/>
   </g>
   <g id="patch_48">
    <path d="M 343.879008 239.952558 
L 343.879008 208.851713 
L 365.673697 208.851713 
L 365.673697 239.952558 
z
" clip-path="url(#p967ab450e9)" style="fill: #ff0000; opacity: 0.1"/>
   </g>
   <g id="patch_49">
    <path d="M 319.700525 239.952558 
L 319.700525 208.851713 
L 343.879008 208.851713 
L 343.879008 239.952558 
z
" clip-path="url(#p967ab450e9)" style="fill: #0000ff; opacity: 0.1"/>
   </g>
   <g id="patch_50">
    <path d="M 410.625244 239.952558 
L 410.625244 208.851713 
L 430.376681 208.851713 
L 430.376681 239.952558 
z
" clip-path="url(#p967ab450e9)" style="fill: #ff0000; opacity: 0.1"/>
   </g>
   <g id="patch_51">
    <path d="M 389.852181 239.952558 
L 389.852181 208.851713 
L 410.625244 208.851713 
L 410.625244 239.952558 
z
" clip-path="url(#p967ab450e9)" style="fill: #0000ff; opacity: 0.1"/>
   </g>
   <g id="matplotlib.axis_7">
    <g id="xtick_19">
     <g id="line2d_29">
      <g>
       <use xlink:href="#m9c5ac14c6a" x="57.823713" y="239.952558" style="stroke: #000000; stroke-width: 0.8"/>
      </g>
     </g>
     <g id="text_11">
      <!-- $\mathdefault{0}$ -->
      <g transform="translate(55.08398 254.76071)scale(0.11 -0.11)">
       <use xlink:href="#CMR17-30" transform="scale(0.996264)"/>
      </g>
     </g>
    </g>
    <g id="xtick_20">
     <g id="line2d_30">
      <g>
       <use xlink:href="#m9c5ac14c6a" x="125.932117" y="239.952558" style="stroke: #000000; stroke-width: 0.8"/>
      </g>
     </g>
     <g id="text_12">
      <!-- $\mathdefault{2000}$ -->
      <g transform="translate(114.973182 254.76071)scale(0.11 -0.11)">
       <use xlink:href="#CMR17-32" transform="scale(0.996264)"/>
       <use xlink:href="#CMR17-30" transform="translate(45.690477 0)scale(0.996264)"/>
       <use xlink:href="#CMR17-30" transform="translate(91.380954 0)scale(0.996264)"/>
       <use xlink:href="#CMR17-30" transform="translate(137.071431 0)scale(0.996264)"/>
      </g>
     </g>
    </g>
    <g id="xtick_21">
     <g id="line2d_31">
      <g>
       <use xlink:href="#m9c5ac14c6a" x="194.04052" y="239.952558" style="stroke: #000000; stroke-width: 0.8"/>
      </g>
     </g>
     <g id="text_13">
      <!-- $\mathdefault{4000}$ -->
      <g transform="translate(183.081586 254.76071)scale(0.11 -0.11)">
       <defs>
        <path id="CMR17-34" d="M 2150 4122 
C 2150 4256 2144 4256 2029 4256 
L 128 1254 
L 128 1088 
L 1779 1088 
L 1779 457 
C 1779 224 1766 160 1318 160 
L 1197 160 
L 1197 0 
C 1402 0 1747 0 1965 0 
C 2182 0 2528 0 2733 0 
L 2733 160 
L 2611 160 
C 2163 160 2150 224 2150 457 
L 2150 1088 
L 2803 1088 
L 2803 1254 
L 2150 1254 
L 2150 4122 
z
M 1798 3703 
L 1798 1254 
L 256 1254 
L 1798 3703 
z
" transform="scale(0.015625)"/>
       </defs>
       <use xlink:href="#CMR17-34" transform="scale(0.996264)"/>
       <use xlink:href="#CMR17-30" transform="translate(45.690477 0)scale(0.996264)"/>
       <use xlink:href="#CMR17-30" transform="translate(91.380954 0)scale(0.996264)"/>
       <use xlink:href="#CMR17-30" transform="translate(137.071431 0)scale(0.996264)"/>
      </g>
     </g>
    </g>
    <g id="xtick_22">
     <g id="line2d_32">
      <g>
       <use xlink:href="#m9c5ac14c6a" x="262.148924" y="239.952558" style="stroke: #000000; stroke-width: 0.8"/>
      </g>
     </g>
     <g id="text_14">
      <!-- $\mathdefault{6000}$ -->
      <g transform="translate(251.189989 254.76071)scale(0.11 -0.11)">
       <defs>
        <path id="CMR17-36" d="M 678 2176 
C 678 3690 1395 4032 1811 4032 
C 1946 4032 2272 4009 2400 3776 
C 2298 3776 2106 3776 2106 3553 
C 2106 3381 2246 3323 2336 3323 
C 2394 3323 2566 3348 2566 3560 
C 2566 3954 2246 4179 1805 4179 
C 1043 4179 243 3390 243 1984 
C 243 253 966 -128 1478 -128 
C 2099 -128 2688 427 2688 1283 
C 2688 2081 2170 2662 1517 2662 
C 1126 2662 838 2407 678 1960 
L 678 2176 
z
M 1478 25 
C 691 25 691 1200 691 1436 
C 691 1896 909 2560 1504 2560 
C 1613 2560 1926 2560 2138 2120 
C 2253 1870 2253 1609 2253 1289 
C 2253 944 2253 690 2118 434 
C 1978 171 1773 25 1478 25 
z
" transform="scale(0.015625)"/>
       </defs>
       <use xlink:href="#CMR17-36" transform="scale(0.996264)"/>
       <use xlink:href="#CMR17-30" transform="translate(45.690477 0)scale(0.996264)"/>
       <use xlink:href="#CMR17-30" transform="translate(91.380954 0)scale(0.996264)"/>
       <use xlink:href="#CMR17-30" transform="translate(137.071431 0)scale(0.996264)"/>
      </g>
     </g>
    </g>
    <g id="xtick_23">
     <g id="line2d_33">
      <g>
       <use xlink:href="#m9c5ac14c6a" x="330.257327" y="239.952558" style="stroke: #000000; stroke-width: 0.8"/>
      </g>
     </g>
     <g id="text_15">
      <!-- $\mathdefault{8000}$ -->
      <g transform="translate(319.298393 254.76071)scale(0.11 -0.11)">
       <use xlink:href="#CMR17-38" transform="scale(0.996264)"/>
       <use xlink:href="#CMR17-30" transform="translate(45.690477 0)scale(0.996264)"/>
       <use xlink:href="#CMR17-30" transform="translate(91.380954 0)scale(0.996264)"/>
       <use xlink:href="#CMR17-30" transform="translate(137.071431 0)scale(0.996264)"/>
      </g>
     </g>
    </g>
    <g id="xtick_24">
     <g id="line2d_34">
      <g>
       <use xlink:href="#m9c5ac14c6a" x="398.365731" y="239.952558" style="stroke: #000000; stroke-width: 0.8"/>
      </g>
     </g>
     <g id="text_16">
      <!-- $\mathdefault{10000}$ -->
      <g transform="translate(384.667063 254.76071)scale(0.11 -0.11)">
       <defs>
        <path id="CMR17-31" d="M 1702 4058 
C 1702 4192 1696 4192 1606 4192 
C 1357 3916 979 3827 621 3827 
C 602 3827 570 3827 563 3808 
C 557 3795 557 3782 557 3648 
C 755 3648 1088 3686 1344 3839 
L 1344 461 
C 1344 236 1331 160 781 160 
L 589 160 
L 589 0 
C 896 0 1216 0 1523 0 
C 1830 0 2150 0 2458 0 
L 2458 160 
L 2266 160 
C 1715 160 1702 230 1702 458 
L 1702 4058 
z
" transform="scale(0.015625)"/>
       </defs>
       <use xlink:href="#CMR17-31" transform="scale(0.996264)"/>
       <use xlink:href="#CMR17-30" transform="translate(45.690477 0)scale(0.996264)"/>
       <use xlink:href="#CMR17-30" transform="translate(91.380954 0)scale(0.996264)"/>
       <use xlink:href="#CMR17-30" transform="translate(137.071431 0)scale(0.996264)"/>
       <use xlink:href="#CMR17-30" transform="translate(182.761908 0)scale(0.996264)"/>
      </g>
     </g>
    </g>
    <g id="text_17">
     <!-- Time (ms) -->
     <g transform="translate(219.788913 269.105827)scale(0.11 -0.11)">
      <defs>
       <path id="NimbusSanL-Regu-54" d="M 2266 4146 
L 3795 4146 
L 3795 4672 
L 134 4672 
L 134 4146 
L 1670 4146 
L 1670 -14 
L 2266 -14 
L 2266 4146 
z
" transform="scale(0.015625)"/>
       <path id="NimbusSanL-Regu-69" d="M 960 3359 
L 429 3359 
L 429 0 
L 960 0 
L 960 3359 
z
M 960 4672 
L 422 4672 
L 422 3999 
L 960 3999 
L 960 4672 
z
" transform="scale(0.015625)"/>
       <path id="NimbusSanL-Regu-6d" d="M 448 3359 
L 448 0 
L 986 0 
L 986 2109 
C 986 2597 1338 2988 1773 2988 
C 2170 2988 2394 2744 2394 2314 
L 2394 0 
L 2931 0 
L 2931 2109 
C 2931 2597 3283 2988 3718 2988 
C 4109 2988 4339 2738 4339 2314 
L 4339 0 
L 4877 0 
L 4877 2520 
C 4877 3122 4531 3456 3904 3456 
C 3456 3456 3187 3321 2874 2943 
C 2675 3302 2406 3456 1971 3456 
C 1523 3456 1229 3289 941 2885 
L 941 3359 
L 448 3359 
z
" transform="scale(0.015625)"/>
       <path id="NimbusSanL-Regu-65" d="M 3283 1529 
C 3283 2034 3245 2338 3149 2584 
C 2931 3127 2419 3456 1792 3456 
C 858 3456 256 2742 256 1645 
C 256 547 838 -128 1779 -128 
C 2547 -128 3078 310 3213 1044 
L 2675 1044 
C 2528 598 2227 365 1798 365 
C 1459 365 1171 520 992 805 
C 864 998 819 1193 813 1529 
L 3283 1529 
z
M 826 1984 
C 870 2577 1248 2962 1786 2962 
C 2310 2962 2714 2530 2714 1984 
C 2714 1984 2714 1984 2707 1984 
L 826 1984 
z
" transform="scale(0.015625)"/>
       <path id="NimbusSanL-Regu-28" d="M 1510 4672 
C 870 3830 467 2660 467 1651 
C 467 636 870 -534 1510 -1376 
L 1862 -1376 
C 1299 -457 986 623 986 1651 
C 986 2673 1299 3759 1862 4672 
L 1510 4672 
z
" transform="scale(0.015625)"/>
       <path id="NimbusSanL-Regu-73" d="M 2803 2427 
C 2797 3085 2362 3456 1587 3456 
C 806 3456 301 3054 301 2436 
C 301 1913 570 1665 1363 1474 
L 1862 1353 
C 2234 1263 2381 1130 2381 888 
C 2381 576 2067 365 1600 365 
C 1312 365 1069 448 934 588 
C 851 684 813 779 781 1014 
L 218 1014 
C 243 241 678 -128 1555 -128 
C 2400 -128 2938 285 2938 929 
C 2938 1426 2656 1701 1990 1860 
L 1478 1981 
C 1043 2082 858 2223 858 2458 
C 858 2764 1133 2962 1568 2962 
C 1997 2962 2227 2777 2240 2427 
L 2803 2427 
z
" transform="scale(0.015625)"/>
       <path id="NimbusSanL-Regu-29" d="M 595 -1376 
C 1235 -534 1638 636 1638 1644 
C 1638 2660 1235 3830 595 4672 
L 243 4672 
C 806 3753 1120 2673 1120 1644 
C 1120 623 806 -464 243 -1376 
L 595 -1376 
z
" transform="scale(0.015625)"/>
      </defs>
      <use xlink:href="#NimbusSanL-Regu-54" transform="scale(0.996264)"/>
      <use xlink:href="#NimbusSanL-Regu-69" transform="translate(60.871631 0)scale(0.996264)"/>
      <use xlink:href="#NimbusSanL-Regu-6d" transform="translate(82.988415 0)scale(0.996264)"/>
      <use xlink:href="#NimbusSanL-Regu-65" transform="translate(165.976845 0)scale(0.996264)"/>
      <use xlink:href="#NimbusSanL-Regu-28" transform="translate(249.063692 0)scale(0.996264)"/>
      <use xlink:href="#NimbusSanL-Regu-6d" transform="translate(282.238922 0)scale(0.996264)"/>
      <use xlink:href="#NimbusSanL-Regu-73" transform="translate(365.227352 0)scale(0.996264)"/>
      <use xlink:href="#NimbusSanL-Regu-29" transform="translate(415.040552 0)scale(0.996264)"/>
     </g>
    </g>
   </g>
   <g id="matplotlib.axis_8">
    <g id="ytick_8">
     <g id="line2d_35">
      <g>
       <use xlink:href="#mba8418139c" x="39.162011" y="230.105496" style="stroke: #000000; stroke-width: 0.8"/>
      </g>
     </g>
     <g id="text_18">
      <!-- $\mathdefault{0.775}$ -->
      <g transform="translate(7.2 234.009573)scale(0.11 -0.11)">
       <use xlink:href="#CMR17-30" transform="scale(0.996264)"/>
       <use xlink:href="#CMMI12-3a" transform="translate(45.690477 0)scale(0.996264)"/>
       <use xlink:href="#CMR17-37" transform="translate(72.787654 0)scale(0.996264)"/>
       <use xlink:href="#CMR17-37" transform="translate(118.478131 0)scale(0.996264)"/>
       <use xlink:href="#CMR17-35" transform="translate(164.168608 0)scale(0.996264)"/>
      </g>
     </g>
    </g>
    <g id="ytick_9">
     <g id="line2d_36">
      <g>
       <use xlink:href="#mba8418139c" x="39.162011" y="210.265388" style="stroke: #000000; stroke-width: 0.8"/>
      </g>
     </g>
     <g id="text_19">
      <!-- $\mathdefault{0.800}$ -->
      <g transform="translate(7.2 214.169464)scale(0.11 -0.11)">
       <use xlink:href="#CMR17-30" transform="scale(0.996264)"/>
       <use xlink:href="#CMMI12-3a" transform="translate(45.690477 0)scale(0.996264)"/>
       <use xlink:href="#CMR17-38" transform="translate(72.787654 0)scale(0.996264)"/>
       <use xlink:href="#CMR17-30" transform="translate(118.478131 0)scale(0.996264)"/>
       <use xlink:href="#CMR17-30" transform="translate(164.168608 0)scale(0.996264)"/>
      </g>
     </g>
    </g>
   </g>
   <g id="line2d_37">
    <path d="M 57.823713 210.265388 
L 131.380789 210.265388 
L 131.721331 224.62277 
L 209.024369 224.62277 
L 209.364911 237.618484 
L 276.792231 237.618484 
L 277.132773 238.538883 
L 343.879008 238.538883 
L 344.21955 235.739093 
L 410.625244 235.739093 
L 410.965786 237.303248 
L 430.717223 237.303248 
L 430.717223 237.303248 
" clip-path="url(#p967ab450e9)" style="fill: none; stroke: #808080; stroke-width: 1.5; stroke-linecap: square"/>
   </g>
   <g id="LineCollection_5">
    <path d="M 83.023823 238.538883 
L 83.023823 210.265388 
" clip-path="url(#p967ab450e9)" style="fill: none; stroke: #808080; stroke-opacity: 0.5; stroke-width: 1.5"/>
    <path d="M 107.202306 238.538883 
L 107.202306 210.265388 
" clip-path="url(#p967ab450e9)" style="fill: none; stroke: #808080; stroke-opacity: 0.5; stroke-width: 1.5"/>
    <path d="M 131.380789 238.538883 
L 131.380789 210.265388 
" clip-path="url(#p967ab450e9)" style="fill: none; stroke: #808080; stroke-opacity: 0.5; stroke-width: 1.5"/>
    <path d="M 167.478243 238.538883 
L 167.478243 210.265388 
" clip-path="url(#p967ab450e9)" style="fill: none; stroke: #808080; stroke-opacity: 0.5; stroke-width: 1.5"/>
    <path d="M 191.656726 238.538883 
L 191.656726 210.265388 
" clip-path="url(#p967ab450e9)" style="fill: none; stroke: #808080; stroke-opacity: 0.5; stroke-width: 1.5"/>
    <path d="M 209.024369 238.538883 
L 209.024369 210.265388 
" clip-path="url(#p967ab450e9)" style="fill: none; stroke: #808080; stroke-opacity: 0.5; stroke-width: 1.5"/>
    <path d="M 231.840684 238.538883 
L 231.840684 210.265388 
" clip-path="url(#p967ab450e9)" style="fill: none; stroke: #808080; stroke-opacity: 0.5; stroke-width: 1.5"/>
    <path d="M 256.019168 238.538883 
L 256.019168 210.265388 
" clip-path="url(#p967ab450e9)" style="fill: none; stroke: #808080; stroke-opacity: 0.5; stroke-width: 1.5"/>
    <path d="M 276.792231 238.538883 
L 276.792231 210.265388 
" clip-path="url(#p967ab450e9)" style="fill: none; stroke: #808080; stroke-opacity: 0.5; stroke-width: 1.5"/>
    <path d="M 295.522042 238.538883 
L 295.522042 210.265388 
" clip-path="url(#p967ab450e9)" style="fill: none; stroke: #808080; stroke-opacity: 0.5; stroke-width: 1.5"/>
    <path d="M 319.700525 238.538883 
L 319.700525 210.265388 
" clip-path="url(#p967ab450e9)" style="fill: none; stroke: #808080; stroke-opacity: 0.5; stroke-width: 1.5"/>
    <path d="M 343.879008 238.538883 
L 343.879008 210.265388 
" clip-path="url(#p967ab450e9)" style="fill: none; stroke: #808080; stroke-opacity: 0.5; stroke-width: 1.5"/>
    <path d="M 365.673697 238.538883 
L 365.673697 210.265388 
" clip-path="url(#p967ab450e9)" style="fill: none; stroke: #808080; stroke-opacity: 0.5; stroke-width: 1.5"/>
    <path d="M 389.852181 238.538883 
L 389.852181 210.265388 
" clip-path="url(#p967ab450e9)" style="fill: none; stroke: #808080; stroke-opacity: 0.5; stroke-width: 1.5"/>
    <path d="M 410.625244 238.538883 
L 410.625244 210.265388 
" clip-path="url(#p967ab450e9)" style="fill: none; stroke: #808080; stroke-opacity: 0.5; stroke-width: 1.5"/>
    <path d="M 430.376681 238.538883 
L 430.376681 210.265388 
" clip-path="url(#p967ab450e9)" style="fill: none; stroke: #808080; stroke-opacity: 0.5; stroke-width: 1.5"/>
   </g>
   <g id="patch_52">
    <path d="M 39.162011 239.952558 
L 39.162011 208.851713 
" style="fill: none; stroke: #000000; stroke-width: 0.8; stroke-linejoin: miter; stroke-linecap: square"/>
   </g>
   <g id="patch_53">
    <path d="M 39.162011 239.952558 
L 449.719467 239.952558 
" style="fill: none; stroke: #000000; stroke-width: 0.8; stroke-linejoin: miter; stroke-linecap: square"/>
   </g>
   <g id="text_20">
    <!-- dI/dt -->
    <g transform="translate(231.645414 202.851713)scale(0.132 -0.132)">
     <defs>
      <path id="NimbusSanL-Regu-49" d="M 1242 4672 
L 640 4672 
L 640 -2 
L 1242 -2 
L 1242 4672 
z
" transform="scale(0.015625)"/>
     </defs>
     <use xlink:href="#NimbusSanL-Regu-64" transform="scale(0.996264)"/>
     <use xlink:href="#NimbusSanL-Regu-49" transform="translate(55.391677 0)scale(0.996264)"/>
     <use xlink:href="#NimbusSanL-Regu-2f" transform="translate(83.086847 0)scale(0.996264)"/>
     <use xlink:href="#NimbusSanL-Regu-64" transform="translate(110.782016 0)scale(0.996264)"/>
     <use xlink:href="#NimbusSanL-Regu-74" transform="translate(166.173693 0)scale(0.996264)"/>
    </g>
   </g>
  </g>
 </g>
 <defs>
  <clipPath id="p787727ccf3">
   <rect x="39.162011" y="22.569771" width="410.557457" height="31.100845"/>
  </clipPath>
  <clipPath id="p6ccd466444">
   <rect x="39.162011" y="84.663751" width="410.557457" height="31.100845"/>
  </clipPath>
  <clipPath id="pcdb31b145b">
   <rect x="39.162011" y="146.757732" width="410.557457" height="31.100845"/>
  </clipPath>
  <clipPath id="p967ab450e9">
   <rect x="39.162011" y="208.851713" width="410.557457" height="31.100845"/>
  </clipPath>
 </defs>
</svg>
