<?xml version="1.0" encoding="utf-8" standalone="no"?>
<!DOCTYPE svg PUBLIC "-//W3C//DTD SVG 1.1//EN"
  "http://www.w3.org/Graphics/SVG/1.1/DTD/svg11.dtd">
<svg xmlns:xlink="http://www.w3.org/1999/xlink" width="307.423281pt" height="241.825313pt" viewBox="0 0 307.423281 241.825313" xmlns="http://www.w3.org/2000/svg" version="1.1">
 <metadata>
  <rdf:RDF xmlns:dc="http://purl.org/dc/elements/1.1/" xmlns:cc="http://creativecommons.org/ns#" xmlns:rdf="http://www.w3.org/1999/02/22-rdf-syntax-ns#">
   <cc:Work>
    <dc:type rdf:resource="http://purl.org/dc/dcmitype/StillImage"/>
    <dc:date>2022-08-03T15:36:50.659204</dc:date>
    <dc:format>image/svg+xml</dc:format>
    <dc:creator>
     <cc:Agent>
      <dc:title>Matplotlib v3.5.1, https://matplotlib.org/</dc:title>
     </cc:Agent>
    </dc:creator>
   </cc:Work>
  </rdf:RDF>
 </metadata>
 <defs>
  <style type="text/css">*{stroke-linejoin: round; stroke-linecap: butt}</style>
 </defs>
 <g id="figure_1">
  <g id="patch_1">
   <path d="M 0 241.825313 
L 307.423281 241.825313 
L 307.423281 0 
L 0 0 
z
" style="fill: #ffffff"/>
  </g>
  <g id="axes_1">
   <g id="patch_2">
    <path d="M 53.027031 54.805 
L 300.223281 54.805 
L 300.223281 20.834688 
L 53.027031 20.834688 
z
" style="fill: #ffffff"/>
   </g>
   <g id="matplotlib.axis_1">
    <g id="xtick_1">
     <g id="line2d_1">
      <defs>
       <path id="me6b143ba1a" d="M 0 0 
L 0 3.5 
" style="stroke: #262626; stroke-width: 0.8"/>
      </defs>
      <g>
       <use xlink:href="#me6b143ba1a" x="64.263224" y="54.805" style="fill: #262626; stroke: #262626; stroke-width: 0.8"/>
      </g>
     </g>
    </g>
    <g id="xtick_2">
     <g id="line2d_2">
      <g>
       <use xlink:href="#me6b143ba1a" x="113.116238" y="54.805" style="fill: #262626; stroke: #262626; stroke-width: 0.8"/>
      </g>
     </g>
    </g>
    <g id="xtick_3">
     <g id="line2d_3">
      <g>
       <use xlink:href="#me6b143ba1a" x="161.969252" y="54.805" style="fill: #262626; stroke: #262626; stroke-width: 0.8"/>
      </g>
     </g>
    </g>
    <g id="xtick_4">
     <g id="line2d_4">
      <g>
       <use xlink:href="#me6b143ba1a" x="210.822266" y="54.805" style="fill: #262626; stroke: #262626; stroke-width: 0.8"/>
      </g>
     </g>
    </g>
    <g id="xtick_5">
     <g id="line2d_5">
      <g>
       <use xlink:href="#me6b143ba1a" x="259.67528" y="54.805" style="fill: #262626; stroke: #262626; stroke-width: 0.8"/>
      </g>
     </g>
    </g>
   </g>
   <g id="matplotlib.axis_2">
    <g id="ytick_1">
     <g id="line2d_6">
      <defs>
       <path id="mdd3d8662c5" d="M 0 0 
L -3.5 0 
" style="stroke: #262626; stroke-width: 0.8"/>
      </defs>
      <g>
       <use xlink:href="#mdd3d8662c5" x="53.027031" y="44.704442" style="fill: #262626; stroke: #262626; stroke-width: 0.8"/>
      </g>
     </g>
     <g id="text_1">
      <!-- 0.90 -->
      <g style="fill: #262626" transform="translate(26.469375 48.521785)scale(0.11 -0.11)">
       <defs>
        <path id="CMUSerif-Roman-30" d="M 250 2048 
Q 250 2989 486 3501 
Q 819 4262 1600 4262 
Q 1766 4262 1939 4217 
Q 2112 4173 2333 4000 
Q 2554 3827 2688 3546 
Q 2944 3002 2944 2048 
Q 2944 1114 2707 602 
Q 2362 -141 1594 -141 
Q 1306 -141 1014 6 
Q 723 154 538 506 
Q 250 1037 250 2048 
z
M 781 2125 
Q 781 1158 851 774 
Q 928 358 1142 179 
Q 1357 0 1594 0 
Q 1850 0 2064 192 
Q 2278 384 2342 800 
Q 2413 1210 2413 2125 
Q 2413 3014 2349 3373 
Q 2266 3789 2042 3955 
Q 1818 4122 1594 4122 
Q 1510 4122 1420 4096 
Q 1331 4070 1203 4000 
Q 1075 3930 976 3750 
Q 877 3571 832 3302 
Q 781 2957 781 2125 
z
" transform="scale(0.015625)"/>
        <path id="CMUSerif-Roman-2e" d="M 640 102 
Q 544 205 544 339 
Q 544 474 640 573 
Q 736 672 883 672 
Q 1024 672 1120 579 
Q 1216 486 1216 339 
Q 1216 192 1113 96 
Q 1011 0 883 0 
Q 736 0 640 102 
z
" transform="scale(0.015625)"/>
        <path id="CMUSerif-Roman-39" d="M 269 2822 
Q 269 3162 368 3395 
Q 467 3629 678 3859 
Q 1062 4262 1619 4262 
Q 1856 4262 2067 4163 
Q 2278 4064 2480 3837 
Q 2682 3610 2803 3165 
Q 2925 2720 2925 2106 
Q 2925 1114 2445 486 
Q 1965 -141 1318 -141 
Q 909 -141 669 44 
Q 429 230 429 550 
Q 429 717 521 787 
Q 614 858 723 858 
Q 838 858 928 781 
Q 1018 704 1018 563 
Q 1018 448 944 358 
Q 870 269 685 269 
Q 870 38 1312 38 
Q 1472 38 1632 112 
Q 1792 186 1965 365 
Q 2138 544 2243 921 
Q 2349 1299 2349 1830 
L 2349 2035 
Q 2093 1395 1549 1395 
Q 1011 1395 640 1808 
Q 269 2221 269 2822 
z
M 845 2816 
Q 845 2182 960 1946 
Q 1158 1542 1555 1542 
Q 1946 1542 2141 1891 
Q 2336 2240 2336 2694 
Q 2336 3322 2234 3597 
Q 2042 4102 1619 4102 
Q 1197 4102 979 3699 
Q 845 3462 845 2816 
z
" transform="scale(0.015625)"/>
       </defs>
       <use xlink:href="#CMUSerif-Roman-30"/>
       <use xlink:href="#CMUSerif-Roman-2e" x="49.999985"/>
       <use xlink:href="#CMUSerif-Roman-39" x="77.799973"/>
       <use xlink:href="#CMUSerif-Roman-30" x="127.799957"/>
      </g>
     </g>
    </g>
    <g id="ytick_2">
     <g id="line2d_7">
      <g>
       <use xlink:href="#mdd3d8662c5" x="53.027031" y="24.862833" style="fill: #262626; stroke: #262626; stroke-width: 0.8"/>
      </g>
     </g>
     <g id="text_2">
      <!-- 0.95 -->
      <g style="fill: #262626" transform="translate(26.469375 28.680177)scale(0.11 -0.11)">
       <defs>
        <path id="CMUSerif-Roman-35" d="M 320 1030 
Q 320 1222 422 1296 
Q 525 1370 634 1370 
Q 781 1370 867 1277 
Q 954 1184 954 1056 
Q 954 928 867 835 
Q 781 742 634 742 
Q 563 742 525 755 
Q 608 461 867 249 
Q 1126 38 1466 38 
Q 1894 38 2150 454 
Q 2304 723 2304 1331 
Q 2304 1869 2189 2138 
Q 2010 2547 1645 2547 
Q 1126 2547 819 2099 
Q 781 2042 736 2042 
Q 672 2042 659 2077 
Q 646 2112 646 2208 
L 646 4102 
Q 646 4256 710 4256 
Q 736 4256 787 4237 
Q 1190 4058 1638 4058 
Q 2099 4058 2509 4243 
Q 2541 4262 2560 4262 
Q 2624 4262 2624 4192 
Q 2624 4166 2573 4092 
Q 2522 4019 2413 3923 
Q 2304 3827 2163 3737 
Q 2022 3648 1817 3587 
Q 1613 3526 1389 3526 
Q 1120 3526 845 3610 
L 845 2362 
Q 1178 2688 1658 2688 
Q 2170 2688 2522 2275 
Q 2874 1862 2874 1286 
Q 2874 685 2458 272 
Q 2042 -141 1478 -141 
Q 966 -141 643 224 
Q 320 589 320 1030 
z
" transform="scale(0.015625)"/>
       </defs>
       <use xlink:href="#CMUSerif-Roman-30"/>
       <use xlink:href="#CMUSerif-Roman-2e" x="49.999985"/>
       <use xlink:href="#CMUSerif-Roman-39" x="77.799973"/>
       <use xlink:href="#CMUSerif-Roman-35" x="127.799957"/>
      </g>
     </g>
    </g>
    <g id="text_3">
     <!-- v -->
     <g style="fill: #262626" transform="translate(20.334688 40.718516)rotate(-90)scale(0.11 -0.11)">
      <defs>
       <path id="CMUSerif-Roman-76" d="M 122 2560 
L 122 2758 
Q 410 2739 742 2739 
Q 864 2739 1440 2758 
L 1440 2560 
Q 1075 2560 1075 2394 
Q 1075 2368 1114 2285 
L 1830 499 
L 2483 2131 
Q 2522 2240 2522 2285 
Q 2522 2394 2448 2474 
Q 2374 2554 2214 2560 
L 2214 2758 
Q 2541 2739 2771 2739 
Q 3034 2739 3251 2758 
L 3251 2560 
Q 3059 2560 2924 2473 
Q 2790 2387 2748 2313 
Q 2707 2240 2662 2131 
L 1824 51 
Q 1773 -70 1690 -70 
Q 1632 -70 1609 -48 
Q 1587 -26 1555 51 
L 634 2323 
Q 570 2483 490 2521 
Q 410 2560 122 2560 
z
" transform="scale(0.015625)"/>
      </defs>
      <use xlink:href="#CMUSerif-Roman-76"/>
     </g>
    </g>
   </g>
   <g id="patch_3">
    <path d="M 79.407659 54.805 
L 79.407659 20.834688 
L 99.925925 20.834688 
L 99.925925 54.805 
z
" clip-path="url(#pb81380fe99)" style="fill: #cd5c5c; opacity: 0.2; stroke: #ffffff; stroke-linejoin: miter"/>
   </g>
   <g id="patch_4">
    <path d="M 64.50749 54.805 
L 64.50749 20.834688 
L 79.407659 20.834688 
L 79.407659 54.805 
z
" clip-path="url(#pb81380fe99)" style="fill: #4682b4; opacity: 0.2; stroke: #ffffff; stroke-linejoin: miter"/>
   </g>
   <g id="patch_5">
    <path d="M 129.726263 54.805 
L 129.726263 20.834688 
L 147.069083 20.834688 
L 147.069083 54.805 
z
" clip-path="url(#pb81380fe99)" style="fill: #cd5c5c; opacity: 0.2; stroke: #ffffff; stroke-linejoin: miter"/>
   </g>
   <g id="patch_6">
    <path d="M 117.268744 54.805 
L 117.268744 20.834688 
L 129.726263 20.834688 
L 129.726263 54.805 
z
" clip-path="url(#pb81380fe99)" style="fill: #4682b4; opacity: 0.2; stroke: #ffffff; stroke-linejoin: miter"/>
   </g>
   <g id="patch_7">
    <path d="M 181.754723 54.805 
L 181.754723 20.834688 
L 198.364747 20.834688 
L 198.364747 54.805 
z
" clip-path="url(#pb81380fe99)" style="fill: #cd5c5c; opacity: 0.2; stroke: #ffffff; stroke-linejoin: miter"/>
   </g>
   <g id="patch_8">
    <path d="M 164.411903 54.805 
L 164.411903 20.834688 
L 181.754723 20.834688 
L 181.754723 54.805 
z
" clip-path="url(#pb81380fe99)" style="fill: #4682b4; opacity: 0.2; stroke: #ffffff; stroke-linejoin: miter"/>
   </g>
   <g id="patch_9">
    <path d="M 230.607737 54.805 
L 230.607737 20.834688 
L 246.973496 20.834688 
L 246.973496 54.805 
z
" clip-path="url(#pb81380fe99)" style="fill: #cd5c5c; opacity: 0.2; stroke: #ffffff; stroke-linejoin: miter"/>
   </g>
   <g id="patch_10">
    <path d="M 215.707567 54.805 
L 215.707567 20.834688 
L 230.607737 20.834688 
L 230.607737 54.805 
z
" clip-path="url(#pb81380fe99)" style="fill: #4682b4; opacity: 0.2; stroke: #ffffff; stroke-linejoin: miter"/>
   </g>
   <g id="patch_11">
    <path d="M 274.331184 54.805 
L 274.331184 20.834688 
L 288.498558 20.834688 
L 288.498558 54.805 
z
" clip-path="url(#pb81380fe99)" style="fill: #cd5c5c; opacity: 0.2; stroke: #ffffff; stroke-linejoin: miter"/>
   </g>
   <g id="patch_12">
    <path d="M 264.316316 54.805 
L 264.316316 20.834688 
L 274.331184 20.834688 
L 274.331184 54.805 
z
" clip-path="url(#pb81380fe99)" style="fill: #4682b4; opacity: 0.2; stroke: #ffffff; stroke-linejoin: miter"/>
   </g>
   <g id="line2d_8">
    <path d="M 64.263224 23.171346 
L 64.50749 23.090986 
L 64.751755 50.145443 
L 65.728815 44.574846 
L 66.705875 40.533924 
L 67.682935 37.410269 
L 68.659996 34.973983 
L 69.881321 32.562419 
L 70.858381 30.946816 
L 71.835442 29.660637 
L 73.301032 28.056381 
L 75.499418 26.186042 
L 76.965008 25.267709 
L 79.407659 24.097615 
L 79.651924 51.080171 
L 80.628984 45.743563 
L 81.606044 41.751465 
L 82.583105 38.598415 
L 83.80443 35.549237 
L 85.025755 33.128558 
L 86.247081 31.119318 
L 87.712671 29.138217 
L 89.422527 27.370568 
L 91.132382 25.99506 
L 92.597972 25.05699 
L 94.063563 24.261113 
L 95.040623 23.820999 
L 99.681659 22.442326 
L 99.925925 22.378793 
L 100.17019 49.484122 
L 101.14725 43.98048 
L 102.12431 39.884345 
L 103.10137 36.757239 
L 104.322696 33.81353 
L 105.544021 31.488232 
L 106.521081 30.027345 
L 107.986672 28.25222 
L 109.696527 26.642451 
L 111.894913 25.100861 
L 115.314624 23.490118 
L 117.268744 22.859408 
L 117.51301 49.930407 
L 118.245805 45.601566 
L 119.222865 41.21786 
L 120.199925 37.901822 
L 121.176986 35.321211 
L 122.398311 32.728891 
L 123.619636 30.704261 
L 124.596697 29.356409 
L 126.062287 27.728013 
L 128.260673 25.868713 
L 129.726263 24.930604 
L 129.970528 51.853661 
L 130.947588 46.393181 
L 131.924649 42.284656 
L 132.901709 39.057389 
L 133.878769 36.406452 
L 135.34436 33.201662 
L 136.565685 31.162445 
L 138.519805 28.574905 
L 139.985396 27.09317 
L 141.206721 26.089325 
L 142.672312 25.075785 
L 144.137902 24.279164 
L 147.069083 23.141624 
L 147.313348 50.192465 
L 148.046143 45.816451 
L 149.023203 41.363236 
L 150.000264 37.983815 
L 150.977324 35.339787 
L 152.198649 32.808963 
L 153.66424 30.353473 
L 154.6413 29.010527 
L 156.351156 27.20413 
L 157.572481 26.149351 
L 159.526601 24.772875 
L 161.236457 23.93475 
L 164.411903 22.806919 
L 164.656168 49.881668 
L 165.388963 45.541544 
L 166.366023 41.112038 
L 167.343084 37.774655 
L 168.320144 35.206552 
L 169.297204 33.106929 
L 170.51853 30.942292 
L 172.47265 28.343061 
L 174.426771 26.481974 
L 176.380891 25.0743 
L 177.846482 24.261862 
L 180.289132 23.262503 
L 181.754723 22.823489 
L 181.998988 49.897054 
L 182.976048 44.280922 
L 183.953108 40.1604 
L 184.930169 36.992351 
L 186.151494 34.01002 
L 187.128554 32.077272 
L 188.594145 29.776621 
L 189.81547 28.289987 
L 191.525325 26.610323 
L 192.990916 25.495069 
L 194.212241 24.770485 
L 197.387687 23.285453 
L 198.364747 22.957374 
L 198.609012 50.021376 
L 199.341808 45.715971 
L 200.318868 41.288984 
L 201.295928 37.90311 
L 202.272989 35.247618 
L 203.250049 33.161037 
L 204.471374 31.053093 
L 205.936965 28.999165 
L 206.914025 27.905184 
L 208.868145 26.17428 
L 210.578001 24.977176 
L 212.287856 24.066293 
L 215.707567 22.845027 
L 215.951832 49.917053 
L 216.928893 44.37743 
L 217.905953 40.27409 
L 218.883013 37.136615 
L 219.860073 34.659937 
L 221.081399 32.165204 
L 222.058459 30.552408 
L 223.279784 28.927084 
L 225.233905 26.935875 
L 227.432291 25.237456 
L 229.386411 24.148289 
L 230.607737 23.660692 
L 230.852002 50.674456 
L 231.829062 45.188051 
L 232.806122 41.038441 
L 233.783182 37.774762 
L 234.760243 35.202147 
L 236.225833 32.195299 
L 237.691424 29.914302 
L 239.401279 27.900403 
L 241.599665 25.921131 
L 242.82099 25.132549 
L 244.775111 24.07959 
L 246.973496 23.207535 
L 247.217761 50.253668 
L 248.194822 44.652551 
L 249.171882 40.547181 
L 250.148942 37.373932 
L 251.126002 34.822464 
L 252.103063 32.829798 
L 253.812918 30.035867 
L 255.522774 27.899679 
L 256.744099 26.69801 
L 257.965424 25.730334 
L 260.408075 24.2618 
L 261.873665 23.612209 
L 264.316316 22.837261 
L 264.560581 49.909842 
L 265.537641 44.349924 
L 266.514702 40.253829 
L 267.491762 37.136227 
L 268.468822 34.60697 
L 269.690148 32.13501 
L 271.400003 29.517138 
L 272.621328 28.06394 
L 273.842654 26.855165 
L 274.331184 26.446087 
L 274.575449 53.260895 
L 275.552509 47.670302 
L 276.52957 43.472174 
L 277.50663 40.068434 
L 278.727955 36.684857 
L 279.949281 33.940743 
L 281.659136 30.866627 
L 283.368991 28.613495 
L 284.834582 27.116631 
L 287.277233 25.196021 
L 288.742823 24.334044 
L 288.742823 24.334044 
" clip-path="url(#pb81380fe99)" style="fill: none; stroke: #808080; stroke-width: 1.5; stroke-linecap: round"/>
   </g>
   <g id="LineCollection_1">
    <path d="M 64.50749 53.260895 
L 64.50749 22.378793 
" clip-path="url(#pb81380fe99)" style="fill: none; stroke: #808080; stroke-opacity: 0.5; stroke-width: 1.5"/>
    <path d="M 79.407659 53.260895 
L 79.407659 22.378793 
" clip-path="url(#pb81380fe99)" style="fill: none; stroke: #808080; stroke-opacity: 0.5; stroke-width: 1.5"/>
    <path d="M 99.925925 53.260895 
L 99.925925 22.378793 
" clip-path="url(#pb81380fe99)" style="fill: none; stroke: #808080; stroke-opacity: 0.5; stroke-width: 1.5"/>
    <path d="M 117.268744 53.260895 
L 117.268744 22.378793 
" clip-path="url(#pb81380fe99)" style="fill: none; stroke: #808080; stroke-opacity: 0.5; stroke-width: 1.5"/>
    <path d="M 129.726263 53.260895 
L 129.726263 22.378793 
" clip-path="url(#pb81380fe99)" style="fill: none; stroke: #808080; stroke-opacity: 0.5; stroke-width: 1.5"/>
    <path d="M 147.069083 53.260895 
L 147.069083 22.378793 
" clip-path="url(#pb81380fe99)" style="fill: none; stroke: #808080; stroke-opacity: 0.5; stroke-width: 1.5"/>
    <path d="M 164.411903 53.260895 
L 164.411903 22.378793 
" clip-path="url(#pb81380fe99)" style="fill: none; stroke: #808080; stroke-opacity: 0.5; stroke-width: 1.5"/>
    <path d="M 181.754723 53.260895 
L 181.754723 22.378793 
" clip-path="url(#pb81380fe99)" style="fill: none; stroke: #808080; stroke-opacity: 0.5; stroke-width: 1.5"/>
    <path d="M 198.364747 53.260895 
L 198.364747 22.378793 
" clip-path="url(#pb81380fe99)" style="fill: none; stroke: #808080; stroke-opacity: 0.5; stroke-width: 1.5"/>
    <path d="M 215.707567 53.260895 
L 215.707567 22.378793 
" clip-path="url(#pb81380fe99)" style="fill: none; stroke: #808080; stroke-opacity: 0.5; stroke-width: 1.5"/>
    <path d="M 230.607737 53.260895 
L 230.607737 22.378793 
" clip-path="url(#pb81380fe99)" style="fill: none; stroke: #808080; stroke-opacity: 0.5; stroke-width: 1.5"/>
    <path d="M 246.973496 53.260895 
L 246.973496 22.378793 
" clip-path="url(#pb81380fe99)" style="fill: none; stroke: #808080; stroke-opacity: 0.5; stroke-width: 1.5"/>
    <path d="M 264.316316 53.260895 
L 264.316316 22.378793 
" clip-path="url(#pb81380fe99)" style="fill: none; stroke: #808080; stroke-opacity: 0.5; stroke-width: 1.5"/>
    <path d="M 274.331184 53.260895 
L 274.331184 22.378793 
" clip-path="url(#pb81380fe99)" style="fill: none; stroke: #808080; stroke-opacity: 0.5; stroke-width: 1.5"/>
    <path d="M 288.498558 53.260895 
L 288.498558 22.378793 
" clip-path="url(#pb81380fe99)" style="fill: none; stroke: #808080; stroke-opacity: 0.5; stroke-width: 1.5"/>
   </g>
   <g id="patch_13">
    <path d="M 53.027031 54.805 
L 53.027031 20.834688 
" style="fill: none; stroke: #262626; stroke-width: 0.8; stroke-linejoin: miter; stroke-linecap: square"/>
   </g>
   <g id="patch_14">
    <path d="M 53.027031 54.805 
L 300.223281 54.805 
" style="fill: none; stroke: #262626; stroke-width: 0.8; stroke-linejoin: miter; stroke-linecap: square"/>
   </g>
   <g id="text_4">
    <!-- Experiment -->
    <g style="fill: #262626" transform="translate(148.607812 14.834688)scale(0.11 -0.11)">
     <defs>
      <path id="CMUSerif-Roman-45" d="M 211 0 
L 211 198 
L 365 198 
Q 710 198 790 256 
Q 870 314 870 499 
L 870 3853 
Q 870 4038 790 4096 
Q 710 4154 365 4154 
L 211 4154 
L 211 4352 
L 3814 4352 
L 3994 2912 
L 3834 2912 
Q 3789 3277 3731 3488 
Q 3674 3699 3536 3862 
Q 3398 4026 3171 4090 
Q 2944 4154 2579 4154 
L 1754 4154 
Q 1536 4154 1488 4109 
Q 1440 4064 1440 3898 
L 1440 2362 
L 2016 2362 
Q 2458 2362 2582 2515 
Q 2707 2669 2707 3110 
L 2867 3110 
L 2867 1414 
L 2707 1414 
Q 2707 1850 2582 2006 
Q 2458 2163 2016 2163 
L 1440 2163 
L 1440 454 
Q 1440 288 1488 243 
Q 1536 198 1754 198 
L 2605 198 
Q 2880 198 3081 233 
Q 3283 269 3424 358 
Q 3565 448 3661 550 
Q 3757 653 3824 838 
Q 3891 1024 3929 1197 
Q 3968 1370 4013 1651 
L 4173 1651 
L 3904 0 
L 211 0 
z
" transform="scale(0.015625)"/>
      <path id="CMUSerif-Roman-78" d="M 77 0 
L 77 198 
Q 576 198 896 582 
Q 896 582 1498 1344 
L 864 2170 
Q 640 2458 541 2509 
Q 442 2560 109 2560 
L 109 2758 
Q 371 2739 717 2739 
Q 909 2739 1408 2758 
L 1408 2560 
Q 1184 2547 1184 2400 
Q 1184 2349 1242 2285 
L 1741 1638 
L 2138 2138 
Q 2234 2253 2234 2362 
Q 2234 2541 2048 2560 
L 2048 2758 
Q 2298 2739 2662 2739 
Q 2938 2739 3187 2758 
L 3187 2560 
Q 2701 2547 2426 2227 
Q 2304 2093 1837 1504 
L 2694 397 
Q 2797 262 2912 230 
Q 3027 198 3302 198 
L 3302 0 
Q 3014 19 2688 19 
Q 2573 19 1997 0 
L 1997 198 
Q 2112 205 2169 256 
Q 2227 307 2227 358 
Q 2227 384 2093 570 
L 1606 1210 
Q 1120 634 1056 499 
Q 1030 442 1030 397 
Q 1030 224 1216 198 
L 1216 0 
Q 755 19 608 19 
Q 326 19 77 0 
z
" transform="scale(0.015625)"/>
      <path id="CMUSerif-Roman-70" d="M 179 -1043 
Q 518 -1043 598 -1001 
Q 678 -960 678 -755 
L 678 2240 
Q 678 2451 598 2505 
Q 518 2560 179 2560 
L 179 2758 
L 1101 2829 
L 1101 2406 
Q 1485 2829 1997 2829 
Q 2541 2829 2937 2406 
Q 3334 1984 3334 1382 
Q 3334 774 2912 352 
Q 2490 -70 1907 -70 
Q 1587 -70 1372 93 
Q 1158 256 1120 378 
L 1120 320 
L 1120 -755 
Q 1120 -960 1200 -1001 
Q 1280 -1043 1619 -1043 
L 1619 -1242 
Q 947 -1222 896 -1222 
Q 832 -1222 179 -1242 
L 179 -1043 
z
M 1120 730 
Q 1120 634 1133 598 
Q 1146 563 1210 461 
Q 1466 70 1882 70 
Q 2246 70 2524 444 
Q 2803 819 2803 1382 
Q 2803 1920 2550 2294 
Q 2298 2669 1946 2669 
Q 1696 2669 1478 2534 
Q 1261 2400 1120 2157 
L 1120 730 
z
" transform="scale(0.015625)"/>
      <path id="CMUSerif-Roman-65" d="M 179 1408 
Q 179 2010 566 2438 
Q 954 2867 1510 2867 
Q 2074 2867 2365 2502 
Q 2656 2138 2656 1613 
Q 2656 1517 2630 1497 
Q 2605 1478 2496 1478 
L 710 1478 
Q 710 826 902 518 
Q 1171 90 1626 90 
Q 1690 90 1763 102 
Q 1837 115 1990 169 
Q 2144 224 2278 371 
Q 2413 518 2490 749 
Q 2509 838 2573 838 
Q 2656 838 2656 762 
Q 2656 704 2595 579 
Q 2534 454 2419 304 
Q 2304 154 2080 42 
Q 1856 -70 1587 -70 
Q 1024 -70 601 355 
Q 179 781 179 1408 
z
M 717 1613 
L 2234 1613 
Q 2234 1747 2211 1897 
Q 2189 2048 2121 2256 
Q 2054 2464 1897 2595 
Q 1741 2726 1510 2726 
Q 1408 2726 1296 2681 
Q 1184 2637 1049 2531 
Q 915 2426 822 2186 
Q 730 1946 717 1613 
z
" transform="scale(0.015625)"/>
      <path id="CMUSerif-Roman-72" d="M 179 0 
L 179 198 
Q 518 198 598 240 
Q 678 282 678 486 
L 678 2202 
Q 678 2438 595 2499 
Q 512 2560 179 2560 
L 179 2758 
L 1069 2829 
L 1069 2125 
Q 1158 2400 1350 2614 
Q 1542 2829 1856 2829 
Q 2061 2829 2195 2713 
Q 2330 2598 2330 2438 
Q 2330 2298 2243 2227 
Q 2157 2157 2054 2157 
Q 1939 2157 1859 2230 
Q 1779 2304 1779 2432 
Q 1779 2509 1814 2569 
Q 1850 2630 1878 2652 
Q 1907 2675 1926 2682 
Q 1914 2688 1856 2688 
Q 1504 2688 1302 2336 
Q 1101 1984 1101 1485 
L 1101 499 
Q 1101 314 1177 256 
Q 1254 198 1587 198 
L 1722 198 
L 1722 0 
Q 1466 19 909 19 
Q 832 19 710 16 
Q 589 13 429 6 
Q 269 0 179 0 
z
" transform="scale(0.015625)"/>
      <path id="CMUSerif-Roman-69" d="M 211 0 
L 211 198 
Q 550 198 630 240 
Q 710 282 710 486 
L 710 2208 
Q 710 2445 630 2502 
Q 550 2560 237 2560 
L 237 2758 
L 1133 2829 
L 1133 480 
Q 1133 288 1200 243 
Q 1267 198 1581 198 
L 1581 0 
Q 928 19 915 19 
Q 826 19 211 0 
z
M 480 3942 
Q 480 4070 579 4176 
Q 678 4282 819 4282 
Q 960 4282 1059 4186 
Q 1158 4090 1158 3942 
Q 1158 3795 1059 3699 
Q 960 3603 819 3603 
Q 672 3603 576 3705 
Q 480 3808 480 3942 
z
" transform="scale(0.015625)"/>
      <path id="CMUSerif-Roman-6d" d="M 205 0 
L 205 198 
Q 544 198 624 240 
Q 704 282 704 486 
L 704 2202 
Q 704 2438 621 2499 
Q 538 2560 205 2560 
L 205 2758 
L 1107 2829 
L 1107 2157 
Q 1408 2829 2054 2829 
Q 2803 2829 2906 2202 
Q 3014 2445 3244 2637 
Q 3475 2829 3834 2829 
Q 4314 2829 4506 2592 
Q 4646 2432 4675 2253 
Q 4704 2074 4704 1613 
L 4704 390 
Q 4710 256 4812 227 
Q 4915 198 5203 198 
L 5203 0 
Q 4550 19 4486 19 
Q 4435 19 3763 0 
L 3763 198 
Q 4102 198 4182 240 
Q 4262 282 4262 486 
L 4262 1978 
Q 4262 2304 4163 2496 
Q 4064 2688 3789 2688 
Q 3456 2688 3190 2409 
Q 2925 2131 2925 1664 
L 2925 486 
Q 2925 282 3005 240 
Q 3085 198 3424 198 
L 3424 0 
Q 2771 19 2707 19 
Q 2656 19 1984 0 
L 1984 198 
Q 2323 198 2403 240 
Q 2483 282 2483 486 
L 2483 1978 
Q 2483 2304 2384 2496 
Q 2285 2688 2010 2688 
Q 1677 2688 1411 2409 
Q 1146 2131 1146 1664 
L 1146 486 
Q 1146 282 1226 240 
Q 1306 198 1645 198 
L 1645 0 
Q 992 19 928 19 
Q 877 19 205 0 
z
" transform="scale(0.015625)"/>
      <path id="CMUSerif-Roman-6e" d="M 205 0 
L 205 198 
Q 544 198 624 240 
Q 704 282 704 486 
L 704 2202 
Q 704 2438 621 2499 
Q 538 2560 205 2560 
L 205 2758 
L 1107 2829 
L 1107 2157 
Q 1408 2829 2054 2829 
Q 2534 2829 2726 2592 
Q 2867 2432 2896 2253 
Q 2925 2074 2925 1613 
L 2925 390 
Q 2931 256 3033 227 
Q 3136 198 3424 198 
L 3424 0 
Q 2771 19 2707 19 
Q 2656 19 1984 0 
L 1984 198 
Q 2323 198 2403 240 
Q 2483 282 2483 486 
L 2483 1978 
Q 2483 2304 2384 2496 
Q 2285 2688 2010 2688 
Q 1677 2688 1411 2409 
Q 1146 2131 1146 1664 
L 1146 486 
Q 1146 282 1226 240 
Q 1306 198 1645 198 
L 1645 0 
Q 992 19 928 19 
Q 877 19 205 0 
z
" transform="scale(0.015625)"/>
      <path id="CMUSerif-Roman-74" d="M 122 2560 
L 122 2701 
Q 416 2714 611 2922 
Q 806 3130 873 3386 
Q 941 3642 947 3936 
L 1107 3936 
L 1107 2758 
L 2022 2758 
L 2022 2560 
L 1107 2560 
L 1107 781 
Q 1107 90 1536 90 
Q 1722 90 1843 278 
Q 1965 467 1965 806 
L 1965 1158 
L 2125 1158 
L 2125 794 
Q 2125 448 1965 189 
Q 1805 -70 1491 -70 
Q 1376 -70 1261 -41 
Q 1146 -13 998 64 
Q 851 141 758 329 
Q 666 518 666 794 
L 666 2560 
L 122 2560 
z
" transform="scale(0.015625)"/>
     </defs>
     <use xlink:href="#CMUSerif-Roman-45"/>
     <use xlink:href="#CMUSerif-Roman-78" x="67.999985"/>
     <use xlink:href="#CMUSerif-Roman-70" x="120.699982"/>
     <use xlink:href="#CMUSerif-Roman-65" x="176.199966"/>
     <use xlink:href="#CMUSerif-Roman-72" x="220.59996"/>
     <use xlink:href="#CMUSerif-Roman-69" x="259.699951"/>
     <use xlink:href="#CMUSerif-Roman-6d" x="287.399948"/>
     <use xlink:href="#CMUSerif-Roman-65" x="370.699936"/>
     <use xlink:href="#CMUSerif-Roman-6e" x="415.09993"/>
     <use xlink:href="#CMUSerif-Roman-74" x="470.599915"/>
    </g>
   </g>
  </g>
  <g id="axes_2">
   <g id="patch_15">
    <path d="M 53.027031 104.155312 
L 300.223281 104.155312 
L 300.223281 70.185 
L 53.027031 70.185 
z
" style="fill: #ffffff"/>
   </g>
   <g id="matplotlib.axis_3">
    <g id="xtick_6">
     <g id="line2d_9">
      <g>
       <use xlink:href="#me6b143ba1a" x="64.263224" y="104.155312" style="fill: #262626; stroke: #262626; stroke-width: 0.8"/>
      </g>
     </g>
    </g>
    <g id="xtick_7">
     <g id="line2d_10">
      <g>
       <use xlink:href="#me6b143ba1a" x="113.116238" y="104.155312" style="fill: #262626; stroke: #262626; stroke-width: 0.8"/>
      </g>
     </g>
    </g>
    <g id="xtick_8">
     <g id="line2d_11">
      <g>
       <use xlink:href="#me6b143ba1a" x="161.969252" y="104.155312" style="fill: #262626; stroke: #262626; stroke-width: 0.8"/>
      </g>
     </g>
    </g>
    <g id="xtick_9">
     <g id="line2d_12">
      <g>
       <use xlink:href="#me6b143ba1a" x="210.822266" y="104.155312" style="fill: #262626; stroke: #262626; stroke-width: 0.8"/>
      </g>
     </g>
    </g>
    <g id="xtick_10">
     <g id="line2d_13">
      <g>
       <use xlink:href="#me6b143ba1a" x="259.67528" y="104.155312" style="fill: #262626; stroke: #262626; stroke-width: 0.8"/>
      </g>
     </g>
    </g>
   </g>
   <g id="matplotlib.axis_4">
    <g id="ytick_3">
     <g id="line2d_14">
      <g>
       <use xlink:href="#mdd3d8662c5" x="53.027031" y="97.191089" style="fill: #262626; stroke: #262626; stroke-width: 0.8"/>
      </g>
     </g>
     <g id="text_5">
      <!-- 0.25 -->
      <g style="fill: #262626" transform="translate(26.469375 101.008433)scale(0.11 -0.11)">
       <defs>
        <path id="CMUSerif-Roman-32" d="M 320 0 
Q 320 115 329 150 
Q 339 186 390 237 
L 1619 1606 
Q 2291 2362 2291 3021 
Q 2291 3450 2067 3757 
Q 1843 4064 1434 4064 
Q 1152 4064 915 3891 
Q 678 3718 570 3411 
Q 589 3418 653 3418 
Q 813 3418 902 3318 
Q 992 3219 992 3085 
Q 992 2912 880 2829 
Q 768 2746 659 2746 
Q 614 2746 556 2755 
Q 499 2765 409 2854 
Q 320 2944 320 3104 
Q 320 3552 659 3907 
Q 998 4262 1517 4262 
Q 2106 4262 2490 3913 
Q 2874 3565 2874 3021 
Q 2874 2829 2816 2656 
Q 2758 2483 2681 2348 
Q 2605 2214 2400 2000 
Q 2195 1786 2028 1632 
Q 1862 1478 1491 1152 
L 813 493 
L 1965 493 
Q 2528 493 2573 544 
Q 2637 634 2714 1114 
L 2874 1114 
L 2694 0 
L 320 0 
z
" transform="scale(0.015625)"/>
       </defs>
       <use xlink:href="#CMUSerif-Roman-30"/>
       <use xlink:href="#CMUSerif-Roman-2e" x="49.999985"/>
       <use xlink:href="#CMUSerif-Roman-32" x="77.799973"/>
       <use xlink:href="#CMUSerif-Roman-35" x="127.799957"/>
      </g>
     </g>
    </g>
    <g id="ytick_4">
     <g id="line2d_15">
      <g>
       <use xlink:href="#mdd3d8662c5" x="53.027031" y="78.9881" style="fill: #262626; stroke: #262626; stroke-width: 0.8"/>
      </g>
     </g>
     <g id="text_6">
      <!-- 0.30 -->
      <g style="fill: #262626" transform="translate(26.469375 82.805444)scale(0.11 -0.11)">
       <defs>
        <path id="CMUSerif-Roman-33" d="M 269 864 
Q 269 1056 377 1145 
Q 486 1235 627 1235 
Q 774 1235 880 1139 
Q 986 1043 986 877 
Q 986 698 861 598 
Q 736 499 563 525 
Q 717 269 998 153 
Q 1280 38 1542 38 
Q 1818 38 2042 275 
Q 2266 512 2266 1094 
Q 2266 1587 2074 1872 
Q 1882 2157 1504 2157 
L 1222 2157 
Q 1126 2157 1097 2166 
Q 1069 2176 1069 2227 
Q 1069 2291 1165 2304 
Q 1261 2304 1414 2323 
Q 1786 2336 1984 2656 
Q 2163 2957 2163 3386 
Q 2163 3776 1977 3939 
Q 1792 4102 1549 4102 
Q 1325 4102 1078 4009 
Q 832 3917 698 3706 
Q 1094 3706 1094 3386 
Q 1094 3245 1004 3152 
Q 915 3059 768 3059 
Q 627 3059 534 3148 
Q 442 3238 442 3392 
Q 442 3757 768 4009 
Q 1094 4262 1574 4262 
Q 2048 4262 2400 4012 
Q 2752 3763 2752 3379 
Q 2752 3002 2502 2691 
Q 2253 2381 1856 2253 
Q 2342 2157 2633 1827 
Q 2925 1498 2925 1094 
Q 2925 595 2531 227 
Q 2138 -141 1562 -141 
Q 1030 -141 649 147 
Q 269 435 269 864 
z
" transform="scale(0.015625)"/>
       </defs>
       <use xlink:href="#CMUSerif-Roman-30"/>
       <use xlink:href="#CMUSerif-Roman-2e" x="49.999985"/>
       <use xlink:href="#CMUSerif-Roman-33" x="77.799973"/>
       <use xlink:href="#CMUSerif-Roman-30" x="127.799957"/>
      </g>
     </g>
    </g>
   </g>
   <g id="patch_16">
    <path d="M 79.407659 104.155312 
L 79.407659 70.185 
L 99.925925 70.185 
L 99.925925 104.155312 
z
" clip-path="url(#pc45714cf8b)" style="fill: #cd5c5c; opacity: 0.2; stroke: #ffffff; stroke-linejoin: miter"/>
   </g>
   <g id="patch_17">
    <path d="M 64.50749 104.155312 
L 64.50749 70.185 
L 79.407659 70.185 
L 79.407659 104.155312 
z
" clip-path="url(#pc45714cf8b)" style="fill: #4682b4; opacity: 0.2; stroke: #ffffff; stroke-linejoin: miter"/>
   </g>
   <g id="patch_18">
    <path d="M 129.726263 104.155312 
L 129.726263 70.185 
L 147.069083 70.185 
L 147.069083 104.155312 
z
" clip-path="url(#pc45714cf8b)" style="fill: #cd5c5c; opacity: 0.2; stroke: #ffffff; stroke-linejoin: miter"/>
   </g>
   <g id="patch_19">
    <path d="M 117.268744 104.155312 
L 117.268744 70.185 
L 129.726263 70.185 
L 129.726263 104.155312 
z
" clip-path="url(#pc45714cf8b)" style="fill: #4682b4; opacity: 0.2; stroke: #ffffff; stroke-linejoin: miter"/>
   </g>
   <g id="patch_20">
    <path d="M 181.754723 104.155312 
L 181.754723 70.185 
L 198.364747 70.185 
L 198.364747 104.155312 
z
" clip-path="url(#pc45714cf8b)" style="fill: #cd5c5c; opacity: 0.2; stroke: #ffffff; stroke-linejoin: miter"/>
   </g>
   <g id="patch_21">
    <path d="M 164.411903 104.155312 
L 164.411903 70.185 
L 181.754723 70.185 
L 181.754723 104.155312 
z
" clip-path="url(#pc45714cf8b)" style="fill: #4682b4; opacity: 0.2; stroke: #ffffff; stroke-linejoin: miter"/>
   </g>
   <g id="patch_22">
    <path d="M 230.607737 104.155312 
L 230.607737 70.185 
L 246.973496 70.185 
L 246.973496 104.155312 
z
" clip-path="url(#pc45714cf8b)" style="fill: #cd5c5c; opacity: 0.2; stroke: #ffffff; stroke-linejoin: miter"/>
   </g>
   <g id="patch_23">
    <path d="M 215.707567 104.155312 
L 215.707567 70.185 
L 230.607737 70.185 
L 230.607737 104.155312 
z
" clip-path="url(#pc45714cf8b)" style="fill: #4682b4; opacity: 0.2; stroke: #ffffff; stroke-linejoin: miter"/>
   </g>
   <g id="patch_24">
    <path d="M 274.331184 104.155312 
L 274.331184 70.185 
L 288.498558 70.185 
L 288.498558 104.155312 
z
" clip-path="url(#pc45714cf8b)" style="fill: #cd5c5c; opacity: 0.2; stroke: #ffffff; stroke-linejoin: miter"/>
   </g>
   <g id="patch_25">
    <path d="M 264.316316 104.155312 
L 264.316316 70.185 
L 274.331184 70.185 
L 274.331184 104.155312 
z
" clip-path="url(#pc45714cf8b)" style="fill: #4682b4; opacity: 0.2; stroke: #ffffff; stroke-linejoin: miter"/>
   </g>
   <g id="line2d_16">
    <path d="M 64.263224 92.760039 
L 64.50749 92.848308 
L 64.751755 73.655304 
L 65.240285 72.836282 
L 65.728815 72.423922 
L 66.217345 72.339755 
L 66.95014 72.816299 
L 68.415731 75.098414 
L 69.148526 76.533684 
L 70.125586 78.628563 
L 70.369851 78.989603 
L 71.102646 80.612757 
L 74.033827 85.56185 
L 76.720743 88.869163 
L 78.919129 90.656794 
L 79.407659 91.05084 
L 79.651924 71.986227 
L 79.896189 71.780281 
L 80.384719 71.767806 
L 80.628984 71.868977 
L 81.117514 72.442356 
L 82.33884 74.765512 
L 84.537225 80.027237 
L 87.712671 86.774843 
L 89.911057 90.387615 
L 90.888117 91.801076 
L 92.109442 93.186764 
L 93.086503 94.258237 
L 94.063563 95.013659 
L 95.284888 96.128605 
L 96.506214 96.832191 
L 97.239009 97.152428 
L 98.216069 97.70841 
L 98.704599 98.04799 
L 99.193129 98.259855 
L 99.925925 98.500156 
L 100.17019 78.903449 
L 100.65872 78.076754 
L 101.14725 77.7972 
L 101.391515 77.819318 
L 102.12431 78.277468 
L 103.345635 79.962366 
L 104.566961 82.472608 
L 107.498142 87.803359 
L 108.475202 89.29506 
L 109.207997 90.296194 
L 110.185057 91.664458 
L 113.604768 95.269231 
L 115.070359 96.315927 
L 117.024479 97.529633 
L 117.268744 97.68333 
L 117.51301 78.144968 
L 118.00154 77.169193 
L 118.49007 76.860358 
L 118.9786 76.957501 
L 119.711395 77.706091 
L 120.688455 79.08488 
L 122.886841 83.474394 
L 124.352431 86.201637 
L 126.306552 89.483894 
L 127.283612 90.880053 
L 129.481998 93.610843 
L 129.726263 93.857991 
L 129.970528 74.592867 
L 130.459058 74.482386 
L 130.703323 74.525737 
L 131.191853 74.933503 
L 131.680384 75.65954 
L 132.657444 77.592039 
L 133.390239 79.437412 
L 134.855829 83.110943 
L 135.83289 85.392729 
L 139.741131 92.973924 
L 141.450986 95.199734 
L 141.939516 95.944266 
L 143.893637 97.835412 
L 145.603492 99.185586 
L 147.069083 100.159581 
L 147.313348 80.444344 
L 147.557613 79.898294 
L 148.046143 79.588655 
L 148.534673 79.62627 
L 149.023203 80.036706 
L 150.488794 82.113127 
L 154.6413 90.441715 
L 155.61836 92.091194 
L 157.083951 94.354215 
L 159.526601 97.32387 
L 160.747927 98.386634 
L 161.236457 98.855665 
L 161.969252 99.371713 
L 163.923373 100.630375 
L 164.411903 100.780924 
L 164.656168 81.021305 
L 165.144698 80.227083 
L 165.633228 80.034989 
L 165.877493 80.046644 
L 166.854553 81.051515 
L 167.587349 82.031215 
L 169.052939 84.750977 
L 171.98412 90.708614 
L 174.182506 94.053652 
L 176.380891 96.832311 
L 180.044867 99.885713 
L 181.266193 100.618251 
L 181.754723 100.795641 
L 181.998988 81.034971 
L 182.487518 80.137244 
L 182.976048 79.855918 
L 183.464578 79.974736 
L 183.953108 80.392714 
L 185.174434 82.315406 
L 185.907229 83.6845 
L 186.884289 85.508897 
L 189.082675 89.827443 
L 190.059735 91.52732 
L 191.036795 93.12015 
L 194.212241 96.860417 
L 197.631952 99.637233 
L 198.364747 100.058734 
L 198.609012 80.3507 
L 199.341808 79.428367 
L 200.074603 79.481603 
L 200.318868 79.577062 
L 201.295928 80.964566 
L 202.272989 82.76557 
L 204.471374 87.045933 
L 206.914025 91.477951 
L 207.402555 92.295975 
L 208.379615 93.634472 
L 210.578001 96.437288 
L 214.730507 99.657041 
L 215.463302 99.954471 
L 215.707567 100.084967 
L 215.951832 80.375059 
L 216.440363 79.651735 
L 216.928893 79.354473 
L 217.417423 79.459168 
L 218.394483 80.618968 
L 219.127278 81.869712 
L 221.081399 85.687964 
L 222.302724 88.087366 
L 224.98964 92.597068 
L 225.9667 94.055727 
L 227.432291 95.800368 
L 230.119206 98.174278 
L 230.363471 98.266325 
L 230.607737 98.489204 
L 230.852002 78.893279 
L 231.340532 78.405208 
L 231.829062 78.454484 
L 232.317592 78.871388 
L 233.294652 80.479412 
L 233.783182 81.247232 
L 236.225833 86.669087 
L 238.424219 90.887465 
L 241.599665 95.713713 
L 244.28658 98.699459 
L 244.775111 98.976948 
L 245.996436 99.877826 
L 246.240701 99.97236 
L 246.973496 100.611989 
L 247.217761 80.864437 
L 247.706291 80.172897 
L 248.194822 79.932867 
L 248.927617 80.359798 
L 249.416147 80.926183 
L 250.393207 82.660289 
L 256.011304 93.595227 
L 257.721159 95.985379 
L 258.209689 96.482724 
L 261.14087 99.434824 
L 261.385135 99.54629 
L 261.873665 99.927252 
L 264.072051 101.233372 
L 264.316316 101.344846 
L 264.560581 81.544947 
L 265.293376 80.530019 
L 265.781906 80.571363 
L 266.514702 81.161633 
L 267.247497 82.338314 
L 267.736027 83.111837 
L 271.888533 91.125978 
L 272.377063 91.890911 
L 273.354124 93.448199 
L 274.331184 94.876953 
L 274.575449 75.539046 
L 275.063979 75.828873 
L 275.552509 76.382204 
L 276.285304 77.680955 
L 277.0181 79.665985 
L 279.46075 86.342026 
L 283.124726 94.908507 
L 284.590317 97.505499 
L 286.300172 100.044324 
L 288.742823 102.611207 
L 288.742823 102.611207 
" clip-path="url(#pc45714cf8b)" style="fill: none; stroke: #808080; stroke-width: 1.5; stroke-linecap: round"/>
   </g>
   <g id="LineCollection_2">
    <path d="M 64.50749 102.611207 
L 64.50749 71.729105 
" clip-path="url(#pc45714cf8b)" style="fill: none; stroke: #808080; stroke-opacity: 0.5; stroke-width: 1.5"/>
    <path d="M 79.407659 102.611207 
L 79.407659 71.729105 
" clip-path="url(#pc45714cf8b)" style="fill: none; stroke: #808080; stroke-opacity: 0.5; stroke-width: 1.5"/>
    <path d="M 99.925925 102.611207 
L 99.925925 71.729105 
" clip-path="url(#pc45714cf8b)" style="fill: none; stroke: #808080; stroke-opacity: 0.5; stroke-width: 1.5"/>
    <path d="M 117.268744 102.611207 
L 117.268744 71.729105 
" clip-path="url(#pc45714cf8b)" style="fill: none; stroke: #808080; stroke-opacity: 0.5; stroke-width: 1.5"/>
    <path d="M 129.726263 102.611207 
L 129.726263 71.729105 
" clip-path="url(#pc45714cf8b)" style="fill: none; stroke: #808080; stroke-opacity: 0.5; stroke-width: 1.5"/>
    <path d="M 147.069083 102.611207 
L 147.069083 71.729105 
" clip-path="url(#pc45714cf8b)" style="fill: none; stroke: #808080; stroke-opacity: 0.5; stroke-width: 1.5"/>
    <path d="M 164.411903 102.611207 
L 164.411903 71.729105 
" clip-path="url(#pc45714cf8b)" style="fill: none; stroke: #808080; stroke-opacity: 0.5; stroke-width: 1.5"/>
    <path d="M 181.754723 102.611207 
L 181.754723 71.729105 
" clip-path="url(#pc45714cf8b)" style="fill: none; stroke: #808080; stroke-opacity: 0.5; stroke-width: 1.5"/>
    <path d="M 198.364747 102.611207 
L 198.364747 71.729105 
" clip-path="url(#pc45714cf8b)" style="fill: none; stroke: #808080; stroke-opacity: 0.5; stroke-width: 1.5"/>
    <path d="M 215.707567 102.611207 
L 215.707567 71.729105 
" clip-path="url(#pc45714cf8b)" style="fill: none; stroke: #808080; stroke-opacity: 0.5; stroke-width: 1.5"/>
    <path d="M 230.607737 102.611207 
L 230.607737 71.729105 
" clip-path="url(#pc45714cf8b)" style="fill: none; stroke: #808080; stroke-opacity: 0.5; stroke-width: 1.5"/>
    <path d="M 246.973496 102.611207 
L 246.973496 71.729105 
" clip-path="url(#pc45714cf8b)" style="fill: none; stroke: #808080; stroke-opacity: 0.5; stroke-width: 1.5"/>
    <path d="M 264.316316 102.611207 
L 264.316316 71.729105 
" clip-path="url(#pc45714cf8b)" style="fill: none; stroke: #808080; stroke-opacity: 0.5; stroke-width: 1.5"/>
    <path d="M 274.331184 102.611207 
L 274.331184 71.729105 
" clip-path="url(#pc45714cf8b)" style="fill: none; stroke: #808080; stroke-opacity: 0.5; stroke-width: 1.5"/>
    <path d="M 288.498558 102.611207 
L 288.498558 71.729105 
" clip-path="url(#pc45714cf8b)" style="fill: none; stroke: #808080; stroke-opacity: 0.5; stroke-width: 1.5"/>
   </g>
   <g id="patch_26">
    <path d="M 53.027031 104.155312 
L 53.027031 70.185 
" style="fill: none; stroke: #262626; stroke-width: 0.8; stroke-linejoin: miter; stroke-linecap: square"/>
   </g>
   <g id="patch_27">
    <path d="M 53.027031 104.155312 
L 300.223281 104.155312 
" style="fill: none; stroke: #262626; stroke-width: 0.8; stroke-linejoin: miter; stroke-linecap: square"/>
   </g>
  </g>
  <g id="axes_3">
   <g id="patch_28">
    <path d="M 53.027031 153.505625 
L 300.223281 153.505625 
L 300.223281 119.535313 
L 53.027031 119.535313 
z
" style="fill: #ffffff"/>
   </g>
   <g id="matplotlib.axis_5">
    <g id="xtick_11">
     <g id="line2d_17">
      <g>
       <use xlink:href="#me6b143ba1a" x="64.263224" y="153.505625" style="fill: #262626; stroke: #262626; stroke-width: 0.8"/>
      </g>
     </g>
    </g>
    <g id="xtick_12">
     <g id="line2d_18">
      <g>
       <use xlink:href="#me6b143ba1a" x="113.116238" y="153.505625" style="fill: #262626; stroke: #262626; stroke-width: 0.8"/>
      </g>
     </g>
    </g>
    <g id="xtick_13">
     <g id="line2d_19">
      <g>
       <use xlink:href="#me6b143ba1a" x="161.969252" y="153.505625" style="fill: #262626; stroke: #262626; stroke-width: 0.8"/>
      </g>
     </g>
    </g>
    <g id="xtick_14">
     <g id="line2d_20">
      <g>
       <use xlink:href="#me6b143ba1a" x="210.822266" y="153.505625" style="fill: #262626; stroke: #262626; stroke-width: 0.8"/>
      </g>
     </g>
    </g>
    <g id="xtick_15">
     <g id="line2d_21">
      <g>
       <use xlink:href="#me6b143ba1a" x="259.67528" y="153.505625" style="fill: #262626; stroke: #262626; stroke-width: 0.8"/>
      </g>
     </g>
    </g>
   </g>
   <g id="matplotlib.axis_6">
    <g id="ytick_5">
     <g id="line2d_22">
      <g>
       <use xlink:href="#mdd3d8662c5" x="53.027031" y="145.258929" style="fill: #262626; stroke: #262626; stroke-width: 0.8"/>
      </g>
     </g>
     <g id="text_7">
      <!-- 0.65 -->
      <g style="fill: #262626" transform="translate(26.469375 149.076273)scale(0.11 -0.11)">
       <defs>
        <path id="CMUSerif-Roman-36" d="M 269 2022 
Q 269 3027 781 3644 
Q 1293 4262 1952 4262 
Q 2336 4262 2550 4067 
Q 2765 3872 2765 3571 
Q 2765 3405 2669 3334 
Q 2573 3264 2470 3264 
Q 2355 3264 2265 3341 
Q 2176 3418 2176 3558 
Q 2176 3846 2528 3846 
Q 2362 4102 1965 4102 
Q 1843 4102 1718 4067 
Q 1594 4032 1430 3913 
Q 1267 3795 1142 3606 
Q 1018 3418 931 3066 
Q 845 2714 845 2253 
L 845 2099 
Q 1107 2733 1644 2733 
Q 2182 2733 2553 2323 
Q 2925 1914 2925 1306 
Q 2925 685 2537 272 
Q 2150 -141 1606 -141 
Q 1363 -141 1142 -38 
Q 922 64 717 294 
Q 512 525 390 969 
Q 269 1414 269 2022 
z
M 858 1446 
Q 858 819 973 518 
Q 992 467 1033 400 
Q 1075 333 1148 243 
Q 1222 154 1344 96 
Q 1466 38 1606 38 
Q 2035 38 2240 454 
Q 2349 685 2349 1312 
Q 2349 1952 2234 2189 
Q 2035 2586 1638 2586 
Q 1370 2586 1184 2400 
Q 998 2214 928 1968 
Q 858 1722 858 1446 
z
" transform="scale(0.015625)"/>
       </defs>
       <use xlink:href="#CMUSerif-Roman-30"/>
       <use xlink:href="#CMUSerif-Roman-2e" x="49.999985"/>
       <use xlink:href="#CMUSerif-Roman-36" x="77.799973"/>
       <use xlink:href="#CMUSerif-Roman-35" x="127.799957"/>
      </g>
     </g>
    </g>
    <g id="ytick_6">
     <g id="line2d_23">
      <g>
       <use xlink:href="#mdd3d8662c5" x="53.027031" y="135.58453" style="fill: #262626; stroke: #262626; stroke-width: 0.8"/>
      </g>
     </g>
     <g id="text_8">
      <!-- 0.70 -->
      <g style="fill: #262626" transform="translate(26.469375 139.401874)scale(0.11 -0.11)">
       <defs>
        <path id="CMUSerif-Roman-37" d="M 358 3008 
L 570 4326 
L 730 4326 
Q 749 4250 781 4214 
Q 813 4179 995 4150 
Q 1178 4122 1549 4122 
L 3104 4122 
Q 3104 3974 3046 3898 
L 2182 2682 
Q 1907 2298 1786 1587 
Q 1715 1114 1715 538 
L 1715 211 
Q 1715 -141 1420 -141 
Q 1126 -141 1126 211 
Q 1126 1434 1914 2618 
Q 1997 2739 2307 3174 
Q 2618 3610 2630 3629 
L 1306 3629 
Q 723 3629 678 3590 
Q 614 3533 518 3008 
L 358 3008 
z
" transform="scale(0.015625)"/>
       </defs>
       <use xlink:href="#CMUSerif-Roman-30"/>
       <use xlink:href="#CMUSerif-Roman-2e" x="49.999985"/>
       <use xlink:href="#CMUSerif-Roman-37" x="77.799973"/>
       <use xlink:href="#CMUSerif-Roman-30" x="127.799957"/>
      </g>
     </g>
    </g>
    <g id="ytick_7">
     <g id="line2d_24">
      <g>
       <use xlink:href="#mdd3d8662c5" x="53.027031" y="125.910131" style="fill: #262626; stroke: #262626; stroke-width: 0.8"/>
      </g>
     </g>
     <g id="text_9">
      <!-- 0.75 -->
      <g style="fill: #262626" transform="translate(26.469375 129.727474)scale(0.11 -0.11)">
       <use xlink:href="#CMUSerif-Roman-30"/>
       <use xlink:href="#CMUSerif-Roman-2e" x="49.999985"/>
       <use xlink:href="#CMUSerif-Roman-37" x="77.799973"/>
       <use xlink:href="#CMUSerif-Roman-35" x="127.799957"/>
      </g>
     </g>
    </g>
    <g id="text_10">
     <!-- y -->
     <g style="fill: #262626" transform="translate(20.214375 139.419141)rotate(-90)scale(0.11 -0.11)">
      <defs>
       <path id="CMUSerif-Roman-79" d="M 122 -794 
Q 122 -659 202 -588 
Q 282 -518 390 -518 
Q 506 -518 582 -592 
Q 659 -666 659 -787 
Q 659 -1024 410 -1056 
Q 531 -1171 710 -1171 
Q 902 -1171 1056 -1030 
Q 1210 -890 1277 -755 
Q 1344 -621 1440 -378 
Q 1530 -186 1600 0 
L 640 2336 
Q 576 2490 480 2525 
Q 384 2560 122 2560 
L 122 2758 
Q 410 2739 742 2739 
Q 941 2739 1440 2758 
L 1440 2560 
Q 1082 2560 1082 2394 
Q 1082 2374 1120 2278 
L 1830 557 
L 2477 2131 
Q 2515 2221 2515 2285 
Q 2515 2547 2214 2560 
L 2214 2758 
Q 2637 2739 2771 2739 
Q 3034 2739 3251 2758 
L 3251 2560 
Q 2822 2560 2656 2150 
L 1530 -582 
Q 1222 -1312 710 -1312 
Q 467 -1312 294 -1161 
Q 122 -1011 122 -794 
z
" transform="scale(0.015625)"/>
      </defs>
      <use xlink:href="#CMUSerif-Roman-79"/>
     </g>
    </g>
   </g>
   <g id="patch_29">
    <path d="M 79.407659 153.505625 
L 79.407659 119.535313 
L 99.925925 119.535313 
L 99.925925 153.505625 
z
" clip-path="url(#p480d071c24)" style="fill: #cd5c5c; opacity: 0.2; stroke: #ffffff; stroke-linejoin: miter"/>
   </g>
   <g id="patch_30">
    <path d="M 64.50749 153.505625 
L 64.50749 119.535313 
L 79.407659 119.535313 
L 79.407659 153.505625 
z
" clip-path="url(#p480d071c24)" style="fill: #4682b4; opacity: 0.2; stroke: #ffffff; stroke-linejoin: miter"/>
   </g>
   <g id="patch_31">
    <path d="M 129.726263 153.505625 
L 129.726263 119.535313 
L 147.069083 119.535313 
L 147.069083 153.505625 
z
" clip-path="url(#p480d071c24)" style="fill: #cd5c5c; opacity: 0.2; stroke: #ffffff; stroke-linejoin: miter"/>
   </g>
   <g id="patch_32">
    <path d="M 117.268744 153.505625 
L 117.268744 119.535313 
L 129.726263 119.535313 
L 129.726263 153.505625 
z
" clip-path="url(#p480d071c24)" style="fill: #4682b4; opacity: 0.2; stroke: #ffffff; stroke-linejoin: miter"/>
   </g>
   <g id="patch_33">
    <path d="M 181.754723 153.505625 
L 181.754723 119.535313 
L 198.364747 119.535313 
L 198.364747 153.505625 
z
" clip-path="url(#p480d071c24)" style="fill: #cd5c5c; opacity: 0.2; stroke: #ffffff; stroke-linejoin: miter"/>
   </g>
   <g id="patch_34">
    <path d="M 164.411903 153.505625 
L 164.411903 119.535313 
L 181.754723 119.535313 
L 181.754723 153.505625 
z
" clip-path="url(#p480d071c24)" style="fill: #4682b4; opacity: 0.2; stroke: #ffffff; stroke-linejoin: miter"/>
   </g>
   <g id="patch_35">
    <path d="M 230.607737 153.505625 
L 230.607737 119.535313 
L 246.973496 119.535313 
L 246.973496 153.505625 
z
" clip-path="url(#p480d071c24)" style="fill: #cd5c5c; opacity: 0.2; stroke: #ffffff; stroke-linejoin: miter"/>
   </g>
   <g id="patch_36">
    <path d="M 215.707567 153.505625 
L 215.707567 119.535313 
L 230.607737 119.535313 
L 230.607737 153.505625 
z
" clip-path="url(#p480d071c24)" style="fill: #4682b4; opacity: 0.2; stroke: #ffffff; stroke-linejoin: miter"/>
   </g>
   <g id="patch_37">
    <path d="M 274.331184 153.505625 
L 274.331184 119.535313 
L 288.498558 119.535313 
L 288.498558 153.505625 
z
" clip-path="url(#p480d071c24)" style="fill: #cd5c5c; opacity: 0.2; stroke: #ffffff; stroke-linejoin: miter"/>
   </g>
   <g id="patch_38">
    <path d="M 264.316316 153.505625 
L 264.316316 119.535313 
L 274.331184 119.535313 
L 274.331184 153.505625 
z
" clip-path="url(#p480d071c24)" style="fill: #4682b4; opacity: 0.2; stroke: #ffffff; stroke-linejoin: miter"/>
   </g>
   <g id="line2d_25">
    <path d="M 64.263224 139.056373 
L 64.50749 138.90894 
L 65.240285 142.984422 
L 66.46161 147.329785 
L 66.95014 148.531993 
L 68.171466 150.526988 
L 68.659996 150.763057 
L 68.904261 150.92113 
L 69.148526 150.843422 
L 69.392791 151.200295 
L 69.881321 151.098531 
L 70.125586 150.897982 
L 70.369851 150.931315 
L 70.858381 150.268841 
L 71.102646 150.249061 
L 71.591177 149.689557 
L 72.812502 148.119545 
L 73.789562 147.137831 
L 74.278092 146.704729 
L 74.522357 146.579824 
L 75.010887 146.030335 
L 75.255153 145.556123 
L 75.743683 145.147773 
L 75.987948 144.63569 
L 76.720743 143.876683 
L 77.453538 142.991857 
L 77.697803 143.002337 
L 77.942068 142.535714 
L 78.186333 142.475562 
L 78.674864 141.843839 
L 78.919129 141.405621 
L 79.163394 141.45841 
L 79.407659 141.244939 
L 80.384719 146.14964 
L 81.117514 148.940693 
L 81.606044 149.635616 
L 82.82737 151.914972 
L 83.071635 151.96152 
L 84.048695 151.37137 
L 85.514285 149.688651 
L 85.758551 149.611901 
L 86.002816 149.124266 
L 86.491346 148.66191 
L 89.911057 144.040483 
L 90.399587 143.175946 
L 90.643852 142.915171 
L 91.376647 141.727286 
L 91.620912 141.465925 
L 92.109442 141.311367 
L 92.353707 140.814673 
L 95.040623 138.349901 
L 95.529153 137.550891 
L 95.773418 137.306206 
L 96.017683 137.507958 
L 96.261948 137.385866 
L 96.994744 136.647967 
L 97.239009 136.701511 
L 97.483274 136.574534 
L 97.727539 136.641416 
L 97.971804 136.498412 
L 98.216069 136.21609 
L 98.460334 136.216342 
L 99.193129 135.78625 
L 99.437394 135.706591 
L 99.681659 135.748607 
L 99.925925 135.63058 
L 100.414455 138.517834 
L 101.63578 143.469659 
L 102.368575 145.030697 
L 103.345635 146.402461 
L 103.589901 146.479382 
L 104.078431 146.842917 
L 104.566961 146.928335 
L 104.811226 146.738097 
L 105.299756 146.812413 
L 106.521081 146.514315 
L 108.230937 145.134096 
L 108.475202 145.034339 
L 108.963732 144.423455 
L 109.452262 143.668826 
L 110.185057 142.95143 
L 111.162118 141.822454 
L 111.406383 141.314624 
L 111.650648 141.293308 
L 112.139178 140.722734 
L 113.360503 139.548103 
L 113.604768 139.140578 
L 113.849033 138.971034 
L 114.337564 138.319929 
L 114.581829 138.151053 
L 115.070359 137.479385 
L 115.314624 137.471294 
L 115.558889 137.215364 
L 115.803154 137.180051 
L 116.047419 136.897426 
L 116.780214 136.636832 
L 117.024479 136.782173 
L 117.268744 136.597315 
L 118.00154 140.283859 
L 118.734335 143.058895 
L 120.199925 147.215121 
L 121.421251 148.527957 
L 121.909781 148.312664 
L 122.154046 148.354083 
L 122.398311 148.705646 
L 123.375371 147.714711 
L 123.619636 147.328926 
L 123.863901 147.169406 
L 124.108166 146.854645 
L 124.352431 146.736824 
L 124.596697 146.483522 
L 124.840962 146.472189 
L 125.573757 145.665828 
L 125.818022 144.970084 
L 126.306552 144.805678 
L 126.795082 143.963373 
L 128.016407 142.100094 
L 128.260673 141.630247 
L 128.749203 141.121719 
L 129.481998 139.979431 
L 129.726263 139.858238 
L 130.947588 145.889942 
L 131.436118 147.354965 
L 131.680384 147.708626 
L 132.168914 148.850106 
L 132.413179 149.141075 
L 132.657444 149.764293 
L 132.901709 149.844614 
L 133.145974 150.188094 
L 133.390239 150.117324 
L 134.123034 150.486729 
L 134.367299 150.501088 
L 134.611564 150.376223 
L 135.100094 149.549484 
L 135.83289 149.316724 
L 136.32142 148.702676 
L 137.054215 147.649532 
L 137.29848 147.37278 
L 137.78701 146.67215 
L 138.27554 146.091173 
L 138.764071 145.124311 
L 139.252601 144.225893 
L 140.473926 143.01336 
L 140.962456 142.20567 
L 142.428047 140.694848 
L 142.672312 140.517615 
L 143.649372 139.189023 
L 144.137902 138.853203 
L 144.626432 138.138129 
L 144.870697 137.525974 
L 146.336288 136.512812 
L 146.824818 135.796424 
L 147.069083 135.624716 
L 147.557613 138.369316 
L 148.534673 142.627982 
L 149.023203 144.516212 
L 150.000264 146.352999 
L 150.244529 146.339594 
L 150.488794 146.759248 
L 150.733059 146.671455 
L 151.221589 146.775456 
L 151.710119 147.228273 
L 151.954384 147.162889 
L 152.198649 147.266471 
L 152.442914 147.207087 
L 152.687179 146.935051 
L 152.931445 146.854964 
L 153.419975 146.192808 
L 153.908505 145.327614 
L 154.6413 144.455984 
L 154.885565 144.517783 
L 155.61836 143.715651 
L 155.862625 143.602646 
L 156.351156 142.729325 
L 157.328216 141.46691 
L 158.061011 140.260804 
L 159.770866 138.571275 
L 160.015132 138.17559 
L 160.259397 138.205392 
L 161.480722 137.018815 
L 161.724987 137.080181 
L 161.969252 136.952022 
L 162.457782 136.356328 
L 162.702047 136.448809 
L 163.923373 136.052788 
L 164.411903 135.147592 
L 165.388963 140.142613 
L 165.877493 142.188861 
L 166.854553 145.115574 
L 167.587349 146.060706 
L 167.831614 146.24281 
L 168.075879 146.153929 
L 168.808674 146.658776 
L 169.297204 146.745375 
L 170.029999 146.381848 
L 170.51853 145.917259 
L 170.762795 145.934254 
L 171.739855 144.985079 
L 172.47265 144.389081 
L 174.182506 141.601177 
L 174.671036 141.317144 
L 175.159566 140.685152 
L 175.403831 140.138468 
L 176.625156 139.23979 
L 176.869421 138.830271 
L 177.113686 138.729941 
L 177.357951 138.428105 
L 177.602217 138.391689 
L 178.090747 137.572831 
L 178.335012 137.3942 
L 178.823542 137.37491 
L 179.067807 137.053944 
L 179.312072 136.959871 
L 179.800602 136.360531 
L 180.289132 136.038956 
L 181.754723 134.791805 
L 182.976048 141.14876 
L 183.464578 143.085906 
L 183.953108 143.837845 
L 184.197373 144.592401 
L 185.174434 145.839575 
L 185.907229 146.108484 
L 186.640024 145.822705 
L 186.884289 145.984173 
L 188.105615 145.743285 
L 188.34988 145.3906 
L 188.594145 145.334109 
L 189.082675 144.82926 
L 189.571205 144.381374 
L 190.548265 143.127885 
L 190.79253 143.080619 
L 191.525325 142.161492 
L 191.769591 142.045028 
L 193.967976 138.997504 
L 195.433567 137.85024 
L 195.677832 137.835753 
L 195.922097 137.652233 
L 196.166362 137.620914 
L 196.410627 137.377505 
L 196.654892 137.527906 
L 198.120482 136.218803 
L 198.364747 135.672076 
L 198.853278 138.717609 
L 199.586073 142.027715 
L 200.074603 143.411232 
L 200.807398 145.467635 
L 201.540193 146.540538 
L 202.028723 147.245631 
L 202.517254 147.301721 
L 202.761519 147.303442 
L 203.005784 147.518192 
L 203.738579 147.040208 
L 205.448434 145.109453 
L 206.18123 144.168669 
L 206.425495 143.931859 
L 206.66976 143.525968 
L 207.402555 143.151366 
L 207.64682 142.872844 
L 207.891085 142.331683 
L 208.13535 142.177339 
L 208.62388 141.588195 
L 208.868145 141.524154 
L 210.089471 140.138503 
L 210.578001 139.79691 
L 212.532121 137.844173 
L 213.020652 137.768289 
L 213.509182 137.310544 
L 213.997712 136.582929 
L 214.486242 136.073493 
L 214.730507 135.960248 
L 214.974772 135.656866 
L 215.219037 135.167309 
L 215.463302 135.24384 
L 215.707567 135.118639 
L 216.684628 140.764916 
L 217.173158 142.532219 
L 217.661688 143.86389 
L 218.150218 144.70286 
L 218.638748 145.163255 
L 218.883013 145.648775 
L 219.615808 146.072997 
L 219.860073 146.446232 
L 220.104339 146.212814 
L 220.348604 146.14017 
L 221.081399 146.228979 
L 221.325664 146.194127 
L 221.569929 146.435873 
L 222.791254 145.279576 
L 223.52405 144.501233 
L 223.768315 144.414268 
L 224.256845 143.923653 
L 224.745375 143.185612 
L 224.98964 143.126596 
L 226.210965 141.293632 
L 226.45523 141.233586 
L 228.165086 139.3318 
L 228.409351 139.317708 
L 228.897881 138.95875 
L 229.386411 138.489647 
L 229.630676 138.453449 
L 230.607737 137.165603 
L 231.340532 141.256872 
L 231.829062 143.569157 
L 232.561857 145.695958 
L 233.050387 146.711967 
L 234.027448 147.861643 
L 234.271713 147.708364 
L 234.515978 147.831665 
L 235.493038 147.51246 
L 236.225833 146.970478 
L 236.470098 146.522258 
L 237.447158 145.767953 
L 237.691424 145.76744 
L 238.179954 144.991164 
L 238.424219 145.219789 
L 238.668484 145.045455 
L 238.912749 144.715364 
L 239.157014 144.105827 
L 239.401279 143.916482 
L 239.889809 143.205108 
L 240.134074 142.963956 
L 240.378339 142.470767 
L 241.111135 142.004112 
L 241.3554 141.949218 
L 241.599665 141.764789 
L 242.088195 141.04894 
L 243.553785 139.176654 
L 243.79805 139.096187 
L 245.263641 137.531233 
L 245.752171 137.355118 
L 245.996436 137.18451 
L 246.973496 135.624921 
L 247.462026 138.248008 
L 248.439087 142.225932 
L 249.171882 144.086926 
L 250.637472 146.43755 
L 251.126002 146.624481 
L 251.370267 146.596895 
L 252.103063 147.047529 
L 253.080123 146.028259 
L 253.324388 145.827135 
L 253.568653 145.830106 
L 253.812918 145.47721 
L 254.057183 145.420877 
L 254.789978 144.748743 
L 255.034243 144.278106 
L 255.278509 144.179316 
L 255.767039 143.305342 
L 256.499834 142.411698 
L 256.744099 142.247709 
L 257.232629 141.646303 
L 257.476894 141.502058 
L 257.965424 140.479789 
L 258.209689 140.344595 
L 258.942485 139.162035 
L 259.18675 139.016545 
L 259.67528 138.109534 
L 262.11793 135.833726 
L 262.362196 135.781991 
L 262.606461 135.540681 
L 262.850726 135.509091 
L 263.339256 135.025189 
L 263.583521 134.74762 
L 264.316316 134.733146 
L 265.049111 139.034484 
L 266.270437 143.313561 
L 267.003232 144.879028 
L 267.491762 145.08804 
L 267.736027 145.256722 
L 268.224557 145.744722 
L 268.468822 145.734896 
L 268.713087 145.984254 
L 269.445883 145.632202 
L 269.934413 145.325401 
L 270.178678 145.022917 
L 271.155738 144.577441 
L 271.644268 144.079146 
L 272.132798 143.374835 
L 272.621328 142.660772 
L 272.865594 142.827347 
L 273.354124 142.568499 
L 273.842654 141.915239 
L 274.331184 141.341695 
L 275.063979 144.642372 
L 276.041039 147.602766 
L 276.773835 148.949788 
L 277.262365 149.57632 
L 277.50663 149.508534 
L 277.750895 149.910493 
L 278.48369 150.049421 
L 278.727955 149.707953 
L 279.216485 149.673455 
L 280.193546 148.220343 
L 280.437811 147.978053 
L 281.170606 146.861313 
L 281.414871 146.692717 
L 282.147666 145.405168 
L 282.880461 144.201293 
L 283.124726 144.061577 
L 283.368991 143.558848 
L 283.613257 143.579355 
L 283.857522 142.788205 
L 284.346052 141.984497 
L 284.834582 141.0944 
L 285.078847 141.049505 
L 288.742823 136.151049 
L 288.742823 136.151049 
" clip-path="url(#p480d071c24)" style="fill: none; stroke: #808080; stroke-width: 1.5; stroke-linecap: round"/>
   </g>
   <g id="LineCollection_3">
    <path d="M 64.263224 135.58453 
L 288.987088 135.58453 
" clip-path="url(#p480d071c24)" style="fill: none; stroke-dasharray: 5.55,2.4; stroke-dashoffset: 0; stroke: #d3d3d3; stroke-width: 1.5"/>
   </g>
   <g id="LineCollection_4">
    <path d="M 64.50749 151.96152 
L 64.50749 121.079418 
" clip-path="url(#p480d071c24)" style="fill: none; stroke: #808080; stroke-opacity: 0.5; stroke-width: 1.5"/>
    <path d="M 79.407659 151.96152 
L 79.407659 121.079418 
" clip-path="url(#p480d071c24)" style="fill: none; stroke: #808080; stroke-opacity: 0.5; stroke-width: 1.5"/>
    <path d="M 99.925925 151.96152 
L 99.925925 121.079418 
" clip-path="url(#p480d071c24)" style="fill: none; stroke: #808080; stroke-opacity: 0.5; stroke-width: 1.5"/>
    <path d="M 117.268744 151.96152 
L 117.268744 121.079418 
" clip-path="url(#p480d071c24)" style="fill: none; stroke: #808080; stroke-opacity: 0.5; stroke-width: 1.5"/>
    <path d="M 129.726263 151.96152 
L 129.726263 121.079418 
" clip-path="url(#p480d071c24)" style="fill: none; stroke: #808080; stroke-opacity: 0.5; stroke-width: 1.5"/>
    <path d="M 147.069083 151.96152 
L 147.069083 121.079418 
" clip-path="url(#p480d071c24)" style="fill: none; stroke: #808080; stroke-opacity: 0.5; stroke-width: 1.5"/>
    <path d="M 164.411903 151.96152 
L 164.411903 121.079418 
" clip-path="url(#p480d071c24)" style="fill: none; stroke: #808080; stroke-opacity: 0.5; stroke-width: 1.5"/>
    <path d="M 181.754723 151.96152 
L 181.754723 121.079418 
" clip-path="url(#p480d071c24)" style="fill: none; stroke: #808080; stroke-opacity: 0.5; stroke-width: 1.5"/>
    <path d="M 198.364747 151.96152 
L 198.364747 121.079418 
" clip-path="url(#p480d071c24)" style="fill: none; stroke: #808080; stroke-opacity: 0.5; stroke-width: 1.5"/>
    <path d="M 215.707567 151.96152 
L 215.707567 121.079418 
" clip-path="url(#p480d071c24)" style="fill: none; stroke: #808080; stroke-opacity: 0.5; stroke-width: 1.5"/>
    <path d="M 230.607737 151.96152 
L 230.607737 121.079418 
" clip-path="url(#p480d071c24)" style="fill: none; stroke: #808080; stroke-opacity: 0.5; stroke-width: 1.5"/>
    <path d="M 246.973496 151.96152 
L 246.973496 121.079418 
" clip-path="url(#p480d071c24)" style="fill: none; stroke: #808080; stroke-opacity: 0.5; stroke-width: 1.5"/>
    <path d="M 264.316316 151.96152 
L 264.316316 121.079418 
" clip-path="url(#p480d071c24)" style="fill: none; stroke: #808080; stroke-opacity: 0.5; stroke-width: 1.5"/>
    <path d="M 274.331184 151.96152 
L 274.331184 121.079418 
" clip-path="url(#p480d071c24)" style="fill: none; stroke: #808080; stroke-opacity: 0.5; stroke-width: 1.5"/>
    <path d="M 288.498558 151.96152 
L 288.498558 121.079418 
" clip-path="url(#p480d071c24)" style="fill: none; stroke: #808080; stroke-opacity: 0.5; stroke-width: 1.5"/>
   </g>
   <g id="patch_39">
    <path d="M 53.027031 153.505625 
L 53.027031 119.535313 
" style="fill: none; stroke: #262626; stroke-width: 0.8; stroke-linejoin: miter; stroke-linecap: square"/>
   </g>
   <g id="patch_40">
    <path d="M 53.027031 153.505625 
L 300.223281 153.505625 
" style="fill: none; stroke: #262626; stroke-width: 0.8; stroke-linejoin: miter; stroke-linecap: square"/>
   </g>
  </g>
  <g id="axes_4">
   <g id="patch_41">
    <path d="M 53.027031 202.855938 
L 300.223281 202.855938 
L 300.223281 168.885625 
L 53.027031 168.885625 
z
" style="fill: #ffffff"/>
   </g>
   <g id="matplotlib.axis_7">
    <g id="xtick_16">
     <g id="line2d_26">
      <g>
       <use xlink:href="#me6b143ba1a" x="64.263224" y="202.855938" style="fill: #262626; stroke: #262626; stroke-width: 0.8"/>
      </g>
     </g>
     <g id="text_11">
      <!-- 0 -->
      <g style="fill: #262626" transform="translate(61.513224 217.490625)scale(0.11 -0.11)">
       <use xlink:href="#CMUSerif-Roman-30"/>
      </g>
     </g>
    </g>
    <g id="xtick_17">
     <g id="line2d_27">
      <g>
       <use xlink:href="#me6b143ba1a" x="113.116238" y="202.855938" style="fill: #262626; stroke: #262626; stroke-width: 0.8"/>
      </g>
     </g>
     <g id="text_12">
      <!-- 2000 -->
      <g style="fill: #262626" transform="translate(102.116238 217.490625)scale(0.11 -0.11)">
       <use xlink:href="#CMUSerif-Roman-32"/>
       <use xlink:href="#CMUSerif-Roman-30" x="49.999985"/>
       <use xlink:href="#CMUSerif-Roman-30" x="99.999969"/>
       <use xlink:href="#CMUSerif-Roman-30" x="149.999954"/>
      </g>
     </g>
    </g>
    <g id="xtick_18">
     <g id="line2d_28">
      <g>
       <use xlink:href="#me6b143ba1a" x="161.969252" y="202.855938" style="fill: #262626; stroke: #262626; stroke-width: 0.8"/>
      </g>
     </g>
     <g id="text_13">
      <!-- 4000 -->
      <g style="fill: #262626" transform="translate(150.969252 217.490625)scale(0.11 -0.11)">
       <defs>
        <path id="CMUSerif-Roman-34" d="M 179 1056 
L 179 1254 
L 2144 4256 
Q 2195 4333 2272 4333 
Q 2342 4333 2358 4304 
Q 2374 4275 2374 4166 
L 2374 1254 
L 3014 1254 
L 3014 1056 
L 2374 1056 
L 2374 499 
Q 2374 314 2451 256 
Q 2528 198 2861 198 
L 2995 198 
L 2995 0 
Q 2733 19 2125 19 
Q 1523 19 1261 0 
L 1261 198 
L 1395 198 
Q 1728 198 1805 256 
Q 1882 314 1882 499 
L 1882 1056 
L 179 1056 
z
M 358 1254 
L 1920 1254 
L 1920 3642 
L 358 1254 
z
" transform="scale(0.015625)"/>
       </defs>
       <use xlink:href="#CMUSerif-Roman-34"/>
       <use xlink:href="#CMUSerif-Roman-30" x="49.999985"/>
       <use xlink:href="#CMUSerif-Roman-30" x="99.999969"/>
       <use xlink:href="#CMUSerif-Roman-30" x="149.999954"/>
      </g>
     </g>
    </g>
    <g id="xtick_19">
     <g id="line2d_29">
      <g>
       <use xlink:href="#me6b143ba1a" x="210.822266" y="202.855938" style="fill: #262626; stroke: #262626; stroke-width: 0.8"/>
      </g>
     </g>
     <g id="text_14">
      <!-- 6000 -->
      <g style="fill: #262626" transform="translate(199.822266 217.490625)scale(0.11 -0.11)">
       <use xlink:href="#CMUSerif-Roman-36"/>
       <use xlink:href="#CMUSerif-Roman-30" x="49.999985"/>
       <use xlink:href="#CMUSerif-Roman-30" x="99.999969"/>
       <use xlink:href="#CMUSerif-Roman-30" x="149.999954"/>
      </g>
     </g>
    </g>
    <g id="xtick_20">
     <g id="line2d_30">
      <g>
       <use xlink:href="#me6b143ba1a" x="259.67528" y="202.855938" style="fill: #262626; stroke: #262626; stroke-width: 0.8"/>
      </g>
     </g>
     <g id="text_15">
      <!-- 8000 -->
      <g style="fill: #262626" transform="translate(248.67528 217.490625)scale(0.11 -0.11)">
       <defs>
        <path id="CMUSerif-Roman-38" d="M 269 966 
Q 269 1683 1190 2144 
Q 794 2413 723 2490 
Q 442 2803 442 3194 
Q 442 3642 781 3952 
Q 1120 4262 1600 4262 
Q 2061 4262 2406 3996 
Q 2752 3731 2752 3309 
Q 2752 2714 1978 2317 
Q 2490 1997 2611 1862 
Q 2925 1517 2925 1075 
Q 2925 563 2531 211 
Q 2138 -141 1594 -141 
Q 1062 -141 665 169 
Q 269 480 269 966 
z
M 589 966 
Q 589 570 886 304 
Q 1184 38 1600 38 
Q 2003 38 2304 268 
Q 2605 499 2605 845 
Q 2605 979 2560 1094 
Q 2515 1210 2425 1302 
Q 2336 1395 2281 1436 
Q 2227 1478 2125 1549 
L 1338 2048 
Q 589 1632 589 966 
z
M 723 3443 
Q 723 3136 1043 2925 
L 1837 2413 
Q 2470 2784 2470 3309 
Q 2470 3648 2211 3875 
Q 1952 4102 1594 4102 
Q 1242 4102 982 3916 
Q 723 3731 723 3443 
z
" transform="scale(0.015625)"/>
       </defs>
       <use xlink:href="#CMUSerif-Roman-38"/>
       <use xlink:href="#CMUSerif-Roman-30" x="49.999985"/>
       <use xlink:href="#CMUSerif-Roman-30" x="99.999969"/>
       <use xlink:href="#CMUSerif-Roman-30" x="149.999954"/>
      </g>
     </g>
    </g>
    <g id="text_16">
     <!-- time [ms] -->
     <g style="fill: #262626" transform="translate(154.306328 231.875313)scale(0.11 -0.11)">
      <defs>
       <path id="CMUSerif-Roman-20" transform="scale(0.015625)"/>
       <path id="CMUSerif-Roman-5b" d="M 666 -1600 
L 666 4800 
L 1632 4800 
L 1632 4653 
L 1094 4653 
L 1094 -1453 
L 1632 -1453 
L 1632 -1600 
L 666 -1600 
z
" transform="scale(0.015625)"/>
       <path id="CMUSerif-Roman-73" d="M 211 83 
L 211 928 
Q 211 998 214 1024 
Q 218 1050 237 1069 
Q 256 1088 294 1088 
Q 339 1088 355 1069 
Q 371 1050 384 979 
Q 480 538 688 304 
Q 896 70 1274 70 
Q 1632 70 1814 230 
Q 1997 390 1997 653 
Q 1997 1120 1331 1242 
Q 947 1318 787 1369 
Q 627 1421 486 1536 
Q 211 1760 211 2080 
Q 211 2400 454 2633 
Q 698 2867 1235 2867 
Q 1594 2867 1837 2688 
Q 1907 2746 1946 2790 
Q 2029 2867 2074 2867 
Q 2125 2867 2134 2835 
Q 2144 2803 2144 2714 
L 2144 2067 
Q 2144 1997 2141 1971 
Q 2138 1946 2118 1930 
Q 2099 1914 2061 1914 
Q 1990 1914 1984 1971 
Q 1933 2746 1235 2746 
Q 858 2746 688 2602 
Q 518 2458 518 2259 
Q 518 2150 569 2067 
Q 621 1984 688 1936 
Q 755 1888 880 1843 
Q 1005 1798 1081 1782 
Q 1158 1766 1306 1734 
Q 1818 1638 2035 1427 
Q 2304 1158 2304 819 
Q 2304 442 2048 186 
Q 1792 -70 1274 -70 
Q 858 -70 570 205 
Q 531 166 502 134 
Q 474 102 464 89 
Q 454 77 451 70 
Q 448 64 442 58 
Q 314 -70 282 -70 
Q 230 -70 220 -38 
Q 211 -6 211 83 
z
" transform="scale(0.015625)"/>
       <path id="CMUSerif-Roman-5d" d="M 134 -1453 
L 672 -1453 
L 672 4653 
L 134 4653 
L 134 4800 
L 1101 4800 
L 1101 -1600 
L 134 -1600 
L 134 -1453 
z
" transform="scale(0.015625)"/>
      </defs>
      <use xlink:href="#CMUSerif-Roman-74"/>
      <use xlink:href="#CMUSerif-Roman-69" x="38.799988"/>
      <use xlink:href="#CMUSerif-Roman-6d" x="66.499985"/>
      <use xlink:href="#CMUSerif-Roman-65" x="149.799973"/>
      <use xlink:href="#CMUSerif-Roman-20" x="194.199966"/>
      <use xlink:href="#CMUSerif-Roman-5b" x="227.499954"/>
      <use xlink:href="#CMUSerif-Roman-6d" x="255.299942"/>
      <use xlink:href="#CMUSerif-Roman-73" x="338.59993"/>
      <use xlink:href="#CMUSerif-Roman-5d" x="377.999924"/>
     </g>
    </g>
   </g>
   <g id="matplotlib.axis_8">
    <g id="ytick_8">
     <g id="line2d_31">
      <g>
       <use xlink:href="#mdd3d8662c5" x="53.027031" y="198.193036" style="fill: #262626; stroke: #262626; stroke-width: 0.8"/>
      </g>
     </g>
     <g id="text_17">
      <!-- 0.750 -->
      <g style="fill: #262626" transform="translate(20.969375 202.01038)scale(0.11 -0.11)">
       <use xlink:href="#CMUSerif-Roman-30"/>
       <use xlink:href="#CMUSerif-Roman-2e" x="49.999985"/>
       <use xlink:href="#CMUSerif-Roman-37" x="77.799973"/>
       <use xlink:href="#CMUSerif-Roman-35" x="127.799957"/>
       <use xlink:href="#CMUSerif-Roman-30" x="177.799942"/>
      </g>
     </g>
    </g>
    <g id="ytick_9">
     <g id="line2d_32">
      <g>
       <use xlink:href="#mdd3d8662c5" x="53.027031" y="172.811881" style="fill: #262626; stroke: #262626; stroke-width: 0.8"/>
      </g>
     </g>
     <g id="text_18">
      <!-- 0.775 -->
      <g style="fill: #262626" transform="translate(20.969375 176.629224)scale(0.11 -0.11)">
       <use xlink:href="#CMUSerif-Roman-30"/>
       <use xlink:href="#CMUSerif-Roman-2e" x="49.999985"/>
       <use xlink:href="#CMUSerif-Roman-37" x="77.799973"/>
       <use xlink:href="#CMUSerif-Roman-37" x="127.799957"/>
       <use xlink:href="#CMUSerif-Roman-35" x="177.799942"/>
      </g>
     </g>
    </g>
    <g id="text_19">
     <!-- I -->
     <g style="fill: #262626" transform="translate(14.834687 187.855938)rotate(-90)scale(0.11 -0.11)">
      <defs>
       <path id="CMUSerif-Roman-49" d="M 179 0 
L 179 198 
L 346 198 
Q 704 198 787 256 
Q 870 314 870 499 
L 870 3872 
Q 870 4058 787 4115 
Q 704 4173 346 4173 
L 179 4173 
L 179 4371 
Q 403 4352 1158 4352 
Q 1907 4352 2131 4371 
L 2131 4173 
L 1965 4173 
Q 1606 4173 1523 4115 
Q 1440 4058 1440 3872 
L 1440 499 
Q 1440 314 1523 256 
Q 1606 198 1965 198 
L 2131 198 
L 2131 0 
Q 1907 19 1152 19 
Q 403 19 179 0 
z
" transform="scale(0.015625)"/>
      </defs>
      <use xlink:href="#CMUSerif-Roman-49"/>
     </g>
    </g>
   </g>
   <g id="patch_42">
    <path d="M 79.407659 202.855938 
L 79.407659 168.885625 
L 99.925925 168.885625 
L 99.925925 202.855938 
z
" clip-path="url(#p01abf629f4)" style="fill: #cd5c5c; opacity: 0.2; stroke: #ffffff; stroke-linejoin: miter"/>
   </g>
   <g id="patch_43">
    <path d="M 64.50749 202.855938 
L 64.50749 168.885625 
L 79.407659 168.885625 
L 79.407659 202.855938 
z
" clip-path="url(#p01abf629f4)" style="fill: #4682b4; opacity: 0.2; stroke: #ffffff; stroke-linejoin: miter"/>
   </g>
   <g id="patch_44">
    <path d="M 129.726263 202.855938 
L 129.726263 168.885625 
L 147.069083 168.885625 
L 147.069083 202.855938 
z
" clip-path="url(#p01abf629f4)" style="fill: #cd5c5c; opacity: 0.2; stroke: #ffffff; stroke-linejoin: miter"/>
   </g>
   <g id="patch_45">
    <path d="M 117.268744 202.855938 
L 117.268744 168.885625 
L 129.726263 168.885625 
L 129.726263 202.855938 
z
" clip-path="url(#p01abf629f4)" style="fill: #4682b4; opacity: 0.2; stroke: #ffffff; stroke-linejoin: miter"/>
   </g>
   <g id="patch_46">
    <path d="M 181.754723 202.855938 
L 181.754723 168.885625 
L 198.364747 168.885625 
L 198.364747 202.855938 
z
" clip-path="url(#p01abf629f4)" style="fill: #cd5c5c; opacity: 0.2; stroke: #ffffff; stroke-linejoin: miter"/>
   </g>
   <g id="patch_47">
    <path d="M 164.411903 202.855938 
L 164.411903 168.885625 
L 181.754723 168.885625 
L 181.754723 202.855938 
z
" clip-path="url(#p01abf629f4)" style="fill: #4682b4; opacity: 0.2; stroke: #ffffff; stroke-linejoin: miter"/>
   </g>
   <g id="patch_48">
    <path d="M 230.607737 202.855938 
L 230.607737 168.885625 
L 246.973496 168.885625 
L 246.973496 202.855938 
z
" clip-path="url(#p01abf629f4)" style="fill: #cd5c5c; opacity: 0.2; stroke: #ffffff; stroke-linejoin: miter"/>
   </g>
   <g id="patch_49">
    <path d="M 215.707567 202.855938 
L 215.707567 168.885625 
L 230.607737 168.885625 
L 230.607737 202.855938 
z
" clip-path="url(#p01abf629f4)" style="fill: #4682b4; opacity: 0.2; stroke: #ffffff; stroke-linejoin: miter"/>
   </g>
   <g id="patch_50">
    <path d="M 274.331184 202.855938 
L 274.331184 168.885625 
L 288.498558 168.885625 
L 288.498558 202.855938 
z
" clip-path="url(#p01abf629f4)" style="fill: #cd5c5c; opacity: 0.2; stroke: #ffffff; stroke-linejoin: miter"/>
   </g>
   <g id="patch_51">
    <path d="M 264.316316 202.855938 
L 264.316316 168.885625 
L 274.331184 168.885625 
L 274.331184 202.855938 
z
" clip-path="url(#p01abf629f4)" style="fill: #4682b4; opacity: 0.2; stroke: #ffffff; stroke-linejoin: miter"/>
   </g>
   <g id="line2d_33">
    <path d="M 64.263224 170.42973 
L 79.407659 170.42973 
L 79.651924 181.037088 
L 129.726263 181.037088 
L 129.970528 189.045829 
L 181.754723 189.045829 
L 181.998988 187.560298 
L 230.607737 187.560298 
L 230.852002 190.523159 
L 274.331184 190.523159 
L 274.575449 201.311832 
L 288.742823 201.311832 
L 288.742823 201.311832 
" clip-path="url(#p01abf629f4)" style="fill: none; stroke: #808080; stroke-width: 1.5; stroke-linecap: round"/>
   </g>
   <g id="LineCollection_5">
    <path d="M 64.50749 201.311832 
L 64.50749 170.42973 
" clip-path="url(#p01abf629f4)" style="fill: none; stroke: #808080; stroke-opacity: 0.5; stroke-width: 1.5"/>
    <path d="M 79.407659 201.311832 
L 79.407659 170.42973 
" clip-path="url(#p01abf629f4)" style="fill: none; stroke: #808080; stroke-opacity: 0.5; stroke-width: 1.5"/>
    <path d="M 99.925925 201.311832 
L 99.925925 170.42973 
" clip-path="url(#p01abf629f4)" style="fill: none; stroke: #808080; stroke-opacity: 0.5; stroke-width: 1.5"/>
    <path d="M 117.268744 201.311832 
L 117.268744 170.42973 
" clip-path="url(#p01abf629f4)" style="fill: none; stroke: #808080; stroke-opacity: 0.5; stroke-width: 1.5"/>
    <path d="M 129.726263 201.311832 
L 129.726263 170.42973 
" clip-path="url(#p01abf629f4)" style="fill: none; stroke: #808080; stroke-opacity: 0.5; stroke-width: 1.5"/>
    <path d="M 147.069083 201.311832 
L 147.069083 170.42973 
" clip-path="url(#p01abf629f4)" style="fill: none; stroke: #808080; stroke-opacity: 0.5; stroke-width: 1.5"/>
    <path d="M 164.411903 201.311832 
L 164.411903 170.42973 
" clip-path="url(#p01abf629f4)" style="fill: none; stroke: #808080; stroke-opacity: 0.5; stroke-width: 1.5"/>
    <path d="M 181.754723 201.311832 
L 181.754723 170.42973 
" clip-path="url(#p01abf629f4)" style="fill: none; stroke: #808080; stroke-opacity: 0.5; stroke-width: 1.5"/>
    <path d="M 198.364747 201.311832 
L 198.364747 170.42973 
" clip-path="url(#p01abf629f4)" style="fill: none; stroke: #808080; stroke-opacity: 0.5; stroke-width: 1.5"/>
    <path d="M 215.707567 201.311832 
L 215.707567 170.42973 
" clip-path="url(#p01abf629f4)" style="fill: none; stroke: #808080; stroke-opacity: 0.5; stroke-width: 1.5"/>
    <path d="M 230.607737 201.311832 
L 230.607737 170.42973 
" clip-path="url(#p01abf629f4)" style="fill: none; stroke: #808080; stroke-opacity: 0.5; stroke-width: 1.5"/>
    <path d="M 246.973496 201.311832 
L 246.973496 170.42973 
" clip-path="url(#p01abf629f4)" style="fill: none; stroke: #808080; stroke-opacity: 0.5; stroke-width: 1.5"/>
    <path d="M 264.316316 201.311832 
L 264.316316 170.42973 
" clip-path="url(#p01abf629f4)" style="fill: none; stroke: #808080; stroke-opacity: 0.5; stroke-width: 1.5"/>
    <path d="M 274.331184 201.311832 
L 274.331184 170.42973 
" clip-path="url(#p01abf629f4)" style="fill: none; stroke: #808080; stroke-opacity: 0.5; stroke-width: 1.5"/>
    <path d="M 288.498558 201.311832 
L 288.498558 170.42973 
" clip-path="url(#p01abf629f4)" style="fill: none; stroke: #808080; stroke-opacity: 0.5; stroke-width: 1.5"/>
   </g>
   <g id="patch_52">
    <path d="M 53.027031 202.855937 
L 53.027031 168.885625 
" style="fill: none; stroke: #262626; stroke-width: 0.8; stroke-linejoin: miter; stroke-linecap: square"/>
   </g>
   <g id="patch_53">
    <path d="M 53.027031 202.855938 
L 300.223281 202.855938 
" style="fill: none; stroke: #262626; stroke-width: 0.8; stroke-linejoin: miter; stroke-linecap: square"/>
   </g>
  </g>
 </g>
 <defs>
  <clipPath id="pb81380fe99">
   <rect x="53.027031" y="20.834688" width="247.19625" height="33.970312"/>
  </clipPath>
  <clipPath id="pc45714cf8b">
   <rect x="53.027031" y="70.185" width="247.19625" height="33.970312"/>
  </clipPath>
  <clipPath id="p480d071c24">
   <rect x="53.027031" y="119.535313" width="247.19625" height="33.970312"/>
  </clipPath>
  <clipPath id="p01abf629f4">
   <rect x="53.027031" y="168.885625" width="247.19625" height="33.970312"/>
  </clipPath>
 </defs>
</svg>
