<?xml version="1.0" encoding="utf-8" standalone="no"?>
<!DOCTYPE svg PUBLIC "-//W3C//DTD SVG 1.1//EN"
  "http://www.w3.org/Graphics/SVG/1.1/DTD/svg11.dtd">
<svg xmlns:xlink="http://www.w3.org/1999/xlink" width="465.84pt" height="278.64pt" viewBox="0 0 465.84 278.64" xmlns="http://www.w3.org/2000/svg" version="1.1">
 <metadata>
  <rdf:RDF xmlns:dc="http://purl.org/dc/elements/1.1/" xmlns:cc="http://creativecommons.org/ns#" xmlns:rdf="http://www.w3.org/1999/02/22-rdf-syntax-ns#">
   <cc:Work>
    <dc:type rdf:resource="http://purl.org/dc/dcmitype/StillImage"/>
    <dc:date>2022-05-24T16:45:21.866785</dc:date>
    <dc:format>image/svg+xml</dc:format>
    <dc:creator>
     <cc:Agent>
      <dc:title>Matplotlib v3.5.1, https://matplotlib.org/</dc:title>
     </cc:Agent>
    </dc:creator>
   </cc:Work>
  </rdf:RDF>
 </metadata>
 <defs>
  <style type="text/css">*{stroke-linejoin: round; stroke-linecap: butt}</style>
 </defs>
 <g id="figure_1">
  <g id="patch_1">
   <path d="M 0 278.64 
L 465.84 278.64 
L 465.84 0 
L 0 0 
L 0 278.64 
z
" style="fill: none"/>
  </g>
  <g id="axes_1">
   <g id="patch_2">
    <path d="M 33.682543 53.701046 
L 458.64 53.701046 
L 458.64 21.008152 
L 33.682543 21.008152 
z
" style="fill: #ffffff"/>
   </g>
   <g id="patch_3">
    <path d="M 129.08191 53.701046 
L 129.08191 21.008152 
L 160.106094 21.008152 
L 160.106094 53.701046 
z
" clip-path="url(#pbc2d6b343b)" style="fill: #ff0000; opacity: 0.1"/>
   </g>
   <g id="patch_4">
    <path d="M 106.552443 53.701046 
L 106.552443 21.008152 
L 129.08191 21.008152 
L 129.08191 53.701046 
z
" clip-path="url(#pbc2d6b343b)" style="fill: #0000ff; opacity: 0.1"/>
   </g>
   <g id="patch_5">
    <path d="M 212.551739 53.701046 
L 212.551739 21.008152 
L 242.098581 21.008152 
L 242.098581 53.701046 
z
" clip-path="url(#pbc2d6b343b)" style="fill: #ff0000; opacity: 0.1"/>
   </g>
   <g id="patch_6">
    <path d="M 186.328916 53.701046 
L 186.328916 21.008152 
L 212.551739 21.008152 
L 212.551739 53.701046 
z
" clip-path="url(#pbc2d6b343b)" style="fill: #0000ff; opacity: 0.1"/>
   </g>
   <g id="patch_7">
    <path d="M 283.46416 53.701046 
L 283.46416 21.008152 
L 302.300272 21.008152 
L 302.300272 53.701046 
z
" clip-path="url(#pbc2d6b343b)" style="fill: #ff0000; opacity: 0.1"/>
   </g>
   <g id="patch_8">
    <path d="M 268.321403 53.701046 
L 268.321403 21.008152 
L 283.46416 21.008152 
L 283.46416 53.701046 
z
" clip-path="url(#pbc2d6b343b)" style="fill: #0000ff; opacity: 0.1"/>
   </g>
   <g id="patch_9">
    <path d="M 347.359206 53.701046 
L 347.359206 21.008152 
L 364.717976 21.008152 
L 364.717976 53.701046 
z
" clip-path="url(#pbc2d6b343b)" style="fill: #ff0000; opacity: 0.1"/>
   </g>
   <g id="patch_10">
    <path d="M 328.523094 53.701046 
L 328.523094 21.008152 
L 347.359206 21.008152 
L 347.359206 53.701046 
z
" clip-path="url(#pbc2d6b343b)" style="fill: #0000ff; opacity: 0.1"/>
   </g>
   <g id="patch_11">
    <path d="M 417.16362 53.701046 
L 417.16362 21.008152 
L 438.585081 21.008152 
L 438.585081 53.701046 
z
" clip-path="url(#pbc2d6b343b)" style="fill: #ff0000; opacity: 0.1"/>
   </g>
   <g id="patch_12">
    <path d="M 390.940798 53.701046 
L 390.940798 21.008152 
L 417.16362 21.008152 
L 417.16362 53.701046 
z
" clip-path="url(#pbc2d6b343b)" style="fill: #0000ff; opacity: 0.1"/>
   </g>
   <g id="matplotlib.axis_1">
    <g id="xtick_1">
     <g id="line2d_1">
      <defs>
       <path id="m949941833c" d="M 0 0 
L 0 3.5 
" style="stroke: #000000; stroke-width: 0.8"/>
      </defs>
      <g>
       <use xlink:href="#m949941833c" x="52.998792" y="53.701046" style="stroke: #000000; stroke-width: 0.8"/>
      </g>
     </g>
    </g>
    <g id="xtick_2">
     <g id="line2d_2">
      <g>
       <use xlink:href="#m949941833c" x="126.865897" y="53.701046" style="stroke: #000000; stroke-width: 0.8"/>
      </g>
     </g>
    </g>
    <g id="xtick_3">
     <g id="line2d_3">
      <g>
       <use xlink:href="#m949941833c" x="200.733002" y="53.701046" style="stroke: #000000; stroke-width: 0.8"/>
      </g>
     </g>
    </g>
    <g id="xtick_4">
     <g id="line2d_4">
      <g>
       <use xlink:href="#m949941833c" x="274.600107" y="53.701046" style="stroke: #000000; stroke-width: 0.8"/>
      </g>
     </g>
    </g>
    <g id="xtick_5">
     <g id="line2d_5">
      <g>
       <use xlink:href="#m949941833c" x="348.467213" y="53.701046" style="stroke: #000000; stroke-width: 0.8"/>
      </g>
     </g>
    </g>
    <g id="xtick_6">
     <g id="line2d_6">
      <g>
       <use xlink:href="#m949941833c" x="422.334318" y="53.701046" style="stroke: #000000; stroke-width: 0.8"/>
      </g>
     </g>
    </g>
   </g>
   <g id="matplotlib.axis_2">
    <g id="ytick_1">
     <g id="line2d_7">
      <defs>
       <path id="m3361b5269a" d="M 0 0 
L -3.5 0 
" style="stroke: #000000; stroke-width: 0.8"/>
      </defs>
      <g>
       <use xlink:href="#m3361b5269a" x="33.682543" y="42.842277" style="stroke: #000000; stroke-width: 0.8"/>
      </g>
     </g>
     <g id="text_1">
      <!-- $\mathdefault{0.8}$ -->
      <g transform="translate(12.679467 46.746353)scale(0.11 -0.11)">
       <defs>
        <path id="CMR17-30" d="M 2688 2025 
C 2688 2416 2682 3080 2413 3591 
C 2176 4039 1798 4198 1466 4198 
C 1158 4198 768 4058 525 3597 
C 269 3118 243 2524 243 2025 
C 243 1661 250 1106 448 619 
C 723 -39 1216 -128 1466 -128 
C 1760 -128 2208 -7 2470 600 
C 2662 1042 2688 1559 2688 2025 
z
M 1466 -26 
C 1056 -26 813 325 723 812 
C 653 1188 653 1738 653 2096 
C 653 2588 653 2997 736 3387 
C 858 3929 1216 4096 1466 4096 
C 1728 4096 2067 3923 2189 3400 
C 2272 3036 2278 2607 2278 2096 
C 2278 1680 2278 1169 2202 792 
C 2067 95 1690 -26 1466 -26 
z
" transform="scale(0.015625)"/>
        <path id="CMMI12-3a" d="M 1178 307 
C 1178 492 1024 619 870 619 
C 685 619 557 466 557 313 
C 557 128 710 0 864 0 
C 1050 0 1178 153 1178 307 
z
" transform="scale(0.015625)"/>
        <path id="CMR17-38" d="M 1741 2264 
C 2144 2467 2554 2773 2554 3263 
C 2554 3841 1990 4179 1472 4179 
C 890 4179 378 3759 378 3180 
C 378 3021 416 2747 666 2505 
C 730 2442 998 2251 1171 2130 
C 883 1983 211 1634 211 934 
C 211 279 838 -128 1459 -128 
C 2144 -128 2720 362 2720 1010 
C 2720 1590 2330 1857 2074 2029 
L 1741 2264 
z
M 902 2822 
C 851 2854 595 3051 595 3351 
C 595 3739 998 4032 1459 4032 
C 1965 4032 2336 3676 2336 3262 
C 2336 2669 1670 2331 1638 2331 
C 1632 2331 1626 2331 1574 2370 
L 902 2822 
z
M 2080 1519 
C 2176 1449 2483 1240 2483 851 
C 2483 381 2010 25 1472 25 
C 890 25 448 438 448 940 
C 448 1443 838 1862 1280 2060 
L 2080 1519 
z
" transform="scale(0.015625)"/>
       </defs>
       <use xlink:href="#CMR17-30" transform="scale(0.996264)"/>
       <use xlink:href="#CMMI12-3a" transform="translate(45.690477 0)scale(0.996264)"/>
       <use xlink:href="#CMR17-38" transform="translate(72.787654 0)scale(0.996264)"/>
      </g>
     </g>
    </g>
    <g id="ytick_2">
     <g id="line2d_8">
      <g>
       <use xlink:href="#m3361b5269a" x="33.682543" y="29.940953" style="stroke: #000000; stroke-width: 0.8"/>
      </g>
     </g>
     <g id="text_2">
      <!-- $\mathdefault{0.9}$ -->
      <g transform="translate(12.679467 33.845029)scale(0.11 -0.11)">
       <defs>
        <path id="CMR17-39" d="M 2253 1864 
C 2253 464 1670 31 1190 31 
C 1043 31 685 31 538 294 
C 704 268 826 357 826 518 
C 826 692 685 749 595 749 
C 538 749 365 723 365 506 
C 365 71 742 -128 1203 -128 
C 1939 -128 2688 674 2688 2073 
C 2688 3817 1971 4179 1485 4179 
C 851 4179 243 3628 243 2778 
C 243 1991 762 1408 1414 1408 
C 1952 1408 2189 1903 2253 2112 
L 2253 1864 
z
M 1427 1510 
C 1254 1510 1011 1542 813 1922 
C 678 2169 678 2461 678 2771 
C 678 3146 678 3405 858 3684 
C 947 3817 1114 4032 1485 4032 
C 2240 4032 2240 2885 2240 2632 
C 2240 2182 2035 1510 1427 1510 
z
" transform="scale(0.015625)"/>
       </defs>
       <use xlink:href="#CMR17-30" transform="scale(0.996264)"/>
       <use xlink:href="#CMMI12-3a" transform="translate(45.690477 0)scale(0.996264)"/>
       <use xlink:href="#CMR17-39" transform="translate(72.787654 0)scale(0.996264)"/>
      </g>
     </g>
    </g>
   </g>
   <g id="line2d_9">
    <path d="M 52.998792 52.215005 
L 53.737463 46.455757 
L 54.476134 42.12834 
L 55.214805 38.880758 
L 55.953476 36.417267 
L 56.692147 34.547083 
L 57.800153 32.457204 
L 58.90816 30.91606 
L 60.385502 29.368614 
L 62.23218 27.931782 
L 64.078857 26.845783 
L 66.664206 25.656318 
L 69.249555 24.79746 
L 71.834903 24.142231 
L 74.420252 23.677955 
L 79.960285 23.058548 
L 80.32962 23.030248 
L 80.698956 35.33251 
L 81.806963 32.738771 
L 82.914969 30.937252 
L 84.022976 29.615003 
L 85.500318 28.304633 
L 86.608324 27.517715 
L 88.455002 26.497823 
L 90.671015 25.532348 
L 93.256364 24.689494 
L 96.949719 23.866122 
L 100.643074 23.348052 
L 105.813772 22.929131 
L 106.552443 22.895922 
L 106.921778 35.211617 
L 107.660449 33.405157 
L 108.768456 31.372978 
L 109.876463 29.924904 
L 110.984469 28.842828 
L 112.461811 27.668743 
L 114.308489 26.560375 
L 116.524502 25.537416 
L 118.740515 24.77374 
L 122.064535 24.00362 
L 125.019219 23.523309 
L 128.712574 23.123377 
L 129.08191 23.098071 
L 129.451245 35.393551 
L 130.189917 33.766892 
L 131.297923 31.883563 
L 132.40593 30.443299 
L 133.883272 28.959239 
L 135.360614 27.78048 
L 137.207291 26.635917 
L 139.053969 25.721001 
L 141.269982 24.853193 
L 144.224666 23.993687 
L 147.548686 23.388208 
L 152.350048 22.881549 
L 160.106094 22.494193 
L 160.47543 34.85006 
L 161.583436 32.298961 
L 162.691443 30.461143 
L 163.799449 29.12462 
L 164.907456 28.073945 
L 166.384798 26.980706 
L 167.86214 26.110204 
L 169.708818 25.266212 
L 172.294166 24.404246 
L 174.879515 23.79293 
L 179.311541 23.116704 
L 182.635561 22.806475 
L 186.328916 22.609252 
L 186.698252 34.953614 
L 187.436923 33.136695 
L 188.54493 31.095755 
L 189.652936 29.628679 
L 191.130278 28.162788 
L 192.60762 27.065691 
L 194.454298 26.003308 
L 196.670311 25.062404 
L 199.25566 24.279527 
L 202.57968 23.588091 
L 206.64237 23.056001 
L 212.182403 22.671436 
L 212.551739 22.656401 
L 212.921074 34.996047 
L 213.659745 33.222157 
L 214.767752 31.212018 
L 215.875759 29.73116 
L 216.983765 28.5826 
L 218.461107 27.384932 
L 219.938449 26.452696 
L 221.785127 25.531739 
L 223.631805 24.848522 
L 225.847818 24.172091 
L 229.910509 23.398639 
L 234.342535 22.908416 
L 239.882568 22.582764 
L 242.098581 22.504587 
L 242.467916 34.859415 
L 243.206588 33.049278 
L 244.314594 30.999504 
L 245.422601 29.524565 
L 246.530607 28.375347 
L 248.007949 27.193988 
L 249.854627 26.070502 
L 251.701305 25.2348 
L 253.917318 24.476697 
L 256.502666 23.838968 
L 258.71868 23.430537 
L 263.889377 22.882824 
L 268.321403 22.606913 
L 268.690739 34.951509 
L 269.798745 32.374306 
L 270.906752 30.562475 
L 272.014759 29.1867 
L 273.492101 27.834583 
L 275.338778 26.579773 
L 277.185456 25.630849 
L 279.770805 24.612192 
L 282.356153 23.931668 
L 283.46416 23.696795 
L 283.833495 35.932402 
L 284.941502 33.605648 
L 286.049509 31.836691 
L 287.526851 29.988913 
L 289.373528 28.264975 
L 290.85087 27.170795 
L 293.066884 25.871598 
L 294.913561 25.060421 
L 297.129574 24.302738 
L 300.453594 23.518988 
L 302.300272 23.214268 
L 302.669607 35.498128 
L 303.777614 32.886688 
L 304.88562 30.98633 
L 305.993627 29.535573 
L 307.470969 28.081991 
L 308.948311 26.926068 
L 310.794989 25.837142 
L 312.641666 24.996124 
L 314.85768 24.261584 
L 317.443028 23.617814 
L 320.767048 23.082309 
L 324.829739 22.687155 
L 328.523094 22.499856 
L 328.89243 34.855157 
L 330.000436 32.293973 
L 331.108443 30.437611 
L 332.216449 29.042772 
L 333.324456 27.989808 
L 334.801798 26.86102 
L 336.648476 25.771281 
L 338.495153 24.921315 
L 340.341831 24.294518 
L 342.188509 23.820073 
L 344.404522 23.367248 
L 346.98987 23.010459 
L 347.359206 22.970335 
L 347.728541 35.278588 
L 348.836548 32.634114 
L 349.944555 30.750093 
L 351.052561 29.339391 
L 352.529903 27.878898 
L 354.007245 26.768932 
L 355.484588 25.903821 
L 357.700601 24.894315 
L 359.916614 24.174984 
L 362.132627 23.663252 
L 364.717976 23.225019 
L 365.087311 35.507804 
L 365.825982 33.667433 
L 366.933989 31.56357 
L 368.041995 30.015467 
L 369.150002 28.813954 
L 370.627344 27.546868 
L 372.474022 26.35471 
L 373.951364 25.54779 
L 375.798041 24.797761 
L 378.014055 24.122793 
L 380.599403 23.550471 
L 385.03143 22.944673 
L 390.571463 22.546706 
L 390.940798 22.534792 
L 391.310134 34.8866 
L 392.048805 33.073763 
L 393.156811 31.023172 
L 394.264818 29.493583 
L 395.74216 27.994282 
L 397.219502 26.842759 
L 399.435515 25.580355 
L 401.651528 24.673403 
L 404.606213 23.840243 
L 409.038239 23.07819 
L 413.470265 22.681402 
L 417.16362 22.50746 
L 417.532956 34.862001 
L 418.271627 32.944959 
L 419.379634 30.820243 
L 420.48764 29.297724 
L 421.595647 28.136501 
L 423.072989 26.973323 
L 424.550331 26.050825 
L 426.027673 25.355673 
L 428.243686 24.520138 
L 430.829035 23.834484 
L 434.52239 23.231051 
L 437.477074 22.898787 
L 438.954416 22.79576 
L 438.954416 22.79576 
" clip-path="url(#pbc2d6b343b)" style="fill: none; stroke: #808080; stroke-width: 1.5; stroke-linecap: square"/>
   </g>
   <g id="LineCollection_1">
    <path d="M 80.32962 52.215005 
L 80.32962 22.494193 
" clip-path="url(#pbc2d6b343b)" style="fill: none; stroke: #808080; stroke-opacity: 0.5; stroke-width: 1.5"/>
    <path d="M 106.552443 52.215005 
L 106.552443 22.494193 
" clip-path="url(#pbc2d6b343b)" style="fill: none; stroke: #808080; stroke-opacity: 0.5; stroke-width: 1.5"/>
    <path d="M 129.08191 52.215005 
L 129.08191 22.494193 
" clip-path="url(#pbc2d6b343b)" style="fill: none; stroke: #808080; stroke-opacity: 0.5; stroke-width: 1.5"/>
    <path d="M 160.106094 52.215005 
L 160.106094 22.494193 
" clip-path="url(#pbc2d6b343b)" style="fill: none; stroke: #808080; stroke-opacity: 0.5; stroke-width: 1.5"/>
    <path d="M 186.328916 52.215005 
L 186.328916 22.494193 
" clip-path="url(#pbc2d6b343b)" style="fill: none; stroke: #808080; stroke-opacity: 0.5; stroke-width: 1.5"/>
    <path d="M 212.551739 52.215005 
L 212.551739 22.494193 
" clip-path="url(#pbc2d6b343b)" style="fill: none; stroke: #808080; stroke-opacity: 0.5; stroke-width: 1.5"/>
    <path d="M 242.098581 52.215005 
L 242.098581 22.494193 
" clip-path="url(#pbc2d6b343b)" style="fill: none; stroke: #808080; stroke-opacity: 0.5; stroke-width: 1.5"/>
    <path d="M 268.321403 52.215005 
L 268.321403 22.494193 
" clip-path="url(#pbc2d6b343b)" style="fill: none; stroke: #808080; stroke-opacity: 0.5; stroke-width: 1.5"/>
    <path d="M 283.46416 52.215005 
L 283.46416 22.494193 
" clip-path="url(#pbc2d6b343b)" style="fill: none; stroke: #808080; stroke-opacity: 0.5; stroke-width: 1.5"/>
    <path d="M 302.300272 52.215005 
L 302.300272 22.494193 
" clip-path="url(#pbc2d6b343b)" style="fill: none; stroke: #808080; stroke-opacity: 0.5; stroke-width: 1.5"/>
    <path d="M 328.523094 52.215005 
L 328.523094 22.494193 
" clip-path="url(#pbc2d6b343b)" style="fill: none; stroke: #808080; stroke-opacity: 0.5; stroke-width: 1.5"/>
    <path d="M 347.359206 52.215005 
L 347.359206 22.494193 
" clip-path="url(#pbc2d6b343b)" style="fill: none; stroke: #808080; stroke-opacity: 0.5; stroke-width: 1.5"/>
    <path d="M 364.717976 52.215005 
L 364.717976 22.494193 
" clip-path="url(#pbc2d6b343b)" style="fill: none; stroke: #808080; stroke-opacity: 0.5; stroke-width: 1.5"/>
    <path d="M 390.940798 52.215005 
L 390.940798 22.494193 
" clip-path="url(#pbc2d6b343b)" style="fill: none; stroke: #808080; stroke-opacity: 0.5; stroke-width: 1.5"/>
    <path d="M 417.16362 52.215005 
L 417.16362 22.494193 
" clip-path="url(#pbc2d6b343b)" style="fill: none; stroke: #808080; stroke-opacity: 0.5; stroke-width: 1.5"/>
    <path d="M 438.585081 52.215005 
L 438.585081 22.494193 
" clip-path="url(#pbc2d6b343b)" style="fill: none; stroke: #808080; stroke-opacity: 0.5; stroke-width: 1.5"/>
   </g>
   <g id="patch_13">
    <path d="M 33.682543 53.701046 
L 33.682543 21.008152 
" style="fill: none; stroke: #000000; stroke-width: 0.8; stroke-linejoin: miter; stroke-linecap: square"/>
   </g>
   <g id="patch_14">
    <path d="M 33.682543 53.701046 
L 458.64 53.701046 
" style="fill: none; stroke: #000000; stroke-width: 0.8; stroke-linejoin: miter; stroke-linecap: square"/>
   </g>
   <g id="text_3">
    <!-- du/dt -->
    <g transform="translate(233.975196 15.008152)scale(0.11 -0.11)">
     <defs>
      <path id="NimbusSanL-Regu-64" d="M 3168 4672 
L 2637 4672 
L 2637 2937 
C 2413 3276 2054 3456 1606 3456 
C 736 3456 166 2761 166 1695 
C 166 566 723 -128 1626 -128 
C 2086 -128 2406 45 2694 461 
L 2694 -2 
L 3168 -2 
L 3168 4672 
z
M 1696 2956 
C 2272 2956 2637 2447 2637 1651 
C 2637 881 2266 372 1702 372 
C 1114 372 723 887 723 1664 
C 723 2440 1114 2956 1696 2956 
z
" transform="scale(0.015625)"/>
      <path id="NimbusSanL-Regu-75" d="M 3085 33 
L 3085 3392 
L 2554 3392 
L 2554 1479 
C 2554 790 2195 340 1638 340 
C 1216 340 947 597 947 1003 
L 947 3392 
L 416 3392 
L 416 792 
C 416 232 832 -128 1485 -128 
C 1978 -128 2291 45 2605 488 
L 2605 33 
L 3085 33 
z
" transform="scale(0.015625)"/>
      <path id="NimbusSanL-Regu-2f" d="M 1466 4672 
L -51 -128 
L 301 -128 
L 1818 4672 
L 1466 4672 
z
" transform="scale(0.015625)"/>
      <path id="NimbusSanL-Regu-74" d="M 1626 3380 
L 1075 3380 
L 1075 4288 
L 544 4288 
L 544 3380 
L 90 3380 
L 90 2944 
L 544 2944 
L 544 404 
C 544 64 774 -128 1190 -128 
C 1318 -128 1446 -116 1626 -83 
L 1626 366 
C 1555 346 1472 340 1370 340 
C 1139 340 1075 404 1075 641 
L 1075 2944 
L 1626 2944 
L 1626 3380 
z
" transform="scale(0.015625)"/>
     </defs>
     <use xlink:href="#NimbusSanL-Regu-64" transform="scale(0.996264)"/>
     <use xlink:href="#NimbusSanL-Regu-75" transform="translate(55.391677 0)scale(0.996264)"/>
     <use xlink:href="#NimbusSanL-Regu-2f" transform="translate(110.783354 0)scale(0.996264)"/>
     <use xlink:href="#NimbusSanL-Regu-64" transform="translate(138.478524 0)scale(0.996264)"/>
     <use xlink:href="#NimbusSanL-Regu-74" transform="translate(193.8702 0)scale(0.996264)"/>
    </g>
   </g>
  </g>
  <g id="axes_2">
   <g id="patch_15">
    <path d="M 33.682543 115.784883 
L 458.64 115.784883 
L 458.64 83.09199 
L 33.682543 83.09199 
z
" style="fill: #ffffff"/>
   </g>
   <g id="patch_16">
    <path d="M 129.08191 115.784883 
L 129.08191 83.09199 
L 160.106094 83.09199 
L 160.106094 115.784883 
z
" clip-path="url(#p2f52c88461)" style="fill: #ff0000; opacity: 0.1"/>
   </g>
   <g id="patch_17">
    <path d="M 106.552443 115.784883 
L 106.552443 83.09199 
L 129.08191 83.09199 
L 129.08191 115.784883 
z
" clip-path="url(#p2f52c88461)" style="fill: #0000ff; opacity: 0.1"/>
   </g>
   <g id="patch_18">
    <path d="M 212.551739 115.784883 
L 212.551739 83.09199 
L 242.098581 83.09199 
L 242.098581 115.784883 
z
" clip-path="url(#p2f52c88461)" style="fill: #ff0000; opacity: 0.1"/>
   </g>
   <g id="patch_19">
    <path d="M 186.328916 115.784883 
L 186.328916 83.09199 
L 212.551739 83.09199 
L 212.551739 115.784883 
z
" clip-path="url(#p2f52c88461)" style="fill: #0000ff; opacity: 0.1"/>
   </g>
   <g id="patch_20">
    <path d="M 283.46416 115.784883 
L 283.46416 83.09199 
L 302.300272 83.09199 
L 302.300272 115.784883 
z
" clip-path="url(#p2f52c88461)" style="fill: #ff0000; opacity: 0.1"/>
   </g>
   <g id="patch_21">
    <path d="M 268.321403 115.784883 
L 268.321403 83.09199 
L 283.46416 83.09199 
L 283.46416 115.784883 
z
" clip-path="url(#p2f52c88461)" style="fill: #0000ff; opacity: 0.1"/>
   </g>
   <g id="patch_22">
    <path d="M 347.359206 115.784883 
L 347.359206 83.09199 
L 364.717976 83.09199 
L 364.717976 115.784883 
z
" clip-path="url(#p2f52c88461)" style="fill: #ff0000; opacity: 0.1"/>
   </g>
   <g id="patch_23">
    <path d="M 328.523094 115.784883 
L 328.523094 83.09199 
L 347.359206 83.09199 
L 347.359206 115.784883 
z
" clip-path="url(#p2f52c88461)" style="fill: #0000ff; opacity: 0.1"/>
   </g>
   <g id="patch_24">
    <path d="M 417.16362 115.784883 
L 417.16362 83.09199 
L 438.585081 83.09199 
L 438.585081 115.784883 
z
" clip-path="url(#p2f52c88461)" style="fill: #ff0000; opacity: 0.1"/>
   </g>
   <g id="patch_25">
    <path d="M 390.940798 115.784883 
L 390.940798 83.09199 
L 417.16362 83.09199 
L 417.16362 115.784883 
z
" clip-path="url(#p2f52c88461)" style="fill: #0000ff; opacity: 0.1"/>
   </g>
   <g id="matplotlib.axis_3">
    <g id="xtick_7">
     <g id="line2d_10">
      <g>
       <use xlink:href="#m949941833c" x="52.998792" y="115.784883" style="stroke: #000000; stroke-width: 0.8"/>
      </g>
     </g>
    </g>
    <g id="xtick_8">
     <g id="line2d_11">
      <g>
       <use xlink:href="#m949941833c" x="126.865897" y="115.784883" style="stroke: #000000; stroke-width: 0.8"/>
      </g>
     </g>
    </g>
    <g id="xtick_9">
     <g id="line2d_12">
      <g>
       <use xlink:href="#m949941833c" x="200.733002" y="115.784883" style="stroke: #000000; stroke-width: 0.8"/>
      </g>
     </g>
    </g>
    <g id="xtick_10">
     <g id="line2d_13">
      <g>
       <use xlink:href="#m949941833c" x="274.600107" y="115.784883" style="stroke: #000000; stroke-width: 0.8"/>
      </g>
     </g>
    </g>
    <g id="xtick_11">
     <g id="line2d_14">
      <g>
       <use xlink:href="#m949941833c" x="348.467213" y="115.784883" style="stroke: #000000; stroke-width: 0.8"/>
      </g>
     </g>
    </g>
    <g id="xtick_12">
     <g id="line2d_15">
      <g>
       <use xlink:href="#m949941833c" x="422.334318" y="115.784883" style="stroke: #000000; stroke-width: 0.8"/>
      </g>
     </g>
    </g>
   </g>
   <g id="matplotlib.axis_4">
    <g id="ytick_3">
     <g id="line2d_16">
      <g>
       <use xlink:href="#m3361b5269a" x="33.682543" y="109.834639" style="stroke: #000000; stroke-width: 0.8"/>
      </g>
     </g>
     <g id="text_4">
      <!-- $\mathdefault{0.25}$ -->
      <g transform="translate(7.2 113.738716)scale(0.11 -0.11)">
       <defs>
        <path id="CMR17-32" d="M 2669 989 
L 2554 989 
C 2490 536 2438 459 2413 420 
C 2381 369 1920 369 1830 369 
L 602 369 
C 832 619 1280 1072 1824 1597 
C 2214 1967 2669 2402 2669 3035 
C 2669 3790 2067 4224 1395 4224 
C 691 4224 262 3604 262 3030 
C 262 2780 448 2748 525 2748 
C 589 2748 781 2787 781 3010 
C 781 3207 614 3264 525 3264 
C 486 3264 448 3258 422 3245 
C 544 3790 915 4058 1306 4058 
C 1862 4058 2227 3617 2227 3035 
C 2227 2479 1901 2000 1536 1584 
L 262 146 
L 262 0 
L 2515 0 
L 2669 989 
z
" transform="scale(0.015625)"/>
        <path id="CMR17-35" d="M 730 3692 
C 794 3666 1056 3584 1325 3584 
C 1920 3584 2246 3911 2432 4100 
C 2432 4157 2432 4192 2394 4192 
C 2387 4192 2374 4192 2323 4163 
C 2099 4058 1837 3973 1517 3973 
C 1325 3973 1037 3999 723 4139 
C 653 4171 640 4171 634 4171 
C 602 4171 595 4164 595 4037 
L 595 2203 
C 595 2089 595 2057 659 2057 
C 691 2057 704 2070 736 2114 
C 941 2401 1222 2522 1542 2522 
C 1766 2522 2246 2382 2246 1289 
C 2246 1085 2246 715 2054 421 
C 1894 159 1645 25 1370 25 
C 947 25 518 320 403 814 
C 429 807 480 795 506 795 
C 589 795 749 840 749 1038 
C 749 1210 627 1280 506 1280 
C 358 1280 262 1190 262 1011 
C 262 454 704 -128 1382 -128 
C 2042 -128 2669 440 2669 1264 
C 2669 2030 2170 2624 1549 2624 
C 1222 2624 947 2503 730 2274 
L 730 3692 
z
" transform="scale(0.015625)"/>
       </defs>
       <use xlink:href="#CMR17-30" transform="scale(0.996264)"/>
       <use xlink:href="#CMMI12-3a" transform="translate(45.690477 0)scale(0.996264)"/>
       <use xlink:href="#CMR17-32" transform="translate(72.787654 0)scale(0.996264)"/>
       <use xlink:href="#CMR17-35" transform="translate(118.478131 0)scale(0.996264)"/>
      </g>
     </g>
    </g>
    <g id="ytick_4">
     <g id="line2d_17">
      <g>
       <use xlink:href="#m3361b5269a" x="33.682543" y="100.386937" style="stroke: #000000; stroke-width: 0.8"/>
      </g>
     </g>
     <g id="text_5">
      <!-- $\mathdefault{0.30}$ -->
      <g transform="translate(7.2 104.291013)scale(0.11 -0.11)">
       <defs>
        <path id="CMR17-33" d="M 1414 2157 
C 1984 2157 2234 1662 2234 1090 
C 2234 320 1824 25 1453 25 
C 1114 25 563 194 390 693 
C 422 680 454 680 486 680 
C 640 680 755 782 755 948 
C 755 1133 614 1216 486 1216 
C 378 1216 211 1165 211 926 
C 211 335 787 -128 1466 -128 
C 2176 -128 2720 430 2720 1085 
C 2720 1707 2208 2157 1600 2227 
C 2086 2328 2554 2756 2554 3329 
C 2554 3820 2048 4179 1472 4179 
C 890 4179 378 3829 378 3329 
C 378 3110 544 3072 627 3072 
C 762 3072 877 3155 877 3321 
C 877 3486 762 3569 627 3569 
C 602 3569 570 3569 544 3557 
C 730 3959 1235 4032 1459 4032 
C 1683 4032 2106 3925 2106 3320 
C 2106 3143 2080 2828 1862 2550 
C 1670 2304 1453 2304 1242 2284 
C 1210 2284 1062 2269 1037 2269 
C 992 2263 966 2257 966 2208 
C 966 2163 973 2157 1101 2157 
L 1414 2157 
z
" transform="scale(0.015625)"/>
       </defs>
       <use xlink:href="#CMR17-30" transform="scale(0.996264)"/>
       <use xlink:href="#CMMI12-3a" transform="translate(45.690477 0)scale(0.996264)"/>
       <use xlink:href="#CMR17-33" transform="translate(72.787654 0)scale(0.996264)"/>
       <use xlink:href="#CMR17-30" transform="translate(118.478131 0)scale(0.996264)"/>
      </g>
     </g>
    </g>
    <g id="ytick_5">
     <g id="line2d_18">
      <g>
       <use xlink:href="#m3361b5269a" x="33.682543" y="90.939234" style="stroke: #000000; stroke-width: 0.8"/>
      </g>
     </g>
     <g id="text_6">
      <!-- $\mathdefault{0.35}$ -->
      <g transform="translate(7.2 94.84331)scale(0.11 -0.11)">
       <use xlink:href="#CMR17-30" transform="scale(0.996264)"/>
       <use xlink:href="#CMMI12-3a" transform="translate(45.690477 0)scale(0.996264)"/>
       <use xlink:href="#CMR17-33" transform="translate(72.787654 0)scale(0.996264)"/>
       <use xlink:href="#CMR17-35" transform="translate(118.478131 0)scale(0.996264)"/>
      </g>
     </g>
    </g>
   </g>
   <g id="line2d_19">
    <path d="M 52.998792 111.554317 
L 53.737463 100.146162 
L 54.476134 92.862365 
L 55.214805 88.560582 
L 55.953476 86.153292 
L 56.692147 84.818402 
L 57.430818 84.57803 
L 58.169489 84.835779 
L 58.538824 85.024747 
L 59.277495 85.709423 
L 62.601515 90.04303 
L 64.817528 92.883661 
L 65.925535 94.12057 
L 66.29487 94.636021 
L 67.033542 95.359659 
L 68.141548 96.425191 
L 71.834903 99.286209 
L 72.94291 99.776353 
L 74.420252 100.635332 
L 76.636265 101.519495 
L 78.852278 102.291385 
L 80.32962 102.55483 
L 80.698956 89.111257 
L 81.068292 88.300904 
L 81.806963 87.464889 
L 82.176298 87.258857 
L 82.914969 87.251833 
L 83.65364 87.557208 
L 84.392311 88.185735 
L 85.130982 89.08834 
L 85.869653 90.03304 
L 86.97766 91.345188 
L 87.716331 92.181733 
L 90.671015 95.376922 
L 91.409686 96.074894 
L 92.887028 97.280094 
L 96.949719 99.959716 
L 98.796397 100.821282 
L 100.273739 101.382546 
L 101.01241 101.67481 
L 101.381745 101.707599 
L 102.120417 101.886595 
L 103.597759 102.252114 
L 104.33643 102.424075 
L 106.552443 102.930227 
L 106.921778 89.449114 
L 107.660449 88.141335 
L 108.029785 87.756626 
L 108.768456 87.598992 
L 109.507127 87.756405 
L 109.876463 87.884644 
L 111.72314 89.773622 
L 113.200482 91.401344 
L 115.416495 94.303452 
L 116.524502 95.439398 
L 120.217857 98.368339 
L 121.695199 99.354952 
L 122.803206 99.988197 
L 123.172542 100.096222 
L 124.280548 100.745544 
L 125.75789 101.32759 
L 127.973903 101.99753 
L 129.08191 102.32515 
L 129.451245 88.904544 
L 129.820581 88.695226 
L 130.189917 88.703344 
L 131.297923 89.337963 
L 132.775265 90.979207 
L 135.360614 94.803982 
L 136.099285 95.864234 
L 137.207291 97.49719 
L 139.79264 100.698923 
L 143.11666 103.767599 
L 144.224666 104.554924 
L 145.332673 105.358678 
L 150.134035 107.240442 
L 150.872706 107.380794 
L 151.611377 107.673797 
L 154.935397 108.344632 
L 157.890081 108.834517 
L 158.628752 108.875824 
L 160.106094 108.852966 
L 160.47543 94.779579 
L 160.844765 94.104387 
L 161.214101 93.698174 
L 161.583436 93.513233 
L 162.322107 93.48809 
L 163.060778 93.644019 
L 164.168785 94.694436 
L 165.276791 95.945944 
L 166.384798 97.352195 
L 170.078153 101.570349 
L 172.663502 103.660915 
L 175.248851 105.459337 
L 175.987522 105.731401 
L 177.095528 106.326003 
L 178.57287 106.957168 
L 178.942206 107.130742 
L 179.680877 107.270577 
L 182.266226 108.007834 
L 183.374232 108.13697 
L 185.22091 108.484976 
L 186.328916 108.549612 
L 186.698252 94.506561 
L 187.067588 93.818362 
L 187.806259 93.204586 
L 188.54493 93.185278 
L 189.283601 93.527124 
L 189.652936 93.789792 
L 190.760943 94.909487 
L 192.238285 96.566841 
L 192.976956 97.500566 
L 195.562305 100.431431 
L 196.670311 101.422718 
L 197.778318 102.423405 
L 199.624995 103.884756 
L 200.363666 104.40336 
L 202.57968 105.556325 
L 208.858384 107.765443 
L 211.074397 108.169786 
L 211.443732 108.151289 
L 212.182403 108.306479 
L 212.551739 108.347749 
L 212.921074 94.324884 
L 213.29041 93.724963 
L 214.029081 93.216031 
L 214.767752 93.33685 
L 215.506423 93.743201 
L 217.353101 95.724742 
L 219.569114 98.469794 
L 221.415791 100.621445 
L 225.109147 104.17478 
L 226.955824 105.433331 
L 227.694495 105.800219 
L 229.910509 106.909371 
L 232.865193 107.925534 
L 233.603864 108.057885 
L 234.342535 108.25314 
L 239.882568 109.450389 
L 240.621239 109.521685 
L 242.098581 109.676939 
L 242.467916 95.521155 
L 243.206588 94.455234 
L 243.575923 94.201462 
L 243.945259 94.132389 
L 244.68393 94.380995 
L 245.422601 94.894104 
L 246.530607 96.013431 
L 247.269278 96.855796 
L 250.223963 100.478468 
L 251.701305 101.999575 
L 253.547982 103.598549 
L 258.349344 106.645495 
L 259.457351 107.051253 
L 262.78137 108.196178 
L 263.520041 108.375509 
L 264.258713 108.599462 
L 264.997384 108.671853 
L 267.582732 109.179199 
L 268.321403 109.256802 
L 268.690739 95.143032 
L 269.060074 94.441767 
L 269.42941 94.011773 
L 269.798745 93.869109 
L 270.537416 93.812998 
L 271.276088 94.174499 
L 272.014759 94.816335 
L 274.600107 97.838255 
L 278.293463 102.092343 
L 279.770805 103.504804 
L 281.248147 104.690942 
L 281.986818 105.202657 
L 283.46416 106.087067 
L 283.833495 92.29027 
L 284.572166 92.431522 
L 285.680173 93.602861 
L 286.418844 94.760169 
L 292.328213 104.209884 
L 293.436219 105.575596 
L 295.282897 107.560954 
L 297.868245 109.85581 
L 301.561601 111.908294 
L 302.300272 112.242065 
L 302.669607 97.829768 
L 303.038943 97.409742 
L 303.777614 97.190146 
L 304.516285 97.435091 
L 305.254956 98.1145 
L 306.362963 99.591452 
L 307.101634 100.508905 
L 311.53366 106.228981 
L 313.380338 108.153155 
L 314.85768 109.473126 
L 317.073693 110.939254 
L 318.551035 111.621931 
L 319.659041 112.15101 
L 321.875055 112.941084 
L 323.721732 113.463414 
L 326.307081 113.969686 
L 327.415088 114.110849 
L 328.523094 114.298842 
L 328.89243 99.680868 
L 329.631101 99.013106 
L 330.369772 98.853137 
L 331.108443 99.301417 
L 331.477778 99.544224 
L 334.063127 102.556261 
L 337.017811 106.35944 
L 338.125818 107.598798 
L 339.233824 108.471624 
L 339.972495 109.022874 
L 342.188509 110.71813 
L 342.92718 111.039931 
L 344.035186 111.602868 
L 346.98987 112.823909 
L 347.359206 112.896624 
L 347.728541 98.418871 
L 348.097877 97.966428 
L 348.467213 97.756977 
L 349.205884 97.732172 
L 350.31389 98.515339 
L 351.791232 100.30744 
L 353.63791 102.756062 
L 354.745916 104.179892 
L 355.853923 105.493908 
L 357.700601 107.255077 
L 358.439272 107.881242 
L 359.916614 109.164155 
L 361.763291 110.491729 
L 363.240634 111.137872 
L 364.34864 111.648541 
L 364.717976 111.766059 
L 365.087311 97.401363 
L 365.456647 97.003767 
L 366.195318 96.796693 
L 366.933989 97.041464 
L 367.67266 97.669902 
L 369.150002 99.338493 
L 373.582028 105.294502 
L 375.428706 107.124863 
L 376.167377 107.840638 
L 378.38339 109.60235 
L 379.122061 110.179133 
L 383.554088 112.118745 
L 386.139436 112.964735 
L 387.986114 113.450281 
L 390.940798 113.872756 
L 391.310134 99.29739 
L 391.679469 98.790683 
L 392.048805 98.51395 
L 392.41814 98.436512 
L 393.156811 98.577871 
L 393.895482 99.115781 
L 394.634153 99.846353 
L 395.74216 101.164888 
L 396.480831 102.106269 
L 397.588838 103.511476 
L 400.174186 106.590139 
L 401.282193 107.667414 
L 402.759535 108.98842 
L 404.606213 110.241368 
L 405.344884 110.661217 
L 406.45289 111.267353 
L 407.560897 111.713997 
L 409.038239 112.274718 
L 410.515581 112.618558 
L 414.208936 113.566679 
L 414.947607 113.638493 
L 415.316943 113.756416 
L 415.686278 113.751786 
L 416.424949 113.93669 
L 416.794285 113.90418 
L 417.16362 113.990098 
L 417.532956 99.402998 
L 417.902291 98.536563 
L 418.271627 97.971064 
L 419.010298 97.479496 
L 419.379634 97.378333 
L 420.118305 97.586645 
L 421.226311 98.386827 
L 423.072989 100.49913 
L 425.289002 103.003463 
L 426.766344 104.437091 
L 428.613022 106.037658 
L 431.19837 107.850229 
L 432.675713 108.623855 
L 436.369068 109.953178 
L 437.107739 110.221658 
L 438.954416 110.584853 
L 438.954416 110.584853 
" clip-path="url(#p2f52c88461)" style="fill: none; stroke: #808080; stroke-width: 1.5; stroke-linecap: square"/>
   </g>
   <g id="LineCollection_2">
    <path d="M 80.32962 114.298842 
L 80.32962 84.57803 
" clip-path="url(#p2f52c88461)" style="fill: none; stroke: #808080; stroke-opacity: 0.5; stroke-width: 1.5"/>
    <path d="M 106.552443 114.298842 
L 106.552443 84.57803 
" clip-path="url(#p2f52c88461)" style="fill: none; stroke: #808080; stroke-opacity: 0.5; stroke-width: 1.5"/>
    <path d="M 129.08191 114.298842 
L 129.08191 84.57803 
" clip-path="url(#p2f52c88461)" style="fill: none; stroke: #808080; stroke-opacity: 0.5; stroke-width: 1.5"/>
    <path d="M 160.106094 114.298842 
L 160.106094 84.57803 
" clip-path="url(#p2f52c88461)" style="fill: none; stroke: #808080; stroke-opacity: 0.5; stroke-width: 1.5"/>
    <path d="M 186.328916 114.298842 
L 186.328916 84.57803 
" clip-path="url(#p2f52c88461)" style="fill: none; stroke: #808080; stroke-opacity: 0.5; stroke-width: 1.5"/>
    <path d="M 212.551739 114.298842 
L 212.551739 84.57803 
" clip-path="url(#p2f52c88461)" style="fill: none; stroke: #808080; stroke-opacity: 0.5; stroke-width: 1.5"/>
    <path d="M 242.098581 114.298842 
L 242.098581 84.57803 
" clip-path="url(#p2f52c88461)" style="fill: none; stroke: #808080; stroke-opacity: 0.5; stroke-width: 1.5"/>
    <path d="M 268.321403 114.298842 
L 268.321403 84.57803 
" clip-path="url(#p2f52c88461)" style="fill: none; stroke: #808080; stroke-opacity: 0.5; stroke-width: 1.5"/>
    <path d="M 283.46416 114.298842 
L 283.46416 84.57803 
" clip-path="url(#p2f52c88461)" style="fill: none; stroke: #808080; stroke-opacity: 0.5; stroke-width: 1.5"/>
    <path d="M 302.300272 114.298842 
L 302.300272 84.57803 
" clip-path="url(#p2f52c88461)" style="fill: none; stroke: #808080; stroke-opacity: 0.5; stroke-width: 1.5"/>
    <path d="M 328.523094 114.298842 
L 328.523094 84.57803 
" clip-path="url(#p2f52c88461)" style="fill: none; stroke: #808080; stroke-opacity: 0.5; stroke-width: 1.5"/>
    <path d="M 347.359206 114.298842 
L 347.359206 84.57803 
" clip-path="url(#p2f52c88461)" style="fill: none; stroke: #808080; stroke-opacity: 0.5; stroke-width: 1.5"/>
    <path d="M 364.717976 114.298842 
L 364.717976 84.57803 
" clip-path="url(#p2f52c88461)" style="fill: none; stroke: #808080; stroke-opacity: 0.5; stroke-width: 1.5"/>
    <path d="M 390.940798 114.298842 
L 390.940798 84.57803 
" clip-path="url(#p2f52c88461)" style="fill: none; stroke: #808080; stroke-opacity: 0.5; stroke-width: 1.5"/>
    <path d="M 417.16362 114.298842 
L 417.16362 84.57803 
" clip-path="url(#p2f52c88461)" style="fill: none; stroke: #808080; stroke-opacity: 0.5; stroke-width: 1.5"/>
    <path d="M 438.585081 114.298842 
L 438.585081 84.57803 
" clip-path="url(#p2f52c88461)" style="fill: none; stroke: #808080; stroke-opacity: 0.5; stroke-width: 1.5"/>
   </g>
   <g id="patch_26">
    <path d="M 33.682543 115.784883 
L 33.682543 83.09199 
" style="fill: none; stroke: #000000; stroke-width: 0.8; stroke-linejoin: miter; stroke-linecap: square"/>
   </g>
   <g id="patch_27">
    <path d="M 33.682543 115.784883 
L 458.64 115.784883 
" style="fill: none; stroke: #000000; stroke-width: 0.8; stroke-linejoin: miter; stroke-linecap: square"/>
   </g>
   <g id="text_7">
    <!-- dv/dt -->
    <g transform="translate(234.282006 77.09199)scale(0.11 -0.11)">
     <defs>
      <path id="NimbusSanL-Regu-76" d="M 1824 0 
L 3110 3360 
L 2509 3360 
L 1562 635 
L 666 3360 
L 64 3360 
L 1242 0 
L 1824 0 
z
" transform="scale(0.015625)"/>
     </defs>
     <use xlink:href="#NimbusSanL-Regu-64" transform="scale(0.996264)"/>
     <use xlink:href="#NimbusSanL-Regu-76" transform="translate(55.391677 0)scale(0.996264)"/>
     <use xlink:href="#NimbusSanL-Regu-2f" transform="translate(105.204877 0)scale(0.996264)"/>
     <use xlink:href="#NimbusSanL-Regu-64" transform="translate(132.900047 0)scale(0.996264)"/>
     <use xlink:href="#NimbusSanL-Regu-74" transform="translate(188.291724 0)scale(0.996264)"/>
    </g>
   </g>
  </g>
  <g id="axes_3">
   <g id="patch_28">
    <path d="M 33.682543 177.86872 
L 458.64 177.86872 
L 458.64 145.175827 
L 33.682543 145.175827 
z
" style="fill: #ffffff"/>
   </g>
   <g id="patch_29">
    <path d="M 129.08191 177.86872 
L 129.08191 145.175827 
L 160.106094 145.175827 
L 160.106094 177.86872 
z
" clip-path="url(#pf8df445f44)" style="fill: #ff0000; opacity: 0.1"/>
   </g>
   <g id="patch_30">
    <path d="M 106.552443 177.86872 
L 106.552443 145.175827 
L 129.08191 145.175827 
L 129.08191 177.86872 
z
" clip-path="url(#pf8df445f44)" style="fill: #0000ff; opacity: 0.1"/>
   </g>
   <g id="patch_31">
    <path d="M 212.551739 177.86872 
L 212.551739 145.175827 
L 242.098581 145.175827 
L 242.098581 177.86872 
z
" clip-path="url(#pf8df445f44)" style="fill: #ff0000; opacity: 0.1"/>
   </g>
   <g id="patch_32">
    <path d="M 186.328916 177.86872 
L 186.328916 145.175827 
L 212.551739 145.175827 
L 212.551739 177.86872 
z
" clip-path="url(#pf8df445f44)" style="fill: #0000ff; opacity: 0.1"/>
   </g>
   <g id="patch_33">
    <path d="M 283.46416 177.86872 
L 283.46416 145.175827 
L 302.300272 145.175827 
L 302.300272 177.86872 
z
" clip-path="url(#pf8df445f44)" style="fill: #ff0000; opacity: 0.1"/>
   </g>
   <g id="patch_34">
    <path d="M 268.321403 177.86872 
L 268.321403 145.175827 
L 283.46416 145.175827 
L 283.46416 177.86872 
z
" clip-path="url(#pf8df445f44)" style="fill: #0000ff; opacity: 0.1"/>
   </g>
   <g id="patch_35">
    <path d="M 347.359206 177.86872 
L 347.359206 145.175827 
L 364.717976 145.175827 
L 364.717976 177.86872 
z
" clip-path="url(#pf8df445f44)" style="fill: #ff0000; opacity: 0.1"/>
   </g>
   <g id="patch_36">
    <path d="M 328.523094 177.86872 
L 328.523094 145.175827 
L 347.359206 145.175827 
L 347.359206 177.86872 
z
" clip-path="url(#pf8df445f44)" style="fill: #0000ff; opacity: 0.1"/>
   </g>
   <g id="patch_37">
    <path d="M 417.16362 177.86872 
L 417.16362 145.175827 
L 438.585081 145.175827 
L 438.585081 177.86872 
z
" clip-path="url(#pf8df445f44)" style="fill: #ff0000; opacity: 0.1"/>
   </g>
   <g id="patch_38">
    <path d="M 390.940798 177.86872 
L 390.940798 145.175827 
L 417.16362 145.175827 
L 417.16362 177.86872 
z
" clip-path="url(#pf8df445f44)" style="fill: #0000ff; opacity: 0.1"/>
   </g>
   <g id="matplotlib.axis_5">
    <g id="xtick_13">
     <g id="line2d_20">
      <g>
       <use xlink:href="#m949941833c" x="52.998792" y="177.86872" style="stroke: #000000; stroke-width: 0.8"/>
      </g>
     </g>
    </g>
    <g id="xtick_14">
     <g id="line2d_21">
      <g>
       <use xlink:href="#m949941833c" x="126.865897" y="177.86872" style="stroke: #000000; stroke-width: 0.8"/>
      </g>
     </g>
    </g>
    <g id="xtick_15">
     <g id="line2d_22">
      <g>
       <use xlink:href="#m949941833c" x="200.733002" y="177.86872" style="stroke: #000000; stroke-width: 0.8"/>
      </g>
     </g>
    </g>
    <g id="xtick_16">
     <g id="line2d_23">
      <g>
       <use xlink:href="#m949941833c" x="274.600107" y="177.86872" style="stroke: #000000; stroke-width: 0.8"/>
      </g>
     </g>
    </g>
    <g id="xtick_17">
     <g id="line2d_24">
      <g>
       <use xlink:href="#m949941833c" x="348.467213" y="177.86872" style="stroke: #000000; stroke-width: 0.8"/>
      </g>
     </g>
    </g>
    <g id="xtick_18">
     <g id="line2d_25">
      <g>
       <use xlink:href="#m949941833c" x="422.334318" y="177.86872" style="stroke: #000000; stroke-width: 0.8"/>
      </g>
     </g>
    </g>
   </g>
   <g id="matplotlib.axis_6">
    <g id="ytick_6">
     <g id="line2d_26">
      <g>
       <use xlink:href="#m3361b5269a" x="33.682543" y="174.737377" style="stroke: #000000; stroke-width: 0.8"/>
      </g>
     </g>
     <g id="text_8">
      <!-- $\mathdefault{0.50}$ -->
      <g transform="translate(7.2 178.641454)scale(0.11 -0.11)">
       <use xlink:href="#CMR17-30" transform="scale(0.996264)"/>
       <use xlink:href="#CMMI12-3a" transform="translate(45.690477 0)scale(0.996264)"/>
       <use xlink:href="#CMR17-35" transform="translate(72.787654 0)scale(0.996264)"/>
       <use xlink:href="#CMR17-30" transform="translate(118.478131 0)scale(0.996264)"/>
      </g>
     </g>
    </g>
    <g id="ytick_7">
     <g id="line2d_27">
      <g>
       <use xlink:href="#m3361b5269a" x="33.682543" y="151.239095" style="stroke: #000000; stroke-width: 0.8"/>
      </g>
     </g>
     <g id="text_9">
      <!-- $\mathdefault{0.75}$ -->
      <g transform="translate(7.2 155.143171)scale(0.11 -0.11)">
       <defs>
        <path id="CMR17-37" d="M 2886 3941 
L 2886 4081 
L 1382 4081 
C 634 4081 621 4165 595 4288 
L 480 4288 
L 294 3094 
L 410 3094 
C 429 3215 474 3540 550 3661 
C 589 3712 1062 3712 1171 3712 
L 2579 3712 
L 1869 2661 
C 1395 1954 1069 999 1069 165 
C 1069 89 1069 -128 1299 -128 
C 1530 -128 1530 89 1530 171 
L 1530 465 
C 1530 1508 1709 2196 2003 2636 
L 2886 3941 
z
" transform="scale(0.015625)"/>
       </defs>
       <use xlink:href="#CMR17-30" transform="scale(0.996264)"/>
       <use xlink:href="#CMMI12-3a" transform="translate(45.690477 0)scale(0.996264)"/>
       <use xlink:href="#CMR17-37" transform="translate(72.787654 0)scale(0.996264)"/>
       <use xlink:href="#CMR17-35" transform="translate(118.478131 0)scale(0.996264)"/>
      </g>
     </g>
    </g>
   </g>
   <g id="line2d_28">
    <path d="M 52.998792 174.740387 
L 53.737463 175.213274 
L 54.845469 175.865392 
L 55.953476 176.124877 
L 56.322811 176.159916 
L 56.692147 176.38268 
L 57.061482 176.217675 
L 57.430818 176.24421 
L 58.538824 175.674478 
L 60.754838 174.183686 
L 62.23218 172.617457 
L 62.970851 172.063303 
L 63.709522 171.302783 
L 64.448193 170.387529 
L 64.817528 170.178167 
L 65.556199 169.432338 
L 66.664206 168.520061 
L 68.141548 166.858984 
L 68.880219 166.440503 
L 69.988226 165.313575 
L 71.096232 164.707023 
L 71.465568 164.568843 
L 72.94291 163.392178 
L 74.420252 162.593545 
L 75.897594 161.904295 
L 76.636265 161.571902 
L 77.374936 161.347723 
L 78.113607 161.060624 
L 79.960285 160.11698 
L 80.32962 160.11306 
L 81.437627 163.918614 
L 82.176298 165.865532 
L 82.545634 166.731853 
L 83.284305 167.879755 
L 84.392311 168.420296 
L 85.130982 168.975503 
L 85.869653 169.230102 
L 89.193673 167.872036 
L 89.932344 167.405341 
L 90.671015 166.986339 
L 91.409686 166.31429 
L 92.887028 165.236289 
L 93.995035 164.454575 
L 96.211048 163.05947 
L 97.319055 162.689436 
L 98.796397 161.759114 
L 99.535068 161.656341 
L 100.643074 160.892919 
L 101.01241 160.657524 
L 101.381745 160.633536 
L 102.120417 160.253083 
L 102.859088 160.299332 
L 103.228423 160.199377 
L 103.597759 159.9409 
L 104.33643 159.825543 
L 105.075101 159.73759 
L 105.444436 159.920146 
L 106.552443 159.385045 
L 107.291114 162.274258 
L 108.029785 164.539093 
L 109.507127 167.256654 
L 110.615134 168.416637 
L 112.092476 168.774676 
L 113.200482 168.539277 
L 114.677824 167.789266 
L 115.416495 167.15455 
L 115.785831 166.73909 
L 116.155167 166.657403 
L 117.263173 165.980159 
L 118.001844 165.606317 
L 119.109851 165.023249 
L 120.217857 164.240852 
L 120.587193 164.113019 
L 120.956528 163.706331 
L 122.803206 162.637097 
L 123.172542 162.627588 
L 124.649884 161.765109 
L 125.388555 161.765195 
L 126.127226 161.298053 
L 126.865897 160.752402 
L 128.712574 160.129632 
L 129.08191 160.17498 
L 129.820581 163.106049 
L 130.559252 164.961538 
L 132.036594 167.402625 
L 132.775265 167.989907 
L 134.252607 168.112711 
L 134.991278 167.79556 
L 135.729949 167.460912 
L 137.576627 166.655599 
L 137.945963 166.283679 
L 138.315298 166.09335 
L 139.79264 164.949836 
L 141.269982 163.934645 
L 142.008653 163.320574 
L 142.747324 162.58603 
L 143.11666 162.371758 
L 143.485995 161.803927 
L 143.855331 161.670959 
L 144.594002 161.142445 
L 144.963338 161.087008 
L 145.332673 160.839565 
L 145.702009 160.810986 
L 147.548686 159.592824 
L 148.287357 159.327696 
L 149.395364 158.723938 
L 149.764699 158.606881 
L 150.134035 158.622523 
L 153.458055 157.054041 
L 154.566061 156.823295 
L 155.304732 156.842672 
L 156.043403 156.573815 
L 156.782074 156.632922 
L 157.15141 156.515557 
L 157.520745 156.636741 
L 158.628752 156.26437 
L 158.998088 156.05117 
L 159.736759 156.043916 
L 160.106094 156.038497 
L 161.214101 160.316753 
L 162.322107 162.839793 
L 163.060778 163.980751 
L 163.799449 164.612964 
L 164.168785 164.96851 
L 165.646127 165.371428 
L 166.754134 165.2687 
L 169.339482 164.187875 
L 169.708818 163.674162 
L 170.816824 162.875375 
L 171.924831 162.485696 
L 173.771509 160.755815 
L 174.140844 160.708362 
L 175.248851 160.083094 
L 178.57287 158.359622 
L 178.942206 158.32924 
L 179.680877 157.982145 
L 180.788884 157.816027 
L 181.527555 157.608046 
L 181.89689 157.462063 
L 182.266226 157.436356 
L 183.374232 157.019351 
L 184.112903 156.885543 
L 184.482239 156.67504 
L 185.590245 156.503275 
L 186.328916 156.337657 
L 187.436923 160.377589 
L 188.175594 162.379509 
L 189.652936 164.664054 
L 190.022272 164.961868 
L 191.868949 165.7896 
L 192.60762 165.578628 
L 193.346291 165.482681 
L 195.562305 164.353221 
L 198.516989 161.886838 
L 198.886324 161.75769 
L 199.994331 160.913696 
L 200.363666 160.69322 
L 201.102338 160.473681 
L 202.210344 159.83776 
L 202.949015 159.635854 
L 203.687686 159.392808 
L 204.057022 159.051183 
L 204.795693 158.778641 
L 205.534364 158.351316 
L 205.903699 158.33175 
L 206.273035 158.107713 
L 207.011706 158.02997 
L 207.381041 157.989275 
L 208.119713 157.617126 
L 208.489048 157.732667 
L 209.227719 157.4341 
L 209.597055 157.233694 
L 209.96639 157.279819 
L 210.705061 156.972236 
L 211.443732 156.808079 
L 212.551739 156.540133 
L 213.29041 159.368991 
L 214.029081 161.836312 
L 214.767752 163.639764 
L 215.506423 164.590723 
L 216.983765 165.514602 
L 217.722436 165.624594 
L 218.830443 165.589078 
L 219.569114 165.39018 
L 219.938449 165.507567 
L 221.785127 164.475485 
L 224.00114 162.71034 
L 224.370476 162.543718 
L 225.109147 161.963345 
L 225.478482 161.755412 
L 225.847818 161.126491 
L 226.217153 160.855507 
L 226.955824 160.713863 
L 231.757186 157.813724 
L 232.495857 157.810727 
L 233.234528 157.616877 
L 233.603864 157.479027 
L 234.342535 157.523686 
L 234.71187 157.277683 
L 235.450541 157.215511 
L 236.189213 156.872704 
L 239.513232 155.953617 
L 240.251903 156.124079 
L 240.990574 156.081771 
L 242.098581 156.043392 
L 242.837252 158.834734 
L 243.945259 161.994902 
L 244.68393 163.395453 
L 245.422601 164.35826 
L 246.161272 164.85619 
L 248.007949 165.213545 
L 248.377285 164.923726 
L 249.115956 164.732026 
L 249.485291 164.511984 
L 249.854627 164.08551 
L 250.962634 163.628709 
L 251.331969 163.567941 
L 252.07064 162.986569 
L 252.439976 162.869144 
L 253.547982 162.111087 
L 253.917318 161.896708 
L 254.286653 161.54846 
L 255.39466 160.918029 
L 256.872002 159.939837 
L 257.241338 159.723342 
L 257.610673 159.644074 
L 258.349344 159.222781 
L 258.71868 159.249884 
L 259.088015 158.941741 
L 259.826686 158.588404 
L 260.565357 158.139091 
L 262.042699 157.480071 
L 262.78137 157.385196 
L 263.150706 157.287726 
L 263.520041 157.347345 
L 263.889377 157.285478 
L 264.258713 157.06549 
L 264.628048 157.104888 
L 266.10539 156.396922 
L 267.213397 156.056864 
L 267.582732 156.126296 
L 268.321403 155.916121 
L 269.42941 160.052991 
L 270.168081 162.040452 
L 270.906752 163.438992 
L 271.645423 164.362982 
L 273.492101 165.338569 
L 274.969443 165.161052 
L 276.81612 164.208804 
L 277.554791 163.829602 
L 278.293463 163.135778 
L 279.032134 162.860451 
L 280.878811 161.443088 
L 281.986818 160.853524 
L 282.725489 160.641398 
L 283.094824 160.453645 
L 283.46416 160.404073 
L 284.572166 163.696492 
L 285.680173 165.856584 
L 286.049509 166.298248 
L 286.418844 166.521546 
L 287.896186 166.858167 
L 288.265522 166.665273 
L 288.634857 166.613251 
L 289.004193 166.438625 
L 289.742864 165.885917 
L 291.220206 164.890505 
L 292.328213 163.783138 
L 293.066884 163.15095 
L 293.805555 162.435732 
L 294.544226 161.885358 
L 295.282897 161.264612 
L 296.390903 160.348972 
L 296.760239 160.064833 
L 297.129574 159.582775 
L 297.49891 159.408201 
L 298.606916 158.213486 
L 299.714923 157.392437 
L 302.300272 155.984034 
L 303.038943 158.804488 
L 303.777614 160.792317 
L 304.516285 162.162957 
L 305.254956 163.152634 
L 305.624291 163.473114 
L 306.362963 163.597064 
L 307.101634 163.854103 
L 307.470969 163.748248 
L 307.840305 163.917963 
L 308.578976 163.565712 
L 309.686982 162.80132 
L 310.056318 162.650035 
L 311.53366 161.562911 
L 311.902995 161.450806 
L 313.380338 160.22741 
L 313.749673 160.173805 
L 315.227015 158.812531 
L 315.965686 158.337412 
L 316.704357 157.612427 
L 317.443028 157.206644 
L 317.812364 156.918545 
L 318.181699 156.830977 
L 319.289706 156.138453 
L 319.659041 156.15228 
L 320.028377 155.850482 
L 320.397713 155.753203 
L 321.505719 155.193203 
L 321.875055 155.148658 
L 322.613726 154.785158 
L 323.721732 154.677008 
L 324.091068 154.509898 
L 324.460403 154.607965 
L 324.829739 154.245329 
L 325.199074 154.221552 
L 325.56841 154.038313 
L 326.307081 153.917457 
L 327.045752 153.712614 
L 327.415088 153.486602 
L 327.784423 153.592646 
L 328.523094 153.532886 
L 329.261765 156.655072 
L 330.000436 158.992754 
L 331.108443 161.063503 
L 331.847114 161.942694 
L 333.324456 162.438881 
L 333.693791 162.515695 
L 335.540469 162.207094 
L 336.648476 161.629465 
L 337.756482 160.628248 
L 338.125818 160.616265 
L 338.495153 160.431137 
L 339.233824 159.664349 
L 341.080502 158.252584 
L 341.449838 157.878013 
L 342.188509 157.486288 
L 342.92718 156.814295 
L 344.404522 156.419777 
L 344.773857 156.116197 
L 345.143193 156.129578 
L 345.512528 155.853246 
L 346.251199 155.696911 
L 346.620535 155.775817 
L 346.98987 155.73541 
L 347.359206 155.573072 
L 348.097877 158.27198 
L 348.836548 160.248318 
L 349.575219 161.73982 
L 350.683226 162.68175 
L 351.052561 162.773224 
L 351.791232 163.167676 
L 352.529903 163.199831 
L 353.63791 163.086082 
L 354.007245 162.776555 
L 354.745916 162.506921 
L 356.223259 161.648348 
L 356.592594 161.525631 
L 357.331265 160.922774 
L 358.069936 160.200448 
L 359.916614 159.004169 
L 361.02462 158.023006 
L 361.393956 157.882269 
L 361.763291 157.56091 
L 363.240634 156.856228 
L 364.717976 156.139692 
L 365.825982 160.190537 
L 366.933989 162.339813 
L 367.67266 163.477374 
L 369.519338 164.36092 
L 370.627344 164.240048 
L 373.212693 162.631512 
L 373.951364 161.979386 
L 374.320699 161.804053 
L 374.690035 161.392094 
L 375.428706 161.029946 
L 375.798041 160.694089 
L 376.536713 160.499386 
L 376.906048 159.964723 
L 378.38339 159.052326 
L 378.752726 158.552522 
L 380.599403 157.435818 
L 383.184752 156.246333 
L 383.923423 155.726083 
L 385.400765 155.131868 
L 386.139436 154.587913 
L 386.508772 154.438126 
L 387.616778 154.376205 
L 389.09412 154.052799 
L 389.832791 153.846396 
L 390.202127 153.608792 
L 390.940798 153.730868 
L 392.048805 157.904055 
L 392.787476 159.937812 
L 393.156811 160.674096 
L 393.895482 161.531534 
L 394.634153 162.109983 
L 395.003489 162.34158 
L 395.372824 162.339855 
L 396.480831 162.606428 
L 397.219502 162.699339 
L 397.588838 162.696598 
L 398.327509 162.321561 
L 399.435515 161.587346 
L 399.804851 161.205341 
L 400.174186 161.036944 
L 401.282193 160.087329 
L 401.651528 159.793337 
L 402.390199 159.528765 
L 403.498206 158.705288 
L 403.867541 158.434564 
L 404.236877 158.385505 
L 408.299568 156.488107 
L 408.668903 156.427734 
L 409.407574 155.879807 
L 410.146245 155.732179 
L 411.254252 155.360765 
L 411.623588 155.071793 
L 412.731594 154.799998 
L 413.10093 154.807536 
L 413.839601 154.515654 
L 414.578272 154.175785 
L 415.316943 154.009877 
L 415.686278 153.850915 
L 416.055614 153.911526 
L 417.16362 153.60703 
L 418.271627 157.732813 
L 419.010298 159.67773 
L 420.118305 161.78247 
L 421.226311 162.887104 
L 421.964982 163.175197 
L 422.334318 163.40056 
L 423.81166 163.348705 
L 424.550331 163.159744 
L 424.919666 162.835458 
L 425.289002 162.769509 
L 428.982357 160.248324 
L 431.19837 158.889469 
L 431.567706 158.554513 
L 432.675713 158.10923 
L 433.783719 157.990083 
L 435.999732 157.020906 
L 436.369068 157.04644 
L 437.107739 156.749209 
L 437.84641 156.497001 
L 438.215745 156.218208 
L 438.585081 156.216972 
L 438.954416 156.097032 
L 438.954416 156.097032 
" clip-path="url(#pf8df445f44)" style="fill: none; stroke: #808080; stroke-width: 1.5; stroke-linecap: square"/>
   </g>
   <g id="LineCollection_3">
    <path d="M 52.998792 155.938751 
L 439.323752 155.938751 
" clip-path="url(#pf8df445f44)" style="fill: none; stroke-dasharray: 5.55,2.4; stroke-dashoffset: 0; stroke: #d3d3d3; stroke-width: 1.5"/>
   </g>
   <g id="LineCollection_4">
    <path d="M 80.32962 176.38268 
L 80.32962 146.661868 
" clip-path="url(#pf8df445f44)" style="fill: none; stroke: #808080; stroke-opacity: 0.5; stroke-width: 1.5"/>
    <path d="M 106.552443 176.38268 
L 106.552443 146.661868 
" clip-path="url(#pf8df445f44)" style="fill: none; stroke: #808080; stroke-opacity: 0.5; stroke-width: 1.5"/>
    <path d="M 129.08191 176.38268 
L 129.08191 146.661868 
" clip-path="url(#pf8df445f44)" style="fill: none; stroke: #808080; stroke-opacity: 0.5; stroke-width: 1.5"/>
    <path d="M 160.106094 176.38268 
L 160.106094 146.661868 
" clip-path="url(#pf8df445f44)" style="fill: none; stroke: #808080; stroke-opacity: 0.5; stroke-width: 1.5"/>
    <path d="M 186.328916 176.38268 
L 186.328916 146.661868 
" clip-path="url(#pf8df445f44)" style="fill: none; stroke: #808080; stroke-opacity: 0.5; stroke-width: 1.5"/>
    <path d="M 212.551739 176.38268 
L 212.551739 146.661868 
" clip-path="url(#pf8df445f44)" style="fill: none; stroke: #808080; stroke-opacity: 0.5; stroke-width: 1.5"/>
    <path d="M 242.098581 176.38268 
L 242.098581 146.661868 
" clip-path="url(#pf8df445f44)" style="fill: none; stroke: #808080; stroke-opacity: 0.5; stroke-width: 1.5"/>
    <path d="M 268.321403 176.38268 
L 268.321403 146.661868 
" clip-path="url(#pf8df445f44)" style="fill: none; stroke: #808080; stroke-opacity: 0.5; stroke-width: 1.5"/>
    <path d="M 283.46416 176.38268 
L 283.46416 146.661868 
" clip-path="url(#pf8df445f44)" style="fill: none; stroke: #808080; stroke-opacity: 0.5; stroke-width: 1.5"/>
    <path d="M 302.300272 176.38268 
L 302.300272 146.661868 
" clip-path="url(#pf8df445f44)" style="fill: none; stroke: #808080; stroke-opacity: 0.5; stroke-width: 1.5"/>
    <path d="M 328.523094 176.38268 
L 328.523094 146.661868 
" clip-path="url(#pf8df445f44)" style="fill: none; stroke: #808080; stroke-opacity: 0.5; stroke-width: 1.5"/>
    <path d="M 347.359206 176.38268 
L 347.359206 146.661868 
" clip-path="url(#pf8df445f44)" style="fill: none; stroke: #808080; stroke-opacity: 0.5; stroke-width: 1.5"/>
    <path d="M 364.717976 176.38268 
L 364.717976 146.661868 
" clip-path="url(#pf8df445f44)" style="fill: none; stroke: #808080; stroke-opacity: 0.5; stroke-width: 1.5"/>
    <path d="M 390.940798 176.38268 
L 390.940798 146.661868 
" clip-path="url(#pf8df445f44)" style="fill: none; stroke: #808080; stroke-opacity: 0.5; stroke-width: 1.5"/>
    <path d="M 417.16362 176.38268 
L 417.16362 146.661868 
" clip-path="url(#pf8df445f44)" style="fill: none; stroke: #808080; stroke-opacity: 0.5; stroke-width: 1.5"/>
    <path d="M 438.585081 176.38268 
L 438.585081 146.661868 
" clip-path="url(#pf8df445f44)" style="fill: none; stroke: #808080; stroke-opacity: 0.5; stroke-width: 1.5"/>
   </g>
   <g id="patch_39">
    <path d="M 33.682543 177.86872 
L 33.682543 145.175827 
" style="fill: none; stroke: #000000; stroke-width: 0.8; stroke-linejoin: miter; stroke-linecap: square"/>
   </g>
   <g id="patch_40">
    <path d="M 33.682543 177.86872 
L 458.64 177.86872 
" style="fill: none; stroke: #000000; stroke-width: 0.8; stroke-linejoin: miter; stroke-linecap: square"/>
   </g>
   <g id="text_10">
    <!-- dy/dt -->
    <g transform="translate(234.282006 139.175827)scale(0.11 -0.11)">
     <defs>
      <path id="NimbusSanL-Regu-79" d="M 2483 3360 
L 1555 738 
L 698 3360 
L 128 3360 
L 1261 -21 
L 1056 -554 
C 973 -792 851 -882 627 -882 
C 550 -882 461 -869 346 -843 
L 346 -1325 
C 454 -1382 563 -1408 704 -1408 
C 877 -1408 1062 -1350 1203 -1247 
C 1370 -1125 1466 -983 1568 -713 
L 3059 3360 
L 2483 3360 
z
" transform="scale(0.015625)"/>
     </defs>
     <use xlink:href="#NimbusSanL-Regu-64" transform="scale(0.996264)"/>
     <use xlink:href="#NimbusSanL-Regu-79" transform="translate(55.391677 0)scale(0.996264)"/>
     <use xlink:href="#NimbusSanL-Regu-2f" transform="translate(105.204877 0)scale(0.996264)"/>
     <use xlink:href="#NimbusSanL-Regu-64" transform="translate(132.900047 0)scale(0.996264)"/>
     <use xlink:href="#NimbusSanL-Regu-74" transform="translate(188.291724 0)scale(0.996264)"/>
    </g>
   </g>
  </g>
  <g id="axes_4">
   <g id="patch_41">
    <path d="M 33.682543 239.952558 
L 458.64 239.952558 
L 458.64 207.259665 
L 33.682543 207.259665 
z
" style="fill: #ffffff"/>
   </g>
   <g id="patch_42">
    <path d="M 129.08191 239.952558 
L 129.08191 207.259665 
L 160.106094 207.259665 
L 160.106094 239.952558 
z
" clip-path="url(#p73293c17e4)" style="fill: #ff0000; opacity: 0.1"/>
   </g>
   <g id="patch_43">
    <path d="M 106.552443 239.952558 
L 106.552443 207.259665 
L 129.08191 207.259665 
L 129.08191 239.952558 
z
" clip-path="url(#p73293c17e4)" style="fill: #0000ff; opacity: 0.1"/>
   </g>
   <g id="patch_44">
    <path d="M 212.551739 239.952558 
L 212.551739 207.259665 
L 242.098581 207.259665 
L 242.098581 239.952558 
z
" clip-path="url(#p73293c17e4)" style="fill: #ff0000; opacity: 0.1"/>
   </g>
   <g id="patch_45">
    <path d="M 186.328916 239.952558 
L 186.328916 207.259665 
L 212.551739 207.259665 
L 212.551739 239.952558 
z
" clip-path="url(#p73293c17e4)" style="fill: #0000ff; opacity: 0.1"/>
   </g>
   <g id="patch_46">
    <path d="M 283.46416 239.952558 
L 283.46416 207.259665 
L 302.300272 207.259665 
L 302.300272 239.952558 
z
" clip-path="url(#p73293c17e4)" style="fill: #ff0000; opacity: 0.1"/>
   </g>
   <g id="patch_47">
    <path d="M 268.321403 239.952558 
L 268.321403 207.259665 
L 283.46416 207.259665 
L 283.46416 239.952558 
z
" clip-path="url(#p73293c17e4)" style="fill: #0000ff; opacity: 0.1"/>
   </g>
   <g id="patch_48">
    <path d="M 347.359206 239.952558 
L 347.359206 207.259665 
L 364.717976 207.259665 
L 364.717976 239.952558 
z
" clip-path="url(#p73293c17e4)" style="fill: #ff0000; opacity: 0.1"/>
   </g>
   <g id="patch_49">
    <path d="M 328.523094 239.952558 
L 328.523094 207.259665 
L 347.359206 207.259665 
L 347.359206 239.952558 
z
" clip-path="url(#p73293c17e4)" style="fill: #0000ff; opacity: 0.1"/>
   </g>
   <g id="patch_50">
    <path d="M 417.16362 239.952558 
L 417.16362 207.259665 
L 438.585081 207.259665 
L 438.585081 239.952558 
z
" clip-path="url(#p73293c17e4)" style="fill: #ff0000; opacity: 0.1"/>
   </g>
   <g id="patch_51">
    <path d="M 390.940798 239.952558 
L 390.940798 207.259665 
L 417.16362 207.259665 
L 417.16362 239.952558 
z
" clip-path="url(#p73293c17e4)" style="fill: #0000ff; opacity: 0.1"/>
   </g>
   <g id="matplotlib.axis_7">
    <g id="xtick_19">
     <g id="line2d_29">
      <g>
       <use xlink:href="#m949941833c" x="52.998792" y="239.952558" style="stroke: #000000; stroke-width: 0.8"/>
      </g>
     </g>
     <g id="text_11">
      <!-- $\mathdefault{0}$ -->
      <g transform="translate(50.259058 254.76071)scale(0.11 -0.11)">
       <use xlink:href="#CMR17-30" transform="scale(0.996264)"/>
      </g>
     </g>
    </g>
    <g id="xtick_20">
     <g id="line2d_30">
      <g>
       <use xlink:href="#m949941833c" x="126.865897" y="239.952558" style="stroke: #000000; stroke-width: 0.8"/>
      </g>
     </g>
     <g id="text_12">
      <!-- $\mathdefault{2000}$ -->
      <g transform="translate(115.906962 254.76071)scale(0.11 -0.11)">
       <use xlink:href="#CMR17-32" transform="scale(0.996264)"/>
       <use xlink:href="#CMR17-30" transform="translate(45.690477 0)scale(0.996264)"/>
       <use xlink:href="#CMR17-30" transform="translate(91.380954 0)scale(0.996264)"/>
       <use xlink:href="#CMR17-30" transform="translate(137.071431 0)scale(0.996264)"/>
      </g>
     </g>
    </g>
    <g id="xtick_21">
     <g id="line2d_31">
      <g>
       <use xlink:href="#m949941833c" x="200.733002" y="239.952558" style="stroke: #000000; stroke-width: 0.8"/>
      </g>
     </g>
     <g id="text_13">
      <!-- $\mathdefault{4000}$ -->
      <g transform="translate(189.774068 254.76071)scale(0.11 -0.11)">
       <defs>
        <path id="CMR17-34" d="M 2150 4122 
C 2150 4256 2144 4256 2029 4256 
L 128 1254 
L 128 1088 
L 1779 1088 
L 1779 457 
C 1779 224 1766 160 1318 160 
L 1197 160 
L 1197 0 
C 1402 0 1747 0 1965 0 
C 2182 0 2528 0 2733 0 
L 2733 160 
L 2611 160 
C 2163 160 2150 224 2150 457 
L 2150 1088 
L 2803 1088 
L 2803 1254 
L 2150 1254 
L 2150 4122 
z
M 1798 3703 
L 1798 1254 
L 256 1254 
L 1798 3703 
z
" transform="scale(0.015625)"/>
       </defs>
       <use xlink:href="#CMR17-34" transform="scale(0.996264)"/>
       <use xlink:href="#CMR17-30" transform="translate(45.690477 0)scale(0.996264)"/>
       <use xlink:href="#CMR17-30" transform="translate(91.380954 0)scale(0.996264)"/>
       <use xlink:href="#CMR17-30" transform="translate(137.071431 0)scale(0.996264)"/>
      </g>
     </g>
    </g>
    <g id="xtick_22">
     <g id="line2d_32">
      <g>
       <use xlink:href="#m949941833c" x="274.600107" y="239.952558" style="stroke: #000000; stroke-width: 0.8"/>
      </g>
     </g>
     <g id="text_14">
      <!-- $\mathdefault{6000}$ -->
      <g transform="translate(263.641173 254.76071)scale(0.11 -0.11)">
       <defs>
        <path id="CMR17-36" d="M 678 2176 
C 678 3690 1395 4032 1811 4032 
C 1946 4032 2272 4009 2400 3776 
C 2298 3776 2106 3776 2106 3553 
C 2106 3381 2246 3323 2336 3323 
C 2394 3323 2566 3348 2566 3560 
C 2566 3954 2246 4179 1805 4179 
C 1043 4179 243 3390 243 1984 
C 243 253 966 -128 1478 -128 
C 2099 -128 2688 427 2688 1283 
C 2688 2081 2170 2662 1517 2662 
C 1126 2662 838 2407 678 1960 
L 678 2176 
z
M 1478 25 
C 691 25 691 1200 691 1436 
C 691 1896 909 2560 1504 2560 
C 1613 2560 1926 2560 2138 2120 
C 2253 1870 2253 1609 2253 1289 
C 2253 944 2253 690 2118 434 
C 1978 171 1773 25 1478 25 
z
" transform="scale(0.015625)"/>
       </defs>
       <use xlink:href="#CMR17-36" transform="scale(0.996264)"/>
       <use xlink:href="#CMR17-30" transform="translate(45.690477 0)scale(0.996264)"/>
       <use xlink:href="#CMR17-30" transform="translate(91.380954 0)scale(0.996264)"/>
       <use xlink:href="#CMR17-30" transform="translate(137.071431 0)scale(0.996264)"/>
      </g>
     </g>
    </g>
    <g id="xtick_23">
     <g id="line2d_33">
      <g>
       <use xlink:href="#m949941833c" x="348.467213" y="239.952558" style="stroke: #000000; stroke-width: 0.8"/>
      </g>
     </g>
     <g id="text_15">
      <!-- $\mathdefault{8000}$ -->
      <g transform="translate(337.508278 254.76071)scale(0.11 -0.11)">
       <use xlink:href="#CMR17-38" transform="scale(0.996264)"/>
       <use xlink:href="#CMR17-30" transform="translate(45.690477 0)scale(0.996264)"/>
       <use xlink:href="#CMR17-30" transform="translate(91.380954 0)scale(0.996264)"/>
       <use xlink:href="#CMR17-30" transform="translate(137.071431 0)scale(0.996264)"/>
      </g>
     </g>
    </g>
    <g id="xtick_24">
     <g id="line2d_34">
      <g>
       <use xlink:href="#m949941833c" x="422.334318" y="239.952558" style="stroke: #000000; stroke-width: 0.8"/>
      </g>
     </g>
     <g id="text_16">
      <!-- $\mathdefault{10000}$ -->
      <g transform="translate(408.63565 254.76071)scale(0.11 -0.11)">
       <defs>
        <path id="CMR17-31" d="M 1702 4058 
C 1702 4192 1696 4192 1606 4192 
C 1357 3916 979 3827 621 3827 
C 602 3827 570 3827 563 3808 
C 557 3795 557 3782 557 3648 
C 755 3648 1088 3686 1344 3839 
L 1344 461 
C 1344 236 1331 160 781 160 
L 589 160 
L 589 0 
C 896 0 1216 0 1523 0 
C 1830 0 2150 0 2458 0 
L 2458 160 
L 2266 160 
C 1715 160 1702 230 1702 458 
L 1702 4058 
z
" transform="scale(0.015625)"/>
       </defs>
       <use xlink:href="#CMR17-31" transform="scale(0.996264)"/>
       <use xlink:href="#CMR17-30" transform="translate(45.690477 0)scale(0.996264)"/>
       <use xlink:href="#CMR17-30" transform="translate(91.380954 0)scale(0.996264)"/>
       <use xlink:href="#CMR17-30" transform="translate(137.071431 0)scale(0.996264)"/>
       <use xlink:href="#CMR17-30" transform="translate(182.761908 0)scale(0.996264)"/>
      </g>
     </g>
    </g>
    <g id="text_17">
     <!-- Time (ms) -->
     <g transform="translate(221.509446 269.105827)scale(0.11 -0.11)">
      <defs>
       <path id="NimbusSanL-Regu-54" d="M 2266 4146 
L 3795 4146 
L 3795 4672 
L 134 4672 
L 134 4146 
L 1670 4146 
L 1670 -14 
L 2266 -14 
L 2266 4146 
z
" transform="scale(0.015625)"/>
       <path id="NimbusSanL-Regu-69" d="M 960 3359 
L 429 3359 
L 429 0 
L 960 0 
L 960 3359 
z
M 960 4672 
L 422 4672 
L 422 3999 
L 960 3999 
L 960 4672 
z
" transform="scale(0.015625)"/>
       <path id="NimbusSanL-Regu-6d" d="M 448 3359 
L 448 0 
L 986 0 
L 986 2109 
C 986 2597 1338 2988 1773 2988 
C 2170 2988 2394 2744 2394 2314 
L 2394 0 
L 2931 0 
L 2931 2109 
C 2931 2597 3283 2988 3718 2988 
C 4109 2988 4339 2738 4339 2314 
L 4339 0 
L 4877 0 
L 4877 2520 
C 4877 3122 4531 3456 3904 3456 
C 3456 3456 3187 3321 2874 2943 
C 2675 3302 2406 3456 1971 3456 
C 1523 3456 1229 3289 941 2885 
L 941 3359 
L 448 3359 
z
" transform="scale(0.015625)"/>
       <path id="NimbusSanL-Regu-65" d="M 3283 1529 
C 3283 2034 3245 2338 3149 2584 
C 2931 3127 2419 3456 1792 3456 
C 858 3456 256 2742 256 1645 
C 256 547 838 -128 1779 -128 
C 2547 -128 3078 310 3213 1044 
L 2675 1044 
C 2528 598 2227 365 1798 365 
C 1459 365 1171 520 992 805 
C 864 998 819 1193 813 1529 
L 3283 1529 
z
M 826 1984 
C 870 2577 1248 2962 1786 2962 
C 2310 2962 2714 2530 2714 1984 
C 2714 1984 2714 1984 2707 1984 
L 826 1984 
z
" transform="scale(0.015625)"/>
       <path id="NimbusSanL-Regu-28" d="M 1510 4672 
C 870 3830 467 2660 467 1651 
C 467 636 870 -534 1510 -1376 
L 1862 -1376 
C 1299 -457 986 623 986 1651 
C 986 2673 1299 3759 1862 4672 
L 1510 4672 
z
" transform="scale(0.015625)"/>
       <path id="NimbusSanL-Regu-73" d="M 2803 2427 
C 2797 3085 2362 3456 1587 3456 
C 806 3456 301 3054 301 2436 
C 301 1913 570 1665 1363 1474 
L 1862 1353 
C 2234 1263 2381 1130 2381 888 
C 2381 576 2067 365 1600 365 
C 1312 365 1069 448 934 588 
C 851 684 813 779 781 1014 
L 218 1014 
C 243 241 678 -128 1555 -128 
C 2400 -128 2938 285 2938 929 
C 2938 1426 2656 1701 1990 1860 
L 1478 1981 
C 1043 2082 858 2223 858 2458 
C 858 2764 1133 2962 1568 2962 
C 1997 2962 2227 2777 2240 2427 
L 2803 2427 
z
" transform="scale(0.015625)"/>
       <path id="NimbusSanL-Regu-29" d="M 595 -1376 
C 1235 -534 1638 636 1638 1644 
C 1638 2660 1235 3830 595 4672 
L 243 4672 
C 806 3753 1120 2673 1120 1644 
C 1120 623 806 -464 243 -1376 
L 595 -1376 
z
" transform="scale(0.015625)"/>
      </defs>
      <use xlink:href="#NimbusSanL-Regu-54" transform="scale(0.996264)"/>
      <use xlink:href="#NimbusSanL-Regu-69" transform="translate(60.871631 0)scale(0.996264)"/>
      <use xlink:href="#NimbusSanL-Regu-6d" transform="translate(82.988415 0)scale(0.996264)"/>
      <use xlink:href="#NimbusSanL-Regu-65" transform="translate(165.976845 0)scale(0.996264)"/>
      <use xlink:href="#NimbusSanL-Regu-28" transform="translate(249.063692 0)scale(0.996264)"/>
      <use xlink:href="#NimbusSanL-Regu-6d" transform="translate(282.238922 0)scale(0.996264)"/>
      <use xlink:href="#NimbusSanL-Regu-73" transform="translate(365.227352 0)scale(0.996264)"/>
      <use xlink:href="#NimbusSanL-Regu-29" transform="translate(415.040552 0)scale(0.996264)"/>
     </g>
    </g>
   </g>
   <g id="matplotlib.axis_8">
    <g id="ytick_8">
     <g id="line2d_35">
      <g>
       <use xlink:href="#m3361b5269a" x="33.682543" y="238.774431" style="stroke: #000000; stroke-width: 0.8"/>
      </g>
     </g>
     <g id="text_18">
      <!-- $\mathdefault{0.75}$ -->
      <g transform="translate(7.2 242.678507)scale(0.11 -0.11)">
       <use xlink:href="#CMR17-30" transform="scale(0.996264)"/>
       <use xlink:href="#CMMI12-3a" transform="translate(45.690477 0)scale(0.996264)"/>
       <use xlink:href="#CMR17-37" transform="translate(72.787654 0)scale(0.996264)"/>
       <use xlink:href="#CMR17-35" transform="translate(118.478131 0)scale(0.996264)"/>
      </g>
     </g>
    </g>
    <g id="ytick_9">
     <g id="line2d_36">
      <g>
       <use xlink:href="#m3361b5269a" x="33.682543" y="208.745705" style="stroke: #000000; stroke-width: 0.8"/>
      </g>
     </g>
     <g id="text_19">
      <!-- $\mathdefault{0.80}$ -->
      <g transform="translate(7.2 212.649781)scale(0.11 -0.11)">
       <use xlink:href="#CMR17-30" transform="scale(0.996264)"/>
       <use xlink:href="#CMMI12-3a" transform="translate(45.690477 0)scale(0.996264)"/>
       <use xlink:href="#CMR17-38" transform="translate(72.787654 0)scale(0.996264)"/>
       <use xlink:href="#CMR17-30" transform="translate(118.478131 0)scale(0.996264)"/>
      </g>
     </g>
    </g>
   </g>
   <g id="line2d_37">
    <path d="M 52.998792 208.745705 
L 129.08191 208.745705 
L 129.451245 222.279518 
L 212.551739 222.279518 
L 212.921074 224.200801 
L 283.46416 224.200801 
L 283.833495 238.466517 
L 347.359206 238.466517 
L 347.728541 237.298252 
L 417.16362 237.298252 
L 417.532956 229.84892 
L 438.954416 229.84892 
L 438.954416 229.84892 
" clip-path="url(#p73293c17e4)" style="fill: none; stroke: #808080; stroke-width: 1.5; stroke-linecap: square"/>
   </g>
   <g id="LineCollection_5">
    <path d="M 80.32962 238.466517 
L 80.32962 208.745705 
" clip-path="url(#p73293c17e4)" style="fill: none; stroke: #808080; stroke-opacity: 0.5; stroke-width: 1.5"/>
    <path d="M 106.552443 238.466517 
L 106.552443 208.745705 
" clip-path="url(#p73293c17e4)" style="fill: none; stroke: #808080; stroke-opacity: 0.5; stroke-width: 1.5"/>
    <path d="M 129.08191 238.466517 
L 129.08191 208.745705 
" clip-path="url(#p73293c17e4)" style="fill: none; stroke: #808080; stroke-opacity: 0.5; stroke-width: 1.5"/>
    <path d="M 160.106094 238.466517 
L 160.106094 208.745705 
" clip-path="url(#p73293c17e4)" style="fill: none; stroke: #808080; stroke-opacity: 0.5; stroke-width: 1.5"/>
    <path d="M 186.328916 238.466517 
L 186.328916 208.745705 
" clip-path="url(#p73293c17e4)" style="fill: none; stroke: #808080; stroke-opacity: 0.5; stroke-width: 1.5"/>
    <path d="M 212.551739 238.466517 
L 212.551739 208.745705 
" clip-path="url(#p73293c17e4)" style="fill: none; stroke: #808080; stroke-opacity: 0.5; stroke-width: 1.5"/>
    <path d="M 242.098581 238.466517 
L 242.098581 208.745705 
" clip-path="url(#p73293c17e4)" style="fill: none; stroke: #808080; stroke-opacity: 0.5; stroke-width: 1.5"/>
    <path d="M 268.321403 238.466517 
L 268.321403 208.745705 
" clip-path="url(#p73293c17e4)" style="fill: none; stroke: #808080; stroke-opacity: 0.5; stroke-width: 1.5"/>
    <path d="M 283.46416 238.466517 
L 283.46416 208.745705 
" clip-path="url(#p73293c17e4)" style="fill: none; stroke: #808080; stroke-opacity: 0.5; stroke-width: 1.5"/>
    <path d="M 302.300272 238.466517 
L 302.300272 208.745705 
" clip-path="url(#p73293c17e4)" style="fill: none; stroke: #808080; stroke-opacity: 0.5; stroke-width: 1.5"/>
    <path d="M 328.523094 238.466517 
L 328.523094 208.745705 
" clip-path="url(#p73293c17e4)" style="fill: none; stroke: #808080; stroke-opacity: 0.5; stroke-width: 1.5"/>
    <path d="M 347.359206 238.466517 
L 347.359206 208.745705 
" clip-path="url(#p73293c17e4)" style="fill: none; stroke: #808080; stroke-opacity: 0.5; stroke-width: 1.5"/>
    <path d="M 364.717976 238.466517 
L 364.717976 208.745705 
" clip-path="url(#p73293c17e4)" style="fill: none; stroke: #808080; stroke-opacity: 0.5; stroke-width: 1.5"/>
    <path d="M 390.940798 238.466517 
L 390.940798 208.745705 
" clip-path="url(#p73293c17e4)" style="fill: none; stroke: #808080; stroke-opacity: 0.5; stroke-width: 1.5"/>
    <path d="M 417.16362 238.466517 
L 417.16362 208.745705 
" clip-path="url(#p73293c17e4)" style="fill: none; stroke: #808080; stroke-opacity: 0.5; stroke-width: 1.5"/>
    <path d="M 438.585081 238.466517 
L 438.585081 208.745705 
" clip-path="url(#p73293c17e4)" style="fill: none; stroke: #808080; stroke-opacity: 0.5; stroke-width: 1.5"/>
   </g>
   <g id="patch_52">
    <path d="M 33.682543 239.952558 
L 33.682543 207.259665 
" style="fill: none; stroke: #000000; stroke-width: 0.8; stroke-linejoin: miter; stroke-linecap: square"/>
   </g>
   <g id="patch_53">
    <path d="M 33.682543 239.952558 
L 458.64 239.952558 
" style="fill: none; stroke: #000000; stroke-width: 0.8; stroke-linejoin: miter; stroke-linecap: square"/>
   </g>
   <g id="text_20">
    <!-- dI/dt -->
    <g transform="translate(235.498498 201.259665)scale(0.11 -0.11)">
     <defs>
      <path id="NimbusSanL-Regu-49" d="M 1242 4672 
L 640 4672 
L 640 -2 
L 1242 -2 
L 1242 4672 
z
" transform="scale(0.015625)"/>
     </defs>
     <use xlink:href="#NimbusSanL-Regu-64" transform="scale(0.996264)"/>
     <use xlink:href="#NimbusSanL-Regu-49" transform="translate(55.391677 0)scale(0.996264)"/>
     <use xlink:href="#NimbusSanL-Regu-2f" transform="translate(83.086847 0)scale(0.996264)"/>
     <use xlink:href="#NimbusSanL-Regu-64" transform="translate(110.782016 0)scale(0.996264)"/>
     <use xlink:href="#NimbusSanL-Regu-74" transform="translate(166.173693 0)scale(0.996264)"/>
    </g>
   </g>
  </g>
 </g>
 <defs>
  <clipPath id="pbc2d6b343b">
   <rect x="33.682543" y="21.008152" width="424.957457" height="32.692893"/>
  </clipPath>
  <clipPath id="p2f52c88461">
   <rect x="33.682543" y="83.09199" width="424.957457" height="32.692893"/>
  </clipPath>
  <clipPath id="pf8df445f44">
   <rect x="33.682543" y="145.175827" width="424.957457" height="32.692893"/>
  </clipPath>
  <clipPath id="p73293c17e4">
   <rect x="33.682543" y="207.259665" width="424.957457" height="32.692893"/>
  </clipPath>
 </defs>
</svg>
