<?xml version="1.0" encoding="utf-8" standalone="no"?>
<!DOCTYPE svg PUBLIC "-//W3C//DTD SVG 1.1//EN"
  "http://www.w3.org/Graphics/SVG/1.1/DTD/svg11.dtd">
<svg xmlns:xlink="http://www.w3.org/1999/xlink" width="314.572656pt" height="278.418281pt" viewBox="0 0 314.572656 278.418281" xmlns="http://www.w3.org/2000/svg" version="1.1">
 <metadata>
  <rdf:RDF xmlns:dc="http://purl.org/dc/elements/1.1/" xmlns:cc="http://creativecommons.org/ns#" xmlns:rdf="http://www.w3.org/1999/02/22-rdf-syntax-ns#">
   <cc:Work>
    <dc:type rdf:resource="http://purl.org/dc/dcmitype/StillImage"/>
    <dc:date>2022-08-02T11:45:31.073344</dc:date>
    <dc:format>image/svg+xml</dc:format>
    <dc:creator>
     <cc:Agent>
      <dc:title>Matplotlib v3.5.1, https://matplotlib.org/</dc:title>
     </cc:Agent>
    </dc:creator>
   </cc:Work>
  </rdf:RDF>
 </metadata>
 <defs>
  <style type="text/css">*{stroke-linejoin: round; stroke-linecap: butt}</style>
 </defs>
 <g id="figure_1">
  <g id="patch_1">
   <path d="M 0 278.418281 
L 314.572656 278.418281 
L 314.572656 0 
L 0 0 
L 0 278.418281 
z
" style="fill: none"/>
  </g>
  <g id="axes_1">
   <g id="patch_2">
    <path d="M 33.757656 53.874531 
L 307.372656 53.874531 
L 307.372656 21.427656 
L 33.757656 21.427656 
z
" style="fill: #ffffff"/>
   </g>
   <g id="patch_3">
    <path d="M 65.042732 53.874531 
L 65.042732 21.427656 
L 99.818676 21.427656 
L 99.818676 53.874531 
z
" clip-path="url(#pf3bad63f97)" style="fill: #ff0000; opacity: 0.1"/>
   </g>
   <g id="patch_4">
    <path d="M 46.194702 53.874531 
L 46.194702 21.427656 
L 65.042732 21.427656 
L 65.042732 53.874531 
z
" clip-path="url(#pf3bad63f97)" style="fill: #0000ff; opacity: 0.1"/>
   </g>
   <g id="patch_5">
    <path d="M 132.205432 53.874531 
L 132.205432 21.427656 
L 151.849858 21.427656 
L 151.849858 53.874531 
z
" clip-path="url(#pf3bad63f97)" style="fill: #ff0000; opacity: 0.1"/>
   </g>
   <g id="patch_6">
    <path d="M 118.666706 53.874531 
L 118.666706 21.427656 
L 132.205432 21.427656 
L 132.205432 53.874531 
z
" clip-path="url(#pf3bad63f97)" style="fill: #0000ff; opacity: 0.1"/>
   </g>
   <g id="patch_7">
    <path d="M 181.581963 53.874531 
L 181.581963 21.427656 
L 198.571737 21.427656 
L 198.571737 53.874531 
z
" clip-path="url(#pf3bad63f97)" style="fill: #ff0000; opacity: 0.1"/>
   </g>
   <g id="patch_8">
    <path d="M 170.697889 53.874531 
L 170.697889 21.427656 
L 181.581963 21.427656 
L 181.581963 53.874531 
z
" clip-path="url(#pf3bad63f97)" style="fill: #0000ff; opacity: 0.1"/>
   </g>
   <g id="patch_9">
    <path d="M 233.613145 53.874531 
L 233.613145 21.427656 
L 249.806524 21.427656 
L 249.806524 53.874531 
z
" clip-path="url(#pf3bad63f97)" style="fill: #ff0000; opacity: 0.1"/>
   </g>
   <g id="patch_10">
    <path d="M 217.419767 53.874531 
L 217.419767 21.427656 
L 233.613145 21.427656 
L 233.613145 53.874531 
z
" clip-path="url(#pf3bad63f97)" style="fill: #0000ff; opacity: 0.1"/>
   </g>
   <g id="patch_11">
    <path d="M 279.538628 53.874531 
L 279.538628 21.427656 
L 294.40468 21.427656 
L 294.40468 53.874531 
z
" clip-path="url(#pf3bad63f97)" style="fill: #ff0000; opacity: 0.1"/>
   </g>
   <g id="patch_12">
    <path d="M 268.654554 53.874531 
L 268.654554 21.427656 
L 279.538628 21.427656 
L 279.538628 53.874531 
z
" clip-path="url(#pf3bad63f97)" style="fill: #0000ff; opacity: 0.1"/>
   </g>
   <g id="matplotlib.axis_1">
    <g id="xtick_1">
     <g id="line2d_1">
      <defs>
       <path id="m32e9e0ad12" d="M 0 0 
L 0 3.5 
" style="stroke: #000000; stroke-width: 0.8"/>
      </defs>
      <g>
       <use xlink:href="#m32e9e0ad12" x="60.795289" y="53.874531" style="stroke: #000000; stroke-width: 0.8"/>
      </g>
     </g>
    </g>
    <g id="xtick_2">
     <g id="line2d_2">
      <g>
       <use xlink:href="#m32e9e0ad12" x="113.888332" y="53.874531" style="stroke: #000000; stroke-width: 0.8"/>
      </g>
     </g>
    </g>
    <g id="xtick_3">
     <g id="line2d_3">
      <g>
       <use xlink:href="#m32e9e0ad12" x="166.981376" y="53.874531" style="stroke: #000000; stroke-width: 0.8"/>
      </g>
     </g>
    </g>
    <g id="xtick_4">
     <g id="line2d_4">
      <g>
       <use xlink:href="#m32e9e0ad12" x="220.074419" y="53.874531" style="stroke: #000000; stroke-width: 0.8"/>
      </g>
     </g>
    </g>
    <g id="xtick_5">
     <g id="line2d_5">
      <g>
       <use xlink:href="#m32e9e0ad12" x="273.167463" y="53.874531" style="stroke: #000000; stroke-width: 0.8"/>
      </g>
     </g>
    </g>
   </g>
   <g id="matplotlib.axis_2">
    <g id="ytick_1">
     <g id="line2d_6">
      <defs>
       <path id="m16a073d4cb" d="M 0 0 
L -3.5 0 
" style="stroke: #000000; stroke-width: 0.8"/>
      </defs>
      <g>
       <use xlink:href="#m16a073d4cb" x="33.757656" y="44.359883" style="stroke: #000000; stroke-width: 0.8"/>
      </g>
     </g>
     <g id="text_1">
      <!-- 0.90 -->
      <g transform="translate(7.2 48.177227)scale(0.11 -0.11)">
       <defs>
        <path id="CMUSerif-Roman-30" d="M 250 2048 
Q 250 2989 486 3501 
Q 819 4262 1600 4262 
Q 1766 4262 1939 4217 
Q 2112 4173 2333 4000 
Q 2554 3827 2688 3546 
Q 2944 3002 2944 2048 
Q 2944 1114 2707 602 
Q 2362 -141 1594 -141 
Q 1306 -141 1014 6 
Q 723 154 538 506 
Q 250 1037 250 2048 
z
M 781 2125 
Q 781 1158 851 774 
Q 928 358 1142 179 
Q 1357 0 1594 0 
Q 1850 0 2064 192 
Q 2278 384 2342 800 
Q 2413 1210 2413 2125 
Q 2413 3014 2349 3373 
Q 2266 3789 2042 3955 
Q 1818 4122 1594 4122 
Q 1510 4122 1420 4096 
Q 1331 4070 1203 4000 
Q 1075 3930 976 3750 
Q 877 3571 832 3302 
Q 781 2957 781 2125 
z
" transform="scale(0.015625)"/>
        <path id="CMUSerif-Roman-2e" d="M 640 102 
Q 544 205 544 339 
Q 544 474 640 573 
Q 736 672 883 672 
Q 1024 672 1120 579 
Q 1216 486 1216 339 
Q 1216 192 1113 96 
Q 1011 0 883 0 
Q 736 0 640 102 
z
" transform="scale(0.015625)"/>
        <path id="CMUSerif-Roman-39" d="M 269 2822 
Q 269 3162 368 3395 
Q 467 3629 678 3859 
Q 1062 4262 1619 4262 
Q 1856 4262 2067 4163 
Q 2278 4064 2480 3837 
Q 2682 3610 2803 3165 
Q 2925 2720 2925 2106 
Q 2925 1114 2445 486 
Q 1965 -141 1318 -141 
Q 909 -141 669 44 
Q 429 230 429 550 
Q 429 717 521 787 
Q 614 858 723 858 
Q 838 858 928 781 
Q 1018 704 1018 563 
Q 1018 448 944 358 
Q 870 269 685 269 
Q 870 38 1312 38 
Q 1472 38 1632 112 
Q 1792 186 1965 365 
Q 2138 544 2243 921 
Q 2349 1299 2349 1830 
L 2349 2035 
Q 2093 1395 1549 1395 
Q 1011 1395 640 1808 
Q 269 2221 269 2822 
z
M 845 2816 
Q 845 2182 960 1946 
Q 1158 1542 1555 1542 
Q 1946 1542 2141 1891 
Q 2336 2240 2336 2694 
Q 2336 3322 2234 3597 
Q 2042 4102 1619 4102 
Q 1197 4102 979 3699 
Q 845 3462 845 2816 
z
" transform="scale(0.015625)"/>
       </defs>
       <use xlink:href="#CMUSerif-Roman-30"/>
       <use xlink:href="#CMUSerif-Roman-2e" x="49.999985"/>
       <use xlink:href="#CMUSerif-Roman-39" x="77.799973"/>
       <use xlink:href="#CMUSerif-Roman-30" x="127.799957"/>
      </g>
     </g>
    </g>
    <g id="ytick_2">
     <g id="line2d_7">
      <g>
       <use xlink:href="#m16a073d4cb" x="33.757656" y="25.933989" style="stroke: #000000; stroke-width: 0.8"/>
      </g>
     </g>
     <g id="text_2">
      <!-- 0.95 -->
      <g transform="translate(7.2 29.751333)scale(0.11 -0.11)">
       <defs>
        <path id="CMUSerif-Roman-35" d="M 320 1030 
Q 320 1222 422 1296 
Q 525 1370 634 1370 
Q 781 1370 867 1277 
Q 954 1184 954 1056 
Q 954 928 867 835 
Q 781 742 634 742 
Q 563 742 525 755 
Q 608 461 867 249 
Q 1126 38 1466 38 
Q 1894 38 2150 454 
Q 2304 723 2304 1331 
Q 2304 1869 2189 2138 
Q 2010 2547 1645 2547 
Q 1126 2547 819 2099 
Q 781 2042 736 2042 
Q 672 2042 659 2077 
Q 646 2112 646 2208 
L 646 4102 
Q 646 4256 710 4256 
Q 736 4256 787 4237 
Q 1190 4058 1638 4058 
Q 2099 4058 2509 4243 
Q 2541 4262 2560 4262 
Q 2624 4262 2624 4192 
Q 2624 4166 2573 4092 
Q 2522 4019 2413 3923 
Q 2304 3827 2163 3737 
Q 2022 3648 1817 3587 
Q 1613 3526 1389 3526 
Q 1120 3526 845 3610 
L 845 2362 
Q 1178 2688 1658 2688 
Q 2170 2688 2522 2275 
Q 2874 1862 2874 1286 
Q 2874 685 2458 272 
Q 2042 -141 1478 -141 
Q 966 -141 643 224 
Q 320 589 320 1030 
z
" transform="scale(0.015625)"/>
       </defs>
       <use xlink:href="#CMUSerif-Roman-30"/>
       <use xlink:href="#CMUSerif-Roman-2e" x="49.999985"/>
       <use xlink:href="#CMUSerif-Roman-39" x="77.799973"/>
       <use xlink:href="#CMUSerif-Roman-35" x="127.799957"/>
      </g>
     </g>
    </g>
   </g>
   <g id="line2d_8">
    <path d="M 46.460167 50.576176 
L 47.256563 46.486091 
L 48.318423 42.462462 
L 49.380284 39.357841 
L 50.70761 36.486174 
L 52.034936 34.192104 
L 53.096797 32.745754 
L 54.955054 30.673417 
L 56.28238 29.509757 
L 57.875171 28.345194 
L 58.937032 27.697824 
L 60.795289 26.787936 
L 63.980871 25.577536 
L 65.042732 25.275189 
L 65.308197 50.328817 
L 66.104593 46.726352 
L 67.166454 42.930543 
L 68.228315 39.981823 
L 69.555641 37.073607 
L 70.617502 35.153 
L 72.210293 32.792721 
L 73.272154 31.481983 
L 74.864945 29.775522 
L 76.192271 28.661144 
L 79.112389 26.789914 
L 82.032506 25.458828 
L 84.421693 24.706904 
L 90.792858 23.526575 
L 93.182045 23.261362 
L 94.774837 23.142655 
L 97.164024 22.995911 
L 99.818676 22.902514 
L 100.084141 48.125619 
L 100.880537 44.182253 
L 101.676932 41.067798 
L 102.738793 37.905166 
L 103.800654 35.46618 
L 104.862515 33.529097 
L 105.924376 32.007545 
L 107.782632 29.862204 
L 109.375424 28.421973 
L 111.499145 26.989404 
L 113.091937 26.174178 
L 115.481124 25.266747 
L 116.542984 24.896817 
L 118.666706 24.409982 
L 118.932171 49.525411 
L 119.728567 45.498228 
L 120.790428 41.482005 
L 121.852289 38.393377 
L 122.91415 35.988346 
L 124.241476 33.622618 
L 125.834267 31.444123 
L 126.896128 30.259122 
L 129.285315 28.180828 
L 131.674502 26.678865 
L 132.205432 26.418415 
L 132.470897 51.390384 
L 133.267293 47.654689 
L 134.329154 43.744701 
L 135.65648 39.881985 
L 136.718341 37.422883 
L 138.311132 34.492154 
L 139.903924 32.13789 
L 141.76218 29.91257 
L 143.885902 28.011328 
L 146.540554 26.370931 
L 148.398811 25.516694 
L 151.053463 24.544997 
L 151.849858 24.363361 
L 152.115324 49.48212 
L 152.911719 45.451413 
L 153.97358 41.314849 
L 155.035441 38.155628 
L 156.362767 35.186555 
L 157.424628 33.320899 
L 158.751954 31.421638 
L 160.07928 29.931777 
L 161.406606 28.645114 
L 162.733932 27.610087 
L 164.061258 26.722408 
L 166.715911 25.333966 
L 169.370563 24.453406 
L 170.697889 24.125355 
L 170.963354 49.261114 
L 171.75975 45.297855 
L 172.556145 42.118475 
L 173.352541 39.529991 
L 174.679867 36.202871 
L 175.741728 34.138527 
L 177.069054 32.032151 
L 178.661845 30.081958 
L 180.254637 28.498345 
L 181.581963 27.505342 
L 181.847428 52.399673 
L 182.909289 47.352412 
L 183.97115 43.438143 
L 185.033011 40.238913 
L 186.360337 37.14049 
L 188.218593 33.749273 
L 189.545919 31.865454 
L 191.138711 29.973443 
L 192.466037 28.690048 
L 193.793363 27.649247 
L 195.386154 26.586785 
L 197.244411 25.608298 
L 198.571737 25.070875 
L 198.837202 50.139097 
L 199.899063 44.862503 
L 200.695458 41.822666 
L 201.757319 38.615827 
L 203.084645 35.506256 
L 204.146506 33.539416 
L 205.208367 31.890602 
L 206.535693 30.237015 
L 208.128485 28.626768 
L 210.252206 26.949397 
L 211.579532 26.178229 
L 213.172324 25.407941 
L 215.03058 24.641213 
L 217.419767 24.012147 
L 217.685232 49.155992 
L 218.481628 45.148587 
L 219.543489 40.980365 
L 220.60535 37.866507 
L 221.667211 35.445516 
L 222.729072 33.463747 
L 224.321863 31.110819 
L 225.383724 29.830415 
L 226.976515 28.317202 
L 228.569306 27.088947 
L 230.958493 25.763922 
L 232.020354 25.317579 
L 233.613145 24.712894 
L 233.878611 49.806686 
L 234.940472 44.497572 
L 235.736867 41.4992 
L 236.798728 38.312623 
L 237.860589 35.784312 
L 239.187915 33.312442 
L 240.249776 31.708479 
L 241.577102 30.091138 
L 243.169893 28.555916 
L 244.762685 27.306542 
L 247.948267 25.438962 
L 249.806524 24.708743 
L 250.071989 49.802832 
L 251.13385 44.588207 
L 252.195711 40.719601 
L 253.257572 37.699341 
L 254.584898 34.814448 
L 255.912224 32.565505 
L 256.974085 31.080896 
L 259.097806 28.785641 
L 260.956063 27.32698 
L 262.548854 26.338295 
L 265.203506 25.1098 
L 268.654554 24.082262 
L 268.920019 49.221099 
L 269.716415 45.226236 
L 270.778276 41.065629 
L 271.840137 37.937021 
L 272.901998 35.45198 
L 274.229324 32.963152 
L 275.55665 31.038912 
L 276.883976 29.510548 
L 278.742233 27.862601 
L 279.538628 27.302993 
L 279.804093 52.211778 
L 280.865954 47.033372 
L 281.927815 43.100178 
L 282.989676 39.913946 
L 284.317002 36.702353 
L 285.909793 33.732479 
L 287.237119 31.736478 
L 288.564446 30.07873 
L 290.157237 28.510208 
L 291.484563 27.442113 
L 293.608285 26.098483 
L 294.670146 25.601748 
L 294.670146 25.601748 
" clip-path="url(#pf3bad63f97)" style="fill: none; stroke: #808080; stroke-width: 1.5; stroke-linecap: square"/>
   </g>
   <g id="LineCollection_1">
    <path d="M 46.194702 52.399673 
L 46.194702 22.902514 
" clip-path="url(#pf3bad63f97)" style="fill: none; stroke: #808080; stroke-opacity: 0.5; stroke-width: 1.5"/>
    <path d="M 65.042732 52.399673 
L 65.042732 22.902514 
" clip-path="url(#pf3bad63f97)" style="fill: none; stroke: #808080; stroke-opacity: 0.5; stroke-width: 1.5"/>
    <path d="M 99.818676 52.399673 
L 99.818676 22.902514 
" clip-path="url(#pf3bad63f97)" style="fill: none; stroke: #808080; stroke-opacity: 0.5; stroke-width: 1.5"/>
    <path d="M 118.666706 52.399673 
L 118.666706 22.902514 
" clip-path="url(#pf3bad63f97)" style="fill: none; stroke: #808080; stroke-opacity: 0.5; stroke-width: 1.5"/>
    <path d="M 132.205432 52.399673 
L 132.205432 22.902514 
" clip-path="url(#pf3bad63f97)" style="fill: none; stroke: #808080; stroke-opacity: 0.5; stroke-width: 1.5"/>
    <path d="M 151.849858 52.399673 
L 151.849858 22.902514 
" clip-path="url(#pf3bad63f97)" style="fill: none; stroke: #808080; stroke-opacity: 0.5; stroke-width: 1.5"/>
    <path d="M 170.697889 52.399673 
L 170.697889 22.902514 
" clip-path="url(#pf3bad63f97)" style="fill: none; stroke: #808080; stroke-opacity: 0.5; stroke-width: 1.5"/>
    <path d="M 181.581963 52.399673 
L 181.581963 22.902514 
" clip-path="url(#pf3bad63f97)" style="fill: none; stroke: #808080; stroke-opacity: 0.5; stroke-width: 1.5"/>
    <path d="M 198.571737 52.399673 
L 198.571737 22.902514 
" clip-path="url(#pf3bad63f97)" style="fill: none; stroke: #808080; stroke-opacity: 0.5; stroke-width: 1.5"/>
    <path d="M 217.419767 52.399673 
L 217.419767 22.902514 
" clip-path="url(#pf3bad63f97)" style="fill: none; stroke: #808080; stroke-opacity: 0.5; stroke-width: 1.5"/>
    <path d="M 233.613145 52.399673 
L 233.613145 22.902514 
" clip-path="url(#pf3bad63f97)" style="fill: none; stroke: #808080; stroke-opacity: 0.5; stroke-width: 1.5"/>
    <path d="M 249.806524 52.399673 
L 249.806524 22.902514 
" clip-path="url(#pf3bad63f97)" style="fill: none; stroke: #808080; stroke-opacity: 0.5; stroke-width: 1.5"/>
    <path d="M 268.654554 52.399673 
L 268.654554 22.902514 
" clip-path="url(#pf3bad63f97)" style="fill: none; stroke: #808080; stroke-opacity: 0.5; stroke-width: 1.5"/>
    <path d="M 279.538628 52.399673 
L 279.538628 22.902514 
" clip-path="url(#pf3bad63f97)" style="fill: none; stroke: #808080; stroke-opacity: 0.5; stroke-width: 1.5"/>
    <path d="M 294.40468 52.399673 
L 294.40468 22.902514 
" clip-path="url(#pf3bad63f97)" style="fill: none; stroke: #808080; stroke-opacity: 0.5; stroke-width: 1.5"/>
   </g>
   <g id="patch_13">
    <path d="M 33.757656 53.874531 
L 33.757656 21.427656 
" style="fill: none; stroke: #000000; stroke-width: 0.8; stroke-linejoin: miter; stroke-linecap: square"/>
   </g>
   <g id="patch_14">
    <path d="M 33.757656 53.874531 
L 307.372656 53.874531 
" style="fill: none; stroke: #000000; stroke-width: 0.8; stroke-linejoin: miter; stroke-linecap: square"/>
   </g>
   <g id="text_3">
    <!-- du/dt -->
    <g transform="translate(156.523828 15.427656)scale(0.11 -0.11)">
     <defs>
      <path id="CMUSerif-Roman-64" d="M 218 1376 
Q 218 1984 643 2406 
Q 1069 2829 1645 2829 
Q 2131 2829 2451 2432 
L 2451 3814 
Q 2451 4051 2368 4112 
Q 2285 4173 1952 4173 
L 1952 4371 
L 2874 4442 
L 2874 557 
Q 2874 320 2957 259 
Q 3040 198 3373 198 
L 3373 0 
L 2432 -70 
L 2432 352 
Q 2099 -70 1574 -70 
Q 1024 -70 621 352 
Q 218 774 218 1376 
z
M 749 1370 
Q 749 774 934 480 
Q 1190 70 1606 70 
Q 2080 70 2362 518 
Q 2432 627 2432 755 
L 2432 2067 
Q 2432 2195 2362 2304 
Q 2099 2688 1670 2688 
Q 1222 2688 947 2278 
Q 749 1971 749 1370 
z
" transform="scale(0.015625)"/>
      <path id="CMUSerif-Roman-75" d="M 205 2560 
L 205 2758 
L 1146 2829 
L 1146 704 
Q 1146 550 1158 460 
Q 1171 371 1222 268 
Q 1274 166 1395 118 
Q 1517 70 1709 70 
Q 2054 70 2268 355 
Q 2483 640 2483 1062 
L 2483 2202 
Q 2483 2438 2400 2499 
Q 2317 2560 1984 2560 
L 1984 2758 
L 2925 2829 
L 2925 557 
Q 2925 320 3008 259 
Q 3091 198 3424 198 
L 3424 0 
L 2502 -70 
L 2502 506 
Q 2234 -70 1677 -70 
Q 1395 -70 1203 0 
Q 1011 70 915 160 
Q 819 250 768 422 
Q 717 595 710 700 
Q 704 806 704 1011 
L 704 1971 
Q 704 2406 640 2483 
Q 576 2560 205 2560 
z
" transform="scale(0.015625)"/>
      <path id="CMUSerif-Roman-2f" d="M 365 -1510 
Q 365 -1478 390 -1408 
L 2650 4627 
Q 2650 4634 2666 4669 
Q 2682 4704 2691 4726 
Q 2701 4749 2720 4768 
Q 2739 4787 2765 4787 
Q 2829 4787 2829 4710 
Q 2829 4704 2810 4627 
L 544 -1414 
Q 506 -1523 483 -1555 
Q 461 -1587 422 -1587 
Q 365 -1587 365 -1510 
z
" transform="scale(0.015625)"/>
      <path id="CMUSerif-Roman-74" d="M 122 2560 
L 122 2701 
Q 416 2714 611 2922 
Q 806 3130 873 3386 
Q 941 3642 947 3936 
L 1107 3936 
L 1107 2758 
L 2022 2758 
L 2022 2560 
L 1107 2560 
L 1107 781 
Q 1107 90 1536 90 
Q 1722 90 1843 278 
Q 1965 467 1965 806 
L 1965 1158 
L 2125 1158 
L 2125 794 
Q 2125 448 1965 189 
Q 1805 -70 1491 -70 
Q 1376 -70 1261 -41 
Q 1146 -13 998 64 
Q 851 141 758 329 
Q 666 518 666 794 
L 666 2560 
L 122 2560 
z
" transform="scale(0.015625)"/>
     </defs>
     <use xlink:href="#CMUSerif-Roman-64"/>
     <use xlink:href="#CMUSerif-Roman-75" x="55.499985"/>
     <use xlink:href="#CMUSerif-Roman-2f" x="110.999969"/>
     <use xlink:href="#CMUSerif-Roman-64" x="160.999954"/>
     <use xlink:href="#CMUSerif-Roman-74" x="216.499939"/>
    </g>
   </g>
  </g>
  <g id="axes_2">
   <g id="patch_15">
    <path d="M 33.757656 115.732656 
L 307.372656 115.732656 
L 307.372656 83.285781 
L 33.757656 83.285781 
z
" style="fill: #ffffff"/>
   </g>
   <g id="patch_16">
    <path d="M 65.042732 115.732656 
L 65.042732 83.285781 
L 99.818676 83.285781 
L 99.818676 115.732656 
z
" clip-path="url(#pb45539df25)" style="fill: #ff0000; opacity: 0.1"/>
   </g>
   <g id="patch_17">
    <path d="M 46.194702 115.732656 
L 46.194702 83.285781 
L 65.042732 83.285781 
L 65.042732 115.732656 
z
" clip-path="url(#pb45539df25)" style="fill: #0000ff; opacity: 0.1"/>
   </g>
   <g id="patch_18">
    <path d="M 132.205432 115.732656 
L 132.205432 83.285781 
L 151.849858 83.285781 
L 151.849858 115.732656 
z
" clip-path="url(#pb45539df25)" style="fill: #ff0000; opacity: 0.1"/>
   </g>
   <g id="patch_19">
    <path d="M 118.666706 115.732656 
L 118.666706 83.285781 
L 132.205432 83.285781 
L 132.205432 115.732656 
z
" clip-path="url(#pb45539df25)" style="fill: #0000ff; opacity: 0.1"/>
   </g>
   <g id="patch_20">
    <path d="M 181.581963 115.732656 
L 181.581963 83.285781 
L 198.571737 83.285781 
L 198.571737 115.732656 
z
" clip-path="url(#pb45539df25)" style="fill: #ff0000; opacity: 0.1"/>
   </g>
   <g id="patch_21">
    <path d="M 170.697889 115.732656 
L 170.697889 83.285781 
L 181.581963 83.285781 
L 181.581963 115.732656 
z
" clip-path="url(#pb45539df25)" style="fill: #0000ff; opacity: 0.1"/>
   </g>
   <g id="patch_22">
    <path d="M 233.613145 115.732656 
L 233.613145 83.285781 
L 249.806524 83.285781 
L 249.806524 115.732656 
z
" clip-path="url(#pb45539df25)" style="fill: #ff0000; opacity: 0.1"/>
   </g>
   <g id="patch_23">
    <path d="M 217.419767 115.732656 
L 217.419767 83.285781 
L 233.613145 83.285781 
L 233.613145 115.732656 
z
" clip-path="url(#pb45539df25)" style="fill: #0000ff; opacity: 0.1"/>
   </g>
   <g id="patch_24">
    <path d="M 279.538628 115.732656 
L 279.538628 83.285781 
L 294.40468 83.285781 
L 294.40468 115.732656 
z
" clip-path="url(#pb45539df25)" style="fill: #ff0000; opacity: 0.1"/>
   </g>
   <g id="patch_25">
    <path d="M 268.654554 115.732656 
L 268.654554 83.285781 
L 279.538628 83.285781 
L 279.538628 115.732656 
z
" clip-path="url(#pb45539df25)" style="fill: #0000ff; opacity: 0.1"/>
   </g>
   <g id="matplotlib.axis_3">
    <g id="xtick_6">
     <g id="line2d_9">
      <g>
       <use xlink:href="#m32e9e0ad12" x="60.795289" y="115.732656" style="stroke: #000000; stroke-width: 0.8"/>
      </g>
     </g>
    </g>
    <g id="xtick_7">
     <g id="line2d_10">
      <g>
       <use xlink:href="#m32e9e0ad12" x="113.888332" y="115.732656" style="stroke: #000000; stroke-width: 0.8"/>
      </g>
     </g>
    </g>
    <g id="xtick_8">
     <g id="line2d_11">
      <g>
       <use xlink:href="#m32e9e0ad12" x="166.981376" y="115.732656" style="stroke: #000000; stroke-width: 0.8"/>
      </g>
     </g>
    </g>
    <g id="xtick_9">
     <g id="line2d_12">
      <g>
       <use xlink:href="#m32e9e0ad12" x="220.074419" y="115.732656" style="stroke: #000000; stroke-width: 0.8"/>
      </g>
     </g>
    </g>
    <g id="xtick_10">
     <g id="line2d_13">
      <g>
       <use xlink:href="#m32e9e0ad12" x="273.167463" y="115.732656" style="stroke: #000000; stroke-width: 0.8"/>
      </g>
     </g>
    </g>
   </g>
   <g id="matplotlib.axis_4">
    <g id="ytick_3">
     <g id="line2d_14">
      <g>
       <use xlink:href="#m16a073d4cb" x="33.757656" y="109.542362" style="stroke: #000000; stroke-width: 0.8"/>
      </g>
     </g>
     <g id="text_4">
      <!-- 0.25 -->
      <g transform="translate(7.2 113.359705)scale(0.11 -0.11)">
       <defs>
        <path id="CMUSerif-Roman-32" d="M 320 0 
Q 320 115 329 150 
Q 339 186 390 237 
L 1619 1606 
Q 2291 2362 2291 3021 
Q 2291 3450 2067 3757 
Q 1843 4064 1434 4064 
Q 1152 4064 915 3891 
Q 678 3718 570 3411 
Q 589 3418 653 3418 
Q 813 3418 902 3318 
Q 992 3219 992 3085 
Q 992 2912 880 2829 
Q 768 2746 659 2746 
Q 614 2746 556 2755 
Q 499 2765 409 2854 
Q 320 2944 320 3104 
Q 320 3552 659 3907 
Q 998 4262 1517 4262 
Q 2106 4262 2490 3913 
Q 2874 3565 2874 3021 
Q 2874 2829 2816 2656 
Q 2758 2483 2681 2348 
Q 2605 2214 2400 2000 
Q 2195 1786 2028 1632 
Q 1862 1478 1491 1152 
L 813 493 
L 1965 493 
Q 2528 493 2573 544 
Q 2637 634 2714 1114 
L 2874 1114 
L 2694 0 
L 320 0 
z
" transform="scale(0.015625)"/>
       </defs>
       <use xlink:href="#CMUSerif-Roman-30"/>
       <use xlink:href="#CMUSerif-Roman-2e" x="49.999985"/>
       <use xlink:href="#CMUSerif-Roman-32" x="77.799973"/>
       <use xlink:href="#CMUSerif-Roman-35" x="127.799957"/>
      </g>
     </g>
    </g>
    <g id="ytick_4">
     <g id="line2d_15">
      <g>
       <use xlink:href="#m16a073d4cb" x="33.757656" y="97.127225" style="stroke: #000000; stroke-width: 0.8"/>
      </g>
     </g>
     <g id="text_5">
      <!-- 0.30 -->
      <g transform="translate(7.2 100.944568)scale(0.11 -0.11)">
       <defs>
        <path id="CMUSerif-Roman-33" d="M 269 864 
Q 269 1056 377 1145 
Q 486 1235 627 1235 
Q 774 1235 880 1139 
Q 986 1043 986 877 
Q 986 698 861 598 
Q 736 499 563 525 
Q 717 269 998 153 
Q 1280 38 1542 38 
Q 1818 38 2042 275 
Q 2266 512 2266 1094 
Q 2266 1587 2074 1872 
Q 1882 2157 1504 2157 
L 1222 2157 
Q 1126 2157 1097 2166 
Q 1069 2176 1069 2227 
Q 1069 2291 1165 2304 
Q 1261 2304 1414 2323 
Q 1786 2336 1984 2656 
Q 2163 2957 2163 3386 
Q 2163 3776 1977 3939 
Q 1792 4102 1549 4102 
Q 1325 4102 1078 4009 
Q 832 3917 698 3706 
Q 1094 3706 1094 3386 
Q 1094 3245 1004 3152 
Q 915 3059 768 3059 
Q 627 3059 534 3148 
Q 442 3238 442 3392 
Q 442 3757 768 4009 
Q 1094 4262 1574 4262 
Q 2048 4262 2400 4012 
Q 2752 3763 2752 3379 
Q 2752 3002 2502 2691 
Q 2253 2381 1856 2253 
Q 2342 2157 2633 1827 
Q 2925 1498 2925 1094 
Q 2925 595 2531 227 
Q 2138 -141 1562 -141 
Q 1030 -141 649 147 
Q 269 435 269 864 
z
" transform="scale(0.015625)"/>
       </defs>
       <use xlink:href="#CMUSerif-Roman-30"/>
       <use xlink:href="#CMUSerif-Roman-2e" x="49.999985"/>
       <use xlink:href="#CMUSerif-Roman-33" x="77.799973"/>
       <use xlink:href="#CMUSerif-Roman-30" x="127.799957"/>
      </g>
     </g>
    </g>
    <g id="ytick_5">
     <g id="line2d_16">
      <g>
       <use xlink:href="#m16a073d4cb" x="33.757656" y="84.712088" style="stroke: #000000; stroke-width: 0.8"/>
      </g>
     </g>
     <g id="text_6">
      <!-- 0.35 -->
      <g transform="translate(7.2 88.529431)scale(0.11 -0.11)">
       <use xlink:href="#CMUSerif-Roman-30"/>
       <use xlink:href="#CMUSerif-Roman-2e" x="49.999985"/>
       <use xlink:href="#CMUSerif-Roman-33" x="77.799973"/>
       <use xlink:href="#CMUSerif-Roman-35" x="127.799957"/>
      </g>
     </g>
    </g>
   </g>
   <g id="line2d_17">
    <path d="M 46.460167 86.152827 
L 46.991097 85.305598 
L 47.522028 84.883222 
L 47.787493 84.760639 
L 48.583889 84.909072 
L 49.114819 85.158878 
L 50.442145 86.631303 
L 56.547845 93.67913 
L 59.998893 96.339846 
L 61.85715 97.408021 
L 62.38808 97.803016 
L 63.184476 98.2595 
L 64.511802 98.810751 
L 65.042732 99.109804 
L 65.308197 86.553054 
L 65.573663 86.442051 
L 66.104593 86.55846 
L 66.635523 86.886529 
L 68.228315 88.812202 
L 69.290176 90.300199 
L 71.148432 93.295756 
L 74.06855 97.482093 
L 76.192271 99.684492 
L 77.254132 100.634955 
L 78.050528 101.323155 
L 78.581458 101.769012 
L 79.112389 102.240535 
L 79.643319 102.606066 
L 80.70518 103.338811 
L 81.767041 103.800559 
L 83.890763 104.895547 
L 85.218089 105.378772 
L 85.749019 105.58822 
L 87.076345 105.855887 
L 87.872741 106.204158 
L 90.261928 106.727403 
L 90.792858 106.853109 
L 92.91658 107.135763 
L 93.712976 107.229755 
L 94.774837 107.317857 
L 95.571232 107.376137 
L 99.02228 107.584703 
L 99.818676 107.634091 
L 100.084141 94.468463 
L 100.615071 93.65185 
L 101.146002 93.231265 
L 101.676932 93.139392 
L 102.473328 93.272893 
L 103.535189 94.042418 
L 106.455306 97.220799 
L 108.844493 99.768904 
L 112.030076 102.285678 
L 114.153797 103.620749 
L 114.419263 103.720072 
L 114.950193 104.131567 
L 115.746589 104.479783 
L 116.277519 104.732646 
L 118.135776 105.401214 
L 118.666706 105.535709 
L 118.932171 92.519966 
L 119.463102 91.704148 
L 119.994032 91.344372 
L 120.524963 91.279948 
L 121.055893 91.486034 
L 121.852289 92.073852 
L 123.976011 94.528574 
L 127.161593 98.4993 
L 129.816245 101.006519 
L 130.612641 101.675428 
L 132.205432 102.819341 
L 132.470897 89.997625 
L 133.001828 90.153941 
L 133.798224 90.754559 
L 134.860084 92.2443 
L 135.65648 93.602209 
L 138.842063 98.867422 
L 139.903924 100.556516 
L 142.293111 103.708766 
L 143.885902 105.30739 
L 144.947763 106.267366 
L 146.009624 107.238625 
L 146.806019 107.79549 
L 148.133345 108.684444 
L 149.195206 109.241052 
L 149.991602 109.716424 
L 150.787998 109.960595 
L 151.849858 110.484147 
L 152.115324 97.114944 
L 152.646254 96.62107 
L 153.177184 96.452126 
L 154.504511 96.989652 
L 155.035441 97.45244 
L 156.097302 98.678947 
L 156.893698 99.705611 
L 159.813815 103.363024 
L 161.406606 104.96768 
L 162.203002 105.750592 
L 163.530328 106.856877 
L 166.715911 109.060272 
L 168.308702 109.614833 
L 169.105098 110.088184 
L 170.432424 110.40135 
L 170.697889 110.48761 
L 170.963354 97.11816 
L 171.494285 96.627874 
L 172.025215 96.498322 
L 172.821611 96.711579 
L 173.352541 97.035776 
L 174.414402 98.116097 
L 175.476263 99.426208 
L 177.069054 101.457999 
L 180.254637 105.084029 
L 181.581963 106.229765 
L 181.847428 93.164447 
L 182.378358 93.446664 
L 183.440219 94.475961 
L 183.97115 95.298602 
L 186.891267 100.312103 
L 188.749524 103.476448 
L 189.811385 104.963335 
L 191.404176 107.030637 
L 195.386154 110.920273 
L 196.978945 112.112279 
L 198.571737 112.931276 
L 198.837202 99.387278 
L 199.368132 99.083734 
L 199.899063 99.013748 
L 200.429993 99.215756 
L 200.960924 99.573586 
L 201.757319 100.428339 
L 202.81918 101.802822 
L 204.677437 104.258921 
L 205.208367 105.015163 
L 208.659415 109.129446 
L 210.517672 110.587672 
L 211.579532 111.364623 
L 213.437789 112.678256 
L 215.296045 113.52677 
L 216.092441 113.773486 
L 217.419767 114.257798 
L 217.685232 100.619049 
L 218.216163 100.157048 
L 218.747093 100.041112 
L 219.278024 100.242374 
L 220.074419 100.826674 
L 221.13628 101.900681 
L 225.118259 106.948599 
L 228.303841 110.141997 
L 232.020354 112.641844 
L 233.613145 113.436344 
L 233.878611 99.85627 
L 234.409541 99.366702 
L 235.205937 99.229649 
L 236.002332 99.541498 
L 236.798728 100.280155 
L 240.780706 105.285156 
L 241.842567 106.596683 
L 244.762685 109.579169 
L 246.090011 110.705569 
L 246.620941 111.07979 
L 247.417337 111.607532 
L 248.213732 112.066409 
L 249.806524 112.833519 
L 250.071989 99.296504 
L 250.602919 98.946777 
L 251.399315 98.890389 
L 251.930246 99.135253 
L 252.195711 99.313095 
L 255.115828 102.899429 
L 257.505015 106.118504 
L 260.425132 108.974746 
L 263.34525 111.254901 
L 264.407111 111.944721 
L 264.938041 112.131577 
L 265.999902 112.727368 
L 266.265367 112.761545 
L 267.061763 113.186085 
L 267.858159 113.39025 
L 268.654554 113.677976 
L 268.920019 100.080643 
L 269.45095 99.704714 
L 269.98188 99.651492 
L 270.512811 99.853821 
L 271.840137 100.837082 
L 273.432928 102.80397 
L 274.760254 104.468378 
L 275.55665 105.455705 
L 276.618511 106.719843 
L 277.414906 107.571061 
L 277.945837 108.200212 
L 278.211302 108.365011 
L 279.007698 109.119739 
L 279.538628 109.537608 
L 279.804093 96.236015 
L 280.069559 96.241895 
L 281.131419 96.805732 
L 282.19328 98.313413 
L 284.847933 102.816429 
L 285.909793 104.578001 
L 288.033515 107.630639 
L 290.953633 110.986009 
L 294.40468 113.515206 
L 294.670146 113.650177 
L 294.670146 113.650177 
" clip-path="url(#pb45539df25)" style="fill: none; stroke: #808080; stroke-width: 1.5; stroke-linecap: square"/>
   </g>
   <g id="LineCollection_2">
    <path d="M 46.194702 114.257798 
L 46.194702 84.760639 
" clip-path="url(#pb45539df25)" style="fill: none; stroke: #808080; stroke-opacity: 0.5; stroke-width: 1.5"/>
    <path d="M 65.042732 114.257798 
L 65.042732 84.760639 
" clip-path="url(#pb45539df25)" style="fill: none; stroke: #808080; stroke-opacity: 0.5; stroke-width: 1.5"/>
    <path d="M 99.818676 114.257798 
L 99.818676 84.760639 
" clip-path="url(#pb45539df25)" style="fill: none; stroke: #808080; stroke-opacity: 0.5; stroke-width: 1.5"/>
    <path d="M 118.666706 114.257798 
L 118.666706 84.760639 
" clip-path="url(#pb45539df25)" style="fill: none; stroke: #808080; stroke-opacity: 0.5; stroke-width: 1.5"/>
    <path d="M 132.205432 114.257798 
L 132.205432 84.760639 
" clip-path="url(#pb45539df25)" style="fill: none; stroke: #808080; stroke-opacity: 0.5; stroke-width: 1.5"/>
    <path d="M 151.849858 114.257798 
L 151.849858 84.760639 
" clip-path="url(#pb45539df25)" style="fill: none; stroke: #808080; stroke-opacity: 0.5; stroke-width: 1.5"/>
    <path d="M 170.697889 114.257798 
L 170.697889 84.760639 
" clip-path="url(#pb45539df25)" style="fill: none; stroke: #808080; stroke-opacity: 0.5; stroke-width: 1.5"/>
    <path d="M 181.581963 114.257798 
L 181.581963 84.760639 
" clip-path="url(#pb45539df25)" style="fill: none; stroke: #808080; stroke-opacity: 0.5; stroke-width: 1.5"/>
    <path d="M 198.571737 114.257798 
L 198.571737 84.760639 
" clip-path="url(#pb45539df25)" style="fill: none; stroke: #808080; stroke-opacity: 0.5; stroke-width: 1.5"/>
    <path d="M 217.419767 114.257798 
L 217.419767 84.760639 
" clip-path="url(#pb45539df25)" style="fill: none; stroke: #808080; stroke-opacity: 0.5; stroke-width: 1.5"/>
    <path d="M 233.613145 114.257798 
L 233.613145 84.760639 
" clip-path="url(#pb45539df25)" style="fill: none; stroke: #808080; stroke-opacity: 0.5; stroke-width: 1.5"/>
    <path d="M 249.806524 114.257798 
L 249.806524 84.760639 
" clip-path="url(#pb45539df25)" style="fill: none; stroke: #808080; stroke-opacity: 0.5; stroke-width: 1.5"/>
    <path d="M 268.654554 114.257798 
L 268.654554 84.760639 
" clip-path="url(#pb45539df25)" style="fill: none; stroke: #808080; stroke-opacity: 0.5; stroke-width: 1.5"/>
    <path d="M 279.538628 114.257798 
L 279.538628 84.760639 
" clip-path="url(#pb45539df25)" style="fill: none; stroke: #808080; stroke-opacity: 0.5; stroke-width: 1.5"/>
    <path d="M 294.40468 114.257798 
L 294.40468 84.760639 
" clip-path="url(#pb45539df25)" style="fill: none; stroke: #808080; stroke-opacity: 0.5; stroke-width: 1.5"/>
   </g>
   <g id="patch_26">
    <path d="M 33.757656 115.732656 
L 33.757656 83.285781 
" style="fill: none; stroke: #000000; stroke-width: 0.8; stroke-linejoin: miter; stroke-linecap: square"/>
   </g>
   <g id="patch_27">
    <path d="M 33.757656 115.732656 
L 307.372656 115.732656 
" style="fill: none; stroke: #000000; stroke-width: 0.8; stroke-linejoin: miter; stroke-linecap: square"/>
   </g>
   <g id="text_7">
    <!-- dv/dt -->
    <g transform="translate(156.677656 77.285781)scale(0.11 -0.11)">
     <defs>
      <path id="CMUSerif-Roman-76" d="M 122 2560 
L 122 2758 
Q 410 2739 742 2739 
Q 864 2739 1440 2758 
L 1440 2560 
Q 1075 2560 1075 2394 
Q 1075 2368 1114 2285 
L 1830 499 
L 2483 2131 
Q 2522 2240 2522 2285 
Q 2522 2394 2448 2474 
Q 2374 2554 2214 2560 
L 2214 2758 
Q 2541 2739 2771 2739 
Q 3034 2739 3251 2758 
L 3251 2560 
Q 3059 2560 2924 2473 
Q 2790 2387 2748 2313 
Q 2707 2240 2662 2131 
L 1824 51 
Q 1773 -70 1690 -70 
Q 1632 -70 1609 -48 
Q 1587 -26 1555 51 
L 634 2323 
Q 570 2483 490 2521 
Q 410 2560 122 2560 
z
" transform="scale(0.015625)"/>
     </defs>
     <use xlink:href="#CMUSerif-Roman-64"/>
     <use xlink:href="#CMUSerif-Roman-76" x="55.499985"/>
     <use xlink:href="#CMUSerif-Roman-2f" x="108.199982"/>
     <use xlink:href="#CMUSerif-Roman-64" x="158.199966"/>
     <use xlink:href="#CMUSerif-Roman-74" x="213.699951"/>
    </g>
   </g>
  </g>
  <g id="axes_3">
   <g id="patch_28">
    <path d="M 33.757656 177.590781 
L 307.372656 177.590781 
L 307.372656 145.143906 
L 33.757656 145.143906 
z
" style="fill: #ffffff"/>
   </g>
   <g id="patch_29">
    <path d="M 65.042732 177.590781 
L 65.042732 145.143906 
L 99.818676 145.143906 
L 99.818676 177.590781 
z
" clip-path="url(#pa4b83b4760)" style="fill: #ff0000; opacity: 0.1"/>
   </g>
   <g id="patch_30">
    <path d="M 46.194702 177.590781 
L 46.194702 145.143906 
L 65.042732 145.143906 
L 65.042732 177.590781 
z
" clip-path="url(#pa4b83b4760)" style="fill: #0000ff; opacity: 0.1"/>
   </g>
   <g id="patch_31">
    <path d="M 132.205432 177.590781 
L 132.205432 145.143906 
L 151.849858 145.143906 
L 151.849858 177.590781 
z
" clip-path="url(#pa4b83b4760)" style="fill: #ff0000; opacity: 0.1"/>
   </g>
   <g id="patch_32">
    <path d="M 118.666706 177.590781 
L 118.666706 145.143906 
L 132.205432 145.143906 
L 132.205432 177.590781 
z
" clip-path="url(#pa4b83b4760)" style="fill: #0000ff; opacity: 0.1"/>
   </g>
   <g id="patch_33">
    <path d="M 181.581963 177.590781 
L 181.581963 145.143906 
L 198.571737 145.143906 
L 198.571737 177.590781 
z
" clip-path="url(#pa4b83b4760)" style="fill: #ff0000; opacity: 0.1"/>
   </g>
   <g id="patch_34">
    <path d="M 170.697889 177.590781 
L 170.697889 145.143906 
L 181.581963 145.143906 
L 181.581963 177.590781 
z
" clip-path="url(#pa4b83b4760)" style="fill: #0000ff; opacity: 0.1"/>
   </g>
   <g id="patch_35">
    <path d="M 233.613145 177.590781 
L 233.613145 145.143906 
L 249.806524 145.143906 
L 249.806524 177.590781 
z
" clip-path="url(#pa4b83b4760)" style="fill: #ff0000; opacity: 0.1"/>
   </g>
   <g id="patch_36">
    <path d="M 217.419767 177.590781 
L 217.419767 145.143906 
L 233.613145 145.143906 
L 233.613145 177.590781 
z
" clip-path="url(#pa4b83b4760)" style="fill: #0000ff; opacity: 0.1"/>
   </g>
   <g id="patch_37">
    <path d="M 279.538628 177.590781 
L 279.538628 145.143906 
L 294.40468 145.143906 
L 294.40468 177.590781 
z
" clip-path="url(#pa4b83b4760)" style="fill: #ff0000; opacity: 0.1"/>
   </g>
   <g id="patch_38">
    <path d="M 268.654554 177.590781 
L 268.654554 145.143906 
L 279.538628 145.143906 
L 279.538628 177.590781 
z
" clip-path="url(#pa4b83b4760)" style="fill: #0000ff; opacity: 0.1"/>
   </g>
   <g id="matplotlib.axis_5">
    <g id="xtick_11">
     <g id="line2d_18">
      <g>
       <use xlink:href="#m32e9e0ad12" x="60.795289" y="177.590781" style="stroke: #000000; stroke-width: 0.8"/>
      </g>
     </g>
    </g>
    <g id="xtick_12">
     <g id="line2d_19">
      <g>
       <use xlink:href="#m32e9e0ad12" x="113.888332" y="177.590781" style="stroke: #000000; stroke-width: 0.8"/>
      </g>
     </g>
    </g>
    <g id="xtick_13">
     <g id="line2d_20">
      <g>
       <use xlink:href="#m32e9e0ad12" x="166.981376" y="177.590781" style="stroke: #000000; stroke-width: 0.8"/>
      </g>
     </g>
    </g>
    <g id="xtick_14">
     <g id="line2d_21">
      <g>
       <use xlink:href="#m32e9e0ad12" x="220.074419" y="177.590781" style="stroke: #000000; stroke-width: 0.8"/>
      </g>
     </g>
    </g>
    <g id="xtick_15">
     <g id="line2d_22">
      <g>
       <use xlink:href="#m32e9e0ad12" x="273.167463" y="177.590781" style="stroke: #000000; stroke-width: 0.8"/>
      </g>
     </g>
    </g>
   </g>
   <g id="matplotlib.axis_6">
    <g id="ytick_6">
     <g id="line2d_23">
      <g>
       <use xlink:href="#m16a073d4cb" x="33.757656" y="174.104233" style="stroke: #000000; stroke-width: 0.8"/>
      </g>
     </g>
     <g id="text_8">
      <!-- 0.6 -->
      <g transform="translate(12.7 177.921576)scale(0.11 -0.11)">
       <defs>
        <path id="CMUSerif-Roman-36" d="M 269 2022 
Q 269 3027 781 3644 
Q 1293 4262 1952 4262 
Q 2336 4262 2550 4067 
Q 2765 3872 2765 3571 
Q 2765 3405 2669 3334 
Q 2573 3264 2470 3264 
Q 2355 3264 2265 3341 
Q 2176 3418 2176 3558 
Q 2176 3846 2528 3846 
Q 2362 4102 1965 4102 
Q 1843 4102 1718 4067 
Q 1594 4032 1430 3913 
Q 1267 3795 1142 3606 
Q 1018 3418 931 3066 
Q 845 2714 845 2253 
L 845 2099 
Q 1107 2733 1644 2733 
Q 2182 2733 2553 2323 
Q 2925 1914 2925 1306 
Q 2925 685 2537 272 
Q 2150 -141 1606 -141 
Q 1363 -141 1142 -38 
Q 922 64 717 294 
Q 512 525 390 969 
Q 269 1414 269 2022 
z
M 858 1446 
Q 858 819 973 518 
Q 992 467 1033 400 
Q 1075 333 1148 243 
Q 1222 154 1344 96 
Q 1466 38 1606 38 
Q 2035 38 2240 454 
Q 2349 685 2349 1312 
Q 2349 1952 2234 2189 
Q 2035 2586 1638 2586 
Q 1370 2586 1184 2400 
Q 998 2214 928 1968 
Q 858 1722 858 1446 
z
" transform="scale(0.015625)"/>
       </defs>
       <use xlink:href="#CMUSerif-Roman-30"/>
       <use xlink:href="#CMUSerif-Roman-2e" x="49.999985"/>
       <use xlink:href="#CMUSerif-Roman-36" x="77.799973"/>
      </g>
     </g>
    </g>
    <g id="ytick_7">
     <g id="line2d_24">
      <g>
       <use xlink:href="#m16a073d4cb" x="33.757656" y="159.455905" style="stroke: #000000; stroke-width: 0.8"/>
      </g>
     </g>
     <g id="text_9">
      <!-- 0.7 -->
      <g transform="translate(12.7 163.273249)scale(0.11 -0.11)">
       <defs>
        <path id="CMUSerif-Roman-37" d="M 358 3008 
L 570 4326 
L 730 4326 
Q 749 4250 781 4214 
Q 813 4179 995 4150 
Q 1178 4122 1549 4122 
L 3104 4122 
Q 3104 3974 3046 3898 
L 2182 2682 
Q 1907 2298 1786 1587 
Q 1715 1114 1715 538 
L 1715 211 
Q 1715 -141 1420 -141 
Q 1126 -141 1126 211 
Q 1126 1434 1914 2618 
Q 1997 2739 2307 3174 
Q 2618 3610 2630 3629 
L 1306 3629 
Q 723 3629 678 3590 
Q 614 3533 518 3008 
L 358 3008 
z
" transform="scale(0.015625)"/>
       </defs>
       <use xlink:href="#CMUSerif-Roman-30"/>
       <use xlink:href="#CMUSerif-Roman-2e" x="49.999985"/>
       <use xlink:href="#CMUSerif-Roman-37" x="77.799973"/>
      </g>
     </g>
    </g>
   </g>
   <g id="line2d_25">
    <path d="M 46.460167 169.188331 
L 47.787493 173.262229 
L 48.583889 174.858808 
L 49.380284 175.793156 
L 49.64575 176.007078 
L 50.17668 175.944775 
L 50.442145 175.962915 
L 50.70761 176.115923 
L 50.973076 175.855425 
L 51.504006 175.781483 
L 51.769471 175.911387 
L 52.300402 175.678282 
L 52.565867 175.657971 
L 53.362263 174.950338 
L 53.627728 174.880845 
L 54.689589 173.875193 
L 54.955054 173.750397 
L 55.220519 173.791071 
L 56.28238 172.778939 
L 56.547845 172.700133 
L 57.609706 171.490916 
L 57.875171 171.488948 
L 58.140637 171.206158 
L 58.406102 171.126158 
L 59.467963 169.837793 
L 59.733428 169.740868 
L 59.998893 169.479748 
L 60.264358 169.391577 
L 60.529823 169.176224 
L 60.795289 169.160832 
L 63.980871 167.354359 
L 64.777267 167.277073 
L 65.042732 167.099753 
L 65.573663 169.270513 
L 66.635523 172.067719 
L 67.431919 173.467696 
L 68.228315 174.482813 
L 68.759245 174.938432 
L 69.290176 175.081049 
L 69.821106 175.15124 
L 70.086571 175.026383 
L 70.352037 175.029059 
L 71.148432 174.566688 
L 72.210293 174.011637 
L 73.006689 173.31919 
L 73.537619 172.709954 
L 74.06855 172.074587 
L 74.334015 171.892361 
L 74.59948 171.526227 
L 74.864945 171.378801 
L 76.723202 168.911913 
L 78.315993 167.169693 
L 78.846923 167.036811 
L 79.112389 167.113724 
L 79.377854 166.774947 
L 79.643319 166.705698 
L 80.17425 166.284068 
L 80.970645 165.646126 
L 81.767041 164.8058 
L 82.032506 164.651165 
L 82.297971 164.32215 
L 82.828902 164.149003 
L 83.625297 163.792049 
L 84.421693 163.579335 
L 85.749019 162.677335 
L 86.014484 162.455718 
L 86.27995 162.520691 
L 86.545415 162.381052 
L 87.076345 162.461288 
L 87.607276 162.059859 
L 88.403671 161.607503 
L 88.669137 161.570463 
L 88.934602 161.388756 
L 89.996463 161.278144 
L 90.261928 161.044296 
L 91.058324 161.007357 
L 91.854719 160.617569 
L 92.38565 160.6548 
L 92.651115 160.491273 
L 92.91658 160.65532 
L 93.182045 160.366982 
L 94.509371 159.967658 
L 94.774837 160.138178 
L 95.836697 159.69658 
L 96.898558 159.683958 
L 97.960419 159.585 
L 98.225884 159.570685 
L 98.49135 159.771775 
L 98.756815 159.732919 
L 99.02228 159.806612 
L 99.55321 159.63902 
L 99.818676 159.600447 
L 100.615071 163.102522 
L 101.942397 167.085169 
L 102.738793 168.163636 
L 103.004258 168.624568 
L 103.535189 169.095924 
L 103.800654 169.056752 
L 104.59705 169.501071 
L 104.862515 169.702366 
L 105.393445 169.672841 
L 105.65891 169.713534 
L 106.189841 169.423875 
L 106.986237 169.180467 
L 108.313563 168.815088 
L 108.579028 168.551201 
L 108.844493 168.534682 
L 109.109958 168.34802 
L 109.375424 168.348587 
L 109.640889 168.200819 
L 109.906354 167.866765 
L 110.437284 167.78181 
L 110.968215 167.706277 
L 111.23368 167.140367 
L 111.764611 166.84748 
L 112.030076 166.500848 
L 112.295541 166.583543 
L 112.561006 166.453939 
L 113.622867 165.561508 
L 113.888332 165.731625 
L 114.153797 165.597314 
L 114.419263 165.319872 
L 114.950193 165.200085 
L 115.215658 165.054758 
L 115.746589 164.384584 
L 116.80845 163.894445 
L 117.073915 163.759795 
L 117.33938 163.813736 
L 117.870311 163.256593 
L 118.666706 163.038391 
L 119.728567 167.259198 
L 120.524963 169.212515 
L 121.852289 170.894895 
L 122.383219 171.20387 
L 122.91415 171.414 
L 123.44508 171.524229 
L 123.710545 171.428619 
L 123.976011 171.552915 
L 125.303337 170.857036 
L 125.568802 170.666768 
L 126.099732 170.551035 
L 126.365197 170.473325 
L 126.896128 170.056841 
L 127.427058 169.820038 
L 129.285315 168.539516 
L 130.612641 167.69322 
L 131.143571 167.233952 
L 131.939967 166.794698 
L 132.205432 166.774556 
L 133.001828 169.329945 
L 134.063689 171.652579 
L 135.391015 173.018284 
L 135.65648 173.084581 
L 135.921945 173.344603 
L 136.718341 173.307875 
L 137.249271 172.856742 
L 137.780202 172.266827 
L 138.311132 172.140661 
L 138.576598 171.906043 
L 138.842063 171.829154 
L 139.107528 171.603631 
L 139.638458 170.970961 
L 139.903924 170.695642 
L 140.169389 170.16732 
L 140.965784 169.403985 
L 141.496715 168.546594 
L 141.76218 168.445193 
L 142.027645 168.202679 
L 142.293111 167.80509 
L 143.089506 167.163654 
L 143.885902 165.991671 
L 144.151367 165.882347 
L 144.416832 165.459496 
L 144.947763 164.99213 
L 145.213228 164.671348 
L 145.478693 164.591743 
L 146.806019 163.292722 
L 147.33695 162.999615 
L 147.602415 162.641259 
L 147.86788 162.5705 
L 148.398811 161.861576 
L 148.664276 161.810158 
L 148.929741 161.475229 
L 149.726137 161.333217 
L 149.991602 161.413587 
L 150.257067 161.293743 
L 151.584393 159.850593 
L 151.849858 159.559858 
L 152.380789 161.88168 
L 153.44265 165.212542 
L 153.97358 166.11361 
L 154.504511 167.109513 
L 155.300906 167.781889 
L 155.566371 167.840447 
L 156.097302 168.352058 
L 156.362767 168.664184 
L 156.893698 168.650916 
L 157.159163 168.690939 
L 157.690093 168.500893 
L 157.955558 168.607912 
L 158.221024 168.411074 
L 158.751954 168.373592 
L 160.07928 167.481439 
L 160.344745 167.339626 
L 160.610211 167.015271 
L 160.875676 166.994049 
L 161.937537 165.962875 
L 164.857654 163.092071 
L 167.512306 161.572707 
L 167.777771 161.536946 
L 168.043237 161.224762 
L 168.574167 160.980094 
L 169.105098 160.530787 
L 170.432424 159.850061 
L 170.697889 159.802086 
L 172.025215 164.541355 
L 173.352541 167.535297 
L 173.883471 168.198069 
L 175.210798 169.068091 
L 175.741728 169.0628 
L 176.272658 168.868539 
L 177.334519 168.570454 
L 178.130915 167.821822 
L 178.39638 167.53443 
L 178.927311 167.222498 
L 179.989171 166.30573 
L 180.520102 165.635241 
L 181.316498 165.101024 
L 181.581963 164.847196 
L 182.643824 168.505781 
L 183.174754 169.853882 
L 184.50208 171.133255 
L 184.767545 171.165557 
L 185.033011 171.401919 
L 185.563941 171.459997 
L 186.094871 171.387181 
L 186.891267 170.678502 
L 187.687663 170.194224 
L 187.953128 169.993569 
L 188.218593 169.652936 
L 188.484058 169.60421 
L 189.280454 168.814908 
L 189.545919 168.695172 
L 190.342315 167.706988 
L 191.404176 166.134474 
L 191.669641 166.001454 
L 193.793363 163.791327 
L 194.324293 163.122192 
L 196.71348 160.572928 
L 196.978945 160.242782 
L 197.775341 159.804663 
L 198.040806 159.575167 
L 198.306272 159.662256 
L 198.571737 159.461818 
L 199.899063 164.415884 
L 200.164528 165.156645 
L 202.022785 167.333674 
L 202.28825 167.558896 
L 203.615576 167.574334 
L 203.881041 167.368139 
L 204.146506 167.391408 
L 204.677437 167.195044 
L 204.942902 166.863857 
L 205.208367 166.785875 
L 205.473832 166.500889 
L 206.004763 166.261323 
L 206.535693 165.906437 
L 206.801158 165.514929 
L 207.332089 165.243592 
L 208.128485 164.324163 
L 209.190345 163.754326 
L 209.986741 162.687895 
L 210.252206 162.490595 
L 210.517672 161.985734 
L 211.579532 161.150717 
L 213.437789 160.036766 
L 213.703254 159.723106 
L 214.234185 159.48331 
L 214.765115 159.032352 
L 215.03058 158.96496 
L 215.296045 158.733224 
L 215.826976 158.065591 
L 216.357906 157.64921 
L 216.623372 157.573143 
L 216.888837 157.295421 
L 217.419767 157.10744 
L 218.216163 160.533067 
L 218.747093 162.203729 
L 219.543489 163.918465 
L 220.339885 165.056931 
L 220.60535 165.321689 
L 221.13628 166.118815 
L 221.667211 166.286653 
L 221.932676 166.133762 
L 222.463606 166.334657 
L 222.729072 166.074242 
L 222.994537 166.021266 
L 223.525467 165.69141 
L 223.790932 165.62136 
L 224.321863 165.125788 
L 225.383724 164.131692 
L 225.649189 164.180168 
L 226.180119 163.809093 
L 226.71105 163.271005 
L 226.976515 163.25322 
L 227.772911 162.271312 
L 228.303841 162.193666 
L 228.834772 161.560461 
L 229.100237 161.543757 
L 229.365702 161.338014 
L 229.896632 161.186905 
L 230.693028 160.156219 
L 231.223959 159.779758 
L 231.489424 159.802154 
L 231.754889 159.540336 
L 232.020354 159.506487 
L 232.551285 159.121077 
L 233.613145 158.658622 
L 234.409541 161.831552 
L 235.205937 164.043911 
L 235.471402 164.413441 
L 236.002332 165.368847 
L 236.798728 166.28229 
L 237.595124 166.518848 
L 237.860589 166.580747 
L 238.126054 166.468633 
L 238.391519 166.591793 
L 239.187915 166.249812 
L 239.984311 166.178819 
L 241.046172 165.492154 
L 241.842567 164.922825 
L 242.108032 165.009643 
L 242.904428 164.28225 
L 243.169893 164.280853 
L 243.700824 163.628511 
L 246.090011 161.715628 
L 246.355476 161.704491 
L 246.886406 161.315648 
L 247.948267 160.737354 
L 248.213732 160.617334 
L 248.479198 160.356614 
L 248.744663 160.315234 
L 249.806524 159.674336 
L 250.337454 161.676034 
L 251.66478 165.490464 
L 252.195711 166.364088 
L 252.726641 166.99445 
L 253.788502 167.769929 
L 254.850363 167.47961 
L 255.646759 167.506647 
L 256.177689 167.168171 
L 256.974085 166.674741 
L 257.505015 166.512082 
L 258.566876 165.222769 
L 258.832341 165.172718 
L 259.363272 164.462241 
L 259.894202 164.268774 
L 260.159667 163.766452 
L 261.752459 162.465177 
L 262.283389 162.288756 
L 263.079785 161.398208 
L 263.610715 161.06883 
L 264.672576 159.795222 
L 264.938041 159.600812 
L 265.203506 159.60264 
L 266.265367 158.846409 
L 266.530832 158.866252 
L 267.061763 158.646648 
L 267.592693 158.279973 
L 268.654554 157.581879 
L 269.45095 160.580876 
L 270.512811 163.464535 
L 270.778276 163.959757 
L 271.043741 164.100176 
L 271.840137 165.031408 
L 272.371067 165.405257 
L 273.167463 165.818875 
L 273.432928 166.077419 
L 274.494789 166.151341 
L 275.025719 165.712343 
L 275.822115 164.984202 
L 276.08758 164.869617 
L 276.353046 164.519223 
L 277.680372 163.825801 
L 278.211302 163.544743 
L 279.273163 162.994144 
L 279.538628 162.731647 
L 280.865954 166.800966 
L 281.66235 168.234267 
L 282.19328 168.713115 
L 282.724211 169.296722 
L 283.520606 169.364572 
L 283.786072 169.260282 
L 284.051537 169.363326 
L 285.378863 168.461465 
L 285.644328 168.066818 
L 285.909793 167.968808 
L 286.440724 167.591368 
L 286.971654 167.161388 
L 288.033515 166.17905 
L 288.564446 165.351997 
L 289.626306 164.223616 
L 290.157237 163.51951 
L 290.688167 162.879801 
L 291.219098 162.280593 
L 292.015493 161.463862 
L 292.280959 161.377662 
L 292.546424 161.069876 
L 293.608285 160.502364 
L 294.670146 159.479607 
L 294.670146 159.479607 
" clip-path="url(#pa4b83b4760)" style="fill: none; stroke: #808080; stroke-width: 1.5; stroke-linecap: square"/>
   </g>
   <g id="LineCollection_3">
    <path d="M 46.460167 159.455905 
L 294.935611 159.455905 
" clip-path="url(#pa4b83b4760)" style="fill: none; stroke-dasharray: 5.55,2.4; stroke-dashoffset: 0; stroke: #d3d3d3; stroke-width: 1.5"/>
   </g>
   <g id="LineCollection_4">
    <path d="M 46.194702 176.115923 
L 46.194702 146.618764 
" clip-path="url(#pa4b83b4760)" style="fill: none; stroke: #808080; stroke-opacity: 0.5; stroke-width: 1.5"/>
    <path d="M 65.042732 176.115923 
L 65.042732 146.618764 
" clip-path="url(#pa4b83b4760)" style="fill: none; stroke: #808080; stroke-opacity: 0.5; stroke-width: 1.5"/>
    <path d="M 99.818676 176.115923 
L 99.818676 146.618764 
" clip-path="url(#pa4b83b4760)" style="fill: none; stroke: #808080; stroke-opacity: 0.5; stroke-width: 1.5"/>
    <path d="M 118.666706 176.115923 
L 118.666706 146.618764 
" clip-path="url(#pa4b83b4760)" style="fill: none; stroke: #808080; stroke-opacity: 0.5; stroke-width: 1.5"/>
    <path d="M 132.205432 176.115923 
L 132.205432 146.618764 
" clip-path="url(#pa4b83b4760)" style="fill: none; stroke: #808080; stroke-opacity: 0.5; stroke-width: 1.5"/>
    <path d="M 151.849858 176.115923 
L 151.849858 146.618764 
" clip-path="url(#pa4b83b4760)" style="fill: none; stroke: #808080; stroke-opacity: 0.5; stroke-width: 1.5"/>
    <path d="M 170.697889 176.115923 
L 170.697889 146.618764 
" clip-path="url(#pa4b83b4760)" style="fill: none; stroke: #808080; stroke-opacity: 0.5; stroke-width: 1.5"/>
    <path d="M 181.581963 176.115923 
L 181.581963 146.618764 
" clip-path="url(#pa4b83b4760)" style="fill: none; stroke: #808080; stroke-opacity: 0.5; stroke-width: 1.5"/>
    <path d="M 198.571737 176.115923 
L 198.571737 146.618764 
" clip-path="url(#pa4b83b4760)" style="fill: none; stroke: #808080; stroke-opacity: 0.5; stroke-width: 1.5"/>
    <path d="M 217.419767 176.115923 
L 217.419767 146.618764 
" clip-path="url(#pa4b83b4760)" style="fill: none; stroke: #808080; stroke-opacity: 0.5; stroke-width: 1.5"/>
    <path d="M 233.613145 176.115923 
L 233.613145 146.618764 
" clip-path="url(#pa4b83b4760)" style="fill: none; stroke: #808080; stroke-opacity: 0.5; stroke-width: 1.5"/>
    <path d="M 249.806524 176.115923 
L 249.806524 146.618764 
" clip-path="url(#pa4b83b4760)" style="fill: none; stroke: #808080; stroke-opacity: 0.5; stroke-width: 1.5"/>
    <path d="M 268.654554 176.115923 
L 268.654554 146.618764 
" clip-path="url(#pa4b83b4760)" style="fill: none; stroke: #808080; stroke-opacity: 0.5; stroke-width: 1.5"/>
    <path d="M 279.538628 176.115923 
L 279.538628 146.618764 
" clip-path="url(#pa4b83b4760)" style="fill: none; stroke: #808080; stroke-opacity: 0.5; stroke-width: 1.5"/>
    <path d="M 294.40468 176.115923 
L 294.40468 146.618764 
" clip-path="url(#pa4b83b4760)" style="fill: none; stroke: #808080; stroke-opacity: 0.5; stroke-width: 1.5"/>
   </g>
   <g id="patch_39">
    <path d="M 33.757656 177.590781 
L 33.757656 145.143906 
" style="fill: none; stroke: #000000; stroke-width: 0.8; stroke-linejoin: miter; stroke-linecap: square"/>
   </g>
   <g id="patch_40">
    <path d="M 33.757656 177.590781 
L 307.372656 177.590781 
" style="fill: none; stroke: #000000; stroke-width: 0.8; stroke-linejoin: miter; stroke-linecap: square"/>
   </g>
   <g id="text_10">
    <!-- dy/dt -->
    <g transform="translate(156.677656 139.143906)scale(0.11 -0.11)">
     <defs>
      <path id="CMUSerif-Roman-79" d="M 122 -794 
Q 122 -659 202 -588 
Q 282 -518 390 -518 
Q 506 -518 582 -592 
Q 659 -666 659 -787 
Q 659 -1024 410 -1056 
Q 531 -1171 710 -1171 
Q 902 -1171 1056 -1030 
Q 1210 -890 1277 -755 
Q 1344 -621 1440 -378 
Q 1530 -186 1600 0 
L 640 2336 
Q 576 2490 480 2525 
Q 384 2560 122 2560 
L 122 2758 
Q 410 2739 742 2739 
Q 941 2739 1440 2758 
L 1440 2560 
Q 1082 2560 1082 2394 
Q 1082 2374 1120 2278 
L 1830 557 
L 2477 2131 
Q 2515 2221 2515 2285 
Q 2515 2547 2214 2560 
L 2214 2758 
Q 2637 2739 2771 2739 
Q 3034 2739 3251 2758 
L 3251 2560 
Q 2822 2560 2656 2150 
L 1530 -582 
Q 1222 -1312 710 -1312 
Q 467 -1312 294 -1161 
Q 122 -1011 122 -794 
z
" transform="scale(0.015625)"/>
     </defs>
     <use xlink:href="#CMUSerif-Roman-64"/>
     <use xlink:href="#CMUSerif-Roman-79" x="55.499985"/>
     <use xlink:href="#CMUSerif-Roman-2f" x="108.199982"/>
     <use xlink:href="#CMUSerif-Roman-64" x="158.199966"/>
     <use xlink:href="#CMUSerif-Roman-74" x="213.699951"/>
    </g>
   </g>
  </g>
  <g id="axes_4">
   <g id="patch_41">
    <path d="M 33.757656 239.448906 
L 307.372656 239.448906 
L 307.372656 207.002031 
L 33.757656 207.002031 
z
" style="fill: #ffffff"/>
   </g>
   <g id="patch_42">
    <path d="M 65.042732 239.448906 
L 65.042732 207.002031 
L 99.818676 207.002031 
L 99.818676 239.448906 
z
" clip-path="url(#p76fae855bc)" style="fill: #ff0000; opacity: 0.1"/>
   </g>
   <g id="patch_43">
    <path d="M 46.194702 239.448906 
L 46.194702 207.002031 
L 65.042732 207.002031 
L 65.042732 239.448906 
z
" clip-path="url(#p76fae855bc)" style="fill: #0000ff; opacity: 0.1"/>
   </g>
   <g id="patch_44">
    <path d="M 132.205432 239.448906 
L 132.205432 207.002031 
L 151.849858 207.002031 
L 151.849858 239.448906 
z
" clip-path="url(#p76fae855bc)" style="fill: #ff0000; opacity: 0.1"/>
   </g>
   <g id="patch_45">
    <path d="M 118.666706 239.448906 
L 118.666706 207.002031 
L 132.205432 207.002031 
L 132.205432 239.448906 
z
" clip-path="url(#p76fae855bc)" style="fill: #0000ff; opacity: 0.1"/>
   </g>
   <g id="patch_46">
    <path d="M 181.581963 239.448906 
L 181.581963 207.002031 
L 198.571737 207.002031 
L 198.571737 239.448906 
z
" clip-path="url(#p76fae855bc)" style="fill: #ff0000; opacity: 0.1"/>
   </g>
   <g id="patch_47">
    <path d="M 170.697889 239.448906 
L 170.697889 207.002031 
L 181.581963 207.002031 
L 181.581963 239.448906 
z
" clip-path="url(#p76fae855bc)" style="fill: #0000ff; opacity: 0.1"/>
   </g>
   <g id="patch_48">
    <path d="M 233.613145 239.448906 
L 233.613145 207.002031 
L 249.806524 207.002031 
L 249.806524 239.448906 
z
" clip-path="url(#p76fae855bc)" style="fill: #ff0000; opacity: 0.1"/>
   </g>
   <g id="patch_49">
    <path d="M 217.419767 239.448906 
L 217.419767 207.002031 
L 233.613145 207.002031 
L 233.613145 239.448906 
z
" clip-path="url(#p76fae855bc)" style="fill: #0000ff; opacity: 0.1"/>
   </g>
   <g id="patch_50">
    <path d="M 279.538628 239.448906 
L 279.538628 207.002031 
L 294.40468 207.002031 
L 294.40468 239.448906 
z
" clip-path="url(#p76fae855bc)" style="fill: #ff0000; opacity: 0.1"/>
   </g>
   <g id="patch_51">
    <path d="M 268.654554 239.448906 
L 268.654554 207.002031 
L 279.538628 207.002031 
L 279.538628 239.448906 
z
" clip-path="url(#p76fae855bc)" style="fill: #0000ff; opacity: 0.1"/>
   </g>
   <g id="matplotlib.axis_7">
    <g id="xtick_16">
     <g id="line2d_26">
      <g>
       <use xlink:href="#m32e9e0ad12" x="60.795289" y="239.448906" style="stroke: #000000; stroke-width: 0.8"/>
      </g>
     </g>
     <g id="text_11">
      <!-- 2000 -->
      <g transform="translate(49.795289 254.083594)scale(0.11 -0.11)">
       <use xlink:href="#CMUSerif-Roman-32"/>
       <use xlink:href="#CMUSerif-Roman-30" x="49.999985"/>
       <use xlink:href="#CMUSerif-Roman-30" x="99.999969"/>
       <use xlink:href="#CMUSerif-Roman-30" x="149.999954"/>
      </g>
     </g>
    </g>
    <g id="xtick_17">
     <g id="line2d_27">
      <g>
       <use xlink:href="#m32e9e0ad12" x="113.888332" y="239.448906" style="stroke: #000000; stroke-width: 0.8"/>
      </g>
     </g>
     <g id="text_12">
      <!-- 4000 -->
      <g transform="translate(102.888332 254.083594)scale(0.11 -0.11)">
       <defs>
        <path id="CMUSerif-Roman-34" d="M 179 1056 
L 179 1254 
L 2144 4256 
Q 2195 4333 2272 4333 
Q 2342 4333 2358 4304 
Q 2374 4275 2374 4166 
L 2374 1254 
L 3014 1254 
L 3014 1056 
L 2374 1056 
L 2374 499 
Q 2374 314 2451 256 
Q 2528 198 2861 198 
L 2995 198 
L 2995 0 
Q 2733 19 2125 19 
Q 1523 19 1261 0 
L 1261 198 
L 1395 198 
Q 1728 198 1805 256 
Q 1882 314 1882 499 
L 1882 1056 
L 179 1056 
z
M 358 1254 
L 1920 1254 
L 1920 3642 
L 358 1254 
z
" transform="scale(0.015625)"/>
       </defs>
       <use xlink:href="#CMUSerif-Roman-34"/>
       <use xlink:href="#CMUSerif-Roman-30" x="49.999985"/>
       <use xlink:href="#CMUSerif-Roman-30" x="99.999969"/>
       <use xlink:href="#CMUSerif-Roman-30" x="149.999954"/>
      </g>
     </g>
    </g>
    <g id="xtick_18">
     <g id="line2d_28">
      <g>
       <use xlink:href="#m32e9e0ad12" x="166.981376" y="239.448906" style="stroke: #000000; stroke-width: 0.8"/>
      </g>
     </g>
     <g id="text_13">
      <!-- 6000 -->
      <g transform="translate(155.981376 254.083594)scale(0.11 -0.11)">
       <use xlink:href="#CMUSerif-Roman-36"/>
       <use xlink:href="#CMUSerif-Roman-30" x="49.999985"/>
       <use xlink:href="#CMUSerif-Roman-30" x="99.999969"/>
       <use xlink:href="#CMUSerif-Roman-30" x="149.999954"/>
      </g>
     </g>
    </g>
    <g id="xtick_19">
     <g id="line2d_29">
      <g>
       <use xlink:href="#m32e9e0ad12" x="220.074419" y="239.448906" style="stroke: #000000; stroke-width: 0.8"/>
      </g>
     </g>
     <g id="text_14">
      <!-- 8000 -->
      <g transform="translate(209.074419 254.083594)scale(0.11 -0.11)">
       <defs>
        <path id="CMUSerif-Roman-38" d="M 269 966 
Q 269 1683 1190 2144 
Q 794 2413 723 2490 
Q 442 2803 442 3194 
Q 442 3642 781 3952 
Q 1120 4262 1600 4262 
Q 2061 4262 2406 3996 
Q 2752 3731 2752 3309 
Q 2752 2714 1978 2317 
Q 2490 1997 2611 1862 
Q 2925 1517 2925 1075 
Q 2925 563 2531 211 
Q 2138 -141 1594 -141 
Q 1062 -141 665 169 
Q 269 480 269 966 
z
M 589 966 
Q 589 570 886 304 
Q 1184 38 1600 38 
Q 2003 38 2304 268 
Q 2605 499 2605 845 
Q 2605 979 2560 1094 
Q 2515 1210 2425 1302 
Q 2336 1395 2281 1436 
Q 2227 1478 2125 1549 
L 1338 2048 
Q 589 1632 589 966 
z
M 723 3443 
Q 723 3136 1043 2925 
L 1837 2413 
Q 2470 2784 2470 3309 
Q 2470 3648 2211 3875 
Q 1952 4102 1594 4102 
Q 1242 4102 982 3916 
Q 723 3731 723 3443 
z
" transform="scale(0.015625)"/>
       </defs>
       <use xlink:href="#CMUSerif-Roman-38"/>
       <use xlink:href="#CMUSerif-Roman-30" x="49.999985"/>
       <use xlink:href="#CMUSerif-Roman-30" x="99.999969"/>
       <use xlink:href="#CMUSerif-Roman-30" x="149.999954"/>
      </g>
     </g>
    </g>
    <g id="xtick_20">
     <g id="line2d_30">
      <g>
       <use xlink:href="#m32e9e0ad12" x="273.167463" y="239.448906" style="stroke: #000000; stroke-width: 0.8"/>
      </g>
     </g>
     <g id="text_15">
      <!-- 10000 -->
      <g transform="translate(259.417463 254.083594)scale(0.11 -0.11)">
       <defs>
        <path id="CMUSerif-Roman-31" d="M 570 3654 
L 570 3853 
Q 1338 3853 1734 4262 
Q 1843 4262 1862 4236 
Q 1882 4211 1882 4096 
L 1882 506 
Q 1882 314 1974 256 
Q 2067 198 2477 198 
L 2682 198 
L 2682 0 
Q 2458 19 1645 19 
Q 832 19 608 0 
L 608 198 
L 813 198 
Q 1216 198 1312 256 
Q 1408 314 1408 506 
L 1408 3821 
Q 1075 3654 570 3654 
z
" transform="scale(0.015625)"/>
       </defs>
       <use xlink:href="#CMUSerif-Roman-31"/>
       <use xlink:href="#CMUSerif-Roman-30" x="49.999985"/>
       <use xlink:href="#CMUSerif-Roman-30" x="99.999969"/>
       <use xlink:href="#CMUSerif-Roman-30" x="149.999954"/>
       <use xlink:href="#CMUSerif-Roman-30" x="199.999939"/>
      </g>
     </g>
    </g>
    <g id="text_16">
     <!-- time [ms] -->
     <g transform="translate(148.246328 268.468281)scale(0.11 -0.11)">
      <defs>
       <path id="CMUSerif-Roman-69" d="M 211 0 
L 211 198 
Q 550 198 630 240 
Q 710 282 710 486 
L 710 2208 
Q 710 2445 630 2502 
Q 550 2560 237 2560 
L 237 2758 
L 1133 2829 
L 1133 480 
Q 1133 288 1200 243 
Q 1267 198 1581 198 
L 1581 0 
Q 928 19 915 19 
Q 826 19 211 0 
z
M 480 3942 
Q 480 4070 579 4176 
Q 678 4282 819 4282 
Q 960 4282 1059 4186 
Q 1158 4090 1158 3942 
Q 1158 3795 1059 3699 
Q 960 3603 819 3603 
Q 672 3603 576 3705 
Q 480 3808 480 3942 
z
" transform="scale(0.015625)"/>
       <path id="CMUSerif-Roman-6d" d="M 205 0 
L 205 198 
Q 544 198 624 240 
Q 704 282 704 486 
L 704 2202 
Q 704 2438 621 2499 
Q 538 2560 205 2560 
L 205 2758 
L 1107 2829 
L 1107 2157 
Q 1408 2829 2054 2829 
Q 2803 2829 2906 2202 
Q 3014 2445 3244 2637 
Q 3475 2829 3834 2829 
Q 4314 2829 4506 2592 
Q 4646 2432 4675 2253 
Q 4704 2074 4704 1613 
L 4704 390 
Q 4710 256 4812 227 
Q 4915 198 5203 198 
L 5203 0 
Q 4550 19 4486 19 
Q 4435 19 3763 0 
L 3763 198 
Q 4102 198 4182 240 
Q 4262 282 4262 486 
L 4262 1978 
Q 4262 2304 4163 2496 
Q 4064 2688 3789 2688 
Q 3456 2688 3190 2409 
Q 2925 2131 2925 1664 
L 2925 486 
Q 2925 282 3005 240 
Q 3085 198 3424 198 
L 3424 0 
Q 2771 19 2707 19 
Q 2656 19 1984 0 
L 1984 198 
Q 2323 198 2403 240 
Q 2483 282 2483 486 
L 2483 1978 
Q 2483 2304 2384 2496 
Q 2285 2688 2010 2688 
Q 1677 2688 1411 2409 
Q 1146 2131 1146 1664 
L 1146 486 
Q 1146 282 1226 240 
Q 1306 198 1645 198 
L 1645 0 
Q 992 19 928 19 
Q 877 19 205 0 
z
" transform="scale(0.015625)"/>
       <path id="CMUSerif-Roman-65" d="M 179 1408 
Q 179 2010 566 2438 
Q 954 2867 1510 2867 
Q 2074 2867 2365 2502 
Q 2656 2138 2656 1613 
Q 2656 1517 2630 1497 
Q 2605 1478 2496 1478 
L 710 1478 
Q 710 826 902 518 
Q 1171 90 1626 90 
Q 1690 90 1763 102 
Q 1837 115 1990 169 
Q 2144 224 2278 371 
Q 2413 518 2490 749 
Q 2509 838 2573 838 
Q 2656 838 2656 762 
Q 2656 704 2595 579 
Q 2534 454 2419 304 
Q 2304 154 2080 42 
Q 1856 -70 1587 -70 
Q 1024 -70 601 355 
Q 179 781 179 1408 
z
M 717 1613 
L 2234 1613 
Q 2234 1747 2211 1897 
Q 2189 2048 2121 2256 
Q 2054 2464 1897 2595 
Q 1741 2726 1510 2726 
Q 1408 2726 1296 2681 
Q 1184 2637 1049 2531 
Q 915 2426 822 2186 
Q 730 1946 717 1613 
z
" transform="scale(0.015625)"/>
       <path id="CMUSerif-Roman-20" transform="scale(0.015625)"/>
       <path id="CMUSerif-Roman-5b" d="M 666 -1600 
L 666 4800 
L 1632 4800 
L 1632 4653 
L 1094 4653 
L 1094 -1453 
L 1632 -1453 
L 1632 -1600 
L 666 -1600 
z
" transform="scale(0.015625)"/>
       <path id="CMUSerif-Roman-73" d="M 211 83 
L 211 928 
Q 211 998 214 1024 
Q 218 1050 237 1069 
Q 256 1088 294 1088 
Q 339 1088 355 1069 
Q 371 1050 384 979 
Q 480 538 688 304 
Q 896 70 1274 70 
Q 1632 70 1814 230 
Q 1997 390 1997 653 
Q 1997 1120 1331 1242 
Q 947 1318 787 1369 
Q 627 1421 486 1536 
Q 211 1760 211 2080 
Q 211 2400 454 2633 
Q 698 2867 1235 2867 
Q 1594 2867 1837 2688 
Q 1907 2746 1946 2790 
Q 2029 2867 2074 2867 
Q 2125 2867 2134 2835 
Q 2144 2803 2144 2714 
L 2144 2067 
Q 2144 1997 2141 1971 
Q 2138 1946 2118 1930 
Q 2099 1914 2061 1914 
Q 1990 1914 1984 1971 
Q 1933 2746 1235 2746 
Q 858 2746 688 2602 
Q 518 2458 518 2259 
Q 518 2150 569 2067 
Q 621 1984 688 1936 
Q 755 1888 880 1843 
Q 1005 1798 1081 1782 
Q 1158 1766 1306 1734 
Q 1818 1638 2035 1427 
Q 2304 1158 2304 819 
Q 2304 442 2048 186 
Q 1792 -70 1274 -70 
Q 858 -70 570 205 
Q 531 166 502 134 
Q 474 102 464 89 
Q 454 77 451 70 
Q 448 64 442 58 
Q 314 -70 282 -70 
Q 230 -70 220 -38 
Q 211 -6 211 83 
z
" transform="scale(0.015625)"/>
       <path id="CMUSerif-Roman-5d" d="M 134 -1453 
L 672 -1453 
L 672 4653 
L 134 4653 
L 134 4800 
L 1101 4800 
L 1101 -1600 
L 134 -1600 
L 134 -1453 
z
" transform="scale(0.015625)"/>
      </defs>
      <use xlink:href="#CMUSerif-Roman-74"/>
      <use xlink:href="#CMUSerif-Roman-69" x="38.799988"/>
      <use xlink:href="#CMUSerif-Roman-6d" x="66.499985"/>
      <use xlink:href="#CMUSerif-Roman-65" x="149.799973"/>
      <use xlink:href="#CMUSerif-Roman-20" x="194.199966"/>
      <use xlink:href="#CMUSerif-Roman-5b" x="227.499954"/>
      <use xlink:href="#CMUSerif-Roman-6d" x="255.299942"/>
      <use xlink:href="#CMUSerif-Roman-73" x="338.59993"/>
      <use xlink:href="#CMUSerif-Roman-5d" x="377.999924"/>
     </g>
    </g>
   </g>
   <g id="matplotlib.axis_8">
    <g id="ytick_8">
     <g id="line2d_31">
      <g>
       <use xlink:href="#m16a073d4cb" x="33.757656" y="234.970893" style="stroke: #000000; stroke-width: 0.8"/>
      </g>
     </g>
     <g id="text_17">
      <!-- 0.75 -->
      <g transform="translate(7.2 238.788237)scale(0.11 -0.11)">
       <use xlink:href="#CMUSerif-Roman-30"/>
       <use xlink:href="#CMUSerif-Roman-2e" x="49.999985"/>
       <use xlink:href="#CMUSerif-Roman-37" x="77.799973"/>
       <use xlink:href="#CMUSerif-Roman-35" x="127.799957"/>
      </g>
     </g>
    </g>
    <g id="ytick_9">
     <g id="line2d_32">
      <g>
       <use xlink:href="#m16a073d4cb" x="33.757656" y="208.476889" style="stroke: #000000; stroke-width: 0.8"/>
      </g>
     </g>
     <g id="text_18">
      <!-- 0.80 -->
      <g transform="translate(7.2 212.294233)scale(0.11 -0.11)">
       <use xlink:href="#CMUSerif-Roman-30"/>
       <use xlink:href="#CMUSerif-Roman-2e" x="49.999985"/>
       <use xlink:href="#CMUSerif-Roman-38" x="77.799973"/>
       <use xlink:href="#CMUSerif-Roman-30" x="127.799957"/>
      </g>
     </g>
    </g>
   </g>
   <g id="line2d_33">
    <path d="M 46.460167 208.476889 
L 65.042732 208.476889 
L 65.308197 218.352036 
L 132.205432 218.352036 
L 132.470897 227.807058 
L 181.581963 227.807058 
L 181.847428 234.772108 
L 233.613145 234.772108 
L 233.878611 233.742091 
L 279.538628 233.742091 
L 279.804093 237.974048 
L 294.670146 237.974048 
L 294.670146 237.974048 
" clip-path="url(#p76fae855bc)" style="fill: none; stroke: #808080; stroke-width: 1.5; stroke-linecap: square"/>
   </g>
   <g id="LineCollection_5">
    <path d="M 46.194702 237.974048 
L 46.194702 208.476889 
" clip-path="url(#p76fae855bc)" style="fill: none; stroke: #808080; stroke-opacity: 0.5; stroke-width: 1.5"/>
    <path d="M 65.042732 237.974048 
L 65.042732 208.476889 
" clip-path="url(#p76fae855bc)" style="fill: none; stroke: #808080; stroke-opacity: 0.5; stroke-width: 1.5"/>
    <path d="M 99.818676 237.974048 
L 99.818676 208.476889 
" clip-path="url(#p76fae855bc)" style="fill: none; stroke: #808080; stroke-opacity: 0.5; stroke-width: 1.5"/>
    <path d="M 118.666706 237.974048 
L 118.666706 208.476889 
" clip-path="url(#p76fae855bc)" style="fill: none; stroke: #808080; stroke-opacity: 0.5; stroke-width: 1.5"/>
    <path d="M 132.205432 237.974048 
L 132.205432 208.476889 
" clip-path="url(#p76fae855bc)" style="fill: none; stroke: #808080; stroke-opacity: 0.5; stroke-width: 1.5"/>
    <path d="M 151.849858 237.974048 
L 151.849858 208.476889 
" clip-path="url(#p76fae855bc)" style="fill: none; stroke: #808080; stroke-opacity: 0.5; stroke-width: 1.5"/>
    <path d="M 170.697889 237.974048 
L 170.697889 208.476889 
" clip-path="url(#p76fae855bc)" style="fill: none; stroke: #808080; stroke-opacity: 0.5; stroke-width: 1.5"/>
    <path d="M 181.581963 237.974048 
L 181.581963 208.476889 
" clip-path="url(#p76fae855bc)" style="fill: none; stroke: #808080; stroke-opacity: 0.5; stroke-width: 1.5"/>
    <path d="M 198.571737 237.974048 
L 198.571737 208.476889 
" clip-path="url(#p76fae855bc)" style="fill: none; stroke: #808080; stroke-opacity: 0.5; stroke-width: 1.5"/>
    <path d="M 217.419767 237.974048 
L 217.419767 208.476889 
" clip-path="url(#p76fae855bc)" style="fill: none; stroke: #808080; stroke-opacity: 0.5; stroke-width: 1.5"/>
    <path d="M 233.613145 237.974048 
L 233.613145 208.476889 
" clip-path="url(#p76fae855bc)" style="fill: none; stroke: #808080; stroke-opacity: 0.5; stroke-width: 1.5"/>
    <path d="M 249.806524 237.974048 
L 249.806524 208.476889 
" clip-path="url(#p76fae855bc)" style="fill: none; stroke: #808080; stroke-opacity: 0.5; stroke-width: 1.5"/>
    <path d="M 268.654554 237.974048 
L 268.654554 208.476889 
" clip-path="url(#p76fae855bc)" style="fill: none; stroke: #808080; stroke-opacity: 0.5; stroke-width: 1.5"/>
    <path d="M 279.538628 237.974048 
L 279.538628 208.476889 
" clip-path="url(#p76fae855bc)" style="fill: none; stroke: #808080; stroke-opacity: 0.5; stroke-width: 1.5"/>
    <path d="M 294.40468 237.974048 
L 294.40468 208.476889 
" clip-path="url(#p76fae855bc)" style="fill: none; stroke: #808080; stroke-opacity: 0.5; stroke-width: 1.5"/>
   </g>
   <g id="patch_52">
    <path d="M 33.757656 239.448906 
L 33.757656 207.002031 
" style="fill: none; stroke: #000000; stroke-width: 0.8; stroke-linejoin: miter; stroke-linecap: square"/>
   </g>
   <g id="patch_53">
    <path d="M 33.757656 239.448906 
L 307.372656 239.448906 
" style="fill: none; stroke: #000000; stroke-width: 0.8; stroke-linejoin: miter; stroke-linecap: square"/>
   </g>
   <g id="text_19">
    <!-- dI/dt -->
    <g transform="translate(157.591172 201.002031)scale(0.11 -0.11)">
     <defs>
      <path id="CMUSerif-Roman-49" d="M 179 0 
L 179 198 
L 346 198 
Q 704 198 787 256 
Q 870 314 870 499 
L 870 3872 
Q 870 4058 787 4115 
Q 704 4173 346 4173 
L 179 4173 
L 179 4371 
Q 403 4352 1158 4352 
Q 1907 4352 2131 4371 
L 2131 4173 
L 1965 4173 
Q 1606 4173 1523 4115 
Q 1440 4058 1440 3872 
L 1440 499 
Q 1440 314 1523 256 
Q 1606 198 1965 198 
L 2131 198 
L 2131 0 
Q 1907 19 1152 19 
Q 403 19 179 0 
z
" transform="scale(0.015625)"/>
     </defs>
     <use xlink:href="#CMUSerif-Roman-64"/>
     <use xlink:href="#CMUSerif-Roman-49" x="55.499985"/>
     <use xlink:href="#CMUSerif-Roman-2f" x="91.599976"/>
     <use xlink:href="#CMUSerif-Roman-64" x="141.59996"/>
     <use xlink:href="#CMUSerif-Roman-74" x="197.099945"/>
    </g>
   </g>
  </g>
 </g>
 <defs>
  <clipPath id="pf3bad63f97">
   <rect x="33.757656" y="21.427656" width="273.615" height="32.446875"/>
  </clipPath>
  <clipPath id="pb45539df25">
   <rect x="33.757656" y="83.285781" width="273.615" height="32.446875"/>
  </clipPath>
  <clipPath id="pa4b83b4760">
   <rect x="33.757656" y="145.143906" width="273.615" height="32.446875"/>
  </clipPath>
  <clipPath id="p76fae855bc">
   <rect x="33.757656" y="207.002031" width="273.615" height="32.446875"/>
  </clipPath>
 </defs>
</svg>
