<?xml version="1.0" encoding="utf-8" standalone="no"?>
<!DOCTYPE svg PUBLIC "-//W3C//DTD SVG 1.1//EN"
  "http://www.w3.org/Graphics/SVG/1.1/DTD/svg11.dtd">
<svg xmlns:xlink="http://www.w3.org/1999/xlink" width="240.081499pt" height="115.068145pt" viewBox="0 0 240.081499 115.068145" xmlns="http://www.w3.org/2000/svg" version="1.1">
 <metadata>
  <rdf:RDF xmlns:dc="http://purl.org/dc/elements/1.1/" xmlns:cc="http://creativecommons.org/ns#" xmlns:rdf="http://www.w3.org/1999/02/22-rdf-syntax-ns#">
   <cc:Work>
    <dc:type rdf:resource="http://purl.org/dc/dcmitype/StillImage"/>
    <dc:date>2022-09-06T18:37:54.651979</dc:date>
    <dc:format>image/svg+xml</dc:format>
    <dc:creator>
     <cc:Agent>
      <dc:title>Matplotlib v3.5.1, https://matplotlib.org/</dc:title>
     </cc:Agent>
    </dc:creator>
   </cc:Work>
  </rdf:RDF>
 </metadata>
 <defs>
  <style type="text/css">*{stroke-linejoin: round; stroke-linecap: butt}</style>
 </defs>
 <g id="figure_1">
  <g id="patch_1">
   <path d="M 0 115.068145 
L 240.081499 115.068145 
L 240.081499 0 
L 0 0 
z
" style="fill: #ffffff"/>
  </g>
  <g id="axes_1">
   <g id="patch_2">
    <path d="M 47.423785 76.168 
L 115.905603 76.168 
L 115.905603 21.808 
L 47.423785 21.808 
z
" style="fill: #ffffff"/>
   </g>
   <g id="matplotlib.axis_1">
    <g id="xtick_1">
     <g id="line2d_1">
      <defs>
       <path id="m47d5da22d0" d="M 0 0 
L 0 3.5 
" style="stroke: #262626; stroke-width: 0.8"/>
      </defs>
      <g>
       <use xlink:href="#m47d5da22d0" x="50.536595" y="76.168" style="fill: #262626; stroke: #262626; stroke-width: 0.8"/>
      </g>
     </g>
     <g id="text_1">
      <!-- $\mathdefault{400}$ -->
      <g style="fill: #262626" transform="translate(42.317394 90.778347)scale(0.11 -0.11)">
       <defs>
        <path id="CMR17-34" d="M 2150 4122 
C 2150 4256 2144 4256 2029 4256 
L 128 1254 
L 128 1088 
L 1779 1088 
L 1779 457 
C 1779 224 1766 160 1318 160 
L 1197 160 
L 1197 0 
C 1402 0 1747 0 1965 0 
C 2182 0 2528 0 2733 0 
L 2733 160 
L 2611 160 
C 2163 160 2150 224 2150 457 
L 2150 1088 
L 2803 1088 
L 2803 1254 
L 2150 1254 
L 2150 4122 
z
M 1798 3703 
L 1798 1254 
L 256 1254 
L 1798 3703 
z
" transform="scale(0.015625)"/>
        <path id="CMR17-30" d="M 2688 2025 
C 2688 2416 2682 3080 2413 3591 
C 2176 4039 1798 4198 1466 4198 
C 1158 4198 768 4058 525 3597 
C 269 3118 243 2524 243 2025 
C 243 1661 250 1106 448 619 
C 723 -39 1216 -128 1466 -128 
C 1760 -128 2208 -7 2470 600 
C 2662 1042 2688 1559 2688 2025 
z
M 1466 -26 
C 1056 -26 813 325 723 812 
C 653 1188 653 1738 653 2096 
C 653 2588 653 2997 736 3387 
C 858 3929 1216 4096 1466 4096 
C 1728 4096 2067 3923 2189 3400 
C 2272 3036 2278 2607 2278 2096 
C 2278 1680 2278 1169 2202 792 
C 2067 95 1690 -26 1466 -26 
z
" transform="scale(0.015625)"/>
       </defs>
       <use xlink:href="#CMR17-34" transform="scale(0.996264)"/>
       <use xlink:href="#CMR17-30" transform="translate(45.690477 0)scale(0.996264)"/>
       <use xlink:href="#CMR17-30" transform="translate(91.380954 0)scale(0.996264)"/>
      </g>
     </g>
    </g>
    <g id="xtick_2">
     <g id="line2d_2">
      <g>
       <use xlink:href="#m47d5da22d0" x="92.040727" y="76.168" style="fill: #262626; stroke: #262626; stroke-width: 0.8"/>
      </g>
     </g>
     <g id="text_2">
      <!-- $\mathdefault{600}$ -->
      <g style="fill: #262626" transform="translate(83.821526 90.778347)scale(0.11 -0.11)">
       <defs>
        <path id="CMR17-36" d="M 678 2176 
C 678 3690 1395 4032 1811 4032 
C 1946 4032 2272 4009 2400 3776 
C 2298 3776 2106 3776 2106 3553 
C 2106 3381 2246 3323 2336 3323 
C 2394 3323 2566 3348 2566 3560 
C 2566 3954 2246 4179 1805 4179 
C 1043 4179 243 3390 243 1984 
C 243 253 966 -128 1478 -128 
C 2099 -128 2688 427 2688 1283 
C 2688 2081 2170 2662 1517 2662 
C 1126 2662 838 2407 678 1960 
L 678 2176 
z
M 1478 25 
C 691 25 691 1200 691 1436 
C 691 1896 909 2560 1504 2560 
C 1613 2560 1926 2560 2138 2120 
C 2253 1870 2253 1609 2253 1289 
C 2253 944 2253 690 2118 434 
C 1978 171 1773 25 1478 25 
z
" transform="scale(0.015625)"/>
       </defs>
       <use xlink:href="#CMR17-36" transform="scale(0.996264)"/>
       <use xlink:href="#CMR17-30" transform="translate(45.690477 0)scale(0.996264)"/>
       <use xlink:href="#CMR17-30" transform="translate(91.380954 0)scale(0.996264)"/>
      </g>
     </g>
    </g>
    <g id="text_3">
     <!-- stimulus [ms] -->
     <g style="fill: #262626" transform="translate(50.066467 105.128419)scale(0.11 -0.11)">
      <defs>
       <path id="CMR17-73" d="M 1978 2697 
C 1978 2813 1971 2819 1933 2819 
C 1907 2819 1901 2813 1824 2717 
C 1805 2691 1747 2626 1728 2601 
C 1523 2819 1235 2819 1126 2819 
C 416 2819 160 2447 160 2076 
C 160 1498 813 1365 998 1325 
C 1402 1243 1542 1217 1677 1101 
C 1760 1025 1901 884 1901 654 
C 1901 384 1747 38 1158 38 
C 602 38 403 460 288 1021 
C 269 1110 269 1117 218 1117 
C 166 1117 160 1110 160 983 
L 160 63 
C 160 -51 166 -58 205 -58 
C 237 -58 243 -51 275 0 
C 314 57 410 211 448 276 
C 576 103 800 -64 1158 -64 
C 1792 -64 2131 283 2131 784 
C 2131 1112 1958 1285 1875 1362 
C 1683 1561 1459 1606 1190 1657 
C 838 1735 390 1825 390 2217 
C 390 2383 480 2737 1126 2737 
C 1811 2737 1850 2094 1862 1888 
C 1869 1856 1901 1849 1920 1849 
C 1978 1849 1978 1869 1978 1978 
L 1978 2697 
z
" transform="scale(0.015625)"/>
       <path id="CMR17-74" d="M 966 2560 
L 1862 2560 
L 1862 2725 
L 966 2725 
L 966 3904 
L 851 3904 
C 838 3245 614 2668 70 2668 
L 70 2560 
L 627 2560 
L 627 771 
C 627 650 627 -64 1370 -64 
C 1747 -64 1965 306 1965 777 
L 1965 1140 
L 1850 1140 
L 1850 783 
C 1850 344 1677 51 1408 51 
C 1222 51 966 178 966 758 
L 966 2560 
z
" transform="scale(0.015625)"/>
       <path id="CMR17-69" d="M 992 3909 
C 992 4049 877 4170 730 4170 
C 589 4170 467 4056 467 3909 
C 467 3769 582 3648 730 3648 
C 870 3648 992 3763 992 3909 
z
M 243 2706 
L 243 2541 
C 602 2541 653 2502 653 2197 
L 653 427 
C 653 184 627 153 218 153 
L 218 -13 
C 371 0 646 0 806 0 
C 960 0 1222 0 1370 -13 
L 1370 153 
C 992 153 979 191 979 420 
L 979 2776 
L 243 2706 
z
" transform="scale(0.015625)"/>
       <path id="CMR17-6d" d="M 4326 1933 
C 4326 2252 4269 2790 3507 2790 
C 3072 2790 2771 2496 2656 2151 
L 2650 2151 
C 2573 2676 2195 2790 1837 2790 
C 1331 2790 1069 2400 973 2144 
L 966 2144 
L 966 2790 
L 211 2720 
L 211 2554 
C 589 2554 646 2515 646 2208 
L 646 428 
C 646 184 621 153 211 153 
L 211 -13 
C 365 0 646 0 813 0 
C 979 0 1267 0 1421 -13 
L 1421 153 
C 1011 153 986 178 986 428 
L 986 1658 
C 986 2247 1344 2688 1792 2688 
C 2266 2688 2317 2266 2317 1958 
L 2317 428 
C 2317 184 2291 153 1882 153 
L 1882 -13 
C 2035 0 2317 0 2483 0 
C 2650 0 2938 0 3091 -13 
L 3091 153 
C 2682 153 2656 178 2656 428 
L 2656 1658 
C 2656 2247 3014 2688 3462 2688 
C 3936 2688 3987 2266 3987 1958 
L 3987 428 
C 3987 184 3962 153 3552 153 
L 3552 -13 
C 3706 0 3987 0 4154 0 
C 4320 0 4608 0 4762 -13 
L 4762 153 
C 4352 153 4326 178 4326 428 
L 4326 1933 
z
" transform="scale(0.015625)"/>
       <path id="CMR17-75" d="M 1882 2693 
L 1882 2528 
C 2259 2528 2317 2489 2317 2186 
L 2317 1032 
C 2317 500 2029 38 1555 38 
C 1030 38 986 348 986 678 
L 986 2763 
L 211 2693 
L 211 2528 
C 467 2528 640 2528 646 2274 
L 646 1058 
C 646 633 646 361 813 183 
C 896 101 1056 -64 1517 -64 
C 2061 -64 2272 377 2323 506 
L 2330 506 
L 2330 -63 
L 3091 -63 
L 3091 128 
C 2714 128 2656 166 2656 473 
L 2656 2763 
L 1882 2693 
z
" transform="scale(0.015625)"/>
       <path id="CMR17-6c" d="M 979 4396 
L 218 4326 
L 218 4160 
C 595 4160 653 4122 653 3817 
L 653 426 
C 653 184 627 153 218 153 
L 218 -13 
C 371 0 653 0 813 0 
C 979 0 1261 0 1414 -13 
L 1414 153 
C 1005 153 979 178 979 426 
L 979 4396 
z
" transform="scale(0.015625)"/>
       <path id="CMR17-5b" d="M 1504 -1600 
L 1504 -1377 
L 902 -1377 
L 902 4544 
L 1504 4544 
L 1504 4767 
L 678 4767 
L 678 -1600 
L 1504 -1600 
z
" transform="scale(0.015625)"/>
       <path id="CMR17-5d" d="M 915 4767 
L 90 4767 
L 90 4544 
L 691 4544 
L 691 -1377 
L 90 -1377 
L 90 -1600 
L 915 -1600 
L 915 4767 
z
" transform="scale(0.015625)"/>
      </defs>
      <use xlink:href="#CMR17-73" transform="scale(0.996264)"/>
      <use xlink:href="#CMR17-74" transform="translate(35.801338 0)scale(0.996264)"/>
      <use xlink:href="#CMR17-69" transform="translate(71.082105 0)scale(0.996264)"/>
      <use xlink:href="#CMR17-6d" transform="translate(95.953164 0)scale(0.996264)"/>
      <use xlink:href="#CMR17-75" transform="translate(170.2703 0)scale(0.996264)"/>
      <use xlink:href="#CMR17-6c" transform="translate(221.16567 0)scale(0.996264)"/>
      <use xlink:href="#CMR17-75" transform="translate(246.036728 0)scale(0.996264)"/>
      <use xlink:href="#CMR17-73" transform="translate(296.932098 0)scale(0.996264)"/>
      <use xlink:href="#CMR17-5b" transform="translate(362.809402 0)scale(0.996264)"/>
      <use xlink:href="#CMR17-6d" transform="translate(387.68046 0)scale(0.996264)"/>
      <use xlink:href="#CMR17-73" transform="translate(464.60005 0)scale(0.996264)"/>
      <use xlink:href="#CMR17-5d" transform="translate(500.401388 0)scale(0.996264)"/>
     </g>
    </g>
   </g>
   <g id="matplotlib.axis_2">
    <g id="ytick_1">
     <g id="line2d_3">
      <defs>
       <path id="m7ad0e5aa3c" d="M 0 0 
L -3.5 0 
" style="stroke: #262626; stroke-width: 0.8"/>
      </defs>
      <g>
       <use xlink:href="#m7ad0e5aa3c" x="47.423785" y="76.112672" style="fill: #262626; stroke: #262626; stroke-width: 0.8"/>
      </g>
     </g>
     <g id="text_4">
      <!-- $\mathdefault{0.00}$ -->
      <g style="fill: #262626" transform="translate(20.941241 79.917845)scale(0.11 -0.11)">
       <defs>
        <path id="CMMI12-3a" d="M 1178 307 
C 1178 492 1024 619 870 619 
C 685 619 557 466 557 313 
C 557 128 710 0 864 0 
C 1050 0 1178 153 1178 307 
z
" transform="scale(0.015625)"/>
       </defs>
       <use xlink:href="#CMR17-30" transform="scale(0.996264)"/>
       <use xlink:href="#CMMI12-3a" transform="translate(45.690477 0)scale(0.996264)"/>
       <use xlink:href="#CMR17-30" transform="translate(72.787654 0)scale(0.996264)"/>
       <use xlink:href="#CMR17-30" transform="translate(118.478131 0)scale(0.996264)"/>
      </g>
     </g>
    </g>
    <g id="ytick_2">
     <g id="line2d_4">
      <g>
       <use xlink:href="#m7ad0e5aa3c" x="47.423785" y="42.721213" style="fill: #262626; stroke: #262626; stroke-width: 0.8"/>
      </g>
     </g>
     <g id="text_5">
      <!-- $\mathdefault{0.25}$ -->
      <g style="fill: #262626" transform="translate(20.941241 46.526386)scale(0.11 -0.11)">
       <defs>
        <path id="CMR17-32" d="M 2669 989 
L 2554 989 
C 2490 536 2438 459 2413 420 
C 2381 369 1920 369 1830 369 
L 602 369 
C 832 619 1280 1072 1824 1597 
C 2214 1967 2669 2402 2669 3035 
C 2669 3790 2067 4224 1395 4224 
C 691 4224 262 3604 262 3030 
C 262 2780 448 2748 525 2748 
C 589 2748 781 2787 781 3010 
C 781 3207 614 3264 525 3264 
C 486 3264 448 3258 422 3245 
C 544 3790 915 4058 1306 4058 
C 1862 4058 2227 3617 2227 3035 
C 2227 2479 1901 2000 1536 1584 
L 262 146 
L 262 0 
L 2515 0 
L 2669 989 
z
" transform="scale(0.015625)"/>
        <path id="CMR17-35" d="M 730 3692 
C 794 3666 1056 3584 1325 3584 
C 1920 3584 2246 3911 2432 4100 
C 2432 4157 2432 4192 2394 4192 
C 2387 4192 2374 4192 2323 4163 
C 2099 4058 1837 3973 1517 3973 
C 1325 3973 1037 3999 723 4139 
C 653 4171 640 4171 634 4171 
C 602 4171 595 4164 595 4037 
L 595 2203 
C 595 2089 595 2057 659 2057 
C 691 2057 704 2070 736 2114 
C 941 2401 1222 2522 1542 2522 
C 1766 2522 2246 2382 2246 1289 
C 2246 1085 2246 715 2054 421 
C 1894 159 1645 25 1370 25 
C 947 25 518 320 403 814 
C 429 807 480 795 506 795 
C 589 795 749 840 749 1038 
C 749 1210 627 1280 506 1280 
C 358 1280 262 1190 262 1011 
C 262 454 704 -128 1382 -128 
C 2042 -128 2669 440 2669 1264 
C 2669 2030 2170 2624 1549 2624 
C 1222 2624 947 2503 730 2274 
L 730 3692 
z
" transform="scale(0.015625)"/>
       </defs>
       <use xlink:href="#CMR17-30" transform="scale(0.996264)"/>
       <use xlink:href="#CMMI12-3a" transform="translate(45.690477 0)scale(0.996264)"/>
       <use xlink:href="#CMR17-32" transform="translate(72.787654 0)scale(0.996264)"/>
       <use xlink:href="#CMR17-35" transform="translate(118.478131 0)scale(0.996264)"/>
      </g>
     </g>
    </g>
    <g id="text_6">
     <!-- $\mathrm{CV}$ -->
     <g style="fill: #262626" transform="translate(14.810347 57.054985)rotate(-90)scale(0.11 -0.11)">
      <defs>
       <path id="CMR17-43" d="M 3974 4289 
C 3974 4403 3968 4410 3930 4410 
C 3904 4410 3898 4403 3853 4327 
L 3571 3792 
C 3258 4187 2874 4416 2381 4416 
C 1286 4416 294 3456 294 2148 
C 294 826 1286 -128 2387 -128 
C 3366 -128 3974 730 3974 1461 
C 3974 1524 3974 1550 3917 1550 
C 3866 1550 3866 1531 3859 1474 
C 3808 585 3168 38 2477 38 
C 1824 38 781 495 781 2147 
C 781 3805 1843 4250 2464 4250 
C 3187 4250 3712 3628 3834 2745 
C 3846 2668 3846 2655 3904 2655 
C 3974 2655 3974 2668 3974 2783 
L 3974 4289 
z
" transform="scale(0.015625)"/>
       <path id="CMR17-56" d="M 3776 3745 
C 3834 3886 3936 4160 4365 4160 
L 4365 4332 
C 4218 4319 4051 4319 3891 4319 
C 3738 4319 3475 4319 3328 4332 
L 3328 4160 
C 3648 4160 3661 3936 3661 3898 
C 3661 3827 3642 3783 3622 3732 
L 2362 446 
L 1043 3886 
C 1024 3931 1011 3963 1011 3994 
C 1011 4160 1267 4160 1402 4160 
L 1402 4319 
C 1197 4319 896 4319 685 4319 
C 518 4319 218 4319 64 4332 
L 64 4160 
C 435 4160 506 4135 582 3931 
L 2106 -26 
C 2138 -115 2144 -128 2214 -128 
C 2285 -128 2291 -115 2323 -26 
L 3776 3745 
z
" transform="scale(0.015625)"/>
      </defs>
      <use xlink:href="#CMR17-43" transform="scale(0.996264)"/>
      <use xlink:href="#CMR17-56" transform="translate(66.509881 0)scale(0.996264)"/>
     </g>
    </g>
   </g>
   <g id="line2d_5">
    <path d="M 50.536595 72.998442 
L 60.912628 72.901309 
L 71.288661 72.734258 
L 81.664694 73.405551 
L 92.040727 73.697091 
L 102.41676 73.003607 
L 112.792793 73.330176 
" clip-path="url(#p75d7ad25b7)" style="fill: none; stroke: #c9ddf0; stroke-width: 1.5; stroke-linecap: round"/>
   </g>
   <g id="line2d_6">
    <path d="M 50.536595 70.786381 
L 60.912628 70.67241 
L 71.288661 69.89389 
L 81.664694 69.541349 
L 92.040727 68.339994 
L 102.41676 67.364984 
L 112.792793 65.740238 
" clip-path="url(#p75d7ad25b7)" style="fill: none; stroke: #bad6eb; stroke-width: 1.5; stroke-linecap: round"/>
   </g>
   <g id="line2d_7">
    <path d="M 50.536595 68.969247 
L 60.912628 68.075506 
L 71.288661 67.810735 
L 81.664694 66.502301 
L 92.040727 65.5679 
L 102.41676 62.706204 
L 112.792793 61.487342 
" clip-path="url(#p75d7ad25b7)" style="fill: none; stroke: #abd0e6; stroke-width: 1.5; stroke-linecap: round"/>
   </g>
   <g id="line2d_8">
    <path d="M 50.536595 67.038284 
L 60.912628 66.039624 
L 71.288661 64.617232 
L 81.664694 64.069609 
L 92.040727 62.644623 
L 102.41676 59.880671 
L 112.792793 57.949023 
" clip-path="url(#p75d7ad25b7)" style="fill: none; stroke: #9cc9e1; stroke-width: 1.5; stroke-linecap: round"/>
   </g>
   <g id="line2d_9">
    <path d="M 50.536595 64.662443 
L 60.912628 64.065785 
L 71.288661 62.425958 
L 81.664694 60.729759 
L 92.040727 59.931462 
L 102.41676 55.607516 
L 112.792793 54.556848 
" clip-path="url(#p75d7ad25b7)" style="fill: none; stroke: #89bedc; stroke-width: 1.5; stroke-linecap: round"/>
   </g>
   <g id="line2d_10">
    <path d="M 50.536595 62.820458 
L 60.912628 62.046591 
L 71.288661 59.312881 
L 81.664694 59.528106 
L 92.040727 55.201629 
L 102.41676 53.824212 
L 112.792793 49.755544 
" clip-path="url(#p75d7ad25b7)" style="fill: none; stroke: #75b4d8; stroke-width: 1.5; stroke-linecap: round"/>
   </g>
   <g id="line2d_11">
    <path d="M 50.536595 61.632923 
L 60.912628 59.716983 
L 71.288661 57.3673 
L 81.664694 54.889991 
L 92.040727 54.412349 
L 102.41676 51.213616 
L 112.792793 50.230695 
" clip-path="url(#p75d7ad25b7)" style="fill: none; stroke: #63a8d3; stroke-width: 1.5; stroke-linecap: round"/>
   </g>
   <g id="line2d_12">
    <path d="M 50.536595 59.391651 
L 60.912628 58.172909 
L 71.288661 55.323227 
L 81.664694 53.359949 
L 92.040727 49.907512 
L 102.41676 48.922623 
L 112.792793 48.675147 
" clip-path="url(#p75d7ad25b7)" style="fill: none; stroke: #539ecd; stroke-width: 1.5; stroke-linecap: round"/>
   </g>
   <g id="line2d_13">
    <path d="M 50.536595 54.629441 
L 60.912628 53.859898 
L 71.288661 51.236015 
L 81.664694 49.089261 
L 92.040727 48.023901 
L 102.41676 45.591803 
L 112.792793 44.482668 
" clip-path="url(#p75d7ad25b7)" style="fill: none; stroke: #4493c7; stroke-width: 1.5; stroke-linecap: round"/>
   </g>
   <g id="line2d_14">
    <path d="M 50.536595 52.655308 
L 60.912628 50.606524 
L 71.288661 49.231031 
L 81.664694 46.561916 
L 92.040727 45.127044 
L 102.41676 43.225426 
L 112.792793 44.48847 
" clip-path="url(#p75d7ad25b7)" style="fill: none; stroke: #3787c0; stroke-width: 1.5; stroke-linecap: round"/>
   </g>
   <g id="line2d_15">
    <path d="M 50.536595 47.787935 
L 60.912628 45.606695 
L 71.288661 43.68484 
L 81.664694 42.383837 
L 92.040727 41.487538 
L 102.41676 38.450407 
L 112.792793 41.214101 
" clip-path="url(#p75d7ad25b7)" style="fill: none; stroke: #2b7bba; stroke-width: 1.5; stroke-linecap: round"/>
   </g>
   <g id="line2d_16">
    <path d="M 50.536595 46.729853 
L 60.912628 44.509386 
L 71.288661 44.657027 
L 81.664694 40.323076 
L 92.040727 43.026516 
L 102.41676 41.469388 
L 112.792793 38.622274 
" clip-path="url(#p75d7ad25b7)" style="fill: none; stroke: #1e6db2; stroke-width: 1.5; stroke-linecap: round"/>
   </g>
   <g id="line2d_17">
    <path d="M 50.536595 43.493932 
L 60.912628 41.585131 
L 71.288661 42.222763 
L 81.664694 41.609164 
L 92.040727 39.431761 
L 102.41676 37.831093 
L 112.792793 37.386406 
" clip-path="url(#p75d7ad25b7)" style="fill: none; stroke: #1561a9; stroke-width: 1.5; stroke-linecap: round"/>
   </g>
   <g id="line2d_18">
    <path d="M 50.536595 40.682926 
L 60.912628 40.308472 
L 71.288661 39.604481 
L 81.664694 38.794767 
L 92.040727 38.592701 
L 102.41676 38.944199 
L 112.792793 37.279251 
" clip-path="url(#p75d7ad25b7)" style="fill: none; stroke: #0b559f; stroke-width: 1.5; stroke-linecap: round"/>
   </g>
   <g id="line2d_19">
    <path d="M 50.536595 32.486646 
L 60.912628 31.283998 
L 71.288661 32.490548 
L 81.664694 32.800258 
L 92.040727 31.831318 
L 102.41676 31.539059 
L 112.792793 31.273641 
" clip-path="url(#p75d7ad25b7)" style="fill: none; stroke: #084990; stroke-width: 1.5; stroke-linecap: round"/>
   </g>
   <g id="line2d_20">
    <path d="M 50.536595 27.488368 
L 60.912628 27.989097 
L 71.288661 27.676984 
L 81.664694 29.836137 
L 92.040727 28.386055 
L 102.41676 32.898711 
L 112.792793 34.585539 
" clip-path="url(#p75d7ad25b7)" style="fill: none; stroke: #083c7d; stroke-width: 1.5; stroke-linecap: round"/>
   </g>
   <g id="line2d_21">
    <path d="M 50.536595 24.278909 
L 60.912628 26.423437 
L 71.288661 27.850624 
L 81.664694 29.799907 
L 92.040727 29.276099 
L 102.41676 30.509442 
L 112.792793 32.156847 
" clip-path="url(#p75d7ad25b7)" style="fill: none; stroke: #08306b; stroke-width: 1.5; stroke-linecap: round"/>
   </g>
   <g id="patch_3">
    <path d="M 47.423785 76.168 
L 47.423785 21.808 
" style="fill: none; stroke: #262626; stroke-width: 0.8; stroke-linejoin: miter; stroke-linecap: square"/>
   </g>
   <g id="patch_4">
    <path d="M 47.423785 76.168 
L 115.905603 76.168 
" style="fill: none; stroke: #262626; stroke-width: 0.8; stroke-linejoin: miter; stroke-linecap: square"/>
   </g>
   <g id="text_7">
    <!-- short range -->
    <g style="fill: #262626" transform="translate(54.51089 15.808)scale(0.11 -0.11)">
     <defs>
      <path id="CMR17-68" d="M 2656 1933 
C 2656 2259 2592 2790 1837 2790 
C 1312 2790 1056 2368 979 2157 
L 973 2157 
L 973 4396 
L 211 4326 
L 211 4160 
C 589 4160 646 4122 646 3817 
L 646 426 
C 646 184 621 153 211 153 
L 211 -13 
C 365 0 646 0 813 0 
C 979 0 1267 0 1421 -13 
L 1421 153 
C 1011 153 986 178 986 428 
L 986 1658 
C 986 2247 1344 2688 1792 2688 
C 2266 2688 2317 2266 2317 1958 
L 2317 428 
C 2317 184 2291 153 1882 153 
L 1882 -13 
C 2035 0 2317 0 2483 0 
C 2650 0 2938 0 3091 -13 
L 3091 153 
C 2682 153 2656 178 2656 428 
L 2656 1933 
z
" transform="scale(0.015625)"/>
      <path id="CMR17-6f" d="M 2758 1356 
C 2758 2176 2163 2816 1466 2816 
C 768 2816 173 2176 173 1356 
C 173 551 768 -64 1466 -64 
C 2163 -64 2758 551 2758 1356 
z
M 1466 51 
C 1165 51 909 230 762 480 
C 602 767 582 1126 582 1408 
C 582 1677 595 2010 762 2298 
C 890 2509 1139 2714 1466 2714 
C 1754 2714 1997 2554 2150 2330 
C 2349 2029 2349 1607 2349 1408 
C 2349 1158 2336 775 2163 467 
C 1984 173 1709 51 1466 51 
z
" transform="scale(0.015625)"/>
      <path id="CMR17-72" d="M 960 1497 
C 960 2112 1222 2688 1702 2688 
C 1747 2688 1792 2682 1837 2662 
C 1837 2662 1696 2617 1696 2452 
C 1696 2298 1818 2234 1914 2234 
C 1990 2234 2131 2279 2131 2458 
C 2131 2663 1926 2790 1709 2790 
C 1222 2790 1011 2317 947 2093 
L 941 2093 
L 941 2790 
L 198 2720 
L 198 2554 
C 576 2554 634 2515 634 2208 
L 634 428 
C 634 184 608 153 198 153 
L 198 -13 
C 352 0 646 0 813 0 
C 998 0 1325 0 1498 -13 
L 1498 153 
C 1037 153 960 153 960 440 
L 960 1497 
z
" transform="scale(0.015625)"/>
      <path id="CMR17-61" d="M 2304 1653 
C 2304 2072 2304 2294 2035 2543 
C 1798 2752 1523 2816 1306 2816 
C 800 2816 435 2407 435 1971 
C 435 1728 627 1728 666 1728 
C 749 1728 896 1778 896 1954 
C 896 2112 774 2181 666 2181 
C 640 2181 608 2174 589 2168 
C 723 2592 1069 2714 1293 2714 
C 1613 2714 1965 2429 1965 1885 
L 1965 1600 
C 1587 1600 1133 1549 774 1357 
C 371 1133 256 813 256 570 
C 256 77 832 -64 1171 -64 
C 1523 -64 1850 139 1990 511 
C 2003 233 2182 -18 2464 -18 
C 2598 -18 2938 70 2938 567 
L 2938 920 
L 2822 920 
L 2822 562 
C 2822 178 2650 128 2566 128 
C 2304 128 2304 458 2304 738 
L 2304 1653 
z
M 1965 870 
C 1965 317 1568 38 1216 38 
C 896 38 646 275 646 570 
C 646 761 730 1100 1101 1305 
C 1408 1478 1760 1504 1965 1504 
L 1965 870 
z
" transform="scale(0.015625)"/>
      <path id="CMR17-6e" d="M 2656 1933 
C 2656 2259 2592 2790 1837 2790 
C 1331 2790 1069 2400 973 2144 
L 966 2144 
L 966 2790 
L 211 2720 
L 211 2554 
C 589 2554 646 2515 646 2208 
L 646 428 
C 646 184 621 153 211 153 
L 211 -13 
C 365 0 646 0 813 0 
C 979 0 1267 0 1421 -13 
L 1421 153 
C 1011 153 986 178 986 428 
L 986 1658 
C 986 2247 1344 2688 1792 2688 
C 2266 2688 2317 2266 2317 1958 
L 2317 428 
C 2317 184 2291 153 1882 153 
L 1882 -13 
C 2035 0 2317 0 2483 0 
C 2650 0 2938 0 3091 -13 
L 3091 153 
C 2682 153 2656 178 2656 428 
L 2656 1933 
z
" transform="scale(0.015625)"/>
      <path id="CMR17-67" d="M 710 1164 
C 832 1068 1043 960 1299 960 
C 1805 960 2240 1357 2240 1888 
C 2240 2054 2189 2310 1997 2509 
C 2176 2692 2438 2752 2586 2752 
C 2611 2752 2650 2752 2682 2734 
C 2656 2728 2598 2703 2598 2605 
C 2598 2527 2656 2471 2739 2471 
C 2835 2471 2886 2533 2886 2614 
C 2886 2731 2790 2854 2586 2854 
C 2330 2854 2106 2738 1926 2580 
C 1734 2753 1504 2816 1299 2816 
C 794 2816 358 2419 358 1888 
C 358 1522 570 1292 634 1228 
C 442 1004 442 743 442 711 
C 442 545 506 302 723 168 
C 390 85 128 -169 128 -486 
C 128 -943 736 -1280 1466 -1280 
C 2170 -1280 2803 -956 2803 -479 
C 2803 384 1856 384 1363 384 
C 1216 384 954 384 922 391 
C 723 423 589 602 589 826 
C 589 883 589 1024 710 1164 
z
M 1299 1068 
C 736 1068 736 1760 736 1889 
C 736 2016 736 2708 1299 2708 
C 1862 2708 1862 2016 1862 1889 
C 1862 1760 1862 1068 1299 1068 
z
M 1466 -1171 
C 826 -1171 384 -835 384 -486 
C 384 -289 493 -105 634 -4 
C 794 104 858 104 1293 104 
C 1818 104 2547 104 2547 -486 
C 2547 -835 2106 -1171 1466 -1171 
z
" transform="scale(0.015625)"/>
      <path id="CMR17-65" d="M 2438 1472 
C 2464 1498 2464 1511 2464 1576 
C 2464 2238 2118 2816 1389 2816 
C 710 2816 173 2169 173 1383 
C 173 551 781 -64 1459 -64 
C 2176 -64 2458 607 2458 740 
C 2458 784 2419 784 2406 784 
C 2362 784 2355 771 2330 696 
C 2189 265 1837 51 1504 51 
C 1229 51 954 203 781 480 
C 582 803 582 1176 582 1472 
L 2438 1472 
z
M 589 1568 
C 634 2505 1126 2714 1382 2714 
C 1818 2714 2112 2297 2118 1568 
L 589 1568 
z
" transform="scale(0.015625)"/>
     </defs>
     <use xlink:href="#CMR17-73" transform="scale(0.996264)"/>
     <use xlink:href="#CMR17-68" transform="translate(35.801338 0)scale(0.996264)"/>
     <use xlink:href="#CMR17-6f" transform="translate(86.696707 0)scale(0.996264)"/>
     <use xlink:href="#CMR17-72" transform="translate(132.387185 0)scale(0.996264)"/>
     <use xlink:href="#CMR17-74" transform="translate(167.667952 0)scale(0.996264)"/>
     <use xlink:href="#CMR17-72" transform="translate(233.024686 0)scale(0.996264)"/>
     <use xlink:href="#CMR17-61" transform="translate(268.305454 0)scale(0.996264)"/>
     <use xlink:href="#CMR17-6e" transform="translate(313.995931 0)scale(0.996264)"/>
     <use xlink:href="#CMR17-67" transform="translate(364.891301 0)scale(0.996264)"/>
     <use xlink:href="#CMR17-65" transform="translate(410.581778 0)scale(0.996264)"/>
    </g>
   </g>
  </g>
  <g id="axes_2">
   <g id="patch_5">
    <path d="M 129.601967 76.168 
L 198.083785 76.168 
L 198.083785 21.808 
L 129.601967 21.808 
z
" style="fill: #ffffff"/>
   </g>
   <g id="matplotlib.axis_3">
    <g id="xtick_3">
     <g id="line2d_22">
      <g>
       <use xlink:href="#m47d5da22d0" x="153.466843" y="76.168" style="fill: #262626; stroke: #262626; stroke-width: 0.8"/>
      </g>
     </g>
     <g id="text_8">
      <!-- $\mathdefault{800}$ -->
      <g style="fill: #262626" transform="translate(145.247642 90.778347)scale(0.11 -0.11)">
       <defs>
        <path id="CMR17-38" d="M 1741 2264 
C 2144 2467 2554 2773 2554 3263 
C 2554 3841 1990 4179 1472 4179 
C 890 4179 378 3759 378 3180 
C 378 3021 416 2747 666 2505 
C 730 2442 998 2251 1171 2130 
C 883 1983 211 1634 211 934 
C 211 279 838 -128 1459 -128 
C 2144 -128 2720 362 2720 1010 
C 2720 1590 2330 1857 2074 2029 
L 1741 2264 
z
M 902 2822 
C 851 2854 595 3051 595 3351 
C 595 3739 998 4032 1459 4032 
C 1965 4032 2336 3676 2336 3262 
C 2336 2669 1670 2331 1638 2331 
C 1632 2331 1626 2331 1574 2370 
L 902 2822 
z
M 2080 1519 
C 2176 1449 2483 1240 2483 851 
C 2483 381 2010 25 1472 25 
C 890 25 448 438 448 940 
C 448 1443 838 1862 1280 2060 
L 2080 1519 
z
" transform="scale(0.015625)"/>
       </defs>
       <use xlink:href="#CMR17-38" transform="scale(0.996264)"/>
       <use xlink:href="#CMR17-30" transform="translate(45.690477 0)scale(0.996264)"/>
       <use xlink:href="#CMR17-30" transform="translate(91.380954 0)scale(0.996264)"/>
      </g>
     </g>
    </g>
    <g id="xtick_4">
     <g id="line2d_23">
      <g>
       <use xlink:href="#m47d5da22d0" x="194.970975" y="76.168" style="fill: #262626; stroke: #262626; stroke-width: 0.8"/>
      </g>
     </g>
     <g id="text_9">
      <!-- $\mathdefault{1000}$ -->
      <g style="fill: #262626" transform="translate(184.01204 90.778347)scale(0.11 -0.11)">
       <defs>
        <path id="CMR17-31" d="M 1702 4058 
C 1702 4192 1696 4192 1606 4192 
C 1357 3916 979 3827 621 3827 
C 602 3827 570 3827 563 3808 
C 557 3795 557 3782 557 3648 
C 755 3648 1088 3686 1344 3839 
L 1344 461 
C 1344 236 1331 160 781 160 
L 589 160 
L 589 0 
C 896 0 1216 0 1523 0 
C 1830 0 2150 0 2458 0 
L 2458 160 
L 2266 160 
C 1715 160 1702 230 1702 458 
L 1702 4058 
z
" transform="scale(0.015625)"/>
       </defs>
       <use xlink:href="#CMR17-31" transform="scale(0.996264)"/>
       <use xlink:href="#CMR17-30" transform="translate(45.690477 0)scale(0.996264)"/>
       <use xlink:href="#CMR17-30" transform="translate(91.380954 0)scale(0.996264)"/>
       <use xlink:href="#CMR17-30" transform="translate(137.071431 0)scale(0.996264)"/>
      </g>
     </g>
    </g>
    <g id="text_10">
     <!-- stimulus [ms] -->
     <g style="fill: #262626" transform="translate(132.244649 105.128419)scale(0.11 -0.11)">
      <use xlink:href="#CMR17-73" transform="scale(0.996264)"/>
      <use xlink:href="#CMR17-74" transform="translate(35.801338 0)scale(0.996264)"/>
      <use xlink:href="#CMR17-69" transform="translate(71.082105 0)scale(0.996264)"/>
      <use xlink:href="#CMR17-6d" transform="translate(95.953164 0)scale(0.996264)"/>
      <use xlink:href="#CMR17-75" transform="translate(170.2703 0)scale(0.996264)"/>
      <use xlink:href="#CMR17-6c" transform="translate(221.16567 0)scale(0.996264)"/>
      <use xlink:href="#CMR17-75" transform="translate(246.036728 0)scale(0.996264)"/>
      <use xlink:href="#CMR17-73" transform="translate(296.932098 0)scale(0.996264)"/>
      <use xlink:href="#CMR17-5b" transform="translate(362.809402 0)scale(0.996264)"/>
      <use xlink:href="#CMR17-6d" transform="translate(387.68046 0)scale(0.996264)"/>
      <use xlink:href="#CMR17-73" transform="translate(464.60005 0)scale(0.996264)"/>
      <use xlink:href="#CMR17-5d" transform="translate(500.401388 0)scale(0.996264)"/>
     </g>
    </g>
   </g>
   <g id="matplotlib.axis_4">
    <g id="ytick_3">
     <g id="line2d_24">
      <g>
       <use xlink:href="#m7ad0e5aa3c" x="129.601967" y="76.112672" style="fill: #262626; stroke: #262626; stroke-width: 0.8"/>
      </g>
     </g>
    </g>
    <g id="ytick_4">
     <g id="line2d_25">
      <g>
       <use xlink:href="#m7ad0e5aa3c" x="129.601967" y="42.721213" style="fill: #262626; stroke: #262626; stroke-width: 0.8"/>
      </g>
     </g>
    </g>
   </g>
   <g id="line2d_26">
    <path d="M 132.714777 73.632356 
L 143.09081 73.465696 
L 153.466843 73.283001 
L 163.842876 72.785325 
L 174.218909 65.977743 
L 184.594942 72.283009 
L 194.970975 71.343683 
" clip-path="url(#p43e4e677b9)" style="fill: none; stroke: #c9ddf0; stroke-width: 1.5; stroke-linecap: round"/>
   </g>
   <g id="line2d_27">
    <path d="M 132.714777 66.863125 
L 143.09081 65.776717 
L 153.466843 64.314086 
L 163.842876 63.389049 
L 174.218909 61.145681 
L 184.594942 61.879539 
L 194.970975 60.974567 
" clip-path="url(#p43e4e677b9)" style="fill: none; stroke: #bad6eb; stroke-width: 1.5; stroke-linecap: round"/>
   </g>
   <g id="line2d_28">
    <path d="M 132.714777 63.917183 
L 143.09081 62.078984 
L 153.466843 59.63639 
L 163.842876 59.257405 
L 174.218909 57.876325 
L 184.594942 56.558783 
L 194.970975 54.580529 
" clip-path="url(#p43e4e677b9)" style="fill: none; stroke: #abd0e6; stroke-width: 1.5; stroke-linecap: round"/>
   </g>
   <g id="line2d_29">
    <path d="M 132.714777 60.128802 
L 143.09081 58.313066 
L 153.466843 56.690079 
L 163.842876 57.187773 
L 174.218909 56.004323 
L 184.594942 54.295281 
L 194.970975 53.709709 
" clip-path="url(#p43e4e677b9)" style="fill: none; stroke: #9cc9e1; stroke-width: 1.5; stroke-linecap: round"/>
   </g>
   <g id="line2d_30">
    <path d="M 132.714777 56.767485 
L 143.09081 56.359671 
L 153.466843 53.306993 
L 163.842876 53.588721 
L 174.218909 52.473024 
L 184.594942 51.738761 
L 194.970975 51.032173 
" clip-path="url(#p43e4e677b9)" style="fill: none; stroke: #89bedc; stroke-width: 1.5; stroke-linecap: round"/>
   </g>
   <g id="line2d_31">
    <path d="M 132.714777 54.764082 
L 143.09081 53.231673 
L 153.466843 50.968389 
L 163.842876 50.713781 
L 174.218909 47.818733 
L 184.594942 49.470555 
L 194.970975 50.33715 
" clip-path="url(#p43e4e677b9)" style="fill: none; stroke: #75b4d8; stroke-width: 1.5; stroke-linecap: round"/>
   </g>
   <g id="line2d_32">
    <path d="M 132.714777 53.172639 
L 143.09081 51.314304 
L 153.466843 49.746786 
L 163.842876 51.493191 
L 174.218909 47.833768 
L 184.594942 45.673306 
L 194.970975 51.034611 
" clip-path="url(#p43e4e677b9)" style="fill: none; stroke: #63a8d3; stroke-width: 1.5; stroke-linecap: round"/>
   </g>
   <g id="line2d_33">
    <path d="M 132.714777 52.167954 
L 143.09081 49.409601 
L 153.466843 50.054853 
L 163.842876 49.120346 
L 174.218909 50.234256 
L 184.594942 50.384312 
L 194.970975 49.228537 
" clip-path="url(#p43e4e677b9)" style="fill: none; stroke: #539ecd; stroke-width: 1.5; stroke-linecap: round"/>
   </g>
   <g id="line2d_34">
    <path d="M 132.714777 48.249981 
L 143.09081 48.577891 
L 153.466843 47.407789 
L 163.842876 47.149917 
L 174.218909 46.353459 
L 184.594942 46.93863 
L 194.970975 47.483606 
" clip-path="url(#p43e4e677b9)" style="fill: none; stroke: #4493c7; stroke-width: 1.5; stroke-linecap: round"/>
   </g>
   <g id="line2d_35">
    <path d="M 132.714777 45.339271 
L 143.09081 45.20052 
L 153.466843 46.174438 
L 163.842876 46.25707 
L 174.218909 44.098209 
L 184.594942 44.064407 
L 194.970975 47.289255 
" clip-path="url(#p43e4e677b9)" style="fill: none; stroke: #3787c0; stroke-width: 1.5; stroke-linecap: round"/>
   </g>
   <g id="line2d_36">
    <path d="M 132.714777 45.647006 
L 143.09081 45.279873 
L 153.466843 43.135684 
L 163.842876 40.696153 
L 174.218909 41.994179 
L 184.594942 45.276568 
L 194.970975 44.481952 
" clip-path="url(#p43e4e677b9)" style="fill: none; stroke: #2b7bba; stroke-width: 1.5; stroke-linecap: round"/>
   </g>
   <g id="line2d_37">
    <path d="M 132.714777 42.117805 
L 143.09081 40.546747 
L 153.466843 41.738428 
L 163.842876 41.218801 
L 174.218909 42.145151 
L 184.594942 44.89598 
L 194.970975 44.70506 
" clip-path="url(#p43e4e677b9)" style="fill: none; stroke: #1e6db2; stroke-width: 1.5; stroke-linecap: round"/>
   </g>
   <g id="line2d_38">
    <path d="M 132.714777 42.889401 
L 143.09081 41.58689 
L 153.466843 41.509803 
L 163.842876 44.88936 
L 174.218909 43.211096 
L 184.594942 42.822851 
L 194.970975 43.613761 
" clip-path="url(#p43e4e677b9)" style="fill: none; stroke: #1561a9; stroke-width: 1.5; stroke-linecap: round"/>
   </g>
   <g id="line2d_39">
    <path d="M 132.714777 42.362415 
L 143.09081 39.702409 
L 153.466843 41.61318 
L 163.842876 42.4571 
L 174.218909 39.860436 
L 184.594942 41.33609 
L 194.970975 46.138574 
" clip-path="url(#p43e4e677b9)" style="fill: none; stroke: #0b559f; stroke-width: 1.5; stroke-linecap: round"/>
   </g>
   <g id="line2d_40">
    <path d="M 132.714777 37.144336 
L 143.09081 37.233453 
L 153.466843 36.178819 
L 163.842876 38.177109 
L 174.218909 38.893267 
L 184.594942 40.441048 
L 194.970975 41.350692 
" clip-path="url(#p43e4e677b9)" style="fill: none; stroke: #084990; stroke-width: 1.5; stroke-linecap: round"/>
   </g>
   <g id="line2d_41">
    <path d="M 132.714777 34.526745 
L 143.09081 34.019227 
L 153.466843 38.485463 
L 163.842876 37.169652 
L 174.218909 37.000384 
L 184.594942 38.368232 
L 194.970975 39.480122 
" clip-path="url(#p43e4e677b9)" style="fill: none; stroke: #083c7d; stroke-width: 1.5; stroke-linecap: round"/>
   </g>
   <g id="line2d_42">
    <path d="M 132.714777 35.213118 
L 143.09081 33.280304 
L 153.466843 36.345122 
L 163.842876 36.640637 
L 174.218909 39.577991 
L 184.594942 39.353571 
L 194.970975 41.835079 
" clip-path="url(#p43e4e677b9)" style="fill: none; stroke: #08306b; stroke-width: 1.5; stroke-linecap: round"/>
   </g>
   <g id="patch_6">
    <path d="M 129.601967 76.168 
L 129.601967 21.808 
" style="fill: none; stroke: #262626; stroke-width: 0.8; stroke-linejoin: miter; stroke-linecap: square"/>
   </g>
   <g id="patch_7">
    <path d="M 129.601967 76.168 
L 198.083785 76.168 
" style="fill: none; stroke: #262626; stroke-width: 0.8; stroke-linejoin: miter; stroke-linecap: square"/>
   </g>
   <g id="text_11">
    <!-- long range -->
    <g style="fill: #262626" transform="translate(138.86564 15.808)scale(0.11 -0.11)">
     <use xlink:href="#CMR17-6c" transform="scale(0.996264)"/>
     <use xlink:href="#CMR17-6f" transform="translate(24.871058 0)scale(0.996264)"/>
     <use xlink:href="#CMR17-6e" transform="translate(70.561536 0)scale(0.996264)"/>
     <use xlink:href="#CMR17-67" transform="translate(121.456905 0)scale(0.996264)"/>
     <use xlink:href="#CMR17-72" transform="translate(197.223349 0)scale(0.996264)"/>
     <use xlink:href="#CMR17-61" transform="translate(232.504117 0)scale(0.996264)"/>
     <use xlink:href="#CMR17-6e" transform="translate(278.194594 0)scale(0.996264)"/>
     <use xlink:href="#CMR17-67" transform="translate(329.089964 0)scale(0.996264)"/>
     <use xlink:href="#CMR17-65" transform="translate(374.780441 0)scale(0.996264)"/>
    </g>
   </g>
   <g id="legend_1">
    <g id="text_12">
     <!-- $\sigma$ -->
     <g style="fill: #262626" transform="translate(218.337743 16.170347)scale(0.11 -0.11)">
      <defs>
       <path id="CMMI12-1b" d="M 3251 2408 
C 3334 2408 3546 2408 3546 2612 
C 3546 2752 3424 2752 3309 2752 
L 1894 2752 
C 934 2752 243 1686 243 932 
C 243 390 595 -64 1171 -64 
C 1926 -64 2752 747 2752 1705 
C 2752 1954 2694 2196 2541 2408 
L 3251 2408 
z
M 1178 64 
C 851 64 614 313 614 754 
C 614 1137 845 2408 1786 2408 
C 2061 2408 2368 2274 2368 1781 
C 2368 1558 2266 1021 2042 652 
C 1811 275 1466 64 1178 64 
z
" transform="scale(0.015625)"/>
      </defs>
      <use xlink:href="#CMMI12-1b" transform="scale(0.996264)"/>
     </g>
    </g>
    <g id="line2d_43">
     <path d="M 211.416058 21.191241 
L 214.816058 21.191241 
L 218.216058 21.191241 
" style="fill: none; stroke: #c9ddf0; stroke-width: 1.5; stroke-linecap: round"/>
    </g>
    <g id="text_13">
     <!-- 0 -->
     <g style="fill: #262626" transform="translate(220.936058 22.381241)scale(0.034 -0.034)">
      <use xlink:href="#CMR17-30" transform="scale(0.996264)"/>
     </g>
    </g>
    <g id="line2d_44">
     <path d="M 211.416058 25.929874 
L 214.816058 25.929874 
L 218.216058 25.929874 
" style="fill: none; stroke: #bad6eb; stroke-width: 1.5; stroke-linecap: round"/>
    </g>
    <g id="text_14">
     <!-- 0.01 -->
     <g style="fill: #262626" transform="translate(220.936058 27.119874)scale(0.034 -0.034)">
      <defs>
       <path id="CMR17-2e" d="M 1062 261 
C 1062 420 934 522 800 522 
C 672 522 538 420 538 261 
C 538 102 666 0 800 0 
C 928 0 1062 102 1062 261 
z
" transform="scale(0.015625)"/>
      </defs>
      <use xlink:href="#CMR17-30" transform="scale(0.996264)"/>
      <use xlink:href="#CMR17-2e" transform="translate(45.690477 0)scale(0.996264)"/>
      <use xlink:href="#CMR17-30" transform="translate(70.561536 0)scale(0.996264)"/>
      <use xlink:href="#CMR17-31" transform="translate(116.252013 0)scale(0.996264)"/>
     </g>
    </g>
    <g id="line2d_45">
     <path d="M 211.416058 30.668506 
L 214.816058 30.668506 
L 218.216058 30.668506 
" style="fill: none; stroke: #abd0e6; stroke-width: 1.5; stroke-linecap: round"/>
    </g>
    <g id="text_15">
     <!-- 0.015 -->
     <g style="fill: #262626" transform="translate(220.936058 31.858506)scale(0.034 -0.034)">
      <use xlink:href="#CMR17-30" transform="scale(0.996264)"/>
      <use xlink:href="#CMR17-2e" transform="translate(45.690477 0)scale(0.996264)"/>
      <use xlink:href="#CMR17-30" transform="translate(70.561536 0)scale(0.996264)"/>
      <use xlink:href="#CMR17-31" transform="translate(116.252013 0)scale(0.996264)"/>
      <use xlink:href="#CMR17-35" transform="translate(161.94249 0)scale(0.996264)"/>
     </g>
    </g>
    <g id="line2d_46">
     <path d="M 211.416058 35.407139 
L 214.816058 35.407139 
L 218.216058 35.407139 
" style="fill: none; stroke: #9cc9e1; stroke-width: 1.5; stroke-linecap: round"/>
    </g>
    <g id="text_16">
     <!-- 0.02 -->
     <g style="fill: #262626" transform="translate(220.936058 36.597139)scale(0.034 -0.034)">
      <use xlink:href="#CMR17-30" transform="scale(0.996264)"/>
      <use xlink:href="#CMR17-2e" transform="translate(45.690477 0)scale(0.996264)"/>
      <use xlink:href="#CMR17-30" transform="translate(70.561536 0)scale(0.996264)"/>
      <use xlink:href="#CMR17-32" transform="translate(116.252013 0)scale(0.996264)"/>
     </g>
    </g>
    <g id="line2d_47">
     <path d="M 211.416058 40.145771 
L 214.816058 40.145771 
L 218.216058 40.145771 
" style="fill: none; stroke: #89bedc; stroke-width: 1.5; stroke-linecap: round"/>
    </g>
    <g id="text_17">
     <!-- 0.025 -->
     <g style="fill: #262626" transform="translate(220.936058 41.335771)scale(0.034 -0.034)">
      <use xlink:href="#CMR17-30" transform="scale(0.996264)"/>
      <use xlink:href="#CMR17-2e" transform="translate(45.690477 0)scale(0.996264)"/>
      <use xlink:href="#CMR17-30" transform="translate(70.561536 0)scale(0.996264)"/>
      <use xlink:href="#CMR17-32" transform="translate(116.252013 0)scale(0.996264)"/>
      <use xlink:href="#CMR17-35" transform="translate(161.94249 0)scale(0.996264)"/>
     </g>
    </g>
    <g id="line2d_48">
     <path d="M 211.416058 44.884403 
L 214.816058 44.884403 
L 218.216058 44.884403 
" style="fill: none; stroke: #75b4d8; stroke-width: 1.5; stroke-linecap: round"/>
    </g>
    <g id="text_18">
     <!-- 0.03 -->
     <g style="fill: #262626" transform="translate(220.936058 46.074403)scale(0.034 -0.034)">
      <defs>
       <path id="CMR17-33" d="M 1414 2157 
C 1984 2157 2234 1662 2234 1090 
C 2234 320 1824 25 1453 25 
C 1114 25 563 194 390 693 
C 422 680 454 680 486 680 
C 640 680 755 782 755 948 
C 755 1133 614 1216 486 1216 
C 378 1216 211 1165 211 926 
C 211 335 787 -128 1466 -128 
C 2176 -128 2720 430 2720 1085 
C 2720 1707 2208 2157 1600 2227 
C 2086 2328 2554 2756 2554 3329 
C 2554 3820 2048 4179 1472 4179 
C 890 4179 378 3829 378 3329 
C 378 3110 544 3072 627 3072 
C 762 3072 877 3155 877 3321 
C 877 3486 762 3569 627 3569 
C 602 3569 570 3569 544 3557 
C 730 3959 1235 4032 1459 4032 
C 1683 4032 2106 3925 2106 3320 
C 2106 3143 2080 2828 1862 2550 
C 1670 2304 1453 2304 1242 2284 
C 1210 2284 1062 2269 1037 2269 
C 992 2263 966 2257 966 2208 
C 966 2163 973 2157 1101 2157 
L 1414 2157 
z
" transform="scale(0.015625)"/>
      </defs>
      <use xlink:href="#CMR17-30" transform="scale(0.996264)"/>
      <use xlink:href="#CMR17-2e" transform="translate(45.690477 0)scale(0.996264)"/>
      <use xlink:href="#CMR17-30" transform="translate(70.561536 0)scale(0.996264)"/>
      <use xlink:href="#CMR17-33" transform="translate(116.252013 0)scale(0.996264)"/>
     </g>
    </g>
    <g id="line2d_49">
     <path d="M 211.416058 49.623036 
L 214.816058 49.623036 
L 218.216058 49.623036 
" style="fill: none; stroke: #63a8d3; stroke-width: 1.5; stroke-linecap: round"/>
    </g>
    <g id="text_19">
     <!-- 0.035 -->
     <g style="fill: #262626" transform="translate(220.936058 50.813036)scale(0.034 -0.034)">
      <use xlink:href="#CMR17-30" transform="scale(0.996264)"/>
      <use xlink:href="#CMR17-2e" transform="translate(45.690477 0)scale(0.996264)"/>
      <use xlink:href="#CMR17-30" transform="translate(70.561536 0)scale(0.996264)"/>
      <use xlink:href="#CMR17-33" transform="translate(116.252013 0)scale(0.996264)"/>
      <use xlink:href="#CMR17-35" transform="translate(161.94249 0)scale(0.996264)"/>
     </g>
    </g>
    <g id="line2d_50">
     <path d="M 211.416058 54.361668 
L 214.816058 54.361668 
L 218.216058 54.361668 
" style="fill: none; stroke: #539ecd; stroke-width: 1.5; stroke-linecap: round"/>
    </g>
    <g id="text_20">
     <!-- 0.04 -->
     <g style="fill: #262626" transform="translate(220.936058 55.551668)scale(0.034 -0.034)">
      <use xlink:href="#CMR17-30" transform="scale(0.996264)"/>
      <use xlink:href="#CMR17-2e" transform="translate(45.690477 0)scale(0.996264)"/>
      <use xlink:href="#CMR17-30" transform="translate(70.561536 0)scale(0.996264)"/>
      <use xlink:href="#CMR17-34" transform="translate(116.252013 0)scale(0.996264)"/>
     </g>
    </g>
    <g id="line2d_51">
     <path d="M 211.416058 59.100301 
L 214.816058 59.100301 
L 218.216058 59.100301 
" style="fill: none; stroke: #4493c7; stroke-width: 1.5; stroke-linecap: round"/>
    </g>
    <g id="text_21">
     <!-- 0.05 -->
     <g style="fill: #262626" transform="translate(220.936058 60.290301)scale(0.034 -0.034)">
      <use xlink:href="#CMR17-30" transform="scale(0.996264)"/>
      <use xlink:href="#CMR17-2e" transform="translate(45.690477 0)scale(0.996264)"/>
      <use xlink:href="#CMR17-30" transform="translate(70.561536 0)scale(0.996264)"/>
      <use xlink:href="#CMR17-35" transform="translate(116.252013 0)scale(0.996264)"/>
     </g>
    </g>
    <g id="line2d_52">
     <path d="M 211.416058 63.838933 
L 214.816058 63.838933 
L 218.216058 63.838933 
" style="fill: none; stroke: #3787c0; stroke-width: 1.5; stroke-linecap: round"/>
    </g>
    <g id="text_22">
     <!-- 0.06 -->
     <g style="fill: #262626" transform="translate(220.936058 65.028933)scale(0.034 -0.034)">
      <use xlink:href="#CMR17-30" transform="scale(0.996264)"/>
      <use xlink:href="#CMR17-2e" transform="translate(45.690477 0)scale(0.996264)"/>
      <use xlink:href="#CMR17-30" transform="translate(70.561536 0)scale(0.996264)"/>
      <use xlink:href="#CMR17-36" transform="translate(116.252013 0)scale(0.996264)"/>
     </g>
    </g>
    <g id="line2d_53">
     <path d="M 211.416058 68.577566 
L 214.816058 68.577566 
L 218.216058 68.577566 
" style="fill: none; stroke: #2b7bba; stroke-width: 1.5; stroke-linecap: round"/>
    </g>
    <g id="text_23">
     <!-- 0.07 -->
     <g style="fill: #262626" transform="translate(220.936058 69.767566)scale(0.034 -0.034)">
      <defs>
       <path id="CMR17-37" d="M 2886 3941 
L 2886 4081 
L 1382 4081 
C 634 4081 621 4165 595 4288 
L 480 4288 
L 294 3094 
L 410 3094 
C 429 3215 474 3540 550 3661 
C 589 3712 1062 3712 1171 3712 
L 2579 3712 
L 1869 2661 
C 1395 1954 1069 999 1069 165 
C 1069 89 1069 -128 1299 -128 
C 1530 -128 1530 89 1530 171 
L 1530 465 
C 1530 1508 1709 2196 2003 2636 
L 2886 3941 
z
" transform="scale(0.015625)"/>
      </defs>
      <use xlink:href="#CMR17-30" transform="scale(0.996264)"/>
      <use xlink:href="#CMR17-2e" transform="translate(45.690477 0)scale(0.996264)"/>
      <use xlink:href="#CMR17-30" transform="translate(70.561536 0)scale(0.996264)"/>
      <use xlink:href="#CMR17-37" transform="translate(116.252013 0)scale(0.996264)"/>
     </g>
    </g>
    <g id="line2d_54">
     <path d="M 211.416058 73.316198 
L 214.816058 73.316198 
L 218.216058 73.316198 
" style="fill: none; stroke: #1e6db2; stroke-width: 1.5; stroke-linecap: round"/>
    </g>
    <g id="text_24">
     <!-- 0.08 -->
     <g style="fill: #262626" transform="translate(220.936058 74.506198)scale(0.034 -0.034)">
      <use xlink:href="#CMR17-30" transform="scale(0.996264)"/>
      <use xlink:href="#CMR17-2e" transform="translate(45.690477 0)scale(0.996264)"/>
      <use xlink:href="#CMR17-30" transform="translate(70.561536 0)scale(0.996264)"/>
      <use xlink:href="#CMR17-38" transform="translate(116.252013 0)scale(0.996264)"/>
     </g>
    </g>
    <g id="line2d_55">
     <path d="M 211.416058 78.05483 
L 214.816058 78.05483 
L 218.216058 78.05483 
" style="fill: none; stroke: #1561a9; stroke-width: 1.5; stroke-linecap: round"/>
    </g>
    <g id="text_25">
     <!-- 0.09 -->
     <g style="fill: #262626" transform="translate(220.936058 79.24483)scale(0.034 -0.034)">
      <defs>
       <path id="CMR17-39" d="M 2253 1864 
C 2253 464 1670 31 1190 31 
C 1043 31 685 31 538 294 
C 704 268 826 357 826 518 
C 826 692 685 749 595 749 
C 538 749 365 723 365 506 
C 365 71 742 -128 1203 -128 
C 1939 -128 2688 674 2688 2073 
C 2688 3817 1971 4179 1485 4179 
C 851 4179 243 3628 243 2778 
C 243 1991 762 1408 1414 1408 
C 1952 1408 2189 1903 2253 2112 
L 2253 1864 
z
M 1427 1510 
C 1254 1510 1011 1542 813 1922 
C 678 2169 678 2461 678 2771 
C 678 3146 678 3405 858 3684 
C 947 3817 1114 4032 1485 4032 
C 2240 4032 2240 2885 2240 2632 
C 2240 2182 2035 1510 1427 1510 
z
" transform="scale(0.015625)"/>
      </defs>
      <use xlink:href="#CMR17-30" transform="scale(0.996264)"/>
      <use xlink:href="#CMR17-2e" transform="translate(45.690477 0)scale(0.996264)"/>
      <use xlink:href="#CMR17-30" transform="translate(70.561536 0)scale(0.996264)"/>
      <use xlink:href="#CMR17-39" transform="translate(116.252013 0)scale(0.996264)"/>
     </g>
    </g>
    <g id="line2d_56">
     <path d="M 211.416058 82.793463 
L 214.816058 82.793463 
L 218.216058 82.793463 
" style="fill: none; stroke: #0b559f; stroke-width: 1.5; stroke-linecap: round"/>
    </g>
    <g id="text_26">
     <!-- 0.1 -->
     <g style="fill: #262626" transform="translate(220.936058 83.983463)scale(0.034 -0.034)">
      <use xlink:href="#CMR17-30" transform="scale(0.996264)"/>
      <use xlink:href="#CMR17-2e" transform="translate(45.690477 0)scale(0.996264)"/>
      <use xlink:href="#CMR17-31" transform="translate(70.561536 0)scale(0.996264)"/>
     </g>
    </g>
    <g id="line2d_57">
     <path d="M 211.416058 87.532095 
L 214.816058 87.532095 
L 218.216058 87.532095 
" style="fill: none; stroke: #084990; stroke-width: 1.5; stroke-linecap: round"/>
    </g>
    <g id="text_27">
     <!-- 0.15 -->
     <g style="fill: #262626" transform="translate(220.936058 88.722095)scale(0.034 -0.034)">
      <use xlink:href="#CMR17-30" transform="scale(0.996264)"/>
      <use xlink:href="#CMR17-2e" transform="translate(45.690477 0)scale(0.996264)"/>
      <use xlink:href="#CMR17-31" transform="translate(70.561536 0)scale(0.996264)"/>
      <use xlink:href="#CMR17-35" transform="translate(116.252013 0)scale(0.996264)"/>
     </g>
    </g>
    <g id="line2d_58">
     <path d="M 211.416058 92.270728 
L 214.816058 92.270728 
L 218.216058 92.270728 
" style="fill: none; stroke: #083c7d; stroke-width: 1.5; stroke-linecap: round"/>
    </g>
    <g id="text_28">
     <!-- 0.2 -->
     <g style="fill: #262626" transform="translate(220.936058 93.460728)scale(0.034 -0.034)">
      <use xlink:href="#CMR17-30" transform="scale(0.996264)"/>
      <use xlink:href="#CMR17-2e" transform="translate(45.690477 0)scale(0.996264)"/>
      <use xlink:href="#CMR17-32" transform="translate(70.561536 0)scale(0.996264)"/>
     </g>
    </g>
    <g id="line2d_59">
     <path d="M 211.416058 97.00936 
L 214.816058 97.00936 
L 218.216058 97.00936 
" style="fill: none; stroke: #08306b; stroke-width: 1.5; stroke-linecap: round"/>
    </g>
    <g id="text_29">
     <!-- 0.25 -->
     <g style="fill: #262626" transform="translate(220.936058 98.19936)scale(0.034 -0.034)">
      <use xlink:href="#CMR17-30" transform="scale(0.996264)"/>
      <use xlink:href="#CMR17-2e" transform="translate(45.690477 0)scale(0.996264)"/>
      <use xlink:href="#CMR17-32" transform="translate(70.561536 0)scale(0.996264)"/>
      <use xlink:href="#CMR17-35" transform="translate(116.252013 0)scale(0.996264)"/>
     </g>
    </g>
   </g>
  </g>
 </g>
 <defs>
  <clipPath id="p75d7ad25b7">
   <rect x="47.423785" y="21.808" width="68.481818" height="54.36"/>
  </clipPath>
  <clipPath id="p43e4e677b9">
   <rect x="129.601967" y="21.808" width="68.481818" height="54.36"/>
  </clipPath>
 </defs>
</svg>
