<?xml version="1.0" encoding="utf-8" standalone="no"?>
<!DOCTYPE svg PUBLIC "-//W3C//DTD SVG 1.1//EN"
  "http://www.w3.org/Graphics/SVG/1.1/DTD/svg11.dtd">
<svg xmlns:xlink="http://www.w3.org/1999/xlink" width="314.555937pt" height="112.57875pt" viewBox="0 0 314.555937 112.57875" xmlns="http://www.w3.org/2000/svg" version="1.1">
 <metadata>
  <rdf:RDF xmlns:dc="http://purl.org/dc/elements/1.1/" xmlns:cc="http://creativecommons.org/ns#" xmlns:rdf="http://www.w3.org/1999/02/22-rdf-syntax-ns#">
   <cc:Work>
    <dc:type rdf:resource="http://purl.org/dc/dcmitype/StillImage"/>
    <dc:date>2022-07-31T22:30:32.479729</dc:date>
    <dc:format>image/svg+xml</dc:format>
    <dc:creator>
     <cc:Agent>
      <dc:title>Matplotlib v3.5.1, https://matplotlib.org/</dc:title>
     </cc:Agent>
    </dc:creator>
   </cc:Work>
  </rdf:RDF>
 </metadata>
 <defs>
  <style type="text/css">*{stroke-linejoin: round; stroke-linecap: butt}</style>
 </defs>
 <g id="figure_1">
  <g id="patch_1">
   <path d="M 0 112.57875 
L 314.555937 112.57875 
L 314.555937 0 
L 0 0 
L 0 112.57875 
z
" style="fill: none"/>
  </g>
  <g id="axes_1">
   <g id="patch_2">
    <path d="M 67.084688 74.84 
L 149.895243 74.84 
L 149.895243 7.2 
L 67.084688 7.2 
z
" style="fill: #ffffff"/>
   </g>
   <g id="matplotlib.axis_1">
    <g id="xtick_1">
     <g id="line2d_1">
      <defs>
       <path id="m5035bcebec" d="M 0 0 
L 0 3.5 
" style="stroke: #000000; stroke-width: 0.8"/>
      </defs>
      <g>
       <use xlink:href="#m5035bcebec" x="70.848804" y="74.84" style="stroke: #000000; stroke-width: 0.8"/>
      </g>
     </g>
     <g id="text_1">
      <!-- 0 -->
      <g transform="translate(68.098804 89.474688)scale(0.11 -0.11)">
       <defs>
        <path id="CMUSerif-Roman-30" d="M 250 2048 
Q 250 2989 486 3501 
Q 819 4262 1600 4262 
Q 1766 4262 1939 4217 
Q 2112 4173 2333 4000 
Q 2554 3827 2688 3546 
Q 2944 3002 2944 2048 
Q 2944 1114 2707 602 
Q 2362 -141 1594 -141 
Q 1306 -141 1014 6 
Q 723 154 538 506 
Q 250 1037 250 2048 
z
M 781 2125 
Q 781 1158 851 774 
Q 928 358 1142 179 
Q 1357 0 1594 0 
Q 1850 0 2064 192 
Q 2278 384 2342 800 
Q 2413 1210 2413 2125 
Q 2413 3014 2349 3373 
Q 2266 3789 2042 3955 
Q 1818 4122 1594 4122 
Q 1510 4122 1420 4096 
Q 1331 4070 1203 4000 
Q 1075 3930 976 3750 
Q 877 3571 832 3302 
Q 781 2957 781 2125 
z
" transform="scale(0.015625)"/>
       </defs>
       <use xlink:href="#CMUSerif-Roman-30"/>
      </g>
     </g>
    </g>
    <g id="xtick_2">
     <g id="line2d_2">
      <g>
       <use xlink:href="#m5035bcebec" x="146.168787" y="74.84" style="stroke: #000000; stroke-width: 0.8"/>
      </g>
     </g>
     <g id="text_2">
      <!-- 2000 -->
      <g transform="translate(135.168787 89.474688)scale(0.11 -0.11)">
       <defs>
        <path id="CMUSerif-Roman-32" d="M 320 0 
Q 320 115 329 150 
Q 339 186 390 237 
L 1619 1606 
Q 2291 2362 2291 3021 
Q 2291 3450 2067 3757 
Q 1843 4064 1434 4064 
Q 1152 4064 915 3891 
Q 678 3718 570 3411 
Q 589 3418 653 3418 
Q 813 3418 902 3318 
Q 992 3219 992 3085 
Q 992 2912 880 2829 
Q 768 2746 659 2746 
Q 614 2746 556 2755 
Q 499 2765 409 2854 
Q 320 2944 320 3104 
Q 320 3552 659 3907 
Q 998 4262 1517 4262 
Q 2106 4262 2490 3913 
Q 2874 3565 2874 3021 
Q 2874 2829 2816 2656 
Q 2758 2483 2681 2348 
Q 2605 2214 2400 2000 
Q 2195 1786 2028 1632 
Q 1862 1478 1491 1152 
L 813 493 
L 1965 493 
Q 2528 493 2573 544 
Q 2637 634 2714 1114 
L 2874 1114 
L 2694 0 
L 320 0 
z
" transform="scale(0.015625)"/>
       </defs>
       <use xlink:href="#CMUSerif-Roman-32"/>
       <use xlink:href="#CMUSerif-Roman-30" x="49.999985"/>
       <use xlink:href="#CMUSerif-Roman-30" x="99.999969"/>
       <use xlink:href="#CMUSerif-Roman-30" x="149.999954"/>
      </g>
     </g>
    </g>
    <g id="text_3">
     <!-- t -->
     <g transform="translate(106.356137 103.244063)scale(0.11 -0.11)">
      <defs>
       <path id="CMUSerif-Roman-74" d="M 122 2560 
L 122 2701 
Q 416 2714 611 2922 
Q 806 3130 873 3386 
Q 941 3642 947 3936 
L 1107 3936 
L 1107 2758 
L 2022 2758 
L 2022 2560 
L 1107 2560 
L 1107 781 
Q 1107 90 1536 90 
Q 1722 90 1843 278 
Q 1965 467 1965 806 
L 1965 1158 
L 2125 1158 
L 2125 794 
Q 2125 448 1965 189 
Q 1805 -70 1491 -70 
Q 1376 -70 1261 -41 
Q 1146 -13 998 64 
Q 851 141 758 329 
Q 666 518 666 794 
L 666 2560 
L 122 2560 
z
" transform="scale(0.015625)"/>
      </defs>
      <use xlink:href="#CMUSerif-Roman-74"/>
     </g>
    </g>
   </g>
   <g id="matplotlib.axis_2">
    <g id="ytick_1">
     <g id="line2d_3">
      <defs>
       <path id="mf6440a1a18" d="M 0 0 
L -3.5 0 
" style="stroke: #000000; stroke-width: 0.8"/>
      </defs>
      <g>
       <use xlink:href="#mf6440a1a18" x="67.084688" y="58.636895" style="stroke: #000000; stroke-width: 0.8"/>
      </g>
     </g>
     <g id="text_4">
      <!-- −0.0005 -->
      <g transform="translate(20.969375 62.454239)scale(0.11 -0.11)">
       <defs>
        <path id="CMUSerif-Roman-2212" d="M 365 1594 
Q 365 1670 493 1670 
L 4416 1670 
Q 4422 1670 4451 1670 
Q 4480 1670 4489 1670 
Q 4499 1670 4521 1670 
Q 4544 1670 4553 1664 
Q 4563 1658 4576 1651 
Q 4589 1645 4595 1632 
Q 4602 1619 4602 1600 
Q 4602 1523 4435 1523 
L 4422 1523 
Q 4403 1523 4368 1526 
Q 4333 1530 4314 1530 
L 710 1530 
Q 685 1530 637 1526 
Q 589 1523 563 1523 
L 531 1523 
Q 365 1523 365 1594 
z
" transform="scale(0.015625)"/>
        <path id="CMUSerif-Roman-2e" d="M 640 102 
Q 544 205 544 339 
Q 544 474 640 573 
Q 736 672 883 672 
Q 1024 672 1120 579 
Q 1216 486 1216 339 
Q 1216 192 1113 96 
Q 1011 0 883 0 
Q 736 0 640 102 
z
" transform="scale(0.015625)"/>
        <path id="CMUSerif-Roman-35" d="M 320 1030 
Q 320 1222 422 1296 
Q 525 1370 634 1370 
Q 781 1370 867 1277 
Q 954 1184 954 1056 
Q 954 928 867 835 
Q 781 742 634 742 
Q 563 742 525 755 
Q 608 461 867 249 
Q 1126 38 1466 38 
Q 1894 38 2150 454 
Q 2304 723 2304 1331 
Q 2304 1869 2189 2138 
Q 2010 2547 1645 2547 
Q 1126 2547 819 2099 
Q 781 2042 736 2042 
Q 672 2042 659 2077 
Q 646 2112 646 2208 
L 646 4102 
Q 646 4256 710 4256 
Q 736 4256 787 4237 
Q 1190 4058 1638 4058 
Q 2099 4058 2509 4243 
Q 2541 4262 2560 4262 
Q 2624 4262 2624 4192 
Q 2624 4166 2573 4092 
Q 2522 4019 2413 3923 
Q 2304 3827 2163 3737 
Q 2022 3648 1817 3587 
Q 1613 3526 1389 3526 
Q 1120 3526 845 3610 
L 845 2362 
Q 1178 2688 1658 2688 
Q 2170 2688 2522 2275 
Q 2874 1862 2874 1286 
Q 2874 685 2458 272 
Q 2042 -141 1478 -141 
Q 966 -141 643 224 
Q 320 589 320 1030 
z
" transform="scale(0.015625)"/>
       </defs>
       <use xlink:href="#CMUSerif-Roman-2212"/>
       <use xlink:href="#CMUSerif-Roman-30" x="77.799988"/>
       <use xlink:href="#CMUSerif-Roman-2e" x="127.799973"/>
       <use xlink:href="#CMUSerif-Roman-30" x="155.59996"/>
       <use xlink:href="#CMUSerif-Roman-30" x="205.599945"/>
       <use xlink:href="#CMUSerif-Roman-30" x="255.59993"/>
       <use xlink:href="#CMUSerif-Roman-35" x="305.599915"/>
      </g>
     </g>
    </g>
    <g id="ytick_2">
     <g id="line2d_4">
      <g>
       <use xlink:href="#mf6440a1a18" x="67.084688" y="40.903003" style="stroke: #000000; stroke-width: 0.8"/>
      </g>
     </g>
     <g id="text_5">
      <!-- 0.0000 -->
      <g transform="translate(29.527031 44.720347)scale(0.11 -0.11)">
       <use xlink:href="#CMUSerif-Roman-30"/>
       <use xlink:href="#CMUSerif-Roman-2e" x="49.999985"/>
       <use xlink:href="#CMUSerif-Roman-30" x="77.799973"/>
       <use xlink:href="#CMUSerif-Roman-30" x="127.799957"/>
       <use xlink:href="#CMUSerif-Roman-30" x="177.799942"/>
       <use xlink:href="#CMUSerif-Roman-30" x="227.799927"/>
      </g>
     </g>
    </g>
    <g id="ytick_3">
     <g id="line2d_5">
      <g>
       <use xlink:href="#mf6440a1a18" x="67.084688" y="23.169111" style="stroke: #000000; stroke-width: 0.8"/>
      </g>
     </g>
     <g id="text_6">
      <!-- 0.0005 -->
      <g transform="translate(29.527031 26.986455)scale(0.11 -0.11)">
       <use xlink:href="#CMUSerif-Roman-30"/>
       <use xlink:href="#CMUSerif-Roman-2e" x="49.999985"/>
       <use xlink:href="#CMUSerif-Roman-30" x="77.799973"/>
       <use xlink:href="#CMUSerif-Roman-30" x="127.799957"/>
       <use xlink:href="#CMUSerif-Roman-30" x="177.799942"/>
       <use xlink:href="#CMUSerif-Roman-35" x="227.799927"/>
      </g>
     </g>
    </g>
    <g id="text_7">
     <!-- slope -->
     <g transform="translate(14.834687 52.955859)rotate(-90)scale(0.11 -0.11)">
      <defs>
       <path id="CMUSerif-Roman-73" d="M 211 83 
L 211 928 
Q 211 998 214 1024 
Q 218 1050 237 1069 
Q 256 1088 294 1088 
Q 339 1088 355 1069 
Q 371 1050 384 979 
Q 480 538 688 304 
Q 896 70 1274 70 
Q 1632 70 1814 230 
Q 1997 390 1997 653 
Q 1997 1120 1331 1242 
Q 947 1318 787 1369 
Q 627 1421 486 1536 
Q 211 1760 211 2080 
Q 211 2400 454 2633 
Q 698 2867 1235 2867 
Q 1594 2867 1837 2688 
Q 1907 2746 1946 2790 
Q 2029 2867 2074 2867 
Q 2125 2867 2134 2835 
Q 2144 2803 2144 2714 
L 2144 2067 
Q 2144 1997 2141 1971 
Q 2138 1946 2118 1930 
Q 2099 1914 2061 1914 
Q 1990 1914 1984 1971 
Q 1933 2746 1235 2746 
Q 858 2746 688 2602 
Q 518 2458 518 2259 
Q 518 2150 569 2067 
Q 621 1984 688 1936 
Q 755 1888 880 1843 
Q 1005 1798 1081 1782 
Q 1158 1766 1306 1734 
Q 1818 1638 2035 1427 
Q 2304 1158 2304 819 
Q 2304 442 2048 186 
Q 1792 -70 1274 -70 
Q 858 -70 570 205 
Q 531 166 502 134 
Q 474 102 464 89 
Q 454 77 451 70 
Q 448 64 442 58 
Q 314 -70 282 -70 
Q 230 -70 220 -38 
Q 211 -6 211 83 
z
" transform="scale(0.015625)"/>
       <path id="CMUSerif-Roman-6c" d="M 211 0 
L 211 198 
Q 550 198 630 240 
Q 710 282 710 486 
L 710 3814 
Q 710 4051 627 4112 
Q 544 4173 211 4173 
L 211 4371 
L 1133 4442 
L 1133 486 
Q 1133 282 1213 240 
Q 1293 198 1632 198 
L 1632 0 
Q 1555 0 1392 6 
Q 1229 13 1110 16 
Q 992 19 922 19 
Q 845 19 211 0 
z
" transform="scale(0.015625)"/>
       <path id="CMUSerif-Roman-6f" d="M 601 346 
Q 179 762 179 1370 
Q 179 1978 592 2422 
Q 1005 2867 1600 2867 
Q 2182 2867 2598 2425 
Q 3014 1984 3014 1370 
Q 3014 768 2595 349 
Q 2176 -70 1594 -70 
Q 1024 -70 601 346 
z
M 710 1421 
Q 710 800 870 518 
Q 1120 90 1600 90 
Q 1837 90 2035 218 
Q 2234 346 2342 563 
Q 2483 845 2483 1421 
Q 2483 2035 2317 2310 
Q 2067 2726 1594 2726 
Q 1389 2726 1187 2617 
Q 986 2509 864 2298 
Q 710 2016 710 1421 
z
" transform="scale(0.015625)"/>
       <path id="CMUSerif-Roman-70" d="M 179 -1043 
Q 518 -1043 598 -1001 
Q 678 -960 678 -755 
L 678 2240 
Q 678 2451 598 2505 
Q 518 2560 179 2560 
L 179 2758 
L 1101 2829 
L 1101 2406 
Q 1485 2829 1997 2829 
Q 2541 2829 2937 2406 
Q 3334 1984 3334 1382 
Q 3334 774 2912 352 
Q 2490 -70 1907 -70 
Q 1587 -70 1372 93 
Q 1158 256 1120 378 
L 1120 320 
L 1120 -755 
Q 1120 -960 1200 -1001 
Q 1280 -1043 1619 -1043 
L 1619 -1242 
Q 947 -1222 896 -1222 
Q 832 -1222 179 -1242 
L 179 -1043 
z
M 1120 730 
Q 1120 634 1133 598 
Q 1146 563 1210 461 
Q 1466 70 1882 70 
Q 2246 70 2524 444 
Q 2803 819 2803 1382 
Q 2803 1920 2550 2294 
Q 2298 2669 1946 2669 
Q 1696 2669 1478 2534 
Q 1261 2400 1120 2157 
L 1120 730 
z
" transform="scale(0.015625)"/>
       <path id="CMUSerif-Roman-65" d="M 179 1408 
Q 179 2010 566 2438 
Q 954 2867 1510 2867 
Q 2074 2867 2365 2502 
Q 2656 2138 2656 1613 
Q 2656 1517 2630 1497 
Q 2605 1478 2496 1478 
L 710 1478 
Q 710 826 902 518 
Q 1171 90 1626 90 
Q 1690 90 1763 102 
Q 1837 115 1990 169 
Q 2144 224 2278 371 
Q 2413 518 2490 749 
Q 2509 838 2573 838 
Q 2656 838 2656 762 
Q 2656 704 2595 579 
Q 2534 454 2419 304 
Q 2304 154 2080 42 
Q 1856 -70 1587 -70 
Q 1024 -70 601 355 
Q 179 781 179 1408 
z
M 717 1613 
L 2234 1613 
Q 2234 1747 2211 1897 
Q 2189 2048 2121 2256 
Q 2054 2464 1897 2595 
Q 1741 2726 1510 2726 
Q 1408 2726 1296 2681 
Q 1184 2637 1049 2531 
Q 915 2426 822 2186 
Q 730 1946 717 1613 
z
" transform="scale(0.015625)"/>
      </defs>
      <use xlink:href="#CMUSerif-Roman-73"/>
      <use xlink:href="#CMUSerif-Roman-6c" x="39.399994"/>
      <use xlink:href="#CMUSerif-Roman-6f" x="67.099991"/>
      <use xlink:href="#CMUSerif-Roman-70" x="117.099976"/>
      <use xlink:href="#CMUSerif-Roman-65" x="172.59996"/>
     </g>
    </g>
   </g>
   <g id="line2d_6">
    <path d="M 70.848804 40.679096 
L 70.999444 39.137176 
L 71.978603 29.166645 
L 72.844783 22.447768 
L 73.673303 17.665325 
L 74.426503 14.524172 
L 75.142043 12.450016 
L 75.782263 11.236287 
L 76.347162 10.597032 
L 76.874402 10.315258 
L 77.363982 10.289439 
L 77.891222 10.480551 
L 78.531442 10.970173 
L 79.322302 11.888858 
L 80.339121 13.446254 
L 81.807861 16.154994 
L 87.38154 26.830788 
L 89.189219 29.62203 
L 90.883919 31.836693 
L 92.540959 33.643961 
L 94.197998 35.131818 
L 95.930358 36.390658 
L 97.738038 37.432167 
L 99.696357 38.305028 
L 101.880637 39.03236 
L 104.403856 39.630134 
L 107.378995 40.09941 
L 111.144995 40.457079 
L 116.266753 40.704465 
L 124.363651 40.848364 
L 143.118327 40.900305 
L 146.131127 40.901337 
L 146.131127 40.901337 
" clip-path="url(#p70ed13adbf)" style="fill: none; stroke: #00d4ff; stroke-width: 1.5; stroke-linecap: square"/>
   </g>
   <g id="line2d_7">
    <path d="M 70.848804 40.722508 
L 70.999444 39.465058 
L 72.279883 28.374464 
L 73.221383 22.036867 
L 74.087563 17.653177 
L 74.878423 14.763573 
L 75.593963 12.957681 
L 76.234182 11.909344 
L 76.799082 11.371546 
L 77.326322 11.154927 
L 77.853562 11.177964 
L 78.418462 11.431536 
L 79.096342 11.997582 
L 79.924862 12.998117 
L 81.017001 14.691634 
L 82.674041 17.728195 
L 87.19324 26.187737 
L 89.07624 29.142975 
L 90.808599 31.455244 
L 92.503299 33.349022 
L 94.197998 34.909845 
L 95.930358 36.203816 
L 97.738038 37.278686 
L 99.696357 38.182837 
L 101.842977 38.927802 
L 104.290876 39.539333 
L 107.190695 40.028992 
L 110.806055 40.404395 
L 115.664193 40.670341 
L 123.083212 40.831117 
L 138.599128 40.896945 
L 146.131127 40.90118 
L 146.131127 40.90118 
" clip-path="url(#p70ed13adbf)" style="fill: none; stroke: #0cf4eb; stroke-width: 1.5; stroke-linecap: square"/>
   </g>
   <g id="line2d_8">
    <path d="M 70.848804 40.791565 
L 70.961784 40.222374 
L 72.279883 31.372814 
L 73.485003 24.06908 
L 74.426503 19.668713 
L 75.255023 16.805661 
L 76.008222 14.968382 
L 76.686102 13.874089 
L 77.288662 13.294392 
L 77.853562 13.045906 
L 78.418462 13.04654 
L 79.021022 13.283621 
L 79.736562 13.830216 
L 80.602741 14.797511 
L 81.732541 16.420831 
L 83.427241 19.293141 
L 87.90878 27.039991 
L 89.829439 29.833171 
L 91.599459 32.021894 
L 93.331819 33.8136 
L 95.064178 35.288292 
L 96.834198 36.508336 
L 98.717197 37.537396 
L 100.750837 38.394557 
L 103.010436 39.103817 
L 105.608976 39.682479 
L 108.734755 40.142558 
L 112.689054 40.488058 
L 118.149753 40.724789 
L 126.999851 40.858236 
L 146.131127 40.900777 
L 146.131127 40.900777 
" clip-path="url(#p70ed13adbf)" style="fill: none; stroke: #29ffce; stroke-width: 1.5; stroke-linecap: square"/>
   </g>
   <g id="line2d_9">
    <path d="M 70.848804 40.881132 
L 70.999444 40.673025 
L 71.338384 39.75054 
L 71.865623 37.548104 
L 73.033083 31.39313 
L 74.388843 24.723058 
L 75.330343 21.140141 
L 76.158862 18.791476 
L 76.912062 17.279568 
L 77.589942 16.380604 
L 78.230162 15.889154 
L 78.832722 15.70573 
L 79.435282 15.757608 
L 80.113162 16.055824 
L 80.904021 16.667811 
L 81.883181 17.728985 
L 83.201281 19.516801 
L 85.49854 23.083013 
L 88.62432 27.839313 
L 90.620299 30.472452 
L 92.465639 32.54905 
L 94.273318 34.251268 
L 96.080998 35.650793 
L 97.963997 36.826287 
L 99.959977 37.807011 
L 102.144257 38.626495 
L 104.592156 39.300055 
L 107.416655 39.840392 
L 110.843715 40.262104 
L 115.287594 40.572865 
L 121.652132 40.776527 
L 132.87481 40.88001 
L 146.131127 40.899948 
L 146.131127 40.899948 
" clip-path="url(#p70ed13adbf)" style="fill: none; stroke: #43ffb4; stroke-width: 1.5; stroke-linecap: square"/>
   </g>
   <g id="line2d_10">
    <path d="M 70.848804 40.984644 
L 71.489024 42.06472 
L 71.714983 41.843659 
L 72.053923 41.09359 
L 72.581163 39.246744 
L 73.597983 34.637068 
L 75.179703 27.654918 
L 76.158862 24.287934 
L 77.025042 22.045206 
L 77.815902 20.579023 
L 78.531442 19.689103 
L 79.209322 19.18653 
L 79.849542 18.97879 
L 80.489761 18.99556 
L 81.205301 19.23977 
L 82.033821 19.765878 
L 83.088301 20.723776 
L 84.481721 22.32056 
L 86.96728 25.576927 
L 90.093059 29.565199 
L 92.202019 31.892701 
L 94.160338 33.726454 
L 96.080998 35.222218 
L 98.039317 36.465487 
L 100.072957 37.495094 
L 102.294897 38.366882 
L 104.742796 39.083805 
L 107.567295 39.671463 
L 110.919035 40.133254 
L 115.136954 40.480132 
L 120.936592 40.719068 
L 130.27627 40.855394 
L 146.131127 40.898245 
L 146.131127 40.898245 
" clip-path="url(#p70ed13adbf)" style="fill: none; stroke: #60ff97; stroke-width: 1.5; stroke-linecap: square"/>
   </g>
   <g id="line2d_11">
    <path d="M 70.848804 41.094764 
L 70.999444 42.315457 
L 71.413704 44.890845 
L 71.752643 45.846816 
L 72.016263 46.044327 
L 72.242223 45.913415 
L 72.543503 45.399401 
L 72.995423 44.098452 
L 73.748623 41.118904 
L 76.271842 30.635296 
L 77.251002 27.649094 
L 78.154842 25.574591 
L 78.983362 24.212517 
L 79.736562 23.376064 
L 80.452101 22.892676 
L 81.167641 22.671653 
L 81.920841 22.679715 
L 82.749361 22.924091 
L 83.728521 23.463581 
L 84.93364 24.398431 
L 86.62834 26.020559 
L 93.256499 32.643375 
L 95.440778 34.37004 
L 97.549738 35.756593 
L 99.696357 36.904973 
L 101.955957 37.863664 
L 104.441516 38.672441 
L 107.228355 39.338058 
L 110.467115 39.874075 
L 114.383754 40.288059 
L 119.467853 40.590336 
L 126.811551 40.786402 
L 140.067868 40.883582 
L 146.131127 40.894445 
L 146.131127 40.894445 
" clip-path="url(#p70ed13adbf)" style="fill: none; stroke: #7dff7a; stroke-width: 1.5; stroke-linecap: square"/>
   </g>
   <g id="line2d_12">
    <path d="M 70.848804 41.204386 
L 70.999444 43.164193 
L 71.489024 48.353124 
L 71.903283 50.679916 
L 72.242223 51.537334 
L 72.505843 51.703247 
L 72.731803 51.567463 
L 73.033083 51.068793 
L 73.485003 49.817713 
L 74.238203 46.938279 
L 77.138022 35.191969 
L 78.154842 32.216829 
L 79.096342 30.114259 
L 79.962522 28.688938 
L 80.791041 27.728609 
L 81.581901 27.129773 
L 82.372761 26.79508 
L 83.201281 26.681271 
L 84.105121 26.78208 
L 85.1596 27.130775 
L 86.4777 27.818454 
L 88.28538 29.038721 
L 96.344618 34.791925 
L 98.830177 36.136485 
L 101.315737 37.230516 
L 103.951936 38.146273 
L 106.814095 38.902313 
L 110.052855 39.522854 
L 113.856514 40.018057 
L 118.564013 40.396744 
L 124.853231 40.665078 
L 134.418869 40.828276 
L 146.131127 40.884976 
L 146.131127 40.884976 
" clip-path="url(#p70ed13adbf)" style="fill: none; stroke: #97ff60; stroke-width: 1.5; stroke-linecap: square"/>
   </g>
   <g id="line2d_13">
    <path d="M 70.848804 41.307593 
L 70.999444 43.966812 
L 71.526683 51.833581 
L 71.978603 55.726892 
L 72.392863 57.585654 
L 72.694143 58.156883 
L 72.920103 58.245179 
L 73.146063 58.094851 
L 73.447343 57.593652 
L 73.899263 56.360078 
L 74.652463 53.526612 
L 77.853562 40.681362 
L 78.908042 37.633726 
L 79.887202 35.431081 
L 80.828701 33.82563 
L 81.732541 32.69362 
L 82.636381 31.900615 
L 83.540221 31.389325 
L 84.519381 31.093853 
L 85.57386 31.013231 
L 86.77898 31.149175 
L 88.24772 31.546234 
L 90.243699 32.332706 
L 94.423958 34.290274 
L 98.340597 36.004159 
L 101.579357 37.178565 
L 104.818116 38.116879 
L 108.282835 38.88675 
L 112.161814 39.51502 
L 116.681013 40.013945 
L 122.254692 40.39489 
L 129.67371 40.664136 
L 140.934048 40.82783 
L 146.131127 40.858905 
L 146.131127 40.858905 
" clip-path="url(#p70ed13adbf)" style="fill: none; stroke: #b4ff43; stroke-width: 1.5; stroke-linecap: square"/>
   </g>
   <g id="line2d_14">
    <path d="M 70.848804 41.400266 
L 70.999444 44.69039 
L 71.564343 55.319488 
L 72.053923 60.838149 
L 72.505843 63.677621 
L 72.882443 64.803462 
L 73.146063 65.073067 
L 73.372023 65.030748 
L 73.635643 64.719941 
L 74.012243 63.892186 
L 74.614803 61.923129 
L 75.706943 57.40137 
L 77.665262 49.377245 
L 78.870382 45.404212 
L 79.962522 42.548454 
L 81.017001 40.405446 
L 82.033821 38.830127 
L 83.050641 37.655695 
L 84.067461 36.807446 
L 85.1596 36.185356 
L 86.32706 35.776915 
L 87.64516 35.553484 
L 89.226879 35.519837 
L 91.222859 35.710462 
L 94.160338 36.235592 
L 106.475156 38.648646 
L 111.747554 39.344763 
L 117.622513 39.889048 
L 124.589611 40.303184 
L 133.590349 40.602922 
L 146.131127 40.790028 
L 146.131127 40.790028 
" clip-path="url(#p70ed13adbf)" style="fill: none; stroke: #ceff29; stroke-width: 1.5; stroke-linecap: square"/>
   </g>
   <g id="line2d_15">
    <path d="M 70.848804 41.480221 
L 70.999444 45.316851 
L 71.564343 58.022905 
L 72.091583 65.40902 
L 72.581163 69.381448 
L 72.995423 71.120226 
L 73.334363 71.702482 
L 73.560323 71.757716 
L 73.786283 71.594635 
L 74.125223 71.017668 
L 74.614803 69.661075 
L 75.405663 66.690357 
L 78.719742 53.486245 
L 79.887202 50.050801 
L 80.979341 47.496438 
L 82.071481 45.495751 
L 83.163621 43.954215 
L 84.293421 42.747338 
L 85.46088 41.824243 
L 86.74132 41.099346 
L 88.1724 40.549911 
L 89.867099 40.146361 
L 91.976059 39.884032 
L 94.838218 39.766527 
L 99.508057 39.825855 
L 132.91247 40.636318 
L 146.131127 40.757976 
L 146.131127 40.757976 
" clip-path="url(#p70ed13adbf)" style="fill: none; stroke: #ebff0c; stroke-width: 1.5; stroke-linecap: square"/>
   </g>
   <g id="patch_3">
    <path d="M 67.084688 74.84 
L 67.084688 7.2 
" style="fill: none; stroke: #000000; stroke-width: 0.8; stroke-linejoin: miter; stroke-linecap: square"/>
   </g>
   <g id="patch_4">
    <path d="M 67.084688 74.84 
L 149.895243 74.84 
" style="fill: none; stroke: #000000; stroke-width: 0.8; stroke-linejoin: miter; stroke-linecap: square"/>
   </g>
  </g>
  <g id="axes_2">
   <g id="patch_5">
    <path d="M 224.545382 74.84 
L 307.355937 74.84 
L 307.355937 7.2 
L 224.545382 7.2 
z
" style="fill: #ffffff"/>
   </g>
   <g id="matplotlib.axis_3">
    <g id="xtick_3">
     <g id="line2d_16">
      <g>
       <use xlink:href="#m5035bcebec" x="228.309498" y="74.84" style="stroke: #000000; stroke-width: 0.8"/>
      </g>
     </g>
     <g id="text_8">
      <!-- 0.50 -->
      <g transform="translate(218.53067 89.474688)scale(0.11 -0.11)">
       <use xlink:href="#CMUSerif-Roman-30"/>
       <use xlink:href="#CMUSerif-Roman-2e" x="49.999985"/>
       <use xlink:href="#CMUSerif-Roman-35" x="77.799973"/>
       <use xlink:href="#CMUSerif-Roman-30" x="127.799957"/>
      </g>
     </g>
    </g>
    <g id="xtick_4">
     <g id="line2d_17">
      <g>
       <use xlink:href="#m5035bcebec" x="270.133011" y="74.84" style="stroke: #000000; stroke-width: 0.8"/>
      </g>
     </g>
     <g id="text_9">
      <!-- 0.75 -->
      <g transform="translate(260.354183 89.474688)scale(0.11 -0.11)">
       <defs>
        <path id="CMUSerif-Roman-37" d="M 358 3008 
L 570 4326 
L 730 4326 
Q 749 4250 781 4214 
Q 813 4179 995 4150 
Q 1178 4122 1549 4122 
L 3104 4122 
Q 3104 3974 3046 3898 
L 2182 2682 
Q 1907 2298 1786 1587 
Q 1715 1114 1715 538 
L 1715 211 
Q 1715 -141 1420 -141 
Q 1126 -141 1126 211 
Q 1126 1434 1914 2618 
Q 1997 2739 2307 3174 
Q 2618 3610 2630 3629 
L 1306 3629 
Q 723 3629 678 3590 
Q 614 3533 518 3008 
L 358 3008 
z
" transform="scale(0.015625)"/>
       </defs>
       <use xlink:href="#CMUSerif-Roman-30"/>
       <use xlink:href="#CMUSerif-Roman-2e" x="49.999985"/>
       <use xlink:href="#CMUSerif-Roman-37" x="77.799973"/>
       <use xlink:href="#CMUSerif-Roman-35" x="127.799957"/>
      </g>
     </g>
    </g>
    <g id="text_10">
     <!-- Input -->
     <g transform="translate(252.674176 103.244063)scale(0.11 -0.11)">
      <defs>
       <path id="CMUSerif-Roman-49" d="M 179 0 
L 179 198 
L 346 198 
Q 704 198 787 256 
Q 870 314 870 499 
L 870 3872 
Q 870 4058 787 4115 
Q 704 4173 346 4173 
L 179 4173 
L 179 4371 
Q 403 4352 1158 4352 
Q 1907 4352 2131 4371 
L 2131 4173 
L 1965 4173 
Q 1606 4173 1523 4115 
Q 1440 4058 1440 3872 
L 1440 499 
Q 1440 314 1523 256 
Q 1606 198 1965 198 
L 2131 198 
L 2131 0 
Q 1907 19 1152 19 
Q 403 19 179 0 
z
" transform="scale(0.015625)"/>
       <path id="CMUSerif-Roman-6e" d="M 205 0 
L 205 198 
Q 544 198 624 240 
Q 704 282 704 486 
L 704 2202 
Q 704 2438 621 2499 
Q 538 2560 205 2560 
L 205 2758 
L 1107 2829 
L 1107 2157 
Q 1408 2829 2054 2829 
Q 2534 2829 2726 2592 
Q 2867 2432 2896 2253 
Q 2925 2074 2925 1613 
L 2925 390 
Q 2931 256 3033 227 
Q 3136 198 3424 198 
L 3424 0 
Q 2771 19 2707 19 
Q 2656 19 1984 0 
L 1984 198 
Q 2323 198 2403 240 
Q 2483 282 2483 486 
L 2483 1978 
Q 2483 2304 2384 2496 
Q 2285 2688 2010 2688 
Q 1677 2688 1411 2409 
Q 1146 2131 1146 1664 
L 1146 486 
Q 1146 282 1226 240 
Q 1306 198 1645 198 
L 1645 0 
Q 992 19 928 19 
Q 877 19 205 0 
z
" transform="scale(0.015625)"/>
       <path id="CMUSerif-Roman-75" d="M 205 2560 
L 205 2758 
L 1146 2829 
L 1146 704 
Q 1146 550 1158 460 
Q 1171 371 1222 268 
Q 1274 166 1395 118 
Q 1517 70 1709 70 
Q 2054 70 2268 355 
Q 2483 640 2483 1062 
L 2483 2202 
Q 2483 2438 2400 2499 
Q 2317 2560 1984 2560 
L 1984 2758 
L 2925 2829 
L 2925 557 
Q 2925 320 3008 259 
Q 3091 198 3424 198 
L 3424 0 
L 2502 -70 
L 2502 506 
Q 2234 -70 1677 -70 
Q 1395 -70 1203 0 
Q 1011 70 915 160 
Q 819 250 768 422 
Q 717 595 710 700 
Q 704 806 704 1011 
L 704 1971 
Q 704 2406 640 2483 
Q 576 2560 205 2560 
z
" transform="scale(0.015625)"/>
      </defs>
      <use xlink:href="#CMUSerif-Roman-49"/>
      <use xlink:href="#CMUSerif-Roman-6e" x="36.099991"/>
      <use xlink:href="#CMUSerif-Roman-70" x="91.599976"/>
      <use xlink:href="#CMUSerif-Roman-75" x="147.09996"/>
      <use xlink:href="#CMUSerif-Roman-74" x="202.599945"/>
     </g>
    </g>
   </g>
   <g id="matplotlib.axis_4">
    <g id="ytick_4">
     <g id="line2d_18">
      <g>
       <use xlink:href="#mf6440a1a18" x="224.545382" y="73.234844" style="stroke: #000000; stroke-width: 0.8"/>
      </g>
     </g>
     <g id="text_11">
      <!-- 0.0000 -->
      <g transform="translate(186.987726 77.052188)scale(0.11 -0.11)">
       <use xlink:href="#CMUSerif-Roman-30"/>
       <use xlink:href="#CMUSerif-Roman-2e" x="49.999985"/>
       <use xlink:href="#CMUSerif-Roman-30" x="77.799973"/>
       <use xlink:href="#CMUSerif-Roman-30" x="127.799957"/>
       <use xlink:href="#CMUSerif-Roman-30" x="177.799942"/>
       <use xlink:href="#CMUSerif-Roman-30" x="227.799927"/>
      </g>
     </g>
    </g>
    <g id="ytick_5">
     <g id="line2d_19">
      <g>
       <use xlink:href="#mf6440a1a18" x="224.545382" y="36.7808" style="stroke: #000000; stroke-width: 0.8"/>
      </g>
     </g>
     <g id="text_12">
      <!-- 0.0005 -->
      <g transform="translate(186.987726 40.598144)scale(0.11 -0.11)">
       <use xlink:href="#CMUSerif-Roman-30"/>
       <use xlink:href="#CMUSerif-Roman-2e" x="49.999985"/>
       <use xlink:href="#CMUSerif-Roman-30" x="77.799973"/>
       <use xlink:href="#CMUSerif-Roman-30" x="127.799957"/>
       <use xlink:href="#CMUSerif-Roman-30" x="177.799942"/>
       <use xlink:href="#CMUSerif-Roman-35" x="227.799927"/>
      </g>
     </g>
    </g>
    <g id="text_13">
     <!-- max slope -->
     <g transform="translate(180.853039 65.017188)rotate(-90)scale(0.11 -0.11)">
      <defs>
       <path id="CMUSerif-Roman-6d" d="M 205 0 
L 205 198 
Q 544 198 624 240 
Q 704 282 704 486 
L 704 2202 
Q 704 2438 621 2499 
Q 538 2560 205 2560 
L 205 2758 
L 1107 2829 
L 1107 2157 
Q 1408 2829 2054 2829 
Q 2803 2829 2906 2202 
Q 3014 2445 3244 2637 
Q 3475 2829 3834 2829 
Q 4314 2829 4506 2592 
Q 4646 2432 4675 2253 
Q 4704 2074 4704 1613 
L 4704 390 
Q 4710 256 4812 227 
Q 4915 198 5203 198 
L 5203 0 
Q 4550 19 4486 19 
Q 4435 19 3763 0 
L 3763 198 
Q 4102 198 4182 240 
Q 4262 282 4262 486 
L 4262 1978 
Q 4262 2304 4163 2496 
Q 4064 2688 3789 2688 
Q 3456 2688 3190 2409 
Q 2925 2131 2925 1664 
L 2925 486 
Q 2925 282 3005 240 
Q 3085 198 3424 198 
L 3424 0 
Q 2771 19 2707 19 
Q 2656 19 1984 0 
L 1984 198 
Q 2323 198 2403 240 
Q 2483 282 2483 486 
L 2483 1978 
Q 2483 2304 2384 2496 
Q 2285 2688 2010 2688 
Q 1677 2688 1411 2409 
Q 1146 2131 1146 1664 
L 1146 486 
Q 1146 282 1226 240 
Q 1306 198 1645 198 
L 1645 0 
Q 992 19 928 19 
Q 877 19 205 0 
z
" transform="scale(0.015625)"/>
       <path id="CMUSerif-Roman-61" d="M 269 608 
Q 269 1152 909 1440 
Q 1293 1626 2086 1670 
L 2086 1907 
Q 2086 2304 1878 2515 
Q 1670 2726 1408 2726 
Q 941 2726 717 2432 
Q 909 2426 976 2330 
Q 1043 2234 1043 2138 
Q 1043 2010 963 1926 
Q 883 1843 749 1843 
Q 621 1843 537 1923 
Q 454 2003 454 2144 
Q 454 2458 736 2662 
Q 1018 2867 1421 2867 
Q 1946 2867 2298 2515 
Q 2406 2406 2460 2265 
Q 2515 2125 2521 2032 
Q 2528 1939 2528 1760 
L 2528 480 
Q 2528 442 2541 381 
Q 2554 320 2611 240 
Q 2669 160 2765 160 
Q 2995 160 2995 570 
L 2995 928 
L 3155 928 
L 3155 570 
Q 3155 230 2976 96 
Q 2797 -38 2630 -38 
Q 2419 -38 2284 118 
Q 2150 275 2131 486 
Q 2035 243 1814 86 
Q 1594 -70 1293 -70 
Q 1062 -70 844 -12 
Q 627 45 448 205 
Q 269 365 269 608 
z
M 762 614 
Q 762 378 931 224 
Q 1101 70 1338 70 
Q 1606 70 1846 278 
Q 2086 486 2086 896 
L 2086 1536 
Q 1376 1510 1069 1228 
Q 762 947 762 614 
z
" transform="scale(0.015625)"/>
       <path id="CMUSerif-Roman-78" d="M 77 0 
L 77 198 
Q 576 198 896 582 
Q 896 582 1498 1344 
L 864 2170 
Q 640 2458 541 2509 
Q 442 2560 109 2560 
L 109 2758 
Q 371 2739 717 2739 
Q 909 2739 1408 2758 
L 1408 2560 
Q 1184 2547 1184 2400 
Q 1184 2349 1242 2285 
L 1741 1638 
L 2138 2138 
Q 2234 2253 2234 2362 
Q 2234 2541 2048 2560 
L 2048 2758 
Q 2298 2739 2662 2739 
Q 2938 2739 3187 2758 
L 3187 2560 
Q 2701 2547 2426 2227 
Q 2304 2093 1837 1504 
L 2694 397 
Q 2797 262 2912 230 
Q 3027 198 3302 198 
L 3302 0 
Q 3014 19 2688 19 
Q 2573 19 1997 0 
L 1997 198 
Q 2112 205 2169 256 
Q 2227 307 2227 358 
Q 2227 384 2093 570 
L 1606 1210 
Q 1120 634 1056 499 
Q 1030 442 1030 397 
Q 1030 224 1216 198 
L 1216 0 
Q 755 19 608 19 
Q 326 19 77 0 
z
" transform="scale(0.015625)"/>
       <path id="CMUSerif-Roman-20" transform="scale(0.015625)"/>
      </defs>
      <use xlink:href="#CMUSerif-Roman-6d"/>
      <use xlink:href="#CMUSerif-Roman-61" x="83.299988"/>
      <use xlink:href="#CMUSerif-Roman-78" x="133.299973"/>
      <use xlink:href="#CMUSerif-Roman-20" x="185.999969"/>
      <use xlink:href="#CMUSerif-Roman-73" x="219.299957"/>
      <use xlink:href="#CMUSerif-Roman-6c" x="258.699951"/>
      <use xlink:href="#CMUSerif-Roman-6f" x="286.399948"/>
      <use xlink:href="#CMUSerif-Roman-70" x="336.399933"/>
      <use xlink:href="#CMUSerif-Roman-65" x="391.899918"/>
     </g>
    </g>
   </g>
   <g id="line2d_20">
    <path d="M 228.309498 10.274545 
L 236.674201 12.048222 
L 245.038904 15.912616 
L 253.403606 21.423012 
L 261.768309 28.129334 
L 270.133011 35.708064 
L 278.497714 44.000159 
L 286.862416 52.902536 
L 295.227119 62.145394 
L 303.591821 71.765455 
" clip-path="url(#pf54081cc52)" style="fill: none; stroke: #808080; stroke-width: 1.5; stroke-linecap: square"/>
   </g>
   <g id="LineCollection_1">
    <path d="M 271.805952 58.653227 
L 271.805952 18.553778 
" clip-path="url(#pf54081cc52)" style="fill: none; stroke-dasharray: 5.55,2.4; stroke-dashoffset: 0; stroke: #000000; stroke-width: 1.5"/>
   </g>
   <g id="LineCollection_2">
    <path d="M 281.843595 58.653227 
L 281.843595 18.553778 
" clip-path="url(#pf54081cc52)" style="fill: none; stroke-dasharray: 5.55,2.4; stroke-dashoffset: 0; stroke: #000000; stroke-width: 1.5"/>
   </g>
   <g id="patch_6">
    <path d="M 224.545382 74.84 
L 224.545382 7.2 
" style="fill: none; stroke: #000000; stroke-width: 0.8; stroke-linejoin: miter; stroke-linecap: square"/>
   </g>
   <g id="patch_7">
    <path d="M 224.545382 74.84 
L 307.355937 74.84 
" style="fill: none; stroke: #000000; stroke-width: 0.8; stroke-linejoin: miter; stroke-linecap: square"/>
   </g>
  </g>
 </g>
 <defs>
  <clipPath id="p70ed13adbf">
   <rect x="67.084688" y="7.2" width="82.810555" height="67.64"/>
  </clipPath>
  <clipPath id="pf54081cc52">
   <rect x="224.545382" y="7.2" width="82.810555" height="67.64"/>
  </clipPath>
 </defs>
</svg>
