<?xml version="1.0" encoding="utf-8" standalone="no"?>
<!DOCTYPE svg PUBLIC "-//W3C//DTD SVG 1.1//EN"
  "http://www.w3.org/Graphics/SVG/1.1/DTD/svg11.dtd">
<svg xmlns:xlink="http://www.w3.org/1999/xlink" width="278.555938pt" height="112.590625pt" viewBox="0 0 278.555938 112.590625" xmlns="http://www.w3.org/2000/svg" version="1.1">
 <metadata>
  <rdf:RDF xmlns:dc="http://purl.org/dc/elements/1.1/" xmlns:cc="http://creativecommons.org/ns#" xmlns:rdf="http://www.w3.org/1999/02/22-rdf-syntax-ns#">
   <cc:Work>
    <dc:type rdf:resource="http://purl.org/dc/dcmitype/StillImage"/>
    <dc:date>2022-08-02T15:16:07.184961</dc:date>
    <dc:format>image/svg+xml</dc:format>
    <dc:creator>
     <cc:Agent>
      <dc:title>Matplotlib v3.5.1, https://matplotlib.org/</dc:title>
     </cc:Agent>
    </dc:creator>
   </cc:Work>
  </rdf:RDF>
 </metadata>
 <defs>
  <style type="text/css">*{stroke-linejoin: round; stroke-linecap: butt}</style>
 </defs>
 <g id="figure_1">
  <g id="patch_1">
   <path d="M 0 112.590625 
L 278.555938 112.590625 
L 278.555938 0 
L 0 0 
L 0 112.590625 
z
" style="fill: none"/>
  </g>
  <g id="axes_1">
   <g id="patch_2">
    <path d="M 67.084688 73.62125 
L 131.609903 73.62125 
L 131.609903 7.2 
L 67.084688 7.2 
z
" style="fill: #ffffff"/>
   </g>
   <g id="matplotlib.axis_1">
    <g id="xtick_1">
     <g id="line2d_1">
      <defs>
       <path id="ma3c3cb463a" d="M 0 0 
L 0 3.5 
" style="stroke: #000000; stroke-width: 0.8"/>
      </defs>
      <g>
       <use xlink:href="#ma3c3cb463a" x="70.017652" y="73.62125" style="stroke: #000000; stroke-width: 0.8"/>
      </g>
     </g>
     <g id="text_1">
      <!-- 0 -->
      <g transform="translate(67.267652 88.255937)scale(0.11 -0.11)">
       <defs>
        <path id="CMUSerif-Roman-30" d="M 250 2048 
Q 250 2989 486 3501 
Q 819 4262 1600 4262 
Q 1766 4262 1939 4217 
Q 2112 4173 2333 4000 
Q 2554 3827 2688 3546 
Q 2944 3002 2944 2048 
Q 2944 1114 2707 602 
Q 2362 -141 1594 -141 
Q 1306 -141 1014 6 
Q 723 154 538 506 
Q 250 1037 250 2048 
z
M 781 2125 
Q 781 1158 851 774 
Q 928 358 1142 179 
Q 1357 0 1594 0 
Q 1850 0 2064 192 
Q 2278 384 2342 800 
Q 2413 1210 2413 2125 
Q 2413 3014 2349 3373 
Q 2266 3789 2042 3955 
Q 1818 4122 1594 4122 
Q 1510 4122 1420 4096 
Q 1331 4070 1203 4000 
Q 1075 3930 976 3750 
Q 877 3571 832 3302 
Q 781 2957 781 2125 
z
" transform="scale(0.015625)"/>
       </defs>
       <use xlink:href="#CMUSerif-Roman-30"/>
      </g>
     </g>
    </g>
    <g id="xtick_2">
     <g id="line2d_2">
      <g>
       <use xlink:href="#ma3c3cb463a" x="128.706283" y="73.62125" style="stroke: #000000; stroke-width: 0.8"/>
      </g>
     </g>
     <g id="text_2">
      <!-- 2000 -->
      <g transform="translate(117.706283 88.255937)scale(0.11 -0.11)">
       <defs>
        <path id="CMUSerif-Roman-32" d="M 320 0 
Q 320 115 329 150 
Q 339 186 390 237 
L 1619 1606 
Q 2291 2362 2291 3021 
Q 2291 3450 2067 3757 
Q 1843 4064 1434 4064 
Q 1152 4064 915 3891 
Q 678 3718 570 3411 
Q 589 3418 653 3418 
Q 813 3418 902 3318 
Q 992 3219 992 3085 
Q 992 2912 880 2829 
Q 768 2746 659 2746 
Q 614 2746 556 2755 
Q 499 2765 409 2854 
Q 320 2944 320 3104 
Q 320 3552 659 3907 
Q 998 4262 1517 4262 
Q 2106 4262 2490 3913 
Q 2874 3565 2874 3021 
Q 2874 2829 2816 2656 
Q 2758 2483 2681 2348 
Q 2605 2214 2400 2000 
Q 2195 1786 2028 1632 
Q 1862 1478 1491 1152 
L 813 493 
L 1965 493 
Q 2528 493 2573 544 
Q 2637 634 2714 1114 
L 2874 1114 
L 2694 0 
L 320 0 
z
" transform="scale(0.015625)"/>
       </defs>
       <use xlink:href="#CMUSerif-Roman-32"/>
       <use xlink:href="#CMUSerif-Roman-30" x="49.999985"/>
       <use xlink:href="#CMUSerif-Roman-30" x="99.999969"/>
       <use xlink:href="#CMUSerif-Roman-30" x="149.999954"/>
      </g>
     </g>
    </g>
    <g id="text_3">
     <!-- time [ms] -->
     <g transform="translate(77.028467 102.640625)scale(0.11 -0.11)">
      <defs>
       <path id="CMUSerif-Roman-74" d="M 122 2560 
L 122 2701 
Q 416 2714 611 2922 
Q 806 3130 873 3386 
Q 941 3642 947 3936 
L 1107 3936 
L 1107 2758 
L 2022 2758 
L 2022 2560 
L 1107 2560 
L 1107 781 
Q 1107 90 1536 90 
Q 1722 90 1843 278 
Q 1965 467 1965 806 
L 1965 1158 
L 2125 1158 
L 2125 794 
Q 2125 448 1965 189 
Q 1805 -70 1491 -70 
Q 1376 -70 1261 -41 
Q 1146 -13 998 64 
Q 851 141 758 329 
Q 666 518 666 794 
L 666 2560 
L 122 2560 
z
" transform="scale(0.015625)"/>
       <path id="CMUSerif-Roman-69" d="M 211 0 
L 211 198 
Q 550 198 630 240 
Q 710 282 710 486 
L 710 2208 
Q 710 2445 630 2502 
Q 550 2560 237 2560 
L 237 2758 
L 1133 2829 
L 1133 480 
Q 1133 288 1200 243 
Q 1267 198 1581 198 
L 1581 0 
Q 928 19 915 19 
Q 826 19 211 0 
z
M 480 3942 
Q 480 4070 579 4176 
Q 678 4282 819 4282 
Q 960 4282 1059 4186 
Q 1158 4090 1158 3942 
Q 1158 3795 1059 3699 
Q 960 3603 819 3603 
Q 672 3603 576 3705 
Q 480 3808 480 3942 
z
" transform="scale(0.015625)"/>
       <path id="CMUSerif-Roman-6d" d="M 205 0 
L 205 198 
Q 544 198 624 240 
Q 704 282 704 486 
L 704 2202 
Q 704 2438 621 2499 
Q 538 2560 205 2560 
L 205 2758 
L 1107 2829 
L 1107 2157 
Q 1408 2829 2054 2829 
Q 2803 2829 2906 2202 
Q 3014 2445 3244 2637 
Q 3475 2829 3834 2829 
Q 4314 2829 4506 2592 
Q 4646 2432 4675 2253 
Q 4704 2074 4704 1613 
L 4704 390 
Q 4710 256 4812 227 
Q 4915 198 5203 198 
L 5203 0 
Q 4550 19 4486 19 
Q 4435 19 3763 0 
L 3763 198 
Q 4102 198 4182 240 
Q 4262 282 4262 486 
L 4262 1978 
Q 4262 2304 4163 2496 
Q 4064 2688 3789 2688 
Q 3456 2688 3190 2409 
Q 2925 2131 2925 1664 
L 2925 486 
Q 2925 282 3005 240 
Q 3085 198 3424 198 
L 3424 0 
Q 2771 19 2707 19 
Q 2656 19 1984 0 
L 1984 198 
Q 2323 198 2403 240 
Q 2483 282 2483 486 
L 2483 1978 
Q 2483 2304 2384 2496 
Q 2285 2688 2010 2688 
Q 1677 2688 1411 2409 
Q 1146 2131 1146 1664 
L 1146 486 
Q 1146 282 1226 240 
Q 1306 198 1645 198 
L 1645 0 
Q 992 19 928 19 
Q 877 19 205 0 
z
" transform="scale(0.015625)"/>
       <path id="CMUSerif-Roman-65" d="M 179 1408 
Q 179 2010 566 2438 
Q 954 2867 1510 2867 
Q 2074 2867 2365 2502 
Q 2656 2138 2656 1613 
Q 2656 1517 2630 1497 
Q 2605 1478 2496 1478 
L 710 1478 
Q 710 826 902 518 
Q 1171 90 1626 90 
Q 1690 90 1763 102 
Q 1837 115 1990 169 
Q 2144 224 2278 371 
Q 2413 518 2490 749 
Q 2509 838 2573 838 
Q 2656 838 2656 762 
Q 2656 704 2595 579 
Q 2534 454 2419 304 
Q 2304 154 2080 42 
Q 1856 -70 1587 -70 
Q 1024 -70 601 355 
Q 179 781 179 1408 
z
M 717 1613 
L 2234 1613 
Q 2234 1747 2211 1897 
Q 2189 2048 2121 2256 
Q 2054 2464 1897 2595 
Q 1741 2726 1510 2726 
Q 1408 2726 1296 2681 
Q 1184 2637 1049 2531 
Q 915 2426 822 2186 
Q 730 1946 717 1613 
z
" transform="scale(0.015625)"/>
       <path id="CMUSerif-Roman-20" transform="scale(0.015625)"/>
       <path id="CMUSerif-Roman-5b" d="M 666 -1600 
L 666 4800 
L 1632 4800 
L 1632 4653 
L 1094 4653 
L 1094 -1453 
L 1632 -1453 
L 1632 -1600 
L 666 -1600 
z
" transform="scale(0.015625)"/>
       <path id="CMUSerif-Roman-73" d="M 211 83 
L 211 928 
Q 211 998 214 1024 
Q 218 1050 237 1069 
Q 256 1088 294 1088 
Q 339 1088 355 1069 
Q 371 1050 384 979 
Q 480 538 688 304 
Q 896 70 1274 70 
Q 1632 70 1814 230 
Q 1997 390 1997 653 
Q 1997 1120 1331 1242 
Q 947 1318 787 1369 
Q 627 1421 486 1536 
Q 211 1760 211 2080 
Q 211 2400 454 2633 
Q 698 2867 1235 2867 
Q 1594 2867 1837 2688 
Q 1907 2746 1946 2790 
Q 2029 2867 2074 2867 
Q 2125 2867 2134 2835 
Q 2144 2803 2144 2714 
L 2144 2067 
Q 2144 1997 2141 1971 
Q 2138 1946 2118 1930 
Q 2099 1914 2061 1914 
Q 1990 1914 1984 1971 
Q 1933 2746 1235 2746 
Q 858 2746 688 2602 
Q 518 2458 518 2259 
Q 518 2150 569 2067 
Q 621 1984 688 1936 
Q 755 1888 880 1843 
Q 1005 1798 1081 1782 
Q 1158 1766 1306 1734 
Q 1818 1638 2035 1427 
Q 2304 1158 2304 819 
Q 2304 442 2048 186 
Q 1792 -70 1274 -70 
Q 858 -70 570 205 
Q 531 166 502 134 
Q 474 102 464 89 
Q 454 77 451 70 
Q 448 64 442 58 
Q 314 -70 282 -70 
Q 230 -70 220 -38 
Q 211 -6 211 83 
z
" transform="scale(0.015625)"/>
       <path id="CMUSerif-Roman-5d" d="M 134 -1453 
L 672 -1453 
L 672 4653 
L 134 4653 
L 134 4800 
L 1101 4800 
L 1101 -1600 
L 134 -1600 
L 134 -1453 
z
" transform="scale(0.015625)"/>
      </defs>
      <use xlink:href="#CMUSerif-Roman-74"/>
      <use xlink:href="#CMUSerif-Roman-69" x="38.799988"/>
      <use xlink:href="#CMUSerif-Roman-6d" x="66.499985"/>
      <use xlink:href="#CMUSerif-Roman-65" x="149.799973"/>
      <use xlink:href="#CMUSerif-Roman-20" x="194.199966"/>
      <use xlink:href="#CMUSerif-Roman-5b" x="227.499954"/>
      <use xlink:href="#CMUSerif-Roman-6d" x="255.299942"/>
      <use xlink:href="#CMUSerif-Roman-73" x="338.59993"/>
      <use xlink:href="#CMUSerif-Roman-5d" x="377.999924"/>
     </g>
    </g>
   </g>
   <g id="matplotlib.axis_2">
    <g id="ytick_1">
     <g id="line2d_3">
      <defs>
       <path id="m4d331d94d0" d="M 0 0 
L -3.5 0 
" style="stroke: #000000; stroke-width: 0.8"/>
      </defs>
      <g>
       <use xlink:href="#m4d331d94d0" x="67.084688" y="57.710096" style="stroke: #000000; stroke-width: 0.8"/>
      </g>
     </g>
     <g id="text_4">
      <!-- −0.0005 -->
      <g transform="translate(20.969375 61.52744)scale(0.11 -0.11)">
       <defs>
        <path id="CMUSerif-Roman-2212" d="M 365 1594 
Q 365 1670 493 1670 
L 4416 1670 
Q 4422 1670 4451 1670 
Q 4480 1670 4489 1670 
Q 4499 1670 4521 1670 
Q 4544 1670 4553 1664 
Q 4563 1658 4576 1651 
Q 4589 1645 4595 1632 
Q 4602 1619 4602 1600 
Q 4602 1523 4435 1523 
L 4422 1523 
Q 4403 1523 4368 1526 
Q 4333 1530 4314 1530 
L 710 1530 
Q 685 1530 637 1526 
Q 589 1523 563 1523 
L 531 1523 
Q 365 1523 365 1594 
z
" transform="scale(0.015625)"/>
        <path id="CMUSerif-Roman-2e" d="M 640 102 
Q 544 205 544 339 
Q 544 474 640 573 
Q 736 672 883 672 
Q 1024 672 1120 579 
Q 1216 486 1216 339 
Q 1216 192 1113 96 
Q 1011 0 883 0 
Q 736 0 640 102 
z
" transform="scale(0.015625)"/>
        <path id="CMUSerif-Roman-35" d="M 320 1030 
Q 320 1222 422 1296 
Q 525 1370 634 1370 
Q 781 1370 867 1277 
Q 954 1184 954 1056 
Q 954 928 867 835 
Q 781 742 634 742 
Q 563 742 525 755 
Q 608 461 867 249 
Q 1126 38 1466 38 
Q 1894 38 2150 454 
Q 2304 723 2304 1331 
Q 2304 1869 2189 2138 
Q 2010 2547 1645 2547 
Q 1126 2547 819 2099 
Q 781 2042 736 2042 
Q 672 2042 659 2077 
Q 646 2112 646 2208 
L 646 4102 
Q 646 4256 710 4256 
Q 736 4256 787 4237 
Q 1190 4058 1638 4058 
Q 2099 4058 2509 4243 
Q 2541 4262 2560 4262 
Q 2624 4262 2624 4192 
Q 2624 4166 2573 4092 
Q 2522 4019 2413 3923 
Q 2304 3827 2163 3737 
Q 2022 3648 1817 3587 
Q 1613 3526 1389 3526 
Q 1120 3526 845 3610 
L 845 2362 
Q 1178 2688 1658 2688 
Q 2170 2688 2522 2275 
Q 2874 1862 2874 1286 
Q 2874 685 2458 272 
Q 2042 -141 1478 -141 
Q 966 -141 643 224 
Q 320 589 320 1030 
z
" transform="scale(0.015625)"/>
       </defs>
       <use xlink:href="#CMUSerif-Roman-2212"/>
       <use xlink:href="#CMUSerif-Roman-30" x="77.799988"/>
       <use xlink:href="#CMUSerif-Roman-2e" x="127.799973"/>
       <use xlink:href="#CMUSerif-Roman-30" x="155.59996"/>
       <use xlink:href="#CMUSerif-Roman-30" x="205.599945"/>
       <use xlink:href="#CMUSerif-Roman-30" x="255.59993"/>
       <use xlink:href="#CMUSerif-Roman-35" x="305.599915"/>
      </g>
     </g>
    </g>
    <g id="ytick_2">
     <g id="line2d_4">
      <g>
       <use xlink:href="#m4d331d94d0" x="67.084688" y="40.295736" style="stroke: #000000; stroke-width: 0.8"/>
      </g>
     </g>
     <g id="text_5">
      <!-- 0.0000 -->
      <g transform="translate(29.527031 44.11308)scale(0.11 -0.11)">
       <use xlink:href="#CMUSerif-Roman-30"/>
       <use xlink:href="#CMUSerif-Roman-2e" x="49.999985"/>
       <use xlink:href="#CMUSerif-Roman-30" x="77.799973"/>
       <use xlink:href="#CMUSerif-Roman-30" x="127.799957"/>
       <use xlink:href="#CMUSerif-Roman-30" x="177.799942"/>
       <use xlink:href="#CMUSerif-Roman-30" x="227.799927"/>
      </g>
     </g>
    </g>
    <g id="ytick_3">
     <g id="line2d_5">
      <g>
       <use xlink:href="#m4d331d94d0" x="67.084688" y="22.881377" style="stroke: #000000; stroke-width: 0.8"/>
      </g>
     </g>
     <g id="text_6">
      <!-- 0.0005 -->
      <g transform="translate(29.527031 26.69872)scale(0.11 -0.11)">
       <use xlink:href="#CMUSerif-Roman-30"/>
       <use xlink:href="#CMUSerif-Roman-2e" x="49.999985"/>
       <use xlink:href="#CMUSerif-Roman-30" x="77.799973"/>
       <use xlink:href="#CMUSerif-Roman-30" x="127.799957"/>
       <use xlink:href="#CMUSerif-Roman-30" x="177.799942"/>
       <use xlink:href="#CMUSerif-Roman-35" x="227.799927"/>
      </g>
     </g>
    </g>
    <g id="text_7">
     <!-- slope -->
     <g transform="translate(14.834687 52.346484)rotate(-90)scale(0.11 -0.11)">
      <defs>
       <path id="CMUSerif-Roman-6c" d="M 211 0 
L 211 198 
Q 550 198 630 240 
Q 710 282 710 486 
L 710 3814 
Q 710 4051 627 4112 
Q 544 4173 211 4173 
L 211 4371 
L 1133 4442 
L 1133 486 
Q 1133 282 1213 240 
Q 1293 198 1632 198 
L 1632 0 
Q 1555 0 1392 6 
Q 1229 13 1110 16 
Q 992 19 922 19 
Q 845 19 211 0 
z
" transform="scale(0.015625)"/>
       <path id="CMUSerif-Roman-6f" d="M 601 346 
Q 179 762 179 1370 
Q 179 1978 592 2422 
Q 1005 2867 1600 2867 
Q 2182 2867 2598 2425 
Q 3014 1984 3014 1370 
Q 3014 768 2595 349 
Q 2176 -70 1594 -70 
Q 1024 -70 601 346 
z
M 710 1421 
Q 710 800 870 518 
Q 1120 90 1600 90 
Q 1837 90 2035 218 
Q 2234 346 2342 563 
Q 2483 845 2483 1421 
Q 2483 2035 2317 2310 
Q 2067 2726 1594 2726 
Q 1389 2726 1187 2617 
Q 986 2509 864 2298 
Q 710 2016 710 1421 
z
" transform="scale(0.015625)"/>
       <path id="CMUSerif-Roman-70" d="M 179 -1043 
Q 518 -1043 598 -1001 
Q 678 -960 678 -755 
L 678 2240 
Q 678 2451 598 2505 
Q 518 2560 179 2560 
L 179 2758 
L 1101 2829 
L 1101 2406 
Q 1485 2829 1997 2829 
Q 2541 2829 2937 2406 
Q 3334 1984 3334 1382 
Q 3334 774 2912 352 
Q 2490 -70 1907 -70 
Q 1587 -70 1372 93 
Q 1158 256 1120 378 
L 1120 320 
L 1120 -755 
Q 1120 -960 1200 -1001 
Q 1280 -1043 1619 -1043 
L 1619 -1242 
Q 947 -1222 896 -1222 
Q 832 -1222 179 -1242 
L 179 -1043 
z
M 1120 730 
Q 1120 634 1133 598 
Q 1146 563 1210 461 
Q 1466 70 1882 70 
Q 2246 70 2524 444 
Q 2803 819 2803 1382 
Q 2803 1920 2550 2294 
Q 2298 2669 1946 2669 
Q 1696 2669 1478 2534 
Q 1261 2400 1120 2157 
L 1120 730 
z
" transform="scale(0.015625)"/>
      </defs>
      <use xlink:href="#CMUSerif-Roman-73"/>
      <use xlink:href="#CMUSerif-Roman-6c" x="39.399994"/>
      <use xlink:href="#CMUSerif-Roman-6f" x="67.099991"/>
      <use xlink:href="#CMUSerif-Roman-70" x="117.099976"/>
      <use xlink:href="#CMUSerif-Roman-65" x="172.59996"/>
     </g>
    </g>
   </g>
   <g id="line2d_6">
    <path d="M 70.017652 40.075864 
L 70.135029 38.561726 
L 70.986014 27.80439 
L 71.748966 20.744945 
L 72.45323 16.11739 
L 73.098805 13.220386 
L 73.685691 11.522084 
L 74.213889 10.632404 
L 74.654054 10.281984 
L 75.064874 10.228515 
L 75.475695 10.401346 
L 75.974548 10.867179 
L 76.620123 11.804373 
L 77.500452 13.523056 
L 78.850291 16.723575 
L 82.606363 25.852114 
L 84.190956 29.006291 
L 85.628828 31.392785 
L 87.037355 33.312693 
L 88.445882 34.863622 
L 89.883754 36.121344 
L 91.409658 37.159004 
L 93.05294 38.003517 
L 94.872287 38.685242 
L 96.985078 39.233125 
L 99.538033 39.656906 
L 102.853941 39.968297 
L 107.578376 40.170542 
L 115.97085 40.273355 
L 128.676939 40.2941 
L 128.676939 40.2941 
" clip-path="url(#pe9bf277b08)" style="fill: none; stroke: #00d4ff; stroke-width: 1.5; stroke-linecap: square"/>
   </g>
   <g id="line2d_7">
    <path d="M 70.017652 40.118493 
L 70.135029 38.8837 
L 71.250113 26.887331 
L 72.071754 20.319011 
L 72.805362 16.128174 
L 73.450937 13.606469 
L 74.037823 12.132381 
L 74.536676 11.405132 
L 74.976841 11.108301 
L 75.387662 11.083272 
L 75.827826 11.288613 
L 76.356024 11.80128 
L 77.030943 12.792775 
L 77.940617 14.556648 
L 79.378489 17.89522 
L 82.782429 25.907917 
L 84.396367 29.065615 
L 85.863582 31.461521 
L 87.272109 33.352564 
L 88.680637 34.884209 
L 90.147852 36.151751 
L 91.673757 37.176175 
L 93.317038 38.011694 
L 95.16573 38.696779 
L 97.307865 39.244408 
L 99.890165 39.665682 
L 103.235417 39.97361 
L 108.047885 40.174156 
L 116.616425 40.274583 
L 128.676939 40.293946 
L 128.676939 40.293946 
" clip-path="url(#pe9bf277b08)" style="fill: none; stroke: #0cf4eb; stroke-width: 1.5; stroke-linecap: square"/>
   </g>
   <g id="line2d_8">
    <path d="M 70.017652 40.186306 
L 70.135029 39.398605 
L 72.717329 19.898552 
L 73.450937 16.632584 
L 74.096512 14.684506 
L 74.654054 13.620881 
L 75.152907 13.093646 
L 75.593072 12.91823 
L 76.033237 12.978383 
L 76.53209 13.29001 
L 77.148321 13.96885 
L 77.940617 15.206284 
L 79.055701 17.403155 
L 81.579312 23.04187 
L 83.60407 27.252922 
L 85.218007 30.103822 
L 86.714567 32.302365 
L 88.152439 34.031593 
L 89.619655 35.452153 
L 91.116215 36.59634 
L 92.730152 37.547448 
L 94.490811 38.320849 
L 96.486225 38.946176 
L 98.83377 39.438988 
L 101.738857 39.810948 
L 105.641651 40.072018 
L 111.657236 40.228535 
L 124.510046 40.290683 
L 128.676939 40.29355 
L 128.676939 40.29355 
" clip-path="url(#pe9bf277b08)" style="fill: none; stroke: #29ffce; stroke-width: 1.5; stroke-linecap: square"/>
   </g>
   <g id="line2d_9">
    <path d="M 70.017652 40.274259 
L 70.135029 40.069902 
L 70.428472 39.035273 
L 70.927326 36.277055 
L 73.362904 21.5161 
L 74.125856 18.671748 
L 74.771431 17.038093 
L 75.358317 16.106454 
L 75.886515 15.664055 
L 76.356024 15.54485 
L 76.825533 15.648384 
L 77.383075 16.016194 
L 78.057994 16.749234 
L 78.938324 18.05585 
L 80.258818 20.465967 
L 84.777843 29.026275 
L 86.39178 31.464166 
L 87.917684 33.375072 
L 89.414245 34.901541 
L 90.940149 36.146291 
L 92.554086 37.174771 
L 94.285401 38.01186 
L 96.192781 38.687055 
L 98.422949 39.234854 
L 101.122626 39.659314 
L 104.6146 39.96971 
L 109.603134 40.171539 
L 118.465117 40.27367 
L 128.676939 40.292736 
L 128.676939 40.292736 
" clip-path="url(#pe9bf277b08)" style="fill: none; stroke: #43ffb4; stroke-width: 1.5; stroke-linecap: square"/>
   </g>
   <g id="line2d_10">
    <path d="M 70.017652 40.375907 
L 70.516505 41.436521 
L 70.692571 41.219443 
L 70.986014 40.376423 
L 71.455523 38.210429 
L 72.746673 30.703972 
L 73.773724 25.52607 
L 74.595365 22.467319 
L 75.299629 20.633718 
L 75.945204 19.538225 
L 76.502746 18.990133 
L 77.030943 18.766557 
L 77.559141 18.790163 
L 78.146027 19.06002 
L 78.850291 19.656551 
L 79.759965 20.753497 
L 81.051115 22.70169 
L 86.245058 30.909338 
L 87.917684 32.959226 
L 89.502277 34.559076 
L 91.116215 35.874721 
L 92.788841 36.949231 
L 94.578844 37.830402 
L 96.544913 38.54581 
L 98.804426 39.12385 
L 101.504103 39.575187 
L 104.937388 39.910622 
L 109.720511 40.136334 
L 117.672821 40.259379 
L 128.676939 40.291064 
L 128.676939 40.291064 
" clip-path="url(#pe9bf277b08)" style="fill: none; stroke: #60ff97; stroke-width: 1.5; stroke-linecap: square"/>
   </g>
   <g id="line2d_11">
    <path d="M 70.017652 40.484042 
L 70.193718 42.276016 
L 70.54585 44.622758 
L 70.809948 45.284113 
L 70.986014 45.328845 
L 71.16208 45.122062 
L 71.455523 44.344092 
L 71.925032 42.346395 
L 72.981428 36.56915 
L 74.213889 30.340899 
L 75.094218 26.991289 
L 75.857171 24.896829 
L 76.561434 23.578173 
L 77.207009 22.825143 
L 77.793896 22.466044 
L 78.380782 22.369887 
L 78.997012 22.504797 
L 79.701276 22.897255 
L 80.581605 23.657508 
L 81.784722 25.015194 
L 84.073579 28.012267 
L 86.685223 31.297262 
L 88.563259 33.300504 
L 90.323918 34.856533 
L 92.084577 36.115258 
L 93.903925 37.14106 
L 95.84065 37.977408 
L 98.012129 38.667342 
L 100.506396 39.218774 
L 103.499516 39.645066 
L 107.372966 39.959588 
L 112.889697 40.165749 
L 122.543977 40.271372 
L 128.676939 40.287332 
L 128.676939 40.287332 
" clip-path="url(#pe9bf277b08)" style="fill: none; stroke: #7dff7a; stroke-width: 1.5; stroke-linecap: square"/>
   </g>
   <g id="line2d_12">
    <path d="M 70.017652 40.591689 
L 70.164373 43.01932 
L 70.575194 48.147713 
L 70.927326 50.266729 
L 71.191424 50.854817 
L 71.36749 50.882306 
L 71.572901 50.622024 
L 71.895688 49.725811 
L 72.423886 47.431293 
L 73.861757 39.675549 
L 74.976841 34.446048 
L 75.857171 31.305077 
L 76.649467 29.227234 
L 77.383075 27.872244 
L 78.087339 27.015651 
L 78.762258 26.539377 
L 79.407833 26.346144 
L 80.112096 26.373702 
L 80.904393 26.638917 
L 81.872755 27.211134 
L 83.19325 28.273897 
L 85.687516 30.63636 
L 88.563259 33.25001 
L 90.67605 34.865596 
L 92.700808 36.132701 
L 94.75491 37.154773 
L 96.955734 37.996913 
L 99.361968 38.676436 
L 102.149678 39.226085 
L 105.49493 39.650944 
L 109.808544 39.962973 
L 115.97085 40.167623 
L 126.798903 40.272055 
L 128.676939 40.278034 
L 128.676939 40.278034 
" clip-path="url(#pe9bf277b08)" style="fill: none; stroke: #97ff60; stroke-width: 1.5; stroke-linecap: square"/>
   </g>
   <g id="line2d_13">
    <path d="M 70.017652 40.693036 
L 70.164373 43.996357 
L 70.633882 52.195896 
L 71.044703 55.853313 
L 71.36749 57.093309 
L 71.602245 57.328427 
L 71.778311 57.21691 
L 72.04241 56.685649 
L 72.45323 55.23052 
L 73.157494 51.75703 
L 75.299629 40.812208 
L 76.267991 37.180094 
L 77.148321 34.708466 
L 77.969961 33.033526 
L 78.762258 31.906374 
L 79.52521 31.194291 
L 80.288162 30.778902 
L 81.080459 30.597209 
L 81.960788 30.625389 
L 83.017184 30.892328 
L 84.396367 31.490689 
L 86.538502 32.69617 
L 91.350969 35.440718 
L 93.962613 36.638405 
L 96.544913 37.578637 
L 99.303279 38.343929 
L 102.384432 38.962474 
L 105.993783 39.451676 
L 110.454119 39.820886 
L 116.440359 40.078564 
L 125.713163 40.231785 
L 128.676939 40.252432 
L 128.676939 40.252432 
" clip-path="url(#pe9bf277b08)" style="fill: none; stroke: #b4ff43; stroke-width: 1.5; stroke-linecap: square"/>
   </g>
   <g id="line2d_14">
    <path d="M 70.017652 40.784039 
L 70.164373 44.878233 
L 70.663227 55.964111 
L 71.103392 61.256134 
L 71.484868 63.436476 
L 71.778311 64.014539 
L 71.954377 64.010933 
L 72.159787 63.742056 
L 72.482574 62.870696 
L 73.010772 60.657819 
L 74.1552 54.57354 
L 75.534383 47.691024 
L 76.561434 43.672225 
L 77.500452 40.865679 
L 78.380782 38.894501 
L 79.261111 37.45232 
L 80.112096 36.46292 
L 80.992426 35.768681 
L 81.931444 35.311878 
L 82.958495 35.061562 
L 84.161612 35.002319 
L 85.687516 35.161653 
L 87.88834 35.63747 
L 98.657704 38.246952 
L 102.883285 38.900492 
L 107.666409 39.408368 
L 113.476583 39.791489 
L 121.13545 40.059799 
L 128.676939 40.184797 
L 128.676939 40.184797 
" clip-path="url(#pe9bf277b08)" style="fill: none; stroke: #ceff29; stroke-width: 1.5; stroke-linecap: square"/>
   </g>
   <g id="line2d_15">
    <path d="M 70.017652 40.862554 
L 70.164373 45.642558 
L 70.663227 58.976316 
L 71.132736 66.139618 
L 71.543556 69.346821 
L 71.866344 70.420526 
L 72.101098 70.601361 
L 72.277164 70.474393 
L 72.541263 69.947405 
L 72.952083 68.53564 
L 73.656347 65.158476 
L 76.091925 52.895869 
L 77.118976 49.086437 
L 78.087339 46.322323 
L 79.026357 44.291991 
L 79.965375 42.776388 
L 80.933737 41.63286 
L 81.931444 40.791915 
L 83.017184 40.162411 
L 84.278989 39.694153 
L 85.804894 39.376853 
L 87.800307 39.204369 
L 90.793427 39.192827 
L 97.630653 39.455217 
L 110.219364 39.874967 
L 124.832834 40.116872 
L 128.676939 40.153322 
L 128.676939 40.153322 
" clip-path="url(#pe9bf277b08)" style="fill: none; stroke: #ebff0c; stroke-width: 1.5; stroke-linecap: square"/>
   </g>
   <g id="patch_3">
    <path d="M 67.084688 73.62125 
L 67.084688 7.2 
" style="fill: none; stroke: #000000; stroke-width: 0.8; stroke-linejoin: miter; stroke-linecap: square"/>
   </g>
   <g id="patch_4">
    <path d="M 67.084688 73.62125 
L 131.609903 73.62125 
" style="fill: none; stroke: #000000; stroke-width: 0.8; stroke-linejoin: miter; stroke-linecap: square"/>
   </g>
  </g>
  <g id="axes_2">
   <g id="patch_5">
    <path d="M 206.830722 73.62125 
L 271.355937 73.62125 
L 271.355937 7.2 
L 206.830722 7.2 
z
" style="fill: #ffffff"/>
   </g>
   <g id="matplotlib.axis_3">
    <g id="xtick_3">
     <g id="line2d_16">
      <g>
       <use xlink:href="#ma3c3cb463a" x="209.763686" y="73.62125" style="stroke: #000000; stroke-width: 0.8"/>
      </g>
     </g>
     <g id="text_8">
      <!-- 0.50 -->
      <g transform="translate(199.984858 88.255937)scale(0.11 -0.11)">
       <use xlink:href="#CMUSerif-Roman-30"/>
       <use xlink:href="#CMUSerif-Roman-2e" x="49.999985"/>
       <use xlink:href="#CMUSerif-Roman-35" x="77.799973"/>
       <use xlink:href="#CMUSerif-Roman-30" x="127.799957"/>
      </g>
     </g>
    </g>
    <g id="xtick_4">
     <g id="line2d_17">
      <g>
       <use xlink:href="#ma3c3cb463a" x="242.352179" y="73.62125" style="stroke: #000000; stroke-width: 0.8"/>
      </g>
     </g>
     <g id="text_9">
      <!-- 0.75 -->
      <g transform="translate(232.573351 88.255937)scale(0.11 -0.11)">
       <defs>
        <path id="CMUSerif-Roman-37" d="M 358 3008 
L 570 4326 
L 730 4326 
Q 749 4250 781 4214 
Q 813 4179 995 4150 
Q 1178 4122 1549 4122 
L 3104 4122 
Q 3104 3974 3046 3898 
L 2182 2682 
Q 1907 2298 1786 1587 
Q 1715 1114 1715 538 
L 1715 211 
Q 1715 -141 1420 -141 
Q 1126 -141 1126 211 
Q 1126 1434 1914 2618 
Q 1997 2739 2307 3174 
Q 2618 3610 2630 3629 
L 1306 3629 
Q 723 3629 678 3590 
Q 614 3533 518 3008 
L 358 3008 
z
" transform="scale(0.015625)"/>
       </defs>
       <use xlink:href="#CMUSerif-Roman-30"/>
       <use xlink:href="#CMUSerif-Roman-2e" x="49.999985"/>
       <use xlink:href="#CMUSerif-Roman-37" x="77.799973"/>
       <use xlink:href="#CMUSerif-Roman-35" x="127.799957"/>
      </g>
     </g>
    </g>
    <g id="text_10">
     <!-- input -->
     <g transform="translate(226.27833 102.025312)scale(0.11 -0.11)">
      <defs>
       <path id="CMUSerif-Roman-6e" d="M 205 0 
L 205 198 
Q 544 198 624 240 
Q 704 282 704 486 
L 704 2202 
Q 704 2438 621 2499 
Q 538 2560 205 2560 
L 205 2758 
L 1107 2829 
L 1107 2157 
Q 1408 2829 2054 2829 
Q 2534 2829 2726 2592 
Q 2867 2432 2896 2253 
Q 2925 2074 2925 1613 
L 2925 390 
Q 2931 256 3033 227 
Q 3136 198 3424 198 
L 3424 0 
Q 2771 19 2707 19 
Q 2656 19 1984 0 
L 1984 198 
Q 2323 198 2403 240 
Q 2483 282 2483 486 
L 2483 1978 
Q 2483 2304 2384 2496 
Q 2285 2688 2010 2688 
Q 1677 2688 1411 2409 
Q 1146 2131 1146 1664 
L 1146 486 
Q 1146 282 1226 240 
Q 1306 198 1645 198 
L 1645 0 
Q 992 19 928 19 
Q 877 19 205 0 
z
" transform="scale(0.015625)"/>
       <path id="CMUSerif-Roman-75" d="M 205 2560 
L 205 2758 
L 1146 2829 
L 1146 704 
Q 1146 550 1158 460 
Q 1171 371 1222 268 
Q 1274 166 1395 118 
Q 1517 70 1709 70 
Q 2054 70 2268 355 
Q 2483 640 2483 1062 
L 2483 2202 
Q 2483 2438 2400 2499 
Q 2317 2560 1984 2560 
L 1984 2758 
L 2925 2829 
L 2925 557 
Q 2925 320 3008 259 
Q 3091 198 3424 198 
L 3424 0 
L 2502 -70 
L 2502 506 
Q 2234 -70 1677 -70 
Q 1395 -70 1203 0 
Q 1011 70 915 160 
Q 819 250 768 422 
Q 717 595 710 700 
Q 704 806 704 1011 
L 704 1971 
Q 704 2406 640 2483 
Q 576 2560 205 2560 
z
" transform="scale(0.015625)"/>
      </defs>
      <use xlink:href="#CMUSerif-Roman-69"/>
      <use xlink:href="#CMUSerif-Roman-6e" x="27.699997"/>
      <use xlink:href="#CMUSerif-Roman-70" x="83.199982"/>
      <use xlink:href="#CMUSerif-Roman-75" x="138.699966"/>
      <use xlink:href="#CMUSerif-Roman-74" x="194.199951"/>
     </g>
    </g>
   </g>
   <g id="matplotlib.axis_4">
    <g id="ytick_4">
     <g id="line2d_18">
      <g>
       <use xlink:href="#m4d331d94d0" x="206.830722" y="72.045016" style="stroke: #000000; stroke-width: 0.8"/>
      </g>
     </g>
     <g id="text_11">
      <!-- 0.0000 -->
      <g transform="translate(169.273066 75.86236)scale(0.11 -0.11)">
       <use xlink:href="#CMUSerif-Roman-30"/>
       <use xlink:href="#CMUSerif-Roman-2e" x="49.999985"/>
       <use xlink:href="#CMUSerif-Roman-30" x="77.799973"/>
       <use xlink:href="#CMUSerif-Roman-30" x="127.799957"/>
       <use xlink:href="#CMUSerif-Roman-30" x="177.799942"/>
       <use xlink:href="#CMUSerif-Roman-30" x="227.799927"/>
      </g>
     </g>
    </g>
    <g id="ytick_5">
     <g id="line2d_19">
      <g>
       <use xlink:href="#m4d331d94d0" x="206.830722" y="36.247808" style="stroke: #000000; stroke-width: 0.8"/>
      </g>
     </g>
     <g id="text_12">
      <!-- 0.0005 -->
      <g transform="translate(169.273066 40.065151)scale(0.11 -0.11)">
       <use xlink:href="#CMUSerif-Roman-30"/>
       <use xlink:href="#CMUSerif-Roman-2e" x="49.999985"/>
       <use xlink:href="#CMUSerif-Roman-30" x="77.799973"/>
       <use xlink:href="#CMUSerif-Roman-30" x="127.799957"/>
       <use xlink:href="#CMUSerif-Roman-30" x="177.799942"/>
       <use xlink:href="#CMUSerif-Roman-35" x="227.799927"/>
      </g>
     </g>
    </g>
    <g id="text_13">
     <!-- max slope -->
     <g transform="translate(163.138378 64.407812)rotate(-90)scale(0.11 -0.11)">
      <defs>
       <path id="CMUSerif-Roman-61" d="M 269 608 
Q 269 1152 909 1440 
Q 1293 1626 2086 1670 
L 2086 1907 
Q 2086 2304 1878 2515 
Q 1670 2726 1408 2726 
Q 941 2726 717 2432 
Q 909 2426 976 2330 
Q 1043 2234 1043 2138 
Q 1043 2010 963 1926 
Q 883 1843 749 1843 
Q 621 1843 537 1923 
Q 454 2003 454 2144 
Q 454 2458 736 2662 
Q 1018 2867 1421 2867 
Q 1946 2867 2298 2515 
Q 2406 2406 2460 2265 
Q 2515 2125 2521 2032 
Q 2528 1939 2528 1760 
L 2528 480 
Q 2528 442 2541 381 
Q 2554 320 2611 240 
Q 2669 160 2765 160 
Q 2995 160 2995 570 
L 2995 928 
L 3155 928 
L 3155 570 
Q 3155 230 2976 96 
Q 2797 -38 2630 -38 
Q 2419 -38 2284 118 
Q 2150 275 2131 486 
Q 2035 243 1814 86 
Q 1594 -70 1293 -70 
Q 1062 -70 844 -12 
Q 627 45 448 205 
Q 269 365 269 608 
z
M 762 614 
Q 762 378 931 224 
Q 1101 70 1338 70 
Q 1606 70 1846 278 
Q 2086 486 2086 896 
L 2086 1536 
Q 1376 1510 1069 1228 
Q 762 947 762 614 
z
" transform="scale(0.015625)"/>
       <path id="CMUSerif-Roman-78" d="M 77 0 
L 77 198 
Q 576 198 896 582 
Q 896 582 1498 1344 
L 864 2170 
Q 640 2458 541 2509 
Q 442 2560 109 2560 
L 109 2758 
Q 371 2739 717 2739 
Q 909 2739 1408 2758 
L 1408 2560 
Q 1184 2547 1184 2400 
Q 1184 2349 1242 2285 
L 1741 1638 
L 2138 2138 
Q 2234 2253 2234 2362 
Q 2234 2541 2048 2560 
L 2048 2758 
Q 2298 2739 2662 2739 
Q 2938 2739 3187 2758 
L 3187 2560 
Q 2701 2547 2426 2227 
Q 2304 2093 1837 1504 
L 2694 397 
Q 2797 262 2912 230 
Q 3027 198 3302 198 
L 3302 0 
Q 3014 19 2688 19 
Q 2573 19 1997 0 
L 1997 198 
Q 2112 205 2169 256 
Q 2227 307 2227 358 
Q 2227 384 2093 570 
L 1606 1210 
Q 1120 634 1056 499 
Q 1030 442 1030 397 
Q 1030 224 1216 198 
L 1216 0 
Q 755 19 608 19 
Q 326 19 77 0 
z
" transform="scale(0.015625)"/>
      </defs>
      <use xlink:href="#CMUSerif-Roman-6d"/>
      <use xlink:href="#CMUSerif-Roman-61" x="83.299988"/>
      <use xlink:href="#CMUSerif-Roman-78" x="133.299973"/>
      <use xlink:href="#CMUSerif-Roman-20" x="185.999969"/>
      <use xlink:href="#CMUSerif-Roman-73" x="219.299957"/>
      <use xlink:href="#CMUSerif-Roman-6c" x="258.699951"/>
      <use xlink:href="#CMUSerif-Roman-6f" x="286.399948"/>
      <use xlink:href="#CMUSerif-Roman-70" x="336.399933"/>
      <use xlink:href="#CMUSerif-Roman-65" x="391.899918"/>
     </g>
    </g>
   </g>
   <g id="line2d_20">
    <path d="M 209.763686 10.219148 
L 216.281385 11.960866 
L 222.799083 15.75563 
L 229.316782 21.166739 
L 235.83448 27.752225 
L 242.352179 35.1944 
L 248.869877 43.337087 
L 255.387576 52.079059 
L 261.905275 61.155378 
L 268.422973 70.602102 
" clip-path="url(#pe3e4397bb0)" style="fill: none; stroke: #808080; stroke-width: 1.5; stroke-linecap: square"/>
   </g>
   <g id="LineCollection_1">
    <path d="M 243.655719 57.726133 
L 243.655719 18.349203 
" clip-path="url(#pe3e4397bb0)" style="fill: none; stroke-dasharray: 5.55,2.4; stroke-dashoffset: 0; stroke: #000000; stroke-width: 1.5"/>
   </g>
   <g id="LineCollection_2">
    <path d="M 251.476957 57.726133 
L 251.476957 18.349203 
" clip-path="url(#pe3e4397bb0)" style="fill: none; stroke-dasharray: 5.55,2.4; stroke-dashoffset: 0; stroke: #000000; stroke-width: 1.5"/>
   </g>
   <g id="patch_6">
    <path d="M 206.830722 73.62125 
L 206.830722 7.2 
" style="fill: none; stroke: #000000; stroke-width: 0.8; stroke-linejoin: miter; stroke-linecap: square"/>
   </g>
   <g id="patch_7">
    <path d="M 206.830722 73.62125 
L 271.355937 73.62125 
" style="fill: none; stroke: #000000; stroke-width: 0.8; stroke-linejoin: miter; stroke-linecap: square"/>
   </g>
  </g>
 </g>
 <defs>
  <clipPath id="pe9bf277b08">
   <rect x="67.084688" y="7.2" width="64.525216" height="66.42125"/>
  </clipPath>
  <clipPath id="pe3e4397bb0">
   <rect x="206.830722" y="7.2" width="64.525216" height="66.42125"/>
  </clipPath>
 </defs>
</svg>
