<?xml version="1.0" encoding="utf-8" standalone="no"?>
<!DOCTYPE svg PUBLIC "-//W3C//DTD SVG 1.1//EN"
  "http://www.w3.org/Graphics/SVG/1.1/DTD/svg11.dtd">
<svg xmlns:xlink="http://www.w3.org/1999/xlink" width="474.893656pt" height="114.757031pt" viewBox="0 0 474.893656 114.757031" xmlns="http://www.w3.org/2000/svg" version="1.1">
 <metadata>
  <rdf:RDF xmlns:dc="http://purl.org/dc/elements/1.1/" xmlns:cc="http://creativecommons.org/ns#" xmlns:rdf="http://www.w3.org/1999/02/22-rdf-syntax-ns#">
   <cc:Work>
    <dc:type rdf:resource="http://purl.org/dc/dcmitype/StillImage"/>
    <dc:date>2022-08-03T13:41:43.430196</dc:date>
    <dc:format>image/svg+xml</dc:format>
    <dc:creator>
     <cc:Agent>
      <dc:title>Matplotlib v3.5.1, https://matplotlib.org/</dc:title>
     </cc:Agent>
    </dc:creator>
   </cc:Work>
  </rdf:RDF>
 </metadata>
 <defs>
  <style type="text/css">*{stroke-linejoin: round; stroke-linecap: butt}</style>
 </defs>
 <g id="figure_1">
  <g id="patch_1">
   <path d="M 0 114.757031 
L 474.893656 114.757031 
L 474.893656 0 
L 0 0 
L 0 114.757031 
z
" style="fill: none"/>
  </g>
  <g id="axes_1">
   <g id="patch_2">
    <path d="M 28.257656 75.787656 
L 85.651942 75.787656 
L 85.651942 21.427656 
L 28.257656 21.427656 
z
" style="fill: #ffffff"/>
   </g>
   <g id="matplotlib.axis_1">
    <g id="xtick_1">
     <g id="line2d_1">
      <defs>
       <path id="mf26ed1d137" d="M 0 0 
L 0 3.5 
" style="stroke: #000000; stroke-width: 0.8"/>
      </defs>
      <g>
       <use xlink:href="#mf26ed1d137" x="30.866487" y="75.787656" style="stroke: #000000; stroke-width: 0.8"/>
      </g>
     </g>
     <g id="text_1">
      <!-- 0 -->
      <g transform="translate(28.116487 90.422344)scale(0.11 -0.11)">
       <defs>
        <path id="CMUSerif-Roman-30" d="M 250 2048 
Q 250 2989 486 3501 
Q 819 4262 1600 4262 
Q 1766 4262 1939 4217 
Q 2112 4173 2333 4000 
Q 2554 3827 2688 3546 
Q 2944 3002 2944 2048 
Q 2944 1114 2707 602 
Q 2362 -141 1594 -141 
Q 1306 -141 1014 6 
Q 723 154 538 506 
Q 250 1037 250 2048 
z
M 781 2125 
Q 781 1158 851 774 
Q 928 358 1142 179 
Q 1357 0 1594 0 
Q 1850 0 2064 192 
Q 2278 384 2342 800 
Q 2413 1210 2413 2125 
Q 2413 3014 2349 3373 
Q 2266 3789 2042 3955 
Q 1818 4122 1594 4122 
Q 1510 4122 1420 4096 
Q 1331 4070 1203 4000 
Q 1075 3930 976 3750 
Q 877 3571 832 3302 
Q 781 2957 781 2125 
z
" transform="scale(0.015625)"/>
       </defs>
       <use xlink:href="#CMUSerif-Roman-30"/>
      </g>
     </g>
    </g>
    <g id="xtick_2">
     <g id="line2d_2">
      <g>
       <use xlink:href="#mf26ed1d137" x="65.674108" y="75.787656" style="stroke: #000000; stroke-width: 0.8"/>
      </g>
     </g>
     <g id="text_2">
      <!-- 1000 -->
      <g transform="translate(54.674108 90.422344)scale(0.11 -0.11)">
       <defs>
        <path id="CMUSerif-Roman-31" d="M 570 3654 
L 570 3853 
Q 1338 3853 1734 4262 
Q 1843 4262 1862 4236 
Q 1882 4211 1882 4096 
L 1882 506 
Q 1882 314 1974 256 
Q 2067 198 2477 198 
L 2682 198 
L 2682 0 
Q 2458 19 1645 19 
Q 832 19 608 0 
L 608 198 
L 813 198 
Q 1216 198 1312 256 
Q 1408 314 1408 506 
L 1408 3821 
Q 1075 3654 570 3654 
z
" transform="scale(0.015625)"/>
       </defs>
       <use xlink:href="#CMUSerif-Roman-31"/>
       <use xlink:href="#CMUSerif-Roman-30" x="49.999985"/>
       <use xlink:href="#CMUSerif-Roman-30" x="99.999969"/>
       <use xlink:href="#CMUSerif-Roman-30" x="149.999954"/>
      </g>
     </g>
    </g>
    <g id="text_3">
     <!-- time [ms] -->
     <g transform="translate(34.635971 104.807031)scale(0.11 -0.11)">
      <defs>
       <path id="CMUSerif-Roman-74" d="M 122 2560 
L 122 2701 
Q 416 2714 611 2922 
Q 806 3130 873 3386 
Q 941 3642 947 3936 
L 1107 3936 
L 1107 2758 
L 2022 2758 
L 2022 2560 
L 1107 2560 
L 1107 781 
Q 1107 90 1536 90 
Q 1722 90 1843 278 
Q 1965 467 1965 806 
L 1965 1158 
L 2125 1158 
L 2125 794 
Q 2125 448 1965 189 
Q 1805 -70 1491 -70 
Q 1376 -70 1261 -41 
Q 1146 -13 998 64 
Q 851 141 758 329 
Q 666 518 666 794 
L 666 2560 
L 122 2560 
z
" transform="scale(0.015625)"/>
       <path id="CMUSerif-Roman-69" d="M 211 0 
L 211 198 
Q 550 198 630 240 
Q 710 282 710 486 
L 710 2208 
Q 710 2445 630 2502 
Q 550 2560 237 2560 
L 237 2758 
L 1133 2829 
L 1133 480 
Q 1133 288 1200 243 
Q 1267 198 1581 198 
L 1581 0 
Q 928 19 915 19 
Q 826 19 211 0 
z
M 480 3942 
Q 480 4070 579 4176 
Q 678 4282 819 4282 
Q 960 4282 1059 4186 
Q 1158 4090 1158 3942 
Q 1158 3795 1059 3699 
Q 960 3603 819 3603 
Q 672 3603 576 3705 
Q 480 3808 480 3942 
z
" transform="scale(0.015625)"/>
       <path id="CMUSerif-Roman-6d" d="M 205 0 
L 205 198 
Q 544 198 624 240 
Q 704 282 704 486 
L 704 2202 
Q 704 2438 621 2499 
Q 538 2560 205 2560 
L 205 2758 
L 1107 2829 
L 1107 2157 
Q 1408 2829 2054 2829 
Q 2803 2829 2906 2202 
Q 3014 2445 3244 2637 
Q 3475 2829 3834 2829 
Q 4314 2829 4506 2592 
Q 4646 2432 4675 2253 
Q 4704 2074 4704 1613 
L 4704 390 
Q 4710 256 4812 227 
Q 4915 198 5203 198 
L 5203 0 
Q 4550 19 4486 19 
Q 4435 19 3763 0 
L 3763 198 
Q 4102 198 4182 240 
Q 4262 282 4262 486 
L 4262 1978 
Q 4262 2304 4163 2496 
Q 4064 2688 3789 2688 
Q 3456 2688 3190 2409 
Q 2925 2131 2925 1664 
L 2925 486 
Q 2925 282 3005 240 
Q 3085 198 3424 198 
L 3424 0 
Q 2771 19 2707 19 
Q 2656 19 1984 0 
L 1984 198 
Q 2323 198 2403 240 
Q 2483 282 2483 486 
L 2483 1978 
Q 2483 2304 2384 2496 
Q 2285 2688 2010 2688 
Q 1677 2688 1411 2409 
Q 1146 2131 1146 1664 
L 1146 486 
Q 1146 282 1226 240 
Q 1306 198 1645 198 
L 1645 0 
Q 992 19 928 19 
Q 877 19 205 0 
z
" transform="scale(0.015625)"/>
       <path id="CMUSerif-Roman-65" d="M 179 1408 
Q 179 2010 566 2438 
Q 954 2867 1510 2867 
Q 2074 2867 2365 2502 
Q 2656 2138 2656 1613 
Q 2656 1517 2630 1497 
Q 2605 1478 2496 1478 
L 710 1478 
Q 710 826 902 518 
Q 1171 90 1626 90 
Q 1690 90 1763 102 
Q 1837 115 1990 169 
Q 2144 224 2278 371 
Q 2413 518 2490 749 
Q 2509 838 2573 838 
Q 2656 838 2656 762 
Q 2656 704 2595 579 
Q 2534 454 2419 304 
Q 2304 154 2080 42 
Q 1856 -70 1587 -70 
Q 1024 -70 601 355 
Q 179 781 179 1408 
z
M 717 1613 
L 2234 1613 
Q 2234 1747 2211 1897 
Q 2189 2048 2121 2256 
Q 2054 2464 1897 2595 
Q 1741 2726 1510 2726 
Q 1408 2726 1296 2681 
Q 1184 2637 1049 2531 
Q 915 2426 822 2186 
Q 730 1946 717 1613 
z
" transform="scale(0.015625)"/>
       <path id="CMUSerif-Roman-20" transform="scale(0.015625)"/>
       <path id="CMUSerif-Roman-5b" d="M 666 -1600 
L 666 4800 
L 1632 4800 
L 1632 4653 
L 1094 4653 
L 1094 -1453 
L 1632 -1453 
L 1632 -1600 
L 666 -1600 
z
" transform="scale(0.015625)"/>
       <path id="CMUSerif-Roman-73" d="M 211 83 
L 211 928 
Q 211 998 214 1024 
Q 218 1050 237 1069 
Q 256 1088 294 1088 
Q 339 1088 355 1069 
Q 371 1050 384 979 
Q 480 538 688 304 
Q 896 70 1274 70 
Q 1632 70 1814 230 
Q 1997 390 1997 653 
Q 1997 1120 1331 1242 
Q 947 1318 787 1369 
Q 627 1421 486 1536 
Q 211 1760 211 2080 
Q 211 2400 454 2633 
Q 698 2867 1235 2867 
Q 1594 2867 1837 2688 
Q 1907 2746 1946 2790 
Q 2029 2867 2074 2867 
Q 2125 2867 2134 2835 
Q 2144 2803 2144 2714 
L 2144 2067 
Q 2144 1997 2141 1971 
Q 2138 1946 2118 1930 
Q 2099 1914 2061 1914 
Q 1990 1914 1984 1971 
Q 1933 2746 1235 2746 
Q 858 2746 688 2602 
Q 518 2458 518 2259 
Q 518 2150 569 2067 
Q 621 1984 688 1936 
Q 755 1888 880 1843 
Q 1005 1798 1081 1782 
Q 1158 1766 1306 1734 
Q 1818 1638 2035 1427 
Q 2304 1158 2304 819 
Q 2304 442 2048 186 
Q 1792 -70 1274 -70 
Q 858 -70 570 205 
Q 531 166 502 134 
Q 474 102 464 89 
Q 454 77 451 70 
Q 448 64 442 58 
Q 314 -70 282 -70 
Q 230 -70 220 -38 
Q 211 -6 211 83 
z
" transform="scale(0.015625)"/>
       <path id="CMUSerif-Roman-5d" d="M 134 -1453 
L 672 -1453 
L 672 4653 
L 134 4653 
L 134 4800 
L 1101 4800 
L 1101 -1600 
L 134 -1600 
L 134 -1453 
z
" transform="scale(0.015625)"/>
      </defs>
      <use xlink:href="#CMUSerif-Roman-74"/>
      <use xlink:href="#CMUSerif-Roman-69" x="38.799988"/>
      <use xlink:href="#CMUSerif-Roman-6d" x="66.499985"/>
      <use xlink:href="#CMUSerif-Roman-65" x="149.799973"/>
      <use xlink:href="#CMUSerif-Roman-20" x="194.199966"/>
      <use xlink:href="#CMUSerif-Roman-5b" x="227.499954"/>
      <use xlink:href="#CMUSerif-Roman-6d" x="255.299942"/>
      <use xlink:href="#CMUSerif-Roman-73" x="338.59993"/>
      <use xlink:href="#CMUSerif-Roman-5d" x="377.999924"/>
     </g>
    </g>
   </g>
   <g id="matplotlib.axis_2">
    <g id="ytick_1">
     <g id="line2d_3">
      <defs>
       <path id="m80116416a8" d="M 0 0 
L -3.5 0 
" style="stroke: #000000; stroke-width: 0.8"/>
      </defs>
      <g>
       <use xlink:href="#m80116416a8" x="28.257656" y="73.316747" style="stroke: #000000; stroke-width: 0.8"/>
      </g>
     </g>
     <g id="text_4">
      <!-- 0.7 -->
      <g transform="translate(7.2 77.134091)scale(0.11 -0.11)">
       <defs>
        <path id="CMUSerif-Roman-2e" d="M 640 102 
Q 544 205 544 339 
Q 544 474 640 573 
Q 736 672 883 672 
Q 1024 672 1120 579 
Q 1216 486 1216 339 
Q 1216 192 1113 96 
Q 1011 0 883 0 
Q 736 0 640 102 
z
" transform="scale(0.015625)"/>
        <path id="CMUSerif-Roman-37" d="M 358 3008 
L 570 4326 
L 730 4326 
Q 749 4250 781 4214 
Q 813 4179 995 4150 
Q 1178 4122 1549 4122 
L 3104 4122 
Q 3104 3974 3046 3898 
L 2182 2682 
Q 1907 2298 1786 1587 
Q 1715 1114 1715 538 
L 1715 211 
Q 1715 -141 1420 -141 
Q 1126 -141 1126 211 
Q 1126 1434 1914 2618 
Q 1997 2739 2307 3174 
Q 2618 3610 2630 3629 
L 1306 3629 
Q 723 3629 678 3590 
Q 614 3533 518 3008 
L 358 3008 
z
" transform="scale(0.015625)"/>
       </defs>
       <use xlink:href="#CMUSerif-Roman-30"/>
       <use xlink:href="#CMUSerif-Roman-2e" x="49.999985"/>
       <use xlink:href="#CMUSerif-Roman-37" x="77.799973"/>
      </g>
     </g>
    </g>
    <g id="ytick_2">
     <g id="line2d_4">
      <g>
       <use xlink:href="#m80116416a8" x="28.257656" y="54.288359" style="stroke: #000000; stroke-width: 0.8"/>
      </g>
     </g>
     <g id="text_5">
      <!-- 0.8 -->
      <g transform="translate(7.2 58.105703)scale(0.11 -0.11)">
       <defs>
        <path id="CMUSerif-Roman-38" d="M 269 966 
Q 269 1683 1190 2144 
Q 794 2413 723 2490 
Q 442 2803 442 3194 
Q 442 3642 781 3952 
Q 1120 4262 1600 4262 
Q 2061 4262 2406 3996 
Q 2752 3731 2752 3309 
Q 2752 2714 1978 2317 
Q 2490 1997 2611 1862 
Q 2925 1517 2925 1075 
Q 2925 563 2531 211 
Q 2138 -141 1594 -141 
Q 1062 -141 665 169 
Q 269 480 269 966 
z
M 589 966 
Q 589 570 886 304 
Q 1184 38 1600 38 
Q 2003 38 2304 268 
Q 2605 499 2605 845 
Q 2605 979 2560 1094 
Q 2515 1210 2425 1302 
Q 2336 1395 2281 1436 
Q 2227 1478 2125 1549 
L 1338 2048 
Q 589 1632 589 966 
z
M 723 3443 
Q 723 3136 1043 2925 
L 1837 2413 
Q 2470 2784 2470 3309 
Q 2470 3648 2211 3875 
Q 1952 4102 1594 4102 
Q 1242 4102 982 3916 
Q 723 3731 723 3443 
z
" transform="scale(0.015625)"/>
       </defs>
       <use xlink:href="#CMUSerif-Roman-30"/>
       <use xlink:href="#CMUSerif-Roman-2e" x="49.999985"/>
       <use xlink:href="#CMUSerif-Roman-38" x="77.799973"/>
      </g>
     </g>
    </g>
    <g id="ytick_3">
     <g id="line2d_5">
      <g>
       <use xlink:href="#m80116416a8" x="28.257656" y="35.259972" style="stroke: #000000; stroke-width: 0.8"/>
      </g>
     </g>
     <g id="text_6">
      <!-- 0.9 -->
      <g transform="translate(7.2 39.077316)scale(0.11 -0.11)">
       <defs>
        <path id="CMUSerif-Roman-39" d="M 269 2822 
Q 269 3162 368 3395 
Q 467 3629 678 3859 
Q 1062 4262 1619 4262 
Q 1856 4262 2067 4163 
Q 2278 4064 2480 3837 
Q 2682 3610 2803 3165 
Q 2925 2720 2925 2106 
Q 2925 1114 2445 486 
Q 1965 -141 1318 -141 
Q 909 -141 669 44 
Q 429 230 429 550 
Q 429 717 521 787 
Q 614 858 723 858 
Q 838 858 928 781 
Q 1018 704 1018 563 
Q 1018 448 944 358 
Q 870 269 685 269 
Q 870 38 1312 38 
Q 1472 38 1632 112 
Q 1792 186 1965 365 
Q 2138 544 2243 921 
Q 2349 1299 2349 1830 
L 2349 2035 
Q 2093 1395 1549 1395 
Q 1011 1395 640 1808 
Q 269 2221 269 2822 
z
M 845 2816 
Q 845 2182 960 1946 
Q 1158 1542 1555 1542 
Q 1946 1542 2141 1891 
Q 2336 2240 2336 2694 
Q 2336 3322 2234 3597 
Q 2042 4102 1619 4102 
Q 1197 4102 979 3699 
Q 845 3462 845 2816 
z
" transform="scale(0.015625)"/>
       </defs>
       <use xlink:href="#CMUSerif-Roman-30"/>
       <use xlink:href="#CMUSerif-Roman-2e" x="49.999985"/>
       <use xlink:href="#CMUSerif-Roman-39" x="77.799973"/>
      </g>
     </g>
    </g>
   </g>
   <g id="line2d_6">
    <path d="M 30.866487 73.316747 
L 31.771486 66.497401 
L 32.746099 60.824706 
L 33.825135 55.840211 
L 35.008594 51.415491 
L 36.261669 47.573858 
L 37.549551 44.315259 
L 38.87224 41.554661 
L 40.229737 39.232109 
L 41.587235 37.340469 
L 42.979539 35.771682 
L 44.441459 34.456695 
L 45.972995 33.374024 
L 47.643761 32.465061 
L 49.488564 31.715232 
L 51.611829 31.09641 
L 54.152786 30.597078 
L 57.320279 30.213773 
L 61.566809 29.93996 
L 68.006219 29.770618 
L 80.954654 29.697129 
L 83.043111 29.694498 
L 83.043111 29.694498 
" clip-path="url(#p250699b4da)" style="fill: none; stroke: #00d4ff; stroke-opacity: 0.8; stroke-width: 1.5; stroke-linecap: square"/>
   </g>
   <g id="line2d_7">
    <path d="M 30.866487 73.316747 
L 31.70187 65.765142 
L 32.606868 59.586838 
L 33.581482 54.450404 
L 34.660518 49.962766 
L 35.80917 46.12153 
L 37.027436 42.800315 
L 38.315318 39.927643 
L 39.638008 37.518168 
L 40.995505 35.507651 
L 42.38781 33.843581 
L 43.814922 32.479146 
L 45.346458 31.324806 
L 46.982416 30.372645 
L 48.792412 29.580262 
L 50.846062 28.929178 
L 53.247788 28.405936 
L 56.206435 27.996384 
L 60.104889 27.69437 
L 65.778531 27.497663 
L 76.046779 27.399594 
L 83.043111 27.385572 
L 83.043111 27.385572 
" clip-path="url(#p250699b4da)" style="fill: none; stroke: #0cf4eb; stroke-opacity: 0.8; stroke-width: 1.5; stroke-linecap: square"/>
   </g>
   <g id="line2d_8">
    <path d="M 30.866487 73.316747 
L 31.667063 65.114555 
L 32.502446 58.702601 
L 33.407444 53.415406 
L 34.382057 48.99703 
L 35.461093 45.128805 
L 36.609745 41.819645 
L 37.828012 38.964453 
L 39.115894 36.501059 
L 40.438583 34.439336 
L 41.79608 32.721455 
L 43.223193 31.26878 
L 44.71992 30.059826 
L 46.321071 29.050844 
L 48.09626 28.200191 
L 50.080294 27.50176 
L 52.377597 26.934289 
L 55.162207 26.483654 
L 58.712584 26.144936 
L 63.655266 25.91203 
L 71.765442 25.779654 
L 83.043111 25.741685 
L 83.043111 25.741685 
" clip-path="url(#p250699b4da)" style="fill: none; stroke: #29ffce; stroke-opacity: 0.8; stroke-width: 1.5; stroke-linecap: square"/>
   </g>
   <g id="line2d_9">
    <path d="M 30.866487 73.316747 
L 31.667063 64.379588 
L 32.502446 57.493196 
L 33.372636 52.130963 
L 34.312442 47.718256 
L 35.321863 44.029441 
L 36.435707 40.799642 
L 37.619166 38.034494 
L 38.87224 35.649511 
L 40.19493 33.594404 
L 41.587235 31.836808 
L 43.049155 30.351405 
L 44.58069 29.113991 
L 46.216648 28.079767 
L 47.991837 27.221007 
L 49.975871 26.508787 
L 52.273174 25.923568 
L 55.057784 25.452735 
L 58.573353 25.095776 
L 63.376805 24.846604 
L 70.999674 24.698993 
L 83.043111 24.648455 
L 83.043111 24.648455 
" clip-path="url(#p250699b4da)" style="fill: none; stroke: #43ffb4; stroke-opacity: 0.8; stroke-width: 1.5; stroke-linecap: square"/>
   </g>
   <g id="line2d_10">
    <path d="M 30.866487 73.316747 
L 31.667063 63.795855 
L 32.467638 56.781508 
L 33.303021 51.34978 
L 34.173211 47.08854 
L 35.113017 43.551997 
L 36.157246 40.478353 
L 37.305897 37.788855 
L 38.558972 35.421457 
L 39.881661 33.38628 
L 41.308774 31.597117 
L 42.805501 30.078991 
L 44.371844 28.80564 
L 46.04261 27.732863 
L 47.852606 26.834211 
L 49.871448 26.081784 
L 52.203559 25.456827 
L 54.953361 24.957495 
L 58.399315 24.569138 
L 62.993921 24.290426 
L 69.88583 24.116217 
L 83.043111 24.038525 
L 83.043111 24.038525 
" clip-path="url(#p250699b4da)" style="fill: none; stroke: #60ff97; stroke-opacity: 0.8; stroke-width: 1.5; stroke-linecap: square"/>
   </g>
   <g id="line2d_11">
    <path d="M 30.866487 73.316747 
L 31.667063 63.331199 
L 32.467638 55.999719 
L 33.268213 50.60438 
L 34.103596 46.414971 
L 35.008594 42.996336 
L 35.983208 40.17178 
L 37.062244 37.718575 
L 38.280511 35.506757 
L 39.6032 33.560125 
L 41.06512 31.803524 
L 42.631463 30.271322 
L 44.302229 28.952283 
L 46.077418 27.837208 
L 47.991837 26.899005 
L 50.115102 26.109725 
L 52.516827 25.458182 
L 55.336245 24.92907 
L 58.817007 24.512083 
L 63.341997 24.206444 
L 69.88583 24.005414 
L 81.546383 23.90302 
L 83.043111 23.898565 
L 83.043111 23.898565 
" clip-path="url(#p250699b4da)" style="fill: none; stroke: #7dff7a; stroke-opacity: 0.8; stroke-width: 1.5; stroke-linecap: square"/>
   </g>
   <g id="line2d_12">
    <path d="M 30.866487 73.316747 
L 31.667063 62.96007 
L 32.467638 55.351712 
L 33.268213 49.810134 
L 34.068789 45.747909 
L 34.904171 42.597466 
L 35.80917 40.0248 
L 36.818591 37.826321 
L 37.932434 35.925162 
L 39.220316 34.164802 
L 40.682236 32.540903 
L 42.318195 31.053316 
L 44.093383 29.735051 
L 46.007802 28.586545 
L 48.09626 27.594181 
L 50.393563 26.753221 
L 52.969327 26.052425 
L 55.962782 25.476337 
L 59.547967 25.021092 
L 64.107765 24.676858 
L 70.407944 24.439371 
L 80.606577 24.3031 
L 83.043111 24.289877 
L 83.043111 24.289877 
" clip-path="url(#p250699b4da)" style="fill: none; stroke: #97ff60; stroke-opacity: 0.8; stroke-width: 1.5; stroke-linecap: square"/>
   </g>
   <g id="line2d_13">
    <path d="M 30.866487 73.316747 
L 31.70187 62.267769 
L 32.502446 54.517687 
L 33.268213 49.116499 
L 34.033981 45.171525 
L 34.834556 42.156176 
L 35.669939 39.840737 
L 36.574937 37.968792 
L 37.584358 36.383556 
L 38.767817 34.944758 
L 40.160122 33.604165 
L 41.865696 32.278063 
L 43.84973 31.020087 
L 46.077418 29.870474 
L 48.513951 28.862466 
L 51.194138 27.995899 
L 54.187593 27.265824 
L 57.633548 26.661561 
L 61.706039 26.180511 
L 66.82276 25.810724 
L 73.714668 25.55009 
L 83.043111 25.403523 
L 83.043111 25.403523 
" clip-path="url(#p250699b4da)" style="fill: none; stroke: #b4ff43; stroke-opacity: 0.8; stroke-width: 1.5; stroke-linecap: square"/>
   </g>
   <g id="line2d_14">
    <path d="M 30.866487 73.316747 
L 31.70187 62.019436 
L 32.502446 54.043984 
L 33.268213 48.493268 
L 34.033981 44.488738 
L 34.799749 41.615229 
L 35.600324 39.463395 
L 36.435707 37.851849 
L 37.340705 36.587476 
L 38.384933 35.521859 
L 39.638008 34.575311 
L 41.239158 33.658984 
L 43.397231 32.6963 
L 46.216648 31.693545 
L 49.55818 30.746449 
L 53.282595 29.925181 
L 57.45951 29.235943 
L 62.297769 28.670258 
L 68.110642 28.224144 
L 75.489857 27.892048 
L 83.043111 27.709444 
L 83.043111 27.709444 
" clip-path="url(#p250699b4da)" style="fill: none; stroke: #ceff29; stroke-opacity: 0.8; stroke-width: 1.5; stroke-linecap: square"/>
   </g>
   <g id="line2d_15">
    <path d="M 30.866487 73.316747 
L 31.70187 61.820887 
L 32.502446 53.638509 
L 33.268213 47.925206 
L 34.033981 43.827901 
L 34.764941 41.052904 
L 35.495901 39.088463 
L 36.261669 37.649436 
L 37.062244 36.613235 
L 37.932434 35.849166 
L 38.941855 35.263479 
L 40.19493 34.800784 
L 41.970118 34.401954 
L 44.859151 34.010863 
L 50.393563 33.518054 
L 58.851814 32.991303 
L 69.259293 32.572855 
L 82.695035 32.267123 
L 83.043111 32.261587 
L 83.043111 32.261587 
" clip-path="url(#p250699b4da)" style="fill: none; stroke: #ebff0c; stroke-opacity: 0.8; stroke-width: 1.5; stroke-linecap: square"/>
   </g>
   <g id="patch_3">
    <path d="M 28.257656 75.787656 
L 28.257656 21.427656 
" style="fill: none; stroke: #000000; stroke-width: 0.8; stroke-linejoin: miter; stroke-linecap: square"/>
   </g>
   <g id="patch_4">
    <path d="M 28.257656 75.787656 
L 85.651942 75.787656 
" style="fill: none; stroke: #000000; stroke-width: 0.8; stroke-linejoin: miter; stroke-linecap: square"/>
   </g>
   <g id="text_7">
    <!-- du/dt -->
    <g transform="translate(42.913471 15.427656)scale(0.11 -0.11)">
     <defs>
      <path id="CMUSerif-Roman-64" d="M 218 1376 
Q 218 1984 643 2406 
Q 1069 2829 1645 2829 
Q 2131 2829 2451 2432 
L 2451 3814 
Q 2451 4051 2368 4112 
Q 2285 4173 1952 4173 
L 1952 4371 
L 2874 4442 
L 2874 557 
Q 2874 320 2957 259 
Q 3040 198 3373 198 
L 3373 0 
L 2432 -70 
L 2432 352 
Q 2099 -70 1574 -70 
Q 1024 -70 621 352 
Q 218 774 218 1376 
z
M 749 1370 
Q 749 774 934 480 
Q 1190 70 1606 70 
Q 2080 70 2362 518 
Q 2432 627 2432 755 
L 2432 2067 
Q 2432 2195 2362 2304 
Q 2099 2688 1670 2688 
Q 1222 2688 947 2278 
Q 749 1971 749 1370 
z
" transform="scale(0.015625)"/>
      <path id="CMUSerif-Roman-75" d="M 205 2560 
L 205 2758 
L 1146 2829 
L 1146 704 
Q 1146 550 1158 460 
Q 1171 371 1222 268 
Q 1274 166 1395 118 
Q 1517 70 1709 70 
Q 2054 70 2268 355 
Q 2483 640 2483 1062 
L 2483 2202 
Q 2483 2438 2400 2499 
Q 2317 2560 1984 2560 
L 1984 2758 
L 2925 2829 
L 2925 557 
Q 2925 320 3008 259 
Q 3091 198 3424 198 
L 3424 0 
L 2502 -70 
L 2502 506 
Q 2234 -70 1677 -70 
Q 1395 -70 1203 0 
Q 1011 70 915 160 
Q 819 250 768 422 
Q 717 595 710 700 
Q 704 806 704 1011 
L 704 1971 
Q 704 2406 640 2483 
Q 576 2560 205 2560 
z
" transform="scale(0.015625)"/>
      <path id="CMUSerif-Roman-2f" d="M 365 -1510 
Q 365 -1478 390 -1408 
L 2650 4627 
Q 2650 4634 2666 4669 
Q 2682 4704 2691 4726 
Q 2701 4749 2720 4768 
Q 2739 4787 2765 4787 
Q 2829 4787 2829 4710 
Q 2829 4704 2810 4627 
L 544 -1414 
Q 506 -1523 483 -1555 
Q 461 -1587 422 -1587 
Q 365 -1587 365 -1510 
z
" transform="scale(0.015625)"/>
     </defs>
     <use xlink:href="#CMUSerif-Roman-64"/>
     <use xlink:href="#CMUSerif-Roman-75" x="55.499985"/>
     <use xlink:href="#CMUSerif-Roman-2f" x="110.999969"/>
     <use xlink:href="#CMUSerif-Roman-64" x="160.999954"/>
     <use xlink:href="#CMUSerif-Roman-74" x="216.499939"/>
    </g>
   </g>
  </g>
  <g id="axes_2">
   <g id="patch_5">
    <path d="M 143.046228 75.787656 
L 200.440513 75.787656 
L 200.440513 21.427656 
L 143.046228 21.427656 
z
" style="fill: #ffffff"/>
   </g>
   <g id="matplotlib.axis_3">
    <g id="xtick_3">
     <g id="line2d_16">
      <g>
       <use xlink:href="#mf26ed1d137" x="145.655059" y="75.787656" style="stroke: #000000; stroke-width: 0.8"/>
      </g>
     </g>
     <g id="text_8">
      <!-- 0 -->
      <g transform="translate(142.905059 90.422344)scale(0.11 -0.11)">
       <use xlink:href="#CMUSerif-Roman-30"/>
      </g>
     </g>
    </g>
    <g id="xtick_4">
     <g id="line2d_17">
      <g>
       <use xlink:href="#mf26ed1d137" x="180.46268" y="75.787656" style="stroke: #000000; stroke-width: 0.8"/>
      </g>
     </g>
     <g id="text_9">
      <!-- 1000 -->
      <g transform="translate(169.46268 90.422344)scale(0.11 -0.11)">
       <use xlink:href="#CMUSerif-Roman-31"/>
       <use xlink:href="#CMUSerif-Roman-30" x="49.999985"/>
       <use xlink:href="#CMUSerif-Roman-30" x="99.999969"/>
       <use xlink:href="#CMUSerif-Roman-30" x="149.999954"/>
      </g>
     </g>
    </g>
    <g id="text_10">
     <!-- time [ms] -->
     <g transform="translate(149.424542 104.807031)scale(0.11 -0.11)">
      <use xlink:href="#CMUSerif-Roman-74"/>
      <use xlink:href="#CMUSerif-Roman-69" x="38.799988"/>
      <use xlink:href="#CMUSerif-Roman-6d" x="66.499985"/>
      <use xlink:href="#CMUSerif-Roman-65" x="149.799973"/>
      <use xlink:href="#CMUSerif-Roman-20" x="194.199966"/>
      <use xlink:href="#CMUSerif-Roman-5b" x="227.499954"/>
      <use xlink:href="#CMUSerif-Roman-6d" x="255.299942"/>
      <use xlink:href="#CMUSerif-Roman-73" x="338.59993"/>
      <use xlink:href="#CMUSerif-Roman-5d" x="377.999924"/>
     </g>
    </g>
   </g>
   <g id="matplotlib.axis_4">
    <g id="ytick_4">
     <g id="line2d_18">
      <g>
       <use xlink:href="#m80116416a8" x="143.046228" y="55.544135" style="stroke: #000000; stroke-width: 0.8"/>
      </g>
     </g>
     <g id="text_11">
      <!-- 0.25 -->
      <g transform="translate(116.488571 59.361479)scale(0.11 -0.11)">
       <defs>
        <path id="CMUSerif-Roman-32" d="M 320 0 
Q 320 115 329 150 
Q 339 186 390 237 
L 1619 1606 
Q 2291 2362 2291 3021 
Q 2291 3450 2067 3757 
Q 1843 4064 1434 4064 
Q 1152 4064 915 3891 
Q 678 3718 570 3411 
Q 589 3418 653 3418 
Q 813 3418 902 3318 
Q 992 3219 992 3085 
Q 992 2912 880 2829 
Q 768 2746 659 2746 
Q 614 2746 556 2755 
Q 499 2765 409 2854 
Q 320 2944 320 3104 
Q 320 3552 659 3907 
Q 998 4262 1517 4262 
Q 2106 4262 2490 3913 
Q 2874 3565 2874 3021 
Q 2874 2829 2816 2656 
Q 2758 2483 2681 2348 
Q 2605 2214 2400 2000 
Q 2195 1786 2028 1632 
Q 1862 1478 1491 1152 
L 813 493 
L 1965 493 
Q 2528 493 2573 544 
Q 2637 634 2714 1114 
L 2874 1114 
L 2694 0 
L 320 0 
z
" transform="scale(0.015625)"/>
        <path id="CMUSerif-Roman-35" d="M 320 1030 
Q 320 1222 422 1296 
Q 525 1370 634 1370 
Q 781 1370 867 1277 
Q 954 1184 954 1056 
Q 954 928 867 835 
Q 781 742 634 742 
Q 563 742 525 755 
Q 608 461 867 249 
Q 1126 38 1466 38 
Q 1894 38 2150 454 
Q 2304 723 2304 1331 
Q 2304 1869 2189 2138 
Q 2010 2547 1645 2547 
Q 1126 2547 819 2099 
Q 781 2042 736 2042 
Q 672 2042 659 2077 
Q 646 2112 646 2208 
L 646 4102 
Q 646 4256 710 4256 
Q 736 4256 787 4237 
Q 1190 4058 1638 4058 
Q 2099 4058 2509 4243 
Q 2541 4262 2560 4262 
Q 2624 4262 2624 4192 
Q 2624 4166 2573 4092 
Q 2522 4019 2413 3923 
Q 2304 3827 2163 3737 
Q 2022 3648 1817 3587 
Q 1613 3526 1389 3526 
Q 1120 3526 845 3610 
L 845 2362 
Q 1178 2688 1658 2688 
Q 2170 2688 2522 2275 
Q 2874 1862 2874 1286 
Q 2874 685 2458 272 
Q 2042 -141 1478 -141 
Q 966 -141 643 224 
Q 320 589 320 1030 
z
" transform="scale(0.015625)"/>
       </defs>
       <use xlink:href="#CMUSerif-Roman-30"/>
       <use xlink:href="#CMUSerif-Roman-2e" x="49.999985"/>
       <use xlink:href="#CMUSerif-Roman-32" x="77.799973"/>
       <use xlink:href="#CMUSerif-Roman-35" x="127.799957"/>
      </g>
     </g>
    </g>
    <g id="ytick_5">
     <g id="line2d_19">
      <g>
       <use xlink:href="#m80116416a8" x="143.046228" y="30.756431" style="stroke: #000000; stroke-width: 0.8"/>
      </g>
     </g>
     <g id="text_12">
      <!-- 0.50 -->
      <g transform="translate(116.488571 34.573775)scale(0.11 -0.11)">
       <use xlink:href="#CMUSerif-Roman-30"/>
       <use xlink:href="#CMUSerif-Roman-2e" x="49.999985"/>
       <use xlink:href="#CMUSerif-Roman-35" x="77.799973"/>
       <use xlink:href="#CMUSerif-Roman-30" x="127.799957"/>
      </g>
     </g>
    </g>
   </g>
   <g id="line2d_20">
    <path d="M 145.655059 60.501676 
L 146.107558 60.247592 
L 146.560057 60.240759 
L 147.116979 60.473386 
L 147.847939 61.043734 
L 148.99659 62.260377 
L 153.138697 66.860139 
L 154.844271 68.327237 
L 156.549844 69.503486 
L 158.325033 70.457896 
L 160.239452 71.235229 
L 162.397524 71.869658 
L 164.938481 72.378736 
L 168.071167 72.770234 
L 172.213273 73.051174 
L 178.40903 73.228166 
L 190.452467 73.30858 
L 197.831682 73.316747 
L 197.831682 73.316747 
" clip-path="url(#pb64222e6d8)" style="fill: none; stroke: #00d4ff; stroke-opacity: 0.8; stroke-width: 1.5; stroke-linecap: square"/>
   </g>
   <g id="line2d_21">
    <path d="M 145.655059 60.501676 
L 146.142366 59.549769 
L 146.629672 59.059387 
L 147.082171 58.905001 
L 147.569478 58.973586 
L 148.196015 59.311162 
L 149.066206 60.067858 
L 150.632549 61.790353 
L 153.382351 64.780927 
L 155.157539 66.367512 
L 156.863113 67.59937 
L 158.638301 68.607569 
L 160.55272 69.434521 
L 162.675985 70.104458 
L 165.147326 70.643473 
L 168.140782 71.060116 
L 172.039235 71.365832 
L 177.67807 71.56562 
L 187.77228 71.66599 
L 197.831682 71.683501 
L 197.831682 71.683501 
" clip-path="url(#pb64222e6d8)" style="fill: none; stroke: #0cf4eb; stroke-opacity: 0.8; stroke-width: 1.5; stroke-linecap: square"/>
   </g>
   <g id="line2d_22">
    <path d="M 145.655059 60.501676 
L 146.211981 58.56658 
L 146.734095 57.502732 
L 147.221402 56.980645 
L 147.673901 56.793363 
L 148.161208 56.826431 
L 148.752937 57.099221 
L 149.553512 57.730275 
L 150.876202 59.099153 
L 154.426579 62.866212 
L 156.201768 64.377035 
L 157.942149 65.572191 
L 159.752145 66.547622 
L 161.701372 67.345759 
L 163.894252 67.999845 
L 166.470016 68.527032 
L 169.602702 68.931333 
L 173.710001 69.224521 
L 179.731719 69.412281 
L 190.939773 69.502305 
L 197.831682 69.513162 
L 197.831682 69.513162 
" clip-path="url(#pb64222e6d8)" style="fill: none; stroke: #29ffce; stroke-opacity: 0.8; stroke-width: 1.5; stroke-linecap: square"/>
   </g>
   <g id="line2d_23">
    <path d="M 145.655059 60.501676 
L 146.246788 57.4366 
L 146.80371 55.637052 
L 147.325825 54.636191 
L 147.813131 54.137972 
L 148.300438 53.948675 
L 148.822552 53.996003 
L 149.449089 54.292513 
L 150.31928 54.978482 
L 151.7812 56.46719 
L 155.087924 59.871229 
L 156.932728 61.417349 
L 158.742724 62.643969 
L 160.622336 63.644538 
L 162.641178 64.461639 
L 164.868865 65.120802 
L 167.479437 65.654937 
L 170.64693 66.067651 
L 174.789037 66.370165 
L 180.775948 66.565873 
L 191.635926 66.663169 
L 197.831682 66.675632 
L 197.831682 66.675632 
" clip-path="url(#pb64222e6d8)" style="fill: none; stroke: #43ffb4; stroke-opacity: 0.8; stroke-width: 1.5; stroke-linecap: square"/>
   </g>
   <g id="line2d_24">
    <path d="M 145.655059 60.501676 
L 146.281596 56.130237 
L 146.873326 53.464559 
L 147.430248 51.890624 
L 147.952362 51.012669 
L 148.439669 50.576844 
L 148.926975 50.415531 
L 149.483897 50.47717 
L 150.145242 50.78862 
L 151.085048 51.507282 
L 152.686198 53.065303 
L 155.888499 56.179724 
L 157.802918 57.711819 
L 159.68253 58.934393 
L 161.631757 59.935492 
L 163.720214 60.755809 
L 166.052325 61.428608 
L 168.767319 61.972294 
L 172.039235 62.392437 
L 176.285765 62.701805 
L 182.377099 62.904765 
L 193.167461 63.008502 
L 197.831682 63.020598 
L 197.831682 63.020598 
" clip-path="url(#pb64222e6d8)" style="fill: none; stroke: #60ff97; stroke-opacity: 0.8; stroke-width: 1.5; stroke-linecap: square"/>
   </g>
   <g id="line2d_25">
    <path d="M 145.655059 60.501676 
L 146.316404 54.684331 
L 146.942941 51.037789 
L 147.53467 48.801554 
L 148.091592 47.474586 
L 148.648514 46.696429 
L 149.170629 46.331737 
L 149.692743 46.225464 
L 150.284472 46.330619 
L 151.05024 46.708711 
L 152.129276 47.513946 
L 154.356964 49.528192 
L 157.002343 51.805691 
L 159.055993 53.278846 
L 161.074835 54.455053 
L 163.163292 55.416165 
L 165.425787 56.212192 
L 167.966744 56.866853 
L 170.925391 57.393425 
L 174.545384 57.80256 
L 179.27922 58.100324 
L 186.171129 58.291667 
L 197.831682 58.381953 
L 197.831682 58.381953 
" clip-path="url(#pb64222e6d8)" style="fill: none; stroke: #7dff7a; stroke-opacity: 0.8; stroke-width: 1.5; stroke-linecap: square"/>
   </g>
   <g id="line2d_26">
    <path d="M 145.655059 60.501676 
L 146.316404 53.45245 
L 146.977748 48.637266 
L 147.604286 45.593832 
L 148.196015 43.706666 
L 148.787745 42.51592 
L 149.344667 41.858645 
L 149.901589 41.528489 
L 150.493318 41.437088 
L 151.189471 41.568894 
L 152.094469 41.989537 
L 153.451966 42.900213 
L 159.508492 47.239773 
L 161.770987 48.459365 
L 164.103098 49.461755 
L 166.609246 50.292142 
L 169.393856 50.974381 
L 172.596157 51.523686 
L 176.459803 51.953133 
L 181.437293 52.27104 
L 188.50324 52.481982 
L 197.831682 52.579885 
L 197.831682 52.579885 
" clip-path="url(#pb64222e6d8)" style="fill: none; stroke: #97ff60; stroke-opacity: 0.8; stroke-width: 1.5; stroke-linecap: square"/>
   </g>
   <g id="line2d_27">
    <path d="M 145.655059 60.501676 
L 146.351211 51.933681 
L 147.047364 45.984905 
L 147.708708 42.139055 
L 148.335246 39.68108 
L 148.961783 38.059544 
L 149.553512 37.084854 
L 150.145242 36.501325 
L 150.771779 36.190039 
L 151.467931 36.103492 
L 152.303314 36.239033 
L 153.417158 36.661494 
L 155.261962 37.632547 
L 160.204644 40.299698 
L 162.954446 41.489976 
L 165.773864 42.465877 
L 168.802127 43.273866 
L 172.178466 43.937998 
L 176.076919 44.471137 
L 180.810756 44.885305 
L 186.971705 45.18807 
L 195.882455 45.383976 
L 197.831682 45.406602 
L 197.831682 45.406602 
" clip-path="url(#pb64222e6d8)" style="fill: none; stroke: #b4ff43; stroke-opacity: 0.8; stroke-width: 1.5; stroke-linecap: square"/>
   </g>
   <g id="line2d_28">
    <path d="M 145.655059 60.501676 
L 146.386019 50.428949 
L 147.082171 43.616349 
L 147.778324 38.853549 
L 148.439669 35.731871 
L 149.101013 33.602402 
L 149.762358 32.185895 
L 150.423703 31.275983 
L 151.085048 30.723085 
L 151.816008 30.399438 
L 152.651391 30.276086 
L 153.730427 30.355463 
L 155.29677 30.717782 
L 158.812339 31.831119 
L 163.232907 33.134198 
L 167.200976 34.064494 
L 171.412698 34.819908 
L 176.146535 35.437371 
L 181.680946 35.927472 
L 188.538048 36.300693 
L 197.692452 36.56206 
L 197.831682 36.564696 
L 197.831682 36.564696 
" clip-path="url(#pb64222e6d8)" style="fill: none; stroke: #ceff29; stroke-opacity: 0.8; stroke-width: 1.5; stroke-linecap: square"/>
   </g>
   <g id="line2d_29">
    <path d="M 145.655059 60.501676 
L 146.420827 48.979205 
L 147.151787 41.077231 
L 147.882747 35.479488 
L 148.578899 31.739612 
L 149.275051 29.128227 
L 149.971204 27.325987 
L 150.667356 26.095997 
L 151.398316 25.233495 
L 152.198892 24.631646 
L 153.10389 24.232819 
L 154.217734 23.991264 
L 155.784076 23.898737 
L 158.429456 24.00072 
L 177.956531 25.138233 
L 190.139198 25.492698 
L 197.831682 25.630261 
L 197.831682 25.630261 
" clip-path="url(#pb64222e6d8)" style="fill: none; stroke: #ebff0c; stroke-opacity: 0.8; stroke-width: 1.5; stroke-linecap: square"/>
   </g>
   <g id="patch_6">
    <path d="M 143.046228 75.787656 
L 143.046228 21.427656 
" style="fill: none; stroke: #000000; stroke-width: 0.8; stroke-linejoin: miter; stroke-linecap: square"/>
   </g>
   <g id="patch_7">
    <path d="M 143.046228 75.787656 
L 200.440513 75.787656 
" style="fill: none; stroke: #000000; stroke-width: 0.8; stroke-linejoin: miter; stroke-linecap: square"/>
   </g>
   <g id="text_13">
    <!-- dv/dt -->
    <g transform="translate(157.855871 15.427656)scale(0.11 -0.11)">
     <defs>
      <path id="CMUSerif-Roman-76" d="M 122 2560 
L 122 2758 
Q 410 2739 742 2739 
Q 864 2739 1440 2758 
L 1440 2560 
Q 1075 2560 1075 2394 
Q 1075 2368 1114 2285 
L 1830 499 
L 2483 2131 
Q 2522 2240 2522 2285 
Q 2522 2394 2448 2474 
Q 2374 2554 2214 2560 
L 2214 2758 
Q 2541 2739 2771 2739 
Q 3034 2739 3251 2758 
L 3251 2560 
Q 3059 2560 2924 2473 
Q 2790 2387 2748 2313 
Q 2707 2240 2662 2131 
L 1824 51 
Q 1773 -70 1690 -70 
Q 1632 -70 1609 -48 
Q 1587 -26 1555 51 
L 634 2323 
Q 570 2483 490 2521 
Q 410 2560 122 2560 
z
" transform="scale(0.015625)"/>
     </defs>
     <use xlink:href="#CMUSerif-Roman-64"/>
     <use xlink:href="#CMUSerif-Roman-76" x="55.499985"/>
     <use xlink:href="#CMUSerif-Roman-2f" x="108.199982"/>
     <use xlink:href="#CMUSerif-Roman-64" x="158.199966"/>
     <use xlink:href="#CMUSerif-Roman-74" x="213.699951"/>
    </g>
   </g>
  </g>
  <g id="axes_3">
   <g id="patch_8">
    <path d="M 257.834799 75.787656 
L 315.229085 75.787656 
L 315.229085 21.427656 
L 257.834799 21.427656 
z
" style="fill: #ffffff"/>
   </g>
   <g id="matplotlib.axis_5">
    <g id="xtick_5">
     <g id="line2d_30">
      <g>
       <use xlink:href="#mf26ed1d137" x="260.44363" y="75.787656" style="stroke: #000000; stroke-width: 0.8"/>
      </g>
     </g>
     <g id="text_14">
      <!-- 0 -->
      <g transform="translate(257.69363 90.422344)scale(0.11 -0.11)">
       <use xlink:href="#CMUSerif-Roman-30"/>
      </g>
     </g>
    </g>
    <g id="xtick_6">
     <g id="line2d_31">
      <g>
       <use xlink:href="#mf26ed1d137" x="295.251251" y="75.787656" style="stroke: #000000; stroke-width: 0.8"/>
      </g>
     </g>
     <g id="text_15">
      <!-- 1000 -->
      <g transform="translate(284.251251 90.422344)scale(0.11 -0.11)">
       <use xlink:href="#CMUSerif-Roman-31"/>
       <use xlink:href="#CMUSerif-Roman-30" x="49.999985"/>
       <use xlink:href="#CMUSerif-Roman-30" x="99.999969"/>
       <use xlink:href="#CMUSerif-Roman-30" x="149.999954"/>
      </g>
     </g>
    </g>
    <g id="text_16">
     <!-- time [ms] -->
     <g transform="translate(264.213114 104.807031)scale(0.11 -0.11)">
      <use xlink:href="#CMUSerif-Roman-74"/>
      <use xlink:href="#CMUSerif-Roman-69" x="38.799988"/>
      <use xlink:href="#CMUSerif-Roman-6d" x="66.499985"/>
      <use xlink:href="#CMUSerif-Roman-65" x="149.799973"/>
      <use xlink:href="#CMUSerif-Roman-20" x="194.199966"/>
      <use xlink:href="#CMUSerif-Roman-5b" x="227.499954"/>
      <use xlink:href="#CMUSerif-Roman-6d" x="255.299942"/>
      <use xlink:href="#CMUSerif-Roman-73" x="338.59993"/>
      <use xlink:href="#CMUSerif-Roman-5d" x="377.999924"/>
     </g>
    </g>
   </g>
   <g id="matplotlib.axis_6">
    <g id="ytick_6">
     <g id="line2d_32">
      <g>
       <use xlink:href="#m80116416a8" x="257.834799" y="58.10935" style="stroke: #000000; stroke-width: 0.8"/>
      </g>
     </g>
     <g id="text_17">
      <!-- 0.50 -->
      <g transform="translate(231.277143 61.926694)scale(0.11 -0.11)">
       <use xlink:href="#CMUSerif-Roman-30"/>
       <use xlink:href="#CMUSerif-Roman-2e" x="49.999985"/>
       <use xlink:href="#CMUSerif-Roman-35" x="77.799973"/>
       <use xlink:href="#CMUSerif-Roman-30" x="127.799957"/>
      </g>
     </g>
    </g>
    <g id="ytick_7">
     <g id="line2d_33">
      <g>
       <use xlink:href="#m80116416a8" x="257.834799" y="34.245818" style="stroke: #000000; stroke-width: 0.8"/>
      </g>
     </g>
     <g id="text_18">
      <!-- 0.75 -->
      <g transform="translate(231.277143 38.063161)scale(0.11 -0.11)">
       <use xlink:href="#CMUSerif-Roman-30"/>
       <use xlink:href="#CMUSerif-Roman-2e" x="49.999985"/>
       <use xlink:href="#CMUSerif-Roman-37" x="77.799973"/>
       <use xlink:href="#CMUSerif-Roman-35" x="127.799957"/>
      </g>
     </g>
    </g>
   </g>
   <g id="line2d_34">
    <path d="M 260.44363 58.10935 
L 260.930937 57.995599 
L 261.487859 57.612104 
L 262.149204 56.861127 
L 262.984587 55.550359 
L 264.133238 53.285301 
L 265.978042 49.071523 
L 269.354381 41.370518 
L 271.164377 37.818274 
L 272.800336 35.074132 
L 274.366679 32.862228 
L 275.933021 31.027824 
L 277.499364 29.528786 
L 279.135323 28.270495 
L 280.840896 27.237323 
L 282.6857 26.37847 
L 284.73935 25.668852 
L 287.106268 25.090724 
L 289.960493 24.632012 
L 293.580485 24.288853 
L 298.557975 24.056385 
L 306.702958 23.925787 
L 312.620254 23.898565 
L 312.620254 23.898565 
" clip-path="url(#pbf36cb4c09)" style="fill: none; stroke: #00d4ff; stroke-opacity: 0.8; stroke-width: 1.5; stroke-linecap: square"/>
   </g>
   <g id="line2d_35">
    <path d="M 260.44363 58.10935 
L 260.965745 58.001608 
L 261.557474 57.631999 
L 262.253627 56.899385 
L 263.089009 55.670712 
L 264.202853 53.596958 
L 265.873619 49.953511 
L 269.946111 40.937115 
L 271.756107 37.545978 
L 273.392065 34.933786 
L 274.993216 32.789092 
L 276.559559 31.054774 
L 278.160709 29.61032 
L 279.831475 28.405355 
L 281.606664 27.404865 
L 283.521083 26.584446 
L 285.679155 25.907207 
L 288.185304 25.361836 
L 291.213567 24.938947 
L 295.146828 24.627206 
L 300.785663 24.423096 
L 310.705835 24.31981 
L 312.620254 24.313367 
L 312.620254 24.313367 
" clip-path="url(#pbf36cb4c09)" style="fill: none; stroke: #0cf4eb; stroke-opacity: 0.8; stroke-width: 1.5; stroke-linecap: square"/>
   </g>
   <g id="line2d_36">
    <path d="M 260.44363 58.10935 
L 261.104975 57.993414 
L 261.731512 57.655689 
L 262.427665 57.024784 
L 263.263048 55.953405 
L 264.307276 54.232736 
L 265.804004 51.287266 
L 271.373223 39.908991 
L 273.113604 37.047042 
L 274.749562 34.769131 
L 276.350713 32.909656 
L 277.951863 31.381276 
L 279.622629 30.093533 
L 281.36301 29.032855 
L 283.242622 28.149284 
L 285.331079 27.417955 
L 287.732805 26.821011 
L 290.58703 26.350636 
L 294.172215 25.996815 
L 299.080089 25.75233 
L 306.876996 25.611808 
L 312.620254 25.57975 
L 312.620254 25.57975 
" clip-path="url(#pbf36cb4c09)" style="fill: none; stroke: #29ffce; stroke-opacity: 0.8; stroke-width: 1.5; stroke-linecap: square"/>
   </g>
   <g id="line2d_37">
    <path d="M 260.44363 58.10935 
L 261.418244 58.000607 
L 262.149204 57.68591 
L 262.914971 57.099633 
L 263.785162 56.133412 
L 264.864198 54.570953 
L 266.326118 52.016369 
L 272.73072 40.308021 
L 274.505909 37.776146 
L 276.176675 35.770771 
L 277.847441 34.10898 
L 279.553014 32.728531 
L 281.328203 31.582437 
L 283.207814 30.636603 
L 285.261464 29.854695 
L 287.593574 29.210627 
L 290.308569 28.697649 
L 293.6501 28.301148 
L 298.070668 28.014715 
L 304.614501 27.834828 
L 312.620254 27.766035 
L 312.620254 27.766035 
" clip-path="url(#pbf36cb4c09)" style="fill: none; stroke: #43ffb4; stroke-opacity: 0.8; stroke-width: 1.5; stroke-linecap: square"/>
   </g>
   <g id="line2d_38">
    <path d="M 260.44363 58.10935 
L 262.63651 58.01509 
L 263.402278 57.633619 
L 264.237661 56.960895 
L 265.247082 55.837008 
L 266.500156 54.084706 
L 268.414575 50.977995 
L 272.417452 44.431746 
L 274.401486 41.659708 
L 276.211482 39.507607 
L 277.951863 37.775526 
L 279.692245 36.348394 
L 281.502241 35.148759 
L 283.41666 34.147169 
L 285.505117 33.30977 
L 287.837228 32.620461 
L 290.517415 32.065826 
L 293.754523 31.630565 
L 297.89663 31.308431 
L 303.74431 31.093062 
L 312.620254 30.984109 
L 312.620254 30.984109 
" clip-path="url(#pbf36cb4c09)" style="fill: none; stroke: #60ff97; stroke-opacity: 0.8; stroke-width: 1.5; stroke-linecap: square"/>
   </g>
   <g id="line2d_39">
    <path d="M 260.44363 58.10935 
L 261.03536 58.223878 
L 263.123817 58.813089 
L 263.889585 58.717436 
L 264.69016 58.386942 
L 265.595158 57.755282 
L 266.674194 56.709547 
L 268.101307 54.98349 
L 270.572648 51.56937 
L 273.740141 47.292873 
L 275.828599 44.84867 
L 277.743018 42.940949 
L 279.622629 41.376286 
L 281.537048 40.071441 
L 283.521083 38.987911 
L 285.644348 38.082282 
L 287.976458 37.330841 
L 290.621837 36.714866 
L 293.754523 36.220046 
L 297.652977 35.840121 
L 302.839312 35.571794 
L 310.740642 35.4075 
L 312.620254 35.38925 
L 312.620254 35.38925 
" clip-path="url(#pbf36cb4c09)" style="fill: none; stroke: #7dff7a; stroke-opacity: 0.8; stroke-width: 1.5; stroke-linecap: square"/>
   </g>
   <g id="line2d_40">
    <path d="M 260.44363 58.10935 
L 260.896129 58.227156 
L 261.557474 58.667762 
L 263.541509 60.10809 
L 264.376891 60.382329 
L 265.177467 60.407667 
L 266.01285 60.20391 
L 266.952655 59.734157 
L 268.066499 58.918458 
L 269.563227 57.521442 
L 272.138991 54.752936 
L 275.550138 51.16595 
L 277.847441 49.079923 
L 279.970705 47.448213 
L 282.09397 46.09651 
L 284.28685 44.967021 
L 286.618961 44.020979 
L 289.159917 43.235368 
L 292.014142 42.590508 
L 295.355674 42.070228 
L 299.462973 41.666095 
L 304.823347 41.374721 
L 312.620254 41.189567 
L 312.620254 41.189567 
" clip-path="url(#pbf36cb4c09)" style="fill: none; stroke: #97ff60; stroke-opacity: 0.8; stroke-width: 1.5; stroke-linecap: square"/>
   </g>
   <g id="line2d_41">
    <path d="M 260.44363 58.10935 
L 260.826514 58.227664 
L 261.348628 58.670776 
L 262.253627 59.800845 
L 263.819969 61.725354 
L 264.759775 62.531377 
L 265.629966 62.993443 
L 266.500156 63.199104 
L 267.405154 63.176921 
L 268.414575 62.92046 
L 269.632842 62.365134 
L 271.199185 61.389262 
L 273.809757 59.45888 
L 278.056286 56.348838 
L 280.701666 54.69832 
L 283.242622 53.372546 
L 285.818386 52.277479 
L 288.568188 51.352222 
L 291.561643 50.582748 
L 294.937982 49.948337 
L 298.906051 49.435707 
L 303.779118 49.039554 
L 310.218528 48.753012 
L 312.620254 48.688314 
L 312.620254 48.688314 
" clip-path="url(#pbf36cb4c09)" style="fill: none; stroke: #b4ff43; stroke-opacity: 0.8; stroke-width: 1.5; stroke-linecap: square"/>
   </g>
   <g id="line2d_42">
    <path d="M 260.44363 58.10935 
L 260.791706 58.232088 
L 261.244206 58.681765 
L 261.940358 59.758598 
L 264.933813 64.794564 
L 265.943234 65.898692 
L 266.88304 66.613734 
L 267.857653 67.077913 
L 268.867074 67.313299 
L 270.015726 67.344103 
L 271.373223 67.14366 
L 273.113604 66.643983 
L 275.793791 65.611803 
L 282.6857 62.889574 
L 286.305692 61.745223 
L 289.9953 60.815203 
L 293.963369 60.047664 
L 298.418744 59.416409 
L 303.639888 58.907498 
L 310.079297 58.513196 
L 312.620254 58.406597 
L 312.620254 58.406597 
" clip-path="url(#pbf36cb4c09)" style="fill: none; stroke: #ceff29; stroke-opacity: 0.8; stroke-width: 1.5; stroke-linecap: square"/>
   </g>
   <g id="line2d_43">
    <path d="M 260.44363 58.10935 
L 260.756899 58.226606 
L 261.139783 58.634464 
L 261.696705 59.58599 
L 262.706126 61.846811 
L 264.724968 66.376065 
L 265.908427 68.457352 
L 266.987463 69.927892 
L 268.066499 71.037943 
L 269.180343 71.871902 
L 270.363802 72.485306 
L 271.686492 72.922054 
L 273.252835 73.200341 
L 275.236869 73.315065 
L 278.021479 73.234288 
L 283.312237 72.812819 
L 294.137407 71.969278 
L 303.570272 71.480942 
L 312.620254 71.178365 
L 312.620254 71.178365 
" clip-path="url(#pbf36cb4c09)" style="fill: none; stroke: #ebff0c; stroke-opacity: 0.8; stroke-width: 1.5; stroke-linecap: square"/>
   </g>
   <g id="patch_9">
    <path d="M 257.834799 75.787656 
L 257.834799 21.427656 
" style="fill: none; stroke: #000000; stroke-width: 0.8; stroke-linejoin: miter; stroke-linecap: square"/>
   </g>
   <g id="patch_10">
    <path d="M 257.834799 75.787656 
L 315.229085 75.787656 
" style="fill: none; stroke: #000000; stroke-width: 0.8; stroke-linejoin: miter; stroke-linecap: square"/>
   </g>
   <g id="text_19">
    <!-- dy/dt -->
    <g transform="translate(272.644442 15.427656)scale(0.11 -0.11)">
     <defs>
      <path id="CMUSerif-Roman-79" d="M 122 -794 
Q 122 -659 202 -588 
Q 282 -518 390 -518 
Q 506 -518 582 -592 
Q 659 -666 659 -787 
Q 659 -1024 410 -1056 
Q 531 -1171 710 -1171 
Q 902 -1171 1056 -1030 
Q 1210 -890 1277 -755 
Q 1344 -621 1440 -378 
Q 1530 -186 1600 0 
L 640 2336 
Q 576 2490 480 2525 
Q 384 2560 122 2560 
L 122 2758 
Q 410 2739 742 2739 
Q 941 2739 1440 2758 
L 1440 2560 
Q 1082 2560 1082 2394 
Q 1082 2374 1120 2278 
L 1830 557 
L 2477 2131 
Q 2515 2221 2515 2285 
Q 2515 2547 2214 2560 
L 2214 2758 
Q 2637 2739 2771 2739 
Q 3034 2739 3251 2758 
L 3251 2560 
Q 2822 2560 2656 2150 
L 1530 -582 
Q 1222 -1312 710 -1312 
Q 467 -1312 294 -1161 
Q 122 -1011 122 -794 
z
" transform="scale(0.015625)"/>
     </defs>
     <use xlink:href="#CMUSerif-Roman-64"/>
     <use xlink:href="#CMUSerif-Roman-79" x="55.499985"/>
     <use xlink:href="#CMUSerif-Roman-2f" x="108.199982"/>
     <use xlink:href="#CMUSerif-Roman-64" x="158.199966"/>
     <use xlink:href="#CMUSerif-Roman-74" x="213.699951"/>
    </g>
   </g>
  </g>
  <g id="axes_4">
   <g id="patch_11">
    <path d="M 372.623371 75.787656 
L 430.017656 75.787656 
L 430.017656 21.427656 
L 372.623371 21.427656 
z
" style="fill: #ffffff"/>
   </g>
   <g id="matplotlib.axis_7">
    <g id="xtick_7">
     <g id="line2d_44">
      <g>
       <use xlink:href="#mf26ed1d137" x="375.232202" y="75.787656" style="stroke: #000000; stroke-width: 0.8"/>
      </g>
     </g>
     <g id="text_20">
      <!-- 0 -->
      <g transform="translate(372.482202 90.422344)scale(0.11 -0.11)">
       <use xlink:href="#CMUSerif-Roman-30"/>
      </g>
     </g>
    </g>
    <g id="xtick_8">
     <g id="line2d_45">
      <g>
       <use xlink:href="#mf26ed1d137" x="410.039822" y="75.787656" style="stroke: #000000; stroke-width: 0.8"/>
      </g>
     </g>
     <g id="text_21">
      <!-- 1000 -->
      <g transform="translate(399.039822 90.422344)scale(0.11 -0.11)">
       <use xlink:href="#CMUSerif-Roman-31"/>
       <use xlink:href="#CMUSerif-Roman-30" x="49.999985"/>
       <use xlink:href="#CMUSerif-Roman-30" x="99.999969"/>
       <use xlink:href="#CMUSerif-Roman-30" x="149.999954"/>
      </g>
     </g>
    </g>
    <g id="text_22">
     <!-- time [ms] -->
     <g transform="translate(379.001685 104.807031)scale(0.11 -0.11)">
      <use xlink:href="#CMUSerif-Roman-74"/>
      <use xlink:href="#CMUSerif-Roman-69" x="38.799988"/>
      <use xlink:href="#CMUSerif-Roman-6d" x="66.499985"/>
      <use xlink:href="#CMUSerif-Roman-65" x="149.799973"/>
      <use xlink:href="#CMUSerif-Roman-20" x="194.199966"/>
      <use xlink:href="#CMUSerif-Roman-5b" x="227.499954"/>
      <use xlink:href="#CMUSerif-Roman-6d" x="255.299942"/>
      <use xlink:href="#CMUSerif-Roman-73" x="338.59993"/>
      <use xlink:href="#CMUSerif-Roman-5d" x="377.999924"/>
     </g>
    </g>
   </g>
   <g id="matplotlib.axis_8">
    <g id="ytick_8">
     <g id="line2d_46">
      <g>
       <use xlink:href="#m80116416a8" x="372.623371" y="62.765764" style="stroke: #000000; stroke-width: 0.8"/>
      </g>
     </g>
     <g id="text_23">
      <!-- −0.0005 -->
      <g transform="translate(326.508058 66.583108)scale(0.11 -0.11)">
       <defs>
        <path id="CMUSerif-Roman-2212" d="M 365 1594 
Q 365 1670 493 1670 
L 4416 1670 
Q 4422 1670 4451 1670 
Q 4480 1670 4489 1670 
Q 4499 1670 4521 1670 
Q 4544 1670 4553 1664 
Q 4563 1658 4576 1651 
Q 4589 1645 4595 1632 
Q 4602 1619 4602 1600 
Q 4602 1523 4435 1523 
L 4422 1523 
Q 4403 1523 4368 1526 
Q 4333 1530 4314 1530 
L 710 1530 
Q 685 1530 637 1526 
Q 589 1523 563 1523 
L 531 1523 
Q 365 1523 365 1594 
z
" transform="scale(0.015625)"/>
       </defs>
       <use xlink:href="#CMUSerif-Roman-2212"/>
       <use xlink:href="#CMUSerif-Roman-30" x="77.799988"/>
       <use xlink:href="#CMUSerif-Roman-2e" x="127.799973"/>
       <use xlink:href="#CMUSerif-Roman-30" x="155.59996"/>
       <use xlink:href="#CMUSerif-Roman-30" x="205.599945"/>
       <use xlink:href="#CMUSerif-Roman-30" x="255.59993"/>
       <use xlink:href="#CMUSerif-Roman-35" x="305.599915"/>
      </g>
     </g>
    </g>
    <g id="ytick_9">
     <g id="line2d_47">
      <g>
       <use xlink:href="#m80116416a8" x="372.623371" y="48.51363" style="stroke: #000000; stroke-width: 0.8"/>
      </g>
     </g>
     <g id="text_24">
      <!-- 0.0000 -->
      <g transform="translate(335.065714 52.330974)scale(0.11 -0.11)">
       <use xlink:href="#CMUSerif-Roman-30"/>
       <use xlink:href="#CMUSerif-Roman-2e" x="49.999985"/>
       <use xlink:href="#CMUSerif-Roman-30" x="77.799973"/>
       <use xlink:href="#CMUSerif-Roman-30" x="127.799957"/>
       <use xlink:href="#CMUSerif-Roman-30" x="177.799942"/>
       <use xlink:href="#CMUSerif-Roman-30" x="227.799927"/>
      </g>
     </g>
    </g>
    <g id="ytick_10">
     <g id="line2d_48">
      <g>
       <use xlink:href="#m80116416a8" x="372.623371" y="34.261495" style="stroke: #000000; stroke-width: 0.8"/>
      </g>
     </g>
     <g id="text_25">
      <!-- 0.0005 -->
      <g transform="translate(335.065714 38.078839)scale(0.11 -0.11)">
       <use xlink:href="#CMUSerif-Roman-30"/>
       <use xlink:href="#CMUSerif-Roman-2e" x="49.999985"/>
       <use xlink:href="#CMUSerif-Roman-30" x="77.799973"/>
       <use xlink:href="#CMUSerif-Roman-30" x="127.799957"/>
       <use xlink:href="#CMUSerif-Roman-30" x="177.799942"/>
       <use xlink:href="#CMUSerif-Roman-35" x="227.799927"/>
      </g>
     </g>
    </g>
   </g>
   <g id="line2d_49">
    <path d="M 375.232202 48.333683 
L 375.371432 47.094493 
L 376.311238 38.81487 
L 377.146621 33.281691 
L 377.947196 29.404336 
L 378.678156 26.90752 
L 379.339501 25.376484 
L 379.93123 24.504753 
L 380.488152 24.050659 
L 381.010267 23.900608 
L 381.532381 23.977689 
L 382.124111 24.295367 
L 382.855071 24.96044 
L 383.794876 26.146016 
L 385.117566 28.213084 
L 391.104477 38.039375 
L 392.81005 40.196563 
L 394.480816 41.954527 
L 396.151582 43.388602 
L 397.857155 44.560583 
L 399.667151 45.533658 
L 401.651186 46.342079 
L 403.878874 47.001656 
L 406.454637 47.525585 
L 409.622131 47.932491 
L 413.764238 48.225844 
L 419.820764 48.411781 
L 427.408825 48.486104 
L 427.408825 48.486104 
" clip-path="url(#p22af3118f2)" style="fill: none; stroke: #00d4ff; stroke-width: 1.5; stroke-linecap: square"/>
   </g>
   <g id="line2d_50">
    <path d="M 375.232202 48.368572 
L 375.371432 47.358002 
L 376.589699 38.215482 
L 377.494697 33.001852 
L 378.295272 29.572154 
L 379.026232 27.325901 
L 379.687577 25.934651 
L 380.314114 25.103955 
L 380.871036 24.709189 
L 381.393151 24.592005 
L 381.950072 24.697818 
L 382.57661 25.055555 
L 383.342377 25.767779 
L 384.316991 26.99706 
L 385.744103 29.196201 
L 391.034861 37.68088 
L 392.81005 39.949868 
L 394.480816 41.733934 
L 396.151582 43.198125 
L 397.857155 44.40083 
L 399.667151 45.403908 
L 401.616378 46.228076 
L 403.809258 46.908167 
L 406.350215 47.454811 
L 409.413285 47.877363 
L 413.381354 48.187534 
L 419.054996 48.389572 
L 427.408825 48.484007 
L 427.408825 48.484007 
" clip-path="url(#p22af3118f2)" style="fill: none; stroke: #0cf4eb; stroke-width: 1.5; stroke-linecap: square"/>
   </g>
   <g id="line2d_51">
    <path d="M 375.232202 48.424071 
L 375.371432 47.779406 
L 378.364888 32.076222 
L 379.165463 29.511116 
L 379.896423 27.857345 
L 380.557768 26.8697 
L 381.149497 26.346641 
L 381.706419 26.125815 
L 382.263341 26.132801 
L 382.889878 26.37194 
L 383.620838 26.904568 
L 384.525836 27.854207 
L 385.778911 29.524424 
L 388.041406 32.99274 
L 390.826016 37.134355 
L 392.705627 39.535677 
L 394.446008 41.410381 
L 396.151582 42.928865 
L 397.891963 44.183652 
L 399.701959 45.216605 
L 401.651186 46.073038 
L 403.809258 46.776537 
L 406.280599 47.345105 
L 409.274055 47.796247 
L 413.068085 48.130407 
L 418.358844 48.355428 
L 427.165172 48.477864 
L 427.408825 48.479209 
L 427.408825 48.479209 
" clip-path="url(#p22af3118f2)" style="fill: none; stroke: #29ffce; stroke-width: 1.5; stroke-linecap: square"/>
   </g>
   <g id="line2d_52">
    <path d="M 375.232202 48.496053 
L 375.371432 48.328804 
L 375.684701 47.587433 
L 376.206815 45.67186 
L 377.494697 39.744495 
L 378.643349 34.997668 
L 379.548347 32.149123 
L 380.348922 30.33057 
L 381.045074 29.250336 
L 381.706419 28.611345 
L 382.332956 28.311771 
L 382.924686 28.265357 
L 383.586031 28.444325 
L 384.351798 28.901386 
L 385.291604 29.743845 
L 386.544678 31.193906 
L 388.702751 34.096165 
L 391.800629 38.185127 
L 393.749856 40.38658 
L 395.559852 42.106115 
L 397.369848 43.519821 
L 399.214652 44.676978 
L 401.163879 45.633937 
L 403.287144 46.423295 
L 405.654062 47.06205 
L 408.438672 47.575766 
L 411.849819 47.968973 
L 416.340002 48.249804 
L 423.023065 48.424984 
L 427.408825 48.470359 
L 427.408825 48.470359 
" clip-path="url(#p22af3118f2)" style="fill: none; stroke: #43ffb4; stroke-width: 1.5; stroke-linecap: square"/>
   </g>
   <g id="line2d_53">
    <path d="M 375.232202 48.579242 
L 375.823931 49.447263 
L 376.032777 49.269603 
L 376.346046 48.666798 
L 376.833352 47.18255 
L 377.807966 43.334416 
L 379.304693 37.633901 
L 380.244499 34.894058 
L 381.079882 33.100488 
L 381.84565 31.960915 
L 382.541802 31.302175 
L 383.203147 30.968488 
L 383.864492 30.880238 
L 384.560644 31.011142 
L 385.361219 31.392923 
L 386.335833 32.113384 
L 387.658522 33.393659 
L 389.921018 35.953931 
L 393.123319 39.509075 
L 395.211776 41.485718 
L 397.161003 43.025204 
L 399.075422 44.258663 
L 401.094264 45.29266 
L 403.252336 46.143083 
L 405.619255 46.833981 
L 408.369057 47.397357 
L 411.640973 47.832984 
L 415.852695 48.15694 
L 421.769991 48.371325 
L 427.408825 48.454561 
L 427.408825 48.454561 
" clip-path="url(#p22af3118f2)" style="fill: none; stroke: #60ff97; stroke-width: 1.5; stroke-linecap: square"/>
   </g>
   <g id="line2d_54">
    <path d="M 375.232202 48.667742 
L 375.40624 49.898183 
L 375.789124 51.840308 
L 376.102392 52.530605 
L 376.346046 52.642117 
L 376.589699 52.463556 
L 376.937775 51.826856 
L 377.459889 50.309333 
L 378.504118 46.406057 
L 380.035653 40.90295 
L 381.010267 38.19053 
L 381.880457 36.375198 
L 382.681033 35.183532 
L 383.4468 34.427816 
L 384.17776 34.011261 
L 384.90872 33.848211 
L 385.674488 33.903764 
L 386.544678 34.192783 
L 387.623715 34.802313 
L 389.050827 35.890296 
L 391.522168 38.108774 
L 394.8637 41.037416 
L 397.126195 42.718253 
L 399.24946 44.023715 
L 401.407532 45.092273 
L 403.704835 45.978986 
L 406.210984 46.703931 
L 409.065209 47.291912 
L 412.441548 47.753068 
L 416.688078 48.098606 
L 422.535758 48.335321 
L 427.408825 48.425684 
L 427.408825 48.425684 
" clip-path="url(#p22af3118f2)" style="fill: none; stroke: #7dff7a; stroke-width: 1.5; stroke-linecap: square"/>
   </g>
   <g id="line2d_55">
    <path d="M 375.232202 48.755841 
L 375.371432 50.330872 
L 375.823931 54.501042 
L 376.241623 56.480784 
L 376.554891 57.098573 
L 376.798545 57.188356 
L 377.042198 57.009024 
L 377.390274 56.39448 
L 377.912388 54.934171 
L 378.887002 51.400621 
L 380.627383 45.177758 
L 381.671612 42.263156 
L 382.611417 40.267419 
L 383.481608 38.915561 
L 384.316991 38.014007 
L 385.117566 37.462368 
L 385.918141 37.167455 
L 386.788332 37.085593 
L 387.762945 37.227079 
L 388.911597 37.628675 
L 390.408324 38.404043 
L 392.81005 39.935441 
L 397.19581 42.72727 
L 399.806382 44.10275 
L 402.312531 45.173197 
L 404.923102 46.046449 
L 407.777327 46.762852 
L 411.014436 47.339851 
L 414.843274 47.789701 
L 419.681533 48.124658 
L 426.399404 48.351269 
L 427.408825 48.371019 
L 427.408825 48.371019 
" clip-path="url(#p22af3118f2)" style="fill: none; stroke: #97ff60; stroke-width: 1.5; stroke-linecap: square"/>
   </g>
   <g id="line2d_56">
    <path d="M 375.232202 48.838785 
L 375.371432 50.975911 
L 375.858739 57.298169 
L 376.311238 60.611245 
L 376.694122 62.004058 
L 377.00739 62.427185 
L 377.251044 62.412352 
L 377.529505 62.106999 
L 377.912388 61.308668 
L 378.538926 59.396058 
L 380.070461 53.702052 
L 381.393151 49.246704 
L 382.472187 46.362274 
L 383.4468 44.358547 
L 384.386606 42.915422 
L 385.291604 41.916024 
L 386.196602 41.236426 
L 387.136408 40.806772 
L 388.145829 40.593754 
L 389.29448 40.58957 
L 390.651978 40.81776 
L 392.427166 41.356382 
L 395.385814 42.524308 
L 400.537342 44.540221 
L 403.844066 45.579068 
L 407.185597 46.395198 
L 410.840398 47.053419 
L 415.017312 47.572214 
L 420.064417 47.966709 
L 426.677865 48.248525 
L 427.408825 48.26857 
L 427.408825 48.26857 
" clip-path="url(#p22af3118f2)" style="fill: none; stroke: #b4ff43; stroke-width: 1.5; stroke-linecap: square"/>
   </g>
   <g id="line2d_57">
    <path d="M 375.232202 48.913263 
L 375.371432 51.557425 
L 375.893546 60.099675 
L 376.380853 64.784193 
L 376.798545 66.943613 
L 377.146621 67.771501 
L 377.425082 67.947557 
L 377.668735 67.822444 
L 377.982004 67.361423 
L 378.46931 66.159979 
L 379.269886 63.463499 
L 381.915265 54.147618 
L 383.029109 51.19528 
L 384.073337 49.042352 
L 385.082758 47.459936 
L 386.092179 46.287591 
L 387.1016 45.44759 
L 388.180637 44.839287 
L 389.364096 44.434776 
L 390.721593 44.217263 
L 392.357551 44.192844 
L 394.515624 44.399109 
L 398.031193 44.992044 
L 406.663483 46.493219 
L 412.023857 47.159711 
L 417.941152 47.663847 
L 425.076714 48.038445 
L 427.408825 48.121277 
L 427.408825 48.121277 
" clip-path="url(#p22af3118f2)" style="fill: none; stroke: #ceff29; stroke-width: 1.5; stroke-linecap: square"/>
   </g>
   <g id="line2d_58">
    <path d="M 375.232202 48.977521 
L 375.371432 52.060892 
L 375.928354 62.7993 
L 376.450468 68.828008 
L 376.902967 71.733284 
L 377.285851 72.948922 
L 377.59912 73.302354 
L 377.842773 73.265047 
L 378.121234 72.957057 
L 378.538926 72.092842 
L 379.165463 70.208717 
L 380.592575 64.975427 
L 382.089303 59.861379 
L 383.237954 56.689228 
L 384.316991 54.331252 
L 385.361219 52.556116 
L 386.405448 51.195484 
L 387.484484 50.138534 
L 388.633136 49.316036 
L 389.921018 48.671424 
L 391.382938 48.193473 
L 393.158126 47.854993 
L 395.490237 47.652087 
L 398.901384 47.599687 
L 405.932523 47.765267 
L 423.82364 48.184047 
L 427.408825 48.236684 
L 427.408825 48.236684 
" clip-path="url(#p22af3118f2)" style="fill: none; stroke: #ebff0c; stroke-width: 1.5; stroke-linecap: square"/>
   </g>
   <g id="patch_12">
    <path d="M 372.623371 75.787656 
L 372.623371 21.427656 
" style="fill: none; stroke: #000000; stroke-width: 0.8; stroke-linejoin: miter; stroke-linecap: square"/>
   </g>
   <g id="patch_13">
    <path d="M 372.623371 75.787656 
L 430.017656 75.787656 
" style="fill: none; stroke: #000000; stroke-width: 0.8; stroke-linejoin: miter; stroke-linecap: square"/>
   </g>
   <g id="text_26">
    <!-- gradient -->
    <g transform="translate(381.465513 15.427656)scale(0.11 -0.11)">
     <defs>
      <path id="CMUSerif-Roman-67" d="M 179 -506 
Q 179 -301 336 -121 
Q 493 58 768 134 
Q 486 314 486 704 
Q 486 1005 685 1235 
Q 384 1485 384 1894 
Q 384 2272 685 2550 
Q 986 2829 1421 2829 
Q 1805 2829 2099 2598 
Q 2406 2899 2778 2899 
Q 2944 2899 3024 2796 
Q 3104 2694 3104 2586 
Q 3104 2490 3043 2442 
Q 2982 2394 2918 2394 
Q 2842 2394 2787 2445 
Q 2733 2496 2733 2579 
Q 2733 2714 2835 2752 
Q 2816 2758 2771 2758 
Q 2458 2758 2195 2509 
Q 2458 2266 2458 1888 
Q 2458 1510 2157 1232 
Q 1856 954 1421 954 
Q 1062 954 787 1152 
Q 678 1024 678 851 
Q 678 691 774 566 
Q 870 442 1018 422 
Q 1062 416 1498 416 
Q 1754 416 1894 409 
Q 2035 403 2236 361 
Q 2438 320 2598 237 
Q 3014 6 3014 -493 
Q 3014 -858 2595 -1088 
Q 2176 -1318 1594 -1318 
Q 1005 -1318 592 -1084 
Q 179 -851 179 -506 
z
M 512 -506 
Q 512 -768 822 -969 
Q 1133 -1171 1600 -1171 
Q 2061 -1171 2371 -972 
Q 2682 -774 2682 -506 
Q 2682 -314 2573 -192 
Q 2464 -70 2240 -22 
Q 2016 26 1859 35 
Q 1702 45 1414 45 
L 1037 45 
Q 819 32 665 -128 
Q 512 -288 512 -506 
z
M 864 1888 
Q 864 1101 1421 1101 
Q 1702 1101 1875 1357 
Q 1978 1530 1978 1894 
Q 1978 2682 1421 2682 
Q 1139 2682 966 2426 
Q 864 2253 864 1888 
z
" transform="scale(0.015625)"/>
      <path id="CMUSerif-Roman-72" d="M 179 0 
L 179 198 
Q 518 198 598 240 
Q 678 282 678 486 
L 678 2202 
Q 678 2438 595 2499 
Q 512 2560 179 2560 
L 179 2758 
L 1069 2829 
L 1069 2125 
Q 1158 2400 1350 2614 
Q 1542 2829 1856 2829 
Q 2061 2829 2195 2713 
Q 2330 2598 2330 2438 
Q 2330 2298 2243 2227 
Q 2157 2157 2054 2157 
Q 1939 2157 1859 2230 
Q 1779 2304 1779 2432 
Q 1779 2509 1814 2569 
Q 1850 2630 1878 2652 
Q 1907 2675 1926 2682 
Q 1914 2688 1856 2688 
Q 1504 2688 1302 2336 
Q 1101 1984 1101 1485 
L 1101 499 
Q 1101 314 1177 256 
Q 1254 198 1587 198 
L 1722 198 
L 1722 0 
Q 1466 19 909 19 
Q 832 19 710 16 
Q 589 13 429 6 
Q 269 0 179 0 
z
" transform="scale(0.015625)"/>
      <path id="CMUSerif-Roman-61" d="M 269 608 
Q 269 1152 909 1440 
Q 1293 1626 2086 1670 
L 2086 1907 
Q 2086 2304 1878 2515 
Q 1670 2726 1408 2726 
Q 941 2726 717 2432 
Q 909 2426 976 2330 
Q 1043 2234 1043 2138 
Q 1043 2010 963 1926 
Q 883 1843 749 1843 
Q 621 1843 537 1923 
Q 454 2003 454 2144 
Q 454 2458 736 2662 
Q 1018 2867 1421 2867 
Q 1946 2867 2298 2515 
Q 2406 2406 2460 2265 
Q 2515 2125 2521 2032 
Q 2528 1939 2528 1760 
L 2528 480 
Q 2528 442 2541 381 
Q 2554 320 2611 240 
Q 2669 160 2765 160 
Q 2995 160 2995 570 
L 2995 928 
L 3155 928 
L 3155 570 
Q 3155 230 2976 96 
Q 2797 -38 2630 -38 
Q 2419 -38 2284 118 
Q 2150 275 2131 486 
Q 2035 243 1814 86 
Q 1594 -70 1293 -70 
Q 1062 -70 844 -12 
Q 627 45 448 205 
Q 269 365 269 608 
z
M 762 614 
Q 762 378 931 224 
Q 1101 70 1338 70 
Q 1606 70 1846 278 
Q 2086 486 2086 896 
L 2086 1536 
Q 1376 1510 1069 1228 
Q 762 947 762 614 
z
" transform="scale(0.015625)"/>
      <path id="CMUSerif-Roman-6e" d="M 205 0 
L 205 198 
Q 544 198 624 240 
Q 704 282 704 486 
L 704 2202 
Q 704 2438 621 2499 
Q 538 2560 205 2560 
L 205 2758 
L 1107 2829 
L 1107 2157 
Q 1408 2829 2054 2829 
Q 2534 2829 2726 2592 
Q 2867 2432 2896 2253 
Q 2925 2074 2925 1613 
L 2925 390 
Q 2931 256 3033 227 
Q 3136 198 3424 198 
L 3424 0 
Q 2771 19 2707 19 
Q 2656 19 1984 0 
L 1984 198 
Q 2323 198 2403 240 
Q 2483 282 2483 486 
L 2483 1978 
Q 2483 2304 2384 2496 
Q 2285 2688 2010 2688 
Q 1677 2688 1411 2409 
Q 1146 2131 1146 1664 
L 1146 486 
Q 1146 282 1226 240 
Q 1306 198 1645 198 
L 1645 0 
Q 992 19 928 19 
Q 877 19 205 0 
z
" transform="scale(0.015625)"/>
     </defs>
     <use xlink:href="#CMUSerif-Roman-67"/>
     <use xlink:href="#CMUSerif-Roman-72" x="49.999985"/>
     <use xlink:href="#CMUSerif-Roman-61" x="89.099976"/>
     <use xlink:href="#CMUSerif-Roman-64" x="139.09996"/>
     <use xlink:href="#CMUSerif-Roman-69" x="194.599945"/>
     <use xlink:href="#CMUSerif-Roman-65" x="222.299942"/>
     <use xlink:href="#CMUSerif-Roman-6e" x="266.699936"/>
     <use xlink:href="#CMUSerif-Roman-74" x="322.199921"/>
    </g>
   </g>
   <g id="legend_1">
    <g id="text_27">
     <!-- Input I -->
     <g transform="translate(431.507719 19.972344)scale(0.11 -0.11)">
      <defs>
       <path id="CMUSerif-Roman-49" d="M 179 0 
L 179 198 
L 346 198 
Q 704 198 787 256 
Q 870 314 870 499 
L 870 3872 
Q 870 4058 787 4115 
Q 704 4173 346 4173 
L 179 4173 
L 179 4371 
Q 403 4352 1158 4352 
Q 1907 4352 2131 4371 
L 2131 4173 
L 1965 4173 
Q 1606 4173 1523 4115 
Q 1440 4058 1440 3872 
L 1440 499 
Q 1440 314 1523 256 
Q 1606 198 1965 198 
L 2131 198 
L 2131 0 
Q 1907 19 1152 19 
Q 403 19 179 0 
z
" transform="scale(0.015625)"/>
       <path id="CMUSerif-Roman-70" d="M 179 -1043 
Q 518 -1043 598 -1001 
Q 678 -960 678 -755 
L 678 2240 
Q 678 2451 598 2505 
Q 518 2560 179 2560 
L 179 2758 
L 1101 2829 
L 1101 2406 
Q 1485 2829 1997 2829 
Q 2541 2829 2937 2406 
Q 3334 1984 3334 1382 
Q 3334 774 2912 352 
Q 2490 -70 1907 -70 
Q 1587 -70 1372 93 
Q 1158 256 1120 378 
L 1120 320 
L 1120 -755 
Q 1120 -960 1200 -1001 
Q 1280 -1043 1619 -1043 
L 1619 -1242 
Q 947 -1222 896 -1222 
Q 832 -1222 179 -1242 
L 179 -1043 
z
M 1120 730 
Q 1120 634 1133 598 
Q 1146 563 1210 461 
Q 1466 70 1882 70 
Q 2246 70 2524 444 
Q 2803 819 2803 1382 
Q 2803 1920 2550 2294 
Q 2298 2669 1946 2669 
Q 1696 2669 1478 2534 
Q 1261 2400 1120 2157 
L 1120 730 
z
" transform="scale(0.015625)"/>
      </defs>
      <use xlink:href="#CMUSerif-Roman-49"/>
      <use xlink:href="#CMUSerif-Roman-6e" x="36.099991"/>
      <use xlink:href="#CMUSerif-Roman-70" x="91.599976"/>
      <use xlink:href="#CMUSerif-Roman-75" x="147.09996"/>
      <use xlink:href="#CMUSerif-Roman-74" x="202.599945"/>
      <use xlink:href="#CMUSerif-Roman-20" x="241.399933"/>
      <use xlink:href="#CMUSerif-Roman-49" x="274.699921"/>
     </g>
    </g>
    <g id="line2d_59">
     <path d="M 437.155766 26.357031 
L 442.155766 26.357031 
L 447.155766 26.357031 
" style="fill: none; stroke: #00d4ff; stroke-width: 1.5; stroke-linecap: square"/>
    </g>
    <g id="text_28">
     <!-- 0.5 -->
     <g transform="translate(451.155766 28.107031)scale(0.05 -0.05)">
      <use xlink:href="#CMUSerif-Roman-30"/>
      <use xlink:href="#CMUSerif-Roman-2e" x="49.999985"/>
      <use xlink:href="#CMUSerif-Roman-35" x="77.799973"/>
     </g>
    </g>
    <g id="line2d_60">
     <path d="M 437.155766 33.327344 
L 442.155766 33.327344 
L 447.155766 33.327344 
" style="fill: none; stroke: #0cf4eb; stroke-width: 1.5; stroke-linecap: square"/>
    </g>
    <g id="text_29">
     <!-- 0.55 -->
     <g transform="translate(451.155766 35.077344)scale(0.05 -0.05)">
      <use xlink:href="#CMUSerif-Roman-30"/>
      <use xlink:href="#CMUSerif-Roman-2e" x="49.999985"/>
      <use xlink:href="#CMUSerif-Roman-35" x="77.799973"/>
      <use xlink:href="#CMUSerif-Roman-35" x="127.799957"/>
     </g>
    </g>
    <g id="line2d_61">
     <path d="M 437.155766 40.297656 
L 442.155766 40.297656 
L 447.155766 40.297656 
" style="fill: none; stroke: #29ffce; stroke-width: 1.5; stroke-linecap: square"/>
    </g>
    <g id="text_30">
     <!-- 0.6 -->
     <g transform="translate(451.155766 42.047656)scale(0.05 -0.05)">
      <defs>
       <path id="CMUSerif-Roman-36" d="M 269 2022 
Q 269 3027 781 3644 
Q 1293 4262 1952 4262 
Q 2336 4262 2550 4067 
Q 2765 3872 2765 3571 
Q 2765 3405 2669 3334 
Q 2573 3264 2470 3264 
Q 2355 3264 2265 3341 
Q 2176 3418 2176 3558 
Q 2176 3846 2528 3846 
Q 2362 4102 1965 4102 
Q 1843 4102 1718 4067 
Q 1594 4032 1430 3913 
Q 1267 3795 1142 3606 
Q 1018 3418 931 3066 
Q 845 2714 845 2253 
L 845 2099 
Q 1107 2733 1644 2733 
Q 2182 2733 2553 2323 
Q 2925 1914 2925 1306 
Q 2925 685 2537 272 
Q 2150 -141 1606 -141 
Q 1363 -141 1142 -38 
Q 922 64 717 294 
Q 512 525 390 969 
Q 269 1414 269 2022 
z
M 858 1446 
Q 858 819 973 518 
Q 992 467 1033 400 
Q 1075 333 1148 243 
Q 1222 154 1344 96 
Q 1466 38 1606 38 
Q 2035 38 2240 454 
Q 2349 685 2349 1312 
Q 2349 1952 2234 2189 
Q 2035 2586 1638 2586 
Q 1370 2586 1184 2400 
Q 998 2214 928 1968 
Q 858 1722 858 1446 
z
" transform="scale(0.015625)"/>
      </defs>
      <use xlink:href="#CMUSerif-Roman-30"/>
      <use xlink:href="#CMUSerif-Roman-2e" x="49.999985"/>
      <use xlink:href="#CMUSerif-Roman-36" x="77.799973"/>
     </g>
    </g>
    <g id="line2d_62">
     <path d="M 437.155766 47.267969 
L 442.155766 47.267969 
L 447.155766 47.267969 
" style="fill: none; stroke: #43ffb4; stroke-width: 1.5; stroke-linecap: square"/>
    </g>
    <g id="text_31">
     <!-- 0.65 -->
     <g transform="translate(451.155766 49.017969)scale(0.05 -0.05)">
      <use xlink:href="#CMUSerif-Roman-30"/>
      <use xlink:href="#CMUSerif-Roman-2e" x="49.999985"/>
      <use xlink:href="#CMUSerif-Roman-36" x="77.799973"/>
      <use xlink:href="#CMUSerif-Roman-35" x="127.799957"/>
     </g>
    </g>
    <g id="line2d_63">
     <path d="M 437.155766 54.238281 
L 442.155766 54.238281 
L 447.155766 54.238281 
" style="fill: none; stroke: #60ff97; stroke-width: 1.5; stroke-linecap: square"/>
    </g>
    <g id="text_32">
     <!-- 0.7 -->
     <g transform="translate(451.155766 55.988281)scale(0.05 -0.05)">
      <use xlink:href="#CMUSerif-Roman-30"/>
      <use xlink:href="#CMUSerif-Roman-2e" x="49.999985"/>
      <use xlink:href="#CMUSerif-Roman-37" x="77.799973"/>
     </g>
    </g>
    <g id="line2d_64">
     <path d="M 437.155766 61.208594 
L 442.155766 61.208594 
L 447.155766 61.208594 
" style="fill: none; stroke: #7dff7a; stroke-width: 1.5; stroke-linecap: square"/>
    </g>
    <g id="text_33">
     <!-- 0.75 -->
     <g transform="translate(451.155766 62.958594)scale(0.05 -0.05)">
      <use xlink:href="#CMUSerif-Roman-30"/>
      <use xlink:href="#CMUSerif-Roman-2e" x="49.999985"/>
      <use xlink:href="#CMUSerif-Roman-37" x="77.799973"/>
      <use xlink:href="#CMUSerif-Roman-35" x="127.799957"/>
     </g>
    </g>
    <g id="line2d_65">
     <path d="M 437.155766 68.178906 
L 442.155766 68.178906 
L 447.155766 68.178906 
" style="fill: none; stroke: #97ff60; stroke-width: 1.5; stroke-linecap: square"/>
    </g>
    <g id="text_34">
     <!-- 0.8 -->
     <g transform="translate(451.155766 69.928906)scale(0.05 -0.05)">
      <use xlink:href="#CMUSerif-Roman-30"/>
      <use xlink:href="#CMUSerif-Roman-2e" x="49.999985"/>
      <use xlink:href="#CMUSerif-Roman-38" x="77.799973"/>
     </g>
    </g>
    <g id="line2d_66">
     <path d="M 437.155766 75.149219 
L 442.155766 75.149219 
L 447.155766 75.149219 
" style="fill: none; stroke: #b4ff43; stroke-width: 1.5; stroke-linecap: square"/>
    </g>
    <g id="text_35">
     <!-- 0.85 -->
     <g transform="translate(451.155766 76.899219)scale(0.05 -0.05)">
      <use xlink:href="#CMUSerif-Roman-30"/>
      <use xlink:href="#CMUSerif-Roman-2e" x="49.999985"/>
      <use xlink:href="#CMUSerif-Roman-38" x="77.799973"/>
      <use xlink:href="#CMUSerif-Roman-35" x="127.799957"/>
     </g>
    </g>
    <g id="line2d_67">
     <path d="M 437.155766 82.119531 
L 442.155766 82.119531 
L 447.155766 82.119531 
" style="fill: none; stroke: #ceff29; stroke-width: 1.5; stroke-linecap: square"/>
    </g>
    <g id="text_36">
     <!-- 0.9 -->
     <g transform="translate(451.155766 83.869531)scale(0.05 -0.05)">
      <use xlink:href="#CMUSerif-Roman-30"/>
      <use xlink:href="#CMUSerif-Roman-2e" x="49.999985"/>
      <use xlink:href="#CMUSerif-Roman-39" x="77.799973"/>
     </g>
    </g>
    <g id="line2d_68">
     <path d="M 437.155766 89.089844 
L 442.155766 89.089844 
L 447.155766 89.089844 
" style="fill: none; stroke: #ebff0c; stroke-width: 1.5; stroke-linecap: square"/>
    </g>
    <g id="text_37">
     <!-- 0.95 -->
     <g transform="translate(451.155766 90.839844)scale(0.05 -0.05)">
      <use xlink:href="#CMUSerif-Roman-30"/>
      <use xlink:href="#CMUSerif-Roman-2e" x="49.999985"/>
      <use xlink:href="#CMUSerif-Roman-39" x="77.799973"/>
      <use xlink:href="#CMUSerif-Roman-35" x="127.799957"/>
     </g>
    </g>
   </g>
  </g>
 </g>
 <defs>
  <clipPath id="p250699b4da">
   <rect x="28.257656" y="21.427656" width="57.394286" height="54.36"/>
  </clipPath>
  <clipPath id="pb64222e6d8">
   <rect x="143.046228" y="21.427656" width="57.394286" height="54.36"/>
  </clipPath>
  <clipPath id="pbf36cb4c09">
   <rect x="257.834799" y="21.427656" width="57.394286" height="54.36"/>
  </clipPath>
  <clipPath id="p22af3118f2">
   <rect x="372.623371" y="21.427656" width="57.394286" height="54.36"/>
  </clipPath>
 </defs>
</svg>
