<?xml version="1.0" encoding="utf-8" standalone="no"?>
<!DOCTYPE svg PUBLIC "-//W3C//DTD SVG 1.1//EN"
  "http://www.w3.org/Graphics/SVG/1.1/DTD/svg11.dtd">
<svg xmlns:xlink="http://www.w3.org/1999/xlink" width="312.545514pt" height="101.094681pt" viewBox="0 0 312.545514 101.094681" xmlns="http://www.w3.org/2000/svg" version="1.1">
 <metadata>
  <rdf:RDF xmlns:dc="http://purl.org/dc/elements/1.1/" xmlns:cc="http://creativecommons.org/ns#" xmlns:rdf="http://www.w3.org/1999/02/22-rdf-syntax-ns#">
   <cc:Work>
    <dc:type rdf:resource="http://purl.org/dc/dcmitype/StillImage"/>
    <dc:date>2022-08-02T15:16:46.067142</dc:date>
    <dc:format>image/svg+xml</dc:format>
    <dc:creator>
     <cc:Agent>
      <dc:title>Matplotlib v3.5.1, https://matplotlib.org/</dc:title>
     </cc:Agent>
    </dc:creator>
   </cc:Work>
  </rdf:RDF>
 </metadata>
 <defs>
  <style type="text/css">*{stroke-linejoin: round; stroke-linecap: butt}</style>
 </defs>
 <g id="figure_1">
  <g id="patch_1">
   <path d="M 0 101.094681 
L 312.545514 101.094681 
L 312.545514 0 
L 0 0 
L 0 101.094681 
z
" style="fill: none"/>
  </g>
  <g id="axes_1">
   <g id="patch_2">
    <path d="M 28.257656 62.125306 
L 78.729802 62.125306 
L 78.729802 21.427656 
L 28.257656 21.427656 
z
" style="fill: #ffffff"/>
   </g>
   <g id="matplotlib.axis_1">
    <g id="xtick_1">
     <g id="line2d_1">
      <defs>
       <path id="m6a016b194d" d="M 0 0 
L 0 3.5 
" style="stroke: #000000; stroke-width: 0.8"/>
      </defs>
      <g>
       <use xlink:href="#m6a016b194d" x="30.551845" y="62.125306" style="stroke: #000000; stroke-width: 0.8"/>
      </g>
     </g>
     <g id="text_1">
      <!-- 0 -->
      <g transform="translate(27.801845 76.759994)scale(0.11 -0.11)">
       <defs>
        <path id="CMUSerif-Roman-30" d="M 250 2048 
Q 250 2989 486 3501 
Q 819 4262 1600 4262 
Q 1766 4262 1939 4217 
Q 2112 4173 2333 4000 
Q 2554 3827 2688 3546 
Q 2944 3002 2944 2048 
Q 2944 1114 2707 602 
Q 2362 -141 1594 -141 
Q 1306 -141 1014 6 
Q 723 154 538 506 
Q 250 1037 250 2048 
z
M 781 2125 
Q 781 1158 851 774 
Q 928 358 1142 179 
Q 1357 0 1594 0 
Q 1850 0 2064 192 
Q 2278 384 2342 800 
Q 2413 1210 2413 2125 
Q 2413 3014 2349 3373 
Q 2266 3789 2042 3955 
Q 1818 4122 1594 4122 
Q 1510 4122 1420 4096 
Q 1331 4070 1203 4000 
Q 1075 3930 976 3750 
Q 877 3571 832 3302 
Q 781 2957 781 2125 
z
" transform="scale(0.015625)"/>
       </defs>
       <use xlink:href="#CMUSerif-Roman-30"/>
      </g>
     </g>
    </g>
    <g id="xtick_2">
     <g id="line2d_2">
      <g>
       <use xlink:href="#m6a016b194d" x="76.458567" y="62.125306" style="stroke: #000000; stroke-width: 0.8"/>
      </g>
     </g>
     <g id="text_2">
      <!-- 2000 -->
      <g transform="translate(65.458567 76.759994)scale(0.11 -0.11)">
       <defs>
        <path id="CMUSerif-Roman-32" d="M 320 0 
Q 320 115 329 150 
Q 339 186 390 237 
L 1619 1606 
Q 2291 2362 2291 3021 
Q 2291 3450 2067 3757 
Q 1843 4064 1434 4064 
Q 1152 4064 915 3891 
Q 678 3718 570 3411 
Q 589 3418 653 3418 
Q 813 3418 902 3318 
Q 992 3219 992 3085 
Q 992 2912 880 2829 
Q 768 2746 659 2746 
Q 614 2746 556 2755 
Q 499 2765 409 2854 
Q 320 2944 320 3104 
Q 320 3552 659 3907 
Q 998 4262 1517 4262 
Q 2106 4262 2490 3913 
Q 2874 3565 2874 3021 
Q 2874 2829 2816 2656 
Q 2758 2483 2681 2348 
Q 2605 2214 2400 2000 
Q 2195 1786 2028 1632 
Q 1862 1478 1491 1152 
L 813 493 
L 1965 493 
Q 2528 493 2573 544 
Q 2637 634 2714 1114 
L 2874 1114 
L 2694 0 
L 320 0 
z
" transform="scale(0.015625)"/>
       </defs>
       <use xlink:href="#CMUSerif-Roman-32"/>
       <use xlink:href="#CMUSerif-Roman-30" x="49.999985"/>
       <use xlink:href="#CMUSerif-Roman-30" x="99.999969"/>
       <use xlink:href="#CMUSerif-Roman-30" x="149.999954"/>
      </g>
     </g>
    </g>
    <g id="text_3">
     <!-- time [ms] -->
     <g transform="translate(31.174901 91.144681)scale(0.11 -0.11)">
      <defs>
       <path id="CMUSerif-Roman-74" d="M 122 2560 
L 122 2701 
Q 416 2714 611 2922 
Q 806 3130 873 3386 
Q 941 3642 947 3936 
L 1107 3936 
L 1107 2758 
L 2022 2758 
L 2022 2560 
L 1107 2560 
L 1107 781 
Q 1107 90 1536 90 
Q 1722 90 1843 278 
Q 1965 467 1965 806 
L 1965 1158 
L 2125 1158 
L 2125 794 
Q 2125 448 1965 189 
Q 1805 -70 1491 -70 
Q 1376 -70 1261 -41 
Q 1146 -13 998 64 
Q 851 141 758 329 
Q 666 518 666 794 
L 666 2560 
L 122 2560 
z
" transform="scale(0.015625)"/>
       <path id="CMUSerif-Roman-69" d="M 211 0 
L 211 198 
Q 550 198 630 240 
Q 710 282 710 486 
L 710 2208 
Q 710 2445 630 2502 
Q 550 2560 237 2560 
L 237 2758 
L 1133 2829 
L 1133 480 
Q 1133 288 1200 243 
Q 1267 198 1581 198 
L 1581 0 
Q 928 19 915 19 
Q 826 19 211 0 
z
M 480 3942 
Q 480 4070 579 4176 
Q 678 4282 819 4282 
Q 960 4282 1059 4186 
Q 1158 4090 1158 3942 
Q 1158 3795 1059 3699 
Q 960 3603 819 3603 
Q 672 3603 576 3705 
Q 480 3808 480 3942 
z
" transform="scale(0.015625)"/>
       <path id="CMUSerif-Roman-6d" d="M 205 0 
L 205 198 
Q 544 198 624 240 
Q 704 282 704 486 
L 704 2202 
Q 704 2438 621 2499 
Q 538 2560 205 2560 
L 205 2758 
L 1107 2829 
L 1107 2157 
Q 1408 2829 2054 2829 
Q 2803 2829 2906 2202 
Q 3014 2445 3244 2637 
Q 3475 2829 3834 2829 
Q 4314 2829 4506 2592 
Q 4646 2432 4675 2253 
Q 4704 2074 4704 1613 
L 4704 390 
Q 4710 256 4812 227 
Q 4915 198 5203 198 
L 5203 0 
Q 4550 19 4486 19 
Q 4435 19 3763 0 
L 3763 198 
Q 4102 198 4182 240 
Q 4262 282 4262 486 
L 4262 1978 
Q 4262 2304 4163 2496 
Q 4064 2688 3789 2688 
Q 3456 2688 3190 2409 
Q 2925 2131 2925 1664 
L 2925 486 
Q 2925 282 3005 240 
Q 3085 198 3424 198 
L 3424 0 
Q 2771 19 2707 19 
Q 2656 19 1984 0 
L 1984 198 
Q 2323 198 2403 240 
Q 2483 282 2483 486 
L 2483 1978 
Q 2483 2304 2384 2496 
Q 2285 2688 2010 2688 
Q 1677 2688 1411 2409 
Q 1146 2131 1146 1664 
L 1146 486 
Q 1146 282 1226 240 
Q 1306 198 1645 198 
L 1645 0 
Q 992 19 928 19 
Q 877 19 205 0 
z
" transform="scale(0.015625)"/>
       <path id="CMUSerif-Roman-65" d="M 179 1408 
Q 179 2010 566 2438 
Q 954 2867 1510 2867 
Q 2074 2867 2365 2502 
Q 2656 2138 2656 1613 
Q 2656 1517 2630 1497 
Q 2605 1478 2496 1478 
L 710 1478 
Q 710 826 902 518 
Q 1171 90 1626 90 
Q 1690 90 1763 102 
Q 1837 115 1990 169 
Q 2144 224 2278 371 
Q 2413 518 2490 749 
Q 2509 838 2573 838 
Q 2656 838 2656 762 
Q 2656 704 2595 579 
Q 2534 454 2419 304 
Q 2304 154 2080 42 
Q 1856 -70 1587 -70 
Q 1024 -70 601 355 
Q 179 781 179 1408 
z
M 717 1613 
L 2234 1613 
Q 2234 1747 2211 1897 
Q 2189 2048 2121 2256 
Q 2054 2464 1897 2595 
Q 1741 2726 1510 2726 
Q 1408 2726 1296 2681 
Q 1184 2637 1049 2531 
Q 915 2426 822 2186 
Q 730 1946 717 1613 
z
" transform="scale(0.015625)"/>
       <path id="CMUSerif-Roman-20" transform="scale(0.015625)"/>
       <path id="CMUSerif-Roman-5b" d="M 666 -1600 
L 666 4800 
L 1632 4800 
L 1632 4653 
L 1094 4653 
L 1094 -1453 
L 1632 -1453 
L 1632 -1600 
L 666 -1600 
z
" transform="scale(0.015625)"/>
       <path id="CMUSerif-Roman-73" d="M 211 83 
L 211 928 
Q 211 998 214 1024 
Q 218 1050 237 1069 
Q 256 1088 294 1088 
Q 339 1088 355 1069 
Q 371 1050 384 979 
Q 480 538 688 304 
Q 896 70 1274 70 
Q 1632 70 1814 230 
Q 1997 390 1997 653 
Q 1997 1120 1331 1242 
Q 947 1318 787 1369 
Q 627 1421 486 1536 
Q 211 1760 211 2080 
Q 211 2400 454 2633 
Q 698 2867 1235 2867 
Q 1594 2867 1837 2688 
Q 1907 2746 1946 2790 
Q 2029 2867 2074 2867 
Q 2125 2867 2134 2835 
Q 2144 2803 2144 2714 
L 2144 2067 
Q 2144 1997 2141 1971 
Q 2138 1946 2118 1930 
Q 2099 1914 2061 1914 
Q 1990 1914 1984 1971 
Q 1933 2746 1235 2746 
Q 858 2746 688 2602 
Q 518 2458 518 2259 
Q 518 2150 569 2067 
Q 621 1984 688 1936 
Q 755 1888 880 1843 
Q 1005 1798 1081 1782 
Q 1158 1766 1306 1734 
Q 1818 1638 2035 1427 
Q 2304 1158 2304 819 
Q 2304 442 2048 186 
Q 1792 -70 1274 -70 
Q 858 -70 570 205 
Q 531 166 502 134 
Q 474 102 464 89 
Q 454 77 451 70 
Q 448 64 442 58 
Q 314 -70 282 -70 
Q 230 -70 220 -38 
Q 211 -6 211 83 
z
" transform="scale(0.015625)"/>
       <path id="CMUSerif-Roman-5d" d="M 134 -1453 
L 672 -1453 
L 672 4653 
L 134 4653 
L 134 4800 
L 1101 4800 
L 1101 -1600 
L 134 -1600 
L 134 -1453 
z
" transform="scale(0.015625)"/>
      </defs>
      <use xlink:href="#CMUSerif-Roman-74"/>
      <use xlink:href="#CMUSerif-Roman-69" x="38.799988"/>
      <use xlink:href="#CMUSerif-Roman-6d" x="66.499985"/>
      <use xlink:href="#CMUSerif-Roman-65" x="149.799973"/>
      <use xlink:href="#CMUSerif-Roman-20" x="194.199966"/>
      <use xlink:href="#CMUSerif-Roman-5b" x="227.499954"/>
      <use xlink:href="#CMUSerif-Roman-6d" x="255.299942"/>
      <use xlink:href="#CMUSerif-Roman-73" x="338.59993"/>
      <use xlink:href="#CMUSerif-Roman-5d" x="377.999924"/>
     </g>
    </g>
   </g>
   <g id="matplotlib.axis_2">
    <g id="ytick_1">
     <g id="line2d_3">
      <defs>
       <path id="mc7828dc222" d="M 0 0 
L -3.5 0 
" style="stroke: #000000; stroke-width: 0.8"/>
      </defs>
      <g>
       <use xlink:href="#mc7828dc222" x="28.257656" y="60.275413" style="stroke: #000000; stroke-width: 0.8"/>
      </g>
     </g>
     <g id="text_4">
      <!-- 0.7 -->
      <g transform="translate(7.2 64.092757)scale(0.11 -0.11)">
       <defs>
        <path id="CMUSerif-Roman-2e" d="M 640 102 
Q 544 205 544 339 
Q 544 474 640 573 
Q 736 672 883 672 
Q 1024 672 1120 579 
Q 1216 486 1216 339 
Q 1216 192 1113 96 
Q 1011 0 883 0 
Q 736 0 640 102 
z
" transform="scale(0.015625)"/>
        <path id="CMUSerif-Roman-37" d="M 358 3008 
L 570 4326 
L 730 4326 
Q 749 4250 781 4214 
Q 813 4179 995 4150 
Q 1178 4122 1549 4122 
L 3104 4122 
Q 3104 3974 3046 3898 
L 2182 2682 
Q 1907 2298 1786 1587 
Q 1715 1114 1715 538 
L 1715 211 
Q 1715 -141 1420 -141 
Q 1126 -141 1126 211 
Q 1126 1434 1914 2618 
Q 1997 2739 2307 3174 
Q 2618 3610 2630 3629 
L 1306 3629 
Q 723 3629 678 3590 
Q 614 3533 518 3008 
L 358 3008 
z
" transform="scale(0.015625)"/>
       </defs>
       <use xlink:href="#CMUSerif-Roman-30"/>
       <use xlink:href="#CMUSerif-Roman-2e" x="49.999985"/>
       <use xlink:href="#CMUSerif-Roman-37" x="77.799973"/>
      </g>
     </g>
    </g>
    <g id="ytick_2">
     <g id="line2d_4">
      <g>
       <use xlink:href="#mc7828dc222" x="28.257656" y="46.034268" style="stroke: #000000; stroke-width: 0.8"/>
      </g>
     </g>
     <g id="text_5">
      <!-- 0.8 -->
      <g transform="translate(7.2 49.851612)scale(0.11 -0.11)">
       <defs>
        <path id="CMUSerif-Roman-38" d="M 269 966 
Q 269 1683 1190 2144 
Q 794 2413 723 2490 
Q 442 2803 442 3194 
Q 442 3642 781 3952 
Q 1120 4262 1600 4262 
Q 2061 4262 2406 3996 
Q 2752 3731 2752 3309 
Q 2752 2714 1978 2317 
Q 2490 1997 2611 1862 
Q 2925 1517 2925 1075 
Q 2925 563 2531 211 
Q 2138 -141 1594 -141 
Q 1062 -141 665 169 
Q 269 480 269 966 
z
M 589 966 
Q 589 570 886 304 
Q 1184 38 1600 38 
Q 2003 38 2304 268 
Q 2605 499 2605 845 
Q 2605 979 2560 1094 
Q 2515 1210 2425 1302 
Q 2336 1395 2281 1436 
Q 2227 1478 2125 1549 
L 1338 2048 
Q 589 1632 589 966 
z
M 723 3443 
Q 723 3136 1043 2925 
L 1837 2413 
Q 2470 2784 2470 3309 
Q 2470 3648 2211 3875 
Q 1952 4102 1594 4102 
Q 1242 4102 982 3916 
Q 723 3731 723 3443 
z
" transform="scale(0.015625)"/>
       </defs>
       <use xlink:href="#CMUSerif-Roman-30"/>
       <use xlink:href="#CMUSerif-Roman-2e" x="49.999985"/>
       <use xlink:href="#CMUSerif-Roman-38" x="77.799973"/>
      </g>
     </g>
    </g>
    <g id="ytick_3">
     <g id="line2d_5">
      <g>
       <use xlink:href="#mc7828dc222" x="28.257656" y="31.793124" style="stroke: #000000; stroke-width: 0.8"/>
      </g>
     </g>
     <g id="text_6">
      <!-- 0.9 -->
      <g transform="translate(7.2 35.610467)scale(0.11 -0.11)">
       <defs>
        <path id="CMUSerif-Roman-39" d="M 269 2822 
Q 269 3162 368 3395 
Q 467 3629 678 3859 
Q 1062 4262 1619 4262 
Q 1856 4262 2067 4163 
Q 2278 4064 2480 3837 
Q 2682 3610 2803 3165 
Q 2925 2720 2925 2106 
Q 2925 1114 2445 486 
Q 1965 -141 1318 -141 
Q 909 -141 669 44 
Q 429 230 429 550 
Q 429 717 521 787 
Q 614 858 723 858 
Q 838 858 928 781 
Q 1018 704 1018 563 
Q 1018 448 944 358 
Q 870 269 685 269 
Q 870 38 1312 38 
Q 1472 38 1632 112 
Q 1792 186 1965 365 
Q 2138 544 2243 921 
Q 2349 1299 2349 1830 
L 2349 2035 
Q 2093 1395 1549 1395 
Q 1011 1395 640 1808 
Q 269 2221 269 2822 
z
M 845 2816 
Q 845 2182 960 1946 
Q 1158 1542 1555 1542 
Q 1946 1542 2141 1891 
Q 2336 2240 2336 2694 
Q 2336 3322 2234 3597 
Q 2042 4102 1619 4102 
Q 1197 4102 979 3699 
Q 845 3462 845 2816 
z
" transform="scale(0.015625)"/>
       </defs>
       <use xlink:href="#CMUSerif-Roman-30"/>
       <use xlink:href="#CMUSerif-Roman-2e" x="49.999985"/>
       <use xlink:href="#CMUSerif-Roman-39" x="77.799973"/>
      </g>
     </g>
    </g>
   </g>
   <g id="line2d_6">
    <path d="M 30.551845 60.275413 
L 31.286352 54.171647 
L 32.112673 49.139249 
L 33.030808 44.883086 
L 34.040756 41.228048 
L 35.09661 38.216672 
L 36.175418 35.79358 
L 37.254226 33.895695 
L 38.355987 32.390884 
L 39.503656 31.191938 
L 40.720184 30.239427 
L 42.051479 29.480026 
L 43.5664 28.876594 
L 45.356763 28.408807 
L 47.629145 28.05628 
L 50.750802 27.813831 
L 55.754635 27.674289 
L 67.66743 27.625541 
L 76.435613 27.62356 
L 76.435613 27.62356 
" clip-path="url(#pfb5e961a85)" style="fill: none; stroke: #00d4ff; stroke-opacity: 0.8; stroke-width: 1.5; stroke-linecap: square"/>
   </g>
   <g id="line2d_7">
    <path d="M 30.551845 60.275413 
L 31.240446 53.44108 
L 31.997906 48.097041 
L 32.824227 43.798685 
L 33.742362 40.159684 
L 34.729356 37.119837 
L 35.762258 34.627735 
L 36.818112 32.633752 
L 37.919874 31.01933 
L 39.044588 29.756496 
L 40.238163 28.745995 
L 41.546505 27.933519 
L 43.01552 27.290059 
L 44.737022 26.787272 
L 46.871684 26.406489 
L 49.717901 26.138096 
L 54.07904 25.97273 
L 63.007897 25.902777 
L 76.435613 25.895564 
L 76.435613 25.895564 
" clip-path="url(#pfb5e961a85)" style="fill: none; stroke: #0cf4eb; stroke-opacity: 0.8; stroke-width: 1.5; stroke-linecap: square"/>
   </g>
   <g id="line2d_8">
    <path d="M 30.551845 60.275413 
L 31.217492 52.807025 
L 31.929046 47.22886 
L 32.709461 42.828348 
L 33.558735 39.262811 
L 34.499823 36.239409 
L 35.509771 33.721964 
L 36.565625 31.671497 
L 37.644433 30.043285 
L 38.769148 28.735699 
L 39.962723 27.685078 
L 41.248111 26.848699 
L 42.694173 26.177285 
L 44.369768 25.650568 
L 46.435571 25.244971 
L 49.144067 24.95368 
L 53.137952 24.767831 
L 60.643701 24.679481 
L 76.435613 24.664857 
L 76.435613 24.664857 
" clip-path="url(#pfb5e961a85)" style="fill: none; stroke: #29ffce; stroke-opacity: 0.8; stroke-width: 1.5; stroke-linecap: square"/>
   </g>
   <g id="line2d_9">
    <path d="M 30.551845 60.275413 
L 31.217492 52.148959 
L 31.906093 46.365937 
L 32.640601 42.008053 
L 33.443968 38.526757 
L 34.339149 35.606637 
L 35.326144 33.132118 
L 36.381998 31.077077 
L 37.48376 29.411172 
L 38.631428 28.072478 
L 39.847956 26.994134 
L 41.156298 26.132702 
L 42.602359 25.447609 
L 44.277955 24.90336 
L 46.320804 24.481713 
L 48.983394 24.172664 
L 52.816605 23.970763 
L 59.633753 23.868053 
L 76.435613 23.845644 
L 76.435613 23.845644 
" clip-path="url(#pfb5e961a85)" style="fill: none; stroke: #43ffb4; stroke-opacity: 0.8; stroke-width: 1.5; stroke-linecap: square"/>
   </g>
   <g id="line2d_10">
    <path d="M 30.551845 60.275413 
L 31.217492 51.623786 
L 31.88314 45.718923 
L 32.594694 41.334867 
L 33.352155 37.999006 
L 34.201429 35.233207 
L 35.142517 32.902034 
L 36.175418 30.916599 
L 37.300133 29.230773 
L 38.470754 27.868491 
L 39.710236 26.760851 
L 41.041531 25.866106 
L 42.510546 25.145846 
L 44.209095 24.566012 
L 46.251944 24.113606 
L 48.845673 23.77885 
L 52.472305 23.551682 
L 58.486085 23.425738 
L 74.438671 23.38732 
L 76.435613 23.386991 
L 76.435613 23.386991 
" clip-path="url(#pfb5e961a85)" style="fill: none; stroke: #60ff97; stroke-opacity: 0.8; stroke-width: 1.5; stroke-linecap: square"/>
   </g>
   <g id="line2d_11">
    <path d="M 30.551845 60.275413 
L 31.217492 51.202396 
L 31.88314 45.057714 
L 32.57174 40.72311 
L 33.306248 37.497813 
L 34.109616 34.953177 
L 35.02775 32.784072 
L 36.060651 30.91292 
L 37.208319 29.291616 
L 38.447801 27.923891 
L 39.756142 26.806055 
L 41.179251 25.88308 
L 42.740079 25.138241 
L 44.530442 24.537013 
L 46.642151 24.069292 
L 49.304741 23.716779 
L 52.954325 23.472476 
L 58.784479 23.330117 
L 72.395822 23.279088 
L 76.435613 23.277549 
L 76.435613 23.277549 
" clip-path="url(#pfb5e961a85)" style="fill: none; stroke: #7dff7a; stroke-opacity: 0.8; stroke-width: 1.5; stroke-linecap: square"/>
   </g>
   <g id="line2d_12">
    <path d="M 30.551845 60.275413 
L 31.217492 50.86194 
L 31.860186 44.682794 
L 32.525834 40.349608 
L 33.214435 37.284619 
L 33.948942 34.982584 
L 34.775263 33.095812 
L 35.739304 31.439389 
L 36.864019 29.944308 
L 38.149407 28.602128 
L 39.572516 27.437515 
L 41.110391 26.466854 
L 42.785986 25.672411 
L 44.668162 25.027742 
L 46.871684 24.513063 
L 49.580181 24.117309 
L 53.160905 23.832136 
L 58.486085 23.652035 
L 68.700331 23.569167 
L 76.435613 23.559428 
L 76.435613 23.559428 
" clip-path="url(#pfb5e961a85)" style="fill: none; stroke: #97ff60; stroke-opacity: 0.8; stroke-width: 1.5; stroke-linecap: square"/>
   </g>
   <g id="line2d_13">
    <path d="M 30.551845 60.275413 
L 31.217492 50.58536 
L 31.860186 44.210621 
L 32.50288 39.927285 
L 33.145574 37.03865 
L 33.834175 34.919704 
L 34.591636 33.290989 
L 35.463864 31.938379 
L 36.519719 30.714344 
L 37.82806 29.543162 
L 39.411842 28.430048 
L 41.202204 27.447663 
L 43.176193 26.622073 
L 45.379716 25.946353 
L 47.927539 25.404468 
L 51.003289 24.985757 
L 54.997174 24.678816 
L 60.758468 24.478467 
L 71.041574 24.377835 
L 76.435613 24.365007 
L 76.435613 24.365007 
" clip-path="url(#pfb5e961a85)" style="fill: none; stroke: #b4ff43; stroke-opacity: 0.8; stroke-width: 1.5; stroke-linecap: square"/>
   </g>
   <g id="line2d_14">
    <path d="M 30.551845 60.275413 
L 31.240446 50.079688 
L 31.88314 43.608012 
L 32.50288 39.421532 
L 33.122621 36.632622 
L 33.765315 34.709426 
L 34.453916 33.332961 
L 35.211377 32.304892 
L 36.129511 31.439544 
L 37.323086 30.634647 
L 38.975728 29.802529 
L 41.202204 28.938487 
L 43.864794 28.148182 
L 46.871684 27.492642 
L 50.360595 26.967123 
L 54.584014 26.564593 
L 60.115774 26.273798 
L 68.241264 26.089555 
L 76.435613 26.024246 
L 76.435613 26.024246 
" clip-path="url(#pfb5e961a85)" style="fill: none; stroke: #ceff29; stroke-opacity: 0.8; stroke-width: 1.5; stroke-linecap: square"/>
   </g>
   <g id="line2d_15">
    <path d="M 30.551845 60.275413 
L 31.240446 49.890185 
L 31.88314 43.238399 
L 32.50288 38.939913 
L 33.122621 36.128645 
L 33.719409 34.377853 
L 34.339149 33.207972 
L 35.004797 32.414381 
L 35.762258 31.858628 
L 36.726299 31.441916 
L 38.126454 31.102937 
L 40.651324 30.756737 
L 45.81583 30.301708 
L 53.000232 29.894464 
L 62.319296 29.601341 
L 75.907686 29.416026 
L 76.435613 29.412004 
L 76.435613 29.412004 
" clip-path="url(#pfb5e961a85)" style="fill: none; stroke: #ebff0c; stroke-opacity: 0.8; stroke-width: 1.5; stroke-linecap: square"/>
   </g>
   <g id="patch_3">
    <path d="M 28.257656 62.125306 
L 28.257656 21.427656 
" style="fill: none; stroke: #000000; stroke-width: 0.8; stroke-linejoin: miter; stroke-linecap: square"/>
   </g>
   <g id="patch_4">
    <path d="M 28.257656 62.125306 
L 78.729802 62.125306 
" style="fill: none; stroke: #000000; stroke-width: 0.8; stroke-linejoin: miter; stroke-linecap: square"/>
   </g>
   <g id="text_7">
    <!-- du/dt -->
    <g transform="translate(39.452401 15.427656)scale(0.11 -0.11)">
     <defs>
      <path id="CMUSerif-Roman-64" d="M 218 1376 
Q 218 1984 643 2406 
Q 1069 2829 1645 2829 
Q 2131 2829 2451 2432 
L 2451 3814 
Q 2451 4051 2368 4112 
Q 2285 4173 1952 4173 
L 1952 4371 
L 2874 4442 
L 2874 557 
Q 2874 320 2957 259 
Q 3040 198 3373 198 
L 3373 0 
L 2432 -70 
L 2432 352 
Q 2099 -70 1574 -70 
Q 1024 -70 621 352 
Q 218 774 218 1376 
z
M 749 1370 
Q 749 774 934 480 
Q 1190 70 1606 70 
Q 2080 70 2362 518 
Q 2432 627 2432 755 
L 2432 2067 
Q 2432 2195 2362 2304 
Q 2099 2688 1670 2688 
Q 1222 2688 947 2278 
Q 749 1971 749 1370 
z
" transform="scale(0.015625)"/>
      <path id="CMUSerif-Roman-75" d="M 205 2560 
L 205 2758 
L 1146 2829 
L 1146 704 
Q 1146 550 1158 460 
Q 1171 371 1222 268 
Q 1274 166 1395 118 
Q 1517 70 1709 70 
Q 2054 70 2268 355 
Q 2483 640 2483 1062 
L 2483 2202 
Q 2483 2438 2400 2499 
Q 2317 2560 1984 2560 
L 1984 2758 
L 2925 2829 
L 2925 557 
Q 2925 320 3008 259 
Q 3091 198 3424 198 
L 3424 0 
L 2502 -70 
L 2502 506 
Q 2234 -70 1677 -70 
Q 1395 -70 1203 0 
Q 1011 70 915 160 
Q 819 250 768 422 
Q 717 595 710 700 
Q 704 806 704 1011 
L 704 1971 
Q 704 2406 640 2483 
Q 576 2560 205 2560 
z
" transform="scale(0.015625)"/>
      <path id="CMUSerif-Roman-2f" d="M 365 -1510 
Q 365 -1478 390 -1408 
L 2650 4627 
Q 2650 4634 2666 4669 
Q 2682 4704 2691 4726 
Q 2701 4749 2720 4768 
Q 2739 4787 2765 4787 
Q 2829 4787 2829 4710 
Q 2829 4704 2810 4627 
L 544 -1414 
Q 506 -1523 483 -1555 
Q 461 -1587 422 -1587 
Q 365 -1587 365 -1510 
z
" transform="scale(0.015625)"/>
     </defs>
     <use xlink:href="#CMUSerif-Roman-64"/>
     <use xlink:href="#CMUSerif-Roman-75" x="55.499985"/>
     <use xlink:href="#CMUSerif-Roman-2f" x="110.999969"/>
     <use xlink:href="#CMUSerif-Roman-64" x="160.999954"/>
     <use xlink:href="#CMUSerif-Roman-74" x="216.499939"/>
    </g>
   </g>
  </g>
  <g id="axes_2">
   <g id="patch_5">
    <path d="M 119.348936 62.125306 
L 169.821082 62.125306 
L 169.821082 21.427656 
L 119.348936 21.427656 
z
" style="fill: #ffffff"/>
   </g>
   <g id="matplotlib.axis_3">
    <g id="xtick_3">
     <g id="line2d_16">
      <g>
       <use xlink:href="#m6a016b194d" x="121.643125" y="62.125306" style="stroke: #000000; stroke-width: 0.8"/>
      </g>
     </g>
     <g id="text_8">
      <!-- 0 -->
      <g transform="translate(118.893125 76.759994)scale(0.11 -0.11)">
       <use xlink:href="#CMUSerif-Roman-30"/>
      </g>
     </g>
    </g>
    <g id="xtick_4">
     <g id="line2d_17">
      <g>
       <use xlink:href="#m6a016b194d" x="167.549847" y="62.125306" style="stroke: #000000; stroke-width: 0.8"/>
      </g>
     </g>
     <g id="text_9">
      <!-- 2000 -->
      <g transform="translate(156.549847 76.759994)scale(0.11 -0.11)">
       <use xlink:href="#CMUSerif-Roman-32"/>
       <use xlink:href="#CMUSerif-Roman-30" x="49.999985"/>
       <use xlink:href="#CMUSerif-Roman-30" x="99.999969"/>
       <use xlink:href="#CMUSerif-Roman-30" x="149.999954"/>
      </g>
     </g>
    </g>
    <g id="text_10">
     <!-- time [ms] -->
     <g transform="translate(122.266181 91.144681)scale(0.11 -0.11)">
      <use xlink:href="#CMUSerif-Roman-74"/>
      <use xlink:href="#CMUSerif-Roman-69" x="38.799988"/>
      <use xlink:href="#CMUSerif-Roman-6d" x="66.499985"/>
      <use xlink:href="#CMUSerif-Roman-65" x="149.799973"/>
      <use xlink:href="#CMUSerif-Roman-20" x="194.199966"/>
      <use xlink:href="#CMUSerif-Roman-5b" x="227.499954"/>
      <use xlink:href="#CMUSerif-Roman-6d" x="255.299942"/>
      <use xlink:href="#CMUSerif-Roman-73" x="338.59993"/>
      <use xlink:href="#CMUSerif-Roman-5d" x="377.999924"/>
     </g>
    </g>
   </g>
   <g id="matplotlib.axis_4">
    <g id="ytick_4">
     <g id="line2d_18">
      <g>
       <use xlink:href="#mc7828dc222" x="119.348936" y="46.968181" style="stroke: #000000; stroke-width: 0.8"/>
      </g>
     </g>
     <g id="text_11">
      <!-- 0.25 -->
      <g transform="translate(92.79128 50.785525)scale(0.11 -0.11)">
       <defs>
        <path id="CMUSerif-Roman-35" d="M 320 1030 
Q 320 1222 422 1296 
Q 525 1370 634 1370 
Q 781 1370 867 1277 
Q 954 1184 954 1056 
Q 954 928 867 835 
Q 781 742 634 742 
Q 563 742 525 755 
Q 608 461 867 249 
Q 1126 38 1466 38 
Q 1894 38 2150 454 
Q 2304 723 2304 1331 
Q 2304 1869 2189 2138 
Q 2010 2547 1645 2547 
Q 1126 2547 819 2099 
Q 781 2042 736 2042 
Q 672 2042 659 2077 
Q 646 2112 646 2208 
L 646 4102 
Q 646 4256 710 4256 
Q 736 4256 787 4237 
Q 1190 4058 1638 4058 
Q 2099 4058 2509 4243 
Q 2541 4262 2560 4262 
Q 2624 4262 2624 4192 
Q 2624 4166 2573 4092 
Q 2522 4019 2413 3923 
Q 2304 3827 2163 3737 
Q 2022 3648 1817 3587 
Q 1613 3526 1389 3526 
Q 1120 3526 845 3610 
L 845 2362 
Q 1178 2688 1658 2688 
Q 2170 2688 2522 2275 
Q 2874 1862 2874 1286 
Q 2874 685 2458 272 
Q 2042 -141 1478 -141 
Q 966 -141 643 224 
Q 320 589 320 1030 
z
" transform="scale(0.015625)"/>
       </defs>
       <use xlink:href="#CMUSerif-Roman-30"/>
       <use xlink:href="#CMUSerif-Roman-2e" x="49.999985"/>
       <use xlink:href="#CMUSerif-Roman-32" x="77.799973"/>
       <use xlink:href="#CMUSerif-Roman-35" x="127.799957"/>
      </g>
     </g>
    </g>
    <g id="ytick_5">
     <g id="line2d_19">
      <g>
       <use xlink:href="#mc7828dc222" x="119.348936" y="28.411512" style="stroke: #000000; stroke-width: 0.8"/>
      </g>
     </g>
     <g id="text_12">
      <!-- 0.50 -->
      <g transform="translate(92.79128 32.228856)scale(0.11 -0.11)">
       <use xlink:href="#CMUSerif-Roman-30"/>
       <use xlink:href="#CMUSerif-Roman-2e" x="49.999985"/>
       <use xlink:href="#CMUSerif-Roman-35" x="77.799973"/>
       <use xlink:href="#CMUSerif-Roman-30" x="127.799957"/>
      </g>
     </g>
    </g>
   </g>
   <g id="line2d_20">
    <path d="M 121.643125 50.679515 
L 121.987425 50.477909 
L 122.354679 50.520339 
L 122.813746 50.819553 
L 123.5253 51.587356 
L 127.588045 56.436154 
L 128.91934 57.481514 
L 130.319495 58.297935 
L 131.85737 58.934403 
L 133.647733 59.42851 
L 135.851255 59.797564 
L 138.835192 60.056661 
L 143.448818 60.210507 
L 153.479437 60.270912 
L 167.526894 60.275413 
L 167.526894 60.275413 
" clip-path="url(#p40ce65fc95)" style="fill: none; stroke: #00d4ff; stroke-opacity: 0.8; stroke-width: 1.5; stroke-linecap: square"/>
   </g>
   <g id="line2d_21">
    <path d="M 121.643125 50.679515 
L 122.056285 49.831495 
L 122.423539 49.523519 
L 122.790793 49.499767 
L 123.226907 49.717874 
L 123.869601 50.328897 
L 125.154989 51.943387 
L 127.014211 54.183715 
L 128.391413 55.491489 
L 129.745661 56.474635 
L 131.191723 57.24685 
L 132.798458 57.847497 
L 134.680634 58.307925 
L 137.067783 58.651138 
L 140.350114 58.882287 
L 145.744154 59.011631 
L 159.653891 59.052203 
L 167.526894 59.053148 
L 167.526894 59.053148 
" clip-path="url(#p40ce65fc95)" style="fill: none; stroke: #0cf4eb; stroke-opacity: 0.8; stroke-width: 1.5; stroke-linecap: square"/>
   </g>
   <g id="line2d_22">
    <path d="M 121.643125 50.679515 
L 122.102192 48.972841 
L 122.515353 48.203096 
L 122.882606 47.927425 
L 123.24986 47.915456 
L 123.708927 48.148929 
L 124.374575 48.777674 
L 125.751776 50.473666 
L 127.588045 52.618263 
L 128.9882 53.907867 
L 130.365402 54.877985 
L 131.834417 55.639954 
L 133.464106 56.232758 
L 135.392188 56.691777 
L 137.825244 57.03175 
L 141.199388 57.261804 
L 146.754102 57.389276 
L 161.329486 57.428439 
L 167.526894 57.429183 
L 167.526894 57.429183 
" clip-path="url(#p40ce65fc95)" style="fill: none; stroke: #29ffce; stroke-opacity: 0.8; stroke-width: 1.5; stroke-linecap: square"/>
   </g>
   <g id="line2d_23">
    <path d="M 121.643125 50.679515 
L 122.125145 47.984553 
L 122.584213 46.586183 
L 122.997373 45.973518 
L 123.364627 45.777639 
L 123.754834 45.817043 
L 124.259808 46.11842 
L 125.017269 46.868735 
L 129.286594 51.53897 
L 130.709702 52.568944 
L 132.201671 53.370989 
L 133.854313 54.000737 
L 135.782395 54.488406 
L 138.169545 54.851527 
L 141.405969 55.102766 
L 146.501615 55.249556 
L 158.070109 55.303565 
L 167.526894 55.306425 
L 167.526894 55.306425 
" clip-path="url(#p40ce65fc95)" style="fill: none; stroke: #43ffb4; stroke-opacity: 0.8; stroke-width: 1.5; stroke-linecap: square"/>
   </g>
   <g id="line2d_24">
    <path d="M 121.643125 50.679515 
L 122.148099 46.854631 
L 122.630119 44.750763 
L 123.066233 43.716048 
L 123.479394 43.249548 
L 123.869601 43.124285 
L 124.305715 43.23101 
L 124.879549 43.62449 
L 125.820637 44.585933 
L 129.080014 48.096889 
L 130.549029 49.2721 
L 132.040997 50.184143 
L 133.647733 50.904747 
L 135.461048 51.47068 
L 137.641617 51.908934 
L 140.418974 52.227675 
L 144.366952 52.437984 
L 151.207054 52.547048 
L 167.526894 52.573048 
L 167.526894 52.573048 
" clip-path="url(#p40ce65fc95)" style="fill: none; stroke: #60ff97; stroke-opacity: 0.8; stroke-width: 1.5; stroke-linecap: square"/>
   </g>
   <g id="line2d_25">
    <path d="M 121.643125 50.679515 
L 122.171052 45.615736 
L 122.676026 42.714278 
L 123.158047 41.131823 
L 123.59416 40.371231 
L 124.007321 40.05106 
L 124.420481 39.999094 
L 124.925455 40.178892 
L 125.63701 40.703699 
L 126.945351 42.007754 
L 129.309547 44.33144 
L 130.916283 45.582376 
L 132.500065 46.53511 
L 134.198613 47.294239 
L 136.080789 47.8888 
L 138.307265 48.352604 
L 141.107575 48.697742 
L 144.96374 48.932381 
L 151.230007 49.063941 
L 167.09078 49.106303 
L 167.526894 49.106421 
L 167.526894 49.106421 
" clip-path="url(#p40ce65fc95)" style="fill: none; stroke: #7dff7a; stroke-opacity: 0.8; stroke-width: 1.5; stroke-linecap: square"/>
   </g>
   <g id="line2d_26">
    <path d="M 121.643125 50.679515 
L 122.194005 44.31147 
L 122.721933 40.541445 
L 123.226907 38.385637 
L 123.708927 37.214948 
L 124.167995 36.641086 
L 124.604108 36.426931 
L 125.086129 36.442011 
L 125.70587 36.707265 
L 126.646958 37.388335 
L 131.37535 41.139646 
L 133.142759 42.112159 
L 135.001981 42.880838 
L 137.067783 43.492094 
L 139.50084 43.972855 
L 142.530683 44.333098 
L 146.639335 44.581251 
L 153.135136 44.725076 
L 167.526894 44.776404 
L 167.526894 44.776404 
" clip-path="url(#p40ce65fc95)" style="fill: none; stroke: #97ff60; stroke-opacity: 0.8; stroke-width: 1.5; stroke-linecap: square"/>
   </g>
   <g id="line2d_27">
    <path d="M 121.643125 50.679515 
L 122.216959 42.989589 
L 122.767839 38.308458 
L 123.295767 35.532274 
L 123.800741 33.93301 
L 124.305715 33.023399 
L 124.787735 32.584063 
L 125.292709 32.420408 
L 125.889497 32.476572 
L 126.692864 32.796699 
L 128.115973 33.647711 
L 131.467163 35.678752 
L 133.601826 36.681872 
L 135.805349 37.469669 
L 138.238405 38.099227 
L 141.061668 38.593348 
L 144.527626 38.965363 
L 149.164205 39.225927 
L 156.325653 39.382158 
L 167.526894 39.438823 
L 167.526894 39.438823 
" clip-path="url(#p40ce65fc95)" style="fill: none; stroke: #b4ff43; stroke-opacity: 0.8; stroke-width: 1.5; stroke-linecap: square"/>
   </g>
   <g id="line2d_28">
    <path d="M 121.643125 50.679515 
L 122.239912 41.69451 
L 122.813746 36.091626 
L 123.364627 32.669244 
L 123.915508 30.542074 
L 124.443435 29.311035 
L 124.971362 28.598854 
L 125.522243 28.21499 
L 126.141984 28.058756 
L 126.922398 28.103308 
L 128.115973 28.419969 
L 136.126696 30.951613 
L 139.409026 31.584566 
L 143.173377 32.077804 
L 147.787003 32.449232 
L 153.961457 32.708612 
L 163.487102 32.862369 
L 167.526894 32.888387 
L 167.526894 32.888387 
" clip-path="url(#p40ce65fc95)" style="fill: none; stroke: #ceff29; stroke-opacity: 0.8; stroke-width: 1.5; stroke-linecap: square"/>
   </g>
   <g id="line2d_29">
    <path d="M 121.643125 50.679515 
L 122.262866 40.461465 
L 122.859653 33.956939 
L 123.45644 29.757418 
L 124.030274 27.1926 
L 124.604108 25.57879 
L 125.177942 24.581164 
L 125.797683 23.941051 
L 126.486284 23.553748 
L 127.335558 23.340266 
L 128.57504 23.279075 
L 131.008096 23.427506 
L 140.350114 24.082254 
L 148.957624 24.417955 
L 160.778605 24.640457 
L 167.526894 24.702292 
L 167.526894 24.702292 
" clip-path="url(#p40ce65fc95)" style="fill: none; stroke: #ebff0c; stroke-opacity: 0.8; stroke-width: 1.5; stroke-linecap: square"/>
   </g>
   <g id="patch_6">
    <path d="M 119.348936 62.125306 
L 119.348936 21.427656 
" style="fill: none; stroke: #000000; stroke-width: 0.8; stroke-linejoin: miter; stroke-linecap: square"/>
   </g>
   <g id="patch_7">
    <path d="M 119.348936 62.125306 
L 169.821082 62.125306 
" style="fill: none; stroke: #000000; stroke-width: 0.8; stroke-linejoin: miter; stroke-linecap: square"/>
   </g>
   <g id="text_13">
    <!-- dv/dt -->
    <g transform="translate(130.697509 15.427656)scale(0.11 -0.11)">
     <defs>
      <path id="CMUSerif-Roman-76" d="M 122 2560 
L 122 2758 
Q 410 2739 742 2739 
Q 864 2739 1440 2758 
L 1440 2560 
Q 1075 2560 1075 2394 
Q 1075 2368 1114 2285 
L 1830 499 
L 2483 2131 
Q 2522 2240 2522 2285 
Q 2522 2394 2448 2474 
Q 2374 2554 2214 2560 
L 2214 2758 
Q 2541 2739 2771 2739 
Q 3034 2739 3251 2758 
L 3251 2560 
Q 3059 2560 2924 2473 
Q 2790 2387 2748 2313 
Q 2707 2240 2662 2131 
L 1824 51 
Q 1773 -70 1690 -70 
Q 1632 -70 1609 -48 
Q 1587 -26 1555 51 
L 634 2323 
Q 570 2483 490 2521 
Q 410 2560 122 2560 
z
" transform="scale(0.015625)"/>
     </defs>
     <use xlink:href="#CMUSerif-Roman-64"/>
     <use xlink:href="#CMUSerif-Roman-76" x="55.499985"/>
     <use xlink:href="#CMUSerif-Roman-2f" x="108.199982"/>
     <use xlink:href="#CMUSerif-Roman-64" x="158.199966"/>
     <use xlink:href="#CMUSerif-Roman-74" x="213.699951"/>
    </g>
   </g>
  </g>
  <g id="axes_3">
   <g id="patch_8">
    <path d="M 210.440216 62.125306 
L 260.912362 62.125306 
L 260.912362 21.427656 
L 210.440216 21.427656 
z
" style="fill: #ffffff"/>
   </g>
   <g id="matplotlib.axis_5">
    <g id="xtick_5">
     <g id="line2d_30">
      <g>
       <use xlink:href="#m6a016b194d" x="212.734405" y="62.125306" style="stroke: #000000; stroke-width: 0.8"/>
      </g>
     </g>
     <g id="text_14">
      <!-- 0 -->
      <g transform="translate(209.984405 76.759994)scale(0.11 -0.11)">
       <use xlink:href="#CMUSerif-Roman-30"/>
      </g>
     </g>
    </g>
    <g id="xtick_6">
     <g id="line2d_31">
      <g>
       <use xlink:href="#m6a016b194d" x="258.641127" y="62.125306" style="stroke: #000000; stroke-width: 0.8"/>
      </g>
     </g>
     <g id="text_15">
      <!-- 2000 -->
      <g transform="translate(247.641127 76.759994)scale(0.11 -0.11)">
       <use xlink:href="#CMUSerif-Roman-32"/>
       <use xlink:href="#CMUSerif-Roman-30" x="49.999985"/>
       <use xlink:href="#CMUSerif-Roman-30" x="99.999969"/>
       <use xlink:href="#CMUSerif-Roman-30" x="149.999954"/>
      </g>
     </g>
    </g>
    <g id="text_16">
     <!-- time [ms] -->
     <g transform="translate(213.357461 91.144681)scale(0.11 -0.11)">
      <use xlink:href="#CMUSerif-Roman-74"/>
      <use xlink:href="#CMUSerif-Roman-69" x="38.799988"/>
      <use xlink:href="#CMUSerif-Roman-6d" x="66.499985"/>
      <use xlink:href="#CMUSerif-Roman-65" x="149.799973"/>
      <use xlink:href="#CMUSerif-Roman-20" x="194.199966"/>
      <use xlink:href="#CMUSerif-Roman-5b" x="227.499954"/>
      <use xlink:href="#CMUSerif-Roman-6d" x="255.299942"/>
      <use xlink:href="#CMUSerif-Roman-73" x="338.59993"/>
      <use xlink:href="#CMUSerif-Roman-5d" x="377.999924"/>
     </g>
    </g>
   </g>
   <g id="matplotlib.axis_6">
    <g id="ytick_6">
     <g id="line2d_32">
      <g>
       <use xlink:href="#mc7828dc222" x="210.440216" y="48.89344" style="stroke: #000000; stroke-width: 0.8"/>
      </g>
     </g>
     <g id="text_17">
      <!-- 0.50 -->
      <g transform="translate(183.88256 52.710783)scale(0.11 -0.11)">
       <use xlink:href="#CMUSerif-Roman-30"/>
       <use xlink:href="#CMUSerif-Roman-2e" x="49.999985"/>
       <use xlink:href="#CMUSerif-Roman-35" x="77.799973"/>
       <use xlink:href="#CMUSerif-Roman-30" x="127.799957"/>
      </g>
     </g>
    </g>
    <g id="ytick_7">
     <g id="line2d_33">
      <g>
       <use xlink:href="#mc7828dc222" x="210.440216" y="31.032782" style="stroke: #000000; stroke-width: 0.8"/>
      </g>
     </g>
     <g id="text_18">
      <!-- 0.75 -->
      <g transform="translate(183.88256 34.850126)scale(0.11 -0.11)">
       <use xlink:href="#CMUSerif-Roman-30"/>
       <use xlink:href="#CMUSerif-Roman-2e" x="49.999985"/>
       <use xlink:href="#CMUSerif-Roman-37" x="77.799973"/>
       <use xlink:href="#CMUSerif-Roman-35" x="127.799957"/>
      </g>
     </g>
    </g>
   </g>
   <g id="line2d_34">
    <path d="M 212.734405 48.89344 
L 213.101659 48.782908 
L 213.537773 48.394822 
L 214.111607 47.542345 
L 214.892021 45.935299 
L 216.154456 42.743353 
L 219.023626 35.400998 
L 220.423781 32.485421 
L 221.709169 30.304847 
L 222.948651 28.624275 
L 224.188132 27.304978 
L 225.47352 26.253936 
L 226.850722 25.413475 
L 228.388597 24.741019 
L 230.156006 24.218015 
L 232.313622 23.821141 
L 235.159839 23.538667 
L 239.383257 23.364216 
L 247.66942 23.286906 
L 258.618174 23.277549 
L 258.618174 23.277549 
" clip-path="url(#pf4bfe4cf85)" style="fill: none; stroke: #00d4ff; stroke-opacity: 0.8; stroke-width: 1.5; stroke-linecap: square"/>
   </g>
   <g id="line2d_35">
    <path d="M 212.734405 48.89344 
L 213.147565 48.777791 
L 213.606633 48.395327 
L 214.180467 47.597828 
L 214.960881 46.083205 
L 216.154456 43.203328 
L 219.45974 35.019548 
L 220.836941 32.298861 
L 222.12233 30.233507 
L 223.384764 28.618428 
L 224.647199 27.357716 
L 225.955541 26.359619 
L 227.378649 25.555822 
L 228.962431 24.921778 
L 230.7987 24.430954 
L 233.071083 24.061467 
L 236.12388 23.803568 
L 240.852272 23.650208 
L 251.158331 23.590823 
L 258.618174 23.58713 
L 258.618174 23.58713 
" clip-path="url(#pf4bfe4cf85)" style="fill: none; stroke: #0cf4eb; stroke-opacity: 0.8; stroke-width: 1.5; stroke-linecap: square"/>
   </g>
   <g id="line2d_36">
    <path d="M 212.734405 48.89344 
L 213.216425 48.786906 
L 213.721399 48.432686 
L 214.318187 47.7101 
L 215.075648 46.406042 
L 216.154456 44.057904 
L 220.400828 34.374106 
L 221.755076 32.042477 
L 223.040464 30.256133 
L 224.325852 28.844221 
L 225.634194 27.733348 
L 227.011395 26.852184 
L 228.526317 26.147545 
L 230.270773 25.588488 
L 232.359529 25.162084 
L 235.045072 24.853188 
L 238.901237 24.652686 
L 245.764291 24.552858 
L 258.618174 24.532864 
L 258.618174 24.532864 
" clip-path="url(#pf4bfe4cf85)" style="fill: none; stroke: #29ffce; stroke-opacity: 0.8; stroke-width: 1.5; stroke-linecap: square"/>
   </g>
   <g id="line2d_37">
    <path d="M 212.734405 48.89344 
L 213.445959 48.789013 
L 213.99684 48.476338 
L 214.616581 47.847085 
L 215.374041 46.728514 
L 216.406943 44.765095 
L 218.885906 39.378004 
L 220.630361 35.936641 
L 222.05347 33.60711 
L 223.384764 31.840041 
L 224.693106 30.460217 
L 226.047354 29.351724 
L 227.470463 28.473087 
L 229.031291 27.771979 
L 230.821653 27.217106 
L 232.979269 26.79097 
L 235.756626 26.482572 
L 239.727558 26.283663 
L 246.843099 26.18445 
L 258.618174 26.1652 
L 258.618174 26.1652 
" clip-path="url(#pf4bfe4cf85)" style="fill: none; stroke: #43ffb4; stroke-opacity: 0.8; stroke-width: 1.5; stroke-linecap: square"/>
   </g>
   <g id="line2d_38">
    <path d="M 212.734405 48.89344 
L 214.249327 48.794169 
L 214.846114 48.410506 
L 215.534715 47.685277 
L 216.406943 46.419543 
L 217.715284 44.081234 
L 221.158288 37.78181 
L 222.650257 35.588563 
L 224.050412 33.914838 
L 225.427614 32.606455 
L 226.850722 31.558088 
L 228.365644 30.71913 
L 230.041239 30.049293 
L 231.969321 29.523715 
L 234.310564 29.123851 
L 237.386315 28.837221 
L 241.93108 28.657763 
L 250.653357 28.576246 
L 258.618174 28.566308 
L 258.618174 28.566308 
" clip-path="url(#pf4bfe4cf85)" style="fill: none; stroke: #60ff97; stroke-opacity: 0.8; stroke-width: 1.5; stroke-linecap: square"/>
   </g>
   <g id="line2d_39">
    <path d="M 212.734405 48.89344 
L 213.193472 49.006131 
L 214.47886 49.419554 
L 215.075648 49.326132 
L 215.695388 48.992856 
L 216.429896 48.325755 
L 217.393937 47.116835 
L 218.931812 44.770281 
L 221.869843 40.283581 
L 223.476578 38.263293 
L 224.968546 36.735434 
L 226.460515 35.522459 
L 227.99839 34.556866 
L 229.651032 33.781523 
L 231.510254 33.159144 
L 233.690824 32.67171 
L 236.39932 32.305685 
L 240.048905 32.052523 
L 245.764291 31.904005 
L 258.59522 31.84879 
L 258.618174 31.848773 
L 258.618174 31.848773 
" clip-path="url(#pf4bfe4cf85)" style="fill: none; stroke: #7dff7a; stroke-opacity: 0.8; stroke-width: 1.5; stroke-linecap: square"/>
   </g>
   <g id="line2d_40">
    <path d="M 212.734405 48.89344 
L 213.078705 49.00786 
L 213.675493 49.503159 
L 214.754301 50.376762 
L 215.396995 50.606875 
L 215.993782 50.591169 
L 216.65943 50.338827 
L 217.439844 49.788156 
L 218.472745 48.764338 
L 220.217201 46.667751 
L 223.040464 43.32085 
L 224.784919 41.608773 
L 226.437561 40.292724 
L 228.113157 39.241387 
L 229.880566 38.395812 
L 231.831601 37.713158 
L 234.058077 37.17459 
L 236.766574 36.757627 
L 240.255485 36.457505 
L 245.328178 36.26373 
L 254.578382 36.169497 
L 258.618174 36.159693 
L 258.618174 36.159693 
" clip-path="url(#pf4bfe4cf85)" style="fill: none; stroke: #97ff60; stroke-opacity: 0.8; stroke-width: 1.5; stroke-linecap: square"/>
   </g>
   <g id="line2d_41">
    <path d="M 212.734405 48.89344 
L 213.032799 49.014461 
L 213.468912 49.489645 
L 215.649482 52.255339 
L 216.315129 52.610441 
L 216.980777 52.716031 
L 217.692331 52.600296 
L 218.541605 52.227156 
L 219.66632 51.472178 
L 221.594402 49.863651 
L 224.716059 47.299058 
L 226.735955 45.937341 
L 228.709944 44.87211 
L 230.775747 44.011724 
L 233.025176 43.318845 
L 235.595953 42.764987 
L 238.694656 42.334342 
L 242.665588 42.019874 
L 248.312115 41.813875 
L 258.205013 41.7081 
L 258.618174 41.706447 
L 258.618174 41.706447 
" clip-path="url(#pf4bfe4cf85)" style="fill: none; stroke: #b4ff43; stroke-opacity: 0.8; stroke-width: 1.5; stroke-linecap: square"/>
   </g>
   <g id="line2d_42">
    <path d="M 212.734405 48.89344 
L 212.986892 49.003522 
L 213.354146 49.461403 
L 214.019793 50.74181 
L 215.488808 53.584595 
L 216.315129 54.675045 
L 217.07259 55.320291 
L 217.830051 55.67875 
L 218.633419 55.813026 
L 219.574507 55.735727 
L 220.768081 55.40086 
L 222.60435 54.626165 
L 228.113157 52.19734 
L 230.890514 51.278392 
L 233.80559 50.551502 
L 237.087921 49.968468 
L 240.967039 49.513693 
L 245.856105 49.175594 
L 252.627346 48.946686 
L 258.618174 48.857431 
L 258.618174 48.857431 
" clip-path="url(#pf4bfe4cf85)" style="fill: none; stroke: #ceff29; stroke-opacity: 0.8; stroke-width: 1.5; stroke-linecap: square"/>
   </g>
   <g id="line2d_43">
    <path d="M 212.734405 48.89344 
L 212.963939 49.000826 
L 213.285286 49.439652 
L 213.813213 50.603581 
L 216.269223 56.516069 
L 217.14145 57.860443 
L 218.013678 58.808563 
L 218.908859 59.459852 
L 219.895854 59.902153 
L 221.066475 60.172554 
L 222.558443 60.274871 
L 224.784919 60.180733 
L 230.913467 59.597819 
L 237.776522 59.081342 
L 245.695431 58.721063 
L 256.345791 58.474014 
L 258.618174 58.442466 
L 258.618174 58.442466 
" clip-path="url(#pf4bfe4cf85)" style="fill: none; stroke: #ebff0c; stroke-opacity: 0.8; stroke-width: 1.5; stroke-linecap: square"/>
   </g>
   <g id="patch_9">
    <path d="M 210.440216 62.125306 
L 210.440216 21.427656 
" style="fill: none; stroke: #000000; stroke-width: 0.8; stroke-linejoin: miter; stroke-linecap: square"/>
   </g>
   <g id="patch_10">
    <path d="M 210.440216 62.125306 
L 260.912362 62.125306 
" style="fill: none; stroke: #000000; stroke-width: 0.8; stroke-linejoin: miter; stroke-linecap: square"/>
   </g>
   <g id="text_19">
    <!-- dy/dt -->
    <g transform="translate(221.788789 15.427656)scale(0.11 -0.11)">
     <defs>
      <path id="CMUSerif-Roman-79" d="M 122 -794 
Q 122 -659 202 -588 
Q 282 -518 390 -518 
Q 506 -518 582 -592 
Q 659 -666 659 -787 
Q 659 -1024 410 -1056 
Q 531 -1171 710 -1171 
Q 902 -1171 1056 -1030 
Q 1210 -890 1277 -755 
Q 1344 -621 1440 -378 
Q 1530 -186 1600 0 
L 640 2336 
Q 576 2490 480 2525 
Q 384 2560 122 2560 
L 122 2758 
Q 410 2739 742 2739 
Q 941 2739 1440 2758 
L 1440 2560 
Q 1082 2560 1082 2394 
Q 1082 2374 1120 2278 
L 1830 557 
L 2477 2131 
Q 2515 2221 2515 2285 
Q 2515 2547 2214 2560 
L 2214 2758 
Q 2637 2739 2771 2739 
Q 3034 2739 3251 2758 
L 3251 2560 
Q 2822 2560 2656 2150 
L 1530 -582 
Q 1222 -1312 710 -1312 
Q 467 -1312 294 -1161 
Q 122 -1011 122 -794 
z
" transform="scale(0.015625)"/>
     </defs>
     <use xlink:href="#CMUSerif-Roman-64"/>
     <use xlink:href="#CMUSerif-Roman-79" x="55.499985"/>
     <use xlink:href="#CMUSerif-Roman-2f" x="108.199982"/>
     <use xlink:href="#CMUSerif-Roman-64" x="158.199966"/>
     <use xlink:href="#CMUSerif-Roman-74" x="213.699951"/>
    </g>
   </g>
   <g id="legend_1">
    <g id="text_20">
     <!-- Input I -->
     <g transform="translate(269.559577 20.453049)scale(0.11 -0.11)">
      <defs>
       <path id="CMUSerif-Roman-49" d="M 179 0 
L 179 198 
L 346 198 
Q 704 198 787 256 
Q 870 314 870 499 
L 870 3872 
Q 870 4058 787 4115 
Q 704 4173 346 4173 
L 179 4173 
L 179 4371 
Q 403 4352 1158 4352 
Q 1907 4352 2131 4371 
L 2131 4173 
L 1965 4173 
Q 1606 4173 1523 4115 
Q 1440 4058 1440 3872 
L 1440 499 
Q 1440 314 1523 256 
Q 1606 198 1965 198 
L 2131 198 
L 2131 0 
Q 1907 19 1152 19 
Q 403 19 179 0 
z
" transform="scale(0.015625)"/>
       <path id="CMUSerif-Roman-6e" d="M 205 0 
L 205 198 
Q 544 198 624 240 
Q 704 282 704 486 
L 704 2202 
Q 704 2438 621 2499 
Q 538 2560 205 2560 
L 205 2758 
L 1107 2829 
L 1107 2157 
Q 1408 2829 2054 2829 
Q 2534 2829 2726 2592 
Q 2867 2432 2896 2253 
Q 2925 2074 2925 1613 
L 2925 390 
Q 2931 256 3033 227 
Q 3136 198 3424 198 
L 3424 0 
Q 2771 19 2707 19 
Q 2656 19 1984 0 
L 1984 198 
Q 2323 198 2403 240 
Q 2483 282 2483 486 
L 2483 1978 
Q 2483 2304 2384 2496 
Q 2285 2688 2010 2688 
Q 1677 2688 1411 2409 
Q 1146 2131 1146 1664 
L 1146 486 
Q 1146 282 1226 240 
Q 1306 198 1645 198 
L 1645 0 
Q 992 19 928 19 
Q 877 19 205 0 
z
" transform="scale(0.015625)"/>
       <path id="CMUSerif-Roman-70" d="M 179 -1043 
Q 518 -1043 598 -1001 
Q 678 -960 678 -755 
L 678 2240 
Q 678 2451 598 2505 
Q 518 2560 179 2560 
L 179 2758 
L 1101 2829 
L 1101 2406 
Q 1485 2829 1997 2829 
Q 2541 2829 2937 2406 
Q 3334 1984 3334 1382 
Q 3334 774 2912 352 
Q 2490 -70 1907 -70 
Q 1587 -70 1372 93 
Q 1158 256 1120 378 
L 1120 320 
L 1120 -755 
Q 1120 -960 1200 -1001 
Q 1280 -1043 1619 -1043 
L 1619 -1242 
Q 947 -1222 896 -1222 
Q 832 -1222 179 -1242 
L 179 -1043 
z
M 1120 730 
Q 1120 634 1133 598 
Q 1146 563 1210 461 
Q 1466 70 1882 70 
Q 2246 70 2524 444 
Q 2803 819 2803 1382 
Q 2803 1920 2550 2294 
Q 2298 2669 1946 2669 
Q 1696 2669 1478 2534 
Q 1261 2400 1120 2157 
L 1120 730 
z
" transform="scale(0.015625)"/>
      </defs>
      <use xlink:href="#CMUSerif-Roman-49"/>
      <use xlink:href="#CMUSerif-Roman-6e" x="36.099991"/>
      <use xlink:href="#CMUSerif-Roman-70" x="91.599976"/>
      <use xlink:href="#CMUSerif-Roman-75" x="147.09996"/>
      <use xlink:href="#CMUSerif-Roman-74" x="202.599945"/>
      <use xlink:href="#CMUSerif-Roman-20" x="241.399933"/>
      <use xlink:href="#CMUSerif-Roman-49" x="274.699921"/>
     </g>
    </g>
    <g id="line2d_44">
     <path d="M 277.496608 25.987736 
L 281.496608 25.987736 
L 285.496608 25.987736 
" style="fill: none; stroke: #00d4ff; stroke-opacity: 0.8; stroke-width: 1.5; stroke-linecap: square"/>
    </g>
    <g id="text_21">
     <!-- 0.5 -->
     <g transform="translate(288.696608 27.387736)scale(0.04 -0.04)">
      <use xlink:href="#CMUSerif-Roman-30"/>
      <use xlink:href="#CMUSerif-Roman-2e" x="49.999985"/>
      <use xlink:href="#CMUSerif-Roman-35" x="77.799973"/>
     </g>
    </g>
    <g id="line2d_45">
     <path d="M 277.496608 31.563986 
L 281.496608 31.563986 
L 285.496608 31.563986 
" style="fill: none; stroke: #0cf4eb; stroke-opacity: 0.8; stroke-width: 1.5; stroke-linecap: square"/>
    </g>
    <g id="text_22">
     <!-- 0.55 -->
     <g transform="translate(288.696608 32.963986)scale(0.04 -0.04)">
      <use xlink:href="#CMUSerif-Roman-30"/>
      <use xlink:href="#CMUSerif-Roman-2e" x="49.999985"/>
      <use xlink:href="#CMUSerif-Roman-35" x="77.799973"/>
      <use xlink:href="#CMUSerif-Roman-35" x="127.799957"/>
     </g>
    </g>
    <g id="line2d_46">
     <path d="M 277.496608 37.140236 
L 281.496608 37.140236 
L 285.496608 37.140236 
" style="fill: none; stroke: #29ffce; stroke-opacity: 0.8; stroke-width: 1.5; stroke-linecap: square"/>
    </g>
    <g id="text_23">
     <!-- 0.6 -->
     <g transform="translate(288.696608 38.540236)scale(0.04 -0.04)">
      <defs>
       <path id="CMUSerif-Roman-36" d="M 269 2022 
Q 269 3027 781 3644 
Q 1293 4262 1952 4262 
Q 2336 4262 2550 4067 
Q 2765 3872 2765 3571 
Q 2765 3405 2669 3334 
Q 2573 3264 2470 3264 
Q 2355 3264 2265 3341 
Q 2176 3418 2176 3558 
Q 2176 3846 2528 3846 
Q 2362 4102 1965 4102 
Q 1843 4102 1718 4067 
Q 1594 4032 1430 3913 
Q 1267 3795 1142 3606 
Q 1018 3418 931 3066 
Q 845 2714 845 2253 
L 845 2099 
Q 1107 2733 1644 2733 
Q 2182 2733 2553 2323 
Q 2925 1914 2925 1306 
Q 2925 685 2537 272 
Q 2150 -141 1606 -141 
Q 1363 -141 1142 -38 
Q 922 64 717 294 
Q 512 525 390 969 
Q 269 1414 269 2022 
z
M 858 1446 
Q 858 819 973 518 
Q 992 467 1033 400 
Q 1075 333 1148 243 
Q 1222 154 1344 96 
Q 1466 38 1606 38 
Q 2035 38 2240 454 
Q 2349 685 2349 1312 
Q 2349 1952 2234 2189 
Q 2035 2586 1638 2586 
Q 1370 2586 1184 2400 
Q 998 2214 928 1968 
Q 858 1722 858 1446 
z
" transform="scale(0.015625)"/>
      </defs>
      <use xlink:href="#CMUSerif-Roman-30"/>
      <use xlink:href="#CMUSerif-Roman-2e" x="49.999985"/>
      <use xlink:href="#CMUSerif-Roman-36" x="77.799973"/>
     </g>
    </g>
    <g id="line2d_47">
     <path d="M 277.496608 42.716486 
L 281.496608 42.716486 
L 285.496608 42.716486 
" style="fill: none; stroke: #43ffb4; stroke-opacity: 0.8; stroke-width: 1.5; stroke-linecap: square"/>
    </g>
    <g id="text_24">
     <!-- 0.65 -->
     <g transform="translate(288.696608 44.116486)scale(0.04 -0.04)">
      <use xlink:href="#CMUSerif-Roman-30"/>
      <use xlink:href="#CMUSerif-Roman-2e" x="49.999985"/>
      <use xlink:href="#CMUSerif-Roman-36" x="77.799973"/>
      <use xlink:href="#CMUSerif-Roman-35" x="127.799957"/>
     </g>
    </g>
    <g id="line2d_48">
     <path d="M 277.496608 48.292736 
L 281.496608 48.292736 
L 285.496608 48.292736 
" style="fill: none; stroke: #60ff97; stroke-opacity: 0.8; stroke-width: 1.5; stroke-linecap: square"/>
    </g>
    <g id="text_25">
     <!-- 0.7 -->
     <g transform="translate(288.696608 49.692736)scale(0.04 -0.04)">
      <use xlink:href="#CMUSerif-Roman-30"/>
      <use xlink:href="#CMUSerif-Roman-2e" x="49.999985"/>
      <use xlink:href="#CMUSerif-Roman-37" x="77.799973"/>
     </g>
    </g>
    <g id="line2d_49">
     <path d="M 277.496608 53.868986 
L 281.496608 53.868986 
L 285.496608 53.868986 
" style="fill: none; stroke: #7dff7a; stroke-opacity: 0.8; stroke-width: 1.5; stroke-linecap: square"/>
    </g>
    <g id="text_26">
     <!-- 0.75 -->
     <g transform="translate(288.696608 55.268986)scale(0.04 -0.04)">
      <use xlink:href="#CMUSerif-Roman-30"/>
      <use xlink:href="#CMUSerif-Roman-2e" x="49.999985"/>
      <use xlink:href="#CMUSerif-Roman-37" x="77.799973"/>
      <use xlink:href="#CMUSerif-Roman-35" x="127.799957"/>
     </g>
    </g>
    <g id="line2d_50">
     <path d="M 277.496608 59.445236 
L 281.496608 59.445236 
L 285.496608 59.445236 
" style="fill: none; stroke: #97ff60; stroke-opacity: 0.8; stroke-width: 1.5; stroke-linecap: square"/>
    </g>
    <g id="text_27">
     <!-- 0.8 -->
     <g transform="translate(288.696608 60.845236)scale(0.04 -0.04)">
      <use xlink:href="#CMUSerif-Roman-30"/>
      <use xlink:href="#CMUSerif-Roman-2e" x="49.999985"/>
      <use xlink:href="#CMUSerif-Roman-38" x="77.799973"/>
     </g>
    </g>
    <g id="line2d_51">
     <path d="M 277.496608 65.021486 
L 281.496608 65.021486 
L 285.496608 65.021486 
" style="fill: none; stroke: #b4ff43; stroke-opacity: 0.8; stroke-width: 1.5; stroke-linecap: square"/>
    </g>
    <g id="text_28">
     <!-- 0.85 -->
     <g transform="translate(288.696608 66.421486)scale(0.04 -0.04)">
      <use xlink:href="#CMUSerif-Roman-30"/>
      <use xlink:href="#CMUSerif-Roman-2e" x="49.999985"/>
      <use xlink:href="#CMUSerif-Roman-38" x="77.799973"/>
      <use xlink:href="#CMUSerif-Roman-35" x="127.799957"/>
     </g>
    </g>
    <g id="line2d_52">
     <path d="M 277.496608 70.597736 
L 281.496608 70.597736 
L 285.496608 70.597736 
" style="fill: none; stroke: #ceff29; stroke-opacity: 0.8; stroke-width: 1.5; stroke-linecap: square"/>
    </g>
    <g id="text_29">
     <!-- 0.9 -->
     <g transform="translate(288.696608 71.997736)scale(0.04 -0.04)">
      <use xlink:href="#CMUSerif-Roman-30"/>
      <use xlink:href="#CMUSerif-Roman-2e" x="49.999985"/>
      <use xlink:href="#CMUSerif-Roman-39" x="77.799973"/>
     </g>
    </g>
    <g id="line2d_53">
     <path d="M 277.496608 76.173986 
L 281.496608 76.173986 
L 285.496608 76.173986 
" style="fill: none; stroke: #ebff0c; stroke-opacity: 0.8; stroke-width: 1.5; stroke-linecap: square"/>
    </g>
    <g id="text_30">
     <!-- 0.95 -->
     <g transform="translate(288.696608 77.573986)scale(0.04 -0.04)">
      <use xlink:href="#CMUSerif-Roman-30"/>
      <use xlink:href="#CMUSerif-Roman-2e" x="49.999985"/>
      <use xlink:href="#CMUSerif-Roman-39" x="77.799973"/>
      <use xlink:href="#CMUSerif-Roman-35" x="127.799957"/>
     </g>
    </g>
   </g>
  </g>
 </g>
 <defs>
  <clipPath id="pfb5e961a85">
   <rect x="28.257656" y="21.427656" width="50.472146" height="40.69765"/>
  </clipPath>
  <clipPath id="p40ce65fc95">
   <rect x="119.348936" y="21.427656" width="50.472146" height="40.69765"/>
  </clipPath>
  <clipPath id="pf4bfe4cf85">
   <rect x="210.440216" y="21.427656" width="50.472146" height="40.69765"/>
  </clipPath>
 </defs>
</svg>
