<?xml version="1.0" encoding="utf-8" standalone="no"?>
<!DOCTYPE svg PUBLIC "-//W3C//DTD SVG 1.1//EN"
  "http://www.w3.org/Graphics/SVG/1.1/DTD/svg11.dtd">
<svg xmlns:xlink="http://www.w3.org/1999/xlink" width="480.578505pt" height="114.679324pt" viewBox="0 0 480.578505 114.679324" xmlns="http://www.w3.org/2000/svg" version="1.1">
 <metadata>
  <rdf:RDF xmlns:dc="http://purl.org/dc/elements/1.1/" xmlns:cc="http://creativecommons.org/ns#" xmlns:rdf="http://www.w3.org/1999/02/22-rdf-syntax-ns#">
   <cc:Work>
    <dc:type rdf:resource="http://purl.org/dc/dcmitype/StillImage"/>
    <dc:date>2022-08-09T11:37:10.381094</dc:date>
    <dc:format>image/svg+xml</dc:format>
    <dc:creator>
     <cc:Agent>
      <dc:title>Matplotlib v3.5.1, https://matplotlib.org/</dc:title>
     </cc:Agent>
    </dc:creator>
   </cc:Work>
  </rdf:RDF>
 </metadata>
 <defs>
  <style type="text/css">*{stroke-linejoin: round; stroke-linecap: butt}</style>
 </defs>
 <g id="figure_1">
  <g id="patch_1">
   <path d="M 0 114.679324 
L 480.578505 114.679324 
L 480.578505 0 
L 0 0 
L 0 114.679324 
z
" style="fill: none"/>
  </g>
  <g id="axes_1">
   <g id="patch_2">
    <path d="M 28.203076 75.779178 
L 85.597362 75.779178 
L 85.597362 21.419178 
L 28.203076 21.419178 
z
" style="fill: #ffffff"/>
   </g>
   <g id="matplotlib.axis_1">
    <g id="xtick_1">
     <g id="line2d_1">
      <defs>
       <path id="m01e99fbcd5" d="M 0 0 
L 0 3.5 
" style="stroke: #000000; stroke-width: 0.8"/>
      </defs>
      <g>
       <use xlink:href="#m01e99fbcd5" x="30.811907" y="75.779178" style="stroke: #000000; stroke-width: 0.8"/>
      </g>
     </g>
     <g id="text_1">
      <!-- $\mathdefault{0}$ -->
      <g transform="translate(28.072174 90.389525)scale(0.11 -0.11)">
       <defs>
        <path id="CMR17-30" d="M 2688 2025 
C 2688 2416 2682 3080 2413 3591 
C 2176 4039 1798 4198 1466 4198 
C 1158 4198 768 4058 525 3597 
C 269 3118 243 2524 243 2025 
C 243 1661 250 1106 448 619 
C 723 -39 1216 -128 1466 -128 
C 1760 -128 2208 -7 2470 600 
C 2662 1042 2688 1559 2688 2025 
z
M 1466 -26 
C 1056 -26 813 325 723 812 
C 653 1188 653 1738 653 2096 
C 653 2588 653 2997 736 3387 
C 858 3929 1216 4096 1466 4096 
C 1728 4096 2067 3923 2189 3400 
C 2272 3036 2278 2607 2278 2096 
C 2278 1680 2278 1169 2202 792 
C 2067 95 1690 -26 1466 -26 
z
" transform="scale(0.015625)"/>
       </defs>
       <use xlink:href="#CMR17-30" transform="scale(0.996264)"/>
      </g>
     </g>
    </g>
    <g id="xtick_2">
     <g id="line2d_2">
      <g>
       <use xlink:href="#m01e99fbcd5" x="65.619528" y="75.779178" style="stroke: #000000; stroke-width: 0.8"/>
      </g>
     </g>
     <g id="text_2">
      <!-- $\mathdefault{1000}$ -->
      <g transform="translate(54.660594 90.389525)scale(0.11 -0.11)">
       <defs>
        <path id="CMR17-31" d="M 1702 4058 
C 1702 4192 1696 4192 1606 4192 
C 1357 3916 979 3827 621 3827 
C 602 3827 570 3827 563 3808 
C 557 3795 557 3782 557 3648 
C 755 3648 1088 3686 1344 3839 
L 1344 461 
C 1344 236 1331 160 781 160 
L 589 160 
L 589 0 
C 896 0 1216 0 1523 0 
C 1830 0 2150 0 2458 0 
L 2458 160 
L 2266 160 
C 1715 160 1702 230 1702 458 
L 1702 4058 
z
" transform="scale(0.015625)"/>
       </defs>
       <use xlink:href="#CMR17-31" transform="scale(0.996264)"/>
       <use xlink:href="#CMR17-30" transform="translate(45.690477 0)scale(0.996264)"/>
       <use xlink:href="#CMR17-30" transform="translate(91.380954 0)scale(0.996264)"/>
       <use xlink:href="#CMR17-30" transform="translate(137.071431 0)scale(0.996264)"/>
      </g>
     </g>
    </g>
    <g id="text_3">
     <!-- time [ms] -->
     <g transform="translate(34.647516 104.739598)scale(0.11 -0.11)">
      <defs>
       <path id="CMR17-74" d="M 966 2560 
L 1862 2560 
L 1862 2725 
L 966 2725 
L 966 3904 
L 851 3904 
C 838 3245 614 2668 70 2668 
L 70 2560 
L 627 2560 
L 627 771 
C 627 650 627 -64 1370 -64 
C 1747 -64 1965 306 1965 777 
L 1965 1140 
L 1850 1140 
L 1850 783 
C 1850 344 1677 51 1408 51 
C 1222 51 966 178 966 758 
L 966 2560 
z
" transform="scale(0.015625)"/>
       <path id="CMR17-69" d="M 992 3909 
C 992 4049 877 4170 730 4170 
C 589 4170 467 4056 467 3909 
C 467 3769 582 3648 730 3648 
C 870 3648 992 3763 992 3909 
z
M 243 2706 
L 243 2541 
C 602 2541 653 2502 653 2197 
L 653 427 
C 653 184 627 153 218 153 
L 218 -13 
C 371 0 646 0 806 0 
C 960 0 1222 0 1370 -13 
L 1370 153 
C 992 153 979 191 979 420 
L 979 2776 
L 243 2706 
z
" transform="scale(0.015625)"/>
       <path id="CMR17-6d" d="M 4326 1933 
C 4326 2252 4269 2790 3507 2790 
C 3072 2790 2771 2496 2656 2151 
L 2650 2151 
C 2573 2676 2195 2790 1837 2790 
C 1331 2790 1069 2400 973 2144 
L 966 2144 
L 966 2790 
L 211 2720 
L 211 2554 
C 589 2554 646 2515 646 2208 
L 646 428 
C 646 184 621 153 211 153 
L 211 -13 
C 365 0 646 0 813 0 
C 979 0 1267 0 1421 -13 
L 1421 153 
C 1011 153 986 178 986 428 
L 986 1658 
C 986 2247 1344 2688 1792 2688 
C 2266 2688 2317 2266 2317 1958 
L 2317 428 
C 2317 184 2291 153 1882 153 
L 1882 -13 
C 2035 0 2317 0 2483 0 
C 2650 0 2938 0 3091 -13 
L 3091 153 
C 2682 153 2656 178 2656 428 
L 2656 1658 
C 2656 2247 3014 2688 3462 2688 
C 3936 2688 3987 2266 3987 1958 
L 3987 428 
C 3987 184 3962 153 3552 153 
L 3552 -13 
C 3706 0 3987 0 4154 0 
C 4320 0 4608 0 4762 -13 
L 4762 153 
C 4352 153 4326 178 4326 428 
L 4326 1933 
z
" transform="scale(0.015625)"/>
       <path id="CMR17-65" d="M 2438 1472 
C 2464 1498 2464 1511 2464 1576 
C 2464 2238 2118 2816 1389 2816 
C 710 2816 173 2169 173 1383 
C 173 551 781 -64 1459 -64 
C 2176 -64 2458 607 2458 740 
C 2458 784 2419 784 2406 784 
C 2362 784 2355 771 2330 696 
C 2189 265 1837 51 1504 51 
C 1229 51 954 203 781 480 
C 582 803 582 1176 582 1472 
L 2438 1472 
z
M 589 1568 
C 634 2505 1126 2714 1382 2714 
C 1818 2714 2112 2297 2118 1568 
L 589 1568 
z
" transform="scale(0.015625)"/>
       <path id="CMR17-5b" d="M 1504 -1600 
L 1504 -1377 
L 902 -1377 
L 902 4544 
L 1504 4544 
L 1504 4767 
L 678 4767 
L 678 -1600 
L 1504 -1600 
z
" transform="scale(0.015625)"/>
       <path id="CMR17-73" d="M 1978 2697 
C 1978 2813 1971 2819 1933 2819 
C 1907 2819 1901 2813 1824 2717 
C 1805 2691 1747 2626 1728 2601 
C 1523 2819 1235 2819 1126 2819 
C 416 2819 160 2447 160 2076 
C 160 1498 813 1365 998 1325 
C 1402 1243 1542 1217 1677 1101 
C 1760 1025 1901 884 1901 654 
C 1901 384 1747 38 1158 38 
C 602 38 403 460 288 1021 
C 269 1110 269 1117 218 1117 
C 166 1117 160 1110 160 983 
L 160 63 
C 160 -51 166 -58 205 -58 
C 237 -58 243 -51 275 0 
C 314 57 410 211 448 276 
C 576 103 800 -64 1158 -64 
C 1792 -64 2131 283 2131 784 
C 2131 1112 1958 1285 1875 1362 
C 1683 1561 1459 1606 1190 1657 
C 838 1735 390 1825 390 2217 
C 390 2383 480 2737 1126 2737 
C 1811 2737 1850 2094 1862 1888 
C 1869 1856 1901 1849 1920 1849 
C 1978 1849 1978 1869 1978 1978 
L 1978 2697 
z
" transform="scale(0.015625)"/>
       <path id="CMR17-5d" d="M 915 4767 
L 90 4767 
L 90 4544 
L 691 4544 
L 691 -1377 
L 90 -1377 
L 90 -1600 
L 915 -1600 
L 915 4767 
z
" transform="scale(0.015625)"/>
      </defs>
      <use xlink:href="#CMR17-74" transform="scale(0.996264)"/>
      <use xlink:href="#CMR17-69" transform="translate(35.280768 0)scale(0.996264)"/>
      <use xlink:href="#CMR17-6d" transform="translate(60.151826 0)scale(0.996264)"/>
      <use xlink:href="#CMR17-65" transform="translate(137.071416 0)scale(0.996264)"/>
      <use xlink:href="#CMR17-5b" transform="translate(207.633043 0)scale(0.996264)"/>
      <use xlink:href="#CMR17-6d" transform="translate(232.504101 0)scale(0.996264)"/>
      <use xlink:href="#CMR17-73" transform="translate(309.423691 0)scale(0.996264)"/>
      <use xlink:href="#CMR17-5d" transform="translate(345.225029 0)scale(0.996264)"/>
     </g>
    </g>
   </g>
   <g id="matplotlib.axis_2">
    <g id="ytick_1">
     <g id="line2d_3">
      <defs>
       <path id="m480457e702" d="M 0 0 
L -3.5 0 
" style="stroke: #000000; stroke-width: 0.8"/>
      </defs>
      <g>
       <use xlink:href="#m480457e702" x="28.203076" y="73.308269" style="stroke: #000000; stroke-width: 0.8"/>
      </g>
     </g>
     <g id="text_4">
      <!-- $\mathdefault{0.7}$ -->
      <g transform="translate(7.2 77.113442)scale(0.11 -0.11)">
       <defs>
        <path id="CMMI12-3a" d="M 1178 307 
C 1178 492 1024 619 870 619 
C 685 619 557 466 557 313 
C 557 128 710 0 864 0 
C 1050 0 1178 153 1178 307 
z
" transform="scale(0.015625)"/>
        <path id="CMR17-37" d="M 2886 3941 
L 2886 4081 
L 1382 4081 
C 634 4081 621 4165 595 4288 
L 480 4288 
L 294 3094 
L 410 3094 
C 429 3215 474 3540 550 3661 
C 589 3712 1062 3712 1171 3712 
L 2579 3712 
L 1869 2661 
C 1395 1954 1069 999 1069 165 
C 1069 89 1069 -128 1299 -128 
C 1530 -128 1530 89 1530 171 
L 1530 465 
C 1530 1508 1709 2196 2003 2636 
L 2886 3941 
z
" transform="scale(0.015625)"/>
       </defs>
       <use xlink:href="#CMR17-30" transform="scale(0.996264)"/>
       <use xlink:href="#CMMI12-3a" transform="translate(45.690477 0)scale(0.996264)"/>
       <use xlink:href="#CMR17-37" transform="translate(72.787654 0)scale(0.996264)"/>
      </g>
     </g>
    </g>
    <g id="ytick_2">
     <g id="line2d_4">
      <g>
       <use xlink:href="#m480457e702" x="28.203076" y="54.279881" style="stroke: #000000; stroke-width: 0.8"/>
      </g>
     </g>
     <g id="text_5">
      <!-- $\mathdefault{0.8}$ -->
      <g transform="translate(7.2 58.085055)scale(0.11 -0.11)">
       <defs>
        <path id="CMR17-38" d="M 1741 2264 
C 2144 2467 2554 2773 2554 3263 
C 2554 3841 1990 4179 1472 4179 
C 890 4179 378 3759 378 3180 
C 378 3021 416 2747 666 2505 
C 730 2442 998 2251 1171 2130 
C 883 1983 211 1634 211 934 
C 211 279 838 -128 1459 -128 
C 2144 -128 2720 362 2720 1010 
C 2720 1590 2330 1857 2074 2029 
L 1741 2264 
z
M 902 2822 
C 851 2854 595 3051 595 3351 
C 595 3739 998 4032 1459 4032 
C 1965 4032 2336 3676 2336 3262 
C 2336 2669 1670 2331 1638 2331 
C 1632 2331 1626 2331 1574 2370 
L 902 2822 
z
M 2080 1519 
C 2176 1449 2483 1240 2483 851 
C 2483 381 2010 25 1472 25 
C 890 25 448 438 448 940 
C 448 1443 838 1862 1280 2060 
L 2080 1519 
z
" transform="scale(0.015625)"/>
       </defs>
       <use xlink:href="#CMR17-30" transform="scale(0.996264)"/>
       <use xlink:href="#CMMI12-3a" transform="translate(45.690477 0)scale(0.996264)"/>
       <use xlink:href="#CMR17-38" transform="translate(72.787654 0)scale(0.996264)"/>
      </g>
     </g>
    </g>
    <g id="ytick_3">
     <g id="line2d_5">
      <g>
       <use xlink:href="#m480457e702" x="28.203076" y="35.251494" style="stroke: #000000; stroke-width: 0.8"/>
      </g>
     </g>
     <g id="text_6">
      <!-- $\mathdefault{0.9}$ -->
      <g transform="translate(7.2 39.056667)scale(0.11 -0.11)">
       <defs>
        <path id="CMR17-39" d="M 2253 1864 
C 2253 464 1670 31 1190 31 
C 1043 31 685 31 538 294 
C 704 268 826 357 826 518 
C 826 692 685 749 595 749 
C 538 749 365 723 365 506 
C 365 71 742 -128 1203 -128 
C 1939 -128 2688 674 2688 2073 
C 2688 3817 1971 4179 1485 4179 
C 851 4179 243 3628 243 2778 
C 243 1991 762 1408 1414 1408 
C 1952 1408 2189 1903 2253 2112 
L 2253 1864 
z
M 1427 1510 
C 1254 1510 1011 1542 813 1922 
C 678 2169 678 2461 678 2771 
C 678 3146 678 3405 858 3684 
C 947 3817 1114 4032 1485 4032 
C 2240 4032 2240 2885 2240 2632 
C 2240 2182 2035 1510 1427 1510 
z
" transform="scale(0.015625)"/>
       </defs>
       <use xlink:href="#CMR17-30" transform="scale(0.996264)"/>
       <use xlink:href="#CMMI12-3a" transform="translate(45.690477 0)scale(0.996264)"/>
       <use xlink:href="#CMR17-39" transform="translate(72.787654 0)scale(0.996264)"/>
      </g>
     </g>
    </g>
   </g>
   <g id="line2d_6">
    <path d="M 30.811907 73.308269 
L 31.716906 66.488923 
L 32.691519 60.816228 
L 33.770555 55.831733 
L 34.954014 51.407012 
L 36.207089 47.56538 
L 37.494971 44.306781 
L 38.81766 41.546183 
L 40.175157 39.223631 
L 41.532655 37.331991 
L 42.924959 35.763204 
L 44.386879 34.448217 
L 45.918415 33.365546 
L 47.589181 32.456583 
L 49.433984 31.706754 
L 51.557249 31.087932 
L 54.098206 30.588599 
L 57.265699 30.205295 
L 61.512229 29.931481 
L 67.951639 29.76214 
L 80.900074 29.688651 
L 82.988531 29.68602 
L 82.988531 29.68602 
" clip-path="url(#p06cbc8225b)" style="fill: none; stroke: #00d4ff; stroke-opacity: 0.8; stroke-width: 1.5; stroke-linecap: square"/>
   </g>
   <g id="line2d_7">
    <path d="M 30.811907 73.308269 
L 31.64729 65.756664 
L 32.552288 59.57836 
L 33.526902 54.441926 
L 34.605938 49.954288 
L 35.75459 46.113052 
L 36.972856 42.791837 
L 38.260738 39.919165 
L 39.583428 37.50969 
L 40.940925 35.499173 
L 42.33323 33.835103 
L 43.760342 32.470668 
L 45.291878 31.316328 
L 46.927836 30.364167 
L 48.737832 29.571784 
L 50.791482 28.9207 
L 53.193207 28.397458 
L 56.151855 27.987906 
L 60.050309 27.685892 
L 65.723951 27.489184 
L 75.992199 27.391116 
L 82.988531 27.377094 
L 82.988531 27.377094 
" clip-path="url(#p06cbc8225b)" style="fill: none; stroke: #0cf4eb; stroke-opacity: 0.8; stroke-width: 1.5; stroke-linecap: square"/>
   </g>
   <g id="line2d_8">
    <path d="M 30.811907 73.308269 
L 31.612483 65.106077 
L 32.447866 58.694123 
L 33.352864 53.406928 
L 34.327477 48.988552 
L 35.406513 45.120327 
L 36.555165 41.811167 
L 37.773432 38.955975 
L 39.061313 36.492581 
L 40.384003 34.430858 
L 41.7415 32.712977 
L 43.168613 31.260302 
L 44.66534 30.051348 
L 46.266491 29.042366 
L 48.04168 28.191713 
L 50.025714 27.493282 
L 52.323017 26.925811 
L 55.107627 26.475176 
L 58.658004 26.136458 
L 63.600686 25.903552 
L 71.710862 25.771176 
L 82.988531 25.733207 
L 82.988531 25.733207 
" clip-path="url(#p06cbc8225b)" style="fill: none; stroke: #29ffce; stroke-opacity: 0.8; stroke-width: 1.5; stroke-linecap: square"/>
   </g>
   <g id="line2d_9">
    <path d="M 30.811907 73.308269 
L 31.612483 64.37111 
L 32.447866 57.484718 
L 33.318056 52.122484 
L 34.257862 47.709778 
L 35.267283 44.020963 
L 36.381127 40.791164 
L 37.564586 38.026016 
L 38.81766 35.641033 
L 40.14035 33.585926 
L 41.532655 31.82833 
L 42.994575 30.342927 
L 44.52611 29.105513 
L 46.162068 28.071289 
L 47.937257 27.212529 
L 49.921291 26.500309 
L 52.218594 25.91509 
L 55.003204 25.444257 
L 58.518773 25.087298 
L 63.322225 24.838126 
L 70.945094 24.690515 
L 82.988531 24.639977 
L 82.988531 24.639977 
" clip-path="url(#p06cbc8225b)" style="fill: none; stroke: #43ffb4; stroke-opacity: 0.8; stroke-width: 1.5; stroke-linecap: square"/>
   </g>
   <g id="line2d_10">
    <path d="M 30.811907 73.308269 
L 31.612483 63.787377 
L 32.413058 56.773029 
L 33.248441 51.341302 
L 34.118631 47.080062 
L 35.058437 43.543519 
L 36.102666 40.469875 
L 37.251317 37.780377 
L 38.504392 35.412979 
L 39.827081 33.377802 
L 41.254194 31.588639 
L 42.750921 30.070513 
L 44.317264 28.797162 
L 45.98803 27.724385 
L 47.798026 26.825733 
L 49.816868 26.073306 
L 52.148979 25.448349 
L 54.898781 24.949017 
L 58.344735 24.560659 
L 62.939341 24.281948 
L 69.83125 24.107739 
L 82.988531 24.030047 
L 82.988531 24.030047 
" clip-path="url(#p06cbc8225b)" style="fill: none; stroke: #60ff97; stroke-opacity: 0.8; stroke-width: 1.5; stroke-linecap: square"/>
   </g>
   <g id="line2d_11">
    <path d="M 30.811907 73.308269 
L 31.612483 63.322721 
L 32.413058 55.991241 
L 33.213633 50.595902 
L 34.049016 46.406493 
L 34.954014 42.987858 
L 35.928628 40.163302 
L 37.007664 37.710096 
L 38.225931 35.498278 
L 39.54862 33.551647 
L 41.01054 31.795046 
L 42.576883 30.262843 
L 44.247649 28.943805 
L 46.022838 27.82873 
L 47.937257 26.890526 
L 50.060522 26.101247 
L 52.462247 25.449704 
L 55.281665 24.920592 
L 58.762427 24.503604 
L 63.287417 24.197966 
L 69.83125 23.996936 
L 81.491803 23.894542 
L 82.988531 23.890087 
L 82.988531 23.890087 
" clip-path="url(#p06cbc8225b)" style="fill: none; stroke: #7dff7a; stroke-opacity: 0.8; stroke-width: 1.5; stroke-linecap: square"/>
   </g>
   <g id="line2d_12">
    <path d="M 30.811907 73.308269 
L 31.612483 62.951592 
L 32.413058 55.343233 
L 33.213633 49.801656 
L 34.014209 45.739431 
L 34.849591 42.588988 
L 35.75459 40.016322 
L 36.764011 37.817842 
L 37.877854 35.916684 
L 39.165736 34.156324 
L 40.627656 32.532425 
L 42.263615 31.044838 
L 44.038803 29.726572 
L 45.953222 28.578067 
L 48.04168 27.585703 
L 50.338983 26.744743 
L 52.914747 26.043947 
L 55.908202 25.467859 
L 59.493387 25.012614 
L 64.053185 24.66838 
L 70.353364 24.430893 
L 80.551997 24.294622 
L 82.988531 24.281399 
L 82.988531 24.281399 
" clip-path="url(#p06cbc8225b)" style="fill: none; stroke: #97ff60; stroke-opacity: 0.8; stroke-width: 1.5; stroke-linecap: square"/>
   </g>
   <g id="line2d_13">
    <path d="M 30.811907 73.308269 
L 31.64729 62.259291 
L 32.447866 54.509209 
L 33.213633 49.108021 
L 33.979401 45.163047 
L 34.779976 42.147698 
L 35.615359 39.832259 
L 36.520357 37.960313 
L 37.529778 36.375078 
L 38.713237 34.936279 
L 40.105542 33.595687 
L 41.811116 32.269584 
L 43.79515 31.011609 
L 46.022838 29.861996 
L 48.459371 28.853988 
L 51.139558 27.987421 
L 54.133013 27.257346 
L 57.578968 26.653083 
L 61.651459 26.172032 
L 66.76818 25.802246 
L 73.660088 25.541612 
L 82.988531 25.395044 
L 82.988531 25.395044 
" clip-path="url(#p06cbc8225b)" style="fill: none; stroke: #b4ff43; stroke-opacity: 0.8; stroke-width: 1.5; stroke-linecap: square"/>
   </g>
   <g id="line2d_14">
    <path d="M 30.811907 73.308269 
L 31.64729 62.010957 
L 32.447866 54.035506 
L 33.213633 48.48479 
L 33.979401 44.48026 
L 34.745169 41.60675 
L 35.545744 39.454917 
L 36.381127 37.843371 
L 37.286125 36.578998 
L 38.330353 35.513381 
L 39.583428 34.566833 
L 41.184578 33.650505 
L 43.342651 32.687822 
L 46.162068 31.685067 
L 49.5036 30.737971 
L 53.228015 29.916702 
L 57.40493 29.227465 
L 62.243189 28.66178 
L 68.056062 28.215666 
L 75.435277 27.88357 
L 82.988531 27.700965 
L 82.988531 27.700965 
" clip-path="url(#p06cbc8225b)" style="fill: none; stroke: #ceff29; stroke-opacity: 0.8; stroke-width: 1.5; stroke-linecap: square"/>
   </g>
   <g id="line2d_15">
    <path d="M 30.811907 73.308269 
L 31.64729 61.812409 
L 32.447866 53.630031 
L 33.213633 47.916728 
L 33.979401 43.819422 
L 34.710361 41.044426 
L 35.441321 39.079985 
L 36.207089 37.640958 
L 37.007664 36.604757 
L 37.877854 35.840688 
L 38.887275 35.255001 
L 40.14035 34.792306 
L 41.915538 34.393476 
L 44.804571 34.002384 
L 50.338983 33.509576 
L 58.797234 32.982825 
L 69.204713 32.564377 
L 82.640455 32.258645 
L 82.988531 32.253109 
L 82.988531 32.253109 
" clip-path="url(#p06cbc8225b)" style="fill: none; stroke: #ebff0c; stroke-opacity: 0.8; stroke-width: 1.5; stroke-linecap: square"/>
   </g>
   <g id="patch_3">
    <path d="M 28.203076 75.779178 
L 28.203076 21.419178 
" style="fill: none; stroke: #000000; stroke-width: 0.8; stroke-linejoin: miter; stroke-linecap: square"/>
   </g>
   <g id="patch_4">
    <path d="M 28.203076 75.779178 
L 85.597362 75.779178 
" style="fill: none; stroke: #000000; stroke-width: 0.8; stroke-linejoin: miter; stroke-linecap: square"/>
   </g>
   <g id="text_7">
    <!-- $\mathrm{d} u / \mathrm{d}t$ -->
    <g transform="translate(42.956741 15.419178)scale(0.11 -0.11)">
     <defs>
      <path id="CMR17-64" d="M 1869 4326 
L 1869 4160 
C 2246 4160 2304 4122 2304 3820 
L 2304 2345 
C 2278 2377 2016 2790 1498 2790 
C 845 2790 211 2208 211 1364 
C 211 525 806 -64 1434 -64 
C 1978 -64 2259 337 2291 380 
L 2291 -63 
L 3066 -63 
L 3066 128 
C 2688 128 2630 166 2630 473 
L 2630 4396 
L 1869 4326 
z
M 2291 755 
C 2291 563 2176 390 2029 262 
C 1811 70 1594 38 1472 38 
C 1286 38 621 134 621 1356 
C 621 2612 1363 2688 1530 2688 
C 1824 2688 2061 2522 2208 2291 
C 2291 2157 2291 2138 2291 2023 
L 2291 755 
z
" transform="scale(0.015625)"/>
      <path id="CMMI12-75" d="M 2182 370 
C 2266 13 2573 -64 2726 -64 
C 2931 -64 3085 70 3187 287 
C 3296 517 3379 894 3379 913 
C 3379 945 3354 971 3315 971 
C 3258 971 3251 939 3226 843 
C 3110 402 2995 64 2739 64 
C 2547 64 2547 275 2547 358 
C 2547 505 2566 568 2630 837 
C 2675 1009 2720 1181 2758 1360 
L 3021 2401 
C 3066 2561 3066 2574 3066 2593 
C 3066 2689 2989 2753 2893 2753 
C 2707 2753 2662 2593 2624 2433 
C 2560 2184 2214 811 2170 588 
C 2163 588 1914 64 1446 64 
C 1114 64 1050 351 1050 588 
C 1050 952 1229 1462 1395 1890 
C 1472 2095 1504 2178 1504 2305 
C 1504 2580 1306 2816 998 2816 
C 410 2816 173 1890 173 1839 
C 173 1814 198 1782 243 1782 
C 301 1782 307 1807 333 1896 
C 486 2441 736 2682 979 2682 
C 1043 2682 1146 2682 1146 2478 
C 1146 2312 1075 2127 979 1884 
C 698 1124 666 881 666 690 
C 666 38 1158 -64 1421 -64 
C 1830 -64 2054 217 2182 370 
z
" transform="scale(0.015625)"/>
      <path id="CMMI12-3d" d="M 2746 4562 
C 2746 4569 2784 4666 2784 4678 
C 2784 4755 2720 4800 2669 4800 
C 2637 4800 2579 4800 2528 4659 
L 384 -1363 
C 384 -1370 346 -1465 346 -1478 
C 346 -1555 410 -1600 461 -1600 
C 499 -1600 557 -1593 602 -1459 
L 2746 4562 
z
" transform="scale(0.015625)"/>
      <path id="CMMI12-74" d="M 1286 2566 
L 1875 2566 
C 1997 2566 2061 2566 2061 2681 
C 2061 2752 2022 2752 1894 2752 
L 1331 2752 
L 1568 3692 
C 1594 3781 1594 3794 1594 3840 
C 1594 3943 1510 4000 1427 4000 
C 1376 4000 1229 3981 1178 3775 
L 928 2752 
L 326 2752 
C 198 2752 141 2752 141 2630 
C 141 2566 186 2566 307 2566 
L 877 2566 
L 454 881 
C 403 658 384 594 384 511 
C 384 211 595 -64 954 -64 
C 1600 -64 1946 868 1946 912 
C 1946 951 1920 970 1882 970 
C 1869 970 1843 970 1830 944 
C 1824 938 1818 931 1773 829 
C 1638 511 1344 64 973 64 
C 781 64 768 224 768 364 
C 768 370 768 492 787 568 
L 1286 2566 
z
" transform="scale(0.015625)"/>
     </defs>
     <use xlink:href="#CMR17-64" transform="scale(0.996264)"/>
     <use xlink:href="#CMMI12-75" transform="translate(50.89537 0)scale(0.996264)"/>
     <use xlink:href="#CMMI12-3d" transform="translate(106.415699 0)scale(0.996264)"/>
     <use xlink:href="#CMR17-64" transform="translate(155.190618 0)scale(0.996264)"/>
     <use xlink:href="#CMMI12-74" transform="translate(206.085988 0)scale(0.996264)"/>
    </g>
   </g>
  </g>
  <g id="axes_2">
   <g id="patch_5">
    <path d="M 142.991648 75.779178 
L 200.385933 75.779178 
L 200.385933 21.419178 
L 142.991648 21.419178 
z
" style="fill: #ffffff"/>
   </g>
   <g id="matplotlib.axis_3">
    <g id="xtick_3">
     <g id="line2d_16">
      <g>
       <use xlink:href="#m01e99fbcd5" x="145.600479" y="75.779178" style="stroke: #000000; stroke-width: 0.8"/>
      </g>
     </g>
     <g id="text_8">
      <!-- $\mathdefault{0}$ -->
      <g transform="translate(142.860745 90.389525)scale(0.11 -0.11)">
       <use xlink:href="#CMR17-30" transform="scale(0.996264)"/>
      </g>
     </g>
    </g>
    <g id="xtick_4">
     <g id="line2d_17">
      <g>
       <use xlink:href="#m01e99fbcd5" x="180.408099" y="75.779178" style="stroke: #000000; stroke-width: 0.8"/>
      </g>
     </g>
     <g id="text_9">
      <!-- $\mathdefault{1000}$ -->
      <g transform="translate(169.449165 90.389525)scale(0.11 -0.11)">
       <use xlink:href="#CMR17-31" transform="scale(0.996264)"/>
       <use xlink:href="#CMR17-30" transform="translate(45.690477 0)scale(0.996264)"/>
       <use xlink:href="#CMR17-30" transform="translate(91.380954 0)scale(0.996264)"/>
       <use xlink:href="#CMR17-30" transform="translate(137.071431 0)scale(0.996264)"/>
      </g>
     </g>
    </g>
    <g id="text_10">
     <!-- time [ms] -->
     <g transform="translate(149.436087 104.739598)scale(0.11 -0.11)">
      <use xlink:href="#CMR17-74" transform="scale(0.996264)"/>
      <use xlink:href="#CMR17-69" transform="translate(35.280768 0)scale(0.996264)"/>
      <use xlink:href="#CMR17-6d" transform="translate(60.151826 0)scale(0.996264)"/>
      <use xlink:href="#CMR17-65" transform="translate(137.071416 0)scale(0.996264)"/>
      <use xlink:href="#CMR17-5b" transform="translate(207.633043 0)scale(0.996264)"/>
      <use xlink:href="#CMR17-6d" transform="translate(232.504101 0)scale(0.996264)"/>
      <use xlink:href="#CMR17-73" transform="translate(309.423691 0)scale(0.996264)"/>
      <use xlink:href="#CMR17-5d" transform="translate(345.225029 0)scale(0.996264)"/>
     </g>
    </g>
   </g>
   <g id="matplotlib.axis_4">
    <g id="ytick_4">
     <g id="line2d_18">
      <g>
       <use xlink:href="#m480457e702" x="142.991648" y="55.535657" style="stroke: #000000; stroke-width: 0.8"/>
      </g>
     </g>
     <g id="text_11">
      <!-- $\mathdefault{0.25}$ -->
      <g transform="translate(116.509104 59.34083)scale(0.11 -0.11)">
       <defs>
        <path id="CMR17-32" d="M 2669 989 
L 2554 989 
C 2490 536 2438 459 2413 420 
C 2381 369 1920 369 1830 369 
L 602 369 
C 832 619 1280 1072 1824 1597 
C 2214 1967 2669 2402 2669 3035 
C 2669 3790 2067 4224 1395 4224 
C 691 4224 262 3604 262 3030 
C 262 2780 448 2748 525 2748 
C 589 2748 781 2787 781 3010 
C 781 3207 614 3264 525 3264 
C 486 3264 448 3258 422 3245 
C 544 3790 915 4058 1306 4058 
C 1862 4058 2227 3617 2227 3035 
C 2227 2479 1901 2000 1536 1584 
L 262 146 
L 262 0 
L 2515 0 
L 2669 989 
z
" transform="scale(0.015625)"/>
        <path id="CMR17-35" d="M 730 3692 
C 794 3666 1056 3584 1325 3584 
C 1920 3584 2246 3911 2432 4100 
C 2432 4157 2432 4192 2394 4192 
C 2387 4192 2374 4192 2323 4163 
C 2099 4058 1837 3973 1517 3973 
C 1325 3973 1037 3999 723 4139 
C 653 4171 640 4171 634 4171 
C 602 4171 595 4164 595 4037 
L 595 2203 
C 595 2089 595 2057 659 2057 
C 691 2057 704 2070 736 2114 
C 941 2401 1222 2522 1542 2522 
C 1766 2522 2246 2382 2246 1289 
C 2246 1085 2246 715 2054 421 
C 1894 159 1645 25 1370 25 
C 947 25 518 320 403 814 
C 429 807 480 795 506 795 
C 589 795 749 840 749 1038 
C 749 1210 627 1280 506 1280 
C 358 1280 262 1190 262 1011 
C 262 454 704 -128 1382 -128 
C 2042 -128 2669 440 2669 1264 
C 2669 2030 2170 2624 1549 2624 
C 1222 2624 947 2503 730 2274 
L 730 3692 
z
" transform="scale(0.015625)"/>
       </defs>
       <use xlink:href="#CMR17-30" transform="scale(0.996264)"/>
       <use xlink:href="#CMMI12-3a" transform="translate(45.690477 0)scale(0.996264)"/>
       <use xlink:href="#CMR17-32" transform="translate(72.787654 0)scale(0.996264)"/>
       <use xlink:href="#CMR17-35" transform="translate(118.478131 0)scale(0.996264)"/>
      </g>
     </g>
    </g>
    <g id="ytick_5">
     <g id="line2d_19">
      <g>
       <use xlink:href="#m480457e702" x="142.991648" y="30.747953" style="stroke: #000000; stroke-width: 0.8"/>
      </g>
     </g>
     <g id="text_12">
      <!-- $\mathdefault{0.50}$ -->
      <g transform="translate(116.509104 34.553126)scale(0.11 -0.11)">
       <use xlink:href="#CMR17-30" transform="scale(0.996264)"/>
       <use xlink:href="#CMMI12-3a" transform="translate(45.690477 0)scale(0.996264)"/>
       <use xlink:href="#CMR17-35" transform="translate(72.787654 0)scale(0.996264)"/>
       <use xlink:href="#CMR17-30" transform="translate(118.478131 0)scale(0.996264)"/>
      </g>
     </g>
    </g>
   </g>
   <g id="line2d_20">
    <path d="M 145.600479 60.493198 
L 146.052978 60.239114 
L 146.505477 60.232281 
L 147.062399 60.464908 
L 147.793359 61.035256 
L 148.94201 62.251899 
L 153.084117 66.851661 
L 154.789691 68.318758 
L 156.495264 69.495008 
L 158.270453 70.449418 
L 160.184872 71.226751 
L 162.342944 71.86118 
L 164.883901 72.370258 
L 168.016587 72.761756 
L 172.158693 73.042695 
L 178.35445 73.219688 
L 190.397887 73.300102 
L 197.777102 73.308269 
L 197.777102 73.308269 
" clip-path="url(#p89cf7c5121)" style="fill: none; stroke: #00d4ff; stroke-opacity: 0.8; stroke-width: 1.5; stroke-linecap: square"/>
   </g>
   <g id="line2d_21">
    <path d="M 145.600479 60.493198 
L 146.087786 59.541291 
L 146.575092 59.050908 
L 147.027591 58.896523 
L 147.514898 58.965108 
L 148.141435 59.302683 
L 149.011626 60.05938 
L 150.577969 61.781875 
L 153.327771 64.772449 
L 155.102959 66.359033 
L 156.808533 67.590892 
L 158.583721 68.599091 
L 160.49814 69.426043 
L 162.621405 70.09598 
L 165.092746 70.634995 
L 168.086202 71.051638 
L 171.984655 71.357354 
L 177.62349 71.557142 
L 187.7177 71.657511 
L 197.777102 71.675023 
L 197.777102 71.675023 
" clip-path="url(#p89cf7c5121)" style="fill: none; stroke: #0cf4eb; stroke-opacity: 0.8; stroke-width: 1.5; stroke-linecap: square"/>
   </g>
   <g id="line2d_22">
    <path d="M 145.600479 60.493198 
L 146.157401 58.558102 
L 146.679515 57.494254 
L 147.166822 56.972167 
L 147.619321 56.784885 
L 148.106628 56.817953 
L 148.698357 57.090743 
L 149.498932 57.721797 
L 150.821622 59.090675 
L 154.371999 62.857734 
L 156.147188 64.368556 
L 157.887569 65.563713 
L 159.697565 66.539144 
L 161.646792 67.337281 
L 163.839672 67.991367 
L 166.415436 68.518554 
L 169.548122 68.922855 
L 173.655421 69.216043 
L 179.677139 69.403803 
L 190.885193 69.493827 
L 197.777102 69.504684 
L 197.777102 69.504684 
" clip-path="url(#p89cf7c5121)" style="fill: none; stroke: #29ffce; stroke-opacity: 0.8; stroke-width: 1.5; stroke-linecap: square"/>
   </g>
   <g id="line2d_23">
    <path d="M 145.600479 60.493198 
L 146.192208 57.428122 
L 146.74913 55.628574 
L 147.271245 54.627712 
L 147.758551 54.129494 
L 148.245858 53.940197 
L 148.767972 53.987525 
L 149.394509 54.284035 
L 150.2647 54.970004 
L 151.72662 56.458712 
L 155.033344 59.86275 
L 156.878148 61.408871 
L 158.688144 62.635491 
L 160.567756 63.63606 
L 162.586598 64.453161 
L 164.814285 65.112324 
L 167.424857 65.646459 
L 170.59235 66.059173 
L 174.734457 66.361686 
L 180.721368 66.557395 
L 191.581346 66.654691 
L 197.777102 66.667154 
L 197.777102 66.667154 
" clip-path="url(#p89cf7c5121)" style="fill: none; stroke: #43ffb4; stroke-opacity: 0.8; stroke-width: 1.5; stroke-linecap: square"/>
   </g>
   <g id="line2d_24">
    <path d="M 145.600479 60.493198 
L 146.227016 56.121759 
L 146.818746 53.456081 
L 147.375667 51.882146 
L 147.897782 51.004191 
L 148.385088 50.568366 
L 148.872395 50.407053 
L 149.429317 50.468691 
L 150.090662 50.780142 
L 151.030468 51.498804 
L 152.631618 53.056825 
L 155.833919 56.171246 
L 157.748338 57.703341 
L 159.62795 58.925914 
L 161.577177 59.927014 
L 163.665634 60.747331 
L 165.997745 61.42013 
L 168.712739 61.963816 
L 171.984655 62.383959 
L 176.231185 62.693326 
L 182.322519 62.896287 
L 193.112881 63.000024 
L 197.777102 63.01212 
L 197.777102 63.01212 
" clip-path="url(#p89cf7c5121)" style="fill: none; stroke: #60ff97; stroke-opacity: 0.8; stroke-width: 1.5; stroke-linecap: square"/>
   </g>
   <g id="line2d_25">
    <path d="M 145.600479 60.493198 
L 146.261824 54.675853 
L 146.888361 51.029311 
L 147.48009 48.793076 
L 148.037012 47.466108 
L 148.593934 46.687951 
L 149.116049 46.323258 
L 149.638163 46.216986 
L 150.229892 46.322141 
L 150.99566 46.700232 
L 152.074696 47.505468 
L 154.302384 49.519713 
L 156.947763 51.797213 
L 159.001413 53.270368 
L 161.020255 54.446574 
L 163.108712 55.407686 
L 165.371207 56.203714 
L 167.912164 56.858375 
L 170.870811 57.384947 
L 174.490804 57.794082 
L 179.22464 58.091846 
L 186.116549 58.283189 
L 197.777102 58.373475 
L 197.777102 58.373475 
" clip-path="url(#p89cf7c5121)" style="fill: none; stroke: #7dff7a; stroke-opacity: 0.8; stroke-width: 1.5; stroke-linecap: square"/>
   </g>
   <g id="line2d_26">
    <path d="M 145.600479 60.493198 
L 146.261824 53.443972 
L 146.923168 48.628788 
L 147.549706 45.585353 
L 148.141435 43.698187 
L 148.733165 42.507442 
L 149.290087 41.850167 
L 149.847009 41.520011 
L 150.438738 41.42861 
L 151.134891 41.560416 
L 152.039889 41.981059 
L 153.397386 42.891735 
L 159.453912 47.231295 
L 161.716407 48.450886 
L 164.048518 49.453276 
L 166.554666 50.283664 
L 169.339276 50.965903 
L 172.541577 51.515208 
L 176.405223 51.944654 
L 181.382713 52.262562 
L 188.44866 52.473504 
L 197.777102 52.571407 
L 197.777102 52.571407 
" clip-path="url(#p89cf7c5121)" style="fill: none; stroke: #97ff60; stroke-opacity: 0.8; stroke-width: 1.5; stroke-linecap: square"/>
   </g>
   <g id="line2d_27">
    <path d="M 145.600479 60.493198 
L 146.296631 51.925203 
L 146.992784 45.976427 
L 147.654128 42.130577 
L 148.280666 39.672601 
L 148.907203 38.051066 
L 149.498932 37.076376 
L 150.090662 36.492847 
L 150.717199 36.181561 
L 151.413351 36.095014 
L 152.248734 36.230555 
L 153.362578 36.653015 
L 155.207382 37.624069 
L 160.150064 40.29122 
L 162.899866 41.481498 
L 165.719284 42.457398 
L 168.747547 43.265388 
L 172.123886 43.92952 
L 176.022339 44.462659 
L 180.756176 44.876827 
L 186.917125 45.179592 
L 195.827875 45.375498 
L 197.777102 45.398124 
L 197.777102 45.398124 
" clip-path="url(#p89cf7c5121)" style="fill: none; stroke: #b4ff43; stroke-opacity: 0.8; stroke-width: 1.5; stroke-linecap: square"/>
   </g>
   <g id="line2d_28">
    <path d="M 145.600479 60.493198 
L 146.331439 50.420471 
L 147.027591 43.607871 
L 147.723744 38.845071 
L 148.385088 35.723393 
L 149.046433 33.593924 
L 149.707778 32.177417 
L 150.369123 31.267505 
L 151.030468 30.714606 
L 151.761428 30.39096 
L 152.596811 30.267608 
L 153.675847 30.346985 
L 155.24219 30.709304 
L 158.757759 31.822641 
L 163.178327 33.12572 
L 167.146396 34.056016 
L 171.358118 34.81143 
L 176.091955 35.428893 
L 181.626366 35.918994 
L 188.483467 36.292214 
L 197.637872 36.553581 
L 197.777102 36.556218 
L 197.777102 36.556218 
" clip-path="url(#p89cf7c5121)" style="fill: none; stroke: #ceff29; stroke-opacity: 0.8; stroke-width: 1.5; stroke-linecap: square"/>
   </g>
   <g id="line2d_29">
    <path d="M 145.600479 60.493198 
L 146.366246 48.970727 
L 147.097207 41.068753 
L 147.828167 35.47101 
L 148.524319 31.731134 
L 149.220471 29.119749 
L 149.916624 27.317509 
L 150.612776 26.087519 
L 151.343736 25.225016 
L 152.144312 24.623168 
L 153.04931 24.224341 
L 154.163154 23.982786 
L 155.729496 23.890259 
L 158.374876 23.992242 
L 177.901951 25.129754 
L 190.084618 25.484219 
L 197.777102 25.621783 
L 197.777102 25.621783 
" clip-path="url(#p89cf7c5121)" style="fill: none; stroke: #ebff0c; stroke-opacity: 0.8; stroke-width: 1.5; stroke-linecap: square"/>
   </g>
   <g id="patch_6">
    <path d="M 142.991648 75.779178 
L 142.991648 21.419178 
" style="fill: none; stroke: #000000; stroke-width: 0.8; stroke-linejoin: miter; stroke-linecap: square"/>
   </g>
   <g id="patch_7">
    <path d="M 142.991648 75.779178 
L 200.385933 75.779178 
" style="fill: none; stroke: #000000; stroke-width: 0.8; stroke-linejoin: miter; stroke-linecap: square"/>
   </g>
   <g id="text_13">
    <!-- $\mathrm{d} v / \mathrm{d}t$ -->
    <g transform="translate(158.029449 15.419178)scale(0.11 -0.11)">
     <defs>
      <path id="CMMI12-76" d="M 2925 2389 
C 2925 2791 2720 2816 2669 2816 
C 2515 2816 2374 2663 2374 2535 
C 2374 2459 2419 2414 2445 2389 
C 2509 2331 2675 2159 2675 1827 
C 2675 1558 2291 64 1523 64 
C 1133 64 1056 390 1056 626 
C 1056 945 1203 1392 1376 1852 
C 1478 2114 1504 2178 1504 2305 
C 1504 2574 1312 2816 998 2816 
C 410 2816 173 1890 173 1839 
C 173 1814 198 1782 243 1782 
C 301 1782 307 1807 333 1897 
C 486 2446 736 2689 979 2689 
C 1037 2689 1146 2689 1146 2478 
C 1146 2312 1075 2127 979 1884 
C 672 1067 672 869 672 715 
C 672 575 691 313 890 134 
C 1120 -64 1440 -64 1498 -64 
C 2560 -64 2925 2024 2925 2389 
z
" transform="scale(0.015625)"/>
     </defs>
     <use xlink:href="#CMR17-64" transform="scale(0.996264)"/>
     <use xlink:href="#CMMI12-76" transform="translate(50.89537 0)scale(0.996264)"/>
     <use xlink:href="#CMMI12-3d" transform="translate(101.630543 0)scale(0.996264)"/>
     <use xlink:href="#CMR17-64" transform="translate(150.405462 0)scale(0.996264)"/>
     <use xlink:href="#CMMI12-74" transform="translate(201.300832 0)scale(0.996264)"/>
    </g>
   </g>
  </g>
  <g id="axes_3">
   <g id="patch_8">
    <path d="M 257.780219 75.779178 
L 315.174505 75.779178 
L 315.174505 21.419178 
L 257.780219 21.419178 
z
" style="fill: #ffffff"/>
   </g>
   <g id="matplotlib.axis_5">
    <g id="xtick_5">
     <g id="line2d_30">
      <g>
       <use xlink:href="#m01e99fbcd5" x="260.38905" y="75.779178" style="stroke: #000000; stroke-width: 0.8"/>
      </g>
     </g>
     <g id="text_14">
      <!-- $\mathdefault{0}$ -->
      <g transform="translate(257.649317 90.389525)scale(0.11 -0.11)">
       <use xlink:href="#CMR17-30" transform="scale(0.996264)"/>
      </g>
     </g>
    </g>
    <g id="xtick_6">
     <g id="line2d_31">
      <g>
       <use xlink:href="#m01e99fbcd5" x="295.196671" y="75.779178" style="stroke: #000000; stroke-width: 0.8"/>
      </g>
     </g>
     <g id="text_15">
      <!-- $\mathdefault{1000}$ -->
      <g transform="translate(284.237736 90.389525)scale(0.11 -0.11)">
       <use xlink:href="#CMR17-31" transform="scale(0.996264)"/>
       <use xlink:href="#CMR17-30" transform="translate(45.690477 0)scale(0.996264)"/>
       <use xlink:href="#CMR17-30" transform="translate(91.380954 0)scale(0.996264)"/>
       <use xlink:href="#CMR17-30" transform="translate(137.071431 0)scale(0.996264)"/>
      </g>
     </g>
    </g>
    <g id="text_16">
     <!-- time [ms] -->
     <g transform="translate(264.224658 104.739598)scale(0.11 -0.11)">
      <use xlink:href="#CMR17-74" transform="scale(0.996264)"/>
      <use xlink:href="#CMR17-69" transform="translate(35.280768 0)scale(0.996264)"/>
      <use xlink:href="#CMR17-6d" transform="translate(60.151826 0)scale(0.996264)"/>
      <use xlink:href="#CMR17-65" transform="translate(137.071416 0)scale(0.996264)"/>
      <use xlink:href="#CMR17-5b" transform="translate(207.633043 0)scale(0.996264)"/>
      <use xlink:href="#CMR17-6d" transform="translate(232.504101 0)scale(0.996264)"/>
      <use xlink:href="#CMR17-73" transform="translate(309.423691 0)scale(0.996264)"/>
      <use xlink:href="#CMR17-5d" transform="translate(345.225029 0)scale(0.996264)"/>
     </g>
    </g>
   </g>
   <g id="matplotlib.axis_6">
    <g id="ytick_6">
     <g id="line2d_32">
      <g>
       <use xlink:href="#m480457e702" x="257.780219" y="58.100872" style="stroke: #000000; stroke-width: 0.8"/>
      </g>
     </g>
     <g id="text_17">
      <!-- $\mathdefault{0.50}$ -->
      <g transform="translate(231.297676 61.906046)scale(0.11 -0.11)">
       <use xlink:href="#CMR17-30" transform="scale(0.996264)"/>
       <use xlink:href="#CMMI12-3a" transform="translate(45.690477 0)scale(0.996264)"/>
       <use xlink:href="#CMR17-35" transform="translate(72.787654 0)scale(0.996264)"/>
       <use xlink:href="#CMR17-30" transform="translate(118.478131 0)scale(0.996264)"/>
      </g>
     </g>
    </g>
    <g id="ytick_7">
     <g id="line2d_33">
      <g>
       <use xlink:href="#m480457e702" x="257.780219" y="34.237339" style="stroke: #000000; stroke-width: 0.8"/>
      </g>
     </g>
     <g id="text_18">
      <!-- $\mathdefault{0.75}$ -->
      <g transform="translate(231.297676 38.042513)scale(0.11 -0.11)">
       <use xlink:href="#CMR17-30" transform="scale(0.996264)"/>
       <use xlink:href="#CMMI12-3a" transform="translate(45.690477 0)scale(0.996264)"/>
       <use xlink:href="#CMR17-37" transform="translate(72.787654 0)scale(0.996264)"/>
       <use xlink:href="#CMR17-35" transform="translate(118.478131 0)scale(0.996264)"/>
      </g>
     </g>
    </g>
   </g>
   <g id="line2d_34">
    <path d="M 260.38905 58.100872 
L 260.876357 57.987121 
L 261.433279 57.603626 
L 262.094624 56.852649 
L 262.930007 55.541881 
L 264.078658 53.276823 
L 265.923462 49.063045 
L 269.299801 41.36204 
L 271.109797 37.809796 
L 272.745756 35.065654 
L 274.312099 32.853749 
L 275.878441 31.019345 
L 277.444784 29.520307 
L 279.080743 28.262017 
L 280.786316 27.228844 
L 282.63112 26.369991 
L 284.684769 25.660374 
L 287.051688 25.082246 
L 289.905913 24.623534 
L 293.525905 24.280375 
L 298.503395 24.047907 
L 306.648378 23.917308 
L 312.565674 23.890087 
L 312.565674 23.890087 
" clip-path="url(#p8b8a0a47aa)" style="fill: none; stroke: #00d4ff; stroke-opacity: 0.8; stroke-width: 1.5; stroke-linecap: square"/>
   </g>
   <g id="line2d_35">
    <path d="M 260.38905 58.100872 
L 260.911165 57.99313 
L 261.502894 57.623521 
L 262.199047 56.890906 
L 263.034429 55.662233 
L 264.148273 53.58848 
L 265.819039 49.945032 
L 269.891531 40.928637 
L 271.701527 37.5375 
L 273.337485 34.925307 
L 274.938636 32.780614 
L 276.504979 31.046295 
L 278.106129 29.601842 
L 279.776895 28.396877 
L 281.552084 27.396387 
L 283.466503 26.575968 
L 285.624575 25.898729 
L 288.130724 25.353358 
L 291.158987 24.930468 
L 295.092248 24.618728 
L 300.731083 24.414618 
L 310.651254 24.311332 
L 312.565674 24.304889 
L 312.565674 24.304889 
" clip-path="url(#p8b8a0a47aa)" style="fill: none; stroke: #0cf4eb; stroke-opacity: 0.8; stroke-width: 1.5; stroke-linecap: square"/>
   </g>
   <g id="line2d_36">
    <path d="M 260.38905 58.100872 
L 261.050395 57.984936 
L 261.676932 57.647211 
L 262.373085 57.016306 
L 263.208468 55.944927 
L 264.252696 54.224258 
L 265.749424 51.278788 
L 271.318643 39.900513 
L 273.059024 37.038564 
L 274.694982 34.760653 
L 276.296133 32.901178 
L 277.897283 31.372797 
L 279.568049 30.085055 
L 281.30843 29.024377 
L 283.188042 28.140806 
L 285.276499 27.409477 
L 287.678225 26.812533 
L 290.53245 26.342158 
L 294.117635 25.988337 
L 299.025509 25.743852 
L 306.822416 25.60333 
L 312.565674 25.571272 
L 312.565674 25.571272 
" clip-path="url(#p8b8a0a47aa)" style="fill: none; stroke: #29ffce; stroke-opacity: 0.8; stroke-width: 1.5; stroke-linecap: square"/>
   </g>
   <g id="line2d_37">
    <path d="M 260.38905 58.100872 
L 261.363664 57.992129 
L 262.094624 57.677432 
L 262.860391 57.091155 
L 263.730582 56.124934 
L 264.809618 54.562475 
L 266.271538 52.007891 
L 272.67614 40.299542 
L 274.451329 37.767668 
L 276.122095 35.762293 
L 277.792861 34.100502 
L 279.498434 32.720053 
L 281.273623 31.573959 
L 283.153234 30.628124 
L 285.206884 29.846217 
L 287.538994 29.202149 
L 290.253989 28.689171 
L 293.59552 28.29267 
L 298.016088 28.006237 
L 304.559921 27.82635 
L 312.565674 27.757557 
L 312.565674 27.757557 
" clip-path="url(#p8b8a0a47aa)" style="fill: none; stroke: #43ffb4; stroke-opacity: 0.8; stroke-width: 1.5; stroke-linecap: square"/>
   </g>
   <g id="line2d_38">
    <path d="M 260.38905 58.100872 
L 262.58193 58.006611 
L 263.347698 57.625141 
L 264.183081 56.952417 
L 265.192502 55.82853 
L 266.445576 54.076228 
L 268.359995 50.969517 
L 272.362872 44.423267 
L 274.346906 41.65123 
L 276.156902 39.499129 
L 277.897283 37.767048 
L 279.637664 36.339916 
L 281.447661 35.14028 
L 283.36208 34.13869 
L 285.450537 33.301292 
L 287.782648 32.611983 
L 290.462835 32.057348 
L 293.699943 31.622086 
L 297.84205 31.299953 
L 303.68973 31.084584 
L 312.565674 30.975631 
L 312.565674 30.975631 
" clip-path="url(#p8b8a0a47aa)" style="fill: none; stroke: #60ff97; stroke-opacity: 0.8; stroke-width: 1.5; stroke-linecap: square"/>
   </g>
   <g id="line2d_39">
    <path d="M 260.38905 58.100872 
L 260.98078 58.2154 
L 263.069237 58.804611 
L 263.835005 58.708958 
L 264.63558 58.378464 
L 265.540578 57.746804 
L 266.619614 56.701069 
L 268.046727 54.975012 
L 270.518068 51.560891 
L 273.685561 47.284395 
L 275.774019 44.840192 
L 277.688438 42.932471 
L 279.568049 41.367807 
L 281.482468 40.062963 
L 283.466503 38.979433 
L 285.589768 38.073804 
L 287.921878 37.322363 
L 290.567257 36.706388 
L 293.699943 36.211568 
L 297.598397 35.831643 
L 302.784732 35.563316 
L 310.686062 35.399022 
L 312.565674 35.380772 
L 312.565674 35.380772 
" clip-path="url(#p8b8a0a47aa)" style="fill: none; stroke: #7dff7a; stroke-opacity: 0.8; stroke-width: 1.5; stroke-linecap: square"/>
   </g>
   <g id="line2d_40">
    <path d="M 260.38905 58.100872 
L 260.841549 58.218678 
L 261.502894 58.659284 
L 263.486928 60.099612 
L 264.322311 60.37385 
L 265.122887 60.399189 
L 265.95827 60.195432 
L 266.898075 59.725679 
L 268.011919 58.90998 
L 269.508647 57.512964 
L 272.084411 54.744458 
L 275.495558 51.157472 
L 277.792861 49.071445 
L 279.916125 47.439735 
L 282.03939 46.088032 
L 284.23227 44.958543 
L 286.564381 44.0125 
L 289.105337 43.22689 
L 291.959562 42.582029 
L 295.301094 42.061749 
L 299.408393 41.657617 
L 304.768767 41.366243 
L 312.565674 41.181089 
L 312.565674 41.181089 
" clip-path="url(#p8b8a0a47aa)" style="fill: none; stroke: #97ff60; stroke-opacity: 0.8; stroke-width: 1.5; stroke-linecap: square"/>
   </g>
   <g id="line2d_41">
    <path d="M 260.38905 58.100872 
L 260.771934 58.219186 
L 261.294048 58.662298 
L 262.199047 59.792367 
L 263.765389 61.716876 
L 264.705195 62.522899 
L 265.575386 62.984965 
L 266.445576 63.190626 
L 267.350574 63.168442 
L 268.359995 62.911981 
L 269.578262 62.356656 
L 271.144605 61.380784 
L 273.755177 59.450402 
L 278.001706 56.340359 
L 280.647085 54.689842 
L 283.188042 53.364068 
L 285.763806 52.269001 
L 288.513608 51.343744 
L 291.507063 50.57427 
L 294.883402 49.939859 
L 298.851471 49.427229 
L 303.724538 49.031076 
L 310.163948 48.744534 
L 312.565674 48.679836 
L 312.565674 48.679836 
" clip-path="url(#p8b8a0a47aa)" style="fill: none; stroke: #b4ff43; stroke-opacity: 0.8; stroke-width: 1.5; stroke-linecap: square"/>
   </g>
   <g id="line2d_42">
    <path d="M 260.38905 58.100872 
L 260.737126 58.22361 
L 261.189626 58.673286 
L 261.885778 59.75012 
L 264.879233 64.786086 
L 265.888654 65.890214 
L 266.82846 66.605256 
L 267.803073 67.069435 
L 268.812494 67.304821 
L 269.961146 67.335624 
L 271.318643 67.135182 
L 273.059024 66.635504 
L 275.739211 65.603325 
L 282.63112 62.881096 
L 286.251112 61.736745 
L 289.94072 60.806725 
L 293.908789 60.039186 
L 298.364164 59.407931 
L 303.585308 58.89902 
L 310.024717 58.504718 
L 312.565674 58.398119 
L 312.565674 58.398119 
" clip-path="url(#p8b8a0a47aa)" style="fill: none; stroke: #ceff29; stroke-opacity: 0.8; stroke-width: 1.5; stroke-linecap: square"/>
   </g>
   <g id="line2d_43">
    <path d="M 260.38905 58.100872 
L 260.702319 58.218128 
L 261.085203 58.625985 
L 261.642125 59.577511 
L 262.651546 61.838333 
L 264.670388 66.367587 
L 265.853847 68.448874 
L 266.932883 69.919414 
L 268.011919 71.029465 
L 269.125763 71.863424 
L 270.309222 72.476828 
L 271.631912 72.913576 
L 273.198255 73.191863 
L 275.182289 73.306587 
L 277.966899 73.22581 
L 283.257657 72.804341 
L 294.082827 71.9608 
L 303.515692 71.472463 
L 312.565674 71.169887 
L 312.565674 71.169887 
" clip-path="url(#p8b8a0a47aa)" style="fill: none; stroke: #ebff0c; stroke-opacity: 0.8; stroke-width: 1.5; stroke-linecap: square"/>
   </g>
   <g id="patch_9">
    <path d="M 257.780219 75.779178 
L 257.780219 21.419178 
" style="fill: none; stroke: #000000; stroke-width: 0.8; stroke-linejoin: miter; stroke-linecap: square"/>
   </g>
   <g id="patch_10">
    <path d="M 257.780219 75.779178 
L 315.174505 75.779178 
" style="fill: none; stroke: #000000; stroke-width: 0.8; stroke-linejoin: miter; stroke-linecap: square"/>
   </g>
   <g id="text_19">
    <!-- $\mathrm{d} y / \mathrm{d}t$ -->
    <g transform="translate(272.787564 15.419178)scale(0.11 -0.11)">
     <defs>
      <path id="CMMI12-79" d="M 1683 -700 
C 1510 -939 1261 -1152 947 -1152 
C 870 -1152 563 -1152 467 -889 
C 486 -895 518 -895 531 -895 
C 723 -895 851 -729 851 -582 
C 851 -435 730 -384 634 -384 
C 531 -384 307 -458 307 -759 
C 307 -1071 582 -1286 947 -1286 
C 1587 -1286 2234 -700 2413 6 
L 3040 2485 
C 3046 2517 3059 2556 3059 2594 
C 3059 2689 2982 2753 2886 2753 
C 2829 2753 2694 2727 2643 2535 
L 2170 658 
C 2138 543 2138 530 2086 460 
C 1958 281 1747 64 1440 64 
C 1082 64 1050 415 1050 588 
C 1050 952 1222 1443 1395 1903 
C 1466 2088 1504 2178 1504 2305 
C 1504 2574 1312 2816 998 2816 
C 410 2816 173 1890 173 1839 
C 173 1814 198 1782 243 1782 
C 301 1782 307 1807 333 1897 
C 486 2433 730 2689 979 2689 
C 1037 2689 1146 2689 1146 2478 
C 1146 2312 1075 2127 979 1884 
C 666 1047 666 837 666 683 
C 666 77 1101 -64 1421 -64 
C 1606 -64 1837 -6 2061 230 
L 2067 224 
C 1971 -147 1907 -392 1683 -700 
z
" transform="scale(0.015625)"/>
     </defs>
     <use xlink:href="#CMR17-64" transform="scale(0.996264)"/>
     <use xlink:href="#CMMI12-79" transform="translate(50.89537 0)scale(0.996264)"/>
     <use xlink:href="#CMMI12-3d" transform="translate(102.034151 0)scale(0.996264)"/>
     <use xlink:href="#CMR17-64" transform="translate(150.809069 0)scale(0.996264)"/>
     <use xlink:href="#CMMI12-74" transform="translate(201.704439 0)scale(0.996264)"/>
    </g>
   </g>
  </g>
  <g id="axes_4">
   <g id="patch_11">
    <path d="M 372.568791 75.779178 
L 429.963076 75.779178 
L 429.963076 21.419178 
L 372.568791 21.419178 
z
" style="fill: #ffffff"/>
   </g>
   <g id="matplotlib.axis_7">
    <g id="xtick_7">
     <g id="line2d_44">
      <g>
       <use xlink:href="#m01e99fbcd5" x="375.177622" y="75.779178" style="stroke: #000000; stroke-width: 0.8"/>
      </g>
     </g>
     <g id="text_20">
      <!-- $\mathdefault{0}$ -->
      <g transform="translate(372.437888 90.389525)scale(0.11 -0.11)">
       <use xlink:href="#CMR17-30" transform="scale(0.996264)"/>
      </g>
     </g>
    </g>
    <g id="xtick_8">
     <g id="line2d_45">
      <g>
       <use xlink:href="#m01e99fbcd5" x="409.985242" y="75.779178" style="stroke: #000000; stroke-width: 0.8"/>
      </g>
     </g>
     <g id="text_21">
      <!-- $\mathdefault{1000}$ -->
      <g transform="translate(399.026308 90.389525)scale(0.11 -0.11)">
       <use xlink:href="#CMR17-31" transform="scale(0.996264)"/>
       <use xlink:href="#CMR17-30" transform="translate(45.690477 0)scale(0.996264)"/>
       <use xlink:href="#CMR17-30" transform="translate(91.380954 0)scale(0.996264)"/>
       <use xlink:href="#CMR17-30" transform="translate(137.071431 0)scale(0.996264)"/>
      </g>
     </g>
    </g>
    <g id="text_22">
     <!-- time [ms] -->
     <g transform="translate(379.01323 104.739598)scale(0.11 -0.11)">
      <use xlink:href="#CMR17-74" transform="scale(0.996264)"/>
      <use xlink:href="#CMR17-69" transform="translate(35.280768 0)scale(0.996264)"/>
      <use xlink:href="#CMR17-6d" transform="translate(60.151826 0)scale(0.996264)"/>
      <use xlink:href="#CMR17-65" transform="translate(137.071416 0)scale(0.996264)"/>
      <use xlink:href="#CMR17-5b" transform="translate(207.633043 0)scale(0.996264)"/>
      <use xlink:href="#CMR17-6d" transform="translate(232.504101 0)scale(0.996264)"/>
      <use xlink:href="#CMR17-73" transform="translate(309.423691 0)scale(0.996264)"/>
      <use xlink:href="#CMR17-5d" transform="translate(345.225029 0)scale(0.996264)"/>
     </g>
    </g>
   </g>
   <g id="matplotlib.axis_8">
    <g id="ytick_8">
     <g id="line2d_46">
      <g>
       <use xlink:href="#m480457e702" x="372.568791" y="62.757286" style="stroke: #000000; stroke-width: 0.8"/>
      </g>
     </g>
     <g id="text_23">
      <!-- $\mathdefault{0.0005}$ -->
      <g transform="translate(326.603704 66.56246)scale(0.11 -0.11)">
       <defs>
        <path id="CMSY10-0" d="M 4218 1472 
C 4326 1472 4442 1472 4442 1600 
C 4442 1728 4326 1728 4218 1728 
L 755 1728 
C 646 1728 531 1728 531 1600 
C 531 1472 646 1472 755 1472 
L 4218 1472 
z
" transform="scale(0.015625)"/>
       </defs>
       <use xlink:href="#CMSY10-0" transform="scale(0.996264)"/>
       <use xlink:href="#CMR17-30" transform="translate(77.487468 0)scale(0.996264)"/>
       <use xlink:href="#CMMI12-3a" transform="translate(123.177945 0)scale(0.996264)"/>
       <use xlink:href="#CMR17-30" transform="translate(150.275122 0)scale(0.996264)"/>
       <use xlink:href="#CMR17-30" transform="translate(195.965599 0)scale(0.996264)"/>
       <use xlink:href="#CMR17-30" transform="translate(241.656076 0)scale(0.996264)"/>
       <use xlink:href="#CMR17-35" transform="translate(287.346553 0)scale(0.996264)"/>
      </g>
     </g>
    </g>
    <g id="ytick_9">
     <g id="line2d_47">
      <g>
       <use xlink:href="#m480457e702" x="372.568791" y="48.505152" style="stroke: #000000; stroke-width: 0.8"/>
      </g>
     </g>
     <g id="text_24">
      <!-- $\mathdefault{0.0000}$ -->
      <g transform="translate(335.127313 52.310325)scale(0.11 -0.11)">
       <use xlink:href="#CMR17-30" transform="scale(0.996264)"/>
       <use xlink:href="#CMMI12-3a" transform="translate(45.690477 0)scale(0.996264)"/>
       <use xlink:href="#CMR17-30" transform="translate(72.787654 0)scale(0.996264)"/>
       <use xlink:href="#CMR17-30" transform="translate(118.478131 0)scale(0.996264)"/>
       <use xlink:href="#CMR17-30" transform="translate(164.168608 0)scale(0.996264)"/>
       <use xlink:href="#CMR17-30" transform="translate(209.859086 0)scale(0.996264)"/>
      </g>
     </g>
    </g>
    <g id="ytick_10">
     <g id="line2d_48">
      <g>
       <use xlink:href="#m480457e702" x="372.568791" y="34.253017" style="stroke: #000000; stroke-width: 0.8"/>
      </g>
     </g>
     <g id="text_25">
      <!-- $\mathdefault{0.0005}$ -->
      <g transform="translate(335.127313 38.05819)scale(0.11 -0.11)">
       <use xlink:href="#CMR17-30" transform="scale(0.996264)"/>
       <use xlink:href="#CMMI12-3a" transform="translate(45.690477 0)scale(0.996264)"/>
       <use xlink:href="#CMR17-30" transform="translate(72.787654 0)scale(0.996264)"/>
       <use xlink:href="#CMR17-30" transform="translate(118.478131 0)scale(0.996264)"/>
       <use xlink:href="#CMR17-30" transform="translate(164.168608 0)scale(0.996264)"/>
       <use xlink:href="#CMR17-35" transform="translate(209.859086 0)scale(0.996264)"/>
      </g>
     </g>
    </g>
   </g>
   <g id="line2d_49">
    <path d="M 375.177622 48.325205 
L 375.316852 47.086015 
L 376.256658 38.806392 
L 377.092041 33.273213 
L 377.892616 29.395858 
L 378.623576 26.899042 
L 379.284921 25.368005 
L 379.87665 24.496275 
L 380.433572 24.04218 
L 380.955687 23.892129 
L 381.477801 23.969211 
L 382.069531 24.286888 
L 382.800491 24.951962 
L 383.740296 26.137538 
L 385.062986 28.204606 
L 391.049897 38.030897 
L 392.75547 40.188084 
L 394.426236 41.946049 
L 396.097002 43.380123 
L 397.802575 44.552105 
L 399.612571 45.52518 
L 401.596606 46.333601 
L 403.824293 46.993178 
L 406.400057 47.517107 
L 409.567551 47.924013 
L 413.709658 48.217366 
L 419.766184 48.403303 
L 427.354245 48.477626 
L 427.354245 48.477626 
" clip-path="url(#paa86d959a6)" style="fill: none; stroke: #00d4ff; stroke-width: 1.5; stroke-linecap: square"/>
   </g>
   <g id="line2d_50">
    <path d="M 375.177622 48.360094 
L 375.316852 47.349523 
L 376.535119 38.207004 
L 377.440117 32.993374 
L 378.240692 29.563676 
L 378.971652 27.317422 
L 379.632997 25.926173 
L 380.259534 25.095477 
L 380.816456 24.700711 
L 381.338571 24.583527 
L 381.895492 24.68934 
L 382.52203 25.047076 
L 383.287797 25.759301 
L 384.262411 26.988582 
L 385.689523 29.187723 
L 390.980281 37.672402 
L 392.75547 39.94139 
L 394.426236 41.725456 
L 396.097002 43.189647 
L 397.802575 44.392351 
L 399.612571 45.39543 
L 401.561798 46.219598 
L 403.754678 46.899689 
L 406.295635 47.446333 
L 409.358705 47.868885 
L 413.326774 48.179056 
L 419.000416 48.381094 
L 427.354245 48.475529 
L 427.354245 48.475529 
" clip-path="url(#paa86d959a6)" style="fill: none; stroke: #0cf4eb; stroke-width: 1.5; stroke-linecap: square"/>
   </g>
   <g id="line2d_51">
    <path d="M 375.177622 48.415593 
L 375.316852 47.770928 
L 378.310308 32.067744 
L 379.110883 29.502637 
L 379.841843 27.848867 
L 380.503188 26.861221 
L 381.094917 26.338163 
L 381.651839 26.117337 
L 382.208761 26.124322 
L 382.835298 26.363461 
L 383.566258 26.89609 
L 384.471256 27.845729 
L 385.724331 29.515946 
L 387.986826 32.984262 
L 390.771436 37.125876 
L 392.651047 39.527199 
L 394.391428 41.401903 
L 396.097002 42.920387 
L 397.837383 44.175174 
L 399.647379 45.208127 
L 401.596606 46.06456 
L 403.754678 46.768059 
L 406.226019 47.336627 
L 409.219475 47.787769 
L 413.013505 48.121929 
L 418.304264 48.34695 
L 427.110592 48.469386 
L 427.354245 48.470731 
L 427.354245 48.470731 
" clip-path="url(#paa86d959a6)" style="fill: none; stroke: #29ffce; stroke-width: 1.5; stroke-linecap: square"/>
   </g>
   <g id="line2d_52">
    <path d="M 375.177622 48.487575 
L 375.316852 48.320326 
L 375.630121 47.578955 
L 376.152235 45.663382 
L 377.440117 39.736017 
L 378.588769 34.98919 
L 379.493767 32.140645 
L 380.294342 30.322092 
L 380.990494 29.241858 
L 381.651839 28.602867 
L 382.278376 28.303293 
L 382.870106 28.256879 
L 383.531451 28.435847 
L 384.297218 28.892908 
L 385.237024 29.735367 
L 386.490098 31.185428 
L 388.648171 34.087687 
L 391.746049 38.176648 
L 393.695276 40.378102 
L 395.505272 42.097636 
L 397.315268 43.511343 
L 399.160072 44.6685 
L 401.109299 45.625459 
L 403.232564 46.414817 
L 405.599482 47.053572 
L 408.384092 47.567288 
L 411.795239 47.960495 
L 416.285422 48.241326 
L 422.968485 48.416506 
L 427.354245 48.461881 
L 427.354245 48.461881 
" clip-path="url(#paa86d959a6)" style="fill: none; stroke: #43ffb4; stroke-width: 1.5; stroke-linecap: square"/>
   </g>
   <g id="line2d_53">
    <path d="M 375.177622 48.570764 
L 375.769351 49.438785 
L 375.978197 49.261125 
L 376.291466 48.65832 
L 376.778772 47.174071 
L 377.753386 43.325938 
L 379.250113 37.625423 
L 380.189919 34.885579 
L 381.025302 33.09201 
L 381.79107 31.952437 
L 382.487222 31.293697 
L 383.148567 30.96001 
L 383.809912 30.871759 
L 384.506064 31.002664 
L 385.306639 31.384445 
L 386.281253 32.104905 
L 387.603942 33.385181 
L 389.866438 35.945453 
L 393.068739 39.500597 
L 395.157196 41.47724 
L 397.106423 43.016726 
L 399.020842 44.250185 
L 401.039684 45.284182 
L 403.197756 46.134605 
L 405.564675 46.825503 
L 408.314477 47.388879 
L 411.586393 47.824506 
L 415.798115 48.148461 
L 421.715411 48.362847 
L 427.354245 48.446083 
L 427.354245 48.446083 
" clip-path="url(#paa86d959a6)" style="fill: none; stroke: #60ff97; stroke-width: 1.5; stroke-linecap: square"/>
   </g>
   <g id="line2d_54">
    <path d="M 375.177622 48.659263 
L 375.35166 49.889705 
L 375.734544 51.83183 
L 376.047812 52.522127 
L 376.291466 52.633639 
L 376.535119 52.455078 
L 376.883195 51.818378 
L 377.405309 50.300854 
L 378.449538 46.397579 
L 379.981073 40.894472 
L 380.955687 38.182052 
L 381.825877 36.36672 
L 382.626453 35.175054 
L 383.39222 34.419338 
L 384.12318 34.002783 
L 384.85414 33.839733 
L 385.619908 33.895285 
L 386.490098 34.184305 
L 387.569135 34.793835 
L 388.996247 35.881818 
L 391.467588 38.100296 
L 394.80912 41.028938 
L 397.071615 42.709775 
L 399.19488 44.015237 
L 401.352952 45.083795 
L 403.650255 45.970508 
L 406.156404 46.695453 
L 409.010629 47.283434 
L 412.386968 47.744589 
L 416.633498 48.090128 
L 422.481178 48.326842 
L 427.354245 48.417206 
L 427.354245 48.417206 
" clip-path="url(#paa86d959a6)" style="fill: none; stroke: #7dff7a; stroke-width: 1.5; stroke-linecap: square"/>
   </g>
   <g id="line2d_55">
    <path d="M 375.177622 48.747363 
L 375.316852 50.322394 
L 375.769351 54.492564 
L 376.187043 56.472306 
L 376.500311 57.090095 
L 376.743965 57.179878 
L 376.987618 57.000546 
L 377.335694 56.386002 
L 377.857808 54.925692 
L 378.832422 51.392143 
L 380.572803 45.16928 
L 381.617032 42.254678 
L 382.556837 40.258941 
L 383.427028 38.907082 
L 384.262411 38.005529 
L 385.062986 37.453889 
L 385.863561 37.158977 
L 386.733752 37.077115 
L 387.708365 37.218601 
L 388.857017 37.620196 
L 390.353744 38.395565 
L 392.75547 39.926962 
L 397.14123 42.718791 
L 399.751802 44.094271 
L 402.257951 45.164719 
L 404.868522 46.037971 
L 407.722747 46.754374 
L 410.959856 47.331372 
L 414.788694 47.781223 
L 419.626953 48.11618 
L 426.344824 48.34279 
L 427.354245 48.36254 
L 427.354245 48.36254 
" clip-path="url(#paa86d959a6)" style="fill: none; stroke: #97ff60; stroke-width: 1.5; stroke-linecap: square"/>
   </g>
   <g id="line2d_56">
    <path d="M 375.177622 48.830307 
L 375.316852 50.967432 
L 375.804159 57.289691 
L 376.256658 60.602767 
L 376.639542 61.99558 
L 376.95281 62.418707 
L 377.196464 62.403874 
L 377.474925 62.098521 
L 377.857808 61.30019 
L 378.484346 59.38758 
L 380.015881 53.693574 
L 381.338571 49.238226 
L 382.417607 46.353796 
L 383.39222 44.350069 
L 384.332026 42.906944 
L 385.237024 41.907546 
L 386.142022 41.227948 
L 387.081828 40.798293 
L 388.091249 40.585276 
L 389.2399 40.581092 
L 390.597398 40.809282 
L 392.372586 41.347904 
L 395.331234 42.51583 
L 400.482762 44.531742 
L 403.789486 45.57059 
L 407.131017 46.38672 
L 410.785818 47.044941 
L 414.962732 47.563735 
L 420.009837 47.958231 
L 426.623285 48.240047 
L 427.354245 48.260092 
L 427.354245 48.260092 
" clip-path="url(#paa86d959a6)" style="fill: none; stroke: #b4ff43; stroke-width: 1.5; stroke-linecap: square"/>
   </g>
   <g id="line2d_57">
    <path d="M 375.177622 48.904785 
L 375.316852 51.548947 
L 375.838966 60.091197 
L 376.326273 64.775715 
L 376.743965 66.935134 
L 377.092041 67.763023 
L 377.370502 67.939079 
L 377.614155 67.813966 
L 377.927424 67.352945 
L 378.41473 66.151501 
L 379.215306 63.455021 
L 381.860685 54.13914 
L 382.974529 51.186802 
L 384.018757 49.033873 
L 385.028178 47.451458 
L 386.037599 46.279112 
L 387.04702 45.439112 
L 388.126057 44.830809 
L 389.309516 44.426298 
L 390.667013 44.208785 
L 392.302971 44.184366 
L 394.461044 44.39063 
L 397.976613 44.983565 
L 406.608903 46.484741 
L 411.969277 47.151232 
L 417.886572 47.655368 
L 425.022134 48.029967 
L 427.354245 48.112799 
L 427.354245 48.112799 
" clip-path="url(#paa86d959a6)" style="fill: none; stroke: #ceff29; stroke-width: 1.5; stroke-linecap: square"/>
   </g>
   <g id="line2d_58">
    <path d="M 375.177622 48.969042 
L 375.316852 52.052413 
L 375.873774 62.790822 
L 376.395888 68.81953 
L 376.848387 71.724806 
L 377.231271 72.940444 
L 377.54454 73.293875 
L 377.788193 73.256569 
L 378.066654 72.948579 
L 378.484346 72.084364 
L 379.110883 70.200238 
L 380.537995 64.966949 
L 382.034723 59.852901 
L 383.183374 56.68075 
L 384.262411 54.322773 
L 385.306639 52.547637 
L 386.350868 51.187006 
L 387.429904 50.130056 
L 388.578556 49.307558 
L 389.866438 48.662946 
L 391.328358 48.184995 
L 393.103546 47.846514 
L 395.435657 47.643609 
L 398.846804 47.591208 
L 405.877943 47.756788 
L 423.76906 48.175569 
L 427.354245 48.228206 
L 427.354245 48.228206 
" clip-path="url(#paa86d959a6)" style="fill: none; stroke: #ebff0c; stroke-width: 1.5; stroke-linecap: square"/>
   </g>
   <g id="patch_12">
    <path d="M 372.568791 75.779178 
L 372.568791 21.419178 
" style="fill: none; stroke: #000000; stroke-width: 0.8; stroke-linejoin: miter; stroke-linecap: square"/>
   </g>
   <g id="patch_13">
    <path d="M 372.568791 75.779178 
L 429.963076 75.779178 
" style="fill: none; stroke: #000000; stroke-width: 0.8; stroke-linejoin: miter; stroke-linecap: square"/>
   </g>
   <g id="text_26">
    <!-- gradient $y$ -->
    <g transform="translate(377.103004 15.419178)scale(0.11 -0.11)">
     <defs>
      <path id="CMR17-67" d="M 710 1164 
C 832 1068 1043 960 1299 960 
C 1805 960 2240 1357 2240 1888 
C 2240 2054 2189 2310 1997 2509 
C 2176 2692 2438 2752 2586 2752 
C 2611 2752 2650 2752 2682 2734 
C 2656 2728 2598 2703 2598 2605 
C 2598 2527 2656 2471 2739 2471 
C 2835 2471 2886 2533 2886 2614 
C 2886 2731 2790 2854 2586 2854 
C 2330 2854 2106 2738 1926 2580 
C 1734 2753 1504 2816 1299 2816 
C 794 2816 358 2419 358 1888 
C 358 1522 570 1292 634 1228 
C 442 1004 442 743 442 711 
C 442 545 506 302 723 168 
C 390 85 128 -169 128 -486 
C 128 -943 736 -1280 1466 -1280 
C 2170 -1280 2803 -956 2803 -479 
C 2803 384 1856 384 1363 384 
C 1216 384 954 384 922 391 
C 723 423 589 602 589 826 
C 589 883 589 1024 710 1164 
z
M 1299 1068 
C 736 1068 736 1760 736 1889 
C 736 2016 736 2708 1299 2708 
C 1862 2708 1862 2016 1862 1889 
C 1862 1760 1862 1068 1299 1068 
z
M 1466 -1171 
C 826 -1171 384 -835 384 -486 
C 384 -289 493 -105 634 -4 
C 794 104 858 104 1293 104 
C 1818 104 2547 104 2547 -486 
C 2547 -835 2106 -1171 1466 -1171 
z
" transform="scale(0.015625)"/>
      <path id="CMR17-72" d="M 960 1497 
C 960 2112 1222 2688 1702 2688 
C 1747 2688 1792 2682 1837 2662 
C 1837 2662 1696 2617 1696 2452 
C 1696 2298 1818 2234 1914 2234 
C 1990 2234 2131 2279 2131 2458 
C 2131 2663 1926 2790 1709 2790 
C 1222 2790 1011 2317 947 2093 
L 941 2093 
L 941 2790 
L 198 2720 
L 198 2554 
C 576 2554 634 2515 634 2208 
L 634 428 
C 634 184 608 153 198 153 
L 198 -13 
C 352 0 646 0 813 0 
C 998 0 1325 0 1498 -13 
L 1498 153 
C 1037 153 960 153 960 440 
L 960 1497 
z
" transform="scale(0.015625)"/>
      <path id="CMR17-61" d="M 2304 1653 
C 2304 2072 2304 2294 2035 2543 
C 1798 2752 1523 2816 1306 2816 
C 800 2816 435 2407 435 1971 
C 435 1728 627 1728 666 1728 
C 749 1728 896 1778 896 1954 
C 896 2112 774 2181 666 2181 
C 640 2181 608 2174 589 2168 
C 723 2592 1069 2714 1293 2714 
C 1613 2714 1965 2429 1965 1885 
L 1965 1600 
C 1587 1600 1133 1549 774 1357 
C 371 1133 256 813 256 570 
C 256 77 832 -64 1171 -64 
C 1523 -64 1850 139 1990 511 
C 2003 233 2182 -18 2464 -18 
C 2598 -18 2938 70 2938 567 
L 2938 920 
L 2822 920 
L 2822 562 
C 2822 178 2650 128 2566 128 
C 2304 128 2304 458 2304 738 
L 2304 1653 
z
M 1965 870 
C 1965 317 1568 38 1216 38 
C 896 38 646 275 646 570 
C 646 761 730 1100 1101 1305 
C 1408 1478 1760 1504 1965 1504 
L 1965 870 
z
" transform="scale(0.015625)"/>
      <path id="CMR17-6e" d="M 2656 1933 
C 2656 2259 2592 2790 1837 2790 
C 1331 2790 1069 2400 973 2144 
L 966 2144 
L 966 2790 
L 211 2720 
L 211 2554 
C 589 2554 646 2515 646 2208 
L 646 428 
C 646 184 621 153 211 153 
L 211 -13 
C 365 0 646 0 813 0 
C 979 0 1267 0 1421 -13 
L 1421 153 
C 1011 153 986 178 986 428 
L 986 1658 
C 986 2247 1344 2688 1792 2688 
C 2266 2688 2317 2266 2317 1958 
L 2317 428 
C 2317 184 2291 153 1882 153 
L 1882 -13 
C 2035 0 2317 0 2483 0 
C 2650 0 2938 0 3091 -13 
L 3091 153 
C 2682 153 2656 178 2656 428 
L 2656 1933 
z
" transform="scale(0.015625)"/>
     </defs>
     <use xlink:href="#CMR17-67" transform="scale(0.996264)"/>
     <use xlink:href="#CMR17-72" transform="translate(45.690477 0)scale(0.996264)"/>
     <use xlink:href="#CMR17-61" transform="translate(80.971245 0)scale(0.996264)"/>
     <use xlink:href="#CMR17-64" transform="translate(126.661722 0)scale(0.996264)"/>
     <use xlink:href="#CMR17-69" transform="translate(177.557092 0)scale(0.996264)"/>
     <use xlink:href="#CMR17-65" transform="translate(202.42815 0)scale(0.996264)"/>
     <use xlink:href="#CMR17-6e" transform="translate(242.913811 0)scale(0.996264)"/>
     <use xlink:href="#CMR17-74" transform="translate(291.206727 0)scale(0.996264)"/>
     <use xlink:href="#CMMI12-79" transform="translate(356.563461 0)scale(0.996264)"/>
    </g>
   </g>
   <g id="legend_1">
    <g id="text_27">
     <!-- Input $I$ -->
     <g transform="translate(436.424104 19.939525)scale(0.11 -0.11)">
      <defs>
       <path id="CMR17-49" d="M 1261 3905 
C 1261 4192 1338 4192 1798 4192 
L 1798 4352 
C 1594 4352 1267 4352 1050 4352 
C 832 4352 506 4352 301 4352 
L 301 4192 
C 762 4192 838 4192 838 3905 
L 838 447 
C 838 160 762 160 301 160 
L 301 0 
C 506 0 832 0 1050 0 
C 1267 0 1594 0 1798 0 
L 1798 160 
C 1338 160 1261 160 1261 447 
L 1261 3905 
z
" transform="scale(0.015625)"/>
       <path id="CMR17-70" d="M 1408 -1063 
C 998 -1063 973 -1037 973 -789 
L 973 402 
C 1158 134 1427 -38 1766 -38 
C 2406 -38 3053 523 3053 1388 
C 3053 2191 2496 2802 1837 2802 
C 1453 2802 1139 2592 960 2338 
L 960 2802 
L 198 2732 
L 198 2567 
C 576 2567 634 2528 634 2223 
L 634 -789 
C 634 -1031 608 -1063 198 -1063 
L 198 -1228 
C 352 -1216 634 -1216 800 -1216 
C 966 -1216 1254 -1216 1408 -1228 
L 1408 -1063 
z
M 973 2012 
C 973 2102 973 2235 1222 2471 
C 1254 2497 1472 2688 1792 2688 
C 2259 2688 2643 2108 2643 1382 
C 2643 656 2234 64 1728 64 
C 1498 64 1248 172 1056 472 
C 973 612 973 650 973 752 
L 973 2012 
z
" transform="scale(0.015625)"/>
       <path id="CMR17-75" d="M 1882 2693 
L 1882 2528 
C 2259 2528 2317 2489 2317 2186 
L 2317 1032 
C 2317 500 2029 38 1555 38 
C 1030 38 986 348 986 678 
L 986 2763 
L 211 2693 
L 211 2528 
C 467 2528 640 2528 646 2274 
L 646 1058 
C 646 633 646 361 813 183 
C 896 101 1056 -64 1517 -64 
C 2061 -64 2272 377 2323 506 
L 2330 506 
L 2330 -63 
L 3091 -63 
L 3091 128 
C 2714 128 2656 166 2656 473 
L 2656 2763 
L 1882 2693 
z
" transform="scale(0.015625)"/>
       <path id="CMMI12-49" d="M 2355 3880 
C 2413 4103 2426 4167 2893 4167 
C 3034 4167 3085 4167 3085 4288 
C 3085 4352 3014 4352 2995 4352 
C 2880 4352 2739 4352 2624 4352 
L 1837 4352 
C 1709 4352 1562 4352 1434 4352 
C 1382 4352 1312 4352 1312 4231 
C 1312 4167 1363 4167 1491 4167 
C 1888 4167 1888 4116 1888 4046 
C 1888 4002 1875 3963 1862 3906 
L 998 472 
C 941 249 928 185 461 185 
C 320 185 262 185 262 64 
C 262 0 326 0 358 0 
C 474 0 614 0 730 0 
L 1517 0 
C 1645 0 1786 0 1914 0 
C 1965 0 2042 0 2042 115 
C 2042 185 2003 185 1862 185 
C 1466 185 1466 236 1466 312 
C 1466 325 1466 357 1491 459 
L 2355 3880 
z
" transform="scale(0.015625)"/>
      </defs>
      <use xlink:href="#CMR17-49" transform="scale(0.996264)"/>
      <use xlink:href="#CMR17-6e" transform="translate(32.638409 0)scale(0.996264)"/>
      <use xlink:href="#CMR17-70" transform="translate(83.533779 0)scale(0.996264)"/>
      <use xlink:href="#CMR17-75" transform="translate(134.429149 0)scale(0.996264)"/>
      <use xlink:href="#CMR17-74" transform="translate(185.324519 0)scale(0.996264)"/>
      <use xlink:href="#CMMI12-49" transform="translate(250.681253 0)scale(0.996264)"/>
     </g>
    </g>
    <g id="line2d_59">
     <path d="M 440.81293 26.320419 
L 445.81293 26.320419 
L 450.81293 26.320419 
" style="fill: none; stroke: #00d4ff; stroke-width: 1.5; stroke-linecap: square"/>
    </g>
    <g id="text_28">
     <!-- 0.5 -->
     <g transform="translate(454.81293 28.070419)scale(0.05 -0.05)">
      <defs>
       <path id="CMR17-2e" d="M 1062 261 
C 1062 420 934 522 800 522 
C 672 522 538 420 538 261 
C 538 102 666 0 800 0 
C 928 0 1062 102 1062 261 
z
" transform="scale(0.015625)"/>
      </defs>
      <use xlink:href="#CMR17-30" transform="scale(0.996264)"/>
      <use xlink:href="#CMR17-2e" transform="translate(45.690477 0)scale(0.996264)"/>
      <use xlink:href="#CMR17-35" transform="translate(70.561536 0)scale(0.996264)"/>
     </g>
    </g>
    <g id="line2d_60">
     <path d="M 440.81293 33.289001 
L 445.81293 33.289001 
L 450.81293 33.289001 
" style="fill: none; stroke: #0cf4eb; stroke-width: 1.5; stroke-linecap: square"/>
    </g>
    <g id="text_29">
     <!-- 0.55 -->
     <g transform="translate(454.81293 35.039001)scale(0.05 -0.05)">
      <use xlink:href="#CMR17-30" transform="scale(0.996264)"/>
      <use xlink:href="#CMR17-2e" transform="translate(45.690477 0)scale(0.996264)"/>
      <use xlink:href="#CMR17-35" transform="translate(70.561536 0)scale(0.996264)"/>
      <use xlink:href="#CMR17-35" transform="translate(116.252013 0)scale(0.996264)"/>
     </g>
    </g>
    <g id="line2d_61">
     <path d="M 440.81293 40.257583 
L 445.81293 40.257583 
L 450.81293 40.257583 
" style="fill: none; stroke: #29ffce; stroke-width: 1.5; stroke-linecap: square"/>
    </g>
    <g id="text_30">
     <!-- 0.6 -->
     <g transform="translate(454.81293 42.007583)scale(0.05 -0.05)">
      <defs>
       <path id="CMR17-36" d="M 678 2176 
C 678 3690 1395 4032 1811 4032 
C 1946 4032 2272 4009 2400 3776 
C 2298 3776 2106 3776 2106 3553 
C 2106 3381 2246 3323 2336 3323 
C 2394 3323 2566 3348 2566 3560 
C 2566 3954 2246 4179 1805 4179 
C 1043 4179 243 3390 243 1984 
C 243 253 966 -128 1478 -128 
C 2099 -128 2688 427 2688 1283 
C 2688 2081 2170 2662 1517 2662 
C 1126 2662 838 2407 678 1960 
L 678 2176 
z
M 1478 25 
C 691 25 691 1200 691 1436 
C 691 1896 909 2560 1504 2560 
C 1613 2560 1926 2560 2138 2120 
C 2253 1870 2253 1609 2253 1289 
C 2253 944 2253 690 2118 434 
C 1978 171 1773 25 1478 25 
z
" transform="scale(0.015625)"/>
      </defs>
      <use xlink:href="#CMR17-30" transform="scale(0.996264)"/>
      <use xlink:href="#CMR17-2e" transform="translate(45.690477 0)scale(0.996264)"/>
      <use xlink:href="#CMR17-36" transform="translate(70.561536 0)scale(0.996264)"/>
     </g>
    </g>
    <g id="line2d_62">
     <path d="M 440.81293 47.226164 
L 445.81293 47.226164 
L 450.81293 47.226164 
" style="fill: none; stroke: #43ffb4; stroke-width: 1.5; stroke-linecap: square"/>
    </g>
    <g id="text_31">
     <!-- 0.65 -->
     <g transform="translate(454.81293 48.976164)scale(0.05 -0.05)">
      <use xlink:href="#CMR17-30" transform="scale(0.996264)"/>
      <use xlink:href="#CMR17-2e" transform="translate(45.690477 0)scale(0.996264)"/>
      <use xlink:href="#CMR17-36" transform="translate(70.561536 0)scale(0.996264)"/>
      <use xlink:href="#CMR17-35" transform="translate(116.252013 0)scale(0.996264)"/>
     </g>
    </g>
    <g id="line2d_63">
     <path d="M 440.81293 54.194746 
L 445.81293 54.194746 
L 450.81293 54.194746 
" style="fill: none; stroke: #60ff97; stroke-width: 1.5; stroke-linecap: square"/>
    </g>
    <g id="text_32">
     <!-- 0.7 -->
     <g transform="translate(454.81293 55.944746)scale(0.05 -0.05)">
      <use xlink:href="#CMR17-30" transform="scale(0.996264)"/>
      <use xlink:href="#CMR17-2e" transform="translate(45.690477 0)scale(0.996264)"/>
      <use xlink:href="#CMR17-37" transform="translate(70.561536 0)scale(0.996264)"/>
     </g>
    </g>
    <g id="line2d_64">
     <path d="M 440.81293 61.163327 
L 445.81293 61.163327 
L 450.81293 61.163327 
" style="fill: none; stroke: #7dff7a; stroke-width: 1.5; stroke-linecap: square"/>
    </g>
    <g id="text_33">
     <!-- 0.75 -->
     <g transform="translate(454.81293 62.913327)scale(0.05 -0.05)">
      <use xlink:href="#CMR17-30" transform="scale(0.996264)"/>
      <use xlink:href="#CMR17-2e" transform="translate(45.690477 0)scale(0.996264)"/>
      <use xlink:href="#CMR17-37" transform="translate(70.561536 0)scale(0.996264)"/>
      <use xlink:href="#CMR17-35" transform="translate(116.252013 0)scale(0.996264)"/>
     </g>
    </g>
    <g id="line2d_65">
     <path d="M 440.81293 68.131909 
L 445.81293 68.131909 
L 450.81293 68.131909 
" style="fill: none; stroke: #97ff60; stroke-width: 1.5; stroke-linecap: square"/>
    </g>
    <g id="text_34">
     <!-- 0.8 -->
     <g transform="translate(454.81293 69.881909)scale(0.05 -0.05)">
      <use xlink:href="#CMR17-30" transform="scale(0.996264)"/>
      <use xlink:href="#CMR17-2e" transform="translate(45.690477 0)scale(0.996264)"/>
      <use xlink:href="#CMR17-38" transform="translate(70.561536 0)scale(0.996264)"/>
     </g>
    </g>
    <g id="line2d_66">
     <path d="M 440.81293 75.10049 
L 445.81293 75.10049 
L 450.81293 75.10049 
" style="fill: none; stroke: #b4ff43; stroke-width: 1.5; stroke-linecap: square"/>
    </g>
    <g id="text_35">
     <!-- 0.85 -->
     <g transform="translate(454.81293 76.85049)scale(0.05 -0.05)">
      <use xlink:href="#CMR17-30" transform="scale(0.996264)"/>
      <use xlink:href="#CMR17-2e" transform="translate(45.690477 0)scale(0.996264)"/>
      <use xlink:href="#CMR17-38" transform="translate(70.561536 0)scale(0.996264)"/>
      <use xlink:href="#CMR17-35" transform="translate(116.252013 0)scale(0.996264)"/>
     </g>
    </g>
    <g id="line2d_67">
     <path d="M 440.81293 82.069072 
L 445.81293 82.069072 
L 450.81293 82.069072 
" style="fill: none; stroke: #ceff29; stroke-width: 1.5; stroke-linecap: square"/>
    </g>
    <g id="text_36">
     <!-- 0.9 -->
     <g transform="translate(454.81293 83.819072)scale(0.05 -0.05)">
      <use xlink:href="#CMR17-30" transform="scale(0.996264)"/>
      <use xlink:href="#CMR17-2e" transform="translate(45.690477 0)scale(0.996264)"/>
      <use xlink:href="#CMR17-39" transform="translate(70.561536 0)scale(0.996264)"/>
     </g>
    </g>
    <g id="line2d_68">
     <path d="M 440.81293 89.037654 
L 445.81293 89.037654 
L 450.81293 89.037654 
" style="fill: none; stroke: #ebff0c; stroke-width: 1.5; stroke-linecap: square"/>
    </g>
    <g id="text_37">
     <!-- 0.95 -->
     <g transform="translate(454.81293 90.787654)scale(0.05 -0.05)">
      <use xlink:href="#CMR17-30" transform="scale(0.996264)"/>
      <use xlink:href="#CMR17-2e" transform="translate(45.690477 0)scale(0.996264)"/>
      <use xlink:href="#CMR17-39" transform="translate(70.561536 0)scale(0.996264)"/>
      <use xlink:href="#CMR17-35" transform="translate(116.252013 0)scale(0.996264)"/>
     </g>
    </g>
   </g>
  </g>
 </g>
 <defs>
  <clipPath id="p06cbc8225b">
   <rect x="28.203076" y="21.419178" width="57.394286" height="54.36"/>
  </clipPath>
  <clipPath id="p89cf7c5121">
   <rect x="142.991648" y="21.419178" width="57.394286" height="54.36"/>
  </clipPath>
  <clipPath id="p8b8a0a47aa">
   <rect x="257.780219" y="21.419178" width="57.394286" height="54.36"/>
  </clipPath>
  <clipPath id="paa86d959a6">
   <rect x="372.568791" y="21.419178" width="57.394286" height="54.36"/>
  </clipPath>
 </defs>
</svg>
