<?xml version="1.0" encoding="utf-8" standalone="no"?>
<!DOCTYPE svg PUBLIC "-//W3C//DTD SVG 1.1//EN"
  "http://www.w3.org/Graphics/SVG/1.1/DTD/svg11.dtd">
<svg xmlns:xlink="http://www.w3.org/1999/xlink" width="346.1905pt" height="105.765906pt" viewBox="0 0 346.1905 105.765906" xmlns="http://www.w3.org/2000/svg" version="1.1">
 <metadata>
  <rdf:RDF xmlns:dc="http://purl.org/dc/elements/1.1/" xmlns:cc="http://creativecommons.org/ns#" xmlns:rdf="http://www.w3.org/1999/02/22-rdf-syntax-ns#">
   <cc:Work>
    <dc:type rdf:resource="http://purl.org/dc/dcmitype/StillImage"/>
    <dc:date>2022-07-31T22:28:07.404814</dc:date>
    <dc:format>image/svg+xml</dc:format>
    <dc:creator>
     <cc:Agent>
      <dc:title>Matplotlib v3.5.1, https://matplotlib.org/</dc:title>
     </cc:Agent>
    </dc:creator>
   </cc:Work>
  </rdf:RDF>
 </metadata>
 <defs>
  <style type="text/css">*{stroke-linejoin: round; stroke-linecap: butt}</style>
 </defs>
 <g id="figure_1">
  <g id="patch_1">
   <path d="M 0 105.765906 
L 346.1905 105.765906 
L 346.1905 0 
L 0 0 
L 0 105.765906 
z
" style="fill: none"/>
  </g>
  <g id="axes_1">
   <g id="patch_2">
    <path d="M 28.257656 68.027156 
L 82.57441 68.027156 
L 82.57441 21.427656 
L 28.257656 21.427656 
z
" style="fill: #ffffff"/>
   </g>
   <g id="matplotlib.axis_1">
    <g id="xtick_1">
     <g id="line2d_1">
      <defs>
       <path id="m71648bcbd9" d="M 0 0 
L 0 3.5 
" style="stroke: #000000; stroke-width: 0.8"/>
      </defs>
      <g>
       <use xlink:href="#m71648bcbd9" x="30.7266" y="68.027156" style="stroke: #000000; stroke-width: 0.8"/>
      </g>
     </g>
     <g id="text_1">
      <!-- 0 -->
      <g transform="translate(27.9766 82.661844)scale(0.11 -0.11)">
       <defs>
        <path id="CMUSerif-Roman-30" d="M 250 2048 
Q 250 2989 486 3501 
Q 819 4262 1600 4262 
Q 1766 4262 1939 4217 
Q 2112 4173 2333 4000 
Q 2554 3827 2688 3546 
Q 2944 3002 2944 2048 
Q 2944 1114 2707 602 
Q 2362 -141 1594 -141 
Q 1306 -141 1014 6 
Q 723 154 538 506 
Q 250 1037 250 2048 
z
M 781 2125 
Q 781 1158 851 774 
Q 928 358 1142 179 
Q 1357 0 1594 0 
Q 1850 0 2064 192 
Q 2278 384 2342 800 
Q 2413 1210 2413 2125 
Q 2413 3014 2349 3373 
Q 2266 3789 2042 3955 
Q 1818 4122 1594 4122 
Q 1510 4122 1420 4096 
Q 1331 4070 1203 4000 
Q 1075 3930 976 3750 
Q 877 3571 832 3302 
Q 781 2957 781 2125 
z
" transform="scale(0.015625)"/>
       </defs>
       <use xlink:href="#CMUSerif-Roman-30"/>
      </g>
     </g>
    </g>
    <g id="xtick_2">
     <g id="line2d_2">
      <g>
       <use xlink:href="#m71648bcbd9" x="80.130168" y="68.027156" style="stroke: #000000; stroke-width: 0.8"/>
      </g>
     </g>
     <g id="text_2">
      <!-- 2000 -->
      <g transform="translate(69.130168 82.661844)scale(0.11 -0.11)">
       <defs>
        <path id="CMUSerif-Roman-32" d="M 320 0 
Q 320 115 329 150 
Q 339 186 390 237 
L 1619 1606 
Q 2291 2362 2291 3021 
Q 2291 3450 2067 3757 
Q 1843 4064 1434 4064 
Q 1152 4064 915 3891 
Q 678 3718 570 3411 
Q 589 3418 653 3418 
Q 813 3418 902 3318 
Q 992 3219 992 3085 
Q 992 2912 880 2829 
Q 768 2746 659 2746 
Q 614 2746 556 2755 
Q 499 2765 409 2854 
Q 320 2944 320 3104 
Q 320 3552 659 3907 
Q 998 4262 1517 4262 
Q 2106 4262 2490 3913 
Q 2874 3565 2874 3021 
Q 2874 2829 2816 2656 
Q 2758 2483 2681 2348 
Q 2605 2214 2400 2000 
Q 2195 1786 2028 1632 
Q 1862 1478 1491 1152 
L 813 493 
L 1965 493 
Q 2528 493 2573 544 
Q 2637 634 2714 1114 
L 2874 1114 
L 2694 0 
L 320 0 
z
" transform="scale(0.015625)"/>
       </defs>
       <use xlink:href="#CMUSerif-Roman-32"/>
       <use xlink:href="#CMUSerif-Roman-30" x="49.999985"/>
       <use xlink:href="#CMUSerif-Roman-30" x="99.999969"/>
       <use xlink:href="#CMUSerif-Roman-30" x="149.999954"/>
      </g>
     </g>
    </g>
    <g id="text_3">
     <!-- t -->
     <g transform="translate(53.282205 96.431219)scale(0.11 -0.11)">
      <defs>
       <path id="CMUSerif-Roman-74" d="M 122 2560 
L 122 2701 
Q 416 2714 611 2922 
Q 806 3130 873 3386 
Q 941 3642 947 3936 
L 1107 3936 
L 1107 2758 
L 2022 2758 
L 2022 2560 
L 1107 2560 
L 1107 781 
Q 1107 90 1536 90 
Q 1722 90 1843 278 
Q 1965 467 1965 806 
L 1965 1158 
L 2125 1158 
L 2125 794 
Q 2125 448 1965 189 
Q 1805 -70 1491 -70 
Q 1376 -70 1261 -41 
Q 1146 -13 998 64 
Q 851 141 758 329 
Q 666 518 666 794 
L 666 2560 
L 122 2560 
z
" transform="scale(0.015625)"/>
      </defs>
      <use xlink:href="#CMUSerif-Roman-74"/>
     </g>
    </g>
   </g>
   <g id="matplotlib.axis_2">
    <g id="ytick_1">
     <g id="line2d_3">
      <defs>
       <path id="mcad622fa48" d="M 0 0 
L -3.5 0 
" style="stroke: #000000; stroke-width: 0.8"/>
      </defs>
      <g>
       <use xlink:href="#mcad622fa48" x="28.257656" y="65.908997" style="stroke: #000000; stroke-width: 0.8"/>
      </g>
     </g>
     <g id="text_4">
      <!-- 0.7 -->
      <g transform="translate(7.2 69.726341)scale(0.11 -0.11)">
       <defs>
        <path id="CMUSerif-Roman-2e" d="M 640 102 
Q 544 205 544 339 
Q 544 474 640 573 
Q 736 672 883 672 
Q 1024 672 1120 579 
Q 1216 486 1216 339 
Q 1216 192 1113 96 
Q 1011 0 883 0 
Q 736 0 640 102 
z
" transform="scale(0.015625)"/>
        <path id="CMUSerif-Roman-37" d="M 358 3008 
L 570 4326 
L 730 4326 
Q 749 4250 781 4214 
Q 813 4179 995 4150 
Q 1178 4122 1549 4122 
L 3104 4122 
Q 3104 3974 3046 3898 
L 2182 2682 
Q 1907 2298 1786 1587 
Q 1715 1114 1715 538 
L 1715 211 
Q 1715 -141 1420 -141 
Q 1126 -141 1126 211 
Q 1126 1434 1914 2618 
Q 1997 2739 2307 3174 
Q 2618 3610 2630 3629 
L 1306 3629 
Q 723 3629 678 3590 
Q 614 3533 518 3008 
L 358 3008 
z
" transform="scale(0.015625)"/>
       </defs>
       <use xlink:href="#CMUSerif-Roman-30"/>
       <use xlink:href="#CMUSerif-Roman-2e" x="49.999985"/>
       <use xlink:href="#CMUSerif-Roman-37" x="77.799973"/>
      </g>
     </g>
    </g>
    <g id="ytick_2">
     <g id="line2d_4">
      <g>
       <use xlink:href="#mcad622fa48" x="28.257656" y="49.602645" style="stroke: #000000; stroke-width: 0.8"/>
      </g>
     </g>
     <g id="text_5">
      <!-- 0.8 -->
      <g transform="translate(7.2 53.419988)scale(0.11 -0.11)">
       <defs>
        <path id="CMUSerif-Roman-38" d="M 269 966 
Q 269 1683 1190 2144 
Q 794 2413 723 2490 
Q 442 2803 442 3194 
Q 442 3642 781 3952 
Q 1120 4262 1600 4262 
Q 2061 4262 2406 3996 
Q 2752 3731 2752 3309 
Q 2752 2714 1978 2317 
Q 2490 1997 2611 1862 
Q 2925 1517 2925 1075 
Q 2925 563 2531 211 
Q 2138 -141 1594 -141 
Q 1062 -141 665 169 
Q 269 480 269 966 
z
M 589 966 
Q 589 570 886 304 
Q 1184 38 1600 38 
Q 2003 38 2304 268 
Q 2605 499 2605 845 
Q 2605 979 2560 1094 
Q 2515 1210 2425 1302 
Q 2336 1395 2281 1436 
Q 2227 1478 2125 1549 
L 1338 2048 
Q 589 1632 589 966 
z
M 723 3443 
Q 723 3136 1043 2925 
L 1837 2413 
Q 2470 2784 2470 3309 
Q 2470 3648 2211 3875 
Q 1952 4102 1594 4102 
Q 1242 4102 982 3916 
Q 723 3731 723 3443 
z
" transform="scale(0.015625)"/>
       </defs>
       <use xlink:href="#CMUSerif-Roman-30"/>
       <use xlink:href="#CMUSerif-Roman-2e" x="49.999985"/>
       <use xlink:href="#CMUSerif-Roman-38" x="77.799973"/>
      </g>
     </g>
    </g>
    <g id="ytick_3">
     <g id="line2d_5">
      <g>
       <use xlink:href="#mcad622fa48" x="28.257656" y="33.296292" style="stroke: #000000; stroke-width: 0.8"/>
      </g>
     </g>
     <g id="text_6">
      <!-- 0.9 -->
      <g transform="translate(7.2 37.113636)scale(0.11 -0.11)">
       <defs>
        <path id="CMUSerif-Roman-39" d="M 269 2822 
Q 269 3162 368 3395 
Q 467 3629 678 3859 
Q 1062 4262 1619 4262 
Q 1856 4262 2067 4163 
Q 2278 4064 2480 3837 
Q 2682 3610 2803 3165 
Q 2925 2720 2925 2106 
Q 2925 1114 2445 486 
Q 1965 -141 1318 -141 
Q 909 -141 669 44 
Q 429 230 429 550 
Q 429 717 521 787 
Q 614 858 723 858 
Q 838 858 928 781 
Q 1018 704 1018 563 
Q 1018 448 944 358 
Q 870 269 685 269 
Q 870 38 1312 38 
Q 1472 38 1632 112 
Q 1792 186 1965 365 
Q 2138 544 2243 921 
Q 2349 1299 2349 1830 
L 2349 2035 
Q 2093 1395 1549 1395 
Q 1011 1395 640 1808 
Q 269 2221 269 2822 
z
M 845 2816 
Q 845 2182 960 1946 
Q 1158 1542 1555 1542 
Q 1946 1542 2141 1891 
Q 2336 2240 2336 2694 
Q 2336 3322 2234 3597 
Q 2042 4102 1619 4102 
Q 1197 4102 979 3699 
Q 845 3462 845 2816 
z
" transform="scale(0.015625)"/>
       </defs>
       <use xlink:href="#CMUSerif-Roman-30"/>
       <use xlink:href="#CMUSerif-Roman-2e" x="49.999985"/>
       <use xlink:href="#CMUSerif-Roman-39" x="77.799973"/>
      </g>
     </g>
    </g>
   </g>
   <g id="line2d_6">
    <path d="M 30.7266 65.908997 
L 31.492355 59.106515 
L 32.332216 53.578655 
L 33.270883 48.829086 
L 34.308358 44.700234 
L 35.395237 41.263346 
L 36.506817 38.467338 
L 37.618397 36.252027 
L 38.754679 34.471914 
L 39.915663 33.058869 
L 41.126051 31.930615 
L 42.435245 31.016542 
L 43.867949 30.289942 
L 45.522968 29.706856 
L 47.499111 29.254997 
L 50.018693 28.918405 
L 53.526347 28.690007 
L 59.331266 28.56239 
L 74.522863 28.5228 
L 80.105466 28.522071 
L 80.105466 28.522071 
" clip-path="url(#pb38c1d2eb2)" style="fill: none; stroke: #00d4ff; stroke-opacity: 0.8; stroke-width: 1.5; stroke-linecap: square"/>
   </g>
   <g id="line2d_7">
    <path d="M 30.7266 65.908997 
L 31.442951 58.303077 
L 32.208707 52.444621 
L 33.073269 47.524824 
L 34.011937 43.435313 
L 35.02471 39.980366 
L 36.086887 37.117471 
L 37.173765 34.801114 
L 38.285346 32.936937 
L 39.421628 31.450402 
L 40.607313 30.25566 
L 41.867104 29.296001 
L 43.250404 28.520663 
L 44.831318 27.895076 
L 46.683952 27.407092 
L 49.00592 27.035052 
L 52.143047 26.772539 
L 56.984596 26.613721 
L 67.235837 26.549023 
L 80.105466 26.543487 
L 80.105466 26.543487 
" clip-path="url(#pb38c1d2eb2)" style="fill: none; stroke: #0cf4eb; stroke-opacity: 0.8; stroke-width: 1.5; stroke-linecap: square"/>
   </g>
   <g id="line2d_8">
    <path d="M 30.7266 65.908997 
L 31.41825 57.603696 
L 32.159303 51.320961 
L 32.94976 46.448101 
L 33.839024 42.338395 
L 34.802394 38.917596 
L 35.839869 36.0376 
L 36.926747 33.666234 
L 38.038328 31.761811 
L 39.17461 30.240916 
L 40.360295 29.014518 
L 41.620086 28.025205 
L 43.003386 27.221934 
L 44.559599 26.57857 
L 46.387531 26.069288 
L 48.660095 25.677741 
L 51.673713 25.39839 
L 56.194139 25.223496 
L 65.06208 25.144683 
L 80.105466 25.134306 
L 80.105466 25.134306 
" clip-path="url(#pb38c1d2eb2)" style="fill: none; stroke: #29ffce; stroke-opacity: 0.8; stroke-width: 1.5; stroke-linecap: square"/>
   </g>
   <g id="line2d_9">
    <path d="M 30.7266 65.908997 
L 31.41825 56.869717 
L 32.134601 50.354515 
L 32.900357 45.395098 
L 33.740217 41.405817 
L 34.654183 38.121132 
L 35.666956 35.303672 
L 36.729133 32.986653 
L 37.840713 31.07605 
L 39.001697 29.512298 
L 40.212085 28.248989 
L 41.496578 27.227096 
L 42.904579 26.394852 
L 44.485493 25.725827 
L 46.313425 25.199516 
L 48.561288 24.792284 
L 51.525502 24.495565 
L 55.873016 24.304924 
L 63.901096 24.21273 
L 80.105466 24.196293 
L 80.105466 24.196293 
" clip-path="url(#pb38c1d2eb2)" style="fill: none; stroke: #43ffb4; stroke-opacity: 0.8; stroke-width: 1.5; stroke-linecap: square"/>
   </g>
   <g id="line2d_10">
    <path d="M 30.7266 65.908997 
L 31.41825 56.284375 
L 32.1099 49.632397 
L 32.826251 44.775937 
L 33.616708 40.907945 
L 34.481271 37.768177 
L 35.44464 35.094675 
L 36.506817 32.797813 
L 37.643099 30.865436 
L 38.828785 29.278732 
L 40.063874 27.986766 
L 41.373069 26.931505 
L 42.805772 26.062985 
L 44.386686 25.365757 
L 46.214618 24.805833 
L 48.437779 24.366021 
L 51.278484 24.041535 
L 55.304875 23.822462 
L 62.122567 23.703962 
L 80.105466 23.671128 
L 80.105466 23.671128 
" clip-path="url(#pb38c1d2eb2)" style="fill: none; stroke: #60ff97; stroke-opacity: 0.8; stroke-width: 1.5; stroke-linecap: square"/>
   </g>
   <g id="line2d_11">
    <path d="M 30.7266 65.908997 
L 31.41825 55.815285 
L 32.085198 49.092793 
L 32.776848 44.226967 
L 33.517901 40.532982 
L 34.33306 37.582052 
L 35.247026 35.105913 
L 36.259799 32.989224 
L 37.396081 31.120495 
L 38.631171 29.513854 
L 39.940365 28.172828 
L 41.323665 27.070657 
L 42.830474 26.15708 
L 44.485493 25.417236 
L 46.387531 24.817464 
L 48.635393 24.34857 
L 51.476098 23.993117 
L 55.37898 23.745202 
L 61.579128 23.600329 
L 75.832058 23.547531 
L 80.105466 23.545815 
L 80.105466 23.545815 
" clip-path="url(#pb38c1d2eb2)" style="fill: none; stroke: #7dff7a; stroke-opacity: 0.8; stroke-width: 1.5; stroke-linecap: square"/>
   </g>
   <g id="line2d_12">
    <path d="M 30.7266 65.908997 
L 31.41825 55.436983 
L 32.085198 48.474887 
L 32.752146 43.669311 
L 33.443796 40.188422 
L 34.209551 37.453829 
L 35.049412 35.270202 
L 36.012781 33.383125 
L 37.124362 31.693293 
L 38.384153 30.176301 
L 39.792154 28.827949 
L 41.298963 27.690978 
L 42.929281 26.739624 
L 44.70781 25.959594 
L 46.733356 25.318836 
L 49.104727 24.808968 
L 52.044239 24.41543 
L 55.92242 24.134234 
L 61.727339 23.957179 
L 73.016054 23.876818 
L 80.105466 23.868571 
L 80.105466 23.868571 
" clip-path="url(#pb38c1d2eb2)" style="fill: none; stroke: #97ff60; stroke-opacity: 0.8; stroke-width: 1.5; stroke-linecap: square"/>
   </g>
   <g id="line2d_13">
    <path d="M 30.7266 65.908997 
L 31.41825 55.130389 
L 32.085198 47.945828 
L 32.752146 43.046829 
L 33.419094 39.701578 
L 34.110744 37.293324 
L 34.876499 35.407632 
L 35.741062 33.86402 
L 36.753835 32.506656 
L 38.013626 31.199349 
L 39.520435 29.962095 
L 41.24956 28.832611 
L 43.151597 27.858087 
L 45.226547 27.046205 
L 47.548515 26.378603 
L 50.241009 25.840139 
L 53.526347 25.418616 
L 57.775053 25.109924 
L 63.876394 24.90748 
L 74.695776 24.804182 
L 80.105466 24.790973 
L 80.105466 24.790973 
" clip-path="url(#pb38c1d2eb2)" style="fill: none; stroke: #b4ff43; stroke-opacity: 0.8; stroke-width: 1.5; stroke-linecap: square"/>
   </g>
   <g id="line2d_14">
    <path d="M 30.7266 65.908997 
L 31.442951 54.555989 
L 32.1099 47.261738 
L 32.752146 42.472944 
L 33.394392 39.232838 
L 34.06134 36.966488 
L 34.75299 35.373847 
L 35.518746 34.161742 
L 36.40801 33.176853 
L 37.51959 32.291281 
L 39.001697 31.409197 
L 41.027244 30.475278 
L 43.522124 29.574195 
L 46.362829 28.788564 
L 49.549359 28.1424 
L 53.254627 27.623775 
L 57.775053 27.223715 
L 63.703482 26.934559 
L 72.447913 26.750734 
L 80.105466 26.69083 
L 80.105466 26.69083 
" clip-path="url(#pb38c1d2eb2)" style="fill: none; stroke: #ceff29; stroke-opacity: 0.8; stroke-width: 1.5; stroke-linecap: square"/>
   </g>
   <g id="line2d_15">
    <path d="M 30.7266 65.908997 
L 31.442951 54.346845 
L 32.1099 46.851505 
L 32.752146 41.930869 
L 33.394392 38.652994 
L 34.011937 36.577113 
L 34.654183 35.16435 
L 35.321131 34.21745 
L 36.062185 33.54932 
L 36.951449 33.056361 
L 38.137135 32.668751 
L 40.01447 32.315248 
L 43.670335 31.889532 
L 49.919886 31.394045 
L 57.775053 31.001027 
L 68.100399 30.720325 
L 80.105466 30.56987 
L 80.105466 30.56987 
" clip-path="url(#pb38c1d2eb2)" style="fill: none; stroke: #ebff0c; stroke-opacity: 0.8; stroke-width: 1.5; stroke-linecap: square"/>
   </g>
   <g id="patch_3">
    <path d="M 28.257656 68.027156 
L 28.257656 21.427656 
" style="fill: none; stroke: #000000; stroke-width: 0.8; stroke-linejoin: miter; stroke-linecap: square"/>
   </g>
   <g id="patch_4">
    <path d="M 28.257656 68.027156 
L 82.57441 68.027156 
" style="fill: none; stroke: #000000; stroke-width: 0.8; stroke-linejoin: miter; stroke-linecap: square"/>
   </g>
   <g id="text_7">
    <!-- du/dt -->
    <g transform="translate(41.374705 15.427656)scale(0.11 -0.11)">
     <defs>
      <path id="CMUSerif-Roman-64" d="M 218 1376 
Q 218 1984 643 2406 
Q 1069 2829 1645 2829 
Q 2131 2829 2451 2432 
L 2451 3814 
Q 2451 4051 2368 4112 
Q 2285 4173 1952 4173 
L 1952 4371 
L 2874 4442 
L 2874 557 
Q 2874 320 2957 259 
Q 3040 198 3373 198 
L 3373 0 
L 2432 -70 
L 2432 352 
Q 2099 -70 1574 -70 
Q 1024 -70 621 352 
Q 218 774 218 1376 
z
M 749 1370 
Q 749 774 934 480 
Q 1190 70 1606 70 
Q 2080 70 2362 518 
Q 2432 627 2432 755 
L 2432 2067 
Q 2432 2195 2362 2304 
Q 2099 2688 1670 2688 
Q 1222 2688 947 2278 
Q 749 1971 749 1370 
z
" transform="scale(0.015625)"/>
      <path id="CMUSerif-Roman-75" d="M 205 2560 
L 205 2758 
L 1146 2829 
L 1146 704 
Q 1146 550 1158 460 
Q 1171 371 1222 268 
Q 1274 166 1395 118 
Q 1517 70 1709 70 
Q 2054 70 2268 355 
Q 2483 640 2483 1062 
L 2483 2202 
Q 2483 2438 2400 2499 
Q 2317 2560 1984 2560 
L 1984 2758 
L 2925 2829 
L 2925 557 
Q 2925 320 3008 259 
Q 3091 198 3424 198 
L 3424 0 
L 2502 -70 
L 2502 506 
Q 2234 -70 1677 -70 
Q 1395 -70 1203 0 
Q 1011 70 915 160 
Q 819 250 768 422 
Q 717 595 710 700 
Q 704 806 704 1011 
L 704 1971 
Q 704 2406 640 2483 
Q 576 2560 205 2560 
z
" transform="scale(0.015625)"/>
      <path id="CMUSerif-Roman-2f" d="M 365 -1510 
Q 365 -1478 390 -1408 
L 2650 4627 
Q 2650 4634 2666 4669 
Q 2682 4704 2691 4726 
Q 2701 4749 2720 4768 
Q 2739 4787 2765 4787 
Q 2829 4787 2829 4710 
Q 2829 4704 2810 4627 
L 544 -1414 
Q 506 -1523 483 -1555 
Q 461 -1587 422 -1587 
Q 365 -1587 365 -1510 
z
" transform="scale(0.015625)"/>
     </defs>
     <use xlink:href="#CMUSerif-Roman-64"/>
     <use xlink:href="#CMUSerif-Roman-75" x="55.499985"/>
     <use xlink:href="#CMUSerif-Roman-2f" x="110.999969"/>
     <use xlink:href="#CMUSerif-Roman-64" x="160.999954"/>
     <use xlink:href="#CMUSerif-Roman-74" x="216.499939"/>
    </g>
   </g>
  </g>
  <g id="axes_2">
   <g id="patch_5">
    <path d="M 123.193544 68.027156 
L 177.510298 68.027156 
L 177.510298 21.427656 
L 123.193544 21.427656 
z
" style="fill: #ffffff"/>
   </g>
   <g id="matplotlib.axis_3">
    <g id="xtick_3">
     <g id="line2d_16">
      <g>
       <use xlink:href="#m71648bcbd9" x="125.662488" y="68.027156" style="stroke: #000000; stroke-width: 0.8"/>
      </g>
     </g>
     <g id="text_8">
      <!-- 0 -->
      <g transform="translate(122.912488 82.661844)scale(0.11 -0.11)">
       <use xlink:href="#CMUSerif-Roman-30"/>
      </g>
     </g>
    </g>
    <g id="xtick_4">
     <g id="line2d_17">
      <g>
       <use xlink:href="#m71648bcbd9" x="175.066056" y="68.027156" style="stroke: #000000; stroke-width: 0.8"/>
      </g>
     </g>
     <g id="text_9">
      <!-- 2000 -->
      <g transform="translate(164.066056 82.661844)scale(0.11 -0.11)">
       <use xlink:href="#CMUSerif-Roman-32"/>
       <use xlink:href="#CMUSerif-Roman-30" x="49.999985"/>
       <use xlink:href="#CMUSerif-Roman-30" x="99.999969"/>
       <use xlink:href="#CMUSerif-Roman-30" x="149.999954"/>
      </g>
     </g>
    </g>
    <g id="text_10">
     <!-- t -->
     <g transform="translate(148.218093 96.431219)scale(0.11 -0.11)">
      <use xlink:href="#CMUSerif-Roman-74"/>
     </g>
    </g>
   </g>
   <g id="matplotlib.axis_4">
    <g id="ytick_4">
     <g id="line2d_18">
      <g>
       <use xlink:href="#mcad622fa48" x="123.193544" y="50.671991" style="stroke: #000000; stroke-width: 0.8"/>
      </g>
     </g>
     <g id="text_11">
      <!-- 0.25 -->
      <g transform="translate(96.635888 54.489335)scale(0.11 -0.11)">
       <defs>
        <path id="CMUSerif-Roman-35" d="M 320 1030 
Q 320 1222 422 1296 
Q 525 1370 634 1370 
Q 781 1370 867 1277 
Q 954 1184 954 1056 
Q 954 928 867 835 
Q 781 742 634 742 
Q 563 742 525 755 
Q 608 461 867 249 
Q 1126 38 1466 38 
Q 1894 38 2150 454 
Q 2304 723 2304 1331 
Q 2304 1869 2189 2138 
Q 2010 2547 1645 2547 
Q 1126 2547 819 2099 
Q 781 2042 736 2042 
Q 672 2042 659 2077 
Q 646 2112 646 2208 
L 646 4102 
Q 646 4256 710 4256 
Q 736 4256 787 4237 
Q 1190 4058 1638 4058 
Q 2099 4058 2509 4243 
Q 2541 4262 2560 4262 
Q 2624 4262 2624 4192 
Q 2624 4166 2573 4092 
Q 2522 4019 2413 3923 
Q 2304 3827 2163 3737 
Q 2022 3648 1817 3587 
Q 1613 3526 1389 3526 
Q 1120 3526 845 3610 
L 845 2362 
Q 1178 2688 1658 2688 
Q 2170 2688 2522 2275 
Q 2874 1862 2874 1286 
Q 2874 685 2458 272 
Q 2042 -141 1478 -141 
Q 966 -141 643 224 
Q 320 589 320 1030 
z
" transform="scale(0.015625)"/>
       </defs>
       <use xlink:href="#CMUSerif-Roman-30"/>
       <use xlink:href="#CMUSerif-Roman-2e" x="49.999985"/>
       <use xlink:href="#CMUSerif-Roman-32" x="77.799973"/>
       <use xlink:href="#CMUSerif-Roman-35" x="127.799957"/>
      </g>
     </g>
    </g>
    <g id="ytick_5">
     <g id="line2d_19">
      <g>
       <use xlink:href="#mcad622fa48" x="123.193544" y="29.42429" style="stroke: #000000; stroke-width: 0.8"/>
      </g>
     </g>
     <g id="text_12">
      <!-- 0.50 -->
      <g transform="translate(96.635888 33.241634)scale(0.11 -0.11)">
       <use xlink:href="#CMUSerif-Roman-30"/>
       <use xlink:href="#CMUSerif-Roman-2e" x="49.999985"/>
       <use xlink:href="#CMUSerif-Roman-35" x="77.799973"/>
       <use xlink:href="#CMUSerif-Roman-30" x="127.799957"/>
      </g>
     </g>
    </g>
   </g>
   <g id="line2d_20">
    <path d="M 125.662488 54.921531 
L 126.033014 54.690688 
L 126.403541 54.729315 
L 126.872875 55.037201 
L 127.564525 55.801432 
L 129.071334 57.903835 
L 130.849862 60.228995 
L 132.233162 61.675375 
L 133.59176 62.780667 
L 135.024464 63.657708 
L 136.580676 64.346349 
L 138.359205 64.886158 
L 140.50826 65.299632 
L 143.324263 65.601586 
L 147.400058 65.79546 
L 154.835295 65.890731 
L 175.041354 65.908997 
L 175.041354 65.908997 
" clip-path="url(#p3e985da30d)" style="fill: none; stroke: #00d4ff; stroke-opacity: 0.8; stroke-width: 1.5; stroke-linecap: square"/>
   </g>
   <g id="line2d_21">
    <path d="M 125.662488 54.921531 
L 126.082418 53.986447 
L 126.452945 53.621648 
L 126.823471 53.556249 
L 127.243402 53.731762 
L 127.811543 54.238446 
L 128.774912 55.447381 
L 131.590916 59.100494 
L 132.974216 60.474873 
L 134.357516 61.540551 
L 135.814921 62.381308 
L 137.420537 63.046288 
L 139.273171 63.566223 
L 141.545735 63.962414 
L 144.534651 64.243865 
L 149.005674 64.419945 
L 157.725404 64.498926 
L 175.041354 64.509483 
L 175.041354 64.509483 
" clip-path="url(#p3e985da30d)" style="fill: none; stroke: #0cf4eb; stroke-opacity: 0.8; stroke-width: 1.5; stroke-linecap: square"/>
   </g>
   <g id="line2d_22">
    <path d="M 125.662488 54.921531 
L 126.131821 53.037338 
L 126.551752 52.15271 
L 126.94698 51.791006 
L 127.317507 51.740938 
L 127.737437 51.917946 
L 128.33028 52.438529 
L 129.318352 53.653408 
L 132.134355 57.222692 
L 133.567059 58.618049 
L 134.97506 59.680592 
L 136.457167 60.519346 
L 138.087485 61.182922 
L 139.964821 61.702 
L 142.262087 62.098026 
L 145.300406 62.381816 
L 149.820833 62.55905 
L 158.589966 62.639082 
L 175.041354 62.650015 
L 175.041354 62.650015 
" clip-path="url(#p3e985da30d)" style="fill: none; stroke: #29ffce; stroke-opacity: 0.8; stroke-width: 1.5; stroke-linecap: square"/>
   </g>
   <g id="line2d_23">
    <path d="M 125.662488 54.921531 
L 126.156523 51.945398 
L 126.625857 50.350295 
L 127.045787 49.612413 
L 127.441016 49.328186 
L 127.836245 49.322324 
L 128.305578 49.56227 
L 128.972527 50.18712 
L 130.182914 51.689011 
L 132.48018 54.517232 
L 133.962287 55.970375 
L 135.394991 57.068457 
L 136.901799 57.942655 
L 138.532117 58.630922 
L 140.409453 59.177647 
L 142.682017 59.598571 
L 145.621529 59.903742 
L 149.870236 60.10158 
L 157.527789 60.199831 
L 175.041354 60.219422 
L 175.041354 60.219422 
" clip-path="url(#p3e985da30d)" style="fill: none; stroke: #43ffb4; stroke-opacity: 0.8; stroke-width: 1.5; stroke-linecap: square"/>
   </g>
   <g id="line2d_24">
    <path d="M 125.662488 54.921531 
L 126.181225 50.694111 
L 126.675261 48.305735 
L 127.144595 47.038796 
L 127.564525 46.471942 
L 127.959753 46.279279 
L 128.379684 46.328653 
L 128.898421 46.633365 
L 129.664177 47.37236 
L 131.343898 49.399734 
L 133.245935 51.549855 
L 134.777446 52.94537 
L 136.284255 54.018735 
L 137.865169 54.870622 
L 139.594294 55.547512 
L 141.595138 56.085217 
L 144.015913 56.496071 
L 147.177742 56.793263 
L 151.796975 56.983199 
L 160.343793 57.074186 
L 175.041354 57.089659 
L 175.041354 57.089659 
" clip-path="url(#p3e985da30d)" style="fill: none; stroke: #60ff97; stroke-opacity: 0.8; stroke-width: 1.5; stroke-linecap: square"/>
   </g>
   <g id="line2d_25">
    <path d="M 125.662488 54.921531 
L 126.205927 49.319475 
L 126.724664 46.034309 
L 127.2187 44.185636 
L 127.688034 43.218157 
L 128.107964 42.802623 
L 128.527895 42.684146 
L 128.997228 42.795428 
L 129.614773 43.195243 
L 130.578143 44.122986 
L 134.629235 48.287859 
L 136.234851 49.498885 
L 137.865169 50.451572 
L 139.618996 51.21731 
L 141.595138 51.831388 
L 143.917106 52.311356 
L 146.807215 52.670899 
L 150.734799 52.920012 
L 156.934946 53.065451 
L 171.113771 53.118644 
L 175.041354 53.120312 
L 175.041354 53.120312 
" clip-path="url(#p3e985da30d)" style="fill: none; stroke: #7dff7a; stroke-opacity: 0.8; stroke-width: 1.5; stroke-linecap: square"/>
   </g>
   <g id="line2d_26">
    <path d="M 125.662488 54.921531 
L 126.230629 47.86974 
L 126.774068 43.608231 
L 127.292805 41.107716 
L 127.786841 39.700333 
L 128.256175 38.967048 
L 128.700807 38.647725 
L 129.170141 38.584344 
L 129.71358 38.746519 
L 130.479335 39.233744 
L 131.813232 40.399162 
L 134.802148 43.034697 
L 136.605378 44.300664 
L 138.408608 45.29562 
L 140.335347 46.100484 
L 142.459701 46.742457 
L 144.929879 47.250473 
L 147.968199 47.638385 
L 151.99459 47.913864 
L 158.046527 48.083533 
L 170.175103 48.157208 
L 175.041354 48.162369 
L 175.041354 48.162369 
" clip-path="url(#p3e985da30d)" style="fill: none; stroke: #97ff60; stroke-opacity: 0.8; stroke-width: 1.5; stroke-linecap: square"/>
   </g>
   <g id="line2d_27">
    <path d="M 125.662488 54.921531 
L 126.25533 46.397863 
L 126.823471 41.112471 
L 127.366911 37.908145 
L 127.91035 35.942509 
L 128.429087 34.848932 
L 128.923123 34.287868 
L 129.417159 34.044656 
L 129.960598 34.022579 
L 130.652248 34.228086 
L 131.689723 34.795503 
L 137.988678 38.648077 
L 140.187137 39.551225 
L 142.558508 40.280835 
L 145.226301 40.864121 
L 148.388129 41.320766 
L 152.365116 41.660573 
L 157.873614 41.892012 
L 166.889766 42.020868 
L 175.041354 42.050748 
L 175.041354 42.050748 
" clip-path="url(#p3e985da30d)" style="fill: none; stroke: #b4ff43; stroke-opacity: 0.8; stroke-width: 1.5; stroke-linecap: square"/>
   </g>
   <g id="line2d_28">
    <path d="M 125.662488 54.921531 
L 126.280032 44.9532 
L 126.872875 38.632065 
L 127.465718 34.561108 
L 128.033859 32.106071 
L 128.577298 30.649608 
L 129.120737 29.777195 
L 129.664177 29.294092 
L 130.257019 29.057108 
L 130.973371 29.021483 
L 131.961443 29.218838 
L 133.690567 29.832475 
L 138.309801 31.517158 
L 141.372822 32.362502 
L 144.682861 33.040498 
L 148.437533 33.57728 
L 152.957959 33.99118 
L 158.812282 34.291326 
L 167.284994 34.483643 
L 175.041354 34.550387 
L 175.041354 34.550387 
" clip-path="url(#p3e985da30d)" style="fill: none; stroke: #ceff29; stroke-opacity: 0.8; stroke-width: 1.5; stroke-linecap: square"/>
   </g>
   <g id="line2d_29">
    <path d="M 125.662488 54.921531 
L 126.304734 43.575005 
L 126.922279 36.240515 
L 127.539823 31.415276 
L 128.132666 28.413165 
L 128.725509 26.483757 
L 129.318352 25.263663 
L 129.935896 24.48176 
L 130.602844 23.991117 
L 131.393302 23.694232 
L 132.430776 23.55669 
L 134.085796 23.588225 
L 139.248469 24.021917 
L 146.584899 24.509813 
L 155.403436 24.861863 
L 167.334398 25.10074 
L 175.041354 25.17717 
L 175.041354 25.17717 
" clip-path="url(#p3e985da30d)" style="fill: none; stroke: #ebff0c; stroke-opacity: 0.8; stroke-width: 1.5; stroke-linecap: square"/>
   </g>
   <g id="patch_6">
    <path d="M 123.193544 68.027156 
L 123.193544 21.427656 
" style="fill: none; stroke: #000000; stroke-width: 0.8; stroke-linejoin: miter; stroke-linecap: square"/>
   </g>
   <g id="patch_7">
    <path d="M 123.193544 68.027156 
L 177.510298 68.027156 
" style="fill: none; stroke: #000000; stroke-width: 0.8; stroke-linejoin: miter; stroke-linecap: square"/>
   </g>
   <g id="text_13">
    <!-- dv/dt -->
    <g transform="translate(136.464421 15.427656)scale(0.11 -0.11)">
     <defs>
      <path id="CMUSerif-Roman-76" d="M 122 2560 
L 122 2758 
Q 410 2739 742 2739 
Q 864 2739 1440 2758 
L 1440 2560 
Q 1075 2560 1075 2394 
Q 1075 2368 1114 2285 
L 1830 499 
L 2483 2131 
Q 2522 2240 2522 2285 
Q 2522 2394 2448 2474 
Q 2374 2554 2214 2560 
L 2214 2758 
Q 2541 2739 2771 2739 
Q 3034 2739 3251 2758 
L 3251 2560 
Q 3059 2560 2924 2473 
Q 2790 2387 2748 2313 
Q 2707 2240 2662 2131 
L 1824 51 
Q 1773 -70 1690 -70 
Q 1632 -70 1609 -48 
Q 1587 -26 1555 51 
L 634 2323 
Q 570 2483 490 2521 
Q 410 2560 122 2560 
z
" transform="scale(0.015625)"/>
     </defs>
     <use xlink:href="#CMUSerif-Roman-64"/>
     <use xlink:href="#CMUSerif-Roman-76" x="55.499985"/>
     <use xlink:href="#CMUSerif-Roman-2f" x="108.199982"/>
     <use xlink:href="#CMUSerif-Roman-64" x="158.199966"/>
     <use xlink:href="#CMUSerif-Roman-74" x="213.699951"/>
    </g>
   </g>
  </g>
  <g id="axes_3">
   <g id="patch_8">
    <path d="M 218.129432 68.027156 
L 272.446186 68.027156 
L 272.446186 21.427656 
L 218.129432 21.427656 
z
" style="fill: #ffffff"/>
   </g>
   <g id="matplotlib.axis_5">
    <g id="xtick_5">
     <g id="line2d_30">
      <g>
       <use xlink:href="#m71648bcbd9" x="220.598375" y="68.027156" style="stroke: #000000; stroke-width: 0.8"/>
      </g>
     </g>
     <g id="text_14">
      <!-- 0 -->
      <g transform="translate(217.848375 82.661844)scale(0.11 -0.11)">
       <use xlink:href="#CMUSerif-Roman-30"/>
      </g>
     </g>
    </g>
    <g id="xtick_6">
     <g id="line2d_31">
      <g>
       <use xlink:href="#m71648bcbd9" x="270.001944" y="68.027156" style="stroke: #000000; stroke-width: 0.8"/>
      </g>
     </g>
     <g id="text_15">
      <!-- 2000 -->
      <g transform="translate(259.001944 82.661844)scale(0.11 -0.11)">
       <use xlink:href="#CMUSerif-Roman-32"/>
       <use xlink:href="#CMUSerif-Roman-30" x="49.999985"/>
       <use xlink:href="#CMUSerif-Roman-30" x="99.999969"/>
       <use xlink:href="#CMUSerif-Roman-30" x="149.999954"/>
      </g>
     </g>
    </g>
    <g id="text_16">
     <!-- t -->
     <g transform="translate(243.153981 96.431219)scale(0.11 -0.11)">
      <use xlink:href="#CMUSerif-Roman-74"/>
     </g>
    </g>
   </g>
   <g id="matplotlib.axis_6">
    <g id="ytick_6">
     <g id="line2d_32">
      <g>
       <use xlink:href="#mcad622fa48" x="218.129432" y="52.876444" style="stroke: #000000; stroke-width: 0.8"/>
      </g>
     </g>
     <g id="text_17">
      <!-- 0.50 -->
      <g transform="translate(191.571776 56.693788)scale(0.11 -0.11)">
       <use xlink:href="#CMUSerif-Roman-30"/>
       <use xlink:href="#CMUSerif-Roman-2e" x="49.999985"/>
       <use xlink:href="#CMUSerif-Roman-35" x="77.799973"/>
       <use xlink:href="#CMUSerif-Roman-30" x="127.799957"/>
      </g>
     </g>
    </g>
    <g id="ytick_7">
     <g id="line2d_33">
      <g>
       <use xlink:href="#mcad622fa48" x="218.129432" y="32.425689" style="stroke: #000000; stroke-width: 0.8"/>
      </g>
     </g>
     <g id="text_18">
      <!-- 0.75 -->
      <g transform="translate(191.571776 36.243032)scale(0.11 -0.11)">
       <use xlink:href="#CMUSerif-Roman-30"/>
       <use xlink:href="#CMUSerif-Roman-2e" x="49.999985"/>
       <use xlink:href="#CMUSerif-Roman-37" x="77.799973"/>
       <use xlink:href="#CMUSerif-Roman-35" x="127.799957"/>
      </g>
     </g>
    </g>
   </g>
   <g id="line2d_34">
    <path d="M 220.598375 52.876444 
L 220.968902 52.764873 
L 221.413534 52.365675 
L 221.981675 51.510919 
L 222.747431 49.905188 
L 223.908415 46.877155 
L 227.687788 36.66246 
L 229.095789 33.651305 
L 230.404984 31.355921 
L 231.689477 29.542656 
L 232.973969 28.108387 
L 234.283164 26.97251 
L 235.691166 26.046732 
L 237.222676 25.309522 
L 238.951801 24.726977 
L 241.026751 24.2707 
L 243.64514 23.934068 
L 247.276303 23.707382 
L 253.303538 23.582661 
L 269.507908 23.545892 
L 269.977242 23.545815 
L 269.977242 23.545815 
" clip-path="url(#pc708728555)" style="fill: none; stroke: #00d4ff; stroke-opacity: 0.8; stroke-width: 1.5; stroke-linecap: square"/>
   </g>
   <g id="line2d_35">
    <path d="M 220.598375 52.876444 
L 220.993604 52.771528 
L 221.438236 52.416331 
L 222.006377 51.64467 
L 222.747431 50.216113 
L 223.809607 47.622945 
L 228.55235 35.409451 
L 229.910948 32.798926 
L 231.220143 30.752181 
L 232.504636 29.147518 
L 233.81383 27.863832 
L 235.172428 26.840591 
L 236.629834 26.020075 
L 238.260151 25.360502 
L 240.162189 24.838974 
L 242.484156 24.443415 
L 245.547178 24.161711 
L 250.117008 23.986831 
L 259.059054 23.909548 
L 269.977242 23.90029 
L 269.977242 23.90029 
" clip-path="url(#pc708728555)" style="fill: none; stroke: #0cf4eb; stroke-opacity: 0.8; stroke-width: 1.5; stroke-linecap: square"/>
   </g>
   <g id="line2d_36">
    <path d="M 220.598375 52.876444 
L 221.092411 52.766073 
L 221.586447 52.420853 
L 222.17929 51.707383 
L 222.920343 50.428254 
L 223.933116 48.188127 
L 225.909259 43.137089 
L 227.959507 38.143857 
L 229.441614 35.100118 
L 230.800212 32.798535 
L 232.109407 31.003111 
L 233.418602 29.575143 
L 234.7772 28.421363 
L 236.209903 27.498267 
L 237.766116 26.761614 
L 239.544644 26.171597 
L 241.644296 25.716123 
L 244.312088 25.376409 
L 247.992654 25.147839 
L 254.069293 25.021308 
L 269.977242 24.983172 
L 269.977242 24.983172 
" clip-path="url(#pc708728555)" style="fill: none; stroke: #29ffce; stroke-opacity: 0.8; stroke-width: 1.5; stroke-linecap: square"/>
   </g>
   <g id="line2d_37">
    <path d="M 220.598375 52.876444 
L 221.339429 52.766096 
L 221.90757 52.438974 
L 222.525115 51.805349 
L 223.266168 50.700884 
L 224.25424 48.79015 
L 225.933961 44.962226 
L 228.453543 39.312887 
L 229.985054 36.427634 
L 231.393055 34.236742 
L 232.751653 32.526582 
L 234.110252 31.168809 
L 235.518253 30.07565 
L 237.00036 29.204665 
L 238.630678 28.503888 
L 240.508014 27.943377 
L 242.755876 27.511276 
L 245.645985 27.193712 
L 249.746481 26.984786 
L 256.860595 26.876795 
L 269.977242 26.852224 
L 269.977242 26.852224 
" clip-path="url(#pc708728555)" style="fill: none; stroke: #43ffb4; stroke-opacity: 0.8; stroke-width: 1.5; stroke-linecap: square"/>
   </g>
   <g id="line2d_38">
    <path d="M 220.598375 52.876444 
L 222.17929 52.785109 
L 222.772133 52.408877 
L 223.463782 51.684333 
L 224.328345 50.419603 
L 225.538732 48.203779 
L 230.232071 39.209535 
L 231.714178 37.032902 
L 233.146882 35.317008 
L 234.554884 33.969581 
L 236.012289 32.878531 
L 237.568501 31.992936 
L 239.272924 31.282143 
L 241.224365 30.715196 
L 243.571035 30.274935 
L 246.559951 29.952918 
L 250.783956 29.739607 
L 258.021579 29.627854 
L 269.977242 29.601534 
L 269.977242 29.601534 
" clip-path="url(#pc708728555)" style="fill: none; stroke: #60ff97; stroke-opacity: 0.8; stroke-width: 1.5; stroke-linecap: square"/>
   </g>
   <g id="line2d_39">
    <path d="M 220.598375 52.876444 
L 221.067709 52.994919 
L 222.475711 53.478854 
L 223.068554 53.38939 
L 223.686099 53.063232 
L 224.40245 52.418766 
L 225.316416 51.272224 
L 226.650313 49.195265 
L 230.89902 42.346751 
L 232.504636 40.295701 
L 234.036146 38.696078 
L 235.567657 37.418177 
L 237.148571 36.389925 
L 238.828292 35.56257 
L 240.705628 34.889775 
L 242.879385 34.354866 
L 245.522476 33.944285 
L 248.956024 33.649241 
L 253.970486 33.461098 
L 263.283059 33.371539 
L 269.977242 33.360011 
L 269.977242 33.360011 
" clip-path="url(#pc708728555)" style="fill: none; stroke: #7dff7a; stroke-opacity: 0.8; stroke-width: 1.5; stroke-linecap: square"/>
   </g>
   <g id="line2d_40">
    <path d="M 220.598375 52.876444 
L 220.9442 52.992043 
L 221.512342 53.475708 
L 222.772133 54.574874 
L 223.414379 54.829404 
L 224.031924 54.834783 
L 224.67417 54.61216 
L 225.439925 54.093715 
L 226.403295 53.151821 
L 227.835998 51.402616 
L 232.084705 46.051898 
L 233.838532 44.283261 
L 235.518253 42.899544 
L 237.222676 41.781541 
L 239.025907 40.867328 
L 240.977348 40.129623 
L 243.200508 39.532496 
L 245.818897 39.066102 
L 249.104235 38.716005 
L 253.599959 38.474996 
L 260.81288 38.33657 
L 269.977242 38.296088 
L 269.977242 38.296088 
" clip-path="url(#pc708728555)" style="fill: none; stroke: #97ff60; stroke-opacity: 0.8; stroke-width: 1.5; stroke-linecap: square"/>
   </g>
   <g id="line2d_41">
    <path d="M 220.598375 52.876444 
L 220.894797 52.995807 
L 221.314727 53.455755 
L 222.302799 54.998319 
L 223.241466 56.262771 
L 223.957818 56.884975 
L 224.624766 57.18617 
L 225.291715 57.248735 
L 226.032768 57.087224 
L 226.922032 56.648909 
L 228.083016 55.809093 
L 230.034457 54.078588 
L 233.369198 51.14882 
L 235.444148 49.636489 
L 237.444992 48.450873 
L 239.49524 47.492555 
L 241.718401 46.701796 
L 244.18858 46.063077 
L 247.078688 45.552287 
L 250.611043 45.162358 
L 255.279681 44.883173 
L 262.270286 44.708812 
L 269.977242 44.647216 
L 269.977242 44.647216 
" clip-path="url(#pc708728555)" style="fill: none; stroke: #b4ff43; stroke-opacity: 0.8; stroke-width: 1.5; stroke-linecap: square"/>
   </g>
   <g id="line2d_42">
    <path d="M 220.598375 52.876444 
L 220.845393 52.981629 
L 221.191218 53.405431 
L 221.784061 54.555041 
L 223.686099 58.450369 
L 224.501257 59.551815 
L 225.267013 60.235299 
L 226.032768 60.628929 
L 226.847927 60.794131 
L 227.761893 60.746364 
L 228.898175 60.452548 
L 230.503791 59.785672 
L 238.556573 56.130026 
L 241.397278 55.242083 
L 244.460299 54.522683 
L 247.918549 53.944459 
L 252.043747 53.488671 
L 257.255823 53.148417 
L 264.468744 52.91725 
L 269.977242 52.835214 
L 269.977242 52.835214 
" clip-path="url(#pc708728555)" style="fill: none; stroke: #ceff29; stroke-opacity: 0.8; stroke-width: 1.5; stroke-linecap: square"/>
   </g>
   <g id="line2d_43">
    <path d="M 220.598375 52.876444 
L 220.845393 52.999404 
L 221.166517 53.455952 
L 221.685254 54.638322 
L 224.575363 61.92619 
L 225.464627 63.310513 
L 226.353891 64.29872 
L 227.267857 64.990283 
L 228.255929 65.463846 
L 229.416912 65.76711 
L 230.849616 65.902184 
L 232.875162 65.85178 
L 236.728641 65.487661 
L 245.02844 64.715036 
L 252.389572 64.27898 
L 261.702145 63.962281 
L 269.977242 63.810242 
L 269.977242 63.810242 
" clip-path="url(#pc708728555)" style="fill: none; stroke: #ebff0c; stroke-opacity: 0.8; stroke-width: 1.5; stroke-linecap: square"/>
   </g>
   <g id="patch_9">
    <path d="M 218.129432 68.027156 
L 218.129432 21.427656 
" style="fill: none; stroke: #000000; stroke-width: 0.8; stroke-linejoin: miter; stroke-linecap: square"/>
   </g>
   <g id="patch_10">
    <path d="M 218.129432 68.027156 
L 272.446186 68.027156 
" style="fill: none; stroke: #000000; stroke-width: 0.8; stroke-linejoin: miter; stroke-linecap: square"/>
   </g>
   <g id="text_19">
    <!-- dy/dt -->
    <g transform="translate(231.400309 15.427656)scale(0.11 -0.11)">
     <defs>
      <path id="CMUSerif-Roman-79" d="M 122 -794 
Q 122 -659 202 -588 
Q 282 -518 390 -518 
Q 506 -518 582 -592 
Q 659 -666 659 -787 
Q 659 -1024 410 -1056 
Q 531 -1171 710 -1171 
Q 902 -1171 1056 -1030 
Q 1210 -890 1277 -755 
Q 1344 -621 1440 -378 
Q 1530 -186 1600 0 
L 640 2336 
Q 576 2490 480 2525 
Q 384 2560 122 2560 
L 122 2758 
Q 410 2739 742 2739 
Q 941 2739 1440 2758 
L 1440 2560 
Q 1082 2560 1082 2394 
Q 1082 2374 1120 2278 
L 1830 557 
L 2477 2131 
Q 2515 2221 2515 2285 
Q 2515 2547 2214 2560 
L 2214 2758 
Q 2637 2739 2771 2739 
Q 3034 2739 3251 2758 
L 3251 2560 
Q 2822 2560 2656 2150 
L 1530 -582 
Q 1222 -1312 710 -1312 
Q 467 -1312 294 -1161 
Q 122 -1011 122 -794 
z
" transform="scale(0.015625)"/>
     </defs>
     <use xlink:href="#CMUSerif-Roman-64"/>
     <use xlink:href="#CMUSerif-Roman-79" x="55.499985"/>
     <use xlink:href="#CMUSerif-Roman-2f" x="108.199982"/>
     <use xlink:href="#CMUSerif-Roman-64" x="158.199966"/>
     <use xlink:href="#CMUSerif-Roman-74" x="213.699951"/>
    </g>
   </g>
   <g id="legend_1">
    <g id="text_20">
     <!-- Input I -->
     <g transform="translate(303.204562 21.012469)scale(0.11 -0.11)">
      <defs>
       <path id="CMUSerif-Roman-49" d="M 179 0 
L 179 198 
L 346 198 
Q 704 198 787 256 
Q 870 314 870 499 
L 870 3872 
Q 870 4058 787 4115 
Q 704 4173 346 4173 
L 179 4173 
L 179 4371 
Q 403 4352 1158 4352 
Q 1907 4352 2131 4371 
L 2131 4173 
L 1965 4173 
Q 1606 4173 1523 4115 
Q 1440 4058 1440 3872 
L 1440 499 
Q 1440 314 1523 256 
Q 1606 198 1965 198 
L 2131 198 
L 2131 0 
Q 1907 19 1152 19 
Q 403 19 179 0 
z
" transform="scale(0.015625)"/>
       <path id="CMUSerif-Roman-6e" d="M 205 0 
L 205 198 
Q 544 198 624 240 
Q 704 282 704 486 
L 704 2202 
Q 704 2438 621 2499 
Q 538 2560 205 2560 
L 205 2758 
L 1107 2829 
L 1107 2157 
Q 1408 2829 2054 2829 
Q 2534 2829 2726 2592 
Q 2867 2432 2896 2253 
Q 2925 2074 2925 1613 
L 2925 390 
Q 2931 256 3033 227 
Q 3136 198 3424 198 
L 3424 0 
Q 2771 19 2707 19 
Q 2656 19 1984 0 
L 1984 198 
Q 2323 198 2403 240 
Q 2483 282 2483 486 
L 2483 1978 
Q 2483 2304 2384 2496 
Q 2285 2688 2010 2688 
Q 1677 2688 1411 2409 
Q 1146 2131 1146 1664 
L 1146 486 
Q 1146 282 1226 240 
Q 1306 198 1645 198 
L 1645 0 
Q 992 19 928 19 
Q 877 19 205 0 
z
" transform="scale(0.015625)"/>
       <path id="CMUSerif-Roman-70" d="M 179 -1043 
Q 518 -1043 598 -1001 
Q 678 -960 678 -755 
L 678 2240 
Q 678 2451 598 2505 
Q 518 2560 179 2560 
L 179 2758 
L 1101 2829 
L 1101 2406 
Q 1485 2829 1997 2829 
Q 2541 2829 2937 2406 
Q 3334 1984 3334 1382 
Q 3334 774 2912 352 
Q 2490 -70 1907 -70 
Q 1587 -70 1372 93 
Q 1158 256 1120 378 
L 1120 320 
L 1120 -755 
Q 1120 -960 1200 -1001 
Q 1280 -1043 1619 -1043 
L 1619 -1242 
Q 947 -1222 896 -1222 
Q 832 -1222 179 -1242 
L 179 -1043 
z
M 1120 730 
Q 1120 634 1133 598 
Q 1146 563 1210 461 
Q 1466 70 1882 70 
Q 2246 70 2524 444 
Q 2803 819 2803 1382 
Q 2803 1920 2550 2294 
Q 2298 2669 1946 2669 
Q 1696 2669 1478 2534 
Q 1261 2400 1120 2157 
L 1120 730 
z
" transform="scale(0.015625)"/>
       <path id="CMUSerif-Roman-20" transform="scale(0.015625)"/>
      </defs>
      <use xlink:href="#CMUSerif-Roman-49"/>
      <use xlink:href="#CMUSerif-Roman-6e" x="36.099991"/>
      <use xlink:href="#CMUSerif-Roman-70" x="91.599976"/>
      <use xlink:href="#CMUSerif-Roman-75" x="147.09996"/>
      <use xlink:href="#CMUSerif-Roman-74" x="202.599945"/>
      <use xlink:href="#CMUSerif-Roman-20" x="241.399933"/>
      <use xlink:href="#CMUSerif-Roman-49" x="274.699921"/>
     </g>
    </g>
    <g id="line2d_44">
     <path d="M 311.141594 26.547156 
L 315.141594 26.547156 
L 319.141594 26.547156 
" style="fill: none; stroke: #00d4ff; stroke-opacity: 0.8; stroke-width: 1.5; stroke-linecap: square"/>
    </g>
    <g id="text_21">
     <!-- 0.5 -->
     <g transform="translate(322.341594 27.947156)scale(0.04 -0.04)">
      <use xlink:href="#CMUSerif-Roman-30"/>
      <use xlink:href="#CMUSerif-Roman-2e" x="49.999985"/>
      <use xlink:href="#CMUSerif-Roman-35" x="77.799973"/>
     </g>
    </g>
    <g id="line2d_45">
     <path d="M 311.141594 32.123406 
L 315.141594 32.123406 
L 319.141594 32.123406 
" style="fill: none; stroke: #0cf4eb; stroke-opacity: 0.8; stroke-width: 1.5; stroke-linecap: square"/>
    </g>
    <g id="text_22">
     <!-- 0.55 -->
     <g transform="translate(322.341594 33.523406)scale(0.04 -0.04)">
      <use xlink:href="#CMUSerif-Roman-30"/>
      <use xlink:href="#CMUSerif-Roman-2e" x="49.999985"/>
      <use xlink:href="#CMUSerif-Roman-35" x="77.799973"/>
      <use xlink:href="#CMUSerif-Roman-35" x="127.799957"/>
     </g>
    </g>
    <g id="line2d_46">
     <path d="M 311.141594 37.699656 
L 315.141594 37.699656 
L 319.141594 37.699656 
" style="fill: none; stroke: #29ffce; stroke-opacity: 0.8; stroke-width: 1.5; stroke-linecap: square"/>
    </g>
    <g id="text_23">
     <!-- 0.6 -->
     <g transform="translate(322.341594 39.099656)scale(0.04 -0.04)">
      <defs>
       <path id="CMUSerif-Roman-36" d="M 269 2022 
Q 269 3027 781 3644 
Q 1293 4262 1952 4262 
Q 2336 4262 2550 4067 
Q 2765 3872 2765 3571 
Q 2765 3405 2669 3334 
Q 2573 3264 2470 3264 
Q 2355 3264 2265 3341 
Q 2176 3418 2176 3558 
Q 2176 3846 2528 3846 
Q 2362 4102 1965 4102 
Q 1843 4102 1718 4067 
Q 1594 4032 1430 3913 
Q 1267 3795 1142 3606 
Q 1018 3418 931 3066 
Q 845 2714 845 2253 
L 845 2099 
Q 1107 2733 1644 2733 
Q 2182 2733 2553 2323 
Q 2925 1914 2925 1306 
Q 2925 685 2537 272 
Q 2150 -141 1606 -141 
Q 1363 -141 1142 -38 
Q 922 64 717 294 
Q 512 525 390 969 
Q 269 1414 269 2022 
z
M 858 1446 
Q 858 819 973 518 
Q 992 467 1033 400 
Q 1075 333 1148 243 
Q 1222 154 1344 96 
Q 1466 38 1606 38 
Q 2035 38 2240 454 
Q 2349 685 2349 1312 
Q 2349 1952 2234 2189 
Q 2035 2586 1638 2586 
Q 1370 2586 1184 2400 
Q 998 2214 928 1968 
Q 858 1722 858 1446 
z
" transform="scale(0.015625)"/>
      </defs>
      <use xlink:href="#CMUSerif-Roman-30"/>
      <use xlink:href="#CMUSerif-Roman-2e" x="49.999985"/>
      <use xlink:href="#CMUSerif-Roman-36" x="77.799973"/>
     </g>
    </g>
    <g id="line2d_47">
     <path d="M 311.141594 43.275906 
L 315.141594 43.275906 
L 319.141594 43.275906 
" style="fill: none; stroke: #43ffb4; stroke-opacity: 0.8; stroke-width: 1.5; stroke-linecap: square"/>
    </g>
    <g id="text_24">
     <!-- 0.65 -->
     <g transform="translate(322.341594 44.675906)scale(0.04 -0.04)">
      <use xlink:href="#CMUSerif-Roman-30"/>
      <use xlink:href="#CMUSerif-Roman-2e" x="49.999985"/>
      <use xlink:href="#CMUSerif-Roman-36" x="77.799973"/>
      <use xlink:href="#CMUSerif-Roman-35" x="127.799957"/>
     </g>
    </g>
    <g id="line2d_48">
     <path d="M 311.141594 48.852156 
L 315.141594 48.852156 
L 319.141594 48.852156 
" style="fill: none; stroke: #60ff97; stroke-opacity: 0.8; stroke-width: 1.5; stroke-linecap: square"/>
    </g>
    <g id="text_25">
     <!-- 0.7 -->
     <g transform="translate(322.341594 50.252156)scale(0.04 -0.04)">
      <use xlink:href="#CMUSerif-Roman-30"/>
      <use xlink:href="#CMUSerif-Roman-2e" x="49.999985"/>
      <use xlink:href="#CMUSerif-Roman-37" x="77.799973"/>
     </g>
    </g>
    <g id="line2d_49">
     <path d="M 311.141594 54.428406 
L 315.141594 54.428406 
L 319.141594 54.428406 
" style="fill: none; stroke: #7dff7a; stroke-opacity: 0.8; stroke-width: 1.5; stroke-linecap: square"/>
    </g>
    <g id="text_26">
     <!-- 0.75 -->
     <g transform="translate(322.341594 55.828406)scale(0.04 -0.04)">
      <use xlink:href="#CMUSerif-Roman-30"/>
      <use xlink:href="#CMUSerif-Roman-2e" x="49.999985"/>
      <use xlink:href="#CMUSerif-Roman-37" x="77.799973"/>
      <use xlink:href="#CMUSerif-Roman-35" x="127.799957"/>
     </g>
    </g>
    <g id="line2d_50">
     <path d="M 311.141594 60.004656 
L 315.141594 60.004656 
L 319.141594 60.004656 
" style="fill: none; stroke: #97ff60; stroke-opacity: 0.8; stroke-width: 1.5; stroke-linecap: square"/>
    </g>
    <g id="text_27">
     <!-- 0.8 -->
     <g transform="translate(322.341594 61.404656)scale(0.04 -0.04)">
      <use xlink:href="#CMUSerif-Roman-30"/>
      <use xlink:href="#CMUSerif-Roman-2e" x="49.999985"/>
      <use xlink:href="#CMUSerif-Roman-38" x="77.799973"/>
     </g>
    </g>
    <g id="line2d_51">
     <path d="M 311.141594 65.580906 
L 315.141594 65.580906 
L 319.141594 65.580906 
" style="fill: none; stroke: #b4ff43; stroke-opacity: 0.8; stroke-width: 1.5; stroke-linecap: square"/>
    </g>
    <g id="text_28">
     <!-- 0.85 -->
     <g transform="translate(322.341594 66.980906)scale(0.04 -0.04)">
      <use xlink:href="#CMUSerif-Roman-30"/>
      <use xlink:href="#CMUSerif-Roman-2e" x="49.999985"/>
      <use xlink:href="#CMUSerif-Roman-38" x="77.799973"/>
      <use xlink:href="#CMUSerif-Roman-35" x="127.799957"/>
     </g>
    </g>
    <g id="line2d_52">
     <path d="M 311.141594 71.157156 
L 315.141594 71.157156 
L 319.141594 71.157156 
" style="fill: none; stroke: #ceff29; stroke-opacity: 0.8; stroke-width: 1.5; stroke-linecap: square"/>
    </g>
    <g id="text_29">
     <!-- 0.9 -->
     <g transform="translate(322.341594 72.557156)scale(0.04 -0.04)">
      <use xlink:href="#CMUSerif-Roman-30"/>
      <use xlink:href="#CMUSerif-Roman-2e" x="49.999985"/>
      <use xlink:href="#CMUSerif-Roman-39" x="77.799973"/>
     </g>
    </g>
    <g id="line2d_53">
     <path d="M 311.141594 76.733406 
L 315.141594 76.733406 
L 319.141594 76.733406 
" style="fill: none; stroke: #ebff0c; stroke-opacity: 0.8; stroke-width: 1.5; stroke-linecap: square"/>
    </g>
    <g id="text_30">
     <!-- 0.95 -->
     <g transform="translate(322.341594 78.133406)scale(0.04 -0.04)">
      <use xlink:href="#CMUSerif-Roman-30"/>
      <use xlink:href="#CMUSerif-Roman-2e" x="49.999985"/>
      <use xlink:href="#CMUSerif-Roman-39" x="77.799973"/>
      <use xlink:href="#CMUSerif-Roman-35" x="127.799957"/>
     </g>
    </g>
   </g>
  </g>
 </g>
 <defs>
  <clipPath id="pb38c1d2eb2">
   <rect x="28.257656" y="21.427656" width="54.316754" height="46.5995"/>
  </clipPath>
  <clipPath id="p3e985da30d">
   <rect x="123.193544" y="21.427656" width="54.316754" height="46.5995"/>
  </clipPath>
  <clipPath id="pc708728555">
   <rect x="218.129432" y="21.427656" width="54.316754" height="46.5995"/>
  </clipPath>
 </defs>
</svg>
