<?xml version="1.0" encoding="utf-8" standalone="no"?>
<!DOCTYPE svg PUBLIC "-//W3C//DTD SVG 1.1//EN"
  "http://www.w3.org/Graphics/SVG/1.1/DTD/svg11.dtd">
<svg xmlns:xlink="http://www.w3.org/1999/xlink" width="312.276704pt" height="101.535578pt" viewBox="0 0 312.276704 101.535578" xmlns="http://www.w3.org/2000/svg" version="1.1">
 <metadata>
  <rdf:RDF xmlns:dc="http://purl.org/dc/elements/1.1/" xmlns:cc="http://creativecommons.org/ns#" xmlns:rdf="http://www.w3.org/1999/02/22-rdf-syntax-ns#">
   <cc:Work>
    <dc:type rdf:resource="http://purl.org/dc/dcmitype/StillImage"/>
    <dc:date>2022-08-09T11:36:47.302860</dc:date>
    <dc:format>image/svg+xml</dc:format>
    <dc:creator>
     <cc:Agent>
      <dc:title>Matplotlib v3.5.1, https://matplotlib.org/</dc:title>
     </cc:Agent>
    </dc:creator>
   </cc:Work>
  </rdf:RDF>
 </metadata>
 <defs>
  <style type="text/css">*{stroke-linejoin: round; stroke-linecap: butt}</style>
 </defs>
 <g id="figure_1">
  <g id="patch_1">
   <path d="M 0 101.535578 
L 312.276704 101.535578 
L 312.276704 0 
L 0 0 
L 0 101.535578 
z
" style="fill: none"/>
  </g>
  <g id="axes_1">
   <g id="patch_2">
    <path d="M 28.203076 62.635433 
L 78.423056 62.635433 
L 78.423056 21.419178 
L 28.203076 21.419178 
z
" style="fill: #ffffff"/>
   </g>
   <g id="matplotlib.axis_1">
    <g id="xtick_1">
     <g id="line2d_1">
      <defs>
       <path id="md09cb30a07" d="M 0 0 
L 0 3.5 
" style="stroke: #000000; stroke-width: 0.8"/>
      </defs>
      <g>
       <use xlink:href="#md09cb30a07" x="30.485803" y="62.635433" style="stroke: #000000; stroke-width: 0.8"/>
      </g>
     </g>
     <g id="text_1">
      <!-- $\mathdefault{0}$ -->
      <g transform="translate(27.746069 77.245779)scale(0.11 -0.11)">
       <defs>
        <path id="CMR17-30" d="M 2688 2025 
C 2688 2416 2682 3080 2413 3591 
C 2176 4039 1798 4198 1466 4198 
C 1158 4198 768 4058 525 3597 
C 269 3118 243 2524 243 2025 
C 243 1661 250 1106 448 619 
C 723 -39 1216 -128 1466 -128 
C 1760 -128 2208 -7 2470 600 
C 2662 1042 2688 1559 2688 2025 
z
M 1466 -26 
C 1056 -26 813 325 723 812 
C 653 1188 653 1738 653 2096 
C 653 2588 653 2997 736 3387 
C 858 3929 1216 4096 1466 4096 
C 1728 4096 2067 3923 2189 3400 
C 2272 3036 2278 2607 2278 2096 
C 2278 1680 2278 1169 2202 792 
C 2067 95 1690 -26 1466 -26 
z
" transform="scale(0.015625)"/>
       </defs>
       <use xlink:href="#CMR17-30" transform="scale(0.996264)"/>
      </g>
     </g>
    </g>
    <g id="xtick_2">
     <g id="line2d_2">
      <g>
       <use xlink:href="#md09cb30a07" x="76.163168" y="62.635433" style="stroke: #000000; stroke-width: 0.8"/>
      </g>
     </g>
     <g id="text_2">
      <!-- $\mathdefault{2000}$ -->
      <g transform="translate(65.204234 77.245779)scale(0.11 -0.11)">
       <defs>
        <path id="CMR17-32" d="M 2669 989 
L 2554 989 
C 2490 536 2438 459 2413 420 
C 2381 369 1920 369 1830 369 
L 602 369 
C 832 619 1280 1072 1824 1597 
C 2214 1967 2669 2402 2669 3035 
C 2669 3790 2067 4224 1395 4224 
C 691 4224 262 3604 262 3030 
C 262 2780 448 2748 525 2748 
C 589 2748 781 2787 781 3010 
C 781 3207 614 3264 525 3264 
C 486 3264 448 3258 422 3245 
C 544 3790 915 4058 1306 4058 
C 1862 4058 2227 3617 2227 3035 
C 2227 2479 1901 2000 1536 1584 
L 262 146 
L 262 0 
L 2515 0 
L 2669 989 
z
" transform="scale(0.015625)"/>
       </defs>
       <use xlink:href="#CMR17-32" transform="scale(0.996264)"/>
       <use xlink:href="#CMR17-30" transform="translate(45.690477 0)scale(0.996264)"/>
       <use xlink:href="#CMR17-30" transform="translate(91.380954 0)scale(0.996264)"/>
       <use xlink:href="#CMR17-30" transform="translate(137.071431 0)scale(0.996264)"/>
      </g>
     </g>
    </g>
    <g id="text_3">
     <!-- time [ms] -->
     <g transform="translate(31.060363 91.595852)scale(0.11 -0.11)">
      <defs>
       <path id="CMR17-74" d="M 966 2560 
L 1862 2560 
L 1862 2725 
L 966 2725 
L 966 3904 
L 851 3904 
C 838 3245 614 2668 70 2668 
L 70 2560 
L 627 2560 
L 627 771 
C 627 650 627 -64 1370 -64 
C 1747 -64 1965 306 1965 777 
L 1965 1140 
L 1850 1140 
L 1850 783 
C 1850 344 1677 51 1408 51 
C 1222 51 966 178 966 758 
L 966 2560 
z
" transform="scale(0.015625)"/>
       <path id="CMR17-69" d="M 992 3909 
C 992 4049 877 4170 730 4170 
C 589 4170 467 4056 467 3909 
C 467 3769 582 3648 730 3648 
C 870 3648 992 3763 992 3909 
z
M 243 2706 
L 243 2541 
C 602 2541 653 2502 653 2197 
L 653 427 
C 653 184 627 153 218 153 
L 218 -13 
C 371 0 646 0 806 0 
C 960 0 1222 0 1370 -13 
L 1370 153 
C 992 153 979 191 979 420 
L 979 2776 
L 243 2706 
z
" transform="scale(0.015625)"/>
       <path id="CMR17-6d" d="M 4326 1933 
C 4326 2252 4269 2790 3507 2790 
C 3072 2790 2771 2496 2656 2151 
L 2650 2151 
C 2573 2676 2195 2790 1837 2790 
C 1331 2790 1069 2400 973 2144 
L 966 2144 
L 966 2790 
L 211 2720 
L 211 2554 
C 589 2554 646 2515 646 2208 
L 646 428 
C 646 184 621 153 211 153 
L 211 -13 
C 365 0 646 0 813 0 
C 979 0 1267 0 1421 -13 
L 1421 153 
C 1011 153 986 178 986 428 
L 986 1658 
C 986 2247 1344 2688 1792 2688 
C 2266 2688 2317 2266 2317 1958 
L 2317 428 
C 2317 184 2291 153 1882 153 
L 1882 -13 
C 2035 0 2317 0 2483 0 
C 2650 0 2938 0 3091 -13 
L 3091 153 
C 2682 153 2656 178 2656 428 
L 2656 1658 
C 2656 2247 3014 2688 3462 2688 
C 3936 2688 3987 2266 3987 1958 
L 3987 428 
C 3987 184 3962 153 3552 153 
L 3552 -13 
C 3706 0 3987 0 4154 0 
C 4320 0 4608 0 4762 -13 
L 4762 153 
C 4352 153 4326 178 4326 428 
L 4326 1933 
z
" transform="scale(0.015625)"/>
       <path id="CMR17-65" d="M 2438 1472 
C 2464 1498 2464 1511 2464 1576 
C 2464 2238 2118 2816 1389 2816 
C 710 2816 173 2169 173 1383 
C 173 551 781 -64 1459 -64 
C 2176 -64 2458 607 2458 740 
C 2458 784 2419 784 2406 784 
C 2362 784 2355 771 2330 696 
C 2189 265 1837 51 1504 51 
C 1229 51 954 203 781 480 
C 582 803 582 1176 582 1472 
L 2438 1472 
z
M 589 1568 
C 634 2505 1126 2714 1382 2714 
C 1818 2714 2112 2297 2118 1568 
L 589 1568 
z
" transform="scale(0.015625)"/>
       <path id="CMR17-5b" d="M 1504 -1600 
L 1504 -1377 
L 902 -1377 
L 902 4544 
L 1504 4544 
L 1504 4767 
L 678 4767 
L 678 -1600 
L 1504 -1600 
z
" transform="scale(0.015625)"/>
       <path id="CMR17-73" d="M 1978 2697 
C 1978 2813 1971 2819 1933 2819 
C 1907 2819 1901 2813 1824 2717 
C 1805 2691 1747 2626 1728 2601 
C 1523 2819 1235 2819 1126 2819 
C 416 2819 160 2447 160 2076 
C 160 1498 813 1365 998 1325 
C 1402 1243 1542 1217 1677 1101 
C 1760 1025 1901 884 1901 654 
C 1901 384 1747 38 1158 38 
C 602 38 403 460 288 1021 
C 269 1110 269 1117 218 1117 
C 166 1117 160 1110 160 983 
L 160 63 
C 160 -51 166 -58 205 -58 
C 237 -58 243 -51 275 0 
C 314 57 410 211 448 276 
C 576 103 800 -64 1158 -64 
C 1792 -64 2131 283 2131 784 
C 2131 1112 1958 1285 1875 1362 
C 1683 1561 1459 1606 1190 1657 
C 838 1735 390 1825 390 2217 
C 390 2383 480 2737 1126 2737 
C 1811 2737 1850 2094 1862 1888 
C 1869 1856 1901 1849 1920 1849 
C 1978 1849 1978 1869 1978 1978 
L 1978 2697 
z
" transform="scale(0.015625)"/>
       <path id="CMR17-5d" d="M 915 4767 
L 90 4767 
L 90 4544 
L 691 4544 
L 691 -1377 
L 90 -1377 
L 90 -1600 
L 915 -1600 
L 915 4767 
z
" transform="scale(0.015625)"/>
      </defs>
      <use xlink:href="#CMR17-74" transform="scale(0.996264)"/>
      <use xlink:href="#CMR17-69" transform="translate(35.280768 0)scale(0.996264)"/>
      <use xlink:href="#CMR17-6d" transform="translate(60.151826 0)scale(0.996264)"/>
      <use xlink:href="#CMR17-65" transform="translate(137.071416 0)scale(0.996264)"/>
      <use xlink:href="#CMR17-5b" transform="translate(207.633043 0)scale(0.996264)"/>
      <use xlink:href="#CMR17-6d" transform="translate(232.504101 0)scale(0.996264)"/>
      <use xlink:href="#CMR17-73" transform="translate(309.423691 0)scale(0.996264)"/>
      <use xlink:href="#CMR17-5d" transform="translate(345.225029 0)scale(0.996264)"/>
     </g>
    </g>
   </g>
   <g id="matplotlib.axis_2">
    <g id="ytick_1">
     <g id="line2d_3">
      <defs>
       <path id="md5965dc185" d="M 0 0 
L -3.5 0 
" style="stroke: #000000; stroke-width: 0.8"/>
      </defs>
      <g>
       <use xlink:href="#md5965dc185" x="28.203076" y="60.761967" style="stroke: #000000; stroke-width: 0.8"/>
      </g>
     </g>
     <g id="text_4">
      <!-- $\mathdefault{0.7}$ -->
      <g transform="translate(7.2 64.56714)scale(0.11 -0.11)">
       <defs>
        <path id="CMMI12-3a" d="M 1178 307 
C 1178 492 1024 619 870 619 
C 685 619 557 466 557 313 
C 557 128 710 0 864 0 
C 1050 0 1178 153 1178 307 
z
" transform="scale(0.015625)"/>
        <path id="CMR17-37" d="M 2886 3941 
L 2886 4081 
L 1382 4081 
C 634 4081 621 4165 595 4288 
L 480 4288 
L 294 3094 
L 410 3094 
C 429 3215 474 3540 550 3661 
C 589 3712 1062 3712 1171 3712 
L 2579 3712 
L 1869 2661 
C 1395 1954 1069 999 1069 165 
C 1069 89 1069 -128 1299 -128 
C 1530 -128 1530 89 1530 171 
L 1530 465 
C 1530 1508 1709 2196 2003 2636 
L 2886 3941 
z
" transform="scale(0.015625)"/>
       </defs>
       <use xlink:href="#CMR17-30" transform="scale(0.996264)"/>
       <use xlink:href="#CMMI12-3a" transform="translate(45.690477 0)scale(0.996264)"/>
       <use xlink:href="#CMR17-37" transform="translate(72.787654 0)scale(0.996264)"/>
      </g>
     </g>
    </g>
    <g id="ytick_2">
     <g id="line2d_4">
      <g>
       <use xlink:href="#md5965dc185" x="28.203076" y="46.339349" style="stroke: #000000; stroke-width: 0.8"/>
      </g>
     </g>
     <g id="text_5">
      <!-- $\mathdefault{0.8}$ -->
      <g transform="translate(7.2 50.144522)scale(0.11 -0.11)">
       <defs>
        <path id="CMR17-38" d="M 1741 2264 
C 2144 2467 2554 2773 2554 3263 
C 2554 3841 1990 4179 1472 4179 
C 890 4179 378 3759 378 3180 
C 378 3021 416 2747 666 2505 
C 730 2442 998 2251 1171 2130 
C 883 1983 211 1634 211 934 
C 211 279 838 -128 1459 -128 
C 2144 -128 2720 362 2720 1010 
C 2720 1590 2330 1857 2074 2029 
L 1741 2264 
z
M 902 2822 
C 851 2854 595 3051 595 3351 
C 595 3739 998 4032 1459 4032 
C 1965 4032 2336 3676 2336 3262 
C 2336 2669 1670 2331 1638 2331 
C 1632 2331 1626 2331 1574 2370 
L 902 2822 
z
M 2080 1519 
C 2176 1449 2483 1240 2483 851 
C 2483 381 2010 25 1472 25 
C 890 25 448 438 448 940 
C 448 1443 838 1862 1280 2060 
L 2080 1519 
z
" transform="scale(0.015625)"/>
       </defs>
       <use xlink:href="#CMR17-30" transform="scale(0.996264)"/>
       <use xlink:href="#CMMI12-3a" transform="translate(45.690477 0)scale(0.996264)"/>
       <use xlink:href="#CMR17-38" transform="translate(72.787654 0)scale(0.996264)"/>
      </g>
     </g>
    </g>
    <g id="ytick_3">
     <g id="line2d_5">
      <g>
       <use xlink:href="#md5965dc185" x="28.203076" y="31.916731" style="stroke: #000000; stroke-width: 0.8"/>
      </g>
     </g>
     <g id="text_6">
      <!-- $\mathdefault{0.9}$ -->
      <g transform="translate(7.2 35.721904)scale(0.11 -0.11)">
       <defs>
        <path id="CMR17-39" d="M 2253 1864 
C 2253 464 1670 31 1190 31 
C 1043 31 685 31 538 294 
C 704 268 826 357 826 518 
C 826 692 685 749 595 749 
C 538 749 365 723 365 506 
C 365 71 742 -128 1203 -128 
C 1939 -128 2688 674 2688 2073 
C 2688 3817 1971 4179 1485 4179 
C 851 4179 243 3628 243 2778 
C 243 1991 762 1408 1414 1408 
C 1952 1408 2189 1903 2253 2112 
L 2253 1864 
z
M 1427 1510 
C 1254 1510 1011 1542 813 1922 
C 678 2169 678 2461 678 2771 
C 678 3146 678 3405 858 3684 
C 947 3817 1114 4032 1485 4032 
C 2240 4032 2240 2885 2240 2632 
C 2240 2182 2035 1510 1427 1510 
z
" transform="scale(0.015625)"/>
       </defs>
       <use xlink:href="#CMR17-30" transform="scale(0.996264)"/>
       <use xlink:href="#CMMI12-3a" transform="translate(45.690477 0)scale(0.996264)"/>
       <use xlink:href="#CMR17-39" transform="translate(72.787654 0)scale(0.996264)"/>
      </g>
     </g>
    </g>
   </g>
   <g id="line2d_6">
    <path d="M 30.485803 60.761967 
L 31.21664 54.580421 
L 32.038833 49.483896 
L 32.95238 45.173498 
L 33.957282 41.471884 
L 35.007862 38.422134 
L 36.08128 35.968165 
L 37.154698 34.046095 
L 38.250955 32.522109 
L 39.392889 31.307885 
L 40.603339 30.343236 
L 41.927983 29.574158 
L 43.435336 28.963036 
L 45.216753 28.489288 
L 47.454944 28.134921 
L 50.515327 27.890261 
L 55.402805 27.747644 
L 66.799308 27.696437 
L 76.140329 27.694035 
L 76.140329 27.694035 
" clip-path="url(#pda938935f7)" style="fill: none; stroke: #00d4ff; stroke-opacity: 0.8; stroke-width: 1.5; stroke-linecap: square"/>
   </g>
   <g id="line2d_7">
    <path d="M 30.485803 60.761967 
L 31.170963 53.840545 
L 31.92464 48.428407 
L 32.746832 44.075278 
L 33.660379 40.389906 
L 34.642443 37.311322 
L 35.670184 34.787464 
L 36.743602 32.729485 
L 37.839858 31.103364 
L 38.958954 29.831511 
L 40.146565 28.813899 
L 41.425532 28.007944 
L 42.864369 27.364706 
L 44.554431 26.857948 
L 46.65559 26.470851 
L 49.441909 26.197144 
L 53.667066 26.027032 
L 62.140217 25.952707 
L 76.140329 25.94402 
L 76.140329 25.94402 
" clip-path="url(#pda938935f7)" style="fill: none; stroke: #0cf4eb; stroke-opacity: 0.8; stroke-width: 1.5; stroke-linecap: square"/>
   </g>
   <g id="line2d_8">
    <path d="M 30.485803 60.761967 
L 31.148124 53.19841 
L 31.856124 47.549163 
L 32.632639 43.092576 
L 33.500509 39.39684 
L 34.436895 36.354263 
L 35.441797 33.81923 
L 36.492376 31.753926 
L 37.588633 30.083323 
L 38.707728 28.773497 
L 39.89534 27.721258 
L 41.174306 26.88374 
L 42.613143 26.211516 
L 44.280367 25.684234 
L 46.335848 25.278243 
L 49.030813 24.986692 
L 53.004744 24.800686 
L 60.472993 24.712263 
L 76.140329 24.69763 
L 76.140329 24.69763 
" clip-path="url(#pda938935f7)" style="fill: none; stroke: #29ffce; stroke-opacity: 0.8; stroke-width: 1.5; stroke-linecap: square"/>
   </g>
   <g id="line2d_9">
    <path d="M 30.485803 60.761967 
L 31.148124 52.531958 
L 31.833285 46.675244 
L 32.564123 42.261828 
L 33.363477 38.736171 
L 34.254185 35.778839 
L 35.236249 33.272788 
L 36.286828 31.19156 
L 37.383085 29.504427 
L 38.525019 28.148674 
L 39.735469 27.056588 
L 41.037274 26.184179 
L 42.476111 25.490357 
L 44.143335 24.939172 
L 46.175978 24.512152 
L 48.802426 24.201073 
L 52.570809 23.996901 
L 59.239704 23.891757 
L 76.140329 23.867978 
L 76.140329 23.867978 
" clip-path="url(#pda938935f7)" style="fill: none; stroke: #43ffb4; stroke-opacity: 0.8; stroke-width: 1.5; stroke-linecap: square"/>
   </g>
   <g id="line2d_10">
    <path d="M 30.485803 60.761967 
L 31.148124 52.000093 
L 31.810446 46.019986 
L 32.518445 41.580064 
L 33.272122 38.201694 
L 34.117153 35.400651 
L 35.053539 33.039773 
L 36.08128 31.029037 
L 37.200375 29.321729 
L 38.365148 27.942088 
L 39.598437 26.820333 
L 40.923081 25.914186 
L 42.384756 25.184748 
L 44.05198 24.604017 
L 46.061784 24.147422 
L 48.619717 23.806904 
L 52.182551 23.574918 
L 58.029254 23.445195 
L 73.057107 23.404079 
L 76.140329 23.40348 
L 76.140329 23.40348 
" clip-path="url(#pda938935f7)" style="fill: none; stroke: #60ff97; stroke-opacity: 0.8; stroke-width: 1.5; stroke-linecap: square"/>
   </g>
   <g id="line2d_11">
    <path d="M 30.485803 60.761967 
L 31.148124 51.573333 
L 31.810446 45.35035 
L 32.495607 40.960512 
L 33.226445 37.694115 
L 34.025798 35.117052 
L 34.939346 32.920308 
L 35.967086 31.025311 
L 37.109021 29.383348 
L 38.342309 27.998193 
L 39.644114 26.866113 
L 41.060113 25.931377 
L 42.613143 25.177046 
L 44.371722 24.574583 
L 46.472881 24.098545 
L 49.099329 23.742025 
L 52.685002 23.494143 
L 58.371834 23.348435 
L 71.367045 23.294684 
L 76.140329 23.292644 
L 76.140329 23.292644 
" clip-path="url(#pda938935f7)" style="fill: none; stroke: #7dff7a; stroke-opacity: 0.8; stroke-width: 1.5; stroke-linecap: square"/>
   </g>
   <g id="line2d_12">
    <path d="M 30.485803 60.761967 
L 31.148124 51.228539 
L 31.787607 44.970652 
L 32.449929 40.58225 
L 33.13509 37.478204 
L 33.888766 35.085344 
L 34.733798 33.145036 
L 35.715861 31.454319 
L 36.857795 29.935883 
L 38.1596 28.578584 
L 39.575598 27.422727 
L 41.10579 26.459407 
L 42.795853 25.662156 
L 44.691463 25.019326 
L 46.906815 24.509589 
L 49.647457 24.117887 
L 53.278808 23.838221 
L 58.714414 23.663859 
L 69.402918 23.585781 
L 76.140329 23.578115 
L 76.140329 23.578115 
" clip-path="url(#pda938935f7)" style="fill: none; stroke: #97ff60; stroke-opacity: 0.8; stroke-width: 1.5; stroke-linecap: square"/>
   </g>
   <g id="line2d_13">
    <path d="M 30.485803 60.761967 
L 31.148124 50.948434 
L 31.787607 44.492463 
L 32.427091 40.154545 
L 33.066574 37.2291 
L 33.751734 35.083153 
L 34.505411 33.433684 
L 35.373281 32.063838 
L 36.42386 30.824205 
L 37.725665 29.638099 
L 39.278695 28.525297 
L 41.037274 27.538341 
L 42.978562 26.705053 
L 45.148237 26.019609 
L 47.637653 25.471018 
L 50.652359 25.042426 
L 54.534936 24.727236 
L 60.061897 24.519352 
L 69.699821 24.411299 
L 76.140329 24.39396 
L 76.140329 24.39396 
" clip-path="url(#pda938935f7)" style="fill: none; stroke: #b4ff43; stroke-opacity: 0.8; stroke-width: 1.5; stroke-linecap: square"/>
   </g>
   <g id="line2d_14">
    <path d="M 30.485803 60.761967 
L 31.170963 50.436318 
L 31.810446 43.882175 
L 32.427091 39.642347 
L 33.043735 36.817898 
L 33.683218 34.870195 
L 34.368379 33.47619 
L 35.122055 32.435021 
L 36.035602 31.558646 
L 37.223214 30.743492 
L 38.867599 29.90077 
L 41.082951 29.025718 
L 43.7094 28.231307 
L 46.678429 27.569989 
L 50.104231 27.040616 
L 54.260871 26.631812 
L 59.673639 26.335657 
L 67.552985 26.146342 
L 76.140329 26.074342 
L 76.140329 26.074342 
" clip-path="url(#pda938935f7)" style="fill: none; stroke: #ceff29; stroke-opacity: 0.8; stroke-width: 1.5; stroke-linecap: square"/>
   </g>
   <g id="line2d_15">
    <path d="M 30.485803 60.761967 
L 31.170963 50.244401 
L 31.833285 43.313089 
L 32.449929 39.025656 
L 33.066574 36.224234 
L 33.660379 34.480359 
L 34.277024 33.315113 
L 34.939346 32.524322 
L 35.693022 31.969968 
L 36.652247 31.553496 
L 38.045407 31.213526 
L 40.557662 30.864589 
L 45.673527 30.406311 
L 52.776357 29.995899 
L 61.957507 29.700079 
L 75.295298 29.511904 
L 76.140329 29.50527 
L 76.140329 29.50527 
" clip-path="url(#pda938935f7)" style="fill: none; stroke: #ebff0c; stroke-opacity: 0.8; stroke-width: 1.5; stroke-linecap: square"/>
   </g>
   <g id="patch_3">
    <path d="M 28.203076 62.635433 
L 28.203076 21.419178 
" style="fill: none; stroke: #000000; stroke-width: 0.8; stroke-linejoin: miter; stroke-linecap: square"/>
   </g>
   <g id="patch_4">
    <path d="M 28.203076 62.635433 
L 78.423056 62.635433 
" style="fill: none; stroke: #000000; stroke-width: 0.8; stroke-linejoin: miter; stroke-linecap: square"/>
   </g>
   <g id="text_7">
    <!-- $\mathrm{d} u / \mathrm{d}t$ -->
    <g transform="translate(39.369588 15.419178)scale(0.11 -0.11)">
     <defs>
      <path id="CMR17-64" d="M 1869 4326 
L 1869 4160 
C 2246 4160 2304 4122 2304 3820 
L 2304 2345 
C 2278 2377 2016 2790 1498 2790 
C 845 2790 211 2208 211 1364 
C 211 525 806 -64 1434 -64 
C 1978 -64 2259 337 2291 380 
L 2291 -63 
L 3066 -63 
L 3066 128 
C 2688 128 2630 166 2630 473 
L 2630 4396 
L 1869 4326 
z
M 2291 755 
C 2291 563 2176 390 2029 262 
C 1811 70 1594 38 1472 38 
C 1286 38 621 134 621 1356 
C 621 2612 1363 2688 1530 2688 
C 1824 2688 2061 2522 2208 2291 
C 2291 2157 2291 2138 2291 2023 
L 2291 755 
z
" transform="scale(0.015625)"/>
      <path id="CMMI12-75" d="M 2182 370 
C 2266 13 2573 -64 2726 -64 
C 2931 -64 3085 70 3187 287 
C 3296 517 3379 894 3379 913 
C 3379 945 3354 971 3315 971 
C 3258 971 3251 939 3226 843 
C 3110 402 2995 64 2739 64 
C 2547 64 2547 275 2547 358 
C 2547 505 2566 568 2630 837 
C 2675 1009 2720 1181 2758 1360 
L 3021 2401 
C 3066 2561 3066 2574 3066 2593 
C 3066 2689 2989 2753 2893 2753 
C 2707 2753 2662 2593 2624 2433 
C 2560 2184 2214 811 2170 588 
C 2163 588 1914 64 1446 64 
C 1114 64 1050 351 1050 588 
C 1050 952 1229 1462 1395 1890 
C 1472 2095 1504 2178 1504 2305 
C 1504 2580 1306 2816 998 2816 
C 410 2816 173 1890 173 1839 
C 173 1814 198 1782 243 1782 
C 301 1782 307 1807 333 1896 
C 486 2441 736 2682 979 2682 
C 1043 2682 1146 2682 1146 2478 
C 1146 2312 1075 2127 979 1884 
C 698 1124 666 881 666 690 
C 666 38 1158 -64 1421 -64 
C 1830 -64 2054 217 2182 370 
z
" transform="scale(0.015625)"/>
      <path id="CMMI12-3d" d="M 2746 4562 
C 2746 4569 2784 4666 2784 4678 
C 2784 4755 2720 4800 2669 4800 
C 2637 4800 2579 4800 2528 4659 
L 384 -1363 
C 384 -1370 346 -1465 346 -1478 
C 346 -1555 410 -1600 461 -1600 
C 499 -1600 557 -1593 602 -1459 
L 2746 4562 
z
" transform="scale(0.015625)"/>
      <path id="CMMI12-74" d="M 1286 2566 
L 1875 2566 
C 1997 2566 2061 2566 2061 2681 
C 2061 2752 2022 2752 1894 2752 
L 1331 2752 
L 1568 3692 
C 1594 3781 1594 3794 1594 3840 
C 1594 3943 1510 4000 1427 4000 
C 1376 4000 1229 3981 1178 3775 
L 928 2752 
L 326 2752 
C 198 2752 141 2752 141 2630 
C 141 2566 186 2566 307 2566 
L 877 2566 
L 454 881 
C 403 658 384 594 384 511 
C 384 211 595 -64 954 -64 
C 1600 -64 1946 868 1946 912 
C 1946 951 1920 970 1882 970 
C 1869 970 1843 970 1830 944 
C 1824 938 1818 931 1773 829 
C 1638 511 1344 64 973 64 
C 781 64 768 224 768 364 
C 768 370 768 492 787 568 
L 1286 2566 
z
" transform="scale(0.015625)"/>
     </defs>
     <use xlink:href="#CMR17-64" transform="scale(0.996264)"/>
     <use xlink:href="#CMMI12-75" transform="translate(50.89537 0)scale(0.996264)"/>
     <use xlink:href="#CMMI12-3d" transform="translate(106.415699 0)scale(0.996264)"/>
     <use xlink:href="#CMR17-64" transform="translate(155.190618 0)scale(0.996264)"/>
     <use xlink:href="#CMMI12-74" transform="translate(206.085988 0)scale(0.996264)"/>
    </g>
   </g>
  </g>
  <g id="axes_2">
   <g id="patch_5">
    <path d="M 118.941701 62.635433 
L 169.16168 62.635433 
L 169.16168 21.419178 
L 118.941701 21.419178 
z
" style="fill: #ffffff"/>
   </g>
   <g id="matplotlib.axis_3">
    <g id="xtick_3">
     <g id="line2d_16">
      <g>
       <use xlink:href="#md09cb30a07" x="121.224427" y="62.635433" style="stroke: #000000; stroke-width: 0.8"/>
      </g>
     </g>
     <g id="text_8">
      <!-- $\mathdefault{0}$ -->
      <g transform="translate(118.484694 77.245779)scale(0.11 -0.11)">
       <use xlink:href="#CMR17-30" transform="scale(0.996264)"/>
      </g>
     </g>
    </g>
    <g id="xtick_4">
     <g id="line2d_17">
      <g>
       <use xlink:href="#md09cb30a07" x="166.901793" y="62.635433" style="stroke: #000000; stroke-width: 0.8"/>
      </g>
     </g>
     <g id="text_9">
      <!-- $\mathdefault{2000}$ -->
      <g transform="translate(155.942858 77.245779)scale(0.11 -0.11)">
       <use xlink:href="#CMR17-32" transform="scale(0.996264)"/>
       <use xlink:href="#CMR17-30" transform="translate(45.690477 0)scale(0.996264)"/>
       <use xlink:href="#CMR17-30" transform="translate(91.380954 0)scale(0.996264)"/>
       <use xlink:href="#CMR17-30" transform="translate(137.071431 0)scale(0.996264)"/>
      </g>
     </g>
    </g>
    <g id="text_10">
     <!-- time [ms] -->
     <g transform="translate(121.798987 91.595852)scale(0.11 -0.11)">
      <use xlink:href="#CMR17-74" transform="scale(0.996264)"/>
      <use xlink:href="#CMR17-69" transform="translate(35.280768 0)scale(0.996264)"/>
      <use xlink:href="#CMR17-6d" transform="translate(60.151826 0)scale(0.996264)"/>
      <use xlink:href="#CMR17-65" transform="translate(137.071416 0)scale(0.996264)"/>
      <use xlink:href="#CMR17-5b" transform="translate(207.633043 0)scale(0.996264)"/>
      <use xlink:href="#CMR17-6d" transform="translate(232.504101 0)scale(0.996264)"/>
      <use xlink:href="#CMR17-73" transform="translate(309.423691 0)scale(0.996264)"/>
      <use xlink:href="#CMR17-5d" transform="translate(345.225029 0)scale(0.996264)"/>
     </g>
    </g>
   </g>
   <g id="matplotlib.axis_4">
    <g id="ytick_4">
     <g id="line2d_18">
      <g>
       <use xlink:href="#md5965dc185" x="118.941701" y="47.285163" style="stroke: #000000; stroke-width: 0.8"/>
      </g>
     </g>
     <g id="text_11">
      <!-- $\mathdefault{0.25}$ -->
      <g transform="translate(92.459157 51.090336)scale(0.11 -0.11)">
       <defs>
        <path id="CMR17-35" d="M 730 3692 
C 794 3666 1056 3584 1325 3584 
C 1920 3584 2246 3911 2432 4100 
C 2432 4157 2432 4192 2394 4192 
C 2387 4192 2374 4192 2323 4163 
C 2099 4058 1837 3973 1517 3973 
C 1325 3973 1037 3999 723 4139 
C 653 4171 640 4171 634 4171 
C 602 4171 595 4164 595 4037 
L 595 2203 
C 595 2089 595 2057 659 2057 
C 691 2057 704 2070 736 2114 
C 941 2401 1222 2522 1542 2522 
C 1766 2522 2246 2382 2246 1289 
C 2246 1085 2246 715 2054 421 
C 1894 159 1645 25 1370 25 
C 947 25 518 320 403 814 
C 429 807 480 795 506 795 
C 589 795 749 840 749 1038 
C 749 1210 627 1280 506 1280 
C 358 1280 262 1190 262 1011 
C 262 454 704 -128 1382 -128 
C 2042 -128 2669 440 2669 1264 
C 2669 2030 2170 2624 1549 2624 
C 1222 2624 947 2503 730 2274 
L 730 3692 
z
" transform="scale(0.015625)"/>
       </defs>
       <use xlink:href="#CMR17-30" transform="scale(0.996264)"/>
       <use xlink:href="#CMMI12-3a" transform="translate(45.690477 0)scale(0.996264)"/>
       <use xlink:href="#CMR17-32" transform="translate(72.787654 0)scale(0.996264)"/>
       <use xlink:href="#CMR17-35" transform="translate(118.478131 0)scale(0.996264)"/>
      </g>
     </g>
    </g>
    <g id="ytick_5">
     <g id="line2d_19">
      <g>
       <use xlink:href="#md5965dc185" x="118.941701" y="28.492028" style="stroke: #000000; stroke-width: 0.8"/>
      </g>
     </g>
     <g id="text_12">
      <!-- $\mathdefault{0.50}$ -->
      <g transform="translate(92.459157 32.297202)scale(0.11 -0.11)">
       <use xlink:href="#CMR17-30" transform="scale(0.996264)"/>
       <use xlink:href="#CMMI12-3a" transform="translate(45.690477 0)scale(0.996264)"/>
       <use xlink:href="#CMR17-35" transform="translate(72.787654 0)scale(0.996264)"/>
       <use xlink:href="#CMR17-30" transform="translate(118.478131 0)scale(0.996264)"/>
      </g>
     </g>
    </g>
   </g>
   <g id="line2d_20">
    <path d="M 121.224427 51.043789 
L 121.567008 50.839614 
L 121.932426 50.882585 
L 122.3892 51.185612 
L 123.097199 51.963199 
L 127.139646 56.873784 
L 128.46429 57.932466 
L 129.857449 58.75929 
L 131.387641 59.403868 
L 133.169058 59.904271 
L 135.361572 60.278028 
L 138.307762 60.539088 
L 142.85266 60.695028 
L 152.627616 60.757055 
L 166.878954 60.761967 
L 166.878954 60.761967 
" clip-path="url(#p957e44d7e4)" style="fill: none; stroke: #00d4ff; stroke-opacity: 0.8; stroke-width: 1.5; stroke-linecap: square"/>
   </g>
   <g id="line2d_21">
    <path d="M 121.224427 51.043789 
L 121.635524 50.184963 
L 122.000942 49.873063 
L 122.366361 49.849008 
L 122.800296 50.069895 
L 123.43978 50.688704 
L 124.718746 52.323767 
L 126.568679 54.592643 
L 127.939 55.917082 
L 129.286482 56.912756 
L 130.702481 57.684323 
L 132.27835 58.288808 
L 134.128283 58.755925 
L 136.457829 59.104679 
L 139.655244 59.342579 
L 144.816787 59.477537 
L 157.537933 59.522633 
L 166.878954 59.524126 
L 166.878954 59.524126 
" clip-path="url(#p957e44d7e4)" style="fill: none; stroke: #0cf4eb; stroke-opacity: 0.8; stroke-width: 1.5; stroke-linecap: square"/>
   </g>
   <g id="line2d_22">
    <path d="M 121.224427 51.043789 
L 121.681201 49.315368 
L 122.092297 48.535813 
L 122.457716 48.25663 
L 122.823135 48.244508 
L 123.279909 48.480957 
L 123.942231 49.117713 
L 125.289713 50.805888 
L 127.116807 52.98311 
L 128.509967 54.29447 
L 129.880288 55.281603 
L 131.341964 56.057244 
L 132.96351 56.660849 
L 134.88196 57.128322 
L 137.280021 57.472227 
L 140.59163 57.705906 
L 146.004398 57.83683 
L 159.798962 57.878461 
L 166.878954 57.879467 
L 166.878954 57.879467 
" clip-path="url(#p957e44d7e4)" style="fill: none; stroke: #29ffce; stroke-opacity: 0.8; stroke-width: 1.5; stroke-linecap: square"/>
   </g>
   <g id="line2d_23">
    <path d="M 121.224427 51.043789 
L 121.70404 48.314486 
L 122.160813 46.898297 
L 122.57191 46.277825 
L 122.937328 46.079449 
L 123.325586 46.119355 
L 123.828037 46.424573 
L 124.581714 47.184449 
L 128.829709 51.914196 
L 130.222868 52.942699 
L 131.684544 53.748261 
L 133.30609 54.385261 
L 135.201701 54.882433 
L 137.531247 55.25302 
L 140.660146 55.511263 
L 145.524786 55.665395 
L 156.099096 55.725446 
L 166.878954 55.729659 
L 166.878954 55.729659 
" clip-path="url(#p957e44d7e4)" style="fill: none; stroke: #43ffb4; stroke-opacity: 0.8; stroke-width: 1.5; stroke-linecap: square"/>
   </g>
   <g id="line2d_24">
    <path d="M 121.224427 51.043789 
L 121.726878 47.170165 
L 122.206491 45.039488 
L 122.640426 43.991588 
L 123.051522 43.519143 
L 123.43978 43.392284 
L 123.873714 43.500369 
L 124.444682 43.898863 
L 125.358229 44.846405 
L 128.669838 48.469985 
L 130.131514 49.650931 
L 131.616028 50.56647 
L 133.214736 51.289346 
L 135.018992 51.856792 
L 137.165828 52.292477 
L 139.90647 52.611677 
L 143.789046 52.823158 
L 150.48078 52.934068 
L 166.878954 52.961452 
L 166.878954 52.961452 
" clip-path="url(#p957e44d7e4)" style="fill: none; stroke: #60ff97; stroke-opacity: 0.8; stroke-width: 1.5; stroke-linecap: square"/>
   </g>
   <g id="line2d_25">
    <path d="M 121.224427 51.043789 
L 121.749717 45.915483 
L 122.252168 42.977052 
L 122.73178 41.374433 
L 123.165715 40.604148 
L 123.576812 40.279897 
L 123.987908 40.227269 
L 124.490359 40.409359 
L 125.175519 40.920456 
L 126.431647 42.188367 
L 128.875386 44.635051 
L 130.451255 45.881698 
L 132.027124 46.846573 
L 133.694348 47.606559 
L 135.56712 48.211458 
L 137.759634 48.679583 
L 140.500276 49.028321 
L 144.268658 49.267974 
L 150.320909 49.404114 
L 165.097537 49.450073 
L 166.878954 49.45065 
L 166.878954 49.45065 
" clip-path="url(#p957e44d7e4)" style="fill: none; stroke: #7dff7a; stroke-opacity: 0.8; stroke-width: 1.5; stroke-linecap: square"/>
   </g>
   <g id="line2d_26">
    <path d="M 121.224427 51.043789 
L 121.772556 44.594597 
L 122.297845 40.776531 
L 122.800296 38.593252 
L 123.279909 37.407645 
L 123.736682 36.826471 
L 124.170617 36.609586 
L 124.65023 36.624859 
L 125.266874 36.893493 
L 126.20326 37.583242 
L 130.908029 41.382355 
L 132.666607 42.36726 
L 134.516541 43.145735 
L 136.572022 43.76478 
L 138.970084 44.248025 
L 141.939113 44.610342 
L 145.958721 44.862255 
L 152.262197 45.010095 
L 166.467858 45.065189 
L 166.878954 45.065456 
L 166.878954 45.065456 
" clip-path="url(#p957e44d7e4)" style="fill: none; stroke: #97ff60; stroke-opacity: 0.8; stroke-width: 1.5; stroke-linecap: square"/>
   </g>
   <g id="line2d_27">
    <path d="M 121.224427 51.043789 
L 121.795394 43.255872 
L 122.343523 38.51509 
L 122.868812 35.703529 
L 123.371263 34.083886 
L 123.873714 33.162684 
L 124.353327 32.717749 
L 124.855778 32.552009 
L 125.449584 32.608889 
L 126.248937 32.933095 
L 127.642097 33.779968 
L 130.999383 35.851874 
L 133.100542 36.858186 
L 135.293056 37.658474 
L 137.691118 38.293148 
L 140.477437 38.793823 
L 143.903239 39.172852 
L 148.448137 39.43808 
L 155.391097 39.598426 
L 166.878954 39.659859 
L 166.878954 39.659859 
" clip-path="url(#p957e44d7e4)" style="fill: none; stroke: #b4ff43; stroke-opacity: 0.8; stroke-width: 1.5; stroke-linecap: square"/>
   </g>
   <g id="line2d_28">
    <path d="M 121.224427 51.043789 
L 121.818233 41.944289 
L 122.3892 36.270009 
L 122.960167 32.691704 
L 123.508296 30.581322 
L 124.033585 29.362313 
L 124.558875 28.659243 
L 125.107003 28.282708 
L 125.723648 28.13293 
L 126.500163 28.183904 
L 127.687774 28.508278 
L 135.498604 31.032512 
L 138.718858 31.675304 
L 142.418725 32.180377 
L 146.917945 32.561245 
L 152.878842 32.829183 
L 161.92296 32.991237 
L 166.878954 33.025951 
L 166.878954 33.025951 
" clip-path="url(#p957e44d7e4)" style="fill: none; stroke: #ceff29; stroke-opacity: 0.8; stroke-width: 1.5; stroke-linecap: square"/>
   </g>
   <g id="line2d_29">
    <path d="M 121.224427 51.043789 
L 121.841072 40.695532 
L 122.434877 34.10812 
L 123.028683 29.855085 
L 123.59965 27.257584 
L 124.170617 25.623209 
L 124.741584 24.612871 
L 125.358229 23.9646 
L 126.043389 23.572363 
L 126.888421 23.35616 
L 128.121709 23.294189 
L 130.54261 23.444512 
L 139.792276 24.105184 
L 148.288266 24.444288 
L 159.913156 24.669896 
L 166.878954 24.735543 
L 166.878954 24.735543 
" clip-path="url(#p957e44d7e4)" style="fill: none; stroke: #ebff0c; stroke-opacity: 0.8; stroke-width: 1.5; stroke-linecap: square"/>
   </g>
   <g id="patch_6">
    <path d="M 118.941701 62.635433 
L 118.941701 21.419178 
" style="fill: none; stroke: #000000; stroke-width: 0.8; stroke-linejoin: miter; stroke-linecap: square"/>
   </g>
   <g id="patch_7">
    <path d="M 118.941701 62.635433 
L 169.16168 62.635433 
" style="fill: none; stroke: #000000; stroke-width: 0.8; stroke-linejoin: miter; stroke-linecap: square"/>
   </g>
   <g id="text_13">
    <!-- $\mathrm{d} v / \mathrm{d}t$ -->
    <g transform="translate(130.39235 15.419178)scale(0.11 -0.11)">
     <defs>
      <path id="CMMI12-76" d="M 2925 2389 
C 2925 2791 2720 2816 2669 2816 
C 2515 2816 2374 2663 2374 2535 
C 2374 2459 2419 2414 2445 2389 
C 2509 2331 2675 2159 2675 1827 
C 2675 1558 2291 64 1523 64 
C 1133 64 1056 390 1056 626 
C 1056 945 1203 1392 1376 1852 
C 1478 2114 1504 2178 1504 2305 
C 1504 2574 1312 2816 998 2816 
C 410 2816 173 1890 173 1839 
C 173 1814 198 1782 243 1782 
C 301 1782 307 1807 333 1897 
C 486 2446 736 2689 979 2689 
C 1037 2689 1146 2689 1146 2478 
C 1146 2312 1075 2127 979 1884 
C 672 1067 672 869 672 715 
C 672 575 691 313 890 134 
C 1120 -64 1440 -64 1498 -64 
C 2560 -64 2925 2024 2925 2389 
z
" transform="scale(0.015625)"/>
     </defs>
     <use xlink:href="#CMR17-64" transform="scale(0.996264)"/>
     <use xlink:href="#CMMI12-76" transform="translate(50.89537 0)scale(0.996264)"/>
     <use xlink:href="#CMMI12-3d" transform="translate(101.630543 0)scale(0.996264)"/>
     <use xlink:href="#CMR17-64" transform="translate(150.405462 0)scale(0.996264)"/>
     <use xlink:href="#CMMI12-74" transform="translate(201.300832 0)scale(0.996264)"/>
    </g>
   </g>
  </g>
  <g id="axes_3">
   <g id="patch_8">
    <path d="M 209.680326 62.635433 
L 259.900305 62.635433 
L 259.900305 21.419178 
L 209.680326 21.419178 
z
" style="fill: #ffffff"/>
   </g>
   <g id="matplotlib.axis_5">
    <g id="xtick_5">
     <g id="line2d_30">
      <g>
       <use xlink:href="#md09cb30a07" x="211.963052" y="62.635433" style="stroke: #000000; stroke-width: 0.8"/>
      </g>
     </g>
     <g id="text_14">
      <!-- $\mathdefault{0}$ -->
      <g transform="translate(209.223318 77.245779)scale(0.11 -0.11)">
       <use xlink:href="#CMR17-30" transform="scale(0.996264)"/>
      </g>
     </g>
    </g>
    <g id="xtick_6">
     <g id="line2d_31">
      <g>
       <use xlink:href="#md09cb30a07" x="257.640417" y="62.635433" style="stroke: #000000; stroke-width: 0.8"/>
      </g>
     </g>
     <g id="text_15">
      <!-- $\mathdefault{2000}$ -->
      <g transform="translate(246.681483 77.245779)scale(0.11 -0.11)">
       <use xlink:href="#CMR17-32" transform="scale(0.996264)"/>
       <use xlink:href="#CMR17-30" transform="translate(45.690477 0)scale(0.996264)"/>
       <use xlink:href="#CMR17-30" transform="translate(91.380954 0)scale(0.996264)"/>
       <use xlink:href="#CMR17-30" transform="translate(137.071431 0)scale(0.996264)"/>
      </g>
     </g>
    </g>
    <g id="text_16">
     <!-- time [ms] -->
     <g transform="translate(212.537612 91.595852)scale(0.11 -0.11)">
      <use xlink:href="#CMR17-74" transform="scale(0.996264)"/>
      <use xlink:href="#CMR17-69" transform="translate(35.280768 0)scale(0.996264)"/>
      <use xlink:href="#CMR17-6d" transform="translate(60.151826 0)scale(0.996264)"/>
      <use xlink:href="#CMR17-65" transform="translate(137.071416 0)scale(0.996264)"/>
      <use xlink:href="#CMR17-5b" transform="translate(207.633043 0)scale(0.996264)"/>
      <use xlink:href="#CMR17-6d" transform="translate(232.504101 0)scale(0.996264)"/>
      <use xlink:href="#CMR17-73" transform="translate(309.423691 0)scale(0.996264)"/>
      <use xlink:href="#CMR17-5d" transform="translate(345.225029 0)scale(0.996264)"/>
     </g>
    </g>
   </g>
   <g id="matplotlib.axis_6">
    <g id="ytick_6">
     <g id="line2d_32">
      <g>
       <use xlink:href="#md5965dc185" x="209.680326" y="49.234954" style="stroke: #000000; stroke-width: 0.8"/>
      </g>
     </g>
     <g id="text_17">
      <!-- $\mathdefault{0.50}$ -->
      <g transform="translate(183.197782 53.040127)scale(0.11 -0.11)">
       <use xlink:href="#CMR17-30" transform="scale(0.996264)"/>
       <use xlink:href="#CMMI12-3a" transform="translate(45.690477 0)scale(0.996264)"/>
       <use xlink:href="#CMR17-35" transform="translate(72.787654 0)scale(0.996264)"/>
       <use xlink:href="#CMR17-30" transform="translate(118.478131 0)scale(0.996264)"/>
      </g>
     </g>
    </g>
    <g id="ytick_7">
     <g id="line2d_33">
      <g>
       <use xlink:href="#md5965dc185" x="209.680326" y="31.146701" style="stroke: #000000; stroke-width: 0.8"/>
      </g>
     </g>
     <g id="text_18">
      <!-- $\mathdefault{0.75}$ -->
      <g transform="translate(183.197782 34.951874)scale(0.11 -0.11)">
       <use xlink:href="#CMR17-30" transform="scale(0.996264)"/>
       <use xlink:href="#CMMI12-3a" transform="translate(45.690477 0)scale(0.996264)"/>
       <use xlink:href="#CMR17-37" transform="translate(72.787654 0)scale(0.996264)"/>
       <use xlink:href="#CMR17-35" transform="translate(118.478131 0)scale(0.996264)"/>
      </g>
     </g>
    </g>
   </g>
   <g id="line2d_34">
    <path d="M 211.963052 49.234954 
L 212.328471 49.123014 
L 212.762406 48.729983 
L 213.333373 47.866643 
L 214.109888 46.239118 
L 215.366016 43.006498 
L 218.220851 35.57058 
L 219.614011 32.617851 
L 220.892977 30.409489 
L 222.126266 28.707503 
L 223.359555 27.371394 
L 224.638521 26.306959 
L 226.008842 25.455788 
L 227.516195 24.783225 
L 229.251935 24.25618 
L 231.375932 23.852944 
L 234.162252 23.565073 
L 238.273215 23.385313 
L 246.15256 23.303756 
L 257.617579 23.292644 
L 257.617579 23.292644 
" clip-path="url(#p2cc6807719)" style="fill: none; stroke: #00d4ff; stroke-opacity: 0.8; stroke-width: 1.5; stroke-linecap: square"/>
   </g>
   <g id="line2d_35">
    <path d="M 211.963052 49.234954 
L 212.374148 49.117832 
L 212.830922 48.730494 
L 213.401889 47.922833 
L 214.178404 46.388909 
L 215.366016 43.472335 
L 218.654786 35.184269 
L 220.025107 32.428913 
L 221.304073 30.33724 
L 222.560201 28.70158 
L 223.816328 27.424804 
L 225.118133 26.413989 
L 226.511293 25.611102 
L 228.064323 24.973272 
L 229.891418 24.470672 
L 232.129609 24.095066 
L 235.121476 23.831968 
L 239.712052 23.674024 
L 249.464169 23.610834 
L 257.617579 23.606169 
L 257.617579 23.606169 
" clip-path="url(#p2cc6807719)" style="fill: none; stroke: #0cf4eb; stroke-opacity: 0.8; stroke-width: 1.5; stroke-linecap: square"/>
   </g>
   <g id="line2d_36">
    <path d="M 211.963052 49.234954 
L 212.442664 49.127063 
L 212.945115 48.768329 
L 213.538921 48.036536 
L 214.292598 46.71586 
L 215.388854 44.283237 
L 219.545495 34.619042 
L 220.892977 32.241489 
L 222.171943 30.417923 
L 223.450909 28.975415 
L 224.752714 27.839751 
L 226.123035 26.938463 
L 227.630388 26.217427 
L 229.34329 25.651266 
L 231.398771 25.215957 
L 234.02522 24.899863 
L 237.747925 24.693429 
L 244.256949 24.587545 
L 257.617579 24.563955 
L 257.617579 24.563955 
" clip-path="url(#p2cc6807719)" style="fill: none; stroke: #29ffce; stroke-opacity: 0.8; stroke-width: 1.5; stroke-linecap: square"/>
   </g>
   <g id="line2d_37">
    <path d="M 211.963052 49.234954 
L 212.671051 49.129197 
L 213.21918 48.812537 
L 213.835824 48.175266 
L 214.5895 47.042441 
L 215.617241 45.054003 
L 218.106658 39.548934 
L 219.819559 36.113049 
L 221.235557 33.753833 
L 222.560201 31.964247 
L 223.862006 30.56684 
L 225.209488 29.444222 
L 226.625486 28.554388 
L 228.178517 27.844346 
L 229.937095 27.288254 
L 232.061093 26.857931 
L 234.778896 26.545853 
L 238.661472 26.341983 
L 245.513077 26.238693 
L 257.617579 26.217091 
L 257.617579 26.217091 
" clip-path="url(#p2cc6807719)" style="fill: none; stroke: #43ffb4; stroke-opacity: 0.8; stroke-width: 1.5; stroke-linecap: square"/>
   </g>
   <g id="line2d_38">
    <path d="M 211.963052 49.234954 
L 213.447566 49.144475 
L 214.041372 48.765274 
L 214.726533 48.040305 
L 215.594403 46.767217 
L 216.896207 44.405481 
L 220.367687 37.94435 
L 221.852202 35.729732 
L 223.245361 34.040729 
L 224.615682 32.720969 
L 226.031681 31.66383 
L 227.539034 30.818071 
L 229.206257 30.142951 
L 231.124707 29.613321 
L 233.454252 29.210436 
L 236.491797 28.923162 
L 240.991018 28.741933 
L 249.578362 28.65919 
L 257.617579 28.648797 
L 257.617579 28.648797 
" clip-path="url(#p2cc6807719)" style="fill: none; stroke: #60ff97; stroke-opacity: 0.8; stroke-width: 1.5; stroke-linecap: square"/>
   </g>
   <g id="line2d_39">
    <path d="M 211.963052 49.234954 
L 212.419826 49.349081 
L 213.698792 49.767772 
L 214.292598 49.67316 
L 214.909242 49.335637 
L 215.64008 48.660036 
L 216.599305 47.43571 
L 218.129496 45.059255 
L 221.052848 40.515382 
L 222.651556 38.469349 
L 224.13607 36.92202 
L 225.620584 35.693589 
L 227.150776 34.715692 
L 228.795161 33.930468 
L 230.622256 33.306607 
L 232.769092 32.814788 
L 235.418379 32.445223 
L 238.981214 32.186979 
L 244.508175 32.033406 
L 256.544161 31.974015 
L 257.617579 31.973089 
L 257.617579 31.973089 
" clip-path="url(#p2cc6807719)" style="fill: none; stroke: #7dff7a; stroke-opacity: 0.8; stroke-width: 1.5; stroke-linecap: square"/>
   </g>
   <g id="line2d_40">
    <path d="M 211.963052 49.234954 
L 212.305632 49.350832 
L 212.899438 49.852444 
L 213.972856 50.737179 
L 214.612339 50.970224 
L 215.206145 50.954318 
L 215.845628 50.711284 
L 216.622143 50.160744 
L 217.649884 49.129877 
L 219.362785 47.038916 
L 222.217621 43.591354 
L 223.95336 41.85746 
L 225.597746 40.524641 
L 227.264969 39.459907 
L 229.023548 38.603557 
L 230.941997 37.919042 
L 233.15735 37.371341 
L 235.829475 36.950006 
L 239.278117 36.644781 
L 244.234111 36.447985 
L 253.164036 36.350503 
L 257.617579 36.338943 
L 257.617579 36.338943 
" clip-path="url(#p2cc6807719)" style="fill: none; stroke: #97ff60; stroke-opacity: 0.8; stroke-width: 1.5; stroke-linecap: square"/>
   </g>
   <g id="line2d_41">
    <path d="M 211.963052 49.234954 
L 212.237116 49.340528 
L 212.648212 49.777342 
L 215.000597 52.736487 
L 215.662919 53.040914 
L 216.32524 53.100599 
L 217.056078 52.935037 
L 217.946787 52.489204 
L 219.157237 51.611237 
L 221.669492 49.43459 
L 224.158909 47.415809 
L 226.145874 46.088624 
L 228.110001 45.042553 
L 230.165482 44.200495 
L 232.426512 43.518241 
L 235.007283 42.976535 
L 238.136182 42.555824 
L 242.178629 42.249845 
L 248.002493 42.05163 
L 257.617579 41.956379 
L 257.617579 41.956379 
" clip-path="url(#p2cc6807719)" style="fill: none; stroke: #b4ff43; stroke-opacity: 0.8; stroke-width: 1.5; stroke-linecap: square"/>
   </g>
   <g id="line2d_42">
    <path d="M 211.963052 49.234954 
L 212.214277 49.346439 
L 212.579696 49.810155 
L 213.242018 51.106878 
L 214.703694 53.985889 
L 215.525886 55.090233 
L 216.279563 55.743702 
L 217.03324 56.106728 
L 217.832593 56.242716 
L 218.768979 56.164432 
L 219.956591 55.825298 
L 221.760847 55.051483 
L 227.264969 52.580955 
L 230.005611 51.657023 
L 232.883285 50.924047 
L 236.10354 50.337355 
L 239.9176 49.876053 
L 244.713723 49.531359 
L 251.314102 49.296483 
L 257.617579 49.198487 
L 257.617579 49.198487 
" clip-path="url(#p2cc6807719)" style="fill: none; stroke: #ceff29; stroke-opacity: 0.8; stroke-width: 1.5; stroke-linecap: square"/>
   </g>
   <g id="line2d_43">
    <path d="M 211.963052 49.234954 
L 212.191439 49.343709 
L 212.51118 49.788127 
L 213.03647 50.966888 
L 215.480209 56.954717 
L 216.348079 58.316222 
L 217.215949 59.276424 
L 218.106658 59.936013 
L 219.088721 60.38395 
L 220.230655 60.654413 
L 221.692331 60.760968 
L 223.862006 60.673131 
L 229.34329 60.142795 
L 236.194894 59.595233 
L 243.845853 59.220166 
L 253.986228 58.959839 
L 257.617579 58.905663 
L 257.617579 58.905663 
" clip-path="url(#p2cc6807719)" style="fill: none; stroke: #ebff0c; stroke-opacity: 0.8; stroke-width: 1.5; stroke-linecap: square"/>
   </g>
   <g id="patch_9">
    <path d="M 209.680326 62.635433 
L 209.680326 21.419178 
" style="fill: none; stroke: #000000; stroke-width: 0.8; stroke-linejoin: miter; stroke-linecap: square"/>
   </g>
   <g id="patch_10">
    <path d="M 209.680326 62.635433 
L 259.900305 62.635433 
" style="fill: none; stroke: #000000; stroke-width: 0.8; stroke-linejoin: miter; stroke-linecap: square"/>
   </g>
   <g id="text_19">
    <!-- $\mathrm{d} y / \mathrm{d}t$ -->
    <g transform="translate(221.100517 15.419178)scale(0.11 -0.11)">
     <defs>
      <path id="CMMI12-79" d="M 1683 -700 
C 1510 -939 1261 -1152 947 -1152 
C 870 -1152 563 -1152 467 -889 
C 486 -895 518 -895 531 -895 
C 723 -895 851 -729 851 -582 
C 851 -435 730 -384 634 -384 
C 531 -384 307 -458 307 -759 
C 307 -1071 582 -1286 947 -1286 
C 1587 -1286 2234 -700 2413 6 
L 3040 2485 
C 3046 2517 3059 2556 3059 2594 
C 3059 2689 2982 2753 2886 2753 
C 2829 2753 2694 2727 2643 2535 
L 2170 658 
C 2138 543 2138 530 2086 460 
C 1958 281 1747 64 1440 64 
C 1082 64 1050 415 1050 588 
C 1050 952 1222 1443 1395 1903 
C 1466 2088 1504 2178 1504 2305 
C 1504 2574 1312 2816 998 2816 
C 410 2816 173 1890 173 1839 
C 173 1814 198 1782 243 1782 
C 301 1782 307 1807 333 1897 
C 486 2433 730 2689 979 2689 
C 1037 2689 1146 2689 1146 2478 
C 1146 2312 1075 2127 979 1884 
C 666 1047 666 837 666 683 
C 666 77 1101 -64 1421 -64 
C 1606 -64 1837 -6 2061 230 
L 2067 224 
C 1971 -147 1907 -392 1683 -700 
z
" transform="scale(0.015625)"/>
     </defs>
     <use xlink:href="#CMR17-64" transform="scale(0.996264)"/>
     <use xlink:href="#CMMI12-79" transform="translate(50.89537 0)scale(0.996264)"/>
     <use xlink:href="#CMMI12-3d" transform="translate(102.034151 0)scale(0.996264)"/>
     <use xlink:href="#CMR17-64" transform="translate(150.809069 0)scale(0.996264)"/>
     <use xlink:href="#CMMI12-74" transform="translate(201.704439 0)scale(0.996264)"/>
    </g>
   </g>
   <g id="legend_1">
    <g id="text_20">
     <!-- Input $I$ -->
     <g transform="translate(268.522303 20.264648)scale(0.11 -0.11)">
      <defs>
       <path id="CMR17-49" d="M 1261 3905 
C 1261 4192 1338 4192 1798 4192 
L 1798 4352 
C 1594 4352 1267 4352 1050 4352 
C 832 4352 506 4352 301 4352 
L 301 4192 
C 762 4192 838 4192 838 3905 
L 838 447 
C 838 160 762 160 301 160 
L 301 0 
C 506 0 832 0 1050 0 
C 1267 0 1594 0 1798 0 
L 1798 160 
C 1338 160 1261 160 1261 447 
L 1261 3905 
z
" transform="scale(0.015625)"/>
       <path id="CMR17-6e" d="M 2656 1933 
C 2656 2259 2592 2790 1837 2790 
C 1331 2790 1069 2400 973 2144 
L 966 2144 
L 966 2790 
L 211 2720 
L 211 2554 
C 589 2554 646 2515 646 2208 
L 646 428 
C 646 184 621 153 211 153 
L 211 -13 
C 365 0 646 0 813 0 
C 979 0 1267 0 1421 -13 
L 1421 153 
C 1011 153 986 178 986 428 
L 986 1658 
C 986 2247 1344 2688 1792 2688 
C 2266 2688 2317 2266 2317 1958 
L 2317 428 
C 2317 184 2291 153 1882 153 
L 1882 -13 
C 2035 0 2317 0 2483 0 
C 2650 0 2938 0 3091 -13 
L 3091 153 
C 2682 153 2656 178 2656 428 
L 2656 1933 
z
" transform="scale(0.015625)"/>
       <path id="CMR17-70" d="M 1408 -1063 
C 998 -1063 973 -1037 973 -789 
L 973 402 
C 1158 134 1427 -38 1766 -38 
C 2406 -38 3053 523 3053 1388 
C 3053 2191 2496 2802 1837 2802 
C 1453 2802 1139 2592 960 2338 
L 960 2802 
L 198 2732 
L 198 2567 
C 576 2567 634 2528 634 2223 
L 634 -789 
C 634 -1031 608 -1063 198 -1063 
L 198 -1228 
C 352 -1216 634 -1216 800 -1216 
C 966 -1216 1254 -1216 1408 -1228 
L 1408 -1063 
z
M 973 2012 
C 973 2102 973 2235 1222 2471 
C 1254 2497 1472 2688 1792 2688 
C 2259 2688 2643 2108 2643 1382 
C 2643 656 2234 64 1728 64 
C 1498 64 1248 172 1056 472 
C 973 612 973 650 973 752 
L 973 2012 
z
" transform="scale(0.015625)"/>
       <path id="CMR17-75" d="M 1882 2693 
L 1882 2528 
C 2259 2528 2317 2489 2317 2186 
L 2317 1032 
C 2317 500 2029 38 1555 38 
C 1030 38 986 348 986 678 
L 986 2763 
L 211 2693 
L 211 2528 
C 467 2528 640 2528 646 2274 
L 646 1058 
C 646 633 646 361 813 183 
C 896 101 1056 -64 1517 -64 
C 2061 -64 2272 377 2323 506 
L 2330 506 
L 2330 -63 
L 3091 -63 
L 3091 128 
C 2714 128 2656 166 2656 473 
L 2656 2763 
L 1882 2693 
z
" transform="scale(0.015625)"/>
       <path id="CMMI12-49" d="M 2355 3880 
C 2413 4103 2426 4167 2893 4167 
C 3034 4167 3085 4167 3085 4288 
C 3085 4352 3014 4352 2995 4352 
C 2880 4352 2739 4352 2624 4352 
L 1837 4352 
C 1709 4352 1562 4352 1434 4352 
C 1382 4352 1312 4352 1312 4231 
C 1312 4167 1363 4167 1491 4167 
C 1888 4167 1888 4116 1888 4046 
C 1888 4002 1875 3963 1862 3906 
L 998 472 
C 941 249 928 185 461 185 
C 320 185 262 185 262 64 
C 262 0 326 0 358 0 
C 474 0 614 0 730 0 
L 1517 0 
C 1645 0 1786 0 1914 0 
C 1965 0 2042 0 2042 115 
C 2042 185 2003 185 1862 185 
C 1466 185 1466 236 1466 312 
C 1466 325 1466 357 1491 459 
L 2355 3880 
z
" transform="scale(0.015625)"/>
      </defs>
      <use xlink:href="#CMR17-49" transform="scale(0.996264)"/>
      <use xlink:href="#CMR17-6e" transform="translate(32.638409 0)scale(0.996264)"/>
      <use xlink:href="#CMR17-70" transform="translate(83.533779 0)scale(0.996264)"/>
      <use xlink:href="#CMR17-75" transform="translate(134.429149 0)scale(0.996264)"/>
      <use xlink:href="#CMR17-74" transform="translate(185.324519 0)scale(0.996264)"/>
      <use xlink:href="#CMMI12-49" transform="translate(250.681253 0)scale(0.996264)"/>
     </g>
    </g>
    <g id="line2d_44">
     <path d="M 275.528814 25.795543 
L 279.528814 25.795543 
L 283.528814 25.795543 
" style="fill: none; stroke: #00d4ff; stroke-opacity: 0.8; stroke-width: 1.5; stroke-linecap: square"/>
    </g>
    <g id="text_21">
     <!-- 0.5 -->
     <g transform="translate(286.728814 27.195543)scale(0.04 -0.04)">
      <defs>
       <path id="CMR17-2e" d="M 1062 261 
C 1062 420 934 522 800 522 
C 672 522 538 420 538 261 
C 538 102 666 0 800 0 
C 928 0 1062 102 1062 261 
z
" transform="scale(0.015625)"/>
      </defs>
      <use xlink:href="#CMR17-30" transform="scale(0.996264)"/>
      <use xlink:href="#CMR17-2e" transform="translate(45.690477 0)scale(0.996264)"/>
      <use xlink:href="#CMR17-35" transform="translate(70.561536 0)scale(0.996264)"/>
     </g>
    </g>
    <g id="line2d_45">
     <path d="M 275.528814 31.370408 
L 279.528814 31.370408 
L 283.528814 31.370408 
" style="fill: none; stroke: #0cf4eb; stroke-opacity: 0.8; stroke-width: 1.5; stroke-linecap: square"/>
    </g>
    <g id="text_22">
     <!-- 0.55 -->
     <g transform="translate(286.728814 32.770408)scale(0.04 -0.04)">
      <use xlink:href="#CMR17-30" transform="scale(0.996264)"/>
      <use xlink:href="#CMR17-2e" transform="translate(45.690477 0)scale(0.996264)"/>
      <use xlink:href="#CMR17-35" transform="translate(70.561536 0)scale(0.996264)"/>
      <use xlink:href="#CMR17-35" transform="translate(116.252013 0)scale(0.996264)"/>
     </g>
    </g>
    <g id="line2d_46">
     <path d="M 275.528814 36.945274 
L 279.528814 36.945274 
L 283.528814 36.945274 
" style="fill: none; stroke: #29ffce; stroke-opacity: 0.8; stroke-width: 1.5; stroke-linecap: square"/>
    </g>
    <g id="text_23">
     <!-- 0.6 -->
     <g transform="translate(286.728814 38.345274)scale(0.04 -0.04)">
      <defs>
       <path id="CMR17-36" d="M 678 2176 
C 678 3690 1395 4032 1811 4032 
C 1946 4032 2272 4009 2400 3776 
C 2298 3776 2106 3776 2106 3553 
C 2106 3381 2246 3323 2336 3323 
C 2394 3323 2566 3348 2566 3560 
C 2566 3954 2246 4179 1805 4179 
C 1043 4179 243 3390 243 1984 
C 243 253 966 -128 1478 -128 
C 2099 -128 2688 427 2688 1283 
C 2688 2081 2170 2662 1517 2662 
C 1126 2662 838 2407 678 1960 
L 678 2176 
z
M 1478 25 
C 691 25 691 1200 691 1436 
C 691 1896 909 2560 1504 2560 
C 1613 2560 1926 2560 2138 2120 
C 2253 1870 2253 1609 2253 1289 
C 2253 944 2253 690 2118 434 
C 1978 171 1773 25 1478 25 
z
" transform="scale(0.015625)"/>
      </defs>
      <use xlink:href="#CMR17-30" transform="scale(0.996264)"/>
      <use xlink:href="#CMR17-2e" transform="translate(45.690477 0)scale(0.996264)"/>
      <use xlink:href="#CMR17-36" transform="translate(70.561536 0)scale(0.996264)"/>
     </g>
    </g>
    <g id="line2d_47">
     <path d="M 275.528814 42.520139 
L 279.528814 42.520139 
L 283.528814 42.520139 
" style="fill: none; stroke: #43ffb4; stroke-opacity: 0.8; stroke-width: 1.5; stroke-linecap: square"/>
    </g>
    <g id="text_24">
     <!-- 0.65 -->
     <g transform="translate(286.728814 43.920139)scale(0.04 -0.04)">
      <use xlink:href="#CMR17-30" transform="scale(0.996264)"/>
      <use xlink:href="#CMR17-2e" transform="translate(45.690477 0)scale(0.996264)"/>
      <use xlink:href="#CMR17-36" transform="translate(70.561536 0)scale(0.996264)"/>
      <use xlink:href="#CMR17-35" transform="translate(116.252013 0)scale(0.996264)"/>
     </g>
    </g>
    <g id="line2d_48">
     <path d="M 275.528814 48.095004 
L 279.528814 48.095004 
L 283.528814 48.095004 
" style="fill: none; stroke: #60ff97; stroke-opacity: 0.8; stroke-width: 1.5; stroke-linecap: square"/>
    </g>
    <g id="text_25">
     <!-- 0.7 -->
     <g transform="translate(286.728814 49.495004)scale(0.04 -0.04)">
      <use xlink:href="#CMR17-30" transform="scale(0.996264)"/>
      <use xlink:href="#CMR17-2e" transform="translate(45.690477 0)scale(0.996264)"/>
      <use xlink:href="#CMR17-37" transform="translate(70.561536 0)scale(0.996264)"/>
     </g>
    </g>
    <g id="line2d_49">
     <path d="M 275.528814 53.669869 
L 279.528814 53.669869 
L 283.528814 53.669869 
" style="fill: none; stroke: #7dff7a; stroke-opacity: 0.8; stroke-width: 1.5; stroke-linecap: square"/>
    </g>
    <g id="text_26">
     <!-- 0.75 -->
     <g transform="translate(286.728814 55.069869)scale(0.04 -0.04)">
      <use xlink:href="#CMR17-30" transform="scale(0.996264)"/>
      <use xlink:href="#CMR17-2e" transform="translate(45.690477 0)scale(0.996264)"/>
      <use xlink:href="#CMR17-37" transform="translate(70.561536 0)scale(0.996264)"/>
      <use xlink:href="#CMR17-35" transform="translate(116.252013 0)scale(0.996264)"/>
     </g>
    </g>
    <g id="line2d_50">
     <path d="M 275.528814 59.244735 
L 279.528814 59.244735 
L 283.528814 59.244735 
" style="fill: none; stroke: #97ff60; stroke-opacity: 0.8; stroke-width: 1.5; stroke-linecap: square"/>
    </g>
    <g id="text_27">
     <!-- 0.8 -->
     <g transform="translate(286.728814 60.644735)scale(0.04 -0.04)">
      <use xlink:href="#CMR17-30" transform="scale(0.996264)"/>
      <use xlink:href="#CMR17-2e" transform="translate(45.690477 0)scale(0.996264)"/>
      <use xlink:href="#CMR17-38" transform="translate(70.561536 0)scale(0.996264)"/>
     </g>
    </g>
    <g id="line2d_51">
     <path d="M 275.528814 64.8196 
L 279.528814 64.8196 
L 283.528814 64.8196 
" style="fill: none; stroke: #b4ff43; stroke-opacity: 0.8; stroke-width: 1.5; stroke-linecap: square"/>
    </g>
    <g id="text_28">
     <!-- 0.85 -->
     <g transform="translate(286.728814 66.2196)scale(0.04 -0.04)">
      <use xlink:href="#CMR17-30" transform="scale(0.996264)"/>
      <use xlink:href="#CMR17-2e" transform="translate(45.690477 0)scale(0.996264)"/>
      <use xlink:href="#CMR17-38" transform="translate(70.561536 0)scale(0.996264)"/>
      <use xlink:href="#CMR17-35" transform="translate(116.252013 0)scale(0.996264)"/>
     </g>
    </g>
    <g id="line2d_52">
     <path d="M 275.528814 70.394465 
L 279.528814 70.394465 
L 283.528814 70.394465 
" style="fill: none; stroke: #ceff29; stroke-opacity: 0.8; stroke-width: 1.5; stroke-linecap: square"/>
    </g>
    <g id="text_29">
     <!-- 0.9 -->
     <g transform="translate(286.728814 71.794465)scale(0.04 -0.04)">
      <use xlink:href="#CMR17-30" transform="scale(0.996264)"/>
      <use xlink:href="#CMR17-2e" transform="translate(45.690477 0)scale(0.996264)"/>
      <use xlink:href="#CMR17-39" transform="translate(70.561536 0)scale(0.996264)"/>
     </g>
    </g>
    <g id="line2d_53">
     <path d="M 275.528814 75.96933 
L 279.528814 75.96933 
L 283.528814 75.96933 
" style="fill: none; stroke: #ebff0c; stroke-opacity: 0.8; stroke-width: 1.5; stroke-linecap: square"/>
    </g>
    <g id="text_30">
     <!-- 0.95 -->
     <g transform="translate(286.728814 77.36933)scale(0.04 -0.04)">
      <use xlink:href="#CMR17-30" transform="scale(0.996264)"/>
      <use xlink:href="#CMR17-2e" transform="translate(45.690477 0)scale(0.996264)"/>
      <use xlink:href="#CMR17-39" transform="translate(70.561536 0)scale(0.996264)"/>
      <use xlink:href="#CMR17-35" transform="translate(116.252013 0)scale(0.996264)"/>
     </g>
    </g>
   </g>
  </g>
 </g>
 <defs>
  <clipPath id="pda938935f7">
   <rect x="28.203076" y="21.419178" width="50.21998" height="41.216255"/>
  </clipPath>
  <clipPath id="p957e44d7e4">
   <rect x="118.941701" y="21.419178" width="50.21998" height="41.216255"/>
  </clipPath>
  <clipPath id="p2cc6807719">
   <rect x="209.680326" y="21.419178" width="50.21998" height="41.216255"/>
  </clipPath>
 </defs>
</svg>
