<?xml version="1.0" encoding="utf-8" standalone="no"?>
<!DOCTYPE svg PUBLIC "-//W3C//DTD SVG 1.1//EN"
  "http://www.w3.org/Graphics/SVG/1.1/DTD/svg11.dtd">
<svg xmlns:xlink="http://www.w3.org/1999/xlink" width="239.574279pt" height="113.850483pt" viewBox="0 0 239.574279 113.850483" xmlns="http://www.w3.org/2000/svg" version="1.1">
 <metadata>
  <rdf:RDF xmlns:dc="http://purl.org/dc/elements/1.1/" xmlns:cc="http://creativecommons.org/ns#" xmlns:rdf="http://www.w3.org/1999/02/22-rdf-syntax-ns#">
   <cc:Work>
    <dc:type rdf:resource="http://purl.org/dc/dcmitype/StillImage"/>
    <dc:date>2022-09-06T18:24:57.839026</dc:date>
    <dc:format>image/svg+xml</dc:format>
    <dc:creator>
     <cc:Agent>
      <dc:title>Matplotlib v3.5.1, https://matplotlib.org/</dc:title>
     </cc:Agent>
    </dc:creator>
   </cc:Work>
  </rdf:RDF>
 </metadata>
 <defs>
  <style type="text/css">*{stroke-linejoin: round; stroke-linecap: butt}</style>
 </defs>
 <g id="figure_1">
  <g id="patch_1">
   <path d="M 0 113.850483 
L 239.574279 113.850483 
L 239.574279 0 
L 0 0 
z
" style="fill: #ffffff"/>
  </g>
  <g id="axes_1">
   <g id="patch_2">
    <path d="M 44.379643 76.168 
L 112.861461 76.168 
L 112.861461 21.808 
L 44.379643 21.808 
z
" style="fill: #ffffff"/>
   </g>
   <g id="matplotlib.axis_1">
    <g id="xtick_1">
     <g id="line2d_1">
      <defs>
       <path id="m6936951ff9" d="M 0 0 
L 0 3.5 
" style="stroke: #262626; stroke-width: 0.8"/>
      </defs>
      <g>
       <use xlink:href="#m6936951ff9" x="47.492453" y="76.168" style="fill: #262626; stroke: #262626; stroke-width: 0.8"/>
      </g>
     </g>
     <g id="text_1">
      <!-- $\mathdefault{0.0}$ -->
      <g style="fill: #262626" transform="translate(40.490915 90.778347)scale(0.11 -0.11)">
       <defs>
        <path id="CMR17-30" d="M 2688 2025 
C 2688 2416 2682 3080 2413 3591 
C 2176 4039 1798 4198 1466 4198 
C 1158 4198 768 4058 525 3597 
C 269 3118 243 2524 243 2025 
C 243 1661 250 1106 448 619 
C 723 -39 1216 -128 1466 -128 
C 1760 -128 2208 -7 2470 600 
C 2662 1042 2688 1559 2688 2025 
z
M 1466 -26 
C 1056 -26 813 325 723 812 
C 653 1188 653 1738 653 2096 
C 653 2588 653 2997 736 3387 
C 858 3929 1216 4096 1466 4096 
C 1728 4096 2067 3923 2189 3400 
C 2272 3036 2278 2607 2278 2096 
C 2278 1680 2278 1169 2202 792 
C 2067 95 1690 -26 1466 -26 
z
" transform="scale(0.015625)"/>
        <path id="CMMI12-3a" d="M 1178 307 
C 1178 492 1024 619 870 619 
C 685 619 557 466 557 313 
C 557 128 710 0 864 0 
C 1050 0 1178 153 1178 307 
z
" transform="scale(0.015625)"/>
       </defs>
       <use xlink:href="#CMR17-30" transform="scale(0.996264)"/>
       <use xlink:href="#CMMI12-3a" transform="translate(45.690477 0)scale(0.996264)"/>
       <use xlink:href="#CMR17-30" transform="translate(72.787654 0)scale(0.996264)"/>
      </g>
     </g>
    </g>
    <g id="xtick_2">
     <g id="line2d_2">
      <g>
       <use xlink:href="#m6936951ff9" x="97.297412" y="76.168" style="fill: #262626; stroke: #262626; stroke-width: 0.8"/>
      </g>
     </g>
     <g id="text_2">
      <!-- $\mathdefault{0.2}$ -->
      <g style="fill: #262626" transform="translate(90.295874 90.778347)scale(0.11 -0.11)">
       <defs>
        <path id="CMR17-32" d="M 2669 989 
L 2554 989 
C 2490 536 2438 459 2413 420 
C 2381 369 1920 369 1830 369 
L 602 369 
C 832 619 1280 1072 1824 1597 
C 2214 1967 2669 2402 2669 3035 
C 2669 3790 2067 4224 1395 4224 
C 691 4224 262 3604 262 3030 
C 262 2780 448 2748 525 2748 
C 589 2748 781 2787 781 3010 
C 781 3207 614 3264 525 3264 
C 486 3264 448 3258 422 3245 
C 544 3790 915 4058 1306 4058 
C 1862 4058 2227 3617 2227 3035 
C 2227 2479 1901 2000 1536 1584 
L 262 146 
L 262 0 
L 2515 0 
L 2669 989 
z
" transform="scale(0.015625)"/>
       </defs>
       <use xlink:href="#CMR17-30" transform="scale(0.996264)"/>
       <use xlink:href="#CMMI12-3a" transform="translate(45.690477 0)scale(0.996264)"/>
       <use xlink:href="#CMR17-32" transform="translate(72.787654 0)scale(0.996264)"/>
      </g>
     </g>
    </g>
    <g id="text_3">
     <!-- $\sigma$ -->
     <g style="fill: #262626" transform="translate(75.489517 104.519588)scale(0.11 -0.11)">
      <defs>
       <path id="CMMI12-1b" d="M 3251 2408 
C 3334 2408 3546 2408 3546 2612 
C 3546 2752 3424 2752 3309 2752 
L 1894 2752 
C 934 2752 243 1686 243 932 
C 243 390 595 -64 1171 -64 
C 1926 -64 2752 747 2752 1705 
C 2752 1954 2694 2196 2541 2408 
L 3251 2408 
z
M 1178 64 
C 851 64 614 313 614 754 
C 614 1137 845 2408 1786 2408 
C 2061 2408 2368 2274 2368 1781 
C 2368 1558 2266 1021 2042 652 
C 1811 275 1466 64 1178 64 
z
" transform="scale(0.015625)"/>
      </defs>
      <use xlink:href="#CMMI12-1b" transform="scale(0.996264)"/>
     </g>
    </g>
   </g>
   <g id="matplotlib.axis_2">
    <g id="ytick_1">
     <g id="line2d_3">
      <defs>
       <path id="mb5cf787fd3" d="M 0 0 
L -3.5 0 
" style="stroke: #262626; stroke-width: 0.8"/>
      </defs>
      <g>
       <use xlink:href="#mb5cf787fd3" x="44.379643" y="75.436715" style="fill: #262626; stroke: #262626; stroke-width: 0.8"/>
      </g>
     </g>
     <g id="text_4">
      <!-- $\mathdefault{0}$ -->
      <g style="fill: #262626" transform="translate(31.900176 79.241889)scale(0.11 -0.11)">
       <use xlink:href="#CMR17-30" transform="scale(0.996264)"/>
      </g>
     </g>
    </g>
    <g id="ytick_2">
     <g id="line2d_4">
      <g>
       <use xlink:href="#mb5cf787fd3" x="44.379643" y="38.131449" style="fill: #262626; stroke: #262626; stroke-width: 0.8"/>
      </g>
     </g>
     <g id="text_5">
      <!-- $\mathdefault{200}$ -->
      <g style="fill: #262626" transform="translate(20.941241 41.936623)scale(0.11 -0.11)">
       <use xlink:href="#CMR17-32" transform="scale(0.996264)"/>
       <use xlink:href="#CMR17-30" transform="translate(45.690477 0)scale(0.996264)"/>
       <use xlink:href="#CMR17-30" transform="translate(91.380954 0)scale(0.996264)"/>
      </g>
     </g>
    </g>
    <g id="text_6">
     <!-- $\sigma_{\mathrm{reproduction}}$ -->
     <g style="fill: #262626" transform="translate(13.805798 76.55967)rotate(-90)scale(0.11 -0.11)">
      <defs>
       <path id="CMR17-72" d="M 960 1497 
C 960 2112 1222 2688 1702 2688 
C 1747 2688 1792 2682 1837 2662 
C 1837 2662 1696 2617 1696 2452 
C 1696 2298 1818 2234 1914 2234 
C 1990 2234 2131 2279 2131 2458 
C 2131 2663 1926 2790 1709 2790 
C 1222 2790 1011 2317 947 2093 
L 941 2093 
L 941 2790 
L 198 2720 
L 198 2554 
C 576 2554 634 2515 634 2208 
L 634 428 
C 634 184 608 153 198 153 
L 198 -13 
C 352 0 646 0 813 0 
C 998 0 1325 0 1498 -13 
L 1498 153 
C 1037 153 960 153 960 440 
L 960 1497 
z
" transform="scale(0.015625)"/>
       <path id="CMR17-65" d="M 2438 1472 
C 2464 1498 2464 1511 2464 1576 
C 2464 2238 2118 2816 1389 2816 
C 710 2816 173 2169 173 1383 
C 173 551 781 -64 1459 -64 
C 2176 -64 2458 607 2458 740 
C 2458 784 2419 784 2406 784 
C 2362 784 2355 771 2330 696 
C 2189 265 1837 51 1504 51 
C 1229 51 954 203 781 480 
C 582 803 582 1176 582 1472 
L 2438 1472 
z
M 589 1568 
C 634 2505 1126 2714 1382 2714 
C 1818 2714 2112 2297 2118 1568 
L 589 1568 
z
" transform="scale(0.015625)"/>
       <path id="CMR17-70" d="M 1408 -1063 
C 998 -1063 973 -1037 973 -789 
L 973 402 
C 1158 134 1427 -38 1766 -38 
C 2406 -38 3053 523 3053 1388 
C 3053 2191 2496 2802 1837 2802 
C 1453 2802 1139 2592 960 2338 
L 960 2802 
L 198 2732 
L 198 2567 
C 576 2567 634 2528 634 2223 
L 634 -789 
C 634 -1031 608 -1063 198 -1063 
L 198 -1228 
C 352 -1216 634 -1216 800 -1216 
C 966 -1216 1254 -1216 1408 -1228 
L 1408 -1063 
z
M 973 2012 
C 973 2102 973 2235 1222 2471 
C 1254 2497 1472 2688 1792 2688 
C 2259 2688 2643 2108 2643 1382 
C 2643 656 2234 64 1728 64 
C 1498 64 1248 172 1056 472 
C 973 612 973 650 973 752 
L 973 2012 
z
" transform="scale(0.015625)"/>
       <path id="CMR17-6f" d="M 2758 1356 
C 2758 2176 2163 2816 1466 2816 
C 768 2816 173 2176 173 1356 
C 173 551 768 -64 1466 -64 
C 2163 -64 2758 551 2758 1356 
z
M 1466 51 
C 1165 51 909 230 762 480 
C 602 767 582 1126 582 1408 
C 582 1677 595 2010 762 2298 
C 890 2509 1139 2714 1466 2714 
C 1754 2714 1997 2554 2150 2330 
C 2349 2029 2349 1607 2349 1408 
C 2349 1158 2336 775 2163 467 
C 1984 173 1709 51 1466 51 
z
" transform="scale(0.015625)"/>
       <path id="CMR17-64" d="M 1869 4326 
L 1869 4160 
C 2246 4160 2304 4122 2304 3820 
L 2304 2345 
C 2278 2377 2016 2790 1498 2790 
C 845 2790 211 2208 211 1364 
C 211 525 806 -64 1434 -64 
C 1978 -64 2259 337 2291 380 
L 2291 -63 
L 3066 -63 
L 3066 128 
C 2688 128 2630 166 2630 473 
L 2630 4396 
L 1869 4326 
z
M 2291 755 
C 2291 563 2176 390 2029 262 
C 1811 70 1594 38 1472 38 
C 1286 38 621 134 621 1356 
C 621 2612 1363 2688 1530 2688 
C 1824 2688 2061 2522 2208 2291 
C 2291 2157 2291 2138 2291 2023 
L 2291 755 
z
" transform="scale(0.015625)"/>
       <path id="CMR17-75" d="M 1882 2693 
L 1882 2528 
C 2259 2528 2317 2489 2317 2186 
L 2317 1032 
C 2317 500 2029 38 1555 38 
C 1030 38 986 348 986 678 
L 986 2763 
L 211 2693 
L 211 2528 
C 467 2528 640 2528 646 2274 
L 646 1058 
C 646 633 646 361 813 183 
C 896 101 1056 -64 1517 -64 
C 2061 -64 2272 377 2323 506 
L 2330 506 
L 2330 -63 
L 3091 -63 
L 3091 128 
C 2714 128 2656 166 2656 473 
L 2656 2763 
L 1882 2693 
z
" transform="scale(0.015625)"/>
       <path id="CMR17-63" d="M 2234 2240 
C 2112 2240 1933 2240 1933 2017 
C 1933 1838 2080 1787 2163 1787 
C 2208 1787 2394 1807 2394 2024 
C 2394 2467 1958 2803 1466 2803 
C 787 2803 211 2178 211 1363 
C 211 516 813 -64 1466 -64 
C 2259 -64 2458 677 2458 748 
C 2458 774 2451 793 2406 793 
C 2362 793 2355 787 2330 703 
C 2163 180 1798 51 1523 51 
C 1114 51 621 427 621 1369 
C 621 2338 1094 2688 1472 2688 
C 1722 2688 2093 2573 2234 2240 
z
" transform="scale(0.015625)"/>
       <path id="CMR17-74" d="M 966 2560 
L 1862 2560 
L 1862 2725 
L 966 2725 
L 966 3904 
L 851 3904 
C 838 3245 614 2668 70 2668 
L 70 2560 
L 627 2560 
L 627 771 
C 627 650 627 -64 1370 -64 
C 1747 -64 1965 306 1965 777 
L 1965 1140 
L 1850 1140 
L 1850 783 
C 1850 344 1677 51 1408 51 
C 1222 51 966 178 966 758 
L 966 2560 
z
" transform="scale(0.015625)"/>
       <path id="CMR17-69" d="M 992 3909 
C 992 4049 877 4170 730 4170 
C 589 4170 467 4056 467 3909 
C 467 3769 582 3648 730 3648 
C 870 3648 992 3763 992 3909 
z
M 243 2706 
L 243 2541 
C 602 2541 653 2502 653 2197 
L 653 427 
C 653 184 627 153 218 153 
L 218 -13 
C 371 0 646 0 806 0 
C 960 0 1222 0 1370 -13 
L 1370 153 
C 992 153 979 191 979 420 
L 979 2776 
L 243 2706 
z
" transform="scale(0.015625)"/>
       <path id="CMR17-6e" d="M 2656 1933 
C 2656 2259 2592 2790 1837 2790 
C 1331 2790 1069 2400 973 2144 
L 966 2144 
L 966 2790 
L 211 2720 
L 211 2554 
C 589 2554 646 2515 646 2208 
L 646 428 
C 646 184 621 153 211 153 
L 211 -13 
C 365 0 646 0 813 0 
C 979 0 1267 0 1421 -13 
L 1421 153 
C 1011 153 986 178 986 428 
L 986 1658 
C 986 2247 1344 2688 1792 2688 
C 2266 2688 2317 2266 2317 1958 
L 2317 428 
C 2317 184 2291 153 1882 153 
L 1882 -13 
C 2035 0 2317 0 2483 0 
C 2650 0 2938 0 3091 -13 
L 3091 153 
C 2682 153 2656 178 2656 428 
L 2656 1933 
z
" transform="scale(0.015625)"/>
      </defs>
      <use xlink:href="#CMMI12-1b" transform="scale(0.996264)"/>
      <use xlink:href="#CMR17-72" transform="translate(55.445461 -14.943915)scale(0.697382)"/>
      <use xlink:href="#CMR17-65" transform="translate(80.141881 -14.943915)scale(0.697382)"/>
      <use xlink:href="#CMR17-70" transform="translate(108.481713 -14.943915)scale(0.697382)"/>
      <use xlink:href="#CMR17-72" transform="translate(144.108321 -14.943915)scale(0.697382)"/>
      <use xlink:href="#CMR17-6f" transform="translate(168.804742 -14.943915)scale(0.697382)"/>
      <use xlink:href="#CMR17-64" transform="translate(202.609629 -14.943915)scale(0.697382)"/>
      <use xlink:href="#CMR17-75" transform="translate(238.236238 -14.943915)scale(0.697382)"/>
      <use xlink:href="#CMR17-63" transform="translate(273.862846 -14.943915)scale(0.697382)"/>
      <use xlink:href="#CMR17-74" transform="translate(302.202677 -14.943915)scale(0.697382)"/>
      <use xlink:href="#CMR17-69" transform="translate(326.899098 -14.943915)scale(0.697382)"/>
      <use xlink:href="#CMR17-6f" transform="translate(344.308757 -14.943915)scale(0.697382)"/>
      <use xlink:href="#CMR17-6e" transform="translate(376.291939 -14.943915)scale(0.697382)"/>
     </g>
    </g>
   </g>
   <g id="line2d_5">
    <path d="M 47.492453 73.697091 
L 49.982701 72.461423 
L 51.227825 71.446363 
L 52.472949 70.367718 
L 53.718073 69.040561 
L 54.963197 68.011619 
L 56.208321 67.348256 
L 57.453445 66.096271 
L 59.943693 63.436077 
L 62.433941 62.333317 
L 64.924189 59.614378 
L 67.414436 59.023328 
L 69.904684 57.215727 
L 72.394932 55.645485 
L 84.846172 51.067003 
L 97.297412 48.27494 
L 109.748651 46.482121 
" clip-path="url(#p65103033ce)" style="fill: none; stroke: #9e0142; stroke-width: 1.5; stroke-linecap: round"/>
   </g>
   <g id="line2d_6">
    <path d="M 47.492453 73.418597 
L 49.982701 72.017889 
L 51.227825 70.385915 
L 52.472949 69.106505 
L 53.718073 67.866084 
L 54.963197 66.597161 
L 56.208321 65.133164 
L 57.453445 64.162821 
L 59.943693 61.452393 
L 62.433941 59.407873 
L 64.924189 56.265828 
L 67.414436 55.576246 
L 69.904684 53.738555 
L 72.394932 52.936263 
L 84.846172 47.265008 
L 97.297412 45.194392 
L 109.748651 44.210483 
" clip-path="url(#p65103033ce)" style="fill: none; stroke: #cb334d; stroke-width: 1.5; stroke-linecap: round"/>
   </g>
   <g id="line2d_7">
    <path d="M 47.492453 73.077717 
L 49.982701 71.094412 
L 51.227825 69.639837 
L 52.472949 67.409954 
L 53.718073 65.879883 
L 54.963197 63.706158 
L 56.208321 62.347644 
L 57.453445 60.920357 
L 59.943693 58.066437 
L 62.433941 56.666444 
L 64.924189 52.793782 
L 67.414436 53.472618 
L 69.904684 51.772878 
L 72.394932 49.944647 
L 84.846172 44.9773 
L 97.297412 41.616199 
L 109.748651 41.737444 
" clip-path="url(#p65103033ce)" style="fill: none; stroke: #e95c47; stroke-width: 1.5; stroke-linecap: round"/>
   </g>
   <g id="line2d_8">
    <path d="M 47.492453 73.357425 
L 49.982701 70.389402 
L 51.227825 68.055165 
L 52.472949 66.186659 
L 53.718073 63.62138 
L 54.963197 62.698413 
L 56.208321 59.135961 
L 57.453445 57.960764 
L 59.943693 54.680527 
L 62.433941 52.739319 
L 64.924189 49.530213 
L 67.414436 47.94738 
L 69.904684 48.9352 
L 72.394932 46.773513 
L 84.846172 42.16924 
L 97.297412 39.892553 
L 109.748651 39.864725 
" clip-path="url(#p65103033ce)" style="fill: none; stroke: #f98e52; stroke-width: 1.5; stroke-linecap: round"/>
   </g>
   <g id="line2d_9">
    <path d="M 47.492453 73.412682 
L 49.982701 68.923931 
L 51.227825 66.601173 
L 52.472949 64.151738 
L 53.718073 61.87836 
L 54.963197 57.915198 
L 56.208321 57.253855 
L 57.453445 53.479219 
L 59.943693 51.900927 
L 62.433941 49.473629 
L 64.924189 46.42406 
L 67.414436 47.713581 
L 69.904684 44.701509 
L 72.394932 43.998455 
L 84.846172 38.333043 
L 97.297412 35.446231 
L 109.748651 36.192005 
" clip-path="url(#p65103033ce)" style="fill: none; stroke: #fdbf6f; stroke-width: 1.5; stroke-linecap: round"/>
   </g>
   <g id="line2d_10">
    <path d="M 47.492453 72.614514 
L 49.982701 67.496151 
L 51.227825 63.267222 
L 52.472949 60.702393 
L 53.718073 56.823509 
L 54.963197 55.204745 
L 56.208321 52.835021 
L 57.453445 50.755411 
L 59.943693 47.731915 
L 62.433941 45.583877 
L 64.924189 41.249435 
L 67.414436 43.989864 
L 69.904684 40.687264 
L 72.394932 41.697666 
L 84.846172 34.975777 
L 97.297412 36.209977 
L 109.748651 34.041159 
" clip-path="url(#p65103033ce)" style="fill: none; stroke: #fee593; stroke-width: 1.5; stroke-linecap: round"/>
   </g>
   <g id="line2d_11">
    <path d="M 47.492453 72.716663 
L 49.982701 65.297054 
L 51.227825 61.139598 
L 52.472949 57.680684 
L 53.718073 54.364634 
L 54.963197 49.671078 
L 56.208321 50.135567 
L 57.453445 48.614926 
L 59.943693 44.516533 
L 62.433941 44.522205 
L 64.924189 41.321317 
L 67.414436 38.787655 
L 69.904684 37.579521 
L 72.394932 37.474771 
L 84.846172 31.603935 
L 97.297412 34.84151 
L 109.748651 32.46732 
" clip-path="url(#p65103033ce)" style="fill: none; stroke: #fffa8d; stroke-width: 1.5; stroke-linecap: round"/>
   </g>
   <g id="patch_3">
    <path d="M 44.379643 76.168 
L 44.379643 21.808 
" style="fill: none; stroke: #262626; stroke-width: 0.8; stroke-linejoin: miter; stroke-linecap: square"/>
   </g>
   <g id="patch_4">
    <path d="M 44.379643 76.168 
L 112.861461 76.168 
" style="fill: none; stroke: #262626; stroke-width: 0.8; stroke-linejoin: miter; stroke-linecap: square"/>
   </g>
   <g id="text_7">
    <!-- short range -->
    <g style="fill: #262626" transform="translate(51.466748 15.808)scale(0.11 -0.11)">
     <defs>
      <path id="CMR17-73" d="M 1978 2697 
C 1978 2813 1971 2819 1933 2819 
C 1907 2819 1901 2813 1824 2717 
C 1805 2691 1747 2626 1728 2601 
C 1523 2819 1235 2819 1126 2819 
C 416 2819 160 2447 160 2076 
C 160 1498 813 1365 998 1325 
C 1402 1243 1542 1217 1677 1101 
C 1760 1025 1901 884 1901 654 
C 1901 384 1747 38 1158 38 
C 602 38 403 460 288 1021 
C 269 1110 269 1117 218 1117 
C 166 1117 160 1110 160 983 
L 160 63 
C 160 -51 166 -58 205 -58 
C 237 -58 243 -51 275 0 
C 314 57 410 211 448 276 
C 576 103 800 -64 1158 -64 
C 1792 -64 2131 283 2131 784 
C 2131 1112 1958 1285 1875 1362 
C 1683 1561 1459 1606 1190 1657 
C 838 1735 390 1825 390 2217 
C 390 2383 480 2737 1126 2737 
C 1811 2737 1850 2094 1862 1888 
C 1869 1856 1901 1849 1920 1849 
C 1978 1849 1978 1869 1978 1978 
L 1978 2697 
z
" transform="scale(0.015625)"/>
      <path id="CMR17-68" d="M 2656 1933 
C 2656 2259 2592 2790 1837 2790 
C 1312 2790 1056 2368 979 2157 
L 973 2157 
L 973 4396 
L 211 4326 
L 211 4160 
C 589 4160 646 4122 646 3817 
L 646 426 
C 646 184 621 153 211 153 
L 211 -13 
C 365 0 646 0 813 0 
C 979 0 1267 0 1421 -13 
L 1421 153 
C 1011 153 986 178 986 428 
L 986 1658 
C 986 2247 1344 2688 1792 2688 
C 2266 2688 2317 2266 2317 1958 
L 2317 428 
C 2317 184 2291 153 1882 153 
L 1882 -13 
C 2035 0 2317 0 2483 0 
C 2650 0 2938 0 3091 -13 
L 3091 153 
C 2682 153 2656 178 2656 428 
L 2656 1933 
z
" transform="scale(0.015625)"/>
      <path id="CMR17-61" d="M 2304 1653 
C 2304 2072 2304 2294 2035 2543 
C 1798 2752 1523 2816 1306 2816 
C 800 2816 435 2407 435 1971 
C 435 1728 627 1728 666 1728 
C 749 1728 896 1778 896 1954 
C 896 2112 774 2181 666 2181 
C 640 2181 608 2174 589 2168 
C 723 2592 1069 2714 1293 2714 
C 1613 2714 1965 2429 1965 1885 
L 1965 1600 
C 1587 1600 1133 1549 774 1357 
C 371 1133 256 813 256 570 
C 256 77 832 -64 1171 -64 
C 1523 -64 1850 139 1990 511 
C 2003 233 2182 -18 2464 -18 
C 2598 -18 2938 70 2938 567 
L 2938 920 
L 2822 920 
L 2822 562 
C 2822 178 2650 128 2566 128 
C 2304 128 2304 458 2304 738 
L 2304 1653 
z
M 1965 870 
C 1965 317 1568 38 1216 38 
C 896 38 646 275 646 570 
C 646 761 730 1100 1101 1305 
C 1408 1478 1760 1504 1965 1504 
L 1965 870 
z
" transform="scale(0.015625)"/>
      <path id="CMR17-67" d="M 710 1164 
C 832 1068 1043 960 1299 960 
C 1805 960 2240 1357 2240 1888 
C 2240 2054 2189 2310 1997 2509 
C 2176 2692 2438 2752 2586 2752 
C 2611 2752 2650 2752 2682 2734 
C 2656 2728 2598 2703 2598 2605 
C 2598 2527 2656 2471 2739 2471 
C 2835 2471 2886 2533 2886 2614 
C 2886 2731 2790 2854 2586 2854 
C 2330 2854 2106 2738 1926 2580 
C 1734 2753 1504 2816 1299 2816 
C 794 2816 358 2419 358 1888 
C 358 1522 570 1292 634 1228 
C 442 1004 442 743 442 711 
C 442 545 506 302 723 168 
C 390 85 128 -169 128 -486 
C 128 -943 736 -1280 1466 -1280 
C 2170 -1280 2803 -956 2803 -479 
C 2803 384 1856 384 1363 384 
C 1216 384 954 384 922 391 
C 723 423 589 602 589 826 
C 589 883 589 1024 710 1164 
z
M 1299 1068 
C 736 1068 736 1760 736 1889 
C 736 2016 736 2708 1299 2708 
C 1862 2708 1862 2016 1862 1889 
C 1862 1760 1862 1068 1299 1068 
z
M 1466 -1171 
C 826 -1171 384 -835 384 -486 
C 384 -289 493 -105 634 -4 
C 794 104 858 104 1293 104 
C 1818 104 2547 104 2547 -486 
C 2547 -835 2106 -1171 1466 -1171 
z
" transform="scale(0.015625)"/>
     </defs>
     <use xlink:href="#CMR17-73" transform="scale(0.996264)"/>
     <use xlink:href="#CMR17-68" transform="translate(35.801338 0)scale(0.996264)"/>
     <use xlink:href="#CMR17-6f" transform="translate(86.696707 0)scale(0.996264)"/>
     <use xlink:href="#CMR17-72" transform="translate(132.387185 0)scale(0.996264)"/>
     <use xlink:href="#CMR17-74" transform="translate(167.667952 0)scale(0.996264)"/>
     <use xlink:href="#CMR17-72" transform="translate(233.024686 0)scale(0.996264)"/>
     <use xlink:href="#CMR17-61" transform="translate(268.305454 0)scale(0.996264)"/>
     <use xlink:href="#CMR17-6e" transform="translate(313.995931 0)scale(0.996264)"/>
     <use xlink:href="#CMR17-67" transform="translate(364.891301 0)scale(0.996264)"/>
     <use xlink:href="#CMR17-65" transform="translate(410.581778 0)scale(0.996264)"/>
    </g>
   </g>
   <g id="legend_1">
    <g id="text_8">
     <!-- Stimulus -->
     <g style="fill: #262626" transform="translate(189.248599 16.170347)scale(0.11 -0.11)">
      <defs>
       <path id="CMR17-53" d="M 2803 4290 
C 2803 4404 2797 4411 2758 4411 
C 2720 4411 2707 4385 2682 4328 
L 2490 3907 
C 2246 4257 1875 4416 1472 4416 
C 819 4416 294 3901 294 3253 
C 294 3056 339 2776 557 2510 
C 794 2218 1018 2167 1530 2033 
C 1722 1982 2042 1899 2106 1874 
C 2470 1722 2662 1341 2662 985 
C 2662 527 2336 38 1779 38 
C 1094 38 454 419 410 1311 
C 403 1413 397 1419 352 1419 
C 301 1419 294 1413 294 1285 
L 294 -1 
C 294 -115 301 -122 339 -122 
C 384 -122 397 -90 486 108 
C 493 127 493 140 614 381 
C 934 -39 1472 -128 1779 -128 
C 2477 -128 2970 451 2970 1124 
C 2970 1454 2848 1708 2778 1823 
C 2509 2230 2221 2306 1914 2382 
C 1869 2402 1856 2402 1498 2490 
C 1152 2579 1005 2624 845 2796 
C 666 2992 602 3196 602 3399 
C 602 3812 934 4263 1478 4263 
C 2157 4263 2579 3786 2675 2993 
C 2694 2878 2701 2872 2746 2872 
C 2803 2872 2803 2891 2803 2999 
L 2803 4290 
z
" transform="scale(0.015625)"/>
       <path id="CMR17-6d" d="M 4326 1933 
C 4326 2252 4269 2790 3507 2790 
C 3072 2790 2771 2496 2656 2151 
L 2650 2151 
C 2573 2676 2195 2790 1837 2790 
C 1331 2790 1069 2400 973 2144 
L 966 2144 
L 966 2790 
L 211 2720 
L 211 2554 
C 589 2554 646 2515 646 2208 
L 646 428 
C 646 184 621 153 211 153 
L 211 -13 
C 365 0 646 0 813 0 
C 979 0 1267 0 1421 -13 
L 1421 153 
C 1011 153 986 178 986 428 
L 986 1658 
C 986 2247 1344 2688 1792 2688 
C 2266 2688 2317 2266 2317 1958 
L 2317 428 
C 2317 184 2291 153 1882 153 
L 1882 -13 
C 2035 0 2317 0 2483 0 
C 2650 0 2938 0 3091 -13 
L 3091 153 
C 2682 153 2656 178 2656 428 
L 2656 1658 
C 2656 2247 3014 2688 3462 2688 
C 3936 2688 3987 2266 3987 1958 
L 3987 428 
C 3987 184 3962 153 3552 153 
L 3552 -13 
C 3706 0 3987 0 4154 0 
C 4320 0 4608 0 4762 -13 
L 4762 153 
C 4352 153 4326 178 4326 428 
L 4326 1933 
z
" transform="scale(0.015625)"/>
       <path id="CMR17-6c" d="M 979 4396 
L 218 4326 
L 218 4160 
C 595 4160 653 4122 653 3817 
L 653 426 
C 653 184 627 153 218 153 
L 218 -13 
C 371 0 653 0 813 0 
C 979 0 1261 0 1414 -13 
L 1414 153 
C 1005 153 979 178 979 426 
L 979 4396 
z
" transform="scale(0.015625)"/>
      </defs>
      <use xlink:href="#CMR17-53" transform="scale(0.996264)"/>
      <use xlink:href="#CMR17-74" transform="translate(50.89537 0)scale(0.996264)"/>
      <use xlink:href="#CMR17-69" transform="translate(86.176138 0)scale(0.996264)"/>
      <use xlink:href="#CMR17-6d" transform="translate(111.047196 0)scale(0.996264)"/>
      <use xlink:href="#CMR17-75" transform="translate(185.364332 0)scale(0.996264)"/>
      <use xlink:href="#CMR17-6c" transform="translate(236.259702 0)scale(0.996264)"/>
      <use xlink:href="#CMR17-75" transform="translate(261.13076 0)scale(0.996264)"/>
      <use xlink:href="#CMR17-73" transform="translate(312.02613 0)scale(0.996264)"/>
     </g>
    </g>
    <g id="line2d_12">
     <path d="M 201.913528 21.191241 
L 205.313528 21.191241 
L 208.713528 21.191241 
" style="fill: none; stroke: #9e0142; stroke-width: 1.5; stroke-linecap: round"/>
    </g>
    <g id="text_9">
     <!-- 400 -->
     <g style="fill: #262626" transform="translate(211.433528 22.381241)scale(0.034 -0.034)">
      <defs>
       <path id="CMR17-34" d="M 2150 4122 
C 2150 4256 2144 4256 2029 4256 
L 128 1254 
L 128 1088 
L 1779 1088 
L 1779 457 
C 1779 224 1766 160 1318 160 
L 1197 160 
L 1197 0 
C 1402 0 1747 0 1965 0 
C 2182 0 2528 0 2733 0 
L 2733 160 
L 2611 160 
C 2163 160 2150 224 2150 457 
L 2150 1088 
L 2803 1088 
L 2803 1254 
L 2150 1254 
L 2150 4122 
z
M 1798 3703 
L 1798 1254 
L 256 1254 
L 1798 3703 
z
" transform="scale(0.015625)"/>
      </defs>
      <use xlink:href="#CMR17-34" transform="scale(0.996264)"/>
      <use xlink:href="#CMR17-30" transform="translate(45.690477 0)scale(0.996264)"/>
      <use xlink:href="#CMR17-30" transform="translate(91.380954 0)scale(0.996264)"/>
     </g>
    </g>
    <g id="line2d_13">
     <path d="M 201.913528 25.929874 
L 205.313528 25.929874 
L 208.713528 25.929874 
" style="fill: none; stroke: #cb334d; stroke-width: 1.5; stroke-linecap: round"/>
    </g>
    <g id="text_10">
     <!-- 450 -->
     <g style="fill: #262626" transform="translate(211.433528 27.119874)scale(0.034 -0.034)">
      <defs>
       <path id="CMR17-35" d="M 730 3692 
C 794 3666 1056 3584 1325 3584 
C 1920 3584 2246 3911 2432 4100 
C 2432 4157 2432 4192 2394 4192 
C 2387 4192 2374 4192 2323 4163 
C 2099 4058 1837 3973 1517 3973 
C 1325 3973 1037 3999 723 4139 
C 653 4171 640 4171 634 4171 
C 602 4171 595 4164 595 4037 
L 595 2203 
C 595 2089 595 2057 659 2057 
C 691 2057 704 2070 736 2114 
C 941 2401 1222 2522 1542 2522 
C 1766 2522 2246 2382 2246 1289 
C 2246 1085 2246 715 2054 421 
C 1894 159 1645 25 1370 25 
C 947 25 518 320 403 814 
C 429 807 480 795 506 795 
C 589 795 749 840 749 1038 
C 749 1210 627 1280 506 1280 
C 358 1280 262 1190 262 1011 
C 262 454 704 -128 1382 -128 
C 2042 -128 2669 440 2669 1264 
C 2669 2030 2170 2624 1549 2624 
C 1222 2624 947 2503 730 2274 
L 730 3692 
z
" transform="scale(0.015625)"/>
      </defs>
      <use xlink:href="#CMR17-34" transform="scale(0.996264)"/>
      <use xlink:href="#CMR17-35" transform="translate(45.690477 0)scale(0.996264)"/>
      <use xlink:href="#CMR17-30" transform="translate(91.380954 0)scale(0.996264)"/>
     </g>
    </g>
    <g id="line2d_14">
     <path d="M 201.913528 30.668506 
L 205.313528 30.668506 
L 208.713528 30.668506 
" style="fill: none; stroke: #e95c47; stroke-width: 1.5; stroke-linecap: round"/>
    </g>
    <g id="text_11">
     <!-- 500 -->
     <g style="fill: #262626" transform="translate(211.433528 31.858506)scale(0.034 -0.034)">
      <use xlink:href="#CMR17-35" transform="scale(0.996264)"/>
      <use xlink:href="#CMR17-30" transform="translate(45.690477 0)scale(0.996264)"/>
      <use xlink:href="#CMR17-30" transform="translate(91.380954 0)scale(0.996264)"/>
     </g>
    </g>
    <g id="line2d_15">
     <path d="M 201.913528 35.407139 
L 205.313528 35.407139 
L 208.713528 35.407139 
" style="fill: none; stroke: #f98e52; stroke-width: 1.5; stroke-linecap: round"/>
    </g>
    <g id="text_12">
     <!-- 550 -->
     <g style="fill: #262626" transform="translate(211.433528 36.597139)scale(0.034 -0.034)">
      <use xlink:href="#CMR17-35" transform="scale(0.996264)"/>
      <use xlink:href="#CMR17-35" transform="translate(45.690477 0)scale(0.996264)"/>
      <use xlink:href="#CMR17-30" transform="translate(91.380954 0)scale(0.996264)"/>
     </g>
    </g>
    <g id="line2d_16">
     <path d="M 201.913528 40.145771 
L 205.313528 40.145771 
L 208.713528 40.145771 
" style="fill: none; stroke: #fdbf6f; stroke-width: 1.5; stroke-linecap: round"/>
    </g>
    <g id="text_13">
     <!-- 600 -->
     <g style="fill: #262626" transform="translate(211.433528 41.335771)scale(0.034 -0.034)">
      <defs>
       <path id="CMR17-36" d="M 678 2176 
C 678 3690 1395 4032 1811 4032 
C 1946 4032 2272 4009 2400 3776 
C 2298 3776 2106 3776 2106 3553 
C 2106 3381 2246 3323 2336 3323 
C 2394 3323 2566 3348 2566 3560 
C 2566 3954 2246 4179 1805 4179 
C 1043 4179 243 3390 243 1984 
C 243 253 966 -128 1478 -128 
C 2099 -128 2688 427 2688 1283 
C 2688 2081 2170 2662 1517 2662 
C 1126 2662 838 2407 678 1960 
L 678 2176 
z
M 1478 25 
C 691 25 691 1200 691 1436 
C 691 1896 909 2560 1504 2560 
C 1613 2560 1926 2560 2138 2120 
C 2253 1870 2253 1609 2253 1289 
C 2253 944 2253 690 2118 434 
C 1978 171 1773 25 1478 25 
z
" transform="scale(0.015625)"/>
      </defs>
      <use xlink:href="#CMR17-36" transform="scale(0.996264)"/>
      <use xlink:href="#CMR17-30" transform="translate(45.690477 0)scale(0.996264)"/>
      <use xlink:href="#CMR17-30" transform="translate(91.380954 0)scale(0.996264)"/>
     </g>
    </g>
    <g id="line2d_17">
     <path d="M 201.913528 44.884403 
L 205.313528 44.884403 
L 208.713528 44.884403 
" style="fill: none; stroke: #fee593; stroke-width: 1.5; stroke-linecap: round"/>
    </g>
    <g id="text_14">
     <!-- 650 -->
     <g style="fill: #262626" transform="translate(211.433528 46.074403)scale(0.034 -0.034)">
      <use xlink:href="#CMR17-36" transform="scale(0.996264)"/>
      <use xlink:href="#CMR17-35" transform="translate(45.690477 0)scale(0.996264)"/>
      <use xlink:href="#CMR17-30" transform="translate(91.380954 0)scale(0.996264)"/>
     </g>
    </g>
    <g id="line2d_18">
     <path d="M 201.913528 49.623036 
L 205.313528 49.623036 
L 208.713528 49.623036 
" style="fill: none; stroke: #fffa8d; stroke-width: 1.5; stroke-linecap: round"/>
    </g>
    <g id="text_15">
     <!-- 700 -->
     <g style="fill: #262626" transform="translate(211.433528 50.813036)scale(0.034 -0.034)">
      <defs>
       <path id="CMR17-37" d="M 2886 3941 
L 2886 4081 
L 1382 4081 
C 634 4081 621 4165 595 4288 
L 480 4288 
L 294 3094 
L 410 3094 
C 429 3215 474 3540 550 3661 
C 589 3712 1062 3712 1171 3712 
L 2579 3712 
L 1869 2661 
C 1395 1954 1069 999 1069 165 
C 1069 89 1069 -128 1299 -128 
C 1530 -128 1530 89 1530 171 
L 1530 465 
C 1530 1508 1709 2196 2003 2636 
L 2886 3941 
z
" transform="scale(0.015625)"/>
      </defs>
      <use xlink:href="#CMR17-37" transform="scale(0.996264)"/>
      <use xlink:href="#CMR17-30" transform="translate(45.690477 0)scale(0.996264)"/>
      <use xlink:href="#CMR17-30" transform="translate(91.380954 0)scale(0.996264)"/>
     </g>
    </g>
   </g>
  </g>
  <g id="axes_2">
   <g id="patch_5">
    <path d="M 126.557825 76.168 
L 195.039643 76.168 
L 195.039643 21.808 
L 126.557825 21.808 
z
" style="fill: #ffffff"/>
   </g>
   <g id="matplotlib.axis_3">
    <g id="xtick_3">
     <g id="line2d_19">
      <g>
       <use xlink:href="#m6936951ff9" x="129.670635" y="76.168" style="fill: #262626; stroke: #262626; stroke-width: 0.8"/>
      </g>
     </g>
     <g id="text_16">
      <!-- $\mathdefault{0.0}$ -->
      <g style="fill: #262626" transform="translate(122.669097 90.778347)scale(0.11 -0.11)">
       <use xlink:href="#CMR17-30" transform="scale(0.996264)"/>
       <use xlink:href="#CMMI12-3a" transform="translate(45.690477 0)scale(0.996264)"/>
       <use xlink:href="#CMR17-30" transform="translate(72.787654 0)scale(0.996264)"/>
      </g>
     </g>
    </g>
    <g id="xtick_4">
     <g id="line2d_20">
      <g>
       <use xlink:href="#m6936951ff9" x="179.475594" y="76.168" style="fill: #262626; stroke: #262626; stroke-width: 0.8"/>
      </g>
     </g>
     <g id="text_17">
      <!-- $\mathdefault{0.2}$ -->
      <g style="fill: #262626" transform="translate(172.474055 90.778347)scale(0.11 -0.11)">
       <use xlink:href="#CMR17-30" transform="scale(0.996264)"/>
       <use xlink:href="#CMMI12-3a" transform="translate(45.690477 0)scale(0.996264)"/>
       <use xlink:href="#CMR17-32" transform="translate(72.787654 0)scale(0.996264)"/>
      </g>
     </g>
    </g>
    <g id="text_18">
     <!-- $\sigma$ -->
     <g style="fill: #262626" transform="translate(157.667699 104.519588)scale(0.11 -0.11)">
      <use xlink:href="#CMMI12-1b" transform="scale(0.996264)"/>
     </g>
    </g>
   </g>
   <g id="matplotlib.axis_4">
    <g id="ytick_3">
     <g id="line2d_21">
      <g>
       <use xlink:href="#mb5cf787fd3" x="126.557825" y="75.436715" style="fill: #262626; stroke: #262626; stroke-width: 0.8"/>
      </g>
     </g>
    </g>
    <g id="ytick_4">
     <g id="line2d_22">
      <g>
       <use xlink:href="#mb5cf787fd3" x="126.557825" y="38.131449" style="fill: #262626; stroke: #262626; stroke-width: 0.8"/>
      </g>
     </g>
    </g>
   </g>
   <g id="line2d_23">
    <path d="M 129.670635 73.012062 
L 132.160883 66.394741 
L 133.406007 63.514911 
L 134.651131 59.811545 
L 135.896255 56.525662 
L 137.141379 54.567218 
L 138.386503 53.011488 
L 139.631627 52.02935 
L 142.121875 48.199302 
L 144.612122 45.353913 
L 147.10237 45.654741 
L 149.592618 42.204741 
L 152.082866 42.959021 
L 154.573114 42.443862 
L 167.024354 37.342883 
L 179.475594 34.784034 
L 191.926833 35.455005 
" clip-path="url(#pee08b982ae)" style="fill: none; stroke: #fffa8d; stroke-width: 1.5; stroke-linecap: round"/>
   </g>
   <g id="line2d_24">
    <path d="M 129.670635 72.664314 
L 132.160883 64.610999 
L 133.406007 60.738052 
L 134.651131 56.793689 
L 135.896255 54.747734 
L 137.141379 51.471519 
L 138.386503 49.463296 
L 139.631627 47.468341 
L 142.121875 46.59722 
L 144.612122 43.059816 
L 147.10237 43.142928 
L 149.592618 38.185527 
L 152.082866 39.274956 
L 154.573114 37.301181 
L 167.024354 34.715236 
L 179.475594 31.348706 
L 191.926833 30.574769 
" clip-path="url(#pee08b982ae)" style="fill: none; stroke: #eaf79e; stroke-width: 1.5; stroke-linecap: round"/>
   </g>
   <g id="line2d_25">
    <path d="M 129.670635 72.27538 
L 132.160883 62.25522 
L 133.406007 57.029252 
L 134.651131 53.737604 
L 135.896255 49.957987 
L 137.141379 47.345275 
L 138.386503 45.980489 
L 139.631627 46.324663 
L 142.121875 43.367338 
L 144.612122 41.989426 
L 147.10237 38.5945 
L 149.592618 37.033472 
L 152.082866 36.778051 
L 154.573114 36.893544 
L 167.024354 30.822222 
L 179.475594 33.399228 
L 191.926833 31.008017 
" clip-path="url(#pee08b982ae)" style="fill: none; stroke: #bfe5a0; stroke-width: 1.5; stroke-linecap: round"/>
   </g>
   <g id="line2d_26">
    <path d="M 129.670635 71.487037 
L 132.160883 60.333324 
L 133.406007 55.428916 
L 134.651131 52.972189 
L 135.896255 48.699987 
L 137.141379 45.287332 
L 138.386503 46.212519 
L 139.631627 43.395868 
L 142.121875 41.056899 
L 144.612122 39.997058 
L 147.10237 33.396053 
L 149.592618 34.016454 
L 152.082866 38.373538 
L 154.573114 35.486358 
L 167.024354 30.405857 
L 179.475594 29.209971 
L 191.926833 28.58201 
" clip-path="url(#pee08b982ae)" style="fill: none; stroke: #86cfa5; stroke-width: 1.5; stroke-linecap: round"/>
   </g>
   <g id="line2d_27">
    <path d="M 129.670635 62.698518 
L 132.160883 56.625287 
L 133.406007 52.516161 
L 134.651131 50.163315 
L 135.896255 45.724962 
L 137.141379 39.875165 
L 138.386503 39.894062 
L 139.631627 42.911142 
L 142.121875 38.033519 
L 144.612122 35.198984 
L 147.10237 32.55451 
L 149.592618 32.744261 
L 152.082866 34.084006 
L 154.573114 29.872692 
L 167.024354 28.657095 
L 179.475594 26.278004 
L 191.926833 29.517697 
" clip-path="url(#pee08b982ae)" style="fill: none; stroke: #54aead; stroke-width: 1.5; stroke-linecap: round"/>
   </g>
   <g id="line2d_28">
    <path d="M 129.670635 70.355952 
L 132.160883 56.553808 
L 133.406007 49.494832 
L 134.651131 46.491874 
L 135.896255 43.100172 
L 137.141379 40.090974 
L 138.386503 35.053214 
L 139.631627 41.303243 
L 142.121875 36.731903 
L 144.612122 32.918709 
L 147.10237 34.526868 
L 149.592618 34.021946 
L 152.082866 31.271554 
L 154.573114 29.299088 
L 167.024354 28.111648 
L 179.475594 25.36167 
L 191.926833 26.668906 
" clip-path="url(#pee08b982ae)" style="fill: none; stroke: #3a7eb8; stroke-width: 1.5; stroke-linecap: round"/>
   </g>
   <g id="line2d_29">
    <path d="M 129.670635 68.776763 
L 132.160883 54.296166 
L 133.406007 45.366813 
L 134.651131 44.150702 
L 135.896255 40.41149 
L 137.141379 39.440883 
L 138.386503 40.414895 
L 139.631627 37.89269 
L 142.121875 35.455874 
L 144.612122 35.184459 
L 147.10237 31.264026 
L 149.592618 31.5756 
L 152.082866 30.051586 
L 154.573114 33.577519 
L 167.024354 26.891183 
L 179.475594 24.278909 
L 191.926833 27.567636 
" clip-path="url(#pee08b982ae)" style="fill: none; stroke: #5e4fa2; stroke-width: 1.5; stroke-linecap: round"/>
   </g>
   <g id="patch_6">
    <path d="M 126.557825 76.168 
L 126.557825 21.808 
" style="fill: none; stroke: #262626; stroke-width: 0.8; stroke-linejoin: miter; stroke-linecap: square"/>
   </g>
   <g id="patch_7">
    <path d="M 126.557825 76.168 
L 195.039643 76.168 
" style="fill: none; stroke: #262626; stroke-width: 0.8; stroke-linejoin: miter; stroke-linecap: square"/>
   </g>
   <g id="text_19">
    <!-- long range -->
    <g style="fill: #262626" transform="translate(135.821499 15.808)scale(0.11 -0.11)">
     <use xlink:href="#CMR17-6c" transform="scale(0.996264)"/>
     <use xlink:href="#CMR17-6f" transform="translate(24.871058 0)scale(0.996264)"/>
     <use xlink:href="#CMR17-6e" transform="translate(70.561536 0)scale(0.996264)"/>
     <use xlink:href="#CMR17-67" transform="translate(121.456905 0)scale(0.996264)"/>
     <use xlink:href="#CMR17-72" transform="translate(197.223349 0)scale(0.996264)"/>
     <use xlink:href="#CMR17-61" transform="translate(232.504117 0)scale(0.996264)"/>
     <use xlink:href="#CMR17-6e" transform="translate(278.194594 0)scale(0.996264)"/>
     <use xlink:href="#CMR17-67" transform="translate(329.089964 0)scale(0.996264)"/>
     <use xlink:href="#CMR17-65" transform="translate(374.780441 0)scale(0.996264)"/>
    </g>
   </g>
   <g id="legend_2">
    <g id="line2d_30">
     <path d="M 202.00091 53.238 
L 205.40091 53.238 
L 208.80091 53.238 
" style="fill: none; stroke: #fffa8d; stroke-width: 1.5; stroke-linecap: round"/>
    </g>
    <g id="text_20">
     <!-- 700 -->
     <g style="fill: #262626" transform="translate(211.52091 54.428)scale(0.034 -0.034)">
      <use xlink:href="#CMR17-37" transform="scale(0.996264)"/>
      <use xlink:href="#CMR17-30" transform="translate(45.690477 0)scale(0.996264)"/>
      <use xlink:href="#CMR17-30" transform="translate(91.380954 0)scale(0.996264)"/>
     </g>
    </g>
    <g id="line2d_31">
     <path d="M 202.00091 57.976632 
L 205.40091 57.976632 
L 208.80091 57.976632 
" style="fill: none; stroke: #eaf79e; stroke-width: 1.5; stroke-linecap: round"/>
    </g>
    <g id="text_21">
     <!-- 750 -->
     <g style="fill: #262626" transform="translate(211.52091 59.166632)scale(0.034 -0.034)">
      <use xlink:href="#CMR17-37" transform="scale(0.996264)"/>
      <use xlink:href="#CMR17-35" transform="translate(45.690477 0)scale(0.996264)"/>
      <use xlink:href="#CMR17-30" transform="translate(91.380954 0)scale(0.996264)"/>
     </g>
    </g>
    <g id="line2d_32">
     <path d="M 202.00091 62.715265 
L 205.40091 62.715265 
L 208.80091 62.715265 
" style="fill: none; stroke: #bfe5a0; stroke-width: 1.5; stroke-linecap: round"/>
    </g>
    <g id="text_22">
     <!-- 800 -->
     <g style="fill: #262626" transform="translate(211.52091 63.905265)scale(0.034 -0.034)">
      <defs>
       <path id="CMR17-38" d="M 1741 2264 
C 2144 2467 2554 2773 2554 3263 
C 2554 3841 1990 4179 1472 4179 
C 890 4179 378 3759 378 3180 
C 378 3021 416 2747 666 2505 
C 730 2442 998 2251 1171 2130 
C 883 1983 211 1634 211 934 
C 211 279 838 -128 1459 -128 
C 2144 -128 2720 362 2720 1010 
C 2720 1590 2330 1857 2074 2029 
L 1741 2264 
z
M 902 2822 
C 851 2854 595 3051 595 3351 
C 595 3739 998 4032 1459 4032 
C 1965 4032 2336 3676 2336 3262 
C 2336 2669 1670 2331 1638 2331 
C 1632 2331 1626 2331 1574 2370 
L 902 2822 
z
M 2080 1519 
C 2176 1449 2483 1240 2483 851 
C 2483 381 2010 25 1472 25 
C 890 25 448 438 448 940 
C 448 1443 838 1862 1280 2060 
L 2080 1519 
z
" transform="scale(0.015625)"/>
      </defs>
      <use xlink:href="#CMR17-38" transform="scale(0.996264)"/>
      <use xlink:href="#CMR17-30" transform="translate(45.690477 0)scale(0.996264)"/>
      <use xlink:href="#CMR17-30" transform="translate(91.380954 0)scale(0.996264)"/>
     </g>
    </g>
    <g id="line2d_33">
     <path d="M 202.00091 67.453897 
L 205.40091 67.453897 
L 208.80091 67.453897 
" style="fill: none; stroke: #86cfa5; stroke-width: 1.5; stroke-linecap: round"/>
    </g>
    <g id="text_23">
     <!-- 850 -->
     <g style="fill: #262626" transform="translate(211.52091 68.643897)scale(0.034 -0.034)">
      <use xlink:href="#CMR17-38" transform="scale(0.996264)"/>
      <use xlink:href="#CMR17-35" transform="translate(45.690477 0)scale(0.996264)"/>
      <use xlink:href="#CMR17-30" transform="translate(91.380954 0)scale(0.996264)"/>
     </g>
    </g>
    <g id="line2d_34">
     <path d="M 202.00091 72.19253 
L 205.40091 72.19253 
L 208.80091 72.19253 
" style="fill: none; stroke: #54aead; stroke-width: 1.5; stroke-linecap: round"/>
    </g>
    <g id="text_24">
     <!-- 900 -->
     <g style="fill: #262626" transform="translate(211.52091 73.38253)scale(0.034 -0.034)">
      <defs>
       <path id="CMR17-39" d="M 2253 1864 
C 2253 464 1670 31 1190 31 
C 1043 31 685 31 538 294 
C 704 268 826 357 826 518 
C 826 692 685 749 595 749 
C 538 749 365 723 365 506 
C 365 71 742 -128 1203 -128 
C 1939 -128 2688 674 2688 2073 
C 2688 3817 1971 4179 1485 4179 
C 851 4179 243 3628 243 2778 
C 243 1991 762 1408 1414 1408 
C 1952 1408 2189 1903 2253 2112 
L 2253 1864 
z
M 1427 1510 
C 1254 1510 1011 1542 813 1922 
C 678 2169 678 2461 678 2771 
C 678 3146 678 3405 858 3684 
C 947 3817 1114 4032 1485 4032 
C 2240 4032 2240 2885 2240 2632 
C 2240 2182 2035 1510 1427 1510 
z
" transform="scale(0.015625)"/>
      </defs>
      <use xlink:href="#CMR17-39" transform="scale(0.996264)"/>
      <use xlink:href="#CMR17-30" transform="translate(45.690477 0)scale(0.996264)"/>
      <use xlink:href="#CMR17-30" transform="translate(91.380954 0)scale(0.996264)"/>
     </g>
    </g>
    <g id="line2d_35">
     <path d="M 202.00091 76.931162 
L 205.40091 76.931162 
L 208.80091 76.931162 
" style="fill: none; stroke: #3a7eb8; stroke-width: 1.5; stroke-linecap: round"/>
    </g>
    <g id="text_25">
     <!-- 950 -->
     <g style="fill: #262626" transform="translate(211.52091 78.121162)scale(0.034 -0.034)">
      <use xlink:href="#CMR17-39" transform="scale(0.996264)"/>
      <use xlink:href="#CMR17-35" transform="translate(45.690477 0)scale(0.996264)"/>
      <use xlink:href="#CMR17-30" transform="translate(91.380954 0)scale(0.996264)"/>
     </g>
    </g>
    <g id="line2d_36">
     <path d="M 202.00091 81.669795 
L 205.40091 81.669795 
L 208.80091 81.669795 
" style="fill: none; stroke: #5e4fa2; stroke-width: 1.5; stroke-linecap: round"/>
    </g>
    <g id="text_26">
     <!-- 1000 -->
     <g style="fill: #262626" transform="translate(211.52091 82.859795)scale(0.034 -0.034)">
      <defs>
       <path id="CMR17-31" d="M 1702 4058 
C 1702 4192 1696 4192 1606 4192 
C 1357 3916 979 3827 621 3827 
C 602 3827 570 3827 563 3808 
C 557 3795 557 3782 557 3648 
C 755 3648 1088 3686 1344 3839 
L 1344 461 
C 1344 236 1331 160 781 160 
L 589 160 
L 589 0 
C 896 0 1216 0 1523 0 
C 1830 0 2150 0 2458 0 
L 2458 160 
L 2266 160 
C 1715 160 1702 230 1702 458 
L 1702 4058 
z
" transform="scale(0.015625)"/>
      </defs>
      <use xlink:href="#CMR17-31" transform="scale(0.996264)"/>
      <use xlink:href="#CMR17-30" transform="translate(45.690477 0)scale(0.996264)"/>
      <use xlink:href="#CMR17-30" transform="translate(91.380954 0)scale(0.996264)"/>
      <use xlink:href="#CMR17-30" transform="translate(137.071431 0)scale(0.996264)"/>
     </g>
    </g>
   </g>
  </g>
 </g>
 <defs>
  <clipPath id="p65103033ce">
   <rect x="44.379643" y="21.808" width="68.481818" height="54.36"/>
  </clipPath>
  <clipPath id="pee08b982ae">
   <rect x="126.557825" y="21.808" width="68.481818" height="54.36"/>
  </clipPath>
 </defs>
</svg>
