<?xml version="1.0" encoding="utf-8" standalone="no"?>
<!DOCTYPE svg PUBLIC "-//W3C//DTD SVG 1.1//EN"
  "http://www.w3.org/Graphics/SVG/1.1/DTD/svg11.dtd">
<svg xmlns:xlink="http://www.w3.org/1999/xlink" width="180.530093pt" height="119.790625pt" viewBox="0 0 180.530093 119.790625" xmlns="http://www.w3.org/2000/svg" version="1.1">
 <metadata>
  <rdf:RDF xmlns:dc="http://purl.org/dc/elements/1.1/" xmlns:cc="http://creativecommons.org/ns#" xmlns:rdf="http://www.w3.org/1999/02/22-rdf-syntax-ns#">
   <cc:Work>
    <dc:type rdf:resource="http://purl.org/dc/dcmitype/StillImage"/>
    <dc:date>2022-08-02T15:08:08.673869</dc:date>
    <dc:format>image/svg+xml</dc:format>
    <dc:creator>
     <cc:Agent>
      <dc:title>Matplotlib v3.5.1, https://matplotlib.org/</dc:title>
     </cc:Agent>
    </dc:creator>
   </cc:Work>
  </rdf:RDF>
 </metadata>
 <defs>
  <style type="text/css">*{stroke-linejoin: round; stroke-linecap: butt}</style>
 </defs>
 <g id="figure_1">
  <g id="patch_1">
   <path d="M 0 119.790625 
L 180.530093 119.790625 
L 180.530093 0 
L 0 0 
L 0 119.790625 
z
" style="fill: none"/>
  </g>
  <g id="axes_1">
   <g id="patch_2">
    <path d="M 42.027031 80.82125 
L 173.330093 80.82125 
L 173.330093 7.2 
L 42.027031 7.2 
z
" style="fill: #ffffff"/>
   </g>
   <g id="matplotlib.axis_1">
    <g id="xtick_1">
     <g id="line2d_1">
      <defs>
       <path id="mc1f2359ad3" d="M 0 0 
L 0 3.5 
" style="stroke: #000000; stroke-width: 0.8"/>
      </defs>
      <g>
       <use xlink:href="#mc1f2359ad3" x="47.995352" y="80.82125" style="stroke: #000000; stroke-width: 0.8"/>
      </g>
     </g>
     <g id="text_1">
      <!-- 0 -->
      <g transform="translate(45.245352 95.455938)scale(0.11 -0.11)">
       <defs>
        <path id="CMUSerif-Roman-30" d="M 250 2048 
Q 250 2989 486 3501 
Q 819 4262 1600 4262 
Q 1766 4262 1939 4217 
Q 2112 4173 2333 4000 
Q 2554 3827 2688 3546 
Q 2944 3002 2944 2048 
Q 2944 1114 2707 602 
Q 2362 -141 1594 -141 
Q 1306 -141 1014 6 
Q 723 154 538 506 
Q 250 1037 250 2048 
z
M 781 2125 
Q 781 1158 851 774 
Q 928 358 1142 179 
Q 1357 0 1594 0 
Q 1850 0 2064 192 
Q 2278 384 2342 800 
Q 2413 1210 2413 2125 
Q 2413 3014 2349 3373 
Q 2266 3789 2042 3955 
Q 1818 4122 1594 4122 
Q 1510 4122 1420 4096 
Q 1331 4070 1203 4000 
Q 1075 3930 976 3750 
Q 877 3571 832 3302 
Q 781 2957 781 2125 
z
" transform="scale(0.015625)"/>
       </defs>
       <use xlink:href="#CMUSerif-Roman-30"/>
      </g>
     </g>
    </g>
    <g id="xtick_2">
     <g id="line2d_2">
      <g>
       <use xlink:href="#mc1f2359ad3" x="127.626053" y="80.82125" style="stroke: #000000; stroke-width: 0.8"/>
      </g>
     </g>
     <g id="text_2">
      <!-- 1000 -->
      <g transform="translate(116.626053 95.455938)scale(0.11 -0.11)">
       <defs>
        <path id="CMUSerif-Roman-31" d="M 570 3654 
L 570 3853 
Q 1338 3853 1734 4262 
Q 1843 4262 1862 4236 
Q 1882 4211 1882 4096 
L 1882 506 
Q 1882 314 1974 256 
Q 2067 198 2477 198 
L 2682 198 
L 2682 0 
Q 2458 19 1645 19 
Q 832 19 608 0 
L 608 198 
L 813 198 
Q 1216 198 1312 256 
Q 1408 314 1408 506 
L 1408 3821 
Q 1075 3654 570 3654 
z
" transform="scale(0.015625)"/>
       </defs>
       <use xlink:href="#CMUSerif-Roman-31"/>
       <use xlink:href="#CMUSerif-Roman-30" x="49.999985"/>
       <use xlink:href="#CMUSerif-Roman-30" x="99.999969"/>
       <use xlink:href="#CMUSerif-Roman-30" x="149.999954"/>
      </g>
     </g>
    </g>
    <g id="text_3">
     <!-- time [ms] -->
     <g transform="translate(85.359734 109.840625)scale(0.11 -0.11)">
      <defs>
       <path id="CMUSerif-Roman-74" d="M 122 2560 
L 122 2701 
Q 416 2714 611 2922 
Q 806 3130 873 3386 
Q 941 3642 947 3936 
L 1107 3936 
L 1107 2758 
L 2022 2758 
L 2022 2560 
L 1107 2560 
L 1107 781 
Q 1107 90 1536 90 
Q 1722 90 1843 278 
Q 1965 467 1965 806 
L 1965 1158 
L 2125 1158 
L 2125 794 
Q 2125 448 1965 189 
Q 1805 -70 1491 -70 
Q 1376 -70 1261 -41 
Q 1146 -13 998 64 
Q 851 141 758 329 
Q 666 518 666 794 
L 666 2560 
L 122 2560 
z
" transform="scale(0.015625)"/>
       <path id="CMUSerif-Roman-69" d="M 211 0 
L 211 198 
Q 550 198 630 240 
Q 710 282 710 486 
L 710 2208 
Q 710 2445 630 2502 
Q 550 2560 237 2560 
L 237 2758 
L 1133 2829 
L 1133 480 
Q 1133 288 1200 243 
Q 1267 198 1581 198 
L 1581 0 
Q 928 19 915 19 
Q 826 19 211 0 
z
M 480 3942 
Q 480 4070 579 4176 
Q 678 4282 819 4282 
Q 960 4282 1059 4186 
Q 1158 4090 1158 3942 
Q 1158 3795 1059 3699 
Q 960 3603 819 3603 
Q 672 3603 576 3705 
Q 480 3808 480 3942 
z
" transform="scale(0.015625)"/>
       <path id="CMUSerif-Roman-6d" d="M 205 0 
L 205 198 
Q 544 198 624 240 
Q 704 282 704 486 
L 704 2202 
Q 704 2438 621 2499 
Q 538 2560 205 2560 
L 205 2758 
L 1107 2829 
L 1107 2157 
Q 1408 2829 2054 2829 
Q 2803 2829 2906 2202 
Q 3014 2445 3244 2637 
Q 3475 2829 3834 2829 
Q 4314 2829 4506 2592 
Q 4646 2432 4675 2253 
Q 4704 2074 4704 1613 
L 4704 390 
Q 4710 256 4812 227 
Q 4915 198 5203 198 
L 5203 0 
Q 4550 19 4486 19 
Q 4435 19 3763 0 
L 3763 198 
Q 4102 198 4182 240 
Q 4262 282 4262 486 
L 4262 1978 
Q 4262 2304 4163 2496 
Q 4064 2688 3789 2688 
Q 3456 2688 3190 2409 
Q 2925 2131 2925 1664 
L 2925 486 
Q 2925 282 3005 240 
Q 3085 198 3424 198 
L 3424 0 
Q 2771 19 2707 19 
Q 2656 19 1984 0 
L 1984 198 
Q 2323 198 2403 240 
Q 2483 282 2483 486 
L 2483 1978 
Q 2483 2304 2384 2496 
Q 2285 2688 2010 2688 
Q 1677 2688 1411 2409 
Q 1146 2131 1146 1664 
L 1146 486 
Q 1146 282 1226 240 
Q 1306 198 1645 198 
L 1645 0 
Q 992 19 928 19 
Q 877 19 205 0 
z
" transform="scale(0.015625)"/>
       <path id="CMUSerif-Roman-65" d="M 179 1408 
Q 179 2010 566 2438 
Q 954 2867 1510 2867 
Q 2074 2867 2365 2502 
Q 2656 2138 2656 1613 
Q 2656 1517 2630 1497 
Q 2605 1478 2496 1478 
L 710 1478 
Q 710 826 902 518 
Q 1171 90 1626 90 
Q 1690 90 1763 102 
Q 1837 115 1990 169 
Q 2144 224 2278 371 
Q 2413 518 2490 749 
Q 2509 838 2573 838 
Q 2656 838 2656 762 
Q 2656 704 2595 579 
Q 2534 454 2419 304 
Q 2304 154 2080 42 
Q 1856 -70 1587 -70 
Q 1024 -70 601 355 
Q 179 781 179 1408 
z
M 717 1613 
L 2234 1613 
Q 2234 1747 2211 1897 
Q 2189 2048 2121 2256 
Q 2054 2464 1897 2595 
Q 1741 2726 1510 2726 
Q 1408 2726 1296 2681 
Q 1184 2637 1049 2531 
Q 915 2426 822 2186 
Q 730 1946 717 1613 
z
" transform="scale(0.015625)"/>
       <path id="CMUSerif-Roman-20" transform="scale(0.015625)"/>
       <path id="CMUSerif-Roman-5b" d="M 666 -1600 
L 666 4800 
L 1632 4800 
L 1632 4653 
L 1094 4653 
L 1094 -1453 
L 1632 -1453 
L 1632 -1600 
L 666 -1600 
z
" transform="scale(0.015625)"/>
       <path id="CMUSerif-Roman-73" d="M 211 83 
L 211 928 
Q 211 998 214 1024 
Q 218 1050 237 1069 
Q 256 1088 294 1088 
Q 339 1088 355 1069 
Q 371 1050 384 979 
Q 480 538 688 304 
Q 896 70 1274 70 
Q 1632 70 1814 230 
Q 1997 390 1997 653 
Q 1997 1120 1331 1242 
Q 947 1318 787 1369 
Q 627 1421 486 1536 
Q 211 1760 211 2080 
Q 211 2400 454 2633 
Q 698 2867 1235 2867 
Q 1594 2867 1837 2688 
Q 1907 2746 1946 2790 
Q 2029 2867 2074 2867 
Q 2125 2867 2134 2835 
Q 2144 2803 2144 2714 
L 2144 2067 
Q 2144 1997 2141 1971 
Q 2138 1946 2118 1930 
Q 2099 1914 2061 1914 
Q 1990 1914 1984 1971 
Q 1933 2746 1235 2746 
Q 858 2746 688 2602 
Q 518 2458 518 2259 
Q 518 2150 569 2067 
Q 621 1984 688 1936 
Q 755 1888 880 1843 
Q 1005 1798 1081 1782 
Q 1158 1766 1306 1734 
Q 1818 1638 2035 1427 
Q 2304 1158 2304 819 
Q 2304 442 2048 186 
Q 1792 -70 1274 -70 
Q 858 -70 570 205 
Q 531 166 502 134 
Q 474 102 464 89 
Q 454 77 451 70 
Q 448 64 442 58 
Q 314 -70 282 -70 
Q 230 -70 220 -38 
Q 211 -6 211 83 
z
" transform="scale(0.015625)"/>
       <path id="CMUSerif-Roman-5d" d="M 134 -1453 
L 672 -1453 
L 672 4653 
L 134 4653 
L 134 4800 
L 1101 4800 
L 1101 -1600 
L 134 -1600 
L 134 -1453 
z
" transform="scale(0.015625)"/>
      </defs>
      <use xlink:href="#CMUSerif-Roman-74"/>
      <use xlink:href="#CMUSerif-Roman-69" x="38.799988"/>
      <use xlink:href="#CMUSerif-Roman-6d" x="66.499985"/>
      <use xlink:href="#CMUSerif-Roman-65" x="149.799973"/>
      <use xlink:href="#CMUSerif-Roman-20" x="194.199966"/>
      <use xlink:href="#CMUSerif-Roman-5b" x="227.499954"/>
      <use xlink:href="#CMUSerif-Roman-6d" x="255.299942"/>
      <use xlink:href="#CMUSerif-Roman-73" x="338.59993"/>
      <use xlink:href="#CMUSerif-Roman-5d" x="377.999924"/>
     </g>
    </g>
   </g>
   <g id="matplotlib.axis_2">
    <g id="ytick_1">
     <g id="line2d_3">
      <defs>
       <path id="m225addd2d9" d="M 0 0 
L -3.5 0 
" style="stroke: #000000; stroke-width: 0.8"/>
      </defs>
      <g>
       <use xlink:href="#m225addd2d9" x="42.027031" y="72.067739" style="stroke: #000000; stroke-width: 0.8"/>
      </g>
     </g>
     <g id="text_4">
      <!-- 0.5 -->
      <g transform="translate(20.969375 75.885082)scale(0.11 -0.11)">
       <defs>
        <path id="CMUSerif-Roman-2e" d="M 640 102 
Q 544 205 544 339 
Q 544 474 640 573 
Q 736 672 883 672 
Q 1024 672 1120 579 
Q 1216 486 1216 339 
Q 1216 192 1113 96 
Q 1011 0 883 0 
Q 736 0 640 102 
z
" transform="scale(0.015625)"/>
        <path id="CMUSerif-Roman-35" d="M 320 1030 
Q 320 1222 422 1296 
Q 525 1370 634 1370 
Q 781 1370 867 1277 
Q 954 1184 954 1056 
Q 954 928 867 835 
Q 781 742 634 742 
Q 563 742 525 755 
Q 608 461 867 249 
Q 1126 38 1466 38 
Q 1894 38 2150 454 
Q 2304 723 2304 1331 
Q 2304 1869 2189 2138 
Q 2010 2547 1645 2547 
Q 1126 2547 819 2099 
Q 781 2042 736 2042 
Q 672 2042 659 2077 
Q 646 2112 646 2208 
L 646 4102 
Q 646 4256 710 4256 
Q 736 4256 787 4237 
Q 1190 4058 1638 4058 
Q 2099 4058 2509 4243 
Q 2541 4262 2560 4262 
Q 2624 4262 2624 4192 
Q 2624 4166 2573 4092 
Q 2522 4019 2413 3923 
Q 2304 3827 2163 3737 
Q 2022 3648 1817 3587 
Q 1613 3526 1389 3526 
Q 1120 3526 845 3610 
L 845 2362 
Q 1178 2688 1658 2688 
Q 2170 2688 2522 2275 
Q 2874 1862 2874 1286 
Q 2874 685 2458 272 
Q 2042 -141 1478 -141 
Q 966 -141 643 224 
Q 320 589 320 1030 
z
" transform="scale(0.015625)"/>
       </defs>
       <use xlink:href="#CMUSerif-Roman-30"/>
       <use xlink:href="#CMUSerif-Roman-2e" x="49.999985"/>
       <use xlink:href="#CMUSerif-Roman-35" x="77.799973"/>
      </g>
     </g>
    </g>
    <g id="ytick_2">
     <g id="line2d_4">
      <g>
       <use xlink:href="#m225addd2d9" x="42.027031" y="49.777079" style="stroke: #000000; stroke-width: 0.8"/>
      </g>
     </g>
     <g id="text_5">
      <!-- 0.6 -->
      <g transform="translate(20.969375 53.594423)scale(0.11 -0.11)">
       <defs>
        <path id="CMUSerif-Roman-36" d="M 269 2022 
Q 269 3027 781 3644 
Q 1293 4262 1952 4262 
Q 2336 4262 2550 4067 
Q 2765 3872 2765 3571 
Q 2765 3405 2669 3334 
Q 2573 3264 2470 3264 
Q 2355 3264 2265 3341 
Q 2176 3418 2176 3558 
Q 2176 3846 2528 3846 
Q 2362 4102 1965 4102 
Q 1843 4102 1718 4067 
Q 1594 4032 1430 3913 
Q 1267 3795 1142 3606 
Q 1018 3418 931 3066 
Q 845 2714 845 2253 
L 845 2099 
Q 1107 2733 1644 2733 
Q 2182 2733 2553 2323 
Q 2925 1914 2925 1306 
Q 2925 685 2537 272 
Q 2150 -141 1606 -141 
Q 1363 -141 1142 -38 
Q 922 64 717 294 
Q 512 525 390 969 
Q 269 1414 269 2022 
z
M 858 1446 
Q 858 819 973 518 
Q 992 467 1033 400 
Q 1075 333 1148 243 
Q 1222 154 1344 96 
Q 1466 38 1606 38 
Q 2035 38 2240 454 
Q 2349 685 2349 1312 
Q 2349 1952 2234 2189 
Q 2035 2586 1638 2586 
Q 1370 2586 1184 2400 
Q 998 2214 928 1968 
Q 858 1722 858 1446 
z
" transform="scale(0.015625)"/>
       </defs>
       <use xlink:href="#CMUSerif-Roman-30"/>
       <use xlink:href="#CMUSerif-Roman-2e" x="49.999985"/>
       <use xlink:href="#CMUSerif-Roman-36" x="77.799973"/>
      </g>
     </g>
    </g>
    <g id="ytick_3">
     <g id="line2d_5">
      <g>
       <use xlink:href="#m225addd2d9" x="42.027031" y="27.48642" style="stroke: #000000; stroke-width: 0.8"/>
      </g>
     </g>
     <g id="text_6">
      <!-- 0.7 -->
      <g transform="translate(20.969375 31.303763)scale(0.11 -0.11)">
       <defs>
        <path id="CMUSerif-Roman-37" d="M 358 3008 
L 570 4326 
L 730 4326 
Q 749 4250 781 4214 
Q 813 4179 995 4150 
Q 1178 4122 1549 4122 
L 3104 4122 
Q 3104 3974 3046 3898 
L 2182 2682 
Q 1907 2298 1786 1587 
Q 1715 1114 1715 538 
L 1715 211 
Q 1715 -141 1420 -141 
Q 1126 -141 1126 211 
Q 1126 1434 1914 2618 
Q 1997 2739 2307 3174 
Q 2618 3610 2630 3629 
L 1306 3629 
Q 723 3629 678 3590 
Q 614 3533 518 3008 
L 358 3008 
z
" transform="scale(0.015625)"/>
       </defs>
       <use xlink:href="#CMUSerif-Roman-30"/>
       <use xlink:href="#CMUSerif-Roman-2e" x="49.999985"/>
       <use xlink:href="#CMUSerif-Roman-37" x="77.799973"/>
      </g>
     </g>
    </g>
    <g id="text_7">
     <!-- y -->
     <g transform="translate(14.714375 46.909297)rotate(-90)scale(0.11 -0.11)">
      <defs>
       <path id="CMUSerif-Roman-79" d="M 122 -794 
Q 122 -659 202 -588 
Q 282 -518 390 -518 
Q 506 -518 582 -592 
Q 659 -666 659 -787 
Q 659 -1024 410 -1056 
Q 531 -1171 710 -1171 
Q 902 -1171 1056 -1030 
Q 1210 -890 1277 -755 
Q 1344 -621 1440 -378 
Q 1530 -186 1600 0 
L 640 2336 
Q 576 2490 480 2525 
Q 384 2560 122 2560 
L 122 2758 
Q 410 2739 742 2739 
Q 941 2739 1440 2758 
L 1440 2560 
Q 1082 2560 1082 2394 
Q 1082 2374 1120 2278 
L 1830 557 
L 2477 2131 
Q 2515 2221 2515 2285 
Q 2515 2547 2214 2560 
L 2214 2758 
Q 2637 2739 2771 2739 
Q 3034 2739 3251 2758 
L 3251 2560 
Q 2822 2560 2656 2150 
L 1530 -582 
Q 1222 -1312 710 -1312 
Q 467 -1312 294 -1161 
Q 122 -1011 122 -794 
z
" transform="scale(0.015625)"/>
      </defs>
      <use xlink:href="#CMUSerif-Roman-79"/>
     </g>
    </g>
   </g>
   <g id="line2d_6">
    <path d="M 42.027031 38.631749 
L 173.330093 38.631749 
" clip-path="url(#p58cfe7ab49)" style="fill: none; stroke-dasharray: 5.55,2.4; stroke-dashoffset: 0; stroke: #808080; stroke-width: 1.5"/>
   </g>
   <g id="line2d_7">
    <path d="M 47.995352 72.067739 
L 49.269443 72.181224 
L 51.499103 72.38129 
L 52.693564 72.257312 
L 53.888024 71.901275 
L 55.082485 71.298635 
L 56.356576 70.389282 
L 57.710298 69.143526 
L 59.302912 67.354213 
L 61.134418 64.941214 
L 63.443708 61.499676 
L 66.788198 56.060239 
L 74.193853 43.921059 
L 77.379081 39.179901 
L 80.245786 35.292271 
L 83.03286 31.884591 
L 85.740304 28.928389 
L 88.368117 26.382731 
L 90.99593 24.138095 
L 93.703374 22.116762 
L 96.490449 20.316661 
L 99.357154 18.730647 
L 102.383121 17.313366 
L 105.568349 16.067918 
L 108.992469 14.968273 
L 112.735112 14.001823 
L 116.875908 13.164485 
L 121.574119 12.445545 
L 126.989007 11.84606 
L 133.518724 11.355058 
L 141.641056 10.976804 
L 152.550462 10.704822 
L 167.361772 10.54642 
L 167.361772 10.54642 
" clip-path="url(#p58cfe7ab49)" style="fill: none; stroke: #000000; stroke-width: 1.5; stroke-linecap: square"/>
   </g>
   <g id="line2d_8">
    <path d="M 47.995352 72.067739 
L 48.632398 72.178781 
L 49.428705 72.562393 
L 50.543535 73.371754 
L 54.365808 76.345745 
L 55.639899 76.983159 
L 56.83436 77.345041 
L 58.02882 77.474339 
L 59.223281 77.378812 
L 60.497372 77.046115 
L 61.851094 76.457219 
L 63.364077 75.549377 
L 65.115953 74.224717 
L 67.186351 72.365703 
L 69.814164 69.69127 
L 74.114222 64.944664 
L 80.325417 58.134846 
L 84.06806 54.374397 
L 87.412549 51.324223 
L 90.597777 48.713561 
L 93.783005 46.391009 
L 96.968233 44.345761 
L 100.233092 42.518334 
L 103.577581 40.904107 
L 107.081332 39.463237 
L 110.744344 38.196998 
L 114.725879 37.059755 
L 119.025937 36.066382 
L 123.803779 35.196269 
L 129.139036 34.454684 
L 135.350231 33.82362 
L 142.676255 33.31078 
L 151.754155 32.907918 
L 163.69876 32.613223 
L 167.361772 32.556288 
L 167.361772 32.556288 
" clip-path="url(#p58cfe7ab49)" style="fill: none; stroke: #cccccc; stroke-width: 1.5; stroke-linecap: square"/>
   </g>
   <g id="patch_3">
    <path d="M 42.027031 80.82125 
L 42.027031 7.2 
" style="fill: none; stroke: #000000; stroke-width: 0.8; stroke-linejoin: miter; stroke-linecap: square"/>
   </g>
   <g id="patch_4">
    <path d="M 42.027031 80.82125 
L 173.330093 80.82125 
" style="fill: none; stroke: #000000; stroke-width: 0.8; stroke-linejoin: miter; stroke-linecap: square"/>
   </g>
  </g>
 </g>
 <defs>
  <clipPath id="p58cfe7ab49">
   <rect x="42.027031" y="7.2" width="131.303062" height="73.62125"/>
  </clipPath>
 </defs>
</svg>
