<?xml version="1.0" encoding="UTF-8" standalone="no"?>
<svg
   xmlns:dc="http://purl.org/dc/elements/1.1/"
   xmlns:cc="http://creativecommons.org/ns#"
   xmlns:rdf="http://www.w3.org/1999/02/22-rdf-syntax-ns#"
   xmlns:svg="http://www.w3.org/2000/svg"
   xmlns="http://www.w3.org/2000/svg"
   xmlns:xlink="http://www.w3.org/1999/xlink"
   xmlns:sodipodi="http://sodipodi.sourceforge.net/DTD/sodipodi-0.dtd"
   xmlns:inkscape="http://www.inkscape.org/namespaces/inkscape"
   width="170.64pt"
   height="134.64pt"
   viewBox="0 0 170.64 134.64"
   version="1.1"
   id="svg326"
   sodipodi:docname="mid170delay700.svg"
   inkscape:version="0.92.5 (2060ec1f9f, 2020-04-08)">
  <sodipodi:namedview
     pagecolor="#ffffff"
     bordercolor="#666666"
     borderopacity="1"
     objecttolerance="10"
     gridtolerance="10"
     guidetolerance="10"
     inkscape:pageopacity="0"
     inkscape:pageshadow="2"
     inkscape:window-width="1920"
     inkscape:window-height="1018"
     id="namedview328"
     showgrid="false"
     inkscape:zoom="1.8591489"
     inkscape:cx="-68.276133"
     inkscape:cy="76.984151"
     inkscape:window-x="1920"
     inkscape:window-y="34"
     inkscape:window-maximized="1"
     inkscape:current-layer="svg326" />
  <metadata
     id="metadata2">
    <rdf:RDF>
      <cc:Work>
        <dc:type
           rdf:resource="http://purl.org/dc/dcmitype/StillImage" />
        <dc:date>2022-10-21T16:57:53.766529</dc:date>
        <dc:format>image/svg+xml</dc:format>
        <dc:creator>
          <cc:Agent>
            <dc:title>Matplotlib v3.5.1, https://matplotlib.org/</dc:title>
          </cc:Agent>
        </dc:creator>
      </cc:Work>
    </rdf:RDF>
  </metadata>
  <defs
     id="defs6">
    <style
       type="text/css"
       id="style4">*{stroke-linejoin: round; stroke-linecap: butt}</style>
    <defs
       id="defs228">
      <path
         inkscape:connector-curvature="0"
         style="stroke:#696969;stroke-linecap:butt;stroke-linejoin:round"
         d="M 0,2 C 0.530406,2 1.03916,1.789267 1.414214,1.414214 1.789267,1.03916 2,0.530406 2,0 2,-0.530406 1.789267,-1.03916 1.414214,-1.414214 1.03916,-1.789267 0.530406,-2 0,-2 -0.530406,-2 -1.03916,-1.789267 -1.414214,-1.414214 -1.789267,-1.03916 -2,-0.530406 -2,0 -2,0.530406 -1.789267,1.03916 -1.414214,1.414214 -1.03916,1.789267 -0.530406,2 0,2 Z"
         id="me131917133" />
    </defs>
  </defs>
  <g
     style="stroke-linecap:butt;stroke-linejoin:round"
     id="patch_1">
    <path
       inkscape:connector-curvature="0"
       id="path8"
       style="fill:#ffffff;stroke-linecap:butt;stroke-linejoin:round"
       d="M 0,134.64 H 170.64 V 0 H 0 Z" />
  </g>
  <g
     id="patch_2"
     style="stroke-linecap:butt;stroke-linejoin:round">
    <path
       d="M 45.597306,95.739855 H 163.44 V 22.332395 H 45.597306 Z"
       style="fill:#ffffff;stroke-linecap:butt;stroke-linejoin:round"
       id="path11"
       inkscape:connector-curvature="0" />
  </g>
  <g
     id="matplotlib.axis_1"
     style="stroke-linecap:butt;stroke-linejoin:round">
    <g
       id="xtick_1"
       style="stroke-linecap:butt;stroke-linejoin:round">
      <g
         id="line2d_1"
         style="stroke-linecap:butt;stroke-linejoin:round">
        <defs
           id="defs15">
          <path
             id="m2cd9f2a769"
             d="M 0,0 V 3.5"
             style="stroke:#262626;stroke-width:0.80000001;stroke-linecap:butt;stroke-linejoin:round"
             inkscape:connector-curvature="0" />
        </defs>
        <g
           id="g19"
           style="stroke-linecap:butt;stroke-linejoin:round">
          <use
             xlink:href="#m2cd9f2a769"
             x="83.092712"
             y="95.739853"
             style="fill:#262626;stroke:#262626;stroke-width:0.80000001;stroke-linecap:butt;stroke-linejoin:round"
             id="use17"
             width="100%"
             height="100%" />
        </g>
      </g>
      <g
         id="text_1"
         style="stroke-linecap:butt;stroke-linejoin:round">
        <!-- $\mathdefault{600}$ -->
        <g
           style="fill:#262626;stroke-linecap:butt;stroke-linejoin:round"
           transform="matrix(0.11,0,0,-0.11,74.873508,110.3502)"
           id="g32">
          <defs
             id="defs24">
            <path
               id="CMR17-36"
               d="m 678,2176 c 0,1514 717,1856 1133,1856 135,0 461,-23 589,-256 -102,0 -294,0 -294,-223 0,-172 140,-230 230,-230 58,0 230,25 230,237 0,394 -320,619 -761,619 -762,0 -1562,-789 -1562,-2195 0,-1731 723,-2112 1235,-2112 621,0 1210,555 1210,1411 0,798 -518,1379 -1171,1379 -391,0 -679,-255 -839,-702 z M 1478,25 c -787,0 -787,1175 -787,1411 0,460 218,1124 813,1124 109,0 422,0 634,-440 115,-250 115,-511 115,-831 0,-345 0,-599 -135,-855 C 1978,171 1773,25 1478,25 Z"
               transform="scale(0.015625)"
               inkscape:connector-curvature="0"
               style="stroke-linecap:butt;stroke-linejoin:round" />
            <path
               id="CMR17-30"
               d="m 2688,2025 c 0,391 -6,1055 -275,1566 -237,448 -615,607 -947,607 -308,0 -698,-140 -941,-601 C 269,3118 243,2524 243,2025 c 0,-364 7,-919 205,-1406 275,-658 768,-747 1018,-747 294,0 742,121 1004,728 192,442 218,959 218,1425 z M 1466,-26 c -410,0 -653,351 -743,838 -70,376 -70,926 -70,1284 0,492 0,901 83,1291 122,542 480,709 730,709 262,0 601,-173 723,-696 83,-364 89,-793 89,-1304 0,-416 0,-927 -76,-1304 C 2067,95 1690,-26 1466,-26 Z"
               transform="scale(0.015625)"
               inkscape:connector-curvature="0"
               style="stroke-linecap:butt;stroke-linejoin:round" />
          </defs>
          <use
             xlink:href="#CMR17-36"
             transform="scale(0.996264)"
             id="use26"
             style="stroke-linecap:butt;stroke-linejoin:round"
             x="0"
             y="0"
             width="100%"
             height="100%" />
          <use
             xlink:href="#CMR17-30"
             transform="matrix(0.996264,0,0,0.996264,45.690477,0)"
             id="use28"
             style="stroke-linecap:butt;stroke-linejoin:round"
             x="0"
             y="0"
             width="100%"
             height="100%" />
          <use
             xlink:href="#CMR17-30"
             transform="matrix(0.996264,0,0,0.996264,91.380954,0)"
             id="use30"
             style="stroke-linecap:butt;stroke-linejoin:round"
             x="0"
             y="0"
             width="100%"
             height="100%" />
        </g>
      </g>
    </g>
    <g
       id="xtick_2"
       style="stroke-linecap:butt;stroke-linejoin:round">
      <g
         id="line2d_2"
         style="stroke-linecap:butt;stroke-linejoin:round">
        <g
           id="g38"
           style="stroke-linecap:butt;stroke-linejoin:round">
          <use
             xlink:href="#m2cd9f2a769"
             x="125.9446"
             y="95.739853"
             style="fill:#262626;stroke:#262626;stroke-width:0.80000001;stroke-linecap:butt;stroke-linejoin:round"
             id="use36"
             width="100%"
             height="100%" />
        </g>
      </g>
      <g
         id="text_2"
         style="stroke-linecap:butt;stroke-linejoin:round">
        <!-- $\mathdefault{800}$ -->
        <g
           style="fill:#262626;stroke-linecap:butt;stroke-linejoin:round"
           transform="matrix(0.11,0,0,-0.11,117.7254,110.3502)"
           id="g50">
          <defs
             id="defs42">
            <path
               id="CMR17-38"
               d="m 1741,2264 c 403,203 813,509 813,999 0,578 -564,916 -1082,916 -582,0 -1094,-420 -1094,-999 0,-159 38,-433 288,-675 64,-63 332,-254 505,-375 C 883,1983 211,1634 211,934 211,279 838,-128 1459,-128 c 685,0 1261,490 1261,1138 0,580 -390,847 -646,1019 z m -839,558 c -51,32 -307,229 -307,529 0,388 403,681 864,681 506,0 877,-356 877,-770 0,-593 -666,-931 -698,-931 -6,0 -12,0 -64,39 z M 2080,1519 c 96,-70 403,-279 403,-668 C 2483,381 2010,25 1472,25 890,25 448,438 448,940 c 0,503 390,922 832,1120 z"
               transform="scale(0.015625)"
               inkscape:connector-curvature="0"
               style="stroke-linecap:butt;stroke-linejoin:round" />
          </defs>
          <use
             xlink:href="#CMR17-38"
             transform="scale(0.996264)"
             id="use44"
             style="stroke-linecap:butt;stroke-linejoin:round"
             x="0"
             y="0"
             width="100%"
             height="100%" />
          <use
             xlink:href="#CMR17-30"
             transform="matrix(0.996264,0,0,0.996264,45.690477,0)"
             id="use46"
             style="stroke-linecap:butt;stroke-linejoin:round"
             x="0"
             y="0"
             width="100%"
             height="100%" />
          <use
             xlink:href="#CMR17-30"
             transform="matrix(0.996264,0,0,0.996264,91.380954,0)"
             id="use48"
             style="stroke-linecap:butt;stroke-linejoin:round"
             x="0"
             y="0"
             width="100%"
             height="100%" />
        </g>
      </g>
    </g>
    <g
       id="text_3"
       style="stroke-linecap:butt;stroke-linejoin:round">
      <!-- stimulus [ms] -->
      <g
         style="fill:#262626;stroke-linecap:butt;stroke-linejoin:round"
         transform="matrix(0.11,0,0,-0.11,72.920426,124.70027)"
         id="g88">
        <defs
           id="defs62">
          <path
             id="CMR17-73"
             d="m 1978,2697 c 0,116 -7,122 -45,122 -26,0 -32,-6 -109,-102 -19,-26 -77,-91 -96,-116 -205,218 -493,218 -602,218 -710,0 -966,-372 -966,-743 0,-578 653,-711 838,-751 404,-82 544,-108 679,-224 83,-76 224,-217 224,-447 0,-270 -154,-616 -743,-616 -556,0 -755,422 -870,983 -19,89 -19,96 -70,96 -52,0 -58,-7 -58,-134 V 63 c 0,-114 6,-121 45,-121 32,0 38,7 70,58 39,57 135,211 173,276 128,-173 352,-340 710,-340 634,0 973,347 973,848 0,328 -173,501 -256,578 -192,199 -416,244 -685,295 -352,78 -800,168 -800,560 0,166 90,520 736,520 685,0 724,-643 736,-849 7,-32 39,-39 58,-39 58,0 58,20 58,129 z"
             transform="scale(0.015625)"
             inkscape:connector-curvature="0"
             style="stroke-linecap:butt;stroke-linejoin:round" />
          <path
             id="CMR17-74"
             d="m 966,2560 h 896 v 165 H 966 V 3904 H 851 C 838,3245 614,2668 70,2668 V 2560 H 627 V 771 c 0,-121 0,-835 743,-835 377,0 595,370 595,841 v 363 H 1850 V 783 C 1850,344 1677,51 1408,51 1222,51 966,178 966,758 Z"
             transform="scale(0.015625)"
             inkscape:connector-curvature="0"
             style="stroke-linecap:butt;stroke-linejoin:round" />
          <path
             id="CMR17-69"
             d="m 992,3909 c 0,140 -115,261 -262,261 -141,0 -263,-114 -263,-261 0,-140 115,-261 263,-261 140,0 262,115 262,261 z M 243,2706 v -165 c 359,0 410,-39 410,-344 V 427 C 653,184 627,153 218,153 V -13 C 371,0 646,0 806,0 c 154,0 416,0 564,-13 v 166 c -378,0 -391,38 -391,267 v 2356 z"
             transform="scale(0.015625)"
             inkscape:connector-curvature="0"
             style="stroke-linecap:butt;stroke-linejoin:round" />
          <path
             id="CMR17-6d"
             d="m 4326,1933 c 0,319 -57,857 -819,857 -435,0 -736,-294 -851,-639 h -6 c -77,525 -455,639 -813,639 -506,0 -768,-390 -864,-646 h -7 v 646 l -755,-70 v -166 c 378,0 435,-39 435,-346 V 428 C 646,184 621,153 211,153 V -13 C 365,0 646,0 813,0 c 166,0 454,0 608,-13 v 166 c -410,0 -435,25 -435,275 v 1230 c 0,589 358,1030 806,1030 474,0 525,-422 525,-730 V 428 c 0,-244 -26,-275 -435,-275 V -13 c 153,13 435,13 601,13 167,0 455,0 608,-13 v 166 c -409,0 -435,25 -435,275 v 1230 c 0,589 358,1030 806,1030 474,0 525,-422 525,-730 V 428 c 0,-244 -25,-275 -435,-275 V -13 c 154,13 435,13 602,13 166,0 454,0 608,-13 v 166 c -410,0 -436,25 -436,275 z"
             transform="scale(0.015625)"
             inkscape:connector-curvature="0"
             style="stroke-linecap:butt;stroke-linejoin:round" />
          <path
             id="CMR17-75"
             d="m 1882,2693 v -165 c 377,0 435,-39 435,-342 V 1032 C 2317,500 2029,38 1555,38 1030,38 986,348 986,678 v 2085 l -775,-70 v -165 c 256,0 429,0 435,-254 V 1058 c 0,-425 0,-697 167,-875 83,-82 243,-247 704,-247 544,0 755,441 806,570 h 7 V -63 h 761 v 191 c -377,0 -435,38 -435,345 v 2290 z"
             transform="scale(0.015625)"
             inkscape:connector-curvature="0"
             style="stroke-linecap:butt;stroke-linejoin:round" />
          <path
             id="CMR17-6c"
             d="m 979,4396 -761,-70 v -166 c 377,0 435,-38 435,-343 V 426 C 653,184 627,153 218,153 V -13 C 371,0 653,0 813,0 c 166,0 448,0 601,-13 v 166 c -409,0 -435,25 -435,273 z"
             transform="scale(0.015625)"
             inkscape:connector-curvature="0"
             style="stroke-linecap:butt;stroke-linejoin:round" />
          <path
             id="CMR17-5b"
             d="m 1504,-1600 v 223 H 902 v 5921 h 602 v 223 H 678 v -6367 z"
             transform="scale(0.015625)"
             inkscape:connector-curvature="0"
             style="stroke-linecap:butt;stroke-linejoin:round" />
          <path
             id="CMR17-5d"
             d="M 915,4767 H 90 V 4544 H 691 V -1377 H 90 v -223 h 825 z"
             transform="scale(0.015625)"
             inkscape:connector-curvature="0"
             style="stroke-linecap:butt;stroke-linejoin:round" />
        </defs>
        <use
           xlink:href="#CMR17-73"
           transform="scale(0.996264)"
           id="use64"
           style="stroke-linecap:butt;stroke-linejoin:round"
           x="0"
           y="0"
           width="100%"
           height="100%" />
        <use
           xlink:href="#CMR17-74"
           transform="matrix(0.996264,0,0,0.996264,35.801338,0)"
           id="use66"
           style="stroke-linecap:butt;stroke-linejoin:round"
           x="0"
           y="0"
           width="100%"
           height="100%" />
        <use
           xlink:href="#CMR17-69"
           transform="matrix(0.996264,0,0,0.996264,71.082105,0)"
           id="use68"
           style="stroke-linecap:butt;stroke-linejoin:round"
           x="0"
           y="0"
           width="100%"
           height="100%" />
        <use
           xlink:href="#CMR17-6d"
           transform="matrix(0.996264,0,0,0.996264,95.953164,0)"
           id="use70"
           style="stroke-linecap:butt;stroke-linejoin:round"
           x="0"
           y="0"
           width="100%"
           height="100%" />
        <use
           xlink:href="#CMR17-75"
           transform="matrix(0.996264,0,0,0.996264,170.2703,0)"
           id="use72"
           style="stroke-linecap:butt;stroke-linejoin:round"
           x="0"
           y="0"
           width="100%"
           height="100%" />
        <use
           xlink:href="#CMR17-6c"
           transform="matrix(0.996264,0,0,0.996264,221.16567,0)"
           id="use74"
           style="stroke-linecap:butt;stroke-linejoin:round"
           x="0"
           y="0"
           width="100%"
           height="100%" />
        <use
           xlink:href="#CMR17-75"
           transform="matrix(0.996264,0,0,0.996264,246.03673,0)"
           id="use76"
           style="stroke-linecap:butt;stroke-linejoin:round"
           x="0"
           y="0"
           width="100%"
           height="100%" />
        <use
           xlink:href="#CMR17-73"
           transform="matrix(0.996264,0,0,0.996264,296.9321,0)"
           id="use78"
           style="stroke-linecap:butt;stroke-linejoin:round"
           x="0"
           y="0"
           width="100%"
           height="100%" />
        <use
           xlink:href="#CMR17-5b"
           transform="matrix(0.996264,0,0,0.996264,362.8094,0)"
           id="use80"
           style="stroke-linecap:butt;stroke-linejoin:round"
           x="0"
           y="0"
           width="100%"
           height="100%" />
        <use
           xlink:href="#CMR17-6d"
           transform="matrix(0.996264,0,0,0.996264,387.68046,0)"
           id="use82"
           style="stroke-linecap:butt;stroke-linejoin:round"
           x="0"
           y="0"
           width="100%"
           height="100%" />
        <use
           xlink:href="#CMR17-73"
           transform="matrix(0.996264,0,0,0.996264,464.60005,0)"
           id="use84"
           style="stroke-linecap:butt;stroke-linejoin:round"
           x="0"
           y="0"
           width="100%"
           height="100%" />
        <use
           xlink:href="#CMR17-5d"
           transform="matrix(0.996264,0,0,0.996264,500.40139,0)"
           id="use86"
           style="stroke-linecap:butt;stroke-linejoin:round"
           x="0"
           y="0"
           width="100%"
           height="100%" />
      </g>
    </g>
  </g>
  <g
     id="matplotlib.axis_2"
     style="stroke-linecap:butt;stroke-linejoin:round">
    <g
       id="ytick_1"
       style="stroke-linecap:butt;stroke-linejoin:round">
      <g
         id="line2d_3"
         style="stroke-linecap:butt;stroke-linejoin:round">
        <defs
           id="defs93">
          <path
             id="maba692e1c5"
             d="M 0,0 H -3.5"
             style="stroke:#262626;stroke-width:0.80000001;stroke-linecap:butt;stroke-linejoin:round"
             inkscape:connector-curvature="0" />
        </defs>
        <g
           id="g97"
           style="stroke-linecap:butt;stroke-linejoin:round">
          <use
             xlink:href="#maba692e1c5"
             x="45.597305"
             y="72.382935"
             style="fill:#262626;stroke:#262626;stroke-width:0.80000001;stroke-linecap:butt;stroke-linejoin:round"
             id="use95"
             width="100%"
             height="100%" />
        </g>
      </g>
      <g
         id="text_4"
         style="stroke-linecap:butt;stroke-linejoin:round">
        <!-- $\mathdefault{600}$ -->
        <g
           style="fill:#262626;stroke-linecap:butt;stroke-linejoin:round"
           transform="matrix(0.11,0,0,-0.11,22.158904,76.188109)"
           id="g106">
          <use
             xlink:href="#CMR17-36"
             transform="scale(0.996264)"
             id="use100"
             style="stroke-linecap:butt;stroke-linejoin:round"
             x="0"
             y="0"
             width="100%"
             height="100%" />
          <use
             xlink:href="#CMR17-30"
             transform="matrix(0.996264,0,0,0.996264,45.690477,0)"
             id="use102"
             style="stroke-linecap:butt;stroke-linejoin:round"
             x="0"
             y="0"
             width="100%"
             height="100%" />
          <use
             xlink:href="#CMR17-30"
             transform="matrix(0.996264,0,0,0.996264,91.380954,0)"
             id="use104"
             style="stroke-linecap:butt;stroke-linejoin:round"
             x="0"
             y="0"
             width="100%"
             height="100%" />
        </g>
      </g>
    </g>
    <g
       id="ytick_2"
       style="stroke-linecap:butt;stroke-linejoin:round">
      <g
         id="line2d_4"
         style="stroke-linecap:butt;stroke-linejoin:round">
        <g
           id="g112"
           style="stroke-linecap:butt;stroke-linejoin:round">
          <use
             xlink:href="#maba692e1c5"
             x="45.597305"
             y="45.689316"
             style="fill:#262626;stroke:#262626;stroke-width:0.80000001;stroke-linecap:butt;stroke-linejoin:round"
             id="use110"
             width="100%"
             height="100%" />
        </g>
      </g>
      <g
         id="text_5"
         style="stroke-linecap:butt;stroke-linejoin:round">
        <!-- $\mathdefault{800}$ -->
        <g
           style="fill:#262626;stroke-linecap:butt;stroke-linejoin:round"
           transform="matrix(0.11,0,0,-0.11,22.158904,49.494487)"
           id="g121">
          <use
             xlink:href="#CMR17-38"
             transform="scale(0.996264)"
             id="use115"
             style="stroke-linecap:butt;stroke-linejoin:round"
             x="0"
             y="0"
             width="100%"
             height="100%" />
          <use
             xlink:href="#CMR17-30"
             transform="matrix(0.996264,0,0,0.996264,45.690477,0)"
             id="use117"
             style="stroke-linecap:butt;stroke-linejoin:round"
             x="0"
             y="0"
             width="100%"
             height="100%" />
          <use
             xlink:href="#CMR17-30"
             transform="matrix(0.996264,0,0,0.996264,91.380954,0)"
             id="use119"
             style="stroke-linecap:butt;stroke-linejoin:round"
             x="0"
             y="0"
             width="100%"
             height="100%" />
        </g>
      </g>
    </g>
    <g
       id="text_6"
       style="stroke-linecap:butt;stroke-linejoin:round">
      <!-- reproduction [ms] -->
      <g
         style="fill:#262626;stroke-linecap:butt;stroke-linejoin:round"
         transform="matrix(0,-0.11,-0.11,0,15.419178,101.25845)"
         id="g166">
        <defs
           id="defs132">
          <path
             id="CMR17-72"
             d="m 960,1497 c 0,615 262,1191 742,1191 45,0 90,-6 135,-26 0,0 -141,-45 -141,-210 0,-154 122,-218 218,-218 76,0 217,45 217,224 0,205 -205,332 -422,332 -487,0 -698,-473 -762,-697 h -6 v 697 l -743,-70 v -166 c 378,0 436,-39 436,-346 V 428 C 634,184 608,153 198,153 V -13 C 352,0 646,0 813,0 c 185,0 512,0 685,-13 v 166 c -461,0 -538,0 -538,287 z"
             transform="scale(0.015625)"
             inkscape:connector-curvature="0"
             style="stroke-linecap:butt;stroke-linejoin:round" />
          <path
             id="CMR17-65"
             d="m 2438,1472 c 26,26 26,39 26,104 0,662 -346,1240 -1075,1240 C 710,2816 173,2169 173,1383 173,551 781,-64 1459,-64 c 717,0 999,671 999,804 0,44 -39,44 -52,44 -44,0 -51,-13 -76,-88 C 2189,265 1837,51 1504,51 1229,51 954,203 781,480 582,803 582,1176 582,1472 Z m -1849,96 c 45,937 537,1146 793,1146 436,0 730,-417 736,-1146 z"
             transform="scale(0.015625)"
             inkscape:connector-curvature="0"
             style="stroke-linecap:butt;stroke-linejoin:round" />
          <path
             id="CMR17-70"
             d="m 1408,-1063 c -410,0 -435,26 -435,274 V 402 c 185,-268 454,-440 793,-440 640,0 1287,561 1287,1426 0,803 -557,1414 -1216,1414 -384,0 -698,-210 -877,-464 v 464 l -762,-70 v -165 c 378,0 436,-39 436,-344 V -789 c 0,-242 -26,-274 -436,-274 v -165 c 154,12 436,12 602,12 166,0 454,0 608,-12 z M 973,2012 c 0,90 0,223 249,459 32,26 250,217 570,217 467,0 851,-580 851,-1306 C 2643,656 2234,64 1728,64 1498,64 1248,172 1056,472 973,612 973,650 973,752 Z"
             transform="scale(0.015625)"
             inkscape:connector-curvature="0"
             style="stroke-linecap:butt;stroke-linejoin:round" />
          <path
             id="CMR17-6f"
             d="m 2758,1356 c 0,820 -595,1460 -1292,1460 C 768,2816 173,2176 173,1356 173,551 768,-64 1466,-64 c 697,0 1292,615 1292,1420 z M 1466,51 c -301,0 -557,179 -704,429 -160,287 -180,646 -180,928 0,269 13,602 180,890 128,211 377,416 704,416 288,0 531,-160 684,-384 199,-301 199,-723 199,-922 0,-250 -13,-633 -186,-941 C 1984,173 1709,51 1466,51 Z"
             transform="scale(0.015625)"
             inkscape:connector-curvature="0"
             style="stroke-linecap:butt;stroke-linejoin:round" />
          <path
             id="CMR17-64"
             d="m 1869,4326 v -166 c 377,0 435,-38 435,-340 V 2345 c -26,32 -288,445 -806,445 C 845,2790 211,2208 211,1364 211,525 806,-64 1434,-64 c 544,0 825,401 857,444 V -63 h 775 v 191 c -378,0 -436,38 -436,345 V 4396 Z M 2291,755 C 2291,563 2176,390 2029,262 1811,70 1594,38 1472,38 c -186,0 -851,96 -851,1318 0,1256 742,1332 909,1332 294,0 531,-166 678,-397 83,-134 83,-153 83,-268 z"
             transform="scale(0.015625)"
             inkscape:connector-curvature="0"
             style="stroke-linecap:butt;stroke-linejoin:round" />
          <path
             id="CMR17-63"
             d="m 2234,2240 c -122,0 -301,0 -301,-223 0,-179 147,-230 230,-230 45,0 231,20 231,237 0,443 -436,779 -928,779 C 787,2803 211,2178 211,1363 211,516 813,-64 1466,-64 c 793,0 992,741 992,812 0,26 -7,45 -52,45 -44,0 -51,-6 -76,-90 C 2163,180 1798,51 1523,51 1114,51 621,427 621,1369 c 0,969 473,1319 851,1319 250,0 621,-115 762,-448 z"
             transform="scale(0.015625)"
             inkscape:connector-curvature="0"
             style="stroke-linecap:butt;stroke-linejoin:round" />
          <path
             id="CMR17-6e"
             d="m 2656,1933 c 0,326 -64,857 -819,857 -506,0 -768,-390 -864,-646 h -7 v 646 l -755,-70 v -166 c 378,0 435,-39 435,-346 V 428 C 646,184 621,153 211,153 V -13 C 365,0 646,0 813,0 c 166,0 454,0 608,-13 v 166 c -410,0 -435,25 -435,275 v 1230 c 0,589 358,1030 806,1030 474,0 525,-422 525,-730 V 428 c 0,-244 -26,-275 -435,-275 V -13 c 153,13 435,13 601,13 167,0 455,0 608,-13 v 166 c -409,0 -435,25 -435,275 z"
             transform="scale(0.015625)"
             inkscape:connector-curvature="0"
             style="stroke-linecap:butt;stroke-linejoin:round" />
        </defs>
        <use
           xlink:href="#CMR17-72"
           transform="scale(0.996264)"
           id="use134"
           style="stroke-linecap:butt;stroke-linejoin:round"
           x="0"
           y="0"
           width="100%"
           height="100%" />
        <use
           xlink:href="#CMR17-65"
           transform="matrix(0.996264,0,0,0.996264,35.280768,0)"
           id="use136"
           style="stroke-linecap:butt;stroke-linejoin:round"
           x="0"
           y="0"
           width="100%"
           height="100%" />
        <use
           xlink:href="#CMR17-70"
           transform="matrix(0.996264,0,0,0.996264,75.766428,0)"
           id="use138"
           style="stroke-linecap:butt;stroke-linejoin:round"
           x="0"
           y="0"
           width="100%"
           height="100%" />
        <use
           xlink:href="#CMR17-72"
           transform="matrix(0.996264,0,0,0.996264,126.6618,0)"
           id="use140"
           style="stroke-linecap:butt;stroke-linejoin:round"
           x="0"
           y="0"
           width="100%"
           height="100%" />
        <use
           xlink:href="#CMR17-6f"
           transform="matrix(0.996264,0,0,0.996264,161.94257,0)"
           id="use142"
           style="stroke-linecap:butt;stroke-linejoin:round"
           x="0"
           y="0"
           width="100%"
           height="100%" />
        <use
           xlink:href="#CMR17-64"
           transform="matrix(0.996264,0,0,0.996264,210.23548,0)"
           id="use144"
           style="stroke-linecap:butt;stroke-linejoin:round"
           x="0"
           y="0"
           width="100%"
           height="100%" />
        <use
           xlink:href="#CMR17-75"
           transform="matrix(0.996264,0,0,0.996264,261.13085,0)"
           id="use146"
           style="stroke-linecap:butt;stroke-linejoin:round"
           x="0"
           y="0"
           width="100%"
           height="100%" />
        <use
           xlink:href="#CMR17-63"
           transform="matrix(0.996264,0,0,0.996264,312.02622,0)"
           id="use148"
           style="stroke-linecap:butt;stroke-linejoin:round"
           x="0"
           y="0"
           width="100%"
           height="100%" />
        <use
           xlink:href="#CMR17-74"
           transform="matrix(0.996264,0,0,0.996264,352.51188,0)"
           id="use150"
           style="stroke-linecap:butt;stroke-linejoin:round"
           x="0"
           y="0"
           width="100%"
           height="100%" />
        <use
           xlink:href="#CMR17-69"
           transform="matrix(0.996264,0,0,0.996264,387.79265,0)"
           id="use152"
           style="stroke-linecap:butt;stroke-linejoin:round"
           x="0"
           y="0"
           width="100%"
           height="100%" />
        <use
           xlink:href="#CMR17-6f"
           transform="matrix(0.996264,0,0,0.996264,412.66371,0)"
           id="use154"
           style="stroke-linecap:butt;stroke-linejoin:round"
           x="0"
           y="0"
           width="100%"
           height="100%" />
        <use
           xlink:href="#CMR17-6e"
           transform="matrix(0.996264,0,0,0.996264,458.35418,0)"
           id="use156"
           style="stroke-linecap:butt;stroke-linejoin:round"
           x="0"
           y="0"
           width="100%"
           height="100%" />
        <use
           xlink:href="#CMR17-5b"
           transform="matrix(0.996264,0,0,0.996264,539.32552,0)"
           id="use158"
           style="stroke-linecap:butt;stroke-linejoin:round"
           x="0"
           y="0"
           width="100%"
           height="100%" />
        <use
           xlink:href="#CMR17-6d"
           transform="matrix(0.996264,0,0,0.996264,564.19658,0)"
           id="use160"
           style="stroke-linecap:butt;stroke-linejoin:round"
           x="0"
           y="0"
           width="100%"
           height="100%" />
        <use
           xlink:href="#CMR17-73"
           transform="matrix(0.996264,0,0,0.996264,641.11617,0)"
           id="use162"
           style="stroke-linecap:butt;stroke-linejoin:round"
           x="0"
           y="0"
           width="100%"
           height="100%" />
        <use
           xlink:href="#CMR17-5d"
           transform="matrix(0.996264,0,0,0.996264,676.91751,0)"
           id="use164"
           style="stroke-linecap:butt;stroke-linejoin:round"
           x="0"
           y="0"
           width="100%"
           height="100%" />
      </g>
    </g>
  </g>
  <g
     id="line2d_5"
     style="stroke-linecap:butt;stroke-linejoin:round">
    <path
       d="M 50.953792,92.403152 158.08351,25.669097"
       clip-path="url(#pb693236f11)"
       style="fill:none;stroke:#808080;stroke-width:0.60000002;stroke-linecap:butt;stroke-linejoin:round;stroke-dasharray:2.22, 0.96;stroke-dashoffset:0"
       id="path170"
       inkscape:connector-curvature="0" />
  </g>
  <g
     id="LineCollection_1"
     style="stroke-linecap:butt;stroke-linejoin:round">
    <path
       d="M 72.379736,80.758614 V 69.424492"
       clip-path="url(#pb693236f11)"
       style="fill:none;stroke:#696969;stroke-width:1.5;stroke-linecap:butt;stroke-linejoin:round"
       id="path173"
       inkscape:connector-curvature="0" />
    <path
       d="M 83.092709,77.821614 V 63.119499"
       clip-path="url(#pb693236f11)"
       style="fill:none;stroke:#696969;stroke-width:1.5;stroke-linecap:butt;stroke-linejoin:round"
       id="path175"
       inkscape:connector-curvature="0" />
    <path
       d="M 93.805681,73.715737 V 60.372686"
       clip-path="url(#pb693236f11)"
       style="fill:none;stroke:#696969;stroke-width:1.5;stroke-linecap:butt;stroke-linejoin:round"
       id="path177"
       inkscape:connector-curvature="0" />
    <path
       d="M 104.51865,69.384654 V 55.102033"
       clip-path="url(#pb693236f11)"
       style="fill:none;stroke:#696969;stroke-width:1.5;stroke-linecap:butt;stroke-linejoin:round"
       id="path179"
       inkscape:connector-curvature="0" />
    <path
       d="M 115.23162,63.185988 V 43.733447"
       clip-path="url(#pb693236f11)"
       style="fill:none;stroke:#696969;stroke-width:1.5;stroke-linecap:butt;stroke-linejoin:round"
       id="path181"
       inkscape:connector-curvature="0" />
    <path
       d="M 125.9446,60.254679 V 39.20418"
       clip-path="url(#pb693236f11)"
       style="fill:none;stroke:#696969;stroke-width:1.5;stroke-linecap:butt;stroke-linejoin:round"
       id="path183"
       inkscape:connector-curvature="0" />
    <path
       d="M 136.65757,54.767248 V 30.405113"
       clip-path="url(#pb693236f11)"
       style="fill:none;stroke:#696969;stroke-width:1.5;stroke-linecap:butt;stroke-linejoin:round"
       id="path185"
       inkscape:connector-curvature="0" />
  </g>
  <g
     id="line2d_6"
     style="stroke-linecap:butt;stroke-linejoin:round">
    <defs
       id="defs189">
      <path
         id="m3e067a4b9c"
         d="M 1,0 H -1"
         style="stroke:#696969;stroke-linecap:butt;stroke-linejoin:round"
         inkscape:connector-curvature="0" />
    </defs>
    <g
       clip-path="url(#pb693236f11)"
       id="g205"
       style="stroke-linecap:butt;stroke-linejoin:round">
      <use
         xlink:href="#m3e067a4b9c"
         x="72.379738"
         y="80.758614"
         style="fill:#696969;stroke:#696969;stroke-linecap:butt;stroke-linejoin:round"
         id="use191"
         width="100%"
         height="100%" />
      <use
         xlink:href="#m3e067a4b9c"
         x="83.092712"
         y="77.821617"
         style="fill:#696969;stroke:#696969;stroke-linecap:butt;stroke-linejoin:round"
         id="use193"
         width="100%"
         height="100%" />
      <use
         xlink:href="#m3e067a4b9c"
         x="93.805679"
         y="73.715736"
         style="fill:#696969;stroke:#696969;stroke-linecap:butt;stroke-linejoin:round"
         id="use195"
         width="100%"
         height="100%" />
      <use
         xlink:href="#m3e067a4b9c"
         x="104.51865"
         y="69.384651"
         style="fill:#696969;stroke:#696969;stroke-linecap:butt;stroke-linejoin:round"
         id="use197"
         width="100%"
         height="100%" />
      <use
         xlink:href="#m3e067a4b9c"
         x="115.23163"
         y="63.185989"
         style="fill:#696969;stroke:#696969;stroke-linecap:butt;stroke-linejoin:round"
         id="use199"
         width="100%"
         height="100%" />
      <use
         xlink:href="#m3e067a4b9c"
         x="125.9446"
         y="60.254681"
         style="fill:#696969;stroke:#696969;stroke-linecap:butt;stroke-linejoin:round"
         id="use201"
         width="100%"
         height="100%" />
      <use
         xlink:href="#m3e067a4b9c"
         x="136.65758"
         y="54.767246"
         style="fill:#696969;stroke:#696969;stroke-linecap:butt;stroke-linejoin:round"
         id="use203"
         width="100%"
         height="100%" />
    </g>
  </g>
  <g
     id="line2d_7"
     style="stroke-linecap:butt;stroke-linejoin:round">
    <g
       clip-path="url(#pb693236f11)"
       id="g222"
       style="stroke-linecap:butt;stroke-linejoin:round">
      <use
         xlink:href="#m3e067a4b9c"
         x="72.379738"
         y="69.424492"
         style="fill:#696969;stroke:#696969;stroke-linecap:butt;stroke-linejoin:round"
         id="use208"
         width="100%"
         height="100%" />
      <use
         xlink:href="#m3e067a4b9c"
         x="83.092712"
         y="63.119499"
         style="fill:#696969;stroke:#696969;stroke-linecap:butt;stroke-linejoin:round"
         id="use210"
         width="100%"
         height="100%" />
      <use
         xlink:href="#m3e067a4b9c"
         x="93.805679"
         y="60.372684"
         style="fill:#696969;stroke:#696969;stroke-linecap:butt;stroke-linejoin:round"
         id="use212"
         width="100%"
         height="100%" />
      <use
         xlink:href="#m3e067a4b9c"
         x="104.51865"
         y="55.102032"
         style="fill:#696969;stroke:#696969;stroke-linecap:butt;stroke-linejoin:round"
         id="use214"
         width="100%"
         height="100%" />
      <use
         xlink:href="#m3e067a4b9c"
         x="115.23163"
         y="43.733448"
         style="fill:#696969;stroke:#696969;stroke-linecap:butt;stroke-linejoin:round"
         id="use216"
         width="100%"
         height="100%" />
      <use
         xlink:href="#m3e067a4b9c"
         x="125.9446"
         y="39.204182"
         style="fill:#696969;stroke:#696969;stroke-linecap:butt;stroke-linejoin:round"
         id="use218"
         width="100%"
         height="100%" />
      <use
         xlink:href="#m3e067a4b9c"
         x="136.65758"
         y="30.405113"
         style="fill:#696969;stroke:#696969;stroke-linecap:butt;stroke-linejoin:round"
         id="use220"
         width="100%"
         height="100%" />
    </g>
  </g>
  <path
     inkscape:connector-curvature="0"
     id="path225"
     style="fill:none;stroke:#696969;stroke-width:1.5;stroke-linecap:round;stroke-linejoin:round"
     clip-path="url(#pb693236f11)"
     d="m 72.379736,75.091553 10.712973,-4.620996 10.712972,-3.426346 10.712969,-4.800868 10.71297,-8.783626 10.71298,-3.730287 10.71297,-7.14325" />
  <use
     xlink:href="#me131917133"
     x="72.379738"
     y="75.091553"
     style="fill:#ffffff;stroke:#696969;stroke-linecap:butt;stroke-linejoin:round;fill-opacity:1"
     id="use230"
     width="100%"
     height="100%" />
  <use
     xlink:href="#me131917133"
     x="83.092712"
     y="70.470558"
     style="fill:#ffffff;stroke:#696969;stroke-linecap:butt;stroke-linejoin:round;fill-opacity:1"
     id="use232"
     width="100%"
     height="100%" />
  <use
     xlink:href="#me131917133"
     x="93.805679"
     y="67.044212"
     style="fill:#ffffff;stroke:#696969;stroke-linecap:butt;stroke-linejoin:round;fill-opacity:1"
     id="use234"
     width="100%"
     height="100%" />
  <use
     xlink:href="#me131917133"
     x="104.51865"
     y="62.243343"
     style="fill:#ffffff;stroke:#696969;stroke-linecap:butt;stroke-linejoin:round;fill-opacity:1"
     id="use236"
     width="100%"
     height="100%" />
  <use
     xlink:href="#me131917133"
     x="115.23163"
     y="53.459717"
     style="fill:#ffffff;stroke:#696969;stroke-linecap:butt;stroke-linejoin:round;fill-opacity:1"
     id="use238"
     width="100%"
     height="100%" />
  <use
     xlink:href="#me131917133"
     x="125.9446"
     y="49.729431"
     style="fill:#ffffff;stroke:#696969;stroke-linecap:butt;stroke-linejoin:round;fill-opacity:1"
     id="use240"
     width="100%"
     height="100%" />
  <use
     xlink:href="#me131917133"
     x="136.65758"
     y="42.586182"
     style="fill:#ffffff;stroke:#696969;stroke-linecap:butt;stroke-linejoin:round;fill-opacity:1"
     id="use242"
     width="100%"
     height="100%" />
  <g
     id="patch_3"
     style="stroke-linecap:butt;stroke-linejoin:round">
    <path
       d="M 45.597306,95.739855 V 22.332395"
       style="fill:none;stroke:#262626;stroke-width:0.80000001;stroke-linecap:square;stroke-linejoin:miter"
       id="path247"
       inkscape:connector-curvature="0" />
  </g>
  <g
     id="patch_4"
     style="stroke-linecap:butt;stroke-linejoin:round">
    <path
       d="M 45.597306,95.739855 H 163.44"
       style="fill:none;stroke:#262626;stroke-width:0.80000001;stroke-linecap:square;stroke-linejoin:miter"
       id="path250"
       inkscape:connector-curvature="0" />
  </g>
  <g
     id="text_7"
     style="stroke-linecap:butt;stroke-linejoin:round">
    <!-- slope=0.82 -->
    <g
       style="fill:#262626;stroke-linecap:butt;stroke-linejoin:round"
       transform="matrix(0.11,0,0,-0.11,50.953792,32.342503)"
       id="g278">
      <defs
         id="defs256">
        <path
           id="CMR17-3d"
           d="m 4115,2017 c 96,0 192,0 192,108 0,115 -109,115 -217,115 H 512 c -109,0 -218,0 -218,-115 0,-108 96,-108 192,-108 z M 4090,896 c 108,0 217,0 217,115 0,108 -96,108 -192,108 H 486 c -96,0 -192,0 -192,-108 0,-115 109,-115 218,-115 z"
           transform="scale(0.015625)"
           inkscape:connector-curvature="0"
           style="stroke-linecap:butt;stroke-linejoin:round" />
        <path
           id="CMR17-2e"
           d="M 1062,261 C 1062,420 934,522 800,522 672,522 538,420 538,261 538,102 666,0 800,0 c 128,0 262,102 262,261 z"
           transform="scale(0.015625)"
           inkscape:connector-curvature="0"
           style="stroke-linecap:butt;stroke-linejoin:round" />
        <path
           id="CMR17-32"
           d="M 2669,989 H 2554 C 2490,536 2438,459 2413,420 2381,369 1920,369 1830,369 H 602 c 230,250 678,703 1222,1228 390,370 845,805 845,1438 0,755 -602,1189 -1274,1189 -704,0 -1133,-620 -1133,-1194 0,-250 186,-282 263,-282 64,0 256,39 256,262 0,197 -167,254 -256,254 -39,0 -77,-6 -103,-19 122,545 493,813 884,813 556,0 921,-441 921,-1023 0,-556 -326,-1035 -691,-1451 L 262,146 V 0 h 2253 z"
           transform="scale(0.015625)"
           inkscape:connector-curvature="0"
           style="stroke-linecap:butt;stroke-linejoin:round" />
      </defs>
      <use
         xlink:href="#CMR17-73"
         transform="scale(0.996264)"
         id="use258"
         style="stroke-linecap:butt;stroke-linejoin:round"
         x="0"
         y="0"
         width="100%"
         height="100%" />
      <use
         xlink:href="#CMR17-6c"
         transform="matrix(0.996264,0,0,0.996264,35.801338,0)"
         id="use260"
         style="stroke-linecap:butt;stroke-linejoin:round"
         x="0"
         y="0"
         width="100%"
         height="100%" />
      <use
         xlink:href="#CMR17-6f"
         transform="matrix(0.996264,0,0,0.996264,60.672396,0)"
         id="use262"
         style="stroke-linecap:butt;stroke-linejoin:round"
         x="0"
         y="0"
         width="100%"
         height="100%" />
      <use
         xlink:href="#CMR17-70"
         transform="matrix(0.996264,0,0,0.996264,106.36287,0)"
         id="use264"
         style="stroke-linecap:butt;stroke-linejoin:round"
         x="0"
         y="0"
         width="100%"
         height="100%" />
      <use
         xlink:href="#CMR17-65"
         transform="matrix(0.996264,0,0,0.996264,159.86068,0)"
         id="use266"
         style="stroke-linecap:butt;stroke-linejoin:round"
         x="0"
         y="0"
         width="100%"
         height="100%" />
      <use
         xlink:href="#CMR17-3d"
         transform="matrix(0.996264,0,0,0.996264,200.34634,0)"
         id="use268"
         style="stroke-linecap:butt;stroke-linejoin:round"
         x="0"
         y="0"
         width="100%"
         height="100%" />
      <use
         xlink:href="#CMR17-30"
         transform="matrix(0.996264,0,0,0.996264,272.06113,0)"
         id="use270"
         style="stroke-linecap:butt;stroke-linejoin:round"
         x="0"
         y="0"
         width="100%"
         height="100%" />
      <use
         xlink:href="#CMR17-2e"
         transform="matrix(0.996264,0,0,0.996264,317.75161,0)"
         id="use272"
         style="stroke-linecap:butt;stroke-linejoin:round"
         x="0"
         y="0"
         width="100%"
         height="100%" />
      <use
         xlink:href="#CMR17-38"
         transform="matrix(0.996264,0,0,0.996264,342.62267,0)"
         id="use274"
         style="stroke-linecap:butt;stroke-linejoin:round"
         x="0"
         y="0"
         width="100%"
         height="100%" />
      <use
         xlink:href="#CMR17-32"
         transform="matrix(0.996264,0,0,0.996264,388.31314,0)"
         id="use276"
         style="stroke-linecap:butt;stroke-linejoin:round"
         x="0"
         y="0"
         width="100%"
         height="100%" />
    </g>
  </g>
  <g
     id="text_8"
     style="stroke-linecap:butt;stroke-linejoin:round">
    <!-- delay = mean range -->
    <g
       style="fill:#262626;stroke-linecap:butt;stroke-linejoin:round"
       transform="matrix(0.132,0,0,-0.132,48.004917,16.332395)"
       id="g316">
      <defs
         id="defs284">
        <path
           id="CMR17-61"
           d="m 2304,1653 c 0,419 0,641 -269,890 -237,209 -512,273 -729,273 -506,0 -871,-409 -871,-845 0,-243 192,-243 231,-243 83,0 230,50 230,226 0,158 -122,227 -230,227 -26,0 -58,-7 -77,-13 134,424 480,546 704,546 320,0 672,-285 672,-829 V 1600 C 1587,1600 1133,1549 774,1357 371,1133 256,813 256,570 256,77 832,-64 1171,-64 c 352,0 679,203 819,575 13,-278 192,-529 474,-529 134,0 474,88 474,585 V 920 H 2822 V 562 c 0,-384 -172,-434 -256,-434 -262,0 -262,330 -262,610 z M 1965,870 C 1965,317 1568,38 1216,38 896,38 646,275 646,570 c 0,191 84,530 455,735 307,173 659,199 864,199 z"
           transform="scale(0.015625)"
           inkscape:connector-curvature="0"
           style="stroke-linecap:butt;stroke-linejoin:round" />
        <path
           id="CMR17-79"
           d="m 2496,2197 c 160,389 448,389 538,389 v 166 c -122,0 -282,0 -404,0 -134,0 -345,0 -473,6 v -166 c 243,-19 249,-198 249,-249 0,-63 -12,-95 -44,-172 L 1664,449 902,2306 c -32,76 -32,120 -32,127 0,140 148,153 301,153 v 172 c -153,-6 -429,-6 -589,-6 -172,0 -377,0 -518,6 v -172 c 346,0 384,-32 467,-236 L 1485,15 c -288,-753 -455,-1193 -858,-1193 -70,0 -230,19 -345,134 147,13 211,102 211,211 0,108 -77,204 -205,204 -141,0 -211,-96 -211,-211 0,-255 262,-440 550,-440 371,0 602,358 730,676 z"
           transform="scale(0.015625)"
           inkscape:connector-curvature="0"
           style="stroke-linecap:butt;stroke-linejoin:round" />
        <path
           id="CMR17-67"
           d="m 710,1164 c 122,-96 333,-204 589,-204 506,0 941,397 941,928 0,166 -51,422 -243,621 179,183 441,243 589,243 25,0 64,0 96,-18 -26,-6 -84,-31 -84,-129 0,-78 58,-134 141,-134 96,0 147,62 147,143 0,117 -96,240 -300,240 -256,0 -480,-116 -660,-274 -192,173 -422,236 -627,236 -505,0 -941,-397 -941,-928 0,-366 212,-596 276,-660 C 442,1004 442,743 442,711 442,545 506,302 723,168 390,85 128,-169 128,-486 c 0,-457 608,-794 1338,-794 704,0 1337,324 1337,801 0,863 -947,863 -1440,863 -147,0 -409,0 -441,7 -199,32 -333,211 -333,435 0,57 0,198 121,338 z m 589,-96 c -563,0 -563,692 -563,821 0,127 0,819 563,819 563,0 563,-692 563,-819 0,-129 0,-821 -563,-821 z m 167,-2239 c -640,0 -1082,336 -1082,685 0,197 109,381 250,482 160,108 224,108 659,108 525,0 1254,0 1254,-590 0,-349 -441,-685 -1081,-685 z"
           transform="scale(0.015625)"
           inkscape:connector-curvature="0"
           style="stroke-linecap:butt;stroke-linejoin:round" />
      </defs>
      <use
         xlink:href="#CMR17-64"
         transform="scale(0.996264)"
         id="use286"
         style="stroke-linecap:butt;stroke-linejoin:round"
         x="0"
         y="0"
         width="100%"
         height="100%" />
      <use
         xlink:href="#CMR17-65"
         transform="matrix(0.996264,0,0,0.996264,50.89537,0)"
         id="use288"
         style="stroke-linecap:butt;stroke-linejoin:round"
         x="0"
         y="0"
         width="100%"
         height="100%" />
      <use
         xlink:href="#CMR17-6c"
         transform="matrix(0.996264,0,0,0.996264,91.38103,0)"
         id="use290"
         style="stroke-linecap:butt;stroke-linejoin:round"
         x="0"
         y="0"
         width="100%"
         height="100%" />
      <use
         xlink:href="#CMR17-61"
         transform="matrix(0.996264,0,0,0.996264,116.25209,0)"
         id="use292"
         style="stroke-linecap:butt;stroke-linejoin:round"
         x="0"
         y="0"
         width="100%"
         height="100%" />
      <use
         xlink:href="#CMR17-79"
         transform="matrix(0.996264,0,0,0.996264,159.34011,0)"
         id="use294"
         style="stroke-linecap:butt;stroke-linejoin:round"
         x="0"
         y="0"
         width="100%"
         height="100%" />
      <use
         xlink:href="#CMR17-3d"
         transform="matrix(0.996264,0,0,0.996264,237.70899,0)"
         id="use296"
         style="stroke-linecap:butt;stroke-linejoin:round"
         x="0"
         y="0"
         width="100%"
         height="100%" />
      <use
         xlink:href="#CMR17-6d"
         transform="matrix(0.996264,0,0,0.996264,339.49975,0)"
         id="use298"
         style="stroke-linecap:butt;stroke-linejoin:round"
         x="0"
         y="0"
         width="100%"
         height="100%" />
      <use
         xlink:href="#CMR17-65"
         transform="matrix(0.996264,0,0,0.996264,416.41934,0)"
         id="use300"
         style="stroke-linecap:butt;stroke-linejoin:round"
         x="0"
         y="0"
         width="100%"
         height="100%" />
      <use
         xlink:href="#CMR17-61"
         transform="matrix(0.996264,0,0,0.996264,456.905,0)"
         id="use302"
         style="stroke-linecap:butt;stroke-linejoin:round"
         x="0"
         y="0"
         width="100%"
         height="100%" />
      <use
         xlink:href="#CMR17-6e"
         transform="matrix(0.996264,0,0,0.996264,502.59548,0)"
         id="use304"
         style="stroke-linecap:butt;stroke-linejoin:round"
         x="0"
         y="0"
         width="100%"
         height="100%" />
      <use
         xlink:href="#CMR17-72"
         transform="matrix(0.996264,0,0,0.996264,583.56681,0)"
         id="use306"
         style="stroke-linecap:butt;stroke-linejoin:round"
         x="0"
         y="0"
         width="100%"
         height="100%" />
      <use
         xlink:href="#CMR17-61"
         transform="matrix(0.996264,0,0,0.996264,618.84758,0)"
         id="use308"
         style="stroke-linecap:butt;stroke-linejoin:round"
         x="0"
         y="0"
         width="100%"
         height="100%" />
      <use
         xlink:href="#CMR17-6e"
         transform="matrix(0.996264,0,0,0.996264,664.53806,0)"
         id="use310"
         style="stroke-linecap:butt;stroke-linejoin:round"
         x="0"
         y="0"
         width="100%"
         height="100%" />
      <use
         xlink:href="#CMR17-67"
         transform="matrix(0.996264,0,0,0.996264,715.43343,0)"
         id="use312"
         style="stroke-linecap:butt;stroke-linejoin:round"
         x="0"
         y="0"
         width="100%"
         height="100%" />
      <use
         xlink:href="#CMR17-65"
         transform="matrix(0.996264,0,0,0.996264,761.1239,0)"
         id="use314"
         style="stroke-linecap:butt;stroke-linejoin:round"
         x="0"
         y="0"
         width="100%"
         height="100%" />
    </g>
  </g>
  <defs
     id="defs324">
    <clipPath
       id="pb693236f11">
      <rect
         x="45.597306"
         y="22.332395"
         width="117.842694"
         height="73.40746"
         id="rect321" />
    </clipPath>
  </defs>
</svg>
