<?xml version="1.0" encoding="UTF-8" standalone="no"?>
<svg
   xmlns:dc="http://purl.org/dc/elements/1.1/"
   xmlns:cc="http://creativecommons.org/ns#"
   xmlns:rdf="http://www.w3.org/1999/02/22-rdf-syntax-ns#"
   xmlns:svg="http://www.w3.org/2000/svg"
   xmlns="http://www.w3.org/2000/svg"
   xmlns:xlink="http://www.w3.org/1999/xlink"
   xmlns:sodipodi="http://sodipodi.sourceforge.net/DTD/sodipodi-0.dtd"
   xmlns:inkscape="http://www.inkscape.org/namespaces/inkscape"
   width="132.58699pt"
   height="89.443329pt"
   viewBox="0 0 132.58699 89.443329"
   version="1.1"
   id="svg348"
   sodipodi:docname="range_resultSLOPEbest.svg"
   inkscape:version="0.92.5 (2060ec1f9f, 2020-04-08)">
  <sodipodi:namedview
     pagecolor="#ffffff"
     bordercolor="#666666"
     borderopacity="1"
     objecttolerance="10"
     gridtolerance="10"
     guidetolerance="10"
     inkscape:pageopacity="0"
     inkscape:pageshadow="2"
     inkscape:window-width="1920"
     inkscape:window-height="1018"
     id="namedview350"
     showgrid="false"
     inkscape:zoom="4.4869324"
     inkscape:cx="11.103477"
     inkscape:cy="64.886701"
     inkscape:window-x="1920"
     inkscape:window-y="34"
     inkscape:window-maximized="1"
     inkscape:current-layer="svg348" />
  <metadata
     id="metadata2">
    <rdf:RDF>
      <cc:Work>
        <dc:type
           rdf:resource="http://purl.org/dc/dcmitype/StillImage" />
        <dc:date>2022-10-26T12:05:17.812856</dc:date>
        <dc:format>image/svg+xml</dc:format>
        <dc:creator>
          <cc:Agent>
            <dc:title>Matplotlib v3.5.1, https://matplotlib.org/</dc:title>
          </cc:Agent>
        </dc:creator>
      </cc:Work>
    </rdf:RDF>
  </metadata>
  <defs
     id="defs6"
     style="stroke-linecap:butt;stroke-linejoin:round">
    <style
       type="text/css"
       id="style4">*{stroke-linejoin: round; stroke-linecap: butt}</style>
  </defs>
  <g
     id="patch_2"
     style="stroke-linecap:butt;stroke-linejoin:round"
     transform="translate(-21.357337,-7.6219909)">
    <path
       d="M 41.944318,65.365173 H 153.54432 v -54.36 H 41.944318 Z"
       style="fill:#ffffff;stroke-linecap:butt;stroke-linejoin:round"
       id="path11"
       inkscape:connector-curvature="0" />
  </g>
  <g
     id="matplotlib.axis_1"
     style="stroke-linecap:butt;stroke-linejoin:round"
     transform="translate(-21.357337,-7.6219909)">
    <g
       id="xtick_1"
       style="stroke-linecap:butt;stroke-linejoin:round">
      <g
         id="line2d_1"
         style="stroke-linecap:butt;stroke-linejoin:round">
        <defs
           id="defs15">
          <path
             id="m05bc36b1c3"
             d="M 0,0 V 3.5"
             style="stroke:#262626;stroke-width:0.80000001;stroke-linecap:butt;stroke-linejoin:round"
             inkscape:connector-curvature="0" />
        </defs>
        <g
           id="g19"
           style="stroke-linecap:butt;stroke-linejoin:round">
          <use
             xlink:href="#m05bc36b1c3"
             x="41.944317"
             y="65.365173"
             style="fill:#262626;stroke:#262626;stroke-width:0.80000001;stroke-linecap:butt;stroke-linejoin:round"
             id="use17"
             width="100%"
             height="100%" />
        </g>
      </g>
      <g
         id="text_1"
         style="stroke-linecap:butt;stroke-linejoin:round">
        <!-- $\mathdefault{0.00}$ -->
        <g
           style="fill:#262626;stroke-linecap:butt;stroke-linejoin:round"
           transform="matrix(0.11,0,0,-0.11,32.203046,79.97552)"
           id="g34">
          <defs
             id="defs24">
            <path
               id="CMR17-30"
               d="m 2688,2025 c 0,391 -6,1055 -275,1566 -237,448 -615,607 -947,607 -308,0 -698,-140 -941,-601 C 269,3118 243,2524 243,2025 c 0,-364 7,-919 205,-1406 275,-658 768,-747 1018,-747 294,0 742,121 1004,728 192,442 218,959 218,1425 z M 1466,-26 c -410,0 -653,351 -743,838 -70,376 -70,926 -70,1284 0,492 0,901 83,1291 122,542 480,709 730,709 262,0 601,-173 723,-696 83,-364 89,-793 89,-1304 0,-416 0,-927 -76,-1304 C 2067,95 1690,-26 1466,-26 Z"
               transform="scale(0.015625)"
               inkscape:connector-curvature="0"
               style="stroke-linecap:butt;stroke-linejoin:round" />
            <path
               id="CMMI12-3a"
               d="M 1178,307 C 1178,492 1024,619 870,619 685,619 557,466 557,313 557,128 710,0 864,0 c 186,0 314,153 314,307 z"
               transform="scale(0.015625)"
               inkscape:connector-curvature="0"
               style="stroke-linecap:butt;stroke-linejoin:round" />
          </defs>
          <use
             xlink:href="#CMR17-30"
             transform="scale(0.996264)"
             id="use26"
             style="stroke-linecap:butt;stroke-linejoin:round"
             x="0"
             y="0"
             width="100%"
             height="100%" />
          <use
             xlink:href="#CMMI12-3a"
             transform="matrix(0.996264,0,0,0.996264,45.690477,0)"
             id="use28"
             style="stroke-linecap:butt;stroke-linejoin:round"
             x="0"
             y="0"
             width="100%"
             height="100%" />
          <use
             xlink:href="#CMR17-30"
             transform="matrix(0.996264,0,0,0.996264,72.787654,0)"
             id="use30"
             style="stroke-linecap:butt;stroke-linejoin:round"
             x="0"
             y="0"
             width="100%"
             height="100%" />
          <use
             xlink:href="#CMR17-30"
             transform="matrix(0.996264,0,0,0.996264,118.47813,0)"
             id="use32"
             style="stroke-linecap:butt;stroke-linejoin:round"
             x="0"
             y="0"
             width="100%"
             height="100%" />
        </g>
      </g>
    </g>
    <g
       id="xtick_2"
       style="stroke-linecap:butt;stroke-linejoin:round">
      <g
         id="line2d_2"
         style="stroke-linecap:butt;stroke-linejoin:round">
        <g
           id="g40"
           style="stroke-linecap:butt;stroke-linejoin:round">
          <use
             xlink:href="#m05bc36b1c3"
             x="88.444321"
             y="65.365173"
             style="fill:#262626;stroke:#262626;stroke-width:0.80000001;stroke-linecap:butt;stroke-linejoin:round"
             id="use38"
             width="100%"
             height="100%" />
        </g>
      </g>
      <g
         id="text_2"
         style="stroke-linecap:butt;stroke-linejoin:round">
        <!-- $\mathdefault{0.05}$ -->
        <g
           style="fill:#262626;stroke-linecap:butt;stroke-linejoin:round"
           transform="matrix(0.11,0,0,-0.11,78.703046,79.97552)"
           id="g54">
          <defs
             id="defs44">
            <path
               id="CMR17-35"
               d="m 730,3692 c 64,-26 326,-108 595,-108 595,0 921,327 1107,516 0,57 0,92 -38,92 -7,0 -20,0 -71,-29 -224,-105 -486,-190 -806,-190 -192,0 -480,26 -794,166 -70,32 -83,32 -89,32 -32,0 -39,-7 -39,-134 V 2203 c 0,-114 0,-146 64,-146 32,0 45,13 77,57 205,287 486,408 806,408 224,0 704,-140 704,-1233 0,-204 0,-574 -192,-868 C 1894,159 1645,25 1370,25 947,25 518,320 403,814 c 26,-7 77,-19 103,-19 83,0 243,45 243,243 0,172 -122,242 -243,242 -148,0 -244,-90 -244,-269 0,-557 442,-1139 1120,-1139 660,0 1287,568 1287,1392 0,766 -499,1360 -1120,1360 -327,0 -602,-121 -819,-350 z"
               transform="scale(0.015625)"
               inkscape:connector-curvature="0"
               style="stroke-linecap:butt;stroke-linejoin:round" />
          </defs>
          <use
             xlink:href="#CMR17-30"
             transform="scale(0.996264)"
             id="use46"
             style="stroke-linecap:butt;stroke-linejoin:round"
             x="0"
             y="0"
             width="100%"
             height="100%" />
          <use
             xlink:href="#CMMI12-3a"
             transform="matrix(0.996264,0,0,0.996264,45.690477,0)"
             id="use48"
             style="stroke-linecap:butt;stroke-linejoin:round"
             x="0"
             y="0"
             width="100%"
             height="100%" />
          <use
             xlink:href="#CMR17-30"
             transform="matrix(0.996264,0,0,0.996264,72.787654,0)"
             id="use50"
             style="stroke-linecap:butt;stroke-linejoin:round"
             x="0"
             y="0"
             width="100%"
             height="100%" />
          <use
             xlink:href="#CMR17-35"
             transform="matrix(0.996264,0,0,0.996264,118.47813,0)"
             id="use52"
             style="stroke-linecap:butt;stroke-linejoin:round"
             x="0"
             y="0"
             width="100%"
             height="100%" />
        </g>
      </g>
    </g>
    <g
       id="xtick_3"
       style="stroke-linecap:butt;stroke-linejoin:round">
      <g
         id="line2d_3"
         style="stroke-linecap:butt;stroke-linejoin:round">
        <g
           id="g60"
           style="stroke-linecap:butt;stroke-linejoin:round">
          <use
             xlink:href="#m05bc36b1c3"
             x="134.94432"
             y="65.365173"
             style="fill:#262626;stroke:#262626;stroke-width:0.80000001;stroke-linecap:butt;stroke-linejoin:round"
             id="use58"
             width="100%"
             height="100%" />
        </g>
      </g>
      <g
         id="text_3"
         style="stroke-linecap:butt;stroke-linejoin:round">
        <!-- $\mathdefault{0.10}$ -->
        <g
           style="fill:#262626;stroke-linecap:butt;stroke-linejoin:round"
           transform="matrix(0.11,0,0,-0.11,125.20305,79.97552)"
           id="g74">
          <defs
             id="defs64">
            <path
               id="CMR17-31"
               d="m 1702,4058 c 0,134 -6,134 -96,134 -249,-276 -627,-365 -985,-365 -19,0 -51,0 -58,-19 -6,-13 -6,-26 -6,-160 198,0 531,38 787,191 V 461 C 1344,236 1331,160 781,160 H 589 V 0 c 307,0 627,0 934,0 307,0 627,0 935,0 v 160 h -192 c -551,0 -564,70 -564,298 z"
               transform="scale(0.015625)"
               inkscape:connector-curvature="0"
               style="stroke-linecap:butt;stroke-linejoin:round" />
          </defs>
          <use
             xlink:href="#CMR17-30"
             transform="scale(0.996264)"
             id="use66"
             style="stroke-linecap:butt;stroke-linejoin:round"
             x="0"
             y="0"
             width="100%"
             height="100%" />
          <use
             xlink:href="#CMMI12-3a"
             transform="matrix(0.996264,0,0,0.996264,45.690477,0)"
             id="use68"
             style="stroke-linecap:butt;stroke-linejoin:round"
             x="0"
             y="0"
             width="100%"
             height="100%" />
          <use
             xlink:href="#CMR17-31"
             transform="matrix(0.996264,0,0,0.996264,72.787654,0)"
             id="use70"
             style="stroke-linecap:butt;stroke-linejoin:round"
             x="0"
             y="0"
             width="100%"
             height="100%" />
          <use
             xlink:href="#CMR17-30"
             transform="matrix(0.996264,0,0,0.996264,118.47813,0)"
             id="use72"
             style="stroke-linecap:butt;stroke-linejoin:round"
             x="0"
             y="0"
             width="100%"
             height="100%" />
        </g>
      </g>
    </g>
    <g
       id="text_4"
       style="stroke-linecap:butt;stroke-linejoin:round">
      <!-- E/var -->
      <g
         style="fill:#262626;stroke-linecap:butt;stroke-linejoin:round"
         transform="matrix(0.11,0,0,-0.11,83.802117,94.325593)"
         id="g95">
        <defs
           id="defs83">
          <path
             id="CMR17-45"
             d="M 3885,1615 H 3770 C 3629,676 3546,166 2419,166 h -889 c -256,0 -269,31 -269,248 v 1762 h 601 c 602,0 660,-216 660,-746 h 115 v 1651 h -115 c 0,-524 -58,-739 -660,-739 h -601 v 1571 c 0,215 13,247 269,247 h 876 c 992,0 1108,-391 1197,-1231 h 115 L 3565,4325 H 326 v -165 c 442,0 512,0 512,-286 V 451 C 838,166 768,166 326,166 V 0 h 3328 z"
             transform="scale(0.015625)"
             inkscape:connector-curvature="0"
             style="stroke-linecap:butt;stroke-linejoin:round" />
          <path
             id="CMR17-2f"
             d="m 2605,4545 c 32,82 32,95 32,108 0,76 -58,115 -109,115 -77,0 -102,-51 -128,-128 L 326,-1377 c -32,-83 -32,-96 -32,-109 0,-76 58,-114 109,-114 77,0 103,51 128,127 z"
             transform="scale(0.015625)"
             inkscape:connector-curvature="0"
             style="stroke-linecap:butt;stroke-linejoin:round" />
          <path
             id="CMR17-76"
             d="m 2502,2163 c 58,141 160,397 532,397 v 166 c -122,0 -282,0 -404,0 -134,0 -345,0 -473,6 v -166 c 160,-13 249,-89 249,-255 0,-58 0,-71 -38,-160 L 1664,377 902,2286 c -38,83 -38,95 -38,121 0,153 211,153 307,153 v 172 c -153,-6 -435,-6 -595,-6 -173,0 -371,0 -512,6 v -172 c 243,0 378,0 454,-198 L 1446,44 c 39,-95 45,-108 103,-108 57,0 64,13 102,108 z"
             transform="scale(0.015625)"
             inkscape:connector-curvature="0"
             style="stroke-linecap:butt;stroke-linejoin:round" />
          <path
             id="CMR17-61"
             d="m 2304,1653 c 0,419 0,641 -269,890 -237,209 -512,273 -729,273 -506,0 -871,-409 -871,-845 0,-243 192,-243 231,-243 83,0 230,50 230,226 0,158 -122,227 -230,227 -26,0 -58,-7 -77,-13 134,424 480,546 704,546 320,0 672,-285 672,-829 V 1600 C 1587,1600 1133,1549 774,1357 371,1133 256,813 256,570 256,77 832,-64 1171,-64 c 352,0 679,203 819,575 13,-278 192,-529 474,-529 134,0 474,88 474,585 V 920 H 2822 V 562 c 0,-384 -172,-434 -256,-434 -262,0 -262,330 -262,610 z M 1965,870 C 1965,317 1568,38 1216,38 896,38 646,275 646,570 c 0,191 84,530 455,735 307,173 659,199 864,199 z"
             transform="scale(0.015625)"
             inkscape:connector-curvature="0"
             style="stroke-linecap:butt;stroke-linejoin:round" />
          <path
             id="CMR17-72"
             d="m 960,1497 c 0,615 262,1191 742,1191 45,0 90,-6 135,-26 0,0 -141,-45 -141,-210 0,-154 122,-218 218,-218 76,0 217,45 217,224 0,205 -205,332 -422,332 -487,0 -698,-473 -762,-697 h -6 v 697 l -743,-70 v -166 c 378,0 436,-39 436,-346 V 428 C 634,184 608,153 198,153 V -13 C 352,0 646,0 813,0 c 185,0 512,0 685,-13 v 166 c -461,0 -538,0 -538,287 z"
             transform="scale(0.015625)"
             inkscape:connector-curvature="0"
             style="stroke-linecap:butt;stroke-linejoin:round" />
        </defs>
        <use
           xlink:href="#CMR17-45"
           transform="scale(0.996264)"
           id="use85"
           style="stroke-linecap:butt;stroke-linejoin:round"
           x="0"
           y="0"
           width="100%"
           height="100%" />
        <use
           xlink:href="#CMR17-2f"
           transform="matrix(0.996264,0,0,0.996264,62.586301,0)"
           id="use87"
           style="stroke-linecap:butt;stroke-linejoin:round"
           x="0"
           y="0"
           width="100%"
           height="100%" />
        <use
           xlink:href="#CMR17-76"
           transform="matrix(0.996264,0,0,0.996264,108.27678,0)"
           id="use89"
           style="stroke-linecap:butt;stroke-linejoin:round"
           x="0"
           y="0"
           width="100%"
           height="100%" />
        <use
           xlink:href="#CMR17-61"
           transform="matrix(0.996264,0,0,0.996264,151.36488,0)"
           id="use91"
           style="stroke-linecap:butt;stroke-linejoin:round"
           x="0"
           y="0"
           width="100%"
           height="100%" />
        <use
           xlink:href="#CMR17-72"
           transform="matrix(0.996264,0,0,0.996264,197.05535,0)"
           id="use93"
           style="stroke-linecap:butt;stroke-linejoin:round"
           x="0"
           y="0"
           width="100%"
           height="100%" />
      </g>
    </g>
  </g>
  <g
     style="stroke-linecap:butt;stroke-linejoin:round"
     id="ytick_1"
     transform="translate(-21.357337,-7.6219909)">
    <g
       style="stroke-linecap:butt;stroke-linejoin:round"
       id="line2d_4">
      <defs
         id="defs100">
        <path
           inkscape:connector-curvature="0"
           style="stroke:#262626;stroke-width:0.80000001;stroke-linecap:butt;stroke-linejoin:round"
           d="M 0,0 H -3.5"
           id="m9521859096" />
      </defs>
      <g
         style="stroke-linecap:butt;stroke-linejoin:round"
         id="g104">
        <use
           height="100%"
           width="100%"
           id="use102"
           style="fill:#262626;stroke:#262626;stroke-width:0.80000001;stroke-linecap:butt;stroke-linejoin:round"
           y="49.833744"
           x="41.944317"
           xlink:href="#m9521859096" />
      </g>
    </g>
    <g
       style="stroke-linecap:butt;stroke-linejoin:round"
       id="text_5">
      <!-- $\mathdefault{0.5}$ -->
      <g
         id="g113"
         transform="matrix(0.11,0,0,-0.11,20.941241,53.638918)"
         style="fill:#262626;stroke-linecap:butt;stroke-linejoin:round">
        <use
           height="100%"
           width="100%"
           y="0"
           x="0"
           style="stroke-linecap:butt;stroke-linejoin:round"
           id="use107"
           transform="scale(0.996264)"
           xlink:href="#CMR17-30" />
        <use
           height="100%"
           width="100%"
           y="0"
           x="0"
           style="stroke-linecap:butt;stroke-linejoin:round"
           id="use109"
           transform="matrix(0.996264,0,0,0.996264,45.690477,0)"
           xlink:href="#CMMI12-3a" />
        <use
           height="100%"
           width="100%"
           y="0"
           x="0"
           style="stroke-linecap:butt;stroke-linejoin:round"
           id="use111"
           transform="matrix(0.996264,0,0,0.996264,72.787654,0)"
           xlink:href="#CMR17-35" />
      </g>
    </g>
  </g>
  <g
     style="stroke-linecap:butt;stroke-linejoin:round"
     id="ytick_2"
     transform="translate(-21.357337,-7.6219909)">
    <g
       style="stroke-linecap:butt;stroke-linejoin:round"
       id="line2d_5">
      <g
         style="stroke-linecap:butt;stroke-linejoin:round"
         id="g119">
        <use
           height="100%"
           width="100%"
           id="use117"
           style="fill:#262626;stroke:#262626;stroke-width:0.80000001;stroke-linecap:butt;stroke-linejoin:round"
           y="11.005173"
           x="41.944317"
           xlink:href="#m9521859096" />
      </g>
    </g>
    <g
       style="stroke-linecap:butt;stroke-linejoin:round"
       id="text_6">
      <!-- $\mathdefault{1.0}$ -->
      <g
         id="g128"
         transform="matrix(0.11,0,0,-0.11,20.941241,14.810347)"
         style="fill:#262626;stroke-linecap:butt;stroke-linejoin:round">
        <use
           height="100%"
           width="100%"
           y="0"
           x="0"
           style="stroke-linecap:butt;stroke-linejoin:round"
           id="use122"
           transform="scale(0.996264)"
           xlink:href="#CMR17-31" />
        <use
           height="100%"
           width="100%"
           y="0"
           x="0"
           style="stroke-linecap:butt;stroke-linejoin:round"
           id="use124"
           transform="matrix(0.996264,0,0,0.996264,45.690477,0)"
           xlink:href="#CMMI12-3a" />
        <use
           height="100%"
           width="100%"
           y="0"
           x="0"
           style="stroke-linecap:butt;stroke-linejoin:round"
           id="use126"
           transform="matrix(0.996264,0,0,0.996264,72.787654,0)"
           xlink:href="#CMR17-30" />
      </g>
    </g>
  </g>
  <g
     id="LineCollection_1"
     style="stroke-linecap:butt;stroke-linejoin:round"
     transform="translate(-21.357337,-7.6219909)">
    <path
       d="M 93.094318,27.181705 V 21.120036"
       clip-path="url(#p664a59dde6)"
       style="fill:none;stroke:#c6dbef;stroke-width:1.5;stroke-linecap:butt;stroke-linejoin:round"
       id="path159"
       inkscape:connector-curvature="0" />
  </g>
  <g
     id="line2d_6"
     style="stroke-linecap:butt;stroke-linejoin:round"
     transform="translate(-21.357337,-7.6219909)">
    <defs
       id="defs163">
      <path
         id="mf91f50067f"
         d="M 1,0 H -1"
         style="stroke:#c6dbef;stroke-linecap:butt;stroke-linejoin:round"
         inkscape:connector-curvature="0" />
    </defs>
    <g
       clip-path="url(#p664a59dde6)"
       id="g167"
       style="stroke-linecap:butt;stroke-linejoin:round">
      <use
         xlink:href="#mf91f50067f"
         x="93.094315"
         y="27.181705"
         style="fill:#c6dbef;stroke:#c6dbef;stroke-linecap:butt;stroke-linejoin:round"
         id="use165"
         width="100%"
         height="100%" />
    </g>
  </g>
  <g
     id="line2d_7"
     style="stroke-linecap:butt;stroke-linejoin:round"
     transform="translate(-21.357337,-7.6219909)">
    <g
       clip-path="url(#p664a59dde6)"
       id="g172"
       style="stroke-linecap:butt;stroke-linejoin:round">
      <use
         xlink:href="#mf91f50067f"
         x="93.094315"
         y="21.120035"
         style="fill:#c6dbef;stroke:#c6dbef;stroke-linecap:butt;stroke-linejoin:round"
         id="use170"
         width="100%"
         height="100%" />
    </g>
  </g>
  <g
     id="LineCollection_2"
     style="stroke-linecap:butt;stroke-linejoin:round"
     transform="translate(-21.357337,-7.6219909)">
    <path
       d="M 107.04432,28.87541 V 21.522999"
       clip-path="url(#p664a59dde6)"
       style="fill:none;stroke:#6baed6;stroke-width:1.5;stroke-linecap:butt;stroke-linejoin:round"
       id="path175"
       inkscape:connector-curvature="0" />
  </g>
  <g
     id="line2d_8"
     style="stroke-linecap:butt;stroke-linejoin:round"
     transform="translate(-21.357337,-7.6219909)">
    <defs
       id="defs179">
      <path
         id="mf071967196"
         d="M 1,0 H -1"
         style="stroke:#6baed6;stroke-linecap:butt;stroke-linejoin:round"
         inkscape:connector-curvature="0" />
    </defs>
    <g
       clip-path="url(#p664a59dde6)"
       id="g183"
       style="stroke-linecap:butt;stroke-linejoin:round">
      <use
         xlink:href="#mf071967196"
         x="107.04432"
         y="28.87541"
         style="fill:#6baed6;stroke:#6baed6;stroke-linecap:butt;stroke-linejoin:round"
         id="use181"
         width="100%"
         height="100%" />
    </g>
  </g>
  <g
     id="line2d_9"
     style="stroke-linecap:butt;stroke-linejoin:round"
     transform="translate(-21.357337,-7.6219909)">
    <g
       clip-path="url(#p664a59dde6)"
       id="g188"
       style="stroke-linecap:butt;stroke-linejoin:round">
      <use
         xlink:href="#mf071967196"
         x="107.04432"
         y="21.522999"
         style="fill:#6baed6;stroke:#6baed6;stroke-linecap:butt;stroke-linejoin:round"
         id="use186"
         width="100%"
         height="100%" />
    </g>
  </g>
  <g
     id="LineCollection_3"
     style="stroke-linecap:butt;stroke-linejoin:round"
     transform="translate(-21.357337,-7.6219909)">
    <path
       d="M 120.99432,35.341704 V 27.175627"
       clip-path="url(#p664a59dde6)"
       style="fill:none;stroke:#2171b5;stroke-width:1.5;stroke-linecap:butt;stroke-linejoin:round"
       id="path191"
       inkscape:connector-curvature="0" />
  </g>
  <g
     id="line2d_10"
     style="stroke-linecap:butt;stroke-linejoin:round"
     transform="translate(-21.357337,-7.6219909)">
    <defs
       id="defs195">
      <path
         id="mddb94c5692"
         d="M 1,0 H -1"
         style="stroke:#2171b5;stroke-linecap:butt;stroke-linejoin:round"
         inkscape:connector-curvature="0" />
    </defs>
    <g
       clip-path="url(#p664a59dde6)"
       id="g199"
       style="stroke-linecap:butt;stroke-linejoin:round">
      <use
         xlink:href="#mddb94c5692"
         x="120.99432"
         y="35.341705"
         style="fill:#2171b5;stroke:#2171b5;stroke-linecap:butt;stroke-linejoin:round"
         id="use197"
         width="100%"
         height="100%" />
    </g>
  </g>
  <g
     id="line2d_11"
     style="stroke-linecap:butt;stroke-linejoin:round"
     transform="translate(-21.357337,-7.6219909)">
    <g
       clip-path="url(#p664a59dde6)"
       id="g204"
       style="stroke-linecap:butt;stroke-linejoin:round">
      <use
         xlink:href="#mddb94c5692"
         x="120.99432"
         y="27.175627"
         style="fill:#2171b5;stroke:#2171b5;stroke-linecap:butt;stroke-linejoin:round"
         id="use202"
         width="100%"
         height="100%" />
    </g>
  </g>
  <g
     id="LineCollection_4"
     style="stroke-linecap:butt;stroke-linejoin:round"
     transform="translate(-21.357337,-7.6219909)">
    <path
       d="M 139.59432,49.989524 V 37.679581"
       clip-path="url(#p664a59dde6)"
       style="fill:none;stroke:#08306b;stroke-width:1.5;stroke-linecap:butt;stroke-linejoin:round"
       id="path207"
       inkscape:connector-curvature="0" />
  </g>
  <g
     id="line2d_12"
     style="stroke-linecap:butt;stroke-linejoin:round"
     transform="translate(-21.357337,-7.6219909)">
    <defs
       id="defs211">
      <path
         id="ma9f8ab4a6b"
         d="M 1,0 H -1"
         style="stroke:#08306b;stroke-linecap:butt;stroke-linejoin:round"
         inkscape:connector-curvature="0" />
    </defs>
    <g
       clip-path="url(#p664a59dde6)"
       id="g215"
       style="stroke-linecap:butt;stroke-linejoin:round">
      <use
         xlink:href="#ma9f8ab4a6b"
         x="139.59431"
         y="49.989525"
         style="fill:#08306b;stroke:#08306b;stroke-linecap:butt;stroke-linejoin:round"
         id="use213"
         width="100%"
         height="100%" />
    </g>
  </g>
  <g
     id="line2d_13"
     style="stroke-linecap:butt;stroke-linejoin:round"
     transform="translate(-21.357337,-7.6219909)">
    <g
       clip-path="url(#p664a59dde6)"
       id="g220"
       style="stroke-linecap:butt;stroke-linejoin:round">
      <use
         xlink:href="#ma9f8ab4a6b"
         x="139.59431"
         y="37.679581"
         style="fill:#08306b;stroke:#08306b;stroke-linecap:butt;stroke-linejoin:round"
         id="use218"
         width="100%"
         height="100%" />
    </g>
  </g>
  <g
     id="line2d_15"
     style="stroke-linecap:butt;stroke-linejoin:round"
     transform="translate(-21.357337,-7.6219909)">
    <g
       clip-path="url(#p664a59dde6)"
       id="g236"
       style="stroke-linecap:butt;stroke-linejoin:round">
      <use
         xlink:href="#m70ec0111ff"
         x="60.544319"
         y="23.197292"
         style="fill:#c7e9b4;stroke:#c7e9b4;stroke-linecap:butt;stroke-linejoin:round"
         id="use234"
         width="100%"
         height="100%" />
    </g>
  </g>
  <g
     id="LineCollection_6"
     style="stroke-linecap:butt;stroke-linejoin:round"
     transform="translate(-21.357337,-7.6219909)">
    <path
       d="M 82.864318,27.282918 V 18.50167"
       clip-path="url(#p664a59dde6)"
       style="fill:none;stroke:#000000;stroke-width:1.5;stroke-linecap:butt;stroke-linejoin:round"
       id="path239"
       inkscape:connector-curvature="0" />
  </g>
  <g
     id="line2d_16"
     style="stroke-linecap:butt;stroke-linejoin:round"
     transform="translate(-21.357337,-7.6219909)">
    <defs
       id="defs243">
      <path
         id="ma777d93133"
         d="M 1,0 H -1"
         style="stroke:#000000;stroke-linecap:butt;stroke-linejoin:round"
         inkscape:connector-curvature="0" />
    </defs>
    <g
       clip-path="url(#p664a59dde6)"
       id="g247"
       style="stroke-linecap:butt;stroke-linejoin:round">
      <use
         xlink:href="#ma777d93133"
         x="82.864319"
         y="27.282919"
         style="stroke:#000000;stroke-linecap:butt;stroke-linejoin:round"
         id="use245"
         width="100%"
         height="100%" />
    </g>
  </g>
  <g
     id="line2d_17"
     style="stroke-linecap:butt;stroke-linejoin:round"
     transform="translate(-21.357337,-7.6219909)">
    <g
       clip-path="url(#p664a59dde6)"
       id="g252"
       style="stroke-linecap:butt;stroke-linejoin:round">
      <use
         xlink:href="#ma777d93133"
         x="82.864319"
         y="18.501671"
         style="stroke:#000000;stroke-linecap:butt;stroke-linejoin:round"
         id="use250"
         width="100%"
         height="100%" />
    </g>
  </g>
  <g
     id="LineCollection_7"
     style="stroke-linecap:butt;stroke-linejoin:round"
     transform="translate(-21.357337,-7.6219909)">
    <path
       d="M 58.219318,33.32549 V 24.331781"
       clip-path="url(#p664a59dde6)"
       style="fill:none;stroke:#000000;stroke-width:1.5;stroke-linecap:butt;stroke-linejoin:round"
       id="path255"
       inkscape:connector-curvature="0" />
  </g>
  <g
     id="line2d_18"
     style="stroke-linecap:butt;stroke-linejoin:round"
     transform="translate(-21.357337,-7.6219909)">
    <g
       clip-path="url(#p664a59dde6)"
       id="g260"
       style="stroke-linecap:butt;stroke-linejoin:round">
      <use
         xlink:href="#ma777d93133"
         x="58.219318"
         y="33.325489"
         style="stroke:#000000;stroke-linecap:butt;stroke-linejoin:round"
         id="use258"
         width="100%"
         height="100%" />
    </g>
  </g>
  <g
     id="line2d_19"
     style="stroke-linecap:butt;stroke-linejoin:round"
     transform="translate(-21.357337,-7.6219909)">
    <g
       clip-path="url(#p664a59dde6)"
       id="g265"
       style="stroke-linecap:butt;stroke-linejoin:round">
      <use
         xlink:href="#ma777d93133"
         x="58.219318"
         y="24.331781"
         style="stroke:#000000;stroke-linecap:butt;stroke-linejoin:round"
         id="use263"
         width="100%"
         height="100%" />
    </g>
  </g>
  <g
     id="line2d_20"
     style="stroke-linecap:butt;stroke-linejoin:round"
     transform="translate(-21.357337,-7.6219909)">
    <path
       d="M 93.094318,24.150871"
       clip-path="url(#p664a59dde6)"
       style="fill:none;stroke:#c6dbef;stroke-width:1.5;stroke-linecap:round;stroke-linejoin:round"
       id="path268"
       inkscape:connector-curvature="0" />
    <defs
       id="defs271">
      <path
         id="m455987566b"
         d="M 0,2 C 0.530406,2 1.03916,1.789267 1.414214,1.414214 1.789267,1.03916 2,0.530406 2,0 2,-0.530406 1.789267,-1.03916 1.414214,-1.414214 1.03916,-1.789267 0.530406,-2 0,-2 -0.530406,-2 -1.03916,-1.789267 -1.414214,-1.414214 -1.789267,-1.03916 -2,-0.530406 -2,0 -2,0.530406 -1.789267,1.03916 -1.414214,1.414214 -1.03916,1.789267 -0.530406,2 0,2 Z"
         style="stroke:#c6dbef;stroke-linecap:butt;stroke-linejoin:round"
         inkscape:connector-curvature="0" />
    </defs>
    <g
       clip-path="url(#p664a59dde6)"
       id="g275"
       style="stroke-linecap:butt;stroke-linejoin:round">
      <use
         xlink:href="#m455987566b"
         x="93.094315"
         y="24.150871"
         style="fill:#c6dbef;stroke:#c6dbef;stroke-linecap:butt;stroke-linejoin:round"
         id="use273"
         width="100%"
         height="100%" />
    </g>
  </g>
  <g
     id="line2d_21"
     style="stroke-linecap:butt;stroke-linejoin:round"
     transform="translate(-21.357337,-7.6219909)">
    <path
       d="M 107.04432,25.199205"
       clip-path="url(#p664a59dde6)"
       style="fill:none;stroke:#6baed6;stroke-width:1.5;stroke-linecap:round;stroke-linejoin:round"
       id="path278"
       inkscape:connector-curvature="0" />
    <defs
       id="defs281">
      <path
         id="mdea0352d33"
         d="M 0,2 C 0.530406,2 1.03916,1.789267 1.414214,1.414214 1.789267,1.03916 2,0.530406 2,0 2,-0.530406 1.789267,-1.03916 1.414214,-1.414214 1.03916,-1.789267 0.530406,-2 0,-2 -0.530406,-2 -1.03916,-1.789267 -1.414214,-1.414214 -1.789267,-1.03916 -2,-0.530406 -2,0 -2,0.530406 -1.789267,1.03916 -1.414214,1.414214 -1.03916,1.789267 -0.530406,2 0,2 Z"
         style="stroke:#6baed6;stroke-linecap:butt;stroke-linejoin:round"
         inkscape:connector-curvature="0" />
    </defs>
    <g
       clip-path="url(#p664a59dde6)"
       id="g285"
       style="stroke-linecap:butt;stroke-linejoin:round">
      <use
         xlink:href="#mdea0352d33"
         x="107.04432"
         y="25.199205"
         style="fill:#6baed6;stroke:#6baed6;stroke-linecap:butt;stroke-linejoin:round"
         id="use283"
         width="100%"
         height="100%" />
    </g>
  </g>
  <g
     id="line2d_22"
     style="stroke-linecap:butt;stroke-linejoin:round"
     transform="translate(-21.357337,-7.6219909)">
    <path
       d="M 120.99432,31.258666"
       clip-path="url(#p664a59dde6)"
       style="fill:none;stroke:#2171b5;stroke-width:1.5;stroke-linecap:round;stroke-linejoin:round"
       id="path288"
       inkscape:connector-curvature="0" />
    <defs
       id="defs291">
      <path
         id="mc3c77d17a3"
         d="M 0,2 C 0.530406,2 1.03916,1.789267 1.414214,1.414214 1.789267,1.03916 2,0.530406 2,0 2,-0.530406 1.789267,-1.03916 1.414214,-1.414214 1.03916,-1.789267 0.530406,-2 0,-2 -0.530406,-2 -1.03916,-1.789267 -1.414214,-1.414214 -1.789267,-1.03916 -2,-0.530406 -2,0 -2,0.530406 -1.789267,1.03916 -1.414214,1.414214 -1.03916,1.789267 -0.530406,2 0,2 Z"
         style="stroke:#2171b5;stroke-linecap:butt;stroke-linejoin:round"
         inkscape:connector-curvature="0" />
    </defs>
    <g
       clip-path="url(#p664a59dde6)"
       id="g295"
       style="stroke-linecap:butt;stroke-linejoin:round">
      <use
         xlink:href="#mc3c77d17a3"
         x="120.99432"
         y="31.258665"
         style="fill:#2171b5;stroke:#2171b5;stroke-linecap:butt;stroke-linejoin:round"
         id="use293"
         width="100%"
         height="100%" />
    </g>
  </g>
  <g
     id="line2d_23"
     style="stroke-linecap:butt;stroke-linejoin:round"
     transform="translate(-21.357337,-7.6219909)">
    <path
       d="M 139.59432,43.834552"
       clip-path="url(#p664a59dde6)"
       style="fill:none;stroke:#08306b;stroke-width:1.5;stroke-linecap:round;stroke-linejoin:round"
       id="path298"
       inkscape:connector-curvature="0" />
    <defs
       id="defs301">
      <path
         id="m5d7684fe4d"
         d="M 0,2 C 0.530406,2 1.03916,1.789267 1.414214,1.414214 1.789267,1.03916 2,0.530406 2,0 2,-0.530406 1.789267,-1.03916 1.414214,-1.414214 1.03916,-1.789267 0.530406,-2 0,-2 -0.530406,-2 -1.03916,-1.789267 -1.414214,-1.414214 -1.789267,-1.03916 -2,-0.530406 -2,0 -2,0.530406 -1.789267,1.03916 -1.414214,1.414214 -1.03916,1.789267 -0.530406,2 0,2 Z"
         style="stroke:#08306b;stroke-linecap:butt;stroke-linejoin:round"
         inkscape:connector-curvature="0" />
    </defs>
    <g
       clip-path="url(#p664a59dde6)"
       id="g305"
       style="stroke-linecap:butt;stroke-linejoin:round">
      <use
         xlink:href="#m5d7684fe4d"
         x="139.59431"
         y="43.834553"
         style="fill:#08306b;stroke:#08306b;stroke-linecap:butt;stroke-linejoin:round"
         id="use303"
         width="100%"
         height="100%" />
    </g>
  </g>
  <g
     id="line2d_25"
     style="fill:#c6dbef;fill-opacity:1;stroke-linecap:butt;stroke-linejoin:round"
     transform="translate(-21.357337,-7.6219909)">
    <path
       d="M 82.864318,22.892294"
       clip-path="url(#p664a59dde6)"
       style="fill:#c6dbef;fill-opacity:1;stroke:#000000;stroke-width:1.5;stroke-linecap:round;stroke-linejoin:round"
       id="path318"
       inkscape:connector-curvature="0" />
    <defs
       id="defs321">
      <path
         id="m288ee96cc1"
         d="M 0,2 C 0.530406,2 1.03916,1.789267 1.414214,1.414214 1.789267,1.03916 2,0.530406 2,0 2,-0.530406 1.789267,-1.03916 1.414214,-1.414214 1.03916,-1.789267 0.530406,-2 0,-2 -0.530406,-2 -1.03916,-1.789267 -1.414214,-1.414214 -1.789267,-1.03916 -2,-0.530406 -2,0 -2,0.530406 -1.789267,1.03916 -1.414214,1.414214 -1.03916,1.789267 -0.530406,2 0,2 Z"
         style="stroke:#000000;stroke-linecap:butt;stroke-linejoin:round"
         inkscape:connector-curvature="0" />
    </defs>
    <g
       clip-path="url(#p664a59dde6)"
       id="g325"
       style="fill:#c6dbef;fill-opacity:1;stroke-linecap:butt;stroke-linejoin:round">
      <use
         xlink:href="#m288ee96cc1"
         x="82.864319"
         y="22.892294"
         style="fill:#c6dbef;fill-opacity:1;stroke:#000000;stroke-linecap:butt;stroke-linejoin:round"
         id="use323"
         width="100%"
         height="100%" />
    </g>
  </g>
  <g
     id="line2d_26"
     style="fill:#c7e9b4;fill-opacity:1;stroke-linecap:butt;stroke-linejoin:round"
     transform="translate(-21.357337,-7.6219909)">
    <path
       d="M 58.219318,28.828635"
       clip-path="url(#p664a59dde6)"
       style="fill:#c7e9b4;fill-opacity:1;stroke:#000000;stroke-width:1.5;stroke-linecap:round;stroke-linejoin:round"
       id="path328"
       inkscape:connector-curvature="0" />
    <g
       clip-path="url(#p664a59dde6)"
       id="g332"
       style="fill:#c7e9b4;fill-opacity:1;stroke-linecap:butt;stroke-linejoin:round">
      <use
         xlink:href="#m288ee96cc1"
         x="58.219318"
         y="28.828634"
         style="fill:#c7e9b4;fill-opacity:1;stroke:#000000;stroke-linecap:butt;stroke-linejoin:round"
         id="use330"
         width="100%"
         height="100%" />
    </g>
  </g>
  <g
     id="patch_3"
     style="stroke-linecap:butt;stroke-linejoin:round"
     transform="translate(-21.357337,-7.6219909)">
    <path
       d="m 41.944318,65.365173 v -54.36"
       style="fill:none;stroke:#262626;stroke-width:0.80000001;stroke-linecap:square;stroke-linejoin:miter"
       id="path335"
       inkscape:connector-curvature="0" />
  </g>
  <g
     id="patch_4"
     style="stroke-linecap:butt;stroke-linejoin:round"
     transform="translate(-21.357337,-7.6219909)">
    <path
       d="M 41.944318,65.365173 H 153.54432"
       style="fill:none;stroke:#262626;stroke-width:0.80000001;stroke-linecap:square;stroke-linejoin:miter"
       id="path338"
       inkscape:connector-curvature="0" />
  </g>
  <defs
     id="defs346">
    <clipPath
       id="p664a59dde6"
       style="stroke-linecap:butt;stroke-linejoin:round">
      <rect
         x="41.944317"
         y="11.005173"
         width="111.6"
         height="54.360001"
         id="rect343"
         style="stroke-linecap:butt;stroke-linejoin:round" />
    </clipPath>
  </defs>
  <g
     id="line2d_24"
     style="stroke-linecap:butt;stroke-linejoin:round"
     transform="translate(-21.357337,-7.6219909)">
    <path
       d="M 60.544318,26.922866"
       clip-path="url(#p664a59dde6)"
       style="fill:none;stroke:#c7e9b4;stroke-width:1.5;stroke-linecap:round;stroke-linejoin:round"
       id="path308"
       inkscape:connector-curvature="0" />
    <defs
       id="defs311">
      <path
         id="m6ba9326b6b"
         d="M 0,2 C 0.530406,2 1.03916,1.789267 1.414214,1.414214 1.789267,1.03916 2,0.530406 2,0 2,-0.530406 1.789267,-1.03916 1.414214,-1.414214 1.03916,-1.789267 0.530406,-2 0,-2 -0.530406,-2 -1.03916,-1.789267 -1.414214,-1.414214 -1.789267,-1.03916 -2,-0.530406 -2,0 -2,0.530406 -1.789267,1.03916 -1.414214,1.414214 -1.03916,1.789267 -0.530406,2 0,2 Z"
         style="stroke:#c7e9b4;stroke-linecap:butt;stroke-linejoin:round"
         inkscape:connector-curvature="0" />
    </defs>
    <g
       clip-path="url(#p664a59dde6)"
       id="g315"
       style="stroke-linecap:butt;stroke-linejoin:round">
      <use
         xlink:href="#m6ba9326b6b"
         x="60.544319"
         y="26.922867"
         style="fill:#c7e9b4;stroke:#c7e9b4;stroke-linecap:butt;stroke-linejoin:round"
         id="use313"
         width="100%"
         height="100%" />
    </g>
  </g>
  <g
     id="LineCollection_5"
     style="stroke-linecap:butt;stroke-linejoin:round"
     transform="translate(-21.357337,-7.6219909)">
    <path
       d="M 60.544318,30.648439 V 23.197293"
       clip-path="url(#p664a59dde6)"
       style="fill:none;stroke:#c7e9b4;stroke-width:1.5;stroke-linecap:butt;stroke-linejoin:round"
       id="path223"
       inkscape:connector-curvature="0" />
  </g>
  <g
     id="line2d_14"
     style="stroke-linecap:butt;stroke-linejoin:round"
     transform="translate(-21.357337,-7.6219909)">
    <defs
       id="defs227">
      <path
         id="m70ec0111ff"
         d="M 1,0 H -1"
         style="stroke:#c7e9b4;stroke-linecap:butt;stroke-linejoin:round"
         inkscape:connector-curvature="0" />
    </defs>
    <g
       clip-path="url(#p664a59dde6)"
       id="g231"
       style="stroke-linecap:butt;stroke-linejoin:round">
      <use
         xlink:href="#m70ec0111ff"
         x="60.544319"
         y="30.648439"
         style="fill:#c7e9b4;stroke:#c7e9b4;stroke-linecap:butt;stroke-linejoin:round"
         id="use229"
         width="100%"
         height="100%" />
    </g>
  </g>
</svg>
