<?xml version="1.0" encoding="UTF-8" standalone="no"?>
<svg
   xmlns:dc="http://purl.org/dc/elements/1.1/"
   xmlns:cc="http://creativecommons.org/ns#"
   xmlns:rdf="http://www.w3.org/1999/02/22-rdf-syntax-ns#"
   xmlns:svg="http://www.w3.org/2000/svg"
   xmlns="http://www.w3.org/2000/svg"
   xmlns:xlink="http://www.w3.org/1999/xlink"
   xmlns:sodipodi="http://sodipodi.sourceforge.net/DTD/sodipodi-0.dtd"
   xmlns:inkscape="http://www.inkscape.org/namespaces/inkscape"
   width="160.744318pt"
   height="104.265319pt"
   viewBox="0 0 160.744318 104.265319"
   version="1.1"
   id="svg352"
   sodipodi:docname="range_resultSLOPE165.svg"
   inkscape:version="0.92.5 (2060ec1f9f, 2020-04-08)">
  <sodipodi:namedview
     pagecolor="#ffffff"
     bordercolor="#666666"
     borderopacity="1"
     objecttolerance="10"
     gridtolerance="10"
     guidetolerance="10"
     inkscape:pageopacity="0"
     inkscape:pageshadow="2"
     inkscape:window-width="2560"
     inkscape:window-height="1378"
     id="namedview354"
     showgrid="false"
     inkscape:zoom="4.4869324"
     inkscape:cx="112.84801"
     inkscape:cy="61.501785"
     inkscape:window-x="1920"
     inkscape:window-y="34"
     inkscape:window-maximized="1"
     inkscape:current-layer="svg352" />
  <metadata
     id="metadata2">
    <rdf:RDF>
      <cc:Work>
        <dc:type
           rdf:resource="http://purl.org/dc/dcmitype/StillImage" />
        <dc:date>2022-10-26T12:05:48.075891</dc:date>
        <dc:format>image/svg+xml</dc:format>
        <dc:creator>
          <cc:Agent>
            <dc:title>Matplotlib v3.5.1, https://matplotlib.org/</dc:title>
          </cc:Agent>
        </dc:creator>
      </cc:Work>
    </rdf:RDF>
  </metadata>
  <defs
     id="defs6">
    <style
       type="text/css"
       id="style4">*{stroke-linejoin: round; stroke-linecap: butt}</style>
  </defs>
  <g
     style="stroke-linecap:butt;stroke-linejoin:round"
     id="patch_1">
    <path
       inkscape:connector-curvature="0"
       id="path8"
       style="fill:#ffffff;stroke-linecap:butt;stroke-linejoin:round"
       d="M 0,104.26532 H 160.74432 V 0 H 0 Z" />
  </g>
  <g
     id="patch_2"
     style="stroke-linecap:butt;stroke-linejoin:round">
    <path
       d="M 41.944318,65.365173 H 153.54432 v -54.36 H 41.944318 Z"
       style="fill:#ffffff;stroke-linecap:butt;stroke-linejoin:round"
       id="path11"
       inkscape:connector-curvature="0" />
  </g>
  <g
     id="matplotlib.axis_1"
     style="stroke-linecap:butt;stroke-linejoin:round">
    <g
       id="xtick_1"
       style="stroke-linecap:butt;stroke-linejoin:round">
      <g
         id="line2d_1"
         style="stroke-linecap:butt;stroke-linejoin:round">
        <defs
           id="defs15">
          <path
             id="m24c19990cc"
             d="M 0,0 V 3.5"
             style="stroke:#262626;stroke-width:0.80000001;stroke-linecap:butt;stroke-linejoin:round"
             inkscape:connector-curvature="0" />
        </defs>
        <g
           id="g19"
           style="stroke-linecap:butt;stroke-linejoin:round">
          <use
             xlink:href="#m24c19990cc"
             x="41.944317"
             y="65.365173"
             style="fill:#262626;stroke:#262626;stroke-width:0.80000001;stroke-linecap:butt;stroke-linejoin:round"
             id="use17"
             width="100%"
             height="100%" />
        </g>
      </g>
      <g
         id="text_1"
         style="stroke-linecap:butt;stroke-linejoin:round">
        <!-- $\mathdefault{0.00}$ -->
        <g
           style="fill:#262626;stroke-linecap:butt;stroke-linejoin:round"
           transform="matrix(0.11,0,0,-0.11,32.203046,79.97552)"
           id="g34">
          <defs
             id="defs24">
            <path
               id="CMR17-30"
               d="m 2688,2025 c 0,391 -6,1055 -275,1566 -237,448 -615,607 -947,607 -308,0 -698,-140 -941,-601 C 269,3118 243,2524 243,2025 c 0,-364 7,-919 205,-1406 275,-658 768,-747 1018,-747 294,0 742,121 1004,728 192,442 218,959 218,1425 z M 1466,-26 c -410,0 -653,351 -743,838 -70,376 -70,926 -70,1284 0,492 0,901 83,1291 122,542 480,709 730,709 262,0 601,-173 723,-696 83,-364 89,-793 89,-1304 0,-416 0,-927 -76,-1304 C 2067,95 1690,-26 1466,-26 Z"
               transform="scale(0.015625)"
               inkscape:connector-curvature="0"
               style="stroke-linecap:butt;stroke-linejoin:round" />
            <path
               id="CMMI12-3a"
               d="M 1178,307 C 1178,492 1024,619 870,619 685,619 557,466 557,313 557,128 710,0 864,0 c 186,0 314,153 314,307 z"
               transform="scale(0.015625)"
               inkscape:connector-curvature="0"
               style="stroke-linecap:butt;stroke-linejoin:round" />
          </defs>
          <use
             xlink:href="#CMR17-30"
             transform="scale(0.996264)"
             id="use26"
             style="stroke-linecap:butt;stroke-linejoin:round"
             x="0"
             y="0"
             width="100%"
             height="100%" />
          <use
             xlink:href="#CMMI12-3a"
             transform="matrix(0.996264,0,0,0.996264,45.690477,0)"
             id="use28"
             style="stroke-linecap:butt;stroke-linejoin:round"
             x="0"
             y="0"
             width="100%"
             height="100%" />
          <use
             xlink:href="#CMR17-30"
             transform="matrix(0.996264,0,0,0.996264,72.787654,0)"
             id="use30"
             style="stroke-linecap:butt;stroke-linejoin:round"
             x="0"
             y="0"
             width="100%"
             height="100%" />
          <use
             xlink:href="#CMR17-30"
             transform="matrix(0.996264,0,0,0.996264,118.47813,0)"
             id="use32"
             style="stroke-linecap:butt;stroke-linejoin:round"
             x="0"
             y="0"
             width="100%"
             height="100%" />
        </g>
      </g>
    </g>
    <g
       id="xtick_2"
       style="stroke-linecap:butt;stroke-linejoin:round">
      <g
         id="line2d_2"
         style="stroke-linecap:butt;stroke-linejoin:round">
        <g
           id="g40"
           style="stroke-linecap:butt;stroke-linejoin:round">
          <use
             xlink:href="#m24c19990cc"
             x="88.444321"
             y="65.365173"
             style="fill:#262626;stroke:#262626;stroke-width:0.80000001;stroke-linecap:butt;stroke-linejoin:round"
             id="use38"
             width="100%"
             height="100%" />
        </g>
      </g>
      <g
         id="text_2"
         style="stroke-linecap:butt;stroke-linejoin:round">
        <!-- $\mathdefault{0.05}$ -->
        <g
           style="fill:#262626;stroke-linecap:butt;stroke-linejoin:round"
           transform="matrix(0.11,0,0,-0.11,78.703046,79.97552)"
           id="g54">
          <defs
             id="defs44">
            <path
               id="CMR17-35"
               d="m 730,3692 c 64,-26 326,-108 595,-108 595,0 921,327 1107,516 0,57 0,92 -38,92 -7,0 -20,0 -71,-29 -224,-105 -486,-190 -806,-190 -192,0 -480,26 -794,166 -70,32 -83,32 -89,32 -32,0 -39,-7 -39,-134 V 2203 c 0,-114 0,-146 64,-146 32,0 45,13 77,57 205,287 486,408 806,408 224,0 704,-140 704,-1233 0,-204 0,-574 -192,-868 C 1894,159 1645,25 1370,25 947,25 518,320 403,814 c 26,-7 77,-19 103,-19 83,0 243,45 243,243 0,172 -122,242 -243,242 -148,0 -244,-90 -244,-269 0,-557 442,-1139 1120,-1139 660,0 1287,568 1287,1392 0,766 -499,1360 -1120,1360 -327,0 -602,-121 -819,-350 z"
               transform="scale(0.015625)"
               inkscape:connector-curvature="0"
               style="stroke-linecap:butt;stroke-linejoin:round" />
          </defs>
          <use
             xlink:href="#CMR17-30"
             transform="scale(0.996264)"
             id="use46"
             style="stroke-linecap:butt;stroke-linejoin:round"
             x="0"
             y="0"
             width="100%"
             height="100%" />
          <use
             xlink:href="#CMMI12-3a"
             transform="matrix(0.996264,0,0,0.996264,45.690477,0)"
             id="use48"
             style="stroke-linecap:butt;stroke-linejoin:round"
             x="0"
             y="0"
             width="100%"
             height="100%" />
          <use
             xlink:href="#CMR17-30"
             transform="matrix(0.996264,0,0,0.996264,72.787654,0)"
             id="use50"
             style="stroke-linecap:butt;stroke-linejoin:round"
             x="0"
             y="0"
             width="100%"
             height="100%" />
          <use
             xlink:href="#CMR17-35"
             transform="matrix(0.996264,0,0,0.996264,118.47813,0)"
             id="use52"
             style="stroke-linecap:butt;stroke-linejoin:round"
             x="0"
             y="0"
             width="100%"
             height="100%" />
        </g>
      </g>
    </g>
    <g
       id="xtick_3"
       style="stroke-linecap:butt;stroke-linejoin:round">
      <g
         id="line2d_3"
         style="stroke-linecap:butt;stroke-linejoin:round">
        <g
           id="g60"
           style="stroke-linecap:butt;stroke-linejoin:round">
          <use
             xlink:href="#m24c19990cc"
             x="134.94432"
             y="65.365173"
             style="fill:#262626;stroke:#262626;stroke-width:0.80000001;stroke-linecap:butt;stroke-linejoin:round"
             id="use58"
             width="100%"
             height="100%" />
        </g>
      </g>
      <g
         id="text_3"
         style="stroke-linecap:butt;stroke-linejoin:round">
        <!-- $\mathdefault{0.10}$ -->
        <g
           style="fill:#262626;stroke-linecap:butt;stroke-linejoin:round"
           transform="matrix(0.11,0,0,-0.11,125.20305,79.97552)"
           id="g74">
          <defs
             id="defs64">
            <path
               id="CMR17-31"
               d="m 1702,4058 c 0,134 -6,134 -96,134 -249,-276 -627,-365 -985,-365 -19,0 -51,0 -58,-19 -6,-13 -6,-26 -6,-160 198,0 531,38 787,191 V 461 C 1344,236 1331,160 781,160 H 589 V 0 c 307,0 627,0 934,0 307,0 627,0 935,0 v 160 h -192 c -551,0 -564,70 -564,298 z"
               transform="scale(0.015625)"
               inkscape:connector-curvature="0"
               style="stroke-linecap:butt;stroke-linejoin:round" />
          </defs>
          <use
             xlink:href="#CMR17-30"
             transform="scale(0.996264)"
             id="use66"
             style="stroke-linecap:butt;stroke-linejoin:round"
             x="0"
             y="0"
             width="100%"
             height="100%" />
          <use
             xlink:href="#CMMI12-3a"
             transform="matrix(0.996264,0,0,0.996264,45.690477,0)"
             id="use68"
             style="stroke-linecap:butt;stroke-linejoin:round"
             x="0"
             y="0"
             width="100%"
             height="100%" />
          <use
             xlink:href="#CMR17-31"
             transform="matrix(0.996264,0,0,0.996264,72.787654,0)"
             id="use70"
             style="stroke-linecap:butt;stroke-linejoin:round"
             x="0"
             y="0"
             width="100%"
             height="100%" />
          <use
             xlink:href="#CMR17-30"
             transform="matrix(0.996264,0,0,0.996264,118.47813,0)"
             id="use72"
             style="stroke-linecap:butt;stroke-linejoin:round"
             x="0"
             y="0"
             width="100%"
             height="100%" />
        </g>
      </g>
    </g>
    <g
       id="text_4"
       style="stroke-linecap:butt;stroke-linejoin:round">
      <!-- E/var -->
      <g
         style="fill:#262626;stroke-linecap:butt;stroke-linejoin:round"
         transform="matrix(0.11,0,0,-0.11,83.802117,94.325593)"
         id="g95">
        <defs
           id="defs83">
          <path
             id="CMR17-45"
             d="M 3885,1615 H 3770 C 3629,676 3546,166 2419,166 h -889 c -256,0 -269,31 -269,248 v 1762 h 601 c 602,0 660,-216 660,-746 h 115 v 1651 h -115 c 0,-524 -58,-739 -660,-739 h -601 v 1571 c 0,215 13,247 269,247 h 876 c 992,0 1108,-391 1197,-1231 h 115 L 3565,4325 H 326 v -165 c 442,0 512,0 512,-286 V 451 C 838,166 768,166 326,166 V 0 h 3328 z"
             transform="scale(0.015625)"
             inkscape:connector-curvature="0"
             style="stroke-linecap:butt;stroke-linejoin:round" />
          <path
             id="CMR17-2f"
             d="m 2605,4545 c 32,82 32,95 32,108 0,76 -58,115 -109,115 -77,0 -102,-51 -128,-128 L 326,-1377 c -32,-83 -32,-96 -32,-109 0,-76 58,-114 109,-114 77,0 103,51 128,127 z"
             transform="scale(0.015625)"
             inkscape:connector-curvature="0"
             style="stroke-linecap:butt;stroke-linejoin:round" />
          <path
             id="CMR17-76"
             d="m 2502,2163 c 58,141 160,397 532,397 v 166 c -122,0 -282,0 -404,0 -134,0 -345,0 -473,6 v -166 c 160,-13 249,-89 249,-255 0,-58 0,-71 -38,-160 L 1664,377 902,2286 c -38,83 -38,95 -38,121 0,153 211,153 307,153 v 172 c -153,-6 -435,-6 -595,-6 -173,0 -371,0 -512,6 v -172 c 243,0 378,0 454,-198 L 1446,44 c 39,-95 45,-108 103,-108 57,0 64,13 102,108 z"
             transform="scale(0.015625)"
             inkscape:connector-curvature="0"
             style="stroke-linecap:butt;stroke-linejoin:round" />
          <path
             id="CMR17-61"
             d="m 2304,1653 c 0,419 0,641 -269,890 -237,209 -512,273 -729,273 -506,0 -871,-409 -871,-845 0,-243 192,-243 231,-243 83,0 230,50 230,226 0,158 -122,227 -230,227 -26,0 -58,-7 -77,-13 134,424 480,546 704,546 320,0 672,-285 672,-829 V 1600 C 1587,1600 1133,1549 774,1357 371,1133 256,813 256,570 256,77 832,-64 1171,-64 c 352,0 679,203 819,575 13,-278 192,-529 474,-529 134,0 474,88 474,585 V 920 H 2822 V 562 c 0,-384 -172,-434 -256,-434 -262,0 -262,330 -262,610 z M 1965,870 C 1965,317 1568,38 1216,38 896,38 646,275 646,570 c 0,191 84,530 455,735 307,173 659,199 864,199 z"
             transform="scale(0.015625)"
             inkscape:connector-curvature="0"
             style="stroke-linecap:butt;stroke-linejoin:round" />
          <path
             id="CMR17-72"
             d="m 960,1497 c 0,615 262,1191 742,1191 45,0 90,-6 135,-26 0,0 -141,-45 -141,-210 0,-154 122,-218 218,-218 76,0 217,45 217,224 0,205 -205,332 -422,332 -487,0 -698,-473 -762,-697 h -6 v 697 l -743,-70 v -166 c 378,0 436,-39 436,-346 V 428 C 634,184 608,153 198,153 V -13 C 352,0 646,0 813,0 c 185,0 512,0 685,-13 v 166 c -461,0 -538,0 -538,287 z"
             transform="scale(0.015625)"
             inkscape:connector-curvature="0"
             style="stroke-linecap:butt;stroke-linejoin:round" />
        </defs>
        <use
           xlink:href="#CMR17-45"
           transform="scale(0.996264)"
           id="use85"
           style="stroke-linecap:butt;stroke-linejoin:round"
           x="0"
           y="0"
           width="100%"
           height="100%" />
        <use
           xlink:href="#CMR17-2f"
           transform="matrix(0.996264,0,0,0.996264,62.586301,0)"
           id="use87"
           style="stroke-linecap:butt;stroke-linejoin:round"
           x="0"
           y="0"
           width="100%"
           height="100%" />
        <use
           xlink:href="#CMR17-76"
           transform="matrix(0.996264,0,0,0.996264,108.27678,0)"
           id="use89"
           style="stroke-linecap:butt;stroke-linejoin:round"
           x="0"
           y="0"
           width="100%"
           height="100%" />
        <use
           xlink:href="#CMR17-61"
           transform="matrix(0.996264,0,0,0.996264,151.36488,0)"
           id="use91"
           style="stroke-linecap:butt;stroke-linejoin:round"
           x="0"
           y="0"
           width="100%"
           height="100%" />
        <use
           xlink:href="#CMR17-72"
           transform="matrix(0.996264,0,0,0.996264,197.05535,0)"
           id="use93"
           style="stroke-linecap:butt;stroke-linejoin:round"
           x="0"
           y="0"
           width="100%"
           height="100%" />
      </g>
    </g>
  </g>
  <g
     id="matplotlib.axis_2"
     style="stroke-linecap:butt;stroke-linejoin:round">
    <g
       id="ytick_1"
       style="stroke-linecap:butt;stroke-linejoin:round">
      <g
         id="line2d_4"
         style="stroke-linecap:butt;stroke-linejoin:round">
        <defs
           id="defs100">
          <path
             id="md25773a9df"
             d="M 0,0 H -3.5"
             style="stroke:#262626;stroke-width:0.80000001;stroke-linecap:butt;stroke-linejoin:round"
             inkscape:connector-curvature="0" />
        </defs>
        <g
           id="g104"
           style="stroke-linecap:butt;stroke-linejoin:round">
          <use
             xlink:href="#md25773a9df"
             x="41.944317"
             y="49.833744"
             style="fill:#262626;stroke:#262626;stroke-width:0.80000001;stroke-linecap:butt;stroke-linejoin:round"
             id="use102"
             width="100%"
             height="100%" />
        </g>
      </g>
      <g
         id="text_5"
         style="stroke-linecap:butt;stroke-linejoin:round">
        <!-- $\mathdefault{0.5}$ -->
        <g
           style="fill:#262626;stroke-linecap:butt;stroke-linejoin:round"
           transform="matrix(0.11,0,0,-0.11,20.941241,53.638918)"
           id="g113">
          <use
             xlink:href="#CMR17-30"
             transform="scale(0.996264)"
             id="use107"
             style="stroke-linecap:butt;stroke-linejoin:round"
             x="0"
             y="0"
             width="100%"
             height="100%" />
          <use
             xlink:href="#CMMI12-3a"
             transform="matrix(0.996264,0,0,0.996264,45.690477,0)"
             id="use109"
             style="stroke-linecap:butt;stroke-linejoin:round"
             x="0"
             y="0"
             width="100%"
             height="100%" />
          <use
             xlink:href="#CMR17-35"
             transform="matrix(0.996264,0,0,0.996264,72.787654,0)"
             id="use111"
             style="stroke-linecap:butt;stroke-linejoin:round"
             x="0"
             y="0"
             width="100%"
             height="100%" />
        </g>
      </g>
    </g>
    <g
       id="ytick_2"
       style="stroke-linecap:butt;stroke-linejoin:round">
      <g
         id="line2d_5"
         style="stroke-linecap:butt;stroke-linejoin:round">
        <g
           id="g119"
           style="stroke-linecap:butt;stroke-linejoin:round">
          <use
             xlink:href="#md25773a9df"
             x="41.944317"
             y="11.005173"
             style="fill:#262626;stroke:#262626;stroke-width:0.80000001;stroke-linecap:butt;stroke-linejoin:round"
             id="use117"
             width="100%"
             height="100%" />
        </g>
      </g>
      <g
         id="text_6"
         style="stroke-linecap:butt;stroke-linejoin:round">
        <!-- $\mathdefault{1.0}$ -->
        <g
           style="fill:#262626;stroke-linecap:butt;stroke-linejoin:round"
           transform="matrix(0.11,0,0,-0.11,20.941241,14.810347)"
           id="g128">
          <use
             xlink:href="#CMR17-31"
             transform="scale(0.996264)"
             id="use122"
             style="stroke-linecap:butt;stroke-linejoin:round"
             x="0"
             y="0"
             width="100%"
             height="100%" />
          <use
             xlink:href="#CMMI12-3a"
             transform="matrix(0.996264,0,0,0.996264,45.690477,0)"
             id="use124"
             style="stroke-linecap:butt;stroke-linejoin:round"
             x="0"
             y="0"
             width="100%"
             height="100%" />
          <use
             xlink:href="#CMR17-30"
             transform="matrix(0.996264,0,0,0.996264,72.787654,0)"
             id="use126"
             style="stroke-linecap:butt;stroke-linejoin:round"
             x="0"
             y="0"
             width="100%"
             height="100%" />
        </g>
      </g>
    </g>
    <g
       id="text_7"
       style="stroke-linecap:butt;stroke-linejoin:round">
      <!-- slope $\tau_{165}$ -->
      <g
         style="fill:#262626;stroke-linecap:butt;stroke-linejoin:round"
         transform="matrix(0,-0.11,-0.11,0,14.810347,61.014359)"
         id="g159">
        <defs
           id="defs139">
          <path
             id="CMR17-73"
             d="m 1978,2697 c 0,116 -7,122 -45,122 -26,0 -32,-6 -109,-102 -19,-26 -77,-91 -96,-116 -205,218 -493,218 -602,218 -710,0 -966,-372 -966,-743 0,-578 653,-711 838,-751 404,-82 544,-108 679,-224 83,-76 224,-217 224,-447 0,-270 -154,-616 -743,-616 -556,0 -755,422 -870,983 -19,89 -19,96 -70,96 -52,0 -58,-7 -58,-134 V 63 c 0,-114 6,-121 45,-121 32,0 38,7 70,58 39,57 135,211 173,276 128,-173 352,-340 710,-340 634,0 973,347 973,848 0,328 -173,501 -256,578 -192,199 -416,244 -685,295 -352,78 -800,168 -800,560 0,166 90,520 736,520 685,0 724,-643 736,-849 7,-32 39,-39 58,-39 58,0 58,20 58,129 z"
             transform="scale(0.015625)"
             inkscape:connector-curvature="0"
             style="stroke-linecap:butt;stroke-linejoin:round" />
          <path
             id="CMR17-6c"
             d="m 979,4396 -761,-70 v -166 c 377,0 435,-38 435,-343 V 426 C 653,184 627,153 218,153 V -13 C 371,0 653,0 813,0 c 166,0 448,0 601,-13 v 166 c -409,0 -435,25 -435,273 z"
             transform="scale(0.015625)"
             inkscape:connector-curvature="0"
             style="stroke-linecap:butt;stroke-linejoin:round" />
          <path
             id="CMR17-6f"
             d="m 2758,1356 c 0,820 -595,1460 -1292,1460 C 768,2816 173,2176 173,1356 173,551 768,-64 1466,-64 c 697,0 1292,615 1292,1420 z M 1466,51 c -301,0 -557,179 -704,429 -160,287 -180,646 -180,928 0,269 13,602 180,890 128,211 377,416 704,416 288,0 531,-160 684,-384 199,-301 199,-723 199,-922 0,-250 -13,-633 -186,-941 C 1984,173 1709,51 1466,51 Z"
             transform="scale(0.015625)"
             inkscape:connector-curvature="0"
             style="stroke-linecap:butt;stroke-linejoin:round" />
          <path
             id="CMR17-70"
             d="m 1408,-1063 c -410,0 -435,26 -435,274 V 402 c 185,-268 454,-440 793,-440 640,0 1287,561 1287,1426 0,803 -557,1414 -1216,1414 -384,0 -698,-210 -877,-464 v 464 l -762,-70 v -165 c 378,0 436,-39 436,-344 V -789 c 0,-242 -26,-274 -436,-274 v -165 c 154,12 436,12 602,12 166,0 454,0 608,-12 z M 973,2012 c 0,90 0,223 249,459 32,26 250,217 570,217 467,0 851,-580 851,-1306 C 2643,656 2234,64 1728,64 1498,64 1248,172 1056,472 973,612 973,650 973,752 Z"
             transform="scale(0.015625)"
             inkscape:connector-curvature="0"
             style="stroke-linecap:butt;stroke-linejoin:round" />
          <path
             id="CMR17-65"
             d="m 2438,1472 c 26,26 26,39 26,104 0,662 -346,1240 -1075,1240 C 710,2816 173,2169 173,1383 173,551 781,-64 1459,-64 c 717,0 999,671 999,804 0,44 -39,44 -52,44 -44,0 -51,-13 -76,-88 C 2189,265 1837,51 1504,51 1229,51 954,203 781,480 582,803 582,1176 582,1472 Z m -1849,96 c 45,937 537,1146 793,1146 436,0 730,-417 736,-1146 z"
             transform="scale(0.015625)"
             inkscape:connector-curvature="0"
             style="stroke-linecap:butt;stroke-linejoin:round" />
          <path
             id="CMMI12-1c"
             d="m 1837,2408 h 1062 c 83,0 295,0 295,204 0,140 -122,140 -237,140 H 1197 c -147,0 -365,0 -659,-312 -167,-185 -372,-523 -372,-561 0,-38 32,-51 71,-51 45,0 51,19 83,57 333,523 666,523 826,523 h 531 L 1011,223 C 979,127 979,114 979,95 c 0,-70 45,-159 173,-159 198,0 230,172 250,267 z"
             transform="scale(0.015625)"
             inkscape:connector-curvature="0"
             style="stroke-linecap:butt;stroke-linejoin:round" />
          <path
             id="CMR17-36"
             d="m 678,2176 c 0,1514 717,1856 1133,1856 135,0 461,-23 589,-256 -102,0 -294,0 -294,-223 0,-172 140,-230 230,-230 58,0 230,25 230,237 0,394 -320,619 -761,619 -762,0 -1562,-789 -1562,-2195 0,-1731 723,-2112 1235,-2112 621,0 1210,555 1210,1411 0,798 -518,1379 -1171,1379 -391,0 -679,-255 -839,-702 z M 1478,25 c -787,0 -787,1175 -787,1411 0,460 218,1124 813,1124 109,0 422,0 634,-440 115,-250 115,-511 115,-831 0,-345 0,-599 -135,-855 C 1978,171 1773,25 1478,25 Z"
             transform="scale(0.015625)"
             inkscape:connector-curvature="0"
             style="stroke-linecap:butt;stroke-linejoin:round" />
        </defs>
        <use
           xlink:href="#CMR17-73"
           transform="scale(0.996264)"
           id="use141"
           style="stroke-linecap:butt;stroke-linejoin:round"
           x="0"
           y="0"
           width="100%"
           height="100%" />
        <use
           xlink:href="#CMR17-6c"
           transform="matrix(0.996264,0,0,0.996264,35.801338,0)"
           id="use143"
           style="stroke-linecap:butt;stroke-linejoin:round"
           x="0"
           y="0"
           width="100%"
           height="100%" />
        <use
           xlink:href="#CMR17-6f"
           transform="matrix(0.996264,0,0,0.996264,60.672396,0)"
           id="use145"
           style="stroke-linecap:butt;stroke-linejoin:round"
           x="0"
           y="0"
           width="100%"
           height="100%" />
        <use
           xlink:href="#CMR17-70"
           transform="matrix(0.996264,0,0,0.996264,106.36287,0)"
           id="use147"
           style="stroke-linecap:butt;stroke-linejoin:round"
           x="0"
           y="0"
           width="100%"
           height="100%" />
        <use
           xlink:href="#CMR17-65"
           transform="matrix(0.996264,0,0,0.996264,159.86068,0)"
           id="use149"
           style="stroke-linecap:butt;stroke-linejoin:round"
           x="0"
           y="0"
           width="100%"
           height="100%" />
        <use
           xlink:href="#CMMI12-1c"
           transform="matrix(0.996264,0,0,0.996264,230.42231,0)"
           id="use151"
           style="stroke-linecap:butt;stroke-linejoin:round"
           x="0"
           y="0"
           width="100%"
           height="100%" />
        <use
           xlink:href="#CMR17-31"
           transform="matrix(0.697382,0,0,0.697382,272.78615,-14.943915)"
           id="use153"
           style="stroke-linecap:butt;stroke-linejoin:round"
           x="0"
           y="0"
           width="100%"
           height="100%" />
        <use
           xlink:href="#CMR17-36"
           transform="matrix(0.697382,0,0,0.697382,304.76933,-14.943915)"
           id="use155"
           style="stroke-linecap:butt;stroke-linejoin:round"
           x="0"
           y="0"
           width="100%"
           height="100%" />
        <use
           xlink:href="#CMR17-35"
           transform="matrix(0.697382,0,0,0.697382,336.75251,-14.943915)"
           id="use157"
           style="stroke-linecap:butt;stroke-linejoin:round"
           x="0"
           y="0"
           width="100%"
           height="100%" />
      </g>
    </g>
  </g>
  <g
     id="LineCollection_1"
     style="stroke-linecap:butt;stroke-linejoin:round">
    <path
       d="M 93.094318,32.856003 V 24.224237"
       clip-path="url(#p057d96849d)"
       style="fill:none;stroke:#c6dbef;stroke-width:1.5;stroke-linecap:butt;stroke-linejoin:round"
       id="path163"
       inkscape:connector-curvature="0" />
  </g>
  <g
     id="line2d_6"
     style="stroke-linecap:butt;stroke-linejoin:round">
    <defs
       id="defs167">
      <path
         id="mf4218fd24f"
         d="M 1,0 H -1"
         style="stroke:#c6dbef;stroke-linecap:butt;stroke-linejoin:round"
         inkscape:connector-curvature="0" />
    </defs>
    <g
       clip-path="url(#p057d96849d)"
       id="g171"
       style="stroke-linecap:butt;stroke-linejoin:round">
      <use
         xlink:href="#mf4218fd24f"
         x="93.094315"
         y="32.856003"
         style="fill:#c6dbef;stroke:#c6dbef;stroke-linecap:butt;stroke-linejoin:round"
         id="use169"
         width="100%"
         height="100%" />
    </g>
  </g>
  <g
     id="line2d_7"
     style="stroke-linecap:butt;stroke-linejoin:round">
    <g
       clip-path="url(#p057d96849d)"
       id="g176"
       style="stroke-linecap:butt;stroke-linejoin:round">
      <use
         xlink:href="#mf4218fd24f"
         x="93.094315"
         y="24.224237"
         style="fill:#c6dbef;stroke:#c6dbef;stroke-linecap:butt;stroke-linejoin:round"
         id="use174"
         width="100%"
         height="100%" />
    </g>
  </g>
  <g
     id="LineCollection_2"
     style="stroke-linecap:butt;stroke-linejoin:round">
    <path
       d="M 107.04432,28.832088 V 21.242665"
       clip-path="url(#p057d96849d)"
       style="fill:none;stroke:#6baed6;stroke-width:1.5;stroke-linecap:butt;stroke-linejoin:round"
       id="path179"
       inkscape:connector-curvature="0" />
  </g>
  <g
     id="line2d_8"
     style="stroke-linecap:butt;stroke-linejoin:round">
    <defs
       id="defs183">
      <path
         id="mf7c674be37"
         d="M 1,0 H -1"
         style="stroke:#6baed6;stroke-linecap:butt;stroke-linejoin:round"
         inkscape:connector-curvature="0" />
    </defs>
    <g
       clip-path="url(#p057d96849d)"
       id="g187"
       style="stroke-linecap:butt;stroke-linejoin:round">
      <use
         xlink:href="#mf7c674be37"
         x="107.04432"
         y="28.832088"
         style="fill:#6baed6;stroke:#6baed6;stroke-linecap:butt;stroke-linejoin:round"
         id="use185"
         width="100%"
         height="100%" />
    </g>
  </g>
  <g
     id="line2d_9"
     style="stroke-linecap:butt;stroke-linejoin:round">
    <g
       clip-path="url(#p057d96849d)"
       id="g192"
       style="stroke-linecap:butt;stroke-linejoin:round">
      <use
         xlink:href="#mf7c674be37"
         x="107.04432"
         y="21.242664"
         style="fill:#6baed6;stroke:#6baed6;stroke-linecap:butt;stroke-linejoin:round"
         id="use190"
         width="100%"
         height="100%" />
    </g>
  </g>
  <g
     id="LineCollection_3"
     style="stroke-linecap:butt;stroke-linejoin:round">
    <path
       d="M 120.99432,38.976394 V 28.448504"
       clip-path="url(#p057d96849d)"
       style="fill:none;stroke:#2171b5;stroke-width:1.5;stroke-linecap:butt;stroke-linejoin:round"
       id="path195"
       inkscape:connector-curvature="0" />
  </g>
  <g
     id="line2d_10"
     style="stroke-linecap:butt;stroke-linejoin:round">
    <defs
       id="defs199">
      <path
         id="m98d0782a3c"
         d="M 1,0 H -1"
         style="stroke:#2171b5;stroke-linecap:butt;stroke-linejoin:round"
         inkscape:connector-curvature="0" />
    </defs>
    <g
       clip-path="url(#p057d96849d)"
       id="g203"
       style="stroke-linecap:butt;stroke-linejoin:round">
      <use
         xlink:href="#m98d0782a3c"
         x="120.99432"
         y="38.976395"
         style="fill:#2171b5;stroke:#2171b5;stroke-linecap:butt;stroke-linejoin:round"
         id="use201"
         width="100%"
         height="100%" />
    </g>
  </g>
  <g
     id="line2d_11"
     style="stroke-linecap:butt;stroke-linejoin:round">
    <g
       clip-path="url(#p057d96849d)"
       id="g208"
       style="stroke-linecap:butt;stroke-linejoin:round">
      <use
         xlink:href="#m98d0782a3c"
         x="120.99432"
         y="28.448503"
         style="fill:#2171b5;stroke:#2171b5;stroke-linecap:butt;stroke-linejoin:round"
         id="use206"
         width="100%"
         height="100%" />
    </g>
  </g>
  <g
     id="LineCollection_4"
     style="stroke-linecap:butt;stroke-linejoin:round">
    <path
       d="M 139.59432,60.001943 V 45.888596"
       clip-path="url(#p057d96849d)"
       style="fill:none;stroke:#08306b;stroke-width:1.5;stroke-linecap:butt;stroke-linejoin:round"
       id="path211"
       inkscape:connector-curvature="0" />
  </g>
  <g
     id="line2d_12"
     style="stroke-linecap:butt;stroke-linejoin:round">
    <defs
       id="defs215">
      <path
         id="m2d091fcf3f"
         d="M 1,0 H -1"
         style="stroke:#08306b;stroke-linecap:butt;stroke-linejoin:round"
         inkscape:connector-curvature="0" />
    </defs>
    <g
       clip-path="url(#p057d96849d)"
       id="g219"
       style="stroke-linecap:butt;stroke-linejoin:round">
      <use
         xlink:href="#m2d091fcf3f"
         x="139.59431"
         y="60.001942"
         style="fill:#08306b;stroke:#08306b;stroke-linecap:butt;stroke-linejoin:round"
         id="use217"
         width="100%"
         height="100%" />
    </g>
  </g>
  <g
     id="line2d_13"
     style="stroke-linecap:butt;stroke-linejoin:round">
    <g
       clip-path="url(#p057d96849d)"
       id="g224"
       style="stroke-linecap:butt;stroke-linejoin:round">
      <use
         xlink:href="#m2d091fcf3f"
         x="139.59431"
         y="45.888596"
         style="fill:#08306b;stroke:#08306b;stroke-linecap:butt;stroke-linejoin:round"
         id="use222"
         width="100%"
         height="100%" />
    </g>
  </g>
  <g
     id="LineCollection_5"
     style="stroke-linecap:butt;stroke-linejoin:round">
    <path
       d="m 60.544318,32.179156 v -7.56559"
       clip-path="url(#p057d96849d)"
       style="fill:none;stroke:#c7e9b4;stroke-width:1.5;stroke-linecap:butt;stroke-linejoin:round"
       id="path227"
       inkscape:connector-curvature="0" />
  </g>
  <g
     id="line2d_14"
     style="stroke-linecap:butt;stroke-linejoin:round">
    <defs
       id="defs231">
      <path
         id="m1a8e1c9003"
         d="M 1,0 H -1"
         style="stroke:#c7e9b4;stroke-linecap:butt;stroke-linejoin:round"
         inkscape:connector-curvature="0" />
    </defs>
    <g
       clip-path="url(#p057d96849d)"
       id="g235"
       style="stroke-linecap:butt;stroke-linejoin:round">
      <use
         xlink:href="#m1a8e1c9003"
         x="60.544319"
         y="32.179157"
         style="fill:#c7e9b4;stroke:#c7e9b4;stroke-linecap:butt;stroke-linejoin:round"
         id="use233"
         width="100%"
         height="100%" />
    </g>
  </g>
  <g
     id="line2d_15"
     style="stroke-linecap:butt;stroke-linejoin:round">
    <g
       clip-path="url(#p057d96849d)"
       id="g240"
       style="stroke-linecap:butt;stroke-linejoin:round">
      <use
         xlink:href="#m1a8e1c9003"
         x="60.544319"
         y="24.613565"
         style="fill:#c7e9b4;stroke:#c7e9b4;stroke-linecap:butt;stroke-linejoin:round"
         id="use238"
         width="100%"
         height="100%" />
    </g>
  </g>
  <g
     id="LineCollection_6"
     style="stroke-linecap:butt;stroke-linejoin:round">
    <path
       d="M 82.864318,31.201192 V 24.35013"
       clip-path="url(#p057d96849d)"
       style="fill:none;stroke:#000000;stroke-width:1.5;stroke-linecap:butt;stroke-linejoin:round"
       id="path243"
       inkscape:connector-curvature="0" />
  </g>
  <g
     id="line2d_16"
     style="stroke-linecap:butt;stroke-linejoin:round">
    <defs
       id="defs247">
      <path
         id="me10673a245"
         d="M 1,0 H -1"
         style="stroke:#000000;stroke-linecap:butt;stroke-linejoin:round"
         inkscape:connector-curvature="0" />
    </defs>
    <g
       clip-path="url(#p057d96849d)"
       id="g251"
       style="stroke-linecap:butt;stroke-linejoin:round">
      <use
         xlink:href="#me10673a245"
         x="82.864319"
         y="31.201193"
         style="stroke:#000000;stroke-linecap:butt;stroke-linejoin:round"
         id="use249"
         width="100%"
         height="100%" />
    </g>
  </g>
  <g
     id="line2d_17"
     style="stroke-linecap:butt;stroke-linejoin:round">
    <g
       clip-path="url(#p057d96849d)"
       id="g256"
       style="stroke-linecap:butt;stroke-linejoin:round">
      <use
         xlink:href="#me10673a245"
         x="82.864319"
         y="24.35013"
         style="stroke:#000000;stroke-linecap:butt;stroke-linejoin:round"
         id="use254"
         width="100%"
         height="100%" />
    </g>
  </g>
  <g
     id="LineCollection_7"
     style="stroke-linecap:butt;stroke-linejoin:round">
    <path
       d="M 58.219318,31.74778 V 24.658921"
       clip-path="url(#p057d96849d)"
       style="fill:none;stroke:#000000;stroke-width:1.5;stroke-linecap:butt;stroke-linejoin:round"
       id="path259"
       inkscape:connector-curvature="0" />
  </g>
  <g
     id="line2d_18"
     style="stroke-linecap:butt;stroke-linejoin:round">
    <g
       clip-path="url(#p057d96849d)"
       id="g264"
       style="stroke-linecap:butt;stroke-linejoin:round">
      <use
         xlink:href="#me10673a245"
         x="58.219318"
         y="31.74778"
         style="stroke:#000000;stroke-linecap:butt;stroke-linejoin:round"
         id="use262"
         width="100%"
         height="100%" />
    </g>
  </g>
  <g
     id="line2d_19"
     style="stroke-linecap:butt;stroke-linejoin:round">
    <g
       clip-path="url(#p057d96849d)"
       id="g269"
       style="stroke-linecap:butt;stroke-linejoin:round">
      <use
         xlink:href="#me10673a245"
         x="58.219318"
         y="24.65892"
         style="stroke:#000000;stroke-linecap:butt;stroke-linejoin:round"
         id="use267"
         width="100%"
         height="100%" />
    </g>
  </g>
  <g
     id="line2d_20"
     style="stroke-linecap:butt;stroke-linejoin:round">
    <path
       d="M 93.094318,28.54012"
       clip-path="url(#p057d96849d)"
       style="fill:none;stroke:#c6dbef;stroke-width:1.5;stroke-linecap:round;stroke-linejoin:round"
       id="path272"
       inkscape:connector-curvature="0" />
    <defs
       id="defs275">
      <path
         id="ma023b3327d"
         d="M 0,2 C 0.530406,2 1.03916,1.789267 1.414214,1.414214 1.789267,1.03916 2,0.530406 2,0 2,-0.530406 1.789267,-1.03916 1.414214,-1.414214 1.03916,-1.789267 0.530406,-2 0,-2 -0.530406,-2 -1.03916,-1.789267 -1.414214,-1.414214 -1.789267,-1.03916 -2,-0.530406 -2,0 -2,0.530406 -1.789267,1.03916 -1.414214,1.414214 -1.03916,1.789267 -0.530406,2 0,2 Z"
         style="stroke:#c6dbef;stroke-linecap:butt;stroke-linejoin:round"
         inkscape:connector-curvature="0" />
    </defs>
    <g
       clip-path="url(#p057d96849d)"
       id="g279"
       style="stroke-linecap:butt;stroke-linejoin:round">
      <use
         xlink:href="#ma023b3327d"
         x="93.094315"
         y="28.540119"
         style="fill:#c6dbef;stroke:#c6dbef;stroke-linecap:butt;stroke-linejoin:round"
         id="use277"
         width="100%"
         height="100%" />
    </g>
  </g>
  <g
     id="line2d_21"
     style="stroke-linecap:butt;stroke-linejoin:round">
    <path
       d="M 107.04432,25.037376"
       clip-path="url(#p057d96849d)"
       style="fill:none;stroke:#6baed6;stroke-width:1.5;stroke-linecap:round;stroke-linejoin:round"
       id="path282"
       inkscape:connector-curvature="0" />
    <defs
       id="defs285">
      <path
         id="mec78234034"
         d="M 0,2 C 0.530406,2 1.03916,1.789267 1.414214,1.414214 1.789267,1.03916 2,0.530406 2,0 2,-0.530406 1.789267,-1.03916 1.414214,-1.414214 1.03916,-1.789267 0.530406,-2 0,-2 -0.530406,-2 -1.03916,-1.789267 -1.414214,-1.414214 -1.789267,-1.03916 -2,-0.530406 -2,0 -2,0.530406 -1.789267,1.03916 -1.414214,1.414214 -1.03916,1.789267 -0.530406,2 0,2 Z"
         style="stroke:#6baed6;stroke-linecap:butt;stroke-linejoin:round"
         inkscape:connector-curvature="0" />
    </defs>
    <g
       clip-path="url(#p057d96849d)"
       id="g289"
       style="stroke-linecap:butt;stroke-linejoin:round">
      <use
         xlink:href="#mec78234034"
         x="107.04432"
         y="25.037376"
         style="fill:#6baed6;stroke:#6baed6;stroke-linecap:butt;stroke-linejoin:round"
         id="use287"
         width="100%"
         height="100%" />
    </g>
  </g>
  <g
     id="line2d_22"
     style="stroke-linecap:butt;stroke-linejoin:round">
    <path
       d="M 120.99432,33.712449"
       clip-path="url(#p057d96849d)"
       style="fill:none;stroke:#2171b5;stroke-width:1.5;stroke-linecap:round;stroke-linejoin:round"
       id="path292"
       inkscape:connector-curvature="0" />
    <defs
       id="defs295">
      <path
         id="md7196e0956"
         d="M 0,2 C 0.530406,2 1.03916,1.789267 1.414214,1.414214 1.789267,1.03916 2,0.530406 2,0 2,-0.530406 1.789267,-1.03916 1.414214,-1.414214 1.03916,-1.789267 0.530406,-2 0,-2 -0.530406,-2 -1.03916,-1.789267 -1.414214,-1.414214 -1.789267,-1.03916 -2,-0.530406 -2,0 -2,0.530406 -1.789267,1.03916 -1.414214,1.414214 -1.03916,1.789267 -0.530406,2 0,2 Z"
         style="stroke:#2171b5;stroke-linecap:butt;stroke-linejoin:round"
         inkscape:connector-curvature="0" />
    </defs>
    <g
       clip-path="url(#p057d96849d)"
       id="g299"
       style="stroke-linecap:butt;stroke-linejoin:round">
      <use
         xlink:href="#md7196e0956"
         x="120.99432"
         y="33.712448"
         style="fill:#2171b5;stroke:#2171b5;stroke-linecap:butt;stroke-linejoin:round"
         id="use297"
         width="100%"
         height="100%" />
    </g>
  </g>
  <g
     id="line2d_23"
     style="stroke-linecap:butt;stroke-linejoin:round">
    <path
       d="M 139.59432,52.94527"
       clip-path="url(#p057d96849d)"
       style="fill:none;stroke:#08306b;stroke-width:1.5;stroke-linecap:round;stroke-linejoin:round"
       id="path302"
       inkscape:connector-curvature="0" />
    <defs
       id="defs305">
      <path
         id="mfc63efca38"
         d="M 0,2 C 0.530406,2 1.03916,1.789267 1.414214,1.414214 1.789267,1.03916 2,0.530406 2,0 2,-0.530406 1.789267,-1.03916 1.414214,-1.414214 1.03916,-1.789267 0.530406,-2 0,-2 -0.530406,-2 -1.03916,-1.789267 -1.414214,-1.414214 -1.789267,-1.03916 -2,-0.530406 -2,0 -2,0.530406 -1.789267,1.03916 -1.414214,1.414214 -1.03916,1.789267 -0.530406,2 0,2 Z"
         style="stroke:#08306b;stroke-linecap:butt;stroke-linejoin:round"
         inkscape:connector-curvature="0" />
    </defs>
    <g
       clip-path="url(#p057d96849d)"
       id="g309"
       style="stroke-linecap:butt;stroke-linejoin:round">
      <use
         xlink:href="#mfc63efca38"
         x="139.59431"
         y="52.945271"
         style="fill:#08306b;stroke:#08306b;stroke-linecap:butt;stroke-linejoin:round"
         id="use307"
         width="100%"
         height="100%" />
    </g>
  </g>
  <g
     id="line2d_24"
     style="stroke-linecap:butt;stroke-linejoin:round">
    <path
       d="M 60.544318,28.396361"
       clip-path="url(#p057d96849d)"
       style="fill:none;stroke:#c7e9b4;stroke-width:1.5;stroke-linecap:round;stroke-linejoin:round"
       id="path312"
       inkscape:connector-curvature="0" />
    <defs
       id="defs315">
      <path
         id="m7d6f4e7cab"
         d="M 0,2 C 0.530406,2 1.03916,1.789267 1.414214,1.414214 1.789267,1.03916 2,0.530406 2,0 2,-0.530406 1.789267,-1.03916 1.414214,-1.414214 1.03916,-1.789267 0.530406,-2 0,-2 -0.530406,-2 -1.03916,-1.789267 -1.414214,-1.414214 -1.789267,-1.03916 -2,-0.530406 -2,0 -2,0.530406 -1.789267,1.03916 -1.414214,1.414214 -1.03916,1.789267 -0.530406,2 0,2 Z"
         style="stroke:#c7e9b4;stroke-linecap:butt;stroke-linejoin:round"
         inkscape:connector-curvature="0" />
    </defs>
    <g
       clip-path="url(#p057d96849d)"
       id="g319"
       style="stroke-linecap:butt;stroke-linejoin:round">
      <use
         xlink:href="#m7d6f4e7cab"
         x="60.544319"
         y="28.39636"
         style="fill:#c7e9b4;stroke:#c7e9b4;stroke-linecap:butt;stroke-linejoin:round"
         id="use317"
         width="100%"
         height="100%" />
    </g>
  </g>
  <g
     id="line2d_25"
     style="stroke-linecap:butt;stroke-linejoin:round">
    <path
       d="M 82.864318,27.775661"
       clip-path="url(#p057d96849d)"
       style="fill:none;stroke:#000000;stroke-width:1.5;stroke-linecap:round;stroke-linejoin:round"
       id="path322"
       inkscape:connector-curvature="0" />
    <defs
       id="defs325">
      <path
         id="mbb9eece9ac"
         d="M 0,2 C 0.530406,2 1.03916,1.789267 1.414214,1.414214 1.789267,1.03916 2,0.530406 2,0 2,-0.530406 1.789267,-1.03916 1.414214,-1.414214 1.03916,-1.789267 0.530406,-2 0,-2 -0.530406,-2 -1.03916,-1.789267 -1.414214,-1.414214 -1.789267,-1.03916 -2,-0.530406 -2,0 -2,0.530406 -1.789267,1.03916 -1.414214,1.414214 -1.03916,1.789267 -0.530406,2 0,2 Z"
         style="stroke:#000000;stroke-linecap:butt;stroke-linejoin:round"
         inkscape:connector-curvature="0" />
    </defs>
    <g
       clip-path="url(#p057d96849d)"
       id="g329"
       style="stroke-linecap:butt;stroke-linejoin:round">
      <use
         xlink:href="#mbb9eece9ac"
         x="82.864319"
         y="27.775661"
         style="stroke:#000000;stroke-linecap:butt;stroke-linejoin:round"
         id="use327"
         width="100%"
         height="100%" />
    </g>
  </g>
  <g
     id="line2d_26"
     style="stroke-linecap:butt;stroke-linejoin:round">
    <path
       d="M 58.219318,28.20335"
       clip-path="url(#p057d96849d)"
       style="fill:none;stroke:#000000;stroke-width:1.5;stroke-linecap:round;stroke-linejoin:round"
       id="path332"
       inkscape:connector-curvature="0" />
    <g
       clip-path="url(#p057d96849d)"
       id="g336"
       style="stroke-linecap:butt;stroke-linejoin:round">
      <use
         xlink:href="#mbb9eece9ac"
         x="58.219318"
         y="28.20335"
         style="stroke:#000000;stroke-linecap:butt;stroke-linejoin:round"
         id="use334"
         width="100%"
         height="100%" />
    </g>
  </g>
  <g
     id="patch_3"
     style="stroke-linecap:butt;stroke-linejoin:round">
    <path
       d="m 41.944318,65.365173 v -54.36"
       style="fill:none;stroke:#262626;stroke-width:0.80000001;stroke-linecap:square;stroke-linejoin:miter"
       id="path339"
       inkscape:connector-curvature="0" />
  </g>
  <g
     id="patch_4"
     style="stroke-linecap:butt;stroke-linejoin:round">
    <path
       d="M 41.944318,65.365173 H 153.54432"
       style="fill:none;stroke:#262626;stroke-width:0.80000001;stroke-linecap:square;stroke-linejoin:miter"
       id="path342"
       inkscape:connector-curvature="0" />
  </g>
  <defs
     id="defs350">
    <clipPath
       id="p057d96849d">
      <rect
         x="41.944318"
         y="11.005173"
         width="111.6"
         height="54.36"
         id="rect347" />
    </clipPath>
  </defs>
</svg>
