<?xml version="1.0" encoding="utf-8" standalone="no"?>
<!DOCTYPE svg PUBLIC "-//W3C//DTD SVG 1.1//EN"
  "http://www.w3.org/Graphics/SVG/1.1/DTD/svg11.dtd">
<svg xmlns:xlink="http://www.w3.org/1999/xlink" width="170.64pt" height="134.64pt" viewBox="0 0 170.64 134.64" xmlns="http://www.w3.org/2000/svg" version="1.1">
 <metadata>
  <rdf:RDF xmlns:dc="http://purl.org/dc/elements/1.1/" xmlns:cc="http://creativecommons.org/ns#" xmlns:rdf="http://www.w3.org/1999/02/22-rdf-syntax-ns#">
   <cc:Work>
    <dc:type rdf:resource="http://purl.org/dc/dcmitype/StillImage"/>
    <dc:date>2022-08-09T12:17:06.782750</dc:date>
    <dc:format>image/svg+xml</dc:format>
    <dc:creator>
     <cc:Agent>
      <dc:title>Matplotlib v3.5.1, https://matplotlib.org/</dc:title>
     </cc:Agent>
    </dc:creator>
   </cc:Work>
  </rdf:RDF>
 </metadata>
 <defs>
  <style type="text/css">*{stroke-linejoin: round; stroke-linecap: butt}</style>
 </defs>
 <g id="figure_1">
  <g id="patch_1">
   <path d="M 0 134.64 
L 170.64 134.64 
L 170.64 0 
L 0 0 
z
" style="fill: #ffffff"/>
  </g>
  <g id="axes_1">
   <g id="patch_2">
    <path d="M 51.076773 95.739855 
L 163.44 95.739855 
L 163.44 7.2 
L 51.076773 7.2 
z
" style="fill: #ffffff"/>
   </g>
   <g id="matplotlib.axis_1">
    <g id="xtick_1">
     <g id="line2d_1">
      <defs>
       <path id="m603f96c7e9" d="M 0 0 
L 0 3.5 
" style="stroke: #262626; stroke-width: 0.8"/>
      </defs>
      <g>
       <use xlink:href="#m603f96c7e9" x="81.72129" y="95.739855" style="fill: #262626; stroke: #262626; stroke-width: 0.8"/>
      </g>
     </g>
     <g id="text_1">
      <!-- $\mathdefault{500}$ -->
      <g style="fill: #262626" transform="translate(73.502089 110.350201)scale(0.11 -0.11)">
       <defs>
        <path id="CMR17-35" d="M 730 3692 
C 794 3666 1056 3584 1325 3584 
C 1920 3584 2246 3911 2432 4100 
C 2432 4157 2432 4192 2394 4192 
C 2387 4192 2374 4192 2323 4163 
C 2099 4058 1837 3973 1517 3973 
C 1325 3973 1037 3999 723 4139 
C 653 4171 640 4171 634 4171 
C 602 4171 595 4164 595 4037 
L 595 2203 
C 595 2089 595 2057 659 2057 
C 691 2057 704 2070 736 2114 
C 941 2401 1222 2522 1542 2522 
C 1766 2522 2246 2382 2246 1289 
C 2246 1085 2246 715 2054 421 
C 1894 159 1645 25 1370 25 
C 947 25 518 320 403 814 
C 429 807 480 795 506 795 
C 589 795 749 840 749 1038 
C 749 1210 627 1280 506 1280 
C 358 1280 262 1190 262 1011 
C 262 454 704 -128 1382 -128 
C 2042 -128 2669 440 2669 1264 
C 2669 2030 2170 2624 1549 2624 
C 1222 2624 947 2503 730 2274 
L 730 3692 
z
" transform="scale(0.015625)"/>
        <path id="CMR17-30" d="M 2688 2025 
C 2688 2416 2682 3080 2413 3591 
C 2176 4039 1798 4198 1466 4198 
C 1158 4198 768 4058 525 3597 
C 269 3118 243 2524 243 2025 
C 243 1661 250 1106 448 619 
C 723 -39 1216 -128 1466 -128 
C 1760 -128 2208 -7 2470 600 
C 2662 1042 2688 1559 2688 2025 
z
M 1466 -26 
C 1056 -26 813 325 723 812 
C 653 1188 653 1738 653 2096 
C 653 2588 653 2997 736 3387 
C 858 3929 1216 4096 1466 4096 
C 1728 4096 2067 3923 2189 3400 
C 2272 3036 2278 2607 2278 2096 
C 2278 1680 2278 1169 2202 792 
C 2067 95 1690 -26 1466 -26 
z
" transform="scale(0.015625)"/>
       </defs>
       <use xlink:href="#CMR17-35" transform="scale(0.996264)"/>
       <use xlink:href="#CMR17-30" transform="translate(45.690477 0)scale(0.996264)"/>
       <use xlink:href="#CMR17-30" transform="translate(91.380954 0)scale(0.996264)"/>
      </g>
     </g>
    </g>
    <g id="xtick_2">
     <g id="line2d_2">
      <g>
       <use xlink:href="#m603f96c7e9" x="145.564032" y="95.739855" style="fill: #262626; stroke: #262626; stroke-width: 0.8"/>
      </g>
     </g>
     <g id="text_2">
      <!-- $\mathdefault{1000}$ -->
      <g style="fill: #262626" transform="translate(134.605098 110.350201)scale(0.11 -0.11)">
       <defs>
        <path id="CMR17-31" d="M 1702 4058 
C 1702 4192 1696 4192 1606 4192 
C 1357 3916 979 3827 621 3827 
C 602 3827 570 3827 563 3808 
C 557 3795 557 3782 557 3648 
C 755 3648 1088 3686 1344 3839 
L 1344 461 
C 1344 236 1331 160 781 160 
L 589 160 
L 589 0 
C 896 0 1216 0 1523 0 
C 1830 0 2150 0 2458 0 
L 2458 160 
L 2266 160 
C 1715 160 1702 230 1702 458 
L 1702 4058 
z
" transform="scale(0.015625)"/>
       </defs>
       <use xlink:href="#CMR17-31" transform="scale(0.996264)"/>
       <use xlink:href="#CMR17-30" transform="translate(45.690477 0)scale(0.996264)"/>
       <use xlink:href="#CMR17-30" transform="translate(91.380954 0)scale(0.996264)"/>
       <use xlink:href="#CMR17-30" transform="translate(137.071431 0)scale(0.996264)"/>
      </g>
     </g>
    </g>
    <g id="text_3">
     <!-- stimulus [ms] -->
     <g style="fill: #262626" transform="translate(75.660159 124.700274)scale(0.11 -0.11)">
      <defs>
       <path id="CMR17-73" d="M 1978 2697 
C 1978 2813 1971 2819 1933 2819 
C 1907 2819 1901 2813 1824 2717 
C 1805 2691 1747 2626 1728 2601 
C 1523 2819 1235 2819 1126 2819 
C 416 2819 160 2447 160 2076 
C 160 1498 813 1365 998 1325 
C 1402 1243 1542 1217 1677 1101 
C 1760 1025 1901 884 1901 654 
C 1901 384 1747 38 1158 38 
C 602 38 403 460 288 1021 
C 269 1110 269 1117 218 1117 
C 166 1117 160 1110 160 983 
L 160 63 
C 160 -51 166 -58 205 -58 
C 237 -58 243 -51 275 0 
C 314 57 410 211 448 276 
C 576 103 800 -64 1158 -64 
C 1792 -64 2131 283 2131 784 
C 2131 1112 1958 1285 1875 1362 
C 1683 1561 1459 1606 1190 1657 
C 838 1735 390 1825 390 2217 
C 390 2383 480 2737 1126 2737 
C 1811 2737 1850 2094 1862 1888 
C 1869 1856 1901 1849 1920 1849 
C 1978 1849 1978 1869 1978 1978 
L 1978 2697 
z
" transform="scale(0.015625)"/>
       <path id="CMR17-74" d="M 966 2560 
L 1862 2560 
L 1862 2725 
L 966 2725 
L 966 3904 
L 851 3904 
C 838 3245 614 2668 70 2668 
L 70 2560 
L 627 2560 
L 627 771 
C 627 650 627 -64 1370 -64 
C 1747 -64 1965 306 1965 777 
L 1965 1140 
L 1850 1140 
L 1850 783 
C 1850 344 1677 51 1408 51 
C 1222 51 966 178 966 758 
L 966 2560 
z
" transform="scale(0.015625)"/>
       <path id="CMR17-69" d="M 992 3909 
C 992 4049 877 4170 730 4170 
C 589 4170 467 4056 467 3909 
C 467 3769 582 3648 730 3648 
C 870 3648 992 3763 992 3909 
z
M 243 2706 
L 243 2541 
C 602 2541 653 2502 653 2197 
L 653 427 
C 653 184 627 153 218 153 
L 218 -13 
C 371 0 646 0 806 0 
C 960 0 1222 0 1370 -13 
L 1370 153 
C 992 153 979 191 979 420 
L 979 2776 
L 243 2706 
z
" transform="scale(0.015625)"/>
       <path id="CMR17-6d" d="M 4326 1933 
C 4326 2252 4269 2790 3507 2790 
C 3072 2790 2771 2496 2656 2151 
L 2650 2151 
C 2573 2676 2195 2790 1837 2790 
C 1331 2790 1069 2400 973 2144 
L 966 2144 
L 966 2790 
L 211 2720 
L 211 2554 
C 589 2554 646 2515 646 2208 
L 646 428 
C 646 184 621 153 211 153 
L 211 -13 
C 365 0 646 0 813 0 
C 979 0 1267 0 1421 -13 
L 1421 153 
C 1011 153 986 178 986 428 
L 986 1658 
C 986 2247 1344 2688 1792 2688 
C 2266 2688 2317 2266 2317 1958 
L 2317 428 
C 2317 184 2291 153 1882 153 
L 1882 -13 
C 2035 0 2317 0 2483 0 
C 2650 0 2938 0 3091 -13 
L 3091 153 
C 2682 153 2656 178 2656 428 
L 2656 1658 
C 2656 2247 3014 2688 3462 2688 
C 3936 2688 3987 2266 3987 1958 
L 3987 428 
C 3987 184 3962 153 3552 153 
L 3552 -13 
C 3706 0 3987 0 4154 0 
C 4320 0 4608 0 4762 -13 
L 4762 153 
C 4352 153 4326 178 4326 428 
L 4326 1933 
z
" transform="scale(0.015625)"/>
       <path id="CMR17-75" d="M 1882 2693 
L 1882 2528 
C 2259 2528 2317 2489 2317 2186 
L 2317 1032 
C 2317 500 2029 38 1555 38 
C 1030 38 986 348 986 678 
L 986 2763 
L 211 2693 
L 211 2528 
C 467 2528 640 2528 646 2274 
L 646 1058 
C 646 633 646 361 813 183 
C 896 101 1056 -64 1517 -64 
C 2061 -64 2272 377 2323 506 
L 2330 506 
L 2330 -63 
L 3091 -63 
L 3091 128 
C 2714 128 2656 166 2656 473 
L 2656 2763 
L 1882 2693 
z
" transform="scale(0.015625)"/>
       <path id="CMR17-6c" d="M 979 4396 
L 218 4326 
L 218 4160 
C 595 4160 653 4122 653 3817 
L 653 426 
C 653 184 627 153 218 153 
L 218 -13 
C 371 0 653 0 813 0 
C 979 0 1261 0 1414 -13 
L 1414 153 
C 1005 153 979 178 979 426 
L 979 4396 
z
" transform="scale(0.015625)"/>
       <path id="CMR17-5b" d="M 1504 -1600 
L 1504 -1377 
L 902 -1377 
L 902 4544 
L 1504 4544 
L 1504 4767 
L 678 4767 
L 678 -1600 
L 1504 -1600 
z
" transform="scale(0.015625)"/>
       <path id="CMR17-5d" d="M 915 4767 
L 90 4767 
L 90 4544 
L 691 4544 
L 691 -1377 
L 90 -1377 
L 90 -1600 
L 915 -1600 
L 915 4767 
z
" transform="scale(0.015625)"/>
      </defs>
      <use xlink:href="#CMR17-73" transform="scale(0.996264)"/>
      <use xlink:href="#CMR17-74" transform="translate(35.801338 0)scale(0.996264)"/>
      <use xlink:href="#CMR17-69" transform="translate(71.082105 0)scale(0.996264)"/>
      <use xlink:href="#CMR17-6d" transform="translate(95.953164 0)scale(0.996264)"/>
      <use xlink:href="#CMR17-75" transform="translate(170.2703 0)scale(0.996264)"/>
      <use xlink:href="#CMR17-6c" transform="translate(221.16567 0)scale(0.996264)"/>
      <use xlink:href="#CMR17-75" transform="translate(246.036728 0)scale(0.996264)"/>
      <use xlink:href="#CMR17-73" transform="translate(296.932098 0)scale(0.996264)"/>
      <use xlink:href="#CMR17-5b" transform="translate(362.809402 0)scale(0.996264)"/>
      <use xlink:href="#CMR17-6d" transform="translate(387.68046 0)scale(0.996264)"/>
      <use xlink:href="#CMR17-73" transform="translate(464.60005 0)scale(0.996264)"/>
      <use xlink:href="#CMR17-5d" transform="translate(500.401388 0)scale(0.996264)"/>
     </g>
    </g>
   </g>
   <g id="matplotlib.axis_2">
    <g id="ytick_1">
     <g id="line2d_3">
      <defs>
       <path id="m530ffd82fe" d="M 0 0 
L -3.5 0 
" style="stroke: #262626; stroke-width: 0.8"/>
      </defs>
      <g>
       <use xlink:href="#m530ffd82fe" x="51.076773" y="75.63595" style="fill: #262626; stroke: #262626; stroke-width: 0.8"/>
      </g>
     </g>
     <g id="text_4">
      <!-- $\mathdefault{500}$ -->
      <g style="fill: #262626" transform="translate(27.638371 79.441123)scale(0.11 -0.11)">
       <use xlink:href="#CMR17-35" transform="scale(0.996264)"/>
       <use xlink:href="#CMR17-30" transform="translate(45.690477 0)scale(0.996264)"/>
       <use xlink:href="#CMR17-30" transform="translate(91.380954 0)scale(0.996264)"/>
      </g>
     </g>
    </g>
    <g id="ytick_2">
     <g id="line2d_4">
      <g>
       <use xlink:href="#m530ffd82fe" x="51.076773" y="35.437536" style="fill: #262626; stroke: #262626; stroke-width: 0.8"/>
      </g>
     </g>
     <g id="text_5">
      <!-- $\mathdefault{1000}$ -->
      <g style="fill: #262626" transform="translate(22.158904 39.242709)scale(0.11 -0.11)">
       <use xlink:href="#CMR17-31" transform="scale(0.996264)"/>
       <use xlink:href="#CMR17-30" transform="translate(45.690477 0)scale(0.996264)"/>
       <use xlink:href="#CMR17-30" transform="translate(91.380954 0)scale(0.996264)"/>
       <use xlink:href="#CMR17-30" transform="translate(137.071431 0)scale(0.996264)"/>
      </g>
     </g>
    </g>
    <g id="text_6">
     <!-- reproduction [ms] -->
     <g style="fill: #262626" transform="translate(15.419178 93.692255)rotate(-90)scale(0.11 -0.11)">
      <defs>
       <path id="CMR17-72" d="M 960 1497 
C 960 2112 1222 2688 1702 2688 
C 1747 2688 1792 2682 1837 2662 
C 1837 2662 1696 2617 1696 2452 
C 1696 2298 1818 2234 1914 2234 
C 1990 2234 2131 2279 2131 2458 
C 2131 2663 1926 2790 1709 2790 
C 1222 2790 1011 2317 947 2093 
L 941 2093 
L 941 2790 
L 198 2720 
L 198 2554 
C 576 2554 634 2515 634 2208 
L 634 428 
C 634 184 608 153 198 153 
L 198 -13 
C 352 0 646 0 813 0 
C 998 0 1325 0 1498 -13 
L 1498 153 
C 1037 153 960 153 960 440 
L 960 1497 
z
" transform="scale(0.015625)"/>
       <path id="CMR17-65" d="M 2438 1472 
C 2464 1498 2464 1511 2464 1576 
C 2464 2238 2118 2816 1389 2816 
C 710 2816 173 2169 173 1383 
C 173 551 781 -64 1459 -64 
C 2176 -64 2458 607 2458 740 
C 2458 784 2419 784 2406 784 
C 2362 784 2355 771 2330 696 
C 2189 265 1837 51 1504 51 
C 1229 51 954 203 781 480 
C 582 803 582 1176 582 1472 
L 2438 1472 
z
M 589 1568 
C 634 2505 1126 2714 1382 2714 
C 1818 2714 2112 2297 2118 1568 
L 589 1568 
z
" transform="scale(0.015625)"/>
       <path id="CMR17-70" d="M 1408 -1063 
C 998 -1063 973 -1037 973 -789 
L 973 402 
C 1158 134 1427 -38 1766 -38 
C 2406 -38 3053 523 3053 1388 
C 3053 2191 2496 2802 1837 2802 
C 1453 2802 1139 2592 960 2338 
L 960 2802 
L 198 2732 
L 198 2567 
C 576 2567 634 2528 634 2223 
L 634 -789 
C 634 -1031 608 -1063 198 -1063 
L 198 -1228 
C 352 -1216 634 -1216 800 -1216 
C 966 -1216 1254 -1216 1408 -1228 
L 1408 -1063 
z
M 973 2012 
C 973 2102 973 2235 1222 2471 
C 1254 2497 1472 2688 1792 2688 
C 2259 2688 2643 2108 2643 1382 
C 2643 656 2234 64 1728 64 
C 1498 64 1248 172 1056 472 
C 973 612 973 650 973 752 
L 973 2012 
z
" transform="scale(0.015625)"/>
       <path id="CMR17-6f" d="M 2758 1356 
C 2758 2176 2163 2816 1466 2816 
C 768 2816 173 2176 173 1356 
C 173 551 768 -64 1466 -64 
C 2163 -64 2758 551 2758 1356 
z
M 1466 51 
C 1165 51 909 230 762 480 
C 602 767 582 1126 582 1408 
C 582 1677 595 2010 762 2298 
C 890 2509 1139 2714 1466 2714 
C 1754 2714 1997 2554 2150 2330 
C 2349 2029 2349 1607 2349 1408 
C 2349 1158 2336 775 2163 467 
C 1984 173 1709 51 1466 51 
z
" transform="scale(0.015625)"/>
       <path id="CMR17-64" d="M 1869 4326 
L 1869 4160 
C 2246 4160 2304 4122 2304 3820 
L 2304 2345 
C 2278 2377 2016 2790 1498 2790 
C 845 2790 211 2208 211 1364 
C 211 525 806 -64 1434 -64 
C 1978 -64 2259 337 2291 380 
L 2291 -63 
L 3066 -63 
L 3066 128 
C 2688 128 2630 166 2630 473 
L 2630 4396 
L 1869 4326 
z
M 2291 755 
C 2291 563 2176 390 2029 262 
C 1811 70 1594 38 1472 38 
C 1286 38 621 134 621 1356 
C 621 2612 1363 2688 1530 2688 
C 1824 2688 2061 2522 2208 2291 
C 2291 2157 2291 2138 2291 2023 
L 2291 755 
z
" transform="scale(0.015625)"/>
       <path id="CMR17-63" d="M 2234 2240 
C 2112 2240 1933 2240 1933 2017 
C 1933 1838 2080 1787 2163 1787 
C 2208 1787 2394 1807 2394 2024 
C 2394 2467 1958 2803 1466 2803 
C 787 2803 211 2178 211 1363 
C 211 516 813 -64 1466 -64 
C 2259 -64 2458 677 2458 748 
C 2458 774 2451 793 2406 793 
C 2362 793 2355 787 2330 703 
C 2163 180 1798 51 1523 51 
C 1114 51 621 427 621 1369 
C 621 2338 1094 2688 1472 2688 
C 1722 2688 2093 2573 2234 2240 
z
" transform="scale(0.015625)"/>
       <path id="CMR17-6e" d="M 2656 1933 
C 2656 2259 2592 2790 1837 2790 
C 1331 2790 1069 2400 973 2144 
L 966 2144 
L 966 2790 
L 211 2720 
L 211 2554 
C 589 2554 646 2515 646 2208 
L 646 428 
C 646 184 621 153 211 153 
L 211 -13 
C 365 0 646 0 813 0 
C 979 0 1267 0 1421 -13 
L 1421 153 
C 1011 153 986 178 986 428 
L 986 1658 
C 986 2247 1344 2688 1792 2688 
C 2266 2688 2317 2266 2317 1958 
L 2317 428 
C 2317 184 2291 153 1882 153 
L 1882 -13 
C 2035 0 2317 0 2483 0 
C 2650 0 2938 0 3091 -13 
L 3091 153 
C 2682 153 2656 178 2656 428 
L 2656 1933 
z
" transform="scale(0.015625)"/>
      </defs>
      <use xlink:href="#CMR17-72" transform="scale(0.996264)"/>
      <use xlink:href="#CMR17-65" transform="translate(35.280768 0)scale(0.996264)"/>
      <use xlink:href="#CMR17-70" transform="translate(75.766428 0)scale(0.996264)"/>
      <use xlink:href="#CMR17-72" transform="translate(126.661798 0)scale(0.996264)"/>
      <use xlink:href="#CMR17-6f" transform="translate(161.942566 0)scale(0.996264)"/>
      <use xlink:href="#CMR17-64" transform="translate(210.235482 0)scale(0.996264)"/>
      <use xlink:href="#CMR17-75" transform="translate(261.130851 0)scale(0.996264)"/>
      <use xlink:href="#CMR17-63" transform="translate(312.026221 0)scale(0.996264)"/>
      <use xlink:href="#CMR17-74" transform="translate(352.511882 0)scale(0.996264)"/>
      <use xlink:href="#CMR17-69" transform="translate(387.79265 0)scale(0.996264)"/>
      <use xlink:href="#CMR17-6f" transform="translate(412.663708 0)scale(0.996264)"/>
      <use xlink:href="#CMR17-6e" transform="translate(458.354185 0)scale(0.996264)"/>
      <use xlink:href="#CMR17-5b" transform="translate(539.325521 0)scale(0.996264)"/>
      <use xlink:href="#CMR17-6d" transform="translate(564.19658 0)scale(0.996264)"/>
      <use xlink:href="#CMR17-73" transform="translate(641.11617 0)scale(0.996264)"/>
      <use xlink:href="#CMR17-5d" transform="translate(676.917507 0)scale(0.996264)"/>
     </g>
    </g>
   </g>
   <g id="line2d_5">
    <path d="M 56.184193 91.715316 
L 120.026935 51.516902 
" clip-path="url(#pae41d4804d)" style="fill: none; stroke-dasharray: 2.22,0.96; stroke-dashoffset: 0; stroke: #808080; stroke-width: 0.6"/>
   </g>
   <g id="LineCollection_1">
    <path d="M 68.952741 82.9922 
L 68.952741 78.545756 
" clip-path="url(#pae41d4804d)" style="fill: none; stroke: #000000; stroke-width: 1.5"/>
    <path d="M 75.337015 81.439349 
L 75.337015 76.976383 
" clip-path="url(#pae41d4804d)" style="fill: none; stroke: #000000; stroke-width: 1.5"/>
    <path d="M 81.72129 79.287374 
L 81.72129 69.920608 
" clip-path="url(#pae41d4804d)" style="fill: none; stroke: #000000; stroke-width: 1.5"/>
    <path d="M 88.105564 75.376049 
L 88.105564 66.546848 
" clip-path="url(#pae41d4804d)" style="fill: none; stroke: #000000; stroke-width: 1.5"/>
    <path d="M 94.489838 74.600525 
L 94.489838 65.648853 
" clip-path="url(#pae41d4804d)" style="fill: none; stroke: #000000; stroke-width: 1.5"/>
    <path d="M 100.874112 69.336643 
L 100.874112 56.077899 
" clip-path="url(#pae41d4804d)" style="fill: none; stroke: #000000; stroke-width: 1.5"/>
    <path d="M 107.258387 68.469065 
L 107.258387 51.314078 
" clip-path="url(#pae41d4804d)" style="fill: none; stroke: #000000; stroke-width: 1.5"/>
   </g>
   <g id="line2d_6">
    <defs>
     <path id="m4da1b51add" d="M 1 0 
L -1 -0 
" style="stroke: #000000"/>
    </defs>
    <g clip-path="url(#pae41d4804d)">
     <use xlink:href="#m4da1b51add" x="68.952741" y="82.9922" style="stroke: #000000"/>
     <use xlink:href="#m4da1b51add" x="75.337015" y="81.439349" style="stroke: #000000"/>
     <use xlink:href="#m4da1b51add" x="81.72129" y="79.287374" style="stroke: #000000"/>
     <use xlink:href="#m4da1b51add" x="88.105564" y="75.376049" style="stroke: #000000"/>
     <use xlink:href="#m4da1b51add" x="94.489838" y="74.600525" style="stroke: #000000"/>
     <use xlink:href="#m4da1b51add" x="100.874112" y="69.336643" style="stroke: #000000"/>
     <use xlink:href="#m4da1b51add" x="107.258387" y="68.469065" style="stroke: #000000"/>
    </g>
   </g>
   <g id="line2d_7">
    <g clip-path="url(#pae41d4804d)">
     <use xlink:href="#m4da1b51add" x="68.952741" y="78.545756" style="stroke: #000000"/>
     <use xlink:href="#m4da1b51add" x="75.337015" y="76.976383" style="stroke: #000000"/>
     <use xlink:href="#m4da1b51add" x="81.72129" y="69.920608" style="stroke: #000000"/>
     <use xlink:href="#m4da1b51add" x="88.105564" y="66.546848" style="stroke: #000000"/>
     <use xlink:href="#m4da1b51add" x="94.489838" y="65.648853" style="stroke: #000000"/>
     <use xlink:href="#m4da1b51add" x="100.874112" y="56.077899" style="stroke: #000000"/>
     <use xlink:href="#m4da1b51add" x="107.258387" y="51.314078" style="stroke: #000000"/>
    </g>
   </g>
   <g id="line2d_8">
    <path d="M 94.489838 67.596267 
L 158.332581 27.397853 
" clip-path="url(#pae41d4804d)" style="fill: none; stroke-dasharray: 2.22,0.96; stroke-dashoffset: 0; stroke: #808080; stroke-width: 0.6"/>
   </g>
   <g id="LineCollection_2">
    <path d="M 107.258387 68.540588 
L 107.258387 54.005743 
" clip-path="url(#pae41d4804d)" style="fill: none; stroke: #808080; stroke-width: 1.5"/>
    <path d="M 113.642661 68.130211 
L 113.642661 49.352051 
" clip-path="url(#pae41d4804d)" style="fill: none; stroke: #808080; stroke-width: 1.5"/>
    <path d="M 120.026935 65.912048 
L 120.026935 41.013428 
" clip-path="url(#pae41d4804d)" style="fill: none; stroke: #808080; stroke-width: 1.5"/>
    <path d="M 126.411209 59.12071 
L 126.411209 33.714811 
" clip-path="url(#pae41d4804d)" style="fill: none; stroke: #808080; stroke-width: 1.5"/>
    <path d="M 132.795484 61.510921 
L 132.795484 28.722037 
" clip-path="url(#pae41d4804d)" style="fill: none; stroke: #808080; stroke-width: 1.5"/>
    <path d="M 139.179758 59.837885 
L 139.179758 18.021661 
" clip-path="url(#pae41d4804d)" style="fill: none; stroke: #808080; stroke-width: 1.5"/>
    <path d="M 145.564032 59.890524 
L 145.564032 11.224539 
" clip-path="url(#pae41d4804d)" style="fill: none; stroke: #808080; stroke-width: 1.5"/>
   </g>
   <g id="line2d_9">
    <defs>
     <path id="m14fcc56fe7" d="M 1 0 
L -1 -0 
" style="stroke: #808080"/>
    </defs>
    <g clip-path="url(#pae41d4804d)">
     <use xlink:href="#m14fcc56fe7" x="107.258387" y="68.540588" style="fill: #808080; stroke: #808080"/>
     <use xlink:href="#m14fcc56fe7" x="113.642661" y="68.130211" style="fill: #808080; stroke: #808080"/>
     <use xlink:href="#m14fcc56fe7" x="120.026935" y="65.912048" style="fill: #808080; stroke: #808080"/>
     <use xlink:href="#m14fcc56fe7" x="126.411209" y="59.12071" style="fill: #808080; stroke: #808080"/>
     <use xlink:href="#m14fcc56fe7" x="132.795484" y="61.510921" style="fill: #808080; stroke: #808080"/>
     <use xlink:href="#m14fcc56fe7" x="139.179758" y="59.837885" style="fill: #808080; stroke: #808080"/>
     <use xlink:href="#m14fcc56fe7" x="145.564032" y="59.890524" style="fill: #808080; stroke: #808080"/>
    </g>
   </g>
   <g id="line2d_10">
    <g clip-path="url(#pae41d4804d)">
     <use xlink:href="#m14fcc56fe7" x="107.258387" y="54.005743" style="fill: #808080; stroke: #808080"/>
     <use xlink:href="#m14fcc56fe7" x="113.642661" y="49.352051" style="fill: #808080; stroke: #808080"/>
     <use xlink:href="#m14fcc56fe7" x="120.026935" y="41.013428" style="fill: #808080; stroke: #808080"/>
     <use xlink:href="#m14fcc56fe7" x="126.411209" y="33.714811" style="fill: #808080; stroke: #808080"/>
     <use xlink:href="#m14fcc56fe7" x="132.795484" y="28.722037" style="fill: #808080; stroke: #808080"/>
     <use xlink:href="#m14fcc56fe7" x="139.179758" y="18.021661" style="fill: #808080; stroke: #808080"/>
     <use xlink:href="#m14fcc56fe7" x="145.564032" y="11.224539" style="fill: #808080; stroke: #808080"/>
    </g>
   </g>
   <g id="line2d_11">
    <path d="M 68.952741 80.768978 
L 75.337015 79.207866 
L 81.72129 74.603991 
L 88.105564 70.961449 
L 94.489838 70.124689 
L 100.874112 62.707271 
L 107.258387 59.891571 
" clip-path="url(#pae41d4804d)" style="fill: none; stroke: #000000; stroke-width: 1.5; stroke-linecap: round"/>
    <defs>
     <path id="me8c50c4682" d="M 0 2 
C 0.530406 2 1.03916 1.789267 1.414214 1.414214 
C 1.789267 1.03916 2 0.530406 2 0 
C 2 -0.530406 1.789267 -1.03916 1.414214 -1.414214 
C 1.03916 -1.789267 0.530406 -2 0 -2 
C -0.530406 -2 -1.03916 -1.789267 -1.414214 -1.414214 
C -1.789267 -1.03916 -2 -0.530406 -2 0 
C -2 0.530406 -1.789267 1.03916 -1.414214 1.414214 
C -1.03916 1.789267 -0.530406 2 0 2 
z
" style="stroke: #000000"/>
    </defs>
    <g clip-path="url(#pae41d4804d)">
     <use xlink:href="#me8c50c4682" x="68.952741" y="80.768978" style="stroke: #000000"/>
     <use xlink:href="#me8c50c4682" x="75.337015" y="79.207866" style="stroke: #000000"/>
     <use xlink:href="#me8c50c4682" x="81.72129" y="74.603991" style="stroke: #000000"/>
     <use xlink:href="#me8c50c4682" x="88.105564" y="70.961449" style="stroke: #000000"/>
     <use xlink:href="#me8c50c4682" x="94.489838" y="70.124689" style="stroke: #000000"/>
     <use xlink:href="#me8c50c4682" x="100.874112" y="62.707271" style="stroke: #000000"/>
     <use xlink:href="#me8c50c4682" x="107.258387" y="59.891571" style="stroke: #000000"/>
    </g>
   </g>
   <g id="line2d_12">
    <path d="M 107.258387 61.273165 
L 113.642661 58.741131 
L 120.026935 53.462738 
L 126.411209 46.41776 
L 132.795484 45.116479 
L 139.179758 38.929773 
L 145.564032 35.557531 
" clip-path="url(#pae41d4804d)" style="fill: none; stroke: #808080; stroke-width: 1.5; stroke-linecap: round"/>
    <defs>
     <path id="m8c1de7c273" d="M 0 2 
C 0.530406 2 1.03916 1.789267 1.414214 1.414214 
C 1.789267 1.03916 2 0.530406 2 0 
C 2 -0.530406 1.789267 -1.03916 1.414214 -1.414214 
C 1.03916 -1.789267 0.530406 -2 0 -2 
C -0.530406 -2 -1.03916 -1.789267 -1.414214 -1.414214 
C -1.789267 -1.03916 -2 -0.530406 -2 0 
C -2 0.530406 -1.789267 1.03916 -1.414214 1.414214 
C -1.03916 1.789267 -0.530406 2 0 2 
z
" style="stroke: #808080"/>
    </defs>
    <g clip-path="url(#pae41d4804d)">
     <use xlink:href="#m8c1de7c273" x="107.258387" y="61.273165" style="fill: #808080; stroke: #808080"/>
     <use xlink:href="#m8c1de7c273" x="113.642661" y="58.741131" style="fill: #808080; stroke: #808080"/>
     <use xlink:href="#m8c1de7c273" x="120.026935" y="53.462738" style="fill: #808080; stroke: #808080"/>
     <use xlink:href="#m8c1de7c273" x="126.411209" y="46.41776" style="fill: #808080; stroke: #808080"/>
     <use xlink:href="#m8c1de7c273" x="132.795484" y="45.116479" style="fill: #808080; stroke: #808080"/>
     <use xlink:href="#m8c1de7c273" x="139.179758" y="38.929773" style="fill: #808080; stroke: #808080"/>
     <use xlink:href="#m8c1de7c273" x="145.564032" y="35.557531" style="fill: #808080; stroke: #808080"/>
    </g>
   </g>
   <g id="patch_3">
    <path d="M 51.076773 95.739855 
L 51.076773 7.2 
" style="fill: none; stroke: #262626; stroke-width: 0.8; stroke-linejoin: miter; stroke-linecap: square"/>
   </g>
   <g id="patch_4">
    <path d="M 51.076773 95.739855 
L 163.44 95.739855 
" style="fill: none; stroke: #262626; stroke-width: 0.8; stroke-linejoin: miter; stroke-linecap: square"/>
   </g>
   <g id="text_7">
    <!-- slope=0.89 -->
    <g style="fill: #262626" transform="translate(56.184193 55.536743)scale(0.11 -0.11)">
     <defs>
      <path id="CMR17-3d" d="M 4115 2017 
C 4211 2017 4307 2017 4307 2125 
C 4307 2240 4198 2240 4090 2240 
L 512 2240 
C 403 2240 294 2240 294 2125 
C 294 2017 390 2017 486 2017 
L 4115 2017 
z
M 4090 896 
C 4198 896 4307 896 4307 1011 
C 4307 1119 4211 1119 4115 1119 
L 486 1119 
C 390 1119 294 1119 294 1011 
C 294 896 403 896 512 896 
L 4090 896 
z
" transform="scale(0.015625)"/>
      <path id="CMR17-2e" d="M 1062 261 
C 1062 420 934 522 800 522 
C 672 522 538 420 538 261 
C 538 102 666 0 800 0 
C 928 0 1062 102 1062 261 
z
" transform="scale(0.015625)"/>
      <path id="CMR17-38" d="M 1741 2264 
C 2144 2467 2554 2773 2554 3263 
C 2554 3841 1990 4179 1472 4179 
C 890 4179 378 3759 378 3180 
C 378 3021 416 2747 666 2505 
C 730 2442 998 2251 1171 2130 
C 883 1983 211 1634 211 934 
C 211 279 838 -128 1459 -128 
C 2144 -128 2720 362 2720 1010 
C 2720 1590 2330 1857 2074 2029 
L 1741 2264 
z
M 902 2822 
C 851 2854 595 3051 595 3351 
C 595 3739 998 4032 1459 4032 
C 1965 4032 2336 3676 2336 3262 
C 2336 2669 1670 2331 1638 2331 
C 1632 2331 1626 2331 1574 2370 
L 902 2822 
z
M 2080 1519 
C 2176 1449 2483 1240 2483 851 
C 2483 381 2010 25 1472 25 
C 890 25 448 438 448 940 
C 448 1443 838 1862 1280 2060 
L 2080 1519 
z
" transform="scale(0.015625)"/>
      <path id="CMR17-39" d="M 2253 1864 
C 2253 464 1670 31 1190 31 
C 1043 31 685 31 538 294 
C 704 268 826 357 826 518 
C 826 692 685 749 595 749 
C 538 749 365 723 365 506 
C 365 71 742 -128 1203 -128 
C 1939 -128 2688 674 2688 2073 
C 2688 3817 1971 4179 1485 4179 
C 851 4179 243 3628 243 2778 
C 243 1991 762 1408 1414 1408 
C 1952 1408 2189 1903 2253 2112 
L 2253 1864 
z
M 1427 1510 
C 1254 1510 1011 1542 813 1922 
C 678 2169 678 2461 678 2771 
C 678 3146 678 3405 858 3684 
C 947 3817 1114 4032 1485 4032 
C 2240 4032 2240 2885 2240 2632 
C 2240 2182 2035 1510 1427 1510 
z
" transform="scale(0.015625)"/>
     </defs>
     <use xlink:href="#CMR17-73" transform="scale(0.996264)"/>
     <use xlink:href="#CMR17-6c" transform="translate(35.801338 0)scale(0.996264)"/>
     <use xlink:href="#CMR17-6f" transform="translate(60.672396 0)scale(0.996264)"/>
     <use xlink:href="#CMR17-70" transform="translate(106.362873 0)scale(0.996264)"/>
     <use xlink:href="#CMR17-65" transform="translate(159.860682 0)scale(0.996264)"/>
     <use xlink:href="#CMR17-3d" transform="translate(200.346342 0)scale(0.996264)"/>
     <use xlink:href="#CMR17-30" transform="translate(272.061131 0)scale(0.996264)"/>
     <use xlink:href="#CMR17-2e" transform="translate(317.751608 0)scale(0.996264)"/>
     <use xlink:href="#CMR17-38" transform="translate(342.622666 0)scale(0.996264)"/>
     <use xlink:href="#CMR17-39" transform="translate(388.313143 0)scale(0.996264)"/>
    </g>
   </g>
   <g id="text_8">
    <!-- slope=1.11 -->
    <g style="fill: #262626" transform="translate(94.489838 31.417695)scale(0.11 -0.11)">
     <use xlink:href="#CMR17-73" transform="scale(0.996264)"/>
     <use xlink:href="#CMR17-6c" transform="translate(35.801338 0)scale(0.996264)"/>
     <use xlink:href="#CMR17-6f" transform="translate(60.672396 0)scale(0.996264)"/>
     <use xlink:href="#CMR17-70" transform="translate(106.362873 0)scale(0.996264)"/>
     <use xlink:href="#CMR17-65" transform="translate(159.860682 0)scale(0.996264)"/>
     <use xlink:href="#CMR17-3d" transform="translate(200.346342 0)scale(0.996264)"/>
     <use xlink:href="#CMR17-31" transform="translate(272.061131 0)scale(0.996264)"/>
     <use xlink:href="#CMR17-2e" transform="translate(317.751608 0)scale(0.996264)"/>
     <use xlink:href="#CMR17-31" transform="translate(342.622666 0)scale(0.996264)"/>
     <use xlink:href="#CMR17-31" transform="translate(388.313143 0)scale(0.996264)"/>
    </g>
   </g>
  </g>
 </g>
 <defs>
  <clipPath id="pae41d4804d">
   <rect x="51.076773" y="7.2" width="112.363227" height="88.539855"/>
  </clipPath>
 </defs>
</svg>
