<?xml version="1.0" encoding="UTF-8" standalone="no"?>
<svg
   xmlns:dc="http://purl.org/dc/elements/1.1/"
   xmlns:cc="http://creativecommons.org/ns#"
   xmlns:rdf="http://www.w3.org/1999/02/22-rdf-syntax-ns#"
   xmlns:svg="http://www.w3.org/2000/svg"
   xmlns="http://www.w3.org/2000/svg"
   xmlns:xlink="http://www.w3.org/1999/xlink"
   xmlns:sodipodi="http://sodipodi.sourceforge.net/DTD/sodipodi-0.dtd"
   xmlns:inkscape="http://www.inkscape.org/namespaces/inkscape"
   width="170.64pt"
   height="134.64pt"
   viewBox="0 0 170.64 134.64"
   version="1.1"
   id="svg413"
   sodipodi:docname="mse7_beh140.svg"
   inkscape:version="0.92.5 (2060ec1f9f, 2020-04-08)">
  <sodipodi:namedview
     pagecolor="#ffffff"
     bordercolor="#666666"
     borderopacity="1"
     objecttolerance="10"
     gridtolerance="10"
     guidetolerance="10"
     inkscape:pageopacity="0"
     inkscape:pageshadow="2"
     inkscape:window-width="2560"
     inkscape:window-height="1378"
     id="namedview415"
     showgrid="false"
     inkscape:zoom="1.8591489"
     inkscape:cx="189.74198"
     inkscape:cy="163.43675"
     inkscape:window-x="1920"
     inkscape:window-y="34"
     inkscape:window-maximized="1"
     inkscape:current-layer="svg413" />
  <metadata
     id="metadata2">
    <rdf:RDF>
      <cc:Work>
        <dc:type
           rdf:resource="http://purl.org/dc/dcmitype/StillImage" />
        <dc:date>2022-09-07T12:07:34.430241</dc:date>
        <dc:format>image/svg+xml</dc:format>
        <dc:creator>
          <cc:Agent>
            <dc:title>Matplotlib v3.5.1, https://matplotlib.org/</dc:title>
          </cc:Agent>
        </dc:creator>
      </cc:Work>
    </rdf:RDF>
  </metadata>
  <defs
     id="defs6">
    <style
       type="text/css"
       id="style4">*{stroke-linejoin: round; stroke-linecap: butt}</style>
    <style
       id="style4-75"
       type="text/css">*{stroke-linejoin: round; stroke-linecap: butt}</style>
    <style
       id="style4-7"
       type="text/css">*{stroke-linejoin: round; stroke-linecap: butt}</style>
    <style
       type="text/css"
       id="style1307">*{stroke-linejoin: round; stroke-linecap: butt}</style>
    <path
       id="m3b6c03cab4-5"
       d="M 0,0 V 3.5"
       style="stroke:#262626;stroke-width:0.80000001;stroke-linecap:butt;stroke-linejoin:round"
       inkscape:connector-curvature="0" />
    <path
       style="stroke-linecap:butt;stroke-linejoin:round"
       id="CMR17-34-3"
       d="m 2150,4122 c 0,134 -6,134 -121,134 L 128,1254 V 1088 H 1779 V 457 c 0,-233 -13,-297 -461,-297 H 1197 V 0 c 205,0 550,0 768,0 217,0 563,0 768,0 v 160 h -122 c -448,0 -461,64 -461,297 v 631 h 653 v 166 H 2150 Z M 1798,3703 V 1254 H 256 Z"
       transform="scale(0.015625)"
       inkscape:connector-curvature="0" />
    <path
       style="stroke-linecap:butt;stroke-linejoin:round"
       id="CMR17-30-5"
       d="m 2688,2025 c 0,391 -6,1055 -275,1566 -237,448 -615,607 -947,607 -308,0 -698,-140 -941,-601 C 269,3118 243,2524 243,2025 c 0,-364 7,-919 205,-1406 275,-658 768,-747 1018,-747 294,0 742,121 1004,728 192,442 218,959 218,1425 z M 1466,-26 c -410,0 -653,351 -743,838 -70,376 -70,926 -70,1284 0,492 0,901 83,1291 122,542 480,709 730,709 262,0 601,-173 723,-696 83,-364 89,-793 89,-1304 0,-416 0,-927 -76,-1304 C 2067,95 1690,-26 1466,-26 Z"
       transform="scale(0.015625)"
       inkscape:connector-curvature="0" />
    <path
       style="stroke-linecap:butt;stroke-linejoin:round"
       id="CMR17-36-6"
       d="m 678,2176 c 0,1514 717,1856 1133,1856 135,0 461,-23 589,-256 -102,0 -294,0 -294,-223 0,-172 140,-230 230,-230 58,0 230,25 230,237 0,394 -320,619 -761,619 -762,0 -1562,-789 -1562,-2195 0,-1731 723,-2112 1235,-2112 621,0 1210,555 1210,1411 0,798 -518,1379 -1171,1379 -391,0 -679,-255 -839,-702 z M 1478,25 c -787,0 -787,1175 -787,1411 0,460 218,1124 813,1124 109,0 422,0 634,-440 115,-250 115,-511 115,-831 0,-345 0,-599 -135,-855 C 1978,171 1773,25 1478,25 Z"
       transform="scale(0.015625)"
       inkscape:connector-curvature="0" />
    <path
       style="stroke-linecap:butt;stroke-linejoin:round"
       id="CMR17-38-2"
       d="m 1741,2264 c 403,203 813,509 813,999 0,578 -564,916 -1082,916 -582,0 -1094,-420 -1094,-999 0,-159 38,-433 288,-675 64,-63 332,-254 505,-375 C 883,1983 211,1634 211,934 211,279 838,-128 1459,-128 c 685,0 1261,490 1261,1138 0,580 -390,847 -646,1019 z m -839,558 c -51,32 -307,229 -307,529 0,388 403,681 864,681 506,0 877,-356 877,-770 0,-593 -666,-931 -698,-931 -6,0 -12,0 -64,39 z M 2080,1519 c 96,-70 403,-279 403,-668 C 2483,381 2010,25 1472,25 890,25 448,438 448,940 c 0,503 390,922 832,1120 z"
       transform="scale(0.015625)"
       inkscape:connector-curvature="0" />
    <path
       style="stroke-linecap:butt;stroke-linejoin:round"
       id="CMR17-31-9"
       d="m 1702,4058 c 0,134 -6,134 -96,134 -249,-276 -627,-365 -985,-365 -19,0 -51,0 -58,-19 -6,-13 -6,-26 -6,-160 198,0 531,38 787,191 V 461 C 1344,236 1331,160 781,160 H 589 V 0 c 307,0 627,0 934,0 307,0 627,0 935,0 v 160 h -192 c -551,0 -564,70 -564,298 z"
       transform="scale(0.015625)"
       inkscape:connector-curvature="0" />
    <path
       style="stroke-linecap:butt;stroke-linejoin:round"
       id="CMR17-73-1"
       d="m 1978,2697 c 0,116 -7,122 -45,122 -26,0 -32,-6 -109,-102 -19,-26 -77,-91 -96,-116 -205,218 -493,218 -602,218 -710,0 -966,-372 -966,-743 0,-578 653,-711 838,-751 404,-82 544,-108 679,-224 83,-76 224,-217 224,-447 0,-270 -154,-616 -743,-616 -556,0 -755,422 -870,983 -19,89 -19,96 -70,96 -52,0 -58,-7 -58,-134 V 63 c 0,-114 6,-121 45,-121 32,0 38,7 70,58 39,57 135,211 173,276 128,-173 352,-340 710,-340 634,0 973,347 973,848 0,328 -173,501 -256,578 -192,199 -416,244 -685,295 -352,78 -800,168 -800,560 0,166 90,520 736,520 685,0 724,-643 736,-849 7,-32 39,-39 58,-39 58,0 58,20 58,129 z"
       transform="scale(0.015625)"
       inkscape:connector-curvature="0" />
    <path
       style="stroke-linecap:butt;stroke-linejoin:round"
       id="CMR17-74-2"
       d="m 966,2560 h 896 v 165 H 966 V 3904 H 851 C 838,3245 614,2668 70,2668 V 2560 H 627 V 771 c 0,-121 0,-835 743,-835 377,0 595,370 595,841 v 363 H 1850 V 783 C 1850,344 1677,51 1408,51 1222,51 966,178 966,758 Z"
       transform="scale(0.015625)"
       inkscape:connector-curvature="0" />
    <path
       style="stroke-linecap:butt;stroke-linejoin:round"
       id="CMR17-69-7"
       d="m 992,3909 c 0,140 -115,261 -262,261 -141,0 -263,-114 -263,-261 0,-140 115,-261 263,-261 140,0 262,115 262,261 z M 243,2706 v -165 c 359,0 410,-39 410,-344 V 427 C 653,184 627,153 218,153 V -13 C 371,0 646,0 806,0 c 154,0 416,0 564,-13 v 166 c -378,0 -391,38 -391,267 v 2356 z"
       transform="scale(0.015625)"
       inkscape:connector-curvature="0" />
    <path
       style="stroke-linecap:butt;stroke-linejoin:round"
       id="CMR17-6d-0"
       d="m 4326,1933 c 0,319 -57,857 -819,857 -435,0 -736,-294 -851,-639 h -6 c -77,525 -455,639 -813,639 -506,0 -768,-390 -864,-646 h -7 v 646 l -755,-70 v -166 c 378,0 435,-39 435,-346 V 428 C 646,184 621,153 211,153 V -13 C 365,0 646,0 813,0 c 166,0 454,0 608,-13 v 166 c -410,0 -435,25 -435,275 v 1230 c 0,589 358,1030 806,1030 474,0 525,-422 525,-730 V 428 c 0,-244 -26,-275 -435,-275 V -13 c 153,13 435,13 601,13 167,0 455,0 608,-13 v 166 c -409,0 -435,25 -435,275 v 1230 c 0,589 358,1030 806,1030 474,0 525,-422 525,-730 V 428 c 0,-244 -25,-275 -435,-275 V -13 c 154,13 435,13 602,13 166,0 454,0 608,-13 v 166 c -410,0 -436,25 -436,275 z"
       transform="scale(0.015625)"
       inkscape:connector-curvature="0" />
    <path
       style="stroke-linecap:butt;stroke-linejoin:round"
       id="CMR17-75-9"
       d="m 1882,2693 v -165 c 377,0 435,-39 435,-342 V 1032 C 2317,500 2029,38 1555,38 1030,38 986,348 986,678 v 2085 l -775,-70 v -165 c 256,0 429,0 435,-254 V 1058 c 0,-425 0,-697 167,-875 83,-82 243,-247 704,-247 544,0 755,441 806,570 h 7 V -63 h 761 v 191 c -377,0 -435,38 -435,345 v 2290 z"
       transform="scale(0.015625)"
       inkscape:connector-curvature="0" />
    <path
       style="stroke-linecap:butt;stroke-linejoin:round"
       id="CMR17-6c-3"
       d="m 979,4396 -761,-70 v -166 c 377,0 435,-38 435,-343 V 426 C 653,184 627,153 218,153 V -13 C 371,0 653,0 813,0 c 166,0 448,0 601,-13 v 166 c -409,0 -435,25 -435,273 z"
       transform="scale(0.015625)"
       inkscape:connector-curvature="0" />
    <path
       style="stroke-linecap:butt;stroke-linejoin:round"
       id="CMR17-5b-6"
       d="m 1504,-1600 v 223 H 902 v 5921 h 602 v 223 H 678 v -6367 z"
       transform="scale(0.015625)"
       inkscape:connector-curvature="0" />
    <path
       style="stroke-linecap:butt;stroke-linejoin:round"
       id="CMR17-5d-0"
       d="M 915,4767 H 90 V 4544 H 691 V -1377 H 90 v -223 h 825 z"
       transform="scale(0.015625)"
       inkscape:connector-curvature="0" />
    <clipPath
       style="stroke-linecap:butt;stroke-linejoin:round"
       id="pb06be2f5ce-6">
      <rect
         style="stroke-linecap:butt;stroke-linejoin:round"
         x="7.1999998"
         y="7.1999998"
         width="167.39999"
         height="23.540625"
         id="rect1480" />
    </clipPath>
    <path
       style="stroke:#262626;stroke-width:0.80000001;stroke-linecap:butt;stroke-linejoin:round"
       d="M 0,0 V 3.5"
       id="m258380afad"
       inkscape:connector-curvature="0" />
    <path
       style="stroke-linecap:butt;stroke-linejoin:round"
       transform="scale(0.015625)"
       d="m 179,1056 v 198 l 1965,3002 q 51,77 128,77 70,0 86,-29 16,-29 16,-138 V 1254 h 640 V 1056 H 2374 V 499 q 0,-185 77,-243 77,-58 410,-58 h 134 V 0 Q 2733,19 2125,19 1523,19 1261,0 v 198 h 134 q 333,0 410,58 77,58 77,243 v 557 z m 179,198 h 1562 v 2388 z"
       id="CMUSerif-Roman-34"
       inkscape:connector-curvature="0" />
    <path
       style="stroke-linecap:butt;stroke-linejoin:round"
       transform="scale(0.015625)"
       d="m 250,2048 q 0,941 236,1453 333,761 1114,761 166,0 339,-45 173,-44 394,-217 221,-173 355,-454 256,-544 256,-1498 0,-934 -237,-1446 Q 2362,-141 1594,-141 1306,-141 1014,6 723,154 538,506 250,1037 250,2048 Z m 531,77 Q 781,1158 851,774 928,358 1142,179 1357,0 1594,0 q 256,0 470,192 214,192 278,608 71,410 71,1325 0,889 -64,1248 -83,416 -307,582 -224,167 -448,167 -84,0 -174,-26 -89,-26 -217,-96 -128,-70 -227,-250 -99,-179 -144,-448 -51,-345 -51,-1177 z"
       id="CMUSerif-Roman-30"
       inkscape:connector-curvature="0" />
    <path
       style="stroke-linecap:butt;stroke-linejoin:round"
       transform="scale(0.015625)"
       d="m 269,2022 q 0,1005 512,1622 512,618 1171,618 384,0 598,-195 215,-195 215,-496 0,-166 -96,-237 -96,-70 -199,-70 -115,0 -205,77 -89,77 -89,217 0,288 352,288 -166,256 -563,256 -122,0 -247,-35 -124,-35 -288,-154 -163,-118 -288,-307 -124,-188 -211,-540 -86,-352 -86,-813 v -154 q 262,634 799,634 538,0 909,-410 372,-409 372,-1017 0,-621 -388,-1034 -387,-413 -931,-413 -243,0 -464,103 Q 922,64 717,294 512,525 390,969 269,1414 269,2022 Z m 589,-576 q 0,-627 115,-928 19,-51 60,-118 42,-67 115,-157 74,-89 196,-147 122,-58 262,-58 429,0 634,416 109,231 109,858 0,640 -115,877 -199,397 -596,397 -268,0 -454,-186 -186,-186 -256,-432 -70,-246 -70,-522 z"
       id="CMUSerif-Roman-36"
       inkscape:connector-curvature="0" />
    <path
       style="stroke-linecap:butt;stroke-linejoin:round"
       transform="scale(0.015625)"
       d="m 269,966 q 0,717 921,1178 -396,269 -467,346 -281,313 -281,704 0,448 339,758 339,310 819,310 461,0 806,-266 346,-265 346,-687 0,-595 -774,-992 512,-320 633,-455 314,-345 314,-787 0,-512 -394,-864 -393,-352 -937,-352 -532,0 -929,310 -396,311 -396,797 z m 320,0 q 0,-396 297,-662 298,-266 714,-266 403,0 704,230 301,231 301,577 0,134 -45,249 -45,116 -135,208 -89,93 -144,134 -54,42 -156,113 l -787,499 Q 589,1632 589,966 Z m 134,2477 q 0,-307 320,-518 l 794,-512 q 633,371 633,896 0,339 -259,566 -259,227 -617,227 -352,0 -612,-186 -259,-185 -259,-473 z"
       id="CMUSerif-Roman-38"
       inkscape:connector-curvature="0" />
    <path
       style="stroke-linecap:butt;stroke-linejoin:round"
       transform="scale(0.015625)"
       d="m 570,3654 v 199 q 768,0 1164,409 109,0 128,-26 20,-25 20,-140 V 506 q 0,-192 92,-250 93,-58 503,-58 h 205 V 0 Q 2458,19 1645,19 832,19 608,0 v 198 h 205 q 403,0 499,58 96,58 96,250 V 3821 Q 1075,3654 570,3654 Z"
       id="CMUSerif-Roman-31"
       inkscape:connector-curvature="0" />
    <clipPath
       style="stroke-linecap:butt;stroke-linejoin:round"
       id="pb7c11c132d">
      <rect
         style="stroke-linecap:butt;stroke-linejoin:round"
         id="rect167"
         height="23.540625"
         width="167.39999"
         y="7.1999998"
         x="7.1999998" />
    </clipPath>
    <path
       transform="scale(0.015625)"
       d="m 1978,2697 c 0,116 -7,122 -45,122 -26,0 -32,-6 -109,-102 -19,-26 -77,-91 -96,-116 -205,218 -493,218 -602,218 -710,0 -966,-372 -966,-743 0,-578 653,-711 838,-751 404,-82 544,-108 679,-224 83,-76 224,-217 224,-447 0,-270 -154,-616 -743,-616 -556,0 -755,422 -870,983 -19,89 -19,96 -70,96 -52,0 -58,-7 -58,-134 V 63 c 0,-114 6,-121 45,-121 32,0 38,7 70,58 39,57 135,211 173,276 128,-173 352,-340 710,-340 634,0 973,347 973,848 0,328 -173,501 -256,578 -192,199 -416,244 -685,295 -352,78 -800,168 -800,560 0,166 90,520 736,520 685,0 724,-643 736,-849 7,-32 39,-39 58,-39 58,0 58,20 58,129 z"
       id="path1564"
       style="stroke-linecap:butt;stroke-linejoin:round"
       inkscape:connector-curvature="0" />
    <path
       transform="scale(0.015625)"
       d="m 966,2560 h 896 v 165 H 966 V 3904 H 851 C 838,3245 614,2668 70,2668 V 2560 H 627 V 771 c 0,-121 0,-835 743,-835 377,0 595,370 595,841 v 363 H 1850 V 783 C 1850,344 1677,51 1408,51 1222,51 966,178 966,758 Z"
       id="path1566"
       style="stroke-linecap:butt;stroke-linejoin:round"
       inkscape:connector-curvature="0" />
    <path
       transform="scale(0.015625)"
       d="m 992,3909 c 0,140 -115,261 -262,261 -141,0 -263,-114 -263,-261 0,-140 115,-261 263,-261 140,0 262,115 262,261 z M 243,2706 v -165 c 359,0 410,-39 410,-344 V 427 C 653,184 627,153 218,153 V -13 C 371,0 646,0 806,0 c 154,0 416,0 564,-13 v 166 c -378,0 -391,38 -391,267 v 2356 z"
       id="path1568"
       style="stroke-linecap:butt;stroke-linejoin:round"
       inkscape:connector-curvature="0" />
    <path
       transform="scale(0.015625)"
       d="m 4326,1933 c 0,319 -57,857 -819,857 -435,0 -736,-294 -851,-639 h -6 c -77,525 -455,639 -813,639 -506,0 -768,-390 -864,-646 h -7 v 646 l -755,-70 v -166 c 378,0 435,-39 435,-346 V 428 C 646,184 621,153 211,153 V -13 C 365,0 646,0 813,0 c 166,0 454,0 608,-13 v 166 c -410,0 -435,25 -435,275 v 1230 c 0,589 358,1030 806,1030 474,0 525,-422 525,-730 V 428 c 0,-244 -26,-275 -435,-275 V -13 c 153,13 435,13 601,13 167,0 455,0 608,-13 v 166 c -409,0 -435,25 -435,275 v 1230 c 0,589 358,1030 806,1030 474,0 525,-422 525,-730 V 428 c 0,-244 -25,-275 -435,-275 V -13 c 154,13 435,13 602,13 166,0 454,0 608,-13 v 166 c -410,0 -436,25 -436,275 z"
       id="path1570"
       style="stroke-linecap:butt;stroke-linejoin:round"
       inkscape:connector-curvature="0" />
    <path
       transform="scale(0.015625)"
       d="m 1882,2693 v -165 c 377,0 435,-39 435,-342 V 1032 C 2317,500 2029,38 1555,38 1030,38 986,348 986,678 v 2085 l -775,-70 v -165 c 256,0 429,0 435,-254 V 1058 c 0,-425 0,-697 167,-875 83,-82 243,-247 704,-247 544,0 755,441 806,570 h 7 V -63 h 761 v 191 c -377,0 -435,38 -435,345 v 2290 z"
       id="path1572"
       style="stroke-linecap:butt;stroke-linejoin:round"
       inkscape:connector-curvature="0" />
    <path
       transform="scale(0.015625)"
       d="m 979,4396 -761,-70 v -166 c 377,0 435,-38 435,-343 V 426 C 653,184 627,153 218,153 V -13 C 371,0 653,0 813,0 c 166,0 448,0 601,-13 v 166 c -409,0 -435,25 -435,273 z"
       id="path1574"
       style="stroke-linecap:butt;stroke-linejoin:round"
       inkscape:connector-curvature="0" />
    <path
       transform="scale(0.015625)"
       d="m 1504,-1600 v 223 H 902 v 5921 h 602 v 223 H 678 v -6367 z"
       id="path1576"
       style="stroke-linecap:butt;stroke-linejoin:round"
       inkscape:connector-curvature="0" />
    <path
       transform="scale(0.015625)"
       d="M 915,4767 H 90 V 4544 H 691 V -1377 H 90 v -223 h 825 z"
       id="path1578"
       style="stroke-linecap:butt;stroke-linejoin:round"
       inkscape:connector-curvature="0" />
    <path
       id="m3b6c03cab4"
       d="M 0,0 V 3.5"
       style="stroke:#262626;stroke-width:0.80000001;stroke-linecap:butt;stroke-linejoin:round"
       inkscape:connector-curvature="0" />
    <path
       id="CMR17-34"
       d="m 2150,4122 c 0,134 -6,134 -121,134 L 128,1254 V 1088 H 1779 V 457 c 0,-233 -13,-297 -461,-297 H 1197 V 0 c 205,0 550,0 768,0 217,0 563,0 768,0 v 160 h -122 c -448,0 -461,64 -461,297 v 631 h 653 v 166 H 2150 Z M 1798,3703 V 1254 H 256 Z"
       transform="scale(0.015625)"
       inkscape:connector-curvature="0"
       style="stroke-linecap:butt;stroke-linejoin:round" />
    <path
       id="CMR17-30-0"
       d="m 2688,2025 c 0,391 -6,1055 -275,1566 -237,448 -615,607 -947,607 -308,0 -698,-140 -941,-601 C 269,3118 243,2524 243,2025 c 0,-364 7,-919 205,-1406 275,-658 768,-747 1018,-747 294,0 742,121 1004,728 192,442 218,959 218,1425 z M 1466,-26 c -410,0 -653,351 -743,838 -70,376 -70,926 -70,1284 0,492 0,901 83,1291 122,542 480,709 730,709 262,0 601,-173 723,-696 83,-364 89,-793 89,-1304 0,-416 0,-927 -76,-1304 C 2067,95 1690,-26 1466,-26 Z"
       transform="scale(0.015625)"
       inkscape:connector-curvature="0"
       style="stroke-linecap:butt;stroke-linejoin:round" />
    <path
       id="CMR17-36-2"
       d="m 678,2176 c 0,1514 717,1856 1133,1856 135,0 461,-23 589,-256 -102,0 -294,0 -294,-223 0,-172 140,-230 230,-230 58,0 230,25 230,237 0,394 -320,619 -761,619 -762,0 -1562,-789 -1562,-2195 0,-1731 723,-2112 1235,-2112 621,0 1210,555 1210,1411 0,798 -518,1379 -1171,1379 -391,0 -679,-255 -839,-702 z M 1478,25 c -787,0 -787,1175 -787,1411 0,460 218,1124 813,1124 109,0 422,0 634,-440 115,-250 115,-511 115,-831 0,-345 0,-599 -135,-855 C 1978,171 1773,25 1478,25 Z"
       transform="scale(0.015625)"
       inkscape:connector-curvature="0"
       style="stroke-linecap:butt;stroke-linejoin:round" />
    <path
       id="CMR17-38"
       d="m 1741,2264 c 403,203 813,509 813,999 0,578 -564,916 -1082,916 -582,0 -1094,-420 -1094,-999 0,-159 38,-433 288,-675 64,-63 332,-254 505,-375 C 883,1983 211,1634 211,934 211,279 838,-128 1459,-128 c 685,0 1261,490 1261,1138 0,580 -390,847 -646,1019 z m -839,558 c -51,32 -307,229 -307,529 0,388 403,681 864,681 506,0 877,-356 877,-770 0,-593 -666,-931 -698,-931 -6,0 -12,0 -64,39 z M 2080,1519 c 96,-70 403,-279 403,-668 C 2483,381 2010,25 1472,25 890,25 448,438 448,940 c 0,503 390,922 832,1120 z"
       transform="scale(0.015625)"
       inkscape:connector-curvature="0"
       style="stroke-linecap:butt;stroke-linejoin:round" />
    <path
       id="CMR17-31-3"
       d="m 1702,4058 c 0,134 -6,134 -96,134 -249,-276 -627,-365 -985,-365 -19,0 -51,0 -58,-19 -6,-13 -6,-26 -6,-160 198,0 531,38 787,191 V 461 C 1344,236 1331,160 781,160 H 589 V 0 c 307,0 627,0 934,0 307,0 627,0 935,0 v 160 h -192 c -551,0 -564,70 -564,298 z"
       transform="scale(0.015625)"
       inkscape:connector-curvature="0"
       style="stroke-linecap:butt;stroke-linejoin:round" />
    <path
       id="CMR17-73-9"
       d="m 1978,2697 c 0,116 -7,122 -45,122 -26,0 -32,-6 -109,-102 -19,-26 -77,-91 -96,-116 -205,218 -493,218 -602,218 -710,0 -966,-372 -966,-743 0,-578 653,-711 838,-751 404,-82 544,-108 679,-224 83,-76 224,-217 224,-447 0,-270 -154,-616 -743,-616 -556,0 -755,422 -870,983 -19,89 -19,96 -70,96 -52,0 -58,-7 -58,-134 V 63 c 0,-114 6,-121 45,-121 32,0 38,7 70,58 39,57 135,211 173,276 128,-173 352,-340 710,-340 634,0 973,347 973,848 0,328 -173,501 -256,578 -192,199 -416,244 -685,295 -352,78 -800,168 -800,560 0,166 90,520 736,520 685,0 724,-643 736,-849 7,-32 39,-39 58,-39 58,0 58,20 58,129 z"
       transform="scale(0.015625)"
       inkscape:connector-curvature="0"
       style="stroke-linecap:butt;stroke-linejoin:round" />
    <path
       id="CMR17-74-4"
       d="m 966,2560 h 896 v 165 H 966 V 3904 H 851 C 838,3245 614,2668 70,2668 V 2560 H 627 V 771 c 0,-121 0,-835 743,-835 377,0 595,370 595,841 v 363 H 1850 V 783 C 1850,344 1677,51 1408,51 1222,51 966,178 966,758 Z"
       transform="scale(0.015625)"
       inkscape:connector-curvature="0"
       style="stroke-linecap:butt;stroke-linejoin:round" />
    <path
       id="CMR17-69-78"
       d="m 992,3909 c 0,140 -115,261 -262,261 -141,0 -263,-114 -263,-261 0,-140 115,-261 263,-261 140,0 262,115 262,261 z M 243,2706 v -165 c 359,0 410,-39 410,-344 V 427 C 653,184 627,153 218,153 V -13 C 371,0 646,0 806,0 c 154,0 416,0 564,-13 v 166 c -378,0 -391,38 -391,267 v 2356 z"
       transform="scale(0.015625)"
       inkscape:connector-curvature="0"
       style="stroke-linecap:butt;stroke-linejoin:round" />
    <path
       id="CMR17-6d-4"
       d="m 4326,1933 c 0,319 -57,857 -819,857 -435,0 -736,-294 -851,-639 h -6 c -77,525 -455,639 -813,639 -506,0 -768,-390 -864,-646 h -7 v 646 l -755,-70 v -166 c 378,0 435,-39 435,-346 V 428 C 646,184 621,153 211,153 V -13 C 365,0 646,0 813,0 c 166,0 454,0 608,-13 v 166 c -410,0 -435,25 -435,275 v 1230 c 0,589 358,1030 806,1030 474,0 525,-422 525,-730 V 428 c 0,-244 -26,-275 -435,-275 V -13 c 153,13 435,13 601,13 167,0 455,0 608,-13 v 166 c -409,0 -435,25 -435,275 v 1230 c 0,589 358,1030 806,1030 474,0 525,-422 525,-730 V 428 c 0,-244 -25,-275 -435,-275 V -13 c 154,13 435,13 602,13 166,0 454,0 608,-13 v 166 c -410,0 -436,25 -436,275 z"
       transform="scale(0.015625)"
       inkscape:connector-curvature="0"
       style="stroke-linecap:butt;stroke-linejoin:round" />
    <path
       id="CMR17-75-5"
       d="m 1882,2693 v -165 c 377,0 435,-39 435,-342 V 1032 C 2317,500 2029,38 1555,38 1030,38 986,348 986,678 v 2085 l -775,-70 v -165 c 256,0 429,0 435,-254 V 1058 c 0,-425 0,-697 167,-875 83,-82 243,-247 704,-247 544,0 755,441 806,570 h 7 V -63 h 761 v 191 c -377,0 -435,38 -435,345 v 2290 z"
       transform="scale(0.015625)"
       inkscape:connector-curvature="0"
       style="stroke-linecap:butt;stroke-linejoin:round" />
    <path
       id="CMR17-6c-0"
       d="m 979,4396 -761,-70 v -166 c 377,0 435,-38 435,-343 V 426 C 653,184 627,153 218,153 V -13 C 371,0 653,0 813,0 c 166,0 448,0 601,-13 v 166 c -409,0 -435,25 -435,273 z"
       transform="scale(0.015625)"
       inkscape:connector-curvature="0"
       style="stroke-linecap:butt;stroke-linejoin:round" />
    <path
       id="CMR17-5b-3"
       d="m 1504,-1600 v 223 H 902 v 5921 h 602 v 223 H 678 v -6367 z"
       transform="scale(0.015625)"
       inkscape:connector-curvature="0"
       style="stroke-linecap:butt;stroke-linejoin:round" />
    <path
       id="CMR17-5d-6"
       d="M 915,4767 H 90 V 4544 H 691 V -1377 H 90 v -223 h 825 z"
       transform="scale(0.015625)"
       inkscape:connector-curvature="0"
       style="stroke-linecap:butt;stroke-linejoin:round" />
    <clipPath
       style="stroke-linecap:butt;stroke-linejoin:round"
       id="pb06be2f5ce">
      <rect
         style="stroke-linecap:butt;stroke-linejoin:round"
         id="rect177"
         height="23.540625"
         width="167.39999"
         y="7.1999998"
         x="7.1999998" />
    </clipPath>
    <style
       id="style4-76"
       type="text/css">*{stroke-linejoin: round; stroke-linecap: butt}</style>
    <style
       id="style4-7-5"
       type="text/css">*{stroke-linejoin: round; stroke-linecap: butt}</style>
    <style
       type="text/css"
       id="style1307-6">*{stroke-linejoin: round; stroke-linecap: butt}</style>
    <path
       id="m3b6c03cab4-5-9"
       d="M 0,0 V 3.5"
       style="stroke:#262626;stroke-width:0.80000001;stroke-linecap:butt;stroke-linejoin:round"
       inkscape:connector-curvature="0" />
    <path
       style="stroke-linecap:butt;stroke-linejoin:round"
       id="CMR17-34-3-3"
       d="m 2150,4122 c 0,134 -6,134 -121,134 L 128,1254 V 1088 H 1779 V 457 c 0,-233 -13,-297 -461,-297 H 1197 V 0 c 205,0 550,0 768,0 217,0 563,0 768,0 v 160 h -122 c -448,0 -461,64 -461,297 v 631 h 653 v 166 H 2150 Z M 1798,3703 V 1254 H 256 Z"
       transform="scale(0.015625)"
       inkscape:connector-curvature="0" />
    <path
       style="stroke-linecap:butt;stroke-linejoin:round"
       id="CMR17-30-5-7"
       d="m 2688,2025 c 0,391 -6,1055 -275,1566 -237,448 -615,607 -947,607 -308,0 -698,-140 -941,-601 C 269,3118 243,2524 243,2025 c 0,-364 7,-919 205,-1406 275,-658 768,-747 1018,-747 294,0 742,121 1004,728 192,442 218,959 218,1425 z M 1466,-26 c -410,0 -653,351 -743,838 -70,376 -70,926 -70,1284 0,492 0,901 83,1291 122,542 480,709 730,709 262,0 601,-173 723,-696 83,-364 89,-793 89,-1304 0,-416 0,-927 -76,-1304 C 2067,95 1690,-26 1466,-26 Z"
       transform="scale(0.015625)"
       inkscape:connector-curvature="0" />
    <path
       style="stroke-linecap:butt;stroke-linejoin:round"
       id="CMR17-36-6-4"
       d="m 678,2176 c 0,1514 717,1856 1133,1856 135,0 461,-23 589,-256 -102,0 -294,0 -294,-223 0,-172 140,-230 230,-230 58,0 230,25 230,237 0,394 -320,619 -761,619 -762,0 -1562,-789 -1562,-2195 0,-1731 723,-2112 1235,-2112 621,0 1210,555 1210,1411 0,798 -518,1379 -1171,1379 -391,0 -679,-255 -839,-702 z M 1478,25 c -787,0 -787,1175 -787,1411 0,460 218,1124 813,1124 109,0 422,0 634,-440 115,-250 115,-511 115,-831 0,-345 0,-599 -135,-855 C 1978,171 1773,25 1478,25 Z"
       transform="scale(0.015625)"
       inkscape:connector-curvature="0" />
    <path
       style="stroke-linecap:butt;stroke-linejoin:round"
       id="CMR17-38-2-5"
       d="m 1741,2264 c 403,203 813,509 813,999 0,578 -564,916 -1082,916 -582,0 -1094,-420 -1094,-999 0,-159 38,-433 288,-675 64,-63 332,-254 505,-375 C 883,1983 211,1634 211,934 211,279 838,-128 1459,-128 c 685,0 1261,490 1261,1138 0,580 -390,847 -646,1019 z m -839,558 c -51,32 -307,229 -307,529 0,388 403,681 864,681 506,0 877,-356 877,-770 0,-593 -666,-931 -698,-931 -6,0 -12,0 -64,39 z M 2080,1519 c 96,-70 403,-279 403,-668 C 2483,381 2010,25 1472,25 890,25 448,438 448,940 c 0,503 390,922 832,1120 z"
       transform="scale(0.015625)"
       inkscape:connector-curvature="0" />
    <path
       style="stroke-linecap:butt;stroke-linejoin:round"
       id="CMR17-31-9-2"
       d="m 1702,4058 c 0,134 -6,134 -96,134 -249,-276 -627,-365 -985,-365 -19,0 -51,0 -58,-19 -6,-13 -6,-26 -6,-160 198,0 531,38 787,191 V 461 C 1344,236 1331,160 781,160 H 589 V 0 c 307,0 627,0 934,0 307,0 627,0 935,0 v 160 h -192 c -551,0 -564,70 -564,298 z"
       transform="scale(0.015625)"
       inkscape:connector-curvature="0" />
    <path
       style="stroke-linecap:butt;stroke-linejoin:round"
       id="CMR17-73-1-5"
       d="m 1978,2697 c 0,116 -7,122 -45,122 -26,0 -32,-6 -109,-102 -19,-26 -77,-91 -96,-116 -205,218 -493,218 -602,218 -710,0 -966,-372 -966,-743 0,-578 653,-711 838,-751 404,-82 544,-108 679,-224 83,-76 224,-217 224,-447 0,-270 -154,-616 -743,-616 -556,0 -755,422 -870,983 -19,89 -19,96 -70,96 -52,0 -58,-7 -58,-134 V 63 c 0,-114 6,-121 45,-121 32,0 38,7 70,58 39,57 135,211 173,276 128,-173 352,-340 710,-340 634,0 973,347 973,848 0,328 -173,501 -256,578 -192,199 -416,244 -685,295 -352,78 -800,168 -800,560 0,166 90,520 736,520 685,0 724,-643 736,-849 7,-32 39,-39 58,-39 58,0 58,20 58,129 z"
       transform="scale(0.015625)"
       inkscape:connector-curvature="0" />
    <path
       style="stroke-linecap:butt;stroke-linejoin:round"
       id="CMR17-74-2-4"
       d="m 966,2560 h 896 v 165 H 966 V 3904 H 851 C 838,3245 614,2668 70,2668 V 2560 H 627 V 771 c 0,-121 0,-835 743,-835 377,0 595,370 595,841 v 363 H 1850 V 783 C 1850,344 1677,51 1408,51 1222,51 966,178 966,758 Z"
       transform="scale(0.015625)"
       inkscape:connector-curvature="0" />
    <path
       style="stroke-linecap:butt;stroke-linejoin:round"
       id="CMR17-69-7-7"
       d="m 992,3909 c 0,140 -115,261 -262,261 -141,0 -263,-114 -263,-261 0,-140 115,-261 263,-261 140,0 262,115 262,261 z M 243,2706 v -165 c 359,0 410,-39 410,-344 V 427 C 653,184 627,153 218,153 V -13 C 371,0 646,0 806,0 c 154,0 416,0 564,-13 v 166 c -378,0 -391,38 -391,267 v 2356 z"
       transform="scale(0.015625)"
       inkscape:connector-curvature="0" />
    <path
       style="stroke-linecap:butt;stroke-linejoin:round"
       id="CMR17-6d-0-4"
       d="m 4326,1933 c 0,319 -57,857 -819,857 -435,0 -736,-294 -851,-639 h -6 c -77,525 -455,639 -813,639 -506,0 -768,-390 -864,-646 h -7 v 646 l -755,-70 v -166 c 378,0 435,-39 435,-346 V 428 C 646,184 621,153 211,153 V -13 C 365,0 646,0 813,0 c 166,0 454,0 608,-13 v 166 c -410,0 -435,25 -435,275 v 1230 c 0,589 358,1030 806,1030 474,0 525,-422 525,-730 V 428 c 0,-244 -26,-275 -435,-275 V -13 c 153,13 435,13 601,13 167,0 455,0 608,-13 v 166 c -409,0 -435,25 -435,275 v 1230 c 0,589 358,1030 806,1030 474,0 525,-422 525,-730 V 428 c 0,-244 -25,-275 -435,-275 V -13 c 154,13 435,13 602,13 166,0 454,0 608,-13 v 166 c -410,0 -436,25 -436,275 z"
       transform="scale(0.015625)"
       inkscape:connector-curvature="0" />
    <path
       style="stroke-linecap:butt;stroke-linejoin:round"
       id="CMR17-75-9-4"
       d="m 1882,2693 v -165 c 377,0 435,-39 435,-342 V 1032 C 2317,500 2029,38 1555,38 1030,38 986,348 986,678 v 2085 l -775,-70 v -165 c 256,0 429,0 435,-254 V 1058 c 0,-425 0,-697 167,-875 83,-82 243,-247 704,-247 544,0 755,441 806,570 h 7 V -63 h 761 v 191 c -377,0 -435,38 -435,345 v 2290 z"
       transform="scale(0.015625)"
       inkscape:connector-curvature="0" />
    <path
       style="stroke-linecap:butt;stroke-linejoin:round"
       id="CMR17-6c-3-3"
       d="m 979,4396 -761,-70 v -166 c 377,0 435,-38 435,-343 V 426 C 653,184 627,153 218,153 V -13 C 371,0 653,0 813,0 c 166,0 448,0 601,-13 v 166 c -409,0 -435,25 -435,273 z"
       transform="scale(0.015625)"
       inkscape:connector-curvature="0" />
    <path
       style="stroke-linecap:butt;stroke-linejoin:round"
       id="CMR17-5b-6-0"
       d="m 1504,-1600 v 223 H 902 v 5921 h 602 v 223 H 678 v -6367 z"
       transform="scale(0.015625)"
       inkscape:connector-curvature="0" />
    <path
       style="stroke-linecap:butt;stroke-linejoin:round"
       id="CMR17-5d-0-7"
       d="M 915,4767 H 90 V 4544 H 691 V -1377 H 90 v -223 h 825 z"
       transform="scale(0.015625)"
       inkscape:connector-curvature="0" />
    <clipPath
       style="stroke-linecap:butt;stroke-linejoin:round"
       id="pb06be2f5ce-6-8">
      <rect
         style="stroke-linecap:butt;stroke-linejoin:round"
         x="7.1999998"
         y="7.1999998"
         width="167.39999"
         height="23.540625"
         id="rect1480-6" />
    </clipPath>
    <path
       style="stroke:#262626;stroke-width:0.80000001;stroke-linecap:butt;stroke-linejoin:round"
       d="M 0,0 V 3.5"
       id="m258380afad-8"
       inkscape:connector-curvature="0" />
    <path
       style="stroke-linecap:butt;stroke-linejoin:round"
       transform="scale(0.015625)"
       d="m 179,1056 v 198 l 1965,3002 q 51,77 128,77 70,0 86,-29 16,-29 16,-138 V 1254 h 640 V 1056 H 2374 V 499 q 0,-185 77,-243 77,-58 410,-58 h 134 V 0 Q 2733,19 2125,19 1523,19 1261,0 v 198 h 134 q 333,0 410,58 77,58 77,243 v 557 z m 179,198 h 1562 v 2388 z"
       id="CMUSerif-Roman-34-8"
       inkscape:connector-curvature="0" />
    <path
       style="stroke-linecap:butt;stroke-linejoin:round"
       transform="scale(0.015625)"
       d="m 250,2048 q 0,941 236,1453 333,761 1114,761 166,0 339,-45 173,-44 394,-217 221,-173 355,-454 256,-544 256,-1498 0,-934 -237,-1446 Q 2362,-141 1594,-141 1306,-141 1014,6 723,154 538,506 250,1037 250,2048 Z m 531,77 Q 781,1158 851,774 928,358 1142,179 1357,0 1594,0 q 256,0 470,192 214,192 278,608 71,410 71,1325 0,889 -64,1248 -83,416 -307,582 -224,167 -448,167 -84,0 -174,-26 -89,-26 -217,-96 -128,-70 -227,-250 -99,-179 -144,-448 -51,-345 -51,-1177 z"
       id="CMUSerif-Roman-30-4"
       inkscape:connector-curvature="0" />
    <path
       style="stroke-linecap:butt;stroke-linejoin:round"
       transform="scale(0.015625)"
       d="m 269,2022 q 0,1005 512,1622 512,618 1171,618 384,0 598,-195 215,-195 215,-496 0,-166 -96,-237 -96,-70 -199,-70 -115,0 -205,77 -89,77 -89,217 0,288 352,288 -166,256 -563,256 -122,0 -247,-35 -124,-35 -288,-154 -163,-118 -288,-307 -124,-188 -211,-540 -86,-352 -86,-813 v -154 q 262,634 799,634 538,0 909,-410 372,-409 372,-1017 0,-621 -388,-1034 -387,-413 -931,-413 -243,0 -464,103 Q 922,64 717,294 512,525 390,969 269,1414 269,2022 Z m 589,-576 q 0,-627 115,-928 19,-51 60,-118 42,-67 115,-157 74,-89 196,-147 122,-58 262,-58 429,0 634,416 109,231 109,858 0,640 -115,877 -199,397 -596,397 -268,0 -454,-186 -186,-186 -256,-432 -70,-246 -70,-522 z"
       id="CMUSerif-Roman-36-3"
       inkscape:connector-curvature="0" />
    <path
       style="stroke-linecap:butt;stroke-linejoin:round"
       transform="scale(0.015625)"
       d="m 269,966 q 0,717 921,1178 -396,269 -467,346 -281,313 -281,704 0,448 339,758 339,310 819,310 461,0 806,-266 346,-265 346,-687 0,-595 -774,-992 512,-320 633,-455 314,-345 314,-787 0,-512 -394,-864 -393,-352 -937,-352 -532,0 -929,310 -396,311 -396,797 z m 320,0 q 0,-396 297,-662 298,-266 714,-266 403,0 704,230 301,231 301,577 0,134 -45,249 -45,116 -135,208 -89,93 -144,134 -54,42 -156,113 l -787,499 Q 589,1632 589,966 Z m 134,2477 q 0,-307 320,-518 l 794,-512 q 633,371 633,896 0,339 -259,566 -259,227 -617,227 -352,0 -612,-186 -259,-185 -259,-473 z"
       id="CMUSerif-Roman-38-1"
       inkscape:connector-curvature="0" />
    <path
       style="stroke-linecap:butt;stroke-linejoin:round"
       transform="scale(0.015625)"
       d="m 570,3654 v 199 q 768,0 1164,409 109,0 128,-26 20,-25 20,-140 V 506 q 0,-192 92,-250 93,-58 503,-58 h 205 V 0 Q 2458,19 1645,19 832,19 608,0 v 198 h 205 q 403,0 499,58 96,58 96,250 V 3821 Q 1075,3654 570,3654 Z"
       id="CMUSerif-Roman-31-4"
       inkscape:connector-curvature="0" />
    <clipPath
       style="stroke-linecap:butt;stroke-linejoin:round"
       id="pb7c11c132d-9">
      <rect
         style="stroke-linecap:butt;stroke-linejoin:round"
         id="rect167-2"
         height="23.540625"
         width="167.39999"
         y="7.1999998"
         x="7.1999998" />
    </clipPath>
    <path
       transform="scale(0.015625)"
       d="m 1978,2697 c 0,116 -7,122 -45,122 -26,0 -32,-6 -109,-102 -19,-26 -77,-91 -96,-116 -205,218 -493,218 -602,218 -710,0 -966,-372 -966,-743 0,-578 653,-711 838,-751 404,-82 544,-108 679,-224 83,-76 224,-217 224,-447 0,-270 -154,-616 -743,-616 -556,0 -755,422 -870,983 -19,89 -19,96 -70,96 -52,0 -58,-7 -58,-134 V 63 c 0,-114 6,-121 45,-121 32,0 38,7 70,58 39,57 135,211 173,276 128,-173 352,-340 710,-340 634,0 973,347 973,848 0,328 -173,501 -256,578 -192,199 -416,244 -685,295 -352,78 -800,168 -800,560 0,166 90,520 736,520 685,0 724,-643 736,-849 7,-32 39,-39 58,-39 58,0 58,20 58,129 z"
       id="path1564-0"
       style="stroke-linecap:butt;stroke-linejoin:round"
       inkscape:connector-curvature="0" />
    <path
       transform="scale(0.015625)"
       d="m 966,2560 h 896 v 165 H 966 V 3904 H 851 C 838,3245 614,2668 70,2668 V 2560 H 627 V 771 c 0,-121 0,-835 743,-835 377,0 595,370 595,841 v 363 H 1850 V 783 C 1850,344 1677,51 1408,51 1222,51 966,178 966,758 Z"
       id="path1566-6"
       style="stroke-linecap:butt;stroke-linejoin:round"
       inkscape:connector-curvature="0" />
    <path
       transform="scale(0.015625)"
       d="m 992,3909 c 0,140 -115,261 -262,261 -141,0 -263,-114 -263,-261 0,-140 115,-261 263,-261 140,0 262,115 262,261 z M 243,2706 v -165 c 359,0 410,-39 410,-344 V 427 C 653,184 627,153 218,153 V -13 C 371,0 646,0 806,0 c 154,0 416,0 564,-13 v 166 c -378,0 -391,38 -391,267 v 2356 z"
       id="path1568-8"
       style="stroke-linecap:butt;stroke-linejoin:round"
       inkscape:connector-curvature="0" />
    <path
       transform="scale(0.015625)"
       d="m 4326,1933 c 0,319 -57,857 -819,857 -435,0 -736,-294 -851,-639 h -6 c -77,525 -455,639 -813,639 -506,0 -768,-390 -864,-646 h -7 v 646 l -755,-70 v -166 c 378,0 435,-39 435,-346 V 428 C 646,184 621,153 211,153 V -13 C 365,0 646,0 813,0 c 166,0 454,0 608,-13 v 166 c -410,0 -435,25 -435,275 v 1230 c 0,589 358,1030 806,1030 474,0 525,-422 525,-730 V 428 c 0,-244 -26,-275 -435,-275 V -13 c 153,13 435,13 601,13 167,0 455,0 608,-13 v 166 c -409,0 -435,25 -435,275 v 1230 c 0,589 358,1030 806,1030 474,0 525,-422 525,-730 V 428 c 0,-244 -25,-275 -435,-275 V -13 c 154,13 435,13 602,13 166,0 454,0 608,-13 v 166 c -410,0 -436,25 -436,275 z"
       id="path1570-9"
       style="stroke-linecap:butt;stroke-linejoin:round"
       inkscape:connector-curvature="0" />
    <path
       transform="scale(0.015625)"
       d="m 1882,2693 v -165 c 377,0 435,-39 435,-342 V 1032 C 2317,500 2029,38 1555,38 1030,38 986,348 986,678 v 2085 l -775,-70 v -165 c 256,0 429,0 435,-254 V 1058 c 0,-425 0,-697 167,-875 83,-82 243,-247 704,-247 544,0 755,441 806,570 h 7 V -63 h 761 v 191 c -377,0 -435,38 -435,345 v 2290 z"
       id="path1572-2"
       style="stroke-linecap:butt;stroke-linejoin:round"
       inkscape:connector-curvature="0" />
    <path
       transform="scale(0.015625)"
       d="m 979,4396 -761,-70 v -166 c 377,0 435,-38 435,-343 V 426 C 653,184 627,153 218,153 V -13 C 371,0 653,0 813,0 c 166,0 448,0 601,-13 v 166 c -409,0 -435,25 -435,273 z"
       id="path1574-6"
       style="stroke-linecap:butt;stroke-linejoin:round"
       inkscape:connector-curvature="0" />
    <path
       transform="scale(0.015625)"
       d="m 1504,-1600 v 223 H 902 v 5921 h 602 v 223 H 678 v -6367 z"
       id="path1576-6"
       style="stroke-linecap:butt;stroke-linejoin:round"
       inkscape:connector-curvature="0" />
    <path
       transform="scale(0.015625)"
       d="M 915,4767 H 90 V 4544 H 691 V -1377 H 90 v -223 h 825 z"
       id="path1578-4"
       style="stroke-linecap:butt;stroke-linejoin:round"
       inkscape:connector-curvature="0" />
    <path
       id="m3b6c03cab4-2"
       d="M 0,0 V 3.5"
       style="stroke:#262626;stroke-width:0.80000001;stroke-linecap:butt;stroke-linejoin:round"
       inkscape:connector-curvature="0" />
    <path
       id="CMR17-34-0"
       d="m 2150,4122 c 0,134 -6,134 -121,134 L 128,1254 V 1088 H 1779 V 457 c 0,-233 -13,-297 -461,-297 H 1197 V 0 c 205,0 550,0 768,0 217,0 563,0 768,0 v 160 h -122 c -448,0 -461,64 -461,297 v 631 h 653 v 166 H 2150 Z M 1798,3703 V 1254 H 256 Z"
       transform="scale(0.015625)"
       inkscape:connector-curvature="0"
       style="stroke-linecap:butt;stroke-linejoin:round" />
    <path
       id="CMR17-30-6"
       d="m 2688,2025 c 0,391 -6,1055 -275,1566 -237,448 -615,607 -947,607 -308,0 -698,-140 -941,-601 C 269,3118 243,2524 243,2025 c 0,-364 7,-919 205,-1406 275,-658 768,-747 1018,-747 294,0 742,121 1004,728 192,442 218,959 218,1425 z M 1466,-26 c -410,0 -653,351 -743,838 -70,376 -70,926 -70,1284 0,492 0,901 83,1291 122,542 480,709 730,709 262,0 601,-173 723,-696 83,-364 89,-793 89,-1304 0,-416 0,-927 -76,-1304 C 2067,95 1690,-26 1466,-26 Z"
       transform="scale(0.015625)"
       inkscape:connector-curvature="0"
       style="stroke-linecap:butt;stroke-linejoin:round" />
    <path
       id="CMR17-36-7"
       d="m 678,2176 c 0,1514 717,1856 1133,1856 135,0 461,-23 589,-256 -102,0 -294,0 -294,-223 0,-172 140,-230 230,-230 58,0 230,25 230,237 0,394 -320,619 -761,619 -762,0 -1562,-789 -1562,-2195 0,-1731 723,-2112 1235,-2112 621,0 1210,555 1210,1411 0,798 -518,1379 -1171,1379 -391,0 -679,-255 -839,-702 z M 1478,25 c -787,0 -787,1175 -787,1411 0,460 218,1124 813,1124 109,0 422,0 634,-440 115,-250 115,-511 115,-831 0,-345 0,-599 -135,-855 C 1978,171 1773,25 1478,25 Z"
       transform="scale(0.015625)"
       inkscape:connector-curvature="0"
       style="stroke-linecap:butt;stroke-linejoin:round" />
    <path
       id="CMR17-38-7"
       d="m 1741,2264 c 403,203 813,509 813,999 0,578 -564,916 -1082,916 -582,0 -1094,-420 -1094,-999 0,-159 38,-433 288,-675 64,-63 332,-254 505,-375 C 883,1983 211,1634 211,934 211,279 838,-128 1459,-128 c 685,0 1261,490 1261,1138 0,580 -390,847 -646,1019 z m -839,558 c -51,32 -307,229 -307,529 0,388 403,681 864,681 506,0 877,-356 877,-770 0,-593 -666,-931 -698,-931 -6,0 -12,0 -64,39 z M 2080,1519 c 96,-70 403,-279 403,-668 C 2483,381 2010,25 1472,25 890,25 448,438 448,940 c 0,503 390,922 832,1120 z"
       transform="scale(0.015625)"
       inkscape:connector-curvature="0"
       style="stroke-linecap:butt;stroke-linejoin:round" />
    <path
       id="CMR17-31-5"
       d="m 1702,4058 c 0,134 -6,134 -96,134 -249,-276 -627,-365 -985,-365 -19,0 -51,0 -58,-19 -6,-13 -6,-26 -6,-160 198,0 531,38 787,191 V 461 C 1344,236 1331,160 781,160 H 589 V 0 c 307,0 627,0 934,0 307,0 627,0 935,0 v 160 h -192 c -551,0 -564,70 -564,298 z"
       transform="scale(0.015625)"
       inkscape:connector-curvature="0"
       style="stroke-linecap:butt;stroke-linejoin:round" />
    <path
       id="CMR17-73-2"
       d="m 1978,2697 c 0,116 -7,122 -45,122 -26,0 -32,-6 -109,-102 -19,-26 -77,-91 -96,-116 -205,218 -493,218 -602,218 -710,0 -966,-372 -966,-743 0,-578 653,-711 838,-751 404,-82 544,-108 679,-224 83,-76 224,-217 224,-447 0,-270 -154,-616 -743,-616 -556,0 -755,422 -870,983 -19,89 -19,96 -70,96 -52,0 -58,-7 -58,-134 V 63 c 0,-114 6,-121 45,-121 32,0 38,7 70,58 39,57 135,211 173,276 128,-173 352,-340 710,-340 634,0 973,347 973,848 0,328 -173,501 -256,578 -192,199 -416,244 -685,295 -352,78 -800,168 -800,560 0,166 90,520 736,520 685,0 724,-643 736,-849 7,-32 39,-39 58,-39 58,0 58,20 58,129 z"
       transform="scale(0.015625)"
       inkscape:connector-curvature="0"
       style="stroke-linecap:butt;stroke-linejoin:round" />
    <path
       id="CMR17-74-9"
       d="m 966,2560 h 896 v 165 H 966 V 3904 H 851 C 838,3245 614,2668 70,2668 V 2560 H 627 V 771 c 0,-121 0,-835 743,-835 377,0 595,370 595,841 v 363 H 1850 V 783 C 1850,344 1677,51 1408,51 1222,51 966,178 966,758 Z"
       transform="scale(0.015625)"
       inkscape:connector-curvature="0"
       style="stroke-linecap:butt;stroke-linejoin:round" />
    <path
       id="CMR17-69-3"
       d="m 992,3909 c 0,140 -115,261 -262,261 -141,0 -263,-114 -263,-261 0,-140 115,-261 263,-261 140,0 262,115 262,261 z M 243,2706 v -165 c 359,0 410,-39 410,-344 V 427 C 653,184 627,153 218,153 V -13 C 371,0 646,0 806,0 c 154,0 416,0 564,-13 v 166 c -378,0 -391,38 -391,267 v 2356 z"
       transform="scale(0.015625)"
       inkscape:connector-curvature="0"
       style="stroke-linecap:butt;stroke-linejoin:round" />
    <path
       id="CMR17-6d-9"
       d="m 4326,1933 c 0,319 -57,857 -819,857 -435,0 -736,-294 -851,-639 h -6 c -77,525 -455,639 -813,639 -506,0 -768,-390 -864,-646 h -7 v 646 l -755,-70 v -166 c 378,0 435,-39 435,-346 V 428 C 646,184 621,153 211,153 V -13 C 365,0 646,0 813,0 c 166,0 454,0 608,-13 v 166 c -410,0 -435,25 -435,275 v 1230 c 0,589 358,1030 806,1030 474,0 525,-422 525,-730 V 428 c 0,-244 -26,-275 -435,-275 V -13 c 153,13 435,13 601,13 167,0 455,0 608,-13 v 166 c -409,0 -435,25 -435,275 v 1230 c 0,589 358,1030 806,1030 474,0 525,-422 525,-730 V 428 c 0,-244 -25,-275 -435,-275 V -13 c 154,13 435,13 602,13 166,0 454,0 608,-13 v 166 c -410,0 -436,25 -436,275 z"
       transform="scale(0.015625)"
       inkscape:connector-curvature="0"
       style="stroke-linecap:butt;stroke-linejoin:round" />
    <path
       id="CMR17-75-0"
       d="m 1882,2693 v -165 c 377,0 435,-39 435,-342 V 1032 C 2317,500 2029,38 1555,38 1030,38 986,348 986,678 v 2085 l -775,-70 v -165 c 256,0 429,0 435,-254 V 1058 c 0,-425 0,-697 167,-875 83,-82 243,-247 704,-247 544,0 755,441 806,570 h 7 V -63 h 761 v 191 c -377,0 -435,38 -435,345 v 2290 z"
       transform="scale(0.015625)"
       inkscape:connector-curvature="0"
       style="stroke-linecap:butt;stroke-linejoin:round" />
    <path
       id="CMR17-6c-8"
       d="m 979,4396 -761,-70 v -166 c 377,0 435,-38 435,-343 V 426 C 653,184 627,153 218,153 V -13 C 371,0 653,0 813,0 c 166,0 448,0 601,-13 v 166 c -409,0 -435,25 -435,273 z"
       transform="scale(0.015625)"
       inkscape:connector-curvature="0"
       style="stroke-linecap:butt;stroke-linejoin:round" />
    <path
       id="CMR17-5b-8"
       d="m 1504,-1600 v 223 H 902 v 5921 h 602 v 223 H 678 v -6367 z"
       transform="scale(0.015625)"
       inkscape:connector-curvature="0"
       style="stroke-linecap:butt;stroke-linejoin:round" />
    <path
       id="CMR17-5d-5"
       d="M 915,4767 H 90 V 4544 H 691 V -1377 H 90 v -223 h 825 z"
       transform="scale(0.015625)"
       inkscape:connector-curvature="0"
       style="stroke-linecap:butt;stroke-linejoin:round" />
    <clipPath
       style="stroke-linecap:butt;stroke-linejoin:round"
       id="pb06be2f5ce-7">
      <rect
         style="stroke-linecap:butt;stroke-linejoin:round"
         id="rect177-4"
         height="23.540625"
         width="167.39999"
         y="7.1999998"
         x="7.1999998" />
    </clipPath>
  </defs>
  <g
     id="figure_1">
    <g
       id="patch_1">
      <path
         d="M 0 134.64  L 170.64 134.64  L 170.64 0  L 0 0  z "
         style="fill: #ffffff"
         id="path8" />
    </g>
    <g
       id="axes_1">
      <g
         id="patch_2">
        <path
           d="M 51.076773 95.739855  L 163.44 95.739855  L 163.44 7.2  L 51.076773 7.2  z "
           style="fill: #ffffff"
           id="path11" />
      </g>
      <g
         id="matplotlib.axis_1">
        <g
           id="xtick_1">
          <g
             id="line2d_1">
            <defs
               id="defs15">
              <path
                 id="m75eb65e71e"
                 d="M 0 0  L 0 3.5  "
                 style="stroke: #262626; stroke-width: 0.8" />
            </defs>
            <g
               id="g19">
              <use
                 xlink:href="#m75eb65e71e"
                 x="81.72129"
                 y="95.739855"
                 style="fill: #262626; stroke: #262626; stroke-width: 0.8"
                 id="use17" />
            </g>
          </g>
          <g
             id="text_1">
            <!-- $\mathdefault{500}$ -->
            <g
               style="fill: #262626"
               transform="translate(73.502089 110.350201)scale(0.11 -0.11)"
               id="g32">
              <defs
                 id="defs24">
                <path
                   id="CMR17-35"
                   d="M 730 3692  C 794 3666 1056 3584 1325 3584  C 1920 3584 2246 3911 2432 4100  C 2432 4157 2432 4192 2394 4192  C 2387 4192 2374 4192 2323 4163  C 2099 4058 1837 3973 1517 3973  C 1325 3973 1037 3999 723 4139  C 653 4171 640 4171 634 4171  C 602 4171 595 4164 595 4037  L 595 2203  C 595 2089 595 2057 659 2057  C 691 2057 704 2070 736 2114  C 941 2401 1222 2522 1542 2522  C 1766 2522 2246 2382 2246 1289  C 2246 1085 2246 715 2054 421  C 1894 159 1645 25 1370 25  C 947 25 518 320 403 814  C 429 807 480 795 506 795  C 589 795 749 840 749 1038  C 749 1210 627 1280 506 1280  C 358 1280 262 1190 262 1011  C 262 454 704 -128 1382 -128  C 2042 -128 2669 440 2669 1264  C 2669 2030 2170 2624 1549 2624  C 1222 2624 947 2503 730 2274  L 730 3692  z "
                   transform="scale(0.015625)" />
                <path
                   id="CMR17-30"
                   d="M 2688 2025  C 2688 2416 2682 3080 2413 3591  C 2176 4039 1798 4198 1466 4198  C 1158 4198 768 4058 525 3597  C 269 3118 243 2524 243 2025  C 243 1661 250 1106 448 619  C 723 -39 1216 -128 1466 -128  C 1760 -128 2208 -7 2470 600  C 2662 1042 2688 1559 2688 2025  z M 1466 -26  C 1056 -26 813 325 723 812  C 653 1188 653 1738 653 2096  C 653 2588 653 2997 736 3387  C 858 3929 1216 4096 1466 4096  C 1728 4096 2067 3923 2189 3400  C 2272 3036 2278 2607 2278 2096  C 2278 1680 2278 1169 2202 792  C 2067 95 1690 -26 1466 -26  z "
                   transform="scale(0.015625)" />
              </defs>
              <use
                 xlink:href="#CMR17-35"
                 transform="scale(0.996264)"
                 id="use26" />
              <use
                 xlink:href="#CMR17-30"
                 transform="translate(45.690477 0)scale(0.996264)"
                 id="use28" />
              <use
                 xlink:href="#CMR17-30"
                 transform="translate(91.380954 0)scale(0.996264)"
                 id="use30" />
            </g>
          </g>
        </g>
        <g
           id="xtick_2">
          <g
             id="line2d_2">
            <g
               id="g38">
              <use
                 xlink:href="#m75eb65e71e"
                 x="145.564032"
                 y="95.739855"
                 style="fill: #262626; stroke: #262626; stroke-width: 0.8"
                 id="use36" />
            </g>
          </g>
          <g
             id="text_2">
            <!-- $\mathdefault{1000}$ -->
            <g
               style="fill: #262626"
               transform="translate(134.605098 110.350201)scale(0.11 -0.11)"
               id="g52">
              <defs
                 id="defs42">
                <path
                   id="CMR17-31"
                   d="M 1702 4058  C 1702 4192 1696 4192 1606 4192  C 1357 3916 979 3827 621 3827  C 602 3827 570 3827 563 3808  C 557 3795 557 3782 557 3648  C 755 3648 1088 3686 1344 3839  L 1344 461  C 1344 236 1331 160 781 160  L 589 160  L 589 0  C 896 0 1216 0 1523 0  C 1830 0 2150 0 2458 0  L 2458 160  L 2266 160  C 1715 160 1702 230 1702 458  L 1702 4058  z "
                   transform="scale(0.015625)" />
              </defs>
              <use
                 xlink:href="#CMR17-31"
                 transform="scale(0.996264)"
                 id="use44" />
              <use
                 xlink:href="#CMR17-30"
                 transform="translate(45.690477 0)scale(0.996264)"
                 id="use46" />
              <use
                 xlink:href="#CMR17-30"
                 transform="translate(91.380954 0)scale(0.996264)"
                 id="use48" />
              <use
                 xlink:href="#CMR17-30"
                 transform="translate(137.071431 0)scale(0.996264)"
                 id="use50" />
            </g>
          </g>
        </g>
        <g
           id="text_3">
          <!-- stimulus [ms] -->
          <g
             style="fill: #262626"
             transform="translate(75.660159 124.700274)scale(0.11 -0.11)"
             id="g90">
            <defs
               id="defs64">
              <path
                 id="CMR17-73"
                 d="M 1978 2697  C 1978 2813 1971 2819 1933 2819  C 1907 2819 1901 2813 1824 2717  C 1805 2691 1747 2626 1728 2601  C 1523 2819 1235 2819 1126 2819  C 416 2819 160 2447 160 2076  C 160 1498 813 1365 998 1325  C 1402 1243 1542 1217 1677 1101  C 1760 1025 1901 884 1901 654  C 1901 384 1747 38 1158 38  C 602 38 403 460 288 1021  C 269 1110 269 1117 218 1117  C 166 1117 160 1110 160 983  L 160 63  C 160 -51 166 -58 205 -58  C 237 -58 243 -51 275 0  C 314 57 410 211 448 276  C 576 103 800 -64 1158 -64  C 1792 -64 2131 283 2131 784  C 2131 1112 1958 1285 1875 1362  C 1683 1561 1459 1606 1190 1657  C 838 1735 390 1825 390 2217  C 390 2383 480 2737 1126 2737  C 1811 2737 1850 2094 1862 1888  C 1869 1856 1901 1849 1920 1849  C 1978 1849 1978 1869 1978 1978  L 1978 2697  z "
                 transform="scale(0.015625)" />
              <path
                 id="CMR17-74"
                 d="M 966 2560  L 1862 2560  L 1862 2725  L 966 2725  L 966 3904  L 851 3904  C 838 3245 614 2668 70 2668  L 70 2560  L 627 2560  L 627 771  C 627 650 627 -64 1370 -64  C 1747 -64 1965 306 1965 777  L 1965 1140  L 1850 1140  L 1850 783  C 1850 344 1677 51 1408 51  C 1222 51 966 178 966 758  L 966 2560  z "
                 transform="scale(0.015625)" />
              <path
                 id="CMR17-69"
                 d="M 992 3909  C 992 4049 877 4170 730 4170  C 589 4170 467 4056 467 3909  C 467 3769 582 3648 730 3648  C 870 3648 992 3763 992 3909  z M 243 2706  L 243 2541  C 602 2541 653 2502 653 2197  L 653 427  C 653 184 627 153 218 153  L 218 -13  C 371 0 646 0 806 0  C 960 0 1222 0 1370 -13  L 1370 153  C 992 153 979 191 979 420  L 979 2776  L 243 2706  z "
                 transform="scale(0.015625)" />
              <path
                 id="CMR17-6d"
                 d="M 4326 1933  C 4326 2252 4269 2790 3507 2790  C 3072 2790 2771 2496 2656 2151  L 2650 2151  C 2573 2676 2195 2790 1837 2790  C 1331 2790 1069 2400 973 2144  L 966 2144  L 966 2790  L 211 2720  L 211 2554  C 589 2554 646 2515 646 2208  L 646 428  C 646 184 621 153 211 153  L 211 -13  C 365 0 646 0 813 0  C 979 0 1267 0 1421 -13  L 1421 153  C 1011 153 986 178 986 428  L 986 1658  C 986 2247 1344 2688 1792 2688  C 2266 2688 2317 2266 2317 1958  L 2317 428  C 2317 184 2291 153 1882 153  L 1882 -13  C 2035 0 2317 0 2483 0  C 2650 0 2938 0 3091 -13  L 3091 153  C 2682 153 2656 178 2656 428  L 2656 1658  C 2656 2247 3014 2688 3462 2688  C 3936 2688 3987 2266 3987 1958  L 3987 428  C 3987 184 3962 153 3552 153  L 3552 -13  C 3706 0 3987 0 4154 0  C 4320 0 4608 0 4762 -13  L 4762 153  C 4352 153 4326 178 4326 428  L 4326 1933  z "
                 transform="scale(0.015625)" />
              <path
                 id="CMR17-75"
                 d="M 1882 2693  L 1882 2528  C 2259 2528 2317 2489 2317 2186  L 2317 1032  C 2317 500 2029 38 1555 38  C 1030 38 986 348 986 678  L 986 2763  L 211 2693  L 211 2528  C 467 2528 640 2528 646 2274  L 646 1058  C 646 633 646 361 813 183  C 896 101 1056 -64 1517 -64  C 2061 -64 2272 377 2323 506  L 2330 506  L 2330 -63  L 3091 -63  L 3091 128  C 2714 128 2656 166 2656 473  L 2656 2763  L 1882 2693  z "
                 transform="scale(0.015625)" />
              <path
                 id="CMR17-6c"
                 d="M 979 4396  L 218 4326  L 218 4160  C 595 4160 653 4122 653 3817  L 653 426  C 653 184 627 153 218 153  L 218 -13  C 371 0 653 0 813 0  C 979 0 1261 0 1414 -13  L 1414 153  C 1005 153 979 178 979 426  L 979 4396  z "
                 transform="scale(0.015625)" />
              <path
                 id="CMR17-5b"
                 d="M 1504 -1600  L 1504 -1377  L 902 -1377  L 902 4544  L 1504 4544  L 1504 4767  L 678 4767  L 678 -1600  L 1504 -1600  z "
                 transform="scale(0.015625)" />
              <path
                 id="CMR17-5d"
                 d="M 915 4767  L 90 4767  L 90 4544  L 691 4544  L 691 -1377  L 90 -1377  L 90 -1600  L 915 -1600  L 915 4767  z "
                 transform="scale(0.015625)" />
            </defs>
            <use
               xlink:href="#CMR17-73"
               transform="scale(0.996264)"
               id="use66" />
            <use
               xlink:href="#CMR17-74"
               transform="translate(35.801338 0)scale(0.996264)"
               id="use68" />
            <use
               xlink:href="#CMR17-69"
               transform="translate(71.082105 0)scale(0.996264)"
               id="use70" />
            <use
               xlink:href="#CMR17-6d"
               transform="translate(95.953164 0)scale(0.996264)"
               id="use72" />
            <use
               xlink:href="#CMR17-75"
               transform="translate(170.2703 0)scale(0.996264)"
               id="use74" />
            <use
               xlink:href="#CMR17-6c"
               transform="translate(221.16567 0)scale(0.996264)"
               id="use76" />
            <use
               xlink:href="#CMR17-75"
               transform="translate(246.036728 0)scale(0.996264)"
               id="use78" />
            <use
               xlink:href="#CMR17-73"
               transform="translate(296.932098 0)scale(0.996264)"
               id="use80" />
            <use
               xlink:href="#CMR17-5b"
               transform="translate(362.809402 0)scale(0.996264)"
               id="use82" />
            <use
               xlink:href="#CMR17-6d"
               transform="translate(387.68046 0)scale(0.996264)"
               id="use84" />
            <use
               xlink:href="#CMR17-73"
               transform="translate(464.60005 0)scale(0.996264)"
               id="use86" />
            <use
               xlink:href="#CMR17-5d"
               transform="translate(500.401388 0)scale(0.996264)"
               id="use88" />
          </g>
        </g>
      </g>
      <g
         id="matplotlib.axis_2">
        <g
           id="ytick_1">
          <g
             id="line2d_3">
            <defs
               id="defs95">
              <path
                 id="m4cd610afa3"
                 d="M 0 0  L -3.5 0  "
                 style="stroke: #262626; stroke-width: 0.8" />
            </defs>
            <g
               id="g99">
              <use
                 xlink:href="#m4cd610afa3"
                 x="51.076773"
                 y="71.592621"
                 style="fill: #262626; stroke: #262626; stroke-width: 0.8"
                 id="use97" />
            </g>
          </g>
          <g
             id="text_4">
            <!-- $\mathdefault{500}$ -->
            <g
               style="fill: #262626"
               transform="translate(27.638371 75.397795)scale(0.11 -0.11)"
               id="g108">
              <use
                 xlink:href="#CMR17-35"
                 transform="scale(0.996264)"
                 id="use102" />
              <use
                 xlink:href="#CMR17-30"
                 transform="translate(45.690477 0)scale(0.996264)"
                 id="use104" />
              <use
                 xlink:href="#CMR17-30"
                 transform="translate(91.380954 0)scale(0.996264)"
                 id="use106" />
            </g>
          </g>
        </g>
        <g
           id="ytick_2">
          <g
             id="line2d_4">
            <g
               id="g114">
              <use
                 xlink:href="#m4cd610afa3"
                 x="51.076773"
                 y="46.439254"
                 style="fill: #262626; stroke: #262626; stroke-width: 0.8"
                 id="use112" />
            </g>
          </g>
          <g
             id="text_5">
            <!-- $\mathdefault{750}$ -->
            <g
               style="fill: #262626"
               transform="translate(27.638371 50.244427)scale(0.11 -0.11)"
               id="g126">
              <defs
                 id="defs118">
                <path
                   id="CMR17-37"
                   d="M 2886 3941  L 2886 4081  L 1382 4081  C 634 4081 621 4165 595 4288  L 480 4288  L 294 3094  L 410 3094  C 429 3215 474 3540 550 3661  C 589 3712 1062 3712 1171 3712  L 2579 3712  L 1869 2661  C 1395 1954 1069 999 1069 165  C 1069 89 1069 -128 1299 -128  C 1530 -128 1530 89 1530 171  L 1530 465  C 1530 1508 1709 2196 2003 2636  L 2886 3941  z "
                   transform="scale(0.015625)" />
              </defs>
              <use
                 xlink:href="#CMR17-37"
                 transform="scale(0.996264)"
                 id="use120" />
              <use
                 xlink:href="#CMR17-35"
                 transform="translate(45.690477 0)scale(0.996264)"
                 id="use122" />
              <use
                 xlink:href="#CMR17-30"
                 transform="translate(91.380954 0)scale(0.996264)"
                 id="use124" />
            </g>
          </g>
        </g>
        <g
           id="ytick_3">
          <g
             id="line2d_5">
            <g
               id="g132">
              <use
                 xlink:href="#m4cd610afa3"
                 x="51.076773"
                 y="21.285886"
                 style="fill: #262626; stroke: #262626; stroke-width: 0.8"
                 id="use130" />
            </g>
          </g>
          <g
             id="text_6">
            <!-- $\mathdefault{1000}$ -->
            <g
               style="fill: #262626"
               transform="translate(22.158904 25.091059)scale(0.11 -0.11)"
               id="g143">
              <use
                 xlink:href="#CMR17-31"
                 transform="scale(0.996264)"
                 id="use135" />
              <use
                 xlink:href="#CMR17-30"
                 transform="translate(45.690477 0)scale(0.996264)"
                 id="use137" />
              <use
                 xlink:href="#CMR17-30"
                 transform="translate(91.380954 0)scale(0.996264)"
                 id="use139" />
              <use
                 xlink:href="#CMR17-30"
                 transform="translate(137.071431 0)scale(0.996264)"
                 id="use141" />
            </g>
          </g>
        </g>
        <g
           id="text_7">
          <!-- reproduction [ms] -->
          <g
             style="fill: #262626"
             transform="translate(15.419178 93.692255)rotate(-90)scale(0.11 -0.11)"
             id="g188">
            <defs
               id="defs154">
              <path
                 id="CMR17-72"
                 d="M 960 1497  C 960 2112 1222 2688 1702 2688  C 1747 2688 1792 2682 1837 2662  C 1837 2662 1696 2617 1696 2452  C 1696 2298 1818 2234 1914 2234  C 1990 2234 2131 2279 2131 2458  C 2131 2663 1926 2790 1709 2790  C 1222 2790 1011 2317 947 2093  L 941 2093  L 941 2790  L 198 2720  L 198 2554  C 576 2554 634 2515 634 2208  L 634 428  C 634 184 608 153 198 153  L 198 -13  C 352 0 646 0 813 0  C 998 0 1325 0 1498 -13  L 1498 153  C 1037 153 960 153 960 440  L 960 1497  z "
                 transform="scale(0.015625)" />
              <path
                 id="CMR17-65"
                 d="M 2438 1472  C 2464 1498 2464 1511 2464 1576  C 2464 2238 2118 2816 1389 2816  C 710 2816 173 2169 173 1383  C 173 551 781 -64 1459 -64  C 2176 -64 2458 607 2458 740  C 2458 784 2419 784 2406 784  C 2362 784 2355 771 2330 696  C 2189 265 1837 51 1504 51  C 1229 51 954 203 781 480  C 582 803 582 1176 582 1472  L 2438 1472  z M 589 1568  C 634 2505 1126 2714 1382 2714  C 1818 2714 2112 2297 2118 1568  L 589 1568  z "
                 transform="scale(0.015625)" />
              <path
                 id="CMR17-70"
                 d="M 1408 -1063  C 998 -1063 973 -1037 973 -789  L 973 402  C 1158 134 1427 -38 1766 -38  C 2406 -38 3053 523 3053 1388  C 3053 2191 2496 2802 1837 2802  C 1453 2802 1139 2592 960 2338  L 960 2802  L 198 2732  L 198 2567  C 576 2567 634 2528 634 2223  L 634 -789  C 634 -1031 608 -1063 198 -1063  L 198 -1228  C 352 -1216 634 -1216 800 -1216  C 966 -1216 1254 -1216 1408 -1228  L 1408 -1063  z M 973 2012  C 973 2102 973 2235 1222 2471  C 1254 2497 1472 2688 1792 2688  C 2259 2688 2643 2108 2643 1382  C 2643 656 2234 64 1728 64  C 1498 64 1248 172 1056 472  C 973 612 973 650 973 752  L 973 2012  z "
                 transform="scale(0.015625)" />
              <path
                 id="CMR17-6f"
                 d="M 2758 1356  C 2758 2176 2163 2816 1466 2816  C 768 2816 173 2176 173 1356  C 173 551 768 -64 1466 -64  C 2163 -64 2758 551 2758 1356  z M 1466 51  C 1165 51 909 230 762 480  C 602 767 582 1126 582 1408  C 582 1677 595 2010 762 2298  C 890 2509 1139 2714 1466 2714  C 1754 2714 1997 2554 2150 2330  C 2349 2029 2349 1607 2349 1408  C 2349 1158 2336 775 2163 467  C 1984 173 1709 51 1466 51  z "
                 transform="scale(0.015625)" />
              <path
                 id="CMR17-64"
                 d="M 1869 4326  L 1869 4160  C 2246 4160 2304 4122 2304 3820  L 2304 2345  C 2278 2377 2016 2790 1498 2790  C 845 2790 211 2208 211 1364  C 211 525 806 -64 1434 -64  C 1978 -64 2259 337 2291 380  L 2291 -63  L 3066 -63  L 3066 128  C 2688 128 2630 166 2630 473  L 2630 4396  L 1869 4326  z M 2291 755  C 2291 563 2176 390 2029 262  C 1811 70 1594 38 1472 38  C 1286 38 621 134 621 1356  C 621 2612 1363 2688 1530 2688  C 1824 2688 2061 2522 2208 2291  C 2291 2157 2291 2138 2291 2023  L 2291 755  z "
                 transform="scale(0.015625)" />
              <path
                 id="CMR17-63"
                 d="M 2234 2240  C 2112 2240 1933 2240 1933 2017  C 1933 1838 2080 1787 2163 1787  C 2208 1787 2394 1807 2394 2024  C 2394 2467 1958 2803 1466 2803  C 787 2803 211 2178 211 1363  C 211 516 813 -64 1466 -64  C 2259 -64 2458 677 2458 748  C 2458 774 2451 793 2406 793  C 2362 793 2355 787 2330 703  C 2163 180 1798 51 1523 51  C 1114 51 621 427 621 1369  C 621 2338 1094 2688 1472 2688  C 1722 2688 2093 2573 2234 2240  z "
                 transform="scale(0.015625)" />
              <path
                 id="CMR17-6e"
                 d="M 2656 1933  C 2656 2259 2592 2790 1837 2790  C 1331 2790 1069 2400 973 2144  L 966 2144  L 966 2790  L 211 2720  L 211 2554  C 589 2554 646 2515 646 2208  L 646 428  C 646 184 621 153 211 153  L 211 -13  C 365 0 646 0 813 0  C 979 0 1267 0 1421 -13  L 1421 153  C 1011 153 986 178 986 428  L 986 1658  C 986 2247 1344 2688 1792 2688  C 2266 2688 2317 2266 2317 1958  L 2317 428  C 2317 184 2291 153 1882 153  L 1882 -13  C 2035 0 2317 0 2483 0  C 2650 0 2938 0 3091 -13  L 3091 153  C 2682 153 2656 178 2656 428  L 2656 1933  z "
                 transform="scale(0.015625)" />
            </defs>
            <use
               xlink:href="#CMR17-72"
               transform="scale(0.996264)"
               id="use156" />
            <use
               xlink:href="#CMR17-65"
               transform="translate(35.280768 0)scale(0.996264)"
               id="use158" />
            <use
               xlink:href="#CMR17-70"
               transform="translate(75.766428 0)scale(0.996264)"
               id="use160" />
            <use
               xlink:href="#CMR17-72"
               transform="translate(126.661798 0)scale(0.996264)"
               id="use162" />
            <use
               xlink:href="#CMR17-6f"
               transform="translate(161.942566 0)scale(0.996264)"
               id="use164" />
            <use
               xlink:href="#CMR17-64"
               transform="translate(210.235482 0)scale(0.996264)"
               id="use166" />
            <use
               xlink:href="#CMR17-75"
               transform="translate(261.130851 0)scale(0.996264)"
               id="use168" />
            <use
               xlink:href="#CMR17-63"
               transform="translate(312.026221 0)scale(0.996264)"
               id="use170" />
            <use
               xlink:href="#CMR17-74"
               transform="translate(352.511882 0)scale(0.996264)"
               id="use172" />
            <use
               xlink:href="#CMR17-69"
               transform="translate(387.79265 0)scale(0.996264)"
               id="use174" />
            <use
               xlink:href="#CMR17-6f"
               transform="translate(412.663708 0)scale(0.996264)"
               id="use176" />
            <use
               xlink:href="#CMR17-6e"
               transform="translate(458.354185 0)scale(0.996264)"
               id="use178" />
            <use
               xlink:href="#CMR17-5b"
               transform="translate(539.325521 0)scale(0.996264)"
               id="use180" />
            <use
               xlink:href="#CMR17-6d"
               transform="translate(564.19658 0)scale(0.996264)"
               id="use182" />
            <use
               xlink:href="#CMR17-73"
               transform="translate(641.11617 0)scale(0.996264)"
               id="use184" />
            <use
               xlink:href="#CMR17-5d"
               transform="translate(676.917507 0)scale(0.996264)"
               id="use186" />
          </g>
        </g>
      </g>
      <g
         id="line2d_6">
        <path
           d="M 56.184193 91.715316  L 120.026935 41.40858  "
           clip-path="url(#p08db11760f)"
           style="fill: none; stroke-dasharray: 2.22,0.96; stroke-dashoffset: 0; stroke: #808080; stroke-width: 0.6"
           id="path192" />
      </g>
      <g
         id="LineCollection_1">
        <path
           d="M 68.952741 77.26952  L 68.952741 71.488162  "
           clip-path="url(#p08db11760f)"
           style="fill: none; stroke: #000000; stroke-width: 1.5"
           id="path195" />
        <path
           d="M 75.337015 76.385932  L 75.337015 70.018942  "
           clip-path="url(#p08db11760f)"
           style="fill: none; stroke: #000000; stroke-width: 1.5"
           id="path197" />
        <path
           d="M 81.72129 73.541752  L 81.72129 64.808038  "
           clip-path="url(#p08db11760f)"
           style="fill: none; stroke: #000000; stroke-width: 1.5"
           id="path199" />
        <path
           d="M 88.105564 70.010561  L 88.105564 60.00869  "
           clip-path="url(#p08db11760f)"
           style="fill: none; stroke: #000000; stroke-width: 1.5"
           id="path201" />
        <path
           d="M 94.489838 69.149749  L 94.489838 58.491442  "
           clip-path="url(#p08db11760f)"
           style="fill: none; stroke: #000000; stroke-width: 1.5"
           id="path203" />
        <path
           d="M 100.874112 63.317435  L 100.874112 52.103928  "
           clip-path="url(#p08db11760f)"
           style="fill: none; stroke: #000000; stroke-width: 1.5"
           id="path205" />
        <path
           d="M 107.258387 60.762634  L 107.258387 45.810485  "
           clip-path="url(#p08db11760f)"
           style="fill: none; stroke: #000000; stroke-width: 1.5"
           id="path207" />
      </g>
      <g
         id="line2d_7">
        <defs
           id="defs211">
          <path
             id="m1f58355f6f"
             d="M 1 0  L -1 -0  "
             style="stroke: #000000" />
        </defs>
        <g
           clip-path="url(#p08db11760f)"
           id="g227">
          <use
             xlink:href="#m1f58355f6f"
             x="68.952741"
             y="77.26952"
             style="stroke: #000000"
             id="use213" />
          <use
             xlink:href="#m1f58355f6f"
             x="75.337015"
             y="76.385932"
             style="stroke: #000000"
             id="use215" />
          <use
             xlink:href="#m1f58355f6f"
             x="81.72129"
             y="73.541752"
             style="stroke: #000000"
             id="use217" />
          <use
             xlink:href="#m1f58355f6f"
             x="88.105564"
             y="70.010561"
             style="stroke: #000000"
             id="use219" />
          <use
             xlink:href="#m1f58355f6f"
             x="94.489838"
             y="69.149749"
             style="stroke: #000000"
             id="use221" />
          <use
             xlink:href="#m1f58355f6f"
             x="100.874112"
             y="63.317435"
             style="stroke: #000000"
             id="use223" />
          <use
             xlink:href="#m1f58355f6f"
             x="107.258387"
             y="60.762634"
             style="stroke: #000000"
             id="use225" />
        </g>
      </g>
      <g
         id="line2d_8">
        <g
           clip-path="url(#p08db11760f)"
           id="g244">
          <use
             xlink:href="#m1f58355f6f"
             x="68.952741"
             y="71.488162"
             style="stroke: #000000"
             id="use230" />
          <use
             xlink:href="#m1f58355f6f"
             x="75.337015"
             y="70.018942"
             style="stroke: #000000"
             id="use232" />
          <use
             xlink:href="#m1f58355f6f"
             x="81.72129"
             y="64.808038"
             style="stroke: #000000"
             id="use234" />
          <use
             xlink:href="#m1f58355f6f"
             x="88.105564"
             y="60.00869"
             style="stroke: #000000"
             id="use236" />
          <use
             xlink:href="#m1f58355f6f"
             x="94.489838"
             y="58.491442"
             style="stroke: #000000"
             id="use238" />
          <use
             xlink:href="#m1f58355f6f"
             x="100.874112"
             y="52.103928"
             style="stroke: #000000"
             id="use240" />
          <use
             xlink:href="#m1f58355f6f"
             x="107.258387"
             y="45.810485"
             style="stroke: #000000"
             id="use242" />
        </g>
      </g>
      <g
         id="line2d_9">
        <path
           d="M 94.489838 61.531274  L 158.332581 11.224539  "
           clip-path="url(#p08db11760f)"
           style="fill: none; stroke-dasharray: 2.22,0.96; stroke-dashoffset: 0; stroke: #808080; stroke-width: 0.6"
           id="path247" />
      </g>
      <g
         id="LineCollection_2">
        <path
           d="M 107.258387 56.730423  L 107.258387 43.952426  "
           clip-path="url(#p08db11760f)"
           style="fill: none; stroke: #808080; stroke-width: 1.5"
           id="path250" />
        <path
           d="M 113.642661 55.631347  L 113.642661 40.926739  "
           clip-path="url(#p08db11760f)"
           style="fill: none; stroke: #808080; stroke-width: 1.5"
           id="path252" />
        <path
           d="M 120.026935 50.251411  L 120.026935 36.736105  "
           clip-path="url(#p08db11760f)"
           style="fill: none; stroke: #808080; stroke-width: 1.5"
           id="path254" />
        <path
           d="M 126.411209 47.00623  L 126.411209 29.691426  "
           clip-path="url(#p08db11760f)"
           style="fill: none; stroke: #808080; stroke-width: 1.5"
           id="path256" />
        <path
           d="M 132.795484 47.510755  L 132.795484 27.178927  "
           clip-path="url(#p08db11760f)"
           style="fill: none; stroke: #808080; stroke-width: 1.5"
           id="path258" />
        <path
           d="M 139.179758 44.45269  L 139.179758 21.585694  "
           clip-path="url(#p08db11760f)"
           style="fill: none; stroke: #808080; stroke-width: 1.5"
           id="path260" />
        <path
           d="M 145.564032 43.378764  L 145.564032 16.720167  "
           clip-path="url(#p08db11760f)"
           style="fill: none; stroke: #808080; stroke-width: 1.5"
           id="path262" />
      </g>
      <g
         id="line2d_10">
        <defs
           id="defs266">
          <path
             id="m329100cee3"
             d="M 1 0  L -1 -0  "
             style="stroke: #808080" />
        </defs>
        <g
           clip-path="url(#p08db11760f)"
           id="g282">
          <use
             xlink:href="#m329100cee3"
             x="107.258387"
             y="56.730423"
             style="fill: #808080; stroke: #808080"
             id="use268" />
          <use
             xlink:href="#m329100cee3"
             x="113.642661"
             y="55.631347"
             style="fill: #808080; stroke: #808080"
             id="use270" />
          <use
             xlink:href="#m329100cee3"
             x="120.026935"
             y="50.251411"
             style="fill: #808080; stroke: #808080"
             id="use272" />
          <use
             xlink:href="#m329100cee3"
             x="126.411209"
             y="47.00623"
             style="fill: #808080; stroke: #808080"
             id="use274" />
          <use
             xlink:href="#m329100cee3"
             x="132.795484"
             y="47.510755"
             style="fill: #808080; stroke: #808080"
             id="use276" />
          <use
             xlink:href="#m329100cee3"
             x="139.179758"
             y="44.45269"
             style="fill: #808080; stroke: #808080"
             id="use278" />
          <use
             xlink:href="#m329100cee3"
             x="145.564032"
             y="43.378764"
             style="fill: #808080; stroke: #808080"
             id="use280" />
        </g>
      </g>
      <g
         id="line2d_11">
        <g
           clip-path="url(#p08db11760f)"
           id="g299">
          <use
             xlink:href="#m329100cee3"
             x="107.258387"
             y="43.952426"
             style="fill: #808080; stroke: #808080"
             id="use285" />
          <use
             xlink:href="#m329100cee3"
             x="113.642661"
             y="40.926739"
             style="fill: #808080; stroke: #808080"
             id="use287" />
          <use
             xlink:href="#m329100cee3"
             x="120.026935"
             y="36.736105"
             style="fill: #808080; stroke: #808080"
             id="use289" />
          <use
             xlink:href="#m329100cee3"
             x="126.411209"
             y="29.691426"
             style="fill: #808080; stroke: #808080"
             id="use291" />
          <use
             xlink:href="#m329100cee3"
             x="132.795484"
             y="27.178927"
             style="fill: #808080; stroke: #808080"
             id="use293" />
          <use
             xlink:href="#m329100cee3"
             x="139.179758"
             y="21.585694"
             style="fill: #808080; stroke: #808080"
             id="use295" />
          <use
             xlink:href="#m329100cee3"
             x="145.564032"
             y="16.720167"
             style="fill: #808080; stroke: #808080"
             id="use297" />
        </g>
      </g>
      <g
         id="line2d_12">
        <path
           d="M 68.952741 74.378841  L 75.337015 73.202437  L 81.72129 69.174895  L 88.105564 65.009626  L 94.489838 63.820595  L 100.874112 57.710682  L 107.258387 53.286559  "
           clip-path="url(#p08db11760f)"
           style="fill: none; stroke: #000000; stroke-width: 1.5; stroke-linecap: round"
           id="path302" />
        <defs
           id="defs305">
          <path
             id="m7ac9bda135"
             d="M 0 2  C 0.530406 2 1.03916 1.789267 1.414214 1.414214  C 1.789267 1.03916 2 0.530406 2 0  C 2 -0.530406 1.789267 -1.03916 1.414214 -1.414214  C 1.03916 -1.789267 0.530406 -2 0 -2  C -0.530406 -2 -1.03916 -1.789267 -1.414214 -1.414214  C -1.789267 -1.03916 -2 -0.530406 -2 0  C -2 0.530406 -1.789267 1.03916 -1.414214 1.414214  C -1.03916 1.789267 -0.530406 2 0 2  z "
             style="stroke: #000000" />
        </defs>
        <g
           clip-path="url(#p08db11760f)"
           id="g321">
          <use
             xlink:href="#m7ac9bda135"
             x="68.952741"
             y="74.378841"
             style="stroke: #000000"
             id="use307" />
          <use
             xlink:href="#m7ac9bda135"
             x="75.337015"
             y="73.202437"
             style="stroke: #000000"
             id="use309" />
          <use
             xlink:href="#m7ac9bda135"
             x="81.72129"
             y="69.174895"
             style="stroke: #000000"
             id="use311" />
          <use
             xlink:href="#m7ac9bda135"
             x="88.105564"
             y="65.009626"
             style="stroke: #000000"
             id="use313" />
          <use
             xlink:href="#m7ac9bda135"
             x="94.489838"
             y="63.820595"
             style="stroke: #000000"
             id="use315" />
          <use
             xlink:href="#m7ac9bda135"
             x="100.874112"
             y="57.710682"
             style="stroke: #000000"
             id="use317" />
          <use
             xlink:href="#m7ac9bda135"
             x="107.258387"
             y="53.286559"
             style="stroke: #000000"
             id="use319" />
        </g>
      </g>
      <g
         id="line2d_13">
        <path
           d="M 107.258387 50.341425  L 113.642661 48.279043  L 120.026935 43.493758  L 126.411209 38.348828  L 132.795484 37.344841  L 139.179758 33.019192  L 145.564032 30.049465  "
           clip-path="url(#p08db11760f)"
           style="fill: none; stroke: #808080; stroke-width: 1.5; stroke-linecap: round"
           id="path324" />
        <defs
           id="defs327">
          <path
             id="m9bbafb01fd"
             d="M 0 2  C 0.530406 2 1.03916 1.789267 1.414214 1.414214  C 1.789267 1.03916 2 0.530406 2 0  C 2 -0.530406 1.789267 -1.03916 1.414214 -1.414214  C 1.03916 -1.789267 0.530406 -2 0 -2  C -0.530406 -2 -1.03916 -1.789267 -1.414214 -1.414214  C -1.789267 -1.03916 -2 -0.530406 -2 0  C -2 0.530406 -1.789267 1.03916 -1.414214 1.414214  C -1.03916 1.789267 -0.530406 2 0 2  z "
             style="stroke: #808080" />
        </defs>
        <g
           clip-path="url(#p08db11760f)"
           id="g343">
          <use
             xlink:href="#m9bbafb01fd"
             x="107.258387"
             y="50.341425"
             style="fill: #808080; stroke: #808080"
             id="use329" />
          <use
             xlink:href="#m9bbafb01fd"
             x="113.642661"
             y="48.279043"
             style="fill: #808080; stroke: #808080"
             id="use331" />
          <use
             xlink:href="#m9bbafb01fd"
             x="120.026935"
             y="43.493758"
             style="fill: #808080; stroke: #808080"
             id="use333" />
          <use
             xlink:href="#m9bbafb01fd"
             x="126.411209"
             y="38.348828"
             style="fill: #808080; stroke: #808080"
             id="use335" />
          <use
             xlink:href="#m9bbafb01fd"
             x="132.795484"
             y="37.344841"
             style="fill: #808080; stroke: #808080"
             id="use337" />
          <use
             xlink:href="#m9bbafb01fd"
             x="139.179758"
             y="33.019192"
             style="fill: #808080; stroke: #808080"
             id="use339" />
          <use
             xlink:href="#m9bbafb01fd"
             x="145.564032"
             y="30.049465"
             style="fill: #808080; stroke: #808080"
             id="use341" />
        </g>
      </g>
      <g
         id="patch_3">
        <path
           d="M 51.076773 95.739855  L 51.076773 7.2  "
           style="fill: none; stroke: #262626; stroke-width: 0.8; stroke-linejoin: miter; stroke-linecap: square"
           id="path346" />
      </g>
      <g
         id="patch_4">
        <path
           d="M 51.076773 95.739855  L 163.44 95.739855  "
           style="fill: none; stroke: #262626; stroke-width: 0.8; stroke-linejoin: miter; stroke-linecap: square"
           id="path349" />
      </g>
      <g
         id="text_8">
        <!-- slope=0.71 -->
        <g
           style="fill: #262626"
           transform="translate(56.184193 46.439254)scale(0.11 -0.11)"
           id="g376">
          <defs
             id="defs354">
            <path
               id="CMR17-3d"
               d="M 4115 2017  C 4211 2017 4307 2017 4307 2125  C 4307 2240 4198 2240 4090 2240  L 512 2240  C 403 2240 294 2240 294 2125  C 294 2017 390 2017 486 2017  L 4115 2017  z M 4090 896  C 4198 896 4307 896 4307 1011  C 4307 1119 4211 1119 4115 1119  L 486 1119  C 390 1119 294 1119 294 1011  C 294 896 403 896 512 896  L 4090 896  z "
               transform="scale(0.015625)" />
            <path
               id="CMR17-2e"
               d="M 1062 261  C 1062 420 934 522 800 522  C 672 522 538 420 538 261  C 538 102 666 0 800 0  C 928 0 1062 102 1062 261  z "
               transform="scale(0.015625)" />
          </defs>
          <use
             xlink:href="#CMR17-73"
             transform="scale(0.996264)"
             id="use356" />
          <use
             xlink:href="#CMR17-6c"
             transform="translate(35.801338 0)scale(0.996264)"
             id="use358" />
          <use
             xlink:href="#CMR17-6f"
             transform="translate(60.672396 0)scale(0.996264)"
             id="use360" />
          <use
             xlink:href="#CMR17-70"
             transform="translate(106.362873 0)scale(0.996264)"
             id="use362" />
          <use
             xlink:href="#CMR17-65"
             transform="translate(159.860682 0)scale(0.996264)"
             id="use364" />
          <use
             xlink:href="#CMR17-3d"
             transform="translate(200.346342 0)scale(0.996264)"
             id="use366" />
          <use
             xlink:href="#CMR17-30"
             transform="translate(272.061131 0)scale(0.996264)"
             id="use368" />
          <use
             xlink:href="#CMR17-2e"
             transform="translate(317.751608 0)scale(0.996264)"
             id="use370" />
          <use
             xlink:href="#CMR17-37"
             transform="translate(342.622666 0)scale(0.996264)"
             id="use372" />
          <use
             xlink:href="#CMR17-31"
             transform="translate(388.313143 0)scale(0.996264)"
             id="use374" />
        </g>
      </g>
      <g
         id="text_9">
        <!-- slope=0.69 -->
        <g
           style="fill: #262626"
           transform="translate(94.489838 16.255212)scale(0.11 -0.11)"
           id="g403">
          <defs
             id="defs381">
            <path
               id="CMR17-36"
               d="M 678 2176  C 678 3690 1395 4032 1811 4032  C 1946 4032 2272 4009 2400 3776  C 2298 3776 2106 3776 2106 3553  C 2106 3381 2246 3323 2336 3323  C 2394 3323 2566 3348 2566 3560  C 2566 3954 2246 4179 1805 4179  C 1043 4179 243 3390 243 1984  C 243 253 966 -128 1478 -128  C 2099 -128 2688 427 2688 1283  C 2688 2081 2170 2662 1517 2662  C 1126 2662 838 2407 678 1960  L 678 2176  z M 1478 25  C 691 25 691 1200 691 1436  C 691 1896 909 2560 1504 2560  C 1613 2560 1926 2560 2138 2120  C 2253 1870 2253 1609 2253 1289  C 2253 944 2253 690 2118 434  C 1978 171 1773 25 1478 25  z "
               transform="scale(0.015625)" />
            <path
               id="CMR17-39"
               d="M 2253 1864  C 2253 464 1670 31 1190 31  C 1043 31 685 31 538 294  C 704 268 826 357 826 518  C 826 692 685 749 595 749  C 538 749 365 723 365 506  C 365 71 742 -128 1203 -128  C 1939 -128 2688 674 2688 2073  C 2688 3817 1971 4179 1485 4179  C 851 4179 243 3628 243 2778  C 243 1991 762 1408 1414 1408  C 1952 1408 2189 1903 2253 2112  L 2253 1864  z M 1427 1510  C 1254 1510 1011 1542 813 1922  C 678 2169 678 2461 678 2771  C 678 3146 678 3405 858 3684  C 947 3817 1114 4032 1485 4032  C 2240 4032 2240 2885 2240 2632  C 2240 2182 2035 1510 1427 1510  z "
               transform="scale(0.015625)" />
          </defs>
          <use
             xlink:href="#CMR17-73"
             transform="scale(0.996264)"
             id="use383" />
          <use
             xlink:href="#CMR17-6c"
             transform="translate(35.801338 0)scale(0.996264)"
             id="use385" />
          <use
             xlink:href="#CMR17-6f"
             transform="translate(60.672396 0)scale(0.996264)"
             id="use387" />
          <use
             xlink:href="#CMR17-70"
             transform="translate(106.362873 0)scale(0.996264)"
             id="use389" />
          <use
             xlink:href="#CMR17-65"
             transform="translate(159.860682 0)scale(0.996264)"
             id="use391" />
          <use
             xlink:href="#CMR17-3d"
             transform="translate(200.346342 0)scale(0.996264)"
             id="use393" />
          <use
             xlink:href="#CMR17-30"
             transform="translate(272.061131 0)scale(0.996264)"
             id="use395" />
          <use
             xlink:href="#CMR17-2e"
             transform="translate(317.751608 0)scale(0.996264)"
             id="use397" />
          <use
             xlink:href="#CMR17-36"
             transform="translate(342.622666 0)scale(0.996264)"
             id="use399" />
          <use
             xlink:href="#CMR17-39"
             transform="translate(388.313143 0)scale(0.996264)"
             id="use401" />
        </g>
      </g>
    </g>
  </g>
  <defs
     id="defs411">
    <clipPath
       id="p08db11760f">
      <rect
         x="51.076773"
         y="7.2"
         width="112.363227"
         height="88.539855"
         id="rect408" />
    </clipPath>
  </defs>
  <g
     style="stroke-linecap:butt;stroke-linejoin:round"
     id="patch_1-3"
     transform="translate(4.3927257,154.28879)">
    <path
       inkscape:connector-curvature="0"
       id="path8-5"
       style="fill:#ffffff;stroke-linecap:butt;stroke-linejoin:round"
       d="M 0,69.64077 H 181.8 V 0 H 0 Z" />
  </g>
  <g
     id="patch_3-1"
     style="stroke-linecap:butt;stroke-linejoin:round"
     transform="matrix(0.53729668,0,0,-0.53729668,58.399039,98.353265)">
    <path
       d="m 14.809091,17.781392 h 9.511364 V 8.270028 h -9.511364 z"
       clip-path="url(#pb06be2f5ce)"
       style="fill:#9e0142;stroke:#ffffff;stroke-linecap:butt;stroke-linejoin:miter"
       id="path130"
       inkscape:connector-curvature="0" />
  </g>
  <g
     id="patch_4-5"
     style="stroke-linecap:butt;stroke-linejoin:round"
     transform="matrix(0.53729668,0,0,-0.53729668,58.399039,98.353265)">
    <path
       d="m 26.698295,17.781392 h 9.511364 V 8.270028 h -9.511364 z"
       clip-path="url(#pb06be2f5ce)"
       style="fill:#cb334d;stroke:#ffffff;stroke-linecap:butt;stroke-linejoin:miter"
       id="path133"
       inkscape:connector-curvature="0" />
  </g>
  <g
     id="patch_5"
     style="stroke-linecap:butt;stroke-linejoin:round"
     transform="matrix(0.53729668,0,0,-0.53729668,58.399039,98.353265)">
    <path
       d="m 38.5875,17.781392 h 9.511364 V 8.270028 H 38.5875 Z"
       clip-path="url(#pb06be2f5ce)"
       style="fill:#e95c47;stroke:#ffffff;stroke-linecap:butt;stroke-linejoin:miter"
       id="path136"
       inkscape:connector-curvature="0" />
  </g>
  <g
     id="patch_6"
     style="stroke-linecap:butt;stroke-linejoin:round"
     transform="matrix(0.53729668,0,0,-0.53729668,58.399039,98.353265)">
    <path
       d="m 50.476705,17.781392 h 9.511363 V 8.270028 h -9.511363 z"
       clip-path="url(#pb06be2f5ce)"
       style="fill:#f98e52;stroke:#ffffff;stroke-linecap:butt;stroke-linejoin:miter"
       id="path139"
       inkscape:connector-curvature="0" />
  </g>
  <g
     id="patch_7"
     style="stroke-linecap:butt;stroke-linejoin:round"
     transform="matrix(0.53729668,0,0,-0.53729668,58.399039,98.353265)">
    <path
       d="m 62.365909,17.781392 h 9.511364 V 8.270028 h -9.511364 z"
       clip-path="url(#pb06be2f5ce)"
       style="fill:#fdbf6f;stroke:#ffffff;stroke-linecap:butt;stroke-linejoin:miter"
       id="path142"
       inkscape:connector-curvature="0" />
  </g>
  <g
     id="patch_8"
     style="stroke-linecap:butt;stroke-linejoin:round"
     transform="matrix(0.53729668,0,0,-0.53729668,58.399039,98.353265)">
    <path
       d="m 74.255114,17.781392 h 9.511363 V 8.270028 h -9.511363 z"
       clip-path="url(#pb06be2f5ce)"
       style="fill:#fee593;stroke:#ffffff;stroke-linecap:butt;stroke-linejoin:miter"
       id="path145"
       inkscape:connector-curvature="0" />
  </g>
  <g
     id="patch_9"
     style="stroke-linecap:butt;stroke-linejoin:round"
     transform="matrix(0.53729668,0,0,-0.53729668,58.399039,98.353265)">
    <path
       d="m 86.144318,17.781392 h 9.511364 V 8.270028 h -9.511364 z"
       clip-path="url(#pb06be2f5ce)"
       style="fill:#fffa8d;stroke:#ffffff;stroke-linecap:butt;stroke-linejoin:miter"
       id="path148"
       inkscape:connector-curvature="0" />
  </g>
  <g
     id="patch_10"
     style="stroke-linecap:butt;stroke-linejoin:round"
     transform="matrix(0.53729668,0,0,-0.53729668,58.399039,98.353265)">
    <path
       d="m 86.144318,29.670597 h 9.511364 v -9.511364 h -9.511364 z"
       clip-path="url(#pb06be2f5ce)"
       style="fill:#fffa8d;stroke:#ffffff;stroke-linecap:butt;stroke-linejoin:miter"
       id="path151"
       inkscape:connector-curvature="0" />
  </g>
  <g
     id="patch_11"
     style="stroke-linecap:butt;stroke-linejoin:round"
     transform="matrix(0.53729668,0,0,-0.53729668,58.399039,98.353265)">
    <path
       d="m 98.033523,29.670597 h 9.511367 v -9.511364 h -9.511367 z"
       clip-path="url(#pb06be2f5ce)"
       style="fill:#eaf79e;stroke:#ffffff;stroke-linecap:butt;stroke-linejoin:miter"
       id="path154"
       inkscape:connector-curvature="0" />
  </g>
  <g
     id="patch_12"
     style="stroke-linecap:butt;stroke-linejoin:round"
     transform="matrix(0.53729668,0,0,-0.53729668,58.399039,98.353265)">
    <path
       d="m 109.92273,29.670597 h 9.51136 v -9.511364 h -9.51136 z"
       clip-path="url(#pb06be2f5ce)"
       style="fill:#bfe5a0;stroke:#ffffff;stroke-linecap:butt;stroke-linejoin:miter"
       id="path157"
       inkscape:connector-curvature="0" />
  </g>
  <path
     inkscape:connector-curvature="0"
     id="path160"
     style="fill:#86cfa5;stroke:#ffffff;stroke-linecap:butt;stroke-linejoin:miter"
     clip-path="url(#pb06be2f5ce)"
     d="m 121.81193,29.670597 h 9.51136 v -9.511364 h -9.51136 z"
     transform="matrix(0.53729668,0,0,-0.53729668,58.399039,98.353265)" />
  <g
     id="patch_14"
     style="stroke-linecap:butt;stroke-linejoin:round"
     transform="matrix(0.53729668,0,0,-0.53729668,58.399039,98.353265)">
    <path
       d="m 133.70114,29.670597 h 9.51136 v -9.511364 h -9.51136 z"
       clip-path="url(#pb06be2f5ce)"
       style="fill:#54aead;stroke:#ffffff;stroke-linecap:butt;stroke-linejoin:miter"
       id="path163"
       inkscape:connector-curvature="0" />
  </g>
  <g
     id="patch_15"
     style="stroke-linecap:butt;stroke-linejoin:round"
     transform="matrix(0.53729668,0,0,-0.53729668,58.399039,98.353265)">
    <path
       d="m 145.59034,29.670597 h 9.51136 v -9.511364 h -9.51136 z"
       clip-path="url(#pb06be2f5ce)"
       style="fill:#3a7eb8;stroke:#ffffff;stroke-linecap:butt;stroke-linejoin:miter"
       id="path166"
       inkscape:connector-curvature="0" />
  </g>
  <g
     id="patch_16"
     style="stroke-linecap:butt;stroke-linejoin:round"
     transform="matrix(0.53729668,0,0,-0.53729668,58.399039,98.353265)">
    <path
       d="m 157.47954,29.670597 h 9.51137 v -9.511364 h -9.51137 z"
       clip-path="url(#pb06be2f5ce)"
       style="fill:#5e4fa2;stroke:#ffffff;stroke-linecap:butt;stroke-linejoin:miter"
       id="path169"
       inkscape:connector-curvature="0" />
  </g>
</svg>
