<?xml version="1.0" encoding="UTF-8" standalone="no"?>
<svg
   xmlns:dc="http://purl.org/dc/elements/1.1/"
   xmlns:cc="http://creativecommons.org/ns#"
   xmlns:rdf="http://www.w3.org/1999/02/22-rdf-syntax-ns#"
   xmlns:svg="http://www.w3.org/2000/svg"
   xmlns="http://www.w3.org/2000/svg"
   xmlns:xlink="http://www.w3.org/1999/xlink"
   xmlns:sodipodi="http://sodipodi.sourceforge.net/DTD/sodipodi-0.dtd"
   xmlns:inkscape="http://www.inkscape.org/namespaces/inkscape"
   width="163.24115pt"
   height="114.0705pt"
   viewBox="0 0 163.24115 114.07049"
   version="1.1"
   id="svg326"
   sodipodi:docname="std130.svg"
   inkscape:version="0.92.5 (2060ec1f9f, 2020-04-08)">
  <sodipodi:namedview
     pagecolor="#ffffff"
     bordercolor="#666666"
     borderopacity="1"
     objecttolerance="10"
     gridtolerance="10"
     guidetolerance="10"
     inkscape:pageopacity="0"
     inkscape:pageshadow="2"
     inkscape:window-width="1920"
     inkscape:window-height="1052"
     id="namedview328"
     showgrid="false"
     inkscape:zoom="4.1973881"
     inkscape:cx="78.572021"
     inkscape:cy="17.314359"
     inkscape:window-x="0"
     inkscape:window-y="0"
     inkscape:window-maximized="1"
     inkscape:current-layer="svg326" />
  <metadata
     id="metadata2">
    <rdf:RDF>
      <cc:Work>
        <dc:type
           rdf:resource="http://purl.org/dc/dcmitype/StillImage" />
        <dc:date>2022-09-22T10:55:53.365324</dc:date>
        <dc:format>image/svg+xml</dc:format>
        <dc:creator>
          <cc:Agent>
            <dc:title>Matplotlib v3.5.1, https://matplotlib.org/</dc:title>
          </cc:Agent>
        </dc:creator>
        <dc:title></dc:title>
      </cc:Work>
    </rdf:RDF>
  </metadata>
  <defs
     id="defs6"
     style="stroke-linecap:butt;stroke-linejoin:round">
    <style
       type="text/css"
       id="style4">*{stroke-linejoin: round; stroke-linecap: butt}</style>
  </defs>
  <g
     style="stroke-linecap:butt;stroke-linejoin:round"
     id="patch_1"
     transform="scale(0.95,1)">
    <path
       inkscape:connector-curvature="0"
       id="path8"
       style="fill:#ffffff;stroke-linecap:butt;stroke-linejoin:round"
       d="M 0,114.07049 H 171.83279 V 0 H 0 Z" />
  </g>
  <g
     id="patch_2"
     style="stroke-linecap:butt;stroke-linejoin:round">
    <path
       d="m 44.379643,75.170347 h 50.727273 v -54.36 H 44.379643 Z"
       style="fill:#ffffff;stroke-linecap:butt;stroke-linejoin:round"
       id="path11"
       inkscape:connector-curvature="0" />
  </g>
  <g
     style="stroke-linecap:butt;stroke-linejoin:round"
     id="xtick_1">
    <g
       style="stroke-linecap:butt;stroke-linejoin:round"
       id="line2d_1">
      <defs
         id="defs15">
        <path
           inkscape:connector-curvature="0"
           style="stroke:#262626;stroke-width:0.80000001;stroke-linecap:butt;stroke-linejoin:round"
           d="M 0,0 V 3.5"
           id="m7c1f58e915" />
      </defs>
      <g
         style="stroke-linecap:butt;stroke-linejoin:round"
         id="g19">
        <use
           height="100%"
           width="100%"
           id="use17"
           style="fill:#262626;stroke:#262626;stroke-width:0.80000001;stroke-linecap:butt;stroke-linejoin:round"
           y="75.170349"
           x="46.685429"
           xlink:href="#m7c1f58e915" />
      </g>
    </g>
    <g
       style="stroke-linecap:butt;stroke-linejoin:round"
       id="text_1">
      <!-- $\mathdefault{400}$ -->
      <g
         id="g32"
         transform="matrix(0.11,0,0,-0.11,38.466227,89.780693)"
         style="fill:#262626;stroke-linecap:butt;stroke-linejoin:round">
        <defs
           id="defs24">
          <path
             style="stroke-linecap:butt;stroke-linejoin:round"
             inkscape:connector-curvature="0"
             transform="scale(0.015625)"
             d="m 2150,4122 c 0,134 -6,134 -121,134 L 128,1254 V 1088 H 1779 V 457 c 0,-233 -13,-297 -461,-297 H 1197 V 0 c 205,0 550,0 768,0 217,0 563,0 768,0 v 160 h -122 c -448,0 -461,64 -461,297 v 631 h 653 v 166 H 2150 Z M 1798,3703 V 1254 H 256 Z"
             id="CMR17-34" />
          <path
             style="stroke-linecap:butt;stroke-linejoin:round"
             inkscape:connector-curvature="0"
             transform="scale(0.015625)"
             d="m 2688,2025 c 0,391 -6,1055 -275,1566 -237,448 -615,607 -947,607 -308,0 -698,-140 -941,-601 C 269,3118 243,2524 243,2025 c 0,-364 7,-919 205,-1406 275,-658 768,-747 1018,-747 294,0 742,121 1004,728 192,442 218,959 218,1425 z M 1466,-26 c -410,0 -653,351 -743,838 -70,376 -70,926 -70,1284 0,492 0,901 83,1291 122,542 480,709 730,709 262,0 601,-173 723,-696 83,-364 89,-793 89,-1304 0,-416 0,-927 -76,-1304 C 2067,95 1690,-26 1466,-26 Z"
             id="CMR17-30" />
        </defs>
        <use
           height="100%"
           width="100%"
           y="0"
           x="0"
           style="stroke-linecap:butt;stroke-linejoin:round"
           id="use26"
           transform="scale(0.996264)"
           xlink:href="#CMR17-34" />
        <use
           height="100%"
           width="100%"
           y="0"
           x="0"
           style="stroke-linecap:butt;stroke-linejoin:round"
           id="use28"
           transform="matrix(0.996264,0,0,0.996264,45.690477,0)"
           xlink:href="#CMR17-30" />
        <use
           height="100%"
           width="100%"
           y="0"
           x="0"
           style="stroke-linecap:butt;stroke-linejoin:round"
           id="use30"
           transform="matrix(0.996264,0,0,0.996264,91.380954,0)"
           xlink:href="#CMR17-30" />
      </g>
    </g>
  </g>
  <g
     style="stroke-linecap:butt;stroke-linejoin:round"
     id="xtick_2">
    <g
       style="stroke-linecap:butt;stroke-linejoin:round"
       id="line2d_2">
      <g
         style="stroke-linecap:butt;stroke-linejoin:round"
         id="g38">
        <use
           height="100%"
           width="100%"
           id="use36"
           style="fill:#262626;stroke:#262626;stroke-width:0.80000001;stroke-linecap:butt;stroke-linejoin:round"
           y="75.170349"
           x="77.42923"
           xlink:href="#m7c1f58e915" />
      </g>
    </g>
    <g
       style="stroke-linecap:butt;stroke-linejoin:round"
       id="text_2">
      <!-- $\mathdefault{600}$ -->
      <g
         id="g50"
         transform="matrix(0.11,0,0,-0.11,69.210029,89.780693)"
         style="fill:#262626;stroke-linecap:butt;stroke-linejoin:round">
        <defs
           id="defs42">
          <path
             style="stroke-linecap:butt;stroke-linejoin:round"
             inkscape:connector-curvature="0"
             transform="scale(0.015625)"
             d="m 678,2176 c 0,1514 717,1856 1133,1856 135,0 461,-23 589,-256 -102,0 -294,0 -294,-223 0,-172 140,-230 230,-230 58,0 230,25 230,237 0,394 -320,619 -761,619 -762,0 -1562,-789 -1562,-2195 0,-1731 723,-2112 1235,-2112 621,0 1210,555 1210,1411 0,798 -518,1379 -1171,1379 -391,0 -679,-255 -839,-702 z M 1478,25 c -787,0 -787,1175 -787,1411 0,460 218,1124 813,1124 109,0 422,0 634,-440 115,-250 115,-511 115,-831 0,-345 0,-599 -135,-855 C 1978,171 1773,25 1478,25 Z"
             id="CMR17-36" />
        </defs>
        <use
           height="100%"
           width="100%"
           y="0"
           x="0"
           style="stroke-linecap:butt;stroke-linejoin:round"
           id="use44"
           transform="scale(0.996264)"
           xlink:href="#CMR17-36" />
        <use
           height="100%"
           width="100%"
           y="0"
           x="0"
           style="stroke-linecap:butt;stroke-linejoin:round"
           id="use46"
           transform="matrix(0.996264,0,0,0.996264,45.690477,0)"
           xlink:href="#CMR17-30" />
        <use
           height="100%"
           width="100%"
           y="0"
           x="0"
           style="stroke-linecap:butt;stroke-linejoin:round"
           id="use48"
           transform="matrix(0.996264,0,0,0.996264,91.380954,0)"
           xlink:href="#CMR17-30" />
      </g>
    </g>
  </g>
  <g
     id="matplotlib.axis_2"
     style="stroke-linecap:butt;stroke-linejoin:round">
    <g
       id="ytick_1"
       style="stroke-linecap:butt;stroke-linejoin:round">
      <g
         id="line2d_3"
         style="stroke-linecap:butt;stroke-linejoin:round">
        <defs
           id="defs93">
          <path
             id="md294d68e99"
             d="M 0,0 H -3.5"
             style="stroke:#262626;stroke-width:0.80000001;stroke-linecap:butt;stroke-linejoin:round"
             inkscape:connector-curvature="0" />
        </defs>
        <g
           id="g97"
           style="stroke-linecap:butt;stroke-linejoin:round">
          <use
             xlink:href="#md294d68e99"
             x="44.379642"
             y="62.809757"
             style="fill:#262626;stroke:#262626;stroke-width:0.80000001;stroke-linecap:butt;stroke-linejoin:round"
             id="use95"
             width="100%"
             height="100%" />
        </g>
      </g>
      <g
         id="text_4"
         style="stroke-linecap:butt;stroke-linejoin:round">
        <!-- $\mathdefault{50}$ -->
        <g
           style="fill:#262626;stroke-linecap:butt;stroke-linejoin:round"
           transform="matrix(0.11,0,0,-0.11,26.420709,66.61493)"
           id="g107">
          <defs
             id="defs101">
            <path
               id="CMR17-35"
               d="m 730,3692 c 64,-26 326,-108 595,-108 595,0 921,327 1107,516 0,57 0,92 -38,92 -7,0 -20,0 -71,-29 -224,-105 -486,-190 -806,-190 -192,0 -480,26 -794,166 -70,32 -83,32 -89,32 -32,0 -39,-7 -39,-134 V 2203 c 0,-114 0,-146 64,-146 32,0 45,13 77,57 205,287 486,408 806,408 224,0 704,-140 704,-1233 0,-204 0,-574 -192,-868 C 1894,159 1645,25 1370,25 947,25 518,320 403,814 c 26,-7 77,-19 103,-19 83,0 243,45 243,243 0,172 -122,242 -243,242 -148,0 -244,-90 -244,-269 0,-557 442,-1139 1120,-1139 660,0 1287,568 1287,1392 0,766 -499,1360 -1120,1360 -327,0 -602,-121 -819,-350 z"
               transform="scale(0.015625)"
               inkscape:connector-curvature="0"
               style="stroke-linecap:butt;stroke-linejoin:round" />
          </defs>
          <use
             xlink:href="#CMR17-35"
             transform="scale(0.996264)"
             id="use103"
             style="stroke-linecap:butt;stroke-linejoin:round"
             x="0"
             y="0"
             width="100%"
             height="100%" />
          <use
             xlink:href="#CMR17-30"
             transform="matrix(0.996264,0,0,0.996264,45.690477,0)"
             id="use105"
             style="stroke-linecap:butt;stroke-linejoin:round"
             x="0"
             y="0"
             width="100%"
             height="100%" />
        </g>
      </g>
    </g>
    <g
       id="ytick_2"
       style="stroke-linecap:butt;stroke-linejoin:round">
      <g
         id="line2d_4"
         style="stroke-linecap:butt;stroke-linejoin:round">
        <g
           id="g113"
           style="stroke-linecap:butt;stroke-linejoin:round">
          <use
             xlink:href="#md294d68e99"
             x="44.379642"
             y="39.934792"
             style="fill:#262626;stroke:#262626;stroke-width:0.80000001;stroke-linecap:butt;stroke-linejoin:round"
             id="use111"
             width="100%"
             height="100%" />
        </g>
      </g>
      <g
         id="text_5"
         style="stroke-linecap:butt;stroke-linejoin:round">
        <!-- $\mathdefault{100}$ -->
        <g
           style="fill:#262626;stroke-linecap:butt;stroke-linejoin:round"
           transform="matrix(0.11,0,0,-0.11,20.941241,43.739963)"
           id="g125">
          <defs
             id="defs117">
            <path
               id="CMR17-31"
               d="m 1702,4058 c 0,134 -6,134 -96,134 -249,-276 -627,-365 -985,-365 -19,0 -51,0 -58,-19 -6,-13 -6,-26 -6,-160 198,0 531,38 787,191 V 461 C 1344,236 1331,160 781,160 H 589 V 0 c 307,0 627,0 934,0 307,0 627,0 935,0 v 160 h -192 c -551,0 -564,70 -564,298 z"
               transform="scale(0.015625)"
               inkscape:connector-curvature="0"
               style="stroke-linecap:butt;stroke-linejoin:round" />
          </defs>
          <use
             xlink:href="#CMR17-31"
             transform="scale(0.996264)"
             id="use119"
             style="stroke-linecap:butt;stroke-linejoin:round"
             x="0"
             y="0"
             width="100%"
             height="100%" />
          <use
             xlink:href="#CMR17-30"
             transform="matrix(0.996264,0,0,0.996264,45.690477,0)"
             id="use121"
             style="stroke-linecap:butt;stroke-linejoin:round"
             x="0"
             y="0"
             width="100%"
             height="100%" />
          <use
             xlink:href="#CMR17-30"
             transform="matrix(0.996264,0,0,0.996264,91.380954,0)"
             id="use123"
             style="stroke-linecap:butt;stroke-linejoin:round"
             x="0"
             y="0"
             width="100%"
             height="100%" />
        </g>
      </g>
    </g>
    <g
       id="text_6"
       style="stroke-linecap:butt;stroke-linejoin:round">
      <!-- $\sigma_{\mathrm{reproduction}}$ -->
      <g
         style="fill:#262626;stroke-linecap:butt;stroke-linejoin:round"
         transform="matrix(0,-0.11,-0.11,0,13.805798,75.562017)"
         id="g165">
        <defs
           id="defs137">
          <path
             id="CMMI12-1b"
             d="m 3251,2408 c 83,0 295,0 295,204 0,140 -122,140 -237,140 H 1894 C 934,2752 243,1686 243,932 c 0,-542 352,-996 928,-996 755,0 1581,811 1581,1769 0,249 -58,491 -211,703 z M 1178,64 c -327,0 -564,249 -564,690 0,383 231,1654 1172,1654 275,0 582,-134 582,-627 0,-223 -102,-760 -326,-1129 C 1811,275 1466,64 1178,64 Z"
             transform="scale(0.015625)"
             inkscape:connector-curvature="0"
             style="stroke-linecap:butt;stroke-linejoin:round" />
          <path
             id="CMR17-72"
             d="m 960,1497 c 0,615 262,1191 742,1191 45,0 90,-6 135,-26 0,0 -141,-45 -141,-210 0,-154 122,-218 218,-218 76,0 217,45 217,224 0,205 -205,332 -422,332 -487,0 -698,-473 -762,-697 h -6 v 697 l -743,-70 v -166 c 378,0 436,-39 436,-346 V 428 C 634,184 608,153 198,153 V -13 C 352,0 646,0 813,0 c 185,0 512,0 685,-13 v 166 c -461,0 -538,0 -538,287 z"
             transform="scale(0.015625)"
             inkscape:connector-curvature="0"
             style="stroke-linecap:butt;stroke-linejoin:round" />
          <path
             id="CMR17-65"
             d="m 2438,1472 c 26,26 26,39 26,104 0,662 -346,1240 -1075,1240 C 710,2816 173,2169 173,1383 173,551 781,-64 1459,-64 c 717,0 999,671 999,804 0,44 -39,44 -52,44 -44,0 -51,-13 -76,-88 C 2189,265 1837,51 1504,51 1229,51 954,203 781,480 582,803 582,1176 582,1472 Z m -1849,96 c 45,937 537,1146 793,1146 436,0 730,-417 736,-1146 z"
             transform="scale(0.015625)"
             inkscape:connector-curvature="0"
             style="stroke-linecap:butt;stroke-linejoin:round" />
          <path
             id="CMR17-70"
             d="m 1408,-1063 c -410,0 -435,26 -435,274 V 402 c 185,-268 454,-440 793,-440 640,0 1287,561 1287,1426 0,803 -557,1414 -1216,1414 -384,0 -698,-210 -877,-464 v 464 l -762,-70 v -165 c 378,0 436,-39 436,-344 V -789 c 0,-242 -26,-274 -436,-274 v -165 c 154,12 436,12 602,12 166,0 454,0 608,-12 z M 973,2012 c 0,90 0,223 249,459 32,26 250,217 570,217 467,0 851,-580 851,-1306 C 2643,656 2234,64 1728,64 1498,64 1248,172 1056,472 973,612 973,650 973,752 Z"
             transform="scale(0.015625)"
             inkscape:connector-curvature="0"
             style="stroke-linecap:butt;stroke-linejoin:round" />
          <path
             id="CMR17-6f"
             d="m 2758,1356 c 0,820 -595,1460 -1292,1460 C 768,2816 173,2176 173,1356 173,551 768,-64 1466,-64 c 697,0 1292,615 1292,1420 z M 1466,51 c -301,0 -557,179 -704,429 -160,287 -180,646 -180,928 0,269 13,602 180,890 128,211 377,416 704,416 288,0 531,-160 684,-384 199,-301 199,-723 199,-922 0,-250 -13,-633 -186,-941 C 1984,173 1709,51 1466,51 Z"
             transform="scale(0.015625)"
             inkscape:connector-curvature="0"
             style="stroke-linecap:butt;stroke-linejoin:round" />
          <path
             id="CMR17-64"
             d="m 1869,4326 v -166 c 377,0 435,-38 435,-340 V 2345 c -26,32 -288,445 -806,445 C 845,2790 211,2208 211,1364 211,525 806,-64 1434,-64 c 544,0 825,401 857,444 V -63 h 775 v 191 c -378,0 -436,38 -436,345 V 4396 Z M 2291,755 C 2291,563 2176,390 2029,262 1811,70 1594,38 1472,38 c -186,0 -851,96 -851,1318 0,1256 742,1332 909,1332 294,0 531,-166 678,-397 83,-134 83,-153 83,-268 z"
             transform="scale(0.015625)"
             inkscape:connector-curvature="0"
             style="stroke-linecap:butt;stroke-linejoin:round" />
          <path
             id="CMR17-63"
             d="m 2234,2240 c -122,0 -301,0 -301,-223 0,-179 147,-230 230,-230 45,0 231,20 231,237 0,443 -436,779 -928,779 C 787,2803 211,2178 211,1363 211,516 813,-64 1466,-64 c 793,0 992,741 992,812 0,26 -7,45 -52,45 -44,0 -51,-6 -76,-90 C 2163,180 1798,51 1523,51 1114,51 621,427 621,1369 c 0,969 473,1319 851,1319 250,0 621,-115 762,-448 z"
             transform="scale(0.015625)"
             inkscape:connector-curvature="0"
             style="stroke-linecap:butt;stroke-linejoin:round" />
          <path
             id="CMR17-6e"
             d="m 2656,1933 c 0,326 -64,857 -819,857 -506,0 -768,-390 -864,-646 h -7 v 646 l -755,-70 v -166 c 378,0 435,-39 435,-346 V 428 C 646,184 621,153 211,153 V -13 C 365,0 646,0 813,0 c 166,0 454,0 608,-13 v 166 c -410,0 -435,25 -435,275 v 1230 c 0,589 358,1030 806,1030 474,0 525,-422 525,-730 V 428 c 0,-244 -26,-275 -435,-275 V -13 c 153,13 435,13 601,13 167,0 455,0 608,-13 v 166 c -409,0 -435,25 -435,275 z"
             transform="scale(0.015625)"
             inkscape:connector-curvature="0"
             style="stroke-linecap:butt;stroke-linejoin:round" />
        </defs>
        <use
           xlink:href="#CMMI12-1b"
           transform="scale(0.996264)"
           id="use139"
           style="stroke-linecap:butt;stroke-linejoin:round"
           x="0"
           y="0"
           width="100%"
           height="100%" />
        <use
           xlink:href="#CMR17-72"
           transform="matrix(0.697382,0,0,0.697382,55.445461,-14.943915)"
           id="use141"
           style="stroke-linecap:butt;stroke-linejoin:round"
           x="0"
           y="0"
           width="100%"
           height="100%" />
        <use
           xlink:href="#CMR17-65"
           transform="matrix(0.697382,0,0,0.697382,80.141881,-14.943915)"
           id="use143"
           style="stroke-linecap:butt;stroke-linejoin:round"
           x="0"
           y="0"
           width="100%"
           height="100%" />
        <use
           xlink:href="#CMR17-70"
           transform="matrix(0.697382,0,0,0.697382,108.48171,-14.943915)"
           id="use145"
           style="stroke-linecap:butt;stroke-linejoin:round"
           x="0"
           y="0"
           width="100%"
           height="100%" />
        <use
           xlink:href="#CMR17-72"
           transform="matrix(0.697382,0,0,0.697382,144.10832,-14.943915)"
           id="use147"
           style="stroke-linecap:butt;stroke-linejoin:round"
           x="0"
           y="0"
           width="100%"
           height="100%" />
        <use
           xlink:href="#CMR17-6f"
           transform="matrix(0.697382,0,0,0.697382,168.80474,-14.943915)"
           id="use149"
           style="stroke-linecap:butt;stroke-linejoin:round"
           x="0"
           y="0"
           width="100%"
           height="100%" />
        <use
           xlink:href="#CMR17-64"
           transform="matrix(0.697382,0,0,0.697382,202.60963,-14.943915)"
           id="use151"
           style="stroke-linecap:butt;stroke-linejoin:round"
           x="0"
           y="0"
           width="100%"
           height="100%" />
        <path
           id="use153"
           d="m 258.74363,14.400612 v -1.797938 c 4.10802,0 4.74002,-0.424967 4.74002,-3.7266351 V -3.6986303 c 0,-5.7969878 -3.13822,-10.8312137 -8.30321,-10.8312137 -5.72071,0 -6.20016,3.377944 -6.20016,6.9738196 V 15.163374 l -8.44486,-0.762762 v -1.797938 c 2.78953,0 4.67464,0 4.74002,-2.7677348 v -13.250258 c 0,-4.6310524 0,-7.5949262 1.81973,-9.5345192 0.90442,-0.893521 2.64787,-2.691459 7.6712,-2.691459 5.92775,0 8.22693,4.805398 8.78266,6.2110584 h 0.0763 V -15.6304 h 8.29231 v 2.081249 c -4.10801,0 -4.74002,0.414071 -4.74002,3.7593248 V 15.163374 Z"
           inkscape:connector-curvature="0"
           style="stroke-width:0.01089659;stroke-linecap:butt;stroke-linejoin:round" />
        <use
           xlink:href="#CMR17-63"
           transform="matrix(0.697382,0,0,0.697382,273.86285,-14.943915)"
           id="use155"
           style="stroke-linecap:butt;stroke-linejoin:round"
           x="0"
           y="0"
           width="100%"
           height="100%" />
        <path
           id="use157"
           d="m 312.72879,12.951365 h 9.76335 v 1.797938 h -9.76335 v 12.847084 h -1.25311 c -0.14165,-7.180855 -2.58249,-13.46819 -8.51024,-13.46819 v -1.176832 h 6.0694 V -6.5426412 c 0,-1.3184879 0,-9.0986558 8.09617,-9.0986558 4.10802,0 6.48348,4.03174 6.48348,9.1640353 v 3.9554636 h -1.25311 v -3.890084 c 0,-4.7836049 -1.88511,-7.9763069 -4.8163,-7.9763069 -2.02676,0 -4.81629,1.383868 -4.81629,7.7038921 z"
           inkscape:connector-curvature="0"
           style="stroke-width:0.01089659;stroke-linecap:butt;stroke-linejoin:round" />
        <path
           id="use159"
           d="m 337.70852,27.65087 c 0,1.525523 -1.25311,2.844011 -2.85491,2.844011 -1.53642,0 -2.8658,-1.242212 -2.8658,-2.844011 0,-1.525523 1.25311,-2.844011 2.8658,-2.844011 1.52553,0 2.85491,1.253108 2.85491,2.844011 z M 329.54697,14.542268 V 12.74433 c 3.91188,0 4.46761,-0.424967 4.46761,-3.7484285 V -10.291069 c 0,-2.647873 -0.28332,-2.985667 -4.74002,-2.985667 v -1.808835 c 1.66718,0.141656 4.66374,0.141656 6.40719,0.141656 1.67808,0 4.53299,0 6.14568,-0.141656 v 1.808835 c -4.11891,0 -4.26056,0.41407 -4.26056,2.90939 v 25.672375 z"
           inkscape:connector-curvature="0"
           style="stroke-width:0.01089659;stroke-linecap:butt;stroke-linejoin:round" />
        <use
           xlink:href="#CMR17-6f"
           transform="matrix(0.697382,0,0,0.697382,344.30876,-14.943915)"
           id="use161"
           style="stroke-linecap:butt;stroke-linejoin:round"
           x="0"
           y="0"
           width="100%"
           height="100%" />
        <use
           xlink:href="#CMR17-6e"
           transform="matrix(0.697382,0,0,0.697382,376.29194,-14.943915)"
           id="use163"
           style="stroke-linecap:butt;stroke-linejoin:round"
           x="0"
           y="0"
           width="100%"
           height="100%" />
      </g>
    </g>
  </g>
  <g
     id="line2d_5"
     style="stroke-linecap:butt;stroke-linejoin:round">
    <path
       d="m 46.685428,72.699438 7.685951,-0.268022 7.68595,-6.905707 7.68595,-1.977737 7.685951,-1.016633 7.68595,-4.847534 7.685951,-8.84306"
       clip-path="url(#p79dfb68826)"
       style="fill:none;stroke:#000000;stroke-width:1.5;stroke-linecap:round;stroke-linejoin:round"
       id="path169"
       inkscape:connector-curvature="0" />
  </g>
  <g
     id="patch_3"
     style="stroke-linecap:butt;stroke-linejoin:round">
    <path
       d="m 44.379643,75.170347 v -54.36"
       style="fill:none;stroke:#262626;stroke-width:0.80000001;stroke-linecap:square;stroke-linejoin:miter"
       id="path172"
       inkscape:connector-curvature="0" />
  </g>
  <g
     id="patch_4"
     style="stroke-linecap:butt;stroke-linejoin:round">
    <path
       d="M 44.379643,75.170347 H 95.106916"
       style="fill:none;stroke:#262626;stroke-width:0.80000001;stroke-linecap:square;stroke-linejoin:miter"
       id="path175"
       inkscape:connector-curvature="0" />
  </g>
  <g
     id="text_7"
     style="stroke-linecap:butt;stroke-linejoin:round">
    <!-- short range -->
    <g
       style="fill:#262626;stroke-linecap:butt;stroke-linejoin:round"
       transform="matrix(0.11,0,0,-0.11,42.589476,14.810347)"
       id="g203">
      <defs
         id="defs181">
        <path
           id="CMR17-68"
           d="m 2656,1933 c 0,326 -64,857 -819,857 -525,0 -781,-422 -858,-633 h -6 v 2239 l -762,-70 v -166 c 378,0 435,-38 435,-343 V 426 C 646,184 621,153 211,153 V -13 C 365,0 646,0 813,0 c 166,0 454,0 608,-13 v 166 c -410,0 -435,25 -435,275 v 1230 c 0,589 358,1030 806,1030 474,0 525,-422 525,-730 V 428 c 0,-244 -26,-275 -435,-275 V -13 c 153,13 435,13 601,13 167,0 455,0 608,-13 v 166 c -409,0 -435,25 -435,275 z"
           transform="scale(0.015625)"
           inkscape:connector-curvature="0"
           style="stroke-linecap:butt;stroke-linejoin:round" />
        <path
           id="CMR17-61"
           d="m 2304,1653 c 0,419 0,641 -269,890 -237,209 -512,273 -729,273 -506,0 -871,-409 -871,-845 0,-243 192,-243 231,-243 83,0 230,50 230,226 0,158 -122,227 -230,227 -26,0 -58,-7 -77,-13 134,424 480,546 704,546 320,0 672,-285 672,-829 V 1600 C 1587,1600 1133,1549 774,1357 371,1133 256,813 256,570 256,77 832,-64 1171,-64 c 352,0 679,203 819,575 13,-278 192,-529 474,-529 134,0 474,88 474,585 V 920 H 2822 V 562 c 0,-384 -172,-434 -256,-434 -262,0 -262,330 -262,610 z M 1965,870 C 1965,317 1568,38 1216,38 896,38 646,275 646,570 c 0,191 84,530 455,735 307,173 659,199 864,199 z"
           transform="scale(0.015625)"
           inkscape:connector-curvature="0"
           style="stroke-linecap:butt;stroke-linejoin:round" />
        <path
           id="CMR17-67"
           d="m 710,1164 c 122,-96 333,-204 589,-204 506,0 941,397 941,928 0,166 -51,422 -243,621 179,183 441,243 589,243 25,0 64,0 96,-18 -26,-6 -84,-31 -84,-129 0,-78 58,-134 141,-134 96,0 147,62 147,143 0,117 -96,240 -300,240 -256,0 -480,-116 -660,-274 -192,173 -422,236 -627,236 -505,0 -941,-397 -941,-928 0,-366 212,-596 276,-660 C 442,1004 442,743 442,711 442,545 506,302 723,168 390,85 128,-169 128,-486 c 0,-457 608,-794 1338,-794 704,0 1337,324 1337,801 0,863 -947,863 -1440,863 -147,0 -409,0 -441,7 -199,32 -333,211 -333,435 0,57 0,198 121,338 z m 589,-96 c -563,0 -563,692 -563,821 0,127 0,819 563,819 563,0 563,-692 563,-819 0,-129 0,-821 -563,-821 z m 167,-2239 c -640,0 -1082,336 -1082,685 0,197 109,381 250,482 160,108 224,108 659,108 525,0 1254,0 1254,-590 0,-349 -441,-685 -1081,-685 z"
           transform="scale(0.015625)"
           inkscape:connector-curvature="0"
           style="stroke-linecap:butt;stroke-linejoin:round" />
      </defs>
      <path
         id="use183"
         d="m 30.790784,41.983188 c 0,1.805728 -0.108966,1.899128 -0.700498,1.899128 -0.404732,0 -0.498132,-0.0934 -1.696762,-1.587796 -0.295766,-0.404732 -1.19863,-1.416563 -1.494396,-1.805728 -3.191158,3.393524 -7.674346,3.393524 -9.371108,3.393524 -11.052304,0 -15.03736,-5.790785 -15.03736,-11.566003 0,-8.997509 10.165006,-11.06787 13.044832,-11.690535 6.288916,-1.276463 8.468244,-1.681195 10.569738,-3.486924 1.29203,-1.183063 3.486924,-3.377957 3.486924,-6.958281 0,-4.202989 -2.39726,-9.58904125 -11.566002,-9.58904125 -8.6550437,0 -11.7528021,6.56911575 -13.542964,15.30199225 -0.2957659,1.38543 -0.2957659,1.494396 -1.0896637,1.494396 -0.8094645,0 -0.9028643,-0.108966 -0.9028643,-2.085928 V 0.98069738 c 0,-1.77459526 0.0934,-1.88356163 0.7004981,-1.88356163 0.498132,0 0.5915318,0.10896637 1.0896638,0.90286425 C 4.8879203,0.88729762 6.3823163,3.2845579 6.973848,4.2963885 8.966376,1.6033624 12.4533,-0.996264 18.026152,-0.996264 c 9.86924,0 15.146326,5.4016189 15.146326,13.200498 0,5.105853 -2.693026,7.798879 -3.985056,8.997509 C 26.19863,24.299502 22.711706,25 18.524284,25.793898 c -5.479452,1.214196 -12.4533003,2.615193 -12.4533003,8.71731 0,2.584059 1.4009963,8.094645 11.4570363,8.094645 10.663138,0 11.270236,-10.00934 11.457036,-13.216065 0.108966,-0.498132 0.607098,-0.607098 0.902864,-0.607098 0.902864,0 0.902864,0.311332 0.902864,2.008094 z"
         inkscape:connector-curvature="0"
         style="stroke-width:0.01556662;stroke-linecap:butt;stroke-linejoin:round" />
      <use
         xlink:href="#CMR17-68"
         transform="matrix(0.996264,0,0,0.996264,35.801338,0)"
         id="use185"
         style="stroke-linecap:butt;stroke-linejoin:round"
         x="0"
         y="0"
         width="100%"
         height="100%" />
      <use
         xlink:href="#CMR17-6f"
         transform="matrix(0.996264,0,0,0.996264,86.696707,0)"
         id="use187"
         style="stroke-linecap:butt;stroke-linejoin:round"
         x="0"
         y="0"
         width="100%"
         height="100%" />
      <use
         xlink:href="#CMR17-72"
         transform="matrix(0.996264,0,0,0.996264,132.38718,0)"
         id="use189"
         style="stroke-linecap:butt;stroke-linejoin:round"
         x="0"
         y="0"
         width="100%"
         height="100%" />
      <path
         id="use191"
         d="m 182.70531,39.85056 h 13.9477 v 2.568493 h -13.9477 v 18.353051 h -1.79016 C 180.71278,50.513698 177.22586,41.531756 168.75761,41.531756 V 39.85056 h 8.67061 V 12.001868 c 0,-1.883562 0,-12.998132 11.56601,-12.998132 5.86861,0 9.26214,5.7596512 9.26214,13.091532 v 5.650685 h -1.79016 v -5.557286 c 0,-6.833748 -2.69303,-11.39476912 -6.88045,-11.39476912 -2.89539,0 -6.88045,1.97696142 -6.88045,11.00560412 z"
         inkscape:connector-curvature="0"
         style="stroke-width:0.01556662;stroke-linecap:butt;stroke-linejoin:round" />
      <use
         xlink:href="#CMR17-72"
         transform="matrix(0.996264,0,0,0.996264,233.02469,0)"
         id="use193"
         style="stroke-linecap:butt;stroke-linejoin:round"
         x="0"
         y="0"
         width="100%"
         height="100%" />
      <use
         xlink:href="#CMR17-61"
         transform="matrix(0.996264,0,0,0.996264,268.30545,0)"
         id="use195"
         style="stroke-linecap:butt;stroke-linejoin:round"
         x="0"
         y="0"
         width="100%"
         height="100%" />
      <use
         xlink:href="#CMR17-6e"
         transform="matrix(0.996264,0,0,0.996264,313.99593,0)"
         id="use197"
         style="stroke-linecap:butt;stroke-linejoin:round"
         x="0"
         y="0"
         width="100%"
         height="100%" />
      <use
         xlink:href="#CMR17-67"
         transform="matrix(0.996264,0,0,0.996264,364.8913,0)"
         id="use199"
         style="stroke-linecap:butt;stroke-linejoin:round"
         x="0"
         y="0"
         width="100%"
         height="100%" />
      <use
         xlink:href="#CMR17-65"
         transform="matrix(0.996264,0,0,0.996264,410.58178,0)"
         id="use201"
         style="stroke-linecap:butt;stroke-linejoin:round"
         x="0"
         y="0"
         width="100%"
         height="100%" />
    </g>
  </g>
  <g
     id="patch_5"
     style="stroke-linecap:butt;stroke-linejoin:round">
    <path
       d="m 105.25237,75.170347 h 50.72727 v -54.36 h -50.72727 z"
       style="fill:#ffffff;stroke-linecap:butt;stroke-linejoin:round"
       id="path207"
       inkscape:connector-curvature="0" />
  </g>
  <g
     style="stroke-linecap:butt;stroke-linejoin:round"
     id="xtick_3">
    <g
       style="stroke-linecap:butt;stroke-linejoin:round"
       id="line2d_6">
      <g
         style="stroke-linecap:butt;stroke-linejoin:round"
         id="g212">
        <use
           height="100%"
           width="100%"
           id="use210"
           style="fill:#262626;stroke:#262626;stroke-width:0.80000001;stroke-linecap:butt;stroke-linejoin:round"
           y="75.170349"
           x="115.2441"
           xlink:href="#m7c1f58e915" />
      </g>
    </g>
    <g
       style="stroke-linecap:butt;stroke-linejoin:round"
       id="text_8">
      <!-- $\mathdefault{750}$ -->
      <g
         id="g224"
         transform="matrix(0.11,0,0,-0.11,107.02491,89.780693)"
         style="fill:#262626;stroke-linecap:butt;stroke-linejoin:round">
        <defs
           id="defs216">
          <path
             style="stroke-linecap:butt;stroke-linejoin:round"
             inkscape:connector-curvature="0"
             transform="scale(0.015625)"
             d="m 2886,3941 v 140 H 1382 c -748,0 -761,84 -787,207 H 480 L 294,3094 h 116 c 19,121 64,446 140,567 39,51 512,51 621,51 H 2579 L 1869,2661 C 1395,1954 1069,999 1069,165 c 0,-76 0,-293 230,-293 231,0 231,217 231,299 v 294 c 0,1043 179,1731 473,2171 z"
             id="CMR17-37" />
        </defs>
        <use
           height="100%"
           width="100%"
           y="0"
           x="0"
           style="stroke-linecap:butt;stroke-linejoin:round"
           id="use218"
           transform="scale(0.996264)"
           xlink:href="#CMR17-37" />
        <use
           height="100%"
           width="100%"
           y="0"
           x="0"
           style="stroke-linecap:butt;stroke-linejoin:round"
           id="use220"
           transform="matrix(0.996264,0,0,0.996264,45.690477,0)"
           xlink:href="#CMR17-35" />
        <use
           height="100%"
           width="100%"
           y="0"
           x="0"
           style="stroke-linecap:butt;stroke-linejoin:round"
           id="use222"
           transform="matrix(0.996264,0,0,0.996264,91.380954,0)"
           xlink:href="#CMR17-30" />
      </g>
    </g>
  </g>
  <g
     style="stroke-linecap:butt;stroke-linejoin:round"
     id="xtick_4">
    <g
       style="stroke-linecap:butt;stroke-linejoin:round"
       id="line2d_7">
      <g
         style="stroke-linecap:butt;stroke-linejoin:round"
         id="g230">
        <use
           height="100%"
           width="100%"
           id="use228"
           style="fill:#262626;stroke:#262626;stroke-width:0.80000001;stroke-linecap:butt;stroke-linejoin:round"
           y="75.170349"
           x="153.67386"
           xlink:href="#m7c1f58e915" />
      </g>
    </g>
    <g
       style="stroke-linecap:butt;stroke-linejoin:round"
       id="text_9">
      <!-- $\mathdefault{1000}$ -->
      <g
         id="g241"
         transform="matrix(0.11,0,0,-0.11,142.71492,89.780693)"
         style="fill:#262626;stroke-linecap:butt;stroke-linejoin:round">
        <use
           height="100%"
           width="100%"
           y="0"
           x="0"
           style="stroke-linecap:butt;stroke-linejoin:round"
           id="use233"
           transform="scale(0.996264)"
           xlink:href="#CMR17-31" />
        <use
           height="100%"
           width="100%"
           y="0"
           x="0"
           style="stroke-linecap:butt;stroke-linejoin:round"
           id="use235"
           transform="matrix(0.996264,0,0,0.996264,45.690477,0)"
           xlink:href="#CMR17-30" />
        <use
           height="100%"
           width="100%"
           y="0"
           x="0"
           style="stroke-linecap:butt;stroke-linejoin:round"
           id="use237"
           transform="matrix(0.996264,0,0,0.996264,91.380954,0)"
           xlink:href="#CMR17-30" />
        <use
           height="100%"
           width="100%"
           y="0"
           x="0"
           style="stroke-linecap:butt;stroke-linejoin:round"
           id="use239"
           transform="matrix(0.996264,0,0,0.996264,137.07143,0)"
           xlink:href="#CMR17-30" />
      </g>
    </g>
  </g>
  <g
     style="stroke-linecap:butt;stroke-linejoin:round"
     id="text_10"
     transform="translate(-25.499999)">
    <!-- stimulus [ms] -->
    <g
       id="g269"
       transform="matrix(0.11,0,0,-0.11,99.01778,104.13077)"
       style="fill:#262626;stroke-linecap:butt;stroke-linejoin:round">
      <path
         id="use245"
         d="m 30.790784,41.983188 c 0,1.805728 -0.108966,1.899128 -0.700498,1.899128 -0.404732,0 -0.498132,-0.0934 -1.696762,-1.587796 -0.295766,-0.404732 -1.19863,-1.416563 -1.494396,-1.805728 -3.191158,3.393524 -7.674346,3.393524 -9.371108,3.393524 -11.052304,0 -15.03736,-5.790785 -15.03736,-11.566003 0,-8.997509 10.165006,-11.06787 13.044832,-11.690535 6.288916,-1.276463 8.468244,-1.681195 10.569738,-3.486924 1.29203,-1.183063 3.486924,-3.377957 3.486924,-6.958281 0,-4.202989 -2.39726,-9.58904125 -11.566002,-9.58904125 -8.6550437,0 -11.7528021,6.56911575 -13.542964,15.30199225 -0.2957659,1.38543 -0.2957659,1.494396 -1.0896637,1.494396 -0.8094645,0 -0.9028643,-0.108966 -0.9028643,-2.085928 V 0.98069738 c 0,-1.77459526 0.0934,-1.88356163 0.7004981,-1.88356163 0.498132,0 0.5915318,0.10896637 1.0896638,0.90286425 C 4.8879203,0.88729762 6.3823163,3.2845579 6.973848,4.2963885 8.966376,1.6033624 12.4533,-0.996264 18.026152,-0.996264 c 9.86924,0 15.146326,5.4016189 15.146326,13.200498 0,5.105853 -2.693026,7.798879 -3.985056,8.997509 C 26.19863,24.299502 22.711706,25 18.524284,25.793898 c -5.479452,1.214196 -12.4533003,2.615193 -12.4533003,8.71731 0,2.584059 1.4009963,8.094645 11.4570363,8.094645 10.663138,0 11.270236,-10.00934 11.457036,-13.216065 0.108966,-0.498132 0.607098,-0.607098 0.902864,-0.607098 0.902864,0 0.902864,0.311332 0.902864,2.008094 z"
         inkscape:connector-curvature="0"
         style="stroke-width:0.01556662;stroke-linecap:butt;stroke-linejoin:round" />
      <path
         id="use247"
         d="m 50.838698,39.85056 h 13.947696 v 2.568493 H 50.838698 V 60.772104 H 49.048536 C 48.84617,50.513698 45.359246,41.531756 36.891002,41.531756 V 39.85056 h 8.67061 V 12.001868 c 0,-1.883562 0,-12.998132 11.566002,-12.998132 5.868618,0 9.262142,5.7596512 9.262142,13.091532 v 5.650685 h -1.790162 v -5.557286 c 0,-6.833748 -2.693026,-11.39476912 -6.880448,-11.39476912 -2.895392,0 -6.880448,1.97696142 -6.880448,11.00560412 z"
         inkscape:connector-curvature="0"
         style="stroke-width:0.01556662;stroke-linecap:butt;stroke-linejoin:round" />
      <path
         id="use249"
         d="m 86.524197,60.849937 c 0,2.179328 -1.790162,4.062889 -4.078456,4.062889 -2.194894,0 -4.094022,-1.774595 -4.094022,-4.062889 0,-2.179327 1.790162,-4.062889 4.094022,-4.062889 2.179328,0 4.078456,1.790162 4.078456,4.062889 z M 74.864795,42.123287 v -2.568493 c 5.588418,0 6.382316,-0.607098 6.382316,-5.354919 V 6.6469489 c 0,-3.7826899 -0.404732,-4.2652553 -6.771482,-4.2652553 V -0.20236613 C 76.857323,0 81.138145,0 83.628805,0 c 2.39726,0 6.475716,0 8.779576,-0.20236613 V 2.3816936 c -5.884184,0 -6.08655,0.5915318 -6.08655,4.1562889 V 43.212951 Z"
         inkscape:connector-curvature="0"
         style="stroke-width:0.01556662;stroke-linecap:butt;stroke-linejoin:round" />
      <path
         id="use251"
         d="m 163.29438,30.090286 c 0,4.965754 -0.88729,13.340598 -12.74906,13.340598 -6.77148,0 -11.45704,-4.576588 -13.2472,-9.947074 h -0.0934 c -1.19863,8.172479 -7.08281,9.947074 -12.65567,9.947074 -7.87671,0 -11.95516,-6.070984 -13.44956,-10.05604 h -0.10897 v 10.05604 L 99.237722,42.34122 v -2.58406 c 5.884188,0 6.771478,-0.607098 6.771478,-5.386052 V 6.6625155 c 0,-3.7982565 -0.38916,-4.2808219 -6.771478,-4.2808219 V -0.20236613 C 101.63498,0 106.0092,0 108.60883,0 c 2.58406,0 7.06725,0 9.46451,-0.20236613 V 2.3816936 c -6.38232,0 -6.77148,0.3891657 -6.77148,4.2808219 V 25.809464 c 0,9.168742 5.57285,16.033624 12.5467,16.033624 7.37858,0 8.17247,-6.569116 8.17247,-11.363636 V 6.6625155 c 0,-3.7982565 -0.40473,-4.2808219 -6.77148,-4.2808219 V -0.20236613 C 127.63125,0 132.02103,0 134.60509,0 c 2.59963,0 7.08282,0 9.46451,-0.20236613 V 2.3816936 c -6.36675,0 -6.77148,0.3891657 -6.77148,4.2808219 V 25.809464 c 0,9.168742 5.57285,16.033624 12.5467,16.033624 7.37858,0 8.17248,-6.569116 8.17248,-11.363636 V 6.6625155 c 0,-3.7982565 -0.38917,-4.2808219 -6.77148,-4.2808219 V -0.20236613 C 153.64308,0 158.0173,0 160.61692,0 c 2.58406,0 7.06725,0 9.46451,-0.20236613 V 2.3816936 c -6.38231,0 -6.78705,0.3891657 -6.78705,4.2808219 z"
         inkscape:connector-curvature="0"
         style="stroke-width:0.01556662;stroke-linecap:butt;stroke-linejoin:round" />
      <path
         id="use253"
         d="m 199.56669,41.920921 v -2.568493 c 5.86862,0 6.77148,-0.607098 6.77148,-5.323786 V 16.064757 c 0,-8.2814445 -4.48319,-15.47322525 -11.86177,-15.47322525 -8.17248,0 -8.85741,4.82565375 -8.85741,9.96264025 v 32.456413 l -12.06413,-1.089664 v -2.568493 c 3.98505,0 6.67808,0 6.77148,-3.953923 V 16.469489 c 0,-6.6158154 0,-10.8499374 2.59963,-13.6207966 1.29203,-1.2764633 3.78269,-3.8449564 10.9589,-3.8449564 8.46824,0 11.7528,6.8648816 12.5467,8.8729763 h 0.10897 v -8.85740968 h 11.8462 V 1.992528 c -5.86862,0 -6.77148,0.5915318 -6.77148,5.3704856 V 43.010585 Z"
         inkscape:connector-curvature="0"
         style="stroke-width:0.01556662;stroke-linecap:butt;stroke-linejoin:round" />
      <path
         id="use255"
         d="M 236.4054,68.430884 224.55919,67.34122 v -2.58406 c 5.86862,0 6.77149,-0.591532 6.77149,-5.339352 V 6.6313823 c 0,-3.7671233 -0.40474,-4.2496887 -6.77149,-4.2496887 V -0.20236613 C 226.94089,0 231.33068,0 233.82134,0 c 2.58406,0 6.97384,0 9.35554,-0.20236613 V 2.3816936 c -6.36675,0 -6.77148,0.3891657 -6.77148,4.2496887 z"
         inkscape:connector-curvature="0"
         style="stroke-width:0.01556662;stroke-linecap:butt;stroke-linejoin:round" />
      <path
         id="use257"
         d="m 275.33312,41.920921 v -2.568493 c 5.86862,0 6.77148,-0.607098 6.77148,-5.323786 V 16.064757 c 0,-8.2814445 -4.48319,-15.47322525 -11.86177,-15.47322525 -8.17248,0 -8.85741,4.82565375 -8.85741,9.96264025 v 32.456413 l -12.06413,-1.089664 v -2.568493 c 3.98505,0 6.67808,0 6.77148,-3.953923 V 16.469489 c 0,-6.6158154 0,-10.8499374 2.59963,-13.6207966 1.29203,-1.2764633 3.78269,-3.8449564 10.9589,-3.8449564 8.46824,0 11.7528,6.8648816 12.5467,8.8729763 h 0.10897 v -8.85740968 h 11.8462 V 1.992528 c -5.86862,0 -6.77148,0.5915318 -6.77148,5.3704856 V 43.010585 Z"
         inkscape:connector-curvature="0"
         style="stroke-width:0.01556662;stroke-linecap:butt;stroke-linejoin:round" />
      <path
         id="use259"
         d="m 327.72288,41.983188 c 0,1.805728 -0.10896,1.899128 -0.70049,1.899128 -0.40474,0 -0.49814,-0.0934 -1.69677,-1.587796 -0.29576,-0.404732 -1.19863,-1.416563 -1.49439,-1.805728 -3.19116,3.393524 -7.67435,3.393524 -9.37111,3.393524 -11.0523,0 -15.03736,-5.790785 -15.03736,-11.566003 0,-8.997509 10.16501,-11.06787 13.04483,-11.690535 6.28892,-1.276463 8.46825,-1.681195 10.56974,-3.486924 1.29203,-1.183063 3.48692,-3.377957 3.48692,-6.958281 0,-4.202989 -2.39726,-9.58904125 -11.566,-9.58904125 -8.65504,0 -11.7528,6.56911575 -13.54296,15.30199225 -0.29577,1.38543 -0.29577,1.494396 -1.08967,1.494396 -0.80946,0 -0.90286,-0.108966 -0.90286,-2.085928 V 0.98069738 c 0,-1.77459526 0.0934,-1.88356163 0.7005,-1.88356163 0.49813,0 0.59153,0.10896637 1.08966,0.90286425 0.6071,0.88729762 2.1015,3.2845579 2.69303,4.2963885 1.99253,-2.6930261 5.47945,-5.2926525 11.0523,-5.2926525 9.86924,0 15.14633,5.4016189 15.14633,13.200498 0,5.105853 -2.69303,7.798879 -3.98506,8.997509 -2.98879,3.097759 -6.47571,3.798257 -10.66314,4.592155 -5.47945,1.214196 -12.4533,2.615193 -12.4533,8.71731 0,2.584059 1.401,8.094645 11.45704,8.094645 10.66314,0 11.27024,-10.00934 11.45704,-13.216065 0.10896,-0.498132 0.60709,-0.607098 0.90286,-0.607098 0.90286,0 0.90286,0.311332 0.90286,2.008094 z"
         inkscape:connector-curvature="0"
         style="stroke-width:0.01556662;stroke-linecap:butt;stroke-linejoin:round" />
      <path
         id="use261"
         d="m 386.2216,-24.9066 v 3.471357 h -9.3711 v 92.169987 h 9.3711 v 3.471357 H 373.36357 V -24.9066 Z"
         inkscape:connector-curvature="0"
         style="stroke-width:0.01556662;stroke-linecap:butt;stroke-linejoin:round" />
      <path
         id="use263"
         d="m 455.02168,30.090286 c 0,4.965754 -0.8873,13.340598 -12.74907,13.340598 -6.77148,0 -11.45703,-4.576588 -13.24719,-9.947074 h -0.0934 c -1.19863,8.172479 -7.08282,9.947074 -12.65567,9.947074 -7.87671,0 -11.95517,-6.070984 -13.44956,-10.05604 h -0.10897 v 10.05604 l -11.7528,-1.089664 v -2.58406 c 5.88418,0 6.77148,-0.607098 6.77148,-5.386052 V 6.6625155 c 0,-3.7982565 -0.38917,-4.2808219 -6.77148,-4.2808219 V -0.20236613 C 393.36228,0 397.7365,0 400.33613,0 c 2.58406,0 7.06724,0 9.4645,-0.20236613 V 2.3816936 c -6.38231,0 -6.77148,0.3891657 -6.77148,4.2808219 V 25.809464 c 0,9.168742 5.57285,16.033624 12.5467,16.033624 7.37858,0 8.17248,-6.569116 8.17248,-11.363636 V 6.6625155 c 0,-3.7982565 -0.40473,-4.2808219 -6.77148,-4.2808219 V -0.20236613 C 419.35854,0 423.74833,0 426.33239,0 c 2.59963,0 7.08281,0 9.46451,-0.20236613 V 2.3816936 c -6.36675,0 -6.77148,0.3891657 -6.77148,4.2808219 V 25.809464 c 0,9.168742 5.57285,16.033624 12.5467,16.033624 7.37858,0 8.17247,-6.569116 8.17247,-11.363636 V 6.6625155 c 0,-3.7982565 -0.38916,-4.2808219 -6.77148,-4.2808219 V -0.20236613 C 445.37037,0 449.74459,0 452.34422,0 c 2.58406,0 7.06725,0 9.46451,-0.20236613 V 2.3816936 c -6.38232,0 -6.78705,0.3891657 -6.78705,4.2808219 z"
         inkscape:connector-curvature="0"
         style="stroke-width:0.01556662;stroke-linecap:butt;stroke-linejoin:round" />
      <path
         id="use265"
         d="m 495.39083,41.983188 c 0,1.805728 -0.10896,1.899128 -0.70049,1.899128 -0.40474,0 -0.49814,-0.0934 -1.69677,-1.587796 -0.29576,-0.404732 -1.19863,-1.416563 -1.49439,-1.805728 -3.19116,3.393524 -7.67435,3.393524 -9.37111,3.393524 -11.0523,0 -15.03736,-5.790785 -15.03736,-11.566003 0,-8.997509 10.16501,-11.06787 13.04483,-11.690535 6.28892,-1.276463 8.46825,-1.681195 10.56974,-3.486924 1.29203,-1.183063 3.48692,-3.377957 3.48692,-6.958281 0,-4.202989 -2.39726,-9.58904125 -11.566,-9.58904125 -8.65504,0 -11.7528,6.56911575 -13.54296,15.30199225 -0.29577,1.38543 -0.29577,1.494396 -1.08967,1.494396 -0.80946,0 -0.90286,-0.108966 -0.90286,-2.085928 V 0.98069738 c 0,-1.77459526 0.0934,-1.88356163 0.7005,-1.88356163 0.49813,0 0.59153,0.10896637 1.08966,0.90286425 0.6071,0.88729762 2.1015,3.2845579 2.69303,4.2963885 1.99253,-2.6930261 5.47945,-5.2926525 11.0523,-5.2926525 9.86924,0 15.14633,5.4016189 15.14633,13.200498 0,5.105853 -2.69303,7.798879 -3.98506,8.997509 -2.98879,3.097759 -6.47571,3.798257 -10.66314,4.592155 -5.47945,1.214196 -12.4533,2.615193 -12.4533,8.71731 0,2.584059 1.401,8.094645 11.45704,8.094645 10.66314,0 11.27024,-10.00934 11.45704,-13.216065 0.10896,-0.498132 0.60709,-0.607098 0.90286,-0.607098 0.90286,0 0.90286,0.311332 0.90286,2.008094 z"
         inkscape:connector-curvature="0"
         style="stroke-width:0.01556662;stroke-linecap:butt;stroke-linejoin:round" />
      <path
         id="use267"
         d="m 514.64485,74.206101 h -12.84246 v -3.471357 h 9.35554 v -92.169987 h -9.35554 V -24.9066 h 12.84246 z"
         inkscape:connector-curvature="0"
         style="stroke-width:0.01556662;stroke-linecap:butt;stroke-linejoin:round" />
    </g>
  </g>
  <g
     id="matplotlib.axis_4"
     style="stroke-linecap:butt;stroke-linejoin:round">
    <g
       id="ytick_3"
       style="stroke-linecap:butt;stroke-linejoin:round">
      <g
         id="line2d_8"
         style="stroke-linecap:butt;stroke-linejoin:round">
        <g
           id="g275"
           style="stroke-linecap:butt;stroke-linejoin:round">
          <use
             xlink:href="#md294d68e99"
             x="105.25237"
             y="62.809757"
             style="fill:#262626;stroke:#262626;stroke-width:0.80000001;stroke-linecap:butt;stroke-linejoin:round"
             id="use273"
             width="100%"
             height="100%" />
        </g>
      </g>
    </g>
    <g
       id="ytick_4"
       style="stroke-linecap:butt;stroke-linejoin:round">
      <g
         id="line2d_9"
         style="stroke-linecap:butt;stroke-linejoin:round">
        <g
           id="g281"
           style="stroke-linecap:butt;stroke-linejoin:round">
          <use
             xlink:href="#md294d68e99"
             x="105.25237"
             y="39.934792"
             style="fill:#262626;stroke:#262626;stroke-width:0.80000001;stroke-linecap:butt;stroke-linejoin:round"
             id="use279"
             width="100%"
             height="100%" />
        </g>
      </g>
    </g>
  </g>
  <g
     id="line2d_10"
     style="stroke-linecap:butt;stroke-linejoin:round">
    <path
       d="m 107.55816,55.71814 7.68595,-6.404188 7.68595,3.918921 7.68595,-12.79411 7.68595,-4.066039 7.68595,-11.257919 7.68595,-1.833549"
       clip-path="url(#p17cb8c7fe6)"
       style="fill:none;stroke:#808080;stroke-width:1.5;stroke-linecap:round;stroke-linejoin:round"
       id="path286"
       inkscape:connector-curvature="0" />
  </g>
  <g
     id="patch_6"
     style="stroke-linecap:butt;stroke-linejoin:round">
    <path
       d="m 105.25237,75.170347 v -54.36"
       style="fill:none;stroke:#262626;stroke-width:0.80000001;stroke-linecap:square;stroke-linejoin:miter"
       id="path289"
       inkscape:connector-curvature="0" />
  </g>
  <g
     id="patch_7"
     style="stroke-linecap:butt;stroke-linejoin:round">
    <path
       d="m 105.25237,75.170347 h 50.72727"
       style="fill:none;stroke:#262626;stroke-width:0.80000001;stroke-linecap:square;stroke-linejoin:miter"
       id="path292"
       inkscape:connector-curvature="0" />
  </g>
  <g
     id="text_11"
     style="stroke-linecap:butt;stroke-linejoin:round">
    <!-- long range -->
    <g
       style="fill:#262626;stroke-linecap:butt;stroke-linejoin:round"
       transform="matrix(0.11,0,0,-0.11,105.63877,14.810347)"
       id="g313">
      <path
         id="use295"
         d="M 15.239726,68.430884 3.3935243,67.34122 v -2.58406 c 5.8686176,0 6.7714817,-0.591532 6.7714817,-5.339352 V 6.6313823 c 0,-3.7671233 -0.4047321,-4.2496887 -6.7714817,-4.2496887 V -0.20236613 C 5.7752179,0 10.165006,0 12.655666,0 c 2.58406,0 6.973848,0 9.355542,-0.20236613 V 2.3816936 c -6.36675,0 -6.771482,0.3891657 -6.771482,4.2496887 z"
         inkscape:connector-curvature="0"
         style="stroke-width:0.01556662;stroke-linecap:butt;stroke-linejoin:round" />
      <use
         xlink:href="#CMR17-6f"
         transform="matrix(0.996264,0,0,0.996264,24.871058,0)"
         id="use297"
         style="stroke-linecap:butt;stroke-linejoin:round"
         x="0"
         y="0"
         width="100%"
         height="100%" />
      <use
         xlink:href="#CMR17-6e"
         transform="matrix(0.996264,0,0,0.996264,70.561536,0)"
         id="use299"
         style="stroke-linecap:butt;stroke-linejoin:round"
         x="0"
         y="0"
         width="100%"
         height="100%" />
      <use
         xlink:href="#CMR17-67"
         transform="matrix(0.996264,0,0,0.996264,121.45691,0)"
         id="use301"
         style="stroke-linecap:butt;stroke-linejoin:round"
         x="0"
         y="0"
         width="100%"
         height="100%" />
      <use
         xlink:href="#CMR17-72"
         transform="matrix(0.996264,0,0,0.996264,197.22335,0)"
         id="use303"
         style="stroke-linecap:butt;stroke-linejoin:round"
         x="0"
         y="0"
         width="100%"
         height="100%" />
      <use
         xlink:href="#CMR17-61"
         transform="matrix(0.996264,0,0,0.996264,232.50412,0)"
         id="use305"
         style="stroke-linecap:butt;stroke-linejoin:round"
         x="0"
         y="0"
         width="100%"
         height="100%" />
      <use
         xlink:href="#CMR17-6e"
         transform="matrix(0.996264,0,0,0.996264,278.19459,0)"
         id="use307"
         style="stroke-linecap:butt;stroke-linejoin:round"
         x="0"
         y="0"
         width="100%"
         height="100%" />
      <use
         xlink:href="#CMR17-67"
         transform="matrix(0.996264,0,0,0.996264,329.08996,0)"
         id="use309"
         style="stroke-linecap:butt;stroke-linejoin:round"
         x="0"
         y="0"
         width="100%"
         height="100%" />
      <use
         xlink:href="#CMR17-65"
         transform="matrix(0.996264,0,0,0.996264,374.78044,0)"
         id="use311"
         style="stroke-linecap:butt;stroke-linejoin:round"
         x="0"
         y="0"
         width="100%"
         height="100%" />
    </g>
  </g>
  <defs
     id="defs324">
    <clipPath
       id="p79dfb68826"
       style="stroke-linecap:butt;stroke-linejoin:round">
      <rect
         x="44.379642"
         y="20.810347"
         width="50.727272"
         height="54.360001"
         id="rect318"
         style="stroke-linecap:butt;stroke-linejoin:round" />
    </clipPath>
    <clipPath
       id="p17cb8c7fe6"
       style="stroke-linecap:butt;stroke-linejoin:round">
      <rect
         x="105.25237"
         y="20.810347"
         width="50.727272"
         height="54.360001"
         id="rect321"
         style="stroke-linecap:butt;stroke-linejoin:round" />
    </clipPath>
  </defs>
</svg>
